<?xml version="1.0" standalone="no"?>
<!DOCTYPE svg PUBLIC "-//W3C//DTD SVG 20010904//EN"
 "http://www.w3.org/TR/2001/REC-SVG-20010904/DTD/svg10.dtd">
<svg version="1.0" xmlns="http://www.w3.org/2000/svg"
 width="512.000000pt" height="512.000000pt" viewBox="0 0 512.000000 512.000000"
 preserveAspectRatio="xMidYMid meet">
<g transform="translate(0.000000,512.000000) scale(0.100000,-0.100000)"
fill="#000000" stroke="none">
<path d="M2379 5116 c-2 -2 -35 -6 -74 -9 -370 -32 -807 -187 -1135 -402 -211
-138 -436 -340 -575 -515 -33 -41 -63 -77 -66 -80 -16 -13 -123 -175 -169
-255 -63 -109 -160 -307 -160 -327 0 -8 -4 -18 -9 -23 -32 -33 -133 -405 -157
-575 -2 -19 -6 -48 -9 -65 -13 -86 -16 -321 -20 -1538 l-4 -1328 1407 4 c774
2 1418 6 1432 10 14 3 47 9 74 11 26 3 56 7 65 10 9 3 34 7 56 11 169 25 435
112 638 209 321 154 619 387 856 669 84 100 223 305 276 407 21 41 46 89 55
105 29 55 124 287 134 330 2 6 10 35 20 66 9 31 18 65 20 75 2 11 11 46 19 79
17 66 34 155 42 225 3 25 8 55 11 68 l5 23 -1325 -5 -1325 -6 -1 264 0 264
497 2 c1262 5 2146 10 2148 12 1 2 -3 41 -11 88 -50 334 -154 637 -315 917
-347 603 -935 1045 -1608 1209 -58 14 -117 28 -131 30 -50 8 -86 14 -120 19
-19 3 -53 7 -75 11 -43 6 -461 15 -466 10z"/>
</g>
</svg>
