<svg width="32" height="32" viewBox="0 0 32 32" fill="none" xmlns="http://www.w3.org/2000/svg">
<path d="M16.0035 7.79566C11.4633 7.79566 7.80102 11.4587 7.80102 16C7.80102 20.5415 11.4633 24.2043 16.0035 24.2043C20.5438 24.2043 24.2061 20.5415 24.2061 16C24.2061 11.4587 20.5438 7.79566 16.0035 7.79566ZM16.0035 21.3339C13.0696 21.3339 10.6708 18.9419 10.6708 16C10.6708 13.0581 13.0625 10.6661 16.0035 10.6661C18.9448 10.6661 21.3365 13.0581 21.3365 16C21.3365 18.9419 18.9377 21.3339 16.0035 21.3339ZM26.4549 7.46011C26.4549 8.52389 25.5982 9.37371 24.5418 9.37371C23.478 9.37371 22.6286 8.5168 22.6286 7.46011C22.6286 6.4032 23.4851 5.54629 24.5418 5.54629C25.5982 5.54629 26.4549 6.4032 26.4549 7.46011ZM31.8876 9.40229C31.7662 6.83886 31.1808 4.56823 29.3035 2.69737C27.433 0.826515 25.1629 0.240983 22.5998 0.112457C19.9586 -0.0374857 12.0414 -0.0374857 9.4002 0.112457C6.84443 0.233851 4.5743 0.819383 2.69678 2.69006C0.81918 4.56091 0.240952 6.83154 0.112432 9.39497C-0.0374774 12.037 -0.0374774 19.9559 0.112432 22.5979C0.2338 25.1614 0.81918 27.432 2.69678 29.3026C4.5743 31.1735 6.83734 31.7591 9.4002 31.8875C12.0414 32.0375 19.9586 32.0375 22.5998 31.8875C25.1629 31.7662 27.433 31.1806 29.3035 29.3026C31.1737 27.432 31.7591 25.1614 31.8876 22.5979C32.0375 19.9559 32.0375 12.0441 31.8876 9.40229ZM28.4753 25.4327C27.9184 26.832 26.8405 27.9104 25.4341 28.4745C23.3281 29.3099 18.3308 29.117 16.0035 29.117C13.6763 29.117 8.67191 29.3026 6.57317 28.4745C5.17394 27.9175 4.09601 26.8393 3.53202 25.4327C2.69677 23.3262 2.88942 18.3278 2.88942 16C2.88942 13.6722 2.70386 8.66674 3.53202 6.56754C4.08869 5.168 5.16686 4.0896 6.57317 3.52571C8.67899 2.69006 13.6763 2.88297 16.0035 2.88297C18.3308 2.88297 23.3354 2.69737 25.4341 3.52571C26.8334 4.08251 27.9113 5.16068 28.4753 6.56754C29.3105 8.67383 29.1177 13.6722 29.1177 16C29.1177 18.3278 29.3105 23.3333 28.4753 25.4327Z" fill="#833AB4"/>
</svg>