<svg width="32" height="32" viewBox="0 0 32 32" fill="none" xmlns="http://www.w3.org/2000/svg">
<path fill-rule="evenodd" clip-rule="evenodd" d="M0 4.26959C0 1.93472 1.90163 0.0351562 4.23907 0.0351562C6.57466 0.0351562 8.47484 1.93472 8.47474 4.26959C8.47474 6.60538 6.57466 8.50577 4.23907 8.50577C1.90163 8.50577 0 6.60548 0 4.26959ZM1.025 10.2947H7.44905C7.73416 10.2947 7.96518 10.5258 7.96518 10.8108V31.4485C7.96518 31.7336 7.73416 31.9646 7.44905 31.9646H1.025C0.739891 31.9646 0.508871 31.7336 0.508871 31.4485V10.8108C0.508871 10.5258 0.739891 10.2947 1.025 10.2947Z" fill="#00AFF0"/>
<path d="M23.7891 9.78174C21.209 9.78174 19.3017 10.8909 18.1449 12.1512V10.8108C18.1449 10.5258 17.9138 10.2947 17.6287 10.2947H11.4766C11.1915 10.2947 10.9604 10.5258 10.9604 10.8108V31.4485C10.9604 31.7336 11.1915 31.9647 11.4766 31.9647H17.8866C18.1717 31.9647 18.4027 31.7336 18.4027 31.4485V21.2376C18.4027 17.7968 19.3373 16.4563 21.7359 16.4563C24.3481 16.4563 24.5557 18.6053 24.5557 21.4147V31.4486C24.5557 31.7337 24.7867 31.9648 25.0718 31.9648H31.4842C31.7693 31.9648 32.0003 31.7337 32.0003 31.4486V20.1285C32.0003 15.0121 31.0248 9.78174 23.7891 9.78174Z" fill="#00AFF0"/>
</svg>