<svg width="80" height="80" viewBox="0 0 80 80" fill="none" xmlns="http://www.w3.org/2000/svg">
<g clip-path="url(#clip0_21_116)">
<path d="M35.9222 60.5649C35.2748 60.5649 34.7502 61.0895 34.7502 61.7368V70.7112C34.7502 71.3586 35.2748 71.8831 35.9222 71.8831C36.5695 71.8831 37.094 71.3586 37.094 70.7112V61.7368C37.094 61.0895 36.5695 60.5649 35.9222 60.5649Z" fill="#45D987"/>
<path d="M26.4374 60.5649C25.79 60.5649 25.2655 61.0895 25.2655 61.7368V70.7112C25.2655 71.3586 25.79 71.8831 26.4374 71.8831C27.0847 71.8831 27.6092 71.3586 27.6092 70.7112V61.7368C27.6092 61.0895 27.0847 60.5649 26.4374 60.5649Z" fill="#45D987"/>
<path d="M31.1798 61.1289C30.5324 61.1289 30.0079 61.6534 30.0079 62.3007V76.3883C30.0079 77.0356 30.5324 77.5601 31.1798 77.5601C31.8272 77.5601 32.3517 77.0356 32.3517 76.3883V62.3007C32.3517 61.6536 31.827 61.1289 31.1798 61.1289Z" fill="#45D987"/>
<path d="M62.023 28.7773H70.9973C71.6447 28.7773 72.1692 28.2528 72.1692 27.6055C72.1692 26.9582 71.6447 26.4336 70.9973 26.4336H62.023C61.3756 26.4336 60.8511 26.9582 60.8511 27.6055C60.8511 28.2528 61.3756 28.7773 62.023 28.7773Z" fill="#45D987"/>
<path d="M70.9973 35.9185H62.023C61.3756 35.9185 60.8511 36.443 60.8511 37.0903C60.8511 37.7376 61.3756 38.2622 62.023 38.2622H70.9973C71.6447 38.2622 72.1692 37.7376 72.1692 37.0903C72.1692 36.443 71.6447 35.9185 70.9973 35.9185Z" fill="#45D987"/>
<path d="M76.751 31.1758H62.3819C61.7346 31.1758 61.2101 31.7003 61.2101 32.3477C61.2101 32.995 61.7346 33.5195 62.3819 33.5195H76.751C77.3983 33.5195 77.9229 32.995 77.9229 32.3477C77.9229 31.7003 77.3983 31.1758 76.751 31.1758Z" fill="#45D987"/>
<path d="M72.8878 79.717L56.7253 63.5545C56.3481 63.1773 56.3481 62.5658 56.7253 62.1887L62.1888 56.7253C62.566 56.3481 63.1774 56.3481 63.5546 56.7253L79.717 72.8877C80.0942 73.2649 80.0942 73.8765 79.717 74.2535L74.2536 79.717C73.8764 80.094 73.265 80.094 72.8878 79.717Z" fill="#F78E36"/>
<path d="M62.189 56.7253L58.7745 60.1398C59.1517 59.7626 59.7632 59.7626 60.1403 60.1398L76.3028 76.3023C76.68 76.6795 76.68 77.2911 76.3028 77.6681L79.7173 74.2535C80.0945 73.8763 80.0945 73.2649 79.7173 72.8877L63.5548 56.7253C63.1776 56.3481 62.566 56.3481 62.189 56.7253Z" fill="#F86F1B"/>
<path d="M50.2963 53.7221L53.7103 50.3081L61.1518 57.7496L57.7377 61.1636L50.2963 53.7221Z" fill="#4380A0"/>
<path d="M59.7286 66.5704L66.5568 59.7422L69.9709 63.1562L63.1426 69.9844L59.7286 66.5704Z" fill="#7BE492"/>
<path d="M63.1429 63.1567L66.557 59.7427L69.971 63.1567L66.557 66.5708L63.1429 63.1567Z" fill="#45D987"/>
<path d="M31.3883 62.7766C48.7236 62.7766 62.7766 48.7236 62.7766 31.3883C62.7766 14.053 48.7236 0 31.3883 0C14.053 0 0 14.053 0 31.3883C0 48.7236 14.053 62.7766 31.3883 62.7766Z" fill="#43809F"/>
<path d="M31.3886 0C30.5762 0 29.7709 0.0309375 28.974 0.0915625C45.1812 1.32453 57.948 14.8654 57.948 31.3884C57.948 47.9114 45.1812 61.4523 28.974 62.6853C29.7709 62.746 30.576 62.7768 31.3886 62.7768C48.7239 62.7768 62.7768 48.7239 62.7768 31.3886C62.7768 14.0533 48.7239 0 31.3886 0Z" fill="#3A7190"/>
<path d="M31.3881 57.9478C46.0565 57.9478 57.9475 46.0568 57.9475 31.3884C57.9475 16.7201 46.0565 4.8291 31.3881 4.8291C16.7198 4.8291 4.82874 16.7201 4.82874 31.3884C4.82874 46.0568 16.7198 57.9478 31.3881 57.9478Z" fill="#F3F3F3"/>
<path d="M31.3886 4.8291C30.5745 4.8291 29.7697 4.86801 28.974 4.94004C42.4915 6.16411 53.1189 17.5575 53.1189 31.3885C53.1189 45.2194 42.4915 56.6128 28.974 57.8369C29.7697 57.9089 30.5745 57.9478 31.3886 57.9478C46.0334 57.9478 57.948 46.0333 57.948 31.3885C57.948 16.7436 46.0336 4.8291 31.3886 4.8291Z" fill="#E4E4E4"/>
<path d="M26.9618 31.9515H17.3038V17.7865C17.3038 17.4309 17.5922 17.1426 17.9477 17.1426H26.318C26.6735 17.1426 26.9618 17.4309 26.9618 17.7865V31.9515Z" fill="#29CEF6"/>
<path d="M22.1331 17.1426V31.9515H26.962V17.7865C26.962 17.4308 26.6737 17.1426 26.3181 17.1426H22.1331Z" fill="#22B5ED"/>
<path d="M46.2773 31.9515H36.6194V23.9032C36.6194 23.5476 36.9077 23.2593 37.2633 23.2593H45.6335C45.9891 23.2593 46.2773 23.5476 46.2773 23.9032V31.9515Z" fill="#7BE492"/>
<path d="M41.4486 23.2593V31.9515H46.2775V23.9032C46.2775 23.5476 45.9893 23.2593 45.6336 23.2593H41.4486Z" fill="#45D987"/>
<path d="M36.6199 31.9515H26.9619V11.6698C26.9619 11.3141 27.2502 11.0259 27.6058 11.0259H35.976C36.3316 11.0259 36.6199 11.3141 36.6199 11.6698V31.9515Z" fill="#F78E36"/>
<path d="M31.791 11.0259V31.9515H36.62V11.6698C36.62 11.3141 36.3316 11.0259 35.976 11.0259H31.791Z" fill="#F86F1B"/>
<path d="M49.1009 30.7798H14.4809C13.8336 30.7798 13.3091 31.3043 13.3091 31.9517C13.3091 32.599 13.8336 33.1235 14.4809 33.1235H49.1009C49.7483 33.1235 50.2728 32.599 50.2728 31.9517C50.2728 31.3043 49.7483 30.7798 49.1009 30.7798Z" fill="#43809F"/>
<path d="M45.3116 43.4243H39.6039L37.0133 36.8016C36.8363 36.349 36.3948 36.0528 35.9116 36.0567C35.4253 36.061 34.9922 36.3653 34.8232 36.8212L31.2608 46.4273L28.7623 39.3457C28.6092 38.9113 28.2158 38.607 27.7567 38.5679C27.297 38.5274 26.8586 38.762 26.6339 39.1642L24.2555 43.4242H18.5662C17.9189 43.4242 17.3944 43.9487 17.3944 44.596C17.3944 45.2434 17.9189 45.7679 18.5662 45.7679H24.9433C25.368 45.7679 25.7595 45.538 25.9666 45.1673L27.4152 42.5724L30.128 50.2615C30.292 50.727 30.7302 51.0395 31.2238 51.0435H31.2333C31.7228 51.0435 32.1614 50.7388 32.3319 50.279L35.9509 40.5199L37.7124 45.0229C37.8881 45.4721 38.3211 45.7679 38.8036 45.7679H45.3111C45.9585 45.7679 46.483 45.2434 46.483 44.596C46.483 43.9487 45.9589 43.4243 45.3116 43.4243Z" fill="#29CEF6"/>
</g>
<defs>
<clipPath id="clip0_21_116">
<rect width="80" height="80" fill="white"/>
</clipPath>
</defs>
</svg>
