<svg width="32" height="32" viewBox="0 0 32 32" fill="none" xmlns="http://www.w3.org/2000/svg">
<path d="M30.8679 19.3971C31.0954 18.3566 31.2165 17.2765 31.2165 16.168C31.2165 7.85685 24.4787 1.11904 16.1673 1.11904C15.2898 1.11904 14.4301 1.19488 13.5936 1.3392C12.2487 0.49184 10.6574 0 8.95051 0C4.13046 0 0.223145 3.90773 0.223145 8.72704C0.223145 10.3381 0.661438 11.846 1.42272 13.1414C1.22315 14.1191 1.1183 15.1311 1.1183 16.1679C1.1183 24.479 7.85589 31.2169 16.1673 31.2169C17.1087 31.2169 18.0296 31.1297 18.9229 30.9644C20.1515 31.6246 21.5563 32 23.0486 32C27.8687 32 31.7758 28.0927 31.7758 23.273C31.7758 21.8802 31.448 20.565 30.8679 19.3971ZM23.8856 23.3598C23.1894 24.345 22.1608 25.1257 20.8281 25.6797C19.5083 26.2283 17.9262 26.5065 16.1254 26.5065C13.9639 26.5065 12.1517 26.1263 10.7373 25.376C9.72618 24.8298 8.89238 24.09 8.25952 23.1773C7.62027 22.2551 7.29599 21.3402 7.29599 20.4579C7.29599 19.9065 7.5072 19.4284 7.92384 19.0371C8.33611 18.6493 8.86442 18.4528 9.49439 18.4528C10.0115 18.4528 10.4575 18.6081 10.8202 18.9145C11.1665 19.208 11.4638 19.6423 11.7026 20.2033C11.9693 20.8141 12.2601 21.3298 12.5672 21.736C12.8623 22.1267 13.287 22.4551 13.8293 22.7115C14.3749 22.9698 15.1103 23.1007 16.015 23.1007C17.259 23.1007 18.2791 22.8351 19.0463 22.3111C19.7957 21.7995 20.16 21.1853 20.16 20.4334C20.16 19.8393 19.9698 19.3724 19.5788 19.006C19.1692 18.6229 18.629 18.3248 17.9729 18.1203C17.289 17.9071 16.3605 17.6771 15.212 17.4367C13.6561 17.1035 12.3336 16.7082 11.2802 16.2613C11.2762 16.2597 11.272 16.258 11.268 16.2562C10.1888 15.7972 9.31903 15.1607 8.68277 14.3644C8.03647 13.5556 7.70902 12.541 7.70902 11.3484C7.70902 10.2115 8.0528 9.18677 8.73088 8.30283C9.40384 7.42507 10.3867 6.74293 11.652 6.27488C12.9009 5.81301 14.3866 5.57899 16.0675 5.57899C17.4115 5.57899 18.5932 5.73419 19.5794 6.04085C20.5713 6.34976 21.4076 6.76693 22.0647 7.28021C22.7265 7.79733 23.2188 8.35061 23.528 8.92523C23.8403 9.5056 23.9986 10.0832 23.9986 10.6419C23.9986 11.1796 23.791 11.6683 23.3814 12.0942C22.9693 12.5226 22.4493 12.7401 21.8358 12.7401C21.2784 12.7401 20.8423 12.6041 20.5395 12.3359C20.2578 12.0869 19.9658 11.6988 19.6414 11.1403C19.2662 10.4273 18.8121 9.86528 18.291 9.46923C17.7854 9.08459 16.94 8.88928 15.7785 8.88928C14.6998 8.88928 13.8224 9.10581 13.171 9.53291C12.5433 9.94443 12.2383 10.4163 12.2383 10.9754C12.2383 11.3183 12.3365 11.6048 12.5384 11.8514C12.7522 12.1126 13.0539 12.3421 13.4352 12.5328C13.8307 12.7316 14.2383 12.8896 14.6466 13.0023C15.0649 13.1184 15.7666 13.2903 16.729 13.5126C17.743 13.7303 18.6873 13.9701 19.5469 14.2268C19.7196 14.2783 19.8903 14.3305 20.0558 14.3834C21.0579 14.7041 21.924 15.0997 22.6302 15.559C23.3511 16.0285 23.9218 16.6314 24.3269 17.351C24.7329 18.0733 24.9387 18.9651 24.9387 20.0011C24.9385 21.2411 24.5841 22.3709 23.8856 23.3598Z" fill="#00AFF0"/>
</svg>