<svg width="32" height="32" viewBox="0 0 32 32" fill="none" xmlns="http://www.w3.org/2000/svg">
<path d="M28.7108 9.4772C28.731 9.7614 28.731 10.0458 28.731 10.33C28.731 19 22.132 28.99 10.0712 28.99C6.3554 28.99 2.90358 27.9136 0 26.0458C0.52794 26.1066 1.0355 26.127 1.58376 26.127C4.6498 26.127 7.472 25.0914 9.726 23.325C6.8426 23.264 4.4264 21.3756 3.5939 18.7768C4 18.8376 4.406 18.8782 4.8326 18.8782C5.4214 18.8782 6.0102 18.797 6.5584 18.6548C3.55332 18.0456 1.29944 15.4062 1.29944 12.2182V12.137C2.1725 12.6244 3.18782 12.929 4.2638 12.9696C2.49738 11.7918 1.34008 9.7818 1.34008 7.5076C1.34008 6.2894 1.66488 5.1726 2.23344 4.198C5.462 8.1776 10.3148 10.7766 15.7564 11.061C15.6548 10.5736 15.594 10.066 15.594 9.5584C15.594 5.9442 18.5178 3 22.1522 3C24.0406 3 25.7462 3.7918 26.9442 5.071C28.4264 4.7868 29.8478 4.2386 31.1066 3.4874C30.6192 5.0102 29.5838 6.2894 28.2234 7.1016C29.5432 6.9594 30.8224 6.5938 32 6.0864C31.1068 7.3858 29.99 8.543 28.7108 9.4772Z" fill="#1D9BF0"/>
</svg>