<svg width="80" height="80" viewBox="0 0 80 80" fill="none" xmlns="http://www.w3.org/2000/svg">
<g clip-path="url(#clip0_21_140)">
<path d="M59.8308 2.69287H24.0983C21.2341 2.69287 18.9038 5.02318 18.9038 7.8874V72.113C18.9038 74.9774 21.2341 77.3077 24.0983 77.3077H59.8308C62.6951 77.3077 65.0254 74.9774 65.0254 72.113V7.8874C65.0254 5.02318 62.6951 2.69287 59.8308 2.69287Z" fill="#7A8C98"/>
<path d="M59.8284 2.69287H55.666C58.5302 2.69287 60.8605 5.02318 60.8605 7.8874V72.113C60.8605 74.9774 58.5302 77.3077 55.666 77.3077H59.8284C62.6926 77.3077 65.0229 74.9774 65.0229 72.113V7.8874C65.0229 5.02318 62.6926 2.69287 59.8284 2.69287Z" fill="#596C76"/>
<path d="M62.6471 65.0802V7.88723C62.6471 6.33441 61.384 5.07129 59.8312 5.07129H24.0987C22.5458 5.07129 21.2827 6.33441 21.2827 7.88723V65.0802H62.6471Z" fill="#E8EDF2"/>
<path d="M61.4818 5.61124C60.7657 5.09187 60.0638 5.09156 60.0366 5.08203C60.5585 5.89187 60.8629 6.85453 60.8629 7.88749V65.0804H62.6468V7.88749C62.6468 7.00843 62.2319 6.15734 61.4818 5.61124Z" fill="#C5D3DD"/>
<path d="M41.9636 72.7582C43.1559 72.7582 44.1225 71.7916 44.1225 70.5993C44.1225 69.407 43.1559 68.4404 41.9636 68.4404C40.7713 68.4404 39.8047 69.407 39.8047 70.5993C39.8047 71.7916 40.7713 72.7582 41.9636 72.7582Z" fill="#C5D3DD"/>
<path d="M41.9636 36.0697C46.9165 36.0697 50.9316 32.0546 50.9316 27.1017C50.9316 22.1489 46.9165 18.1338 41.9636 18.1338C37.0107 18.1338 32.9956 22.1489 32.9956 27.1017C32.9956 32.0546 37.0107 36.0697 41.9636 36.0697Z" fill="#01C0FA"/>
<path d="M41.9639 33.6914C45.6031 33.6914 48.5533 30.7412 48.5533 27.102C48.5533 23.4628 45.6031 20.5127 41.9639 20.5127C38.3247 20.5127 35.3745 23.4628 35.3745 27.102C35.3745 30.7412 38.3247 33.6914 41.9639 33.6914Z" fill="#B3DAFE"/>
<path d="M38.6172 25.8202C38.6172 27.6656 40.1186 29.1669 41.9637 29.1669C43.8092 29.1669 45.3105 27.6655 45.3105 25.8202C45.3105 23.9749 43.8091 22.4736 41.9637 22.4736C40.1184 22.4736 38.6172 23.9749 38.6172 25.8202Z" fill="#596C76"/>
<path d="M41.9643 33.6911C43.5418 33.6911 44.991 33.1333 46.1266 32.2055C45.0543 31.0745 43.5697 30.4238 41.9643 30.4238C40.3586 30.4238 38.8741 31.0745 37.8018 32.2055C38.9374 33.1335 40.3868 33.6911 41.9643 33.6911Z" fill="#596C76"/>
<path d="M43.8994 10.3082H40.0295C39.3727 10.3082 38.8403 9.77578 38.8403 9.11891C38.8403 8.46203 39.3727 7.92969 40.0295 7.92969H43.8994C44.5563 7.92969 45.0886 8.46203 45.0886 9.11891C45.0886 9.77578 44.5564 10.3082 43.8994 10.3082Z" fill="#7A8C98"/>
<path d="M48.1922 40.2993H35.7364C35.1276 40.2993 34.6323 40.7947 34.6323 41.4034V45.2022C34.6323 45.8109 35.1276 46.3062 35.7364 46.3062H48.1922C48.8009 46.3062 49.2962 45.8109 49.2962 45.2022V41.4034C49.2964 40.7947 48.8009 40.2993 48.1922 40.2993Z" fill="#FE9738"/>
<path d="M48.1901 58.129H27.1106C26.4537 58.129 25.9214 57.5967 25.9214 56.9398C25.9214 56.283 26.4537 55.7505 27.1106 55.7505H47.7086V52.9148H36.1145C35.9298 53.3317 35.5123 53.6225 35.0268 53.6225C34.37 53.6225 33.8376 53.0901 33.8376 52.4331C33.8376 51.387 34.6886 50.5361 35.7347 50.5361H48.1904C49.2365 50.5361 50.0875 51.387 50.0875 52.4331V56.2319C50.0872 57.2781 49.2362 58.129 48.1901 58.129Z" fill="#01C0FA"/>
<path d="M78.8114 29.5636H54.0717C53.4148 29.5636 52.8823 29.0312 52.8823 28.3743C52.8823 27.7175 53.4147 27.1851 54.0717 27.1851H78.8116C79.4684 27.1851 80.0009 27.7175 80.0009 28.3743C80.0009 29.0312 79.4684 29.5636 78.8114 29.5636Z" fill="#FE9738"/>
<path d="M78.8109 25.398H71.0907C70.4339 25.398 69.9014 24.8656 69.9014 24.2088C69.9014 23.5519 70.4337 23.0195 71.0907 23.0195H78.8109C79.4678 23.0195 80.0003 23.5519 80.0003 24.2088C80.0003 24.8656 79.4679 25.398 78.8109 25.398Z" fill="#B3DAFE"/>
<path d="M78.8109 21.2326H71.0907C70.4339 21.2326 69.9014 20.7003 69.9014 20.0432C69.9014 19.3864 70.4337 18.854 71.0907 18.854H78.8109C79.4678 18.854 80.0003 19.3864 80.0003 20.0432C80.0003 20.7003 79.4679 21.2326 78.8109 21.2326Z" fill="#B3DAFE"/>
<path d="M78.8114 55.3771H54.0717C53.4148 55.3771 52.8823 54.8448 52.8823 54.1879C52.8823 53.531 53.4147 52.9985 54.0717 52.9985H78.8116C79.4684 52.9985 80.0009 53.5309 80.0009 54.1879C80.0009 54.8449 79.4684 55.3771 78.8114 55.3771Z" fill="#FE9738"/>
<path d="M78.8109 51.2116H71.0907C70.4339 51.2116 69.9014 50.6793 69.9014 50.0224C69.9014 49.3655 70.4337 48.833 71.0907 48.833H78.8109C79.4678 48.833 80.0003 49.3654 80.0003 50.0224C80.0003 50.6795 79.4679 51.2116 78.8109 51.2116Z" fill="#B3DAFE"/>
<path d="M78.8109 47.0466H71.0907C70.4339 47.0466 69.9014 46.5143 69.9014 45.8574C69.9014 45.2005 70.4337 44.668 71.0907 44.668H78.8109C79.4678 44.668 80.0003 45.2004 80.0003 45.8574C80.0003 46.5144 79.4679 47.0466 78.8109 47.0466Z" fill="#B3DAFE"/>
<path d="M3.14208 11.4402C0.432083 13.0047 -0.496511 16.47 1.06818 19.18L2.25802 21.2409L12.0719 15.5747L10.8821 13.514C9.3174 10.8041 5.85208 9.87557 3.14208 11.4402Z" fill="#FE7AB6"/>
<path d="M13.9218 18.7769L26.9346 41.3158L27.7537 51.4705C27.851 52.678 26.5024 53.4566 25.5054 52.7686L17.1207 46.9819L4.10791 24.443L13.9218 18.7769Z" fill="#FFCEBF"/>
<path d="M26.9346 41.3158C23.9438 39.9131 22.3082 40.8574 22.0278 44.1488C19.037 42.7461 17.4013 43.6903 17.1207 46.9817L4.10791 24.443L13.9218 18.7769L26.9346 41.3158Z" fill="#FE7701"/>
<path d="M27.469 47.936L27.7541 51.4706C27.8515 52.6781 26.5029 53.4567 25.5058 52.7687L22.5874 50.7545L27.469 47.936Z" fill="#596C76"/>
<path d="M13.9197 18.7769L26.9325 41.3157C23.9418 39.9131 22.3061 40.8573 22.0257 44.1487L9.0127 21.61L13.9197 18.7769Z" fill="#FE9738"/>
<path d="M1.35569 19.7694L11.2488 14.0575C12.5457 13.3088 14.2038 13.7532 14.9526 15.05C15.7013 16.3469 15.2569 18.0052 13.9601 18.7538L4.06694 24.4657C2.77006 25.2144 1.11194 24.77 0.363189 23.4732C-0.385561 22.1763 0.0589703 20.5182 1.35569 19.7694Z" fill="#B3DAFE"/>
</g>
<defs>
<clipPath id="clip0_21_140">
<rect width="80" height="80" fill="white"/>
</clipPath>
</defs>
</svg>
