<svg width="112" height="80" viewBox="0 0 112 80" fill="none" xmlns="http://www.w3.org/2000/svg">
<g clip-path="url(#clip0_21_166)">
<path d="M104.339 79.5814H6.70585C3.00233 79.5814 0 76.579 0 72.8755V14.2129H111.045V72.8755C111.045 76.579 108.042 79.5814 104.339 79.5814Z" fill="#A9DBF5"/>
<path d="M104.342 14.2129V79.5814C108.044 79.5814 111.045 76.5777 111.045 72.8727V14.2129H104.342Z" fill="#32408A"/>
<path d="M22.5274 35.2214C21.8922 34.5863 20.8621 34.5863 20.2271 35.2214L10.157 45.2915C9.52173 45.927 9.52173 46.9568 10.157 47.5921L20.0938 57.5288C20.4113 57.8464 20.8277 58.0051 21.2439 58.0051C21.6601 58.0051 22.0765 57.8464 22.3941 57.5288C23.0293 56.8933 23.0293 55.8636 22.3941 55.2284L13.6074 46.4417L22.5272 37.5219C23.1627 36.8866 23.1627 35.8567 22.5274 35.2214Z" fill="#43809F"/>
<path d="M57.3699 45.2916L47.2998 35.2214C46.6646 34.5864 45.6345 34.5864 44.9995 35.2214C44.3643 35.8568 44.3643 36.8866 44.9995 37.5219L53.9192 46.4417L45.1326 55.2283C44.4974 55.8637 44.4974 56.8935 45.1326 57.5288C45.4502 57.8463 45.8666 58.0051 46.2828 58.0051C46.699 58.0051 47.1154 57.8463 47.4329 57.5288L57.3699 47.592C58.005 46.9568 58.005 45.927 57.3699 45.2916Z" fill="#43809F"/>
<path d="M40.2998 29.1694C39.4596 28.8504 38.5207 29.2728 38.2019 30.1131L26.2946 61.4829C25.9757 62.3226 26.3982 63.2618 27.238 63.5808C27.428 63.6529 27.6229 63.687 27.8149 63.687C28.4709 63.687 29.0893 63.287 29.3359 62.637L41.2432 31.2673C41.5621 30.4276 41.1398 29.4882 40.2998 29.1694Z" fill="#43809F"/>
<path d="M83.7858 35.2782H73.2844C71.4335 35.2782 69.9329 33.7778 69.9329 31.9267C69.9329 30.0759 71.4333 28.5752 73.2844 28.5752H83.7858C85.6366 28.5752 87.1373 30.0756 87.1373 31.9267C87.1373 33.7777 85.6366 35.2782 83.7858 35.2782Z" fill="#29CEF6"/>
<path d="M100.99 48.6845H73.2844C71.4335 48.6845 69.9329 47.1841 69.9329 45.333C69.9329 43.4821 71.4333 41.9814 73.2844 41.9814H100.99C102.841 41.9814 104.341 43.4819 104.341 45.333C104.341 47.1838 102.841 48.6845 100.99 48.6845Z" fill="#FFC328"/>
<path d="M92.7597 62.0901H73.2844C71.4335 62.0901 69.9329 60.5897 69.9329 58.7386C69.9329 56.8877 71.4333 55.3872 73.2844 55.3872H92.7597C94.6107 55.3872 96.1112 56.8875 96.1112 58.7386C96.1112 60.5896 94.6107 62.0901 92.7597 62.0901Z" fill="#F78E36"/>
<path d="M111.045 16.5193H0V7.1243C0 3.42079 3.00233 0.418457 6.70585 0.418457H104.339C108.042 0.418457 111.045 3.42079 111.045 7.1243V16.5193Z" fill="#32408A"/>
<path d="M104.342 0.418457V16.5193H111.045V7.12712C111.045 3.42209 108.044 0.418457 104.342 0.418457Z" fill="#32408A"/>
<path d="M10.7255 11.9306C12.5766 11.9306 14.0771 10.43 14.0771 8.57906C14.0771 6.72806 12.5766 5.22754 10.7255 5.22754C8.87455 5.22754 7.37402 6.72806 7.37402 8.57906C7.37402 10.43 8.87455 11.9306 10.7255 11.9306Z" fill="#29CEF6"/>
<path d="M23.7212 11.9306C25.5721 11.9306 27.0727 10.43 27.0727 8.57906C27.0727 6.72806 25.5721 5.22754 23.7212 5.22754C21.8702 5.22754 20.3696 6.72806 20.3696 8.57906C20.3696 10.43 21.8702 11.9306 23.7212 11.9306Z" fill="#F3F3F3"/>
<path d="M36.7155 11.9306C38.5665 11.9306 40.0671 10.43 40.0671 8.57906C40.0671 6.72806 38.5665 5.22754 36.7155 5.22754C34.8646 5.22754 33.364 6.72806 33.364 8.57906C33.364 10.43 34.8646 11.9306 36.7155 11.9306Z" fill="#F78E36"/>
</g>
<defs>
<clipPath id="clip0_21_166">
<rect width="111.045" height="80" fill="white"/>
</clipPath>
</defs>
</svg>
