<svg width="32" height="32" viewBox="0 0 32 32" fill="none" xmlns="http://www.w3.org/2000/svg">
<path d="M27.2072 4.65C24.2142 1.65 20.2286 0 15.9928 0C7.24992 0 0.135712 7.11424 0.135712 15.8571C0.135712 18.6501 0.864288 21.3786 2.25 23.7858L0 32L8.4072 29.7928C10.7214 31.0571 13.3286 31.7214 15.9858 31.7214H15.9928C24.7286 31.7214 32 24.6072 32 15.8643C32 11.6286 30.2 7.65008 27.2072 4.65ZM15.9928 29.0501C13.6214 29.0501 11.3 28.4142 9.27856 27.2142L8.8 26.9286L3.81429 28.2357L5.14286 23.3714L4.82858 22.8714C3.50714 20.7714 2.81429 18.3501 2.81429 15.8571C2.81429 8.5928 8.72864 2.67858 16 2.67858C19.5214 2.67858 22.8286 4.05 25.3142 6.54288C27.8 9.03568 29.3286 12.3429 29.3214 15.8643C29.3214 23.1357 23.2571 29.0501 15.9928 29.0501ZM23.2214 19.1786C22.8286 18.9786 20.8786 18.0214 20.5142 17.8928C20.1501 17.7571 19.8858 17.6928 19.6214 18.0928C19.3571 18.4928 18.6 19.3786 18.3643 19.6501C18.1357 19.9142 17.9 19.9501 17.5072 19.7501C15.1786 18.5858 13.6501 17.6714 12.1142 15.0357C11.7072 14.3357 12.5214 14.3858 13.2786 12.8714C13.4072 12.6072 13.3429 12.3786 13.2429 12.1786C13.1429 11.9786 12.3501 10.0286 12.0214 9.23568C11.7 8.46432 11.3714 8.57136 11.1286 8.55712C10.9 8.54288 10.6357 8.54288 10.3714 8.54288C10.1072 8.54288 9.67856 8.64288 9.31424 9.03568C8.94992 9.43568 7.92864 10.3928 7.92864 12.3429C7.92864 14.2928 9.35008 16.1786 9.54288 16.4429C9.74288 16.7072 12.3357 20.7072 16.3142 22.4286C18.8286 23.5142 19.8142 23.6072 21.0714 23.4214C21.8357 23.3072 23.4142 22.4643 23.7429 21.5357C24.0714 20.6072 24.0714 19.8142 23.9714 19.6501C23.8786 19.4714 23.6142 19.3714 23.2214 19.1786Z" fill="#25D366"/>
</svg>