<svg width="70" height="70" viewBox="0 0 70 70" fill="none" xmlns="http://www.w3.org/2000/svg">
<path d="M0.142059 35C0.142059 37.2005 0 70 0 70H35.0426C41.9551 70.0019 48.7128 67.9507 54.4612 64.106C60.2096 60.2613 64.6904 54.7957 67.337 48.4005C69.9836 42.0052 70.677 34.9676 69.3296 28.1777C67.9822 21.3877 64.6545 15.1504 59.7673 10.2546C54.8802 5.35886 48.653 2.02447 41.8736 0.673222C35.0941 -0.678029 28.0667 0.0145442 21.6803 2.66333C15.2938 5.31212 9.83516 9.79813 5.99462 15.5541C2.15407 21.31 0.104182 28.0772 0.104181 35H0.142059Z" fill="white"/>
<circle cx="35" cy="35" r="32" fill="url(#paint0_linear_1764_22)"/>
<path d="M27.9557 29.5273C27.862 28.5826 27.46 27.8487 26.7495 27.3256C26.039 26.8025 25.0748 26.541 23.8569 26.541C23.0293 26.541 22.3305 26.6581 21.7606 26.8923C21.1907 27.1187 20.7535 27.4349 20.449 27.8409C20.1523 28.2469 20.004 28.7075 20.004 29.2228C19.9883 29.6522 20.0781 30.0269 20.2733 30.347C20.4763 30.6671 20.7535 30.9443 21.1048 31.1785C21.4561 31.4049 21.8621 31.604 22.3227 31.7758C22.7834 31.9397 23.2752 32.0803 23.7983 32.1974L25.9531 32.7126C26.9993 32.9469 27.9596 33.2592 28.834 33.6495C29.7085 34.0399 30.4658 34.52 31.106 35.09C31.7462 35.6599 32.2419 36.3313 32.5933 37.1043C32.9524 37.8772 33.1359 38.7633 33.1437 39.7627C33.1359 41.2304 32.7611 42.503 32.0194 43.5805C31.2855 44.6501 30.2237 45.4815 28.834 46.0749C27.4521 46.6604 25.7853 46.9532 23.8334 46.9532C21.8972 46.9532 20.2108 46.6565 18.7743 46.0632C17.3456 45.4698 16.2291 44.5915 15.425 43.4282C14.6286 42.2571 14.2109 40.8089 14.1719 39.0834H19.0788C19.1334 39.8876 19.3638 40.559 19.7697 41.0977C20.1835 41.6286 20.7339 42.0307 21.421 42.304C22.1158 42.5694 22.9005 42.7021 23.7749 42.7021C24.6337 42.7021 25.3793 42.5772 26.0117 42.3274C26.6519 42.0775 27.1477 41.7301 27.499 41.2851C27.8503 40.8401 28.026 40.3287 28.026 39.751C28.026 39.2123 27.8659 38.7594 27.5458 38.3925C27.2335 38.0255 26.7729 37.7132 26.1639 37.4556C25.5628 37.198 24.825 36.9637 23.9506 36.7529L21.339 36.0971C19.3169 35.6053 17.7203 34.8362 16.5492 33.7901C15.3781 32.7439 14.7965 31.3347 14.8043 29.5624C14.7965 28.1102 15.1829 26.8415 15.9637 25.7563C16.7522 24.6711 17.8335 23.824 19.2076 23.215C20.5817 22.6061 22.1432 22.3016 23.892 22.3016C25.6721 22.3016 27.2257 22.6061 28.553 23.215C29.888 23.824 30.9264 24.6711 31.6681 25.7563C32.4098 26.8415 32.7924 28.0985 32.8158 29.5273H27.9557Z" fill="white"/>
<path d="M36.5545 46.6136V22.6295H46.017C47.8283 22.6295 49.3742 22.9535 50.6546 23.6015C51.9428 24.2417 52.9226 25.1513 53.594 26.3302C54.2733 27.5013 54.6129 28.8793 54.6129 30.4641C54.6129 32.0568 54.2694 33.427 53.5823 34.5747C52.8953 35.7146 51.8998 36.589 50.596 37.198C49.3 37.8069 47.7307 38.1114 45.8882 38.1114H39.5525V34.036H45.0684C46.0365 34.036 46.8407 33.9033 47.4809 33.6378C48.1211 33.3724 48.5973 32.9742 48.9096 32.4433C49.2297 31.9124 49.3898 31.2527 49.3898 30.4641C49.3898 29.6678 49.2297 28.9964 48.9096 28.4498C48.5973 27.9033 48.1172 27.4895 47.4692 27.2085C46.829 26.9196 46.0209 26.7752 45.045 26.7752H41.6254V46.6136H36.5545ZM49.5069 35.699L55.4678 46.6136H49.8699L44.0378 35.699H49.5069Z" fill="white"/>
<defs>
<linearGradient id="paint0_linear_1764_22" x1="15.7273" y1="7" x2="51.3636" y2="64.0909" gradientUnits="userSpaceOnUse">
<stop stop-color="#6EC51F"/>
<stop offset="1" stop-color="#08909B"/>
</linearGradient>
</defs>
</svg>
