<svg width="71" height="72" viewBox="0 0 71 72" fill="none" xmlns="http://www.w3.org/2000/svg">
<path d="M1.14206 37C1.14206 39.2005 1 72 1 72H36.0426C42.9551 72.0019 49.7128 69.9507 55.4612 66.106C61.2096 62.2613 65.6904 56.7957 68.337 50.4005C70.9836 44.0052 71.677 36.9676 70.3296 30.1777C68.9822 23.3877 65.6545 17.1504 60.7673 12.2546C55.8802 7.35886 49.653 4.02447 42.8736 2.67322C36.0941 1.32197 29.0667 2.01454 22.6803 4.66333C16.2938 7.31212 10.8352 11.7981 6.99462 17.5541C3.15407 23.31 1.10418 30.0772 1.10418 37H1.14206Z" fill="white"/>
<path d="M60.9963 25.3627C59.6383 26.2382 58.2803 27.0829 56.8916 27.8675C51.1884 31.1568 42.4966 36.2573 38.2422 38.6712C38.1082 38.7473 37.9961 38.8566 37.9167 38.9887C37.8373 39.1207 37.7934 39.271 37.7891 39.425V68.1282C37.7915 68.2823 37.8341 68.4332 37.9127 68.5658C37.9913 68.6985 38.1032 68.8083 38.2372 68.8844C38.3713 68.9606 38.5229 69.0004 38.6771 69C38.8313 68.9996 38.9827 68.9589 39.1163 68.882L63.9528 54.5471C64.0878 54.4716 64.2009 54.3626 64.2812 54.2305C64.3615 54.0984 64.4062 53.9477 64.411 53.7932V25.0607C64.2549 23.4915 62.2634 24.5487 60.9963 25.3627ZM59.518 51.9847L45.1229 60.2836C44.9545 60.3813 44.7585 60.4205 44.5655 60.3953C44.3725 60.37 44.1932 60.2817 44.0555 60.144C43.9179 60.0064 43.8296 59.8271 43.8043 59.6341C43.7791 59.441 43.8183 59.2451 43.9159 59.0767L58.3097 34.0827C58.4064 33.9147 58.5562 33.7837 58.7355 33.7102C58.9148 33.6368 59.1135 33.6251 59.3002 33.677C59.4869 33.729 59.651 33.8415 59.7667 33.997C59.8824 34.1525 59.943 34.3421 59.9391 34.5358V51.195C59.9454 51.3516 59.9095 51.5071 59.8352 51.6451C59.7609 51.7831 59.6509 51.8986 59.5167 51.9796L59.518 51.9847Z" fill="url(#paint0_linear_1764_132)"/>
<path d="M14.1279 22.7977C14.1279 22.7977 30.7859 32.3637 35.917 35.3215C36.0509 35.3958 36.2016 35.4348 36.3547 35.4348C36.5079 35.4348 36.6585 35.3958 36.7925 35.3215L61.629 20.9866C61.7601 20.909 61.8687 20.7987 61.9441 20.6664C62.0195 20.5341 62.0592 20.3844 62.0592 20.2321C62.0592 20.0798 62.0195 19.9302 61.9441 19.7979C61.8687 19.6656 61.7601 19.5552 61.629 19.4776L36.7912 5.11325C36.6573 5.03895 36.5066 4.99994 36.3535 4.99994C36.2003 4.99994 36.0497 5.03895 35.9157 5.11325L11.019 19.4776C9.14782 20.8394 13.4944 22.1641 14.1279 22.7977ZM36.7912 10.2738L51.1863 18.6034C51.3542 18.7001 51.4853 18.8499 51.5587 19.0292C51.6322 19.2085 51.6439 19.4072 51.5919 19.5939C51.54 19.7806 51.4274 19.9447 51.272 20.0604C51.1165 20.176 50.9269 20.2367 50.7332 20.2327L21.9136 20.2634C21.7214 20.2642 21.5344 20.2018 21.3811 20.0858C21.2279 19.9698 21.117 19.8067 21.0656 19.6216C21.0141 19.4365 21.0248 19.2396 21.0962 19.0611C21.1676 18.8827 21.2956 18.7327 21.4605 18.6341L35.885 10.3045C36.0132 10.2039 36.1702 10.1467 36.3331 10.1412C36.496 10.1356 36.6564 10.1821 36.7912 10.2738Z" fill="url(#paint1_linear_1764_132)"/>
<path d="M11.4097 25.3627C12.4336 26.027 13.4921 26.69 14.548 27.2941C20.1911 30.5527 29.6969 36.1062 34.1638 38.6712C34.2978 38.7473 34.4099 38.8566 34.4892 38.9887C34.5686 39.1207 34.6126 39.271 34.6169 39.425V68.1282C34.6145 68.2823 34.5719 68.4332 34.4933 68.5658C34.4147 68.6985 34.3028 68.8083 34.1687 68.8844C34.0347 68.9606 33.883 69.0004 33.7288 69C33.5747 68.9996 33.4233 68.9589 33.2896 68.882L8.45309 54.5471C8.31912 54.471 8.20705 54.3616 8.12769 54.2296C8.04832 54.0975 8.00433 53.9472 8 53.7932V25.0607C8.15103 23.4915 10.1426 24.5487 11.4097 25.3627ZM12.888 51.9847L27.283 60.2836C27.4515 60.3813 27.6474 60.4205 27.8404 60.3953C28.0335 60.37 28.2128 60.2817 28.3504 60.144C28.4881 60.0064 28.5764 59.8271 28.6016 59.6341C28.6269 59.441 28.5876 59.2451 28.49 59.0767L14.0962 34.0827C13.9995 33.9147 13.8498 33.7837 13.6704 33.7102C13.4911 33.6368 13.2924 33.6251 13.1057 33.677C12.919 33.729 12.7549 33.8415 12.6392 33.997C12.5236 34.1525 12.4629 34.3421 12.4669 34.5358V51.195C12.4606 51.3516 12.4965 51.5071 12.5708 51.6451C12.6451 51.7831 12.7551 51.8986 12.8892 51.9796L12.888 51.9847Z" fill="url(#paint2_linear_1764_132)"/>
<defs>
<linearGradient id="paint0_linear_1764_132" x1="64.3046" y1="54.2332" x2="35.9961" y2="48.455" gradientUnits="userSpaceOnUse">
<stop offset="0.001" stop-color="#5056CA"/>
<stop offset="0.353" stop-color="#5258CB"/>
<stop offset="0.502" stop-color="#595FCD"/>
<stop offset="0.613" stop-color="#666BD1"/>
<stop offset="0.705" stop-color="#777CD6"/>
<stop offset="0.786" stop-color="#8E92DD"/>
<stop offset="0.858" stop-color="#ABAEE6"/>
<stop offset="0.924" stop-color="#CDCFF0"/>
<stop offset="0.983" stop-color="#F3F3FB"/>
<stop offset="1" stop-color="white"/>
</linearGradient>
<linearGradient id="paint1_linear_1764_132" x1="36.3069" y1="4.99994" x2="36.3069" y2="35.4348" gradientUnits="userSpaceOnUse">
<stop offset="0.001" stop-color="#5056CA"/>
<stop offset="0.353" stop-color="#5258CB"/>
<stop offset="0.502" stop-color="#595FCD"/>
<stop offset="0.613" stop-color="#666BD1"/>
<stop offset="0.705" stop-color="#777CD6"/>
<stop offset="0.786" stop-color="#8E92DD"/>
<stop offset="0.858" stop-color="#ABAEE6"/>
<stop offset="0.924" stop-color="#CDCFF0"/>
<stop offset="0.983" stop-color="#F3F3FB"/>
<stop offset="1" stop-color="white"/>
</linearGradient>
<linearGradient id="paint2_linear_1764_132" x1="8" y1="55.7546" x2="36.9327" y2="49.2838" gradientUnits="userSpaceOnUse">
<stop offset="0.001" stop-color="#5056CA"/>
<stop offset="0.353" stop-color="#5258CB"/>
<stop offset="0.502" stop-color="#595FCD"/>
<stop offset="0.613" stop-color="#666BD1"/>
<stop offset="0.705" stop-color="#777CD6"/>
<stop offset="0.786" stop-color="#8E92DD"/>
<stop offset="0.858" stop-color="#ABAEE6"/>
<stop offset="0.924" stop-color="#CDCFF0"/>
<stop offset="0.983" stop-color="#F3F3FB"/>
<stop offset="1" stop-color="white"/>
</linearGradient>
</defs>
</svg>
