<svg width="70" height="70" viewBox="0 0 70 70" fill="none" xmlns="http://www.w3.org/2000/svg">
<path d="M0.142059 35C0.142059 37.2005 0 70 0 70H35.0426C41.9551 70.0019 48.7128 67.9507 54.4612 64.106C60.2096 60.2613 64.6904 54.7957 67.337 48.4005C69.9836 42.0052 70.677 34.9676 69.3296 28.1777C67.9822 21.3877 64.6545 15.1504 59.7673 10.2546C54.8802 5.35886 48.653 2.02447 41.8736 0.673222C35.0941 -0.678029 28.0667 0.0145442 21.6803 2.66333C15.2938 5.31212 9.83516 9.79813 5.99462 15.5541C2.15407 21.31 0.104182 28.0772 0.104181 35H0.142059Z" fill="white"/>
<g clip-path="url(#clip0_1764_23)">
<path d="M35.3588 17.1384C37.1611 16.8462 38.3852 15.1483 38.093 13.3461C37.801 11.5438 36.1031 10.3196 34.3007 10.6118C32.4985 10.904 31.2744 12.6019 31.5665 14.4041C31.8586 16.2063 33.5565 17.4305 35.3588 17.1384Z" fill="url(#paint0_linear_1764_23)"/>
<path d="M34.8293 38.114C36.6552 38.114 38.1352 36.6339 38.1352 34.8081C38.1352 32.9823 36.6552 31.5022 34.8293 31.5022C33.0036 31.5022 31.5234 32.9823 31.5234 34.8081C31.5234 36.6339 33.0036 38.114 34.8293 38.114Z" fill="url(#paint1_linear_1764_23)"/>
<path d="M53.172 10.4013L53.108 10.3804C51.4732 9.81404 49.7384 9.59399 48.0139 9.73421C46.2895 9.87443 44.6132 10.3719 43.0914 11.1949L41.1248 12.2655C41.3385 13.1048 41.3824 13.9783 41.2539 14.8349C41.1255 15.6914 40.8273 16.5136 40.3769 17.2534C39.9264 17.9931 39.3327 18.6354 38.6307 19.1427C37.9288 19.6499 37.1325 20.0119 36.2888 20.2073C35.9677 21.0388 35.8037 21.9226 35.8047 22.8138V24.9386C35.8024 26.1902 36.0782 27.4267 36.6123 28.5587C37.9702 28.947 39.1648 29.767 40.0153 30.8946C40.8658 32.0222 41.3259 33.3961 41.3262 34.8086C41.3262 34.8388 41.3262 34.8679 41.3262 34.8982C42.1757 35.7629 43.149 36.4967 44.2143 37.0753L47.007 38.5974C47.6724 38.9594 48.4051 39.1805 49.1598 39.2467C49.8208 38.319 50.6937 37.5625 51.7059 37.0401C52.7182 36.5175 53.8404 36.2441 54.9796 36.2425C56.1187 36.2409 57.2417 36.5112 58.2553 37.0309C59.2691 37.5506 60.144 38.3046 60.8078 39.2304C61.4984 39.1458 62.1668 38.9314 62.7778 38.5985L65.5705 37.0765C65.7346 36.9869 65.8952 36.8938 66.0546 36.7972C66.0953 36.1398 66.1198 35.4788 66.1198 34.8109C66.1313 26.6316 62.9289 18.7752 57.2028 12.9346C56.0818 11.7791 54.6992 10.9102 53.172 10.4013Z" fill="url(#paint2_linear_1764_23)"/>
<path d="M63.1539 40.6066L61.8401 41.3224C62.1373 42.3039 62.2204 43.3377 62.0838 44.3541C61.9472 45.3705 61.5939 46.3458 61.048 47.2139C60.5021 48.0821 59.7762 48.8228 58.9193 49.3864C58.0625 49.9498 57.0947 50.3228 56.0813 50.4801C55.9396 51.0511 55.8678 51.6372 55.8672 52.2256V54.3504C55.8682 55.4047 56.0655 56.4498 56.449 57.4319C61.4481 52.6648 64.7249 46.3743 65.7662 39.5454C64.8588 39.8014 63.9826 40.1572 63.1539 40.6066Z" fill="url(#paint3_linear_1764_23)"/>
<path d="M55.7539 46.6183C57.5303 46.1985 58.6301 44.4179 58.2101 42.6414C57.7903 40.8649 56.0097 39.7652 54.2332 40.1851C52.4567 40.605 51.357 42.3856 51.7769 44.1621C52.1968 45.9385 53.9774 47.0383 55.7539 46.6183Z" fill="url(#paint4_linear_1764_23)"/>
<path d="M51.3044 60.404C52.1227 59.6262 52.7752 58.6909 53.2229 57.6545C53.6707 56.6182 53.9043 55.5019 53.9098 54.3729V52.2307C53.9094 51.6303 53.8349 51.0324 53.6875 50.4503C52.7026 50.2695 51.7666 49.8841 50.9398 49.3189C50.1132 48.7538 49.4142 48.0216 48.888 47.1695C48.3619 46.3175 48.0203 45.3645 47.8853 44.3723C47.7503 43.38 47.825 42.3705 48.1044 41.4088L46.6231 40.6025C44.5068 39.4413 42.0981 38.9217 39.6913 39.1072C39.0817 39.7978 38.3322 40.3509 37.4925 40.7296C36.6527 41.1085 35.7422 41.3044 34.8209 41.3044C33.8998 41.3044 32.9891 41.1085 32.1494 40.7296C31.3098 40.3509 30.5602 39.7978 29.9505 39.1072C27.5464 38.9234 25.1409 39.4429 23.0269 40.6025L21.4432 41.4647C21.7092 42.4132 21.7767 43.4063 21.6415 44.3822C21.5062 45.3579 21.1712 46.2953 20.6573 47.1357C20.1433 47.9761 19.4615 48.7014 18.6545 49.2663C17.8475 49.8313 16.9327 50.2236 15.9671 50.4189C15.8144 51.0077 15.7362 51.6131 15.7344 52.2214V54.3462C15.7423 55.482 15.9785 56.6045 16.4288 57.6472C16.8792 58.6899 17.5346 59.6314 18.356 60.4157C18.4872 60.5429 18.6115 60.6769 18.7284 60.8171C19.73 62.0024 20.9959 62.9359 22.4241 63.5424C26.3059 65.2124 30.4851 66.0808 34.711 66.0957C38.9367 66.1105 43.1218 65.2713 47.0152 63.6285C48.5196 63.014 49.8559 62.0498 50.9134 60.816C51.0361 60.6716 51.1666 60.534 51.3044 60.404Z" fill="url(#paint5_linear_1764_23)"/>
<path d="M15.207 46.6183C16.9835 46.1985 18.0833 44.4179 17.6633 42.6414C17.2434 40.8649 15.4628 39.7652 13.6863 40.1851C11.9098 40.605 10.8101 42.3856 11.23 44.1621C11.65 45.9385 13.4305 47.0383 15.207 46.6183Z" fill="url(#paint6_linear_1764_23)"/>
<path d="M24.1457 7.66273L26.9385 9.18473C27.7894 9.64903 28.7483 9.87943 29.7172 9.85266C30.3252 9.08059 31.1004 8.45636 31.9846 8.0272C32.8687 7.59802 33.8387 7.37506 34.8215 7.37506C35.8043 7.37506 36.7743 7.59802 37.6585 8.0272C38.5426 8.45636 39.3178 9.08059 39.9258 9.85266C40.8959 9.88059 41.8559 9.65042 42.7081 9.1859L45.5008 7.66391C46.2438 7.25985 46.9432 6.78064 47.5884 6.2338C43.5702 4.44343 39.2204 3.51819 34.8215 3.51819C30.4226 3.51819 26.0728 4.44343 22.0547 6.2338C22.701 6.78048 23.4016 7.25931 24.1457 7.66273Z" fill="url(#paint7_linear_1764_23)"/>
<path d="M13.7862 52.2267C13.7856 51.644 13.7148 51.0634 13.5755 50.4975C12.5448 50.3555 11.5572 49.9907 10.6817 49.4284C9.80606 48.8661 9.06342 48.12 8.50534 47.2417C7.94726 46.3635 7.58706 45.3743 7.44986 44.3428C7.31266 43.3113 7.40172 42.2624 7.71081 41.2687L6.49834 40.609C5.67103 40.1599 4.79644 39.804 3.89062 39.5477C4.93084 46.3737 8.20466 52.6623 13.1997 57.4293C13.5838 56.4571 13.7813 55.4212 13.7815 54.3759L13.7862 52.2267Z" fill="url(#paint8_linear_1764_23)"/>
<path d="M4.08085 37.0755L6.87358 38.5975C7.45236 38.9126 8.08288 39.1215 8.73534 39.2142C9.40128 38.2909 10.2779 37.5396 11.2923 37.0229C12.3067 36.5061 13.4297 36.2388 14.5682 36.243C15.7066 36.2472 16.8276 36.5229 17.8381 37.0471C18.8487 37.5713 19.7197 38.3291 20.3787 39.2573C21.1716 39.2031 21.9432 38.978 22.6409 38.5975L25.4336 37.0755C26.4958 36.4983 27.4667 35.767 28.3148 34.9053C28.3148 34.8727 28.3148 34.8413 28.3148 34.8087C28.3151 33.3978 28.7743 32.0253 29.6232 30.8983C30.4721 29.7713 31.6644 28.951 33.0204 28.5611C33.5585 27.4377 33.8368 26.2077 33.835 24.962V22.8198C33.8358 21.9289 33.6717 21.0456 33.3509 20.2144C32.5066 20.0195 31.7098 19.6577 31.0072 19.1505C30.3046 18.6432 29.7105 18.0007 29.2596 17.2606C28.8088 16.5207 28.5103 15.698 28.3818 14.8409C28.2534 13.9841 28.2975 13.1099 28.5113 12.2702L26.5471 11.2009C25.0243 10.3784 23.3472 9.8813 21.6221 9.74109C19.8971 9.60087 18.1616 9.82056 16.5259 10.3863L16.4689 10.4049C14.9435 10.9137 13.5626 11.7818 12.4427 12.9359C6.71572 18.7761 3.51252 26.6325 3.52347 34.8122C3.52347 35.4801 3.54674 36.1422 3.58747 36.7985C3.75619 36.8916 3.91794 36.9859 4.08085 37.0755Z" fill="url(#paint9_linear_1764_23)"/>
</g>
<defs>
<linearGradient id="paint0_linear_1764_23" x1="31.5665" y1="14.4041" x2="38.093" y2="13.3461" gradientUnits="userSpaceOnUse">
<stop offset="0.006" stop-color="#DEF0F5"/>
<stop offset="0.449" stop-color="#BEE2EB"/>
<stop offset="1" stop-color="#8DD0DD"/>
</linearGradient>
<linearGradient id="paint1_linear_1764_23" x1="31.5234" y1="34.8081" x2="38.1352" y2="34.8081" gradientUnits="userSpaceOnUse">
<stop offset="0.006" stop-color="#DEF0F5"/>
<stop offset="0.449" stop-color="#BEE2EB"/>
<stop offset="1" stop-color="#8DD0DD"/>
</linearGradient>
<linearGradient id="paint2_linear_1764_23" x1="50.9622" y1="39.2467" x2="50.9622" y2="9.69325" gradientUnits="userSpaceOnUse">
<stop stop-color="#87B9CE"/>
<stop offset="0.5" stop-color="#3A9CB9"/>
<stop offset="1" stop-color="#0087A8"/>
</linearGradient>
<linearGradient id="paint3_linear_1764_23" x1="60.8167" y1="39.5454" x2="60.8167" y2="57.4319" gradientUnits="userSpaceOnUse">
<stop stop-color="#5A86B6"/>
<stop offset="0.108" stop-color="#5082B3"/>
<stop offset="0.287" stop-color="#3778AB"/>
<stop offset="0.515" stop-color="#0E679F"/>
<stop offset="0.584" stop-color="#00629B"/>
<stop offset="1" stop-color="#004B88"/>
</linearGradient>
<linearGradient id="paint4_linear_1764_23" x1="51.7769" y1="44.1621" x2="58.2101" y2="42.6414" gradientUnits="userSpaceOnUse">
<stop offset="0.006" stop-color="#DEF0F5"/>
<stop offset="0.449" stop-color="#BEE2EB"/>
<stop offset="1" stop-color="#8DD0DD"/>
</linearGradient>
<linearGradient id="paint5_linear_1764_23" x1="34.8221" y1="39.0704" x2="34.8221" y2="66.0959" gradientUnits="userSpaceOnUse">
<stop stop-color="#5A86B6"/>
<stop offset="0.108" stop-color="#5082B3"/>
<stop offset="0.287" stop-color="#3778AB"/>
<stop offset="0.515" stop-color="#0E679F"/>
<stop offset="0.584" stop-color="#00629B"/>
<stop offset="1" stop-color="#004B88"/>
</linearGradient>
<linearGradient id="paint6_linear_1764_23" x1="11.23" y1="44.1621" x2="17.6633" y2="42.6414" gradientUnits="userSpaceOnUse">
<stop offset="0.006" stop-color="#DEF0F5"/>
<stop offset="0.449" stop-color="#BEE2EB"/>
<stop offset="1" stop-color="#8DD0DD"/>
</linearGradient>
<linearGradient id="paint7_linear_1764_23" x1="34.8215" y1="9.85499" x2="34.8215" y2="3.51819" gradientUnits="userSpaceOnUse">
<stop stop-color="#87B9CE"/>
<stop offset="0.5" stop-color="#3A9CB9"/>
<stop offset="1" stop-color="#0087A8"/>
</linearGradient>
<linearGradient id="paint8_linear_1764_23" x1="8.83838" y1="39.5477" x2="8.83838" y2="57.4293" gradientUnits="userSpaceOnUse">
<stop stop-color="#5A86B6"/>
<stop offset="0.108" stop-color="#5082B3"/>
<stop offset="0.287" stop-color="#3778AB"/>
<stop offset="0.515" stop-color="#0E679F"/>
<stop offset="0.584" stop-color="#00629B"/>
<stop offset="1" stop-color="#004B88"/>
</linearGradient>
<linearGradient id="paint9_linear_1764_23" x1="18.6792" y1="39.2573" x2="18.6792" y2="9.70001" gradientUnits="userSpaceOnUse">
<stop stop-color="#87B9CE"/>
<stop offset="0.5" stop-color="#3A9CB9"/>
<stop offset="1" stop-color="#0087A8"/>
</linearGradient>
<clipPath id="clip0_1764_23">
<rect width="64" height="64" fill="white" transform="translate(3 3)"/>
</clipPath>
</defs>
</svg>
