<svg width="70" height="70" viewBox="0 0 70 70" fill="none" xmlns="http://www.w3.org/2000/svg">
<path d="M0.142059 35C0.142059 37.2005 0 70 0 70H35.0426C41.9551 70.0019 48.7128 67.9507 54.4612 64.106C60.2096 60.2613 64.6904 54.7957 67.337 48.4005C69.9836 42.0052 70.677 34.9676 69.3296 28.1777C67.9822 21.3877 64.6545 15.1504 59.7673 10.2546C54.8802 5.35886 48.653 2.02447 41.8736 0.673222C35.0941 -0.678029 28.0667 0.0145442 21.6803 2.66333C15.2938 5.31212 9.83516 9.79813 5.99462 15.5541C2.15407 21.31 0.104182 28.0772 0.104181 35H0.142059Z" fill="white"/>
<path d="M-1.33321e-06 64.1606C-1.33321e-06 64.1606 5.35066 60.8737 7.66209 52.2229C8.35393 48.7397 8.19431 45.1409 7.19681 41.7326C6.61086 39.3456 6.33166 36.8937 6.36596 34.4361C6.57761 26.9392 9.65895 19.8097 14.9742 14.5186C20.2894 9.22748 27.4329 6.17859 34.9306 6.00105C39.5052 5.96208 44.0234 7.01255 48.1116 9.06561C52.1999 11.1187 55.7407 14.1153 58.4414 17.8079C61.1421 21.5004 62.925 25.7828 63.6429 30.3009C64.3608 34.819 63.9929 39.4431 62.5697 43.7908C61.1465 48.1386 58.7089 52.0852 55.4583 55.3043C52.2078 58.5233 48.2377 60.9225 43.8763 62.3033C39.5149 63.6842 34.8875 64.0071 30.3765 63.2453C25.8656 62.4836 21.6008 60.659 17.9347 57.9226L20.0717 56.0747C21.3161 54.9948 22.8138 54.2477 24.4251 53.9034C26.0364 53.559 27.7087 53.6286 29.2858 54.1056C33.3455 55.3471 37.6936 55.2754 41.7101 53.9005C45.7266 52.5257 49.2066 49.918 51.654 46.4491C54.1014 42.9802 55.3913 38.8273 55.3397 34.5823C55.2881 30.3373 53.8978 26.2169 51.3668 22.8085C48.8359 19.4002 45.2936 16.8778 41.2448 15.6009C37.1961 14.324 32.8476 14.3579 28.8192 15.6977C24.7908 17.0375 21.2882 19.6147 18.8107 23.0621C16.3332 26.5095 15.0072 30.6511 15.0218 34.8964C15.0873 36.4952 15.2818 38.0862 15.6034 39.6538C16.5788 45.5861 16.4126 49.4828 14.0962 53.6121C10.1779 60.6295 -1.33321e-06 64.1606 -1.33321e-06 64.1606Z" fill="url(#paint0_linear_1764_24)"/>
<path d="M44.2559 36.9956C43.069 35.8087 43.069 33.8843 44.2559 32.6974C45.4428 31.5105 47.3671 31.5105 48.5541 32.6974C49.741 33.8843 49.741 35.8087 48.5541 36.9956C47.3671 38.1825 45.4428 38.1825 44.2559 36.9956Z" fill="url(#paint1_linear_1764_24)"/>
<path d="M32.2667 34.3315C32.1575 34.9677 32.2536 35.6222 32.541 36.2002C32.8285 36.7782 33.2925 37.2497 33.8658 37.5465C34.439 37.8432 35.0918 37.9499 35.7298 37.851C36.3677 37.7521 36.9576 37.4527 37.414 36.9962C37.8705 36.5398 38.1698 35.9499 38.2688 35.312C38.3677 34.6741 38.2611 34.0212 37.9643 33.4479C37.6675 32.8747 37.196 32.4107 36.618 32.1232C36.04 31.8358 35.3855 31.7397 34.7493 31.8489C34.1297 31.9555 33.5583 32.2514 33.1138 32.696C32.6692 33.1406 32.3733 33.7119 32.2667 34.3315V34.3315Z" fill="url(#paint2_linear_1764_24)"/>
<path d="M21.1417 34.3315C21.0325 34.9677 21.1286 35.6222 21.416 36.2002C21.7035 36.7782 22.1675 37.2497 22.7408 37.5465C23.314 37.8432 23.9668 37.9499 24.6048 37.851C25.2427 37.7521 25.8326 37.4527 26.289 36.9962C26.7455 36.5398 27.0448 35.9499 27.1438 35.312C27.2427 34.6741 27.1361 34.0212 26.8393 33.4479C26.5425 32.8747 26.071 32.4107 25.493 32.1232C24.915 31.8358 24.2605 31.7397 23.6243 31.8489C23.0047 31.9555 22.4333 32.2514 21.9888 32.696C21.5442 33.1406 21.2483 33.7119 21.1417 34.3315V34.3315Z" fill="url(#paint3_linear_1764_24)"/>
<defs>
<linearGradient id="paint0_linear_1764_24" x1="46.592" y1="13.5609" x2="23.2501" y2="66.556" gradientUnits="userSpaceOnUse">
<stop stop-color="#F4A121"/>
<stop offset="0.552" stop-color="#F36F29"/>
<stop offset="0.988" stop-color="#F24D23"/>
</linearGradient>
<linearGradient id="paint1_linear_1764_24" x1="72.1681" y1="27.0153" x2="-5.39632" y2="50.5949" gradientUnits="userSpaceOnUse">
<stop stop-color="#F4A121"/>
<stop offset="0.552" stop-color="#F36F29"/>
<stop offset="0.988" stop-color="#F24D23"/>
</linearGradient>
<linearGradient id="paint2_linear_1764_24" x1="51.2772" y1="4.83815" x2="13.0893" y2="76.3971" gradientUnits="userSpaceOnUse">
<stop stop-color="#F4A121"/>
<stop offset="0.552" stop-color="#F36F29"/>
<stop offset="0.988" stop-color="#F24D23"/>
</linearGradient>
<linearGradient id="paint3_linear_1764_24" x1="43.4851" y1="-1.40183" x2="5.29102" y2="70.1571" gradientUnits="userSpaceOnUse">
<stop stop-color="#F4A121"/>
<stop offset="0.552" stop-color="#F36F29"/>
<stop offset="0.988" stop-color="#F24D23"/>
</linearGradient>
</defs>
</svg>
