<svg width="70" height="70" viewBox="0 0 70 70" fill="none" xmlns="http://www.w3.org/2000/svg">
<path d="M0.142059 35C0.142059 37.2005 0 70 0 70H35.0426C41.9551 70.0019 48.7128 67.9507 54.4612 64.106C60.2096 60.2613 64.6904 54.7957 67.337 48.4005C69.9836 42.0052 70.677 34.9676 69.3296 28.1777C67.9822 21.3877 64.6545 15.1504 59.7673 10.2546C54.8802 5.35886 48.653 2.02447 41.8736 0.673222C35.0941 -0.678029 28.0667 0.0145442 21.6803 2.66333C15.2938 5.31212 9.83516 9.79813 5.99462 15.5541C2.15407 21.31 0.104182 28.0772 0.104181 35H0.142059Z" fill="white"/>
<path d="M14.1701 14.1004C11.4803 14.4543 9.21514 16.3419 8.31853 18.9845L8 19.9283V32.2567V44.585L8.25954 45.4109C8.97919 47.6642 10.737 49.4456 13.0139 50.2242C13.769 50.4838 13.8751 50.4838 22.0154 50.5192L30.25 50.5546L30.1675 50.9911C30.0495 51.6989 29.6484 52.8079 29.3888 53.1618C28.8815 53.8815 28.7872 53.9051 24.4339 53.964C20.4817 54.023 20.4581 54.023 20.175 54.2944C19.8919 54.5657 19.6205 55.3207 19.6205 55.8398V56.0876H35.0162C49.8221 56.0876 50.4119 56.0758 50.4119 55.8752C50.4119 55.7573 50.3293 55.3797 50.235 55.0494C49.9282 54.0112 50.0108 54.0348 45.575 53.964C41.9413 53.9051 41.7172 53.8933 41.2689 53.6455C40.9386 53.4803 40.6908 53.209 40.4667 52.8197C40.1835 52.2888 39.7942 51.0619 39.7942 50.6961C39.7942 50.5782 41.5166 50.5428 47.9699 50.5192L56.1337 50.4838L57.0775 50.1653C59.4252 49.363 61.183 47.4518 61.7965 45.0569C62.0678 44.007 62.0678 20.5064 61.7965 19.4564C61.3128 17.5334 59.8617 15.693 58.1747 14.8672C56.3579 13.9588 58.3752 14.0414 35.4881 14.0178C24.1979 14.006 14.6066 14.0414 14.1701 14.1004ZM55.8624 19.4918C56.0983 19.6452 56.405 19.9401 56.5348 20.1525C56.7826 20.5418 56.7826 20.6598 56.7826 32.2803V44.0188L56.5112 44.4199C56.3697 44.6322 56.0393 44.939 55.7798 45.0805L55.3079 45.3519H35.0516C21.0244 45.3519 14.701 45.3165 14.465 45.2221C14.0167 45.0569 13.4858 44.5497 13.2971 44.0896C13.1555 43.771 13.1319 41.7183 13.1319 32.2567C13.1319 21.2496 13.1437 20.7895 13.3561 20.3648C13.474 20.1289 13.6864 19.8339 13.8162 19.716C14.4414 19.1497 13.6628 19.1733 35.1932 19.1969L55.4259 19.2205L55.8624 19.4918Z" fill="black"/>
<mask id="mask0_1764_150" style="mask-type:alpha" maskUnits="userSpaceOnUse" x="8" y="14" width="54" height="37">
<path d="M8.01562 14H61.9891V50.4542H8.01562V14Z" fill="#D9D9D9"/>
</mask>
<g mask="url(#mask0_1764_150)">
<path d="M14.1545 14.1004C11.4646 14.4543 9.19952 16.3419 8.30291 18.9845L7.98438 19.9283V32.2567V44.585L8.24392 45.4109C8.96357 47.6642 10.7214 49.4456 12.9983 50.2242C13.7533 50.4838 13.8595 50.4838 21.9998 50.5192L30.2344 50.5546L30.1518 50.9911C30.0339 51.6989 29.6327 52.8079 29.3732 53.1618C28.8659 53.8815 28.7715 53.9051 24.4183 53.964C20.4661 54.023 20.4425 54.023 20.1594 54.2944C19.8762 54.5657 19.6049 55.3207 19.6049 55.8398V56.0876H35.0006C49.8064 56.0876 50.3963 56.0758 50.3963 55.8752C50.3963 55.7573 50.3137 55.3797 50.2193 55.0494C49.9126 54.0112 49.9952 54.0348 45.5593 53.964C41.9257 53.9051 41.7016 53.8933 41.2533 53.6455C40.9229 53.4803 40.6752 53.209 40.451 52.8197C40.1679 52.2888 39.7786 51.0619 39.7786 50.6961C39.7786 50.5782 41.501 50.5428 47.9542 50.5192L56.1181 50.4838L57.0619 50.1653C59.4096 49.363 61.1674 47.4518 61.7809 45.0569C62.0522 44.007 62.0522 20.5064 61.7809 19.4564C61.2972 17.5334 59.8461 15.693 58.159 14.8672C56.3422 13.9588 58.3596 14.0414 35.4725 14.0178C24.1823 14.006 14.591 14.0414 14.1545 14.1004ZM55.8467 19.4918C56.0827 19.6452 56.3894 19.9401 56.5192 20.1525C56.7669 20.5418 56.7669 20.6598 56.7669 32.2803V44.0188L56.4956 44.4199C56.354 44.6322 56.0237 44.939 55.7642 45.0805L55.2923 45.3519H35.036C21.0088 45.3519 14.6853 45.3165 14.4494 45.2221C14.0011 45.0569 13.4702 44.5497 13.2814 44.0896C13.1399 43.771 13.1163 41.7183 13.1163 32.2567C13.1163 21.2496 13.1281 20.7895 13.3404 20.3648C13.4584 20.1289 13.6708 19.8339 13.8005 19.716C14.4258 19.1497 13.6472 19.1733 35.1776 19.1969L55.4102 19.2205L55.8467 19.4918Z" fill="#D81B5C"/>
</g>
<path d="M30.4766 32.9056C30.4766 36.8341 30.5002 40.043 30.5355 40.043C30.6181 40.043 42.6634 33.0943 42.7695 32.9881C42.8167 32.9409 41.401 32.0797 39.6432 31.0652C37.8736 30.0506 35.0894 28.4461 33.4613 27.5023L30.4766 25.7799V32.9056Z" fill="#D81B5C"/>
</svg>
