<svg width="70" height="70" viewBox="0 0 70 70" fill="none" xmlns="http://www.w3.org/2000/svg">
<path d="M0.142059 35C0.142059 37.2005 0 70 0 70H35.0426C41.9551 70.0019 48.7128 67.9507 54.4612 64.106C60.2096 60.2613 64.6904 54.7957 67.337 48.4005C69.9836 42.0052 70.677 34.9676 69.3296 28.1777C67.9822 21.3877 64.6545 15.1504 59.7673 10.2546C54.8802 5.35886 48.653 2.02447 41.8736 0.673222C35.0941 -0.678029 28.0667 0.0145442 21.6803 2.66333C15.2938 5.31212 9.83516 9.79813 5.99462 15.5541C2.15407 21.31 0.104182 28.0772 0.104181 35H0.142059Z" fill="white"/>
<path d="M59.2716 56.3408C59.3264 56.2556 59.3756 56.167 59.4191 56.0755L59.537 55.7661L59.6254 55.4712V54.7049C59.6254 54.7049 59.6254 54.587 59.6254 54.528C59.6327 54.4103 59.6327 54.2921 59.6254 54.1742C59.6079 54.0696 59.5832 53.9662 59.5517 53.8648L59.4632 53.57C59.4632 53.4521 59.3601 53.3489 59.3159 53.231C59.2885 53.1783 59.264 53.1242 59.2422 53.069L34.29 9.82633C34.29 9.82633 34.29 9.73789 34.1869 9.67894C34.1258 9.57182 34.0516 9.47279 33.9658 9.38417C33.9094 9.30431 33.8452 9.23025 33.7742 9.16309L33.5236 8.92729L33.2436 8.73568L33.0962 8.61777H32.993C32.8917 8.55859 32.7826 8.51394 32.6688 8.48513L32.3888 8.35248H30.8118L30.5169 8.42617L30.2222 8.54408C30.1143 8.57632 30.0105 8.62083 29.9127 8.67673H29.8096L29.6475 8.79463L29.3674 8.98624L29.1316 9.22206C29.0518 9.28471 28.9823 9.35928 28.9252 9.44313L28.7042 9.7379C28.7042 9.7379 28.7042 9.82633 28.601 9.88529L3.66356 53.069C3.64181 53.1242 3.6172 53.1783 3.58987 53.231C3.53458 53.3413 3.48539 53.4544 3.44248 53.57C3.39756 53.663 3.3677 53.7624 3.35405 53.8648C3.34727 53.9678 3.34727 54.0712 3.35405 54.1742C3.34697 54.2921 3.34697 54.4103 3.35405 54.528C3.35405 54.528 3.35405 54.6459 3.35405 54.7049C3.35405 54.7638 3.35405 54.7049 3.35405 54.8228C3.34678 54.9357 3.34678 55.0489 3.35405 55.1617C3.3152 55.2772 3.28562 55.3954 3.26562 55.5155C3.28831 55.6156 3.31785 55.7141 3.35405 55.8103C3.38687 55.9157 3.42625 56.0191 3.47196 56.1198L3.6046 56.3703L3.78147 56.6651L3.97306 56.8861C4.04394 56.9766 4.12287 57.0605 4.20888 57.1367C4.27033 57.2081 4.33954 57.2723 4.41522 57.3283L4.72473 57.5347H4.96054L5.29953 57.6968L5.5943 57.7852H57.2525L57.5326 57.6968L57.8715 57.5347H58.1221L58.4168 57.3283L58.638 57.1367C58.7192 57.0602 58.7933 56.9764 58.859 56.8861L59.0506 56.6651C59.1314 56.5621 59.2052 56.4537 59.2716 56.3408ZM18.9768 39.6717L25.7712 51.4624H12.1971L18.9768 39.6717ZM31.4455 18.0651L40.1117 33.1131L31.4455 48.1463L22.7646 33.1131L31.4455 18.0651ZM43.9142 39.6717L50.7086 51.4624H37.164L43.9142 39.6717Z" fill="white"/>
<path d="M15.6878 33.1132C15.6791 32.4614 15.8643 31.8217 16.2201 31.2753C16.5759 30.7291 17.0861 30.301 17.6858 30.0454C18.2855 29.7898 18.9477 29.7184 19.5882 29.8402C20.2286 29.9619 20.8184 30.2714 21.2824 30.7293C21.7465 31.1871 22.064 31.7726 22.1944 32.4114C22.3249 33.0501 22.2624 33.7132 22.015 34.3164C21.7676 34.9195 21.3463 35.4354 20.805 35.7986C20.2636 36.1617 19.6265 36.3556 18.9745 36.3556" fill="white"/>
<path d="M28.1714 11.5066C28.1413 11.0575 28.2038 10.607 28.3549 10.183C28.5061 9.75897 28.7427 9.37054 29.0502 9.04176C29.3576 8.71298 29.7293 8.45087 30.1422 8.27167C30.5552 8.09246 31.0005 8 31.4507 8C31.9008 8 32.3461 8.09246 32.7591 8.27167C33.172 8.45087 33.5437 8.71298 33.8513 9.04176C34.1587 9.37054 34.3953 9.75897 34.5466 10.183C34.6977 10.607 34.7601 11.0575 34.73 11.5066" fill="white"/>
<path d="M6.50665 57.9917C6.05751 58.0218 5.60698 57.9594 5.18297 57.8082C4.75898 57.6571 4.37054 57.4204 4.04176 57.1129C3.71298 56.8055 3.45087 56.4338 3.27167 56.0208C3.09247 55.6079 3 55.1626 3 54.7124C3 54.2623 3.09247 53.8169 3.27167 53.404C3.45087 52.991 3.71298 52.6193 4.04176 52.3119C4.37054 52.0044 4.75898 51.7677 5.18297 51.6166C5.60698 51.4654 6.05751 51.403 6.50665 51.4331" fill="white"/>
<path d="M34.2935 9.88206C33.3859 8.31007 31.3787 7.76982 29.8102 8.67537C28.2417 9.58092 27.7061 11.5894 28.6136 13.1614L53.5511 56.3543C54.4586 57.9263 56.4659 58.4665 58.0344 57.561C59.6027 56.6554 60.1385 54.647 59.2309 53.075L34.2935 9.88206Z" fill="#F8993A"/>
<path d="M6.49761 51.4331C4.68244 51.4331 3.21094 52.9014 3.21094 54.7124C3.21094 56.5236 4.68244 57.9917 6.49761 57.9917H56.3725C58.1876 57.9917 59.6592 56.5236 59.6592 54.7124C59.6592 52.9014 58.1876 51.4331 56.3725 51.4331H6.49761Z" fill="#EE3E96"/>
<path d="M3.67611 53.0651C2.76852 54.6371 3.30426 56.6455 4.87273 57.551C6.4412 58.4566 8.44844 57.9164 9.35603 56.3444L34.2935 13.1515C35.2011 11.5795 34.6653 9.57103 33.0968 8.66548C31.5283 7.75993 29.5211 8.30019 28.6135 9.87217L3.67611 53.0651Z" fill="#2A396D"/>
<path d="M21.8091 31.4806C20.9015 29.9086 18.8943 29.3683 17.3258 30.2738C15.7574 31.1795 15.2217 33.1879 16.1292 34.7599L28.5906 56.3436C29.4981 57.9156 31.5054 58.4558 33.0739 57.5503C34.6423 56.6448 35.1781 54.6363 34.2705 53.0643L21.8091 31.4806Z" fill="#35C6F4"/>
<path d="M28.6214 53.0583C27.7138 54.6303 28.2496 56.6387 29.8181 57.5444C31.3866 58.4499 33.3938 57.9096 34.3014 56.3376L46.7627 34.7539C47.6703 33.1819 47.1345 31.1735 45.5662 30.2679C43.9977 29.3624 41.9904 29.9026 41.0829 31.4746L28.6214 53.0583Z" fill="#4EBD94"/>
<path d="M43.9196 36.3999C45.7348 36.3999 47.2062 34.9284 47.2062 33.1132C47.2062 31.298 45.7348 29.8266 43.9196 29.8266C42.1043 29.8266 40.6328 31.298 40.6328 33.1132C40.6328 34.9284 42.1043 36.3999 43.9196 36.3999Z" fill="#EE3E96"/>
<path d="M18.9742 36.3999C20.7893 36.3999 22.2609 34.9284 22.2609 33.1132C22.2609 31.298 20.7893 29.8266 18.9742 29.8266C17.159 29.8266 15.6875 31.298 15.6875 33.1132C15.6875 34.9284 17.159 36.3999 18.9742 36.3999Z" fill="#4EBD94"/>
<path d="M31.4507 14.7933C33.2659 14.7933 34.7374 13.3218 34.7374 11.5066C34.7374 9.6914 33.2659 8.21991 31.4507 8.21991C29.6356 8.21991 28.1641 9.6914 28.1641 11.5066C28.1641 13.3218 29.6356 14.7933 31.4507 14.7933Z" fill="#2A396D"/>
<path d="M31.4507 57.9918C33.2659 57.9918 34.7374 56.5202 34.7374 54.7051C34.7374 52.8899 33.2659 51.4184 31.4507 51.4184C29.6356 51.4184 28.1641 52.8899 28.1641 54.7051C28.1641 56.5202 29.6356 57.9918 31.4507 57.9918Z" fill="#F8993A"/>
<path d="M56.4038 57.9918C58.219 57.9918 59.6906 56.5202 59.6906 54.7051C59.6906 52.8899 58.219 51.4184 56.4038 51.4184C54.5887 51.4184 53.1172 52.8899 53.1172 54.7051C53.1172 56.5202 54.5887 57.9918 56.4038 57.9918Z" fill="#2A396D"/>
<path d="M6.49761 57.9918C8.3128 57.9918 9.78428 56.5202 9.78428 54.7051C9.78428 52.8899 8.31278 51.4184 6.49761 51.4184C4.68244 51.4184 3.21094 52.8899 3.21094 54.7051C3.21094 56.5202 4.68244 57.9918 6.49761 57.9918Z" fill="#2A396D"/>
</svg>
