<svg width="155" height="45" viewBox="0 0 155 45" fill="none" xmlns="http://www.w3.org/2000/svg">
<path d="M45.526 15.2507H40.296L45.412 28.3867C45.7959 29.3713 45.7959 30.4642 45.412 31.4487C44.96 32.5987 44.2 33.8267 42.028 34.1187L41.706 34.1627H40.696C39.4859 34.159 38.3263 33.6773 37.47 32.8224C36.6136 31.9675 36.1298 30.8088 36.124 29.5987V16.7727C36.1271 15.5609 36.6098 14.3997 37.4664 13.5426C38.3231 12.6856 39.4842 12.2024 40.696 12.1987H52.348L48.216 23.6767L45.526 15.2507Z" fill="url(#paint0_linear_344_239)"/>
<path d="M61.7102 16.774V34.164H49.2881C50.0573 32.7938 50.7006 31.3565 51.2101 29.87L57.7821 12.248C58.8697 12.4086 59.8638 12.9534 60.5843 13.7836C61.3049 14.6139 61.7043 15.6747 61.7102 16.774V16.774Z" fill="url(#paint1_linear_344_239)"/>
<path d="M58.4922 8.15088L50.4882 29.6009C49.8102 31.4969 49.1242 33.0009 48.3922 34.1589C48.006 34.7891 47.5505 35.3741 47.0342 35.9029C45.7942 37.1489 44.3342 37.7709 42.4642 37.8449V34.8289C43.101 34.7244 43.712 34.499 44.2642 34.1649C45.3022 33.5169 45.8062 32.5649 46.1342 31.7309C46.5892 30.5671 46.5892 29.2746 46.1342 28.1109L41.4202 16.0189H44.9642L48.1642 26.0669L54.6222 8.15088H58.4922Z" fill="url(#paint2_linear_344_239)"/>
<path d="M117.051 27.4638V19.8962H119.902V16.6125H117.051V12.6665H112.647V16.626H110.409V19.9098H112.647V27.0449C112.647 31.0989 115.626 33.5044 118.776 34.0044L120.087 30.653C118.248 30.4233 117.065 29.126 117.051 27.4638Z" fill="url(#paint3_linear_344_239)"/>
<path d="M94.8284 26.2641V20.5884C94.8284 20.3857 94.8142 20.183 94.7999 19.9938C94.4151 15.3992 87.5303 15.4128 82.2134 17.1695L83.7386 20.1155C87.2024 18.5479 89.2835 18.9533 90.0105 19.7236C90.0247 19.7371 90.0533 19.7641 90.0675 19.7776C90.0675 19.7776 90.0675 19.7776 90.0675 19.7911C90.4381 20.2641 90.3526 21.0074 90.3526 21.6019C85.8197 21.6019 80.9875 22.1695 80.9875 26.8857C80.9875 30.4668 85.72 32.7776 90.6804 29.3587L91.4217 31.0344H95.6694C95.2703 29.0749 94.8284 27.3857 94.8284 26.2641ZM90.3811 26.2371C86.8888 29.9398 83.6959 26.4533 86.9743 24.9398C87.9436 24.629 89.2408 24.6155 90.3811 24.6155V26.2371Z" fill="url(#paint4_linear_344_239)"/>
<path d="M101.599 20.2901C101.599 18.8847 103.966 18.2361 107.7 19.8442L108.997 16.8712C103.98 15.4388 97.1236 15.3036 97.0809 20.2766C97.0666 22.6685 98.6774 23.9523 101.001 24.7631C102.612 25.3306 104.935 25.6279 104.935 26.8442C104.921 28.4387 101.329 28.682 98.0359 26.5333L96.7103 29.7496C101.186 31.8577 109.496 31.9252 109.454 26.6279C109.397 21.3982 101.599 22.3171 101.599 20.2901Z" fill="url(#paint5_linear_344_239)"/>
<path d="M72.364 16.1255C66.8618 16.1255 64.6667 19.8147 64.6667 23.7201C64.6667 27.7741 66.8191 31.0985 72.364 31.0985C77.8804 31.0985 80.0755 27.3687 80.0613 23.7201C80.047 19.2741 77.6666 16.1255 72.364 16.1255ZM72.364 27.8822C70.1261 27.8822 69.0285 26.3012 69.0285 23.7066C69.0285 21.112 70.2116 19.2606 72.364 19.2606C74.5021 19.2606 75.671 21.112 75.671 23.7066C75.671 26.3012 74.6019 27.8822 72.364 27.8822Z" fill="url(#paint6_linear_344_239)"/>
<defs>
<linearGradient id="paint0_linear_344_239" x1="44.236" y1="34.1627" x2="44.236" y2="12.2007" gradientUnits="userSpaceOnUse">
<stop stop-color="#570732"/>
<stop offset="0.02" stop-color="#5D0936"/>
<stop offset="0.16" stop-color="#771549"/>
<stop offset="0.3" stop-color="#8B1D58"/>
<stop offset="0.47" stop-color="#992362"/>
<stop offset="0.67" stop-color="#A12768"/>
<stop offset="1" stop-color="#A4286A"/>
</linearGradient>
<linearGradient id="paint1_linear_344_239" x1="55.4981" y1="34.164" x2="55.4981" y2="12.248" gradientUnits="userSpaceOnUse">
<stop stop-color="#570732"/>
<stop offset="0.02" stop-color="#5D0936"/>
<stop offset="0.16" stop-color="#771549"/>
<stop offset="0.3" stop-color="#8B1D58"/>
<stop offset="0.47" stop-color="#992362"/>
<stop offset="0.67" stop-color="#A12768"/>
<stop offset="1" stop-color="#A4286A"/>
</linearGradient>
<linearGradient id="paint2_linear_344_239" x1="49.9562" y1="8.15088" x2="49.9562" y2="37.8509" gradientUnits="userSpaceOnUse">
<stop stop-color="#77B227"/>
<stop offset="0.47" stop-color="#75B027"/>
<stop offset="0.64" stop-color="#6EAB27"/>
<stop offset="0.75" stop-color="#63A027"/>
<stop offset="0.85" stop-color="#529228"/>
<stop offset="0.93" stop-color="#3C8028"/>
<stop offset="1" stop-color="#246B29"/>
</linearGradient>
<linearGradient id="paint3_linear_344_239" x1="115.248" y1="33.9976" x2="115.248" y2="12.6597" gradientUnits="userSpaceOnUse">
<stop stop-color="#570732"/>
<stop offset="0.0375529" stop-color="#610B39"/>
<stop offset="0.1547" stop-color="#79164B"/>
<stop offset="0.2866" stop-color="#8C1E59"/>
<stop offset="0.4398" stop-color="#9A2463"/>
<stop offset="0.6334" stop-color="#A22768"/>
<stop offset="1" stop-color="#A4286A"/>
</linearGradient>
<linearGradient id="paint4_linear_344_239" x1="88.3285" y1="31.0277" x2="88.3285" y2="16.0723" gradientUnits="userSpaceOnUse">
<stop stop-color="#570732"/>
<stop offset="0.0375529" stop-color="#610B39"/>
<stop offset="0.1547" stop-color="#79164B"/>
<stop offset="0.2866" stop-color="#8C1E59"/>
<stop offset="0.4398" stop-color="#9A2463"/>
<stop offset="0.6334" stop-color="#A22768"/>
<stop offset="1" stop-color="#A4286A"/>
</linearGradient>
<linearGradient id="paint5_linear_344_239" x1="103.082" y1="31.0986" x2="103.082" y2="16.0009" gradientUnits="userSpaceOnUse">
<stop stop-color="#570732"/>
<stop offset="0.0375529" stop-color="#610B39"/>
<stop offset="0.1547" stop-color="#79164B"/>
<stop offset="0.2866" stop-color="#8C1E59"/>
<stop offset="0.4398" stop-color="#9A2463"/>
<stop offset="0.6334" stop-color="#A22768"/>
<stop offset="1" stop-color="#A4286A"/>
</linearGradient>
<linearGradient id="paint6_linear_344_239" x1="72.364" y1="31.0917" x2="72.364" y2="16.1187" gradientUnits="userSpaceOnUse">
<stop stop-color="#570732"/>
<stop offset="0.0375529" stop-color="#610B39"/>
<stop offset="0.1547" stop-color="#79164B"/>
<stop offset="0.2866" stop-color="#8C1E59"/>
<stop offset="0.4398" stop-color="#9A2463"/>
<stop offset="0.6334" stop-color="#A22768"/>
<stop offset="1" stop-color="#A4286A"/>
</linearGradient>
</defs>
</svg>
