<svg width="155" height="45" viewBox="0 0 155 45" fill="none" xmlns="http://www.w3.org/2000/svg">
<path d="M70.35 17.6482H74.226L68.718 31.5202H65.25L59.64 17.6482H63.618L66.984 26.9302L70.35 17.6482V17.6482ZM75.45 31.4182H79.224V17.6482H75.45V31.4182ZM80.958 26.9302H84.732C84.834 27.8482 85.446 28.7662 87.078 28.7662C88.506 28.7662 89.22 28.2562 89.22 27.5422C89.22 25.1962 81.57 27.4402 81.57 21.9322C81.57 19.3822 83.712 17.3422 87.078 17.3422C91.26 17.3422 92.688 19.9942 92.79 22.0342H89.22C89.118 21.1162 88.506 20.4022 87.18 20.4022C85.956 20.4022 85.242 21.0142 85.242 21.7282C85.242 24.0742 92.892 21.7282 92.892 27.4402C92.892 29.8882 90.75 31.8262 87.078 31.8262C82.692 31.7242 81.162 29.5822 80.958 26.9302M94.728 31.4182H98.502V17.6482H94.728V31.4182ZM107.376 28.4602C109.314 28.4602 110.844 27.0322 110.844 24.4822C110.844 22.0342 109.314 20.5042 107.376 20.5042C105.438 20.5042 103.908 21.9322 103.908 24.4822C103.908 27.0322 105.438 28.4602 107.376 28.4602ZM100.134 24.4822C100.134 20.5042 102.99 17.2402 107.376 17.2402C111.762 17.2402 114.618 20.5042 114.618 24.4822C114.618 28.4602 111.762 31.7242 107.376 31.7242C102.99 31.7242 100.134 28.4602 100.134 24.4822ZM119.82 19.2802C120.432 18.0562 121.86 17.2402 123.9 17.2402C127.266 17.2402 129 19.4842 129 22.7482V31.4182H125.226V23.1562C125.226 21.5242 124.512 20.4022 122.88 20.4022C121.044 20.4022 120.024 21.5242 120.024 23.4622V31.4182H116.25V17.6482H119.82V19.2802Z" fill="#FF0066"/>
<path d="M27 39.782H61.782V5H27V39.782Z" fill="#FF0066"/>
<path d="M39.24 15.914C40.362 15.914 41.28 15.098 41.28 13.874C41.28 12.752 40.362 11.834 39.24 11.834C38.118 11.834 37.2 12.65 37.2 13.874C37.2 15.098 38.118 15.914 39.24 15.914ZM34.956 26.726C34.854 27.236 34.752 27.746 34.752 28.256C34.752 29.99 35.67 31.214 37.71 31.214C39.444 31.214 40.77 30.194 41.79 28.562L41.178 31.01H44.544L46.482 23.36C46.992 21.422 47.91 20.402 49.338 20.402C50.46 20.402 51.174 21.116 51.174 22.238C51.174 22.544 51.174 22.952 51.072 23.36L50.052 26.93C49.95 27.44 49.848 27.95 49.848 28.46C49.848 30.092 50.868 31.316 52.908 31.316C54.642 31.316 56.07 30.194 56.886 27.44L55.56 26.93C54.948 28.766 54.336 29.072 53.928 29.072C53.52 29.072 53.214 28.766 53.214 28.154C53.214 27.848 53.316 27.542 53.316 27.236L54.234 23.768C54.438 22.952 54.54 22.238 54.54 21.626C54.54 19.076 53.01 17.75 51.072 17.75C49.338 17.75 47.502 19.382 46.584 21.014L47.196 18.056H42.096L41.382 20.708H43.728L42.3 26.318C41.178 28.868 39.036 28.97 38.73 28.868C38.322 28.766 38.016 28.562 38.016 28.052C38.016 27.746 38.118 27.236 38.22 26.726L40.464 17.852H34.854L34.14 20.504H36.486L34.956 26.726V26.726Z" fill="white"/>
</svg>
