<svg width="155" height="45" viewBox="0 0 155 45" fill="none" xmlns="http://www.w3.org/2000/svg">
<path d="M34 14.6606H37.0063V21.3399H43.3468V14.6606H46.357V31.0561H43.3468V24.2366H37.0063V31.0561H34V14.6606ZM55.881 25.7158C55.881 27.0883 54.7628 28.2052 53.3906 28.2052C52.018 28.2052 50.9005 27.0883 50.9005 25.7158V18.657H48.0494V25.7158C48.0494 28.6607 50.4456 31.0561 53.3906 31.0561C56.335 31.0561 58.731 28.6607 58.731 25.7158V18.657H55.881V25.7158ZM66.69 18.7397C65.2758 18.7397 64.2886 19.1501 63.3353 20.0859V14.6606H60.475V24.7152C60.475 28.4787 63.196 31.0561 66.253 31.0561C69.6515 31.0561 72.6292 28.4327 72.6292 24.8981C72.6292 21.4082 69.8834 18.7397 66.69 18.7397V18.7397ZM66.7611 28.41C64.8229 28.41 63.3408 26.7913 63.3408 24.8981C63.3408 23.0045 64.8229 21.3853 66.7611 21.3853C68.4033 21.3853 69.8863 23.0045 69.8863 24.8981C69.8863 26.7913 68.4033 28.41 66.7611 28.41V28.41ZM77.4332 19.4603C77.4332 18.0225 78.3912 17.5666 79.44 17.5666C80.2844 17.5666 81.4017 18.2052 82.1309 18.9809L84.0007 16.7915C83.0662 15.5372 81.1736 14.6702 79.6226 14.6702C76.5205 14.6702 74.2853 16.4722 74.2853 19.4603C74.2853 25.0025 81.105 23.2457 81.105 26.3484C81.105 27.3052 80.1702 28.15 79.0989 28.15C77.4105 28.15 76.8628 27.3288 76.0877 26.4619L74.0118 28.6055C75.3354 30.225 76.977 31.0465 78.9387 31.0465C81.8807 31.0465 84.2528 29.2218 84.2528 26.3704C84.2528 20.2126 77.4332 22.1287 77.4332 19.4603M91.7827 18.5791C88.726 18.5791 86.0047 21.155 86.0047 24.9193V34.9998H88.8648V29.5487C89.8183 30.4839 90.805 30.8949 92.2197 30.8949C95.4129 30.8949 98.1591 28.2267 98.1591 24.7369C98.1591 21.2018 95.1806 18.5791 91.7827 18.5791V18.5791ZM92.2909 28.2496C90.353 28.2496 88.8707 26.6288 88.8707 24.7369C88.8707 22.8434 90.353 21.2242 92.2909 21.2242C93.9329 21.2242 95.416 22.8434 95.416 24.7369C95.416 26.6288 93.9329 28.2496 92.2909 28.2496V28.2496ZM119.213 28.41C117.526 28.41 117.047 27.6804 117.047 26.5624V21.6134H119.669V19.1048H117.047V15.7974L114.151 17.0971V27.1783C114.151 29.7559 115.93 31.0561 118.369 31.0561C118.734 31.0561 119.236 31.0325 119.51 30.965L120.217 28.3652C119.898 28.3872 119.533 28.41 119.213 28.41" fill="#45535E"/>
<path d="M111.67 21.7594C111.121 20.816 110.35 20.0597 109.386 19.4904C108.665 19.0709 107.918 18.8046 107.076 18.6903V15.6927C107.918 15.3352 108.441 14.5439 108.441 13.6207C108.441 12.3624 107.431 11.3427 106.174 11.3427C104.916 11.3427 103.889 12.3624 103.889 13.6207C103.889 14.5439 104.382 15.3352 105.224 15.6927V18.6916C104.55 18.789 103.851 18.999 103.213 19.3216C101.911 18.3321 97.6382 15.0858 95.139 13.1897C95.1982 12.976 95.2439 12.7558 95.2439 12.5234C95.2439 11.1297 94.1153 10 92.7211 10C91.3269 10 90.1987 11.1297 90.1987 12.5234C90.1987 13.9169 91.328 15.0469 92.7222 15.0469C93.1978 15.0469 93.6377 14.9078 94.0172 14.6791L94.5447 15.0792L101.792 20.3011C101.409 20.6529 101.052 21.053 100.767 21.502C100.188 22.4172 99.8347 23.4243 99.8347 24.5228V24.752C99.8347 25.5231 99.9812 26.2511 100.231 26.935C100.451 27.5321 100.772 28.0751 101.17 28.566L98.7645 30.9772C98.4159 30.8474 98.0373 30.8208 97.674 30.9005C97.3107 30.9801 96.978 31.1628 96.7157 31.4265C96.5341 31.6072 96.3902 31.8222 96.2922 32.0589C96.1943 32.2957 96.1443 32.5495 96.1452 32.8057C96.1453 33.3266 96.3483 33.8161 96.7167 34.1844C96.8973 34.3662 97.1122 34.5103 97.3489 34.6084C97.5856 34.7065 97.8394 34.7567 98.0956 34.756C98.3519 34.7566 98.6058 34.7065 98.8425 34.6083C99.0793 34.5102 99.2943 34.3661 99.475 34.1844C99.6565 34.0037 99.8004 33.7888 99.8984 33.5522C99.9963 33.3155 100.046 33.0618 100.046 32.8057C100.046 32.6041 100.015 32.4074 99.9561 32.2205L102.442 29.734C102.783 29.9694 103.151 30.1677 103.547 30.3386C104.327 30.6761 105.189 30.8817 106.132 30.8817H106.305C107.347 30.8817 108.33 30.6368 109.255 30.136C110.229 29.6067 110.991 28.8829 111.567 27.9589C112.146 27.0323 112.465 26.0086 112.465 24.8823V24.8261C112.465 23.7181 112.208 22.6959 111.67 21.7594V21.7594ZM108.632 26.9754C107.957 27.7253 107.182 28.1872 106.305 28.1872H106.16C105.659 28.1872 105.169 28.0488 104.69 27.797C104.149 27.5198 103.738 27.1244 103.402 26.6238C103.055 26.1324 102.866 25.5958 102.866 25.027V24.8542C102.866 24.2949 102.973 23.7646 103.244 23.2638C103.533 22.7163 103.923 22.2906 104.443 21.9521C104.953 21.616 105.497 21.4511 106.104 21.4511H106.16C106.71 21.4511 107.231 21.5595 107.722 21.811C108.223 22.0791 108.632 22.4453 108.949 22.9272C109.257 23.4091 109.44 23.929 109.499 24.4953C109.509 24.613 109.513 24.7336 109.513 24.8488C109.513 25.6174 109.22 26.3292 108.632 26.9754Z" fill="#F8761F"/>
</svg>
