<svg width="155" height="45" viewBox="0 0 155 45" fill="none" xmlns="http://www.w3.org/2000/svg">
<mask id="mask0_957_45" style="mask-type:alpha" maskUnits="userSpaceOnUse" x="22" y="10" width="26" height="25">
<rect x="22" y="10" width="25.9091" height="25" fill="#D9D9D9"/>
</mask>
<g mask="url(#mask0_957_45)">
<path d="M23.3714 40.0671C22.8267 40.0671 22.6684 39.75 22.6684 39.2749C22.6684 39.1166 22.6883 38.938 22.7128 38.7498C22.8321 37.9282 23.1233 37.458 23.8263 37.458C24.3017 37.458 24.5335 37.6707 24.5335 38.0569V38.2451H25.0052C25.0104 38.2451 25.0104 38.0719 25.0104 38.0324C25.0104 37.4681 24.6687 36.9329 23.827 36.9329C22.6833 36.9329 22.213 37.5542 22.0397 38.7723C22.0149 38.9358 22 39.0883 22 39.2512C22 39.9691 22.2825 40.6221 23.2923 40.6221C24.0597 40.6221 24.5154 40.248 24.7826 39.7875L24.332 39.484C24.04 39.9446 23.7229 40.0671 23.3714 40.0671ZM26.4659 37.7995C25.5498 37.7995 25.154 38.2696 25.0204 39.2052C25.0047 39.3135 24.9963 39.4227 24.9952 39.5322C24.9952 40.136 25.2775 40.6165 26.0595 40.6165C26.9757 40.6165 27.3768 40.1263 27.5105 39.2052C27.5253 39.0865 27.5353 38.9776 27.5353 38.8688C27.5355 38.255 27.2435 37.7995 26.4659 37.7995ZM26.8472 39.2055C26.748 39.884 26.5354 40.092 26.134 40.092C25.8125 40.092 25.6541 39.9582 25.6541 39.5572C25.6541 39.4581 25.6642 39.3394 25.6839 39.2055C25.783 38.5323 25.981 38.3244 26.3869 38.3244C26.7137 38.3244 26.8769 38.458 26.8769 38.864C26.8769 38.963 26.8669 39.0769 26.8472 39.2055ZM29.8381 36.9821L29.6848 37.891C29.675 37.97 29.68 37.9438 29.7099 38.018C29.5663 37.9092 29.3087 37.8372 29.1354 37.8372C28.3135 37.8372 27.8532 38.2093 27.7048 39.249C27.6875 39.3587 27.6792 39.4697 27.68 39.5808C27.68 40.3386 28.1255 40.621 28.7244 40.621C28.9773 40.621 29.2246 40.6263 29.4175 40.4631L29.4668 40.7711H29.9422L30.4967 36.9821H29.8381ZM29.3678 39.9481C29.1452 40.0815 28.9275 40.1116 28.7939 40.1116C28.4325 40.1116 28.3335 39.9234 28.3335 39.6215C28.3335 39.5076 28.3483 39.3742 28.3683 39.2302C28.482 38.4431 28.7345 38.3043 29.0614 38.3043C29.274 38.3043 29.4373 38.3391 29.5911 38.4235L29.3678 39.9481ZM31.9425 37.7995C31.0363 37.7995 30.6109 38.23 30.4671 39.2052C30.452 39.3242 30.442 39.4382 30.442 39.547C30.442 40.2155 30.7839 40.6165 31.5361 40.6165C32.1204 40.6165 32.5565 40.3738 32.789 39.9282L32.2889 39.7251C32.1455 39.9428 31.9524 40.0914 31.6107 40.0914C31.2445 40.0914 31.0958 39.9928 31.0958 39.666C31.0958 39.6015 31.1009 39.5079 31.1108 39.5079H32.8978C32.923 39.2553 32.9522 39.0767 32.9522 38.9286C32.9522 38.4338 32.7643 37.7995 31.9425 37.7995V37.7995ZM32.284 39.003H31.1948C31.304 38.7503 31.4868 38.3593 31.8632 38.3593C32.1552 38.3593 32.299 38.53 32.299 38.8221C32.2987 38.8716 32.2942 39.003 32.284 39.003ZM34.8575 37.7399L34.9169 37.2347H33.5205L33.4614 37.7399H33.8277L33.4319 40.2659H33.065L33.006 40.7711H34.4021L34.4618 40.2659H34.0951L34.491 37.7399H34.8575ZM37.6947 38.4977L37.8731 37.9925H37.3929L37.0465 38.064C36.8534 37.9405 36.5909 37.8478 36.3436 37.8478C35.6353 37.8478 35.0316 38.1898 35.0316 38.9673C35.0316 39.1854 35.1107 39.3614 35.2046 39.4804C35.0564 39.5594 34.9275 39.6918 34.9275 39.8703C34.9275 39.9494 34.957 40.0304 35.0167 40.1045C34.7194 40.283 34.5368 40.5789 34.5368 40.9252C34.5368 41.5939 35.2347 41.7365 35.7694 41.7365C36.4426 41.7365 37.2449 41.5827 37.2449 40.7261C37.2449 40.4341 37.0617 40.206 36.532 40.107L35.5765 39.9285C35.4677 39.9085 35.4429 39.8739 35.4429 39.8244C35.4429 39.75 35.4879 39.7107 35.5617 39.7107L35.6262 39.7205C35.755 39.7501 35.9035 39.7652 36.0569 39.7652C36.7453 39.7652 37.359 39.468 37.359 38.6957C37.359 38.5866 37.3394 38.5129 37.2899 38.3939C37.3739 38.4336 37.483 38.498 37.5272 38.498H37.6947V38.4977ZM36.3335 40.5471C36.5214 40.5819 36.5857 40.6511 36.5857 40.7749C36.5857 41.176 36.1549 41.2255 35.8431 41.2255C35.3678 41.2255 35.1897 41.1119 35.1897 40.859C35.1897 40.6361 35.2539 40.5324 35.4027 40.3738L36.3335 40.5471ZM36.1301 39.2502C35.843 39.2502 35.6845 39.1464 35.6845 38.8986C35.6845 38.5323 35.8975 38.3194 36.2688 38.3194C36.5659 38.3194 36.7096 38.4431 36.7096 38.6854C36.7096 39.0519 36.5014 39.2502 36.1301 39.2502ZM39.4535 37.7995C39.1762 37.7995 38.9289 37.9356 38.6218 38.178L38.5773 37.9925H38.0325L37.6513 40.771H38.3098L38.5971 38.664C38.7903 38.5452 39.0277 38.3727 39.2307 38.3727C39.4781 38.3727 39.5675 38.4921 39.5675 38.7197C39.5675 38.7743 39.5623 38.9358 39.5523 38.9951L39.31 40.771H39.9686L40.2109 38.9806C40.221 38.8969 40.2308 38.7589 40.2308 38.6799C40.2311 38.209 40.008 37.7995 39.4535 37.7995ZM41.4817 40.075L41.4867 40.007L41.7737 37.9925H40.6795L40.6105 38.4977H41.0904C41.0507 38.4977 41.026 38.542 41.0212 38.5818L40.8231 39.9235C40.8133 39.988 40.8085 40.1224 40.8085 40.1765C40.8085 40.523 40.9964 40.7711 41.3824 40.7711H41.7191L41.7935 40.2659H41.5807C41.5062 40.2659 41.4817 40.1343 41.4817 40.075ZM41.9073 36.9821H41.2637C41.224 36.9821 41.224 36.8363 41.2192 36.8858L41.1299 37.5977C41.1247 37.6425 41.1247 37.74 41.1644 37.74H41.8083C41.848 37.74 41.848 37.5669 41.8528 37.5219L41.9422 36.9725C41.9472 36.923 41.9472 36.9821 41.9073 36.9821ZM43.2501 40.0918C43.087 40.0918 43.0076 40.0225 43.0076 39.8742L43.0126 39.864L43.2206 38.4977H43.973L44.2007 37.9925H43.2898L43.4431 36.8808L42.7503 37.1024L42.6263 37.9925H42.2254L42.1562 38.4977H42.6215C42.577 38.7503 42.5323 38.5864 42.5275 38.6361L42.3492 39.8342C42.3393 39.8888 42.3393 39.9284 42.3393 39.9777C42.3393 40.4481 42.6858 40.6241 43.1021 40.6241C43.4881 40.6241 43.8 40.5114 44.0429 40.308L43.7357 39.9303C43.5819 40.0241 43.478 40.0918 43.2501 40.0918ZM45.6662 37.7995C44.7602 37.7995 44.3345 38.23 44.1908 39.2052C44.176 39.3242 44.166 39.4382 44.166 39.547C44.166 40.2155 44.5076 40.6165 45.26 40.6165C45.8443 40.6165 46.2804 40.3738 46.5127 39.9282L46.0128 39.7251C45.8695 39.9428 45.6761 40.0914 45.3344 40.0914C44.9683 40.0914 44.8195 39.9928 44.8195 39.666C44.8195 39.6015 44.8248 39.5079 44.8348 39.5079H46.6219C46.6466 39.2553 46.6763 39.0767 46.6763 38.9286C46.6763 38.4338 46.4883 37.7995 45.6662 37.7995V37.7995ZM46.008 39.003H44.9188C45.0276 38.7503 45.2105 38.3593 45.5872 38.3593C45.8792 38.3593 46.023 38.53 46.023 38.8221C46.0226 38.8716 46.0179 39.003 46.008 39.003ZM48.4984 37.7995C48.2607 37.7995 48.038 37.9357 47.815 38.1481L47.7755 37.9925H47.2311L46.8497 40.771H47.5132L47.8052 38.6194C47.9786 38.5157 48.1766 38.427 48.3648 38.427C48.4838 38.427 48.5974 38.4081 48.7062 38.4229L48.7909 37.8488C48.6914 37.829 48.5924 37.7995 48.4984 37.7995V37.7995ZM31.6845 34.992C30.1859 34.3441 28.7835 32.6978 28.7802 31.0132C28.7761 29.1765 29.94 27.6172 31.3877 26.5925C31.2137 27.25 31.1187 27.8515 31.5499 28.4396C31.9507 28.9864 32.6527 29.2521 33.3156 29.1079C34.8645 28.7688 34.9355 27.0661 34.0173 26.0741C33.1095 25.0918 32.2312 23.9821 32.5768 22.5575C32.7497 21.8434 33.1882 21.1744 33.7437 20.6963C33.3168 21.8184 34.5301 22.925 35.3295 23.4761C36.7163 24.4325 38.2378 25.1552 39.5129 26.2762C40.8541 27.4544 41.8445 29.0474 41.6445 30.895C41.4278 32.8976 39.8365 34.2905 38.0515 34.9936C41.8234 34.1611 45.7207 31.2337 45.8006 27.0505C45.8667 23.609 43.5059 20.9605 40.5814 19.4442L40.4286 19.3608C40.5089 19.5555 40.5351 19.7212 40.5321 19.8695C40.5592 19.7588 40.5756 19.6457 40.581 19.5318C40.5804 19.6695 40.5624 19.8067 40.5275 19.94L40.5321 19.8695C40.4887 20.0522 40.4155 20.2265 40.3155 20.3855L40.3585 20.3394C39.775 21.3071 38.1955 21.5173 37.4152 20.5152C36.1609 18.9034 37.4415 17.1655 37.6207 15.4586C37.845 13.3195 36.5034 11.2427 34.84 10C35.7562 11.482 34.5492 13.4426 33.5836 14.5388C32.6473 15.6013 31.5086 16.4884 30.4749 17.4538C29.3646 18.4907 28.2971 19.583 27.3845 20.8C25.5591 23.2359 24.4416 26.2995 25.2628 29.3383C26.0835 32.3751 28.714 34.3082 31.6846 34.9918L31.6845 34.992Z" fill="#EE4323"/>
</g>
<mask id="mask1_957_45" style="mask-type:alpha" maskUnits="userSpaceOnUse" x="50" y="16" width="84" height="18">
<rect x="50" y="16" width="83.1818" height="17.7273" fill="#D9D9D9"/>
</mask>
<g mask="url(#mask1_957_45)">
<path d="M55.4777 27.1111C53.8439 27.1111 53.3689 26.1598 53.3689 24.7344C53.3689 24.2594 53.4285 23.7235 53.502 23.159C53.8599 20.6942 54.7337 19.2838 56.8425 19.2838C58.2688 19.2838 58.9641 19.9219 58.9641 21.0803V21.6451H60.3792C60.3949 21.6451 60.3949 21.1253 60.3949 21.0069C60.3949 19.3139 59.3698 17.7084 56.8447 17.7084C53.4135 17.7084 52.0026 19.5724 51.4826 23.2265C51.4082 23.717 51.3636 24.1746 51.3636 24.6632C51.3636 26.8169 52.211 28.7761 55.2407 28.7761C57.5426 28.7761 58.9099 27.6537 59.7114 26.2722L58.3595 25.3618C57.4836 26.7434 56.5323 27.1111 55.4777 27.1111ZM64.7614 20.3083C62.0131 20.3083 60.8256 21.7186 60.4247 24.5254C60.3777 24.8502 60.3525 25.1779 60.3493 25.5062C60.3493 27.3177 61.1961 28.7593 63.5423 28.7593C66.2907 28.7593 67.4941 27.2885 67.895 24.5254C67.9396 24.1693 67.9695 23.8424 67.9695 23.516C67.97 21.6747 67.0941 20.3083 64.7614 20.3083ZM65.9052 24.5263C65.6078 26.5617 64.9699 27.1855 63.7658 27.1855C62.801 27.1855 62.3261 26.7842 62.3261 25.5812C62.3261 25.2839 62.3562 24.9279 62.4152 24.5263C62.7125 22.5066 63.3065 21.8828 64.5244 21.8828C65.5048 21.8828 65.9944 22.2837 65.9944 23.5015C65.9944 23.7985 65.9642 24.1404 65.9052 24.5263ZM74.8781 17.8559L74.4181 20.5827C74.3885 20.8197 74.4036 20.741 74.4934 20.9638C74.0626 20.6374 73.2897 20.4214 72.7697 20.4214C70.304 20.4214 68.9232 21.5375 68.478 24.6565C68.426 24.9859 68.4012 25.3188 68.4036 25.6521C68.4036 27.9254 69.7401 28.7728 71.5369 28.7728C72.2955 28.7728 73.0376 28.7886 73.6163 28.2991L73.7641 29.2231H75.1903L76.8537 17.8559H74.8781ZM73.4671 26.7541C72.7993 27.1542 72.1463 27.2446 71.7454 27.2446C70.661 27.2446 70.364 26.6798 70.364 25.7743C70.364 25.4324 70.4085 25.0324 70.4685 24.6004C70.8095 22.2391 71.5673 21.8225 72.5479 21.8225C73.1858 21.8225 73.6756 21.9271 74.1371 22.1802L73.4671 26.7541ZM81.1913 20.3083C78.4725 20.3083 77.1962 21.5997 76.7649 24.5254C76.7196 24.8824 76.6898 25.2242 76.6898 25.5507C76.6898 27.556 77.7152 28.7593 79.9719 28.7593C81.7247 28.7593 83.033 28.031 83.7306 26.6942L82.2302 26.0851C81.8001 26.7381 81.2209 27.1839 80.1958 27.1839C79.097 27.1839 78.6511 26.8881 78.6511 25.9077C78.6511 25.7143 78.6662 25.4333 78.696 25.4333H84.0571C84.1325 24.6755 84.2203 24.1399 84.2203 23.6956C84.2203 22.2111 83.6565 20.308 81.1913 20.308V20.3083ZM82.2158 23.9185H78.9481C79.2756 23.1606 79.8241 21.9876 80.9533 21.9876C81.8293 21.9876 82.2606 22.4997 82.2606 23.3759C82.2597 23.5244 82.2462 23.9185 82.2158 23.9185ZM89.9363 20.1294L90.1142 18.6139H85.9251L85.7477 20.1294H86.8467L85.6592 27.7073H84.5588L84.3818 29.2231H88.5699L88.749 27.7073H87.6491L88.8368 20.1294H89.9363ZM98.4477 22.4027L98.9829 20.8872H97.5422L96.5033 21.1017C95.9237 20.7312 95.1364 20.453 94.3944 20.453C92.2696 20.453 90.4584 21.479 90.4584 23.8115C90.4584 24.4658 90.6957 24.9938 90.9774 25.3508C90.5327 25.5878 90.1463 25.985 90.1463 26.5205C90.1463 26.7579 90.2348 27.0009 90.4138 27.2232C89.5219 27.7588 88.974 28.6464 88.974 29.6852C88.974 31.6914 91.0678 32.1193 92.6717 32.1193C94.6914 32.1193 97.0982 31.6579 97.0982 29.0881C97.0982 28.2121 96.5488 27.5277 94.9595 27.2307L92.0931 26.6952C91.7667 26.6352 91.6922 26.5313 91.6922 26.3828C91.6922 26.1598 91.8272 26.0417 92.0488 26.0417L92.2423 26.0713C92.6285 26.1601 93.0743 26.2053 93.5342 26.2053C95.5995 26.2053 97.4408 25.3137 97.4408 22.9967C97.4408 22.6696 97.3817 22.4483 97.2332 22.0913C97.4854 22.2106 97.8128 22.4037 97.9453 22.4037H98.4477V22.4027ZM94.364 28.5509C94.9279 28.6554 95.1207 28.8629 95.1207 29.2344C95.1207 30.4378 93.8284 30.5863 92.8931 30.5863C91.4671 30.5863 90.9328 30.2453 90.9328 29.4868C90.9328 28.8181 91.1252 28.5069 91.5717 28.031L94.364 28.5509ZM93.7539 24.6604C92.8925 24.6604 92.4171 24.3489 92.4171 23.6054C92.4171 22.5066 93.056 21.8678 94.17 21.8678C95.0612 21.8678 95.4924 22.2391 95.4924 22.9659C95.4924 24.0654 94.8679 24.6604 93.7539 24.6604ZM103.724 20.3083C102.892 20.3083 102.15 20.7164 101.229 21.4435L101.096 20.8872H99.461L98.3176 29.2228H100.293L101.155 22.9015C101.734 22.5452 102.447 22.0278 103.056 22.0278C103.798 22.0278 104.066 22.3861 104.066 23.0688C104.066 23.2325 104.05 23.717 104.021 23.8949L103.294 29.2228H105.27L105.996 23.8516C106.027 23.6004 106.056 23.1864 106.056 22.9493C106.057 21.5365 105.388 20.3083 103.724 20.3083ZM109.809 27.1347L109.824 26.9305L110.685 20.8872H107.402L107.195 22.4027H108.635C108.516 22.4027 108.442 22.5355 108.427 22.6551L107.833 26.68C107.803 26.8738 107.789 27.2769 107.789 27.4392C107.789 28.4787 108.353 29.2231 109.511 29.2231H110.521L110.744 27.7073H110.106C109.882 27.7073 109.809 27.3126 109.809 27.1347ZM111.086 17.8559H109.155C109.036 17.8559 109.036 17.4186 109.021 17.5671L108.753 19.7027C108.738 19.837 108.738 20.1297 108.857 20.1297H110.789C110.908 20.1297 110.908 19.6104 110.922 19.4754L111.19 17.8272C111.205 17.6787 111.205 17.8559 111.086 17.8559ZM115.114 27.1851C114.625 27.1851 114.387 26.977 114.387 26.5322L114.402 26.5017L115.025 22.4027H117.283L117.966 20.8872H115.233L115.693 17.5521L113.614 18.2168L113.242 20.8872H112.04L111.832 22.4027H113.228C113.095 23.1606 112.961 22.6689 112.946 22.8181L112.411 26.4122C112.382 26.5761 112.382 26.6948 112.382 26.8427C112.382 28.2539 113.421 28.7819 114.67 28.7819C115.828 28.7819 116.764 28.4439 117.492 27.8338L116.571 26.7005C116.109 26.9821 115.798 27.1851 115.114 27.1851ZM122.362 20.3083C119.644 20.3083 118.367 21.5997 117.936 24.5254C117.892 24.8824 117.862 25.2242 117.862 25.5507C117.862 27.556 118.886 28.7593 121.144 28.7593C122.897 28.7593 124.205 28.031 124.902 26.6942L123.402 26.0851C122.972 26.7381 122.392 27.1839 121.367 27.1839C120.268 27.1839 119.822 26.8881 119.822 25.9077C119.822 25.7143 119.838 25.4333 119.868 25.4333H125.229C125.303 24.6755 125.393 24.1399 125.393 23.6956C125.393 22.2111 124.828 20.308 122.362 20.308V20.3083ZM123.388 23.9185H120.12C120.447 23.1606 120.995 21.9876 122.125 21.9876C123.001 21.9876 123.433 22.4997 123.433 23.3759C123.432 23.5244 123.417 23.9185 123.388 23.9185ZM130.859 20.308C130.146 20.308 129.478 20.7167 128.809 21.3541L128.69 20.8872H127.057L125.913 29.2228H127.903L128.779 22.7679C129.299 22.4567 129.893 22.1908 130.458 22.1908C130.815 22.1908 131.156 22.1339 131.482 22.1783L131.736 20.4561C131.438 20.3968 131.141 20.3083 130.859 20.3083V20.308ZM80.4171 11.8855C75.9212 9.94208 71.7143 5.00299 71.7042 -0.050786C71.6919 -5.56069 75.1838 -10.2387 79.5267 -13.313C79.0047 -11.3403 78.7198 -9.53597 80.0134 -7.77156C81.2158 -6.13124 83.3218 -5.33406 85.3104 -5.76674C89.957 -6.78388 90.1701 -11.8919 87.4155 -14.8679C84.692 -17.815 82.0572 -21.1439 83.094 -25.4178C83.6128 -27.5602 84.9283 -29.5671 86.5948 -31.0015C85.314 -27.6352 88.9539 -24.3155 91.3523 -22.6619C95.5125 -19.793 100.077 -17.6248 103.902 -14.2616C107.926 -10.7272 110.897 -5.9481 110.297 -0.405194C109.647 5.60258 104.873 9.78103 99.5183 11.8906C110.834 9.39294 122.526 0.610714 122.765 -11.9387C122.964 -22.2632 115.881 -30.2088 107.108 -34.7577L106.649 -35.0079C106.89 -34.4237 106.969 -33.9266 106.96 -33.4818C107.041 -33.814 107.09 -34.1533 107.107 -34.4949C107.105 -34.0817 107.051 -33.6703 106.946 -33.2705L106.96 -33.4818C106.83 -32.9336 106.61 -32.4107 106.31 -31.9337L106.439 -32.0721C104.689 -29.1689 99.9503 -28.5385 97.6093 -31.5447C93.8462 -36.3802 97.6881 -41.5938 98.2257 -46.7144C98.8985 -53.132 94.8739 -59.3621 89.8838 -63.0903C92.6322 -58.6444 89.0113 -52.7624 86.1146 -49.4741C83.3055 -46.2865 79.8894 -43.6251 76.7884 -40.7289C73.4574 -37.6182 70.2551 -34.3413 67.517 -30.6903C62.0409 -23.3827 58.6886 -14.192 61.1521 -5.07538C63.6141 4.03508 71.5058 9.83435 80.4174 11.8851L80.4171 11.8855Z" fill="#EE4323"/>
</g>
</svg>
