<svg width="155" height="45" viewBox="0 0 155 45" fill="none" xmlns="http://www.w3.org/2000/svg">
<path d="M42.6425 14.7387H45.197V23.7495C45.197 25.6317 46.4253 26.7011 48.306 26.7011C50.1868 26.7011 51.4349 25.6317 51.4349 23.7296V14.7387H53.9894V23.7495C53.9894 26.8983 51.7115 29.0371 48.3245 29.0371C44.9176 29.0371 42.6411 26.8983 42.6411 23.7495V14.7387H42.6425ZM55.7141 18.7001H58.0119V19.4334C58.0119 19.8093 57.9721 20.127 57.9721 20.127H58.0119C58.0119 20.127 58.8827 18.4633 61.2599 18.4633C63.9931 18.4633 65.7362 20.622 65.7362 23.7509C65.7362 26.9592 63.7761 29.0386 61.1223 29.0386C59.1224 29.0386 58.2303 27.6528 58.2303 27.6528H58.1906C58.1906 27.6528 58.2303 28.0088 58.2303 28.5237V32.7617H55.7155V18.7001H55.7141ZM60.6656 26.9195C62.0513 26.9195 63.2002 25.7905 63.2002 23.7906C63.2002 21.8702 62.1705 20.622 60.6855 20.622C59.3777 20.622 58.1509 21.5723 58.1509 23.8105C58.1494 25.3749 59.0019 26.9195 60.6656 26.9195ZM71.3005 18.4633C73.5188 18.4633 74.2124 19.7511 74.2124 19.7511H74.2521C74.2521 19.7511 74.2322 19.4944 74.2322 19.1767V14.7387H76.747V28.8003H74.3698V27.9691C74.3698 27.5932 74.4095 27.3152 74.4095 27.3152H74.3698C74.3698 27.3152 73.5188 29.0386 71.2012 29.0386C68.468 29.0386 66.7248 26.8798 66.7248 23.7509C66.7263 20.5426 68.6269 18.4633 71.3005 18.4633ZM71.7756 26.9195C73.0833 26.9195 74.3102 25.9692 74.3102 23.7311C74.3102 22.1666 73.4791 20.622 71.7955 20.622C70.4097 20.622 69.2609 21.751 69.2609 23.7509C69.2609 25.6714 70.2906 26.9195 71.7756 26.9195ZM78.727 18.7001H81.1439V20.4433C81.1439 20.8192 81.1042 21.1567 81.1042 21.1567H81.1439C81.5992 19.7114 82.8076 18.5626 84.3522 18.5626C84.5905 18.5626 84.8075 18.6023 84.8075 18.6023V21.0773C84.8075 21.0773 84.5494 21.0376 84.2132 21.0376C83.1438 21.0376 81.9353 21.6517 81.4602 23.1566C81.3013 23.6516 81.2417 24.2062 81.2417 24.8005V28.8017H78.727V18.7001ZM91.244 22.463H91.5802V22.324C91.5802 20.9965 90.7476 20.5412 89.6399 20.5412C88.1945 20.5412 86.867 21.5113 86.867 21.5113L85.9167 19.7086C85.9167 19.7086 87.4811 18.4604 89.8781 18.4604C92.5319 18.4604 94.0765 19.9256 94.0765 22.4815V28.7989H91.7589V27.9677C91.7589 27.572 91.7986 27.2543 91.7986 27.2543H91.7589C91.7787 27.2543 90.9859 29.0371 88.6896 29.0371C86.8868 29.0371 85.2628 27.9081 85.2628 25.8884C85.2642 22.6815 89.6001 22.463 91.244 22.463ZM89.3236 27.0784C90.6511 27.0784 91.6014 25.6529 91.6014 24.4246V24.1878H91.166C89.8781 24.1878 87.7988 24.3665 87.7988 25.7721C87.7988 26.4444 88.2938 27.0784 89.3236 27.0784ZM96.3544 20.8589H95.1062V18.859H96.3544V18.4037C96.3544 15.0961 99.0677 14.6606 100.473 14.6606C100.988 14.6606 101.324 14.7202 101.324 14.7202V16.8591C101.324 16.8591 101.106 16.8194 100.809 16.8194C100.096 16.8194 98.8691 16.9981 98.8691 18.4633V18.859H101.028V20.8589H98.8705V28.8003H96.3558V20.8589H96.3544ZM102.355 20.8589H101.048V18.859H102.413V15.9471H104.869V18.859H107.166V20.8589H104.869V24.7806C104.869 26.4444 106.176 26.6827 106.868 26.6827C107.146 26.6827 107.324 26.6429 107.324 26.6429V28.8414C107.324 28.8414 107.027 28.901 106.551 28.901C105.145 28.901 102.352 28.4854 102.352 25.0984V20.8589H102.355ZM109.346 14.9372H113.902C116.319 14.9372 118.12 16.462 118.12 18.9781C118.12 21.4929 116.318 23.0573 113.902 23.0573H110.199V28.8003H109.348V14.9372H109.346ZM113.862 22.2645C115.882 22.2645 117.23 21.056 117.23 18.9767C117.23 16.8974 115.882 15.7287 113.862 15.7287H110.199V22.2645H113.862ZM120.18 14.9372H121.011V26.5437C121.011 27.9294 121.724 28.0883 122.18 28.0883C122.339 28.0883 122.476 28.0684 122.476 28.0684V28.8414C122.476 28.8414 122.297 28.8811 122.12 28.8811C121.546 28.8811 120.18 28.6627 120.18 26.8018V14.9372ZM124.3 18.8987H125.131V24.8799C125.131 26.6032 125.35 28.2273 127.567 28.2273C130.042 28.2273 131.626 26.0487 131.626 23.7311V18.8987H132.457V28.8017H131.626V27.0585C131.626 26.6032 131.705 26.2472 131.705 26.2472H131.666C131.329 27.1777 129.962 29.04 127.567 29.04C125.131 29.04 124.299 27.6925 124.299 25.1778V18.8987H124.3ZM135.231 26.9791C135.231 26.9791 136.341 28.2273 138.301 28.2273C139.509 28.2273 140.579 27.5932 140.579 26.3664C140.579 23.8516 135.132 24.5636 135.132 21.3354C135.132 19.5724 136.617 18.6618 138.301 18.6618C140.32 18.6618 141.232 19.7313 141.232 19.7313L140.737 20.405C140.737 20.405 139.925 19.4746 138.243 19.4746C137.114 19.4746 136.004 19.9894 136.004 21.2773C136.004 23.8516 141.451 23.08 141.451 26.3678C141.451 27.9521 140.103 29.0414 138.282 29.0414C135.885 29.0414 134.698 27.6159 134.698 27.6159L135.231 26.9791Z" fill="#DB6939"/>
<path d="M20.0081 11.2737C19.9982 11.2794 19.9883 11.2836 19.9769 11.2879C19.9769 11.2879 20.0039 11.2751 20.0081 11.2737ZM25.5 10C23.9795 10 22.5229 10.2737 21.1754 10.7716L21.174 10.7688C20.7669 10.9191 20.3911 11.0808 20.0067 11.2723C20.4067 11.085 20.7159 11.4964 20.7372 12.207V22.4986C20.7372 25.1282 22.8689 27.26 25.4986 27.26C28.1282 27.26 30.26 25.1282 30.26 22.4986V17.4875H28.792L32.0911 13.5175L32.1535 13.4438L32.189 13.3998L35.586 17.4875H34.1165V22.0419C34.1236 22.1936 34.1293 22.3468 34.1293 22.5014C34.1293 27.2685 30.2643 31.1321 25.4986 31.1321C20.7315 31.1321 16.8679 27.2685 16.8679 22.5014C16.8679 22.3624 16.8721 22.2248 16.8792 22.0873V15.0962C16.8792 14.082 16.3814 13.9955 16.2168 14.1388L16.2112 14.143C14.217 16.3571 13 19.2846 13 22.5C13 29.4032 18.5968 35 25.5 35C32.4032 35 38 29.4032 38 22.5C38 15.5968 32.4032 10 25.5 10Z" fill="#DB6939"/>
</svg>
