<svg width="155" height="45" viewBox="0 0 155 45" fill="none" xmlns="http://www.w3.org/2000/svg">
<path d="M100.859 16.2524C100.171 16.6133 99.9147 17.2224 99.9147 18.905C99.9147 18.905 100.263 18.5678 100.78 18.3806C101.156 18.2436 101.478 18.0361 101.664 17.8998C102.245 17.4737 102.335 16.9246 102.335 16.0011C102.335 16.0011 101.387 15.9754 100.859 16.2524Z" fill="#F9C638"/>
<path d="M96.7799 16.6464C96.2189 17.1412 96.0548 17.9299 96.0548 17.9299L94.1979 25.1309L92.6531 19.2376C92.5027 18.6111 92.2315 17.8364 91.8027 17.3127C91.2559 16.645 90.1448 16.6036 90.0269 16.6036C89.9083 16.6036 88.7972 16.645 88.2507 17.3127C87.8216 17.8364 87.5504 18.6111 87.4 19.2376L85.8557 25.1309L83.9983 17.9299C83.9983 17.9299 83.8345 17.1412 83.2737 16.6464C82.3642 15.8436 81 16.0156 81 16.0156L84.5562 29.4733C84.5562 29.4733 85.7295 29.5576 86.3164 29.2581C87.0878 28.8649 87.4546 28.5614 87.9216 26.7305C88.3376 25.0978 89.5007 20.3029 89.609 19.9615C89.6628 19.7929 89.7309 19.3896 90.0267 19.3896C90.3293 19.3896 90.3917 19.7926 90.4446 19.9615C90.5512 20.3035 91.716 25.0978 92.132 26.7305C92.5983 28.5612 92.9658 28.8649 93.7367 29.2581C94.3236 29.5576 95.4969 29.4733 95.4969 29.4733L99.0531 16.0156C99.0531 16.0156 97.6894 15.8436 96.7799 16.6464M102.334 18.2128C102.334 18.2128 102.112 18.5569 101.604 18.841C101.278 19.0233 100.965 19.1469 100.63 19.3078C100.067 19.5783 99.915 19.879 99.915 20.3381V29.4732C99.915 29.4732 100.812 29.5868 101.399 29.2872C102.155 28.9018 102.329 28.5302 102.335 26.8566V18.7H102.334V18.213M111.199 22.7768L115.711 16.0601C115.711 16.0601 113.806 15.7356 112.864 16.5946C112.26 17.1446 111.585 18.1328 111.585 18.1328L109.925 20.5284C109.845 20.6528 109.739 20.7884 109.571 20.7884C109.403 20.7884 109.297 20.6528 109.217 20.5284L107.556 18.1328C107.556 18.1328 106.882 17.1446 106.278 16.5946C105.335 15.7356 103.431 16.0601 103.431 16.0601L107.943 22.777L103.443 29.4733C103.443 29.4733 105.426 29.7236 106.369 28.8646C106.972 28.315 107.556 27.4213 107.556 27.4213L109.217 25.0259C109.297 24.9012 109.403 24.7656 109.571 24.7656C109.739 24.7656 109.845 24.9012 109.925 25.0259L111.585 27.4213C111.585 27.4213 112.204 28.3151 112.807 28.8646C113.75 29.7236 115.699 29.4733 115.699 29.4733L111.199 22.7768" fill="#2A2D2C"/>
<path d="M70.5313 9.20628C70.0174 9.20628 69.5048 9.20493 68.9914 9.20493C67.7738 9.20223 66.6503 10.1343 65.791 10.8734C64.9543 11.5931 64.2375 12.4654 63.5531 13.3315C63.3076 12.6575 62.985 11.9954 62.6502 11.3908C62.2113 10.5287 61.3505 9.69736 60.3869 9.49647C59.8989 9.39365 59.352 9.44384 58.8567 9.44384C58.4269 9.44249 57.207 9.44384 57.207 9.44384C57.207 9.44384 55.9853 9.44249 55.5563 9.44384C55.0602 9.44384 54.5148 9.39379 54.0261 9.49647C53.0623 9.69736 52.2017 10.5287 51.7634 11.3908C51.4281 11.9954 51.1051 12.6575 50.8601 13.3316C50.1759 12.4654 49.4587 11.5932 48.622 10.8734C47.7623 10.1342 46.6398 9.20223 45.4211 9.20493C44.9079 9.20493 44.3945 9.20628 43.8813 9.20628C43.1478 9.20737 42.4153 9.20831 41.6814 9.20967C41.1474 9.2121 39.9647 9.07141 40.2445 9.94142C40.3123 10.1522 40.5513 10.3413 40.6868 10.5164C40.8413 10.7171 40.9956 10.9195 41.1293 11.1349C41.3431 11.4783 41.55 11.8259 41.7498 12.1777C42.2306 13.027 42.6358 13.923 43.1132 14.7766C44.1639 16.6598 45.2877 18.4996 46.6456 20.1798C47.6486 21.419 48.8597 22.6704 50.3584 23.2854C49.227 25.3899 48.1002 27.4975 46.9726 29.6036C45.9957 31.4252 45.0195 33.2372 43.9899 35.0296C43.9405 35.117 43.889 35.2027 43.8426 35.2905C43.7074 35.5457 43.5141 35.9021 43.5155 36.1956C43.5166 36.7776 44.3792 36.7949 44.7925 36.7976C45.2377 36.8003 45.6843 36.7881 46.1298 36.7837C46.9044 36.7749 47.6789 36.7647 48.453 36.7569C48.9115 36.7517 49.3775 36.7697 49.8339 36.726C50.9953 36.6141 52.0575 36.033 52.7428 35.081C52.9649 34.7713 55.0475 31.353 55.8901 29.972C56.2085 29.4491 57.207 27.8864 57.207 27.8864C57.207 27.8864 58.2041 29.4491 58.5231 29.972C59.3652 31.353 61.4482 34.7713 61.6702 35.0811C62.3562 36.033 63.4174 36.6141 64.5791 36.726C65.0359 36.7697 65.5011 36.7517 65.9596 36.7569C66.7333 36.7647 67.5081 36.7749 68.2831 36.7837C68.7287 36.788 69.175 36.8003 69.6209 36.7976C70.0329 36.7949 70.8971 36.7776 70.8978 36.1956C70.8995 35.9021 70.7068 35.5457 70.5697 35.2905C70.5229 35.2027 70.4721 35.117 70.4228 35.0296C69.3941 33.2372 68.4175 31.4252 67.4413 29.6036C66.3123 27.4975 65.1856 25.3899 64.0532 23.2854C65.5526 22.6703 66.7638 21.4192 67.7667 20.1798C69.1258 18.4996 70.2484 16.6598 71.2998 14.7766C71.7765 13.923 72.1817 13.027 72.6636 12.1778C72.8631 11.8259 73.0699 11.4781 73.2839 11.1349C73.4169 10.9194 73.5718 10.7171 73.7258 10.5165C73.8626 10.3413 74.1 10.1522 74.1688 9.94142C74.4477 9.07154 73.2666 9.2121 72.7327 9.20967C71.9982 9.20831 71.2647 9.20737 70.5314 9.20628H70.5313Z" fill="#F9C638"/>
<path d="M59.7513 14.0514C59.8297 14.0402 59.9079 14.0269 59.9856 14.0114C60.0937 13.9887 60.2 13.9579 60.3036 13.9194C60.5853 13.821 60.759 13.6894 60.8839 13.5896C60.9793 13.5166 61.0512 13.434 61.0758 13.3831C60.3959 13.3957 59.8897 13.3919 59.5552 13.3658C59.4642 13.352 59.3978 13.5878 59.354 14.0639C59.3493 14.1005 59.5684 14.0765 59.7513 14.0514ZM57.8828 17.3787H57.8819H57.8832H57.8828ZM56.4292 17.3787H56.4272H56.4292ZM56.3189 17.2237C56.3104 17.2334 56.3057 17.2459 56.3057 17.2589C56.306 17.2663 56.3079 17.2736 56.3112 17.2803C56.3145 17.287 56.3192 17.2928 56.325 17.2976C56.3572 17.3257 56.3903 17.3549 56.4289 17.3787C56.627 17.5162 56.8704 17.5887 57.1548 17.5928C57.4443 17.5887 57.6739 17.5206 57.8828 17.3786C57.9188 17.3556 57.956 17.3299 57.9915 17.2976C58.0172 17.2759 58.0291 17.2428 58.0104 17.2207C57.9915 17.2 57.9584 17.1939 57.9235 17.219C57.8924 17.2451 57.8599 17.2695 57.8262 17.2922H57.8253C57.6333 17.422 57.4214 17.484 57.1548 17.4883C56.8935 17.484 56.6677 17.418 56.4868 17.2926C56.4868 17.2922 56.4861 17.2922 56.4852 17.2922C56.4527 17.2702 56.4229 17.2441 56.3937 17.2191C56.3885 17.2144 56.3824 17.2108 56.3758 17.2085C56.3693 17.2062 56.3623 17.2053 56.3553 17.2057C56.3484 17.2061 56.3416 17.2079 56.3353 17.211C56.3291 17.2141 56.3235 17.2184 56.3189 17.2237V17.2237ZM59.2979 16.7697C59.2952 16.7659 59.2928 16.7551 59.2915 16.7526C59.2915 16.7526 59.2955 16.7639 59.2993 16.77L59.2979 16.7697ZM60.8992 14.8676C60.82 14.7103 60.7329 14.5961 60.6394 14.5272C60.3381 14.3043 59.88 14.3026 59.6074 14.5705C59.4803 14.6956 59.3876 14.8478 59.3167 15.0111C59.1587 15.3805 59.0406 15.7994 59.0667 16.2064C59.0798 16.3904 59.1434 16.5811 59.2728 16.7157C59.4276 16.8805 59.6507 16.9452 59.8661 16.989C60.0796 17.0329 60.3289 17.0665 60.5287 16.9604C60.759 16.836 60.8558 16.552 60.9195 16.3192C61.0004 16.0194 61.0758 15.6988 61.0452 15.3853C61.0281 15.2124 60.977 15.0237 60.8992 14.8675V14.8676Z" fill="#2A2D2C"/>
<path d="M60.1453 15.6267C60.3159 15.5694 60.4273 15.5374 60.4765 15.5336C60.2343 15.5516 60.1094 15.4532 60.0871 15.2422L60.042 14.8022C60.0285 15.085 59.9973 15.2655 59.9347 15.3587C59.8936 15.4167 59.8594 15.457 59.8185 15.475L59.6749 15.5203C59.6173 15.5372 59.5581 15.5566 59.51 15.5566C59.7739 15.5336 59.9163 15.601 59.9385 15.7471C59.9757 15.9595 59.9973 16.0979 60.0149 16.1652C60.0196 15.8372 60.0643 15.6599 60.1453 15.6268M60.4677 16.2805L60.4409 16.0083C60.4317 16.1828 60.4142 16.2944 60.3779 16.353C60.3559 16.3852 60.3287 16.4116 60.3013 16.4262L60.2167 16.4519C60.1805 16.4608 60.1453 16.4744 60.1138 16.4744C60.274 16.4608 60.3643 16.5007 60.382 16.5906C60.3998 16.721 60.4182 16.8101 60.4273 16.8461C60.4273 16.6441 60.4543 16.5377 60.5076 16.519C60.6112 16.4834 60.6779 16.4608 60.709 16.4608C60.5611 16.4706 60.4812 16.4073 60.4676 16.2805" fill="white"/>
<path d="M54.9491 14.0639C54.9027 13.5877 54.8369 13.3519 54.7468 13.3658C54.4113 13.3918 53.9061 13.3956 53.2252 13.383C53.2496 13.4339 53.3231 13.5165 53.4169 13.5894C53.5429 13.6894 53.7148 13.8208 53.9976 13.9191C54.1012 13.9573 54.2073 13.9881 54.3152 14.0113C54.3375 14.0167 54.437 14.0343 54.5502 14.0513C54.7324 14.0763 54.9514 14.1004 54.9489 14.0639M55.0029 16.7698C55.0056 16.7637 55.01 16.7525 55.01 16.7525C55.0084 16.7583 55.0063 16.764 55.0039 16.7696C55.0039 16.7696 55.0029 16.7696 55.0029 16.7698ZM53.2564 15.3852C53.2252 15.6987 53.3004 16.0193 53.3823 16.3192C53.445 16.5519 53.5418 16.836 53.7724 16.9603C53.9728 17.0664 54.2228 17.0328 54.4347 16.9887C54.6497 16.945 54.8735 16.8804 55.0287 16.7156C55.1579 16.5811 55.2216 16.3904 55.2348 16.2062C55.2609 15.7993 55.143 15.3805 54.9839 15.011C54.9142 14.8477 54.8213 14.6955 54.6933 14.5705C54.4222 14.3024 53.9647 14.304 53.662 14.5271C53.5681 14.596 53.4819 14.7101 53.4039 14.8673C53.3238 15.0296 53.2738 15.2051 53.2563 15.3852H53.2564Z" fill="#2A2D2C"/>
<path d="M54.1559 15.6267C53.9856 15.5695 53.8741 15.5374 53.825 15.5336C54.0668 15.5516 54.1927 15.4533 54.2144 15.2422L54.259 14.8023C54.2723 15.085 54.3035 15.2655 54.3675 15.3587C54.4075 15.4168 54.443 15.4571 54.4823 15.4751L54.6262 15.5204C54.6847 15.5373 54.7424 15.5566 54.7918 15.5566C54.528 15.5336 54.385 15.601 54.3631 15.7471C54.3262 15.9595 54.3035 16.0979 54.2862 16.1653C54.2818 15.8372 54.2367 15.66 54.1559 15.6269M53.8335 16.2805L53.861 16.0084C53.8698 16.1829 53.8884 16.2945 53.924 16.3531C53.9459 16.3853 53.973 16.4116 53.9994 16.4262L54.0844 16.452C54.1206 16.4609 54.1559 16.4744 54.1877 16.4744C54.0261 16.4609 53.9364 16.5008 53.9192 16.5906C53.9012 16.721 53.8827 16.8102 53.8741 16.8462C53.8741 16.6442 53.8468 16.5377 53.7935 16.5191C53.6907 16.4835 53.6232 16.4609 53.5917 16.4609C53.7397 16.4706 53.8207 16.4073 53.8335 16.2805ZM43.9436 35.3426C43.8759 35.4711 43.7959 35.6209 43.7342 35.7713C43.6714 35.9204 43.6287 36.0719 43.6287 36.1933V36.1953C43.6307 36.3115 43.6692 36.3858 43.7367 36.4521C43.8044 36.5169 43.9087 36.568 44.0309 36.604C44.2778 36.6743 44.5882 36.6819 44.7925 36.6829C44.8382 36.6839 44.8841 36.6839 44.9293 36.6839C45.3271 36.6839 45.7273 36.6727 46.1285 36.6691L48.4517 36.6423C48.5327 36.6423 48.6132 36.6416 48.6935 36.6416C48.7896 36.6416 48.8848 36.6423 48.9793 36.6423C49.2641 36.6423 49.547 36.6382 49.8231 36.6114C50.954 36.5029 51.9837 35.938 52.6504 35.0125C52.7009 34.9445 52.8742 34.6686 53.1129 34.2847C53.3523 33.9003 53.6608 33.4011 53.9872 32.8677C54.6408 31.8026 55.3722 30.6013 55.7934 29.9119C56.1137 29.3863 57.1095 27.8258 57.1102 27.8247C57.1207 27.8086 57.135 27.7953 57.1519 27.786C57.1688 27.7767 57.1877 27.7718 57.207 27.7716C57.2457 27.7716 57.2819 27.7929 57.3022 27.8247C57.3026 27.8251 58.3007 29.3863 58.6207 29.9119C59.2519 30.9468 60.5815 33.1294 61.3001 34.2845C61.5388 34.6686 61.7124 34.9445 61.7629 35.0125C62.428 35.938 63.4584 36.5029 64.5899 36.6114C64.8656 36.6382 65.1494 36.6423 65.4331 36.6423C65.5283 36.6423 65.6234 36.6416 65.7192 36.6416C65.7994 36.6416 65.8801 36.6423 65.9612 36.6423C66.7347 36.6511 67.5095 36.6603 68.2848 36.6691C68.6857 36.6727 69.0855 36.6839 69.4835 36.6839C69.5285 36.6839 69.5746 36.6839 69.6203 36.6829C69.773 36.6819 69.9859 36.6792 70.1875 36.6459C70.3895 36.6151 70.5751 36.5497 70.6757 36.4521C70.7433 36.3858 70.7817 36.3114 70.7837 36.1953V36.1919C70.7837 36.0706 70.741 35.9195 70.6796 35.7698C70.6178 35.6209 70.5371 35.471 70.4692 35.3444C70.4235 35.2586 70.374 35.1735 70.3243 35.0873C69.2948 33.2931 68.3167 31.479 67.341 29.6574C66.2115 27.5519 65.0857 25.4427 63.9534 23.3389C63.9457 23.3248 63.9412 23.3093 63.9401 23.2933C63.939 23.2773 63.9413 23.2613 63.9469 23.2463C63.952 23.2312 63.9604 23.2173 63.9714 23.2057C63.9823 23.194 63.9957 23.1849 64.0106 23.1789C65.4792 22.578 66.6802 21.3408 67.678 20.1083C69.0322 18.4345 70.1508 16.6012 71.2006 14.7203C71.5621 14.0727 71.8845 13.3979 72.2326 12.7334C71.5673 13.7917 70.5934 14.8338 69.3278 15.8576C67.6634 17.1999 64.8355 18.525 60.8724 19.8192C57.0498 21.0693 54.2409 22.5194 52.4348 24.1868C51.5794 24.9669 50.9767 25.5077 50.6286 25.7948C50.5487 25.8765 50.1677 26.2751 49.5024 27.0128C48.6949 27.9216 47.8388 29.0085 46.9452 30.2739C46.6063 30.7542 46.3182 31.1634 46.0707 31.5169C45.4232 32.7128 44.7673 33.9051 44.0885 35.0875C44.039 35.1735 43.9896 35.2586 43.9436 35.3426" fill="white"/>
<path d="M73.9757 9.87908C73.9586 9.93535 73.9012 10.0198 73.8216 10.1076C73.743 10.1963 73.6481 10.2878 73.5666 10.3918L73.5653 10.3932C73.4112 10.5942 73.252 10.8012 73.1118 11.0286L73.1129 11.0272C72.8968 11.3727 72.6885 11.723 72.4881 12.0778C71.9999 12.938 71.5942 13.8342 71.1233 14.6775C70.0745 16.5566 68.9574 18.3859 67.6093 20.0523C66.6147 21.2827 65.4222 22.5068 63.9767 23.0978C63.9505 23.1086 63.9269 23.1248 63.9074 23.1453C63.8878 23.1658 63.8727 23.1901 63.8631 23.2167C63.8439 23.2706 63.8487 23.3304 63.8753 23.3807C65.0071 25.4852 66.1336 27.5928 67.2635 29.6993C68.239 31.5209 69.2175 33.3349 70.2472 35.1302L70.247 35.1289C70.297 35.2182 70.3462 35.3029 70.3916 35.3855C70.4596 35.513 70.5384 35.6596 70.598 35.804C70.658 35.9471 70.6963 36.0894 70.6956 36.1914V36.1955C70.6929 36.29 70.6678 36.3354 70.6164 36.388C70.5388 36.4655 70.3667 36.53 70.1734 36.5594C69.9801 36.5902 69.7719 36.594 69.6198 36.5954H69.4684C69.0767 36.5954 68.6822 36.5851 68.2851 36.5814C67.51 36.572 66.736 36.5618 65.9615 36.5546C65.8915 36.5534 65.8214 36.5528 65.7513 36.5529C65.6416 36.5529 65.5325 36.5536 65.4235 36.5536C65.1432 36.5536 64.8665 36.5499 64.598 36.5242C63.4918 36.4173 62.4848 35.865 61.8343 34.9625C61.8127 34.9325 61.755 34.8447 61.6762 34.7203C61.1196 33.8436 59.4329 31.0739 58.6954 29.8663C58.3741 29.3387 57.3775 27.7785 57.3772 27.7771C57.3589 27.7485 57.3338 27.725 57.304 27.7087C57.2742 27.6923 57.2408 27.6838 57.2069 27.6838C57.138 27.6838 57.0735 27.7191 57.0363 27.7771C57.0352 27.7785 56.039 29.3387 55.717 29.8663C55.2965 30.5567 54.5644 31.7563 53.9113 32.8218C53.5846 33.3548 53.2768 33.8537 53.0377 34.2383C52.9382 34.3995 52.8377 34.5602 52.7363 34.7202C52.6579 34.8447 52.5999 34.9325 52.5781 34.9629C51.9287 35.865 50.9214 36.4173 49.8145 36.5241C49.5464 36.5498 49.2701 36.5536 48.989 36.5536C48.88 36.5536 48.7706 36.5529 48.6613 36.5529C48.5911 36.5529 48.5214 36.5533 48.4507 36.5546C47.6761 36.5618 46.9019 36.572 46.1275 36.5814C45.7306 36.5851 45.3358 36.5954 44.9441 36.5954H44.7931C44.5903 36.5943 44.2855 36.5862 44.0558 36.5191C43.9408 36.4869 43.8493 36.4391 43.7971 36.3878C43.7458 36.3353 43.721 36.2907 43.7183 36.1948V36.1914C43.7176 36.0894 43.7552 35.9471 43.8158 35.8037C43.8754 35.6593 43.9537 35.5126 44.021 35.3855C44.0646 35.3035 44.1152 35.2187 44.1659 35.1289L44.1652 35.1302C45.196 33.3349 46.1742 31.5209 47.1507 29.6986C48.2794 27.5928 49.4054 25.4852 50.5365 23.3808C50.5635 23.3302 50.568 23.2706 50.5489 23.2167C50.5393 23.1901 50.5242 23.1657 50.5046 23.1452C50.485 23.1247 50.4614 23.1085 50.4352 23.0977C48.99 22.5068 47.7975 21.2827 46.8027 20.0522C45.4559 18.3855 44.3375 16.5566 43.29 14.6777C42.8179 13.8342 42.4127 12.938 41.925 12.0778C41.7244 11.7233 41.5161 11.3731 41.3002 11.0276L41.3009 11.0283C41.1603 10.8016 41.0023 10.5941 40.8473 10.3929C40.7656 10.2878 40.6702 10.1956 40.5909 10.1069C40.5121 10.0194 40.4534 9.93535 40.4376 9.87908C40.4133 9.80467 40.4043 9.74596 40.4043 9.70253C40.4057 9.63245 40.4216 9.60161 40.447 9.569C40.4853 9.52125 40.5836 9.47011 40.7263 9.44224C40.8682 9.41316 41.044 9.40463 41.2163 9.40463C41.3772 9.40463 41.5336 9.4114 41.666 9.4114H41.682C42.4157 9.41005 43.148 9.40937 43.8815 9.40802C44.3944 9.40802 44.9085 9.40707 45.4211 9.40707H45.4269C45.9822 9.40666 46.5324 9.62122 47.0543 9.93535C47.5753 10.2488 48.0626 10.6586 48.4896 11.0266C49.309 11.7308 50.0186 12.5926 50.701 13.4571C50.7467 13.5147 50.8195 13.5435 50.892 13.5313C50.9644 13.5198 51.0244 13.4699 51.0495 13.4008C51.2895 12.7401 51.6081 12.0869 51.9396 11.4888L51.9433 11.4825C52.3557 10.6647 53.1893 9.87258 54.0674 9.69441C54.2936 9.64706 54.5419 9.63381 54.7984 9.63381C55.0484 9.63381 55.3046 9.64598 55.5562 9.64598C55.6988 9.64558 55.9303 9.64558 56.1749 9.64558C56.6635 9.64558 57.2053 9.64598 57.2066 9.64598C57.208 9.64598 57.7493 9.64558 58.238 9.64558C58.4825 9.64558 58.7134 9.64558 58.8557 9.64598C59.1078 9.64598 59.3642 9.63381 59.6147 9.63381C59.8707 9.63381 60.12 9.64693 60.3448 9.69441C61.2228 9.87272 62.0571 10.6647 62.4699 11.4825L62.4733 11.4888C62.8047 12.0869 63.1224 12.7401 63.3631 13.4008C63.3881 13.4699 63.4488 13.5198 63.5213 13.5313C63.5568 13.5372 63.5933 13.5333 63.6268 13.5203C63.6604 13.5072 63.6899 13.4854 63.7121 13.4571C64.3941 12.5926 65.1039 11.7304 65.9222 11.0266C66.3503 10.6586 66.8376 10.2488 67.3586 9.93535C67.8801 9.62122 68.431 9.40666 68.986 9.40707H68.9914C69.5043 9.40707 70.0173 9.40802 70.5314 9.40802C71.264 9.40937 71.9978 9.41005 72.7322 9.4114H72.7479C72.8798 9.4114 73.0366 9.40463 73.1972 9.40463C73.4267 9.40369 73.6641 9.42127 73.8137 9.47688C73.8889 9.50393 73.939 9.53721 73.9655 9.569C73.9915 9.60147 74.0068 9.63245 74.0081 9.70253C74.0081 9.74582 73.9993 9.80535 73.9757 9.87908V9.87908ZM74.2726 9.30574C74.1375 9.15084 73.9526 9.08442 73.7671 9.04586C73.5798 9.00744 73.3824 9 73.1972 9C73.0256 9 72.8656 9.00717 72.7479 9.00717H72.7326C71.9985 9.00582 71.2647 9.00514 70.5314 9.00379C70.0177 9.00379 69.505 9.00244 68.9914 9.00244H68.9923L68.986 9.00203C68.3257 9.00271 67.7077 9.25325 67.1501 9.58876C66.5924 9.92494 66.0899 10.3495 65.6591 10.7192C64.8942 11.3784 64.2358 12.1544 63.6136 12.9328C63.3845 12.3611 63.1112 11.8054 62.8264 11.2923C62.3611 10.3881 61.4751 9.52138 60.4273 9.2979C60.1592 9.24162 59.8842 9.22917 59.6147 9.22917C59.3519 9.22917 59.0943 9.24094 58.8567 9.24094C58.7141 9.24067 58.4828 9.24067 58.238 9.24067L57.2066 9.24094L56.1749 9.24067C55.9301 9.24067 55.6988 9.24067 55.5552 9.24094C55.3179 9.24094 55.0608 9.22917 54.7984 9.22917C54.5286 9.22917 54.254 9.24162 53.9844 9.29817C52.9348 9.52193 52.0473 10.3918 51.5827 11.2987H51.5831C51.2999 11.8097 51.027 12.3632 50.7988 12.9328C50.1771 12.1544 49.5186 11.3778 48.7537 10.7192C48.3233 10.3495 47.8208 9.92494 47.2632 9.58876C46.7051 9.25325 46.0875 9.00271 45.4269 9.00203L45.4161 9.00244C44.9044 9.00244 44.3921 9.00379 43.8812 9.00379C43.1474 9.00514 42.415 9.00582 41.6809 9.00717H41.666C41.5475 9.00717 41.3873 9 41.2163 9C40.9699 9.00068 40.7006 9.0119 40.463 9.09565C40.3438 9.13826 40.2297 9.20238 40.1399 9.30574C40.0506 9.40788 39.9984 9.55074 40 9.70253C40 9.79777 40.0184 9.89734 40.0515 10.0029C40.1033 10.1574 40.1989 10.2736 40.2889 10.3769C40.3809 10.4789 40.4725 10.569 40.5269 10.6403C40.681 10.8396 40.8304 11.0367 40.9569 11.2418L40.9573 11.2421C41.1703 11.5825 41.3757 11.9277 41.5733 12.2774C42.0491 13.1159 42.4539 14.0115 42.9368 14.8754C43.9897 16.7626 45.1191 18.6126 46.4881 20.3066C47.4551 21.4996 48.6233 22.7135 50.0796 23.3762C48.982 25.4194 47.8882 27.4644 46.7941 29.5078C45.8179 31.3293 44.8421 33.1397 43.8144 34.9287L43.8142 34.9293C43.766 35.0138 43.7139 35.1016 43.6641 35.196C43.5971 35.3221 43.5118 35.4794 43.4416 35.6492C43.3727 35.819 43.3143 36.0005 43.3136 36.1914V36.1998H43.314C43.3133 36.3943 43.3959 36.5675 43.5175 36.6807C43.7026 36.8539 43.9446 36.9196 44.1751 36.9593C44.4062 36.9958 44.6338 36.9985 44.7906 36.9993C44.8417 36.9996 44.8936 37 44.9441 37C45.3428 37 45.7391 36.9897 46.1318 36.9861C46.9073 36.9773 47.6817 36.9664 48.455 36.9593C48.5237 36.9586 48.5925 36.9582 48.6613 36.9582C48.7695 36.9582 48.8789 36.9586 48.989 36.9586C49.2728 36.9586 49.563 36.9552 49.8531 36.9271C51.0693 36.8102 52.1857 36.1998 52.9063 35.1987C52.9412 35.1509 52.9967 35.0642 53.078 34.9372C53.6397 34.0523 55.3249 31.2859 56.0625 30.0771C56.2203 29.8182 56.5497 29.2971 56.8388 28.8413C56.9794 28.6202 57.1092 28.4156 57.2069 28.2624C57.3045 28.4156 57.4341 28.6202 57.5746 28.8413C57.8638 29.2971 58.1926 29.8182 58.3511 30.0771C58.9516 31.0636 59.5535 32.0492 60.1569 33.0339C60.484 33.5669 60.7918 34.0665 61.0318 34.4525C61.1517 34.6457 61.2549 34.8104 61.3349 34.9372C61.4157 35.0642 61.4717 35.1507 61.5059 35.1984C62.2274 36.1998 63.3434 36.8102 64.559 36.9271C64.8499 36.9552 65.1398 36.9586 65.4235 36.9586C65.5338 36.9586 65.6429 36.9582 65.7513 36.9582C65.8207 36.9582 65.8888 36.9586 65.9572 36.9593C66.7305 36.9664 67.5053 36.9773 68.2806 36.9861C68.6737 36.9897 69.0696 37 69.4685 37C69.5192 37 69.5711 36.9996 69.6218 36.9993C69.8317 36.9973 70.1638 36.9949 70.4693 36.9077C70.6221 36.8634 70.7728 36.7973 70.8951 36.681C71.0185 36.5668 71.1022 36.392 71.0995 36.1953V36.1913C71.0992 36.0005 71.0414 35.819 70.9719 35.6488C70.9011 35.479 70.8158 35.3214 70.7477 35.1946C70.6983 35.1022 70.6468 35.0147 70.5984 34.9293L70.598 34.9287C69.5711 33.1397 68.5952 31.3293 67.6197 29.5078C66.5242 27.4644 65.4303 25.4196 64.3326 23.3764C65.7889 22.7135 66.9571 21.4996 67.9238 20.307C69.2938 18.6126 70.4223 16.7626 71.4764 14.8754C71.9589 14.0115 72.3635 13.1159 72.8396 12.2774C73.0371 11.928 73.2423 11.5831 73.4551 11.2429L73.4562 11.2411C73.5822 11.0371 73.7325 10.8396 73.8859 10.6392L73.8848 10.6406C73.9404 10.5692 74.0322 10.4787 74.1235 10.3767C74.2141 10.2733 74.3091 10.1574 74.3606 10.0035C74.3944 9.89747 74.4124 9.79791 74.4124 9.70253C74.4144 9.55074 74.3624 9.40842 74.2726 9.30574V9.30574Z" fill="#2A2D2C"/>
</svg>
