<svg width="155" height="45" viewBox="0 0 155 45" fill="none" xmlns="http://www.w3.org/2000/svg">
<path d="M68.6087 26.2517L70.3819 30.9073H66.9462L68.6095 26.2517H68.6087ZM67.9434 24.6924L64.0645 34.8872H65.505L66.5022 32.1176H70.8237L71.8209 34.8872H73.2614L69.3824 24.6924H67.9419H67.9434ZM88.8826 34.8962H90.2191V24.6998H88.8826V34.8947V34.8962ZM75.2573 28.904C75.7006 28.2387 76.5938 27.6848 77.4737 27.6848C79.2469 27.6848 80.1334 28.904 80.1334 30.6771V34.9986H78.7969V30.8984C78.7969 29.4579 78.021 28.9032 77.0237 28.9032C75.9152 28.9032 75.14 30.0118 75.14 31.009V34.888H73.8034V27.805H75.14L75.2513 28.9136L75.2573 28.904ZM81.242 32.7904C81.242 31.2311 82.6825 30.3519 84.3458 30.3519C85.343 30.3519 86.009 30.5747 86.2296 30.7952V30.5724C86.2296 29.4638 85.343 28.9092 84.4564 28.9092C83.6805 28.9092 83.0159 29.2418 82.7932 29.9064L81.5739 29.3525C81.7967 28.6872 82.6825 27.6892 84.4549 27.6892C86.1182 27.6892 87.5587 28.6864 87.5587 30.6816V34.8932H86.3395V33.896H86.2281C85.8954 34.4499 85.1195 35.1152 83.901 35.1152C82.4605 35.1152 81.2413 34.2286 81.2413 32.7881M86.2281 31.9016C86.2281 31.9016 85.6742 31.4583 84.5648 31.4583C83.2283 31.4583 82.681 32.2342 82.681 32.7948C82.681 33.5707 83.457 33.9034 84.1215 33.9034C85.1187 33.9034 86.2273 33.0168 86.2273 31.9082" fill="#757575"/>
<path fill-rule="evenodd" clip-rule="evenodd" d="M92.1039 38L93.6632 34.3431L90.8936 27.9151H92.2301L94.3359 32.7912L96.4417 27.9151H97.7782L93.4568 38H92.1202H92.1039ZM111.61 30.2407C111.277 29.3541 110.501 28.8002 109.726 28.8002C108.618 28.8002 107.62 29.7974 107.62 31.2386C107.62 32.6798 108.618 33.6771 109.726 33.6771C110.502 33.6771 111.285 33.1231 111.61 32.3405L112.718 33.0058C112.165 34.225 111.055 35.001 109.726 35.001C107.842 35.001 106.29 33.3377 106.29 31.2327C106.29 29.0162 107.85 27.4644 109.726 27.4644C111.063 27.4644 112.165 28.2403 112.718 29.4595L111.61 30.2355V30.2407Z" fill="#757575"/>
<path d="M116.375 35.1173C118.148 35.1173 119.034 34.1201 119.034 32.9008C119.034 30.2411 115.155 31.2376 115.155 29.6872C115.155 29.1333 115.599 28.8006 116.375 28.8006C117.151 28.8006 117.934 29.1333 118.258 29.6872L119.034 28.9113C118.591 28.3573 117.371 27.5747 116.265 27.5747C114.602 27.5747 113.716 28.5719 113.716 29.7911C113.716 32.3402 117.705 31.4544 117.705 32.7835C117.705 33.4488 117.262 33.8921 116.369 33.8921C115.475 33.8921 115.032 33.3382 114.596 32.7835L113.611 33.5669C114.276 34.2322 115.274 35.1262 116.381 35.1262L116.375 35.1173ZM103.741 34.896H105.077V27.8034H103.741V34.896Z" fill="#757575"/>
<path fill-rule="evenodd" clip-rule="evenodd" d="M104.295 24.375C104.848 24.375 105.181 24.8183 105.181 25.2616C105.181 25.8155 104.738 26.1481 104.295 26.1481C103.851 26.1481 103.408 25.7049 103.408 25.2616C103.408 24.8183 103.851 24.375 104.295 24.375ZM102.411 33.7954L102.634 34.7926H101.297C100.078 34.7926 99.524 33.906 99.524 32.5762V29.1272H98.1875V27.7906H99.524V25.6982H100.86V27.804H102.42V29.1405H100.86V32.7975C100.86 33.7947 101.636 33.7947 102.42 33.7947L102.411 33.7954Z" fill="#757575"/>
<path d="M70.8032 13.4286V15.0918H74.6821C74.5707 15.9784 74.2388 16.6511 73.7956 17.087C73.2416 17.6409 72.355 18.3062 70.8032 18.3062C68.4761 18.3062 66.5916 16.4225 66.5916 13.9847C66.5916 11.6577 68.4754 9.66325 70.8032 9.66325C72.1397 9.66325 73.0196 10.2172 73.6842 10.7718L74.7928 9.66325C73.7955 8.77668 72.5763 8 70.8032 8C67.5895 8 64.8184 10.6597 64.8184 13.8659C64.8184 17.0722 67.588 19.7319 70.8032 19.7319C72.5763 19.7319 73.9069 19.178 74.9034 18.0686C76.012 16.96 76.3439 15.5195 76.3439 14.3003C76.3439 13.9677 76.3439 13.5244 76.2325 13.3031H70.8024L70.8032 13.4286ZM80.6654 12.0921C78.5596 12.0921 76.8971 13.6514 76.8971 15.8604C76.8971 18.0694 78.5603 19.6287 80.6654 19.6287C81.1615 19.6331 81.6535 19.5387 82.1127 19.3509C82.5719 19.1631 82.9891 18.8857 83.3399 18.5349C83.6907 18.1841 83.9681 17.7669 84.1559 17.3077C84.3437 16.8485 84.4382 16.3565 84.4337 15.8604C84.4337 13.6439 82.7704 12.0921 80.6654 12.0921ZM80.6654 18.1807C79.5568 18.1807 78.5596 17.1835 78.5596 15.8537C78.5596 14.5238 79.5568 13.534 80.6654 13.534C81.774 13.534 82.7719 14.4251 82.7719 15.8581C82.7719 17.2912 81.7747 18.1852 80.6661 18.1852L80.6654 18.1807ZM98.835 12.8672C98.3917 12.424 97.7264 11.9807 96.7291 11.9807C94.8454 11.9807 93.1829 13.6439 93.1829 15.749C93.1829 17.854 94.8461 19.5173 96.7291 19.5173C97.6157 19.5173 98.3924 19.074 98.7243 18.6307H98.8357V19.1846C98.8357 20.6251 98.0598 21.4011 96.8405 21.4011C95.8433 21.4011 95.1773 20.6251 94.9567 20.0645L93.5162 20.6185C93.9595 21.6157 95.0755 22.8349 96.8413 22.8349C98.8364 22.8349 100.498 21.7263 100.498 18.8453V11.9747H98.9389V12.8613L98.835 12.8672ZM96.9512 18.1867C95.8426 18.1867 94.956 17.1895 94.956 15.8596C94.956 14.5298 95.8426 13.5325 96.9512 13.5325C98.0598 13.5325 98.9463 14.5298 98.9463 15.8596C98.9463 17.1895 98.0598 18.1867 96.9512 18.1867ZM88.8599 12.098C86.7541 12.098 85.0916 13.6573 85.0916 15.8663C85.0916 18.0753 86.7548 19.6346 88.8599 19.6346C89.356 19.6391 89.848 19.5446 90.3072 19.3568C90.7664 19.1691 91.1836 18.8916 91.5344 18.5408C91.8852 18.19 92.1626 17.7728 92.3504 17.3136C92.5382 16.8544 92.6326 16.3624 92.6282 15.8663C92.7396 13.6499 90.9649 12.098 88.8599 12.098ZM88.8599 18.1867C87.7513 18.1867 86.7541 17.1895 86.7541 15.8596C86.7541 14.5298 87.7513 13.5325 88.8599 13.5325C89.9685 13.5325 90.9657 14.4191 90.9657 15.8596C90.9657 17.3001 89.9685 18.1867 88.8599 18.1867ZM101.731 8.10915H103.394V19.6346H101.731V8.10915ZM107.937 18.1941C107.05 18.1941 106.496 17.7508 106.053 17.0855L111.151 14.9797L110.928 14.5364C110.596 13.6499 109.592 12.098 107.715 12.098C105.719 12.098 104.168 13.6573 104.168 15.8663C104.164 16.3624 104.258 16.8544 104.446 17.3136C104.634 17.7728 104.911 18.19 105.262 18.5408C105.613 18.8916 106.03 19.1691 106.489 19.3568C106.948 19.5446 107.441 19.6391 107.937 19.6346C109.71 19.6346 110.706 18.526 111.15 17.9714L109.814 17.0848C109.37 17.7501 108.817 18.1934 107.93 18.1934L107.937 18.1941ZM107.825 13.5385C108.491 13.5385 109.044 13.8711 109.266 14.4251L105.83 15.8656C105.83 14.2023 106.939 13.5385 107.825 13.5385Z" fill="#757575"/>
<path d="M51.2227 11.7313V31.1983C51.2227 33.3765 52.7269 34.5903 54.3197 34.5903C55.7945 34.5903 57.4167 33.5579 57.4167 31.1983V11.8788C57.4167 9.88193 55.942 8.63428 54.3197 8.63428C52.6975 8.63428 51.2227 10.0102 51.2227 11.7313Z" fill="#F9AB00"/>
<path d="M43.1113 21.6122V31.1982C43.1113 33.3764 44.6156 34.5901 46.2083 34.5901C47.6831 34.5901 49.3054 33.5578 49.3054 31.1982V21.7596C49.3054 19.7628 47.8306 18.5151 46.2083 18.5151C44.5861 18.5151 43.1113 19.8911 43.1113 21.6122Z" fill="#E37400"/>
<path d="M38.097 34.59C39.8075 34.59 41.1941 33.2035 41.1941 31.493C41.1941 29.7826 39.8075 28.396 38.097 28.396C36.3866 28.396 35 29.7826 35 31.493C35 33.2035 36.3866 34.59 38.097 34.59Z" fill="#E37400"/>
</svg>
