<svg width="155" height="45" viewBox="0 0 155 45" fill="none" xmlns="http://www.w3.org/2000/svg">
<g clip-path="url(#clip0_380_2)">
<path d="M28.1299 11.5258C29.3636 12.2725 29.5584 12.6946 30.9221 14.2206C32.9351 16.4284 35.4675 16.6881 35.8896 16.6881C37.0909 16.7531 38.1948 16.4284 38.1948 16.2985C38.1948 16.2011 37.3831 16.2661 36.1818 15.9738C35.7922 15.8764 34.461 15.5518 34.4935 15.357C34.4935 15.357 40.2403 13.5063 43.6493 16.8505C45.6299 18.831 46.2143 22.4349 44.8182 25.0648C43.974 26.6232 40.987 29.2855 37.8701 28.9609C37.7727 28.9609 36.0844 34.805 36.1169 34.6751C35.7597 34.3829 34.1688 33.0518 29.6883 33.279C27.8377 33.3764 26.5714 34.318 25.0779 33.6037C23.9091 33.0193 23.5844 31.4284 23.5844 31.4609C23.6169 31.4609 24.7857 31.4284 26.7987 30.3894C28.3896 29.5777 28.8117 28.7985 28.7792 28.7336C28.7792 28.7336 28.6493 28.7985 28.4545 28.9284C28 29.1881 26.7338 29.7725 25.4675 30.0648C21.7338 31.0388 15.8896 29.3829 13.8441 24.1557C11.9286 19.4154 14.6558 15.1946 14.9156 14.805C15.1753 14.3829 16.6364 12.5323 18.8441 11.3959C21.1818 10.2271 25.4351 9.86995 28.1299 11.5258Z" fill="#0373AA"/>
<path d="M71.4416 20.7793L67.9026 31.6884H64.6234L62.5455 25.065L60.3702 31.6884H57.0585L53.5195 20.7793H56.7014L58.9091 27.7273L61.2143 20.7793H64.039L66.2468 27.7923L68.552 20.7793H71.4416V20.7793Z" fill="#111111"/>
<path d="M80.1754 21.2663C80.8897 21.591 81.4741 22.0455 81.8637 22.6624C82.2533 23.2793 82.4481 23.9936 82.4481 24.8053C82.4481 25.617 82.2533 26.3312 81.8637 26.9481C81.4741 27.565 80.9222 28.0196 80.1754 28.3442C79.4611 28.6689 78.5845 28.8312 77.6105 28.8312H75.6949V31.6884H72.6105V20.7793H77.6105C78.617 20.7793 79.4611 20.9416 80.1754 21.2663ZM78.8767 25.9741C79.2014 25.7144 79.3637 25.2923 79.3637 24.8053C79.3637 24.2858 79.2014 23.8962 78.8767 23.6364C78.552 23.3442 78.065 23.2144 77.4481 23.2144H75.7274V26.3962H77.4481C78.065 26.3962 78.552 26.2663 78.8767 25.9741Z" fill="#111111"/>
<path d="M93.8767 27.0131C94.2339 27.4676 94.3962 28.0196 94.3962 28.7014C94.3962 29.6429 94.0066 30.3897 93.2274 30.9092C92.4482 31.4286 91.3443 31.6884 89.8832 31.6884H84.0066V20.7793H89.6235C91.0196 20.7793 92.0585 21.039 92.8053 21.5585C93.5196 22.078 93.9092 22.7598 93.9092 23.6364C93.9092 24.1559 93.7793 24.6105 93.5196 25.0325C93.2598 25.4546 92.9027 25.7793 92.4482 26.0066C93.0326 26.2014 93.5196 26.5585 93.8767 27.0131ZM87.091 23.0196V25.1299H89.2014C90.2404 25.1299 90.7598 24.7728 90.7598 24.0585C90.7598 23.3767 90.2404 23.0196 89.2014 23.0196H87.091ZM91.2793 28.3442C91.2793 27.5975 90.7274 27.2403 89.6559 27.2403H87.0585V29.4481H89.6559C90.7598 29.4481 91.2793 29.091 91.2793 28.3442Z" fill="#111111"/>
<path d="M102.773 24.0585C103.519 24.7078 103.877 25.6819 103.877 26.9806V31.6559H101.117V30.552C100.695 31.3637 99.8507 31.7858 98.6169 31.7858C97.9675 31.7858 97.3831 31.6559 96.9286 31.4286C96.4416 31.2014 96.0844 30.8767 95.8571 30.4871C95.5974 30.0975 95.5 29.6429 95.5 29.1559C95.5 28.3442 95.7922 27.7273 96.4091 27.3053C97.026 26.8507 97.9675 26.6559 99.2338 26.6559H100.922C100.857 25.7468 100.273 25.3247 99.1364 25.3247C98.7467 25.3247 98.3247 25.3897 97.9026 25.5195C97.4805 25.6494 97.1234 25.8442 96.8312 26.0715L95.8247 24.0585C96.2792 23.7338 96.8636 23.5066 97.5455 23.3442C98.2273 23.1819 98.8766 23.0845 99.5584 23.0845C100.955 23.0845 102.026 23.4091 102.773 24.0585ZM100.338 29.7078C100.597 29.5455 100.792 29.2858 100.89 28.9611V28.2143H99.6234C98.7467 28.2143 98.3247 28.5066 98.3247 29.0585C98.3247 29.3182 98.4221 29.513 98.6169 29.6754C98.8117 29.8377 99.0714 29.9027 99.4286 29.9027C99.7857 29.9676 100.078 29.8702 100.338 29.7078Z" fill="#111111"/>
<path d="M109.656 28.7338L108.779 29.6104V31.6883H105.825V20.1299H108.779V26.2013L111.799 23.2468H115.305L111.799 26.8507L115.597 31.6883H112.026L109.656 28.7338Z" fill="#111111"/>
<path d="M124.786 28.2141H118.649C118.779 28.6362 119.007 28.9933 119.364 29.2206C119.721 29.4479 120.175 29.5777 120.695 29.5777C121.084 29.5777 121.442 29.5128 121.734 29.4154C122.026 29.2855 122.318 29.1232 122.643 28.8635L124.201 30.4868C123.39 31.3959 122.188 31.8505 120.597 31.8505C119.623 31.8505 118.747 31.6557 118 31.2985C117.253 30.9414 116.669 30.3894 116.279 29.7401C115.857 29.0907 115.662 28.3115 115.662 27.4673C115.662 26.6232 115.857 25.8764 116.247 25.2271C116.636 24.5777 117.188 24.0583 117.903 23.6686C118.617 23.279 119.396 23.1167 120.273 23.1167C121.117 23.1167 121.864 23.279 122.578 23.6362C123.26 23.9933 123.812 24.4803 124.201 25.1622C124.591 25.8115 124.786 26.5907 124.786 27.4998C124.818 27.4998 124.818 27.7271 124.786 28.2141ZM119.169 25.5842C118.877 25.844 118.682 26.2011 118.584 26.6557H122.058C121.961 26.2011 121.766 25.844 121.474 25.5842C121.182 25.3245 120.792 25.1946 120.338 25.1946C119.883 25.1946 119.494 25.3245 119.169 25.5842Z" fill="#111111"/>
<path d="M130.273 23.3767C130.76 23.1819 131.312 23.0845 131.929 23.0845V25.7468C131.669 25.7143 131.442 25.7143 131.247 25.7143C130.597 25.7143 130.11 25.8767 129.753 26.2338C129.396 26.591 129.201 27.1104 129.201 27.7923V31.6559H126.247V23.2143H129.072V24.2208C129.396 23.8637 129.786 23.5715 130.273 23.3767Z" fill="#111111"/>
<path d="M142.383 23.2466L138.747 32.0453C138.325 33.0842 137.805 33.7985 137.188 34.2206C136.571 34.6427 135.825 34.8375 134.948 34.8375C134.494 34.8375 134.039 34.7726 133.617 34.6427C133.162 34.5128 132.805 34.318 132.513 34.0907L133.552 32.0128C133.714 32.1752 133.909 32.305 134.136 32.37C134.364 32.4674 134.591 32.4998 134.851 32.4998C135.143 32.4998 135.37 32.4349 135.533 32.3375C135.727 32.2076 135.857 32.0453 135.987 31.7855L132.383 23.2466H135.435L137.513 28.4089L139.591 23.2466H142.383V23.2466Z" fill="#111111"/>
<path d="M102.448 10.9414C102.74 11.0713 102.968 11.2661 103.13 11.4933C103.292 11.7206 103.357 12.0128 103.357 12.37C103.357 12.6946 103.292 12.9868 103.13 13.2466C102.968 13.5063 102.74 13.6687 102.448 13.7985C102.156 13.9284 101.799 13.9933 101.409 13.9933H100.37V15.3245H99.526V10.7466H101.409C101.799 10.7466 102.156 10.8115 102.448 10.9414ZM102.221 13.0193C102.416 12.857 102.513 12.6297 102.513 12.3375C102.513 12.0453 102.416 11.818 102.221 11.6557C102.026 11.4933 101.734 11.4284 101.377 11.4284H100.37V13.2466H101.377C101.734 13.279 102.026 13.1816 102.221 13.0193Z" fill="#0373AA"/>
<path d="M106.604 12.1431C106.864 12.4028 107.026 12.76 107.026 13.247V15.2924H106.247V14.8704C106.149 15.0327 106.019 15.1301 105.825 15.2275C105.63 15.2924 105.403 15.3574 105.143 15.3574C104.883 15.3574 104.656 15.3249 104.461 15.2275C104.266 15.1301 104.104 15.0002 104.006 14.8704C103.909 14.708 103.844 14.5457 103.844 14.3184C103.844 13.9937 103.974 13.7665 104.201 13.5717C104.429 13.3769 104.786 13.2795 105.305 13.2795H106.214V13.2145C106.214 12.9548 106.149 12.7924 105.987 12.6626C105.857 12.5327 105.63 12.4678 105.338 12.4678C105.143 12.4678 104.948 12.5002 104.753 12.5652C104.558 12.6301 104.396 12.695 104.266 12.8249L103.942 12.2405C104.136 12.1106 104.331 11.9808 104.591 11.9158C104.851 11.8509 105.11 11.8184 105.403 11.8184C105.922 11.7859 106.312 11.9158 106.604 12.1431ZM105.857 14.6106C106.019 14.5132 106.117 14.3833 106.182 14.221V13.8314H105.338C104.883 13.8314 104.623 13.9937 104.623 14.2859C104.623 14.4483 104.688 14.5457 104.786 14.6431C104.916 14.7405 105.078 14.773 105.273 14.773C105.5 14.7405 105.695 14.708 105.857 14.6106Z" fill="#0373AA"/>
<path d="M111.539 11.8184V14.7729C111.539 16.0067 110.922 16.6236 109.656 16.6236C109.331 16.6236 109.006 16.5911 108.714 16.4937C108.422 16.3963 108.162 16.2989 107.968 16.1365L108.325 15.5197C108.487 15.6495 108.682 15.7469 108.909 15.8119C109.136 15.8768 109.364 15.9417 109.623 15.9417C110.013 15.9417 110.273 15.8443 110.468 15.682C110.63 15.5197 110.727 15.2275 110.727 14.8703V14.6755C110.597 14.8378 110.403 14.9352 110.208 15.0326C110.013 15.0976 109.786 15.1625 109.558 15.1625C109.234 15.1625 108.942 15.0976 108.649 14.9352C108.39 14.8054 108.162 14.6106 108.032 14.3508C107.87 14.0911 107.805 13.7989 107.805 13.4742C107.805 13.1495 107.87 12.8573 108.032 12.5976C108.195 12.3378 108.39 12.143 108.649 12.0132C108.909 11.8833 109.201 11.8184 109.558 11.8184C109.818 11.8184 110.045 11.8508 110.24 11.9482C110.435 12.0456 110.63 12.143 110.76 12.3378V11.8184H111.539ZM110.435 14.1885C110.63 13.9937 110.727 13.7664 110.727 13.4742C110.727 13.182 110.63 12.9547 110.435 12.7599C110.24 12.5651 109.98 12.5002 109.688 12.5002C109.364 12.5002 109.104 12.5976 108.909 12.7599C108.714 12.9547 108.617 13.182 108.617 13.4742C108.617 13.7664 108.714 14.0262 108.909 14.1885C109.104 14.3833 109.364 14.4807 109.688 14.4807C109.98 14.4482 110.24 14.3508 110.435 14.1885Z" fill="#0373AA"/>
<path d="M115.857 13.8313H113.13C113.162 14.0911 113.292 14.2859 113.52 14.4482C113.714 14.6106 113.974 14.6755 114.266 14.6755C114.656 14.6755 114.948 14.5456 115.208 14.2859L115.63 14.7729C115.468 14.9677 115.273 15.0976 115.046 15.195C114.818 15.2924 114.526 15.3248 114.234 15.3248C113.844 15.3248 113.52 15.2599 113.227 15.0976C112.935 14.9352 112.708 14.7404 112.546 14.4482C112.383 14.1885 112.318 13.8638 112.318 13.5391C112.318 13.2145 112.383 12.8898 112.546 12.63C112.708 12.3703 112.903 12.143 113.195 11.9807C113.455 11.8184 113.779 11.7534 114.136 11.7534C114.461 11.7534 114.786 11.8184 115.046 11.9807C115.305 12.143 115.533 12.3378 115.662 12.5976C115.825 12.8573 115.89 13.182 115.89 13.5391C115.857 13.6365 115.857 13.7339 115.857 13.8313ZM113.455 12.6625C113.26 12.8248 113.162 13.0197 113.13 13.2794H115.11C115.078 13.0197 114.981 12.8248 114.786 12.6625C114.623 12.5002 114.396 12.4352 114.136 12.4352C113.844 12.4352 113.617 12.5002 113.455 12.6625Z" fill="#0373AA"/>
<path d="M122.383 13.344C122.546 13.5388 122.61 13.7661 122.61 14.0583C122.61 14.4479 122.448 14.7726 122.156 14.9674C121.864 15.1946 121.409 15.292 120.825 15.292H118.552V10.7466H120.695C121.247 10.7466 121.636 10.844 121.929 11.0713C122.221 11.2661 122.351 11.5583 122.351 11.9479C122.351 12.1752 122.286 12.37 122.188 12.5323C122.091 12.6946 121.929 12.857 121.766 12.9219C122.026 13.0193 122.221 13.1492 122.383 13.344ZM119.396 11.3959V12.6622H120.597C120.89 12.6622 121.117 12.5972 121.279 12.4998C121.442 12.4024 121.507 12.2401 121.507 12.0453C121.507 11.8505 121.442 11.6881 121.279 11.5583C121.117 11.4609 120.89 11.3959 120.597 11.3959H119.396V11.3959ZM121.734 13.9933C121.734 13.5388 121.409 13.344 120.76 13.344H119.396V14.6752H120.76C121.409 14.6427 121.734 14.4154 121.734 13.9933Z" fill="#0373AA"/>
<path d="M126.799 11.8184V15.2924H126.02V14.8703C125.89 15.0326 125.727 15.1625 125.533 15.2275C125.338 15.3249 125.11 15.3573 124.916 15.3573C124.461 15.3573 124.071 15.2275 123.812 14.9677C123.552 14.708 123.422 14.3184 123.422 13.8313V11.8184H124.234V13.7015C124.234 14.0262 124.299 14.2534 124.461 14.4158C124.623 14.5781 124.818 14.643 125.078 14.643C125.37 14.643 125.597 14.5456 125.76 14.3833C125.922 14.1885 126.02 13.9287 126.02 13.6041V11.8184H126.799Z" fill="#0373AA"/>
<path d="M127.903 11.1039C127.805 11.0065 127.74 10.9091 127.74 10.7468C127.74 10.5844 127.805 10.487 127.903 10.3896C128 10.2922 128.13 10.2598 128.26 10.2598C128.39 10.2598 128.519 10.2922 128.617 10.3896C128.714 10.487 128.779 10.5844 128.779 10.7143C128.779 10.8442 128.714 10.9741 128.617 11.0715C128.519 11.1689 128.39 11.2338 128.227 11.2338C128.13 11.2338 128 11.2013 127.903 11.1039ZM127.87 11.8182H128.682V15.2922H127.87V11.8182Z" fill="#0373AA"/>
<path d="M129.753 10.4546H130.565V15.2923H129.753V10.4546Z" fill="#0373AA"/>
<path d="M135.046 10.4546V15.2923H134.266V14.8377C134.136 15 133.974 15.1299 133.779 15.1949C133.584 15.2923 133.357 15.3247 133.13 15.3247C132.805 15.3247 132.481 15.2598 132.221 15.0974C131.961 14.9351 131.734 14.7403 131.604 14.4806C131.442 14.2208 131.377 13.8961 131.377 13.539C131.377 13.1819 131.442 12.8897 131.604 12.5974C131.766 12.3377 131.961 12.1104 132.221 11.9806C132.481 11.8182 132.805 11.7533 133.13 11.7533C133.357 11.7533 133.584 11.7858 133.747 11.8832C133.942 11.9481 134.104 12.078 134.234 12.2403V10.4546H135.046ZM133.714 14.513C133.877 14.4156 134.007 14.2858 134.072 14.1234C134.169 13.9611 134.201 13.7663 134.201 13.539C134.201 13.3117 134.169 13.1169 134.072 12.9546C133.974 12.7923 133.844 12.6624 133.714 12.565C133.552 12.4676 133.39 12.4351 133.195 12.4351C133 12.4351 132.838 12.4676 132.675 12.565C132.513 12.6624 132.383 12.7923 132.318 12.9546C132.253 13.1169 132.156 13.3442 132.156 13.5715C132.156 13.7987 132.188 13.9936 132.286 14.1559C132.383 14.3182 132.513 14.4481 132.643 14.5455C132.805 14.6429 132.968 14.6754 133.162 14.6754C133.39 14.6429 133.584 14.6104 133.714 14.513Z" fill="#0373AA"/>
<path d="M139.364 13.8313H136.636C136.669 14.0911 136.799 14.2859 137.026 14.4482C137.221 14.6106 137.481 14.6755 137.773 14.6755C138.162 14.6755 138.455 14.5456 138.714 14.2859L139.136 14.7729C138.974 14.9677 138.779 15.0976 138.552 15.195C138.325 15.2924 138.033 15.3248 137.74 15.3248C137.351 15.3248 137.026 15.2599 136.734 15.0976C136.442 14.9352 136.214 14.7404 136.052 14.4482C135.89 14.1885 135.825 13.8638 135.825 13.5391C135.825 13.2145 135.89 12.8898 136.052 12.63C136.214 12.3703 136.409 12.143 136.701 11.9807C136.961 11.8184 137.286 11.7534 137.643 11.7534C137.968 11.7534 138.292 11.8184 138.552 11.9807C138.812 12.143 139.039 12.3378 139.169 12.5976C139.331 12.8573 139.396 13.182 139.396 13.5391C139.396 13.6365 139.364 13.7339 139.364 13.8313ZM136.961 12.6625C136.766 12.8248 136.669 13.0197 136.636 13.2794H138.617C138.584 13.0197 138.487 12.8248 138.292 12.6625C138.13 12.5002 137.903 12.4352 137.643 12.4352C137.351 12.4352 137.123 12.5002 136.961 12.6625Z" fill="#0373AA"/>
<path d="M142.188 11.7856V12.5649C142.123 12.5649 142.058 12.5324 141.993 12.5324C141.669 12.5324 141.442 12.6298 141.247 12.8246C141.084 13.0194 140.987 13.2792 140.987 13.6363V15.3246H140.175V11.8181H140.955V12.3376C141.182 11.9804 141.571 11.7856 142.188 11.7856Z" fill="#0373AA"/>
</g>
<defs>
<clipPath id="clip0_380_2">
<rect width="129.87" height="25" fill="white" transform="translate(13 10)"/>
</clipPath>
</defs>
</svg>
