<svg width="1925" height="1081" viewBox="0 0 1925 1081" fill="none" xmlns="http://www.w3.org/2000/svg">
<style>
.heartbeat{-webkit-animation:8s Infinite linear heartbeat;animation:8s Infinite linear heartbeat;-webkit-animation-delay:0s;animation-delay:0s}.floating{-webkit-animation:5s Infinite linear floating;animation:5s Infinite linear floating;-webkit-animation-delay:0s;animation-delay:0s}.wind{-webkit-animation:8s Infinite linear wind;animation:8s Infinite linear wind;-webkit-animation-delay:0s;animation-delay:0s}.scale-down-center{-webkit-animation:scale-down-center 20s cubic-bezier(.25,.46,.45,.94)infinite alternate both;animation:scale-down-center 20s cubic-bezier(.25,.46,.45,.94)infinite alternate both}.move-1{left:44px;top:60px;-webkit-animation:move-1 45s infinite;animation:move-1 45s infinite;-ms-transform:translate(0,0)scale(1.95);-webkit-transform:translate(0,0)scale(1.95);transform:translate(0,0)scale(1.95)}.move-2{left:62px;top:72px;-webkit-animation:move-2 45s infinite;animation:move-2 45s infinite;-ms-transform:translate(0,0)scale(0.35);-webkit-transform:translate(0,0)scale(0.35);transform:translate(0,0)scale(0.35)}.move-3{left:82px;top:87px;-webkit-animation:move-3 45s infinite;animation:move-3 45s infinite;-ms-transform:translate(0,0)scale(1.09);-webkit-transform:translate(0,0)scale(1.09);transform:translate(0,0)scale(1.09)}.move-4{left:71px;top:5px;-webkit-animation:move-4 45s infinite;animation:move-4 45s infinite;-ms-transform:translate(0,0)scale(1.95);-webkit-transform:translate(0,0)scale(1.95);transform:translate(0,0)scale(1.95)}.move-5{left:74px;top:43px;-webkit-animation:move-54 5s infinite;animation:move-54 5s infinite;-ms-transform:translate(0,0)scale(1.76);-webkit-transform:translate(0,0)scale(1.76);transform:translate(0,0)scale(1.76)}.move-6{left:8px;top:26px;-webkit-animation:move-6 45s infinite;animation:move-6 45s infinite;-ms-transform:translate(0,0)scale(0.37);-webkit-transform:translate(0,0)scale(0.37);transform:translate(0,0)scale(0.37)}.move-7{left:66px;top:7px;-webkit-animation:move-7 45s infinite;animation:move-7 45s infinite;-ms-transform:translate(0,0)scale(0.12);-webkit-transform:translate(0,0)scale(0.12);transform:translate(0,0)scale(0.12)}.move-8{left:7px;top:61px;-webkit-animation:move-8 45s infinite;animation:move-8 45s infinite;-ms-transform:translate(0,0)scale(0.07);-webkit-transform:translate(0,0)scale(0.07);transform:translate(0,0)scale(0.07)}.move-9{left:89px;top:3px;-webkit-animation:move-9 45s infinite;animation:move-9 45s infinite;-ms-transform:translate(0,0)scale(0.4);-webkit-transform:translate(0,0)scale(0.4);transform:translate(0,0)scale(0.4)}.move-10{left:51px;top:8px;-webkit-animation:move-10 45s infinite;animation:move-10 45s infinite;-ms-transform:translate(0,0)scale(1.04);-webkit-transform:translate(0,0)scale(1.04);transform:translate(0,0)scale(1.04)}.move-11{left:3px;top:79px;-webkit-animation:move-11 45s infinite;animation:move-11 45s infinite;-ms-transform:translate(0,0)scale(0.37);-webkit-transform:translate(0,0)scale(0.37);transform:translate(0,0)scale(0.37)}.move-12{left:6px;top:21px;-webkit-animation:move-12 45s infinite;animation:move-12 45s infinite;-ms-transform:translate(0,0)scale(1.24);-webkit-transform:translate(0,0)scale(1.24);transform:translate(0,0)scale(1.24)}.move-13{left:78px;top:66px;-webkit-animation:move-13 45s infinite;animation:move-13 45s infinite;-ms-transform:translate(0,0)scale(1.39);-webkit-transform:translate(0,0)scale(1.39);transform:translate(0,0)scale(1.39)}.move-14{left:80px;top:62px;-webkit-animation:move-14 45s infinite;animation:move-14 45s infinite;-ms-transform:translate(0,0)scale(1.45);-webkit-transform:translate(0,0)scale(1.45);transform:translate(0,0)scale(1.45)}@-webkit-keyframes move-1{43%{-webkit-transform:translate(-96px,-21px);transform:translate(-96px,-21px)}}@keyframes move-1{43%{-webkit-transform:translate(-96px,-21px);transform:translate(-96px,-21px)}}@-webkit-keyframes move-2{60%{-webkit-transform:translate(-59px,-40px);transform:translate(-59px,-40px)}}@keyframes move-2{60%{-webkit-transform:translate(-59px,-40px);transform:translate(-59px,-40px)}}@-webkit-keyframes move-3{37%{-webkit-transform:translate(-31px,-55px);transform:translate(-31px,-55px)}}@keyframes move-3{37%{-webkit-transform:translate(-31px,-55px);transform:translate(-31px,-55px)}}@-webkit-keyframes move-4{37%{-webkit-transform:translate(-62px,-35px);transform:translate(-62px,-35px)}}@keyframes move-4{37%{-webkit-transform:translate(-62px,-35px);transform:translate(-62px,-35px)}}@-webkit-keyframes move-5{47%{-webkit-transform:translate(-88px,-96px);transform:translate(-88px,-96px)}}@keyframes move-5{47%{-webkit-transform:translate(-88px,-96px);transform:translate(-88px,-96px)}}@-webkit-keyframes move-6{59%{-webkit-transform:translate(-96px,-62px);transform:translate(-96px,-62px)}}@keyframes move-6{59%{-webkit-transform:translate(-96px,-62px);transform:translate(-96px,-62px)}}@-webkit-keyframes move-7{44%{-webkit-transform:translate(-83px,-32px);transform:translate(-83px,-32px)}}@keyframes move-7{44%{-webkit-transform:translate(-83px,-32px);transform:translate(-83px,-32px)}}@-webkit-keyframes move-8{33%{-webkit-transform:translate(-75px,-80px);transform:translate(-75px,-80px)}}@keyframes move-8{33%{-webkit-transform:translate(-75px,-80px);transform:translate(-75px,-80px)}}@-webkit-keyframes move-9{44%{-webkit-transform:translate(-54px,-76px);transform:translate(-54px,-76px)}}@keyframes move-9{44%{-webkit-transform:translate(-54px,-76px);transform:translate(-54px,-76px)}}@-webkit-keyframes move-10{41%{-webkit-transform:translate(-78px,-24px);transform:translate(-78px,-24px)}}@keyframes move-10{41%{-webkit-transform:translate(-78px,-24px);transform:translate(-78px,-24px)}}@-webkit-keyframes move-11{60%{-webkit-transform:translate(-75px,-9px);transform:translate(-75px,-9px)}}@keyframes move-11{60%{-webkit-transform:translate(-75px,-9px);transform:translate(-75px,-9px)}}@-webkit-keyframes move-12{34%{-webkit-transform:translate(-34px,-62px);transform:translate(-34px,-62px)}}@keyframes move-12{34%{-webkit-transform:translate(-34px,-62px);transform:translate(-34px,-62px)}}@-webkit-keyframes move-13{48%{-webkit-transform:translate(-25px,-41px);transform:translate(-25px,-41px)}}@keyframes move-13{48%{-webkit-transform:translate(-25px,-41px);transform:translate(-25px,-41px)}}@-webkit-keyframes move-14{43%{-webkit-transform:translate(-71px,-38px);transform:translate(-71px,-38px)}}@keyframes move-14{43%{-webkit-transform:translate(-71px,-38px);transform:translate(-71px,-38px)}}.bubble-5{-webkit-animation:move-5 20s infinite alternate both;animation:move-5 20s infinite alternate both;-ms-transform:translate(0,0)scale(1.95);-webkit-transform:translate(0,0)scale(1.95);transform:translate(0,0)scale(1.95)}@keyframes move-5{0%{-webkit-transform:translate(0,0);transform:translate(0,0)}100%{-webkit-transform:translate(-50%,-50%);transform:translate(-50%,-50%)}}._windmill{-webkit-transform:translate3d(0,0,0);-webkit-transform-origin:500px;-webkit-transform:translate3d(0,0,0);-webkit-animation:rotate-right 2s linear 0s infinite}@-webkit-keyframes rotate-right{0%{-webkit-transform:rotate(0deg);transform:rotate(0deg)}100%{-webkit-transform:rotate(1turn);transform:rotate(1turn)}}@keyframes rotate-right{0%{-webkit-transform:rotate(0deg);transform:rotate(0deg)}100%{-webkit-transform:rotate(1turn);transform:rotate(1turn)}}@-webkit-keyframes scale-down-center{0%{-webkit-transform:scale(1);transform:scale(1)}100%{-webkit-transform:scale(.5);transform:scale(.5)}}@keyframes scale-down-center{0%{-webkit-transform:scale(1);transform:scale(1)}100%{-webkit-transform:scale(.5);transform:scale(.5)}}@-webkit-keyframes wind{0%{-webkit-transform:rotate(0deg);transform:rotate(0deg)}25%{-webkit-transform:rotate(1deg);transform:rotate(1deg)}75%{-webkit-transform:rotate(-1deg);transform:rotate(-1deg)}}@keyframes wind{0%{-webkit-transform:rotate(0deg);transform:rotate(0deg)}25%{-webkit-transform:rotate(1deg);transform:rotate(1deg)}75%{-webkit-transform:rotate(-1deg);transform:rotate(-1deg)}}@-webkit-keyframes heartbeat{0%{-webkit-transform:scale(1);transform:scale(1)}10%{-webkit-transform:scale(1.1);transform:scale(1.1)}30%{-webkit-transform:scale(1);transform:scale(1)}40%{-webkit-transform:scale(1);transform:scale(1)}50%{-webkit-transform:scale(1.1);transform:scale(1.1)}60%{-webkit-transform:scale(1);transform:scale(1)}100%{-webkit-transform:scale(1);transform:scale(1)}}@keyframes heartbeat{0%{-webkit-transform:scale(1);transform:scale(1)}10%{-webkit-transform:scale(1.1);transform:scale(1.1)}30%{-webkit-transform:scale(1);transform:scale(1)}40%{-webkit-transform:scale(1);transform:scale(1)}50%{-webkit-transform:scale(1.1);transform:scale(1.1)}60%{-webkit-transform:scale(1);transform:scale(1)}100%{-webkit-transform:scale(1);transform:scale(1)}}@-webkit-keyframes floating{0%{opacity:1;-webkit-transform:translateY(0px);transform:translateY(0px)}50%{-webkit-transform:translateY(-20px);transform:translateY(-20px)}100%{opacity:1;-webkit-transform:translateY(0px);transform:translateY(0px)}}@keyframes floating{0%{opacity:1;-webkit-transform:translateY(0px);transform:translateY(0px)}50%{-webkit-transform:translateY(-20px);transform:translateY(-20px)}100%{opacity:1;-webkit-transform:translateY(0px);transform:translateY(0px)}}
</style>
<g class="wind">
<path d="M1776.26 936.603H1737.51C1736.43 936.603 1735.75 935.449 1736.29 934.528L1755.66 901.582L1775.04 868.636C1775.58 867.715 1776.93 867.715 1777.48 868.636L1796.85 901.582L1816.23 934.528C1816.77 935.449 1816.09 936.603 1815.01 936.603H1776.26" fill="#0693E3"/>
<path d="M1755.16 947.304H1716.41C1715.33 947.304 1714.65 946.152 1715.19 945.23L1734.56 912.284L1753.94 879.337C1754.48 878.415 1755.84 878.415 1756.38 879.337L1775.75 912.284L1795.13 945.23C1795.67 946.152 1794.99 947.304 1793.91 947.304H1755.16Z" stroke="#100F0D" stroke-width="1.90235" stroke-miterlimit="10"/>
</g>
<path d="M169.541 192.454L0 0.0177271H395L169.541 192.454Z" fill="#FEE13E" fill-opacity="0.04"/>
<g class="move-12">
<path d="M86.7333 550.413L74.7864 560.585L64.4263 548.855L52.5867 558.935L62.9468 570.664L51 580.837L61.2667 592.461L73.2135 582.288L83.574 594.019L95.4129 583.938L85.0528 572.208L97 562.038L86.7333 550.413Z" stroke="#0693E3" stroke-width="1.92504" stroke-miterlimit="10"/></g>

<g class="move-3"><path d="M202.835 893.135H197.823V888.401H193V883.48H197.823V878.745H202.835V883.48H207.657V888.401H202.835V893.135Z" fill="#0693E3"/></g>
<g class="floating"><path d="M1705.3 321.564L1730.72 415.679L1801.02 347.006L1705.3 321.564Z" fill="#FEE13E"/></g>
<g class="move-10"><path fill-rule="evenodd" clip-rule="evenodd" d="M318.639 673.641H305V660H318.641V673.64H351.366V706.367H318.639V673.641Z" fill="#FEE13E"/></g>
<g class="move-11"><path d="M213.5 356.751C213.5 359.926 210.925 362.5 207.749 362.5C204.575 362.5 202 359.926 202 356.751C202 353.575 204.575 351 207.749 351C210.925 351 213.5 353.575 213.5 356.751Z" fill="#0693E3"/></g>
<g class="move-14"><path d="M1803.78 656.889C1803.78 662.902 1798.9 667.778 1792.89 667.778C1786.87 667.778 1782 662.902 1782 656.889C1782 650.876 1786.87 646 1792.89 646C1798.9 646 1803.78 650.876 1803.78 656.889Z" stroke="#FEE13E" stroke-width="5.33333" stroke-miterlimit="10" stroke-linecap="round" stroke-linejoin="round"/></g>
<g class="move-8"><path d="M1527.43 606.666H1528.76V600.234H1522.33V601.567H1523.67V600.432H1522.33V601.766H1528.76V595.334H1527.43V596.667H1528.57V595.334H1527.23V601.766H1533.67V600.432H1532.33V601.567H1533.67V600.234H1527.23V606.666H1528.57V605.332H1527.43V606.666H1528.76H1527.43V607.999H1528.57H1529.9V602.9H1535V599.099H1529.9V594H1526.1V599.099H1521V602.9H1526.1V607.999H1527.43V606.666Z" fill="#0693E3"/></g>
<g class="bubble-5"><path d="M1593.94 1017.12L1575.12 1035.94C1574.82 1036.24 1574.34 1036.24 1574.04 1035.94L1555.22 1017.12C1554.93 1016.82 1554.93 1016.34 1555.22 1016.04L1574.04 997.223C1574.34 996.926 1574.82 996.926 1575.12 997.223L1593.94 1016.04C1594.24 1016.34 1594.24 1016.82 1593.94 1017.12Z" fill="#FEE13E"/></g>
<path d="M1747 98.6663C1747.55 98.6716 1747.98 98.8303 1748.47 99.1956C1749.33 99.8263 1750.21 101.213 1750.99 102.978C1752.18 105.624 1753.18 109.018 1754.5 111.853C1755.17 113.272 1755.91 114.568 1756.89 115.586C1757.39 116.094 1757.95 116.532 1758.6 116.844C1759.24 117.157 1759.97 117.334 1760.73 117.333C1761.9 117.338 1762.97 116.913 1763.82 116.258C1765.32 115.102 1766.29 113.362 1767.16 111.444C1768.44 108.561 1769.45 105.173 1770.65 102.606C1771.25 101.326 1771.89 100.266 1772.54 99.605C1772.86 99.273 1773.18 99.0383 1773.49 98.8903C1773.8 98.7409 1774.11 98.6676 1774.47 98.6663C1775.02 98.6716 1775.45 98.8303 1775.94 99.1956C1776.8 99.8263 1777.68 101.213 1778.46 102.978C1779.65 105.624 1780.65 109.018 1781.97 111.853C1782.64 113.272 1783.38 114.568 1784.37 115.586C1784.86 116.094 1785.42 116.532 1786.07 116.844C1786.72 117.157 1787.45 117.334 1788.21 117.333C1789.38 117.338 1790.45 116.913 1791.3 116.258C1792.79 115.102 1793.77 113.364 1794.64 111.444C1795.92 108.562 1796.93 105.173 1798.13 102.606C1798.73 101.326 1799.37 100.266 1800.02 99.605C1800.35 99.273 1800.66 99.0396 1800.97 98.8903C1801.28 98.7409 1801.59 98.6676 1801.95 98.6663C1802.51 98.6716 1802.94 98.8303 1803.43 99.1956C1804.28 99.8263 1805.17 101.213 1805.94 102.978C1807.13 105.624 1808.14 109.018 1809.46 111.853C1810.12 113.272 1810.86 114.568 1811.85 115.586C1812.35 116.094 1812.91 116.532 1813.55 116.844C1814.2 117.157 1814.93 117.334 1815.69 117.333C1816.86 117.338 1817.93 116.913 1818.78 116.258C1820.28 115.102 1821.25 113.364 1822.12 111.444C1823.41 108.562 1824.41 105.174 1825.62 102.608C1826.21 101.326 1826.86 100.266 1827.51 99.605C1827.83 99.273 1828.15 99.0396 1828.46 98.8903C1828.77 98.7409 1829.08 98.6676 1829.44 98.6663C1829.99 98.6716 1830.43 98.8303 1830.92 99.1956C1831.77 99.8263 1832.66 101.213 1833.44 102.978C1834.63 105.624 1835.63 109.018 1836.95 111.853C1837.62 113.273 1838.36 114.568 1839.35 115.588C1839.84 116.094 1840.4 116.532 1841.05 116.844C1841.7 117.157 1842.43 117.334 1843.19 117.333V114.666C1842.64 114.66 1842.21 114.501 1841.72 114.136C1840.86 113.505 1839.98 112.118 1839.2 110.353C1838.01 107.708 1837 104.313 1835.68 101.478C1835.02 100.06 1834.27 98.7636 1833.29 97.7449C1832.79 97.2369 1832.23 96.7996 1831.58 96.4876C1830.94 96.1743 1830.2 95.997 1829.44 95.9996C1828.28 95.993 1827.2 96.4183 1826.35 97.073C1824.86 98.229 1823.89 99.9676 1823.01 101.888C1821.73 104.77 1820.72 108.158 1819.52 110.725C1818.92 112.005 1818.28 113.065 1817.63 113.726C1817.3 114.058 1816.99 114.293 1816.68 114.441C1816.36 114.59 1816.06 114.664 1815.69 114.666C1815.14 114.66 1814.71 114.501 1814.22 114.136C1813.37 113.505 1812.48 112.118 1811.7 110.353C1810.51 107.708 1809.51 104.313 1808.19 101.48C1807.53 100.06 1806.78 98.7636 1805.8 97.7449C1805.3 97.2369 1804.74 96.7996 1804.09 96.4876C1803.45 96.1743 1802.72 95.997 1801.95 95.9996C1800.79 95.993 1799.72 96.4183 1798.87 97.073C1797.37 98.229 1796.4 99.9689 1795.53 101.888C1794.24 104.77 1793.24 108.158 1792.03 110.725C1791.44 112.006 1790.79 113.065 1790.14 113.726C1789.82 114.06 1789.5 114.293 1789.19 114.442C1788.88 114.59 1788.57 114.664 1788.21 114.666C1787.66 114.66 1787.23 114.501 1786.74 114.136C1785.88 113.505 1785 112.118 1784.22 110.353C1783.03 107.708 1782.03 104.314 1780.71 101.48C1780.04 100.06 1779.3 98.7636 1778.31 97.7449C1777.82 97.2369 1777.26 96.7996 1776.61 96.4876C1775.96 96.1743 1775.23 95.997 1774.47 95.9996C1773.31 95.993 1772.23 96.4183 1771.38 97.073C1769.89 98.229 1768.92 99.9689 1768.05 101.889C1766.76 104.77 1765.76 108.158 1764.55 110.725C1763.96 112.006 1763.31 113.066 1762.67 113.726C1762.34 114.06 1762.03 114.293 1761.72 114.442C1761.4 114.59 1761.1 114.664 1760.73 114.666C1760.18 114.66 1759.75 114.501 1759.26 114.136C1758.41 113.505 1757.53 112.118 1756.75 110.354C1755.56 107.709 1754.55 104.314 1753.24 101.48C1752.57 100.06 1751.83 98.7636 1750.84 97.7449C1750.35 97.2369 1749.79 96.7996 1749.14 96.4876C1748.49 96.1743 1747.76 95.997 1747 95.9996V98.6663" fill="#0693E3"/>
<g class="scale-down-center"><path d="M409.169 532.449L353.551 476.83C352.816 476.096 352.816 474.904 353.551 474.17L409.169 418.551C409.904 417.816 411.096 417.816 411.83 418.551L467.448 474.17C468.184 474.904 468.184 476.096 467.448 476.83L411.83 532.449C411.096 533.184 409.904 533.184 409.169 532.449Z" stroke="#FEE13E" stroke-width="2.66667" stroke-miterlimit="10"/></g>
<g class="floating"><path fill-rule="evenodd" clip-rule="evenodd" d="M611.88 86.3574C612.819 86.3598 613.644 85.5799 613.713 84.5704L613.717 84.4467C613.718 83.4841 612.92 82.6621 611.848 82.6068H611.843H611.839L611.692 82.6009C611.197 82.6009 610.758 82.8135 610.437 83.1524C610.117 83.4913 609.922 83.9516 609.923 84.4226L609.924 84.4719V84.4731C609.954 85.5234 610.774 86.2564 611.8 86.355L611.8 86.3553L611.88 86.3574ZM614.318 84.4467L614.313 84.6125C614.22 85.9248 613.156 86.9546 611.88 86.9582L611.758 86.9546H611.752L611.746 86.9534C610.466 86.8441 609.361 85.8731 609.324 84.4887L609.322 84.4226C609.325 83.156 610.341 82.006 611.692 82L611.889 82.0072L611.889 82.0077C613.25 82.0777 614.317 83.1438 614.318 84.4467ZM600.596 85.4335C600.619 85.5513 600.629 85.6679 600.63 85.7832C600.63 86.163 600.512 86.521 600.313 86.8131L600.31 86.8155L600.309 86.8179C600.041 87.2289 599.643 87.5605 599.171 87.6771H599.169C599.023 87.7144 598.878 87.7324 598.735 87.7324C597.929 87.7348 597.152 87.1664 596.91 86.3156C596.863 86.1545 596.841 85.9935 596.841 85.8349C596.841 85.0237 597.42 84.2582 598.329 84.0251H598.326C598.505 83.9806 598.682 83.959 598.852 83.959C599.198 83.9602 599.515 84.0482 599.784 84.2181L599.784 84.2186C600.205 84.4998 600.5 84.9264 600.596 85.4335ZM601.188 85.323C601.06 84.65 600.664 84.0828 600.118 83.7187L600.115 83.7163L600.112 83.7151C599.74 83.4772 599.303 83.3582 598.852 83.3582C598.632 83.3582 598.406 83.387 598.181 83.4423L598.18 83.4435C597.021 83.7391 596.24 84.7341 596.24 85.8349C596.24 86.0488 596.27 86.2663 596.332 86.4814C596.65 87.5882 597.65 88.332 598.735 88.3332C598.928 88.3332 599.124 88.3092 599.318 88.2599H599.315C599.968 88.0971 600.475 87.66 600.809 87.1518L600.809 87.1519C601.075 86.7614 601.23 86.2867 601.23 85.7832C601.231 85.6318 601.216 85.4768 601.188 85.323ZM588.308 90.4143C588.308 90.1391 588.249 89.8591 588.127 89.5911C587.823 88.935 587.167 88.5541 586.447 88.5529C586.146 88.5529 585.838 88.6189 585.541 88.7631L585.536 88.7655L585.532 88.7667C585.044 88.9842 584.724 89.4073 584.591 89.8951L584.59 89.9C584.541 90.0706 584.517 90.246 584.517 90.4215C584.517 90.7387 584.597 91.0524 584.764 91.342C585.024 91.7902 585.439 92.0859 585.887 92.2084C586.046 92.2485 586.213 92.2685 586.383 92.2685C586.687 92.2685 587.002 92.2036 587.307 92.069L587.307 92.0691C587.936 91.7631 588.307 91.1113 588.308 90.4143ZM586.447 87.952C587.378 87.9496 588.264 88.4555 588.671 89.3387C588.832 89.6872 588.909 90.055 588.909 90.4143C588.909 91.3276 588.416 92.2024 587.558 92.6158L587.554 92.617L587.549 92.6194C587.171 92.7852 586.774 92.8694 586.383 92.8694C586.163 92.8694 585.945 92.8429 585.733 92.7889H585.731L585.729 92.7877C585.135 92.6254 584.587 92.2337 584.245 91.6424C584.023 91.2615 583.916 90.8397 583.916 90.4215C583.916 90.1895 583.948 89.9588 584.012 89.7353L584.012 89.7353C584.184 89.0955 584.621 88.5161 585.288 88.2176L585.288 88.2177C585.664 88.0371 586.061 87.952 586.447 87.952ZM577.045 96.6605C577.35 97.0331 577.5 97.4933 577.5 97.9464C577.5 98.4751 577.296 98.9858 576.905 99.3415C576.564 99.6516 576.121 99.8066 575.666 99.8066C575.151 99.8078 574.628 99.6071 574.239 99.2142C573.902 98.8753 573.738 98.4426 573.738 97.9968C573.738 97.4849 573.956 96.9573 574.399 96.5548C574.789 96.2003 575.259 96.0296 575.712 96.0296C576.219 96.0308 576.702 96.2411 577.045 96.6605ZM577.511 96.2808C577.052 95.7172 576.387 95.4276 575.712 95.4288C575.107 95.4288 574.492 95.6571 573.995 96.1101C573.43 96.6233 573.137 97.313 573.137 97.9968C573.136 98.5917 573.361 99.1841 573.812 99.6384C574.32 100.149 574.997 100.407 575.666 100.407C576.258 100.409 576.849 100.204 577.309 99.7862C577.837 99.3055 578.101 98.6277 578.101 97.9464C578.101 97.3611 577.906 96.7663 577.511 96.2808ZM568.91 107.844C568.909 107.273 568.654 106.715 568.136 106.331C567.821 106.098 567.441 105.982 567.056 105.982C566.448 105.983 565.84 106.269 565.47 106.828C565.262 107.169 565.165 107.54 565.165 107.901C565.167 108.548 565.477 109.153 566.04 109.488C566.355 109.676 566.7 109.765 567.036 109.765C567.661 109.765 568.251 109.463 568.581 108.917L568.584 108.911L568.587 108.908C568.803 108.581 568.91 108.211 568.91 107.844ZM568.494 105.849L568.494 105.848C568.069 105.533 567.562 105.381 567.056 105.381C566.26 105.381 565.456 105.761 564.967 106.497L564.963 106.502L564.961 106.507C564.693 106.945 564.564 107.429 564.564 107.901C564.563 108.741 564.975 109.553 565.732 110.005C566.142 110.249 566.594 110.367 567.036 110.365C567.854 110.367 568.648 109.965 569.095 109.229L569.095 109.229C569.371 108.806 569.511 108.323 569.511 107.844C569.512 107.094 569.166 106.344 568.494 105.849ZM561.851 117.873C562.612 118.179 563.087 118.919 563.085 119.667C563.085 119.867 563.052 120.069 562.981 120.264L562.981 120.264C562.694 121.021 561.921 121.525 561.119 121.523C560.939 121.523 560.759 121.498 560.58 121.445C559.794 121.213 559.308 120.522 559.306 119.741C559.306 119.515 559.347 119.282 559.436 119.049L559.437 119.044V119.045C559.735 118.231 560.457 117.744 561.201 117.745C561.417 117.745 561.636 117.785 561.851 117.873ZM562.076 117.315C561.79 117.2 561.493 117.143 561.201 117.144C560.194 117.144 559.252 117.799 558.872 118.839L558.873 118.839C558.759 119.138 558.705 119.443 558.705 119.741C558.703 120.777 559.367 121.717 560.412 122.022C560.646 122.091 560.884 122.124 561.119 122.124C562.166 122.122 563.154 121.484 563.542 120.48L563.543 120.476C563.641 120.211 563.686 119.937 563.686 119.667C563.685 118.669 563.066 117.718 562.076 117.315ZM558.665 130.626L558.704 130.328L558.664 130.626L558.436 130.61C557.512 130.61 556.612 131.344 556.604 132.335V132.343V132.348L556.601 132.458C556.603 133.523 557.384 134.373 558.37 134.404L558.438 134.405C559.445 134.405 560.283 133.642 560.337 132.693L560.337 132.693V132.669C560.33 131.639 559.711 130.766 558.665 130.626ZM558.745 130.03L558.745 130.03L558.436 130.009C557.211 130.011 556.031 130.961 556.004 132.326L556.004 132.326L556 132.458C555.998 133.819 557.017 134.958 558.351 135.005L558.438 135.006C559.757 135.006 560.872 134.004 560.938 132.705V132.696V132.687V132.669C560.946 131.399 560.119 130.211 558.745 130.03ZM558.704 143.471L558.74 143.769L558.973 143.755C559.918 143.754 560.75 144.432 560.883 145.327V145.326L560.902 145.583C560.905 146.47 560.236 147.321 559.337 147.514C559.204 147.544 559.074 147.558 558.947 147.558C558.08 147.555 557.334 146.922 557.189 145.959V145.958C557.172 145.848 557.163 145.741 557.163 145.635C557.167 144.667 557.825 143.876 558.739 143.769L558.704 143.471ZM558.669 143.173C557.434 143.317 556.56 144.392 556.563 145.635C556.563 145.771 556.573 145.909 556.595 146.048V146.047C556.773 147.282 557.775 148.161 558.947 148.158C559.117 148.158 559.292 148.14 559.466 148.102C560.651 147.838 561.498 146.764 561.501 145.583C561.503 145.469 561.494 145.355 561.477 145.24V145.237C561.289 144.023 560.2 143.156 558.973 143.155L558.669 143.173ZM661.571 149.648C660.716 149.422 660.148 148.665 660.15 147.867C660.15 147.724 660.168 147.58 660.205 147.436L660.207 147.429L660.209 147.423C660.396 146.544 661.143 145.917 662.044 145.916L662.36 145.941C663.233 146.078 663.918 146.887 663.916 147.805C663.916 147.929 663.903 148.057 663.878 148.186L663.877 148.186C663.643 149.106 662.852 149.708 662.021 149.707C661.872 149.707 661.722 149.688 661.571 149.648ZM661.417 150.229C661.618 150.281 661.821 150.308 662.021 150.308C663.143 150.307 664.16 149.509 664.46 148.335L664.461 148.327L664.463 148.323C664.5 148.148 664.517 147.975 664.517 147.805C664.514 146.591 663.633 145.539 662.455 145.348C662.316 145.326 662.178 145.315 662.044 145.315C660.86 145.315 659.869 146.146 659.624 147.284L659.623 147.284C659.573 147.479 659.549 147.674 659.549 147.867C659.55 148.949 660.303 149.934 661.417 150.229ZM656.851 161.916C656.217 161.563 655.832 160.858 655.833 160.16C655.833 159.89 655.89 159.622 656.008 159.374C656.316 158.73 656.997 158.342 657.718 158.341C657.986 158.342 658.257 158.395 658.517 158.508C659.181 158.799 659.566 159.444 659.567 160.159C659.567 160.452 659.501 160.756 659.36 161.051C659.021 161.756 658.376 162.144 657.71 162.145C657.422 162.144 657.13 162.072 656.851 161.916ZM656.557 162.44C656.924 162.647 657.321 162.746 657.71 162.746C658.613 162.746 659.472 162.212 659.901 161.31C660.081 160.937 660.168 160.542 660.168 160.159C660.17 159.228 659.652 158.348 658.757 157.958C658.421 157.811 658.066 157.74 657.718 157.741C656.785 157.74 655.886 158.244 655.466 159.115L655.457 159.133L655.466 159.116C655.307 159.449 655.232 159.807 655.232 160.16C655.234 161.072 655.72 161.969 656.557 162.44ZM648.533 171.148C648.533 171.66 648.738 172.182 649.144 172.567C649.484 172.892 649.916 173.051 650.362 173.052C650.888 173.051 651.43 172.827 651.837 172.379L651.84 172.375L651.843 172.372C652.179 172.024 652.331 171.593 652.332 171.157C652.332 170.606 652.081 170.057 651.633 169.709C651.276 169.43 650.875 169.305 650.47 169.304C649.936 169.304 649.397 169.528 648.992 169.94L648.992 169.94C648.684 170.277 648.533 170.707 648.533 171.148ZM650.362 173.653C649.773 173.653 649.184 173.437 648.728 173.002C648.201 172.499 647.932 171.821 647.932 171.148C647.93 170.569 648.134 169.989 648.547 169.536L648.551 169.531L648.554 169.527C649.07 169 649.763 168.703 650.47 168.703C651.001 168.703 651.542 168.873 652.003 169.235C652.604 169.705 652.933 170.426 652.933 171.157C652.934 171.733 652.725 172.321 652.282 172.782L652.282 172.783C651.763 173.355 651.059 173.653 650.362 173.653ZM639.068 181.008C638.868 180.692 638.775 180.345 638.775 180.004C638.775 179.87 638.789 179.739 638.817 179.612V179.614C638.919 179.164 639.19 178.748 639.599 178.419L639.599 178.418C639.91 178.188 640.275 178.077 640.647 178.077C641.215 178.077 641.791 178.339 642.174 178.837C642.422 179.158 642.54 179.534 642.541 179.917C642.541 180.506 642.257 181.108 641.715 181.513L641.712 181.515L641.707 181.518C641.402 181.762 641.039 181.871 640.669 181.871C640.535 181.871 640.399 181.857 640.268 181.828C639.776 181.726 639.344 181.443 639.068 181.008ZM638.561 181.33C638.927 181.908 639.504 182.284 640.145 182.417C640.314 182.453 640.491 182.472 640.669 182.472C641.155 182.472 641.655 182.326 642.074 181.993L642.075 181.994C642.767 181.477 643.142 180.697 643.142 179.917C643.142 179.409 642.982 178.898 642.65 178.469C642.149 177.821 641.398 177.476 640.647 177.476C640.151 177.475 639.651 177.628 639.23 177.944L639.227 177.946L639.222 177.951C638.723 178.352 638.366 178.882 638.23 179.481V179.483C638.193 179.654 638.174 179.828 638.174 180.004C638.174 180.454 638.298 180.916 638.561 181.33ZM627.124 186.098C627.124 186.298 627.154 186.503 627.218 186.702C627.457 187.456 628.148 187.919 628.939 187.922C629.171 187.922 629.411 187.881 629.65 187.793C630.453 187.499 630.923 186.799 630.923 186.075C630.923 185.851 630.878 185.624 630.782 185.401C630.46 184.647 629.703 184.174 628.949 184.175C628.743 184.175 628.539 184.21 628.34 184.282C627.604 184.549 627.124 185.297 627.124 186.098ZM628.939 188.523C627.91 188.525 626.966 187.9 626.645 186.884C626.563 186.624 626.523 186.358 626.523 186.098C626.525 185.063 627.138 184.085 628.134 183.718C628.4 183.621 628.676 183.574 628.949 183.574C629.948 183.576 630.911 184.185 631.335 185.164C631.462 185.462 631.524 185.771 631.524 186.075C631.524 187.063 630.881 187.983 629.857 188.358C629.552 188.47 629.242 188.523 628.939 188.523ZM614.313 189.191L614.31 189.081C614.311 188.086 615.054 187.288 616.003 187.222L616.016 187.221L616.028 187.218L616.291 187.198C617.156 187.197 617.938 187.861 618.082 188.798L618.102 189.068C618.105 189.969 617.401 190.791 616.399 190.948L616.26 190.953C615.22 190.953 614.364 190.161 614.313 189.191ZM613.714 189.224C613.787 190.534 614.915 191.553 616.26 191.554L616.452 191.547L616.465 191.546L616.477 191.544C617.761 191.351 618.702 190.291 618.703 189.068C618.703 188.949 618.695 188.828 618.676 188.707C618.487 187.487 617.467 186.598 616.291 186.597C616.177 186.597 616.061 186.606 615.943 186.623C614.68 186.72 613.708 187.787 613.709 189.081L613.714 189.224ZM603.07 186.88C602.195 186.877 601.367 187.549 601.185 188.482C601.162 188.596 601.152 188.709 601.152 188.819C601.152 189.685 601.813 190.457 602.793 190.609C602.901 190.626 603.008 190.633 603.113 190.633C604.075 190.629 604.847 189.973 604.936 189.059L604.945 188.865C604.948 187.899 604.242 187.035 603.333 186.9L603.07 186.88ZM600.597 188.364L600.596 188.364C600.565 188.518 600.551 188.669 600.551 188.819C600.551 189.998 601.451 191.014 602.703 191.202C602.841 191.224 602.978 191.234 603.113 191.234C604.354 191.238 605.416 190.355 605.534 189.115L605.546 188.865C605.544 187.614 604.655 186.499 603.424 186.307C603.305 186.289 603.186 186.279 603.07 186.279C601.891 186.283 600.837 187.153 600.597 188.364ZM588.401 184.338L588.672 184.468C589.002 183.779 589.671 183.386 590.354 183.386C590.605 183.386 590.859 183.439 591.1 183.552L591.112 183.557L591.124 183.562C591.837 183.82 592.283 184.511 592.283 185.269C592.283 185.489 592.245 185.715 592.165 185.936C591.897 186.675 591.176 187.135 590.376 187.137C590.141 187.137 589.902 187.097 589.664 187.013C588.924 186.671 588.496 185.953 588.497 185.236C588.497 184.975 588.553 184.714 588.672 184.469L588.401 184.338ZM588.13 184.208C587.971 184.537 587.896 184.888 587.896 185.236C587.896 186.191 588.46 187.12 589.414 187.56L589.425 187.566L589.437 187.569C589.746 187.683 590.064 187.738 590.376 187.738C591.404 187.739 592.367 187.137 592.73 186.142C592.834 185.853 592.884 185.559 592.884 185.269C592.885 184.283 592.302 183.359 591.346 183.003C591.026 182.856 590.688 182.785 590.354 182.785C589.442 182.785 588.561 183.31 588.13 184.208ZM579.066 176.807C578.488 176.806 577.898 177.059 577.507 177.524C577.231 177.855 577.101 178.238 577.101 178.626C577.101 179.181 577.37 179.747 577.896 180.144C578.268 180.421 578.688 180.554 579.093 180.554C579.667 180.552 580.204 180.294 580.544 179.8C580.78 179.455 580.895 179.058 580.895 178.666C580.893 178.079 580.639 177.516 580.166 177.162C579.848 176.923 579.462 176.807 579.066 176.807ZM576.5 178.626C576.499 178.102 576.679 177.575 577.048 177.137C577.561 176.528 578.316 176.206 579.066 176.206C579.58 176.206 580.097 176.359 580.527 176.682C581.164 177.159 581.496 177.908 581.496 178.666C581.496 179.174 581.347 179.691 581.04 180.139C580.585 180.805 579.849 181.156 579.093 181.155C578.559 181.155 578.009 180.98 577.535 180.625C576.865 180.121 576.499 179.376 576.5 178.626ZM568.486 167.958C568.834 167.708 569.236 167.589 569.63 167.589C570.195 167.589 570.735 167.833 571.083 168.292C571.342 168.669 571.478 169.103 571.478 169.522C571.477 170.044 571.276 170.544 570.833 170.934C570.499 171.229 570.055 171.384 569.611 171.384C569.056 171.383 568.515 171.146 568.171 170.653L568.169 170.65L568.165 170.645C567.883 170.269 567.749 169.838 567.749 169.423C567.75 168.846 568.003 168.304 568.486 167.958ZM568.136 167.469C567.487 167.934 567.147 168.67 567.148 169.423C567.148 169.967 567.325 170.524 567.683 171.002C568.148 171.667 568.887 171.986 569.611 171.985C570.194 171.985 570.776 171.783 571.229 171.386C571.804 170.884 572.08 170.202 572.079 169.522C572.079 168.974 571.904 168.425 571.578 167.95L571.574 167.946L571.572 167.942C571.103 167.314 570.371 166.987 569.63 166.988C569.114 166.988 568.589 167.144 568.136 167.469ZM562.76 156.354C562.535 156.354 562.305 156.394 562.069 156.486C561.379 156.749 560.891 157.468 560.894 158.199C560.894 158.46 560.954 158.723 561.086 158.977L561.089 158.982L561.091 158.987C561.442 159.716 562.138 160.132 562.835 160.132C563.103 160.132 563.371 160.072 563.624 159.943C564.299 159.601 564.695 158.918 564.695 158.234C564.694 157.98 564.64 157.726 564.527 157.487L564.527 157.487C564.155 156.792 563.483 156.352 562.76 156.354ZM560.293 158.199C560.297 157.208 560.923 156.289 561.852 155.926C562.154 155.808 562.461 155.753 562.76 155.753C563.733 155.753 564.596 156.338 565.058 157.204L565.059 157.208L565.063 157.215C565.22 157.541 565.296 157.891 565.296 158.234C565.294 159.146 564.775 160.032 563.896 160.479C563.557 160.651 563.194 160.733 562.835 160.733C561.9 160.733 560.999 160.18 560.553 159.251C560.375 158.913 560.293 158.551 560.293 158.199ZM626.644 86.9143C626.483 87.407 626.143 87.7783 625.733 87.9862L625.727 87.9886L625.72 87.9934C625.42 88.164 625.087 88.2578 624.751 88.2578C624.605 88.2578 624.458 88.2397 624.312 88.2025C623.499 87.997 622.936 87.2171 622.937 86.3555C622.937 86.2113 622.952 86.0647 622.985 85.9181C623.174 85.0853 623.925 84.5301 624.802 84.5277C624.974 84.5277 625.15 84.5493 625.329 84.595C625.861 84.733 626.278 85.056 626.516 85.4566L626.516 85.4566C626.66 85.733 626.735 86.0358 626.735 86.3423C626.735 86.5321 626.705 86.7244 626.644 86.9143ZM627.215 87.1005C627.297 86.8506 627.336 86.5946 627.336 86.3423C627.336 85.9361 627.235 85.5383 627.049 85.179L627.045 85.1742L627.042 85.167C626.721 84.6166 626.167 84.1912 625.48 84.0134C625.252 83.9545 625.024 83.9268 624.802 83.9268C623.671 83.9244 622.653 84.6599 622.4 85.7859C622.356 85.9758 622.336 86.1668 622.336 86.3555C622.336 87.4731 623.062 88.4993 624.163 88.7841C624.358 88.8346 624.556 88.8586 624.751 88.8586C625.195 88.8586 625.624 88.7363 626.005 88.5219L626.005 88.5222C626.552 88.2446 627.005 87.7495 627.215 87.1005ZM636.924 93.371C637.552 93.371 638.188 93.049 638.563 92.4686C638.753 92.1742 638.842 91.8509 638.842 91.524C638.842 90.8895 638.502 90.2478 637.869 89.8657L637.873 89.8669C637.539 89.6686 637.19 89.5689 636.859 89.5689C636.707 89.5689 636.56 89.5893 636.417 89.6314L636.416 89.6309C635.934 89.7779 635.528 90.0996 635.288 90.5555C635.143 90.8343 635.077 91.1287 635.075 91.4147C635.075 91.6021 635.104 91.786 635.158 91.959L635.16 91.9627C635.3 92.4301 635.584 92.8675 636.002 93.1139L636.004 93.1163C636.288 93.2881 636.604 93.3698 636.924 93.371ZM639.442 91.524C639.442 91.9615 639.321 92.4025 639.067 92.7942C638.578 93.5501 637.755 93.9707 636.924 93.9719C636.501 93.9719 636.073 93.8614 635.692 93.6294L635.692 93.6292C635.113 93.283 634.758 92.7118 634.584 92.1357C634.513 91.9048 634.475 91.6621 634.475 91.4147C634.475 91.0349 634.565 90.6432 634.756 90.2779C635.073 89.671 635.617 89.2444 636.246 89.0557L636.248 89.0545C636.448 88.9969 636.653 88.968 636.859 88.968C637.312 88.968 637.764 89.1038 638.178 89.3502L638.182 89.3514C638.987 89.8405 639.442 90.6744 639.442 91.524ZM648.73 100.793C648.352 101.143 647.906 101.302 647.458 101.302C646.974 101.303 646.487 101.114 646.101 100.757L646.099 100.756C645.718 100.411 645.525 99.9306 645.525 99.4343C645.525 98.98 645.687 98.5186 646.017 98.1472C646.368 97.7507 646.856 97.5512 647.366 97.5512C647.845 97.5512 648.338 97.7291 648.738 98.0944L648.736 98.092C649.126 98.4549 649.31 98.9391 649.311 99.4294C649.311 99.9414 649.106 100.447 648.73 100.793ZM649.138 101.234C649.647 100.765 649.911 100.099 649.912 99.4294C649.912 98.7889 649.666 98.1352 649.144 97.6522L649.143 97.6497C648.632 97.1835 647.993 96.9503 647.366 96.9503C646.699 96.9491 646.038 97.2171 645.568 97.7483C645.138 98.2325 644.924 98.837 644.924 99.4343C644.923 100.087 645.182 100.736 645.697 101.201L645.694 101.2C646.187 101.655 646.818 101.903 647.458 101.903C648.051 101.904 648.652 101.686 649.138 101.234ZM655.597 111.602C655.924 111.602 656.255 111.524 656.558 111.36C657.142 111.042 657.461 110.456 657.462 109.817C657.462 109.471 657.367 109.11 657.163 108.774C656.784 108.152 656.162 107.821 655.545 107.821C655.215 107.822 654.885 107.916 654.587 108.116C654.018 108.501 653.7 109.146 653.7 109.781C653.7 110.109 653.785 110.431 653.959 110.718C654.299 111.279 654.933 111.602 655.597 111.602ZM658.063 109.817C658.064 110.658 657.63 111.464 656.844 111.889C656.45 112.101 656.02 112.203 655.597 112.203C654.742 112.203 653.907 111.789 653.445 111.029C653.21 110.644 653.1 110.211 653.1 109.781C653.101 108.949 653.509 108.121 654.251 107.619C654.649 107.35 655.099 107.22 655.545 107.22C656.377 107.22 657.194 107.668 657.676 108.462C657.936 108.89 658.063 109.36 658.063 109.817ZM661.426 123.57C661.266 123.61 661.107 123.628 660.951 123.628C660.112 123.628 659.363 123.086 659.161 122.287L659.159 122.282L659.158 122.28C659.107 122.095 659.081 121.908 659.08 121.726C659.084 120.944 659.53 120.229 660.34 119.94C660.532 119.87 660.733 119.838 660.933 119.838C661.723 119.838 662.503 120.349 662.742 121.181L662.742 121.181C662.789 121.36 662.81 121.539 662.81 121.714C662.809 122.596 662.254 123.366 661.426 123.57ZM661.57 124.153C662.688 123.875 663.412 122.847 663.411 121.714C663.411 121.489 663.382 121.259 663.323 121.03L663.322 121.027L663.321 121.023C663.001 119.91 661.977 119.237 660.933 119.237C660.666 119.237 660.397 119.28 660.138 119.374C659.084 119.746 658.477 120.713 658.481 121.726C658.479 121.961 658.512 122.199 658.578 122.435C658.857 123.521 659.856 124.23 660.951 124.229C661.156 124.229 661.363 124.205 661.57 124.153ZM663.198 136.6H663.211C664.19 136.599 664.955 135.797 664.96 134.737L664.957 134.63C664.901 133.572 664.104 132.802 663.161 132.802L663.001 132.81C661.991 132.899 661.207 133.747 661.21 134.691L661.213 134.779C661.257 135.76 662.152 136.594 663.198 136.6ZM663.211 137.199H663.197H663.195H663.193C661.838 137.187 660.685 136.136 660.612 134.81L660.609 134.691C660.613 133.414 661.636 132.331 662.947 132.211L663.161 132.202C664.445 132.202 665.492 133.249 665.557 134.6L665.56 134.737C665.56 135.416 665.308 136.031 664.887 136.478C664.466 136.924 663.872 137.201 663.211 137.199Z" fill="#0693E3"/></g>
<rect x="435" y="1017" width="15" height="15" fill="#FEE13E"/>
</svg>
