<svg width="380" height="500" viewBox="0 0 380 500" fill="none" xmlns="http://www.w3.org/2000/svg">
<g clip-path="url(#clip0_882_929)">
<rect width="380" height="500" fill="white"/>
<path d="M303 29.5801C303 29.7017 303 29.8163 303.014 29.938H379.925C379.724 23.5983 374.206 18.5149 367.438 18.5149C365.267 18.5149 363.232 19.0342 361.454 19.9489C361.547 15.0151 359.175 10.2896 354.808 7.75377C348.253 3.95464 339.677 6.53259 335.665 13.5156C334.458 15.621 333.793 17.8856 333.643 20.1337C330.445 18.6716 326.483 17.799 322.185 17.799C311.588 17.799 303 23.0766 303 29.5801Z" fill="#EBEBFF"/>
<path d="M-6.54476 28.6081H56.0177C56.0177 28.5847 56.0177 28.5589 56.0177 28.5355C56.0177 23.3351 49.0667 19.1032 40.5227 19.1032C37.1465 19.1032 33.932 19.7582 31.2272 20.9981L30.9383 21.1291L30.9167 20.8133C30.7923 18.9441 30.2451 17.1522 29.2904 15.4842C27.6624 12.6512 25.0828 10.6393 22.0274 9.82056C19.2307 9.06962 16.3476 9.43458 13.9112 10.8452C10.5429 12.8009 8.49832 16.5533 8.57552 20.6425L8.58231 21.0074L8.2562 20.8413C6.79012 20.0881 5.12987 19.688 3.45511 19.688C-1.91561 19.688 -6.26286 23.5878 -6.54476 28.6081ZM56.4203 29.0479H-7L-6.99298 28.8209C-6.82384 23.4544 -2.23447 19.2506 3.45511 19.2506C5.0784 19.2506 6.68859 19.6085 8.13549 20.2916C8.17784 16.1837 10.2837 12.443 13.6913 10.4662C16.2292 8.99478 19.2314 8.6158 22.1413 9.39714C25.3102 10.2463 27.9841 12.3307 29.6706 15.2666C30.6058 16.8995 31.1631 18.647 31.3299 20.4694C34.0309 19.288 37.2017 18.6657 40.5227 18.6657C49.3086 18.6657 56.4563 23.0941 56.4563 28.5355C56.4563 28.6431 56.4556 28.7461 56.4432 28.8537L56.4203 29.0479Z" fill="#9192FF"/>
<path d="M158.352 46.649H206.661C206.661 46.6303 206.661 46.6098 206.661 46.5911C206.661 42.4407 201.294 39.0633 194.696 39.0633C192.089 39.0633 189.607 39.5861 187.518 40.5756L187.295 40.6801L187.279 40.4281C187.183 38.9363 186.76 37.5062 186.023 36.175C184.766 33.9141 182.774 32.3084 180.414 31.655C178.255 31.0556 176.029 31.3469 174.147 32.4727C171.546 34.0336 169.968 37.0282 170.027 40.2918L170.032 40.583L169.781 40.4505C168.649 39.8493 167.366 39.5301 166.073 39.5301C161.926 39.5301 158.569 42.6424 158.352 46.649ZM206.972 47H158L158.005 46.8189C158.136 42.536 161.68 39.1809 166.073 39.1809C167.327 39.1809 168.57 39.4666 169.687 40.0117C169.72 36.7333 171.346 33.7479 173.977 32.1703C175.937 30.9959 178.255 30.6934 180.502 31.317C182.949 31.9948 185.014 33.6583 186.316 36.0014C187.039 37.3046 187.469 38.6992 187.598 40.1536C189.683 39.2108 192.132 38.7142 194.696 38.7142C201.481 38.7142 207 42.2484 207 46.5911C207 46.677 206.999 46.7592 206.99 46.845L206.972 47Z" fill="#9192FF"/>
<path d="M17.9963 75.9998L29.8906 80.3654L19.5192 88.5781L17.9963 75.9998Z" fill="#1B1B43"/>
<path d="M148.969 146.852L149.157 146.465L146.833 145.335L146.645 145.722L148.969 146.852ZM153.618 149.111L153.805 148.725L151.481 147.595L151.294 147.983L153.618 149.111ZM158.266 151.371L158.454 150.984L156.13 149.854L155.942 150.241L158.266 151.371ZM162.914 153.632L163.102 153.244L160.778 152.114L160.59 152.502L162.914 153.632ZM167.564 155.89L167.75 155.503L165.426 154.374L165.238 154.762L167.564 155.89ZM172.323 157.946L172.478 157.544C171.672 157.231 170.87 156.903 170.094 156.569L169.923 156.964C170.704 157.3 171.511 157.63 172.323 157.946ZM177.214 159.657L177.343 159.245C176.512 158.985 175.689 158.711 174.896 158.435L174.754 158.842C175.551 159.119 176.379 159.393 177.214 159.657ZM182.196 161.073L182.303 160.656C181.461 160.44 180.623 160.213 179.813 159.984L179.696 160.399C180.509 160.63 181.35 160.856 182.196 161.073ZM187.055 162.654L187.246 162.268C186.468 161.882 185.65 161.559 184.814 161.304L184.689 161.714C185.501 161.963 186.297 162.279 187.055 162.654ZM191.131 165.659L191.447 165.364C191.321 165.23 191.193 165.097 191.062 164.966C190.58 164.491 190.05 164.039 189.485 163.626L189.231 163.974C189.778 164.374 190.292 164.811 190.758 165.273C190.886 165.399 191.01 165.528 191.131 165.659ZM193.764 169.964L194.169 169.819C193.876 169.001 193.493 168.207 193.032 167.454L192.665 167.68C193.111 168.407 193.48 169.175 193.764 169.964ZM190.083 170.4C190.899 170.245 191.751 170.155 192.615 170.135L192.604 169.704C191.717 169.725 190.842 169.818 190.002 169.976L190.083 170.4ZM197.665 170.757L197.778 170.341C196.937 170.112 196.074 169.944 195.215 169.835L195.161 170.262C196.001 170.367 196.843 170.534 197.665 170.757ZM185.443 172.33C186.07 171.852 186.81 171.441 187.644 171.105L187.483 170.705C186.614 171.055 185.839 171.487 185.182 171.987L185.443 172.33ZM202.337 172.774L202.564 172.407C201.833 171.956 201.053 171.549 200.245 171.201L200.074 171.597C200.863 171.937 201.624 172.333 202.337 172.774ZM194.799 175.003C194.848 174.595 194.873 174.175 194.873 173.756C194.874 173.301 194.844 172.834 194.786 172.373L194.358 172.426C194.415 172.871 194.443 173.319 194.443 173.756C194.443 174.158 194.419 174.561 194.372 174.952L194.799 175.003ZM206.178 176.097L206.508 175.82C205.949 175.153 205.332 174.526 204.673 173.956L204.391 174.282C205.032 174.836 205.633 175.448 206.178 176.097ZM182.763 176.549L183.194 176.538L183.193 176.425C183.193 175.779 183.324 175.146 183.573 174.595C183.638 174.452 183.71 174.311 183.787 174.175L183.412 173.963C183.329 174.111 183.251 174.263 183.181 174.418C182.907 175.024 182.762 175.718 182.762 176.425L182.763 176.549ZM192.716 179.788C193.295 179.164 193.772 178.413 194.133 177.553L193.736 177.386C193.395 178.199 192.945 178.907 192.4 179.493L192.716 179.788ZM208.994 180.387L209.36 180.16C208.907 179.429 208.46 178.694 208.02 177.955L207.65 178.175C208.091 178.916 208.539 179.653 208.994 180.387ZM185.353 181.009L185.568 180.635C184.859 180.227 184.265 179.628 183.85 178.902L183.476 179.114C183.929 179.907 184.577 180.561 185.353 181.009ZM188.212 181.745C189.007 181.745 189.809 181.592 190.533 181.302L190.373 180.902C189.7 181.171 188.953 181.314 188.212 181.314C188.148 181.307 188.094 181.309 188.041 181.309C188.005 181.309 187.971 181.309 187.934 181.307L187.913 181.738C188.013 181.743 188.132 181.736 188.212 181.745ZM211.809 184.731L212.166 184.489C211.684 183.778 211.209 183.061 210.741 182.339L210.38 182.574C210.849 183.297 211.325 184.017 211.809 184.731ZM214.807 188.953L215.152 188.695C214.647 188.016 214.137 187.315 213.636 186.61L213.285 186.858C213.787 187.566 214.299 188.271 214.807 188.953ZM217.995 193.033L218.327 192.761C217.79 192.106 217.247 191.427 216.716 190.747L216.376 191.012C216.91 191.696 217.455 192.376 217.995 193.033ZM221.38 196.952L221.699 196.663C221.128 196.036 220.552 195.386 219.989 194.733L219.662 195.014C220.229 195.67 220.807 196.322 221.38 196.952ZM224.969 200.687L225.271 200.381C224.664 199.783 224.054 199.166 223.46 198.546L223.149 198.844C223.747 199.466 224.359 200.086 224.969 200.687ZM228.703 204.266L229 203.954L227.131 202.171L226.833 202.481L228.703 204.266Z" fill="#9192FF"/>
<path d="M159.812 194.463C159.812 199.967 155.349 204.431 149.847 204.431H39.1431C33.6387 204.431 29.1766 199.967 29.1766 194.463V127.109H159.812V194.463Z" fill="white"/>
<path d="M166.643 144.284C165.116 139.387 160.285 135.63 155.006 135.232C149.727 134.834 144.342 137.821 142.031 142.428C139.221 142.402 136.454 143.96 135.09 146.334C133.725 148.708 133.822 151.8 135.331 154.085C131.987 154.665 128.984 156.865 127.504 159.824C126.024 162.78 126.104 166.417 127.715 169.306C124.033 167.435 119.324 167.604 115.793 169.737C112.261 171.87 110.035 175.885 110.159 179.905C107.866 176.308 103.469 174.066 99.0984 174.266C94.7276 174.464 90.5618 177.097 88.6167 180.887C86.5648 174.747 81.0949 169.79 74.6205 168.207C68.1461 166.624 60.8844 168.463 56.0398 172.915C48.7523 174.056 43.4426 181.967 45.3411 188.853C41.4044 192.111 39.3922 197.407 40.2157 202.345C41.0392 207.282 44.6675 211.693 49.4604 213.579L174.828 213.498L185.516 165.667L166.643 144.284Z" fill="#D1D1FF"/>
<path d="M51.4234 204.431H101.091C98.5082 201.924 95.967 199.206 93.4827 196.325C93.4138 196.451 93.3466 196.58 93.2829 196.709C93.1674 196.351 93.04 195.996 92.9021 195.646C90.5333 192.868 88.216 189.939 85.954 186.895C84.0778 185.575 81.9743 184.584 79.7501 184.019C78.2564 183.638 76.7179 183.454 75.1812 183.454C70.2763 183.454 65.3611 185.327 61.8017 188.712C54.8346 189.835 49.7419 197.593 51.4234 204.431ZM159.812 175.06V151.556C159.023 151.325 158.211 151.173 157.387 151.108C157.081 151.084 156.772 151.072 156.464 151.072C151.671 151.072 146.951 153.966 144.857 158.294C144.833 158.294 144.809 158.294 144.785 158.294C142.096 158.294 139.458 159.843 138.154 162.194C136.838 164.568 136.934 167.659 138.393 169.945C137.956 170.025 137.523 170.131 137.101 170.268C144.513 172.505 151.997 174.008 159.812 175.06Z" fill="#F6F6FF"/>
<path d="M88.6132 180.887C90.5582 177.097 94.724 174.465 99.0948 174.266C99.2757 174.258 99.4549 174.254 99.6358 174.254C103.824 174.254 107.957 176.456 110.155 179.905C110.031 175.886 112.257 171.87 115.789 169.737C117.688 168.591 119.925 168.013 122.162 168.013C124.086 168.013 126.009 168.442 127.711 169.306C127.237 168.459 126.898 167.546 126.689 166.605C109.864 159.802 92.7738 148.488 72.3325 129.265L69.2727 132C75.0942 138.182 83.1707 144.355 92.5119 152.381L78.1935 146.546C79.9491 149.454 82.5057 153.527 83.9391 155.272C80.6399 153.749 75.3302 150.398 73.5712 148.62C73.5712 151.101 76.5586 155.248 77.861 157.514C71.1196 151.744 64.9157 144.849 62.0093 138.49L59.0099 141.171C63.2101 149.966 68.0271 159.104 73.3334 167.94C73.7641 168.014 74.1931 168.104 74.6169 168.207C81.0913 169.79 86.5613 174.747 88.6132 180.887Z" fill="#FFF6E9"/>
<path d="M93.4753 196.325C95.4255 192.743 99.3191 190.285 103.397 190.097C103.568 190.089 103.738 190.085 103.909 190.085C107.959 190.085 111.959 192.292 114.087 195.745C113.965 191.725 116.111 187.711 119.523 185.582C121.352 184.438 123.511 183.861 125.668 183.861C127.53 183.861 129.391 184.291 131.04 185.16C129.482 182.27 129.401 178.632 130.828 175.677C132.063 173.122 134.396 171.132 137.094 170.267C133.619 169.218 130.161 168.007 126.691 166.605C126.9 167.545 127.239 168.458 127.713 169.306C126.011 168.441 124.088 168.012 122.164 168.012C119.928 168.012 117.69 168.591 115.791 169.737C112.259 171.87 110.033 175.886 110.157 179.905C107.959 176.456 103.826 174.254 99.6378 174.254C99.4569 174.254 99.2778 174.258 99.0969 174.266C94.726 174.464 90.5603 177.097 88.6152 180.887C86.5633 174.747 81.0933 169.79 74.6189 168.207C74.1951 168.104 73.7662 168.014 73.3354 167.94C77.2876 174.516 81.5085 180.927 85.9465 186.894C89.0355 189.069 91.5095 192.134 92.8947 195.646C93.0876 195.874 93.2806 196.1 93.4753 196.325Z" fill="#F1E8E9"/>
<path d="M101.091 204.431H149.847C155.349 204.431 159.812 199.967 159.812 194.463V175.06C151.997 174.008 144.513 172.505 137.101 170.268C134.403 171.132 132.071 173.122 130.835 175.677C129.409 178.632 129.49 182.27 131.047 185.16C129.398 184.291 127.538 183.861 125.675 183.861C123.518 183.861 121.36 184.438 119.53 185.582C116.119 187.711 113.972 191.725 114.095 195.745C111.967 192.292 107.967 190.085 103.916 190.085C103.746 190.085 103.575 190.089 103.404 190.097C99.3265 190.285 95.433 192.744 93.4827 196.325C95.967 199.206 98.5082 201.924 101.091 204.431ZM92.9021 195.646C91.517 192.134 89.043 189.069 85.954 186.895C88.216 189.939 90.5333 192.868 92.9021 195.646Z" fill="#FCF3E9"/>
<path d="M67.2263 129.709C73.1252 136.688 82.0219 143.364 92.5156 152.381L78.1972 146.546C79.9528 149.454 82.5095 153.527 83.9429 155.272C80.6436 153.749 75.3339 150.398 73.5749 148.62C73.5749 151.101 76.5623 155.248 77.8647 157.514C70.2275 150.977 63.2793 142.997 61.0362 135.989L67.2263 129.709Z" fill="#FEE13E"/>
<path d="M62.247 134.762L66.1406 130.813C65.9408 130.563 65.7461 130.312 65.5566 130.062L62.0351 134.105C62.1006 134.322 62.1712 134.541 62.247 134.762Z" fill="white"/>
<path d="M72.0026 148.358C71.2238 146.862 69.451 144.118 69.4252 142.497C70.4623 143.677 73.5738 145.924 75.5016 146.954C74.6523 145.798 73.1293 143.108 72.0818 141.188L80.4375 145.152C74.6006 139.472 69.6113 135.175 66.1363 130.813L62.2428 134.761C63.7916 139.21 67.7231 144.209 72.0026 148.358Z" fill="#FFC77A"/>
<path d="M119.741 153.766C119.695 154.846 119.741 156.667 120.82 157.291C122.619 158.331 124.033 155.802 124.695 154.533C125.482 153.013 125.28 151.13 123.499 150.455C121.146 149.561 119.828 151.754 119.741 153.766Z" fill="#D1D1FF"/>
<path d="M34.4289 186.519C34.3824 187.597 34.4289 189.418 35.5074 190.044C37.306 191.084 38.7205 188.555 39.3821 187.284C40.1694 185.766 39.9678 183.883 38.1864 183.206C35.833 182.314 34.5151 184.507 34.4289 186.519Z" fill="#D1D1FF"/>
<path d="M127.79 141.563C127.79 142.397 128.465 143.07 129.297 143.07C130.129 143.07 130.805 142.397 130.805 141.563C130.805 140.731 130.129 140.055 129.297 140.055C128.465 140.055 127.79 140.731 127.79 141.563Z" fill="#D1D1FF"/>
<path d="M50.3323 168.77C50.3323 170.038 51.3591 171.065 52.6271 171.065C53.8951 171.065 54.9219 170.038 54.9219 168.77C54.9219 167.502 53.8951 166.475 52.6271 166.475C51.3591 166.475 50.3323 167.502 50.3323 168.77Z" fill="#D1D1FF"/>
<path d="M159.593 127.324V194.465C159.593 199.842 155.219 204.216 149.842 204.216H39.1387C33.7618 204.216 29.3875 199.842 29.3875 194.465V127.324H159.593ZM39.1387 204.646H149.842C155.455 204.646 160.023 200.078 160.023 194.465V126.894H28.9568V194.465C28.9568 200.078 33.524 204.646 39.1387 204.646Z" fill="#9192FF"/>
<path d="M39.1353 101.013H149.839C155.342 101.013 159.805 105.474 159.805 110.98V127.109H29.1688V110.98C29.1688 105.474 33.6309 101.013 39.1353 101.013Z" fill="white"/>
<path d="M159.593 126.894H29.3875V110.98C29.3875 105.603 33.7618 101.229 39.1387 101.229H149.842C155.219 101.229 159.593 105.603 159.593 110.98V126.894ZM28.9568 127.325H160.023V110.98C160.023 105.366 155.455 100.798 149.842 100.798H39.1387C33.524 100.798 28.9568 105.366 28.9568 110.98V127.325Z" fill="#9192FF"/>
<path d="M141.188 114.06C141.188 117.079 143.634 119.525 146.652 119.525C149.671 119.525 152.117 117.079 152.117 114.06C152.117 111.043 149.671 108.597 146.652 108.597C143.634 108.597 141.188 111.043 141.188 114.06Z" fill="#D1D1FF"/>
<path d="M125.094 114.06C125.094 117.079 127.54 119.525 130.559 119.525C133.577 119.525 136.023 117.079 136.023 114.06C136.023 111.043 133.577 108.597 130.559 108.597C127.54 108.597 125.094 111.043 125.094 114.06Z" fill="white"/>
<path d="M130.554 108.813C133.449 108.813 135.804 111.168 135.804 114.061C135.804 116.955 133.449 119.31 130.554 119.31C127.66 119.31 125.307 116.955 125.307 114.061C125.307 111.168 127.66 108.813 130.554 108.813ZM130.554 119.741C133.686 119.741 136.234 117.193 136.234 114.061C136.234 110.93 133.686 108.382 130.554 108.382C127.422 108.382 124.876 110.93 124.876 114.061C124.876 117.193 127.422 119.741 130.554 119.741Z" fill="#9192FF"/>
<path d="M88.965 119.277H110.723C113.603 119.277 115.938 116.941 115.938 114.06C115.938 111.181 113.603 108.845 110.723 108.845H88.965C86.0844 108.845 83.75 111.181 83.75 114.06C83.75 116.941 86.0844 119.277 88.965 119.277Z" fill="white"/>
<path d="M110.726 109.06C113.482 109.06 115.726 111.304 115.726 114.06C115.726 116.818 113.482 119.061 110.726 119.061H88.9684C86.2118 119.061 83.9687 116.818 83.9687 114.06C83.9687 111.304 86.2118 109.06 88.9684 109.06H110.726ZM88.9684 119.492H110.726C113.72 119.492 116.156 117.056 116.156 114.06C116.156 111.066 113.72 108.63 110.726 108.63H88.9684C85.9741 108.63 83.538 111.066 83.538 114.06C83.538 117.056 85.9741 119.492 88.9684 119.492Z" fill="#9192FF"/>
<path d="M44.5605 89.1258C53.2849 96.763 68.3321 91.4998 73.0078 97.5969L59.6473 108.177L44.5605 89.1258Z" fill="#3335CF"/>
<path d="M73.0139 97.5966C73.6823 99.3763 73.3188 101.378 72.0697 102.81L62.6028 113.653L59.6533 108.176L73.0139 97.5966Z" fill="#D1D1FF"/>
<path d="M24.7882 104.785C30.222 115.027 21.651 128.467 26.5145 134.416L39.875 123.836L24.7882 104.785Z" fill="#3335CF"/>
<path d="M26.5157 134.416C28.0938 135.473 30.1267 135.58 31.8065 134.691L44.5312 127.962L39.8762 123.836L26.5157 134.416Z" fill="#D1D1FF"/>
<path d="M19.5218 88.5778C21.1843 107.401 35.091 124.964 51.9833 134.72L67.375 122.543C60.9161 102.221 48.8874 87.6802 29.8932 80.3651L19.5218 88.5778Z" fill="#C5C5FF"/>
<path d="M67.3848 122.544L74.0625 127.166L54.965 142.289L51.9931 134.721L67.3848 122.544Z" fill="#3335CF"/>
<path d="M28.7543 101.094C31.2042 104.189 35.6973 104.711 38.7898 102.261C41.884 99.811 42.406 95.3178 39.9561 92.2254C37.5063 89.1329 33.0131 88.6109 29.9207 91.059C26.8265 93.5089 26.3045 98.002 28.7543 101.094Z" fill="white"/>
<path d="M35.8936 92.2562L36.0332 91.8496C35.6094 91.7015 35.1666 91.6119 34.717 91.5809L34.6859 92.0099C35.0977 92.0392 35.5043 92.1218 35.8936 92.2562ZM32.2912 92.4854C32.6599 92.301 33.0527 92.1684 33.4558 92.0874L33.3732 91.6653C32.9321 91.7532 32.5031 91.8979 32.1 92.0995L32.2912 92.4854ZM37.9093 93.631L38.2367 93.3519C37.9438 93.0091 37.6061 92.7059 37.2357 92.4526L36.9928 92.8093C37.3322 93.0401 37.6406 93.3175 37.9093 93.631ZM30.465 94.1048C30.6907 93.762 30.9612 93.4484 31.2713 93.1745L30.9853 92.8523C30.6476 93.1521 30.3513 93.4932 30.1049 93.8688L30.465 94.1048ZM38.9551 95.838L39.3789 95.7622C39.2997 95.3177 39.1618 94.887 38.9689 94.4804L38.5795 94.6647C38.7552 95.0369 38.8828 95.4314 38.9551 95.838ZM29.7104 96.4272C29.7311 96.0137 29.8069 95.6071 29.9327 95.216L29.5244 95.0817C29.3848 95.5089 29.3038 95.9534 29.2797 96.4048L29.7104 96.4272ZM39.1446 98.4188C39.2997 97.9967 39.3979 97.5556 39.4375 97.106L39.0085 97.0681C38.9723 97.4798 38.8827 97.883 38.7415 98.2689L39.1446 98.4188ZM29.8482 99.0114L30.229 98.8116C30.0395 98.4463 29.8982 98.057 29.8103 97.6538L29.39 97.7469C29.4864 98.1862 29.6398 98.6117 29.8482 99.0114ZM37.6009 100.591C37.9507 100.305 38.2591 99.9745 38.5175 99.6092L38.1678 99.3594C37.93 99.6937 37.6475 99.9969 37.327 100.259L37.6009 100.591ZM31.3402 100.757L31.5952 100.41C31.2661 100.166 30.9681 99.878 30.7114 99.5541L30.3737 99.8212C30.6545 100.176 30.9784 100.49 31.3402 100.757ZM35.17 101.689C35.6163 101.618 36.0504 101.489 36.4587 101.303L36.2813 100.91C35.9074 101.081 35.5112 101.199 35.1028 101.263L35.17 101.689ZM33.8262 101.723L33.871 101.294C33.461 101.251 33.0596 101.153 32.6737 101.005L32.5186 101.406C32.9373 101.568 33.3783 101.675 33.8262 101.723Z" fill="#9192FF"/>
<path d="M69.5725 141.465L69.9137 141.195C70.4133 140.8 70.4977 140.068 70.1032 139.568L56.7048 122.649C56.3102 122.149 55.5763 122.065 55.0767 122.461L54.7373 122.73C54.2377 123.126 54.1515 123.858 54.5478 124.358L67.9445 141.276C68.3407 141.775 69.0729 141.861 69.5725 141.465Z" fill="#1B1B43"/>
<path d="M248.42 72.744C233.623 72.744 221.585 84.7824 221.585 99.5789C221.585 114.378 233.623 126.416 248.42 126.416C263.218 126.416 275.256 114.378 275.256 99.5789C275.256 84.7824 263.218 72.744 248.42 72.744ZM248.42 127.001C233.301 127.001 221 114.701 221 99.5789C221 84.4596 233.301 72.1592 248.42 72.1592C263.54 72.1592 275.841 84.4596 275.841 99.5789C275.841 114.701 263.54 127.001 248.42 127.001Z" fill="#9192FF"/>
<path d="M296.795 88.8364C296.795 105.313 283.437 118.67 266.96 118.67C250.483 118.67 237.125 105.313 237.125 88.8364C237.125 72.3579 250.483 59.0001 266.96 59.0001C283.437 59.0001 296.795 72.3579 296.795 88.8364Z" fill="#EBEBFF"/>
<path d="M266.977 89.3999L250.438 76.4351L250.979 75.745L266.956 88.27L275.865 80.7255L276.433 81.3946L266.977 89.3999Z" fill="#1B1B43"/>
<path d="M194.438 372.944C193.563 372.947 192.707 372.69 191.978 372.206C191.248 371.722 190.679 371.033 190.342 370.225C190.004 369.418 189.914 368.528 190.083 367.67C190.251 366.811 190.67 366.021 191.287 365.401C191.905 364.78 192.692 364.357 193.55 364.184C194.408 364.011 195.298 364.097 196.107 364.43C196.916 364.763 197.609 365.329 198.096 366.056C198.584 366.783 198.845 367.638 198.846 368.513C198.846 369.684 198.383 370.807 197.557 371.638C196.731 372.468 195.61 372.938 194.438 372.944ZM194.438 366.377C194.014 366.374 193.597 366.497 193.243 366.731C192.888 366.965 192.611 367.3 192.447 367.691C192.282 368.083 192.238 368.515 192.32 368.932C192.401 369.349 192.605 369.732 192.905 370.033C193.205 370.334 193.587 370.539 194.004 370.622C194.421 370.705 194.853 370.663 195.245 370.5C195.637 370.337 195.973 370.061 196.208 369.707C196.443 369.353 196.568 368.938 196.566 368.513C196.562 367.949 196.337 367.409 195.939 367.01C195.541 366.61 195.002 366.383 194.438 366.377Z" fill="#263238"/>
<path d="M197.504 370.101L195.891 371.712L201.127 376.955L202.74 375.344L197.504 370.101Z" fill="#263238"/>
<path d="M372.146 134.77C374.702 119.022 364.009 104.185 348.262 101.628C332.514 99.0723 317.677 109.766 315.12 125.513C312.564 141.26 323.258 156.098 339.005 158.654C354.752 161.21 369.59 150.517 372.146 134.77Z" fill="#EBEBFF"/>
<path d="M343.695 159.662C335.954 159.522 328.577 156.349 323.152 150.825C317.727 145.301 314.688 137.868 314.688 130.126C314.688 122.383 317.727 114.95 323.152 109.426C328.577 103.903 335.954 100.729 343.695 100.589V101.89C336.297 102.027 329.248 105.062 324.064 110.342C318.881 115.622 315.976 122.726 315.976 130.126C315.976 137.525 318.881 144.629 324.064 149.91C329.248 155.19 336.297 158.225 343.695 158.361V159.662Z" fill="white"/>
<path d="M343.711 159.663V158.362C347.463 158.431 351.191 157.752 354.677 156.364C358.164 154.976 361.339 152.908 364.016 150.279C366.694 147.65 368.821 144.514 370.273 141.054C371.725 137.594 372.473 133.879 372.473 130.126C372.473 126.374 371.725 122.659 370.273 119.199C368.821 115.738 366.694 112.602 364.016 109.974C361.339 107.345 358.164 105.276 354.677 103.888C351.191 102.5 347.463 101.821 343.711 101.891V100.59C347.635 100.519 351.533 101.231 355.179 102.683C358.824 104.136 362.144 106.3 364.944 109.05C367.744 111.799 369.968 115.079 371.486 118.698C373.004 122.317 373.786 126.202 373.786 130.126C373.786 134.051 373.004 137.935 371.486 141.554C369.968 145.173 367.744 148.453 364.944 151.203C362.144 153.953 358.824 156.117 355.179 157.569C351.533 159.022 347.635 159.733 343.711 159.663Z" fill="white"/>
<path d="M358.804 130.131H357.504C357.504 120.563 352.686 107.748 343.359 101.794L344.063 100.695C353.736 106.929 358.804 120.206 358.804 130.131Z" fill="white"/>
<path d="M344.063 158.689L343.359 157.59C352.648 151.636 357.504 138.821 357.504 129.253H358.804C358.804 139.178 353.736 152.474 344.063 158.689Z" fill="white"/>
<path d="M329.918 130.131H328.617C328.617 120.197 333.676 106.9 343.359 100.695L344.062 101.784C334.774 107.748 329.918 120.553 329.918 130.131Z" fill="white"/>
<path d="M343.359 158.679C333.676 152.465 328.617 139.168 328.617 129.244H329.918C329.918 138.821 334.735 151.626 344.062 157.581L343.359 158.679Z" fill="white"/>
<path d="M344.363 101.235H343.062V159.007H344.363V101.235Z" fill="white"/>
<path d="M368.166 114.088H319.258V115.389H368.166V114.088Z" fill="white"/>
<path d="M372.589 129.967H314.836V131.268H372.589V129.967Z" fill="white"/>
<path d="M367.513 145.836H319.906V147.137H367.513V145.836Z" fill="white"/>
<path d="M311.943 195.376C311.951 193.831 311.726 192.293 311.274 190.816L315.249 187.327L312.749 182.995L307.74 184.736C305.637 182.474 302.91 180.887 299.905 180.176L298.863 175H293.87L292.837 180.176C289.829 180.887 287.1 182.474 284.993 184.736L279.985 183.041L277.492 187.373L281.459 190.861C280.568 193.813 280.568 196.961 281.459 199.913L277.492 203.394L279.985 207.726L284.993 206.016C287.1 208.277 289.829 209.864 292.837 210.576L293.87 215.759H298.863L299.905 210.576C302.91 209.864 305.637 208.277 307.74 206.016L312.749 207.71L315.249 203.378L311.274 199.936C311.725 198.458 311.95 196.921 311.943 195.376ZM296.371 203.796C294.768 203.798 293.201 203.324 291.868 202.435C290.534 201.545 289.495 200.281 288.88 198.8C288.266 197.32 288.104 195.691 288.416 194.119C288.728 192.547 289.499 191.103 290.632 189.969C291.764 188.835 293.208 188.063 294.78 187.749C296.351 187.436 297.981 187.596 299.462 188.209C300.942 188.822 302.208 189.861 303.099 191.193C303.989 192.525 304.465 194.092 304.465 195.695C304.466 196.758 304.257 197.812 303.851 198.795C303.444 199.777 302.848 200.671 302.097 201.423C301.345 202.175 300.452 202.772 299.47 203.18C298.487 203.587 297.434 203.796 296.371 203.796Z" fill="#E0E0E0"/>
<path d="M333.371 216.914C333.37 215.748 333.198 214.588 332.862 213.472L335.902 210.812L334.002 207.521L330.202 208.813C328.599 207.097 326.522 205.896 324.236 205.362L323.476 201.418H319.676L318.916 205.362C316.627 205.895 314.547 207.096 312.942 208.813L309.142 207.521L307.234 210.812L310.274 213.472C309.595 215.719 309.595 218.117 310.274 220.365L307.234 223.017L309.142 226.316L312.942 225.024C314.547 226.74 316.627 227.941 318.916 228.474L319.676 232.418H323.476L324.236 228.474C326.522 227.941 328.599 226.74 330.202 225.024L334.002 226.316L335.902 223.017L332.862 220.365C333.198 219.245 333.37 218.083 333.371 216.914ZM321.507 223.321C320.286 223.323 319.092 222.962 318.076 222.284C317.06 221.607 316.268 220.643 315.8 219.515C315.332 218.387 315.209 217.146 315.447 215.948C315.684 214.75 316.272 213.65 317.136 212.786C317.999 211.923 319.1 211.335 320.298 211.097C321.495 210.859 322.737 210.982 323.865 211.45C324.993 211.918 325.956 212.71 326.634 213.726C327.311 214.742 327.672 215.936 327.671 217.158C327.671 218.792 327.021 220.36 325.865 221.516C324.71 222.672 323.142 223.321 321.507 223.321Z" fill="#E0E0E0"/>
<path d="M190 521C291.068 521 373 511.822 373 500.5C373 489.178 291.068 480 190 480C88.9319 480 7 489.178 7 500.5C7 511.822 88.9319 521 190 521Z" fill="#F5F5F5"/>
<path d="M128.203 481.62L128.014 483.792C127.994 484.059 128.023 484.328 128.099 484.585C128.134 484.705 128.185 484.819 128.25 484.925C128.319 485.03 128.395 485.131 128.477 485.227C128.56 485.324 128.655 485.409 128.76 485.482C129.08 485.71 129.463 485.832 129.855 485.831H207.655C207.84 485.832 208.025 485.803 208.202 485.746C208.325 485.709 208.445 485.662 208.561 485.605C208.972 485.404 209.304 485.072 209.505 484.661C209.625 484.432 209.699 484.182 209.722 483.924L209.902 481.838C209.931 481.589 209.902 481.337 209.817 481.101C209.781 480.992 209.733 480.888 209.675 480.79C209.528 480.542 209.32 480.337 209.071 480.195C208.964 480.137 208.854 480.086 208.74 480.044C208.566 479.987 208.385 479.959 208.202 479.959H188.828C188.584 479.961 188.34 479.939 188.101 479.893L187.827 479.817C187.723 479.788 187.622 479.75 187.525 479.704C187.43 479.674 187.341 479.629 187.261 479.572C187.125 479.501 186.995 479.419 186.873 479.326C186.727 479.209 186.591 479.08 186.467 478.939C186.401 478.854 186.335 478.778 186.269 478.684L186.137 478.495L186.09 478.42C186.033 478.334 185.986 478.242 185.948 478.146L185.835 477.891C185.839 477.872 185.839 477.853 185.835 477.834C185.84 477.813 185.84 477.79 185.835 477.768C185.807 477.695 185.788 477.619 185.778 477.542C185.768 477.435 185.768 477.327 185.778 477.221C185.778 477.126 185.778 477.022 185.778 476.918C185.778 476.815 185.778 476.72 185.778 476.616V476.494C185.773 476.393 185.773 476.292 185.778 476.191C185.778 476.078 185.825 475.984 185.844 475.88L193.454 446.686L194.918 441.078L196.06 436.688H151.873L149.503 441.078L146.482 446.686L129.298 478.542C129.241 478.656 129.185 478.769 129.119 478.882L128.949 479.269C128.901 479.402 128.845 479.524 128.798 479.666L128.713 479.93C128.481 480.473 128.31 481.04 128.203 481.62Z" fill="#263238"/>
<path opacity="0.2" d="M209.87 481.857L209.691 483.962C209.642 484.473 209.407 484.947 209.031 485.295C208.655 485.644 208.164 485.841 207.651 485.851H129.871C129.61 485.851 129.351 485.798 129.112 485.694C128.872 485.59 128.657 485.437 128.479 485.245C128.302 485.054 128.166 484.827 128.081 484.58C127.995 484.333 127.962 484.072 127.983 483.811L128.171 481.64C128.221 481.059 128.335 480.486 128.511 479.931C128.671 479.445 128.874 478.974 129.116 478.524L151.7 436.669H195.887L185.671 475.861C185.604 476.086 185.563 476.317 185.549 476.551C185.484 477.325 185.704 478.096 186.169 478.718C186.633 479.341 187.309 479.772 188.069 479.931C188.308 479.986 188.552 480.011 188.796 480.006H208.142C208.382 480 208.62 480.044 208.84 480.137C209.061 480.229 209.26 480.367 209.423 480.542C209.587 480.717 209.711 480.925 209.788 481.152C209.865 481.378 209.893 481.619 209.87 481.857Z" fill="white"/>
<path d="M126.638 478.505L149.213 436.641H151.715L129.13 478.505C128.607 479.468 128.285 480.529 128.186 481.621L127.997 483.792C127.969 484.054 127.997 484.318 128.079 484.568C128.162 484.818 128.298 485.047 128.477 485.239C128.656 485.432 128.875 485.584 129.118 485.684C129.361 485.785 129.623 485.832 129.886 485.822H127.384C127.121 485.832 126.859 485.785 126.616 485.684C126.373 485.584 126.154 485.432 125.975 485.239C125.796 485.047 125.66 484.818 125.577 484.568C125.495 484.318 125.467 484.054 125.495 483.792L125.684 481.621C125.782 480.527 126.107 479.466 126.638 478.505Z" fill="#263238"/>
<path opacity="0.3" d="M151.729 436.641H195.906L193.3 446.649H146.328L151.729 436.641Z" fill="black"/>
<path d="M76.7578 297.932V434.148C76.7566 435.052 76.9337 435.948 77.279 436.784C77.6244 437.621 78.1312 438.38 78.7705 439.021C79.4097 439.661 80.1689 440.169 81.0046 440.515C81.8403 440.862 82.7361 441.04 83.6408 441.04H272.163C273.067 441.04 273.963 440.862 274.799 440.515C275.635 440.169 276.394 439.661 277.033 439.021C277.672 438.38 278.179 437.621 278.525 436.784C278.87 435.948 279.047 435.052 279.046 434.148V297.932C279.047 297.027 278.87 296.13 278.524 295.293C278.178 294.457 277.67 293.696 277.03 293.056C276.389 292.416 275.629 291.908 274.792 291.562C273.956 291.216 273.059 291.039 272.153 291.04H83.6597C82.1435 291.041 80.6701 291.542 79.4676 292.466C79.2987 292.591 79.1378 292.726 78.9861 292.872C78.5216 293.293 78.1208 293.78 77.7964 294.316C77.5685 294.67 77.3786 295.046 77.2299 295.44C76.923 296.235 76.763 297.08 76.7578 297.932Z" fill="#263238"/>
<path d="M279.052 419.419V434.148C279.052 435.976 278.326 437.729 277.033 439.022C275.741 440.314 273.987 441.04 272.159 441.04H83.6659C81.8379 441.04 80.0848 440.314 78.7922 439.022C77.4996 437.729 76.7734 435.976 76.7734 434.148V419.419H279.052Z" fill="#3335CF"/>
<path opacity="0.6" d="M279.052 419.419V434.148C279.052 435.976 278.326 437.729 277.033 439.022C275.741 440.314 273.987 441.04 272.159 441.04H83.6659C81.8379 441.04 80.0848 440.314 78.7922 439.022C77.4996 437.729 76.7734 435.976 76.7734 434.148V419.419H279.052Z" fill="white"/>
<path d="M83.7845 415.255H272.033C273.034 415.255 273.995 414.857 274.703 414.149C275.411 413.44 275.809 412.48 275.809 411.478V298.99C275.809 297.988 275.411 297.028 274.703 296.32C273.995 295.611 273.034 295.213 272.033 295.213H83.7845C82.7828 295.213 81.8222 295.611 81.114 296.32C80.4057 297.028 80.0078 297.988 80.0078 298.99V411.516C80.0178 412.511 80.4201 413.462 81.1272 414.162C81.8344 414.862 82.7894 415.255 83.7845 415.255Z" fill="#3335CF"/>
<path d="M79.4862 291.04H83.6594C81.8314 291.04 80.0783 291.766 78.7857 293.059C77.4931 294.351 76.767 296.104 76.767 297.932V434.148C76.767 435.975 77.4931 437.729 78.7857 439.021C80.0783 440.314 81.8314 441.04 83.6594 441.04H79.4862C77.6582 441.04 75.9051 440.314 74.6125 439.021C73.3199 437.729 72.5938 435.975 72.5938 434.148V297.932C72.5938 296.104 73.3199 294.351 74.6125 293.059C75.9051 291.766 77.6582 291.04 79.4862 291.04Z" fill="#263238"/>
<g opacity="0.2">
<path d="M79.4862 291.041H83.6594C81.8314 291.041 80.0783 291.767 78.7857 293.059C77.4931 294.352 76.767 296.105 76.767 297.933V434.148C76.767 435.976 77.4931 437.729 78.7857 439.022C80.0783 440.314 81.8314 441.04 83.6594 441.04H79.4862C77.6582 441.04 75.9051 440.314 74.6125 439.022C73.3199 437.729 72.5938 435.976 72.5938 434.148V297.933C72.5938 296.105 73.3199 294.352 74.6125 293.059C75.9051 291.767 77.6582 291.041 79.4862 291.041Z" fill="white"/>
</g>
<path opacity="0.5" d="M276.92 366.895C272.067 365.951 264.381 369.095 262.946 373.816C263.108 372.374 262.851 370.917 262.206 369.618C261.562 368.318 260.557 367.232 259.311 366.489C256.809 365.044 253.533 364.025 251.229 365.762C252.321 361.122 252.099 356.269 250.588 351.748C249.078 347.227 246.337 343.216 242.675 340.165C235.292 334.189 224.519 333.556 215.993 337.72C217.225 335.353 217.924 332.744 218.041 330.078C218.157 327.411 217.689 324.752 216.669 322.286C215.649 319.819 214.101 317.606 212.134 315.802C210.168 313.998 207.83 312.645 205.286 311.84C193.427 307.71 180.745 306.508 168.322 308.337C161.137 309.395 153.81 311.642 148.589 316.684C143.367 321.726 141.979 330.846 145.492 337.201C141.439 335.892 137.105 335.718 132.96 336.698C128.816 337.679 125.019 339.776 121.982 342.762C119.054 345.82 117.026 349.627 116.122 353.763C115.217 357.899 115.471 362.204 116.855 366.206C115.741 365.544 114.48 365.172 113.185 365.123C111.891 365.073 110.605 365.348 109.443 365.922C108.3 366.502 107.323 367.364 106.604 368.426C105.886 369.488 105.449 370.716 105.336 371.993C103.827 370.001 101.86 368.4 99.603 367.326C97.3457 366.251 94.8633 365.735 92.3649 365.82C89.8664 365.905 87.4249 366.589 85.246 367.815C83.067 369.04 81.2143 370.771 79.8438 372.862V415.255H275.806L276.92 366.895Z" fill="white"/>
<path d="M233.266 348.286H132.316C127.179 348.286 123.016 352.449 123.016 357.586C123.016 362.722 127.179 366.886 132.316 366.886H233.266C238.402 366.886 242.566 362.722 242.566 357.586C242.566 352.449 238.402 348.286 233.266 348.286Z" fill="white"/>
<path d="M141.881 356.364V360H141.44V356.364H141.881ZM143.126 358.359V360H142.707V357.273H143.112V357.699H143.147C143.211 357.56 143.308 357.449 143.438 357.365C143.569 357.28 143.737 357.237 143.943 357.237C144.127 357.237 144.289 357.275 144.427 357.351C144.566 357.425 144.674 357.539 144.75 357.692C144.827 357.843 144.866 358.035 144.866 358.267V360H144.447V358.295C144.447 358.081 144.391 357.914 144.28 357.795C144.169 357.674 144.016 357.614 143.822 357.614C143.688 357.614 143.569 357.643 143.463 357.701C143.359 357.759 143.277 357.843 143.216 357.955C143.156 358.066 143.126 358.201 143.126 358.359ZM148.615 357.5H148.174C148.148 357.373 148.103 357.262 148.037 357.166C147.974 357.07 147.895 356.99 147.803 356.925C147.712 356.858 147.611 356.809 147.499 356.776C147.388 356.742 147.272 356.726 147.151 356.726C146.931 356.726 146.732 356.781 146.553 356.893C146.376 357.004 146.234 357.168 146.129 357.385C146.025 357.601 145.972 357.867 145.972 358.182C145.972 358.497 146.025 358.762 146.129 358.979C146.234 359.196 146.376 359.36 146.553 359.471C146.732 359.582 146.931 359.638 147.151 359.638C147.272 359.638 147.388 359.621 147.499 359.588C147.611 359.555 147.712 359.506 147.803 359.441C147.895 359.374 147.974 359.293 148.037 359.197C148.103 359.1 148.148 358.989 148.174 358.864H148.615C148.581 359.049 148.521 359.216 148.433 359.363C148.346 359.509 148.237 359.634 148.107 359.737C147.977 359.839 147.83 359.917 147.668 359.97C147.507 360.023 147.335 360.05 147.151 360.05C146.841 360.05 146.566 359.974 146.324 359.822C146.083 359.671 145.893 359.455 145.754 359.176C145.616 358.897 145.546 358.565 145.546 358.182C145.546 357.798 145.616 357.467 145.754 357.188C145.893 356.908 146.083 356.693 146.324 356.541C146.566 356.39 146.841 356.314 147.151 356.314C147.335 356.314 147.507 356.341 147.668 356.394C147.83 356.447 147.977 356.525 148.107 356.628C148.237 356.73 148.346 356.854 148.433 357.001C148.521 357.147 148.581 357.313 148.615 357.5ZM149.269 360V357.273H149.674V357.685H149.703C149.752 357.55 149.842 357.44 149.972 357.356C150.103 357.272 150.249 357.23 150.413 357.23C150.444 357.23 150.482 357.231 150.528 357.232C150.574 357.233 150.609 357.235 150.633 357.237V357.663C150.619 357.66 150.586 357.654 150.535 357.647C150.486 357.639 150.433 357.635 150.377 357.635C150.245 357.635 150.126 357.663 150.022 357.718C149.919 357.773 149.837 357.849 149.777 357.946C149.718 358.042 149.688 358.151 149.688 358.274V360H149.269ZM152.19 360.057C151.927 360.057 151.701 359.999 151.51 359.883C151.321 359.766 151.174 359.602 151.071 359.393C150.97 359.182 150.919 358.937 150.919 358.658C150.919 358.378 150.97 358.132 151.071 357.919C151.174 357.705 151.318 357.538 151.501 357.418C151.686 357.298 151.901 357.237 152.147 357.237C152.29 357.237 152.43 357.261 152.568 357.308C152.707 357.356 152.833 357.433 152.946 357.539C153.06 357.644 153.151 357.784 153.218 357.958C153.286 358.132 153.319 358.346 153.319 358.601V358.778H151.217V358.416H152.893C152.893 358.262 152.862 358.125 152.801 358.004C152.741 357.884 152.654 357.788 152.542 357.718C152.43 357.649 152.299 357.614 152.147 357.614C151.981 357.614 151.836 357.655 151.714 357.738C151.593 357.82 151.501 357.926 151.435 358.058C151.37 358.189 151.338 358.33 151.338 358.48V358.722C151.338 358.928 151.373 359.102 151.444 359.245C151.517 359.387 151.617 359.496 151.744 359.57C151.872 359.644 152.021 359.68 152.19 359.68C152.3 359.68 152.4 359.665 152.488 359.634C152.578 359.602 152.656 359.555 152.721 359.492C152.786 359.428 152.836 359.349 152.872 359.254L153.277 359.368C153.234 359.505 153.162 359.626 153.062 359.73C152.961 359.833 152.837 359.914 152.689 359.972C152.541 360.028 152.375 360.057 152.19 360.057ZM154.759 360.064C154.586 360.064 154.43 360.031 154.289 359.966C154.148 359.9 154.036 359.805 153.953 359.68C153.87 359.555 153.829 359.403 153.829 359.226C153.829 359.07 153.86 358.943 153.921 358.846C153.983 358.748 154.065 358.671 154.168 358.615C154.271 358.559 154.385 358.518 154.509 358.491C154.634 358.462 154.761 358.44 154.887 358.423C155.053 358.402 155.187 358.386 155.29 358.375C155.394 358.364 155.47 358.344 155.517 358.317C155.566 358.29 155.59 358.242 155.59 358.175V358.161C155.59 357.985 155.542 357.849 155.446 357.752C155.352 357.655 155.208 357.607 155.015 357.607C154.815 357.607 154.658 357.65 154.544 357.738C154.431 357.826 154.351 357.919 154.305 358.018L153.907 357.876C153.978 357.711 154.073 357.582 154.191 357.489C154.311 357.396 154.441 357.331 154.582 357.294C154.724 357.256 154.863 357.237 155.001 357.237C155.088 357.237 155.189 357.248 155.303 357.269C155.417 357.289 155.528 357.331 155.635 357.395C155.742 357.459 155.832 357.556 155.903 357.685C155.974 357.814 156.009 357.987 156.009 358.203V360H155.59V359.631H155.569C155.541 359.69 155.493 359.753 155.427 359.821C155.361 359.888 155.272 359.946 155.162 359.993C155.052 360.04 154.918 360.064 154.759 360.064ZM154.823 359.688C154.989 359.688 155.129 359.655 155.242 359.59C155.357 359.525 155.444 359.441 155.502 359.338C155.561 359.235 155.59 359.126 155.59 359.013V358.629C155.573 358.651 155.533 358.67 155.473 358.688C155.414 358.704 155.345 358.719 155.267 358.732C155.19 358.744 155.115 358.755 155.042 358.764C154.969 358.772 154.911 358.78 154.866 358.786C154.757 358.8 154.655 358.823 154.56 358.855C154.467 358.886 154.391 358.932 154.333 358.995C154.276 359.057 154.248 359.141 154.248 359.247C154.248 359.393 154.302 359.503 154.41 359.577C154.518 359.651 154.656 359.688 154.823 359.688ZM157.96 357.273V357.628H156.547V357.273H157.96ZM156.959 356.619H157.378V359.219C157.378 359.337 157.395 359.426 157.429 359.485C157.465 359.543 157.51 359.582 157.564 359.602C157.62 359.621 157.679 359.631 157.74 359.631C157.786 359.631 157.824 359.628 157.854 359.624C157.883 359.618 157.907 359.613 157.925 359.609L158.01 359.986C157.982 359.996 157.942 360.007 157.891 360.018C157.84 360.03 157.776 360.036 157.697 360.036C157.579 360.036 157.463 360.01 157.349 359.959C157.237 359.908 157.143 359.831 157.069 359.727C156.996 359.622 156.959 359.491 156.959 359.332V356.619ZM158.591 360V357.273H159.01V360H158.591ZM158.804 356.818C158.722 356.818 158.652 356.79 158.592 356.735C158.534 356.679 158.505 356.612 158.505 356.534C158.505 356.456 158.534 356.389 158.592 356.333C158.652 356.278 158.722 356.25 158.804 356.25C158.885 356.25 158.955 356.278 159.013 356.333C159.072 356.389 159.102 356.456 159.102 356.534C159.102 356.612 159.072 356.679 159.013 356.735C158.955 356.79 158.885 356.818 158.804 356.818ZM162.007 357.273L160.999 360H160.573L159.564 357.273H160.019L160.771 359.446H160.8L161.553 357.273H162.007ZM163.606 360.057C163.343 360.057 163.117 359.999 162.926 359.883C162.737 359.766 162.59 359.602 162.487 359.393C162.386 359.182 162.335 358.937 162.335 358.658C162.335 358.378 162.386 358.132 162.487 357.919C162.59 357.705 162.734 357.538 162.917 357.418C163.102 357.298 163.317 357.237 163.563 357.237C163.706 357.237 163.846 357.261 163.984 357.308C164.123 357.356 164.249 357.433 164.362 357.539C164.476 357.644 164.567 357.784 164.634 357.958C164.702 358.132 164.735 358.346 164.735 358.601V358.778H162.633V358.416H164.309C164.309 358.262 164.278 358.125 164.217 358.004C164.157 357.884 164.07 357.788 163.958 357.718C163.846 357.649 163.715 357.614 163.563 357.614C163.397 357.614 163.252 357.655 163.13 357.738C163.009 357.82 162.917 357.926 162.851 358.058C162.786 358.189 162.754 358.33 162.754 358.48V358.722C162.754 358.928 162.789 359.102 162.86 359.245C162.933 359.387 163.033 359.496 163.16 359.57C163.288 359.644 163.437 359.68 163.606 359.68C163.716 359.68 163.816 359.665 163.904 359.634C163.994 359.602 164.072 359.555 164.137 359.492C164.202 359.428 164.252 359.349 164.288 359.254L164.693 359.368C164.65 359.505 164.579 359.626 164.478 359.73C164.377 359.833 164.253 359.914 164.105 359.972C163.957 360.028 163.791 360.057 163.606 360.057ZM165.836 360L164.842 356.364H165.289L166.049 359.325H166.085L166.859 356.364H167.356L168.13 359.325H168.166L168.926 356.364H169.373L168.379 360H167.924L167.122 357.102H167.093L166.291 360H165.836ZM170.755 360.057C170.492 360.057 170.265 359.999 170.074 359.883C169.885 359.766 169.739 359.602 169.636 359.393C169.534 359.182 169.483 358.937 169.483 358.658C169.483 358.378 169.534 358.132 169.636 357.919C169.739 357.705 169.882 357.538 170.066 357.418C170.25 357.298 170.466 357.237 170.712 357.237C170.854 357.237 170.994 357.261 171.133 357.308C171.271 357.356 171.397 357.433 171.511 357.539C171.625 357.644 171.715 357.784 171.783 357.958C171.85 358.132 171.884 358.346 171.884 358.601V358.778H169.782V358.416H171.458C171.458 358.262 171.427 358.125 171.365 358.004C171.305 357.884 171.219 357.788 171.106 357.718C170.995 357.649 170.863 357.614 170.712 357.614C170.545 357.614 170.401 357.655 170.279 357.738C170.158 357.82 170.065 357.926 170 358.058C169.935 358.189 169.902 358.33 169.902 358.48V358.722C169.902 358.928 169.938 359.102 170.009 359.245C170.081 359.387 170.181 359.496 170.309 359.57C170.437 359.644 170.585 359.68 170.755 359.68C170.865 359.68 170.964 359.665 171.053 359.634C171.143 359.602 171.22 359.555 171.285 359.492C171.351 359.428 171.401 359.349 171.436 359.254L171.841 359.368C171.799 359.505 171.727 359.626 171.626 359.73C171.526 359.833 171.401 359.914 171.253 359.972C171.105 360.028 170.939 360.057 170.755 360.057ZM172.578 360V356.364H172.997V357.706H173.033C173.063 357.659 173.106 357.598 173.16 357.525C173.216 357.45 173.295 357.384 173.398 357.326C173.503 357.267 173.643 357.237 173.821 357.237C174.051 357.237 174.253 357.295 174.428 357.409C174.603 357.524 174.74 357.687 174.838 357.898C174.937 358.108 174.986 358.357 174.986 358.643C174.986 358.932 174.937 359.183 174.838 359.395C174.74 359.605 174.604 359.769 174.43 359.885C174.256 359.999 174.055 360.057 173.828 360.057C173.653 360.057 173.513 360.028 173.407 359.97C173.302 359.911 173.221 359.844 173.164 359.769C173.107 359.693 173.063 359.631 173.033 359.581H172.983V360H172.578ZM172.99 358.636C172.99 358.842 173.02 359.024 173.081 359.181C173.141 359.338 173.229 359.46 173.345 359.549C173.461 359.637 173.603 359.68 173.771 359.68C173.946 359.68 174.093 359.634 174.21 359.542C174.328 359.448 174.417 359.323 174.476 359.165C174.536 359.007 174.567 358.83 174.567 358.636C174.567 358.445 174.537 358.272 174.478 358.118C174.42 357.963 174.332 357.84 174.213 357.75C174.096 357.659 173.949 357.614 173.771 357.614C173.601 357.614 173.458 357.657 173.342 357.743C173.226 357.828 173.138 357.948 173.079 358.102C173.02 358.255 172.99 358.433 172.99 358.636Z" fill="#BBBBBB"/>
<path d="M137.344 361.034L135.692 359.382C136.089 358.906 136.287 358.294 136.244 357.676C136.202 357.057 135.923 356.478 135.465 356.06C135.007 355.642 134.405 355.416 133.785 355.43C133.165 355.444 132.574 355.697 132.136 356.136C131.697 356.574 131.444 357.165 131.43 357.785C131.416 358.405 131.642 359.007 132.06 359.465C132.478 359.923 133.057 360.202 133.676 360.244C134.294 360.287 134.906 360.089 135.382 359.692L137.034 361.344L137.344 361.034ZM131.875 357.844C131.875 357.454 131.99 357.074 132.207 356.75C132.423 356.426 132.731 356.174 133.09 356.025C133.45 355.876 133.846 355.837 134.228 355.913C134.61 355.989 134.96 356.176 135.236 356.452C135.511 356.727 135.699 357.078 135.775 357.46C135.851 357.841 135.812 358.237 135.663 358.597C135.514 358.957 135.261 359.264 134.937 359.481C134.614 359.697 134.233 359.812 133.844 359.812C133.322 359.812 132.821 359.604 132.452 359.235C132.083 358.866 131.876 358.366 131.875 357.844Z" fill="#263238"/>
<path d="M212.047 295.204H219.279L234.301 415.255H227.059L212.047 295.204Z" fill="white"/>
<path d="M241.629 415.255L226.617 295.204H253.819L268.831 415.255H241.629Z" fill="white"/>
<path opacity="0.2" d="M141.619 481.876L141.449 483.868C141.42 484.117 141.446 484.37 141.523 484.609C141.6 484.848 141.727 485.068 141.896 485.254C142.065 485.439 142.272 485.587 142.502 485.687C142.733 485.786 142.982 485.836 143.233 485.832H207.654C208.166 485.822 208.657 485.625 209.034 485.276C209.41 484.928 209.645 484.454 209.693 483.943L209.873 481.857C209.902 481.617 209.88 481.373 209.808 481.143C209.735 480.912 209.613 480.7 209.451 480.521C209.289 480.341 209.09 480.199 208.868 480.104C208.645 480.009 208.405 479.962 208.164 479.968H188.818C188.576 479.969 188.335 479.941 188.1 479.883H143.724C143.191 479.902 142.682 480.114 142.295 480.481C141.907 480.848 141.667 481.344 141.619 481.876Z" fill="white"/>
<path opacity="0.2" d="M128.523 479.912H188.1C187.339 479.757 186.661 479.326 186.198 478.702C185.734 478.079 185.517 477.306 185.589 476.532H130.412L128.523 479.912Z" fill="black"/>
<path d="M158.992 337.125L160.295 334.227C161.908 335.342 163.819 335.947 165.781 335.964C168.056 335.964 168.981 335.199 168.981 334.18C168.981 331.073 159.323 333.235 159.323 327.042C159.323 324.209 161.598 321.868 166.319 321.868C168.34 321.826 170.334 322.335 172.088 323.341L170.898 326.258C169.501 325.431 167.914 324.982 166.291 324.955C164.015 324.955 163.137 325.805 163.137 326.843C163.137 329.903 172.796 327.788 172.796 333.887C172.796 336.663 170.492 339.042 165.743 339.042C163.351 339.102 160.996 338.433 158.992 337.125Z" fill="white"/>
<path d="M188.297 335.681V338.759H175.438V322.151H188.004V325.238H179.271V328.845H186.985V331.838H179.271V335.681H188.297Z" fill="white"/>
<path d="M190.281 330.459C190.281 325.521 194.124 321.867 199.364 321.867C204.604 321.867 208.456 325.502 208.456 330.459C208.456 335.416 204.585 339.051 199.364 339.051C194.143 339.051 190.281 335.397 190.281 330.459ZM204.567 330.459C204.537 329.438 204.207 328.448 203.619 327.613C203.03 326.778 202.209 326.135 201.257 325.764C200.305 325.392 199.265 325.309 198.267 325.525C197.268 325.741 196.355 326.247 195.642 326.978C194.929 327.709 194.447 328.634 194.256 329.638C194.065 330.642 194.174 331.679 194.568 332.621C194.963 333.564 195.627 334.369 196.476 334.936C197.326 335.504 198.324 335.808 199.345 335.813C200.048 335.835 200.748 335.71 201.4 335.447C202.053 335.184 202.643 334.788 203.134 334.285C203.625 333.781 204.006 333.181 204.253 332.523C204.499 331.864 204.606 331.161 204.567 330.459Z" fill="white"/>
<path opacity="0.8" d="M177.823 379.094H137.979C135.971 379.094 134.344 380.721 134.344 382.729V391.151C134.344 393.158 135.971 394.786 137.979 394.786H177.823C179.83 394.786 181.458 393.158 181.458 391.151V382.729C181.458 380.721 179.83 379.094 177.823 379.094Z" fill="white"/>
<path opacity="0.8" d="M235.612 379.094H195.768C193.76 379.094 192.133 380.721 192.133 382.729V391.151C192.133 393.158 193.76 394.786 195.768 394.786H235.612C237.619 394.786 239.247 393.158 239.247 391.151V382.729C239.247 380.721 237.619 379.094 235.612 379.094Z" fill="white"/>
<path d="M156.764 300.558L180.17 259.014C180.253 258.869 180.372 258.748 180.516 258.664C180.661 258.58 180.825 258.536 180.992 258.536C181.159 258.536 181.323 258.58 181.467 258.664C181.611 258.748 181.731 258.869 181.813 259.014L205.219 300.558C205.297 300.701 205.337 300.862 205.335 301.025C205.332 301.189 205.287 301.349 205.205 301.489C205.122 301.63 205.004 301.747 204.863 301.829C204.721 301.91 204.561 301.954 204.398 301.955H157.595C157.431 301.955 157.27 301.913 157.127 301.832C156.984 301.751 156.865 301.634 156.781 301.493C156.697 301.352 156.652 301.192 156.649 301.028C156.646 300.864 156.686 300.702 156.764 300.558Z" fill="#3335CF"/>
<path opacity="0.3" d="M156.764 300.558L180.17 259.014C180.253 258.869 180.372 258.748 180.516 258.664C180.661 258.58 180.825 258.536 180.992 258.536C181.159 258.536 181.323 258.58 181.467 258.664C181.611 258.748 181.731 258.869 181.813 259.014L205.219 300.558C205.297 300.701 205.337 300.862 205.335 301.025C205.332 301.189 205.287 301.349 205.205 301.489C205.122 301.63 205.004 301.747 204.863 301.829C204.721 301.91 204.561 301.954 204.398 301.955H157.595C157.431 301.955 157.27 301.913 157.127 301.832C156.984 301.751 156.865 301.634 156.781 301.493C156.697 301.352 156.652 301.192 156.649 301.028C156.646 300.864 156.686 300.702 156.764 300.558Z" fill="black"/>
<path d="M169.881 308.177L168.738 303.513H164.641L163.508 308.177C165.548 309.022 167.841 309.022 169.881 308.177Z" fill="#263238"/>
<path opacity="0.2" d="M164.647 303.513L164.383 304.599C165.893 305.043 167.499 305.043 169.009 304.599L168.745 303.513H164.647Z" fill="white"/>
<path opacity="0.4" d="M164.084 305.77C164.009 306.072 163.933 306.364 163.867 306.648C165.711 307.227 167.688 307.227 169.532 306.648L169.324 305.77C167.595 306.119 165.814 306.119 164.084 305.77Z" fill="white"/>
<path d="M171.016 303.182C168.246 304.326 165.137 304.326 162.367 303.182V268.531C162.364 266.592 162.745 264.671 163.487 262.879C164.229 261.086 165.318 259.459 166.691 258.089C168.065 259.459 169.154 261.086 169.896 262.879C170.638 264.671 171.019 266.592 171.016 268.531V303.182Z" fill="#3335CF"/>
<path d="M162.367 268.531V301.19C165.167 302.167 168.216 302.167 171.016 301.19V268.531C171.019 266.592 170.638 264.671 169.896 262.879C169.154 261.086 168.065 259.459 166.691 258.089C165.318 259.459 164.229 261.086 163.487 262.879C162.745 264.671 162.364 266.592 162.367 268.531Z" fill="#3335CF"/>
<path opacity="0.4" d="M162.367 268.531V301.19C165.167 302.167 168.216 302.167 171.016 301.19V268.531C171.019 266.592 170.638 264.671 169.896 262.879C169.154 261.086 168.065 259.459 166.691 258.089C165.318 259.459 164.229 261.086 163.487 262.879C162.745 264.671 162.364 266.592 162.367 268.531Z" fill="white"/>
<path d="M162.367 268.531V293.08C165.194 293.887 168.189 293.887 171.016 293.08V268.531C171.019 266.592 170.638 264.671 169.896 262.879C169.154 261.086 168.065 259.459 166.691 258.089C165.318 259.459 164.229 261.086 163.487 262.879C162.745 264.671 162.364 266.592 162.367 268.531Z" fill="#3335CF"/>
<path opacity="0.6" d="M162.367 268.531V293.08C165.194 293.887 168.189 293.887 171.016 293.08V268.531C171.019 266.592 170.638 264.671 169.896 262.879C169.154 261.086 168.065 259.459 166.691 258.089C165.318 259.459 164.229 261.086 163.487 262.879C162.745 264.671 162.364 266.592 162.367 268.531Z" fill="white"/>
<path d="M162.367 268.531V281.372C165.193 282.184 168.19 282.184 171.016 281.372V268.531C171.019 266.592 170.638 264.671 169.896 262.879C169.154 261.086 168.065 259.459 166.691 258.089C165.318 259.459 164.229 261.086 163.487 262.879C162.745 264.671 162.364 266.592 162.367 268.531Z" fill="#3335CF"/>
<path opacity="0.8" d="M162.367 268.531V281.372C165.193 282.184 168.19 282.184 171.016 281.372V268.531C171.019 266.592 170.638 264.671 169.896 262.879C169.154 261.086 168.065 259.459 166.691 258.089C165.318 259.459 164.229 261.086 163.487 262.879C162.745 264.671 162.364 266.592 162.367 268.531Z" fill="white"/>
<path d="M162.367 268.531V270.033C165.194 270.84 168.189 270.84 171.016 270.033V268.531C171.019 266.592 170.638 264.671 169.896 262.879C169.154 261.086 168.065 259.459 166.691 258.089C165.318 259.459 164.229 261.086 163.487 262.879C162.745 264.671 162.364 266.592 162.367 268.531Z" fill="#3335CF"/>
<path opacity="0.4" d="M162.367 268.531V270.033C165.194 270.84 168.189 270.84 171.016 270.033V268.531C171.019 266.592 170.638 264.671 169.896 262.879C169.154 261.086 168.065 259.459 166.691 258.089C165.318 259.459 164.229 261.086 163.487 262.879C162.745 264.671 162.364 266.592 162.367 268.531Z" fill="white"/>
<path d="M197.701 308.177L196.568 303.513H192.471L191.328 308.177C193.368 309.022 195.661 309.022 197.701 308.177Z" fill="#263238"/>
<path opacity="0.2" d="M192.475 303.513L192.211 304.599C193.721 305.043 195.327 305.043 196.837 304.599L196.573 303.513H192.475Z" fill="white"/>
<path opacity="0.4" d="M191.911 305.77C191.845 306.072 191.769 306.364 191.703 306.648C193.547 307.227 195.524 307.227 197.368 306.648L197.151 305.77C195.422 306.119 193.64 306.119 191.911 305.77Z" fill="white"/>
<path d="M198.836 303.182C196.067 304.326 192.957 304.326 190.188 303.182V268.531C190.185 266.592 190.565 264.671 191.307 262.879C192.05 261.086 193.139 259.459 194.512 258.089C195.885 259.459 196.974 261.086 197.716 262.879C198.458 264.671 198.839 266.592 198.836 268.531V303.182Z" fill="#3335CF"/>
<path d="M190.188 268.531V301.19C192.988 302.167 196.036 302.167 198.836 301.19V268.531C198.839 266.592 198.458 264.671 197.716 262.879C196.974 261.086 195.885 259.459 194.512 258.089C193.139 259.459 192.05 261.086 191.307 262.879C190.565 264.671 190.185 266.592 190.188 268.531Z" fill="#3335CF"/>
<path opacity="0.4" d="M190.188 268.531V301.19C192.988 302.167 196.036 302.167 198.836 301.19V268.531C198.839 266.592 198.458 264.671 197.716 262.879C196.974 261.086 195.885 259.459 194.512 258.089C193.139 259.459 192.05 261.086 191.307 262.879C190.565 264.671 190.185 266.592 190.188 268.531Z" fill="white"/>
<path d="M190.188 268.531V293.08C193.014 293.887 196.01 293.887 198.836 293.08V268.531C198.839 266.592 198.458 264.671 197.716 262.879C196.974 261.086 195.885 259.459 194.512 258.089C193.139 259.459 192.05 261.086 191.307 262.879C190.565 264.671 190.185 266.592 190.188 268.531Z" fill="#3335CF"/>
<path opacity="0.6" d="M190.188 268.531V293.08C193.014 293.887 196.01 293.887 198.836 293.08V268.531C198.839 266.592 198.458 264.671 197.716 262.879C196.974 261.086 195.885 259.459 194.512 258.089C193.139 259.459 192.05 261.086 191.307 262.879C190.565 264.671 190.185 266.592 190.188 268.531Z" fill="white"/>
<path d="M190.188 268.531V281.372C193.013 282.184 196.01 282.184 198.836 281.372V268.531C198.839 266.592 198.458 264.671 197.716 262.879C196.974 261.086 195.885 259.459 194.512 258.089C193.139 259.459 192.05 261.086 191.307 262.879C190.565 264.671 190.185 266.592 190.188 268.531Z" fill="#3335CF"/>
<path opacity="0.8" d="M190.188 268.531V281.372C193.013 282.184 196.01 282.184 198.836 281.372V268.531C198.839 266.592 198.458 264.671 197.716 262.879C196.974 261.086 195.885 259.459 194.512 258.089C193.139 259.459 192.05 261.086 191.307 262.879C190.565 264.671 190.185 266.592 190.188 268.531Z" fill="white"/>
<path d="M190.188 268.531V270.033C193.014 270.84 196.01 270.84 198.836 270.033V268.531C198.839 266.592 198.458 264.671 197.716 262.879C196.974 261.086 195.885 259.459 194.512 258.089C193.139 259.459 192.05 261.086 191.307 262.879C190.565 264.671 190.185 266.592 190.188 268.531Z" fill="#3335CF"/>
<path opacity="0.4" d="M190.188 268.531V270.033C193.014 270.84 196.01 270.84 198.836 270.033V268.531C198.839 266.592 198.458 264.671 197.716 262.879C196.974 261.086 195.885 259.459 194.512 258.089C193.139 259.459 192.05 261.086 191.307 262.879C190.565 264.671 190.185 266.592 190.188 268.531Z" fill="white"/>
<path d="M185.761 310.849L183.872 303.296H177.263L175.422 310.849C177.059 311.536 178.816 311.89 180.591 311.89C182.366 311.89 184.124 311.536 185.761 310.849Z" fill="#263238"/>
<path opacity="0.2" d="M177.302 303.323C177.302 303.323 177.028 304.456 176.867 305.08C179.309 305.792 181.903 305.792 184.345 305.08L183.911 303.314L177.302 303.323Z" fill="white"/>
<path opacity="0.4" d="M176.41 306.978L176.07 308.394C179.029 309.31 182.195 309.31 185.153 308.394L184.813 306.978C182.039 307.525 179.185 307.525 176.41 306.978Z" fill="white"/>
<path d="M187.583 302.767C185.369 303.69 182.995 304.166 180.596 304.166C178.198 304.166 175.823 303.69 173.609 302.767V246.853C173.606 243.722 174.222 240.622 175.421 237.73C176.62 234.837 178.379 232.21 180.596 230C182.814 232.21 184.572 234.837 185.771 237.73C186.97 240.622 187.586 243.722 187.583 246.853V302.767Z" fill="#3335CF"/>
<path d="M173.609 246.853V299.585C178.135 301.153 183.057 301.153 187.583 299.585V246.853C187.586 243.722 186.97 240.622 185.771 237.73C184.572 234.837 182.814 232.21 180.596 230C178.379 232.21 176.62 234.837 175.421 237.73C174.222 240.622 173.606 243.722 173.609 246.853Z" fill="#3335CF"/>
<path opacity="0.4" d="M173.609 246.853V299.585C178.135 301.153 183.057 301.153 187.583 299.585V246.853C187.586 243.722 186.97 240.622 185.771 237.73C184.572 234.837 182.814 232.21 180.596 230C178.379 232.21 176.62 234.837 175.421 237.73C174.222 240.622 173.606 243.722 173.609 246.853Z" fill="white"/>
<path d="M173.609 246.853V286.452C178.176 287.753 183.016 287.753 187.583 286.452V246.853C187.586 243.722 186.97 240.622 185.771 237.73C184.572 234.837 182.814 232.21 180.596 230C178.379 232.21 176.62 234.837 175.421 237.73C174.222 240.622 173.606 243.722 173.609 246.853Z" fill="#3335CF"/>
<path opacity="0.6" d="M173.609 246.853V286.452C178.176 287.753 183.016 287.753 187.583 286.452V246.853C187.586 243.722 186.97 240.622 185.771 237.73C184.572 234.837 182.814 232.21 180.596 230C178.379 232.21 176.62 234.837 175.421 237.73C174.222 240.622 173.606 243.722 173.609 246.853Z" fill="white"/>
<path d="M173.609 246.853V267.625C178.176 268.927 183.016 268.927 187.583 267.625V246.853C187.586 243.722 186.97 240.622 185.771 237.73C184.572 234.837 182.814 232.21 180.596 230C178.379 232.21 176.62 234.837 175.421 237.73C174.222 240.622 173.606 243.722 173.609 246.853Z" fill="#3335CF"/>
<path opacity="0.8" d="M173.609 246.853V267.625C178.176 268.927 183.016 268.927 187.583 267.625V246.853C187.586 243.722 186.97 240.622 185.771 237.73C184.572 234.837 182.814 232.21 180.596 230C178.379 232.21 176.62 234.837 175.421 237.73C174.222 240.622 173.606 243.722 173.609 246.853Z" fill="white"/>
<path d="M173.609 246.853V249.28C178.176 250.581 183.016 250.581 187.583 249.28V246.853C187.586 243.722 186.97 240.622 185.771 237.73C184.572 234.837 182.814 232.21 180.596 230C178.379 232.21 176.62 234.837 175.421 237.73C174.222 240.622 173.606 243.722 173.609 246.853Z" fill="#3335CF"/>
<path opacity="0.1" d="M173.609 246.853V249.28C178.176 250.581 183.016 250.581 187.583 249.28V246.853C187.586 243.722 186.97 240.622 185.771 237.73C184.572 234.837 182.814 232.21 180.596 230C178.379 232.21 176.62 234.837 175.421 237.73C174.222 240.622 173.606 243.722 173.609 246.853Z" fill="white"/>
<path d="M184.67 258.041C184.672 258.847 184.435 259.634 183.989 260.305C183.543 260.975 182.908 261.498 182.164 261.808C181.421 262.117 180.603 262.199 179.813 262.043C179.023 261.887 178.297 261.5 177.726 260.932C177.156 260.363 176.768 259.638 176.61 258.848C176.452 258.059 176.532 257.24 176.84 256.496C177.148 255.752 177.669 255.115 178.339 254.668C179.008 254.22 179.795 253.981 180.601 253.981C181.678 253.981 182.712 254.409 183.475 255.17C184.238 255.931 184.667 256.964 184.67 258.041Z" fill="#3335CF"/>
<path d="M180.605 262.112C179.577 262.114 178.586 261.725 177.834 261.024C177.081 260.322 176.624 259.361 176.555 258.335C176.555 258.439 176.555 258.543 176.555 258.637C176.555 259.716 176.983 260.751 177.747 261.515C178.51 262.278 179.545 262.706 180.624 262.706C181.703 262.706 182.738 262.278 183.502 261.515C184.265 260.751 184.693 259.716 184.693 258.637C184.693 258.543 184.693 258.439 184.693 258.335C184.621 259.367 184.158 260.332 183.398 261.034C182.639 261.736 181.639 262.121 180.605 262.112Z" fill="#3335CF"/>
<path opacity="0.3" d="M180.605 262.112C179.577 262.114 178.586 261.725 177.834 261.024C177.081 260.322 176.624 259.361 176.555 258.335C176.555 258.439 176.555 258.543 176.555 258.637C176.555 259.716 176.983 260.751 177.747 261.515C178.51 262.278 179.545 262.706 180.624 262.706C181.703 262.706 182.738 262.278 183.502 261.515C184.265 260.751 184.693 259.716 184.693 258.637C184.693 258.543 184.693 258.439 184.693 258.335C184.621 259.367 184.158 260.332 183.398 261.034C182.639 261.736 181.639 262.121 180.605 262.112Z" fill="black"/>
<path d="M180.606 260.922C182.197 260.922 183.486 259.632 183.486 258.042C183.486 256.451 182.197 255.162 180.606 255.162C179.016 255.162 177.727 256.451 177.727 258.042C177.727 259.632 179.016 260.922 180.606 260.922Z" fill="white"/>
<path d="M180.452 260.902L181.632 255.369C181.331 255.251 181.011 255.187 180.688 255.181L179.508 260.704C179.808 260.826 180.128 260.894 180.452 260.902Z" fill="#3335CF"/>
<path d="M181.529 260.761L182.548 255.937C182.417 255.817 182.275 255.709 182.124 255.616L181 260.884C181.179 260.858 181.356 260.817 181.529 260.761Z" fill="#3335CF"/>
<g opacity="0.7">
<path d="M180.444 260.903L181.624 255.37C181.323 255.252 181.004 255.188 180.68 255.182L179.5 260.705C179.8 260.827 180.12 260.895 180.444 260.903Z" fill="white"/>
<path d="M181.521 260.761L182.541 255.936C182.409 255.816 182.267 255.709 182.116 255.615L180.992 260.884C181.171 260.857 181.348 260.816 181.521 260.761Z" fill="white"/>
</g>
<path d="M284.854 367.215L283.768 367.451C283.282 367.549 282.838 367.797 282.5 368.159C282.161 368.521 281.944 368.98 281.879 369.472L281.785 370.236C281.736 370.618 281.781 371.006 281.916 371.366C282.05 371.727 282.271 372.049 282.559 372.304C284.344 373.862 288.555 376.751 293.653 374.891L297.723 371.823L297.052 366.328L288.555 365.1C288.041 365.119 287.547 365.305 287.148 365.629L284.854 367.215Z" fill="#FAB27B"/>
<path d="M297.749 371.823L309.05 371.256L307.303 365.11L297.078 366.328L297.749 371.823Z" fill="#FAB27B"/>
<path d="M304.482 365.158C304.019 366.025 303.859 367.022 304.029 367.99C304.234 369.558 304.864 371.041 305.851 372.277C303.947 372.305 302.074 372.767 300.375 373.627L300.281 373.674C294.389 369.652 297.788 364.884 297.788 364.884L298.175 364.94C300.264 365.23 302.378 365.302 304.482 365.158Z" fill="#3335CF"/>
<path d="M327.627 370.227C317.128 372.644 304.07 372.408 304.07 372.408C303.64 371.682 303.445 370.841 303.513 370C303.608 368.244 303.844 366.044 304.457 365.157C305.071 364.269 309.613 363.797 309.613 363.797C309.613 363.797 318.384 359.728 320.046 358.396C321.707 357.065 321.641 350.843 321.33 346.755C319.658 324.784 323.52 323.151 326.995 322.14C334.359 320.092 336.918 368.084 327.627 370.227Z" fill="#3335CF"/>
<path d="M255.691 374.939H285.036C285.98 374.939 286.424 374.165 285.98 373.211L278.653 356.66C278.424 356.178 278.073 355.764 277.634 355.461C277.194 355.157 276.683 354.975 276.151 354.932H246.797C245.853 354.932 245.409 355.706 245.853 356.66L253.217 373.211C253.443 373.69 253.79 374.102 254.224 374.405C254.658 374.708 255.164 374.892 255.691 374.939Z" fill="#3335CF"/>
<path opacity="0.2" d="M255.691 374.939H285.036C285.98 374.939 286.424 374.165 285.98 373.211L278.653 356.66C278.424 356.178 278.073 355.764 277.634 355.461C277.194 355.157 276.683 354.975 276.151 354.932H246.797C245.853 354.932 245.409 355.706 245.853 356.66L253.217 373.211C253.443 373.69 253.79 374.102 254.224 374.405C254.658 374.708 255.164 374.892 255.691 374.939Z" fill="black"/>
<path d="M245.509 354.932H246.784C245.84 354.932 245.396 355.706 245.84 356.66L253.204 373.211C253.431 373.693 253.781 374.106 254.219 374.409C254.657 374.713 255.166 374.895 255.697 374.939H254.432C253.9 374.896 253.388 374.714 252.949 374.41C252.51 374.107 252.158 373.693 251.93 373.211L244.575 356.66C244.131 355.706 244.556 354.932 245.509 354.932Z" fill="#3335CF"/>
<path opacity="0.4" d="M245.509 354.932H246.784C245.84 354.932 245.396 355.706 245.84 356.66L253.204 373.211C253.431 373.693 253.781 374.106 254.219 374.409C254.657 374.713 255.166 374.895 255.697 374.939H254.432C253.9 374.896 253.388 374.714 252.949 374.41C252.51 374.107 252.158 373.693 251.93 373.211L244.575 356.66C244.131 355.706 244.556 354.932 245.509 354.932Z" fill="black"/>
<path d="M256.243 373.041H282.803L275.598 356.83H249.039L256.243 373.041Z" fill="#263238"/>
<path opacity="0.8" d="M256.243 373.041H282.803L275.598 356.83H249.039L256.243 373.041Z" fill="white"/>
<path d="M343.637 373.646C343.637 373.646 344.364 383.333 344.468 386.732C345.176 409.439 326.642 411.167 313.008 408.665L263.629 394.861C261.674 401.423 238.844 437.556 238.844 437.556L226.844 430.664C226.844 430.664 239.288 400.838 247.323 380.075C251.902 368.226 289.225 376.422 302.972 378.867C307.145 379.991 306.343 373.466 306.343 373.466L343.637 373.646Z" fill="#263238"/>
<path d="M235.774 436.877L231.185 444.515L222.641 440.266L227.088 431.57L235.774 436.877Z" fill="#FAB27B"/>
<path d="M218.08 438.726C216.956 438.207 215.88 437.471 215.729 436.838C215.702 436.654 215.73 436.467 215.808 436.299C215.887 436.131 216.014 435.99 216.173 435.894C216.309 435.801 216.463 435.736 216.626 435.704C216.788 435.671 216.955 435.672 217.117 435.705C218.826 435.979 221.167 439.236 221.262 439.378C221.291 439.417 221.308 439.465 221.308 439.515C221.308 439.564 221.291 439.612 221.262 439.652C221.232 439.689 221.192 439.717 221.147 439.734C221.102 439.751 221.054 439.755 221.007 439.746C220.003 439.493 219.023 439.152 218.08 438.726ZM217.447 436.3C217.31 436.233 217.164 436.188 217.013 436.168C216.918 436.142 216.819 436.138 216.722 436.156C216.626 436.174 216.535 436.213 216.456 436.271C216.173 436.47 216.163 436.621 216.191 436.725C216.342 437.508 218.627 438.566 220.412 439.132C219.615 437.998 218.609 437.027 217.447 436.271V436.3Z" fill="#3335CF"/>
<path d="M220.953 439.671C220.926 439.682 220.895 439.682 220.868 439.671C220.009 438.726 218.725 435.733 219.385 434.799C219.518 434.563 219.839 434.345 220.462 434.563C220.688 434.642 220.896 434.767 221.073 434.929C221.25 435.092 221.392 435.288 221.491 435.507C222.209 436.989 221.33 439.548 221.293 439.661C221.279 439.702 221.254 439.737 221.22 439.764C221.187 439.791 221.146 439.807 221.104 439.812C221.07 439.802 221.038 439.783 221.012 439.759C220.986 439.734 220.966 439.704 220.953 439.671ZM220.415 434.95L220.301 434.884C219.895 434.733 219.801 434.884 219.763 434.931C219.423 435.516 220.15 437.707 220.972 438.887C221.333 437.809 221.356 436.646 221.038 435.554C220.911 435.283 220.69 435.068 220.415 434.95Z" fill="#3335CF"/>
<path d="M222.491 438.869L232.386 443.391C232.561 443.471 232.706 443.608 232.796 443.778C232.887 443.949 232.918 444.145 232.886 444.335L230.998 453.21C230.96 453.399 230.884 453.578 230.777 453.737C230.669 453.896 230.531 454.032 230.37 454.137C230.21 454.243 230.03 454.315 229.841 454.35C229.652 454.386 229.458 454.383 229.27 454.343C229.169 454.325 229.07 454.293 228.977 454.249C225.437 452.559 222.368 450.907 217.902 448.886C212.662 446.488 213.701 447.725 207.516 444.987C203.74 443.334 205.033 438.802 206.695 439.322C214.324 441.72 216.071 439.879 220.036 438.576C220.862 438.363 221.738 438.467 222.491 438.869Z" fill="#263238"/>
<path opacity="0.2" d="M233.437 440.757L235.769 436.877L227.082 431.57L224.93 435.772L233.437 440.757Z" fill="black"/>
<path d="M240.746 436.839L225.866 427.558C225.189 427.935 224.645 428.512 224.307 429.21C223.969 429.907 223.854 430.692 223.978 431.457L238.291 440.615C238.291 440.615 240.208 440.493 240.746 436.839Z" fill="#3335CF"/>
<path d="M261.093 474.879L259.29 483.348L250.094 482.139L251.434 472.735L261.093 474.879Z" fill="#FAB27B"/>
<path d="M245.421 482.158C244.222 482.035 243.004 481.696 242.655 481.139C242.578 480.987 242.548 480.817 242.569 480.649C242.589 480.481 242.658 480.323 242.768 480.194C242.957 479.946 243.234 479.78 243.542 479.732C245.194 479.448 248.376 481.696 248.518 481.799C248.555 481.827 248.584 481.865 248.599 481.909C248.614 481.953 248.615 482 248.603 482.045C248.588 482.09 248.561 482.131 248.524 482.161C248.487 482.191 248.442 482.21 248.395 482.215C247.404 482.281 246.409 482.262 245.421 482.158ZM244.071 480.128C243.924 480.105 243.774 480.105 243.627 480.128C243.532 480.136 243.439 480.164 243.356 480.211C243.272 480.259 243.201 480.324 243.145 480.402C242.947 480.676 242.994 480.818 243.051 480.902C243.438 481.573 245.884 481.847 247.687 481.781C246.598 481 245.371 480.433 244.071 480.109V480.128Z" fill="#3335CF"/>
<path d="M248.377 482.158C248.347 482.168 248.313 482.168 248.283 482.158C247.178 481.526 245.063 479.213 245.375 478.146C245.422 477.881 245.649 477.589 246.319 477.589C246.547 477.585 246.774 477.629 246.985 477.716C247.197 477.804 247.387 477.934 247.546 478.098C248.679 479.231 248.679 481.875 248.679 481.979C248.68 482.02 248.669 482.061 248.647 482.096C248.625 482.131 248.594 482.159 248.557 482.177C248.528 482.191 248.496 482.197 248.464 482.194C248.432 482.19 248.402 482.178 248.377 482.158ZM246.394 478.023H246.272C245.856 478.023 245.809 478.183 245.79 478.24C245.667 478.892 247.027 480.676 248.151 481.497C248.145 480.394 247.799 479.319 247.159 478.419C246.956 478.21 246.685 478.079 246.394 478.051V478.023Z" fill="#3335CF"/>
<path d="M249.515 480.893L260.042 481.932C260.236 481.95 260.417 482.034 260.556 482.169C260.696 482.305 260.784 482.485 260.807 482.678L261.874 491.43C261.919 491.803 261.816 492.178 261.586 492.475C261.356 492.772 261.019 492.967 260.646 493.016C260.546 493.026 260.445 493.026 260.344 493.016C256.568 492.573 253.197 492.072 248.476 491.581C242.896 491.034 244.246 491.836 237.675 491.288C233.719 490.949 233.435 486.388 235.135 486.332C242.896 486.124 243.925 483.886 247.145 481.431C247.843 480.97 248.686 480.779 249.515 480.893Z" fill="#263238"/>
<path opacity="0.2" d="M250.727 477.683L260.338 478.429L261.094 474.879L251.435 472.735L250.727 477.683Z" fill="black"/>
<path d="M263.823 471.528L263.55 472.595L249.453 471.48L249.604 470.414L263.823 471.528Z" fill="#263238"/>
<path d="M264.405 475.945L260.93 475.634L251.149 474.756L247.995 474.473C247.547 473.87 247.293 473.145 247.268 472.394C247.242 471.643 247.447 470.903 247.853 470.271L249.61 470.413L263.829 471.527L264.848 471.612C266.029 475.001 264.405 475.945 264.405 475.945Z" fill="#3335CF"/>
<path d="M321.632 417.086C308.876 418.21 279.456 418.682 275.472 418.096L263.821 471.527L249.602 470.413C249.602 470.413 251.103 424.214 257.372 405.114C262.414 389.762 343.065 392.944 343.065 392.944L343.348 397.268C343.905 412.167 336.238 415.792 321.632 417.086Z" fill="#263238"/>
<path opacity="0.1" d="M321.632 417.086C308.876 418.21 279.456 418.682 275.472 418.096L263.821 471.527L249.602 470.413C249.602 470.413 251.103 424.214 257.372 405.114C262.414 389.762 343.065 392.944 343.065 392.944L343.348 397.268C343.905 412.167 336.238 415.792 321.632 417.086Z" fill="black"/>
<path d="M258.11 403.792L257.969 404.84C257.996 404.489 258.043 404.139 258.11 403.792Z" fill="#263238"/>
<path d="M303.258 320.319L307.176 326.04L315.985 318.506L310.481 311.746L303.258 320.319Z" fill="#FAB27B"/>
<path opacity="0.2" d="M305.218 323.029C306.918 320.527 306.163 316.646 306.163 316.646L304.614 318.619L303.273 320.319L305.218 323.029Z" fill="black"/>
<path d="M288.196 307.714C288.385 308.271 288.838 308.658 289.207 308.489C289.575 308.319 289.735 307.762 289.537 307.223C289.339 306.685 288.904 306.279 288.527 306.459C288.149 306.638 288.017 307.157 288.196 307.714Z" fill="#263238"/>
<path d="M290.231 307.884L288.984 313.228C289.615 313.36 290.267 313.343 290.89 313.179C291.512 313.015 292.088 312.709 292.572 312.284L290.231 307.884Z" fill="#ED893E"/>
<path d="M287.634 303.815C287.679 303.792 287.729 303.78 287.78 303.78C287.831 303.78 287.881 303.792 287.927 303.815C288.283 303.965 288.671 304.028 289.056 303.998C289.442 303.969 289.816 303.847 290.145 303.645C290.177 303.62 290.213 303.602 290.252 303.591C290.292 303.581 290.332 303.579 290.372 303.585C290.412 303.591 290.45 303.606 290.484 303.627C290.518 303.649 290.548 303.677 290.57 303.711C290.615 303.779 290.633 303.862 290.619 303.943C290.605 304.024 290.56 304.096 290.495 304.145C290.081 304.421 289.606 304.589 289.111 304.633C288.616 304.678 288.118 304.598 287.662 304.4C287.624 304.386 287.588 304.363 287.558 304.335C287.528 304.307 287.504 304.273 287.488 304.235C287.471 304.197 287.462 304.156 287.461 304.115C287.46 304.074 287.468 304.033 287.483 303.994C287.515 303.921 287.567 303.859 287.634 303.815Z" fill="#263238"/>
<path d="M309.12 298.045C311.953 305.344 313.36 308.375 311.415 313.766C307.591 320.139 298.782 324.01 293.759 317.76C289.246 312.095 285.327 301.171 291.049 294.911C292.96 292.766 295.64 291.464 298.507 291.287C301.374 291.11 304.194 292.073 306.354 293.967C307.59 295.085 308.539 296.484 309.12 298.045Z" fill="#FAB27B"/>
<path d="M316.022 300.218C315.624 302.667 315.381 305.14 315.295 307.62C315.228 309.909 314.479 312.126 313.146 313.988C311.812 315.849 309.954 317.271 307.808 318.072C307.808 318.072 297.517 317.949 293.145 305.004C291.936 305.119 290.717 304.934 289.596 304.465C288.475 303.997 287.487 303.26 286.718 302.32C285.949 301.379 285.424 300.264 285.188 299.073C284.952 297.881 285.013 296.65 285.365 295.487C286.206 292.73 289.69 291.012 292.569 290.908C293.513 289.682 294.744 288.707 296.153 288.068C297.562 287.429 299.107 287.146 300.651 287.245C303.766 287.497 306.774 288.495 309.423 290.153C311.813 291.349 313.836 293.169 315.277 295.421C316.046 296.894 316.308 298.58 316.022 300.218Z" fill="#263238"/>
<path d="M295.307 306.543C294.981 307.273 294.802 308.06 294.783 308.859C294.764 309.658 294.903 310.453 295.194 311.198C295.987 313.171 298.102 312.841 299.32 311.198C300.424 309.696 301.321 306.883 299.829 305.429C298.338 303.975 296.128 304.749 295.307 306.543Z" fill="#FAB27B"/>
<path d="M316.053 314.248C313.22 314.37 309.037 316.287 303.448 320.139C303.156 320.393 302.933 320.716 302.801 321.08C302.669 321.443 302.632 321.834 302.693 322.216C302.759 322.972 303.514 323.68 304.232 323.444C304.6 324.388 304.845 325.427 305.176 326.333C306.923 325.443 308.734 324.685 310.595 324.067C313.413 322.943 316.298 321.997 319.234 321.234C318.451 320.035 317.403 318.865 317.091 317.458C317.422 317.311 317.691 317.053 317.851 316.729C318.011 316.405 318.053 316.035 317.969 315.683C317.808 315.293 317.545 314.954 317.208 314.702C316.871 314.449 316.472 314.292 316.053 314.248Z" fill="#3335CF"/>
<path d="M316.053 314.248C313.22 314.37 309.037 316.287 303.448 320.139C303.156 320.393 302.933 320.716 302.801 321.08C302.669 321.443 302.632 321.834 302.693 322.216C302.759 322.972 303.514 323.68 304.232 323.444C304.6 324.388 304.845 325.427 305.176 326.333C306.923 325.443 308.734 324.685 310.595 324.067C313.413 322.943 316.298 321.997 319.234 321.234C318.451 320.035 317.403 318.865 317.091 317.458C317.422 317.311 317.691 317.053 317.851 316.729C318.011 316.405 318.053 316.035 317.969 315.683C317.808 315.293 317.545 314.954 317.208 314.702C316.871 314.449 316.472 314.292 316.053 314.248Z" fill="#3335CF"/>
<path d="M307.763 386.571C301.771 372.231 296.672 357.533 292.496 342.563C288.115 326.21 300.625 325.927 315.722 321.867C327.694 318.647 332.812 321.527 336.229 327.598C339.647 333.669 345.161 385.051 345.161 385.051L307.763 386.571Z" fill="#3335CF"/>
<path d="M307.763 386.571C301.771 372.231 296.672 357.533 292.496 342.563C288.115 326.21 300.625 325.927 315.722 321.867C327.694 318.647 332.812 321.527 336.229 327.598C339.647 333.669 345.161 385.051 345.161 385.051L307.763 386.571Z" fill="#3335CF"/>
<path opacity="0.3" d="M307.763 386.571C301.771 372.231 296.672 357.533 292.496 342.563C288.115 326.21 300.625 325.927 315.722 321.867C327.694 318.647 332.812 321.527 336.229 327.598C339.647 333.669 345.161 385.051 345.161 385.051L307.763 386.571Z" fill="black"/>
<path d="M253.163 363.005H252.106C251.634 363.023 251.18 363.188 250.807 363.475C250.433 363.763 250.158 364.159 250.019 364.61L249.802 365.309C249.69 365.66 249.666 366.032 249.732 366.395C249.797 366.757 249.951 367.097 250.18 367.386C251.605 369.152 255.08 372.57 260.188 371.663L264.54 369.454L264.824 364.166L257.063 361.608C256.574 361.542 256.078 361.634 255.646 361.872L253.163 363.005Z" fill="#FAB27B"/>
<path d="M264.555 369.491L275.28 370.841L274.657 364.761L264.838 364.204L264.555 369.491Z" fill="#FAB27B"/>
<path d="M272.049 364.336C271.45 365.08 271.117 366.004 271.105 366.96C271.04 368.472 271.386 369.973 272.106 371.304C270.308 371.011 268.467 371.134 266.724 371.662H266.63C261.758 366.894 265.752 362.976 265.752 362.976L266.111 363.089C268.042 363.709 270.032 364.127 272.049 364.336Z" fill="#3335CF"/>
<path d="M292.923 372.956C282.641 373.485 270.395 371.068 270.395 371.068C270.109 370.313 270.063 369.489 270.263 368.707C270.65 367.064 271.207 365.034 271.991 364.307C272.774 363.58 277.07 363.892 277.07 363.892C277.07 363.892 286.002 361.513 287.787 360.54C289.571 359.568 290.544 353.751 290.921 349.824C293.008 328.863 296.917 327.957 300.363 327.608C307.586 326.89 302.025 372.493 292.923 372.956Z" fill="#3335CF"/>
<path d="M326.804 492.355L319.676 432.779C319.327 429.866 317.923 427.182 315.729 425.235C313.535 423.288 310.703 422.213 307.77 422.213H284.251C281.4 422.203 278.639 423.213 276.467 425.06C274.296 426.908 272.857 429.472 272.411 432.288L262.818 491.6L260.93 491.298L270.532 432.004C271.048 428.746 272.713 425.779 275.225 423.64C277.738 421.502 280.932 420.333 284.232 420.344H307.789C311.183 420.347 314.459 421.592 316.999 423.845C319.538 426.097 321.165 429.201 321.574 432.571L328.702 492.148L326.804 492.355Z" fill="#263238"/>
<path d="M359.789 492.355L352.661 432.779C352.312 429.866 350.907 427.182 348.713 425.235C346.519 423.288 343.688 422.213 340.755 422.213H317.198C314.346 422.201 311.584 423.21 309.412 425.058C307.24 426.906 305.802 429.471 305.358 432.288L295.756 491.6L293.867 491.298L303.469 432.004C303.984 428.745 305.648 425.777 308.161 423.638C310.674 421.499 313.869 420.331 317.169 420.344H340.726C344.121 420.347 347.397 421.592 349.936 423.845C352.476 426.097 354.103 429.201 354.511 432.571L361.64 492.148L359.789 492.355Z" fill="#263238"/>
<path d="M296.838 475.002H264.406V476.89H296.838V475.002Z" fill="#263238"/>
<path d="M354.184 431.721H320.656V433.609H354.184V431.721Z" fill="#263238"/>
<path d="M326.805 422.619H351.476C356.063 422.619 360.482 420.89 363.851 417.777C367.219 414.664 369.291 410.395 369.652 405.823L373.164 361.504C373.298 359.808 373.08 358.103 372.525 356.495C371.969 354.887 371.088 353.411 369.936 352.16C368.783 350.908 367.385 349.908 365.829 349.222C364.272 348.536 362.591 348.178 360.89 348.172H347.199C339.453 348.172 331.914 350.672 325.704 355.301C319.493 359.93 314.942 366.44 312.728 373.863L303.286 405.502C302.517 408.086 300.933 410.353 298.77 411.965C296.608 413.576 293.983 414.445 291.286 414.443H274.026C271.86 414.446 269.782 415.308 268.251 416.841C266.72 418.374 265.859 420.453 265.859 422.619H326.805Z" fill="#3335CF"/>
<path opacity="0.7" d="M326.805 422.619H351.476C356.063 422.619 360.482 420.89 363.851 417.777C367.219 414.664 369.291 410.395 369.652 405.823L373.164 361.504C373.298 359.808 373.08 358.103 372.525 356.495C371.969 354.887 371.088 353.411 369.936 352.16C368.783 350.908 367.385 349.908 365.829 349.222C364.272 348.536 362.591 348.178 360.89 348.172H347.199C339.453 348.172 331.914 350.672 325.704 355.301C319.493 359.93 314.942 366.44 312.728 373.863L303.286 405.502C302.517 408.086 300.933 410.353 298.77 411.965C296.608 413.576 293.983 414.445 291.286 414.443H274.026C271.86 414.446 269.782 415.308 268.251 416.841C266.72 418.374 265.859 420.453 265.859 422.619H326.805Z" fill="white"/>
<path d="M302.344 269.665V269.562C302.348 269.596 302.348 269.63 302.344 269.665Z" fill="#3335CF"/>
<path d="M257.878 257.712C254.646 260.69 252.28 264.488 251.033 268.702H249.305C249.902 263.959 251.678 259.441 254.469 255.56L257.878 257.712Z" fill="#3335CF"/>
<path opacity="0.6" d="M257.878 257.712C254.646 260.69 252.28 264.488 251.033 268.702H249.305C249.902 263.959 251.678 259.441 254.469 255.56L257.878 257.712Z" fill="white"/>
<path d="M267.885 252.057C264.146 253.121 260.714 255.063 257.877 257.722L254.469 255.56C257.251 251.668 260.913 248.488 265.157 246.279L267.885 252.057Z" fill="#3335CF"/>
<path opacity="0.5" d="M267.885 252.057C264.146 253.121 260.714 255.063 257.877 257.722L254.469 255.56C257.251 251.668 260.913 248.488 265.157 246.279L267.885 252.057Z" fill="white"/>
<path d="M278.496 243.097L277.655 251.528C276.449 251.318 275.226 251.213 274.001 251.217C271.937 251.218 269.881 251.501 267.893 252.057L265.164 246.297C269.156 244.206 273.593 243.108 278.099 243.097H278.496Z" fill="#3335CF"/>
<path opacity="0.4" d="M278.496 243.097L277.655 251.528C276.449 251.318 275.226 251.213 274.001 251.217C271.937 251.218 269.881 251.501 267.893 252.057L265.164 246.297C269.156 244.206 273.593 243.108 278.099 243.097H278.496Z" fill="white"/>
<path d="M291.13 246.675L285.625 254.748C283.236 253.105 280.516 252.006 277.656 251.528L278.497 243.097C282.953 243.128 287.318 244.365 291.13 246.675Z" fill="#3335CF"/>
<path opacity="0.3" d="M291.13 246.675L285.625 254.748C283.236 253.105 280.516 252.006 277.656 251.528L278.497 243.097C282.953 243.128 287.318 244.365 291.13 246.675Z" fill="white"/>
<path d="M299.851 256.192L291.259 260.79C289.83 258.389 287.897 256.328 285.594 254.747L291.098 246.675C294.845 248.971 297.876 252.267 299.851 256.192Z" fill="#3335CF"/>
<path opacity="0.2" d="M299.851 256.192L291.259 260.79C289.83 258.389 287.897 256.328 285.594 254.747L291.098 246.675C294.845 248.971 297.876 252.267 299.851 256.192Z" fill="white"/>
<path d="M302.361 269.317L293.958 269.222C293.695 266.246 292.773 263.366 291.258 260.791L299.85 256.193C301.864 260.258 302.733 264.795 302.361 269.317Z" fill="#3335CF"/>
<path opacity="0.1" d="M302.361 269.317L293.958 269.222C293.695 266.246 292.773 263.366 291.258 260.791L299.85 256.193C301.864 260.258 302.733 264.795 302.361 269.317Z" fill="white"/>
<path d="M302.358 269.562C302.362 269.596 302.362 269.631 302.358 269.665C302.018 272.62 301.265 275.512 300.12 278.257L293.312 276.718L293.86 274.122C293.907 273.782 293.955 273.442 293.983 273.102V272.894C294.092 271.673 294.092 270.444 293.983 269.222L302.386 269.316C302.386 269.373 302.386 269.411 302.386 269.458C302.382 269.494 302.372 269.529 302.358 269.562Z" fill="#3335CF"/>
<path d="M250.329 277.72L249.829 277.833C249.668 277.182 249.536 276.521 249.423 275.85C249.104 273.805 249.028 271.729 249.196 269.666V269.562C249.192 269.528 249.192 269.493 249.196 269.458C249.196 269.203 249.243 268.939 249.281 268.684H251.009C250.608 270.053 250.336 271.457 250.197 272.876C250.197 272.876 250.197 272.942 250.197 272.98C250.197 273.018 250.197 273.046 250.197 273.084C250.134 273.923 250.118 274.764 250.15 275.605C250.188 276.332 250.244 277.031 250.329 277.72Z" fill="#3335CF"/>
<path opacity="0.7" d="M250.329 277.72L249.829 277.833C249.668 277.182 249.536 276.521 249.423 275.85C249.104 273.805 249.028 271.729 249.196 269.666V269.562C249.192 269.528 249.192 269.493 249.196 269.458C249.196 269.203 249.243 268.939 249.281 268.684H251.009C250.608 270.053 250.336 271.457 250.197 272.876C250.197 272.876 250.197 272.942 250.197 272.98C250.197 273.018 250.197 273.046 250.197 273.084C250.134 273.923 250.118 274.764 250.15 275.605C250.188 276.332 250.244 277.031 250.329 277.72Z" fill="white"/>
<path d="M301.798 276.332L301.08 278.107L299.626 277.786L286.077 274.717L280.242 273.395C280.647 272.871 280.983 272.296 281.243 271.686C281.54 270.974 281.718 270.218 281.772 269.449L294.707 273.896L301.798 276.332Z" fill="#263238"/>
<path d="M281.777 269.467C281.669 270.905 281.137 272.278 280.248 273.414L275.008 272.224L276.66 267.711L281.777 269.467Z" fill="#263238"/>
<path d="M281.772 269.467C281.663 270.905 281.131 272.279 280.242 273.414C279.592 274.244 278.775 274.929 277.844 275.425C274.473 277.228 270.498 276.095 268.978 272.876C268.281 271.219 268.238 269.358 268.858 267.671C269.478 265.983 270.716 264.594 272.32 263.783C275.691 261.98 279.666 263.122 281.196 266.333C281.654 267.31 281.853 268.39 281.772 269.467Z" fill="#3335CF"/>
<path d="M66.6686 265.472H72.0787V270.004H66.1304L65.2996 276.613H60.5787L61.4096 270.004H55.3008L54.47 276.613H49.8435L50.6744 270.004H45.2266V265.472H51.2126L52.0812 258.74H46.6428V254.208H52.6288L53.4597 247.599H58.1145L57.2836 254.208H63.3829L64.2138 247.599H68.8685L68.0377 254.208H73.4383V258.74H67.4523L66.6686 265.472ZM61.9478 265.472L62.8164 258.74H56.7737L55.8296 265.472H61.9478Z" fill="#3335CF"/>
<path d="M87.1574 247.552V276.651H80.4255V252.962H74.6094V247.552H87.1574Z" fill="#3335CF"/>
<path d="M61.9241 368.566H15.3672V400.621H61.9241V368.566Z" fill="#999AE7"/>
<path d="M61.9241 368.566H15.3672V371.503H61.9241V368.566Z" fill="#3335CF"/>
<path d="M23.8938 386.298L31.5132 390.519C31.7985 390.658 32.0549 390.85 32.2686 391.085C32.4019 391.272 32.4685 391.498 32.4574 391.727C32.4597 391.886 32.4299 392.045 32.3699 392.192C32.3099 392.34 32.2208 392.474 32.108 392.586C32.0016 392.7 31.8729 392.791 31.73 392.852C31.587 392.914 31.4329 392.946 31.2772 392.945C30.9407 392.905 30.6178 392.789 30.333 392.605L20.5137 387.138C20.359 387.059 20.2292 386.939 20.1386 386.791C20.048 386.642 20 386.472 20 386.298C20 386.124 20.048 385.954 20.1386 385.806C20.2292 385.657 20.359 385.537 20.5137 385.458L30.333 379.991C30.6201 379.814 30.9423 379.701 31.2772 379.661C31.5928 379.666 31.8939 379.794 32.1163 380.018C32.3386 380.242 32.4644 380.544 32.4668 380.86C32.4844 381.09 32.4172 381.318 32.278 381.502C32.0678 381.743 31.8109 381.939 31.5227 382.078L23.8938 386.298Z" fill="white"/>
<path d="M43.486 378.433L35.9327 394.663C35.8188 394.962 35.6416 395.232 35.4134 395.456C35.2107 395.62 34.9565 395.707 34.6958 395.702C34.5411 395.702 34.3878 395.671 34.2451 395.611C34.1024 395.551 33.9732 395.463 33.865 395.352C33.7559 395.255 33.6685 395.136 33.6083 395.002C33.5482 394.869 33.5166 394.724 33.5156 394.578C33.5433 394.248 33.6364 393.927 33.7894 393.634L41.3428 377.413C41.4577 377.117 41.6311 376.847 41.8526 376.62C42.0771 376.447 42.3568 376.361 42.6399 376.378C42.9229 376.396 43.19 376.515 43.3916 376.715C43.5011 376.812 43.5888 376.931 43.6491 377.064C43.7093 377.198 43.7406 377.342 43.741 377.489C43.7192 377.817 43.6325 378.138 43.486 378.433Z" fill="white"/>
<path d="M52.9929 386.298L45.3452 382.078C45.0529 381.941 44.7923 381.745 44.5804 381.502C44.4483 381.314 44.3819 381.089 44.3915 380.86C44.3891 380.702 44.4198 380.546 44.4817 380.401C44.5435 380.257 44.635 380.127 44.7503 380.019C44.8567 379.906 44.9854 379.815 45.1284 379.753C45.2713 379.692 45.4255 379.66 45.5812 379.661C45.9165 379.7 46.2389 379.813 46.5254 379.991L56.3447 385.458C56.4994 385.537 56.6292 385.657 56.7198 385.806C56.8104 385.954 56.8584 386.124 56.8584 386.298C56.8584 386.472 56.8104 386.642 56.7198 386.791C56.6292 386.939 56.4994 387.059 56.3447 387.138L46.5254 392.605C46.241 392.79 45.9179 392.906 45.5812 392.945C45.4241 392.945 45.2687 392.913 45.1243 392.852C44.9798 392.79 44.8494 392.7 44.7409 392.586C44.5165 392.357 44.3911 392.048 44.3915 391.727C44.3847 391.498 44.4508 391.274 44.5804 391.085C44.7961 390.848 45.0558 390.656 45.3452 390.519L52.9929 386.298Z" fill="white"/>
</g>
<defs>
<clipPath id="clip0_882_929">
<rect width="380" height="500" fill="white"/>
</clipPath>
</defs>
</svg>
