<svg width="800" height="800" viewBox="0 0 800 800" fill="none" xmlns="http://www.w3.org/2000/svg">
<g clip-path="url(#clip0_192_10116)">
<path d="M-43 843H843V-43.0001H-43V843Z" fill="white"/>
<path d="M423.799 313.695L423.316 312.698L429.292 309.792L429.775 310.789L423.799 313.695ZM411.847 319.503L411.364 318.51L417.34 315.604L417.823 316.601L411.847 319.503ZM399.895 325.315L399.411 324.318L405.388 321.412L405.871 322.409L399.895 325.315ZM387.943 331.127L387.458 330.13L393.435 327.224L393.919 328.221L387.943 331.127ZM375.986 336.935L375.507 335.938L381.482 333.036L381.967 334.033L375.986 336.935ZM363.75 342.22L363.35 341.188C365.423 340.381 367.486 339.54 369.479 338.68L369.919 339.695C367.912 340.558 365.836 341.409 363.75 342.22ZM351.173 346.619L350.841 345.56C352.977 344.891 355.094 344.187 357.131 343.478L357.497 344.523C355.448 345.237 353.32 345.941 351.173 346.619ZM338.362 350.26L338.087 349.188C340.253 348.634 342.407 348.05 344.49 347.46L344.791 348.528C342.7 349.122 340.537 349.702 338.362 350.26ZM325.868 354.327L325.376 353.335C327.377 352.342 329.481 351.509 331.629 350.854L331.952 351.908C329.863 352.551 327.815 353.361 325.868 354.327V354.327ZM315.386 362.053L314.575 361.295C314.897 360.95 315.227 360.609 315.565 360.272C316.803 359.049 318.167 357.889 319.619 356.825L320.273 357.72C318.865 358.748 317.544 359.873 316.345 361.061C316.017 361.384 315.697 361.716 315.386 362.053V362.053ZM308.616 373.123L307.573 372.751C308.329 370.647 309.313 368.605 310.497 366.669L311.442 367.249C310.296 369.119 309.345 371.094 308.616 373.123V373.123ZM318.082 374.244C315.983 373.845 313.793 373.615 311.571 373.562L311.598 372.454C313.88 372.508 316.131 372.747 318.289 373.154L318.082 374.244ZM298.586 375.161L298.295 374.094C300.458 373.504 302.675 373.07 304.885 372.791L305.023 373.89C302.863 374.16 300.698 374.59 298.586 375.161V375.161ZM330.012 379.206C328.4 377.979 326.497 376.92 324.353 376.056L324.767 375.028C327.002 375.928 328.993 377.04 330.683 378.324L330.012 379.206V379.206ZM286.571 380.349L285.989 379.405C287.868 378.244 289.874 377.199 291.952 376.304L292.39 377.323C290.363 378.196 288.405 379.215 286.571 380.349V380.349ZM305.954 386.081C305.828 385.031 305.763 383.95 305.763 382.874C305.763 381.704 305.839 380.504 305.989 379.317L307.088 379.454C306.943 380.597 306.87 381.749 306.871 382.874C306.871 383.906 306.932 384.943 307.054 385.948L305.954 386.081V386.081ZM276.696 388.894L275.848 388.181C277.284 386.467 278.871 384.854 280.566 383.388L281.291 384.225C279.641 385.651 278.096 387.224 276.696 388.894V388.894ZM336.903 390.055L335.795 390.028L335.798 389.736C335.798 388.075 335.46 386.449 334.82 385.031C334.653 384.664 334.469 384.3 334.27 383.95L335.234 383.405C335.449 383.786 335.648 384.176 335.829 384.575C336.534 386.134 336.906 387.92 336.906 389.736L336.903 390.055ZM311.312 398.383C309.822 396.78 308.595 394.848 307.667 392.638L308.688 392.208C309.566 394.299 310.721 396.12 312.123 397.626L311.312 398.383V398.383ZM269.455 399.925L268.514 399.34C269.679 397.462 270.827 395.57 271.958 393.67L272.909 394.237C271.776 396.142 270.624 398.038 269.455 399.925V399.925ZM330.245 401.524L329.691 400.563C331.515 399.513 333.042 397.971 334.107 396.106L335.069 396.651C333.906 398.689 332.238 400.372 330.245 401.524V401.524ZM322.892 403.416C320.848 403.416 318.785 403.021 316.924 402.277L317.335 401.249C319.066 401.941 320.987 402.308 322.892 402.308C323.057 402.291 323.197 402.295 323.333 402.295C323.424 402.295 323.513 402.295 323.608 402.291L323.662 403.398C323.405 403.411 323.099 403.394 322.892 403.416V403.416ZM262.215 411.093L261.298 410.473C262.538 408.643 263.759 406.8 264.962 404.944L265.892 405.547C264.685 407.407 263.46 409.259 262.215 411.093V411.093ZM254.507 421.951L253.619 421.286C254.919 419.541 256.231 417.738 257.518 415.926L258.42 416.564C257.129 418.385 255.813 420.197 254.507 421.951ZM246.311 432.441L245.455 431.741C246.838 430.058 248.232 428.312 249.599 426.562L250.472 427.245C249.099 429.003 247.699 430.753 246.311 432.441V432.441ZM237.604 442.519L236.786 441.775C238.254 440.163 239.734 438.492 241.183 436.814L242.022 437.536C240.565 439.223 239.079 440.898 237.604 442.519V442.519ZM228.377 452.124L227.599 451.335C229.161 449.798 230.728 448.212 232.258 446.617L233.056 447.383C231.52 448.983 229.945 450.578 228.377 452.124ZM218.776 461.325L218.012 460.523L222.819 455.938L223.584 456.735L218.776 461.325" fill="#9192FF"/>
<path d="M403.381 107.749C403.381 107.979 403.381 108.196 403.407 108.426H549.053C548.672 96.421 538.221 86.7946 525.405 86.7946C521.294 86.7946 517.44 87.778 514.073 89.5102C514.25 80.1673 509.758 71.2188 501.488 66.4166C489.075 59.2223 472.834 64.1041 465.237 77.3277C462.951 81.3147 461.693 85.6029 461.409 89.8602C455.354 87.0914 447.849 85.4391 439.711 85.4391C419.643 85.4391 403.381 95.4331 403.381 107.749" fill="#EBEBFF"/>
<path d="M41.8367 447.255H160.31C160.31 447.211 160.31 447.162 160.31 447.117C160.31 437.27 147.147 429.256 130.967 429.256C124.574 429.256 118.486 430.496 113.364 432.844L112.817 433.092L112.776 432.494C112.541 428.954 111.505 425.561 109.697 422.403C106.614 417.038 101.729 413.228 95.9429 411.677C90.6469 410.255 85.1873 410.947 80.5735 413.618C74.1952 417.321 70.3234 424.427 70.4695 432.171L70.4824 432.862L69.8649 432.547C67.0886 431.121 63.9446 430.363 60.7732 430.363C50.6028 430.363 42.3705 437.748 41.8367 447.255V447.255ZM161.072 448.088H40.9746L40.9879 447.658C41.3082 437.496 49.999 429.535 60.7732 429.535C63.8471 429.535 66.8963 430.213 69.6363 431.506C69.7165 423.727 73.7043 416.644 80.1571 412.9C84.9632 410.114 90.6482 409.396 96.1587 410.876C102.16 412.484 107.223 416.431 110.417 421.991C112.188 425.083 113.243 428.392 113.559 431.843C118.674 429.606 124.678 428.427 130.967 428.427C147.605 428.427 161.14 436.813 161.14 447.117C161.14 447.321 161.139 447.516 161.115 447.72L161.072 448.088" fill="#9192FF"/>
<path d="M395.914 436.118C395.914 450.272 407.39 461.75 421.54 461.75H706.198C720.352 461.75 731.826 450.272 731.826 436.118V262.927H395.914V436.118Z" fill="white"/>
<path d="M378.336 307.09C382.263 294.5 394.686 284.838 408.26 283.815C421.834 282.791 435.682 290.473 441.623 302.319C448.848 302.252 455.963 306.257 459.471 312.361C462.98 318.466 462.732 326.418 458.851 332.292C467.45 333.785 475.171 339.442 478.976 347.048C482.782 354.65 482.578 364.002 478.436 371.431C487.903 366.62 500.01 367.054 509.092 372.539C518.173 378.023 523.897 388.349 523.578 398.684C529.474 389.435 540.779 383.671 552.018 384.185C563.257 384.694 573.969 391.464 578.97 401.21C584.247 385.421 598.312 372.676 614.96 368.605C631.608 364.534 650.28 369.265 662.737 380.712C681.476 383.645 695.129 403.987 690.248 421.694C700.37 430.071 705.544 443.689 703.427 456.385C701.309 469.082 691.98 480.422 679.655 485.273L357.29 485.065L329.809 362.075L378.336 307.09" fill="#D1D1FF"/>
<path d="M674.621 461.75H546.909C553.549 455.304 560.084 448.314 566.472 440.907C566.649 441.23 566.822 441.562 566.986 441.895C567.282 440.973 567.61 440.061 567.965 439.161C574.056 432.016 580.014 424.485 585.831 416.657C590.655 413.264 596.064 410.716 601.783 409.263C605.624 408.284 609.58 407.81 613.532 407.81C626.144 407.81 638.783 412.626 647.935 421.331C665.85 424.219 678.945 444.167 674.621 461.75V461.75ZM395.914 386.227V325.789C397.943 325.195 400.032 324.805 402.15 324.637C402.938 324.575 403.731 324.544 404.524 324.544C416.848 324.544 428.987 331.986 434.369 343.115C434.431 343.115 434.493 343.115 434.555 343.115C441.47 343.115 448.253 347.097 451.606 353.144C454.991 359.249 454.743 367.196 450.99 373.075C452.116 373.278 453.228 373.553 454.313 373.903C435.255 379.658 416.011 383.521 395.914 386.227" fill="#F6F6FF"/>
<path d="M578.97 401.209C573.969 391.463 563.257 384.694 552.018 384.185C551.553 384.163 551.092 384.154 550.627 384.154C539.858 384.154 529.23 389.816 523.577 398.684C523.896 388.349 518.173 378.023 509.091 372.539C504.209 369.593 498.455 368.104 492.705 368.104C487.756 368.104 482.812 369.207 478.436 371.431C479.654 369.251 480.527 366.904 481.063 364.485C524.326 346.991 568.272 317.899 620.834 268.469L628.701 275.504C613.732 291.399 592.964 307.271 568.945 327.911L605.763 312.906C601.248 320.384 594.674 330.857 590.989 335.344C599.472 331.428 613.125 322.812 617.648 318.24C617.648 324.619 609.967 335.282 606.618 341.108C623.952 326.272 639.905 308.543 647.378 292.192L655.091 299.085C644.29 321.7 631.904 345.197 618.26 367.918C617.152 368.109 616.049 368.339 614.959 368.605C598.311 372.676 584.246 385.421 578.97 401.209" fill="#FFF6E9"/>
<path d="M566.473 440.907C561.458 431.697 551.447 425.375 540.961 424.892C540.522 424.87 540.084 424.861 539.645 424.861C529.23 424.861 518.944 430.536 513.473 439.414C513.787 429.079 508.267 418.757 499.496 413.281C494.791 410.34 489.241 408.856 483.694 408.856C478.905 408.856 474.121 409.963 469.881 412.196C473.886 404.767 474.094 395.411 470.426 387.813C467.25 381.243 461.252 376.127 454.314 373.903C463.25 371.205 472.141 368.091 481.063 364.485C480.527 366.904 479.654 369.251 478.436 371.431C482.813 369.207 487.757 368.104 492.705 368.104C498.455 368.104 504.21 369.593 509.091 372.539C518.173 378.023 523.896 388.349 523.578 398.684C529.23 389.816 539.858 384.154 550.627 384.154C551.092 384.154 551.553 384.163 552.018 384.185C563.257 384.694 573.969 391.463 578.97 401.209C584.246 385.421 598.312 372.676 614.96 368.605C616.049 368.339 617.152 368.109 618.26 367.918C608.098 384.827 597.244 401.311 585.832 416.657C577.889 422.248 571.528 430.129 567.966 439.161C567.47 439.746 566.974 440.326 566.473 440.907" fill="#F1E8E9"/>
<path d="M546.909 461.75H421.54C407.39 461.75 395.914 450.272 395.914 436.118V386.227C416.011 383.521 435.255 379.658 454.313 373.903C461.25 376.127 467.249 381.244 470.425 387.813C474.093 395.411 473.885 404.767 469.88 412.196C474.12 409.963 478.904 408.856 483.693 408.856C489.239 408.856 494.79 410.34 499.495 413.281C508.266 418.757 513.786 429.079 513.471 439.414C518.942 430.536 529.229 424.861 539.644 424.861C540.082 424.861 540.521 424.87 540.959 424.892C551.445 425.375 561.457 431.697 566.472 440.907C560.084 448.314 553.549 455.304 546.909 461.75V461.75ZM567.965 439.161C571.526 430.129 577.888 422.248 585.831 416.657C580.014 424.485 574.056 432.016 567.965 439.161Z" fill="#FCF3E9"/>
<path d="M633.971 269.612C618.803 287.558 595.926 304.724 568.943 327.911L605.761 312.907C601.247 320.384 594.673 330.857 590.987 335.344C599.47 331.428 613.124 322.812 617.647 318.24C617.647 324.619 609.965 335.282 606.616 341.108C626.254 324.3 644.12 303.781 649.888 285.76L633.971 269.612Z" fill="#FFA121"/>
<path d="M646.783 282.605L636.771 272.452C637.285 271.809 637.786 271.163 638.273 270.52L647.328 280.917C647.16 281.476 646.978 282.038 646.783 282.605Z" fill="white"/>
<path d="M621.689 317.567C623.692 313.721 628.25 306.664 628.317 302.496C625.65 305.53 617.649 311.307 612.692 313.956C614.876 310.984 618.792 304.068 621.486 299.129L600 309.322C615.009 294.717 627.838 283.668 636.773 272.452L646.785 282.605C642.803 294.043 632.693 306.899 621.689 317.567" fill="#FFC77A"/>
<path d="M498.955 331.472C499.075 334.25 498.955 338.932 496.182 340.536C491.557 343.212 487.92 336.709 486.219 333.444C484.194 329.536 484.713 324.694 489.293 322.958C495.345 320.659 498.733 326.298 498.955 331.472Z" fill="#D1D1FF"/>
<path d="M718.295 415.691C718.414 418.464 718.295 423.147 715.522 424.755C710.897 427.431 707.26 420.927 705.559 417.658C703.534 413.755 704.052 408.913 708.633 407.172C714.684 404.878 718.073 410.517 718.295 415.691" fill="#D1D1FF"/>
<path d="M478.251 300.095C478.251 302.239 476.514 303.971 474.374 303.971C472.235 303.971 470.498 302.239 470.498 300.095C470.498 297.955 472.235 296.219 474.374 296.219C476.514 296.219 478.251 297.955 478.251 300.095Z" fill="#D1D1FF"/>
<path d="M677.409 370.053C677.409 373.314 674.769 375.954 671.508 375.954C668.248 375.954 665.607 373.314 665.607 370.053C665.607 366.793 668.248 364.153 671.508 364.153C674.769 364.153 677.409 366.793 677.409 370.053Z" fill="#D1D1FF"/>
<path d="M396.473 263.481V436.122C396.473 449.948 407.719 461.196 421.545 461.196H706.203C720.029 461.196 731.277 449.948 731.277 436.122V263.481H396.473ZM706.203 462.304H421.545C407.112 462.304 395.365 450.555 395.365 436.122V262.373H732.385V436.122C732.385 450.555 720.641 462.304 706.203 462.304Z" fill="#9192FF"/>
<path d="M706.202 195.826H421.544C407.394 195.826 395.918 207.295 395.918 221.453V262.927H731.83V221.453C731.83 207.295 720.356 195.826 706.202 195.826Z" fill="white"/>
<path d="M396.473 262.373H731.277V221.453C731.277 207.627 720.029 196.379 706.203 196.379H421.545C407.719 196.379 396.473 207.627 396.473 221.453V262.373ZM732.385 263.48H395.365V221.453C395.365 207.016 407.112 195.272 421.545 195.272H706.203C720.641 195.272 732.385 207.016 732.385 221.453V263.48Z" fill="#9192FF"/>
<path d="M443.807 229.374C443.807 237.135 437.516 243.426 429.755 243.426C421.994 243.426 415.703 237.135 415.703 229.374C415.703 221.617 421.994 215.327 429.755 215.327C437.516 215.327 443.807 221.617 443.807 229.374Z" fill="#D1D1FF"/>
<path d="M485.194 229.374C485.194 237.135 478.903 243.426 471.142 243.426C463.38 243.426 457.09 237.135 457.09 229.374C457.09 221.617 463.38 215.327 471.142 215.327C478.903 215.327 485.194 221.617 485.194 229.374Z" fill="white"/>
<path d="M471.143 215.88C463.7 215.88 457.645 221.936 457.645 229.374C457.645 236.817 463.7 242.872 471.143 242.872C478.585 242.872 484.637 236.817 484.637 229.374C484.637 221.936 478.585 215.88 471.143 215.88ZM471.143 243.98C463.089 243.98 456.537 237.428 456.537 229.374C456.537 221.325 463.089 214.773 471.143 214.773C479.197 214.773 485.744 221.325 485.744 229.374C485.744 237.428 479.197 243.98 471.143 243.98Z" fill="#9192FF"/>
<path d="M578.098 242.788H522.152C514.745 242.788 508.742 236.781 508.742 229.374C508.742 221.972 514.745 215.964 522.152 215.964H578.098C585.505 215.964 591.508 221.972 591.508 229.374C591.508 236.781 585.505 242.788 578.098 242.788Z" fill="white"/>
<path d="M522.153 216.518C515.065 216.518 509.297 222.286 509.297 229.374C509.297 236.467 515.065 242.235 522.153 242.235H578.099C585.187 242.235 590.955 236.467 590.955 229.374C590.955 222.286 585.187 216.518 578.099 216.518H522.153ZM578.099 243.342H522.153C514.453 243.342 508.189 237.078 508.189 229.374C508.189 221.675 514.453 215.411 522.153 215.411H578.099C585.799 215.411 592.063 221.675 592.063 229.374C592.063 237.078 585.799 243.342 578.099 243.342Z" fill="#9192FF"/>
<path d="M692.269 165.259C669.836 184.897 631.144 171.363 619.121 187.041L653.476 214.246L692.269 165.259" fill="#3335CF"/>
<path d="M619.122 187.041C617.403 191.617 618.338 196.765 621.549 200.446L645.892 228.329L653.476 214.246L619.122 187.041Z" fill="#D1D1FF"/>
<path d="M743.116 205.523C729.144 231.859 751.183 266.418 738.677 281.715L704.322 254.51L743.116 205.523Z" fill="#3335CF"/>
<path d="M738.678 281.715C734.62 284.435 729.393 284.709 725.073 282.423L692.354 265.12L704.323 254.51L738.678 281.715" fill="#D1D1FF"/>
<path d="M760.565 131.506L729.98 142.732L756.649 163.85L760.565 131.506Z" fill="#1B1B43"/>
<path d="M756.649 163.85C752.374 212.252 716.615 257.412 673.179 282.499L633.602 251.188C650.21 198.931 681.14 161.542 729.981 142.732L756.649 163.85Z" fill="#C5C5FF"/>
<path d="M633.602 251.187L616.432 263.073L665.538 301.96L673.18 282.499L633.602 251.187Z" fill="#3335CF"/>
<path d="M732.903 196.034C726.603 203.99 715.05 205.333 707.098 199.033C699.142 192.734 697.799 181.18 704.099 173.228C710.398 165.276 721.952 163.934 729.904 170.229C737.86 176.529 739.202 188.082 732.903 196.034Z" fill="white"/>
<path d="M714.572 173.308L714.213 172.263C715.303 171.882 716.441 171.651 717.597 171.571L717.677 172.675C716.618 172.75 715.573 172.962 714.572 173.308V173.308ZM723.835 173.897C722.887 173.423 721.877 173.082 720.84 172.874L721.053 171.789C722.187 172.014 723.29 172.387 724.326 172.905L723.835 173.897ZM709.388 176.843L708.547 176.126C709.3 175.244 710.168 174.464 711.121 173.813L711.745 174.73C710.872 175.324 710.08 176.037 709.388 176.843V176.843ZM728.53 178.061C727.95 177.18 727.255 176.374 726.457 175.669L727.193 174.841C728.061 175.612 728.823 176.489 729.456 177.455L728.53 178.061ZM706.699 182.518L705.61 182.323C705.813 181.18 706.168 180.073 706.664 179.027L707.665 179.501C707.213 180.458 706.885 181.473 706.699 182.518V182.518ZM730.471 184.033C730.418 182.97 730.223 181.924 729.899 180.919L730.949 180.573C731.308 181.672 731.516 182.815 731.578 183.975L730.471 184.033ZM706.212 189.154C705.813 188.069 705.561 186.935 705.459 185.778L706.562 185.681C706.655 186.74 706.885 187.776 707.249 188.769L706.212 189.154ZM730.116 190.678L729.137 190.164C729.625 189.225 729.988 188.224 730.214 187.187L731.295 187.426C731.047 188.556 730.652 189.65 730.116 190.678V190.678ZM710.181 194.74C709.282 194.005 708.489 193.154 707.825 192.215L708.724 191.573C709.335 192.432 710.062 193.212 710.886 193.885L710.181 194.74ZM726.28 195.166L725.624 194.275C726.471 193.646 727.237 192.906 727.897 192.074L728.765 192.76C728.043 193.673 727.21 194.479 726.28 195.166V195.166ZM716.432 197.562C715.285 197.381 714.168 197.048 713.118 196.57L713.575 195.56C714.536 195.998 715.555 196.304 716.605 196.468L716.432 197.562ZM719.888 197.651L719.772 196.548C720.827 196.437 721.859 196.185 722.851 195.804L723.25 196.836C722.173 197.252 721.039 197.527 719.888 197.651Z" fill="#9192FF"/>
<path d="M627.982 299.842L627.105 299.147C625.82 298.132 625.603 296.249 626.617 294.965L661.069 251.458C662.084 250.173 663.971 249.956 665.256 250.975L666.128 251.666C667.413 252.685 667.635 254.567 666.616 255.852L632.168 299.355C631.149 300.639 629.266 300.861 627.982 299.842" fill="#1B1B43"/>
<path d="M565.868 559.281H559.223V558.173H565.868V559.281ZM579.158 559.281H572.513V558.173H579.158V559.281ZM592.448 559.281H585.803V558.173H592.448V559.281ZM605.738 559.281H599.093V558.173H605.738V559.281ZM619.028 559.281H612.383V558.173H619.028V559.281ZM632.318 559.281H625.673V558.173H632.318V559.281ZM645.608 559.281H638.963V558.173H645.608V559.281ZM658.898 559.281H652.253V558.173H658.898V559.281ZM672.188 559.281H665.543V558.173H672.188V559.281ZM685.478 559.281H678.833V558.173H685.478V559.281ZM698.157 561.478C696.23 560.495 694.17 559.83 692.03 559.507L692.194 558.412C694.454 558.754 696.629 559.454 698.662 560.49L698.157 561.478ZM546.629 561.744L546.097 560.774C548.104 559.675 550.257 558.913 552.503 558.51L552.702 559.6C550.572 559.981 548.529 560.703 546.629 561.744ZM707.075 570.537C706.122 568.601 704.868 566.834 703.345 565.288L704.138 564.513C705.741 566.143 707.066 568.003 708.071 570.05L707.075 570.537ZM537.973 571.051L536.963 570.591C537.911 568.517 539.182 566.617 540.741 564.942L541.552 565.7C540.072 567.286 538.867 569.084 537.973 571.051V571.051ZM710.242 583.256H709.135V579.415C709.135 578.507 709.073 577.59 708.953 576.691L710.047 576.544C710.176 577.488 710.242 578.454 710.242 579.415V583.256ZM536.156 583.841H535.049V579.415C535.049 578.662 535.089 577.896 535.168 577.143L536.271 577.262C536.196 577.975 536.156 578.702 536.156 579.415V583.841ZM710.242 596.546H709.135V589.901H710.242V596.546ZM536.156 597.131H535.049V590.486H536.156V597.131ZM710.242 609.836H709.135V603.191H710.242V609.836ZM536.156 610.421H535.049V603.776H536.156V610.421ZM710.242 623.126H709.135V616.481H710.242V623.126ZM536.156 623.711H535.049V617.066H536.156V623.711ZM710.242 636.416H709.135V629.771H710.242V636.416ZM536.156 637.001H535.049V630.356H536.156V637.001ZM710.242 649.706H709.135V643.061H710.242V649.706ZM536.156 650.291H535.049V643.646H536.156V650.291ZM709.591 663.076L708.519 662.805C708.926 661.193 709.135 659.523 709.135 657.844V656.351H710.242V657.844C710.242 659.616 710.025 661.375 709.591 663.076ZM535.855 663.66C535.319 661.778 535.049 659.82 535.049 657.844V656.936H536.156V657.844C536.156 659.718 536.413 661.574 536.918 663.355L535.855 663.66ZM702.352 674.363L701.657 673.504C703.34 672.139 704.789 670.527 705.954 668.706L706.889 669.309C705.657 671.227 704.129 672.928 702.352 674.363V674.363ZM543.413 674.735C541.596 673.349 540.024 671.692 538.739 669.809L539.652 669.185C540.87 670.97 542.363 672.543 544.082 673.858L543.413 674.735ZM689.798 679.072L689.758 677.965C691.928 677.885 694.055 677.46 696.071 676.702L696.46 677.739C694.329 678.536 692.092 678.984 689.798 679.072V679.072ZM556.096 679.086C553.801 679.064 551.551 678.678 549.402 677.943L549.761 676.897C551.794 677.593 553.929 677.956 556.105 677.978L556.096 679.086ZM569.39 679.086H562.745V677.978H569.39V679.086ZM582.68 679.086H576.035V677.978H582.68V679.086ZM595.97 679.086H589.325V677.978H595.97V679.086ZM609.26 679.086H602.615V677.978H609.26V679.086ZM622.55 679.086H615.905V677.978H622.55V679.086ZM635.84 679.086H629.195V677.978H635.84V679.086ZM649.13 679.086H642.485V677.978H649.13V679.086ZM662.42 679.086H655.775V677.978H662.42V679.086ZM675.71 679.086H669.065V677.978H675.71V679.086ZM689 679.086H682.355V677.978H689V679.086Z" fill="#9192FF"/>
<path d="M676.879 659.89H535.496C526.467 659.89 519.145 652.568 519.145 643.535V553.136C519.145 544.103 526.467 536.785 535.496 536.785H676.879C685.912 536.785 693.23 544.103 693.23 553.136V643.535C693.23 652.568 685.912 659.89 676.879 659.89" fill="#9192FF"/>
<path d="M568.266 646.973H549.416V608.693H568.266V646.973Z" fill="white"/>
<path d="M599.828 646.973H580.982V609.92H599.828V646.973Z" fill="white"/>
<path d="M631.397 646.973H612.547V590.565H631.397V646.973Z" fill="white"/>
<path d="M662.965 646.973H644.115V574.019H662.965V646.973Z" fill="white"/>
<path d="M656.759 558.545H555.617V554.124H656.759V558.545Z" fill="white"/>
<path d="M247.665 416.608C244.46 405.498 237.676 395.756 228.366 388.898L224.627 386.143L227.8 451.809L252.342 432.826L247.665 416.608" fill="#FFA121"/>
<path d="M326.534 495.985L321.082 485.309C319.701 482.602 317.248 480.604 314.322 479.793L298.279 475.35L257.009 449L252.343 432.826L227.801 451.809L228.024 456.421C228.471 465.675 234.146 473.866 242.651 477.534L282.723 494.82L301.771 495.245C307.909 497.358 310.026 502.652 313.835 500.747C315.255 500.038 309.708 490.904 309.708 490.904L318.914 501.062L326.534 495.985" fill="#FFBC96"/>
<path d="M252.095 455.76L251.127 454.936L256.524 448.588L257.492 449.412L252.095 455.76Z" fill="#D28572"/>
<path d="M254.756 522.583L284.781 519.933C304.326 518.206 321.328 533.99 322.28 554.744L329.065 702.622L287.647 703.911L254.756 522.583Z" fill="#26289C"/>
<path d="M290.977 702.441L292.247 743.29H353.623L323.358 718.105L321.453 698.423L290.977 702.441" fill="#1B1B43"/>
<path d="M311.223 729.056L309.674 727.045L322.583 717.099L324.133 719.111L311.223 729.056Z" fill="white"/>
<path d="M277.01 702.441L278.28 743.29H339.656L309.391 718.105L307.487 698.423L277.01 702.441" fill="#D1D1FF"/>
<path d="M297.255 729.056L295.705 727.045L308.615 717.099L310.165 719.111L297.255 729.056Z" fill="white"/>
<path d="M322.724 706.463H271.929L235.725 595.071L230.659 579.477L158.277 579.158C153.807 579.096 149.527 577.027 145.896 573.966C138.2 567.476 134.658 557.283 136.054 547.311L142.404 502.019L249.935 515.995C270.329 518.653 286.799 533.915 290.99 554.045L322.724 706.463Z" fill="#3335CF"/>
<path d="M245.579 579.477L235.725 595.071L230.658 579.477H245.579Z" fill="#1B1B43"/>
<path d="M232.283 493.814C231.762 495.909 231.217 498.005 230.658 500.113L226.848 515.667L176.689 513.585L140.574 512.088C130.999 511.694 124.066 502.803 126.021 493.42L142.86 412.391C145.018 398.613 156.206 388.008 170.085 386.573L211.292 382.333L224.626 386.143C237.642 393.125 237.655 405.785 238.277 414.078C241.007 450.369 237.642 472.351 232.283 493.814" fill="#FFA121"/>
<path d="M146.215 515.667H228.195V435.564H146.215V515.667Z" fill="#BA792B"/>
<path d="M188.31 405.772C190.508 408.124 193.009 410.18 195.806 411.713C198.591 413.246 201.622 414.366 204.762 414.738C207.869 415.142 211.149 414.88 213.876 413.396C216.664 412.01 218.439 409.081 218.772 405.914L219.268 405.945C219.25 407.606 218.831 409.285 218.005 410.778C217.172 412.271 215.899 413.511 214.422 414.366C211.437 416.09 207.894 416.404 204.602 415.983C201.288 415.527 198.097 414.366 195.269 412.643C192.42 410.942 189.932 408.687 187.93 406.091L188.31 405.772" fill="#1B1B43"/>
<path d="M239.386 455.278L238.437 455.211C239.349 442.435 238.425 426.731 235.689 408.541L236.632 408.399C239.377 426.66 240.304 442.431 239.386 455.278Z" fill="#1B1B43"/>
<path d="M324.628 509.634H277.432V500.322H324.628V509.634Z" fill="#1B1B43"/>
<path d="M406.321 509.634H311.506L355.104 426.248H449.921L406.321 509.634" fill="#9192FF"/>
<path d="M198.754 315.666C187.643 304.711 166.69 309.314 167.007 327.729C144.15 333.758 142.88 358.841 152.087 371.697L160.023 372.33L161.769 362.965L166.372 372.49L188.595 373.921L198.754 315.666" fill="#1B1B43"/>
<path d="M217.326 356.617V391.601C217.326 391.92 217.314 392.225 217.288 392.527C216.742 399.73 209.771 404.82 202.647 402.981C192.145 400.261 184.843 390.763 184.932 379.919L185.11 356.617H217.326Z" fill="#FFBC96"/>
<path d="M217.326 371.741V391.601C217.326 391.92 217.313 392.225 217.288 392.527C207.929 390.994 197.11 380.158 194.469 368.365L217.326 371.741" fill="#1B1B43"/>
<path d="M236.258 359.209C235.776 361.991 235.127 364.835 234.264 367.537C231.47 376.415 226.454 383.777 217.477 382.497C196.372 379.476 184.625 357.733 184.625 357.733L199.064 341.227L208.753 328.199L237.794 340.744C237.794 340.744 237.947 349.622 236.258 359.209" fill="#FFBC96"/>
<path d="M190.869 352.174C200.132 351.877 207.295 347.159 210.34 333.758C210.34 333.758 231.928 352.386 242.51 342.437C251.372 334.108 236.339 314.944 211.455 312.658C202.39 311.83 193.354 314.656 186.251 320.349C174.19 330.015 173.038 352.488 184.308 360.267L190.869 352.174" fill="#1B1B43"/>
<path d="M180.022 328.681C179.417 326.493 179.868 324.065 180.845 321.979C181.836 319.879 183.366 318.049 185.192 316.632C187.018 315.21 189.161 314.191 191.413 313.721C193.657 313.261 196.043 313.331 198.117 314.235C195.975 314.926 194.12 315.657 192.376 316.557C190.637 317.447 189.03 318.479 187.525 319.64C186.024 320.805 184.629 322.098 183.374 323.565C182.111 325.04 181.003 326.657 180.022 328.681Z" fill="#FFA121"/>
<path d="M194.796 350.973C196.587 355.447 195.037 360.276 191.333 361.756C187.63 363.24 183.176 360.812 181.385 356.338C179.595 351.864 181.145 347.035 184.848 345.555C188.551 344.071 193.005 346.499 194.796 350.973Z" fill="#FFBC96"/>
<path d="M188.091 358.451C188.25 356.905 188.261 355.439 187.81 354.092C187.373 352.741 186.515 351.567 185.527 350.353L185.839 349.968C187.275 350.716 188.494 352.054 189.013 353.706C189.536 355.359 189.309 357.157 188.567 358.593L188.091 358.451" fill="#1B1B43"/>
<path d="M222.778 353.768C222.778 355.08 221.818 356.143 220.633 356.143C219.449 356.143 218.488 355.08 218.488 353.768C218.488 352.457 219.449 351.394 220.633 351.394C221.818 351.394 222.778 352.457 222.778 353.768Z" fill="#1B1B43"/>
<path d="M234.041 355.638C233.898 356.794 232.934 357.631 231.887 357.499C230.841 357.37 230.108 356.329 230.25 355.168C230.393 354.012 231.357 353.179 232.404 353.308C233.45 353.436 234.183 354.477 234.041 355.638Z" fill="#1B1B43"/>
<path d="M222.671 347.81C222.757 348.917 220.983 349.024 218.369 349.104C215.755 349.179 213.949 349.99 213.928 349.285C213.907 348.585 215.841 346.782 218.419 346.348C221.079 345.896 222.569 346.49 222.671 347.81" fill="#1B1B43"/>
<path d="M231.021 348.878C230.828 349.972 232.133 350.251 234.065 350.592C235.997 350.929 237.245 351.912 237.342 351.217C237.438 350.521 236.212 348.541 234.347 347.85C232.425 347.137 231.25 347.575 231.021 348.878" fill="#1B1B43"/>
<path d="M227.912 357.609C228.407 358.216 228.959 358.739 229.523 359.28L230.38 360.077C230.676 360.343 230.996 360.64 231.282 361.087C231.422 361.313 231.536 361.605 231.554 361.933C231.58 362.265 231.476 362.584 231.343 362.832C231.048 363.324 230.699 363.612 230.319 363.869C229.56 364.365 228.739 364.573 227.944 364.729L227.759 364.268C228.441 363.825 229.122 363.431 229.652 362.974C229.905 362.748 230.154 362.474 230.243 362.261C230.341 362.053 230.313 361.982 230.195 361.734C229.914 361.269 229.194 360.653 228.724 360.011C228.21 359.373 227.747 358.646 227.477 357.849L227.912 357.609Z" fill="#1B1B43"/>
<path d="M217.164 365.424C218.462 366.908 219.813 368.277 221.438 369.145C223.053 370.04 224.892 370.292 226.836 370.08L226.968 370.558C226.029 370.979 224.969 371.2 223.899 371.138C222.829 371.094 221.769 370.771 220.837 370.257C218.962 369.216 217.581 367.532 216.746 365.694L217.164 365.424" fill="#1B1B43"/>
<path d="M209.549 364.077C206.655 364.077 204.309 361.729 204.309 358.836C204.309 355.944 206.655 353.596 209.549 353.596C212.443 353.596 214.789 355.944 214.789 358.836C214.789 361.729 212.443 364.077 209.549 364.077Z" fill="#FFA988"/>
<path d="M234.265 367.537C233.452 366.611 232.957 365.406 232.957 364.073C232.957 361.862 234.329 359.984 236.258 359.208C235.776 361.991 235.128 364.835 234.265 367.537Z" fill="#FFA988"/>
<path d="M176.478 421.166L146.213 435.559L155.705 458.059L187.438 443.427L176.478 421.166Z" fill="#FFA121"/>
<path d="M288.585 499.205C287.746 498.784 287.221 498.501 287.221 498.501L287.524 497.903C287.524 497.903 288.083 498.173 288.894 498.607L288.585 499.205Z" fill="#C5C5FF"/>
<path d="M301.136 502.333C300.158 504.264 292.666 500.849 289.174 499.134C291.879 500.632 296.539 503.578 294.469 505.19C292.806 506.475 289.123 503.742 277.06 498.74C278.888 499.604 289.669 504.734 286.952 506.674C283.993 508.783 271.294 504.136 271.294 504.136L260.285 510.054H247.586L201.897 510.347C199.027 510.36 196.182 509.992 193.426 509.279C188.004 507.897 182.899 505.204 178.569 501.584C175.839 499.298 173.49 496.618 171.521 493.672C170.048 491.462 168.791 489.087 167.75 486.611L155.699 458.068L187.433 443.423L203.992 477.038L258.596 488.897L273.834 485.087C277.11 484.263 281.746 485.65 284.628 487.413C291.663 491.719 302.05 500.49 301.136 502.333Z" fill="#FFBC96"/>
<path d="M193.427 509.279C188.004 507.897 182.899 505.203 178.569 501.584C175.839 499.298 173.49 496.618 171.521 493.672C173.922 491.741 176.969 490.589 180.284 490.589C188.004 490.589 194.252 496.835 194.252 504.557C194.252 506.218 193.96 507.808 193.427 509.279Z" fill="#FFA988"/>
<path d="M258.518 488.657C262.304 487.399 266.141 486.314 270.056 485.494C272.014 485.091 273.995 484.763 276.016 484.648C277.027 484.591 278.049 484.608 279.08 484.728C279.59 484.83 280.098 484.963 280.607 485.082C281.092 485.251 281.564 485.45 282.044 485.632C285.759 487.315 288.995 489.725 292.125 492.201C295.255 494.696 298.209 497.376 301.08 500.167L301.212 500.295L301.24 500.459C301.342 501.061 301.272 501.615 300.938 502.178C300.734 502.413 300.524 502.674 300.248 502.785C299.982 502.958 299.718 503.02 299.455 503.064C298.403 503.237 297.482 503.02 296.603 502.785C294.837 502.297 293.262 501.491 291.673 500.711C290.119 499.883 288.588 499.019 287.102 498.085C285.592 497.19 284.157 496.188 282.686 495.24L283.357 494.164C285.955 495.706 288.481 497.323 290.897 499.157C292.096 500.091 293.283 501.039 294.304 502.289C294.549 502.621 294.795 502.953 294.966 503.405C295.06 503.618 295.111 503.888 295.117 504.18C295.094 504.486 295 504.809 294.791 505.048C294.391 505.509 293.91 505.664 293.503 505.766C293.08 505.877 292.684 505.899 292.281 505.939L292.156 505.952L292.021 505.895L278.236 500.122L278.649 499.152C280.821 500.153 282.934 501.23 284.95 502.554C285.933 503.254 286.967 503.892 287.69 505.106C287.856 505.412 287.975 505.881 287.803 506.32C287.63 506.745 287.293 507.015 286.985 507.162C286.348 507.485 285.705 507.551 285.088 507.587C282.617 507.644 280.297 507.064 277.994 506.497C275.698 505.89 273.442 505.173 271.211 504.366L271.378 503.901C273.606 504.645 275.873 505.301 278.156 505.846C280.431 506.36 282.776 506.86 285.039 506.75C286.119 506.705 287.407 506.231 286.882 505.518C286.386 504.685 285.363 503.976 284.425 503.352C282.474 502.111 280.353 501.061 278.227 500.118L278.639 499.148L292.474 504.8L292.214 504.756C292.555 504.721 292.907 504.698 293.208 504.614C293.52 504.548 293.772 504.406 293.857 504.304C294.05 504.224 293.79 503.542 293.357 503.033C292.479 501.965 291.317 501.022 290.154 500.131C287.8 498.359 285.275 496.76 282.725 495.263L283.396 494.191C284.857 495.125 286.273 496.135 287.76 497.021C289.225 497.947 290.725 498.802 292.241 499.622C293.774 500.384 295.323 501.177 296.928 501.62C297.715 501.846 298.551 502.001 299.223 501.885L299.468 501.846C299.544 501.823 299.59 501.775 299.655 501.748C299.802 501.704 299.846 501.589 299.945 501.518C300.069 501.327 300.125 500.973 300.081 500.716L300.241 501.008C297.431 498.235 294.475 495.577 291.424 493.065C288.368 490.58 285.18 488.166 281.659 486.518L280.318 485.982C279.86 485.871 279.407 485.743 278.946 485.645C278.001 485.525 277.033 485.49 276.057 485.534C274.105 485.614 272.144 485.884 270.201 486.243C266.313 486.965 262.46 487.962 258.674 489.131L258.518 488.657" fill="#D28572"/>
<path d="M155.899 458.498L155.5 457.634L186.814 443.188L173.772 412.666L174.647 412.289L188.053 443.662L155.899 458.498Z" fill="#1B1B43"/>
<path d="M160.378 735.249H158.717V592.178H160.378V735.249Z" fill="#1B1B43"/>
<path d="M199.548 598.526H119.546C114.111 598.526 109.705 594.118 109.705 588.683C109.705 583.247 114.111 578.844 119.546 578.844H199.548C204.983 578.844 209.389 583.247 209.389 588.683C209.389 594.118 204.983 598.526 199.548 598.526Z" fill="#D1D1FF"/>
<path d="M193.199 744.561H125.896V742.935C125.896 734.762 132.522 728.135 140.695 728.135H178.401C186.574 728.135 193.199 734.762 193.199 742.935V744.561" fill="#D1D1FF"/>
<path d="M396.731 744.025L254.93 519.26L256.334 518.374L398.136 743.139L396.731 744.025Z" fill="#1B1B43"/>
<path d="M256.334 744.025L254.93 743.139L396.731 518.374L398.136 519.26L256.334 744.025" fill="#1B1B43"/>
<path d="M450.768 528.373H202.299V509.634H450.768V528.373Z" fill="#D1D1FF"/>
<path d="M223.127 108.143C195.105 108.143 172.309 130.94 172.309 158.96C172.309 186.984 195.105 209.78 223.127 209.78C251.148 209.78 273.944 186.984 273.944 158.96C273.944 130.94 251.148 108.143 223.127 108.143ZM223.127 210.888C194.495 210.888 171.201 187.595 171.201 158.96C171.201 130.328 194.495 107.035 223.127 107.035C251.759 107.035 275.052 130.328 275.052 158.96C275.052 187.595 251.759 210.888 223.127 210.888" fill="#9192FF"/>
<path d="M314.737 138.617C314.737 169.817 289.442 195.113 258.24 195.113C227.037 195.113 201.742 169.817 201.742 138.617C201.742 107.412 227.037 82.1166 258.24 82.1166C289.442 82.1166 314.737 107.412 314.737 138.617" fill="#EBEBFF"/>
<path d="M258.258 139.685L226.938 115.133L227.963 113.827L258.219 137.545L275.089 123.258L276.164 124.525L258.258 139.685Z" fill="#1B1B43"/>
<path d="M111.626 260.455H82.9371C78.3206 260.455 74.5781 264.198 74.5781 268.814V297.503C74.5781 302.119 78.3206 305.862 82.9371 305.862H103.411L112.233 318.045V305.831C116.565 305.521 119.986 301.915 119.986 297.503V268.814C119.986 264.198 116.243 260.455 111.626 260.455Z" fill="white"/>
<path d="M82.9386 261.009C78.6344 261.009 75.1329 264.508 75.1329 268.814V297.503C75.1329 301.809 78.6344 305.309 82.9386 305.309H103.696L111.68 316.335V305.318L112.194 305.278C116.253 304.985 119.433 301.57 119.433 297.503V268.814C119.433 264.508 115.931 261.009 111.628 261.009H82.9386ZM112.788 319.755L103.13 306.416H82.9386C78.0239 306.416 74.0254 302.416 74.0254 297.503V268.814C74.0254 263.901 78.0239 259.901 82.9386 259.901H111.628C116.542 259.901 120.54 263.901 120.54 268.814V297.503C120.54 301.977 117.174 305.756 112.788 306.332V319.755" fill="#9192FF"/>
<path d="M96.6963 297.924L85.2129 281.333L87.9444 279.442L96.396 291.651L109.124 268.872L112.025 270.493L96.6963 297.924" fill="#9192FF"/>
<path d="M743.963 744.561H63.3203V742.9H743.963V744.561Z" fill="#1B1B43"/>
</g>
<defs>
<clipPath id="clip0_192_10116">
<rect width="800" height="800" fill="white"/>
</clipPath>
</defs>
</svg>
