<svg width="285" height="313" viewBox="0 0 285 313" fill="none" xmlns="http://www.w3.org/2000/svg">
<rect y="28" width="285" height="285" fill="#DAEAFE"/>
<path d="M207.807 131.683H207.808C211.342 119.935 223.732 113.277 235.482 116.811C247.231 120.347 253.888 132.736 250.354 144.484C246.818 156.231 234.428 162.889 222.679 159.355C210.93 155.82 204.272 143.43 207.807 131.683ZM200.532 130.829C196.532 146.569 206.084 162.629 221.826 166.629C237.567 170.63 253.628 161.078 257.629 145.338C261.629 129.597 252.076 113.538 236.335 109.537C220.593 105.537 204.532 115.089 200.532 130.829Z" fill="#F7CC7F"/>
<path d="M199.528 130.573C201.535 122.677 206.496 116.036 213.498 111.872C220.5 107.708 228.705 106.52 236.6 108.526C244.497 110.533 251.138 115.493 255.303 122.494C259.467 129.496 260.655 137.7 258.649 145.595C256.642 153.49 251.681 160.132 244.679 164.295C237.677 168.459 229.472 169.647 221.577 167.641C213.682 165.635 207.04 160.674 202.875 153.673C198.71 146.672 197.522 138.468 199.528 130.573ZM180.129 130.875C180.268 131.578 180.905 131.824 182.476 132.447C185.287 133.562 188.099 134.677 190.868 135.889C191.304 136.08 191.74 136.76 191.794 137.254C192.113 140.196 192.255 143.159 192.606 146.097C192.714 147.007 192.626 147.491 191.807 148.005C188.537 150.06 185.323 152.207 182.125 154.297C182.924 157.726 186.953 165.436 189.107 167.593C192.499 166.165 195.987 164.759 199.416 163.219C200.483 162.739 201.028 162.832 201.917 163.682C203.979 165.653 206.229 167.442 208.501 169.176C209.42 169.879 209.911 170.429 209.613 171.694C208.84 174.973 208.266 178.299 207.549 181.591C207.356 182.476 207.524 183.029 208.398 183.3C212.51 184.572 216.623 185.84 220.734 187.111C221.745 187.423 221.901 186.592 222.153 185.997C223.431 182.985 224.725 179.979 225.899 176.926C226.34 175.78 226.932 175.402 228.177 175.364C231.472 175.26 234.761 174.943 238.305 174.692C240.401 177.874 242.716 181.388 245.094 184.999C249.87 183.418 254.171 181.051 258.244 177.919C256.631 174.043 255.018 170.166 253.596 166.75C256.035 163.66 258.358 160.848 260.51 157.91C261.132 157.06 261.621 156.921 262.555 157.125C265.799 157.838 269.066 158.45 272.315 159.14C273.017 159.289 273.533 159.316 273.893 158.549C275.71 154.671 277.177 150.693 277.77 146.417C277.902 145.464 277.559 145.088 276.774 144.763C273.614 143.458 270.477 142.092 267.311 140.8C266.544 140.487 266.224 140.161 266.154 139.226C265.912 135.981 265.53 132.743 265.066 129.522C264.948 128.698 265.21 128.378 265.789 127.996C269.016 125.871 272.228 123.722 275.527 121.526C273.853 116.826 271.718 112.463 268.659 108.452C264.705 110.097 260.777 111.732 257.018 113.296C253.851 110.67 250.784 108.125 247.503 105.405C248.084 102.503 248.778 99.1659 249.417 95.8183C249.94 93.0705 250.333 93.4316 247.572 92.2735C247.309 92.1625 247.086 91.957 246.844 91.7951C244.375 91.0521 241.905 90.3092 239.436 89.5662C238.859 89.5008 238.254 89.5246 237.71 89.3524C236.297 88.9041 235.501 89.2258 234.937 90.7398C233.764 93.8944 232.392 96.9763 231.028 100.056C230.849 100.46 230.262 100.88 229.819 100.936C226.93 101.301 224 101.418 221.142 101.932C219.743 102.185 219.155 101.803 218.464 100.712C216.506 97.6187 214.421 94.6073 212.182 91.2566C207.754 93.582 203.432 95.8504 199.063 98.1448C199.407 99.0154 199.596 99.5197 199.803 100.017C201.079 103.081 202.328 106.159 203.659 109.2C204.036 110.064 203.844 110.549 203.253 111.252C201.221 113.666 199.345 116.21 197.329 118.638C197.017 119.015 196.245 119.28 195.754 119.194C193.071 118.729 190.413 118.114 187.739 117.594C185.575 117.174 184.77 117.026 184.085 117.732L180.129 130.875Z" fill="#F7CC7F"/>
<path d="M25.3312 161.251C22.3989 155.402 21.9199 148.762 23.9825 142.552C26.045 136.344 30.4024 131.31 36.2517 128.377C42.1009 125.445 48.7421 124.966 54.9518 127.028C61.1614 129.091 66.1961 133.447 69.1285 139.297C72.0608 145.145 72.5398 151.785 70.4772 157.995C68.4146 164.205 64.0572 169.239 58.208 172.17C52.3587 175.103 45.7175 175.582 39.5079 173.519C33.2983 171.457 28.2636 167.1 25.3312 161.251ZM13.7104 171.632C14.1645 171.986 14.6802 171.801 15.962 171.353C18.2549 170.552 20.5488 169.752 22.8674 169.032C23.2324 168.919 23.854 169.103 24.1469 169.374C25.8881 170.992 27.5319 172.717 29.289 174.317C29.8337 174.812 30.0343 175.153 29.8077 175.895C28.902 178.862 28.0794 181.855 27.2354 184.806C29.5245 186.467 36.0243 189.032 38.4654 189.209C39.7752 186.559 41.1544 183.871 42.426 181.134C42.8219 180.282 43.2013 180.051 44.188 180.1C46.4771 180.213 48.7836 180.118 51.0748 179.976C52.0027 179.918 52.5897 179.995 53.0737 180.92C54.3284 183.317 55.7283 185.638 57.0237 188.015C57.3719 188.654 57.7651 188.902 58.438 188.606C61.6035 187.218 64.7671 185.825 67.9321 184.436C68.7102 184.094 68.3679 183.508 68.2083 183.014C67.4001 180.513 66.6053 178.007 65.7143 175.536C65.3797 174.609 65.5405 174.068 66.2761 173.39C68.2226 171.595 70.0521 169.673 72.0724 167.659C75.0183 168.489 78.2709 169.407 81.6143 170.349C83.6827 166.878 85.0498 163.179 85.877 159.137C82.8598 157.632 79.8417 156.126 77.1819 154.799C77.0388 151.64 76.971 148.712 76.7334 145.797C76.6646 144.953 76.8875 144.611 77.5631 144.245C79.9074 142.972 82.2122 141.626 84.548 140.338C85.053 140.058 85.3802 139.804 85.1953 139.149C84.2606 135.839 83.0599 132.652 81.1716 129.745C80.7505 129.097 80.3451 129.049 79.6977 129.264C77.092 130.133 74.4697 130.952 71.8679 131.832C71.2376 132.044 70.8715 132.015 70.3375 131.484C68.4848 129.641 66.5503 127.875 64.575 126.163C64.0703 125.725 64.0609 125.394 64.2121 124.857C65.0543 121.87 65.8746 118.877 66.7237 115.809C63.2362 113.835 59.646 112.308 55.6797 111.48C54.144 114.557 52.6181 117.615 51.158 120.54C47.8536 120.611 44.6542 120.678 41.2306 120.75C40.0584 118.683 38.7255 116.292 37.3526 113.924C36.2258 111.98 36.6549 111.993 34.3695 112.74C34.1515 112.812 33.9074 112.803 33.6755 112.832C31.7855 113.679 29.8955 114.526 28.0056 115.373C27.6207 115.636 27.2657 115.969 26.8452 116.151C25.7513 116.622 25.437 117.235 25.8909 118.451C26.8365 120.982 27.6241 123.576 28.4146 126.163C28.5181 126.502 28.3827 127.065 28.1432 127.332C26.5808 129.073 24.8633 130.684 23.398 132.499C22.6811 133.387 22.1228 133.465 21.1304 133.165C18.3156 132.316 15.4659 131.584 12.3451 130.726C10.8782 134.466 9.44709 138.115 8 141.805C8.66615 142.153 9.04629 142.359 9.43318 142.552C11.8197 143.742 14.1957 144.955 16.6028 146.102C17.2863 146.428 17.4245 146.823 17.4348 147.561C17.4704 150.095 17.6689 152.626 17.7217 155.16C17.7299 155.553 17.3998 156.12 17.0575 156.326C15.1829 157.453 13.2465 158.478 11.349 159.567C9.81394 160.449 9.24711 160.782 9.20238 161.572L13.7104 171.632Z" fill="#50BFA5"/>
<path d="M42.0733 104.552L43.005 102.841L42.1283 101.102C42.0284 100.904 42.1984 100.677 42.4159 100.718L44.326 101.078L45.7046 99.7045C45.8616 99.5478 46.1293 99.6402 46.1577 99.8602L46.4064 101.793L48.1352 102.684C48.332 102.785 48.3276 103.069 48.1275 103.164L46.3712 103.999L46.061 105.922C46.0258 106.141 45.7552 106.224 45.6032 106.064L44.2691 104.646L42.3486 104.945C42.1298 104.979 41.9672 104.747 42.0733 104.552Z" fill="#F7CC7F"/>
<path d="M146.626 111.623L147.337 110.463L146.206 110.004L145.495 111.165L146.626 111.623ZM143.743 112.659L144.539 111.367L143.9 111.108C143.761 111.051 143.694 110.892 143.75 110.752C143.807 110.613 143.966 110.545 144.106 110.601L144.842 110.9L145.553 109.74L144.872 109.464C144.731 109.407 144.664 109.247 144.721 109.108C144.778 108.968 144.937 108.9 145.077 108.957L145.857 109.274L146.683 107.945C146.753 107.833 146.894 107.786 147.018 107.836L147.137 107.884C147.293 107.948 147.355 108.137 147.267 108.28L146.499 109.534L147.63 109.993L148.456 108.664C148.527 108.551 148.668 108.505 148.79 108.555L148.921 108.608C149.077 108.671 149.139 108.86 149.051 109.003L148.283 110.258L148.922 110.516C149.061 110.573 149.129 110.732 149.072 110.872C149.015 111.012 148.857 111.08 148.717 111.022L147.98 110.724L147.279 111.889L147.962 112.165C148.101 112.222 148.169 112.381 148.113 112.521C148.055 112.661 147.896 112.728 147.757 112.671L146.976 112.355L146.132 113.726C146.062 113.839 145.921 113.885 145.797 113.836L145.658 113.779C145.501 113.715 145.439 113.526 145.527 113.382L146.323 112.09L145.192 111.632L144.348 113.001C144.278 113.115 144.137 113.162 144.013 113.111L143.874 113.055C143.718 112.992 143.655 112.803 143.743 112.659Z" fill="#07345A"/>
<path d="M149.285 139.968C150.248 134.853 155.177 131.485 160.293 132.448C165.41 133.41 168.777 138.338 167.815 143.455C166.852 148.571 161.923 151.938 156.807 150.975C151.69 150.013 148.322 145.085 149.285 139.968ZM138.643 135.15L137.566 140.874C137.656 141.165 137.936 141.24 138.627 141.433C139.863 141.776 141.1 142.12 142.323 142.507C142.516 142.568 142.73 142.835 142.775 143.041C143.043 144.268 143.236 145.512 143.516 146.735C143.603 147.115 143.588 147.323 143.265 147.577C141.977 148.592 140.718 149.642 139.462 150.667C139.954 152.078 142.002 155.151 143.008 155.964C144.375 155.208 145.784 154.458 147.161 153.654C147.589 153.404 147.824 153.418 148.237 153.737C149.196 154.475 150.225 155.129 151.262 155.759C151.682 156.013 151.914 156.224 151.845 156.771C151.667 158.189 151.574 159.618 151.42 161.04C151.378 161.422 151.475 161.648 151.856 161.723C153.647 162.075 155.44 162.424 157.232 162.776C157.672 162.862 157.7 162.504 157.78 162.242C158.184 160.913 158.595 159.586 158.953 158.245C159.088 157.742 159.32 157.556 159.844 157.484C161.23 157.292 162.603 157.01 164.087 156.744C165.114 157.992 166.25 159.371 167.416 160.788C169.36 159.906 171.068 158.712 172.646 157.208C171.791 155.645 170.935 154.082 170.182 152.704C171.072 151.291 171.925 150 172.701 148.663C172.926 148.276 173.125 148.195 173.529 148.24C174.93 148.395 176.336 148.506 177.738 148.65C178.041 148.682 178.259 148.67 178.376 148.33C178.969 146.612 179.409 144.867 179.467 143.036C179.479 142.628 179.318 142.485 178.972 142.383C177.579 141.974 176.195 141.54 174.801 141.137C174.463 141.039 174.312 140.917 174.241 140.525C173.993 139.166 173.687 137.817 173.345 136.479C173.258 136.137 173.354 135.99 173.582 135.803C174.848 134.761 176.106 133.709 177.4 132.634C176.481 130.727 175.384 128.981 173.913 127.427C172.319 128.299 170.734 129.166 169.219 129.995C167.764 129.029 166.356 128.094 164.849 127.093C164.963 125.843 165.105 124.403 165.223 122.962C165.321 121.779 165.504 121.914 164.286 121.549C164.17 121.514 164.066 121.437 163.957 121.38C162.882 121.178 161.807 120.975 160.731 120.773C160.654 120.773 160.576 120.776 160.498 120.779C160.327 120.787 160.156 120.794 159.993 120.761C159.377 120.635 159.055 120.807 158.886 121.472C158.533 122.855 158.093 124.217 157.656 125.578C157.598 125.756 157.369 125.961 157.185 126.004C155.982 126.289 154.751 126.469 153.568 126.816C152.989 126.985 152.724 126.85 152.384 126.42C151.418 125.204 150.403 124.026 149.307 122.714C147.543 123.895 145.822 125.046 144.082 126.211C144.265 126.562 144.368 126.767 144.478 126.967C145.155 128.203 145.82 129.445 146.518 130.669C146.717 131.016 146.657 131.23 146.439 131.553C145.691 132.663 145.014 133.821 144.273 134.937C144.157 135.11 143.844 135.256 143.633 135.242C142.48 135.166 141.33 135.027 140.179 134.927C139.247 134.847 138.9 134.821 138.643 135.15Z" fill="#F47458"/>
<path d="M101.211 103.775L104.6 104.184L103.155 101.553L101.211 103.775Z" fill="#355389"/>
<path d="M113.664 132.983C113.558 134.128 114.543 135.174 115.635 135.366C116.766 135.564 117.774 134.827 118.163 133.785C118.931 131.729 116.681 130.107 115.462 131.352C114.323 132.513 114.683 134.237 115.912 134.238C116.376 134.238 117.122 133.849 116.826 133.288C116.76 133.161 116.573 133.171 116.504 133.288C116.355 133.541 116.367 133.55 116.297 133.608C116.186 133.697 116.032 133.726 115.894 133.724C114.642 133.702 115.474 130.838 116.95 131.532C117.76 131.913 117.999 132.834 117.718 133.639C117.448 134.413 116.721 135.013 115.881 134.959C114.877 134.894 114.036 133.972 113.971 132.983C113.958 132.784 113.683 132.787 113.664 132.983Z" fill="#F47458"/>
<path d="M175.574 90.566L176.588 91.0018C176.588 91.0018 178.28 90.6241 178.469 90.3055C178.659 89.988 178.769 89.1848 179.005 89.1848C179.242 89.1838 179.689 89.301 179.754 89.8635C179.799 90.2723 179.113 91.3764 179.196 91.5082C179.248 91.5912 179.823 91.8579 180.247 92.0458C180.526 92.1692 180.713 92.437 180.732 92.742V92.7431C180.746 92.9485 180.613 93.1364 180.415 93.1924L180.107 93.2796L180.178 93.594C180.231 93.8285 180.085 94.061 179.852 94.116L179.615 94.1709L179.674 94.364C179.75 94.613 179.594 94.8724 179.339 94.9222L179.132 94.9617L179.136 95.0156C179.153 95.2419 178.994 95.4432 178.772 95.4795L178.566 95.5127L175.868 94.3536C175.615 94.2446 175.387 94.0859 175.198 93.8856L174.316 93.3211C174.221 93.2599 174.185 93.1385 174.231 93.0357L175.278 90.6833C175.329 90.5691 175.46 90.5172 175.574 90.566Z" fill="#50BFA5"/>
<path d="M147.088 138.85H128.774C126.899 138.85 125.379 140.369 125.379 142.243V148.243C125.379 150.117 126.899 151.638 128.774 151.638H147.088C148.963 151.638 150.482 150.117 150.482 148.243V142.243C150.482 140.369 148.963 138.85 147.088 138.85Z" fill="#5184CE"/>
<path d="M122.832 264.904L103.434 273.845V275.825H172.516V273.845L152.943 264.904H122.832Z" fill="#466EB6"/>
<path d="M122.828 264.92H152.951V226.584H122.828V264.92Z" fill="#466EB6"/>
<path d="M229.042 238.609V152.162C229.042 148.055 225.712 144.725 221.605 144.725H53.9769C49.8691 144.725 46.5391 148.055 46.5391 152.162V238.609H229.042Z" fill="#466EB6"/>
<path d="M103.434 275.825H172.516V273.845H103.434V275.825Z" fill="#335691"/>
<path d="M122.828 264.903H152.939V260.405H122.828V264.903Z" fill="#335691"/>
<path d="M46.5391 238.61V252.463C46.5391 255.344 48.4438 257.68 50.7936 257.68H224.787C227.138 257.68 229.042 255.344 229.042 252.463V238.61H46.5391Z" fill="#5184CE"/>
<path d="M139.775 142.248C139.775 143.183 139.016 143.941 138.08 143.941C137.144 143.941 136.387 143.183 136.387 142.248C136.387 141.312 137.144 140.553 138.08 140.553C139.016 140.553 139.775 141.312 139.775 142.248Z" fill="#184655"/>
<path d="M224.763 234.855V152.394C224.763 150.232 222.948 148.48 220.709 148.48H54.8599C52.6202 148.48 50.8047 150.232 50.8047 152.394V234.855H224.763Z" fill="#CCE6FF"/>
<path d="M58.4609 228.087H163.019V155.136H58.4609V228.087Z" fill="#E9FFFF"/>
<path d="M163.018 163.679H58.4609V155.137H163.018V163.679Z" fill="#5184CE"/>
<path d="M170.32 228.625V196.988H175.123C175.698 198.733 176.476 200.425 177.457 202.029V204.28H170.32V228.625Z" fill="#AFD0FB"/>
<path d="M207.356 228.625H200.219V213.572C202.657 213.365 205.066 212.788 207.356 211.842V228.625Z" fill="#9AC1F9"/>
<path d="M197.387 228.625H190.25V212.333C192.563 213.132 194.972 213.57 197.387 213.647V228.625ZM196.298 210.796C194.24 210.619 192.201 210.144 190.25 209.371C192.2 210.144 194.241 210.619 196.298 210.796Z" fill="#9AC1F9"/>
<path d="M217.473 228.625H210.336V210.363C210.518 210.256 210.697 210.147 210.876 210.036C211.596 210.647 212.324 211.274 212.513 211.503C212.513 211.503 215.192 214.565 217.473 217.091V228.625ZM217.473 213.215L214.107 210.532L214.104 210.533C214.053 210.365 213.499 208.553 213.472 208.229C213.471 208.21 213.466 208.191 213.459 208.171C213.619 208.038 213.778 207.902 213.936 207.765L217.473 211.219V213.215ZM217.473 205.872L216.609 205.028C216.909 204.667 217.197 204.3 217.473 203.927V205.872ZM213.246 204.583C213.252 204.576 213.259 204.569 213.266 204.563C213.259 204.569 213.252 204.576 213.246 204.583Z" fill="#9AC1F9"/>
<path d="M187.422 228.625H180.285V205.78C180.586 206.109 180.9 206.432 181.222 206.747C183.098 208.579 185.194 210.046 187.422 211.149V228.625ZM187.422 208C186.01 207.182 184.669 206.189 183.432 205.022C184.669 206.189 186.01 207.181 187.422 208ZM183.235 204.834C183.235 204.833 183.236 204.834 183.235 204.833C183.236 204.834 183.235 204.833 183.235 204.834Z" fill="#9AC1F9"/>
<path d="M170.32 228.625H177.457V204.28H170.32V228.625Z" fill="#9AC1F9"/>
<path d="M62.0625 179.58H158.57V167.194H62.0625V179.58Z" fill="#BADAFB"/>
<path d="M96.4492 186.273H158.565V183.099H96.4492V186.273Z" fill="#BADAFB"/>
<path d="M92.6196 219.733H62.0625V183.099H92.6196V219.733Z" fill="#5184CE"/>
<path d="M158.565 192.965H125.112C124.311 191.728 123.067 191.011 121.65 190.843C121.387 190.812 121.143 190.797 120.915 190.797C118.991 190.797 118.234 191.852 117.062 192.965H96.4492V189.791H158.565V192.965Z" fill="#BADAFB"/>
<path d="M158.565 213.043H96.4492V209.869H107.537C108.706 210.729 110.001 211.077 111.323 211.077C112.905 211.077 114.528 210.578 116.031 209.869H158.565V213.043Z" fill="#BADAFB"/>
<path d="M96.4492 219.733H158.565V216.559H96.4492V219.733Z" fill="#BADAFB"/>
<path d="M18.4302 196.236L76.4456 196.131C77.3169 196.13 78.0244 196.834 78.026 197.706L78.1637 274.146C78.1653 275.018 77.4603 275.724 76.589 275.726L18.5735 275.831C17.7023 275.832 16.9947 275.127 16.9932 274.256L16.8555 197.816C16.8539 196.944 17.5589 196.238 18.4302 196.236Z" fill="#F7CC7F"/>
<path d="M20.0469 198.452L74.8494 198.353L74.984 273.067L20.1815 273.166L20.0469 198.452Z" fill="white"/>
<path d="M59.3291 195.107C59.3285 194.771 59.0555 194.499 58.7195 194.5L35.709 194.542C35.3729 194.542 35.1009 194.815 35.1016 195.151L35.1059 197.543L59.3334 197.499L59.3291 195.107Z" fill="#13375B"/>
<path d="M47.2152 197.568C45.9299 197.57 44.886 196.53 44.8837 195.246C44.8814 193.96 45.9215 192.916 47.2069 192.914C48.4922 192.912 49.536 193.951 49.5384 195.237C49.5407 196.522 48.5006 197.566 47.2152 197.568ZM47.2045 191.613C45.2003 191.616 43.5785 193.244 43.582 195.248C43.5857 197.251 45.2133 198.873 47.2176 198.869C49.2219 198.866 50.8436 197.239 50.8401 195.234C50.8365 193.23 49.2088 191.608 47.2045 191.613Z" fill="#13375B"/>
<path d="M58.9521 194.546C59.1706 194.638 59.3243 194.854 59.3247 195.106L59.3291 197.498L35.1016 197.541C35.1045 199.198 36.4501 200.538 38.1071 200.535L56.3343 200.503C57.9913 200.5 59.332 199.154 59.3291 197.498L59.3247 195.106C59.3243 194.854 59.1706 194.638 58.9521 194.546Z" fill="#355389"/>
<path d="M35.7034 194.54C35.4933 194.54 35.3083 194.647 35.1992 194.809C35.3083 194.647 35.4933 194.54 35.7034 194.54Z" fill="#9BC1F9"/>
<path d="M35.1211 194.969C35.1331 194.93 35.1487 194.893 35.1676 194.857C35.1487 194.893 35.1331 194.93 35.1211 194.969Z" fill="#9BC1F9"/>
<path d="M61.0936 220.089L68.2473 220.076L68.2344 212.923L61.0807 212.936L61.0936 220.089ZM68.5663 220.394L60.7757 220.408L60.7617 212.618L68.5523 212.604L68.5663 220.394Z" fill="#184655"/>
<path d="M61.117 233.052L68.2707 233.039L68.2578 225.885L61.1042 225.899L61.117 233.052ZM68.5897 233.357L60.7993 233.37L60.7852 225.581L68.5757 225.567L68.5897 233.357Z" fill="#184655"/>
<path d="M61.1405 246.014L68.2941 246.002L68.2813 238.848L61.1276 238.862L61.1405 246.014ZM68.6132 246.32L60.8226 246.333L60.8086 238.544L68.5991 238.53L68.6132 246.32Z" fill="#184655"/>
<path d="M61.1639 258.976L68.3176 258.963L68.3047 251.81L61.151 251.824L61.1639 258.976ZM68.6366 259.281L60.846 259.295L60.832 251.505L68.6225 251.491L68.6366 259.281Z" fill="#184655"/>
<path d="M24.1583 213.966L57.4995 213.906L57.4974 212.785L24.1562 212.845L24.1583 213.966Z" fill="#9BC1F9"/>
<path d="M24.1622 217.142L57.5034 217.081L57.5014 215.961L24.1602 216.02L24.1622 217.142Z" fill="#9BC1F9"/>
<path d="M24.1699 220.315L57.5112 220.255L57.5092 219.133L24.168 219.194L24.1699 220.315Z" fill="#9BC1F9"/>
<path d="M24.1818 227.371L57.5229 227.311L57.5209 226.189L24.1797 226.249L24.1818 227.371Z" fill="#9BC1F9"/>
<path d="M24.1856 230.545L57.5268 230.486L57.5247 229.364L24.1836 229.424L24.1856 230.545Z" fill="#9BC1F9"/>
<path d="M24.1895 233.721L57.5307 233.661L57.5286 232.54L24.1875 232.6L24.1895 233.721Z" fill="#9BC1F9"/>
<path d="M24.2091 240.07L57.5503 240.01L57.5483 238.888L24.207 238.949L24.2091 240.07Z" fill="#9BC1F9"/>
<path d="M24.213 243.246L57.5542 243.187L57.5522 242.065L24.2109 242.125L24.213 243.246Z" fill="#9BC1F9"/>
<path d="M24.2169 246.421L57.5581 246.361L57.5561 245.24L24.2148 245.3L24.2169 246.421Z" fill="#9BC1F9"/>
<path d="M24.2325 252.772L57.5738 252.712L57.5717 251.591L24.2305 251.651L24.2325 252.772Z" fill="#9BC1F9"/>
<path d="M24.2363 255.947L57.5775 255.887L57.5755 254.765L24.2344 254.826L24.2363 255.947Z" fill="#9BC1F9"/>
<path d="M24.2404 259.12L57.5816 259.06L57.5795 257.939L24.2383 257.999L24.2404 259.12Z" fill="#9BC1F9"/>
<path d="M24.2559 267.33L62.7198 267.261L62.7179 266.14L24.2539 266.209L24.2559 267.33Z" fill="#9BC1F9"/>
<path d="M24.2599 270.048L70.3091 269.965L70.3072 268.844L24.2578 268.927L24.2599 270.048Z" fill="#9BC1F9"/>
<path d="M64.6303 219.122L62.2109 214.971L63.0767 214.467L64.481 216.876L66.7734 211.377L67.6983 211.763L64.6303 219.122Z" fill="#F47458"/>
<path d="M64.6538 232.253L62.2344 228.103L63.1001 227.599L64.5044 230.007L66.7968 224.509L67.7218 224.894L64.6538 232.253Z" fill="#F47458"/>
<path d="M64.7045 257.929L62.2852 253.778L63.1509 253.274L64.5552 255.682L66.8477 250.183L67.7727 250.568L64.7045 257.929Z" fill="#F47458"/>
<path d="M67.3969 240.465L66.6991 239.761L64.7085 241.733L62.7107 239.768L62.0156 240.475L64.0044 242.431L62.0226 244.395L62.7203 245.099L64.711 243.126L66.7087 245.091L67.4038 244.385L65.415 242.429L67.3969 240.465Z" fill="#F47458"/>
<path d="M32.5742 273.146L35.3088 273.14L32.5742 273.146Z" fill="#DABD7E"/>
<path d="M32.5742 273.146C33.8652 272.313 34.9964 271.255 35.9109 270.026L37.9252 270.022C37.3523 270.944 36.6704 271.806 35.8858 272.592C35.6978 272.781 35.5051 272.964 35.3088 273.14L32.5742 273.146Z" fill="#E1ECFD"/>
<path d="M36.6537 268.902C36.9557 268.392 37.2229 267.858 37.452 267.305L39.2352 267.302C39.0401 267.848 38.8117 268.381 38.5512 268.899L36.6537 268.902ZM37.856 266.184C38.2204 264.999 38.4155 263.74 38.4131 262.436C38.411 261.28 38.2538 260.16 37.9612 259.095L39.6742 259.092C39.9328 260.174 40.0668 261.293 40.0689 262.433C40.0712 263.716 39.9064 264.974 39.5845 266.18L37.856 266.184ZM37.5959 257.975C37.3246 257.258 36.9898 256.571 36.5988 255.923L38.501 255.92C38.8398 256.581 39.1259 257.267 39.3573 257.972L37.5959 257.975ZM35.8402 254.803C35.2694 254.05 34.6159 253.362 33.8948 252.753L36.2867 252.749C36.877 253.39 37.4028 254.076 37.8609 254.799L35.8402 254.803ZM32.3493 251.634C30.4164 250.445 28.1425 249.758 25.7121 249.758C25.7044 249.758 25.6965 249.758 25.6888 249.758C23.6978 249.762 21.8136 250.226 20.1361 251.049L20.1336 249.652L20.1328 249.223C21.8673 248.492 23.7468 248.106 25.6858 248.103C25.6947 248.103 25.7033 248.103 25.7123 248.103C29.2131 248.103 32.5239 249.348 35.1377 251.629L32.3493 251.634Z" fill="#E1ECFD"/>
<path d="M33.8931 252.753C33.4074 252.343 32.8914 251.969 32.3477 251.634L35.1361 251.629C35.3781 251.841 35.6142 252.061 35.8437 252.289C35.9946 252.44 36.1417 252.593 36.285 252.749L33.8931 252.753Z" fill="#89B3F7"/>
<path d="M36.6063 255.925C36.3729 255.538 36.1198 255.164 35.8477 254.805L37.8683 254.801C38.099 255.165 38.3126 255.54 38.5084 255.922L36.6063 255.925Z" fill="#89B3F7"/>
<path d="M37.963 259.096C37.8581 258.715 37.7362 258.341 37.5977 257.976L39.359 257.973C39.4797 258.341 39.5854 258.715 39.6759 259.093L37.963 259.096Z" fill="#89B3F7"/>
<path d="M37.4648 267.308C37.6164 266.942 37.7515 266.568 37.8689 266.186L39.5974 266.183C39.4963 266.562 39.3798 266.936 39.2481 267.305L37.4648 267.308Z" fill="#89B3F7"/>
<path d="M35.9141 270.025C36.182 269.665 36.4314 269.291 36.6606 268.903L38.5581 268.899C38.3656 269.282 38.1556 269.657 37.9284 270.021L35.9141 270.025Z" fill="#89B3F7"/>
<path d="M20.1765 271.333L20.1747 270.339L20.1765 271.333ZM20.1463 254.599L20.1445 253.605L20.1463 254.599Z" fill="#DABD7E"/>
<path d="M25.7151 272.923C23.683 272.923 21.7841 272.341 20.1765 271.333L20.1747 270.339C21.7432 271.445 23.6548 272.096 25.7151 272.096C25.721 272.096 25.7269 272.096 25.7329 272.096C27.9711 272.092 30.0319 271.321 31.6673 270.033L32.9317 270.031C31.0574 271.818 28.5224 272.919 25.7344 272.923C25.7278 272.923 25.7216 272.923 25.7151 272.923ZM32.8688 268.91C33.311 268.42 33.7037 267.885 34.0389 267.312L34.9863 267.31C34.6896 267.875 34.3427 268.41 33.9516 268.908L32.8688 268.91ZM34.601 266.19C35.0871 265.036 35.3549 263.77 35.3524 262.442C35.3504 261.267 35.1372 260.143 34.7492 259.102L35.6275 259.101C35.9839 260.149 36.1783 261.273 36.1804 262.44C36.1828 263.76 35.9395 265.024 35.4939 266.188L34.601 266.19ZM34.2475 257.981C33.8539 257.235 33.3651 256.546 32.7972 255.931L33.8863 255.928C34.3901 256.557 34.8227 257.244 35.1723 257.98L34.2475 257.981ZM31.572 254.811C29.9475 253.565 27.9164 252.823 25.7157 252.823C25.7099 252.823 25.7039 252.823 25.6981 252.823C23.6312 252.827 21.7153 253.485 20.1463 254.599L20.1445 253.605C21.3595 252.838 22.7425 252.313 24.225 252.101L24.2262 252.771L29.6447 252.76C30.8373 253.246 31.9211 253.944 32.8481 254.809L31.572 254.811Z" fill="#E1ECFD"/>
<path d="M24.2317 252.772L24.2305 252.103C24.7114 252.034 25.2026 251.998 25.7022 251.997C25.7088 251.997 25.7148 251.997 25.7215 251.997C27.1099 251.997 28.4365 252.269 29.6502 252.762L24.2317 252.772Z" fill="#89B3F7"/>
<path d="M32.7994 255.932C32.4241 255.525 32.0138 255.15 31.5742 254.812L32.8503 254.81C33.2225 255.158 33.5699 255.532 33.8885 255.93L32.7994 255.932Z" fill="#89B3F7"/>
<path d="M34.7517 259.102C34.6078 258.716 34.4401 258.342 34.25 257.981L35.1748 257.98C35.3471 258.342 35.4995 258.717 35.6299 259.101L34.7517 259.102Z" fill="#89B3F7"/>
<path d="M34.043 267.312C34.2538 266.952 34.4417 266.578 34.605 266.191L35.4979 266.189C35.3504 266.574 35.1807 266.948 34.9904 267.31L34.043 267.312Z" fill="#89B3F7"/>
<path d="M31.6641 270.034C32.0956 269.695 32.4979 269.318 32.8656 268.911L33.9484 268.909C33.6356 269.308 33.2948 269.683 32.9285 270.032L31.6641 270.034Z" fill="#89B3F7"/>
<path d="M35.8002 209.172V205.439H34.3125V205.112H37.7567V205.439H36.2689V209.172H35.8002Z" fill="#184655"/>
<path d="M41.5638 208.845V209.172H38.5781V205.112H41.4584V205.439H39.0436V206.861H40.7918V207.188H39.0436V208.845H41.5638Z" fill="#184655"/>
<path d="M42.0391 208.2L42.4432 208.066C42.579 208.355 42.7529 208.569 42.9647 208.707C43.1764 208.845 43.4362 208.913 43.7441 208.913C44.0612 208.913 44.3165 208.842 44.5101 208.696C44.7037 208.552 44.8006 208.362 44.8006 208.126C44.8006 207.938 44.7371 207.782 44.6104 207.661C44.4835 207.539 44.2684 207.428 43.965 207.328C43.7997 207.275 43.5806 207.211 43.3076 207.136C43.0348 207.06 42.8598 207.004 42.7828 206.968C42.5405 206.855 42.3685 206.734 42.2666 206.606C42.1647 206.478 42.1137 206.319 42.1137 206.131C42.1137 205.794 42.2416 205.529 42.4976 205.336C42.7534 205.143 43.1056 205.047 43.5539 205.047C43.9525 205.047 44.2814 205.126 44.5407 205.285C44.8 205.442 44.9975 205.685 45.1334 206.013L44.7394 206.115C44.6147 205.861 44.4546 205.675 44.2588 205.554C44.0628 205.434 43.8211 205.374 43.5336 205.374C43.255 205.374 43.0292 205.438 42.8559 205.568C42.6827 205.699 42.596 205.868 42.596 206.076C42.596 206.233 42.6521 206.366 42.7642 206.474C42.8763 206.582 43.0501 206.67 43.2857 206.737C43.3761 206.764 43.5075 206.803 43.6796 206.849C44.1733 206.985 44.4915 207.092 44.6341 207.171C44.8628 207.291 45.0286 207.424 45.1318 207.567C45.2347 207.712 45.2863 207.881 45.2863 208.077C45.2863 208.432 45.1475 208.714 44.8701 208.925C44.5927 209.135 44.2174 209.24 43.7441 209.24C43.3183 209.24 42.968 209.156 42.6929 208.988C42.4178 208.82 42.1997 208.557 42.0391 208.2Z" fill="#184655"/>
<path d="M47.2143 209.172V205.439H45.7266V205.112H49.1708V205.439H47.6831V209.172H47.2143Z" fill="#184655"/>
<path d="M50.0586 209.172V205.112H50.5239V209.172H50.0586Z" fill="#184655"/>
<path d="M52.3971 205.406V209.172H51.9453V205.112H52.7027L55.111 208.538V205.112H55.5627V209.172H55.0669L52.3971 205.406Z" fill="#184655"/>
<path d="M59.8285 208.717C59.6609 208.896 59.4628 209.03 59.234 209.118C59.0053 209.207 58.7392 209.252 58.4358 209.252C57.813 209.252 57.3387 209.071 57.0125 208.712C56.6865 208.352 56.5234 207.831 56.5234 207.15C56.5234 206.474 56.6899 205.953 57.0227 205.587C57.3556 205.219 57.8267 205.036 58.4358 205.036C58.8864 205.036 59.2465 205.133 59.5159 205.327C59.7854 205.521 59.9848 205.827 60.1138 206.244L59.6756 206.317C59.5669 205.99 59.4112 205.749 59.2086 205.593C59.0059 205.437 58.746 205.36 58.429 205.36C57.9761 205.36 57.6262 205.511 57.3794 205.814C57.1326 206.117 57.0092 206.547 57.0092 207.103C57.0092 207.703 57.1343 208.156 57.3845 208.461C57.6347 208.766 58.0066 208.92 58.5003 208.92C58.8716 208.92 59.1706 208.833 59.3971 208.66C59.6235 208.487 59.7367 208.259 59.7367 207.976V207.542H58.4867V207.237H60.2395V209.172H59.8285V208.717Z" fill="#184655"/>
<path d="M118.808 108.648L117.75 112.771L120.987 110.953L130.655 107.389L123.529 107.191C123.529 107.191 119.835 107.634 119.62 107.786C119.404 107.939 118.808 108.648 118.808 108.648Z" fill="#50BFA5"/>
<path d="M115.984 105.741L130.65 107.387L118.803 108.646L115.984 105.741Z" fill="#96D9C9"/>
<path d="M123.018 113.424L119.547 109.881L130.659 107.387L123.018 113.424Z" fill="#96D9C9"/>
<path d="M110.361 111.915C110.922 111.396 111.559 110.964 112.252 110.629L112.403 110.942C111.741 111.262 111.133 111.675 110.597 112.17L110.361 111.915ZM106.013 112.703C106.409 112.633 107.13 112.517 107.5 112.544C107.786 112.563 108.048 112.592 108.299 112.63L108.247 112.973C108.005 112.937 107.752 112.91 107.475 112.89C107.233 112.873 106.722 112.93 106.074 113.046L106.013 112.703ZM110.331 113.694L110.289 113.668L110.473 113.373L110.519 113.402C111.189 113.831 111.708 114.475 111.943 115.166L111.614 115.277C111.404 114.659 110.936 114.083 110.331 113.694ZM108.463 115.253C108.501 114.922 108.584 114.586 108.71 114.255C108.777 114.076 108.857 113.897 108.95 113.72L109.258 113.88C109.173 114.045 109.097 114.212 109.035 114.377C108.919 114.682 108.844 114.991 108.808 115.294C108.784 115.508 108.78 115.728 108.799 115.946L108.452 115.976C108.432 115.735 108.435 115.492 108.463 115.253ZM101.85 114.458C102.468 114.048 103.128 113.669 103.814 113.328L103.967 113.639C103.296 113.974 102.648 114.346 102.043 114.748L101.85 114.458ZM109.519 118.11C109.501 118.094 109.482 118.08 109.464 118.064L109.69 117.8C109.706 117.813 109.722 117.827 109.735 117.838C109.735 117.838 109.745 117.844 109.768 117.852C109.95 117.921 110.445 117.98 110.742 117.848C110.991 117.737 111.204 117.546 111.375 117.282L111.668 117.471C111.462 117.788 111.19 118.029 110.883 118.166C110.471 118.349 109.874 118.264 109.646 118.178C109.592 118.158 109.55 118.136 109.519 118.11ZM98.4949 117.489C98.9474 116.915 99.4725 116.361 100.055 115.84L100.286 116.1C99.7195 116.606 99.2079 117.147 98.7668 117.705L98.4949 117.489ZM96.5813 121.267C96.6653 120.939 96.7691 120.61 96.8905 120.288C97.0016 119.992 97.1302 119.696 97.2734 119.409L97.5848 119.563C97.4468 119.841 97.3233 120.126 97.2153 120.41C97.0991 120.72 96.9984 121.037 96.9175 121.353C96.8936 121.446 96.8718 121.539 96.85 121.633L96.5117 121.557C96.5335 121.458 96.5563 121.361 96.5813 121.267Z" fill="#9BC1F9"/>
<path d="M114.489 110.295C114.864 110.239 115.239 110.213 115.604 110.22L115.61 109.873C115.226 109.865 114.832 109.892 114.438 109.951L114.489 110.295Z" fill="#9BC1F9"/>
<path d="M88.6319 115.465C88.8412 115.475 89.4144 115.667 90.253 117.25C91.3235 119.274 92.8885 125.386 92.8885 125.386L88.2174 127.126L87.6173 125.85L86.6289 116.028C86.6289 116.028 88.5739 115.463 88.6319 115.465Z" fill="#A34B3D"/>
<path d="M82.4564 114.584C83.7921 114.586 87.0972 114.976 88.6311 115.466C88.6311 115.466 89.7581 125.151 87.6166 132.51C87.1372 134.157 88.013 139.338 88.013 139.338L74.1719 139.155C74.1719 139.155 75.8116 126.629 75.1938 124.606C74.5761 122.582 74.5613 115.531 74.5613 115.531C74.5613 115.531 74.6562 115.515 77.6712 114.995C79.0775 114.752 81.0303 114.583 82.4564 114.584Z" fill="#B75742"/>
<path d="M80.8442 157.315C80.8442 157.315 81.1503 160.848 81.7133 161.827C82.2764 162.805 81.6838 164.47 81.6541 164.698C81.6245 164.926 80.4689 165.252 78.6316 165.056C76.7945 164.861 76.8241 164.436 76.9723 163.752C77.1204 163.067 78.0983 162.186 78.1576 161.533C78.2168 160.881 77.5946 158.532 77.5946 158.532L80.8442 157.315Z" fill="#F7A491"/>
<path d="M86.4492 136.421C86.4492 136.421 96.0042 135.89 98.1379 137.182C100.271 138.474 96.6217 144.816 96.6217 144.816C96.6217 144.816 89.9731 144.51 76.9508 145.261C73.867 145.439 73.6012 137.221 74.1778 136.541C74.7545 135.861 86.4492 136.421 86.4492 136.421Z" fill="#E0973F"/>
<path d="M78.4018 165.332C76.5101 165.129 76.744 164.201 76.8966 163.495C76.9921 163.054 77.5348 162.533 77.8583 162.04C78.0274 162.175 78.3025 162.413 79.124 162.656C79.9772 162.908 81.1467 162.409 81.8918 162.096C82.1575 163.085 82.1696 164.345 82.1447 164.537C82.1142 164.771 80.2936 165.533 78.4018 165.332Z" fill="#DD513A"/>
<path d="M79.4397 143.258C79.8215 146.146 81.7115 160.526 81.7115 160.526L77.326 161.069C77.326 161.069 71.9329 142.302 72.2095 139.431C72.4861 136.56 74.5048 136.319 74.5048 136.319C74.5048 136.319 78.4293 135.613 79.4397 143.258Z" fill="#F7CC7F"/>
<path d="M74.4122 116.607C75.7064 116.121 76.3395 127.781 76.5139 132.58C78.8057 132.8 82.8002 132.581 83.7948 132.507C84.2627 132.472 85.3412 132.077 85.8065 132.015C86.2832 131.953 86.7154 131.921 86.9497 131.961C87.0357 131.976 89.4245 132.954 89.6289 133.167C89.8824 133.433 90.5674 134.103 90.4518 134.393C90.3362 134.682 89.1341 133.585 89.1341 133.585L88.5468 133.257C89.2781 133.97 90.6727 134.912 90.4719 135.254C90.276 135.588 89.0178 134.634 88.1209 133.983C88.8902 134.677 89.8458 135.92 89.6256 136.114C89.4277 136.289 88.3408 134.849 87.1791 134.434C86.7486 134.281 86.3196 134.706 85.9809 134.758C85.7321 134.795 85.3478 134.875 85.1037 134.807L83.8459 134.45C83.4175 134.488 83.4067 134.743 82.9741 134.834C82.4718 134.941 81.6477 135.054 81.008 135.209C77.3243 136.11 76.0958 136.527 74.968 136.527C71.5519 136.525 71.3538 117.754 74.4122 116.607Z" fill="#F7A491"/>
<path d="M71.9569 127.555C71.7145 122.638 71.75 116.58 74.5058 115.545C75.5932 115.138 77.5101 117.591 77.1654 127.654C75.6942 127.776 73.5344 127.873 71.9569 127.555Z" fill="#A34B3D"/>
<path d="M94.1256 160.74C94.1256 160.74 93.4925 161.859 93.9907 162.796C94.4888 163.734 97.103 165.113 97.3759 165.622C97.6488 166.13 97.5419 166.49 97.5419 166.49L89.7773 164.587L90.3723 162.247L91.0983 160.629L94.1256 160.74Z" fill="#F7A491"/>
<path d="M94.3895 163.297C94.3895 163.297 92.207 163.675 91.3415 162.985C90.4755 162.295 90.5335 162.168 90.2143 162.287C90.009 162.362 89.6966 163.294 89.4997 163.951C89.3949 164.3 89.6049 164.666 89.9589 164.753L98.0435 166.751C98.6579 166.869 99.0647 166.486 98.6506 165.993C98.3673 165.655 98.0124 165.394 97.8163 165.217C97.2144 164.674 94.3895 163.297 94.3895 163.297Z" fill="#DD513A"/>
<path d="M93.3671 138.687C93.9846 137.387 95.3887 135.696 97.8607 136.715C100.218 137.687 100.851 140.076 100.107 142.522C99.3635 144.967 94.4672 159.348 94.2959 161.326L90.3867 161.352C90.3867 161.352 91.0975 149.965 91.2718 147.212C91.4389 144.564 92.2982 140.936 93.3671 138.687Z" fill="#F7CC7F"/>
<path d="M99.7154 125.441H86.6473C86.3014 125.441 85.9901 125.651 85.8588 125.972L81.835 135.818H74.6305C74.429 135.818 74.2656 135.982 74.2656 136.185C74.2656 136.386 74.429 136.55 74.6305 136.55H95.1357C95.6992 136.55 96.2098 136.218 96.4412 135.702L100.493 126.646C100.746 126.08 100.334 125.441 99.7154 125.441Z" fill="#184655"/>
<path d="M92.6739 131.175C92.5856 131.618 92.2017 131.914 91.8156 131.836C91.4296 131.758 91.1878 131.337 91.276 130.895C91.3642 130.453 91.7492 130.157 92.1353 130.235C92.5213 130.312 92.7621 130.733 92.6739 131.175Z" fill="white"/>
<path d="M85.5631 102.756C85.1692 102.624 84.7814 102.474 84.407 102.293C83.9838 102.09 83.4352 101.85 83.0888 101.797C82.3594 101.684 81.1065 101.76 80.4146 102.51C79.5526 103.445 78.0209 102.679 78.3295 107.576C78.6788 113.118 81.761 112.51 81.8358 112.417C81.9107 112.323 84.5848 108.87 84.5848 108.87C84.5848 108.87 85.5199 110.915 85.5199 110.841C85.5199 110.768 90.294 104.35 85.5631 102.756Z" fill="#0E2E35"/>
<path d="M83.2243 112.826L83.4903 114.807C83.4903 114.807 84.0863 117.659 83.3196 118.21C82.5527 118.76 80.0586 114.725 80.0586 114.725L80.322 109.706L83.2243 112.826Z" fill="#F7A491"/>
<path d="M80.2422 111.333C80.8755 113.045 82.3843 114.097 83.4552 114.505L83.2296 112.826L80.3273 109.707L80.2422 111.333Z" fill="#F47458"/>
<path d="M83.0677 104.246C84.6926 103.983 86.15 105.291 86.1094 106.917C86.0918 107.623 86.0338 108.507 85.8869 109.457C85.5336 111.743 83.9737 113.756 82.9421 113.577C81.9106 113.397 79.3152 111.425 79.7722 108.171C80.0544 106.162 81.3625 104.521 83.0677 104.246Z" fill="#F7A491"/>
<path d="M80.485 108.558C80.398 109.061 79.9952 109.411 79.5855 109.339C79.1757 109.268 78.914 108.802 79.0011 108.3C79.0882 107.796 79.4909 107.447 79.9007 107.518C80.3105 107.59 80.5721 108.056 80.485 108.558Z" fill="#F7A491"/>
<path d="M79.8977 107.518C79.8977 107.518 81.1448 107.828 81.6077 107.026C82.0706 106.224 83.7256 104.493 85.8294 105.211C87.9332 105.928 83.978 103.466 83.8098 103.466C83.6415 103.466 81.6218 103.452 81.6218 103.452C81.6218 103.452 80.0649 104.732 80.0089 104.873C79.9528 105.014 79.5039 106.548 79.5039 106.548L79.8977 107.518Z" fill="#0E2E35"/>
<path d="M82.1804 110.864L84.4497 111.298C84.4497 111.298 84.2332 112.153 83.2297 111.991C82.0062 111.794 82.1804 110.864 82.1804 110.864Z" fill="white"/>
<path d="M108.581 267.099C108.581 267.099 108.165 269.996 107.451 270.931C107.211 271.244 106.773 271.642 106.485 272.208C106.037 273.091 106.285 274.405 106.615 275.13C106.784 275.501 106.603 275.5 106.989 275.619C108.132 275.974 109.348 275.378 109.834 274.277C110.106 273.661 110.345 272.841 110.393 271.808C110.515 269.177 111.328 267.84 111.328 267.84L108.581 267.099Z" fill="#F7A491"/>
<path d="M121.078 268.424C121.078 268.424 121.335 271.691 121.127 272.752C121.015 273.321 120.394 274.491 120.68 275.026C120.964 275.561 121.29 275.695 121.29 275.695L128.669 275.814C129.07 275.821 128.805 275.561 128.481 275.321C127.951 274.929 127.522 274.67 125.828 273.845C125.717 273.792 125.315 273.535 125.17 273.445C124.802 273.219 124.432 272.863 124.114 272.507C123.585 271.915 123.538 269.037 123.538 269.037L121.078 268.424Z" fill="#F7A491"/>
<path d="M126.85 225.003C126.85 225.003 127.778 230.307 127.168 233.784C126.558 237.261 123.63 269.492 123.63 269.492L120.376 269.677C120.376 269.677 119.693 256.213 119.815 254.341C119.938 252.469 120.903 249.335 120.903 249.335L120.579 238.465L124.686 224.184L126.85 225.003Z" fill="#E25A44"/>
<path d="M117.285 223.886C117.285 223.886 114.722 227.764 114.113 230.974C113.503 234.184 114.56 244.048 113.387 248.254C112.751 250.531 110.344 254.048 109.977 256.99C109.611 259.932 108.176 267.639 108.176 267.639L111.428 268.287L118.987 249.04L124.917 231.642L126.437 222.682L117.285 223.886Z" fill="#F47458"/>
<path d="M110.057 273.698C108.284 274.022 107.105 272.979 106.49 272.199C106.04 273.083 105.82 274.403 106.152 275.13C106.444 275.77 107.297 275.751 107.968 275.776C108.678 275.803 109.228 275.406 109.58 274.784C109.745 274.493 109.915 274.132 110.057 273.698Z" fill="#F7CC7F"/>
<path d="M125.178 273.446C123.226 273.949 121.783 273.608 120.976 273.28C120.768 273.873 120.492 274.617 120.639 275.046C120.818 275.572 121.074 275.69 121.299 275.696C123.081 275.743 127.827 275.808 129.187 275.825C129.377 275.828 129.482 275.605 129.359 275.458C129.022 275.053 125.323 273.535 125.178 273.446Z" fill="#F7CC7F"/>
<path d="M138.533 215.839C138.669 215.55 137.235 215.157 137.189 214.845C137.143 214.534 139.065 214.709 139.16 214.45C139.338 213.973 137.068 214.128 137.136 213.903C137.203 213.678 139.537 213.402 139.332 212.983C139.126 212.563 136.942 213.521 136.907 213.247C136.872 212.973 139.018 212.538 139.042 211.949C139.055 211.634 135.468 213.157 135.092 212.946C134.717 212.735 135.686 211.347 135.395 211.096C135.105 210.846 133.847 213.747 133.62 213.832C133.393 213.916 128.472 215.405 126.799 215.65C126.658 215.084 125.399 211.967 125.279 211.432C124.296 211.988 123.045 211.319 122.039 211.815C122.546 213.6 123.682 219.479 124.135 219.743C125.519 220.548 132.794 216.706 133.996 216.026C135.2 215.345 135.815 215.67 136.599 215.497C137.384 215.324 138.397 216.128 138.533 215.839Z" fill="#F38B80"/>
<path d="M125.589 198.523C125.954 196.859 126.313 195.186 125.348 193.358C124.568 191.879 123.217 191.029 121.655 190.843C117.229 190.318 118.176 194.45 111.99 195.343C110.068 195.621 108.282 195.889 106.676 196.845C103.779 198.57 102.685 201.339 104.607 205.85C109.313 216.895 120.573 207.298 122.291 205.344C123.995 203.405 125.353 199.594 125.589 198.523Z" fill="#0E2E35"/>
<path d="M118.613 203.774C118.613 203.774 116.378 204.027 115.042 205.481C113.705 206.935 117.202 218.623 117.445 220.474C117.688 222.324 115.121 227.446 115.121 227.446C115.121 227.446 123.848 229.18 126.117 227.683C126.117 227.683 126.316 213.379 126.072 212.057C125.83 210.736 123.804 205.36 123.318 204.832C122.832 204.302 118.613 203.774 118.613 203.774Z" fill="#F7CC7F"/>
<path d="M119.743 199.267C119.743 199.267 119.726 199.366 119.694 199.535C119.544 200.346 118.964 203.035 118.572 203.775C118.098 204.668 120.194 207.518 122.21 207.169C122.81 207.066 121.703 204.551 121.755 204.285C121.857 203.775 121.995 203.079 122.137 202.366C122.217 201.964 122.297 201.556 122.374 201.172C122.589 200.082 122.765 199.191 122.765 199.191L119.743 199.267Z" fill="#F7A491"/>
<path d="M122.132 202.359C122.148 202.278 122.164 202.197 122.18 202.117C122.164 202.197 122.148 202.278 122.132 202.359ZM122.237 201.833C122.28 201.609 122.325 201.387 122.368 201.172C122.582 200.083 122.759 199.191 122.759 199.191C122.759 199.191 122.582 200.083 122.368 201.172C122.325 201.387 122.28 201.609 122.237 201.833ZM119.68 199.583C119.682 199.566 119.685 199.55 119.688 199.535C119.716 199.384 119.733 199.29 119.737 199.27C119.733 199.29 119.716 199.384 119.688 199.535C119.685 199.55 119.683 199.566 119.68 199.583Z" fill="#815147"/>
<path d="M122.145 202.359C121.678 202.291 121.191 202.065 120.702 201.638C120.169 201.172 119.82 200.613 119.609 200.016C119.642 199.848 119.67 199.701 119.692 199.583C119.696 199.566 119.698 199.55 119.701 199.535C119.729 199.384 119.745 199.29 119.749 199.27C119.749 199.268 119.749 199.267 119.749 199.267L122.772 199.191C122.772 199.191 122.595 200.083 122.38 201.172C122.338 201.387 122.293 201.609 122.25 201.833C122.231 201.927 122.212 202.021 122.192 202.117C122.177 202.197 122.16 202.278 122.145 202.359Z" fill="#F58C74"/>
<path d="M121.559 192.087C121.559 192.087 120.326 192.257 119.433 193.41C118.541 194.562 117.578 198.126 119.795 200.063C122.013 202 124.205 199.808 124.53 197.482C124.855 195.157 124.789 192.003 121.559 192.087Z" fill="#F7A491"/>
<path d="M125.185 196.907C125.044 197.467 124.677 197.846 124.365 197.752C124.051 197.659 123.91 197.129 124.05 196.568C124.19 196.007 124.558 195.629 124.871 195.723C125.184 195.816 125.325 196.346 125.185 196.907Z" fill="#F7A491"/>
<path d="M122.93 192.097C122.93 192.097 120.034 195.421 118.673 195.578C117.312 195.735 117.133 197.535 117.133 197.535C117.133 197.535 117.62 193.386 118.968 192.586C120.315 191.786 122.93 192.097 122.93 192.097Z" fill="#0E2E35"/>
<path d="M119.119 196.386C119.23 196.988 119.007 197.54 118.622 197.618C118.237 197.697 117.834 197.274 117.724 196.672C117.613 196.07 117.835 195.518 118.221 195.439C118.606 195.36 119.009 195.784 119.119 196.386Z" fill="#F7A491"/>
<path d="M119.079 213.259L128.438 214.628C128.719 214.669 128.913 214.931 128.873 215.212L127.046 227.695C127.005 227.977 126.743 228.172 126.462 228.13L117.104 226.761C116.823 226.72 116.628 226.458 116.67 226.177L118.496 213.694C118.537 213.413 118.798 213.217 119.079 213.259Z" fill="#184655"/>
<path d="M126.055 213.865C126.064 213.808 126.024 213.755 125.967 213.746L122.064 213.176C122.007 213.167 121.954 213.207 121.946 213.264L121.887 213.67L125.996 214.271L126.055 213.865Z" fill="#13375B"/>
<path d="M123.94 213.98C123.722 213.948 123.571 213.745 123.603 213.527C123.635 213.309 123.837 213.159 124.055 213.191C124.273 213.222 124.425 213.425 124.392 213.643C124.36 213.861 124.158 214.012 123.94 213.98ZM124.087 212.97C123.748 212.92 123.431 213.155 123.382 213.495C123.332 213.835 123.567 214.151 123.908 214.2C124.247 214.25 124.564 214.015 124.613 213.675C124.662 213.335 124.428 213.019 124.087 212.97Z" fill="#13375B"/>
<path d="M126.008 213.759C126.043 213.78 126.063 213.82 126.057 213.863L125.998 214.269L121.888 213.668C121.847 213.949 122.042 214.209 122.322 214.251L125.415 214.703C125.696 214.745 125.957 214.55 125.998 214.269L126.057 213.863C126.063 213.82 126.043 213.78 126.008 213.759Z" fill="#355389"/>
<path d="M123.149 198.635L121.043 198.624C121.043 198.624 121.087 199.424 122.013 199.456C123.142 199.494 123.149 198.635 123.149 198.635Z" fill="white"/>
<path d="M112.515 216.45L115.906 216.796C115.906 216.796 115.851 219.674 115.909 220.005C115.909 220.005 121.707 221.612 124.13 222.048C124.13 222.048 125.235 221.422 125.681 221.224C126.127 221.025 127.327 220.808 127.592 220.774C127.858 220.739 127.767 221.029 127.539 221.131C127.311 221.233 126.722 221.511 126.555 221.851C126.555 221.851 127.033 221.903 127.286 221.79C127.539 221.678 127.888 221.438 127.894 221.315C127.9 221.191 127.957 220.892 128.041 220.908C128.061 220.912 128.089 221.01 128.119 221.113C128.146 221.21 128.174 221.31 128.197 221.409C128.24 221.585 128.289 221.843 128.308 221.959C128.351 222.223 128.19 222.952 128.167 223.21C128.126 223.684 127.991 223.893 127.741 224.014C127.338 224.154 126.913 224.243 126.284 224.308C125.131 224.428 124.07 224.096 123.607 224.044C123.145 223.992 115.762 223.259 115.762 223.259C115.762 223.259 112.827 222.837 112.632 222.331C112.438 221.827 112.515 216.45 112.515 216.45Z" fill="#F7A491"/>
<path d="M115.456 205.058C115.456 205.058 114.386 205.566 113.446 207.757C112.552 209.84 112.289 220.233 112.289 220.233L115.836 219.642L117.639 214.796C118.924 211.896 118.592 208.519 116.719 205.958C116.22 205.274 115.76 204.862 115.456 205.058Z" fill="#F7CC7F"/>
<path d="M183.536 170.182H171.387V155.129H186.441V168.325C185.438 168.868 184.468 169.486 183.536 170.182Z" fill="#AFD0FB"/>
<path d="M189.102 157.174H218.47V155.128H189.102V157.174Z" fill="#AFD0FB"/>
<path d="M189.102 161.512H208.921V159.466H189.102V161.512Z" fill="#AFD0FB"/>
<path d="M215.482 165.847H202.268C200.813 165.578 199.339 165.444 197.867 165.444C196.393 165.444 194.921 165.578 193.47 165.847H189.102V163.801H215.482V165.847Z" fill="#AFD0FB"/>
<path d="M228.58 205.102C227.964 204.602 223.205 206.691 223.265 207.417C223.325 208.143 219.944 215.19 219.944 215.19L214.101 210.532L214.098 210.533C214.047 210.365 213.493 208.553 213.466 208.23C213.438 207.889 212.45 207.295 211.993 207.382C211.534 207.469 212.384 208.045 212.44 208.15C212.592 208.437 212.004 208.545 212.004 208.545C212.004 208.545 210.335 208.011 210.3 207.466C210.264 206.921 209.123 208.418 209.257 208.627C209.388 208.83 212.115 211.027 212.507 211.503C212.507 211.503 220.066 220.142 220.603 220.369C221.075 220.567 222.759 217.59 224.35 215.613C225.94 213.637 230.503 206.666 228.58 205.102Z" fill="#F7A491"/>
<path d="M243.828 268.625C243.828 268.625 244.867 269.639 244.891 270.01C244.913 270.383 244.982 274.367 244.558 274.738C244.134 275.11 242.889 275.373 243.289 275.792C243.591 276.108 245.92 276.04 247.463 275.955C247.914 275.93 248.478 272.338 248.657 271.81C248.915 271.043 249.545 269.315 249.309 268.781C249.195 268.52 248.646 267.985 247.872 267.485C247.058 266.96 246.28 265.789 246.28 265.789L243.828 268.625Z" fill="#F48C7F"/>
<path d="M233.072 270.985L234.003 273.618C234.073 274.033 234.345 275.061 234.345 275.439C234.345 276.86 227.938 274.233 229.374 273.603C229.503 273.547 229.911 273.092 229.954 272.608C230.02 271.863 229.414 270.929 229.414 270.929L233.072 270.985Z" fill="#F7A491"/>
<path d="M223.023 222.101C223.023 222.101 222.556 226.807 222.556 226.877C222.556 234.491 221.047 249.361 221.333 250.793C222.034 254.284 229.57 272.093 229.57 272.093L233.643 271.606L229.271 250.085L230.288 241.701L233.053 224.736L223.023 222.101Z" fill="#50BFA5"/>
<path d="M236.693 226.263L237.465 230.723L239.556 249.081L247.52 267.024C247.52 267.024 246.4 269.635 244.747 270.001L232.073 251.58L224.199 228.009L224.476 222.771L236.693 226.263Z" fill="#96D9C9"/>
<path d="M221.398 210.893L227.046 211.469C227.046 211.469 227.306 206.839 227.306 204.63C227.306 201.951 227.077 198.5 226.753 198.574C225.845 198.783 224.622 199.284 223.894 200.284C221.375 203.746 221.398 210.893 221.398 210.893Z" fill="#B75742"/>
<path d="M224.165 204.159C224.047 204.976 221.875 227.184 221.875 227.184C232.159 232.152 237.834 228.069 237.834 228.069C237.834 228.069 237.498 212.474 237.9 210.351C238.167 208.947 238.5 199.614 237.59 199.353C236.423 199.017 235.083 198.661 233.624 198.51C232.377 198.38 227.537 198.305 226.671 198.597C226.671 198.597 224.663 200.723 224.165 204.159Z" fill="#F47458"/>
<path d="M247.818 267.46C247.818 267.46 245.424 274.199 244.488 274.523C244.239 274.611 243.044 274.83 242.819 275.358C242.752 275.517 242.819 276.048 242.819 276.048H247.809C247.809 276.048 248.44 273.078 248.689 271.774C248.689 271.774 250.01 268.586 249.863 268.296C249.716 268.007 247.818 267.46 247.818 267.46Z" fill="#F47458"/>
<path d="M234.708 275.906L233.974 273.589C233.974 273.589 232.433 274.241 231.663 274.132C230.893 274.023 229.388 273.589 229.388 273.589C226.313 274.601 223.795 275.092 224.253 275.906H234.708Z" fill="#F47458"/>
<path d="M220.594 220.368C220.571 220.359 220.487 220.292 220.44 220.253C220.622 218.077 220.589 215.968 219.906 215.256C219.923 215.222 220.072 214.905 220.228 214.576C221.02 215.188 221.395 216.814 221.248 219.454C221.238 219.635 221.186 219.773 221.143 220C220.914 220.252 220.706 220.415 220.594 220.368Z" fill="#F7A491"/>
<path d="M232.256 194.218L232.918 198.587C232.918 198.587 230.498 203.789 229.053 203.337C227.84 202.959 228.587 198.357 228.587 198.357C228.587 198.357 229.248 195.885 229.049 194.648C228.851 193.411 232.256 194.218 232.256 194.218Z" fill="#F7A491"/>
<path d="M229.046 194.647C228.848 193.41 232.253 194.217 232.253 194.217L232.308 194.579C232.208 194.822 232.086 195.029 231.938 195.188C231.178 196.007 229.988 196.498 228.961 196.535C229.064 195.869 229.127 195.154 229.046 194.647Z" fill="#F47458"/>
<path d="M232.807 188.037C232.903 188.002 233.578 193.013 232.297 194.391C231.016 195.77 228.52 196.222 227.624 195.135C226.633 193.935 226.683 188.549 228.676 187.132C230.667 185.713 232.807 188.037 232.807 188.037Z" fill="#F7A491"/>
<path d="M229.437 184.45C230.976 184.764 231.974 185.705 232.341 186.105C233.04 186.188 233.99 186.575 234.971 188.2C236.178 190.197 235.286 192.411 233.882 193.496C232.478 194.582 232.497 195.836 232.497 195.836L232.275 195.187C232.112 194.696 232.044 194.175 232.099 193.659C232.133 193.35 232.198 193.015 232.327 192.74C232.664 192.015 231.601 191.534 231.302 190.931C231.073 190.466 231.062 189.403 230.7 188.635L230.268 188.049C230.268 188.049 229.271 187.273 228.296 187.492C227.321 187.711 227.461 184.048 229.437 184.45Z" fill="#0E2E35"/>
<path d="M231.371 191.821C231.362 192.432 231.639 192.932 231.993 192.938C232.346 192.945 232.639 192.454 232.65 191.843C232.66 191.231 232.382 190.73 232.029 190.725C231.676 190.719 231.382 191.21 231.371 191.821Z" fill="#F7A491"/>
<path d="M229.291 193.234L227.359 193.134C227.359 193.134 227.367 193.87 228.215 193.938C229.248 194.021 229.291 193.234 229.291 193.234Z" fill="white"/>
<path d="M213.48 204.657C213.934 204.194 214.357 203.714 214.75 203.225L223.18 211.456C223.698 211.962 223.52 212.985 222.782 213.74C222.044 214.497 221.026 214.699 220.507 214.193L212.078 205.962C212.558 205.557 213.027 205.122 213.48 204.657Z" fill="#0E2E35"/>
<path d="M198.152 210.876C197.899 210.876 197.645 210.872 197.393 210.862V208.437L199.735 210.818C199.208 210.856 198.68 210.876 198.152 210.876ZM190.256 209.37C189.288 208.986 188.342 208.53 187.426 207.999V198.307L190.256 201.184V209.37ZM180.289 201.301C177.894 197.714 176.691 193.564 176.691 189.418C176.691 188.773 176.72 188.128 176.779 187.485L180.289 191.053V201.301Z" fill="#C8E1FB"/>
<path d="M180.285 201.304V191.055L183.201 194.021H180.285V201.304Z" fill="#BCD8FA"/>
<path d="M197.387 210.862C197.023 210.85 196.661 210.827 196.298 210.796C194.241 210.618 192.2 210.143 190.25 209.37V201.184L197.387 208.437V210.862Z" fill="#B4D2F9"/>
<path d="M187.422 208C186.01 207.181 184.669 206.189 183.432 205.022C183.366 204.96 183.3 204.897 183.235 204.834C183.235 204.833 183.236 204.834 183.235 204.833C183.211 204.81 183.186 204.785 183.161 204.762C182.063 203.689 181.104 202.529 180.285 201.302V194.019H183.201L187.422 198.308V208Z" fill="#B4D2F9"/>
<path d="M207.362 208.787V208.741C208.403 208.219 209.397 207.613 210.336 206.931V207.045C209.385 207.712 208.389 208.293 207.362 208.787ZM210.336 201.206L207.362 198.184V191.035L210.336 194.057V201.206ZM217.473 198.438V197.953C218.275 196.058 218.816 194.013 219.048 191.86C219.118 191.195 219.158 190.535 219.168 189.879L217.473 188.157V185.355H214.717L207.362 177.88V173.387H202.942L197.865 168.227C197.873 168.227 197.881 168.227 197.889 168.227C197.891 168.227 197.892 168.227 197.893 168.227C197.893 168.227 197.894 168.227 197.895 168.227C203.259 168.228 208.638 170.238 212.805 174.27L212.807 174.271C212.818 174.283 212.828 174.293 212.841 174.304C212.853 174.317 212.866 174.329 212.878 174.342C217.187 178.55 219.352 184.121 219.353 189.685C219.353 192.676 218.727 195.664 217.473 198.438ZM200.226 190.93L183.475 173.905C180.73 176.458 178.641 179.742 177.531 183.493C178.469 180.249 180.196 177.186 182.717 174.605C185.069 172.198 187.856 170.47 190.835 169.425C189.7 169.83 188.608 170.329 187.567 170.914L200.226 183.781V190.93Z" fill="#C8E1FB"/>
<path d="M200.219 190.931V183.781L202.518 186.119H200.219V190.931ZM207.356 177.881L202.936 173.387H207.356V177.881Z" fill="#BCD8FA"/>
<path d="M210.336 201.205V194.056L211.586 195.327H210.336V201.205ZM217.473 188.156L214.717 185.354H217.473V188.156Z" fill="#BCD8FA"/>
<path d="M205.134 209.704C205.894 209.426 206.636 209.104 207.356 208.743V208.789C206.629 209.138 205.888 209.443 205.134 209.704ZM207.356 198.186L200.219 190.932V186.12H202.518L207.356 191.037V198.186Z" fill="#B4D2F9"/>
<path d="M210.336 207.045V206.931C211.421 206.142 212.432 205.252 213.354 204.273L210.336 201.206V195.327H211.586L216.37 200.189C216.779 199.47 217.147 198.724 217.473 197.953V198.438C216.484 200.627 215.102 202.681 213.329 204.498C213.308 204.519 213.287 204.541 213.266 204.563C213.259 204.569 213.252 204.576 213.246 204.582C212.336 205.505 211.361 206.325 210.336 207.045Z" fill="#B4D2F9"/>
<path d="M199.734 210.818L197.392 208.438V190.237H190.255V201.184L187.425 198.308V194.019V183.655H180.288V191.053L176.777 187.486C176.899 186.139 177.149 184.802 177.528 183.494C178.637 179.742 180.726 176.458 183.471 173.905L200.222 190.931V210.776C200.059 210.792 199.896 210.806 199.734 210.818ZM207.359 208.742V198.184L210.332 201.206V206.931C209.394 207.614 208.4 208.22 207.359 208.742Z" fill="#E2F0FD"/>
<path d="M190.25 201.185V190.237H197.387V199.084H190.25V201.185Z" fill="#DBEBFC"/>
<path d="M187.422 194.021H183.201L180.285 191.055V183.656H187.422V194.021Z" fill="#DBEBFC"/>
<path d="M200.219 210.776V190.931L207.356 198.185V208.742C206.636 209.104 205.894 209.425 205.134 209.703C203.538 210.256 201.886 210.614 200.219 210.776Z" fill="#D6E7FC"/>
<path d="M197.387 208.438L190.25 201.184V199.084H197.387V208.438Z" fill="#D6E7FC"/>
<path d="M210.336 206.933V201.208L213.354 204.275C212.432 205.254 211.421 206.144 210.336 206.933Z" fill="#D6E7FC"/>
<path d="M187.42 198.308L183.199 194.019H187.42V198.308Z" fill="#D6E7FC"/>
<path d="M217.472 197.952V188.156L219.168 189.879C219.158 190.535 219.118 191.195 219.048 191.86C218.816 194.013 218.274 196.057 217.472 197.952ZM210.335 194.057L207.362 191.035V186.118V177.88L214.717 185.355H210.335V194.057ZM200.225 183.78L187.566 170.914C188.607 170.329 189.7 169.83 190.834 169.425C193.102 168.63 195.482 168.23 197.864 168.226L202.942 173.387H200.225V183.78Z" fill="#E2F0FD"/>
<path d="M207.356 186.119H202.518L200.219 183.781V173.388H202.936L207.356 177.881V186.119Z" fill="#DBEBFC"/>
<path d="M217.473 195.326H211.586L210.336 194.056V185.354H214.717L217.473 188.156V195.326Z" fill="#DBEBFC"/>
<path d="M207.357 191.035L202.52 186.119H207.357V191.035Z" fill="#D6E7FC"/>
<path d="M216.365 200.189L211.582 195.328H217.468V197.953C217.142 198.724 216.774 199.47 216.365 200.189Z" fill="#D6E7FC"/>
<path d="M183.164 204.761C174.711 196.506 174.51 183.004 182.713 174.604C190.918 166.204 204.422 166.086 212.875 174.341C221.327 182.594 221.53 196.096 213.325 204.497C205.12 212.897 191.618 213.015 183.164 204.761ZM181.225 206.746C190.781 216.078 206.048 215.944 215.323 206.447C224.598 196.951 224.37 181.688 214.814 172.356C205.257 163.024 189.991 163.156 180.716 172.653C171.441 182.149 171.669 197.414 181.225 206.746Z" fill="#184655"/>
<path d="M198.157 212.196C192.426 212.196 186.679 210.036 182.242 205.703C173.265 196.938 173.052 182.6 181.764 173.68C186.17 169.169 192.015 166.907 197.879 166.907C203.608 166.907 209.356 169.068 213.792 173.4C222.769 182.166 222.983 196.503 214.27 205.423C209.865 209.935 204.019 212.196 198.157 212.196ZM176.688 189.419C176.688 194.982 178.853 200.553 183.162 204.762C187.341 208.842 192.752 210.876 198.148 210.876C203.668 210.876 209.174 208.746 213.323 204.499C217.345 200.38 219.347 195.036 219.347 189.686C219.346 184.121 217.181 178.55 212.873 174.342C212.86 174.33 212.848 174.317 212.835 174.305C212.823 174.293 212.812 174.283 212.801 174.272L212.799 174.271C208.631 170.238 203.253 168.227 197.889 168.227C197.888 168.227 197.887 168.227 197.887 168.227C197.878 168.227 197.868 168.227 197.859 168.227C195.476 168.231 193.097 168.631 190.829 169.426C187.851 170.471 185.063 172.198 182.711 174.606C180.191 177.186 178.464 180.25 177.526 183.494C177.147 184.802 176.897 186.139 176.775 187.486C176.717 188.128 176.688 188.773 176.688 189.419Z" fill="#103D46"/>
<path d="M249.364 240.78L250.673 239.422C251.983 238.063 251.944 235.902 250.585 234.593L226.248 210.999C224.89 209.691 222.728 209.73 221.419 211.087L220.109 212.447C218.8 213.804 218.839 215.966 220.197 217.275L244.534 240.868C245.892 242.178 248.054 242.138 249.364 240.78Z" fill="#184655"/>
<path d="M248.023 227.421C248.03 227.373 248.03 227.325 248.025 227.277C247.874 225.74 246.596 212.824 246.382 212.275C246.188 211.779 240.46 203.588 240.46 203.588L237.645 207.423L243.153 214.771C243.277 215.238 245.264 223.956 245.264 223.956C245.264 223.956 245.672 225.545 245.853 226.497C245.77 226.726 245.688 226.943 245.617 227.121C245.434 227.501 245.218 227.813 245.023 228.074C244.777 228.404 244.369 229.126 244.32 229.319C244.261 229.543 244.156 230.009 244.096 230.29C244.037 230.572 243.955 230.899 243.942 231.052C243.933 231.145 243.838 231.331 243.763 231.461C243.653 231.656 243.841 231.886 244.054 231.815C244.254 231.749 244.41 231.49 244.505 231.329C244.777 230.873 244.921 230.041 244.989 230.085C245.056 230.129 245.294 231.54 245.331 231.7C245.369 231.86 245.654 233.498 245.815 233.798C245.975 234.098 246.189 234.047 246.245 233.861C246.293 233.699 246.067 231.405 246.067 231.405C246.067 231.405 246.039 231.113 246.167 231.204C246.296 231.295 246.504 233.377 246.593 233.682C246.683 233.987 246.886 234.148 247.058 233.903C247.268 233.605 246.908 231.397 246.908 231.397C246.908 231.397 246.867 231.12 246.986 231.146C247.104 231.172 247.252 232.945 247.345 233.099C247.437 233.252 247.671 233.307 247.782 233.052C247.912 232.75 247.573 230.783 247.573 230.783C247.573 230.783 247.59 230.626 247.664 230.678C247.738 230.73 247.973 232.233 248.125 232.372C248.254 232.489 248.361 232.376 248.361 232.376C248.642 232.184 248.211 230.754 248.215 230.043C248.22 229.332 247.891 228.533 247.988 227.686C247.994 227.633 248.012 227.503 248.023 227.421Z" fill="#F8A492"/>
<path d="M244.938 208.776L240.045 212.061C240.045 212.061 237.288 207.957 235.807 206.496C233.952 204.667 236.482 199.061 237.677 199.378C240.35 200.088 244.938 208.776 244.938 208.776Z" fill="#F47458"/>
<path d="M255.007 275.507H11.543V276.96H255.007V275.507Z" fill="#0E2E35"/>
</svg>
