<svg width="286" height="285" viewBox="0 0 286 285" fill="none" xmlns="http://www.w3.org/2000/svg">
<rect width="285" height="285" fill="#D3DBDC"/>
<path d="M0.0351562 221.332H285.796V221.188H0.0351562V221.332Z" fill="#EEEEEE"/>
<path d="M238.234 230.389H257.164V230.532H238.234V230.389Z" fill="#EEEEEE"/>
<path d="M184.367 231.939H189.336V232.082H184.367V231.939Z" fill="#EEEEEE"/>
<path d="M226.691 225.081H237.66V225.224H226.691V225.081Z" fill="#EEEEEE"/>
<path d="M30.0156 226.041H54.7014V226.184H30.0156V226.041Z" fill="#EEEEEE"/>
<path d="M59.7891 226.041H63.4085V226.184H59.7891V226.041Z" fill="#EEEEEE"/>
<path d="M75.168 228.597H128.706V228.454H75.168V228.597Z" fill="#EEEEEE"/>
<path d="M25.1373 34.1898C23.417 34.1898 22.0179 35.5889 22.0179 37.3086V192.438C22.0179 194.158 23.417 195.557 25.1373 195.557H135.498C137.216 195.557 138.616 194.158 138.616 192.438V37.3086C138.616 35.5889 137.216 34.1898 135.498 34.1898H25.1373ZM135.498 195.7H25.1373C23.3384 195.7 21.875 194.237 21.875 192.438V37.3086C21.875 35.5106 23.3384 34.0469 25.1373 34.0469H135.498C137.295 34.0469 138.759 35.5106 138.759 37.3086V192.438C138.759 194.237 137.295 195.7 135.498 195.7Z" fill="#373131"/>
<path d="M148.746 34.1898C147.026 34.1898 145.627 35.5889 145.627 37.3086V192.438C145.627 194.158 147.026 195.557 148.746 195.557H259.106C260.826 195.557 262.226 194.158 262.226 192.438V37.3086C262.226 35.5889 260.826 34.1898 259.106 34.1898H148.746ZM259.106 195.7H148.746C146.947 195.7 145.484 194.237 145.484 192.438V37.3086C145.484 35.5106 146.947 34.0469 148.746 34.0469H259.106C260.905 34.0469 262.368 35.5106 262.368 37.3086V192.438C262.368 194.237 260.905 195.7 259.106 195.7Z" fill="#373131"/>
<path d="M202.312 58.7264C202.312 57.1827 201.061 55.9317 199.518 55.9317C199.238 55.9317 198.97 55.974 198.715 56.05C198.756 55.7694 198.778 55.483 198.778 55.1916C198.778 51.923 196.128 49.2735 192.859 49.2735C192.487 49.2735 192.123 49.31 191.769 49.3758C190.86 47.8869 189.225 46.8896 187.352 46.8896C184.519 46.8896 182.22 49.1671 182.178 51.9905L182.092 51.9859C179.459 51.9859 177.324 54.1205 177.324 56.7535C177.324 59.3865 179.459 61.5211 182.092 61.5211H199.6L199.596 61.5172C201.103 61.4749 202.312 60.2432 202.312 58.7264Z" fill="#4870C0"/>
<path d="M192.039 62.9087V57.4609H187.595V62.9087H183.977L189.817 67.8443L195.657 62.9087H192.039Z" fill="white"/>
<path d="M114.729 66.9684C114.729 63.6902 112.072 61.0327 108.794 61.0327C108.201 61.0327 107.63 61.1224 107.089 61.2841C107.176 60.6891 107.222 60.0811 107.222 59.4615C107.222 52.5198 101.595 46.8926 94.6535 46.8926C93.8623 46.8926 93.089 46.9692 92.338 47.1092C90.4066 43.9476 86.9337 41.8301 82.9572 41.8301C76.9391 41.8301 72.0573 46.6657 71.9681 52.6627C71.9064 52.6615 71.8468 52.6535 71.7851 52.6535C66.1926 52.6535 61.6602 57.1868 61.6602 62.7786C61.6602 68.3704 66.1926 72.9037 71.7851 72.9037H108.968L108.961 72.8951C112.161 72.806 114.729 70.1901 114.729 66.9684Z" fill="#395EB4"/>
<path d="M83.4742 67.4294V79.0004H92.9124V67.4294H100.597L88.1935 56.9482L75.7891 67.4294H83.4742Z" fill="white"/>
<path d="M119.755 95.8732V80.5977H166.84V95.7164H167.411V80.0264H119.184V95.8732H119.755Z" fill="white"/>
<path d="M143.715 95.8311H144.287V65.6465H143.715V95.8311Z" fill="white"/>
<path d="M152.104 59.7188H135.893C135.518 59.7188 135.215 60.0222 135.215 60.3966V70.045C135.215 70.4194 135.518 70.7228 135.893 70.7228H152.104C152.478 70.7228 152.782 70.4194 152.782 70.045V60.3966C152.782 60.0222 152.478 59.7188 152.104 59.7188Z" fill="#4870C0"/>
<path d="M151.938 70.2831H136.065C135.932 70.2831 135.824 70.1751 135.824 70.0425V61.2513C135.824 61.1188 135.932 61.0107 136.065 61.0107H151.938C152.07 61.0107 152.178 61.1188 152.178 61.2513V70.0425C152.178 70.1751 152.07 70.2831 151.938 70.2831Z" fill="white"/>
<path d="M127.572 94.4619H111.362C110.987 94.4619 110.684 94.7654 110.684 95.1405V104.788C110.684 105.163 110.987 105.467 111.362 105.467H127.572C127.947 105.467 128.25 105.163 128.25 104.788V95.1405C128.25 94.7654 127.947 94.4619 127.572 94.4619Z" fill="white"/>
<path d="M127.402 105.027H111.53C111.397 105.027 111.289 104.919 111.289 104.786V95.9953C111.289 95.8629 111.397 95.7549 111.53 95.7549H127.402C127.535 95.7549 127.643 95.8629 127.643 95.9953V104.786C127.643 104.919 127.535 105.027 127.402 105.027Z" fill="#E3E3E2"/>
<path d="M152.104 94.4619H135.893C135.518 94.4619 135.215 94.7654 135.215 95.1405V104.788C135.215 105.163 135.518 105.467 135.893 105.467H152.104C152.478 105.467 152.782 105.163 152.782 104.788V95.1405C152.782 94.7654 152.478 94.4619 152.104 94.4619Z" fill="white"/>
<path d="M151.938 105.027H136.065C135.932 105.027 135.824 104.919 135.824 104.786V95.9953C135.824 95.8629 135.932 95.7549 136.065 95.7549H151.938C152.07 95.7549 152.178 95.8629 152.178 95.9953V104.786C152.178 104.919 152.07 105.027 151.938 105.027Z" fill="#E3E3E2"/>
<path d="M175.264 94.4619H159.054C158.678 94.4619 158.375 94.7654 158.375 95.1405V104.788C158.375 105.163 158.678 105.467 159.054 105.467H175.264C175.639 105.467 175.942 105.163 175.942 104.788V95.1405C175.942 94.7654 175.639 94.4619 175.264 94.4619Z" fill="white"/>
<path d="M175.094 105.027H159.221C159.088 105.027 158.98 104.919 158.98 104.786V95.9953C158.98 95.8629 159.088 95.7549 159.221 95.7549H175.094C175.227 95.7549 175.335 95.8629 175.335 95.9953V104.786C175.335 104.919 175.227 105.027 175.094 105.027Z" fill="#E3E3E2"/>
<path d="M143.672 75.593L139.279 79.9862C139.1 80.1658 139.1 80.4577 139.279 80.6373L143.672 85.0304C143.852 85.21 144.143 85.21 144.323 85.0304L148.717 80.6373C148.896 80.4577 148.896 80.1658 148.717 79.9862L144.323 75.593C144.143 75.413 143.852 75.413 143.672 75.593Z" fill="white"/>
<path d="M50.9441 80.1871H39.5096C39.2347 80.1871 39.0117 79.9638 39.0117 79.6894V73.2351C39.0117 72.9608 39.2347 72.7373 39.5096 72.7373H50.9441C51.2197 72.7373 51.4421 72.9608 51.4421 73.2351V79.6894C51.4421 79.9638 51.2197 80.1871 50.9441 80.1871Z" fill="#4870C0"/>
<path d="M42.2274 94.4465H33.1697C32.8949 94.4465 32.6719 94.2237 32.6719 93.9485V89.2574C32.6719 88.9822 32.8949 88.7598 33.1697 88.7598H42.2274C42.5022 88.7598 42.7253 88.9822 42.7253 89.2574V93.9485C42.7253 94.2237 42.5022 94.4465 42.2274 94.4465Z" fill="white"/>
<path d="M57.4771 94.4465H48.42C48.1452 94.4465 47.9219 94.2237 47.9219 93.9485V89.2574C47.9219 88.9822 48.1452 88.7598 48.42 88.7598H57.4771C57.7528 88.7598 57.9757 88.9822 57.9757 89.2574V93.9485C57.9757 94.2237 57.7528 94.4465 57.4771 94.4465Z" fill="white"/>
<path d="M48.0992 105.649H43.8184C43.5436 105.649 43.3203 105.426 43.3203 105.152V101.29C43.3203 101.016 43.5436 100.792 43.8184 100.792H48.0992C48.3744 100.792 48.5973 101.016 48.5973 101.29V105.152C48.5973 105.426 48.3744 105.649 48.0992 105.649Z" fill="white"/>
<path d="M54.8024 105.649H50.5215C50.2459 105.649 50.0234 105.426 50.0234 105.152V101.29C50.0234 101.016 50.2459 100.792 50.5215 100.792H54.8024C55.0771 100.792 55.3 101.016 55.3 101.29V105.152C55.3 105.426 55.0771 105.649 54.8024 105.649Z" fill="white"/>
<path d="M61.5055 105.649H57.2246C56.9499 105.649 56.7266 105.426 56.7266 105.152V101.29C56.7266 101.016 56.9499 100.792 57.2246 100.792H61.5055C61.7811 100.792 62.004 101.016 62.004 101.29V105.152C62.004 105.426 61.7811 105.649 61.5055 105.649Z" fill="#E3E3E2"/>
<path d="M32.5953 105.649H28.3142C28.0392 105.649 27.8164 105.426 27.8164 105.152V101.29C27.8164 101.016 28.0392 100.792 28.3142 100.792H32.5953C32.8703 100.792 33.0934 101.016 33.0934 101.29V105.152C33.0934 105.426 32.8703 105.649 32.5953 105.649Z" fill="white"/>
<path d="M39.8648 105.649H35.5838C35.309 105.649 35.0859 105.426 35.0859 105.152V101.29C35.0859 101.016 35.309 100.792 35.5838 100.792H39.8648C40.1399 100.792 40.3627 101.016 40.3627 101.29V105.152C40.3627 105.426 40.1399 105.649 39.8648 105.649Z" fill="white"/>
<path d="M52.3752 88.7593H52.9465V84.7588H45.5169V80.1865H44.9455V84.7588H37.5156V88.7593H38.0872V85.3302H52.3752V88.7593Z" fill="white"/>
<path d="M37.5158 97.9037H30.0859V100.761H30.6575V98.4751H37.5158V100.761H38.0873V94.4746H37.5158V97.9037Z" fill="white"/>
<path d="M52.9457 98.4755V94.4746H52.3739V98.4755H45.5156V100.761H46.0874V99.0469H52.3739V100.761H52.9457V99.0469H59.2326V100.761H59.804V98.4755H52.9457Z" fill="white"/>
<path d="M230.701 71.0196C233.771 71.0196 236.26 73.508 236.26 76.5776C236.26 79.6473 233.771 82.1364 230.701 82.1364C227.632 82.1364 225.144 79.6473 225.144 76.5776C225.144 73.508 227.632 71.0196 230.701 71.0196ZM217.781 74.5253V78.631L219.894 78.8298C220.18 80.2062 220.726 81.4857 221.471 82.6225L220.113 84.2624L223.017 87.1661L224.657 85.8077C225.794 86.5535 227.073 87.0992 228.45 87.3847L228.649 89.4987H232.755L232.953 87.3847C234.329 87.0988 235.61 86.5535 236.746 85.8077L238.386 87.1661L241.289 84.2624L239.932 82.622C240.678 81.4857 241.223 80.2062 241.508 78.8298L243.622 78.631V74.5253L241.508 74.3264C241.223 72.9496 240.678 71.6699 239.932 70.5338L241.289 68.8935L238.386 65.9902L236.746 67.3481C235.61 66.6023 234.329 66.057 232.953 65.7713L232.755 63.6572H228.649L228.45 65.7713C227.073 66.0565 225.794 66.6023 224.657 67.3481L223.017 65.9902L220.113 68.8935L221.471 70.5338C220.726 71.6699 220.18 72.9496 219.894 74.3264L217.781 74.5253Z" fill="#4870C0"/>
<path d="M214.312 96.0151C214.312 93.61 216.262 91.6601 218.667 91.6601C221.073 91.6601 223.023 93.61 223.023 96.0151C223.023 98.4207 221.073 100.371 218.667 100.371C216.262 100.371 214.312 98.4207 214.312 96.0151ZM220.432 104.484C221.511 104.26 222.513 103.832 223.404 103.248L224.689 104.312L226.964 102.037L225.9 100.752C226.485 99.8613 226.912 98.8583 227.136 97.7798L228.792 97.6238V94.4069L227.136 94.2508C226.912 93.1724 226.485 92.1698 225.9 91.2786L226.964 89.9936L224.689 87.7188L223.404 88.7822C222.513 88.1984 221.511 87.7706 220.432 87.5473L220.276 85.8906H217.059L216.903 87.5473C215.824 87.7706 214.822 88.1984 213.931 88.7822L212.646 87.7188L210.371 89.9936L211.435 91.2786C210.851 92.1698 210.423 93.1724 210.199 94.2508L208.543 94.4069V97.6238L210.199 97.7798C210.423 98.8583 210.851 99.8613 211.435 100.752L210.371 102.037L212.646 104.312L213.931 103.248C214.822 103.832 215.824 104.26 216.903 104.484L217.059 106.14H220.276L220.432 104.484Z" fill="#4870C0"/>
<path d="M205.623 80.9956C205.623 78.975 207.261 77.3376 209.282 77.3376C211.302 77.3376 212.94 78.975 212.94 80.9956C212.94 83.0158 211.302 84.6536 209.282 84.6536C207.261 84.6536 205.623 83.0158 205.623 80.9956ZM213.26 87.0703L214.339 87.964L216.25 86.0536L215.356 84.9738C215.847 84.2258 216.206 83.3831 216.394 82.4778L217.786 82.3467V79.6445L216.394 79.5133C216.206 78.6076 215.847 77.7653 215.356 77.0178L216.25 75.9375L214.339 74.0269L213.26 74.9202C212.512 74.4298 211.669 74.0709 210.764 73.8828L210.633 72.4912H207.931L207.799 73.8828C206.894 74.0703 206.051 74.4298 205.303 74.9202L204.224 74.0269L202.312 75.9375L203.206 77.0178C202.716 77.7653 202.356 78.6076 202.168 79.5133L200.777 79.6445V82.3467L202.168 82.4778C202.357 83.3831 202.716 84.2258 203.206 84.9738L202.312 86.0536L204.224 87.964L205.303 87.0703C206.051 87.5611 206.894 87.9207 207.799 88.108L207.931 89.4998H210.633L210.764 88.108C211.669 87.9207 212.512 87.5611 213.26 87.0703Z" fill="#4870C0"/>
<path d="M212.781 212.79H251.157V187.831H212.781V212.79Z" fill="#F8F8F9"/>
<path d="M214.176 211.543H249.744V192.511H214.176V211.543Z" fill="#E3E3E2"/>
<path d="M217.078 196.172H243.389V195.354H217.078V196.172Z" fill="#F8F8F9"/>
<path d="M217.078 198.682H229.702V197.863H217.078V198.682Z" fill="#F8F8F9"/>
<path d="M217.078 201.189H232.978V200.37H217.078V201.189Z" fill="#F8F8F9"/>
<path d="M217.078 203.695H222.682V202.877H217.078V203.695Z" fill="#F8F8F9"/>
<path d="M220.707 206.203H217.078V205.385H220.707V206.203Z" fill="#F8F8F9"/>
<path d="M54.7431 204.533L27.4362 204.658L27.3594 187.814L54.6664 187.69L54.7431 204.533Z" fill="#EEEEEE"/>
<path d="M37.8385 200.423C37.7215 200.423 37.6034 200.387 37.5019 200.313L32.5195 196.672C32.3731 196.566 32.2861 196.395 32.2852 196.214C32.2843 196.032 32.3695 195.861 32.5153 195.753L37.4646 192.068C37.718 191.88 38.0758 191.932 38.2642 192.185C38.4527 192.438 38.4002 192.796 38.147 192.984L33.8194 196.207L38.1761 199.39C38.4308 199.576 38.4869 199.933 38.3007 200.189C38.1888 200.342 38.0149 200.423 37.8385 200.423Z" fill="#FCFDFD"/>
<path d="M44.3008 200.393C44.1263 200.393 43.9536 200.314 43.8417 200.163C43.6535 199.909 43.7058 199.551 43.9587 199.363L48.2863 196.141L43.9296 192.958C43.6749 192.772 43.6192 192.415 43.8053 192.16C43.9913 191.905 44.3488 191.848 44.6038 192.035L49.5863 195.675C49.7329 195.782 49.8195 195.952 49.8208 196.134C49.8217 196.314 49.7359 196.486 49.5902 196.595L44.6415 200.28C44.5391 200.357 44.4195 200.393 44.3008 200.393Z" fill="#FCFDFD"/>
<path d="M39.7708 200.412C39.7084 200.412 39.6447 200.403 39.5822 200.381C39.2842 200.276 39.1272 199.95 39.2314 199.652L41.7984 192.315C41.9024 192.018 42.2283 191.859 42.5264 191.964C42.8244 192.068 42.9817 192.394 42.8771 192.692L40.3104 200.029C40.228 200.265 40.007 200.412 39.7708 200.412Z" fill="#FCFDFD"/>
<path d="M253.729 240.529C253.729 244.104 204.118 247 142.917 247C81.7173 247 32.1055 244.104 32.1055 240.529C32.1055 236.955 81.7173 234.058 142.917 234.058C204.118 234.058 253.729 236.955 253.729 240.529Z" fill="white"/>
<path d="M191.141 240.531H195.335L201.051 208.958H196.856L191.141 240.531Z" fill="#1D2A30"/>
<path d="M195.622 238.952L195.051 235.794L196.295 228.92H197.438L195.622 238.952Z" fill="#45555C"/>
<path d="M197.776 227.067H196.633L198.21 218.351H199.353L198.839 221.189L198.814 221.333L197.776 227.067Z" fill="#45555C"/>
<path d="M199.694 216.496H198.551L199.643 210.464H200.786L199.694 216.496Z" fill="#45555C"/>
<path d="M191.712 240.53H191.141L191.426 238.952L191.712 240.53ZM195.05 235.794L193.805 228.92H196.294L195.05 235.794ZM196.63 227.066H194.245H193.577L195.155 218.35H198.207L196.63 227.066ZM198.543 216.496H196.11H195.491L196.583 210.464H199.635L198.543 216.496Z" fill="#6A797F"/>
<path d="M179.314 218.35H196.112C196.625 218.35 197.039 217.935 197.039 217.424C197.039 216.911 196.625 216.496 196.112 216.496H179.314C178.802 216.496 178.387 216.911 178.387 217.424C178.387 217.935 178.802 218.35 179.314 218.35Z" fill="#1D2A30"/>
<path d="M177.447 228.92H194.245C194.757 228.92 195.172 228.506 195.172 227.994C195.172 227.481 194.757 227.066 194.245 227.066H177.447C176.935 227.066 176.52 227.481 176.52 227.994C176.52 228.506 176.935 228.92 177.447 228.92Z" fill="#1D2A30"/>
<path d="M173.996 240.531H178.191L183.906 208.958H179.711L173.996 240.531Z" fill="#1D2A30"/>
<path d="M178.194 240.53H177.051L182.493 210.464H183.636L182.545 216.496L182.209 218.35L181.695 221.189L181.669 221.332L180.631 227.066L180.295 228.92L178.194 240.53Z" fill="#45555C"/>
<path d="M177.048 240.53H173.996L179.439 210.464H182.49L177.048 240.53Z" fill="#6A797F"/>
<path d="M213.055 240.531H208.86L203.145 208.958H207.339L213.055 240.531Z" fill="#1D2A30"/>
<path d="M213.058 240.53H211.915L206.473 210.464H207.615L213.058 240.53Z" fill="#758288"/>
<path d="M211.912 240.53H208.86L206.758 228.92H207.544C208.056 228.92 208.471 228.506 208.471 227.993C208.471 227.481 208.056 227.066 207.544 227.066H206.423L204.845 218.35H205.678C206.19 218.35 206.605 217.936 206.605 217.423C206.605 216.911 206.19 216.496 205.678 216.496H204.509L203.418 210.464H206.47L211.912 240.53Z" fill="#929C9E"/>
<path d="M205.679 218.35H188.881C188.368 218.35 187.953 217.935 187.953 217.424C187.953 216.911 188.368 216.496 188.881 216.496H205.679C206.191 216.496 206.606 216.911 206.606 217.424C206.606 217.935 206.191 218.35 205.679 218.35Z" fill="#1D2A30"/>
<path d="M207.546 228.92H190.747C190.235 228.92 189.82 228.506 189.82 227.994C189.82 227.481 190.235 227.066 190.747 227.066H207.546C208.058 227.066 208.473 227.481 208.473 227.994C208.473 228.506 208.058 228.92 207.546 228.92Z" fill="#1D2A30"/>
<path d="M205.678 218.35H191.894L191.559 216.496H205.678C206.19 216.496 206.605 216.911 206.605 217.424C206.605 217.935 206.19 218.35 205.678 218.35Z" fill="#45555C"/>
<path d="M207.544 228.92H193.808L193.473 227.066H207.544C208.056 227.066 208.471 227.481 208.471 227.994C208.471 228.506 208.056 228.92 207.544 228.92Z" fill="#45555C"/>
<path d="M195.906 240.531H191.711L185.996 208.958H190.191L195.906 240.531Z" fill="#1D2A30"/>
<path d="M195.91 240.53H194.767L189.324 210.464H190.17H190.467L195.91 240.53Z" fill="#758288"/>
<path d="M194.764 240.53H191.712L186.27 210.464H189.321L194.764 240.53Z" fill="#929C9E"/>
<path d="M208.978 210.464H178.632C178.257 210.464 177.953 210.16 177.953 209.786V208.13C177.953 207.755 178.257 207.452 178.632 207.452H208.978C209.353 207.452 209.657 207.755 209.657 208.13V209.786C209.657 210.16 209.353 210.464 208.978 210.464Z" fill="#1D2A30"/>
<path d="M190.168 210.464H178.632C178.257 210.464 177.953 210.16 177.953 209.786V208.13C177.953 207.755 178.257 207.452 178.632 207.452H190.168C190.543 207.452 190.847 207.755 190.847 208.13V209.786C190.847 210.16 190.543 210.464 190.168 210.464Z" fill="#45555C"/>
<path d="M72.7344 240.12H111.111V215.159H72.7344V240.12Z" fill="#4870C0"/>
<path d="M111.111 240.12H72.7344V215.159H111.111V221.189V221.332V228.454V228.597V240.12Z" fill="#B4CAEC"/>
<path d="M109.709 238.871H74.1406V219.839H109.709V238.871Z" fill="#4870C0"/>
<path d="M103.346 223.502H77.0352V222.683H103.346V223.502Z" fill="white"/>
<path d="M89.6591 226.01H77.0352V225.191H89.6591V226.01Z" fill="white"/>
<path d="M92.9347 228.516H77.0352V227.697H92.9347V228.516Z" fill="white"/>
<path d="M82.6388 231.023H77.0352V230.204H82.6388V231.023Z" fill="white"/>
<path d="M80.6645 233.533H77.0352V232.714H80.6645V233.533Z" fill="white"/>
<path d="M158.536 240.529H127.293L132.584 198.997H153.245L158.536 240.529Z" fill="#4870C0"/>
<path d="M127.293 240.531H158.533V240.529H127.293V240.531Z" fill="#FDFEFE"/>
<path d="M158.533 240.53H127.293L127.299 240.48H158.527L158.533 240.53ZM158.135 237.41H127.69L130.912 212.117L131.966 203.848L130.912 212.117L155.708 218.352L153.86 203.848L155.708 218.352L158.135 237.41Z" fill="#B4CAEC"/>
<path d="M155.706 218.351L130.91 212.116L131.963 203.847H153.858L155.706 218.351Z" fill="#A0B5E3"/>
<path d="M216.57 96.5879H69.2695C67.188 96.5879 65.5 98.2755 65.5 100.357V200.077C65.5 202.159 67.188 203.846 69.2695 203.846H72.3917H213.448H216.57C218.651 203.846 220.339 202.159 220.339 200.077V100.357C220.339 98.2755 218.651 96.5879 216.57 96.5879Z" fill="#4870C0"/>
<path d="M216.57 203.846H69.2695C67.188 203.846 65.5 202.159 65.5 200.077V125.374L65.7152 125.771L66.3569 126.95L67.1096 126.689C67.981 128.988 69.0539 131.606 70.1765 133.844V180.532L70.4602 179.472V196.438H72.4281H90.1567H107.914H115.932H132.563H136.799H139.668H215.381V136.508C215.733 136.551 216.102 136.572 216.484 136.572C217.674 136.572 218.991 136.374 220.339 136.058V195.355V196.173V197.862V198.681V200.077C220.339 200.175 220.335 200.273 220.328 200.37C220.306 200.653 220.253 200.926 220.173 201.188C219.97 201.846 219.592 202.427 219.094 202.877C218.678 203.251 218.179 203.535 217.628 203.695C217.292 203.794 216.937 203.846 216.57 203.846ZM215.953 125.115L215.381 124.336V114.704V100.371V100.279H70.4602H70.1765V109.077C70.1559 109.05 69.855 108.664 69.2785 108.09C69.2695 108.081 69.2596 108.071 69.2506 108.062C68.5168 107.334 67.3479 106.315 65.7649 105.363C65.6779 105.311 65.5892 105.259 65.5 105.207V103.283C65.8733 103.231 66.242 103.142 66.6008 103.018C67.9553 102.548 69.1615 101.566 69.8867 100.183C69.9844 100.002 70.0706 99.8117 70.1508 99.6158C70.468 98.8117 70.7303 97.7495 70.9039 96.5879H72.3917H213.448H216.57C218.651 96.5879 220.339 98.2755 220.339 100.357V122.54C218.944 123.321 217.472 124.18 215.953 125.115Z" fill="#C7D9F2"/>
<path d="M70.457 196.438H142.917H215.378V100.279H70.457V196.438Z" fill="#4870C0"/>
<path d="M169.153 237.409H116.679C116.351 237.409 116.086 237.675 116.086 238.002V239.887C116.086 240.214 116.351 240.48 116.679 240.48H169.153C169.481 240.48 169.746 240.214 169.746 239.887V238.002C169.746 237.675 169.481 237.409 169.153 237.409Z" fill="#4870C0"/>
<path d="M169.153 240.48H116.679C116.351 240.48 116.086 240.214 116.086 239.887V238.002C116.086 237.675 116.351 237.409 116.679 237.409H169.153C169.481 237.409 169.746 237.675 169.746 238.002V239.887C169.746 240.214 169.481 240.48 169.153 240.48Z" fill="#C7D9F2"/>
<path d="M215.376 114.703H208.317L207.591 113.713C207.591 113.713 207.45 113.757 207.225 113.883L206.395 112.652C206.395 112.652 205.997 110.984 205.499 110.604C205.002 110.223 200.044 108.12 199.427 108.12C199.426 108.12 199.424 108.12 199.423 108.12C198.826 108.13 198.826 111.995 199.423 112.652C199.925 113.205 202.221 114.287 203.429 114.703H161.538L163.851 106.061H164.466V105.489H164.004L165.374 100.37H215.376V114.703ZM195.162 111.932L196.739 110.356L197.742 111.36H197.743L198.646 110.456L197.643 109.452L199.218 107.876L194.264 106.023V104.584H191.881V104.869V105.489H191.644V106.061H191.881V106.967H192.787V107.204H193.358V107.109L195.162 111.932ZM185.604 105.489V106.061H188.624V105.489H185.604ZM179.565 105.489V106.061H182.584V105.489H179.565ZM173.525 105.489V106.061H176.545V105.489H173.525ZM167.485 105.489V106.061H170.505V105.489H167.485ZM158.669 114.703H137.803L138.593 111.751V112.382H139.164V109.793H139.117L139.874 106.967H140.071V106.23L140.116 106.061H140.308V105.489H140.268L141.639 100.37H162.505L158.669 114.703ZM155.406 105.489V106.061H158.426V105.489H155.406ZM149.367 105.489V106.061H152.387V105.489H149.367ZM143.327 105.489V106.061H146.347V105.489H143.327ZM129.784 114.703H112.027L115.863 100.37H133.62L129.784 114.703ZM94.2937 114.703H87.7891L89.7218 107.482C90.3082 107.288 90.7317 106.736 90.7317 106.085V105.813C90.7317 105.468 90.6125 105.15 90.4128 104.899L91.6245 100.37H98.1283L94.2937 114.703Z" fill="#395EB4"/>
<path d="M132.559 196.438H115.929L121.365 176.126H128.891V148.007L132.559 134.3V185.79H122.599C122.001 185.79 121.517 186.275 121.517 186.873V190.416C121.517 191.013 122.001 191.498 122.599 191.498H132.559V196.438ZM107.911 196.438H90.1531L95.5896 176.126H113.347L107.911 196.438ZM72.4245 196.438H70.457V179.472L80.2815 142.763V167.077L72.4245 196.438ZM126.357 127.517H108.599L111.983 114.873H129.74L126.357 127.517ZM90.8664 127.517H86.3468C86.9859 126.615 87.3669 126.045 87.3669 126.045C87.3669 126.045 89.2538 126.026 91.2864 125.947L90.8664 127.517ZM85.9473 121.59L87.745 114.873H94.2501L93.1823 118.863C92.0867 119.121 87.7861 120.728 85.9473 121.59Z" fill="#8DAEE0"/>
<path d="M192.788 135.681V136.824H191.645V137.395H193.359V135.681H192.788Z" fill="white"/>
<path d="M188.625 136.822H185.605V137.394H188.625V136.822ZM182.585 136.822H179.565V137.394H182.585V136.822ZM176.546 136.822H173.526V137.394H176.546V136.822ZM170.506 136.822H167.486V137.394H170.506V136.822ZM164.467 136.822H161.447V137.394H164.467V136.822ZM158.427 136.822H155.407V137.394H158.427V136.822ZM152.387 136.822H149.368V137.394H152.387V136.822ZM146.347 136.822H143.328V137.394H146.347V136.822Z" fill="white"/>
<path d="M140.308 136.824H139.166V135.681H138.595L138.594 137.395H140.308V136.824Z" fill="white"/>
<path d="M139.166 133.091V130.503H138.594V133.091H139.166ZM139.166 127.915V125.326H138.594V127.915H139.166ZM139.166 122.737V120.148H138.594V122.737H139.166ZM139.166 117.56V114.972H138.594V117.56H139.166ZM139.166 112.383V109.794H138.594V112.383H139.166Z" fill="white"/>
<path d="M139.166 107.205V106.062H140.309V105.49H138.594V107.205H139.166Z" fill="white"/>
<path d="M143.328 106.062H146.348V105.49H143.328V106.062ZM149.368 106.062H152.387V105.49H149.368V106.062ZM155.407 106.062H158.427V105.49H155.407V106.062ZM161.447 106.062H164.467V105.49H161.447V106.062ZM167.486 106.062H170.506V105.49H167.486V106.062ZM173.525 106.062H176.546V105.49H173.525V106.062ZM179.565 106.062H182.585V105.49H179.565V106.062ZM185.605 106.062H188.625V105.49H185.605V106.062Z" fill="white"/>
<path d="M191.645 106.062H192.788V107.205H193.359V105.49H191.645V106.062Z" fill="white"/>
<path d="M192.789 112.383H193.36V109.794H192.789V112.383ZM192.789 117.56H193.36V114.972H192.789V117.56ZM192.789 122.737H193.36V120.148H192.789V122.737ZM192.789 127.915H193.36V125.325H192.789V127.915ZM192.789 133.091H193.36V130.503H192.789V133.091Z" fill="white"/>
<path d="M192.168 106.681H193.979V104.869H192.168V106.681Z" fill="#4870C0"/>
<path d="M192.165 104.87H191.879V106.968H194.262V104.585H191.879V104.87H192.165V105.156H193.691V106.396H192.451V104.87H192.165V105.156V104.87Z" fill="white"/>
<path d="M192.168 138.015H193.979V136.203H192.168V138.015Z" fill="#4870C0"/>
<path d="M192.165 138.015V138.3H194.262V135.917H191.879V138.3H192.165V138.015H192.451V136.489H193.691V137.729H192.165V138.015H192.451H192.165Z" fill="white"/>
<path d="M137.973 106.681H139.785V104.869H137.973V106.681Z" fill="#4870C0"/>
<path d="M137.973 106.682V106.968H140.071V104.585H137.688V106.968H137.973V106.682H138.259V105.156H139.499V106.396H137.973V106.682H138.259H137.973Z" fill="white"/>
<path d="M137.973 138.015H139.785V136.203H137.973V138.015Z" fill="#4870C0"/>
<path d="M137.973 138.015V138.3H140.071V135.917H137.688V138.3H137.973V138.015H138.259V136.489H139.499V137.729H137.973V138.015H138.259H137.973Z" fill="white"/>
<path d="M165.07 106.681H166.883V104.869H165.07V106.681Z" fill="#4870C0"/>
<path d="M165.075 106.682V106.968H167.173V104.585H164.789V106.968H165.075V106.682H165.36V105.156H166.601V106.396H165.075V106.682H165.36H165.075Z" fill="white"/>
<path d="M165.07 138.015H166.883V136.203H165.07V138.015Z" fill="#4870C0"/>
<path d="M165.075 138.015V138.3H167.173V135.917H164.789V138.3H165.075V138.015H165.36V136.489H166.601V137.729H165.075V138.015H165.36H165.075Z" fill="white"/>
<path d="M192.168 122.349H193.979V120.537H192.168V122.349Z" fill="#4870C0"/>
<path d="M192.165 122.347V122.633H194.262V120.25H191.879V122.633H192.165V122.347H192.451V120.821H193.691V122.062H192.165V122.347H192.451H192.165Z" fill="white"/>
<path d="M137.973 122.349H139.785V120.537H137.973V122.349Z" fill="#4870C0"/>
<path d="M137.973 122.347V122.633H140.071V120.25H137.688V122.633H137.973V122.347H138.259V120.821H139.499V122.062H137.973V122.347H138.259H137.973Z" fill="white"/>
<path d="M188.151 122.007H174.891C174.293 122.007 173.809 121.523 173.809 120.925V117.383C173.809 116.785 174.293 116.3 174.891 116.3H188.151C188.748 116.3 189.233 116.785 189.233 117.383V120.925C189.233 121.523 188.748 122.007 188.151 122.007Z" fill="#C7D9F2"/>
<path d="M165.288 122.007H159.582L161.109 116.3H165.288C165.886 116.3 166.37 116.785 166.37 117.383V120.925C166.37 121.523 165.886 122.007 165.288 122.007ZM156.713 122.007H152.028C151.43 122.007 150.945 121.523 150.945 120.925V117.383C150.945 116.785 151.43 116.3 152.028 116.3H158.24L156.713 122.007Z" fill="#C7D9F2"/>
<path d="M135.862 191.498H132.562V185.791H135.862C136.46 185.791 136.944 186.276 136.944 186.874V190.416C136.944 191.014 136.46 191.498 135.862 191.498Z" fill="#C7D9F2"/>
<path d="M132.559 191.498H122.598C122 191.498 121.516 191.014 121.516 190.416V186.874C121.516 186.276 122 185.791 122.598 185.791H132.559V191.498Z" fill="#DEEAF8"/>
<path d="M205.815 105.896H210.639C210.876 105.896 211.068 105.704 211.068 105.468C211.068 105.231 210.876 105.039 210.639 105.039H205.815C205.579 105.039 205.387 105.231 205.387 105.468C205.387 105.704 205.579 105.896 205.815 105.896Z" fill="white"/>
<path d="M205.815 108.183H210.639C210.876 108.183 211.068 107.991 211.068 107.755C211.068 107.518 210.876 107.326 210.639 107.326H205.815C205.579 107.326 205.387 107.518 205.387 107.755C205.387 107.991 205.579 108.183 205.815 108.183Z" fill="white"/>
<path d="M205.815 110.47H210.639C210.876 110.47 211.068 110.278 211.068 110.041C211.068 109.804 210.876 109.612 210.639 109.612H205.815C205.579 109.612 205.387 109.804 205.387 110.041C205.387 110.278 205.579 110.47 205.815 110.47Z" fill="white"/>
<path d="M128.891 176.125H121.365L121.771 174.611H122.785V172.227H122.409L128.891 148.006V176.125ZM113.347 176.125H95.5897L100.344 158.361V173.419H100.916V157.371C102.571 164.36 107.677 170.013 114.335 172.433L113.347 176.125ZM114.483 171.879C111.633 170.835 109.077 169.182 106.972 167.077C103.892 163.996 101.779 159.951 101.128 155.431L101.606 153.647H101.821V152.841L105.349 139.659C105.854 139.019 106.396 138.41 106.972 137.834C110.715 134.092 115.882 131.778 121.593 131.778V131.206C115.27 131.206 109.592 133.968 105.699 138.351L108.599 127.516H126.357L114.483 171.879ZM80.2812 167.076V142.762L83.2569 131.644C84.5072 130.068 85.6024 128.567 86.347 127.516H90.8666L80.2812 167.076Z" fill="#C8DAF2"/>
<path d="M100.34 173.42H100.911V131.493H100.34V173.42Z" fill="#4870C0"/>
<path d="M121.589 173.135C115.878 173.135 110.71 170.82 106.967 167.078C103.225 163.335 100.912 158.167 100.911 152.456C100.912 146.746 103.225 141.578 106.967 137.835C110.71 134.093 115.878 131.778 121.589 131.778V131.207C109.853 131.207 100.34 140.721 100.34 152.456C100.34 164.192 109.853 173.706 121.589 173.706V173.135Z" fill="#4870C0"/>
<path d="M120.688 132.398H122.499V130.586H120.688V132.398Z" fill="white"/>
<path d="M120.688 132.399V132.685H122.786V130.302H120.402V132.685H120.688V132.399H120.974V130.873H122.214V132.113H120.688V132.399H120.974H120.688Z" fill="#4870C0"/>
<path d="M120.688 174.326H122.499V172.514H120.688V174.326Z" fill="white"/>
<path d="M120.688 174.325V174.611H122.786V172.228H120.402V174.611H120.688V174.325H120.974V172.799H122.214V174.04H120.688V174.325H120.974H120.688Z" fill="#4870C0"/>
<path d="M99.7188 153.36H101.53V151.549H99.7188V153.36Z" fill="white"/>
<path d="M99.7234 153.361V153.647H101.821V151.264H99.4375V153.647H99.7234V153.361H100.009V151.835H101.249V153.076H99.7234V153.361H100.009H99.7234Z" fill="#4870C0"/>
<path d="M101.099 131.493C101.099 131.752 100.89 131.963 100.63 131.963C100.371 131.963 100.16 131.752 100.16 131.493C100.16 131.233 100.371 131.023 100.63 131.023C100.89 131.023 101.099 131.233 101.099 131.493Z" fill="white"/>
<path d="M101.1 131.493H100.815C100.814 131.594 100.732 131.677 100.631 131.677C100.53 131.677 100.447 131.594 100.447 131.493C100.447 131.392 100.529 131.31 100.631 131.31C100.732 131.31 100.814 131.392 100.815 131.493H101.1H101.386C101.386 131.076 101.048 130.738 100.631 130.738C100.214 130.738 99.8759 131.076 99.875 131.493C99.8759 131.911 100.214 132.248 100.631 132.249C101.049 132.248 101.386 131.911 101.386 131.493H101.1Z" fill="#4870C0"/>
<path d="M101.1 173.42C101.1 173.679 100.89 173.889 100.63 173.889C100.371 173.889 100.16 173.679 100.16 173.42C100.16 173.161 100.371 172.95 100.63 172.95C100.89 172.95 101.1 173.161 101.1 173.42Z" fill="white"/>
<path d="M101.1 173.42H100.815C100.814 173.521 100.732 173.604 100.631 173.604C100.53 173.604 100.447 173.521 100.447 173.42C100.447 173.319 100.53 173.236 100.631 173.236C100.732 173.236 100.814 173.319 100.815 173.42H101.1H101.386C101.386 173.003 101.049 172.665 100.631 172.665C100.214 172.665 99.8759 173.003 99.875 173.42C99.8759 173.837 100.214 174.176 100.631 174.176C101.049 174.176 101.386 173.837 101.386 173.42H101.1Z" fill="#4870C0"/>
<path d="M181.166 186.481H166.451C164.103 186.481 162.199 184.578 162.199 182.229C162.199 179.881 164.103 177.977 166.451 177.977H181.166C183.514 177.977 185.418 179.881 185.418 182.229C185.418 184.578 183.514 186.481 181.166 186.481Z" fill="#C7D9F2"/>
<path d="M194.099 150.218H152.038L152.535 148.359H194.099C194.612 148.359 195.028 148.776 195.028 149.289C195.028 149.803 194.612 150.218 194.099 150.218ZM149.168 150.218H148.64C148.127 150.218 147.711 149.803 147.711 149.289C147.711 148.776 148.127 148.359 148.64 148.359H149.666L149.168 150.218Z" fill="#C7D9F2"/>
<path d="M194.097 157.005H150.219L150.716 155.146H194.097C194.611 155.146 195.027 155.563 195.027 156.076C195.027 156.589 194.611 157.005 194.097 157.005Z" fill="#C7D9F2"/>
<path d="M194.094 163.794H165.781C165.268 163.794 164.852 163.378 164.852 162.864C164.852 162.351 165.268 161.935 165.781 161.935H194.094C194.607 161.935 195.024 162.351 195.024 162.864C195.024 163.378 194.607 163.794 194.094 163.794Z" fill="#C7D9F2"/>
<path d="M89.7188 107.482L90.4097 104.899C90.6095 105.151 90.7286 105.468 90.7286 105.813V106.085C90.7286 106.737 90.3051 107.289 89.7188 107.482Z" fill="#263C7A"/>
<path d="M192.738 105.453L195.163 111.934L199.218 107.878L192.738 105.453Z" fill="#4870C0"/>
<path d="M198.646 110.458L197.742 111.362L195.734 109.354L196.638 108.45L198.646 110.458Z" fill="#4870C0"/>
<path d="M198.644 110.456L197.64 109.452V109.452L198.644 110.456ZM199.216 107.876L194.262 106.023V106.022L199.216 107.876Z" fill="#809FD9"/>
<path d="M193.693 105.811L192.738 105.453L193.693 105.81V105.811Z" fill="#8DAEE0"/>
<path d="M194.267 106.023L193.695 105.809V105.809L194.267 106.022V106.023Z" fill="white"/>
<path d="M195.163 111.933L192.738 105.453L193.693 105.811L194.264 106.024L199.218 107.878L197.643 109.453V109.454L196.638 108.45L195.735 109.353L196.739 110.357L195.163 111.933Z" fill="#8DAEE0"/>
<path d="M197.743 111.361H197.742L198.646 110.457L197.743 111.361Z" fill="#809FD9"/>
<path d="M197.742 111.362L196.739 110.357L195.734 109.354L196.638 108.45L197.642 109.454L198.646 110.458L197.742 111.362Z" fill="#8DAEE0"/>
<path d="M93.4569 128.613L99.5535 130.895L96.3576 127.698C96.1171 127.832 95.8127 127.807 95.6087 127.603C95.3618 127.356 95.3618 126.956 95.6087 126.71C95.8552 126.464 96.2547 126.464 96.5016 126.71C96.7056 126.914 96.73 127.218 96.5972 127.458L99.7935 130.655L97.5119 124.558L95.493 125.006L95.4141 124.276L95.0318 123.895L92.793 126.133L93.1753 126.515L93.9044 126.594L93.4569 128.613Z" fill="#1D2A30"/>
<path d="M70.1719 180.533V133.845C70.2662 134.033 70.3605 134.218 70.4561 134.4V179.473L70.1719 180.533Z" fill="#CDDEF3"/>
<path d="M70.457 179.472V134.399C71.7258 136.836 73.043 138.721 74.1948 139.068C74.3362 139.111 74.4863 139.132 74.644 139.132C76.1022 139.132 78.2043 137.369 80.2815 135.136V142.763L70.457 179.472Z" fill="#99B6E4"/>
<path d="M80.2812 142.763V135.137C81.3061 134.036 82.3246 132.82 83.2569 131.646L80.2812 142.763Z" fill="#CEDFF4"/>
<path d="M70.4561 109.513C70.3519 109.318 70.2572 109.171 70.1732 109.078C70.1732 109.078 70.1732 109.078 70.1719 109.077V100.279H70.4561V109.513Z" fill="#CDDEF3"/>
<path d="M87.745 114.873H72.4168C72.3988 114.816 72.3812 114.76 72.3636 114.704H87.7904L87.745 114.873ZM70.457 109.513V100.279H91.6508L91.6259 100.371H70.457V109.513Z" fill="#537BC6"/>
<path d="M87.7904 114.703H72.3636C71.6577 112.464 70.9551 110.446 70.457 109.512V100.37H91.6259L90.4146 104.899C90.1454 104.561 89.7296 104.344 89.2632 104.344H88.9915C88.1805 104.344 87.5221 105.001 87.5221 105.813V106.085C87.5221 106.897 88.1805 107.555 88.9915 107.555H89.2632C89.424 107.555 89.5787 107.529 89.7236 107.482L87.7904 114.703ZM82.1006 104.344C81.6463 104.344 81.2781 104.712 81.2781 105.167V106.732C81.2781 107.186 81.6463 107.555 82.1006 107.555H83.6665C84.1208 107.555 84.4895 107.186 84.4895 106.732V105.167C84.4895 104.712 84.1208 104.344 83.6665 104.344H82.1006ZM75.0336 104.344V107.555H78.245V104.344H75.0336Z" fill="#456BBD"/>
<path d="M75.9731 130.408C75.9645 130.408 75.9568 130.406 75.9513 130.403C75.7254 130.279 74.6658 127.171 73.7515 124.38L75.0353 123.934C75.0353 123.934 73.7305 119.06 72.418 114.874H87.7462L85.9489 121.59C85.4804 121.81 85.1709 121.982 85.1169 122.07C84.8344 122.528 76.5981 130.408 75.9731 130.408Z" fill="#99B6E4"/>
<path d="M75.0352 107.555H78.2465V104.343H75.0352V107.555Z" fill="#2B4A90"/>
<path d="M83.6696 107.555H82.1034C81.649 107.555 81.2812 107.187 81.2812 106.732V105.167C81.2812 104.712 81.649 104.344 82.1034 104.344H83.6696C84.124 104.344 84.4926 104.712 84.4926 105.167V106.732C84.4926 107.187 84.124 107.555 83.6696 107.555Z" fill="#2B4A90"/>
<path d="M89.2607 107.555H88.9889C88.1779 107.555 87.5195 106.897 87.5195 106.085V105.813C87.5195 105.001 88.1779 104.344 88.9889 104.344H89.2607C89.727 104.344 90.1428 104.561 90.412 104.899L89.721 107.482C89.5762 107.529 89.4214 107.555 89.2607 107.555Z" fill="#2B4A90"/>
<path d="M111.983 114.873H94.25L94.2954 114.704H112.029L111.983 114.873ZM115.865 100.371H98.1301L98.1549 100.279H115.889L115.865 100.371Z" fill="#537BC6"/>
<path d="M112.027 114.703H94.293L98.1276 100.37H115.863L112.027 114.703Z" fill="#456BBD"/>
<path d="M90.1505 196.438H72.4219L80.2784 167.077V176.126H95.5869L90.1505 196.438ZM81.0731 191.285C81.3012 191.434 81.5575 191.544 81.8344 191.601L81.8743 192.025H82.6977L82.738 191.601C83.014 191.543 83.2704 191.434 83.4984 191.285L83.8276 191.557L84.4101 190.975L84.1375 190.646C84.2871 190.418 84.3964 190.161 84.4543 189.884L84.8782 189.845V189.022L84.4534 188.981C84.3964 188.705 84.2871 188.448 84.1375 188.22L84.4101 187.891L83.8276 187.309L83.4984 187.581C83.2704 187.431 83.014 187.322 82.738 187.265L82.6977 186.841H81.8743L81.8344 187.265C81.5575 187.322 81.3012 187.431 81.0731 187.581L80.7444 187.309L80.1618 187.891L80.434 188.22C80.2844 188.448 80.1751 188.705 80.1181 188.981L79.6933 189.022L79.6938 189.845L80.1173 189.884C80.1751 190.161 80.2844 190.418 80.434 190.646L80.1618 190.975L80.7444 191.557L81.0731 191.285ZM85.4204 188.775C85.6922 188.953 85.9978 189.083 86.3266 189.151L86.3737 189.656H87.3544L87.402 189.151C87.7308 189.083 88.0364 188.953 88.3077 188.775L88.7 189.099L89.3931 188.406L89.069 188.014C89.2469 187.742 89.3772 187.436 89.4454 187.108L89.9503 187.061V186.08L89.4454 186.032C89.3772 185.704 89.2469 185.398 89.069 185.127L89.3931 184.735L88.7 184.041L88.3077 184.365C88.0364 184.187 87.7308 184.057 87.402 183.989L87.3544 183.484H86.3737L86.3266 183.989C85.9978 184.057 85.6922 184.187 85.4204 184.365L85.0286 184.041L84.3351 184.735L84.66 185.127C84.4817 185.398 84.3514 185.704 84.2832 186.032L83.7779 186.08V187.061L84.2832 187.108C84.3514 187.436 84.4817 187.742 84.66 188.014L84.3351 188.406L85.0286 189.099L85.4204 188.775ZM79.0971 185.715C79.4434 185.943 79.8335 186.109 80.2536 186.196L80.314 186.841H81.5657L81.6261 186.196C82.0457 186.109 82.4354 185.943 82.7826 185.715L83.2819 186.13L84.1666 185.245L83.753 184.745C83.9802 184.398 84.1465 184.008 84.2335 183.589L84.8782 183.528V182.276L84.2335 182.216C84.1465 181.796 83.9802 181.406 83.753 181.06L84.1666 180.56L83.2819 179.675L82.7817 180.089C82.4354 179.861 82.0457 179.695 81.6261 179.609L81.5657 178.964H80.314L80.2536 179.609C79.8335 179.695 79.4434 179.861 79.0971 180.089L78.5973 179.675L77.7117 180.56L78.1262 181.06C77.8986 181.406 77.7323 181.796 77.6457 182.216L77.001 182.276V183.528L77.6457 183.589C77.7323 184.008 77.8986 184.398 78.1262 184.745L77.7117 185.245L78.5973 186.13L79.0971 185.715ZM82.2858 190.548C81.6702 190.548 81.1709 190.048 81.1709 189.432C81.1709 188.817 81.6702 188.318 82.2858 188.318C82.9017 188.318 83.4007 188.817 83.4007 189.432C83.4007 190.048 82.9017 190.548 82.2858 190.548ZM86.8641 187.898C86.1311 187.898 85.5366 187.304 85.5366 186.57C85.5366 185.837 86.1311 185.243 86.8641 185.243C87.5975 185.243 88.192 185.837 88.192 186.57C88.192 187.304 87.5975 187.898 86.8641 187.898ZM80.9398 184.597C80.0041 184.597 79.2454 183.838 79.2454 182.903C79.2454 181.967 80.0041 181.208 80.9398 181.208C81.8756 181.208 82.6338 181.967 82.6338 182.903C82.6338 183.838 81.8756 184.597 80.9398 184.597ZM108.596 127.517H98.617L97.5098 124.558L96.2136 124.846C95.9041 123.233 93.9272 118.838 93.3957 118.828C93.3944 118.828 93.3931 118.828 93.3923 118.828C93.3494 118.828 93.2774 118.84 93.1797 118.863L94.247 114.873H111.98L108.596 127.517ZM96.6534 127.517H95.5346C95.4592 127.409 95.4215 127.283 95.4215 127.157C95.4215 126.995 95.4832 126.833 95.6066 126.71C95.7297 126.587 95.8913 126.525 96.0524 126.525C96.2145 126.525 96.3761 126.587 96.4995 126.71C96.6208 126.831 96.6783 126.988 96.6778 127.145C96.6774 127.253 96.6491 127.361 96.5951 127.458L96.6534 127.517ZM93.6979 127.517H90.8637L91.2838 125.947C91.8792 125.923 92.4879 125.894 93.0648 125.859L92.7909 126.133L93.1733 126.515L93.9024 126.594L93.6979 127.517Z" fill="#99B6E4"/>
<path d="M95.5897 176.125H80.2812V167.076L90.8665 127.516H93.7007L93.4577 128.613L99.5542 130.894L96.3583 127.697C96.2593 127.752 96.1504 127.781 96.0415 127.781C95.8851 127.781 95.7295 127.722 95.6095 127.602C95.582 127.575 95.558 127.546 95.5374 127.516H96.6562L99.7943 130.655L98.6198 127.516H108.599L105.699 138.351C103.409 140.93 101.737 144.07 100.916 147.539V132.191C101.191 132.078 101.385 131.808 101.385 131.492C101.385 131.075 101.047 130.737 100.63 130.737C100.213 130.737 99.8749 131.075 99.8744 131.492C99.8749 131.808 100.069 132.079 100.344 132.191V151.264H99.4381V153.647H99.724H100.344V158.361L95.5897 176.125ZM101.128 155.431C101.044 154.844 100.984 154.249 100.949 153.647H101.606L101.128 155.431ZM101.821 152.841V151.264H100.949C101.198 146.894 102.802 142.888 105.349 139.659L101.821 152.841Z" fill="#CEDFF4"/>
<path d="M100.34 158.362V153.648H100.373C100.431 154.703 100.566 155.736 100.773 156.745L100.34 158.362ZM100.373 151.265H100.34V132.192C100.428 132.228 100.524 132.249 100.625 132.249C100.726 132.249 100.823 132.228 100.911 132.192V147.54C100.626 148.746 100.443 149.99 100.373 151.265Z" fill="#537BC6"/>
<path d="M100.779 156.743C100.572 155.735 100.437 154.701 100.379 153.646H100.951C100.985 154.248 101.045 154.843 101.13 155.431L100.779 156.743ZM100.951 151.263H100.379C100.449 149.989 100.632 148.744 100.917 147.539C101.739 144.069 103.411 140.93 105.701 138.351L105.351 139.659C102.804 142.888 101.199 146.893 100.951 151.263Z" fill="#537BC6"/>
<path d="M100.008 153.076H101.248V151.836H100.008V153.076Z" fill="white"/>
<path d="M101.606 153.647H99.4375V151.264H101.821V152.841L101.606 153.647ZM100.009 153.076H101.249V151.835H100.009V153.076Z" fill="#537BC6"/>
<path d="M100.629 131.676C100.528 131.676 100.446 131.593 100.445 131.492C100.446 131.391 100.528 131.309 100.629 131.309C100.731 131.309 100.813 131.391 100.814 131.492C100.813 131.593 100.73 131.676 100.629 131.676Z" fill="white"/>
<path d="M100.631 132.249C100.53 132.249 100.433 132.229 100.345 132.193C100.07 132.08 99.8759 131.809 99.875 131.493C99.8759 131.076 100.214 130.738 100.631 130.738C101.048 130.738 101.386 131.076 101.386 131.493C101.386 131.809 101.192 132.079 100.917 132.193C100.828 132.229 100.732 132.249 100.631 132.249ZM100.631 131.31C100.529 131.31 100.447 131.392 100.447 131.493C100.447 131.594 100.53 131.677 100.631 131.677C100.732 131.677 100.814 131.594 100.815 131.493C100.814 131.392 100.732 131.31 100.631 131.31Z" fill="#537BC6"/>
<path d="M81.5689 186.84H80.3173L80.2569 186.195C79.8368 186.109 79.4467 185.942 79.1004 185.714L78.6006 186.129L77.715 185.244L78.1295 184.744C77.9019 184.398 77.7356 184.007 77.649 183.588L77.0039 183.527V182.275L77.649 182.215C77.7356 181.795 77.9019 181.405 78.1295 181.059L77.715 180.559L78.6006 179.674L79.1004 180.089C79.4467 179.86 79.8368 179.694 80.2569 179.608L80.3173 178.963H81.5689L81.6294 179.608C82.049 179.694 82.4386 179.86 82.785 180.089L83.2852 179.674L84.1699 180.559L83.7563 181.059C83.9835 181.405 84.1498 181.795 84.2368 182.215L84.8815 182.275V183.527L84.2368 183.588C84.1498 184.007 83.9835 184.398 83.7563 184.744L84.1699 185.244L83.2852 186.129L82.7858 185.714C82.4386 185.942 82.049 186.109 81.6294 186.195L81.5689 186.84ZM80.9431 181.207C80.0074 181.207 79.2487 181.966 79.2487 182.902C79.2487 183.837 80.0074 184.596 80.9431 184.596C81.8788 184.596 82.6371 183.837 82.6371 182.902C82.6371 181.966 81.8788 181.207 80.9431 181.207Z" fill="#F6FAFE"/>
<path d="M87.3578 189.656H86.3771L86.3295 189.15C86.0008 189.082 85.6951 188.952 85.4238 188.775L85.0316 189.099L84.3385 188.405L84.663 188.013C84.4847 187.742 84.3543 187.436 84.2862 187.107L83.7812 187.06V186.079L84.2862 186.032C84.3543 185.703 84.4847 185.397 84.663 185.126L84.3385 184.734L85.0316 184.041L85.4238 184.365C85.6951 184.187 86.0008 184.056 86.3295 183.988L86.3771 183.483H87.3578L87.405 183.988C87.7338 184.056 88.0394 184.187 88.3111 184.365L88.7029 184.041L89.3965 184.734L89.0724 185.126C89.2499 185.397 89.3802 185.703 89.4483 186.032L89.9537 186.079V187.06L89.4483 187.107C89.3802 187.436 89.2499 187.742 89.0724 188.013L89.3965 188.405L88.7029 189.099L88.3111 188.775C88.0394 188.952 87.7338 189.082 87.405 189.15L87.3578 189.656ZM86.8675 185.242C86.1341 185.242 85.5395 185.836 85.5395 186.57C85.5395 187.303 86.1341 187.897 86.8675 187.897C87.6004 187.897 88.195 187.303 88.195 186.57C88.195 185.836 87.6004 185.242 86.8675 185.242Z" fill="#D9E4F6"/>
<path d="M82.6997 192.026H81.8762L81.8359 191.601C81.5595 191.545 81.3027 191.434 81.0747 191.285L80.7463 191.557L80.1638 190.975L80.436 190.646C80.286 190.418 80.1771 190.162 80.1192 189.885L79.6957 189.845L79.6953 189.022L80.1197 188.981C80.1771 188.705 80.286 188.449 80.436 188.221L80.1638 187.891L80.7463 187.31L81.0747 187.582C81.3027 187.432 81.5595 187.323 81.8359 187.265L81.8762 186.841H82.6997L82.7395 187.265C83.0156 187.323 83.2723 187.432 83.5004 187.582L83.8296 187.31L84.4121 187.891L84.1395 188.221C84.2891 188.449 84.3984 188.705 84.4554 188.981L84.8802 189.022V189.845L84.4558 189.885C84.3984 190.162 84.2891 190.418 84.1395 190.646L84.4121 190.975L83.8296 191.557L83.5004 191.285C83.2723 191.434 83.0156 191.544 82.7395 191.601L82.6997 192.026ZM82.2877 188.318C81.6722 188.318 81.1724 188.817 81.1724 189.433C81.1724 190.049 81.6722 190.549 82.2877 190.549C82.9037 190.549 83.4026 190.049 83.4026 189.433C83.4026 188.817 82.9037 188.318 82.2877 188.318Z" fill="#C3D7F1"/>
<path d="M99.5535 130.894L93.4569 128.613L93.9044 126.594L93.1753 126.515L92.793 126.132L93.0669 125.859C94.6931 125.759 96.0712 125.61 96.2191 125.384C96.2731 125.301 96.2671 125.111 96.2157 124.845L97.5119 124.558L99.7935 130.655L96.5972 127.458C96.6512 127.36 96.6795 127.252 96.6799 127.144C96.6803 126.987 96.6229 126.831 96.5016 126.709C96.3781 126.586 96.2165 126.524 96.0545 126.524C95.8933 126.524 95.7317 126.586 95.6087 126.709C95.4853 126.833 95.4235 126.994 95.4235 127.156C95.4235 127.318 95.4853 127.479 95.6087 127.602C95.7287 127.722 95.8843 127.781 96.0408 127.781C96.1497 127.781 96.2585 127.753 96.3576 127.698L99.5535 130.894Z" fill="#57676E"/>
<path d="M132.557 134.3V114.873H129.738L129.784 114.704H137.802L132.557 134.3ZM141.638 100.371H133.619L133.644 100.279H141.662L141.638 100.371Z" fill="#537BC6"/>
<path d="M137.8 114.703H129.781L133.617 100.37H141.636L140.265 105.489H140.068V104.584H137.685V106.967H137.97H138.589V107.204H139.161V106.967H139.871L139.114 109.793H138.589V111.751L137.8 114.703ZM140.068 106.23V106.061H140.113L140.068 106.23Z" fill="#456BBD"/>
<path d="M115.928 196.438H107.91L113.346 176.126H121.364L115.928 196.438ZM128.89 148.007V127.517H126.356L129.74 114.873H132.559V134.3L128.89 148.007Z" fill="#99B6E4"/>
<path d="M138.594 111.751V109.794H139.118L138.594 111.751Z" fill="white"/>
<path d="M139.166 107.205H138.594V106.967H139.166V107.205ZM140.117 106.062H140.072V105.49H140.27L140.117 106.062Z" fill="white"/>
<path d="M138.262 106.394H139.502V105.154H138.262V106.394Z" fill="#537BC6"/>
<path d="M139.874 106.968H137.688V104.585H140.071V105.491V106.062V106.231L139.874 106.968ZM138.259 106.396H139.499V105.156H138.259V106.396Z" fill="white"/>
<path d="M121.366 176.125H113.348L114.336 172.433C116.246 173.127 118.282 173.555 120.403 173.672V174.611H120.688H121.772L121.366 176.125ZM120.403 173.1C118.334 172.982 116.346 172.56 114.484 171.879L126.358 127.516H128.892V148.006L122.41 172.227H120.403V173.1Z" fill="#CEDFF4"/>
<path d="M120.399 173.673C118.278 173.555 116.242 173.128 114.332 172.434L114.48 171.88C116.342 172.561 118.33 172.983 120.399 173.101V173.673Z" fill="#537BC6"/>
<path d="M121.923 174.04H120.973V172.799H122.213V172.957L121.923 174.04Z" fill="white"/>
<path d="M121.772 174.611H120.402V172.228H122.41L122.214 172.957V172.799H120.974V174.04H121.924L121.772 174.611Z" fill="#537BC6"/>
<path d="M139.665 196.438H136.797L149.167 150.217H152.036L150.717 155.147H148.639C148.125 155.147 147.709 155.562 147.709 156.076C147.709 156.589 148.125 157.005 148.639 157.005H150.219L139.665 196.438ZM152.533 148.359H149.664L156.717 122.007H159.586L155.621 136.823H155.409V137.394H155.468L152.533 148.359ZM161.113 116.3H158.244L158.672 114.704H161.541L161.113 116.3ZM165.376 100.371H162.507L162.532 100.279H165.401L165.376 100.371Z" fill="#537BC6"/>
<path d="M161.541 114.703H158.672L162.507 100.37H165.376L164.006 105.489H161.449V106.061H163.854L161.541 114.703Z" fill="#456BBD"/>
<path d="M155.469 137.394H155.41V136.822H155.622L155.469 137.394Z" fill="white"/>
<path d="M163.85 106.062H161.445V105.49H164.003L163.85 106.062Z" fill="white"/>
<path d="M159.584 122.007H156.715L158.242 116.3H161.111L159.584 122.007Z" fill="#CDDEF3"/>
<path d="M152.033 150.218H149.164L149.661 148.359H152.53L152.033 150.218Z" fill="#CDDEF3"/>
<path d="M150.221 157.005H148.64C148.127 157.005 147.711 156.589 147.711 156.076C147.711 155.563 148.127 155.146 148.64 155.146H150.718L150.221 157.005Z" fill="#CDDEF3"/>
<path d="M252.589 121.491C254.618 123.833 264.939 143.715 262.944 148.358C260.948 152.999 244.41 147.649 244.41 147.649L245.398 141.098C245.398 141.098 251.825 141.324 252.44 140.715C253.055 140.106 243.746 130.808 243.746 130.808L252.589 121.491Z" fill="#1D2A30"/>
<path d="M262.752 148.715L262.751 148.713C262.825 148.602 262.889 148.485 262.944 148.359C263.46 147.156 263.15 144.929 262.372 142.25V142.249C263.15 144.929 263.461 147.157 262.944 148.361C262.891 148.486 262.826 148.604 262.752 148.715ZM262.229 141.77C260.788 137.044 258.007 131.061 255.746 126.78C258.008 131.06 260.788 137.042 262.229 141.769V141.77Z" fill="white"/>
<path d="M262.373 142.249C262.327 142.091 262.28 141.931 262.23 141.77V141.769C262.28 141.93 262.327 142.09 262.373 142.248V142.249Z" fill="#F3F3F2"/>
<path d="M262.751 148.714L261.057 147.128C257.858 136.499 251.794 126.684 251.794 126.684L251.793 126.684C252.631 124.301 253.252 122.895 253.252 122.895C253.252 122.895 253.202 122.333 252.604 121.513C253.172 122.178 254.362 124.161 255.746 126.781C258.007 131.062 260.788 137.044 262.23 141.771C262.279 141.932 262.326 142.092 262.372 142.25C263.151 144.93 263.461 147.156 262.944 148.359C262.89 148.485 262.825 148.603 262.751 148.714Z" fill="#45555C"/>
<path d="M256.861 150.221C256.635 150.208 256.407 150.193 256.177 150.174L256.176 150.173C256.406 150.192 256.635 150.208 256.861 150.22V150.221Z" fill="#CFCECC"/>
<path d="M256.866 150.219C256.641 150.206 256.412 150.19 256.181 150.171L254.84 148.321L256.866 150.219Z" fill="#364248"/>
<path d="M248.926 148.904C248.34 148.761 247.789 148.619 247.286 148.485C247.286 148.484 247.285 148.483 247.285 148.482C247.788 148.617 248.339 148.758 248.925 148.902L248.926 148.904Z" fill="#CFCECC"/>
<path d="M248.922 148.902C248.336 148.758 247.785 148.616 247.282 148.482C247.063 147.987 246.831 147.494 246.586 147.001L247.466 147.035L247.467 147.033C247.469 146.991 247.472 146.948 247.475 146.905L248.922 148.902Z" fill="#364248"/>
<path d="M261.055 147.127L249.113 135.947C249.967 132.205 250.98 128.988 251.791 126.683L251.793 126.683C251.793 126.683 257.856 136.498 261.055 147.127Z" fill="#364248"/>
<path d="M231.738 120.841C230.593 121.672 230.029 122.849 230.479 123.47L260.68 165.108C261.131 165.729 262.424 165.559 263.57 164.728C264.716 163.897 265.279 162.72 264.828 162.099L234.628 120.461C234.178 119.84 232.884 120.01 231.738 120.841Z" fill="#1D2A30"/>
<path d="M260.68 165.105L247.477 146.901C247.518 146.255 247.57 145.612 247.631 144.974L261.417 163.495C261.055 164.246 260.432 164.762 260.68 165.105ZM261.367 162.976L247.716 144.155C247.798 143.402 247.893 142.657 247.999 141.922L254.83 148.317L264.826 162.099C264.931 162.245 264.981 162.42 264.981 162.615C264.981 162.42 264.931 162.245 264.826 162.099C264.643 161.847 264.321 161.726 263.926 161.726C263.349 161.726 262.616 161.986 261.938 162.478C261.725 162.633 261.538 162.804 261.367 162.976Z" fill="#BDC1C2"/>
<path d="M261.583 165.48C261.188 165.48 260.865 165.358 260.682 165.106C260.434 164.763 261.057 164.247 261.419 163.496L247.633 144.975C247.639 144.915 247.644 144.855 247.651 144.795C247.672 144.581 247.694 144.368 247.718 144.155L261.369 162.976C261.54 162.804 261.727 162.633 261.94 162.478C262.618 161.986 263.351 161.726 263.928 161.726C264.323 161.726 264.645 161.848 264.828 162.099C264.933 162.245 264.983 162.421 264.983 162.616C264.981 163.253 264.445 164.093 263.571 164.727C262.89 165.221 262.159 165.48 261.583 165.48Z" fill="#7F8486"/>
<path d="M227.998 119.686C227.031 120.719 226.701 121.981 227.261 122.506L264.81 157.661C265.37 158.185 266.609 157.772 267.576 156.739C268.543 155.706 268.873 154.444 268.313 153.919L230.764 118.765C230.203 118.24 228.965 118.653 227.998 119.686Z" fill="#4870C0"/>
<path d="M264.811 157.657L248 141.918C248.073 141.413 248.151 140.911 248.234 140.415L265.229 155.936C265.017 156.742 264.503 157.368 264.811 157.657ZM265.082 155.436L248.344 139.767C248.576 138.447 248.837 137.169 249.116 135.948L268.311 153.919C268.495 154.092 268.583 154.346 268.583 154.644C268.583 154.346 268.495 154.092 268.311 153.919C268.146 153.765 267.923 153.692 267.665 153.692C267.046 153.692 266.228 154.111 265.547 154.838C265.367 155.03 265.216 155.234 265.082 155.436Z" fill="#C7D9F2"/>
<path d="M265.46 157.885C265.201 157.885 264.977 157.812 264.812 157.658C264.503 157.368 265.017 156.743 265.23 155.936L248.234 140.415C248.27 140.198 248.307 139.982 248.345 139.767L265.083 155.437C265.217 155.234 265.368 155.031 265.548 154.839C266.229 154.112 267.047 153.692 267.666 153.692C267.924 153.692 268.147 153.765 268.312 153.919C268.496 154.092 268.584 154.346 268.584 154.645C268.584 155.252 268.222 156.047 267.576 156.737C266.893 157.467 266.077 157.885 265.46 157.885Z" fill="#8394B7"/>
<path d="M237.018 231.877L234.155 231.923C231.246 218.258 229.188 201.346 227.908 188.591C227.708 186.59 227.525 184.698 227.365 182.932C227.291 182.093 227.216 181.286 227.148 180.509C226.805 176.674 226.571 173.634 226.428 171.754C226.325 170.381 226.273 169.627 226.273 169.627H236.618L236.521 172.262L236.201 180.96L236.166 181.955L235.95 187.698L235.59 197.478C239.139 211.245 237.018 231.877 237.018 231.877Z" fill="#F9A95E"/>
<path d="M260.231 231.145L257.414 231.676C251.773 217.577 246.475 199.523 243.029 186.909C242.497 184.954 242.005 183.125 241.566 181.469C241.542 181.383 241.525 181.303 241.503 181.222C240.634 177.93 239.965 175.307 239.548 173.644C239.228 172.341 239.051 171.627 239.051 171.627L249.247 169.866L249.824 174.153L250.676 180.451L250.841 181.686L251.418 185.978L252.967 197.488C258.808 210.45 260.231 231.145 260.231 231.145Z" fill="#F9A95E"/>
<path d="M241.56 181.47C241.537 181.384 241.52 181.304 241.497 181.223C241.293 180.45 241.1 179.713 240.918 179.017L250.314 177.817L250.67 180.453L241.56 181.47Z" fill="#CA8849"/>
<path d="M227.365 182.932C227.29 182.092 227.216 181.286 227.147 180.509C227.104 180.026 227.063 179.557 227.023 179.101L236.251 179.585L236.2 180.96L236.166 181.954L227.365 182.932Z" fill="#CA8849"/>
<path d="M228.568 241.377C229.101 240.946 229.708 240.616 230.36 240.403C230.36 240.403 232.309 238.469 233.246 232.65L235.798 231.984C236.685 231.769 237.613 232.131 238.119 232.891C238.19 232.993 238.244 233.106 238.281 233.225C238.412 233.849 238.503 234.481 238.554 235.117C238.81 237.086 238.59 241.508 238.59 241.508H238.13L237.946 237.495C237.878 236.133 236.835 237.731 236.537 239.198C236.238 240.664 235.604 242.226 232.618 242.299C229.134 242.368 227.688 242.231 228.568 241.377Z" fill="#1D2A30"/>
<path d="M238.21 232.935C238.378 231.573 238.43 229.205 238.43 229.205L232.762 229.834C232.762 229.834 233.448 232.527 232.883 234.549C235.737 233.8 238.21 232.935 238.21 232.935Z" fill="#1D2A30"/>
<path d="M251.635 241.377C252.167 240.946 252.775 240.616 253.426 240.403C253.426 240.403 255.375 238.469 256.313 232.65L258.864 231.984C259.751 231.769 260.678 232.131 261.185 232.891C261.256 232.993 261.311 233.106 261.348 233.225C261.479 233.849 261.57 234.481 261.62 235.117C261.877 237.086 261.657 241.508 261.657 241.508H261.196L261.012 237.495C260.944 236.133 259.901 237.731 259.603 239.198C259.304 240.664 258.67 242.226 255.684 242.299C252.2 242.368 250.754 242.231 251.635 241.377Z" fill="#1D2A30"/>
<path d="M261.273 232.935C261.44 231.573 261.492 229.205 261.492 229.205L255.824 229.834C255.824 229.834 256.51 232.527 255.944 234.549C258.8 233.8 261.273 232.935 261.273 232.935Z" fill="#1D2A30"/>
<path d="M251.655 177.645L240.87 179.023L240.453 179.074L238.236 170.948L237.653 179.658L226.097 179.051C220.947 148.835 229.749 141.696 229.749 141.696L245.426 144.851C252.526 156.919 250.836 170.948 250.836 170.948L251.655 177.645Z" fill="#4870C0"/>
<path d="M236.811 104.05H236.667C236.667 104.622 236.539 105.138 236.341 105.5C236.14 105.866 235.882 106.057 235.635 106.055C235.387 106.057 235.129 105.866 234.929 105.5C234.73 105.138 234.601 104.622 234.602 104.05C234.601 103.478 234.73 102.962 234.929 102.6C235.129 102.235 235.387 102.043 235.635 102.045C235.882 102.043 236.14 102.235 236.341 102.6C236.539 102.962 236.667 103.478 236.667 104.05H236.811H236.953C236.953 103.436 236.818 102.878 236.592 102.463C236.367 102.051 236.036 101.762 235.635 101.76C235.234 101.762 234.903 102.051 234.678 102.463C234.451 102.878 234.317 103.436 234.316 104.05C234.317 104.665 234.451 105.222 234.678 105.637C234.903 106.05 235.234 106.339 235.635 106.341C236.036 106.339 236.367 106.05 236.592 105.637C236.818 105.222 236.953 104.665 236.953 104.05H236.811Z" fill="#1D2A30"/>
<path d="M244.55 111.247L244.414 111.347C243.779 111.798 243.051 112.23 242.224 112.418C239.908 112.952 238.326 112.636 237.294 111.588H237.289C235.843 110.016 235.481 107.232 235.686 103.874C235.775 102.333 235.995 100.993 236.419 99.9508L236.43 99.8912L236.487 99.7489C237.121 98.2928 238.174 97.349 239.856 96.9508C240.437 96.8149 241.097 96.7381 241.841 96.7279C248.39 96.6597 249.569 107.507 244.55 111.247Z" fill="#F9A95E"/>
<path d="M240.328 112.566C239.005 112.566 238.015 112.15 237.293 111.406C237.783 111.515 238.346 111.594 238.948 111.594C239.555 111.594 240.201 111.513 240.85 111.3C240.841 111.689 240.808 112.116 240.732 112.553C240.594 112.562 240.46 112.566 240.328 112.566Z" fill="#CA8849"/>
<path d="M245.078 117.262C245.481 119.127 243.067 119.887 243.067 119.887C239.116 118.199 238.383 116.099 238.383 116.099C241.678 114.381 240.724 109.519 240.724 109.519L241.395 109.849L246.101 110.769C246.101 110.769 244.795 113.275 244.623 113.846L244.617 113.862C243.732 116.848 245.078 117.262 245.078 117.262Z" fill="#F9A95E"/>
<path d="M236.417 99.9081C236.417 99.9081 236.056 104.501 240.409 106.473C240.409 106.473 242.277 111.244 245.028 111.311C248.779 111.403 252.085 106.066 250.785 100.631C249.1 93.5813 238.421 93.0087 236.417 99.9081Z" fill="#1D2A30"/>
<path d="M238.203 105.154C238.204 104.438 238.781 103.235 239.895 103.398C241.047 103.567 241.685 106.408 238.853 107.043C238.446 107.134 238.2 106.649 238.203 105.154Z" fill="#F9A95E"/>
<path d="M244.411 95.0283C244.411 95.0283 240.03 93.9207 237.608 95.682C234.78 97.739 233.708 99.8677 237.056 103.171C237.056 103.171 244.412 100.786 246.858 101.291C249.303 101.796 251.051 102.509 251.051 102.509C251.566 97.6507 246.858 94.0356 244.411 95.0283Z" fill="#1D2A30"/>
<path d="M238.199 104.049C238.199 104.049 239.37 109.345 237.547 113.856C237.547 113.856 247.947 117.465 251.565 115.505C255.182 113.545 251.866 106.965 251.716 103.17C251.565 99.3766 249.916 93.7695 244.409 95.028C238.904 96.2865 238.199 104.049 238.199 104.049Z" fill="#1D2A30"/>
<path d="M234.459 103.855H238.853C238.932 103.855 238.996 103.791 238.996 103.712C238.996 103.633 238.932 103.569 238.853 103.569H234.459C234.38 103.569 234.316 103.633 234.316 103.712C234.316 103.791 234.38 103.855 234.459 103.855Z" fill="#1D2A30"/>
<path d="M240.452 179.074L238.234 170.948C238.234 170.948 242.989 162.827 241.503 158.597C241.715 158.895 246.836 166.49 240.869 179.024L240.452 179.074Z" fill="#395EB4"/>
<path d="M231.966 116.854C231.966 116.854 237.195 114.988 245.079 117.263C252.963 119.539 253.253 122.897 253.253 122.897C253.253 122.897 248.258 134.218 247.472 147.035L226.93 146.268C226.93 146.268 224.48 128.178 231.966 116.854Z" fill="#1D2A30"/>
<path d="M247.467 147.035L246.587 147.002L246.586 147.001L247.468 147.034C247.467 147.035 247.467 147.035 247.467 147.035Z" fill="#5D686F"/>
<path d="M246.591 147.002L226.93 146.269C226.93 146.269 226.93 146.268 226.93 146.267L246.589 147.001L246.591 147.002Z" fill="#658ACF"/>
<path d="M252.592 121.495C252.527 121.406 252.455 121.314 252.375 121.219C252.375 121.218 252.375 121.217 252.375 121.217C252.455 121.312 252.527 121.404 252.593 121.494C252.593 121.494 252.593 121.494 252.593 121.494L252.592 121.495Z" fill="white"/>
<path d="M252.605 121.511C252.601 121.505 252.596 121.5 252.592 121.495C252.591 121.494 252.59 121.493 252.59 121.493L252.591 121.491C252.596 121.498 252.601 121.505 252.605 121.511Z" fill="#45555C"/>
<path d="M251.793 126.683C252.631 124.301 253.251 122.895 253.251 122.895C253.251 122.895 253.202 122.325 252.592 121.495C252.597 121.5 252.601 121.505 252.606 121.511C253.204 122.331 253.253 122.894 253.253 122.894C253.253 122.894 252.633 124.3 251.795 126.683H251.793Z" fill="#6A797F"/>
<path d="M249.115 135.947L249.113 135.946C249.967 132.204 250.98 128.988 251.791 126.684H251.793C250.982 128.988 249.968 132.205 249.115 135.947Z" fill="#5D686F"/>
<path d="M247.719 144.155V144.154C247.801 143.402 247.896 142.656 248.002 141.922H248.002C247.896 142.657 247.801 143.402 247.719 144.155Z" fill="#CBCFCF"/>
<path d="M247.648 144.795C247.669 144.581 247.692 144.368 247.715 144.154V144.155C247.692 144.368 247.669 144.581 247.648 144.795Z" fill="#999D9D"/>
<path d="M248 141.921H248C248 141.919 248 141.919 248 141.918C248 141.919 248 141.92 248 141.921ZM249.116 135.947L249.115 135.947V135.945L249.117 135.947L249.116 135.947Z" fill="#658ACF"/>
<path d="M248 141.919C248.072 141.412 248.151 140.91 248.233 140.414L248.234 140.415C248.151 140.911 248.073 141.413 248 141.919ZM248.344 139.767L248.343 139.766C248.575 138.447 248.836 137.169 249.115 135.947L249.116 135.949C248.837 137.17 248.576 138.448 248.344 139.767Z" fill="#D4E1F5"/>
<path d="M248.235 140.415L248.234 140.415C248.27 140.197 248.307 139.981 248.345 139.767L248.345 139.767C248.308 139.983 248.271 140.198 248.235 140.415Z" fill="#9FABC6"/>
<path d="M247.473 147.034L246.591 147.001L226.931 146.267C226.921 146.183 226.589 143.685 226.555 140.005C230.772 136.838 231.657 131.724 231.681 131.584C231.681 131.584 231.682 131.584 231.682 131.584C231.682 131.584 233.282 127.578 233.283 123.058C233.284 120.985 232.948 118.804 231.967 116.853C231.985 116.846 233.942 116.155 237.254 116.135C237.266 116.22 239.096 129.187 244.857 129.712C245.01 129.727 245.161 129.734 245.31 129.734C249.543 129.734 251.952 124.225 252.377 121.218C252.456 121.313 252.528 121.405 252.593 121.494C252.594 121.494 252.595 121.495 252.595 121.496C253.205 122.326 253.254 122.896 253.254 122.896C253.254 122.896 252.634 124.302 251.796 126.684C250.986 128.988 249.972 132.205 249.118 135.946V135.947C248.84 137.169 248.578 138.446 248.347 139.766C248.309 139.981 248.273 140.197 248.237 140.414C248.154 140.91 248.076 141.412 248.003 141.918C248.003 141.92 248.003 141.92 248.003 141.922C247.897 142.657 247.802 143.402 247.72 144.154C247.697 144.368 247.674 144.581 247.653 144.795C247.58 145.535 247.519 146.283 247.472 147.036" fill="#45555C"/>
<path d="M226.555 140.005C226.552 139.77 226.551 139.531 226.551 139.287C226.551 137.659 226.611 135.828 226.777 133.891C229.57 132.722 231.635 131.609 231.681 131.584C231.657 131.724 230.771 136.838 226.555 140.005Z" fill="#364248"/>
<path d="M208.987 116.494L206.397 112.653C206.397 112.653 205.999 110.984 205.501 110.604C205.003 110.222 200.022 108.111 199.425 108.12C198.827 108.13 198.827 111.995 199.425 112.653C200.022 113.31 203.16 114.717 203.982 114.86C204.804 115.003 204.405 114.86 204.405 114.86L206.696 119.428L208.987 116.494Z" fill="#F9A95E"/>
<path d="M231.964 116.853C231.964 116.853 224.758 119.69 215.949 125.116L207.592 113.714C207.592 113.714 205.335 114.414 204.504 118.333C204.504 118.333 208.798 134.687 214.375 136.308C219.952 137.928 231.679 131.584 231.679 131.584C231.679 131.584 235.084 123.061 231.964 116.853Z" fill="#1D2A30"/>
<path d="M216.48 136.572C216.098 136.572 215.729 136.552 215.377 136.509C215.025 136.465 214.69 136.399 214.375 136.307C208.798 134.687 204.504 118.333 204.504 118.333C205.335 114.414 207.592 113.714 207.592 113.714L215.949 125.116C224.758 119.69 231.964 116.853 231.964 116.853C232.945 118.805 233.281 120.986 233.281 123.059C233.279 127.578 231.679 131.584 231.679 131.584C231.679 131.584 231.678 131.584 231.678 131.584C231.632 131.609 229.567 132.722 226.774 133.891H226.774C223.651 135.197 219.618 136.572 216.48 136.572Z" fill="#45555C"/>
<path d="M237.254 116.134C237.254 116.134 239.078 129.186 244.857 129.712C250.636 130.24 253.222 120.599 252.243 119.428C251.263 118.257 243.82 116.047 237.254 116.134Z" fill="#1D2A30"/>
<path d="M245.31 129.734C245.161 129.734 245.01 129.728 244.857 129.713C239.078 129.186 237.254 116.135 237.254 116.135C237.381 116.133 237.509 116.133 237.636 116.133C244.105 116.133 251.282 118.281 252.243 119.429C252.379 119.591 252.446 119.917 252.446 120.356C252.443 122.996 249.992 129.734 245.31 129.734Z" fill="#5D6C72"/>
<path d="M31.6758 236.201H35.9078L36.2576 226.397H32.0205L31.6758 236.201Z" fill="#CE6858"/>
<path d="M36.4947 235.713H31.3533C31.18 235.714 31.0301 235.834 30.9924 236.003L30.1582 239.772C30.0868 240.109 30.3024 240.441 30.6397 240.512L30.7772 240.526C32.4409 240.499 33.6522 240.396 35.741 240.396C37.0278 240.396 40.9093 240.531 42.6861 240.531C44.4623 240.531 44.6942 238.776 43.9673 238.615C40.7048 237.903 38.2499 236.918 37.2053 235.982C37.0117 235.804 36.7572 235.708 36.4947 235.713Z" fill="#1D2A30"/>
<path d="M37.077 236.159C37.5709 236.326 38.1099 236.299 38.5844 236.084C38.6858 235.993 38.7365 235.859 38.7191 235.723C38.7137 235.642 38.6814 235.605 38.6546 235.605L38.5253 235.578C38.0101 235.677 37.5182 235.874 37.077 236.159ZM36.7866 236.299L36.7109 236.213L36.7596 236.116C36.9103 236.019 38.2779 235.179 38.7461 235.422C38.8539 235.473 38.9214 235.582 38.9182 235.701C38.9466 235.905 38.8673 236.109 38.7083 236.24C38.47 236.402 38.1831 236.478 37.8955 236.456C37.5213 236.444 37.1494 236.391 36.7866 236.299Z" fill="#4870C0"/>
<path d="M37.4378 234.673C37.1403 235.052 36.9654 235.515 36.9373 235.997C37.3731 235.668 37.9118 234.963 37.858 234.689C37.8524 234.662 37.8417 234.586 37.7125 234.586H37.664C37.5807 234.586 37.5004 234.617 37.4378 234.673ZM36.7596 236.32L36.7109 236.228C36.7165 236.169 36.8188 234.952 37.3086 234.554C37.4253 234.451 37.5803 234.404 37.7341 234.424C37.8908 234.424 38.0261 234.534 38.0571 234.689C38.1431 235.135 37.2979 236.067 36.8619 236.304H36.8134L36.7596 236.32Z" fill="#4870C0"/>
<path d="M31.845 231.46H31.8398L31.8716 230.584H31.8758L31.845 231.46Z" fill="#CECDCC"/>
<path d="M36.0757 231.46H31.8438L31.8745 230.584H36.1074L36.0757 231.46Z" fill="#A25245"/>
<path d="M53.4688 236.52L57.8366 236.982L58.6562 227.562L54.2887 227.101L53.4688 236.52Z" fill="#CE6858"/>
<path d="M58.2952 235.577H53.1541C52.9809 235.579 52.8309 235.699 52.7932 235.868L51.959 239.636C51.8875 239.974 52.1031 240.306 52.4404 240.377L52.578 240.391C54.2415 240.364 55.4529 240.261 57.5417 240.261C58.8284 240.261 62.7102 240.396 64.4865 240.396C66.2637 240.396 66.4951 238.64 65.7681 238.479C62.5057 237.769 60.0505 236.783 59.0063 235.846C58.8126 235.669 58.5584 235.573 58.2952 235.577Z" fill="#1D2A30"/>
<path d="M58.8782 236.024C59.372 236.191 59.9108 236.164 60.3853 235.949C60.4869 235.858 60.5375 235.723 60.5203 235.588C60.5143 235.507 60.4826 235.469 60.4556 235.469L60.3266 235.443C59.8109 235.542 59.3193 235.74 58.8782 236.024ZM58.5872 236.164L58.5117 236.078L58.5606 235.981C58.7115 235.884 60.0788 235.044 60.5469 235.287C60.6545 235.338 60.7218 235.448 60.7192 235.567C60.7475 235.771 60.6682 235.974 60.5092 236.105C60.2704 236.268 59.9841 236.343 59.6965 236.32C59.3223 236.309 58.9502 236.257 58.5872 236.164Z" fill="#4870C0"/>
<path d="M59.2387 234.537C58.9412 234.917 58.7663 235.38 58.738 235.862C59.1744 235.533 59.7128 234.828 59.6588 234.554C59.6532 234.526 59.6425 234.451 59.513 234.451H59.4646C59.3819 234.452 59.3013 234.483 59.2387 234.537ZM58.5606 236.185L58.5117 236.093C58.5177 236.033 58.6193 234.817 59.1097 234.418C59.2263 234.317 59.381 234.27 59.5349 234.29C59.6913 234.289 59.8268 234.399 59.8577 234.554C59.9442 235 59.099 235.932 58.6626 236.168H58.6142L58.5606 236.185Z" fill="#4870C0"/>
<path d="M53.8671 231.96H53.8633L54.0926 229.35L54.0943 229.35L53.8671 231.96Z" fill="#CECDCC"/>
<path d="M58.2351 232.42L53.8711 231.959L54.0987 229.35L58.4576 229.891L58.2351 232.42Z" fill="#A25245"/>
<path d="M33.7649 140.405H56.228C58.3643 152.068 65.0494 193.34 60.2529 230.113L52.6484 229.17C52.6484 229.17 53.3522 180.352 46.638 162.305C45.8656 171.964 44.9491 182.24 44.1523 187.709C42.1981 201.168 38.0151 230.583 38.0151 230.583H30.2734C30.2734 230.583 31.856 202.428 32.5885 189.2C33.3885 174.839 33.7343 143.354 33.7649 140.405Z" fill="#1D2A30"/>
<path d="M61.1274 231.886L51.7148 230.485L52.0029 227.879L61.7939 229.164L61.1274 231.886Z" fill="#4870C0"/>
<path d="M38.9476 230.645H29.8164V227.915L39.2921 227.738L38.9476 230.645Z" fill="#4870C0"/>
<path d="M49.1495 172.024C48.4551 168.288 47.6312 164.966 46.6406 162.306L47.2656 154.313C47.2656 154.313 49.7778 163.429 49.1495 172.024Z" fill="#182124"/>
<path d="M33.1378 144.314L32.625 147.028C32.625 147.028 48.3431 149.063 58.1212 149.006L57.7822 147.14L33.1378 144.314Z" fill="#4870C0"/>
<path d="M65.0391 120.807C65.0391 120.807 70.4777 137.947 74.1948 139.068C77.9116 140.189 87.3674 126.044 87.3674 126.044C87.3674 126.044 95.8408 125.961 96.2201 125.383C96.5999 124.805 94.0182 118.838 93.3988 118.827C92.779 118.816 85.4021 121.603 85.1158 122.068C84.8294 122.534 76.3633 130.63 75.9501 130.402C75.5369 130.174 72.3363 119.974 72.3363 119.974L65.0391 120.807Z" fill="#CE6858"/>
<path d="M88.4453 125.146C88.5184 125.131 88.5863 125.115 88.6491 125.094L88.5494 125.031L88.4453 125.146Z" fill="#CE6858"/>
<path d="M61.9492 118.828L62.6119 120.05L65.7075 125.771L66.3492 126.95L75.0296 123.933C75.0296 123.933 71.4226 110.456 70.1697 109.078L61.9492 118.828Z" fill="#4870C0"/>
<path d="M66.3526 126.95L65.7109 125.771C67.1327 122.973 67.1893 119.41 67.1259 117.771C67.9917 115.503 68.672 113.593 69.1675 112.147C69.3544 111.602 69.516 111.124 69.6514 110.717C70.0012 109.658 70.1731 109.078 70.1731 109.078C71.426 110.456 75.033 123.933 75.033 123.933L73.7493 124.379L67.1053 126.688L66.3526 126.95Z" fill="#8DAEE0"/>
<path d="M65.7101 125.771L64.6797 123.868C65.6158 121.639 66.4303 119.59 67.1255 117.771C67.189 119.41 67.1324 122.974 65.7101 125.771Z" fill="#678ACF"/>
<path d="M70.1768 109.078C70.1768 109.078 65.6126 103.132 57.1032 102.732C48.5938 102.333 45.9221 103.179 42.812 105.955C38.269 110.01 32.625 144.96 32.625 144.96C32.625 144.96 44.5106 148.635 58.1251 147.734C58.1251 147.734 58.2275 138.033 61.2966 131.493C67.2654 118.775 70.1768 109.078 70.1768 109.078Z" fill="#4870C0"/>
<path d="M57.8911 147.749L57.8906 147.747C57.9678 147.742 58.0458 147.737 58.1229 147.732C58.1229 147.732 58.1375 146.349 58.321 144.274C58.3081 144.421 58.2961 144.563 58.2854 144.702C58.1345 146.539 58.1238 147.734 58.1238 147.734C58.0466 147.739 57.9682 147.744 57.8911 147.749Z" fill="white"/>
<path d="M53.7452 147.876C49.611 147.876 45.7575 147.511 42.5043 147.04C45.7541 147.51 49.602 147.875 53.732 147.875C55.0903 147.875 56.4774 147.836 57.8855 147.748L57.8859 147.75C56.4825 147.837 55.0993 147.876 53.7452 147.876ZM42.4881 147.037C42.4856 147.037 42.4832 147.036 42.4805 147.036C42.4832 147.036 42.4856 147.037 42.4881 147.037Z" fill="#8DAEE0"/>
<path d="M32.9939 145.067C32.7493 144.997 32.6211 144.958 32.6211 144.958C32.6211 144.958 32.7256 144.321 32.9138 143.205C33.1848 141.602 33.6389 139.018 34.2185 135.928C34.6257 133.782 35.0901 131.392 35.602 128.928C35.8053 127.952 36.0141 126.961 36.2282 125.968C36.369 125.322 36.5153 124.669 36.6613 124.022C36.843 123.218 37.0286 122.418 37.217 121.625C37.0286 122.418 36.843 123.218 36.6613 124.022C36.5153 124.669 36.369 125.322 36.2282 125.968C36.2291 125.968 36.2304 125.968 36.2313 125.967C34.1387 135.575 32.6235 144.959 32.6235 144.959C32.6235 144.959 32.7508 144.998 32.9939 145.067V145.067Z" fill="white"/>
<path d="M34.048 145.355C33.5894 145.235 33.2339 145.136 32.9922 145.068V145.067C33.2336 145.136 33.5892 145.235 34.048 145.355Z" fill="#8DAEE0"/>
<path d="M58.4141 143.334C58.4951 142.556 58.5988 141.71 58.7313 140.821C58.6862 141.127 58.6442 141.428 58.6065 141.723C58.5319 142.284 58.4676 142.824 58.4141 143.334Z" fill="white"/>
<path d="M70.1741 109.082C70.1753 109.079 70.1753 109.078 70.1753 109.078V109.081L70.1741 109.082ZM70.1753 109.078C70.1753 109.078 69.8723 108.683 69.2773 108.091C69.8543 108.664 70.1548 109.051 70.1753 109.078Z" fill="#DEEAF8"/>
<path d="M69.168 112.147C69.8169 110.253 70.1496 109.153 70.1714 109.081L70.1736 109.078C70.1736 109.078 70.0017 109.658 69.6519 110.717C69.5165 111.124 69.3549 111.602 69.168 112.147Z" fill="#BBD2EF"/>
<path d="M69.2474 108.061C68.5119 107.333 67.3438 106.315 65.7617 105.362C67.3451 106.315 68.5136 107.334 69.2474 108.061Z" fill="#DEEAF8"/>
<path d="M56.311 102.698C55.963 102.685 55.6244 102.673 55.2969 102.664C55.6252 102.673 55.963 102.684 56.311 102.697C56.311 102.698 56.311 102.698 56.311 102.698Z" fill="white"/>
<path d="M55.2975 102.663C55.1509 102.659 55.006 102.656 54.8633 102.652C55.006 102.656 55.1505 102.659 55.2975 102.663Z" fill="#EFEFEF"/>
<path d="M53.7388 147.877C49.6088 147.876 45.7609 147.512 42.5115 147.041C42.5057 147.04 42.501 147.039 42.4952 147.039C42.4928 147.038 42.4903 147.037 42.4876 147.037C38.683 146.485 35.7008 145.786 34.0512 145.356C33.5924 145.237 33.2368 145.138 32.9954 145.069C32.7523 145 32.625 144.96 32.625 144.96C32.625 144.96 34.1402 135.576 36.2327 125.969C41.5365 123.764 45.7485 114.772 45.8827 114.484C47.2676 112.613 48.0623 109.567 48.0627 106.911C48.0632 105.546 47.8536 104.283 47.4061 103.337C47.4061 103.337 47.3208 103.343 47.1626 103.365C48.77 102.865 50.7636 102.64 53.5755 102.64C53.9887 102.64 54.4199 102.645 54.8696 102.654C55.0127 102.657 55.1576 102.661 55.3042 102.665C55.6317 102.674 55.9703 102.685 56.3184 102.699C56.1893 102.836 56.0586 102.965 55.9257 103.085C54.4885 103.166 53.3419 103.425 53.4598 103.896C53.5952 104.444 54.9681 106.131 56.8576 107.378C57.855 108.041 58.9922 108.578 60.1719 108.761C60.5341 108.818 60.8731 108.844 61.189 108.844C63.8543 108.844 64.9268 106.993 65.0108 106.214C65.0665 105.668 63.7197 104.747 62.1385 104.058C62.1406 104.025 62.1449 103.992 62.1505 103.96C62.1659 103.874 62.1843 103.789 62.2053 103.704C63.5598 104.167 64.748 104.752 65.7652 105.364C67.3473 106.317 68.5154 107.335 69.2509 108.063C69.2539 108.066 69.2569 108.069 69.2595 108.072C69.2663 108.079 69.2728 108.085 69.2792 108.091C69.8741 108.684 70.1768 109.078 70.1768 109.078C70.1768 109.078 70.1768 109.08 70.1759 109.082C70.154 109.154 69.8214 110.254 69.172 112.149C68.992 112.672 68.788 113.257 68.5599 113.897C68.1429 115.072 67.6418 116.439 67.0571 117.964C66.2427 120.087 65.2663 122.52 64.1286 125.177C63.586 126.44 63.0065 127.761 62.3905 129.118C62.0356 129.896 61.6704 130.689 61.2945 131.493C60.6211 132.923 60.0883 134.51 59.6712 136.112C59.4985 136.786 59.3424 137.459 59.2066 138.127C59.0175 139.046 58.8598 139.953 58.7312 140.822C58.5983 141.71 58.495 142.557 58.414 143.334C58.3797 143.661 58.3493 143.977 58.3231 144.277C58.1397 146.351 58.1251 147.734 58.1251 147.734C58.0479 147.739 57.9699 147.744 57.8928 147.749C56.4847 147.837 55.0976 147.877 53.7388 147.877ZM50.2647 114.705C50.2647 114.705 45.7425 125.606 44.8385 134.65L57.0132 136.204C57.0132 136.204 62.4801 121.478 63.6078 116.872C63.6078 116.872 53.8824 115.899 50.2647 114.705Z" fill="#8DAEE0"/>
<path d="M50.2582 114.704C50.2582 114.704 45.7365 125.605 44.832 134.649L57.0067 136.203C57.0067 136.203 62.474 121.477 63.6014 116.871C63.6014 116.871 53.8759 115.898 50.2582 114.704Z" fill="#4870C0"/>
<path d="M61.6788 118.427L61.2266 117.297L62.9223 117.466L61.6788 118.427Z" fill="#8DAEE0"/>
<path d="M54.5977 103.913C55.5171 106.543 58.9415 107.742 60.7379 107.894C63.2584 108.107 63.9926 106.13 63.9926 106.13C63.9926 106.13 61.945 105.111 62.1465 103.959C62.2656 103.288 62.5832 102.634 62.9926 102.005C63.2035 101.672 63.4452 101.35 63.6939 101.038L60.4079 93.9951C59.6723 97.0689 57.4271 102.93 54.5977 103.913Z" fill="#CE6858"/>
<path d="M62.1467 103.959C61.2971 103.333 59.9709 101.996 59.7617 100.098C59.814 100.158 59.8607 100.211 59.9019 100.257C60.0596 100.554 60.2461 100.846 60.4643 101.139C61.0451 101.925 61.7502 102.488 62.5162 102.847C62.343 103.211 62.2135 103.582 62.1467 103.959Z" fill="#A25245"/>
<path d="M71.2982 88.1169C71.2982 88.1169 72.3492 93.9215 69.3187 96.2516C66.2874 98.5817 65.9805 87.7285 65.9805 87.7285L71.2982 88.1169Z" fill="#CE6858"/>
<path d="M71.1299 93.2949C71.1007 91.0153 70.6481 88.8944 69.5469 87.9883L71.2974 88.1156C71.2974 88.1156 71.4732 89.0877 71.4732 90.396C71.474 91.2742 71.3943 92.3056 71.1299 93.2949Z" fill="#763C33"/>
<path d="M60.4599 101.139C62.0219 103.255 64.487 103.75 66.5933 103.018C67.9478 102.548 69.154 101.567 69.8793 100.184C69.977 100.003 70.0632 99.812 70.1433 99.6162C71.5656 96.0104 71.8862 87.2066 68.0404 87.5353C67.2479 87.6035 66.4587 87.5923 65.6962 87.5812C63.4282 87.5478 61.3948 87.5152 60.1911 89.5559C59.7282 90.3288 59.462 91.2036 59.4016 92.1051C59.057 96.2835 58.6575 98.7242 60.4599 101.139Z" fill="#CE6858"/>
<path d="M65.5405 94.1596C65.4693 94.4909 65.6301 94.7948 65.8547 94.8265C66.0793 94.8578 66.2923 94.6062 66.342 94.2702C66.3918 93.9341 66.2473 93.6332 66.0278 93.6032C65.8088 93.5723 65.5911 93.8184 65.5405 94.1596Z" fill="#1D2A30"/>
<path d="M69.3605 94.6998C69.2893 95.0311 69.4552 95.3363 69.6746 95.3668C69.8937 95.3968 70.1123 95.1464 70.162 94.8104C70.2126 94.4739 70.0673 94.1734 69.8478 94.143C69.6288 94.1126 69.4067 94.3792 69.3605 94.6998Z" fill="#1D2A30"/>
<path d="M68.1222 94.6943C68.3786 95.7848 68.7841 96.8354 69.3271 97.8148C68.8093 98.084 68.1994 98.111 67.6602 97.8881L68.1222 94.6943Z" fill="#B93C36"/>
<path d="M64.5307 92.7538C64.6028 92.7744 64.6799 92.7555 64.7343 92.7036C65.0867 92.3359 65.5925 92.1567 66.0983 92.2193C66.2059 92.2424 66.3117 92.1743 66.3349 92.0667C66.3585 91.9595 66.2903 91.8532 66.1823 91.8301L66.1819 91.8296C65.5445 91.7341 64.9007 91.9531 64.4536 92.4182C64.3734 92.4932 64.3691 92.6196 64.4446 92.7002L64.448 92.7028L64.5307 92.7538Z" fill="#1D2A30"/>
<path d="M71.1887 93.6154L71.3048 93.6407C71.4098 93.6081 71.469 93.4971 71.4368 93.3913L71.4356 93.3874C71.2517 92.7672 70.778 92.2759 70.1651 92.0693C70.0588 92.041 69.949 92.1032 69.9207 92.2095L69.9199 92.2099C69.8942 92.3162 69.9559 92.4238 70.0605 92.4547C70.5397 92.6313 70.9066 93.0243 71.0506 93.5143C71.0798 93.567 71.1299 93.6034 71.1887 93.6154Z" fill="#1D2A30"/>
<path d="M64.8765 98.097C64.8808 98.1056 65.0557 98.4802 65.4132 98.8622C65.7694 99.2424 66.3197 99.6342 67.0621 99.635L67.1462 99.6333C67.225 99.6299 67.2868 99.5634 67.2833 99.4846C67.2803 99.4057 67.2143 99.3444 67.1354 99.3474L67.0621 99.3491C66.426 99.3491 65.949 99.0135 65.6215 98.6663C65.4586 98.4931 65.336 98.3187 65.255 98.1883C65.2143 98.1232 65.1843 98.0688 65.1641 98.0319L65.1354 97.9762C65.1024 97.905 65.0171 97.8733 64.9459 97.9072C64.8744 97.9402 64.8435 98.0255 64.8765 98.097Z" fill="#1D2A30"/>
<path d="M63.1833 87.3594L63.2361 89.2201C62.6025 89.4854 62.1747 90.1323 62.3856 90.8828C62.8348 92.4859 61.7328 94.804 60.4559 95.6506C60.4559 95.6506 60.4816 94.9759 59.9012 95.0822C59.3204 95.1885 59.1507 98.6944 60.0984 100.463C60.0984 100.463 58.0752 98.6035 57.4751 94.8503C56.9204 91.3796 57.016 89.1798 57.5085 87.5201L63.1833 87.3594Z" fill="#CE6858"/>
<path d="M60.0986 100.463C60.0986 100.463 58.0754 98.6035 57.4753 94.8503C57.2151 93.2232 57.0981 91.8755 57.0977 90.7319C57.0972 89.4357 57.2473 88.4018 57.5087 87.5201L63.1835 87.3594L63.2362 89.2201C62.7141 89.4387 62.3318 89.9171 62.3314 90.4983C62.3314 90.6222 62.3485 90.7508 62.3858 90.8828C62.4561 91.1336 62.4887 91.401 62.4878 91.6784C62.4861 93.1748 61.5328 94.9365 60.4561 95.6506C60.4561 95.6506 60.4561 95.6459 60.4561 95.6386C60.4561 95.555 60.4385 95.0711 60.0188 95.0711C59.9824 95.0711 59.9434 95.0745 59.9014 95.0822C59.6138 95.1349 59.4269 96.0209 59.4269 97.117C59.4265 98.2344 59.6202 99.5701 60.0986 100.463Z" fill="#763C33"/>
<path d="M57.1431 89.5936C57.1431 89.5936 59.5212 89.9588 63.2384 89.219C68.9993 88.0732 71.4477 90.1929 71.4477 90.1929C71.4477 90.1929 72.8151 89.018 72.6453 87.3583C72.4756 85.699 70.1738 85.4161 70.1738 85.4161C70.1738 85.4161 69.4794 83.5515 67.9534 82.9861C66.4275 82.4207 64.8981 83.8335 64.8981 83.8335C64.8981 83.8335 62.9932 81.9968 60.7776 82.5193C58.0553 83.1597 58.1183 85.7556 58.1183 85.7556C58.1183 85.7556 55.5185 86.0222 55.5751 87.3583C55.6317 88.6952 57.1431 89.5936 57.1431 89.5936Z" fill="#1D2A30"/>
<path d="M67.8484 94.437H67.7057C67.7057 94.9976 67.5085 95.503 67.1943 95.8652C66.8793 96.2274 66.4519 96.446 65.9821 96.446C65.5123 96.446 65.0854 96.2274 64.7699 95.8652C64.4553 95.503 64.2581 94.9976 64.2581 94.437C64.2581 93.8763 64.4553 93.3709 64.7699 93.0087C65.0854 92.6465 65.5123 92.4279 65.9821 92.4275C66.4519 92.4279 66.8793 92.6465 67.1943 93.0087C67.5085 93.3709 67.7057 93.8763 67.7057 94.437H67.8484H67.9916C67.9916 93.8094 67.7713 93.2385 67.4095 92.8219C67.0494 92.4052 66.5432 92.1416 65.9821 92.1416C65.4206 92.1416 64.9148 92.4052 64.5543 92.8219C64.193 93.2385 63.9727 93.8094 63.9727 94.437C63.9727 95.0649 64.193 95.6355 64.5543 96.0521C64.9148 96.4687 65.4206 96.7324 65.9821 96.7315C66.5432 96.7324 67.0494 96.4687 67.4095 96.0521C67.7713 95.6355 67.9916 95.0649 67.9916 94.437H67.8484Z" fill="#1D2A30"/>
<path d="M72.5442 94.7553H72.401C72.401 95.316 72.2038 95.8214 71.8892 96.1831C71.5742 96.5453 71.1472 96.7644 70.6774 96.7644C70.2072 96.7644 69.7803 96.5453 69.4652 96.1831C69.151 95.8214 68.9539 95.316 68.9539 94.7553C68.9539 94.1947 69.151 93.6893 69.4652 93.3271C69.7803 92.9649 70.2072 92.7459 70.6774 92.7459C71.1472 92.7459 71.5742 92.9649 71.8892 93.3271C72.2038 93.6893 72.401 94.1947 72.401 94.7553H72.5442H72.6869C72.6869 94.1274 72.4662 93.5564 72.1052 93.1398C71.7443 92.7236 71.2381 92.46 70.6774 92.46C70.1163 92.46 69.6097 92.7236 69.2492 93.1398C68.8879 93.5564 68.668 94.1274 68.668 94.7553C68.668 95.3829 68.8879 95.9538 69.2492 96.3705C69.6097 96.7867 70.1163 97.0499 70.6774 97.0499C71.2381 97.0499 71.7443 96.7867 72.1052 96.3705C72.4662 95.9538 72.6869 95.3829 72.6869 94.7553H72.5442Z" fill="#1D2A30"/>
<path d="M67.9217 94.8148L67.9285 94.8109C67.9671 94.7869 68.1669 94.6832 68.3555 94.6849C68.4819 94.6875 68.5947 94.7205 68.701 94.8461C68.7511 94.907 68.8407 94.9155 68.902 94.8649C68.9624 94.8152 68.971 94.7252 68.9213 94.6643C68.7601 94.4667 68.5415 94.3977 68.3555 94.3994C68.034 94.402 67.7811 94.5679 67.7699 94.573C67.7031 94.6146 67.6829 94.7034 67.7254 94.7698C67.7669 94.8367 67.8557 94.8564 67.9217 94.8148Z" fill="#1D2A30"/>
<path d="M64.1321 94.294L60.8539 93.8572C60.7767 93.8469 60.6991 93.8418 60.622 93.8418C60.2341 93.8418 59.8551 93.9712 59.5457 94.2117L59.4029 94.3232C59.3408 94.3716 59.3292 94.4616 59.3776 94.5238C59.4265 94.5859 59.5161 94.5971 59.5782 94.5482L59.7214 94.4368V94.4376C59.9803 94.2357 60.2975 94.1277 60.622 94.1277C60.6867 94.1277 60.751 94.1324 60.8161 94.141L64.0944 94.5773C64.1728 94.5876 64.2448 94.5328 64.2551 94.4548C64.2654 94.3763 64.2106 94.3047 64.1321 94.294Z" fill="#1D2A30"/>
<path d="M57.1087 95.2506C57.4362 96.2554 58.1482 97.0886 59.0895 97.5687C60.3398 98.1954 61.231 97.1401 61.1105 95.819C60.9914 94.6462 60.2104 92.8699 58.8426 92.8061C57.4756 92.7414 56.7225 94.0127 57.1087 95.2506Z" fill="#CE6858"/>
<path d="M36.2266 125.968C36.3675 125.322 36.5136 124.669 36.6597 124.022C36.8414 123.218 37.0269 122.418 37.2154 121.625C36.8757 123.057 36.5463 124.514 36.2296 125.967C36.2288 125.968 36.2274 125.968 36.2266 125.968Z" fill="#CECDCB"/>
<path d="M36.2305 125.969C36.5471 124.516 36.8766 123.058 37.2162 121.626C37.2626 121.431 37.3092 121.237 37.3559 121.043C39.1477 119.882 42.2826 117.757 45.0294 115.411C45.3333 115.151 45.6175 114.838 45.8803 114.483C45.7465 114.771 41.5343 123.763 36.2305 125.969Z" fill="#678ACF"/>
<path d="M65.9375 126.951L75.2446 123.533L75.5086 124.325L66.2011 127.641L65.9375 126.951Z" fill="#4870C0"/>
<path d="M39.1853 167.108L12.2148 162.83L14.8534 146.195L41.8239 150.473L39.1853 167.108Z" fill="#4870C0"/>
<path d="M24.1344 152.02L18.6561 154.86C18.4951 154.944 18.3831 155.099 18.3547 155.278C18.3263 155.458 18.3846 155.64 18.5121 155.769L22.8429 160.164C23.0644 160.389 23.4263 160.391 23.6511 160.17C23.8759 159.948 23.8786 159.587 23.6571 159.362L19.8701 155.518L24.6604 153.035C24.9406 152.89 25.0502 152.545 24.9049 152.265C24.7595 151.985 24.4146 151.875 24.1344 152.02Z" fill="white"/>
<path d="M29.8972 161.283L35.3755 158.444C35.5365 158.361 35.6483 158.205 35.6769 158.026C35.7052 157.847 35.647 157.665 35.5195 157.535L31.1887 153.14C30.9672 152.915 30.6053 152.913 30.3805 153.134C30.1557 153.356 30.153 153.718 30.3745 153.942L34.1615 157.785L29.3712 160.268C29.091 160.413 28.9814 160.759 29.1268 161.039C29.2721 161.319 29.617 161.428 29.8972 161.283Z" fill="white"/>
<path d="M25.6557 160.338L29.3712 153.511C29.5219 153.233 29.4196 152.887 29.1424 152.736C28.8651 152.585 28.518 152.687 28.367 152.964L24.6517 159.792C24.5008 160.069 24.6033 160.416 24.8805 160.567C25.1578 160.717 25.5047 160.615 25.6557 160.338Z" fill="white"/>
<path d="M39.5842 107.442C39.5842 107.442 29.4213 117.646 28.0328 119.631C26.6442 121.615 23.9955 143.598 23.9955 143.598C23.9955 143.598 23.4371 143.792 23.3887 144.267C23.3402 144.743 23.2994 150.916 23.3887 151.202C23.4777 151.488 28.1585 154.375 28.8467 153.688C29.535 153.002 30.4987 146.01 30.4987 146.01L28.0328 143.598C28.0328 143.598 30.9042 127.407 32.6976 124.787C34.4907 122.166 41.8982 116.551 41.8982 116.551L39.5842 107.442Z" fill="#CE6858"/>
<path d="M47.4004 103.335C48.8822 106.472 47.7553 113.078 45.0257 115.409C40.8957 118.937 35.8884 121.965 35.8884 121.965L30.8945 115.437C30.8945 115.437 36.1982 110.258 39.41 107.275C43.3163 103.647 47.4004 103.335 47.4004 103.335Z" fill="#4870C0"/>
<path d="M35.8884 121.965L35.669 121.679L31.295 115.961L30.8945 115.437C30.8945 115.437 36.1982 110.258 39.41 107.275C43.3163 103.647 47.4004 103.335 47.4004 103.335C47.8475 104.281 48.0571 105.544 48.0566 106.91C48.0562 109.565 47.2615 112.612 45.8766 114.482C45.6138 114.837 45.3296 115.15 45.0257 115.409C42.2789 117.755 39.144 119.881 37.3523 121.041C37.3523 121.041 37.352 121.041 37.3518 121.042C36.4501 121.626 35.8884 121.965 35.8884 121.965Z" fill="#8DAEE0"/>
<path d="M30.8905 115.017L30.2734 115.858L35.4832 122.667L36.2197 122.138L30.8905 115.017Z" fill="#4870C0"/>
</svg>
