<svg width="285" height="285" viewBox="0 0 285 285" fill="none" xmlns="http://www.w3.org/2000/svg">
<path d="M285 0H0V285H285V0Z" fill="#F3DFDF"/>
<path d="M283.873 177.825L273.612 250.129H12.6887L4.98284 194.97C4.12584 188.791 7.53047 182.802 13.2759 180.404L36.4337 170.761V147.649C36.4337 140.839 41.4014 135.066 48.116 134.086L53.5913 133.282L62.7893 102.071C64.5036 96.2411 69.8371 92.252 75.8844 92.252H169.967C173.545 92.252 176.823 93.6372 179.267 95.9152C181.712 98.201 183.323 101.378 183.585 104.962L228.384 109.709C235.035 110.417 240.194 115.841 240.59 122.539L242.4 153.726L274.057 162.701C280.644 164.564 284.834 171.031 283.873 177.825Z" fill="#DDECF1"/>
<path d="M28.335 192.736L36.4799 250.129H243.591L249.707 206.347C250.388 201.441 247.685 196.687 243.124 194.785L224.743 187.129V168.784C224.743 163.38 220.8 158.796 215.47 158.019L211.124 157.381L203.822 132.606C202.462 127.979 198.229 124.812 193.429 124.812H118.75C115.909 124.812 113.308 125.912 111.367 127.72C109.426 129.534 108.148 132.057 107.941 134.901L72.3802 138.669C67.1014 139.232 63.0065 143.536 62.6915 148.853L61.2551 173.608L36.1273 180.732C30.8985 182.211 27.5726 187.344 28.335 192.736Z" fill="#CFDCE4"/>
<path d="M199.193 228.743C199.193 222.557 194.679 217.312 188.58 216.422L183.605 215.691L175.249 187.337C173.692 182.042 168.847 178.417 163.353 178.417H77.8838C74.6323 178.417 71.6541 179.675 69.4342 181.745C67.2136 183.821 65.7499 186.708 65.5117 189.964L28.5078 193.884L36.4903 250.129H200.13L199.193 249.738V228.743Z" fill="#BDD0D8"/>
<path d="M59.0508 103.101H122.541V43.6338H59.0508V103.101Z" fill="#192941"/>
<path d="M59.0508 49.9239H122.541V43.6348H59.0508V49.9239Z" fill="#2C4666"/>
<path d="M108.805 46.85C108.805 47.4868 108.291 48.0034 107.657 48.0034C107.022 48.0034 106.508 47.4868 106.508 46.85C106.508 46.2133 107.022 45.6973 107.657 45.6973C108.291 45.6973 108.805 46.2133 108.805 46.85Z" fill="#5C60B6"/>
<path d="M113.61 46.85C113.61 47.4868 113.096 48.0034 112.461 48.0034C111.827 48.0034 111.312 47.4868 111.312 46.85C111.312 46.2133 111.827 45.6973 112.461 45.6973C113.096 45.6973 113.61 46.2133 113.61 46.85Z" fill="#F8CF3E"/>
<path d="M118.063 46.9711C118.063 47.6079 117.548 48.1238 116.915 48.1238C116.28 48.1238 115.766 47.6079 115.766 46.9711C115.766 46.3343 116.28 45.8184 116.915 45.8184C117.548 45.8184 118.063 46.3343 118.063 46.9711Z" fill="#F46B6F"/>
<path d="M79.3244 56.5269H70.332V55.7686H79.3244V56.5269Z" fill="#F46B6F"/>
<path d="M89.8791 56.5269H80.8867V55.7686H89.8791V56.5269Z" fill="#F8CF3E"/>
<path d="M87.0571 60.6147H73.1133V59.8564H87.0571V60.6147Z" fill="#5C60B6"/>
<path d="M96.4552 60.6147H89.3672V59.8564H96.4552V60.6147Z" fill="#F46B6F"/>
<path d="M84.0772 64.6993H77.9531V63.9404H84.0772V64.6993Z" fill="#F8CF3E"/>
<path d="M107.938 64.6993H87.6211V63.9404H107.938V64.6993Z" fill="#F8CF3E"/>
<path d="M105.934 68.7847H82.7148V68.0264H105.934V68.7847Z" fill="#5C60B6"/>
<path d="M84.0483 72.8705H76.9023V72.1123H84.0483V72.8705Z" fill="#F46B6F"/>
<path d="M94.2476 72.8705H87.1016V72.1123H94.2476V72.8705Z" fill="#5C60B6"/>
<path d="M80.7283 93.3086H70.332V94.0668H80.7283V93.3086Z" fill="#F46B6F"/>
<path d="M94.7627 93.3086H84.3672V94.0668H94.7627V93.3086Z" fill="#F8CF3E"/>
<path d="M108.423 93.3086H98.0273V94.0668H108.423V93.3086Z" fill="#F46B6F"/>
<path d="M93.4299 89.2246H73.1133V89.9828H93.4299V89.2246Z" fill="#5C60B6"/>
<path d="M116.922 89.2246H96.6055V89.9828H116.922V89.2246Z" fill="#F46B6F"/>
<path d="M98.1141 85.1367H77.9531V85.8949H98.1141V85.1367Z" fill="#F46B6F"/>
<path d="M105.478 85.1367H99.8672V85.8949H105.478V85.1367Z" fill="#F8CF3E"/>
<path d="M84.2266 81.0518H76.6367V81.8101H84.2266V81.0518Z" fill="#F8CF3E"/>
<path d="M95.8477 81.0518H88.2578V81.8101H95.8477V81.0518Z" fill="#5C60B6"/>
<path d="M108.321 81.0518H100.73V81.8101H108.321V81.0518Z" fill="#F46B6F"/>
<path d="M96.0763 76.9658H85.4336V77.7247H96.0763V76.9658Z" fill="#F8CF3E"/>
<path d="M81.4157 76.9658H70.7734V77.7247H81.4157V76.9658Z" fill="#5C60B6"/>
<path d="M65.4163 56.0121H64.4492V55.041H65.4163V56.0121Z" fill="#FBFDFE"/>
<path d="M65.4163 60.962H64.4492V58.9824H65.4163V60.962ZM65.4163 65.9118H64.4492V63.9323H65.4163V65.9118ZM65.4163 70.8623H64.4492V68.8821H65.4163V70.8623ZM65.4163 75.8122H64.4492V73.832H65.4163V75.8122ZM65.4163 80.762H64.4492V78.7825H65.4163V80.762ZM65.4163 85.7125H64.4492V83.733H65.4163V85.7125ZM65.4163 90.6624H64.4492V88.6829H65.4163V90.6624Z" fill="#FBFDFE"/>
<path d="M65.4163 94.603H64.4492V93.6318H65.4163V94.603Z" fill="#FBFDFE"/>
<path d="M188.487 63.3383H136.207V31H188.487V63.3383Z" fill="#F46B6F"/>
<path d="M156.497 44.0062L150.276 46.6708L156.497 49.2957L155.682 51.1812L148.223 47.8373V45.5233L155.682 42.1592L156.497 44.0062Z" fill="#FBFDFE"/>
<path d="M165.666 37.8433L161.15 55.2459L159 54.7404L163.534 37.3574L165.666 37.8433Z" fill="#FBFDFE"/>
<path d="M176.461 45.5233V47.8373L169.002 51.1812L168.188 49.2957L174.388 46.6708L168.188 44.0062L169.002 42.1592L176.461 45.5233Z" fill="#FBFDFE"/>
<path d="M216.456 114.938H186.68V93.6494H216.456V114.938Z" fill="#5C60B6"/>
<path d="M199.144 98.2454C198.186 98.2454 197.866 98.5046 197.866 99.2217V102.426C197.866 103.677 197.349 104.059 196.482 104.303C197.349 104.532 197.866 104.913 197.866 106.149V109.353C197.866 110.07 198.201 110.329 199.144 110.329V111.733C196.726 111.733 196.042 110.955 196.042 109.338V106.302C196.042 105.432 195.815 105.096 195.023 105.096V103.494C195.815 103.494 196.042 103.143 196.042 102.273V99.2368C196.042 97.6047 196.726 96.8418 199.144 96.8418V98.2454Z" fill="#F4F6F5"/>
<path d="M207.105 99.2368V102.273C207.105 103.143 207.332 103.494 208.138 103.494V105.096C207.332 105.096 207.105 105.432 207.105 106.302V109.338C207.105 110.955 206.42 111.733 204.004 111.733V110.329C204.946 110.329 205.28 110.07 205.28 109.353V106.149C205.28 104.913 205.798 104.532 206.665 104.303C205.798 104.059 205.28 103.677 205.28 102.426V99.2217C205.28 98.5046 204.962 98.2454 204.004 98.2454V96.8418C206.42 96.8418 207.105 97.6047 207.105 99.2368Z" fill="#F4F6F5"/>
<path d="M72.2422 58.062H38.8359V35.6396H72.2422V58.062Z" fill="#F8CF3E"/>
<path d="M56.9326 48.2455C55.4207 49.762 52.9613 49.762 51.4494 48.2448C49.9376 46.7277 49.9376 44.2603 51.4494 42.7431C52.9613 41.2259 55.4207 41.2259 56.9326 42.7431C58.4444 44.2603 58.4444 46.7283 56.9326 48.2455ZM49.8953 42.073C48.3001 44.0767 48.3249 47.0033 49.95 48.9822C51.7963 51.2302 54.9593 51.5926 57.2319 50.0722L60.7385 53.5905C60.8863 53.7387 61.1258 53.7387 61.2742 53.5905L62.2589 52.6017C62.4073 52.4534 62.4073 52.2124 62.2589 52.0642L58.7529 48.5459C60.173 46.409 59.9452 43.487 58.0683 41.6034C55.7839 39.3111 51.9701 39.4678 49.8953 42.073Z" fill="#FBFDFE"/>
<path d="M169.42 104.896C169.347 105.636 168.339 113.369 160.415 113.369C152.097 113.369 153.49 105.104 153.49 105.104L153.48 105.053C154.291 104.885 155.164 104.823 156.09 104.927V101.014L165.532 95.7129H165.875V104.844C165.875 104.844 167.371 104.666 169.42 104.896Z" fill="url(#paint0_radial_419_2)"/>
<path d="M164.849 78.2458C166.188 79.6081 167.199 81.3709 167.687 83.5254C168.593 87.5394 167.74 91.7865 166.58 95.6549C166.381 96.3171 166.156 96.9846 165.748 97.5417C165.458 97.9388 165.084 98.266 164.713 98.5899C163.034 100.057 161.355 101.525 159.68 102.997C158.544 103.995 151.551 104.826 150.217 103.869C145.075 100.179 144.084 89.4896 145.114 84.0238C146.822 74.9574 158.434 71.7161 164.849 78.2458Z" fill="url(#paint1_radial_419_2)"/>
<path d="M161.951 89.8491C162.019 88.9765 162.914 88.021 163.811 88.5873C164.74 89.1738 164.522 90.7236 164.137 91.5759C163.835 92.2453 162.825 92.9774 162.141 92.3557C161.568 91.8339 162.458 91.2193 162.487 90.7432C162.514 90.3147 161.66 90.0078 162.01 89.5493" fill="#F7A388"/>
<path d="M162.109 93.8848C163.046 94.167 164.634 93.4498 165.036 92.1397C165.438 90.8296 165.395 89.334 165.395 89.334C165.395 89.334 165.866 90.52 165.624 92.4284C165.381 94.3361 164.715 96.1537 163.222 96.1779C161.731 96.2014 162.109 93.8848 162.109 93.8848Z" fill="#F7A388"/>
<path d="M160.961 92.5277L160.856 92.559C160.275 92.6407 160.043 91.936 159.958 91.4951C159.756 90.4652 159.788 89.4228 159.753 88.3811C159.744 88.1199 159.764 87.794 159.658 87.5484C159.332 86.7993 158.463 86.3128 158.198 85.5388C157.89 84.6389 158.761 83.7408 158.415 82.756C157.886 81.2466 155.955 80.8999 154.557 80.9162C152.462 80.941 150.419 81.3309 148.35 81.6529C146.167 81.9931 143.377 82.3158 141.452 80.9299C139.133 79.2599 138.164 74.907 139.895 72.5245C140.838 71.2248 142.627 70.5332 144.194 70.4972C145.856 70.4587 147.26 71.4527 148.784 71.953C149.997 72.3514 151.171 71.1863 152.306 70.959C153.732 70.6729 154.338 72.2352 155.6 72.2776C156.826 72.3194 158.027 71.3587 159.219 71.1406C161.595 70.7049 161.455 73.0999 163.049 73.9175C164.04 74.4263 165.32 74.118 166.322 74.6347C167.084 75.0272 167.19 75.7168 167.357 76.4979C167.5 77.1739 167.508 77.9537 167.73 78.5957C167.929 79.1731 168.412 79.5375 168.789 79.9888C169.2 80.4819 169.463 81.0566 169.671 81.6744C170.134 83.0446 170.236 84.5226 170.111 85.9568C169.899 88.3641 169.126 90.7343 168.325 93.0018C167.805 94.4726 167.612 96.0048 166.812 97.3972C166.597 97.7714 165.644 98.8647 165.289 98.0503C165.212 97.8759 165.224 97.6774 165.237 97.4873C165.344 95.9702 166.751 86.1972 163.061 87.3708C162.286 87.6177 161.767 88.2642 161.478 89.0016C161.133 89.8846 161.109 90.7734 161.152 91.7061C161.159 91.8393 161.162 91.9732 161.157 92.1064C161.15 92.2789 161.108 92.4539 160.961 92.5277Z" fill="#38397C"/>
<path d="M156.091 104.032C160.286 103.355 163.055 100.03 163.055 100.03C163.055 100.03 161.923 105.634 155.84 105.931L156.091 104.032Z" fill="#F7A388"/>
<path d="M162.977 180.427H168.981V238.244C168.981 238.83 168.507 239.306 167.922 239.306H164.035C163.45 239.306 162.977 238.83 162.977 238.244V180.427Z" fill="#16202D"/>
<path d="M149.469 181.253H182.493V182.158C182.493 184.435 180.653 186.281 178.383 186.281H153.578C151.309 186.281 149.469 184.435 149.469 182.158V181.253Z" fill="#2F415B"/>
<path d="M162.977 232.449H168.981V245.846C168.981 246.433 168.507 246.908 167.922 246.908H164.035C163.45 246.908 162.977 246.433 162.977 245.846V232.449Z" fill="#16202D"/>
<path d="M134.816 243.381C134.816 245.329 136.39 246.908 138.331 246.908C140.271 246.908 141.846 245.329 141.846 243.381C141.846 241.433 140.271 239.855 138.331 239.855C136.39 239.855 134.816 241.433 134.816 243.381Z" fill="#16202D"/>
<path d="M190.113 243.381C190.113 245.329 191.687 246.908 193.629 246.908C195.569 246.908 197.143 245.329 197.143 243.381C197.143 241.433 195.569 239.855 193.629 239.855C191.687 239.855 190.113 241.433 190.113 243.381Z" fill="#16202D"/>
<path d="M159.934 238.552H172.014V227.958H159.934V238.552Z" fill="#2F415B"/>
<path d="M134.816 241.046H197.139V239.817C197.139 237.742 195.463 236.061 193.395 236.061H138.559C136.493 236.061 134.816 237.742 134.816 239.817V241.046Z" fill="#F8CF3E"/>
<path d="M165.984 227.014H163.902V187.47H165.984V227.014Z" fill="#2F415B"/>
<path d="M189.57 138.52C188.129 138.475 186.957 139.672 187.041 141.116C187.453 148.293 185.937 165.803 179.275 171.777C171.13 179.082 148.043 178.086 148.043 178.086C148.043 178.086 144.23 182.782 151.856 183.825C159.481 184.869 180.97 184.174 186.17 179.305C191.203 174.59 194.19 162.241 191.938 140.746C191.809 139.514 190.805 138.559 189.57 138.52Z" fill="#F8CF3E"/>
<path d="M146.309 227.013L149.055 233.296L140.642 237L137.887 230.698L146.309 227.013Z" fill="url(#paint2_radial_419_2)"/>
<path d="M185.989 157.195C185.47 158.24 148.093 157.216 144.563 157.54C144.563 157.54 121.688 168.497 118.402 178.754C118.069 179.787 117.975 181.154 118.08 182.782C118.994 197.223 135.382 231.804 135.382 231.804L137.898 230.698L146.321 227.014L147.516 226.493C147.516 226.493 134.518 187.623 137.119 185.537C139.718 183.449 169.175 178.232 179.397 175.457C189.629 172.67 185.989 157.195 185.989 157.195Z" fill="#504B90"/>
<path d="M114.248 228.631L114.906 238.068H105.723L105.066 228.61L114.248 228.631Z" fill="url(#paint3_radial_419_2)"/>
<path d="M144.376 157.216L144.042 157.362C144.042 157.362 105.745 162.758 99.5074 173.537C95.4514 180.548 103.301 231.786 103.301 231.786L116.849 231.817C116.849 231.817 114.823 189.136 115.499 186.757C116.258 184.044 117.559 183.063 118.078 182.782C117.974 181.154 118.067 179.787 118.401 178.754C121.686 168.497 144.562 157.539 144.562 157.539C144.49 157.488 144.427 157.373 144.376 157.216Z" fill="#38397C"/>
<path d="M181.365 121.706L178.797 122.061C178.797 122.061 178.173 129.01 176.644 135.96L144.649 148.148L144.212 150.475C144.077 150.464 143.942 150.454 143.816 150.443C143.827 150.923 143.827 151.393 143.848 151.831C143.921 154.513 144.097 156.443 144.378 157.215C144.43 157.372 144.493 157.487 144.566 157.538C145.435 158.25 156.751 156.872 168.984 161.379C179.595 165.289 185.542 169.559 185.817 168.986C189.151 162.029 183.081 134.729 181.365 121.706Z" fill="#F46B6F"/>
<path d="M178.027 137.632C177.174 141.743 174.97 149.924 170.644 151.02C164.998 152.46 154.08 152.387 143.848 151.834C143.827 151.396 143.827 150.926 143.816 150.446C143.942 150.456 144.077 150.467 144.212 150.477L144.649 148.15L176.644 135.963C178.173 129.013 178.797 122.064 178.797 122.064C178.797 122.064 178.797 122.105 178.807 122.178C178.869 123.253 179.306 131.56 178.027 137.632Z" fill="#F14B53"/>
<path d="M145.955 111.451C145.383 112.494 144.561 123.659 144.114 134.741L137.574 128.616C140.349 123.221 145.955 111.451 145.955 111.451Z" fill="#F14B53"/>
<path d="M142.033 142.837C136.511 143.797 131.437 144.622 131.437 144.622L131.427 144.893C125.282 139.968 115.934 126.017 115.934 126.017C115.934 126.017 118.731 122.646 119.427 121.759C119.531 121.623 134.775 132.152 135.555 132.058C135.753 132.038 136.532 130.66 137.573 128.615L144.113 134.74C144.008 137.38 143.925 140.009 143.874 142.503C143.26 142.618 142.647 142.722 142.033 142.837Z" fill="#F7A388"/>
<path d="M131.441 144.624L131.306 149.194H114.668C114.668 149.194 116.322 142.672 120.824 142.672C125.327 142.672 127.063 145.062 127.063 145.062L131.441 144.624Z" fill="url(#paint4_radial_419_2)"/>
<path d="M119.308 121.656L119.433 121.76C118.737 122.647 115.94 126.018 115.94 126.018L114.203 124.786C114.203 124.786 112.29 125.955 110.064 124.734C107.745 123.471 109.18 120.456 109.3 120.099C108.851 120.227 106.071 122.48 105.635 122.24C105.198 122 104.877 121.207 107.985 118.129C111.084 115.051 115.305 119.005 115.43 119.005L119.308 121.656Z" fill="#F7A388"/>
<path d="M110.418 124.209C110.418 124.209 109.748 125.468 110.94 126.016C112.131 126.563 114.449 126.959 115.446 126.863C116.441 126.766 117.234 125.368 117.234 125.368L114.217 122.527H111.806L110.418 124.209Z" fill="#F7A388"/>
<path d="M110.243 124.828C110.421 124.21 112.134 124.539 113.196 124.565C113.979 124.583 114.406 124.377 114.648 123.779C114.89 123.182 113.754 122.229 113.531 122.528C113.308 122.826 113.941 123.248 113.96 123.644C113.979 124.041 112.843 124.172 111.967 124.172C111.092 124.172 109.582 124.401 109.582 124.401L110.243 124.828Z" fill="#E9896F"/>
<path d="M175.007 141.884L158.713 136.093C157.527 138.316 156.259 139.985 155.002 140.32C153.098 140.82 148.502 141.686 143.864 142.5C143.251 142.615 142.638 142.719 142.024 142.834C136.503 143.793 131.428 144.618 131.428 144.618L131.418 144.889V145.067L131.293 149.189V150.235C131.293 150.235 136.825 149.95 143.802 150.441C153.567 151.139 166.159 151.557 170.328 149.586C172.283 148.656 173.843 145.61 175.07 141.853L175.007 141.884Z" fill="url(#paint5_radial_419_2)"/>
<path d="M158.726 136.097L175.02 141.889L174.283 144.073L158.156 137.131L158.726 136.097Z" fill="#F7A388"/>
<path d="M158.724 136.095C157.538 138.318 156.27 139.988 155.012 140.322C153.11 140.822 148.513 141.688 143.875 142.502C143.927 140.008 144.011 137.379 144.114 134.739C144.562 123.657 145.384 112.492 145.956 111.449C146.89 109.706 149.449 105.918 153.483 105.052L153.494 105.104C153.494 105.104 152.1 113.369 160.419 113.369C168.342 113.369 169.352 105.636 169.423 104.896C173.5 105.355 179.749 107.4 180.612 115.622C180.789 117.25 181.039 119.337 181.36 121.706L178.792 122.061C178.792 122.061 177.752 133.643 175.081 141.855L175.018 141.887L158.724 136.095Z" fill="#F46B6F"/>
<path d="M160.265 135.228L158.551 134.589L165.057 118.784L160.265 135.228Z" fill="#F7978B"/>
<path d="M169.417 104.898H165.872C165.872 104.898 160.826 110.457 157.582 110.457C154.338 110.457 156.086 104.929 156.086 104.929H154.504C149.959 104.929 146.133 108.354 145.618 112.887C145.559 113.406 145.505 113.899 145.46 114.344C145.113 117.707 158.69 120.155 158.69 120.155L165.682 119.763L169.927 111.451L170.773 108.047L169.417 104.898Z" fill="#F46B6F"/>
<path d="M126.633 244.231C126.949 245.93 128.124 247.139 129.818 246.821L152.402 242.595C152.974 242.487 153.349 241.936 153.244 241.363L152.87 239.352C152.87 239.352 129.116 243.523 126.621 244.218L126.633 244.231Z" fill="#F4F6F5"/>
<path d="M133.352 238.525C133.588 238.32 133.814 238.116 134.05 237.912C134.502 237.505 134.949 237.108 135.378 236.725C135.605 236.522 135.831 236.318 136.041 236.127C136.454 235.756 136.842 235.409 137.19 235.097C137.44 234.871 137.674 234.657 137.885 234.465C138.27 234.118 138.585 233.835 138.806 233.636C138.998 233.464 139.283 233.456 139.478 233.622C140.407 234.405 143.407 236.196 148.843 232.821C149.1 232.661 149.442 232.745 149.583 233.015L152.87 239.353C152.87 239.353 129.116 243.524 126.621 244.219C127.442 243.705 130.474 241.073 133.352 238.525Z" fill="#38397C"/>
<path d="M91.0677 244.008C91.1093 245.737 92.0765 247.118 93.7999 247.075L116.766 246.513C117.347 246.498 117.807 246.014 117.793 245.432L117.743 243.387C117.743 243.387 93.632 243.707 91.0586 243.994L91.0677 244.008Z" fill="#F4F6F5"/>
<path d="M98.6068 239.45C98.8723 239.285 99.1275 239.121 99.393 238.956C99.9057 238.626 100.408 238.306 100.892 237.997C101.148 237.832 101.404 237.668 101.643 237.513C102.108 237.213 102.546 236.932 102.94 236.68C103.223 236.495 103.488 236.321 103.725 236.167C104.162 235.885 104.518 235.656 104.768 235.496C104.984 235.356 105.266 235.394 105.434 235.589C106.225 236.51 108.904 238.758 114.805 236.296C115.084 236.179 115.409 236.316 115.504 236.605L117.743 243.388C117.743 243.388 93.632 243.708 91.0586 243.995C91.9496 243.619 95.3605 241.505 98.6068 239.45Z" fill="#38397C"/>
<path d="M74.7269 150.237L62.4609 117.41H97.3806L109.646 150.237H74.7269Z" fill="#A9B4B8"/>
<path d="M111.802 150.237H109.643L97.3789 117.41L99.3384 117.497L110.683 147.211L111.802 150.237Z" fill="#7F939F"/>
<path d="M111.133 150.237H134.206L134.143 148.168C134.143 148.168 111.046 148.168 110.66 148.168" fill="#7F939F"/>
<path d="M209.427 248.086H203.871V156.5H209.427V248.086Z" fill="#7F939F"/>
<path d="M179.274 248.086H173.719V156.5H179.274V248.086Z" fill="#A9B4B8"/>
<path d="M82.6719 248.086H77.1172V156.5H82.6719V248.086Z" fill="#7F939F"/>
<path d="M52.5163 248.086H46.9609V156.5H52.5163V248.086Z" fill="#A9B4B8"/>
<path d="M214.987 156.846H41.6337C40.1425 156.846 38.9336 155.632 38.9336 154.136V152.947C38.9336 151.45 40.1425 150.238 41.6337 150.238H214.987C216.477 150.238 217.686 151.45 217.686 152.947V154.136C217.686 155.632 216.477 156.846 214.987 156.846Z" fill="#202450"/>
<path d="M68.293 120.861L68.8905 122.459H75.8464L75.249 120.861H68.293Z" fill="#7F939F"/>
<path d="M137.573 128.615L137.074 129.583L144.115 136.884V134.74L137.573 128.615Z" fill="#E9896F"/>
<path d="M281.255 253.349H0.15625V246.907H281.255V253.349Z" fill="#A4B7C7"/>
<path d="M236.687 199.136C235.571 204.573 235.907 213.835 228.74 215.301C226.81 215.696 224.944 214.354 223.823 212.815C222.354 210.802 222.003 206.54 222.029 204.102C222.049 202.17 222.705 200.016 222.917 198.067C223.146 195.962 223.331 193.852 223.575 191.749C224.457 184.167 228.404 177.813 235.08 174.029C235.596 176.518 236.774 178.624 237.812 181.014C238.286 182.103 238.713 183.252 239.021 184.393C239.567 186.415 238.906 188.458 238.417 190.394C237.693 193.257 237.282 196.24 236.687 199.136Z" fill="url(#paint6_linear_419_2)"/>
<path d="M227.523 215.484C227.574 215.028 227.63 214.572 227.69 214.116C228.547 214.114 229.439 213.625 230.157 213.252C231.404 212.603 232.415 211.673 233.395 210.679L233.303 210.587C232.326 211.41 231.313 212.208 230.151 212.752C229.503 213.055 228.555 213.551 227.756 213.647C227.83 213.103 227.914 212.56 228.004 212.017C228.896 211.907 229.713 211.32 230.468 210.87C231.752 210.106 232.855 209.117 234 208.164L233.983 208.144C232.233 209.42 230.283 211.235 228.069 211.633C228.186 210.954 228.31 210.276 228.452 209.603L228.474 209.498C231.037 208.848 232.77 206.831 234.733 205.201L234.697 205.146C232.765 206.652 230.948 208.37 228.561 209.101C228.768 208.138 228.983 207.178 229.201 206.22C231.518 205.361 233.37 203.998 234.99 202.099L234.943 202.053C233.266 203.805 231.42 204.811 229.292 205.808C229.507 204.859 229.72 203.91 229.921 202.957C230.925 202.463 231.979 202.162 232.906 201.511C233.819 200.869 234.64 200.103 235.227 199.148L235.15 199.098C233.853 200.97 231.897 201.552 230.007 202.537C230.191 201.649 230.364 200.76 230.517 199.865C232.623 198.701 234.912 197.622 236.105 195.392L236.072 195.37C234.808 197.419 232.598 198.301 230.592 199.417C230.618 199.257 230.647 199.099 230.671 198.939C230.801 198.11 230.922 197.279 231.041 196.449C232.251 195.961 233.405 195.275 234.493 194.563C235.266 194.057 236.091 193.557 236.598 192.764L236.523 192.711C235.393 194.336 232.919 195.275 231.092 196.087C231.211 195.248 231.328 194.409 231.448 193.569C233.475 192.338 235.86 191.657 237.108 189.437C237.146 189.372 237.049 189.311 237.008 189.375C235.716 191.402 233.441 192.027 231.504 193.177C231.577 192.657 231.653 192.137 231.731 191.618C233.921 190.81 236.467 188.97 237.622 186.984C237.686 186.875 237.528 186.773 237.457 186.878C236.279 188.621 233.913 190.516 231.796 191.205C231.925 190.364 232.061 189.523 232.21 188.684L232.242 188.61C233.225 188.319 234.197 187.624 235.046 187.098C236.069 186.465 237.045 185.729 237.682 184.687C237.753 184.573 237.566 184.466 237.5 184.584C236.527 186.326 234.219 187.494 232.309 188.159C232.365 187.852 232.419 187.547 232.48 187.241C232.57 186.785 232.663 186.327 232.755 185.871C233.538 185.329 234.532 185.07 235.317 184.497C236 183.999 236.596 183.4 237.182 182.791C237.239 182.732 237.153 182.639 237.092 182.697C236.3 183.444 235.484 184.162 234.519 184.68C233.979 184.97 233.364 185.135 232.842 185.453C232.994 184.706 233.147 183.96 233.292 183.212L233.32 183.206L233.348 183.212L233.477 183.172C234.541 182.903 235.354 181.984 236.069 181.201L236.042 181.172C235.291 181.868 234.438 182.639 233.434 182.938L233.424 182.933L233.348 182.921C233.464 182.313 233.574 181.703 233.676 181.093C233.753 181.079 233.819 181.013 233.801 180.936C234.365 180.557 234.878 180.072 235.359 179.598L235.305 179.54C234.806 179.973 234.313 180.329 233.75 180.641C233.949 179.38 234.102 178.111 234.173 176.831C234.179 176.712 234.001 176.71 233.99 176.827C233.879 178.06 233.701 179.282 233.489 180.497C232.902 179.725 232.249 178.929 231.89 178.045L231.815 178.067C231.991 178.616 232.294 179.096 232.593 179.585C232.861 180.022 233.075 180.53 233.417 180.918C233.298 181.571 233.171 182.221 233.037 182.872C232.324 182.757 231.669 182.621 231.08 182.102C230.36 181.468 229.949 180.606 229.878 179.649C229.869 179.531 229.684 179.532 229.695 179.649C229.777 180.539 230.129 181.376 230.735 182.039C231.373 182.737 232.122 182.959 232.981 183.138C232.825 183.889 232.663 184.638 232.499 185.388C231.851 184.998 231.249 184.488 230.665 184.021C229.723 183.267 229.167 182.36 228.349 181.511C228.266 181.427 228.132 181.549 228.213 181.635C228.98 182.453 229.499 183.339 230.37 184.074C230.998 184.603 231.692 185.266 232.44 185.657L232.414 185.776L232.389 185.797L232.372 185.965C232.215 186.682 232.059 187.4 231.907 188.119L231.881 188.255C230.213 187.489 227.722 186.158 227.501 184.217C227.48 184.032 227.206 184.083 227.248 184.272C227.741 186.469 230.147 187.443 231.804 188.641C231.641 189.454 231.491 190.269 231.354 191.087C230.277 190.714 229.252 190.254 228.349 189.533C227.526 188.877 226.364 188.086 225.993 187.069L225.945 187.09C226.288 188.1 227.332 188.795 228.092 189.484C229.054 190.359 230.041 191.102 231.279 191.452L231.276 191.561C231.191 192.079 231.109 192.598 231.03 193.118C229.005 192.962 226.172 191.418 225.137 189.882L225.127 189.889C225.832 191.062 226.9 191.747 228.102 192.342C229.001 192.787 229.972 193.312 230.988 193.388C230.844 194.349 230.702 195.311 230.56 196.273C229.681 195.945 228.75 195.788 227.881 195.439C226.589 194.92 225.602 193.987 224.841 192.841C224.795 192.772 224.68 192.83 224.726 192.902C226.127 195.138 228.144 195.795 230.506 196.632C230.388 197.421 230.265 198.209 230.135 198.997C228.202 198.625 225.702 197.441 224.724 195.756C224.652 195.632 224.455 195.735 224.527 195.859C225.145 196.94 226.21 197.622 227.296 198.173C228.079 198.569 229.156 199.226 230.087 199.297L230.075 199.374C229.883 200.507 229.66 201.635 229.42 202.758C227.259 202.213 225.863 200.608 224.294 199.105C224.185 199.001 224.014 199.16 224.122 199.267C225.722 200.846 227.126 202.503 229.348 203.088C229.149 204.002 228.937 204.914 228.716 205.823C226.878 205.307 225.056 203.997 223.866 202.492C223.782 202.385 223.634 202.53 223.715 202.636C224.951 204.269 226.734 205.501 228.632 206.176C228.393 207.152 228.146 208.126 227.896 209.1C226.007 208.811 224.551 207.624 223.387 206.123L223.324 206.17C224.359 207.614 225.923 209.281 227.805 209.456C227.725 209.767 227.645 210.077 227.565 210.388C227.518 210.574 227.467 210.764 227.415 210.957C225.99 210.536 224.668 210.023 223.492 209.059L223.452 209.111C224.57 210.121 225.908 210.801 227.337 211.243C227.179 211.827 227.011 212.428 226.846 213.041C226.492 212.875 226.15 212.694 225.764 212.578C225.055 212.365 224.597 211.914 223.979 211.542L223.915 211.625C224.457 211.98 224.838 212.436 225.456 212.67C225.913 212.843 226.345 213.063 226.788 213.261C226.138 215.69 225.563 218.273 225.874 220.604C225.944 221.121 226.808 221.259 226.943 220.708C227.352 219.018 227.332 217.212 227.523 215.484Z" fill="#7070C0"/>
<path d="M214 197.579C215.274 202.981 219.474 211.235 213.593 215.601C212.01 216.777 209.755 216.348 208.09 215.429C205.912 214.226 203.801 210.511 202.8 208.29C202.005 206.53 201.695 204.299 201.066 202.442C200.387 200.437 199.669 198.446 199.006 196.436C196.617 189.189 197.522 181.757 201.983 175.499C203.497 177.536 205.452 178.947 207.398 180.673C208.285 181.46 209.156 182.322 209.915 183.226C211.26 184.828 211.521 186.959 211.891 188.922C212.438 191.824 213.321 194.703 214 197.579Z" fill="url(#paint7_linear_419_2)"/>
<path d="M212.576 216.279C212.429 215.844 212.289 215.407 212.151 214.968C212.927 214.604 213.53 213.783 214.024 213.139C214.882 212.023 215.407 210.753 215.878 209.436C215.902 209.366 215.786 209.325 215.755 209.392C215.216 210.552 214.633 211.704 213.808 212.69C213.348 213.239 212.697 214.089 212.014 214.515C211.852 213.99 211.7 213.462 211.553 212.933C212.314 212.455 212.809 211.577 213.304 210.849C214.146 209.613 214.731 208.249 215.368 206.901L215.345 206.889C214.295 208.786 213.29 211.258 211.45 212.557C211.271 211.891 211.099 211.224 210.944 210.554L210.921 210.449C212.969 208.775 213.694 206.212 214.786 203.903L214.73 203.869C213.613 206.052 212.69 208.379 210.831 210.053C210.613 209.092 210.405 208.131 210.199 207.17C211.94 205.409 213.045 203.389 213.716 200.982L213.654 200.96C212.871 203.259 211.619 204.953 210.11 206.758C209.905 205.806 209.699 204.856 209.48 203.907C210.182 203.034 211.011 202.314 211.578 201.332C212.137 200.363 212.558 199.322 212.689 198.206L212.598 198.194C212.21 200.44 210.682 201.796 209.383 203.489C209.176 202.607 208.956 201.728 208.72 200.851C210.14 198.904 211.761 196.957 211.906 194.429L211.866 194.423C211.582 196.816 209.95 198.552 208.601 200.414C208.557 200.258 208.517 200.102 208.472 199.947C208.24 199.14 208 198.335 207.757 197.532C208.65 196.578 209.408 195.468 210.095 194.361C210.584 193.576 211.122 192.772 211.247 191.838L211.157 191.823C210.816 193.774 208.968 195.672 207.653 197.183C207.407 196.372 207.162 195.561 206.916 194.75C208.236 192.775 210.112 191.147 210.311 188.607C210.317 188.531 210.204 188.517 210.194 188.592C209.874 190.978 208.074 192.507 206.802 194.371C206.65 193.868 206.501 193.365 206.352 192.86C207.998 191.201 209.532 188.455 209.744 186.165C209.755 186.039 209.57 186.013 209.549 186.139C209.215 188.218 207.866 190.936 206.238 192.459C206.001 191.641 205.77 190.821 205.553 189.999L205.551 189.917C206.321 189.238 206.908 188.195 207.458 187.359C208.118 186.352 208.694 185.27 208.833 184.057C208.848 183.923 208.634 183.905 208.624 184.04C208.475 186.032 206.874 188.068 205.421 189.48C205.343 189.179 205.264 188.878 205.19 188.575C205.081 188.123 204.972 187.67 204.865 187.216C205.346 186.393 206.137 185.738 206.609 184.885C207.019 184.145 207.307 183.349 207.581 182.551C207.609 182.472 207.491 182.423 207.46 182.502C207.056 183.517 206.618 184.511 205.963 185.39C205.595 185.881 205.107 186.292 204.767 186.801C204.591 186.059 204.415 185.318 204.233 184.579L204.256 184.562L204.284 184.555L204.382 184.464C205.234 183.769 205.585 182.592 205.904 181.579L205.867 181.565C205.479 182.514 205.031 183.573 204.246 184.27H204.235L204.16 184.292C204.011 183.691 203.853 183.091 203.69 182.495C203.753 182.45 203.786 182.362 203.738 182.299C204.088 181.717 204.349 181.061 204.586 180.427L204.514 180.397C204.242 181.001 203.945 181.533 203.566 182.055C203.215 180.828 202.822 179.612 202.347 178.42C202.304 178.31 202.141 178.384 202.18 178.495C202.598 179.66 202.949 180.843 203.269 182.034C202.412 181.583 201.485 181.138 200.788 180.488L200.73 180.54C201.119 180.964 201.596 181.271 202.073 181.587C202.499 181.869 202.908 182.24 203.381 182.447C203.548 183.088 203.706 183.733 203.857 184.378C203.164 184.576 202.513 184.73 201.761 184.509C200.841 184.24 200.105 183.631 199.639 182.794C199.581 182.692 199.414 182.77 199.473 182.872C199.921 183.645 200.593 184.255 201.422 184.599C202.294 184.961 203.066 184.846 203.92 184.643C204.093 185.39 204.263 186.137 204.429 186.887C203.677 186.808 202.917 186.6 202.191 186.425C201.02 186.14 200.134 185.554 199.035 185.13C198.925 185.089 198.856 185.256 198.965 185.3C200.004 185.717 200.846 186.3 201.947 186.598C202.739 186.811 203.645 187.118 204.489 187.156L204.515 187.275L204.502 187.305C204.473 187.38 204.506 187.436 204.557 187.464C204.716 188.18 204.876 188.898 205.041 189.614L205.073 189.748C203.24 189.76 200.422 189.609 199.406 187.942C199.308 187.784 199.081 187.947 199.199 188.1C200.571 189.882 203.161 189.746 205.167 190.13C205.361 190.936 205.567 191.739 205.786 192.538C204.654 192.657 203.532 192.674 202.409 192.403C201.388 192.156 200.001 191.932 199.237 191.167L199.202 191.206C199.938 191.977 201.177 192.164 202.154 192.468C203.396 192.853 204.603 193.109 205.873 192.901L205.916 193.002C206.057 193.508 206.201 194.013 206.347 194.517C204.446 195.233 201.229 195.034 199.645 194.079L199.639 194.09C200.771 194.854 202.028 195.024 203.368 195.054C204.369 195.076 205.47 195.142 206.424 194.78C206.696 195.713 206.973 196.645 207.248 197.577C206.315 197.652 205.404 197.903 204.469 197.955C203.079 198.031 201.792 197.604 200.622 196.887C200.55 196.844 200.47 196.945 200.542 196.992C202.753 198.426 204.857 198.166 207.351 197.925C207.576 198.69 207.796 199.457 208.01 200.225C206.1 200.707 203.336 200.693 201.74 199.579C201.623 199.497 201.488 199.674 201.605 199.757C202.62 200.474 203.872 200.642 205.088 200.681C205.964 200.709 207.217 200.849 208.091 200.518L208.112 200.593C208.416 201.702 208.688 202.818 208.941 203.939C206.754 204.36 204.814 203.496 202.759 202.798C202.616 202.75 202.528 202.967 202.671 203.018C204.786 203.772 206.756 204.68 209.016 204.268C209.22 205.181 209.412 206.098 209.594 207.015C207.71 207.326 205.508 206.91 203.797 206.05C203.676 205.988 203.602 206.183 203.719 206.245C205.527 207.201 207.661 207.563 209.666 207.371C209.86 208.357 210.045 209.345 210.229 210.333C208.394 210.872 206.575 210.412 204.889 209.545L204.853 209.614C206.397 210.484 208.516 211.333 210.296 210.695C210.354 211.01 210.412 211.326 210.47 211.641C210.505 211.831 210.54 212.025 210.574 212.22C209.105 212.442 207.69 212.537 206.218 212.162L206.204 212.226C207.642 212.668 209.141 212.718 210.623 212.512C210.725 213.109 210.826 213.726 210.933 214.351C210.544 214.351 210.157 214.331 209.758 214.389C209.026 214.496 208.42 214.282 207.704 214.206C207.639 214.199 207.615 214.299 207.682 214.308C208.322 214.401 208.859 214.654 209.518 214.604C210.006 214.567 210.489 214.584 210.973 214.575C211.406 217.052 211.971 219.636 213.234 221.619C213.514 222.058 214.356 221.816 214.246 221.261C213.907 219.555 213.128 217.927 212.576 216.279Z" fill="#7070C0"/>
<path d="M226.422 193.391C226.725 200.255 229.927 211.264 221.77 215.205C219.573 216.266 216.93 215.223 215.12 213.718C212.749 211.749 211.039 206.742 210.333 203.81C209.774 201.485 209.912 198.701 209.576 196.299C209.214 193.703 208.8 191.115 208.457 188.517C207.225 179.153 210.04 170.328 216.907 163.756C218.278 166.585 220.329 168.754 222.295 171.306C223.193 172.468 224.052 173.717 224.768 174.992C226.033 177.252 225.858 179.904 225.855 182.376C225.851 186.031 226.26 189.736 226.422 193.391Z" fill="url(#paint8_linear_419_2)"/>
<path d="M220.377 215.793C220.301 215.23 220.231 214.666 220.164 214.101C221.191 213.838 222.114 212.98 222.864 212.314C224.164 211.156 225.096 209.732 225.971 208.241C226.018 208.162 225.886 208.086 225.833 208.159C224.909 209.444 223.935 210.71 222.704 211.716C222.019 212.277 221.031 213.159 220.101 213.518C220.027 212.842 219.963 212.165 219.907 211.487C220.943 211.085 221.747 210.131 222.517 209.362C223.825 208.054 224.852 206.532 225.936 205.041L225.91 205.021C224.196 207.084 222.404 209.856 219.869 211.007C219.803 210.156 219.749 209.305 219.716 208.454L219.712 208.321C222.59 206.762 224.058 203.814 225.921 201.262L225.861 201.207C223.998 203.601 222.338 206.216 219.694 207.819C219.652 206.6 219.62 205.383 219.59 204.167C222.113 202.432 223.922 200.232 225.293 197.461L225.223 197.421C223.74 200.033 221.828 201.802 219.577 203.645C219.548 202.441 219.516 201.238 219.47 200.035C220.524 199.135 221.699 198.453 222.614 197.39C223.516 196.342 224.269 195.174 224.685 193.848C224.708 193.779 224.603 193.745 224.579 193.812C223.588 196.452 221.417 197.747 219.447 199.502C219.399 198.382 219.337 197.262 219.25 196.142C221.427 194.105 223.846 192.114 224.604 189.075L224.559 189.059C223.661 191.902 221.275 193.633 219.205 195.582C219.188 195.383 219.176 195.184 219.157 194.984C219.061 193.95 218.955 192.916 218.847 191.883C220.152 190.93 221.328 189.756 222.42 188.571C223.194 187.729 224.034 186.877 224.402 185.772C224.424 185.702 224.321 185.663 224.296 185.732C223.432 188.024 220.746 189.904 218.799 191.435C218.688 190.391 218.576 189.348 218.465 188.306C220.526 186.211 223.182 184.668 224.009 181.626C224.032 181.535 223.899 181.492 223.869 181.582C222.931 184.406 220.391 185.849 218.413 187.818C218.345 187.171 218.28 186.525 218.217 185.877C220.6 184.243 223.098 181.261 223.884 178.526C223.927 178.376 223.707 178.301 223.653 178.449C222.767 180.899 220.501 183.891 218.169 185.363C218.069 184.313 217.978 183.264 217.903 182.212L217.92 182.112C219.012 181.465 219.968 180.335 220.828 179.446C221.864 178.375 222.813 177.194 223.262 175.752C223.312 175.592 223.055 175.522 223.012 175.683C222.372 178.069 219.956 180.172 217.863 181.552C217.838 181.167 217.811 180.783 217.792 180.398C217.762 179.822 217.736 179.246 217.71 178.67C218.484 177.781 219.597 177.168 220.367 176.242C221.036 175.437 221.57 174.537 222.088 173.63C222.14 173.54 222.009 173.454 221.952 173.542C221.227 174.681 220.466 175.789 219.465 176.705C218.904 177.217 218.217 177.602 217.686 178.142C217.644 177.2 217.601 176.258 217.549 175.317L217.58 175.302L217.616 175.3C217.685 175.296 217.731 175.26 217.758 175.213C218.953 174.566 219.652 173.215 220.273 172.058L220.232 172.033C219.541 173.097 218.752 174.28 217.637 174.944L217.623 174.942L217.527 174.952C217.483 174.186 217.433 173.421 217.369 172.658C217.458 172.617 217.518 172.518 217.472 172.431C218.035 171.804 218.504 171.067 218.937 170.352L218.856 170.298C218.387 170.97 217.902 171.548 217.322 172.094C217.179 170.52 216.98 168.951 216.678 167.392C216.65 167.248 216.435 167.301 216.458 167.443C216.697 168.958 216.851 170.477 216.965 172C216.028 171.251 215.003 170.495 214.306 169.543L214.222 169.592C214.599 170.198 215.108 170.682 215.614 171.177C216.067 171.62 216.479 172.165 217.006 172.527C217.061 173.346 217.104 174.165 217.141 174.986C216.249 175.065 215.424 175.101 214.56 174.658C213.503 174.117 212.75 173.206 212.376 172.08C212.33 171.942 212.108 171.999 212.156 172.137C212.523 173.18 213.199 174.077 214.127 174.688C215.104 175.331 216.069 175.37 217.155 175.323C217.193 176.271 217.225 177.219 217.255 178.168C216.359 177.898 215.483 177.469 214.642 177.087C213.283 176.469 212.342 175.55 211.103 174.78C210.979 174.703 210.856 174.891 210.979 174.97C212.146 175.718 213.035 176.623 214.305 177.239C215.217 177.683 216.249 178.269 217.265 178.51L217.271 178.66L217.247 178.693C217.195 178.778 217.222 178.854 217.278 178.899C217.305 179.808 217.334 180.718 217.37 181.626L217.38 181.796C215.147 181.385 211.756 180.546 210.906 178.284C210.824 178.069 210.509 178.214 210.618 178.428C211.873 180.914 215.054 181.349 217.404 182.283C217.454 183.307 217.52 184.332 217.603 185.355C216.198 185.237 214.83 184.996 213.528 184.405C212.343 183.868 210.708 183.273 209.956 182.165L209.905 182.204C210.622 183.313 212.083 183.829 213.203 184.424C214.623 185.182 216.031 185.773 217.624 185.815L217.653 185.947C217.708 186.596 217.766 187.243 217.827 187.89C215.352 188.319 211.486 187.33 209.78 185.8L209.77 185.813C210.971 187.005 212.458 187.503 214.08 187.85C215.293 188.11 216.618 188.446 217.86 188.227C217.976 189.425 218.097 190.623 218.217 191.821C217.063 191.693 215.899 191.787 214.751 191.632C213.044 191.403 211.578 190.585 210.318 189.441C210.243 189.372 210.122 189.477 210.198 189.55C212.556 191.806 215.174 191.98 218.261 192.266C218.358 193.249 218.449 194.232 218.531 195.217C216.098 195.359 212.74 194.699 211.058 192.974C210.934 192.848 210.73 193.031 210.853 193.159C211.922 194.266 213.405 194.762 214.875 195.091C215.933 195.33 217.424 195.79 218.563 195.591L218.571 195.688C218.684 197.105 218.757 198.526 218.808 199.948C216.051 199.951 213.891 198.449 211.554 197.124C211.392 197.032 211.234 197.275 211.397 197.371C213.793 198.779 215.979 200.34 218.823 200.364C218.859 201.522 218.881 202.68 218.891 203.839C216.528 203.779 213.947 202.762 212.065 201.318C211.932 201.215 211.798 201.434 211.926 201.537C213.903 203.119 216.414 204.056 218.896 204.288C218.904 205.532 218.902 206.776 218.897 208.019C216.542 208.248 214.436 207.266 212.587 205.82L212.526 205.896C214.203 207.313 216.584 208.838 218.895 208.475C218.893 208.872 218.891 209.269 218.889 209.666C218.887 209.905 218.884 210.149 218.88 210.394C217.043 210.323 215.301 210.109 213.599 209.311L213.567 209.385C215.213 210.256 217.025 210.666 218.874 210.761C218.86 211.51 218.841 212.283 218.827 213.067C218.353 212.976 217.887 212.863 217.389 212.842C216.474 212.802 215.786 212.4 214.934 212.142C214.857 212.118 214.804 212.233 214.884 212.261C215.641 212.522 216.235 212.954 217.047 213.046C217.649 213.114 218.233 213.247 218.823 213.349C218.777 216.462 218.869 219.735 219.947 222.438C220.186 223.037 221.264 222.939 221.259 222.238C221.24 220.085 220.668 217.924 220.377 215.793Z" fill="#7070C0"/>
<path d="M230.931 218.366L230.629 223.945L230.156 232.633L229.382 246.908H210.123L209.349 232.633L208.876 223.945L208.574 218.366H230.931Z" fill="#92A6B3"/>
<path d="M230.625 223.947L230.562 225.065L230.501 226.223L230.152 232.635H209.344L208.996 226.223L208.934 225.065L208.871 223.947H230.625Z" fill="#A4B7C7"/>
<path d="M230.558 225.064L230.497 226.222H208.991L208.93 225.064H230.558Z" fill="#92A6B3"/>
<defs>
<radialGradient id="paint0_radial_419_2" cx="0" cy="0" r="1" gradientUnits="userSpaceOnUse" gradientTransform="translate(161.411 104.541) scale(8.41215 8.44166)">
<stop stop-color="#FABDA6"/>
<stop offset="1" stop-color="#F9AD90"/>
</radialGradient>
<radialGradient id="paint1_radial_419_2" cx="0" cy="0" r="1" gradientUnits="userSpaceOnUse" gradientTransform="translate(156.559 89.261) rotate(-12.193) scale(13.2642 13.3066)">
<stop stop-color="#FABDA6"/>
<stop offset="1" stop-color="#F9AD90"/>
</radialGradient>
<radialGradient id="paint2_radial_419_2" cx="0" cy="0" r="1" gradientUnits="userSpaceOnUse" gradientTransform="translate(143.471 232.007) scale(5.28846 5.30702)">
<stop stop-color="#FABDA6"/>
<stop offset="1" stop-color="#F9AD90"/>
</radialGradient>
<radialGradient id="paint3_radial_419_2" cx="0" cy="0" r="1" gradientUnits="userSpaceOnUse" gradientTransform="translate(109.986 233.339) scale(4.81705 4.83395)">
<stop stop-color="#FABDA6"/>
<stop offset="1" stop-color="#F9AD90"/>
</radialGradient>
<radialGradient id="paint4_radial_419_2" cx="0" cy="0" r="1" gradientUnits="userSpaceOnUse" gradientTransform="translate(139.316 142.632) rotate(9.15247) scale(26.975 27.0649)">
<stop stop-color="#FABDA6"/>
<stop offset="1" stop-color="#F9AD90"/>
</radialGradient>
<radialGradient id="paint5_radial_419_2" cx="0" cy="0" r="1" gradientUnits="userSpaceOnUse" gradientTransform="translate(139.303 142.626) rotate(9.15251) scale(26.9748 27.0647)">
<stop stop-color="#FABDA6"/>
<stop offset="1" stop-color="#F9AD90"/>
</radialGradient>
<linearGradient id="paint6_linear_419_2" x1="230.625" y1="174.029" x2="230.627" y2="215.371" gradientUnits="userSpaceOnUse">
<stop stop-color="#5C60B6"/>
<stop offset="1" stop-color="#523EA0"/>
</linearGradient>
<linearGradient id="paint7_linear_419_2" x1="197.945" y1="177.386" x2="215.435" y2="214.817" gradientUnits="userSpaceOnUse">
<stop stop-color="#5C60B6"/>
<stop offset="1" stop-color="#523EA0"/>
</linearGradient>
<linearGradient id="paint8_linear_419_2" x1="211.564" y1="165.112" x2="224.139" y2="214.694" gradientUnits="userSpaceOnUse">
<stop stop-color="#5C60B6"/>
<stop offset="1" stop-color="#523EA0"/>
</linearGradient>
</defs>
</svg>