<svg width="285" height="285" viewBox="0 0 285 285" fill="none" xmlns="http://www.w3.org/2000/svg">
<rect width="285" height="285" fill="#ECF2D6"/>
<path d="M280.736 75.3705C280.736 80.4774 279.96 85.4019 278.524 90.0341C276.637 96.1026 273.611 101.676 269.699 106.491C269.694 106.497 269.694 106.497 269.694 106.497C264.658 112.686 258.15 117.638 250.706 120.807C249.494 121.325 248.262 121.793 247.003 122.21C242.089 123.856 236.829 124.741 231.365 124.741C210.765 124.741 193.109 112.12 185.714 94.1939C183.321 88.3885 182 82.0346 182 75.3705C182 71.8499 182.369 68.4166 183.068 65.0986C183.128 64.8064 183.194 64.5153 183.26 64.2232C184.465 59.0077 186.496 54.1113 189.208 49.6704C193.88 42.0168 200.576 35.739 208.553 31.5736C208.917 31.3866 209.285 31.1997 209.654 31.0239C210.468 30.6221 211.294 30.2426 212.135 29.8843C214.766 28.7739 217.516 27.8817 220.361 27.2324C223.898 26.4241 227.586 25.9999 231.365 25.9999C232.146 25.9999 232.922 26.0167 233.692 26.0559C256.268 27.0958 274.888 43.3098 279.592 64.7403C279.63 64.9172 279.669 65.093 279.701 65.2743C280.301 68.1468 280.648 71.1122 280.725 74.1436C280.736 74.5511 280.736 74.9586 280.736 75.3705Z" fill="#BBDBF3"/>
<path d="M280.406 77.4975C280.406 82.6044 279.63 87.5288 278.194 92.1611C276.307 98.2296 273.28 103.803 269.369 108.618C269.363 108.624 269.363 108.624 269.363 108.624C268.582 109.009 267.79 109.371 266.986 109.713C265.776 110.23 264.543 110.698 263.278 111.117C258.364 112.761 253.105 113.646 247.641 113.646C237.242 113.646 227.596 110.428 219.64 104.943C218.221 103.963 216.862 102.912 215.558 101.789C212.46 99.143 209.698 96.1172 207.338 92.7824C205.214 89.7845 203.415 86.5381 201.996 83.0992C201.632 82.2193 201.296 81.3271 200.982 80.4249C200.388 78.7088 199.888 76.9535 199.48 75.1646C198.693 71.6608 198.281 68.0181 198.281 64.2758C198.281 60.7552 198.65 57.3218 199.348 54.0038C199.409 53.7117 199.475 53.4206 199.536 53.1296C200.746 47.913 202.776 43.0165 205.484 38.5757C205.687 38.2455 205.896 37.9152 206.105 37.585C206.105 37.5805 206.105 37.5805 206.105 37.5805C207.096 36.0391 208.174 34.5648 209.323 33.1509C210.138 32.749 210.963 32.3695 211.805 32.0113C214.436 30.9008 217.186 30.0086 220.031 29.3594C223.568 28.5511 227.256 28.1269 231.035 28.1269C231.816 28.1269 232.592 28.1436 233.362 28.1828C255.938 29.2228 274.558 45.4368 279.262 66.8673C279.3 67.0442 279.339 67.2199 279.371 67.4013C279.971 70.2738 280.318 73.2392 280.394 76.2706C280.406 76.6781 280.406 77.0856 280.406 77.4975Z" fill="#E5F0F8"/>
<path d="M280.739 75.3708C280.739 80.4777 279.963 85.4044 278.522 90.0366C278.098 89.3806 278.062 88.3631 278.009 87.9903C277.932 87.453 277.163 88.8355 277.047 88.4C276.932 87.9645 277.47 85.8746 277.008 85.6831C276.549 85.4917 276.317 85.9899 275.895 86.1824C275.472 86.3761 275.509 87.2582 275.048 87.3365C274.588 87.4127 274.01 88.4896 273.703 89.028C273.395 89.5665 272.626 89.8362 272.164 90.0277C271.703 90.2202 271.319 91.0285 271.164 91.5266C271.01 92.0281 270.471 92.2195 269.933 92.1042C269.396 91.9889 269.972 89.4892 269.972 88.9911C269.972 88.4896 269.896 88.1437 269.474 87.6836C269.049 87.2212 269.049 85.5286 268.935 85.2208C268.82 84.9141 268.588 84.6443 268.395 84.3364C268.203 84.0297 268.742 83.6066 268.705 83.1073C268.666 82.6069 268.742 82.1838 269.279 81.8009C269.818 81.4147 269.55 81.1841 269.626 80.8001C269.702 80.415 270.319 80.2617 270.511 80.068C270.702 79.8766 270.471 79.609 271.01 79.4534C271.55 79.3012 272.204 77.9937 272.125 77.6086C272.049 77.2246 272.433 76.7634 272.548 76.7634C272.663 76.7634 272.857 76.5317 272.818 76.3011C272.779 76.0705 272.702 75.8388 273.01 75.532C273.317 75.2242 273.74 74.5704 273.625 74.1854C273.511 73.8014 273.664 73.3402 273.779 72.8017C273.895 72.2633 273.971 72.2241 274.241 72.3025C274.509 72.3786 274.894 72.9931 275.198 72.9931C275.502 72.9931 275.548 72.7648 275.509 72.148C275.472 71.5334 275.163 71.1103 275.202 70.6994C275.241 70.2897 275.817 70.1498 275.932 69.9561C276.047 69.7647 276.086 69.2262 276.317 69.3024C276.549 69.3807 276.856 69.3024 277.318 69.3415C277.777 69.3807 277.086 71.1875 277.318 71.5703C277.546 71.9566 278.969 72.7256 278.969 72.7256C278.969 72.7256 279.084 70.7252 278.893 69.9192C278.701 69.1109 278.586 66.843 278.701 67.265C278.817 67.6881 279.008 68.5725 279.471 69.3415C279.932 70.1106 279.893 70.995 280.048 71.9174C280.185 72.7469 280.634 73.9178 280.723 74.1462C280.734 74.5536 280.739 74.9611 280.739 75.3708Z" fill="#BBDBF3"/>
<path d="M206.434 35.4575C206.225 35.7877 206.017 36.118 205.813 36.4482C203.105 40.889 201.076 45.7855 199.866 51.0021C199.804 51.2931 199.738 51.5842 199.677 51.8763C198.979 55.1944 198.611 58.6277 198.611 62.1483C198.611 65.8906 199.023 69.5333 199.81 73.0371C199.59 72.774 199.37 72.5043 199.145 72.2121C198.324 71.1341 197.197 69.9072 196.773 68.7788C196.355 67.6459 196.888 67.1332 197.037 65.9063C197.186 64.6749 196.888 64.5204 196.789 64.1622C196.685 63.8051 197.433 61.0154 197.301 60.9326C196.685 60.5643 195.568 61.5707 194.643 62.0722C193.724 62.5726 192.724 62.3028 192.415 61.6871C192.112 61.0759 192.993 60.6528 193.378 59.2658C193.763 57.8844 192.801 58.3859 192.344 58.4183C191.882 58.4564 191.535 58.9187 190.803 59.6889C190.072 60.4602 190.919 61.7632 190.572 62.5726C190.225 63.3819 189.917 62.1103 189.494 61.3401C189.07 60.5755 189.532 60.4983 189.686 59.2277C189.84 57.956 189.57 57.1142 188.992 55.9209C188.42 54.7264 188.035 58.1877 187.111 58.4183C186.187 58.649 186.071 59.7662 185.532 60.6908C184.998 61.6099 185.114 62.4181 184.883 63.1883C184.674 63.8711 184.062 64.3447 183.26 64.2226C184.464 59.0072 186.495 54.1107 189.207 49.6699C190.721 49.4942 191.353 48.4766 191.765 48.4486C192.173 48.4206 192.558 48.3714 193.609 48.0355C194.66 47.7053 193.89 47.4254 194.016 47.0896C194.149 46.7594 195.326 46.6273 195.865 46.4235C196.404 46.2198 196.068 45.7575 196.195 44.7836C196.327 43.8108 196.657 44.3716 197.301 44.0134C197.939 43.6563 198.093 43.3753 197.967 43.194C197.84 43.0182 197.07 43.5018 196.888 43.2712C196.706 43.0395 197.169 42.1428 196.867 42.2973C196.559 42.4506 196.223 43.0675 196.223 43.6563C196.223 44.2451 195.661 44.525 195.2 45.4004C194.737 46.2702 194.528 46.0385 193.868 46.1705C193.202 46.297 192.993 46.0664 192.608 46.0385C192.228 46.0116 192.971 45.219 193.609 44.4488C194.247 43.6787 194.611 43.0182 195.381 42.4238C196.146 41.835 196.068 41.4219 196.761 40.8118C197.455 40.195 198.374 39.3476 199.606 38.7319C200.838 38.1206 201.147 38.8864 201.147 38.8864C201.147 38.8864 201.708 39.2983 202.99 37.8621C204.272 36.4258 203.607 37.2464 204.784 36.6844C205.834 36.184 205.951 35.9646 206.434 35.4575Z" fill="#93C3E6"/>
<path d="M257.44 67.4979C257.489 67.855 256.411 68.108 255.234 67.2113C254.056 66.3147 253.44 66.4199 252.571 65.8579C251.695 65.2915 251.289 64.9836 250.519 63.6515C249.748 62.3149 249.951 61.8582 249.594 60.8843C249.236 59.9103 248.416 60.4219 248.054 61.0387C247.695 61.6544 246.469 61.4451 245.643 61.1921C244.829 60.9335 244.829 60.0648 243.339 59.2947C241.852 58.5234 241.391 59.0909 240.213 59.1894C239.035 59.2946 237.901 60.4712 237.033 60.9335C236.163 61.3958 236.416 61.7541 236.367 62.5242C236.317 63.2888 234.98 65.2915 234.266 65.9576C233.545 66.6236 234.16 66.777 234.777 67.9054C235.393 69.0327 235.344 68.6252 235.189 69.3909C235.036 70.161 234.677 70.7767 234.623 71.8559C234.573 72.9283 234.16 73.6 233.599 73.6C233.033 73.6 232.163 72.466 231.652 71.3936C231.134 70.3144 230.161 70.0066 228.575 69.1379C226.986 68.2625 227.497 67.9602 226.727 66.5732C225.957 65.1874 225.445 64.7251 225.242 65.3407C225.038 65.9576 224.268 65.3407 222.881 65.0878C221.501 64.8292 221.395 64.059 220.218 63.3437C219.041 62.6283 218.27 63.7019 217.55 63.9213C216.835 64.1418 215.806 64.8292 214.974 65.1874C214.144 65.5501 212.884 65.2915 212.069 65.446C211.244 65.5993 209.912 65.4952 208.889 65.446C207.86 65.3956 207.503 64.5762 206.479 63.9213C205.45 63.272 205.197 64.0097 204.785 64.4217C204.378 64.8292 204.988 65.0878 205.797 65.8579C206.601 66.6236 206.941 66.4199 207.762 67.1901C208.581 67.9602 209.346 68.5211 210.017 67.7509C210.683 66.9863 211.09 67.1341 211.965 67.1901C212.834 67.2393 214.017 66.8811 214.578 66.9315C215.14 66.9863 215.091 68.6756 214.529 69.6495C213.962 70.6234 214.782 72.0036 214.529 72.2622C214.27 72.5208 213.401 72.6261 212.834 73.0828C212.273 73.5451 211.965 74.1608 210.936 74.519C209.912 74.8761 210.116 75.5478 209.912 76.2631C209.709 76.984 208.372 77.5449 207.194 78.2109C206.018 78.8759 205.759 80.1084 204.988 80.1588C204.223 80.208 204.476 78.9307 204.119 77.6994C203.761 76.4669 202.22 76.6751 201.505 75.3709C200.977 74.4194 200.405 73.7477 199.81 73.038C199.023 69.5342 198.611 65.8915 198.611 62.1492C198.611 58.6286 198.98 55.1953 199.678 51.8772C199.739 51.5851 199.805 51.294 199.866 51.003C201.076 45.7864 203.106 40.8899 205.814 36.4491C206.018 36.1189 206.226 35.7886 206.435 35.4584C206.435 35.4539 206.435 35.4539 206.435 35.4539C206.496 35.3879 206.562 35.3218 206.633 35.2502C207.299 34.5841 207.965 34.6334 208.989 34.6334C210.017 34.6334 210.578 34.4296 211.503 33.9673C212.422 33.5061 211.299 32.5814 211.91 31.6624C212.526 30.7377 214.27 31.0959 214.831 30.6336C215.398 30.1713 215.806 29.8142 216.939 29.456C218.062 29.0933 218.628 28.7899 219.294 28.2235C219.553 28.004 219.959 27.6178 220.361 27.2328C223.898 26.4245 227.586 26.0003 231.365 26.0003C232.146 26.0003 232.922 26.017 233.692 26.0562C234.254 26.3753 234.76 26.6171 235.036 26.6339C235.904 26.6831 236.367 26.8421 237.754 27.3044C239.134 27.7667 239.085 28.0701 239.596 28.5313C240.108 28.9936 240.312 28.4821 241.649 28.1194C242.98 27.7667 242.623 28.9444 244.367 29.1481C246.106 29.3519 247.542 30.9907 248.62 31.6624C249.698 32.3284 249.951 32.3777 249.49 33.1971C249.028 34.0177 249.187 34.171 249.545 35.0465C249.902 35.9151 250.722 35.6073 251.134 35.7338C251.542 35.8603 252.361 36.4267 253.027 36.7849C253.693 37.1432 254.156 38.1216 253.798 38.5783C253.44 39.0406 252.263 38.6331 252.158 37.7589C252.053 36.889 251.03 36.9943 250.16 36.0752C249.286 35.1618 249.236 36.3226 248.879 36.8342C248.516 37.3514 248.213 37.1432 247.542 36.3775C246.876 35.6073 246.931 36.4827 246.518 37.1432C246.106 37.8137 246.722 38.2212 247.338 38.7328C247.954 39.2443 248.108 38.6331 248.416 38.4305C248.724 38.2212 249.335 37.6592 249.187 38.4305C249.028 39.1951 249.39 39.8656 249.951 39.5522C250.519 39.2444 250.672 39.9653 251.338 40.7354C252.004 41.5 252.719 41.6545 253.902 42.1168C255.079 42.5792 254.617 43.1456 255.03 44.2729C255.437 45.4013 255.745 46.5297 255.696 47.5036C255.647 48.4775 255.795 48.9891 255.03 50.0123C254.26 51.041 254.156 51.1395 252.824 51.6511C251.493 52.1683 252.312 51.7071 251.746 51.9601C251.184 52.2187 251.289 52.7795 251.134 53.8575C250.975 54.9367 251.542 54.7273 252.361 55.399C253.182 56.0639 254.056 55.9106 255.184 56.2677C256.306 56.6259 256.257 56.983 256.67 57.808C257.076 58.6286 257.182 58.9857 256.719 59.6517C256.257 60.3178 256.515 61.0387 256.565 62.0619C256.62 63.0851 255.795 62.9306 255.591 61.5503C255.387 60.1633 254.876 61.1372 254.105 61.1372C253.335 61.1372 252.978 60.5216 252.053 60.2674C251.134 60.0088 251.289 60.4219 250.722 61.1921C250.16 61.9567 251.184 62.8813 251.493 63.7019C251.8 64.5213 252.774 64.4217 254.105 64.8292C255.437 65.2422 255.184 65.0878 255.955 66.0124C256.719 66.9315 257.385 67.1341 257.44 67.4979Z" fill="#BBDBF3"/>
<path d="M249.478 68.149C249.176 67.2859 251.17 67.1112 251.939 67.6105C252.708 68.1109 253.208 68.7255 254.284 68.918C255.361 69.1106 255.476 69.0725 256.13 68.918C256.784 68.7647 257.668 67.9956 257.783 68.7647C257.899 69.5337 257.515 70.033 258.168 70.2636C258.821 70.4942 259.59 70.4942 260.129 70.764C260.667 71.0327 260.552 70.9946 260.705 71.6103C260.86 72.2248 261.244 73.3018 260.629 73.3018C260.013 73.3018 259.475 72.9167 258.206 72.7633C256.937 72.6099 256.668 72.648 255.784 71.8017C254.9 70.9565 255.822 71.1871 254.246 70.6867C252.67 70.1875 252.4 69.6098 251.516 69.0725C250.631 68.5341 249.747 68.918 249.478 68.149Z" fill="#BBDBF3"/>
<path d="M261.59 73.3023C261.936 74.0355 262.707 72.9944 263.398 72.8019C264.09 72.6104 263.937 72.7638 264.744 72.6104C265.551 72.456 265.744 71.5335 266.397 71.6108C267.051 71.6869 265.974 70.8406 265.282 71.0723C264.591 71.3029 264.513 71.3029 263.552 71.6488C262.591 71.9947 261.284 72.6485 261.59 73.3023Z" fill="#BBDBF3"/>
<path d="M279.704 65.2743C279.416 65.1388 279.165 65.0045 279.124 64.9317C279.022 64.7538 278.663 63.856 278.329 63.6007C277.995 63.3444 278.15 64.2914 278.304 64.8556C278.458 65.4209 278.407 65.6516 278.124 65.4971C277.843 65.3437 277.689 65.3941 277.381 65.6773C277.074 65.9583 276.842 65.9068 276.998 64.7034C277.15 63.4989 276.678 63.5425 275.895 63.2156C275.438 63.0253 274.895 63.0869 274.357 63.0108C273.819 62.9347 273.407 62.5485 273.1 62.0369C272.792 61.5242 273.433 61.0103 273.895 60.96C274.357 60.9085 274.152 61.7559 275.048 62.2417C275.946 62.7298 275.202 61.6775 275.279 60.7551C275.357 59.8316 276.126 60.5245 276.998 60.6264C277.869 60.7294 277.818 61.6272 278.098 62.2149C278.382 62.8059 278.612 63.1395 278.791 63.7272C278.868 63.9802 279.218 64.3743 279.591 64.7403C279.63 64.9194 279.669 65.0963 279.704 65.2743Z" fill="#BBDBF3"/>
<path d="M261.052 65.8178C260.766 66.5723 261.359 67.1623 261.718 67.5216C262.078 67.8809 262.436 68.3937 262.616 68.7261C262.795 69.0597 263.077 69.2646 263.539 68.9064C264 68.547 264 68.1373 264.846 68.1877C265.691 68.2392 266.152 69.0855 266.435 68.2134C266.717 67.3425 266.585 67.2395 266.599 66.5477C266.615 65.8559 267.153 64.9581 266.871 64.4969C266.589 64.0357 265.995 63.8812 266.599 63.42C267.204 62.9588 266.665 62.8054 266.23 62.7024C265.794 62.6005 265.204 62.5233 265.153 61.8819C265.102 61.2415 265.307 60.908 265.512 60.4982C265.717 60.0874 265.999 59.4986 265.102 59.7292C264.205 59.9598 263.461 59.9598 263.564 60.7288C263.666 61.4979 263.59 61.9849 263 62.4203C262.41 62.8569 262.923 63.8901 262.616 64.3861C262.308 64.882 261.231 65.3443 261.052 65.8178Z" fill="#BBDBF3"/>
<path d="M252.055 32.7355C251.169 32.8721 253.17 33.3132 253.709 34.1583C254.247 35.0046 255.44 34.9274 254.939 36.0043C254.44 37.0812 254.17 36.9267 254.401 37.5805C254.632 38.2342 253.94 38.8107 254.516 38.8107C255.094 38.8107 255.824 38.6193 256.4 39.3492C256.978 40.0802 256.978 39.3884 256.477 38.4268C255.978 37.4652 255.901 37.1573 256.169 36.6961C256.439 36.2349 256.516 35.5039 255.978 34.8893C255.44 34.2736 255.075 34.4662 254.45 33.8124C253.824 33.1587 252.556 32.6594 252.055 32.7355Z" fill="#BBDBF3"/>
<path d="M235.886 70.4951C235.349 70.738 235.693 71.4377 235.905 71.8989C236.116 72.3601 235.731 72.6489 236.173 73.0911C236.615 73.5333 237.212 74.168 237.558 73.8601C237.904 73.5523 238.981 73.1482 238.423 72.5146C237.866 71.8798 237.615 71.8608 237.193 71.3996C236.77 70.9373 236.481 70.2264 235.886 70.4951Z" fill="#BBDBF3"/>
<path d="M267.794 63.4712C267.888 64.5952 268.41 64.6254 268.23 65.3933C268.051 66.1624 268.018 66.7266 268.355 66.7266C268.691 66.7266 268.846 64.8045 269.179 65.4963C269.512 66.1881 269.871 66.5475 269.948 66.1377C270.024 65.7269 268.947 64.9153 269.358 64.3858C269.768 63.8563 270.64 62.4973 269.615 63.1634C268.589 63.8306 268.204 64.6758 268.051 63.9324C267.897 63.1891 267.691 62.8567 268.563 62.6003C269.435 62.344 270.179 62.3943 270.281 61.8055C270.384 61.2156 270.461 60.011 269.666 60.8562C268.871 61.7025 268.82 61.5749 268.179 62.0104C267.538 62.4458 266.922 62.4716 267.179 62.8309C267.435 63.1891 267.752 62.9574 267.794 63.4712Z" fill="#BBDBF3"/>
<path d="M260.783 50.0782C260.05 50.114 260.13 50.6155 260.591 51.154C261.053 51.6924 261.129 52.3081 261.745 52.8846C262.361 53.4612 263.091 53.6918 263.244 54.1922C263.398 54.6914 263.994 54.153 263.965 53.6156C263.937 53.0772 264.706 53.3078 265.09 53.6918C265.475 54.0769 265.897 54.05 266.09 54.3903C266.282 54.7306 267.013 54.1922 266.244 53.6918C265.475 53.1925 265.36 52.9619 264.552 52.654C263.744 52.3462 263.84 52.3843 263.447 52.654C263.053 52.9227 262.783 53.0145 262.284 52.2186C261.783 51.4238 261.961 50.6928 261.546 50.3088C261.129 49.9237 261.553 50.039 260.783 50.0782Z" fill="#BBDBF3"/>
<path d="M33.9628 243.583C33.9628 243.583 -56.2674 20.6421 109.315 35.7325C180.235 42.196 166.996 81.4082 198.318 118.097C218.621 141.879 257.668 122.425 272.302 143.206C286.934 163.987 269.738 223.241 263.705 243.583H33.9628Z" fill="#E5F0F8"/>
<path d="M167.906 236.759H130.023V185.55H167.906V236.759Z" fill="#586773"/>
<path d="M245.619 207.258H52.3189C40.8005 207.258 31.4629 197.92 31.4629 186.402V75.1178C31.4629 63.5995 40.8005 54.2617 52.3189 54.2617H245.619C257.137 54.2617 266.475 63.5995 266.475 75.1178V186.402C266.475 197.92 257.137 207.258 245.619 207.258Z" fill="#586773"/>
<path d="M52.3178 199.437C45.1294 199.437 39.2812 193.589 39.2812 186.401V75.1169C39.2812 67.928 45.1294 62.08 52.3178 62.08H245.617C252.805 62.08 258.653 67.928 258.653 75.1169V186.401C258.653 193.589 252.805 199.437 245.617 199.437H52.3178Z" fill="#E5F0F8"/>
<path d="M250.834 82.3116V186.684C250.834 189.565 248.501 191.915 245.62 191.915H52.3216C49.4401 191.915 47.1074 189.565 47.1074 186.684V82.3116H250.834Z" fill="white"/>
<path d="M78.884 232.364H219.051C220.051 232.364 220.863 233.175 220.863 234.176V240.598C220.863 241.599 220.051 242.41 219.051 242.41H78.884C77.8835 242.41 77.0723 241.599 77.0723 240.598V234.176C77.0723 233.175 77.8835 232.364 78.884 232.364Z" fill="#586773"/>
<path d="M250.831 75.1181V82.3057H47.0977V75.1181C47.0977 72.2411 49.4402 69.8973 52.3174 69.8973H245.612C248.489 69.8973 250.831 72.2411 250.831 75.1181Z" fill="#BBDBF3"/>
<path d="M60.2316 76.4972C60.2316 77.6012 59.336 78.4971 58.2311 78.4971C57.1262 78.4971 56.2305 77.6012 56.2305 76.4972C56.2305 75.3917 57.1262 74.4958 58.2311 74.4958C59.336 74.4958 60.2316 75.3917 60.2316 76.4972Z" fill="#40A87B"/>
<path d="M65.8625 76.4972C65.8625 77.6012 64.9667 78.4971 63.8618 78.4971C62.757 78.4971 61.8613 77.6012 61.8613 76.4972C61.8613 75.3917 62.757 74.4958 63.8618 74.4958C64.9667 74.4958 65.8625 75.3917 65.8625 76.4972Z" fill="white"/>
<path d="M71.4974 76.4972C71.4974 77.6012 70.6016 78.4971 69.4967 78.4971C68.3917 78.4971 67.4961 77.6012 67.4961 76.4972C67.4961 75.3917 68.3917 74.4958 69.4967 74.4958C70.6016 74.4958 71.4974 75.3917 71.4974 76.4972Z" fill="#F74242"/>
<path d="M235.99 79.5127L242.809 72.6936" stroke="white" stroke-width="1.09" stroke-miterlimit="10" stroke-linecap="round" stroke-linejoin="round"/>
<path d="M242.809 79.5127L235.99 72.6936" stroke="white" stroke-width="1.09" stroke-miterlimit="10" stroke-linecap="round" stroke-linejoin="round"/>
<path d="M245.899 95.2207H228.988V88.6112H245.899V95.2207Z" fill="#E5F0F8"/>
<path d="M225.169 95.2207H208.258V88.6112H225.169V95.2207Z" fill="#E5F0F8"/>
<path d="M204.436 95.2207H187.525V88.6112H204.436V95.2207Z" fill="#E5F0F8"/>
<path d="M183.708 95.2207H166.797V88.6112H183.708V95.2207Z" fill="#E5F0F8"/>
<path d="M101.904 100.939C100.156 98.31 97.9726 95.9951 95.4495 94.105C93.558 92.6889 91.4701 91.5257 89.2472 90.6283L78.9238 116.214L101.904 100.939Z" fill="#F9E181"/>
<path d="M80.0208 88.6587C79.6547 88.6443 79.2927 88.6125 78.9229 88.6125C77.1581 88.6125 75.434 88.7845 73.7617 89.1024L78.9229 116.214L89.2464 90.6283C86.3781 89.4694 83.2727 88.7859 80.0208 88.6587Z" fill="#F74242"/>
<path d="M106.504 115.379C106.484 114.712 106.433 114.053 106.367 113.398C105.903 108.822 104.325 104.575 101.905 100.936L78.9238 116.212L106.056 121.255C106.36 119.619 106.524 117.936 106.524 116.212C106.524 115.933 106.513 115.657 106.504 115.379Z" fill="#088CFC"/>
<path d="M78.9233 116.214L73.762 89.1026C73.2561 89.1994 72.754 89.3049 72.2583 89.4277C60.2355 92.4102 51.3223 103.27 51.3223 116.214C51.3223 122.757 53.6035 128.764 57.4074 133.494C62.4664 139.785 70.2223 143.815 78.9233 143.815C81.8934 143.815 84.7514 143.34 87.4324 142.472C91.6637 141.102 95.4491 138.742 98.5096 135.658C102.337 131.803 105.028 126.822 106.056 121.257L78.9233 116.214Z" fill="#6ADB6A"/>
<path d="M121.255 99.8584H110.01V88.6132H121.255V99.8584Z" fill="#F74242"/>
<path d="M121.255 113.659H110.01V102.414H121.255V113.659Z" fill="#088CFC"/>
<path d="M121.255 127.459H110.01V116.214H121.255V127.459Z" fill="#F9E181"/>
<path d="M121.255 141.261H110.01V130.014H121.255V141.261Z" fill="#6ADB6A"/>
<path d="M152.709 90.627H123.309V88.6111H152.709V90.627Z" fill="#E5F0F8"/>
<path d="M152.709 94.2344H123.309V92.22H152.709V94.2344Z" fill="#E5F0F8"/>
<path d="M138.541 97.8418H123.309V95.8274H138.541V97.8418Z" fill="#E5F0F8"/>
<path d="M152.709 104.428H123.309V102.413H152.709V104.428Z" fill="#E5F0F8"/>
<path d="M152.709 108.036H123.309V106.02H152.709V108.036Z" fill="#E5F0F8"/>
<path d="M138.541 111.642H123.309V109.627H138.541V111.642Z" fill="#E5F0F8"/>
<path d="M152.709 118.227H123.309V116.212H152.709V118.227Z" fill="#E5F0F8"/>
<path d="M152.709 121.836H123.309V119.822H152.709V121.836Z" fill="#E5F0F8"/>
<path d="M138.541 125.442H123.309V123.427H138.541V125.442Z" fill="#E5F0F8"/>
<path d="M152.709 132.028H123.309V130.013H152.709V132.028Z" fill="#E5F0F8"/>
<path d="M152.709 135.637H123.309V133.621H152.709V135.637Z" fill="#E5F0F8"/>
<path d="M138.541 139.244H123.309V137.23H138.541V139.244Z" fill="#E5F0F8"/>
<path d="M152.711 148.336H51.3262V156.481H152.711V148.336Z" fill="#BBDBF3"/>
<path d="M87.8382 153.301H54.9453V151.487H87.8382V153.301Z" fill="white"/>
<path d="M112.115 153.301H89.8418V151.487H112.115V153.301Z" fill="white"/>
<path d="M51.3242 156.48V185.55H152.709V156.48H51.3242Z" fill="#E5F0F8"/>
<path d="M110.329 182.652H63.125V159.377H110.329V182.652Z" stroke="#BBDBF3" stroke-width="0.6" stroke-miterlimit="10"/>
<path d="M149.074 182.652H141.625V159.377H149.074V182.652Z" stroke="#BBDBF3" stroke-width="0.6" stroke-miterlimit="10"/>
<path d="M141.627 182.652H134.178V159.377H141.627V182.652Z" stroke="#BBDBF3" stroke-width="0.6" stroke-miterlimit="10"/>
<path d="M134.173 182.652H124.865V159.377H134.173V182.652Z" stroke="#BBDBF3" stroke-width="0.6" stroke-miterlimit="10"/>
<path d="M124.87 182.652H110.33V159.377H124.87V182.652Z" stroke="#BBDBF3" stroke-width="0.6" stroke-miterlimit="10"/>
<path d="M149.076 171.764H54.9609V166.319H149.076V171.764Z" stroke="#BBDBF3" stroke-width="0.6" stroke-miterlimit="10"/>
<path d="M149.076 177.208H54.9609V171.765H149.076V177.208Z" stroke="#BBDBF3" stroke-width="0.6" stroke-miterlimit="10"/>
<path d="M149.076 182.652H54.9609V177.207H149.076V182.652Z" stroke="#BBDBF3" stroke-width="0.6" stroke-miterlimit="10"/>
<path d="M161.73 191.91H157.566V82.3067H161.73V191.91Z" fill="#BBDBF3"/>
<path d="M205.438 99.8574H166.797V97.8431H205.438V99.8574Z" fill="#BBDBF3"/>
<path d="M205.438 113.113H166.797V111.099H205.438V113.113Z" fill="#BBDBF3"/>
<path d="M245.897 103.697H166.797V102.414H245.897V103.697Z" fill="#E5F0F8"/>
<path d="M245.897 106.532H166.797V105.249H245.897V106.532Z" fill="#E5F0F8"/>
<path d="M245.897 117.2H166.797V115.956H245.897V117.2Z" fill="#E5F0F8"/>
<path d="M245.897 119.947H166.797V118.703H245.897V119.947Z" fill="#E5F0F8"/>
<path d="M245.897 122.692H166.797V121.448H245.897V122.692Z" fill="#E5F0F8"/>
<path d="M245.897 125.438H166.797V124.196H245.897V125.438Z" fill="#E5F0F8"/>
<path d="M245.897 128.186H166.797V126.941H245.897V128.186Z" fill="#E5F0F8"/>
<path d="M245.897 130.931H166.797V129.688H245.897V130.931Z" fill="#E5F0F8"/>
<path d="M245.897 133.677H166.797V132.433H245.897V133.677Z" fill="#E5F0F8"/>
<path d="M245.897 136.425H166.797V135.181H245.897V136.425Z" fill="#E5F0F8"/>
<path d="M245.897 139.169H166.797V137.925H245.897V139.169Z" fill="#E5F0F8"/>
<path d="M245.897 145.058H166.797V143.813H245.897V145.058Z" fill="#E5F0F8"/>
<path d="M245.897 147.805H166.797V146.561H245.897V147.805Z" fill="#E5F0F8"/>
<path d="M245.897 150.553H166.797V149.309H245.897V150.553Z" fill="#E5F0F8"/>
<path d="M198.024 153.297H166.797V152.053H198.024V153.297Z" fill="#E5F0F8"/>
<path d="M250.833 162.614H161.729V156.948H250.833V162.614Z" fill="#BBDBF3"/>
<path d="M229.252 160.491H209.738V159.074H229.252V160.491Z" fill="#E5F0F8"/>
<path d="M210.457 177.596V187.229H222.66V177.596H210.457Z" stroke="#BBDBF3" stroke-width="0.6" stroke-miterlimit="10"/>
<path d="M180.217 177.596V187.229H210.455V177.596H180.217Z" stroke="#BBDBF3" stroke-width="0.6" stroke-miterlimit="10"/>
<path d="M169.223 177.596V187.229H180.214V177.596H169.223Z" fill="white"/>
<path d="M222.66 177.596V187.229H232.609V177.596H222.66Z" fill="white"/>
<path d="M232.607 177.596V187.229H243.337V177.596H232.607Z" stroke="#BBDBF3" stroke-width="0.6" stroke-miterlimit="10"/>
<path d="M210.457 167.963V177.597H222.66V167.963H210.457Z" stroke="#BBDBF3" stroke-width="0.6" stroke-miterlimit="10"/>
<path d="M180.217 167.963V177.597H210.455V167.963H180.217Z" stroke="#BBDBF3" stroke-width="0.6" stroke-miterlimit="10"/>
<path d="M169.223 167.963V177.597H180.214V167.963H169.223Z" stroke="#BBDBF3" stroke-width="0.6" stroke-miterlimit="10"/>
<path d="M232.607 167.963V177.597H243.337V167.963H232.607Z" stroke="#BBDBF3" stroke-width="0.6" stroke-miterlimit="10"/>
<path d="M206.966 173.696H183.707V171.86H206.966V173.696Z" fill="#E5F0F8"/>
<path d="M206.966 183.33H183.707V181.493H206.966V183.33Z" fill="#E5F0F8"/>
<path d="M155.849 150.454C155.68 150.785 157.216 152.435 158.656 153.23C159.877 153.903 162.859 155.155 163.74 155.518L165.986 151.693C165.543 151.35 165.068 150.957 164.701 150.568C163.793 149.619 161.031 147.32 160.701 147.725C160.37 148.122 161.95 150.081 161.672 150.136C161.396 150.191 159.905 149.024 159.311 148.477C158.711 147.93 157.623 146.551 157.161 146.641C156.691 146.73 156.648 147.427 156.648 147.427C156.648 147.427 156.292 146.852 155.974 147.139C155.655 147.427 155.985 148.462 155.985 148.462C155.985 148.462 155.826 148.122 155.554 148.525C155.282 148.934 156.298 150.301 156.298 150.301C156.298 150.301 156.012 150.118 155.849 150.454Z" fill="#FDAE97"/>
<path d="M194.264 148.013L202.635 147.871L202.195 139.082L201.986 134.879L201.974 134.669L195.425 131.917L195.212 134.888L195.054 137.052L194.264 148.013Z" fill="#FDAE97"/>
<path d="M210.63 175.221L214.15 204.358C214.262 205.095 214.257 205.861 214.107 206.633C213.4 210.271 209.877 212.647 206.239 211.94C202.602 211.233 201.209 208.424 200.556 204.247C199.301 196.227 194.92 172.166 194.92 172.166L210.63 175.221Z" fill="#088CFC"/>
<path d="M187.809 173.754L200.739 174.621L200.674 188.947L199.14 191.215L197.718 205.025L184.629 203.979L187.809 173.754Z" fill="#088CFC"/>
<path d="M221.268 167.248L221.225 167.277C219.296 168.56 216.667 168.033 215.384 166.104L204.927 150.388C203.642 148.459 204.171 145.83 206.1 144.547L206.143 144.518C208.072 143.233 210.701 143.762 211.984 145.691L222.442 161.407C223.725 163.337 223.198 165.965 221.268 167.248Z" fill="#F74242"/>
<path d="M182.705 166.76C181.251 168.692 178.655 169.228 176.953 167.941L168.333 161.103L165.285 158.675L162.104 156.154L164.219 152.827L165.722 150.468L165.865 150.236L169.411 152.551L172.664 154.668L182.237 160.905C183.939 162.191 184.157 164.827 182.705 166.76Z" fill="#F74242"/>
<path d="M198.339 144.34C195.269 144.408 193.961 142.88 193.566 142.28L194.714 141.762L202.309 141.38L203.222 141.672C202.836 142.389 201.478 144.27 198.339 144.34Z" fill="#FDAE97"/>
<path d="M187.437 163.447L187.257 176.007H210.899L210.618 144.342L202.506 141.41C202.415 141.578 202.315 141.751 202.195 141.933L202.165 141.971C201.726 142.531 200.885 143.062 198.528 143.115C196.566 143.16 195.605 142.887 195.058 142.531L195.051 142.524C194.756 142.328 194.582 142.092 194.446 141.88L186.787 143.569L187.302 159.554L187.437 163.447Z" fill="#F74242"/>
<path d="M243.382 191.656L250.15 240.438C250.247 241.135 249.759 241.775 249.067 241.872L245.36 242.386C244.664 242.483 244.019 241.999 243.922 241.302L237.152 192.52L243.382 191.656Z" fill="#F2BB16"/>
<path d="M256.657 229.067L256.924 230.996L261.001 230.431L261.426 233.487L258.39 233.909L258.657 235.839L261.693 235.418L261.989 237.548L248.051 239.481L246.4 227.582L260.338 225.648L260.734 228.501L256.657 229.067Z" fill="#F9E181"/>
<path d="M243.384 191.654L250.152 240.436C250.249 241.133 249.76 241.773 249.068 241.87L247.213 242.127L240.27 192.086L243.384 191.654Z" fill="#F9E181"/>
<path d="M251.624 238.986L249.984 239.214L248.332 227.314L249.972 227.086L251.624 238.986Z" fill="#F2BB16"/>
<path d="M256.292 238.338L255.021 238.515L253.369 226.615L254.641 226.439L256.292 238.338Z" fill="#F2BB16"/>
<path d="M238.949 189.083L238.192 189.188L231.768 190.08L230.182 190.3C228.773 190.496 227.425 189.477 227.224 188.074L226.691 184.226L226.65 183.894L226.415 182.135L226.166 180.367C226 179.206 226.66 178.092 227.683 177.624C227.903 177.526 228.143 177.451 228.387 177.416L228.448 177.409L235.169 176.472L236.015 176.361L241.599 175.585L243.777 175.282L245.856 174.995L247.873 174.717C249.265 174.519 250.622 175.552 250.814 176.939L251.889 184.65C252.08 186.054 251.057 187.408 249.652 187.599L238.949 189.083ZM256.822 183.976L255.756 176.253C255.173 172.124 251.321 169.198 247.187 169.775L247.093 169.788L245.368 170.027L245.313 170.038L231.494 171.961L230.571 172.088L227.702 172.484C225.949 172.724 224.423 173.556 223.286 174.756C223.275 174.758 223.275 174.758 223.275 174.758C223.22 174.825 223.158 174.888 223.103 174.955C222.117 176.058 221.45 177.435 221.23 178.924C221.135 179.612 221.126 180.329 221.224 181.053L221.253 181.262L221.26 181.268L221.713 184.546L221.788 185.082L222.293 188.759C222.41 189.639 222.689 190.464 223.077 191.213C223.309 191.657 223.581 192.07 223.886 192.448C224.997 193.83 226.568 194.801 228.326 195.155C229.143 195.328 229.995 195.363 230.868 195.242L236.462 194.463L237.17 194.362L237.401 194.328L240.519 193.901L243.628 193.474L243.639 193.473L250.338 192.541C254.483 191.961 257.397 188.099 256.822 183.976Z" fill="#F9E181"/>
<path d="M249.652 187.601L230.181 190.303C228.773 190.497 227.425 189.477 227.227 188.077L226.653 183.893L226.411 182.136L226.166 180.364C225.967 178.966 226.987 177.617 228.387 177.419L243.777 175.285L245.855 174.993L247.872 174.714C249.267 174.524 250.621 175.548 250.813 176.943L251.886 184.652C252.08 186.059 251.06 187.407 249.652 187.601ZM253.126 184.484L252.053 176.775C251.762 174.697 249.772 173.197 247.699 173.482L246.353 173.664L244.387 173.946L228.221 176.191C226.148 176.474 224.642 178.46 224.932 180.538L225.075 181.581L225.357 183.61L225.999 188.243C226.289 190.321 228.28 191.819 230.354 191.536L249.826 188.834C251.899 188.551 253.409 186.558 253.126 184.484Z" fill="#F2BB16"/>
<path d="M216.604 233.934L204.441 233.925L200.775 205.623C200.392 201.934 203.065 198.632 206.749 198.243C210.438 197.86 213.735 200.533 214.124 204.217C214.159 204.538 214.163 204.85 214.151 205.168L216.268 230.009L216.604 233.934Z" fill="#088CFC"/>
<path d="M177.555 168.291C179.652 169.361 182.241 168.52 183.309 166.423L191.897 149.577C192.965 147.48 192.124 144.891 190.027 143.823C187.932 142.754 185.342 143.595 184.273 145.691L175.686 162.537C174.619 164.634 175.458 167.224 177.555 168.291Z" fill="#F74242"/>
<path d="M195.061 142.531L198.53 148.017L202.167 141.971C201.728 142.531 200.887 143.062 198.53 143.115C196.568 143.16 195.607 142.887 195.061 142.531Z" fill="#D6EAFF"/>
<path d="M245.486 171.064C245.612 170.713 243.872 169.28 242.34 168.682C241.041 168.173 237.921 167.323 237.001 167.079L235.275 171.167C235.759 171.449 236.283 171.775 236.696 172.114C237.72 172.934 240.761 174.85 241.035 174.407C241.31 173.97 239.489 172.235 239.755 172.144C240.022 172.053 241.654 173.015 242.314 173.479C242.98 173.943 244.239 175.167 244.687 175.017C245.141 174.866 245.091 174.17 245.091 174.17C245.091 174.17 245.519 174.694 245.797 174.366C246.076 174.04 245.613 173.059 245.613 173.059C245.613 173.059 245.815 173.374 246.032 172.939C246.249 172.496 245.061 171.275 245.061 171.275C245.061 171.275 245.369 171.42 245.486 171.064Z" fill="#FDAE97"/>
<path d="M197.763 204.517L194.64 233.934H182.691L184.607 204.355C184.592 204.043 184.68 203.695 184.706 203.373C185.034 199.679 187.969 196.921 191.664 197.243C195.351 197.57 198.085 200.822 197.763 204.517Z" fill="#088CFC"/>
<path d="M235.269 172.768L231.122 171.578L227.369 170.496L217.354 167.62C215.347 166.898 214.37 164.447 215.183 162.168C216.001 159.894 218.316 158.621 220.326 159.339L230.158 163.547L233.732 165.071L237.424 166.651L235.269 172.768Z" fill="#F74242"/>
<path d="M194.818 140.256L199.523 136.825L195.05 137.054L194.818 140.256Z" fill="#EA9D85"/>
<path d="M195.522 127.044C195.522 127.044 194.776 129.756 194.247 131.681L193.811 133.27C193.465 134.527 193.305 136.488 194.6 137.308C195.892 138.126 197.996 138.071 199.754 136.974C201.513 135.871 206.342 130.058 202.839 126.457C199.331 122.855 195.798 126.421 195.522 127.044Z" fill="#FDAE97"/>
<path d="M202.07 136.613C202.07 136.613 199.797 133.118 201.036 131.128C202.274 129.14 201.036 128.64 200.167 128.791C199.297 128.943 197.786 128.9 197.173 128.661C197.173 128.661 199.016 128.705 199.797 128.248C199.797 128.248 196.166 128.546 195.374 127.572L195.181 128.28C195.181 128.28 193.871 125.198 195.84 124.481C197.806 123.764 198.624 124.576 198.624 124.576C198.624 124.576 197.998 123.316 198.899 123.076C199.797 122.838 200.624 124.663 200.624 124.663C200.624 124.663 201.884 123.098 203.187 124.641C204.491 126.183 203.948 127.596 203.948 127.596C203.948 127.596 205.469 128.856 204.729 130.833C203.991 132.811 202.235 134.678 202.07 136.613Z" fill="#322A28"/>
<path d="M198.31 131.605C198.23 131.897 198.012 132.09 197.823 132.038C197.635 131.988 197.547 131.709 197.628 131.417C197.707 131.127 197.925 130.932 198.113 130.984C198.303 131.036 198.389 131.314 198.31 131.605Z" fill="#332B27"/>
<path d="M194.779 130.637C194.7 130.927 194.788 131.206 194.976 131.258C195.165 131.31 195.382 131.115 195.463 130.825C195.542 130.533 195.455 130.254 195.266 130.202C195.078 130.151 194.86 130.345 194.779 130.637Z" fill="#332B27"/>
<path d="M197.235 133.382C197.251 133.674 197.735 133.885 198.316 133.853C198.898 133.821 199.356 133.558 199.34 133.267C199.323 132.973 198.839 132.762 198.258 132.794C197.677 132.827 197.218 133.089 197.235 133.382Z" fill="#E89780"/>
<path d="M194.248 131.68L193.963 132.713C194.385 132.884 194.775 132.862 194.898 132.651C195.037 132.4 194.748 131.966 194.248 131.68Z" fill="#E89780"/>
<path d="M202.224 135.105C201.772 134.884 201.355 134.867 201.355 134.867C201.999 134.189 202.592 134.452 202.592 134.452" stroke="#EA9D85" stroke-width="2.0148" stroke-miterlimit="10" stroke-linecap="round" stroke-linejoin="round"/>
<path d="M197.177 134.854C197.177 134.854 196.398 135.702 195.18 135.118" stroke="#332B27" stroke-width="0.29" stroke-miterlimit="10"/>
<path d="M196.8 131.408L195.645 133.093C195.528 133.263 195.543 133.492 195.68 133.646L195.892 133.886L196.111 134.132" stroke="#332B27" stroke-width="0.2" stroke-miterlimit="10"/>
<path d="M198.899 131.129C198.899 131.129 198.443 130.341 197.66 130.34" stroke="#332B27" stroke-width="0.29" stroke-miterlimit="10"/>
<path d="M194.711 129.643C194.711 129.643 195.34 129.306 195.938 129.813" stroke="#332B27" stroke-width="0.29" stroke-miterlimit="10"/>
<path d="M194.733 141.493L198.531 143.119L196.535 145.542L194.264 141.96L194.733 141.493Z" fill="white"/>
<path d="M202.295 141.134L198.527 143.118L200.324 145.438L202.631 141.459L202.295 141.134Z" fill="white"/>
<path d="M192.912 238.53L193.233 233.934H184.281L183.932 238.53H192.912Z" fill="#FDAE97"/>
<path d="M184.125 236.015L193.236 233.932H184.284L184.125 236.015Z" fill="#EA9D85"/>
<path d="M206.203 238.53L205.859 233.926L215.029 233.934L215.184 238.53H206.203Z" fill="#FDAE97"/>
<path d="M206.052 236.494L215.029 233.934L205.859 233.926L206.052 236.494Z" fill="#EA9D85"/>
<path d="M203.669 127.467C203.669 127.467 204.732 126.902 205.797 127.792C205.797 127.792 203.972 127.271 203.669 127.967C203.364 128.662 203.669 127.467 203.669 127.467Z" fill="#322A28"/>
<path d="M203.077 142.389L198.529 149.704L194.041 142.86" stroke="white" stroke-width="1.04847" stroke-miterlimit="10" stroke-linecap="round" stroke-linejoin="round"/>
<path d="M179.523 242.396H192.742L192.766 241.859L192.927 238.296H183.932C182.82 238.296 181.789 238.95 181 239.632C180.35 240.215 179.864 240.98 179.638 241.859C179.584 242.034 179.547 242.214 179.523 242.396Z" fill="#322A28"/>
<path d="M179.523 242.396H192.742L192.766 241.859H179.638C179.584 242.034 179.547 242.214 179.523 242.396Z" fill="#FFF1F0"/>
<path d="M183.66 239.029C183.66 239.029 184.803 237.024 185.572 237.817C186.342 238.609 183.66 239.029 183.66 239.029Z" stroke="#FFF1F0" stroke-width="0.2" stroke-miterlimit="10" stroke-linecap="round" stroke-linejoin="round"/>
<path d="M184.062 239.429L183.66 239.03C183.66 239.03 182.517 237.024 181.748 237.818C180.978 238.609 183.66 239.03 183.66 239.03" stroke="#FFF1F0" stroke-width="0.2" stroke-miterlimit="10" stroke-linecap="round" stroke-linejoin="round"/>
<path d="M183.354 239.429L183.661 239.03" stroke="#FFF1F0" stroke-width="1.59577" stroke-miterlimit="10" stroke-linecap="round" stroke-linejoin="round"/>
<path d="M219.527 242.396H206.308L206.285 241.859L206.123 238.296H215.118C216.231 238.296 217.261 238.95 218.049 239.632C218.701 240.215 219.186 240.98 219.413 241.859C219.466 242.034 219.504 242.214 219.527 242.396Z" fill="#322A28"/>
<path d="M219.527 242.396H206.308L206.285 241.859H219.413C219.467 242.034 219.504 242.214 219.527 242.396Z" fill="#FFF1F0"/>
<path d="M215.387 239.151C215.387 239.151 214.244 237.146 213.475 237.939C212.705 238.731 215.387 239.151 215.387 239.151Z" stroke="#FFF1F0" stroke-width="0.2" stroke-miterlimit="10" stroke-linecap="round" stroke-linejoin="round"/>
<path d="M214.984 239.55L215.386 239.151C215.386 239.151 216.529 237.145 217.298 237.939C218.068 238.73 215.386 239.151 215.386 239.151" stroke="#FFF1F0" stroke-width="0.2" stroke-miterlimit="10" stroke-linecap="round" stroke-linejoin="round"/>
<path d="M215.697 239.55L215.391 239.151" stroke="#FFF1F0" stroke-width="1.59577" stroke-miterlimit="10" stroke-linecap="round" stroke-linejoin="round"/>
<path d="M198.811 194.403L198.38 190.88L196.22 189.389L194.463 182.235" stroke="white" stroke-width="0.31" stroke-miterlimit="10"/>
<path d="M183.932 230.327H192.434" stroke="white" stroke-width="0.2" stroke-miterlimit="10"/>
<path d="M206.686 230.327H215.187" stroke="white" stroke-width="0.2" stroke-miterlimit="10"/>
<path d="M45.1856 162.112C67.3791 162.112 85.3775 180.104 85.3775 202.304C85.3775 202.968 85.0311 202.98 85 203.639H81.4436L78.6469 206.418L76.3412 206.051L67.634 204.671L58.9145 203.292L50.1202 201.893L47.9948 201.558L47.8021 200.999L43.98 199.581L44.4274 201.807L46.9321 204.043L47.8518 201.713L50.1327 202.091L58.8959 203.552L67.5968 205.007L76.2851 206.455L78.5784 206.84L80.3186 210.377L84.4144 211.06C84.0663 212.627 83.6313 214.156 83.1029 215.64L74.4394 213.638L65.7385 211.625L56.8636 209.575L56.5714 209.506L56.4223 208.935L52.7058 207.256L52.9979 209.506L55.1793 211.75C55.3534 211.569 55.5211 211.383 55.6891 211.191V211.185L56.4223 209.656L56.7579 209.737L65.6328 211.862L74.3213 213.943L82.9724 216.013C77.3728 231.457 62.5625 242.488 45.1856 242.488C22.9923 242.488 5 224.496 5 202.304C5 180.104 22.9923 162.112 45.1856 162.112Z" fill="#C43A3B"/>
<path d="M48.672 162.112C70.8653 162.112 88.8638 180.104 88.8638 202.304C88.8638 202.968 88.8453 203.633 88.8141 204.292L84.9299 203.639L82.133 206.418L79.8274 206.051L71.1204 204.671L62.4007 203.292L53.6066 201.893L51.4811 201.558L51.2885 200.999L47.4662 199.581L47.9138 201.807L50.4184 204.043L51.3382 201.713L53.619 202.091L62.382 203.552L71.083 205.007L79.7714 206.455L82.0647 206.84L83.8049 210.377L87.9006 211.06C87.5524 212.627 87.1175 214.156 86.5892 215.64L77.9256 213.638L69.2247 211.625L60.3498 209.575L60.0577 209.506L59.9086 208.935L56.192 207.256L56.4842 209.506L58.6656 211.75C58.8397 211.569 59.0075 211.383 59.1752 211.191V211.185L59.9086 209.656L60.2443 209.737L69.1192 211.862L77.8077 213.943L86.4587 216.013C80.8591 231.457 66.0488 242.488 48.672 242.488C26.4784 242.488 8.48633 224.496 8.48633 202.304C8.48633 180.104 26.4784 162.112 48.672 162.112Z" fill="#F74242"/>
<path d="M17.4954 205.925C19.116 220.316 30.7152 231.893 45.1092 233.484C59.8 235.11 72.764 226.531 77.8057 213.943L69.1173 211.862L60.2423 209.737L59.9068 209.656L59.1734 211.185V211.19C59.0057 211.383 58.8377 211.569 58.6638 211.75L56.4824 209.505L56.1902 207.256L59.9068 208.935L60.0559 209.505L60.3479 209.575L69.2228 211.625L77.9238 213.64C78.8124 211.358 79.4401 208.953 79.7696 206.455L71.0811 205.007L62.3802 203.552L53.6172 202.091L51.3363 201.712L50.4166 204.043L47.9119 201.806L47.4644 199.581L51.2866 200.997L51.4793 201.558L53.6047 201.893L62.399 203.292L71.1186 204.67L79.8255 206.05C79.8346 205.975 79.8435 205.902 79.852 205.826C81.7857 188.808 68.899 172.772 51.8554 171.082C31.9122 169.106 15.244 185.934 17.4954 205.925Z" fill="white"/>
<path d="M26.0957 202.303C26.0957 214.745 36.2259 224.876 48.6682 224.876C57.7048 224.876 65.5107 219.542 69.1155 211.862L60.2404 209.736L59.9049 209.656L59.1715 211.184V211.19C59.0038 211.382 58.8359 211.569 58.6619 211.749L56.4805 209.505L56.1883 207.255L59.9049 208.934L60.054 209.505L60.3461 209.575L69.221 211.625C70.1595 209.567 70.7996 207.344 71.0792 205.007L62.3783 203.552L53.6153 202.091L51.3345 201.712L50.4147 204.043L47.91 201.806L47.4625 199.581L51.2848 200.997L51.4774 201.558L53.6029 201.893L62.3971 203.292L71.1167 204.67C71.1973 203.894 71.2408 203.105 71.2408 202.303C71.2408 189.854 61.1167 179.731 48.6682 179.731C36.2259 179.731 26.0957 189.854 26.0957 202.303Z" fill="#F74242"/>
<path d="M34.9004 202.302C34.9004 209.89 41.078 216.062 48.6664 216.062C52.6005 216.062 56.1491 214.403 58.66 211.748L56.4786 209.504L56.1864 207.254L59.903 208.933L60.0522 209.504L60.3442 209.573C61.4629 207.796 62.1776 205.744 62.3765 203.551L53.6134 202.09L51.3326 201.711L50.4128 204.042L47.9082 201.805L47.4607 199.58L51.2829 200.996L51.4755 201.556L53.601 201.892L62.3953 203.29C62.4201 202.961 62.4325 202.631 62.4325 202.302C62.4325 194.713 56.2548 188.535 48.6664 188.535C41.078 188.535 34.9004 194.713 34.9004 202.302Z" fill="white"/>
<path d="M43.7148 202.304C43.7148 205.032 45.9335 207.256 48.6681 207.256C51.4028 207.256 53.6213 205.032 53.6213 202.304C53.6213 202.234 53.6213 202.161 53.6151 202.091L51.3343 201.713L50.4145 204.044L47.9099 201.807L47.4624 199.581L51.2846 200.997L51.4772 201.558L53.6027 201.893C53.3976 199.352 51.2659 197.35 48.6681 197.35C45.9335 197.35 43.7148 199.568 43.7148 202.304Z" fill="#F74242"/>
<path d="M99.6042 169.986L49.0098 199.824" stroke="#586773" stroke-width="1.04" stroke-miterlimit="10" stroke-linecap="round" stroke-linejoin="round"/>
<path d="M87.7539 176.974L100.476 169.471L101.119 164.851L88.3971 172.355L87.7539 176.974Z" fill="#F8EBB7"/>
<path d="M87.7539 176.974L100.476 169.472L104.83 171.143L92.1075 178.647L87.7539 176.974Z" fill="#F9E181"/>
<path d="M79.9375 181.584L85.6975 178.187L86.1047 173.707L80.3446 177.103L79.9375 181.584Z" fill="#F8EBB7"/>
<path d="M79.9375 181.583L85.6975 178.186L89.8151 179.996L84.055 183.394L79.9375 181.583Z" fill="#F9E181"/>
<path d="M49.0236 196.794L51.6682 201.278L48.0029 201.89L46.8457 199.543L49.0236 196.794Z" fill="#92ABBE"/>
<path d="M109.742 182.354L56.8125 207.821" stroke="#586773" stroke-width="1.04" stroke-miterlimit="10" stroke-linecap="round" stroke-linejoin="round"/>
<path d="M97.3457 188.319L110.656 181.915L111.686 177.368L98.376 183.77L97.3457 188.319Z" fill="#F8EBB7"/>
<path d="M97.3457 188.319L110.656 181.915L114.852 183.948L101.543 190.353L97.3457 188.319Z" fill="#F9E181"/>
<path d="M89.1719 192.253L95.1976 189.354L95.9808 184.924L89.9554 187.824L89.1719 192.253Z" fill="#F8EBB7"/>
<path d="M89.1719 192.252L95.1976 189.353L99.1483 191.505L93.1226 194.403L89.1719 192.252Z" fill="#F9E181"/>
<path d="M57.083 204.804L59.3403 209.494L56.5407 209.72L55.0957 206.918L57.083 204.804Z" fill="#92ABBE"/>
<path d="M35.9588 128.992C35.9588 128.992 33.4454 125.789 37.1873 124.229C39.0748 123.443 39.6094 122.425 39.0802 120.997C38.5511 119.569 39.1422 118.02 40.6393 117.194C42.1363 116.367 42.7811 113.908 45.9058 115.351C45.9058 115.351 49.8465 116.897 49.6874 119.305C49.5282 121.712 49.5604 121.507 50.4011 123.146C51.242 124.783 49.4899 126.742 49.4244 127.723C49.3604 128.683 49.7814 128.992 49.7814 128.992H35.9588Z" fill="#322A28"/>
<path d="M60.3894 150.698C58.6554 151.763 56.3659 151.216 55.3016 149.482L47.3013 136.447C46.2368 134.713 46.7848 132.424 48.5187 131.36C50.2527 130.295 52.5422 130.844 53.6066 132.578L61.607 145.61C62.6712 147.344 62.1234 149.635 60.3894 150.698Z" fill="#BBDBF3"/>
<path d="M70.0541 176.323H70.054C68.0544 179.112 64.1373 179.757 61.3493 177.757L41.8753 163.791C39.0873 161.791 38.4422 157.873 40.442 155.086C42.4415 152.297 46.3587 151.653 49.1467 153.653L68.6205 167.619C71.4085 169.619 72.0537 173.536 70.0541 176.323Z" fill="#0775EF"/>
<path d="M64.4467 178.072C62.4471 180.859 58.5299 181.505 55.7419 179.505L36.268 165.538C33.48 163.538 32.8348 159.622 34.8344 156.833H34.8346C36.8342 154.046 40.7514 153.4 43.5392 155.4L63.0132 169.367C65.8013 171.367 66.4463 175.283 64.4467 178.072Z" fill="#088CFC"/>
<path d="M41.2081 129.301L34.7344 132.35C34.7344 132.35 36.1738 148.898 36.3226 150.72C36.4714 152.544 35.9134 155.297 35.9134 155.297H51.4274C51.4274 155.297 51.2414 146.368 52.283 143.875C52.9888 142.186 53.4737 141.159 53.0643 139.225C52.6551 137.29 51.2786 134.389 51.7622 131.039L47.7815 129.44L41.2081 129.301Z" fill="#BBDBF3"/>
<path d="M69.452 206.887L68.2598 202.683L74.741 201.747L75.2655 205.985L69.452 206.887Z" fill="#A06753"/>
<path d="M47.7814 121.914V129.441C47.7814 129.441 47.7814 129.534 47.7631 129.681C47.6858 130.295 47.2885 131.873 45.243 131.851C43.374 131.83 42.0678 130.457 41.5124 129.736C41.3101 129.479 41.207 129.302 41.207 129.302L42.1488 121.914H47.7814Z" fill="#A06753"/>
<path d="M47.5488 206.154L53.3226 207.269L54.5471 203.605L48.1357 202.65L47.5488 206.154Z" fill="#A06753"/>
<path d="M47.7822 129.44L44.4355 125.167L47.7822 124.523V129.44Z" fill="#824C3A"/>
<path d="M47.9365 126.479C46.6039 126.913 44.7566 126.384 43.4493 125.011C42.142 123.638 39.2051 118.498 43.1252 116.105C47.0497 113.712 49.3672 117.673 49.4687 118.287C49.4687 118.287 49.5075 120.449 49.5312 121.972C49.5402 122.359 49.546 122.705 49.55 122.963C49.5487 123.005 49.5529 123.044 49.5528 123.082C49.5715 124.275 49.2681 126.048 47.9365 126.479Z" fill="#A06753"/>
<path d="M28.2744 152.754C26.4385 151.875 25.6542 149.655 26.5313 147.82L33.1243 134.022C34.0013 132.185 36.221 131.4 38.0568 132.278C39.8925 133.155 40.677 135.374 39.7999 137.211L33.207 151.009C32.3299 152.846 30.1102 153.629 28.2744 152.754Z" fill="#BBDBF3"/>
<path d="M63.3135 167.805C60.2046 168.922 58.589 172.347 59.7048 175.455L67.527 203.605L77.1662 202.107L71.3043 173.087H71.3018C71.2692 172.529 71.1611 171.967 70.9627 171.415C69.847 168.305 66.4221 166.689 63.3135 167.805Z" fill="#0775EF"/>
<path d="M46.5449 210.57L49.278 211.052L49.7644 209.318L50.942 211.346L57.39 212.481L53.3224 207.269L47.5486 206.155L46.5449 210.57Z" fill="#322A28"/>
<path d="M60.7151 168.194C57.4623 167.622 54.3604 169.793 53.7869 173.046L46.3848 203.077L55.6174 204.858L65.0331 176.744H65.0309C65.2792 176.243 65.4644 175.701 65.5663 175.123C66.1398 171.87 63.9679 168.768 60.7151 168.194Z" fill="#088CFC"/>
<path d="M51.5039 208.097L54.0834 208.544" stroke="#D1DDFF" stroke-width="0.2" stroke-miterlimit="10"/>
<path d="M45.9018 115.352C45.9018 115.352 49.4761 115.468 49.935 118.892L48.1201 118.979C48.1201 118.979 48.1489 117.806 47.2365 117.291C47.2365 117.291 47.8792 118.189 47.6593 119.066L45.5572 119.274C45.5572 119.274 45.465 117.999 45.5777 117.495C45.5777 117.495 45.0698 118.661 45.0536 119.356L43.5743 119.762C43.5743 119.762 43.5842 120.953 43.0484 121.381C42.5125 121.808 41.7973 123.719 41.7973 123.719C41.7973 123.719 40.2622 119.508 40.9407 118.167C41.6192 116.826 42.8333 114.671 45.9018 115.352Z" fill="#322A28"/>
<path d="M51.9707 209.096L54.5502 209.543" stroke="#D1DDFF" stroke-width="0.2" stroke-miterlimit="10"/>
<path d="M69.9432 211.326L72.6834 210.885L72.5747 209.088L74.3515 210.617L80.816 209.578L75.2646 205.985L69.4512 206.887L69.9432 211.326Z" fill="#322A28"/>
<path d="M73.8184 207.365L76.4016 206.942" stroke="#D1DDFF" stroke-width="0.2" stroke-miterlimit="10"/>
<path d="M74.584 208.156L77.1674 207.731" stroke="#D1DDFF" stroke-width="0.2" stroke-miterlimit="10"/>
<path d="M48.4062 158.892C48.4062 158.892 58.6564 166.12 60.6368 167.497C62.617 168.875 65.5435 170.432 65.6572 173.744C65.7709 177.054 62.4225 184.415 62.4225 184.415" stroke="#E5F0F8" stroke-width="0.2" stroke-miterlimit="10"/>
<path d="M42.8173 122.382C43.0487 123.086 43.0429 123.539 42.4906 123.719C41.9383 123.901 41.1733 123.604 40.942 122.9C40.7105 122.196 40.9707 121.479 41.523 121.297C42.0753 121.115 42.5858 121.679 42.8173 122.382Z" fill="#A06753"/>
<path d="M41.418 122.005C41.418 122.005 42.3036 121.963 42.3808 122.713C42.3808 122.713 42.0905 122.446 41.6479 122.525" stroke="#724638" stroke-width="0.848676" stroke-miterlimit="10" stroke-linecap="round" stroke-linejoin="round"/>
<path d="M46.0938 121.366C46.092 121.652 46.2406 121.885 46.4257 121.885C46.6108 121.886 46.7622 121.655 46.764 121.369C46.7657 121.083 46.617 120.85 46.432 120.85C46.2469 120.849 46.0955 121.08 46.0938 121.366Z" fill="#322A28"/>
<path d="M48.5371 121.157C48.5354 121.443 48.6841 121.675 48.869 121.677C49.0542 121.678 49.2057 121.447 49.2073 121.161C49.2091 120.875 49.0605 120.642 48.8754 120.641C48.6903 120.639 48.5389 120.87 48.5371 121.157Z" fill="#322A28"/>
<path d="M46.9976 124.688C47.3351 124.805 47.7038 124.626 47.8208 124.289L46.5985 123.864C46.4813 124.202 46.66 124.571 46.9976 124.688Z" fill="white"/>
<path d="M45.4434 120.786C45.4434 120.786 46.0221 120.077 46.69 120.338" stroke="#2C3447" stroke-width="0.2" stroke-miterlimit="10"/>
<path d="M48.5938 120.223C48.5938 120.223 49.0115 120.148 49.4531 120.602" stroke="#2C3447" stroke-width="0.2" stroke-miterlimit="10"/>
<path d="M47.6738 121.194C47.6738 121.194 47.6981 122.612 48.529 122.791C48.529 122.791 48.2628 123.029 47.9306 123.126" stroke="#2C3447" stroke-width="0.2" stroke-miterlimit="10"/>
<path d="M46.5425 122.926C46.4727 123.198 46.007 123.313 45.502 123.185C44.9971 123.056 44.6442 122.73 44.7138 122.458C44.7836 122.185 45.2494 122.069 45.7544 122.198C46.2593 122.328 46.6122 122.653 46.5425 122.926Z" fill="#A14C53"/>
<path d="M49.55 122.965C49.2464 122.976 49.0029 122.881 48.9421 122.698C48.8629 122.456 49.1184 122.154 49.5312 121.974C49.5402 122.361 49.546 122.706 49.55 122.965Z" fill="#A14C53"/>
<path d="M54.969 148.527C54.0813 146.482 54.8318 144.167 56.6373 143.384L73.0971 138.704C73.6116 138.428 74.1891 138.088 74.6328 137.75C75.665 136.962 78.7205 135.153 78.9777 135.595C79.2349 136.038 77.3927 137.701 77.6528 137.798C77.9129 137.895 79.5493 136.99 80.2164 136.549C80.8834 136.108 82.161 134.932 82.6003 135.093C83.0396 135.253 82.9781 135.938 82.9781 135.938C82.9781 135.938 83.4108 135.431 83.6761 135.762C83.9413 136.093 83.4593 137.048 83.4593 137.048C83.4593 137.048 83.6712 136.741 83.8729 137.179C84.0748 137.617 82.8695 138.792 82.8695 138.792C82.8695 138.792 83.18 138.659 83.2877 139.013C83.3956 139.366 81.6416 140.735 80.1145 141.286C78.7516 141.777 75.3828 142.587 74.6749 142.754L59.8657 150.82C58.0603 151.605 55.8569 150.572 54.969 148.527Z" fill="#A06753"/>
<path d="M36.0215 145.121L38.2173 140.526" stroke="#2C3447" stroke-width="0.2" stroke-miterlimit="10"/>
<path d="M42.6516 123.953C42.6493 124.253 42.4038 124.495 42.1031 124.493C41.8024 124.49 41.5603 124.245 41.5625 123.944C41.5648 123.643 41.8105 123.402 42.1112 123.404C42.4119 123.406 42.6538 123.652 42.6516 123.953Z" stroke="white" stroke-width="0.3" stroke-miterlimit="10"/>
<path d="M63.4187 164.023H45.6777L50.3079 150.739H68.0488L63.4187 164.023Z" fill="#A5BBD6"/>
<path d="M45.8697 163.379L40.0684 158.248H57.228L63.6107 163.379H45.8697Z" fill="#89A5C7"/>
<path d="M63.0808 163.73H45.3398L49.9698 150.445H67.711L63.0808 163.73Z" fill="#A5BBD6"/>
<path d="M67.711 150.445L68.0461 150.739H50.3051L45.6749 164.023L45.3398 163.73L49.9698 150.445H67.711Z" fill="#89A5C7"/>
<path d="M40.0685 158.248L39.875 158.892L45.6763 164.023L45.901 163.379L40.0685 158.248Z" fill="#586773"/>
<path d="M59.5767 157.531C59.5767 158.012 58.6959 158.402 57.6095 158.402C56.5233 158.402 55.6426 158.012 55.6426 157.531C55.6426 157.05 56.5233 156.661 57.6095 156.661C58.6959 156.661 59.5767 157.05 59.5767 157.531Z" fill="#89A5C7"/>
<path d="M26.5157 147.437C27.5622 145.468 29.8403 144.612 31.5782 145.537L45.4947 155.495C46.0315 155.725 46.6563 155.966 47.1979 156.102C48.4568 156.418 51.7753 157.681 51.5899 158.157C51.4044 158.633 48.9555 158.229 49.0416 158.493C49.1279 158.758 50.8551 159.473 51.6159 159.72C52.3764 159.967 54.0922 160.233 54.2408 160.677C54.3892 161.12 53.8145 161.5 53.8145 161.5C53.8145 161.5 54.4817 161.522 54.3879 161.935C54.2941 162.349 53.2462 162.568 53.2462 162.568C53.2462 162.568 53.6187 162.542 53.402 162.973C53.1852 163.403 51.5145 163.194 51.5145 163.194C51.5145 163.194 51.8121 163.353 51.6031 163.658C51.3941 163.961 49.2302 163.442 47.8479 162.591C46.614 161.833 43.8824 159.701 43.3101 159.252L27.7729 152.696C26.0351 151.772 25.4694 149.406 26.5157 147.437Z" fill="#A06753"/>
<path d="M52.2292 144.02C52.2292 144.02 53.3952 141.567 53.2059 140.293C53.0165 139.018 51.9786 135.576 51.8418 134.52" stroke="#2C3447" stroke-width="0.2" stroke-miterlimit="10"/>
<path d="M277.787 110.961V127.438H253V110.961L265.392 119.199L277.787 110.961Z" fill="#F2BB16"/>
<path d="M278.734 110.961L266.339 119.199L253.947 110.961H278.734Z" fill="#F9ECB8"/>
<path d="M278.734 110.961V127.438H253.947V110.961L266.339 119.199L278.734 110.961Z" fill="#F9E181"/>
<path d="M253.947 127.438L266.339 119.199L278.734 127.438H253.947Z" fill="#F9ECB8"/>
<path d="M280.693 110.962C280.693 112.044 279.815 112.922 278.733 112.922C277.649 112.922 276.771 112.044 276.771 110.962C276.771 109.878 277.649 109 278.733 109C279.815 109 280.693 109.878 280.693 110.962Z" fill="#F74242"/>
<path d="M46.7864 81.9614V98.4385H22V81.9614L34.3921 90.2005L46.7864 81.9614Z" fill="#93ACBF"/>
<path d="M47.7317 81.9611L35.3373 90.2002L22.9453 81.9611H47.7317Z" fill="#E5F0F8"/>
<path d="M47.7317 81.9614V98.4385H22.9453V81.9614L35.3373 90.2005L47.7317 81.9614Z" fill="#BBDBF3"/>
<path d="M22.9453 98.4385L35.3373 90.2005L47.7317 98.4385H22.9453Z" fill="#E5F0F8"/>
<path d="M49.6925 81.9617C49.6925 83.0442 48.8148 83.9219 47.7321 83.9219C46.6492 83.9219 45.7715 83.0442 45.7715 81.9617C45.7715 80.8781 46.6492 80.0005 47.7321 80.0005C48.8148 80.0005 49.6925 80.8781 49.6925 81.9617Z" fill="#6ADB6A"/>
<path d="M32.6664 284.955C32.6664 284.955 28.8697 269.745 19.4053 265.05C9.94095 260.356 -0.160385 266.783 2.40461 273.541C4.61635 279.369 13.7111 272.203 20.7874 275.021C27.8637 277.838 28.9791 284.955 28.9791 284.955H32.6664Z" fill="#40A87B"/>
<path d="M4.23633 269.488C4.23633 269.488 14.394 263.674 21.9303 269.05C29.4668 274.424 31.8518 284.955 31.8518 284.955" stroke="#6ADB6A" stroke-width="0.1" stroke-miterlimit="10"/>
<path d="M5.87305 266.769L8.23631 267.804" stroke="#6ADB6A" stroke-width="0.1" stroke-miterlimit="10"/>
<path d="M9.28711 264.552L13.9943 266.77" stroke="#6ADB6A" stroke-width="0.1" stroke-miterlimit="10"/>
<path d="M16.3574 264.551L18.8064 267.457" stroke="#6ADB6A" stroke-width="0.1" stroke-miterlimit="10"/>
<path d="M21.002 266.499L22.1028 269.174" stroke="#6ADB6A" stroke-width="0.1" stroke-miterlimit="10"/>
<path d="M7.05664 273.191L10.6847 267.163" stroke="#6ADB6A" stroke-width="0.1" stroke-miterlimit="10"/>
<path d="M13.4629 272.326L16.7903 266.959" stroke="#6ADB6A" stroke-width="0.1" stroke-miterlimit="10"/>
<path d="M19.1152 271.505L24.1177 270.881" stroke="#6ADB6A" stroke-width="0.1" stroke-miterlimit="10"/>
<path d="M24.9395 274.548L27.8068 275.494" stroke="#6ADB6A" stroke-width="0.1" stroke-miterlimit="10"/>
<path d="M37.9128 285C37.9128 285 40.5919 234.014 16.3445 240.585C-7.903 247.155 35.2589 274.633 35.2222 285H37.9128Z" fill="#6ADB6A"/>
<path d="M36.9319 285C36.9319 285 36.0852 258.361 18.8008 245.189" stroke="#40A87B" stroke-miterlimit="10"/>
<path d="M26.381 252.913L25.9492 243.727" stroke="#40A87B" stroke-miterlimit="10"/>
<path d="M12.8203 249.106L24.5031 250.636" stroke="#40A87B" stroke-miterlimit="10"/>
<path d="M17.3633 256.946L29.7157 258.392" stroke="#40A87B" stroke-miterlimit="10"/>
<path d="M23.541 264.716L33.0818 266.069" stroke="#40A87B" stroke-miterlimit="10"/>
<path d="M33.9973 257.456L31.8105 262.793" stroke="#40A87B" stroke-width="0.8" stroke-miterlimit="10"/>
<path d="M30.4035 248.796L28.5391 256.309" stroke="#40A87B" stroke-miterlimit="10"/>
<path d="M36.0391 266.364L34.2969 269.852" stroke="#40A87B" stroke-width="0.8" stroke-miterlimit="10"/>
<path d="M28.5391 271.92L35.3758 274.085" stroke="#40A87B" stroke-miterlimit="10"/>
</svg>
