<svg width="285" height="285" viewBox="0 0 285 285" fill="none" xmlns="http://www.w3.org/2000/svg">
<g clip-path="url(#clip0_935_2358)">
<rect width="285" height="285" fill="#F3E9FF"/>
<path opacity="0.1" d="M224.929 264.629C256.922 264.629 282.858 259.588 282.858 253.37C282.858 247.152 256.922 242.111 224.929 242.111C192.936 242.111 167 247.152 167 253.37C167 259.588 192.936 264.629 224.929 264.629Z" fill="#6C63FF"/>
<g opacity="0.5">
<path d="M175.286 60.3964C174.311 60.6735 173.117 61.3953 172.529 63.3692C171.376 67.2383 174.055 69.869 173.172 73.9022C172.927 74.9721 172.461 75.9789 171.804 76.8579C170.726 78.3186 169.556 79.0097 168.42 80.0325C166.98 81.3393 165.947 83.0345 165.448 84.9142C164.9 86.9888 164.854 89.1641 165.314 91.26C165.718 93.0115 166.405 94.2875 167.008 95.7072C167.756 97.518 168.341 99.3921 168.756 101.307C168.983 102.24 169.112 103.194 169.139 104.153C169.122 105.428 169.007 106.7 168.797 107.958L167.158 119.39C166.909 120.885 166.759 122.395 166.71 123.909C166.731 125.427 166.907 126.939 167.233 128.421C167.808 131.446 168.427 134.579 169.744 136.18C171.061 137.781 173.305 137.206 174.684 133.967C175.994 130.867 176.025 126.732 177.181 123.42C179.005 118.203 182.627 117.502 184.639 112.524C186.568 107.735 185.977 101.892 186.955 96.4461C187.639 92.5428 189.148 88.9851 190.034 85.1297C191.306 79.5775 191.18 73.8133 190.164 69.544C189.391 66.0361 187.719 62.7894 185.313 60.1228C184.461 59.182 183.548 58.3439 182.477 58.2584C181.338 58.1694 180.342 59.6028 179.217 60.0338C177.917 60.5435 176.61 60.0201 175.286 60.3964Z" fill="#6C63FF"/>
<path d="M181.458 58.5496C181.458 58.5496 179.528 107.927 171.414 137.043" stroke="#535461" stroke-width="2" stroke-miterlimit="10"/>
<path d="M172.492 63.6021C172.492 63.6021 181.164 71.4975 179.519 86.5222" stroke="#535461" stroke-width="2" stroke-miterlimit="10"/>
<path d="M165.211 86.0706C165.211 86.0706 179.445 88.9339 178.388 97.4485" stroke="#535461" stroke-width="2" stroke-miterlimit="10"/>
<path d="M190.181 69.4417C190.181 69.4417 184.42 74.4841 179.289 88.7664" stroke="#535461" stroke-width="2" stroke-miterlimit="10"/>
<path d="M184.553 112.607C184.553 112.607 180.623 115.685 177.469 104.906" stroke="#535461" stroke-width="2" stroke-miterlimit="10"/>
<path d="M167.609 118.904C167.609 118.904 175.625 117.858 176.364 112.839" stroke="#535461" stroke-width="2" stroke-miterlimit="10"/>
</g>
<path d="M194.654 27.2783C192.67 27.5725 190.282 28.4927 189.3 31.3286C187.374 36.8911 193.228 41.1022 191.88 46.9144C191.478 48.5138 190.631 49.9668 189.437 51.105C187.385 53.1268 185.038 54.0094 182.814 55.3811C180.591 56.7529 178.282 58.9115 177.238 62.223C176.236 65.4079 176.67 68.9246 177.714 71.5518C178.757 74.1791 180.334 76.1393 181.743 78.3013C183.456 80.9625 184.888 83.7942 186.016 86.751C186.585 88.0987 186.967 89.5178 187.152 90.969C187.333 92.7479 187.104 94.6602 186.875 96.5314L184.839 113.205C184.569 115.422 184.295 117.673 184.449 119.807C184.624 122.267 185.353 124.415 186.071 126.512C187.617 131.035 189.273 135.749 192.191 138.239C195.109 140.73 199.686 140.196 202.153 135.564C204.499 131.155 204.068 125.069 206.07 120.331C209.224 112.863 216.64 112.257 220.208 105.169C223.629 98.3684 221.717 89.669 223.092 81.7667C224.077 76.1051 226.746 71.0421 228.114 65.4694C230.088 57.4405 229.14 48.9396 226.534 42.5493C223.927 36.159 219.805 31.6023 215.381 28.1027C213.507 26.6146 211.519 25.2702 209.292 25.0239C206.925 24.7605 205.033 26.7515 202.758 27.2543C200.11 27.8051 197.346 26.878 194.654 27.2783Z" fill="#6C63FF"/>
<path d="M207.207 25.2874C207.207 25.2874 209.075 97.7733 195.727 139.69" stroke="#535461" stroke-width="2" stroke-miterlimit="10"/>
<path d="M189.234 31.6775C189.234 31.6775 208.118 44.3349 206.5 66.2835" stroke="#535461" stroke-width="2" stroke-miterlimit="10"/>
<path d="M176.836 63.8923C176.836 63.8923 206.639 69.7968 205.462 82.2079" stroke="#535461" stroke-width="2" stroke-miterlimit="10"/>
<path d="M226.577 42.3647C226.577 42.3647 215.25 49.1074 206.328 69.5303" stroke="#535461" stroke-width="2" stroke-miterlimit="10"/>
<path d="M220.044 105.265C220.044 105.265 212.279 109.37 204.469 93.0828" stroke="#535461" stroke-width="2" stroke-miterlimit="10"/>
<path d="M185.68 112.521C185.68 112.521 202.145 111.929 203.082 104.625" stroke="#535461" stroke-width="2" stroke-miterlimit="10"/>
<path d="M119.126 201.543C119.629 201.133 119.995 200.581 120.176 199.959C120.313 199.328 120.045 198.575 119.442 198.344C118.767 198.087 118.047 198.553 117.501 199.027C116.956 199.501 116.328 200.038 115.613 199.937C115.98 199.604 116.256 199.181 116.411 198.71C116.567 198.238 116.598 197.735 116.501 197.248C116.47 197.046 116.385 196.857 116.254 196.7C115.879 196.3 115.202 196.473 114.752 196.788C113.327 197.791 112.93 199.726 112.921 201.469C112.779 200.841 112.899 200.186 112.894 199.55C112.889 198.915 112.713 198.18 112.17 197.846C111.834 197.665 111.456 197.575 111.074 197.585C110.433 197.561 109.72 197.626 109.282 198.095C108.734 198.676 108.879 199.655 109.353 200.288C109.827 200.921 110.545 201.329 111.208 201.773C111.74 202.089 112.193 202.521 112.535 203.037C112.575 203.108 112.608 203.183 112.634 203.261H116.649C117.548 202.803 118.382 202.225 119.126 201.543Z" fill="#6C63FF"/>
<path d="M126.508 253.006C127.146 252.412 127.747 251.71 127.933 250.858C128.119 250.005 127.755 248.98 126.938 248.665C126.025 248.314 125.047 248.939 124.307 249.589C123.567 250.238 122.717 250.959 121.75 250.822C122.248 250.37 122.621 249.797 122.832 249.158C123.043 248.519 123.084 247.836 122.953 247.177C122.911 246.904 122.795 246.649 122.619 246.437C122.112 245.889 121.191 246.127 120.585 246.555C118.666 247.925 118.118 250.537 118.105 252.899C117.91 252.047 118.074 251.159 118.069 250.285C118.063 249.41 117.825 248.443 117.088 247.971C116.629 247.725 116.112 247.604 115.591 247.621C114.722 247.588 113.755 247.675 113.163 248.311C112.426 249.101 112.615 250.424 113.259 251.293C113.903 252.162 114.876 252.708 115.772 253.308C116.492 253.737 117.105 254.322 117.567 255.021C117.622 255.118 117.667 255.221 117.702 255.328H123.148C124.367 254.709 125.497 253.928 126.508 253.006Z" fill="#6C63FF"/>
<path d="M20.4297 228.553C20.4297 228.553 22.7265 231.568 19.3691 236.09C16.0116 240.613 13.238 244.455 14.3644 247.284C14.3644 247.284 19.4294 238.861 23.5515 238.743C27.6736 238.626 24.9657 233.618 20.4297 228.553Z" fill="#6C63FF"/>
<path opacity="0.1" d="M20.4249 228.553C20.6299 228.843 20.7923 229.16 20.9073 229.496C24.9308 234.221 27.0713 238.631 23.2068 238.743C19.6054 238.848 15.286 245.286 14.25 246.914C14.2842 247.039 14.3254 247.163 14.3733 247.284C14.3733 247.284 19.4383 238.861 23.5604 238.743C27.6825 238.626 24.9609 233.618 20.4249 228.553Z" fill="black"/>
<path d="M24.7044 232.382C24.7044 233.44 24.5865 234.3 24.4303 234.3C24.2741 234.3 24.1562 233.443 24.1562 232.382C24.1562 231.321 24.3042 231.834 24.4495 231.834C24.5948 231.834 24.7044 231.324 24.7044 232.382Z" fill="#FFD037"/>
<path d="M26.1702 233.643C25.2411 234.15 24.4326 234.465 24.364 234.325C24.2955 234.185 24.9889 233.681 25.9181 233.177C26.8472 232.672 26.4799 233.04 26.5512 233.177C26.6224 233.314 27.0966 233.136 26.1702 233.643Z" fill="#FFD037"/>
<path d="M8.31223 228.553C8.31223 228.553 6.01547 231.568 9.3729 236.09C12.7303 240.613 15.4985 244.452 14.3775 247.281C14.3775 247.281 9.31261 238.859 5.1905 238.741C1.06839 238.623 3.77078 233.618 8.31223 228.553Z" fill="#6C63FF"/>
<path opacity="0.1" d="M8.31223 228.553C8.11209 228.844 7.95428 229.161 7.84356 229.496C3.82012 234.221 1.67958 238.631 5.54406 238.743C9.14542 238.848 13.4649 245.286 14.5009 246.914C14.4667 247.039 14.4255 247.163 14.3775 247.284C14.3775 247.284 9.31261 238.861 5.1905 238.743C1.06839 238.626 3.77078 233.618 8.31223 228.553Z" fill="black"/>
<path d="M4.03125 232.382C4.03125 233.44 4.1491 234.3 4.30533 234.3C4.46155 234.3 4.5794 233.443 4.5794 232.382C4.5794 231.321 4.4314 231.834 4.28614 231.834C4.14088 231.834 4.03125 231.324 4.03125 232.382Z" fill="#FFD037"/>
<path d="M2.56539 233.643C3.49451 234.15 4.30303 234.465 4.37155 234.325C4.44007 234.185 3.74666 233.681 2.81754 233.177C1.88842 232.672 2.25569 233.04 2.18443 233.177C2.11317 233.314 1.63901 233.136 2.56539 233.643Z" fill="#FFD037"/>
<path d="M4.75781 246.889C4.75781 246.889 11.1794 246.691 13.1144 245.313C15.0494 243.934 22.9811 242.298 23.4717 244.491C23.9623 246.683 33.122 255.484 25.8726 255.541C18.6233 255.599 9.02792 254.412 7.09568 253.236C5.16344 252.061 4.75781 246.889 4.75781 246.889Z" fill="#A8A8A8"/>
<path opacity="0.2" d="M26.0015 254.779C18.7521 254.837 9.15674 253.65 7.2245 252.475C5.75271 251.578 5.16619 248.363 4.97159 246.881H4.75781C4.75781 246.881 5.16345 252.061 7.09568 253.236C9.02792 254.412 18.6233 255.602 25.8727 255.541C27.9666 255.525 28.6874 254.779 28.649 253.678C28.3585 254.352 27.561 254.769 26.0015 254.779Z" fill="black"/>
<path d="M270.892 250.306C271.394 249.896 271.761 249.344 271.942 248.722C272.079 248.091 271.81 247.338 271.207 247.107C270.533 246.85 269.812 247.316 269.267 247.79C268.721 248.264 268.094 248.801 267.378 248.7C267.746 248.367 268.021 247.944 268.177 247.472C268.332 247.001 268.363 246.498 268.266 246.011C268.236 245.809 268.15 245.62 268.02 245.463C267.644 245.063 266.967 245.235 266.518 245.551C265.093 246.554 264.695 248.489 264.687 250.232C264.544 249.604 264.665 248.949 264.66 248.313C264.654 247.678 264.479 246.943 263.936 246.609C263.6 246.428 263.222 246.338 262.84 246.348C262.198 246.324 261.486 246.389 261.047 246.858C260.499 247.439 260.644 248.418 261.119 249.051C261.593 249.684 262.311 250.092 262.974 250.536C263.506 250.852 263.959 251.284 264.301 251.8C264.341 251.871 264.374 251.946 264.399 252.024H268.414C269.314 251.566 270.148 250.988 270.892 250.306Z" fill="#6C63FF"/>
<path opacity="0.1" d="M-0.875401 181.187C9.81923 194.779 5.66506 214.636 -1.13083 230.535C-3.40621 235.86 -5.98072 241.493 -5.01948 247.201C-3.8465 254.182 2.37466 259.295 8.93529 261.982C20.8668 266.913 35.1509 265.738 46.111 258.922C55.5856 253.029 62.3715 243.449 72.0074 237.825C88.1401 228.419 108.662 231.97 126.173 238.45C138.561 243.035 152.106 249.002 164.417 244.208C173.079 240.848 179.068 232.628 182.331 223.928C183.908 219.725 185.05 215.193 188.045 211.834C189.833 209.855 192.166 208.448 194.559 207.265C216.405 196.445 243.965 202.226 265.166 190.24C279.487 182.138 288.656 166.849 292.726 150.909C296.796 134.969 296.312 118.253 295.28 101.84C294.548 90.1727 293.234 77.7197 285.776 68.7133C277.887 59.1896 264.346 55.6455 252.109 57.4562C239.871 59.2669 228.773 65.7504 219.027 73.3492C206.83 82.846 195.52 94.6742 180.543 98.524C170.346 101.144 159.618 99.7098 149.098 99.216C131.513 98.3862 113.925 100.224 96.4383 102.239C79.6973 104.174 62.8285 106.304 46.8874 111.746C35.6013 115.599 26.5535 122.59 15.8959 127.475C8.94873 130.659 1.37309 131.539 -5.20097 135.594C-13.3043 140.589 -20.7287 149.28 -18.6449 159.445C-16.6888 169.124 -6.55545 173.974 -0.875401 181.187Z" fill="#6C63FF"/>
<path opacity="0.1" d="M142.214 175.518C206.95 175.518 259.428 170.477 259.428 164.259C259.428 158.041 206.95 153 142.214 153C77.4786 153 25 158.041 25 164.259C25 170.477 77.4786 175.518 142.214 175.518Z" fill="#6C63FF"/>
<path opacity="0.1" d="M63.3038 266.57C95.2969 266.57 121.233 261.529 121.233 255.311C121.233 249.093 95.2969 244.052 63.3038 244.052C31.3106 244.052 5.375 249.093 5.375 255.311C5.375 261.529 31.3106 266.57 63.3038 266.57Z" fill="#6C63FF"/>
<path d="M122.52 186.844L121.602 188.179C121.602 188.179 122.602 189.514 122.698 189.681C122.794 189.848 125.617 189.599 125.617 189.599L125.866 188.598L125.45 187.431L122.52 186.844Z" fill="#E6E6F0"/>
<path d="M90.0149 154.735L88.1094 155.079L89.3209 157.42L90.6207 158.111L91.8322 158.976L92.1792 158.026L91.3118 156.206L90.0149 154.735Z" fill="#FDC2CC"/>
<path d="M121.187 132.225C121.187 132.225 131.318 134.648 133.22 137.344C133.22 137.344 134.952 138.817 133.22 141.499C131.488 144.181 129.065 150.245 129.065 150.245C129.065 150.245 127.333 156.132 126.642 156.564C125.951 156.996 121.966 157.343 121.619 155.711C121.619 155.711 123.869 152.162 123.869 150.515C123.869 148.868 127.592 141.078 127.592 141.078C127.592 141.078 119.108 140.126 116.423 140.731C113.739 141.337 117.638 131.272 121.187 132.225Z" fill="#565171"/>
<path opacity="0.1" d="M121.187 132.225C121.187 132.225 131.318 134.648 133.22 137.344C133.22 137.344 134.952 138.817 133.22 141.499C131.488 144.181 129.065 150.245 129.065 150.245C129.065 150.245 127.333 156.132 126.642 156.564C125.951 156.996 121.966 157.343 121.619 155.711C121.619 155.711 123.869 152.162 123.869 150.515C123.869 148.868 127.592 141.078 127.592 141.078C127.592 141.078 119.108 140.126 116.423 140.731C113.739 141.337 117.638 131.272 121.187 132.225Z" fill="black"/>
<path d="M119.106 134.562C119.086 135.066 119.032 135.632 118.955 136.24C118.401 140.649 116.595 147.204 116.595 147.204C116.595 147.204 114.777 151.1 114.257 153.612C113.736 156.123 110.187 156.74 110.187 156.74C110.187 156.74 100.489 157.878 98.498 157.434C96.5072 156.99 93.3788 158.734 91.8316 158.472C90.2844 158.211 89.3203 154.576 89.3203 154.576C92.0056 154.592 94.6629 154.031 97.113 152.932C101.095 151.115 106.811 151.979 106.811 151.979C107.238 151.855 107.634 151.646 107.976 151.363C108.319 151.08 108.6 150.731 108.802 150.335C109.408 149.036 109.408 141.158 109.234 140.637C108.097 137.224 108.191 135.034 108.518 133.757C108.627 133.2 108.873 132.678 109.234 132.239L119.106 134.562Z" fill="#565171"/>
<path opacity="0.1" d="M119.108 134.562C119.088 135.066 119.034 135.632 118.958 136.24C118.087 136.309 115.647 136.374 113.838 135.256C112.132 134.21 109.649 133.854 108.531 133.743C108.641 133.186 108.887 132.664 109.248 132.225L119.108 134.562Z" fill="black"/>
<path d="M120.311 133.479C119.907 134.616 119.287 135.95 119.287 135.95C119.287 135.95 116.085 136.383 113.832 134.998C111.58 133.612 107.945 133.439 107.945 133.439C108.534 133.078 108.932 131.98 109.18 131.019C109.318 130.475 109.426 129.925 109.504 129.369C109.504 129.369 120.152 131.533 120.596 131.88C120.761 132.017 120.584 132.705 120.311 133.479Z" fill="#E6E6F0"/>
<path d="M139.276 96.9869L126.361 104.782L125.078 105.556V101.748L125.968 101.321L136.852 96.1195C136.852 96.1195 137.373 86.6829 138.758 88.1561C140.143 89.6294 139.276 96.9869 139.276 96.9869Z" fill="#FDC2CC"/>
<path opacity="0.1" d="M126.361 104.782L125.078 105.556V101.748L125.968 101.321C126.027 102.482 126.158 103.638 126.361 104.782Z" fill="black"/>
<path d="M116.422 106.176L125.685 100.81C125.685 100.81 125.858 106.006 126.896 106.782C126.896 106.782 123.088 107.92 121.615 110.331L116.422 106.176Z" fill="#B45181"/>
<path opacity="0.1" d="M116.422 106.176L125.685 100.81C125.685 100.81 125.858 106.006 126.896 106.782C126.896 106.782 123.088 107.92 121.615 110.331L116.422 106.176Z" fill="black"/>
<path d="M139.205 110.752C139.205 110.752 134.799 112.672 131.881 113.377C131.225 113.575 130.538 113.654 129.853 113.611C127.863 113.264 130.374 110.767 130.374 110.767L131.42 110.604L137.04 109.729C137.04 109.729 137.646 101.071 138.684 101.765C139.722 102.459 139.205 110.752 139.205 110.752Z" fill="#FDC2CC"/>
<path d="M120.579 102.96C120.579 102.96 116.857 105.73 118.242 109.194C119.627 112.658 111.055 107.115 111.055 107.115C111.055 107.115 113.825 102.96 114.431 99.8425C115.036 96.7254 120.579 102.96 120.579 102.96Z" fill="#FDC2CC"/>
<path opacity="0.1" d="M120.301 133.479C118.69 132.872 117.008 132.48 115.295 132.313C112.792 132.028 110.5 131.548 109.172 131.019C109.31 130.475 109.418 129.925 109.496 129.369C109.496 129.369 120.144 131.533 120.588 131.88C120.75 132.017 120.574 132.705 120.301 133.479Z" fill="black"/>
<path opacity="0.1" d="M131.873 113.377C131.217 113.575 130.53 113.654 129.846 113.61C127.855 113.263 130.366 110.766 130.366 110.766L131.413 110.604C131.851 111.278 132.297 112.331 131.873 113.377Z" fill="black"/>
<path d="M114.516 104.518C114.516 104.518 111.14 104.433 109.928 105.818C108.717 107.203 108.976 110.937 108.976 110.937C108.976 110.937 108.722 118.414 110.619 122.598C110.682 122.733 110.689 122.887 110.639 123.027C110.619 123.078 110.619 123.047 110.619 123.047C110.619 123.047 109.408 128.502 108.196 129.455C106.985 130.408 110.793 131.534 115.306 132.051C119.82 132.569 121.626 133.869 121.626 133.869C121.626 133.869 122.405 133.016 122.479 131.099C122.553 129.182 121.276 115.254 121.276 115.254C121.276 115.254 126.037 116.466 128.895 114.996C128.895 114.996 130.195 115.69 131.407 113.784C132.618 111.879 130.553 109.802 130.553 109.802C130.553 109.802 128.648 111.708 123.366 109.197C118.085 106.685 116.157 104.433 114.516 104.518Z" fill="#B45181"/>
<path d="M88.6318 154.909H87.5938V156.382L88.6318 158.72C88.6318 158.72 90.0169 158.979 90.105 158.979C90.1932 158.979 91.3166 158.72 91.3166 158.72L91.6636 158.114C91.6636 158.114 87.8526 156.638 88.6318 154.909Z" fill="#E6E6F0"/>
<path d="M121.184 156.294L119.625 159.758L126.206 162.886L131.402 163.06C131.402 163.06 131.834 161.848 130.102 161.243L128.717 160.984C128.717 160.984 126.9 157.693 126.727 156.149C126.727 156.149 124.995 156.496 124.736 157.793C124.733 157.764 122.31 158.976 121.184 156.294Z" fill="#B45181"/>
<path d="M87.8554 154.562L87.3264 154.994L85 156.899L90.3667 164.009C90.3667 164.009 93.3956 165.309 94.7835 164.009C94.7835 164.009 95.6367 163.156 93.7454 162.451C93.7454 162.451 92.2722 162.71 92.2722 161.239C92.2722 159.769 92.6192 158.21 93.1254 157.863C93.1254 157.863 91.8257 157.431 91.4816 157.778C91.2168 158.07 90.9841 158.389 90.7876 158.731C90.7876 158.731 87.6819 157.505 87.8554 154.562Z" fill="#B45181"/>
<path opacity="0.1" d="M114.261 100.016C114.173 100.455 114.057 100.888 113.914 101.313C114.364 102.395 115.217 103.258 116.294 103.721C117.37 104.184 118.585 104.208 119.679 103.79C119.907 103.554 120.151 103.335 120.41 103.133C120.41 103.133 114.867 96.8988 114.261 100.016Z" fill="black"/>
<path opacity="0.1" d="M113.781 111.58C113.781 111.58 116.466 115.129 120.362 115.218L113.781 111.58Z" fill="black"/>
<g opacity="0.1">
<path d="M129.829 115.056C129.775 115.04 129.721 115.02 129.67 114.996C129.587 115.039 129.501 115.08 129.414 115.118C129.555 115.115 129.694 115.094 129.829 115.056Z" fill="black"/>
<path d="M130.76 110.158C130.665 110.037 130.565 109.921 130.458 109.811C130.458 109.811 129.889 110.38 128.484 110.488C129.258 110.565 130.039 110.452 130.76 110.158Z" fill="black"/>
<path d="M122.055 115.255L122.072 115.439C123.214 115.651 124.374 115.746 125.536 115.724C124.363 115.681 123.197 115.524 122.055 115.255Z" fill="black"/>
<path d="M116.08 132.057C111.578 131.537 107.77 130.413 108.97 129.461C110.17 128.508 111.393 123.053 111.393 123.053C111.393 123.053 111.393 123.084 111.413 123.033C111.463 122.893 111.455 122.739 111.393 122.604C109.496 118.409 109.749 110.943 109.749 110.943C109.749 110.943 109.49 107.22 110.702 105.824C111.603 104.791 113.705 104.578 114.72 104.536C114.626 104.528 114.531 104.528 114.436 104.536C114.436 104.536 111.06 104.45 109.849 105.835C108.637 107.22 108.896 110.955 108.896 110.955C108.896 110.955 108.643 118.432 110.54 122.615C110.602 122.75 110.609 122.904 110.56 123.045C110.54 123.096 110.54 123.064 110.54 123.064C110.54 123.064 109.337 128.502 108.114 129.455C106.891 130.408 110.71 131.534 115.224 132.052C119.737 132.569 121.543 133.869 121.543 133.869C121.634 133.76 121.714 133.643 121.782 133.519C120.903 133.095 119.095 132.399 116.08 132.057Z" fill="black"/>
</g>
<path d="M118.236 103.912C120.723 103.912 122.739 101.897 122.739 99.4101C122.739 96.9236 120.723 94.908 118.236 94.908C115.75 94.908 113.734 96.9236 113.734 99.4101C113.734 101.897 115.75 103.912 118.236 103.912Z" fill="#FDC2CC"/>
<path opacity="0.1" d="M124.654 97.3968C124.282 98.3297 123.17 98.6824 122.194 98.9241C120.8 99.2654 119.299 99.601 117.965 99.072C117.792 98.975 117.593 98.9361 117.396 98.9611C117.238 99.0246 117.105 99.1399 117.021 99.2881C115.55 101.381 115.789 104.171 115.408 106.703C115.289 107.49 115.087 108.304 114.555 108.892C113.52 110.03 111.566 109.987 110.613 111.196C109.985 111.992 109.979 113.099 109.985 114.114C109.985 115.197 109.975 116.28 109.956 117.365C109.939 118.076 109.905 118.812 109.584 119.444C109.038 120.513 107.82 121.022 106.697 121.435C105.997 121.696 105.275 121.961 104.524 121.89C103.773 121.819 103.022 121.321 102.926 120.57C102.792 119.552 103.841 118.841 104.564 118.107C105.719 116.938 106.193 115.238 106.236 113.594C106.277 112.93 106.18 112.265 105.952 111.64C105.687 110.994 105.215 110.451 104.931 109.814C104.055 107.852 105.135 105.582 106.43 103.864C107.724 102.146 109.313 100.471 109.589 98.3411C109.613 97.8801 109.679 97.4222 109.786 96.9731C109.985 96.3531 110.457 94.641 110.977 94.2485C111.81 93.6208 112.789 93.2139 113.821 93.0654C114.62 92.9488 115.437 92.9914 116.23 92.8378C117.157 92.6587 118.019 92.2178 118.946 92.0529C120.951 91.6974 123.127 94.0267 124.006 95.8639C124.247 96.427 124.882 96.8252 124.654 97.3968Z" fill="black"/>
<path d="M124.654 97.223C124.282 98.1559 123.17 98.5085 122.194 98.7503C120.8 99.0916 119.299 99.4271 117.965 98.8982C117.792 98.8012 117.593 98.7623 117.396 98.7872C117.238 98.8508 117.105 98.966 117.021 99.1143C115.55 101.208 115.789 103.998 115.408 106.529C115.289 107.317 115.087 108.13 114.555 108.719C113.52 109.856 111.566 109.814 110.613 111.022C109.985 111.819 109.979 112.925 109.985 113.94C109.985 115.023 109.975 116.107 109.956 117.191C109.939 117.902 109.905 118.639 109.584 119.27C109.038 120.339 107.82 120.848 106.697 121.261C105.997 121.523 105.275 121.787 104.524 121.716C103.773 121.645 103.022 121.147 102.926 120.396C102.792 119.378 103.841 118.667 104.564 117.933C105.719 116.764 106.193 115.064 106.236 113.42C106.277 112.756 106.18 112.091 105.952 111.466C105.687 110.82 105.215 110.277 104.931 109.64C104.055 107.678 105.135 105.408 106.43 103.69C107.724 101.973 109.313 100.297 109.589 98.1672C109.613 97.7063 109.679 97.2484 109.786 96.7993C109.985 96.1793 110.457 94.4671 110.977 94.0747C111.81 93.447 112.789 93.04 113.821 92.8915C114.62 92.7749 115.437 92.8176 116.23 92.664C117.157 92.4848 118.019 92.044 118.946 91.8791C120.951 91.5236 123.127 93.8528 124.006 95.6901C124.247 96.2532 124.882 96.6514 124.654 97.223Z" fill="#F569BC"/>
<path d="M139.195 88.5688H214.042V163.41H139.195V88.5688Z" fill="#F7DF1E"/>
<path d="M158.883 151.112L164.611 147.645C165.717 149.605 166.721 151.263 169.133 151.263C171.445 151.263 172.901 150.358 172.901 146.843V122.928H179.934V146.94C179.934 154.223 175.668 157.54 169.434 157.54C163.809 157.54 160.544 154.624 158.886 151.109L158.883 151.112ZM183.754 150.356L189.479 147.039C190.986 149.502 192.946 151.305 196.413 151.305C199.328 151.305 201.185 149.849 201.185 147.839C201.185 145.427 199.277 144.574 196.066 143.166L194.308 142.412C189.234 140.254 185.867 137.54 185.867 131.812C185.867 126.537 189.886 122.518 196.165 122.518C200.636 122.518 203.844 124.077 206.162 128.144L200.687 131.662C199.482 129.5 198.176 128.647 196.165 128.647C194.106 128.647 192.798 129.952 192.798 131.662C192.798 133.772 194.103 134.625 197.118 135.928L198.876 136.681C204.848 139.241 208.221 141.855 208.221 147.733C208.221 154.064 203.247 157.531 196.561 157.531C190.019 157.531 185.81 154.403 183.763 150.347" fill="black"/>
<path d="M234.652 256.21C234.652 256.21 231.051 256.462 228.828 252.605C228.394 251.829 227.881 251.099 227.296 250.428C226.579 249.251 226.206 247.897 226.22 246.518C226.343 243.661 223.362 228.009 223.362 228.009C223.362 228.009 223.734 222.049 220.754 218.322C218.79 215.868 215.968 208.855 214.267 204.325C214.381 204.427 214.519 204.499 214.667 204.536L214.597 204.146H214.667L213.787 199.311C212.506 197.839 211.426 196.202 210.575 194.445L210.775 194.403L213.412 193.849C213.412 193.849 217.696 187.759 217.97 184.764H218.32H218.815C222.781 184.743 226.745 184.95 230.687 185.385C230.687 185.367 230.659 185.29 230.624 185.168C230.457 184.565 230.328 183.953 230.238 183.334H230.483L232.938 183.173C232.938 183.173 241.384 173.734 238.278 171.995C235.171 170.256 231.942 179.821 231.942 179.821L230.89 180.01L230.606 180.063C230.634 180.021 230.662 179.982 230.694 179.943C230.725 179.905 216.908 179.326 214.779 175.967C214.779 175.967 208.693 171.122 208.444 167.903C208.399 167.235 208.171 166.593 207.785 166.046C207.399 165.499 206.87 165.07 206.256 164.804C205.504 164.445 204.671 164.289 203.84 164.351L200.99 164.548L201.189 164.898H201.109C200.93 164.489 200.78 164.067 200.66 163.636H200.72C200.699 163.549 200.681 163.461 200.663 163.373C201.537 163.167 202.36 162.788 203.085 162.258C203.809 161.728 204.42 161.058 204.88 160.288C205.341 159.517 205.642 158.662 205.767 157.774C205.891 156.885 205.835 155.98 205.604 155.113C205.883 155.149 206.165 155.14 206.442 155.088C207.493 154.874 208.233 153.808 208.261 152.743C208.261 152.672 208.261 152.602 208.261 152.536C208.261 152.536 208.261 152.508 208.261 152.494C208.251 151.958 208.121 151.432 207.881 150.952C207.642 150.473 207.299 150.054 206.876 149.724C206.308 149.25 205.628 148.914 205.123 148.388C204.51 147.76 204.173 146.919 203.696 146.179C202.898 144.955 201.713 144.033 200.33 143.56C199.303 143.209 198.041 143.174 197.252 143.911C196.845 144.293 196.61 144.847 196.155 145.169C195.499 145.639 194.608 145.499 193.805 145.593C193.078 145.705 192.39 145.994 191.801 146.435C191.212 146.876 190.741 147.455 190.429 148.121C190.035 148.956 189.845 149.871 189.875 150.793C189.866 151.426 189.942 152.056 190.099 152.669C190.254 153.279 190.482 153.868 190.65 154.478C191 155.74 191.081 157.069 191.484 158.314C191.755 159.238 192.296 160.059 193.038 160.673L192.918 161.185C192.841 161.185 190.906 161.617 189.57 164.537C188.518 166.841 184.938 169.218 183.364 170.179C183.07 170.358 182.816 170.595 182.615 170.874C182.413 171.153 182.27 171.47 182.193 171.806C182.042 172.483 181.975 173.177 181.993 173.871C181.965 175.368 182.277 177.44 183.48 180.066C186.211 186.027 188.199 188.635 188.199 188.635C188.199 188.635 188.35 190.462 188.36 192.387C188.36 193.821 188.255 195.248 187.95 195.963C187.691 196.566 187.599 198.105 187.62 199.865C187.62 203.238 187.95 207.639 187.95 207.639C187.95 207.639 188.9 207.821 190.369 208.035L191.284 224.135C191.399 226.085 190.773 228.006 189.531 229.514C188.889 230.306 188.148 231.013 187.326 231.617C184.717 233.479 179.129 253.107 179.129 253.107C179.129 253.107 179.402 253.107 179.851 253.159L178.133 257.952C178.133 257.952 184.998 263.211 189.174 261.774C189.626 261.626 190.101 261.56 190.576 261.577C191.4 261.577 193.164 260.925 192.182 260.066C190.286 258.32 188.498 256.461 186.828 254.498C186.962 254.564 187.091 254.64 187.214 254.726V254.688L187.273 254.726C187.273 254.726 187.273 254.534 187.319 254.218L187.259 254.197C187.386 252.907 187.785 249.639 188.578 249.26C189.57 248.762 196.901 234.229 196.901 234.229L204.229 215.349C204.229 215.349 210.067 225.411 215.035 227.147V231.354C215.035 231.354 217.767 243.777 218.762 245.141C219.758 246.504 218.762 251.971 218.762 251.971C218.959 252.195 219.184 252.393 219.432 252.56L218.636 257.061C218.636 257.061 224.351 256.813 234.039 259.793C234.032 259.81 237.759 258.197 234.652 256.21ZM211.799 191.247L210.589 191.549L210.351 191.608C210.326 191.458 210.309 191.37 210.309 191.37C210.031 191.495 209.733 191.568 209.429 191.584C209 190.226 208.753 188.817 208.693 187.394C208.286 185.691 208.038 183.954 207.953 182.205C207.953 181.3 208.104 180.511 208.444 180.066L208.847 180.098L209.127 180.364L209.148 180.382L209.292 180.511L209.443 180.645L209.467 180.666L209.629 180.809L209.657 180.834L209.822 180.974L210.007 181.128L210.049 181.164L210.246 181.321L210.439 181.476L210.484 181.511L210.698 181.672L210.744 181.703L210.947 181.854L210.982 181.879L211.213 182.044L211.27 182.082L211.515 182.25H211.536L211.774 182.408L211.831 182.447L212.087 182.612L212.143 182.647L212.381 182.794L212.427 182.822L212.7 182.983L212.767 183.022L213.051 183.18H213.072L213.349 183.327L213.415 183.362L213.71 183.509L213.769 183.537L214.043 183.663L214.096 183.688L214.404 183.821L214.478 183.853L214.797 183.982C212.816 186.163 211.799 191.247 211.799 191.247Z" fill="url(#paint0_linear_935_2358)"/>
<path d="M181.163 250.207L178.859 256.634C178.859 256.634 185.17 261.472 189.273 260.47C189.891 260.316 190.521 260.214 191.155 260.165C192.004 260.101 193.466 259.481 192.558 258.695C189.648 256.15 185.767 251.42 185.767 251.42L181.163 250.207Z" fill="#4F4D59"/>
<path d="M219.481 249.6L218.391 255.785C218.391 255.785 223.969 255.543 233.429 258.454C233.429 258.454 237.068 256.876 234.035 254.947C234.035 254.947 230.529 255.189 228.338 251.441C226.146 247.693 224.831 248.166 224.831 248.166L219.481 249.6Z" fill="#4F4D59"/>
<path d="M190.614 204.736L191.666 223.557C191.781 225.562 191.117 227.535 189.811 229.061C189.221 229.763 188.549 230.39 187.809 230.93C185.264 232.75 179.805 251.908 179.805 251.908C179.805 251.908 185.99 252.258 187.687 253.485C187.687 253.485 188.037 248.636 189.019 248.149C190.001 247.662 197.143 233.476 197.143 233.476L204.299 215.044C204.299 215.044 209.996 224.861 214.849 226.565V230.688C214.849 230.688 217.517 242.816 218.488 244.148C219.459 245.481 218.488 250.81 218.488 250.81C218.488 250.81 221.293 254.316 227.702 250.568C227.702 250.568 225.641 248.265 225.764 245.474C225.886 242.683 222.959 227.407 222.959 227.407C222.959 227.407 223.309 221.586 220.413 217.94C217.517 214.293 212.703 200.363 212.703 200.363L209.365 193.183L190.614 204.736Z" fill="#C48C96"/>
<g opacity="0.1">
<path d="M180.989 251.904C180.989 251.904 186.444 232.747 188.993 230.927C189.775 230.354 190.482 229.685 191.097 228.935C192.342 227.429 192.968 225.507 192.85 223.557L191.781 204.732L209.662 193.709L209.42 193.187L190.69 204.736L191.76 223.56C191.878 225.511 191.251 227.433 190.007 228.939C189.392 229.688 188.685 230.357 187.903 230.93C185.361 232.747 179.898 251.904 179.898 251.904C179.898 251.904 186.083 252.255 187.78 253.482C187.78 253.482 187.78 253.293 187.826 252.988C185.438 252.167 180.989 251.904 180.989 251.904Z" fill="black"/>
<path d="M219.673 250.814C219.673 250.814 220.644 245.478 219.673 244.152C218.701 242.827 216.033 230.692 216.033 230.692V226.562C211.184 224.865 205.483 215.041 205.483 215.041L205.062 216.141C206.707 218.75 211.093 225.222 214.946 226.569V230.692C214.946 230.692 217.615 242.82 218.586 244.152C219.557 245.485 218.586 250.814 218.586 250.814C218.586 250.814 219.939 252.518 222.926 252.287C220.693 252.101 219.673 250.814 219.673 250.814Z" fill="black"/>
</g>
<path d="M232.339 183.636L229.958 183.793L228.703 183.877V180.845L230.351 180.547L231.371 180.361C231.371 180.361 234.527 171.024 237.556 172.721C240.586 174.418 232.339 183.636 232.339 183.636Z" fill="#714B4F"/>
<path d="M194.139 158.64C194.139 158.64 192.561 164.702 192.077 168.457C191.593 172.213 203.353 169.187 203.353 169.187C203.353 169.187 198.865 163.731 201.414 160.821L194.139 158.64Z" fill="#714B4F"/>
<path d="M206.867 183.884L207.109 186.188L203.35 185.946L199.591 182.671L195.833 172.117L193.413 168.355L191.594 166.052L192.323 163.247C192.323 163.247 192.656 163.538 193.217 163.966C195.065 165.368 199.395 168.317 202.561 167.503C202.707 167.466 202.851 167.421 202.992 167.367L207.722 175.49L206.867 183.884Z" fill="#E6E6F0"/>
<path opacity="0.1" d="M193.288 162.535C193.288 162.535 191.349 162.886 190.014 165.81C188.99 168.047 185.526 170.368 183.979 171.304C183.684 171.484 183.429 171.722 183.227 172.002C183.025 172.283 182.882 172.601 182.805 172.938C182.493 174.319 182.374 176.896 184.071 180.603C186.739 186.423 188.678 188.968 188.678 188.968C188.678 188.968 189.162 194.788 188.436 196.485C187.71 198.182 188.436 207.519 188.436 207.519C188.436 207.519 201.167 209.946 205.413 207.519C209.659 205.093 209.052 195.756 209.052 195.756C209.052 195.756 213.053 204.245 214.508 204.487L213.659 199.757C213.659 199.757 208.929 194.662 208.687 188.116C208.687 188.116 207.232 182.173 208.445 180.599C208.445 180.599 228.939 182.296 230.152 180.841C230.152 180.841 216.692 180.234 214.63 176.96C214.63 176.96 208.687 172.23 208.445 169.078C208.41 168.486 208.225 167.913 207.906 167.413C207.588 166.913 207.147 166.502 206.626 166.22C205.801 165.751 204.854 165.54 203.908 165.614L201.17 165.803C201.17 165.803 205.9 174.169 205.658 175.27C205.416 176.371 205.9 185.213 205.9 185.213C205.9 185.213 200.427 173.45 198.018 172.118C195.609 170.785 192.801 165.302 192.801 165.302L193.285 162.532" fill="black"/>
<path opacity="0.1" d="M206.867 183.884L207.109 186.188L203.35 185.946L199.591 182.671L195.833 172.117L193.413 168.355L191.594 166.052L192.323 163.247C192.323 163.247 192.656 163.538 193.217 163.966L193.049 164.923C193.049 164.923 195.854 170.399 198.262 171.735C200.671 173.071 206.144 184.831 206.144 184.831C206.144 184.831 205.66 175.978 205.902 174.887C206.067 174.147 203.942 170.059 202.561 167.503C202.707 167.466 202.851 167.421 202.992 167.367L207.722 175.49L206.867 183.884Z" fill="black"/>
<path opacity="0.1" d="M229.958 183.793L228.703 183.877V180.845L230.351 180.547C229.776 181.307 229.797 182.654 229.958 183.793Z" fill="black"/>
<path d="M193.288 162.174C193.288 162.174 191.349 162.525 190.014 165.449C188.99 167.686 185.526 170.007 183.979 170.943C183.684 171.123 183.429 171.36 183.227 171.641C183.025 171.922 182.882 172.24 182.805 172.577C182.493 173.958 182.374 176.535 184.071 180.241C186.739 186.062 188.678 188.607 188.678 188.607C188.678 188.607 189.162 194.427 188.436 196.124C187.71 197.821 188.436 207.158 188.436 207.158C188.436 207.158 201.167 209.584 205.413 207.158C209.659 204.732 209.052 195.395 209.052 195.395C209.052 195.395 213.049 203.869 214.508 204.129L213.659 199.399C213.659 199.399 208.929 194.305 208.687 187.759C208.687 187.759 207.232 181.816 208.445 180.241C208.445 180.241 213.175 185.336 218.512 185.213C222.4 185.19 226.287 185.392 230.152 185.82C230.152 185.82 228.939 181.938 230.152 180.483C230.152 180.483 216.692 179.877 214.63 176.602C214.63 176.602 208.687 171.872 208.445 168.72C208.41 168.128 208.225 167.555 207.906 167.055C207.588 166.555 207.147 166.145 206.626 165.863C205.801 165.393 204.854 165.182 203.908 165.256L201.17 165.445C201.17 165.445 205.9 173.811 205.658 174.912C205.416 176.013 205.9 184.855 205.9 184.855C205.9 184.855 200.427 173.085 198.018 171.753C195.609 170.421 192.801 164.951 192.801 164.951L193.285 162.181" fill="#C48C96"/>
<path opacity="0.1" d="M190.61 174.905C190.61 174.905 193.52 184.722 195.217 185.939C196.914 187.155 207.222 193.337 210.255 191.882C210.255 191.882 210.984 195.521 209.904 196.37C209.904 196.37 198.597 195.928 198.506 195.886C198.506 195.886 191.108 194.914 189.895 191.279C188.682 187.643 187.227 181.461 187.227 181.461L190.61 174.905Z" fill="black"/>
<path d="M206.151 186.002C206.385 186.002 206.575 185.73 206.575 185.395C206.575 185.06 206.385 184.789 206.151 184.789C205.917 184.789 205.727 185.06 205.727 185.395C205.727 185.73 205.917 186.002 206.151 186.002Z" fill="#BA7855"/>
<path d="M207.362 190.245C207.596 190.245 207.786 189.973 207.786 189.638C207.786 189.303 207.596 189.031 207.362 189.031C207.127 189.031 206.938 189.303 206.938 189.638C206.938 189.973 207.127 190.245 207.362 190.245Z" fill="#BA7855"/>
<g opacity="0.1">
<path d="M189.303 207.025C189.303 207.025 188.574 197.688 189.303 195.991C190.033 194.294 189.545 188.474 189.545 188.474C189.545 188.474 187.606 185.928 184.938 180.108C183.238 176.402 183.36 173.825 183.672 172.443C183.749 172.106 183.893 171.788 184.094 171.508C184.296 171.227 184.552 170.99 184.847 170.81C186.393 169.863 189.854 167.552 190.881 165.315C191.635 163.674 192.578 162.844 193.258 162.43L193.304 162.163C193.304 162.163 191.365 162.514 190.029 165.438C189.005 167.675 185.541 169.996 183.995 170.932C183.7 171.112 183.444 171.35 183.242 171.63C183.041 171.911 182.897 172.229 182.82 172.566C182.508 173.948 182.389 176.525 184.086 180.231C186.754 186.051 188.693 188.596 188.693 188.596C188.693 188.596 189.177 194.417 188.451 196.114C187.726 197.811 188.451 207.147 188.451 207.147C188.451 207.147 197.546 208.879 202.925 207.95C197.494 208.599 189.303 207.025 189.303 207.025Z" fill="black"/>
<path d="M205.668 174.905C205.503 175.652 205.668 180.045 205.804 182.738C206.39 183.933 206.758 184.729 206.758 184.729C206.758 184.729 206.274 175.876 206.516 174.786C206.747 173.734 202.487 166.139 202.063 165.389L201.18 165.449C201.18 165.449 205.913 173.814 205.668 174.905Z" fill="black"/>
<path d="M219.379 185.09C214.043 185.213 209.313 180.118 209.313 180.118C209.171 180.316 209.068 180.538 209.008 180.774C210.41 182.078 214.267 185.308 218.531 185.209C222.419 185.186 226.306 185.388 230.171 185.816C230.171 185.816 230.146 185.735 230.108 185.599C226.544 185.23 222.962 185.06 219.379 185.09Z" fill="black"/>
<path d="M209.906 195.276C209.906 195.276 209.955 196.033 209.927 197.169C211.19 199.672 213.486 203.953 214.513 204.125L214.335 203.129C212.571 200.914 209.906 195.276 209.906 195.276Z" fill="black"/>
</g>
<path d="M213.298 194.052L210.721 194.596L208.688 195.024L209.778 191.991L210.539 191.801L211.72 191.507C211.72 191.507 213.417 183.018 216.815 183.625C220.212 184.232 213.298 194.052 213.298 194.052Z" fill="#714B4F"/>
<path opacity="0.1" d="M210.729 194.606L208.695 195.034L209.786 192.001L210.547 191.812C210.715 192.733 210.776 193.671 210.729 194.606Z" fill="black"/>
<path d="M190.61 174.663C190.61 174.663 193.52 184.48 195.217 185.697C196.914 186.914 207.222 193.095 210.255 191.64C210.255 191.64 210.984 195.279 209.904 196.128C209.904 196.128 198.597 195.686 198.506 195.644C198.506 195.644 191.108 194.673 189.895 191.037C188.682 187.401 187.227 181.22 187.227 181.22L190.61 174.663Z" fill="#C48C96"/>
<path opacity="0.1" d="M194.263 158.899C194.263 158.899 194.017 159.85 193.688 161.231C194.359 162.503 195.43 163.518 196.736 164.12C198.043 164.722 199.511 164.878 200.914 164.562C200.623 163.317 200.686 162.058 201.538 161.084L194.263 158.899Z" fill="black"/>
<path d="M199.354 164.478C202.971 164.478 205.904 161.545 205.904 157.928C205.904 154.311 202.971 151.379 199.354 151.379C195.737 151.379 192.805 154.311 192.805 157.928C192.805 161.545 195.737 164.478 199.354 164.478Z" fill="#714B4F"/>
<path opacity="0.1" d="M205.048 156.126C205.522 156.259 206.019 156.29 206.506 156.217C207.011 156.081 207.457 155.783 207.777 155.37C208.097 154.957 208.274 154.45 208.28 153.928C208.271 153.405 208.145 152.891 207.911 152.423C207.678 151.955 207.343 151.546 206.93 151.224C206.376 150.762 205.714 150.436 205.205 149.92C204.606 149.307 204.276 148.486 203.803 147.764C203.023 146.57 201.867 145.67 200.518 145.208C199.515 144.857 198.284 144.829 197.513 145.558C197.117 145.934 196.885 146.47 196.443 146.789C195.802 147.245 194.932 147.112 194.15 147.203C193.442 147.311 192.771 147.591 192.196 148.019C191.622 148.447 191.161 149.009 190.855 149.657C190.256 150.978 190.142 152.468 190.532 153.865C190.683 154.461 190.907 155.036 191.069 155.618C191.419 156.852 191.489 158.146 191.882 159.362C192.275 160.579 193.085 161.771 194.312 162.136C194.215 160.77 194.485 159.403 195.094 158.177C195.194 157.909 195.392 157.689 195.648 157.56C195.866 157.504 196.095 157.504 196.314 157.56C197.852 157.788 199.421 157.47 200.749 156.663C201.215 156.382 201.941 155.414 202.435 155.32C203.074 155.211 204.381 155.979 205.048 156.126Z" fill="black"/>
<path d="M205.048 155.884C205.522 156.017 206.019 156.048 206.506 155.975C207.011 155.839 207.457 155.541 207.777 155.128C208.097 154.715 208.274 154.208 208.28 153.686C208.271 153.163 208.145 152.649 207.911 152.181C207.678 151.714 207.343 151.304 206.93 150.983C206.376 150.52 205.714 150.194 205.205 149.678C204.606 149.065 204.276 148.244 203.803 147.522C203.023 146.328 201.867 145.428 200.518 144.966C199.515 144.615 198.284 144.587 197.513 145.317C197.117 145.692 196.885 146.228 196.443 146.547C195.802 147.003 194.932 146.87 194.15 146.961C193.442 147.069 192.771 147.349 192.196 147.777C191.622 148.205 191.161 148.767 190.855 149.415C190.256 150.736 190.142 152.226 190.532 153.623C190.683 154.219 190.907 154.794 191.069 155.376C191.419 156.61 191.489 157.904 191.882 159.12C192.275 160.337 193.085 161.529 194.312 161.894C194.218 160.529 194.49 159.163 195.101 157.939C195.201 157.671 195.399 157.45 195.655 157.322C195.873 157.266 196.102 157.266 196.321 157.322C197.859 157.549 199.428 157.232 200.756 156.424C201.222 156.144 201.948 155.176 202.442 155.081C203.074 154.969 204.381 155.737 205.048 155.884Z" fill="#503F43"/>
<path d="M270.382 134.269L265.039 194.119L241.021 200.781L217.071 194.119L211.734 134.269H270.382Z" fill="#E44D26"/>
<path d="M241.055 195.689L260.461 190.311L265.019 139.163H241.055V195.689Z" fill="#F16529"/>
<path d="M230.678 153.847H241.064V146.505H222.656L222.832 148.476L224.637 168.706H241.067V161.364H231.352L230.678 153.847ZM232.347 172.377H224.984L226.012 183.905L241.032 188.092H241.067V180.431H241.036L232.859 178.222L232.347 172.377Z" fill="#EBEBEB"/>
<path d="M217.203 118H220.934V121.685H224.345V118H228.076V129.164H224.345V125.426H220.934V129.164H217.203V118ZM232.981 121.703H229.696V118H239.997V121.703H236.711V129.164H232.984V121.703H232.981ZM241.634 118H245.526L247.921 121.923L250.312 118H254.204V129.164H250.487V123.631L247.921 127.6H247.858L245.288 123.631V129.164H241.634V118ZM256.058 118H259.789V125.472H265.048V129.16H256.069V118H256.058Z" fill="black"/>
<path d="M241.023 168.706H250.062L249.21 178.229L241.023 180.438V188.092L256.075 183.92L256.184 182.678L257.909 163.349L258.088 161.378H241.023V168.72V168.706ZM241.023 153.83V153.847H258.758L258.905 152.196L259.256 148.472L259.431 146.502H241.023V153.826V153.83Z" fill="white"/>
<path d="M95.3902 151.216C94.7169 149.244 93.7467 146.727 92.9733 146.154C92.9267 146.117 92.8756 146.085 92.8214 146.061H92.7247V143.627L90.9086 143.917C90.6171 143.037 90.3966 142.135 90.2491 141.22C90.4241 141.395 90.647 141.514 90.8897 141.563C91.1324 141.612 91.3841 141.587 91.6129 141.493C91.5818 141.444 91.5577 141.393 91.5301 141.341L91.6129 141.306C91.327 140.802 91.176 140.232 91.1744 139.653C91.1895 139.124 91.2742 138.599 91.4265 138.092C91.751 136.97 92.3 135.92 92.6073 134.795C92.8036 134.068 92.8966 133.317 92.8835 132.564C92.8928 131.289 92.6018 130.029 92.0341 128.887C91.8933 128.558 91.6725 128.27 91.3919 128.048C91.1365 127.907 90.8737 127.779 90.6047 127.665C90.1545 127.361 89.7666 126.975 89.4619 126.525C88.1721 124.955 86.4454 123.803 84.5004 123.214C83.994 123.026 83.4451 122.983 82.9156 123.09C81.6968 123.435 81.2514 124.93 80.2639 125.721C79.3904 126.412 78.1923 126.491 77.1013 126.726C75.9812 126.916 74.9502 127.456 74.1561 128.269C73.6398 128.859 73.3584 129.619 73.3655 130.403C73.3357 130.769 73.4004 131.136 73.5534 131.47C73.7064 131.804 73.9424 132.092 74.239 132.309C74.5765 132.531 74.959 132.675 75.3589 132.732C75.7589 132.789 76.1664 132.756 76.5523 132.637C76.2508 133.678 76.1678 134.771 76.3084 135.846C76.449 136.921 76.8103 137.955 77.3695 138.884C77.9287 139.812 78.6738 140.616 79.5581 141.243C80.4424 141.87 81.4468 142.308 82.5082 142.529L82.7222 142.908C83.3752 144.126 83.8706 145.422 84.1965 146.765C82.5254 147.715 80.699 148.602 79.5976 148.685C79.5539 149.115 79.4742 149.542 79.3593 149.959C79.102 151.007 78.607 151.981 77.9127 152.807C76.4142 154.492 69.6711 167.233 69.6711 167.233C69.6711 167.233 69.457 167.74 69.1118 168.614C64.9236 169.128 58.0908 169.87 56.1815 169.487L48.6891 162.368C48.6891 162.368 46.2722 164.215 46.4794 166.459L45.1294 165.175C45.1294 165.175 38.01 170.606 49.2519 174.152L66.3565 176.137C64.7269 181.054 63.2077 186.775 63.6772 189.889H63.8188C64.146 189.889 64.4726 189.863 64.7959 189.813L64.7648 190.366L63.1179 219.862C63.1179 219.862 62.7416 225.293 67.7997 227.731C67.7997 227.731 73.9835 245.902 71.5459 247.963C71.5459 247.963 71.8359 248.115 72.3228 248.329L67.237 252.818C67.237 252.818 63.4908 253.753 61.4295 253.567C61.0673 253.518 60.6995 253.603 60.3964 253.808C60.0933 254.012 59.876 254.321 59.7861 254.675C59.7861 254.713 59.7861 254.751 59.7653 254.793V254.841C59.7653 254.879 59.7653 254.92 59.7653 254.962C59.7653 255.003 59.7653 254.993 59.7653 255.007C59.7653 255.021 59.7653 255.076 59.7653 255.11V255.155C59.7653 255.197 59.7653 255.235 59.7895 255.276V255.321C59.801 255.365 59.8148 255.407 59.8309 255.449V255.49C59.8482 255.532 59.8689 255.573 59.8896 255.614V255.642C59.9138 255.684 59.938 255.725 59.9656 255.766L59.9898 255.801C60.0197 255.845 60.0531 255.888 60.0899 255.932L60.1175 255.967C60.1555 256.012 60.1969 256.053 60.2418 256.098H60.2625L60.4006 256.215L60.4317 256.239L60.6009 256.36L60.6423 256.388L60.8391 256.502H60.8702L61.0808 256.605H61.1119L61.357 256.705L61.4088 256.726L61.6816 256.816H61.7265L62.0199 256.892H62.0441L62.3894 256.958H62.455L62.8002 257.009H62.8659L63.2629 257.047C64.0329 257.106 65.0721 257.127 66.2737 257.123C66.2737 257.123 66.2737 257.154 66.2737 257.168C66.2737 257.182 66.2737 257.237 66.2737 257.272V257.317C66.2737 257.358 66.2737 257.396 66.2978 257.437V257.482C66.3093 257.526 66.3231 257.569 66.3393 257.61V257.652C66.3565 257.693 66.3772 257.734 66.398 257.776V257.803C66.4221 257.845 66.4463 257.886 66.4739 257.928L66.4981 257.962C66.528 258.006 66.5614 258.05 66.5982 258.093L66.6258 258.128C66.6638 258.173 66.7052 258.214 66.7501 258.259H66.7674L66.9055 258.377L66.9366 258.401L67.1057 258.522L67.1472 258.549L67.3405 258.663H67.3716L67.5822 258.767H67.6133L67.8584 258.867L67.9102 258.888L68.183 258.977H68.2279L68.5214 259.053H68.5455L68.8908 259.119H68.9564L69.3017 259.171H69.3673L69.7643 259.209C74.6361 259.585 90.1835 258.459 90.1835 258.459V258.415V258.359C90.3389 257.634 91.0847 253.419 88.433 250.301C88.5124 250.218 88.5884 250.132 88.6609 250.042C88.6609 250.042 86.5893 246.482 87.7252 245.36C88.8611 244.238 82.2389 224.927 82.2389 224.927C82.2389 224.927 78.6792 219.306 80.7404 212.936C82.8017 206.566 80.554 199.636 80.554 199.636C80.554 199.636 85.474 198.179 85.5638 192.126C85.5638 191.943 85.5638 191.754 85.5638 191.564C85.6667 191.579 85.7706 191.586 85.8745 191.584C85.9435 191.589 86.0127 191.589 86.0817 191.584C86.0817 191.584 85.146 188.211 86.2682 185.777C87.3903 183.343 89.8279 185.591 92.0756 175.661C93.7018 168.476 95.1312 160.213 95.801 156.191C96.0762 154.524 95.935 152.815 95.3902 151.216ZM52.639 172.277L50.9299 170.654C51.4962 170.889 52.1246 171.117 52.8254 171.345L59.2647 172.101C56.3921 172.36 53.7093 172.505 52.639 172.287V172.277Z" fill="url(#paint1_linear_935_2358)"/>
<path d="M68.9576 171.331C68.9576 171.331 55.7061 173.171 52.944 172.619L45.5829 165.624C45.5829 165.624 38.5877 170.961 49.6329 174.459L70.2454 176.852L68.9576 171.331Z" fill="#FDC2CC"/>
<path opacity="0.05" d="M68.9576 171.331C68.9576 171.331 55.7061 173.171 52.944 172.619L45.5829 165.624C45.5829 165.624 38.5877 170.961 49.6329 174.459L70.2454 176.852L68.9576 171.331Z" fill="black"/>
<path d="M43.0171 175.975L14.3806 168.034L8 96.4595H78.1206L71.7331 168.023L43.0171 175.975Z" fill="#264DE4"/>
<path d="M66.2689 163.469L71.7276 102.315H43.0703V169.887L66.2689 163.469Z" fill="#2965F1"/>
<path d="M22.6455 128.849L23.4327 137.626H43.0785V128.849H22.6455ZM21.0641 111.082L21.8617 119.858H43.075V111.082H21.0469H21.0641ZM43.075 151.647H43.037L33.259 149.006L32.6341 142.004H23.8056L25.0347 155.787L43.0163 160.79H43.0577L43.075 151.647Z" fill="#EBEBEB"/>
<path d="M24.5078 77H35.1386V81.4471H28.9514V85.8941H35.1386V90.3412H24.5078V77ZM37.2827 77H47.9136V80.867H41.7125V81.6404H47.8998V90.5345H37.2655V86.4742H43.4527V85.7008H37.2655V77H37.2827ZM50.0577 77H60.6885V80.867H54.4702V81.6404H60.6574V90.5345H50.0232V86.4742H56.2104V85.7008H50.0232V77H50.0577Z" fill="black"/>
<path d="M63.4348 128.849L65.0196 111.082H43.0156V119.858H55.3866L54.589 128.835H43.0156V137.612H53.826L52.7902 149.006L43.0156 151.654V160.786L61.011 155.797L61.1422 154.313L63.2138 131.2L63.4279 128.842L63.4348 128.849Z" fill="white"/>
<path d="M73.7446 246.054L67.3019 251.758C67.3019 251.758 63.6213 252.68 61.598 252.493C59.5748 252.307 58.6529 255.621 63.4383 255.991C68.2237 256.36 83.4984 255.255 83.4984 255.255C83.4984 255.255 84.9693 249.365 80.5533 246.054H73.7446Z" fill="#47465A"/>
<path opacity="0.05" d="M73.7446 246.054L67.3019 251.758C67.3019 251.758 63.6213 252.68 61.598 252.493C59.5748 252.307 58.6529 255.621 63.4383 255.991C68.2237 256.36 83.4984 255.255 83.4984 255.255C83.4984 255.255 84.9693 249.365 80.5533 246.054H73.7446Z" fill="black"/>
<path opacity="0.3" d="M83.7281 252.711C83.7172 253.382 83.6397 254.05 83.4968 254.706C83.4968 254.706 68.2221 255.811 63.4367 255.442C61.1338 255.266 60.1567 254.406 59.984 253.584C59.7734 254.53 60.609 255.777 63.4367 256.001C68.2221 256.371 83.4968 255.266 83.4968 255.266C83.6767 254.426 83.7544 253.569 83.7281 252.711Z" fill="white"/>
<path d="M81.2891 141.717C81.2891 141.717 85.3391 147.421 83.8648 151.288C82.3905 155.155 91.5953 147.238 91.5953 147.238C91.5953 147.238 88.6502 142.062 90.1245 136.538L81.2891 141.717Z" fill="#FDC2CC"/>
<path d="M80.183 248.263L73.7472 253.967C73.7472 253.967 70.0666 254.889 68.0434 254.703C66.0201 254.516 65.0982 257.831 69.8836 258.2C74.6691 258.57 89.9437 257.465 89.9437 257.465C89.9437 257.465 91.4146 251.575 86.9986 248.263H80.183Z" fill="#47465A"/>
<path d="M82.0283 246.976C81.0684 248.16 79.715 248.616 78.2994 248.685C75.0815 248.837 71.539 246.976 71.539 246.976C73.9317 244.952 67.8585 227.099 67.8585 227.099C62.89 224.706 63.256 219.368 63.256 219.368L64.865 190.4L65.2724 183.122L70.4273 179.994L74.4876 183.101L78.3408 186.057C78.5918 186.997 78.7537 187.959 78.8242 188.929C79.273 195.693 73.9248 197.285 73.9248 197.285C73.9248 197.285 76.1345 204.093 74.1078 210.353C72.0811 216.613 75.5787 222.134 75.5787 222.134C75.5787 222.134 82.2044 241.275 81.103 242.38C80.0016 243.485 82.0283 246.976 82.0283 246.976Z" fill="#565171"/>
<path opacity="0.05" d="M82.0283 246.976C81.0684 248.16 79.715 248.616 78.2994 248.685C75.0815 248.837 71.539 246.976 71.539 246.976C73.9317 244.952 67.8585 227.099 67.8585 227.099C62.89 224.706 63.256 219.368 63.256 219.368L64.865 190.4L65.2724 183.122L70.4273 179.994L74.4876 183.101L78.3408 186.057C78.5918 186.997 78.7537 187.959 78.8242 188.929C79.273 195.693 73.9248 197.285 73.9248 197.285C73.9248 197.285 76.1345 204.093 74.1078 210.353C72.0811 216.613 75.5787 222.134 75.5787 222.134C75.5787 222.134 82.2044 241.275 81.103 242.38C80.0016 243.485 82.0283 246.976 82.0283 246.976Z" fill="black"/>
<path d="M88.4596 249.182C85.3314 253.046 77.9703 249.182 77.9703 249.182C78.1186 249.046 78.2291 248.873 78.2914 248.681C79.6414 245.011 73.7373 227.465 73.7373 227.465C68.7689 225.072 68.213 219.368 68.213 219.368L66.9114 189.875L66.7422 186.057L74.4866 183.101L76.8655 182.193L84.7894 188.266C85.1296 189.525 85.2969 190.823 85.2866 192.126C85.1864 198.069 80.363 199.505 80.363 199.505C80.363 199.505 82.5727 206.314 80.546 212.573C78.5193 218.833 82.0272 224.337 82.0272 224.337C82.0272 224.337 88.6529 243.478 87.5515 244.583C86.4501 245.688 88.4596 249.182 88.4596 249.182Z" fill="#565171"/>
<path opacity="0.1" d="M85.2898 192.126C83.6981 191.898 80.4768 189.982 78.8229 188.943C78.1911 188.546 77.7871 188.28 77.7871 188.28C77.7871 188.28 76.1298 183.677 71.7139 187.175C70.2773 188.342 68.655 189.259 66.9146 189.889C66.2498 190.124 65.5643 190.296 64.8672 190.403L65.2746 183.125L70.4295 179.997L74.4898 183.104L76.8687 182.196L84.7926 188.266C85.1329 189.524 85.3001 190.823 85.2898 192.126Z" fill="black"/>
<path d="M95.2438 156.809C94.5878 160.759 93.1722 168.893 91.5839 175.933C89.3742 185.687 86.9815 183.477 85.8801 185.87C84.7787 188.263 85.6971 191.574 85.6971 191.574C83.8568 191.757 77.7836 187.71 77.7836 187.71C77.7836 187.71 76.1263 183.108 71.7103 186.606C67.2943 190.103 63.7967 189.917 63.7967 189.917C62.8749 183.843 69.687 167.647 69.687 167.647C69.687 167.647 76.3127 155.131 77.7836 153.491C78.466 152.68 78.9528 151.723 79.2061 150.694C79.319 150.285 79.3976 149.867 79.4408 149.444C81.8335 149.261 87.7273 145.211 87.7273 145.211L92.3297 144.476V146.869C92.3842 146.893 92.4352 146.924 92.4816 146.962C93.2378 147.538 94.208 149.997 94.8536 151.934C95.3823 153.502 95.5163 155.176 95.2438 156.809Z" fill="#E1A0A7"/>
<path d="M73.7468 174.093L71.3679 173.817L53.1343 171.7C42.0857 168.203 49.0843 162.865 49.0843 162.865L56.4454 169.86C58.5688 170.285 66.9002 169.294 70.6325 168.824C71.7512 168.679 72.459 168.583 72.459 168.583L73.7468 174.093Z" fill="#FDC2CC"/>
<path opacity="0.1" d="M91.594 149.248C91.594 149.248 86.8086 145.384 79.6167 157.897C72.4247 170.409 70.7812 168.386 70.7812 168.386C70.7812 168.386 72.2521 173.91 71.5167 175.012C71.5167 175.012 76.4851 174.642 78.3254 175.012C80.1657 175.381 91.5768 161.025 91.5768 161.025C91.5768 161.025 97.4843 152.928 91.594 149.248Z" fill="black"/>
<path opacity="0.1" d="M91.4162 148.512C91.4162 148.512 86.6307 144.649 79.4526 157.161C72.2745 169.674 70.6172 167.651 70.6172 167.651C70.6172 167.651 76.321 173.907 78.1613 174.276C80.0016 174.646 91.4127 160.289 91.4127 160.289C91.4127 160.289 97.3064 152.193 91.4162 148.512Z" fill="black"/>
<path opacity="0.1" d="M71.3682 173.827C71.4442 172.463 70.9297 170.067 70.6328 168.824C71.7515 168.679 72.4593 168.583 72.4593 168.583L73.7471 174.107L71.3682 173.827Z" fill="black"/>
<path d="M91.594 148.878C91.594 148.878 86.8086 145.015 79.6167 157.531C72.4247 170.047 70.7812 168.02 70.7812 168.02C70.7812 168.02 72.2521 173.544 71.5167 174.646C71.5167 174.646 76.4851 174.276 78.3254 174.646C80.1657 175.015 91.5768 160.659 91.5768 160.659C91.5768 160.659 97.4843 152.559 91.594 148.878Z" fill="#E1A0A7"/>
<path opacity="0.1" d="M90.318 136.915L81.4688 142.063C81.8432 142.606 82.189 143.168 82.5046 143.747C83.0137 143.851 83.5319 143.903 84.0514 143.903C86.4095 143.903 87.504 141.427 88.93 139.76C88.8264 138.434 89.9106 138.399 90.318 136.915Z" fill="black"/>
<path d="M83.8634 143.544C88.1328 143.544 91.5939 140.083 91.5939 135.813C91.5939 131.544 88.1328 128.083 83.8634 128.083C79.5939 128.083 76.1328 131.544 76.1328 135.813C76.1328 140.083 79.5939 143.544 83.8634 143.544Z" fill="#FDC2CC"/>
<path opacity="0.1" d="M74.098 129.561C74.8776 128.761 75.8906 128.229 76.9914 128.041C78.0651 127.81 79.2425 127.741 80.0988 127.054C81.069 126.277 81.504 124.799 82.7021 124.468C83.2226 124.364 83.7619 124.407 84.2593 124.592C86.1704 125.17 87.8672 126.302 89.1345 127.845C89.4343 128.287 89.8164 128.668 90.26 128.967C90.5243 129.078 90.7824 129.204 91.0334 129.343C91.3083 129.561 91.5243 129.845 91.6618 130.168C92.5244 131.911 92.7232 133.907 92.2212 135.786C91.9208 136.894 91.3822 137.923 91.0611 139.028C90.74 140.133 90.6605 141.383 91.244 142.37C90.6778 142.66 89.9631 142.294 89.6075 141.766C89.2519 141.238 89.1448 140.588 88.9584 139.977C88.5916 138.778 87.9011 137.702 86.9627 136.87C86.3827 136.359 85.3469 136.014 84.9429 136.673C84.7875 136.929 84.7979 137.257 84.6632 137.522C84.4008 138.044 83.6274 138.147 83.1337 137.868C82.6475 137.532 82.3059 137.025 82.1773 136.449C81.4212 133.883 80.1264 132.271 77.385 133.365C76.3492 133.773 75.158 134.056 74.174 133.365C72.9137 132.44 73.1658 130.607 74.098 129.561Z" fill="black"/>
<path d="M74.098 129.374C74.8776 128.574 75.8906 128.042 76.9914 127.855C78.0651 127.623 79.2425 127.554 80.0988 126.867C81.069 126.09 81.504 124.613 82.7021 124.281C83.2226 124.177 83.7619 124.22 84.2593 124.405C86.1704 124.983 87.8672 126.115 89.1345 127.658C89.4343 128.1 89.8164 128.481 90.26 128.78C90.5243 128.892 90.7824 129.017 91.0334 129.156C91.3083 129.375 91.5243 129.658 91.6618 129.981C92.5244 131.724 92.7232 133.721 92.2212 135.599C91.9208 136.707 91.3822 137.736 91.0611 138.841C90.74 139.946 90.6605 141.196 91.244 142.183C90.6778 142.473 89.9631 142.107 89.6075 141.579C89.2519 141.051 89.1448 140.402 88.9584 139.791C88.5916 138.591 87.9011 137.516 86.9627 136.683C86.3827 136.172 85.3469 135.827 84.9429 136.486C84.7875 136.742 84.7979 137.07 84.6632 137.336C84.4008 137.857 83.6274 137.961 83.1337 137.681C82.6475 137.345 82.3059 136.839 82.1773 136.262C81.4212 133.697 80.1264 132.084 77.385 133.179C76.3492 133.586 75.158 133.869 74.174 133.179C72.9137 132.257 73.1658 130.423 74.098 129.374Z" fill="#8F5A6A"/>
<path opacity="0.05" d="M92.4874 146.948H88.7482C88.7482 146.948 81.387 150.629 81.204 150.446C81.0797 150.322 79.9404 150.536 79.2188 150.684C79.3317 150.275 79.4103 149.857 79.4535 149.434C81.8463 149.251 87.74 145.201 87.74 145.201L92.3424 144.466V146.859C92.3943 146.882 92.443 146.913 92.4874 146.948Z" fill="black"/>
<path opacity="0.3" d="M90.1656 254.917C90.1547 255.588 90.0772 256.257 89.9343 256.913C89.9343 256.913 74.6596 258.018 69.8742 257.648C67.5713 257.472 66.5942 256.613 66.4215 255.791C66.2109 256.737 67.0465 257.983 69.8742 258.208C74.6596 258.577 89.9343 257.472 89.9343 257.472C90.1142 256.633 90.1919 255.775 90.1656 254.917Z" fill="white"/>
<g opacity="0.05">
<path d="M69.9732 186.423C67.4907 188.391 65.2948 189.185 63.8516 189.53C63.8516 189.668 63.8792 189.803 63.8999 189.934C63.8999 189.934 67.3975 190.117 71.8135 186.623C72.4977 186.037 73.3065 185.614 74.1785 185.387C73.2152 184.914 71.8411 184.945 69.9732 186.423Z" fill="black"/>
<path d="M94.949 151.917C94.2895 149.98 93.3331 147.525 92.577 146.945C92.5306 146.907 92.4795 146.876 92.425 146.852C92.425 146.852 90.9024 146.903 90.9542 146.945C91.7103 147.521 92.4492 149.797 93.1087 151.73C93.6431 153.302 93.7807 154.981 93.5092 156.619C92.8532 160.569 91.4376 168.704 89.8493 175.744C87.6396 185.497 85.2469 183.288 84.1455 185.68C83.2409 187.642 83.6932 190.217 83.89 191.084C84.4852 191.382 85.1376 191.548 85.8028 191.571C85.8028 191.571 84.8809 188.26 85.9858 185.867C87.0907 183.474 89.4834 185.684 91.6896 175.93C93.2882 168.873 94.6935 160.738 95.3495 156.806C95.6209 155.168 95.4834 153.488 94.949 151.917Z" fill="black"/>
</g>
</g>
<defs>
<linearGradient id="paint0_linear_935_2358" x1="208.538" y1="262.019" x2="208.538" y2="143.318" gradientUnits="userSpaceOnUse">
<stop stop-color="#808080" stop-opacity="0.25"/>
<stop offset="0.54" stop-color="#808080" stop-opacity="0.12"/>
<stop offset="1" stop-color="#808080" stop-opacity="0.1"/>
</linearGradient>
<linearGradient id="paint1_linear_935_2358" x1="69.4294" y1="259.475" x2="69.4294" y2="123.021" gradientUnits="userSpaceOnUse">
<stop stop-color="#808080" stop-opacity="0.25"/>
<stop offset="0.54" stop-color="#808080" stop-opacity="0.12"/>
<stop offset="1" stop-color="#808080" stop-opacity="0.1"/>
</linearGradient>
<clipPath id="clip0_935_2358">
<rect width="285" height="285" fill="white"/>
</clipPath>
</defs>
</svg>
