<svg width="70" height="70" viewBox="0 0 70 70" fill="none" xmlns="http://www.w3.org/2000/svg">
<path d="M41.8315 30.3012C40.301 30.3012 39.1614 31.0526 39.1614 32.8611C39.1614 34.2237 39.9125 35.1698 41.7489 35.1698C43.3056 35.1698 44.363 34.2524 44.363 32.8045C44.363 31.1639 43.4169 30.3012 41.8315 30.3012ZM38.7717 43.0711C38.4095 43.5154 38.0485 43.9879 38.0485 44.5448C38.0485 45.6569 39.4666 45.9916 41.4145 45.9916C43.0278 45.9916 45.2257 45.8784 45.2257 44.3783C45.2257 43.4867 44.1683 43.4316 42.8322 43.348L38.7717 43.0711ZM47.0057 30.3851C47.5056 31.025 48.035 31.9156 48.035 33.195C48.035 36.2826 45.6148 38.0906 42.1104 38.0906C41.2193 38.0906 40.4126 37.9796 39.9125 37.8407L38.9941 39.3145L41.7199 39.4814C46.533 39.7881 49.3694 39.9276 49.3694 43.6258C49.3694 46.8256 46.5606 48.6327 41.7199 48.6327C36.6851 48.6327 34.7656 47.353 34.7656 45.1557C34.7656 43.9039 35.322 43.2376 36.2957 42.3179C35.3776 41.93 35.0719 41.2349 35.0719 40.4832C35.0719 39.8707 35.3776 39.3148 35.8791 38.7857C36.3795 38.2579 36.9356 37.7288 37.6033 37.1169C36.2405 36.4491 35.2107 35.0027 35.2107 32.9437C35.2107 29.7453 37.3253 27.5486 41.5805 27.5486C42.777 27.5486 43.5006 27.6585 44.1404 27.8266H49.5654V30.1902L47.0057 30.3851ZM54.4594 25.3301C52.8735 25.3301 51.9555 24.4113 51.9555 22.8251C51.9555 21.2411 52.8732 20.3779 54.4594 20.3779C56.0727 20.3779 56.9909 21.2411 56.9909 22.8251C56.9909 24.4113 56.0729 25.3301 54.4594 25.3301ZM50.8703 42.0473V39.8507L52.2894 39.6566C52.6791 39.6005 52.7343 39.5174 52.7343 39.0993V30.9208C52.7343 30.6157 52.6511 30.4199 52.3719 30.3373L50.8703 29.8082L51.176 27.5556H56.9348V39.0993C56.9348 39.5451 56.9617 39.6005 57.3803 39.6569L58.7988 39.8511V42.0473H50.8703ZM69.7995 40.9689C68.6029 41.5526 66.8505 42.0812 65.2643 42.0812C61.9541 42.0812 60.7028 40.7473 60.7028 37.6023V30.3149C60.7028 30.1481 60.7028 30.0368 60.4794 30.0368H58.5326V27.5603C60.9812 27.2813 61.9541 26.0575 62.2601 23.0253H64.9031V26.9765C64.9031 27.1706 64.9031 27.2546 65.1259 27.2546H69.0479V30.0363H64.9031V36.6843C64.9031 38.3255 65.293 38.9648 66.7945 38.9648C67.5743 38.9648 68.3801 38.7707 69.0476 38.5202L69.7995 40.9685" fill="#2F2707"/>
<path d="M28.5819 33.6684L15.8627 20.95C15.6885 20.7757 15.4817 20.6375 15.2541 20.5432C15.0265 20.4489 14.7826 20.4004 14.5362 20.4004C14.2898 20.4004 14.0458 20.4489 13.8181 20.5432C13.5905 20.6375 13.3838 20.7757 13.2096 20.95L10.5684 23.5913L13.9188 26.9415C14.3127 26.8076 14.7362 26.7867 15.1413 26.881C15.5464 26.9754 15.917 27.1814 16.2111 27.4756C16.5068 27.7716 16.7132 28.1448 16.8068 28.5527C16.9004 28.9604 16.8774 29.3864 16.7405 29.7817L19.9689 33.0107C20.7501 32.7417 21.6517 32.9159 22.2754 33.5407C22.4827 33.7479 22.6472 33.994 22.7595 34.2648C22.8717 34.5356 22.9295 34.8259 22.9295 35.1191C22.9295 35.4122 22.8717 35.7026 22.7595 35.9734C22.6472 36.2442 22.4827 36.4902 22.2754 36.6975C21.9106 37.0627 21.4305 37.2901 20.9167 37.3412C20.4031 37.3922 19.8877 37.2636 19.4581 36.9774C19.0286 36.6911 18.7115 36.2648 18.5609 35.7711C18.4103 35.2773 18.4355 34.7466 18.6321 34.2694L15.621 31.2583L15.6207 39.1825C15.839 39.2904 16.0384 39.433 16.2111 39.6047C16.4185 39.812 16.5829 40.0581 16.6951 40.329C16.8073 40.5999 16.8651 40.8902 16.8651 41.1834C16.8651 41.4766 16.8073 41.7669 16.6951 42.0377C16.5829 42.3086 16.4185 42.5548 16.2111 42.7621C15.3388 43.6344 13.9251 43.6344 13.0543 42.7621C12.794 42.5021 12.6021 42.1819 12.4956 41.8298C12.389 41.4777 12.3711 41.1048 12.4434 40.7441C12.5157 40.3836 12.676 40.0463 12.9101 39.7626C13.144 39.4788 13.4446 39.2573 13.7849 39.1177V31.1197C13.5111 31.0078 13.2627 30.8421 13.0543 30.6324C12.3936 29.9725 12.2347 29.0032 12.5733 28.1919L9.27067 24.8888L0.549678 33.6093C0.375409 33.7835 0.237171 33.9905 0.142857 34.2181C0.048543 34.4458 0 34.6898 0 34.9363C0 35.1827 0.048543 35.4268 0.142857 35.6544C0.237171 35.8821 0.375409 36.0891 0.549678 36.2633L13.2689 48.9819C13.6207 49.3337 14.098 49.5313 14.5955 49.5313C15.093 49.5313 15.5702 49.3337 15.9221 48.9819L28.5819 36.3226C28.9338 35.9706 29.1314 35.4932 29.1314 34.9955C29.1314 34.4978 28.9338 34.0204 28.5819 33.6684Z" fill="#DE4C36"/>
</svg>
