<svg width="155" height="45" viewBox="0 0 155 45" fill="none" xmlns="http://www.w3.org/2000/svg">
<path d="M67.8601 16.0595L68.7291 18.4761C68.7529 18.5118 68.7767 18.5357 68.8244 18.5357H69.7291C69.7886 18.5357 69.8005 18.4999 69.7767 18.4523L66.9791 10.7262C66.9672 10.6786 66.9553 10.6667 66.9077 10.6667H65.7411C65.7053 10.6667 65.6815 10.6905 65.6815 10.7262C65.6696 11.0357 65.6339 11.119 65.5982 11.2143L63.003 18.4404C62.9911 18.4999 63.0149 18.5357 63.0744 18.5357H63.8839C63.9434 18.5357 63.9673 18.5118 63.9792 18.4642L64.8363 16.0595H67.8601ZM65.1101 15.1428C65.5625 13.8333 66.1339 12.2381 66.3363 11.4762H66.3482C66.5744 12.2857 67.3244 14.369 67.5863 15.1428H65.1101Z" fill="#231F20"/>
<path d="M73.2751 18.6547C73.9418 18.6547 74.6085 18.5357 75.287 18.2142C75.3346 18.1904 75.3465 18.1785 75.3465 18.1309C75.3227 17.9285 75.3227 17.7261 75.3227 17.5595V10.0595C75.3227 10.0238 75.3108 10 75.2513 10H74.3942C74.3466 10 74.3227 10.0119 74.3227 10.0714V12.7024C74.0966 12.6666 73.9061 12.6309 73.5727 12.6309C71.6323 12.6309 70.3347 13.9404 70.3347 15.6904C70.3347 17.6547 71.6204 18.6547 73.2751 18.6547ZM74.3227 17.6309C74.0489 17.7499 73.6799 17.7857 73.3704 17.7857C72.3228 17.7857 71.3466 17.1904 71.3466 15.6428C71.3466 14.4047 72.1918 13.4881 73.5489 13.4881C73.8466 13.4881 74.1323 13.5238 74.3227 13.6071V17.6309Z" fill="#231F20"/>
<path d="M79.3157 12.6309C77.6491 12.6309 76.5777 13.9643 76.5777 15.6428C76.5777 17.1071 77.3991 18.6547 79.3157 18.6547C80.911 18.6547 82.03 17.4404 82.03 15.6309C82.03 13.9166 80.9943 12.6309 79.3157 12.6309ZM79.2681 13.4881C80.5062 13.4881 81.0181 14.5476 81.0181 15.6547C81.0181 17.1309 80.1848 17.7976 79.3395 17.7976C78.2086 17.7976 77.5776 16.8333 77.5776 15.619C77.5776 14.3452 78.2681 13.4881 79.2681 13.4881Z" fill="#231F20"/>
<path d="M83.3555 10C83.296 10 83.2722 10.0119 83.2722 10.0714V18.3095C83.2722 18.3571 83.296 18.4047 83.3436 18.4166C83.8555 18.5833 84.3793 18.6547 84.9745 18.6547C86.6531 18.6547 88.2721 17.5595 88.2721 15.4166C88.2721 13.8095 87.2007 12.6309 85.5579 12.6309C85.0817 12.6309 84.6531 12.7143 84.2722 12.869V10.0714C84.2722 10 84.2484 10 84.1888 10H83.3555ZM87.2602 15.5C87.2602 17.0357 86.2007 17.7976 85.0579 17.7976C84.7365 17.7976 84.4984 17.7738 84.2722 17.7023V13.7024C84.5698 13.5833 84.8912 13.5 85.4031 13.5C86.546 13.5 87.2602 14.2857 87.2602 15.5Z" fill="#231F20"/>
<path d="M92.7983 15.7619C93.3221 15.7619 93.8459 15.75 94.0245 15.7142C94.0721 15.7142 94.1079 15.6785 94.1079 15.6428C94.1317 15.5357 94.1555 15.3214 94.1555 15.0238C94.1555 14.0119 93.5364 12.6309 91.8341 12.6309C90.1793 12.6309 89.2031 14.0238 89.2031 15.6904C89.2031 17.1428 89.9412 18.6547 92.0007 18.6547C92.7507 18.6547 93.2745 18.5118 93.6793 18.3095C93.715 18.2857 93.7388 18.2618 93.7388 18.1904V17.5119C93.7388 17.4642 93.715 17.4404 93.6793 17.4642C93.215 17.6904 92.715 17.7857 92.1912 17.7857C90.846 17.7857 90.1912 16.8928 90.2031 15.7619H92.7983ZM90.215 15.0238C90.3222 14.2262 90.8103 13.4524 91.7983 13.4524C92.9174 13.4524 93.2031 14.4404 93.2031 14.869C93.2031 14.9047 93.2031 14.9643 93.1912 15C93.1555 15.0119 93.0126 15.0238 92.4293 15.0238H90.215Z" fill="#231F20"/>
<path d="M65.6161 23.4106C65.6161 23.3273 65.5883 23.2995 65.5049 23.2995H64.0466C63.9772 23.2995 63.9355 23.3134 63.9355 23.4106V32.2994C63.9355 32.3828 63.9633 32.4244 64.0466 32.4244H65.5049C65.5883 32.4244 65.6161 32.3967 65.6161 32.2994V23.4106Z" fill="#231F20"/>
<path d="M67.4448 30.7717C67.4448 32.23 68.167 32.5633 69.0559 32.5633C69.4448 32.5633 69.6948 32.5217 69.8476 32.4522C69.917 32.4106 69.9309 32.3967 69.9309 32.2994V31.2578C69.9309 31.1883 69.917 31.1606 69.8754 31.1745C69.7504 31.1883 69.7226 31.1883 69.6115 31.1883C69.2781 31.1883 69.1254 31.0495 69.1254 30.6189V22.6467C69.1254 22.5773 69.0837 22.5356 69.0004 22.5356H67.5698C67.4865 22.5356 67.4448 22.5773 67.4448 22.6467V30.7717Z" fill="#231F20"/>
<path d="M71.1205 30.7717C71.1205 32.23 71.8427 32.5633 72.7316 32.5633C73.1204 32.5633 73.3704 32.5217 73.5232 32.4522C73.5927 32.4106 73.6066 32.3967 73.6066 32.2994V31.2578C73.6066 31.1883 73.5927 31.1606 73.551 31.1745C73.426 31.1883 73.3982 31.1883 73.2871 31.1883C72.9538 31.1883 72.801 31.0495 72.801 30.6189V22.6467C72.801 22.5773 72.7593 22.5356 72.676 22.5356H71.2455C71.1621 22.5356 71.1205 22.5773 71.1205 22.6467V30.7717Z" fill="#231F20"/>
<path d="M80.4931 25.6745C80.4931 25.605 80.4792 25.5773 80.3959 25.5773H78.9376C78.8542 25.5773 78.8265 25.605 78.8265 25.6745V30.605C78.4792 30.9245 78.0904 31.105 77.5626 31.105C76.7293 31.105 76.3543 30.5772 76.3543 29.7161V25.6745C76.3543 25.605 76.3404 25.5773 76.257 25.5773H74.7987C74.7154 25.5773 74.6876 25.5912 74.6876 25.6745V29.9106C74.6876 31.855 75.7015 32.5633 77.0209 32.5633C77.6459 32.5633 78.3542 32.4106 78.9515 31.855C78.9654 31.9939 79.007 32.2022 79.0487 32.3411C79.0626 32.3967 79.0904 32.4244 79.1876 32.4244H80.4653C80.5487 32.4244 80.5903 32.3967 80.5765 32.3272C80.5487 32.0356 80.4931 31.6189 80.4931 30.8967V25.6745Z" fill="#231F20"/>
<path d="M86.2381 27.1884C86.3214 27.2161 86.3631 27.1745 86.3631 27.105V25.8828C86.3631 25.8134 86.3492 25.7578 86.2798 25.7162C85.9464 25.5495 85.3353 25.4384 84.5298 25.4384C82.7937 25.4384 81.9326 26.4245 81.9326 27.48C81.9326 28.48 82.4742 29.105 83.9881 29.6606C84.8492 30.0078 85.1131 30.23 85.1131 30.5772C85.1131 30.9383 84.7659 31.1883 84.0437 31.1883C83.4187 31.1883 82.6548 31.0217 82.0576 30.6328C82.002 30.605 81.9464 30.6328 81.9464 30.7022V32.0217C81.9464 32.105 81.9742 32.1328 82.0437 32.1744C82.4603 32.4106 83.1826 32.5633 84.002 32.5633C85.7103 32.5633 86.7381 31.7439 86.7381 30.4383C86.7381 29.4522 86.1964 28.8272 84.6131 28.2439C83.7242 27.8967 83.5159 27.6884 83.5159 27.3828C83.5159 27.0911 83.7659 26.7856 84.502 26.7856C85.1131 26.7856 85.8075 26.9523 86.2381 27.1884Z" fill="#231F20"/>
<path d="M91.3378 31.2022C91.3378 31.1189 91.2961 31.105 91.2544 31.1189C91.06 31.1606 90.9072 31.1745 90.7267 31.1745C90.1294 31.1745 89.935 30.8828 89.935 30.2717V26.98H91.2961C91.3655 26.98 91.3933 26.9523 91.3933 26.8828V25.6745C91.3933 25.605 91.3655 25.5773 91.2961 25.5773H89.9489C89.9489 24.8967 89.9767 24.0773 90.0183 23.619C90.0183 23.5495 89.9906 23.5356 89.9211 23.5495L88.5183 23.744C88.4489 23.7578 88.4211 23.7995 88.4072 23.8689C88.3378 24.2162 88.2822 25.0912 88.2683 25.5773H87.3933C87.31 25.5773 87.2822 25.605 87.2822 25.6884V26.855C87.2822 26.9384 87.31 26.9661 87.3795 26.98H88.2545V30.6328C88.2545 32.0078 88.935 32.5633 90.0739 32.5633C90.5322 32.5633 90.8794 32.5078 91.2544 32.3689C91.3239 32.3411 91.3378 32.2856 91.3378 32.2022V31.2022Z" fill="#231F20"/>
<path d="M92.5372 25.5773C92.4677 25.5773 92.4539 25.5912 92.4539 25.6606C92.5094 26.1189 92.5233 26.9245 92.5233 27.5217V32.3133C92.5233 32.3828 92.5511 32.4244 92.6483 32.4244H94.0927C94.1761 32.4244 94.2177 32.3967 94.2177 32.3133V27.8411C94.5372 27.4245 95.3566 27.0773 96.3427 27.105C96.4399 27.105 96.4677 27.0773 96.4677 27.0078V25.5356C96.4677 25.4523 96.4399 25.4384 96.3566 25.4384C95.3983 25.4384 94.6066 25.9384 94.1344 26.5217C94.1205 26.2162 94.065 25.8689 93.9955 25.6884C93.9677 25.605 93.9261 25.5773 93.8427 25.5773H92.5372Z" fill="#231F20"/>
<path d="M100.811 31.0772C100.506 31.2022 100.186 31.2439 99.8253 31.2439C98.8253 31.2439 98.4642 30.7995 98.4642 30.2856C98.4642 29.6884 98.9503 29.3272 100.048 29.3272C100.367 29.3272 100.603 29.3411 100.811 29.3689V31.0772ZM102.436 28.1884C102.436 26.6467 101.603 25.4384 99.6726 25.4384C98.9226 25.4384 98.1587 25.5773 97.5615 25.855C97.492 25.8967 97.4781 25.9245 97.4781 25.9939V27.2023C97.4781 27.2856 97.5476 27.2995 97.5892 27.2856C98.1031 27.0356 98.7142 26.8967 99.4087 26.8967C100.631 26.8967 100.811 27.6189 100.811 27.9384V28.105C100.686 28.0911 100.367 28.0773 99.9503 28.0773C98.1448 28.0773 96.8254 28.8134 96.8254 30.2856C96.8254 31.855 98.0337 32.5633 99.5476 32.5633C100.492 32.5633 101.298 32.4244 102.436 31.9383C102.464 31.9244 102.464 31.9106 102.464 31.8828C102.436 31.5911 102.436 31.3133 102.436 31.0078V28.1884Z" fill="#231F20"/>
<path d="M107.356 31.2022C107.356 31.1189 107.314 31.105 107.273 31.1189C107.078 31.1606 106.925 31.1745 106.745 31.1745C106.148 31.1745 105.953 30.8828 105.953 30.2717V26.98H107.314C107.384 26.98 107.412 26.9523 107.412 26.8828V25.6745C107.412 25.605 107.384 25.5773 107.314 25.5773H105.967C105.967 24.8967 105.995 24.0773 106.037 23.619C106.037 23.5495 106.009 23.5356 105.939 23.5495L104.537 23.744C104.467 23.7578 104.439 23.7995 104.425 23.8689C104.356 24.2162 104.3 25.0912 104.287 25.5773H103.412C103.328 25.5773 103.3 25.605 103.3 25.6884V26.855C103.3 26.9384 103.328 26.9661 103.398 26.98H104.273V30.6328C104.273 32.0078 104.953 32.5633 106.092 32.5633C106.55 32.5633 106.898 32.5078 107.273 32.3689C107.342 32.3411 107.356 32.2856 107.356 32.2022V31.2022Z" fill="#231F20"/>
<path d="M111.445 25.4384C109.362 25.4384 108.07 27.0356 108.07 29.0078C108.07 30.7717 109.098 32.5633 111.417 32.5633C113.376 32.5633 114.751 31.1189 114.751 28.9661C114.751 27.0634 113.584 25.4384 111.445 25.4384ZM111.362 26.8412C112.542 26.8412 113.042 27.855 113.042 29.0078C113.042 30.4383 112.306 31.1467 111.445 31.1467C110.39 31.1467 109.765 30.2578 109.765 28.98C109.765 27.6606 110.431 26.8412 111.362 26.8412Z" fill="#231F20"/>
<path d="M116.069 25.5773C116 25.5773 115.986 25.5912 115.986 25.6606C116.042 26.1189 116.056 26.9245 116.056 27.5217V32.3133C116.056 32.3828 116.083 32.4244 116.181 32.4244H117.625C117.708 32.4244 117.75 32.3967 117.75 32.3133V27.8411C118.069 27.4245 118.889 27.0773 119.875 27.105C119.972 27.105 120 27.0773 120 27.0078V25.5356C120 25.4523 119.972 25.4384 119.889 25.4384C118.931 25.4384 118.139 25.9384 117.667 26.5217C117.653 26.2162 117.597 25.8689 117.528 25.6884C117.5 25.605 117.458 25.5773 117.375 25.5773H116.069Z" fill="#231F20"/>
<g clip-path="url(#clip0_953_8)">
<path d="M32.3125 7H51.6875C54.625 7 57 9.4359 57 12.4487V31.5513C57 34.5641 54.625 37 51.6875 37H32.3125C29.375 37 27 34.5641 27 31.5513V12.4487C27 9.4359 29.375 7 32.3125 7Z" fill="#330000"/>
<path d="M42.3359 26.0125H37.6859L36.736 28.95C36.7109 29.0625 36.6109 29.1375 36.4984 29.125H34.1485C34.0109 29.125 33.9734 29.05 34.0109 28.9L38.0359 17.3125C38.0734 17.1875 38.1109 17.05 38.161 16.9C38.2109 16.6375 38.236 16.3625 38.236 16.0875C38.2234 16.025 38.2735 15.9625 38.3359 15.95H41.5735C41.6734 15.95 41.7235 15.9875 41.7359 16.05L46.2985 28.925C46.336 29.0625 46.2985 29.125 46.1734 29.125H43.561C43.4734 29.1375 43.3859 29.075 43.3609 28.9875L42.3359 26.0125ZM38.4109 23.475H41.5859C41.5109 23.2125 41.4109 22.9 41.2984 22.575C41.1859 22.2375 41.0734 21.875 40.9609 21.5C40.8359 21.1125 40.7234 20.7375 40.5985 20.35C40.4734 19.9625 40.3609 19.6 40.261 19.2375C40.1609 18.8875 40.0735 18.5625 39.9859 18.2625H39.961C39.8485 18.8 39.7109 19.3375 39.5359 19.875C39.3484 20.475 39.1609 21.1 38.9609 21.725C38.7859 22.3625 38.5984 22.95 38.4109 23.475ZM49.0859 18.1375C48.6734 18.15 48.2734 17.9875 47.9734 17.7C47.686 17.3875 47.536 16.975 47.5484 16.55C47.536 16.125 47.6984 15.725 47.9984 15.4375C48.2984 15.15 48.6985 15 49.111 15C49.5985 15 49.9735 15.15 50.2484 15.4375C50.5234 15.7375 50.6734 16.1375 50.6609 16.55C50.6734 16.975 50.5234 17.3875 50.2234 17.7C49.936 18 49.5109 18.1625 49.0859 18.1375ZM47.686 28.9875V19.3625C47.686 19.2375 47.7359 19.1875 47.8484 19.1875H50.3234C50.4359 19.1875 50.4859 19.25 50.4859 19.3625V28.9875C50.4859 29.125 50.4359 29.1875 50.3234 29.1875H47.8735C47.7484 29.1875 47.686 29.1125 47.686 28.9875Z" fill="#FF9A00"/>
</g>
<defs>
<clipPath id="clip0_953_8">
<rect width="30" height="30" fill="white" transform="translate(27 7)"/>
</clipPath>
</defs>
</svg>
