<svg width="70" height="70" viewBox="0 0 70 70" fill="none" xmlns="http://www.w3.org/2000/svg">
<circle cx="35" cy="35" r="35" fill="#0693E3" fill-opacity="0.05"/>
<path d="M28.3984 33.8376C28.3984 33.8376 33.4377 32.0018 33.6133 28.3796C33.7888 24.7573 35.0199 21.0065 39.1792 18.6624C43.3384 16.3184 41.171 11.5785 41.171 11.5785L49.081 11.333C49.081 11.333 48.9663 18.9504 48.0851 20.5315C48.0851 20.5315 35.7221 18.7932 37.2998 31.6152L38.7351 35.7652L34.9132 37.9326C34.9132 37.9326 29.5125 35.2982 28.3984 33.8376Z" fill="#FEE13E"/>
<path d="M40.3532 48.657C40.2947 48.5423 34.9204 50.0339 34.9204 50.0339L36.0793 47.2217H28.751V56.4489H41.6406V51.1629L40.3532 48.657Z" fill="#FEE13E"/>
<path d="M47.4708 46.4301L52.8842 39.1075L52.081 37.4668L48.7766 39.6778L46.709 45.1668L47.4708 46.4301Z" fill="#FEE13E"/>
<path d="M34.9195 38.1876C34.883 38.1872 34.8466 38.1845 34.8105 38.1795C34.6533 38.1577 30.9037 37.6059 27.1563 33.8838C24.9821 31.7267 23.2553 28.9409 22.0184 25.6055C20.4912 21.4829 19.7236 16.4987 19.7236 10.7917C19.7235 10.6878 19.7438 10.5849 19.7835 10.4888C19.8231 10.3928 19.8813 10.3055 19.9548 10.2319C20.0282 10.1584 20.1154 10.1001 20.2114 10.0603C20.3074 10.0205 20.4103 10 20.5142 10H49.3363C49.546 10.0003 49.7471 10.0838 49.8953 10.2323C50.0435 10.3807 50.1268 10.5819 50.1268 10.7917C50.1268 14.4208 49.8124 17.7815 49.1917 20.7807C49.1492 20.9861 49.0269 21.1663 48.8517 21.2815C48.6764 21.3967 48.4625 21.4376 48.2571 21.3952C48.0517 21.3527 47.8716 21.2304 47.7564 21.0551C47.6412 20.8799 47.6003 20.666 47.6427 20.4606C48.1958 17.7849 48.4975 14.8018 48.54 11.5822H21.3082C21.4332 20.9907 23.8083 28.2697 28.1924 32.6813C31.2284 35.7345 34.3056 36.4677 34.9206 36.5927C35.3142 36.5159 36.7254 36.1877 38.4775 35.1574C38.6582 35.0555 38.8716 35.0287 39.0718 35.0825C39.2721 35.1364 39.4432 35.2667 39.5484 35.4454C39.6536 35.6241 39.6845 35.837 39.6345 36.0382C39.5844 36.2395 39.4573 36.413 39.2807 36.5216C36.9274 37.9053 35.1076 38.1692 35.0354 38.1795C34.997 38.1849 34.9582 38.1875 34.9195 38.1876Z" fill="#0693E3"/>
<path d="M25.4744 31.4296H25.464C21.0501 31.3757 17.6298 30.1457 15.2972 27.7718C13.5635 26.0014 12.4735 23.6596 12.0524 20.8084C11.9496 20.1093 11.9985 19.3963 12.1959 18.7179C12.3933 18.0394 12.7345 17.4115 13.1963 16.8767C13.6582 16.3419 14.2298 15.9129 14.8722 15.6188C15.5147 15.3248 16.213 15.1725 16.9195 15.1724H20.7403C20.8467 15.1684 20.9529 15.1859 21.0524 15.2238C21.1519 15.2617 21.2428 15.3193 21.3195 15.3932C21.3962 15.4671 21.4572 15.5556 21.4989 15.6537C21.5406 15.7517 21.5621 15.8571 21.5621 15.9636C21.5621 16.0701 21.5406 16.1755 21.4989 16.2735C21.4572 16.3715 21.3962 16.4601 21.3195 16.5339C21.2428 16.6078 21.1519 16.6654 21.0524 16.7033C20.9529 16.7413 20.8467 16.7587 20.7403 16.7547H16.9195C16.4404 16.7552 15.967 16.8588 15.5314 17.0586C15.0959 17.2583 14.7085 17.5495 14.3955 17.9123C14.0826 18.2751 13.8514 18.7011 13.7177 19.1612C13.584 19.6213 13.551 20.1048 13.6208 20.5789C14.2324 24.7462 16.7887 29.7361 25.487 29.8428C25.6967 29.844 25.8973 29.9285 26.0446 30.0776C26.192 30.2267 26.2742 30.4283 26.2729 30.6379C26.2717 30.8476 26.1873 31.0482 26.0382 31.1956C25.889 31.343 25.6875 31.4251 25.4778 31.4239L25.4744 31.4296Z" fill="#0693E3"/>
<path d="M55.3287 26.9698C55.1822 26.9698 55.0386 26.929 54.9138 26.8522C54.7891 26.7753 54.6882 26.6652 54.6224 26.5343C54.5566 26.4034 54.5285 26.2568 54.5411 26.1108C54.5538 25.9648 54.6068 25.8252 54.6942 25.7077C55.7269 24.3182 56.3958 22.5925 56.6918 20.5789C56.7617 20.1046 56.7286 19.6208 56.5947 19.1604C56.4608 18.7 56.2293 18.2739 55.916 17.911C55.6026 17.5481 55.2148 17.257 54.7789 17.0575C54.3429 16.8579 53.8691 16.7547 53.3897 16.7547H49.5689C49.4625 16.7587 49.3563 16.7413 49.2568 16.7033C49.1573 16.6654 49.0664 16.6078 48.9897 16.5339C48.913 16.4601 48.8519 16.3715 48.8103 16.2735C48.7686 16.1755 48.7471 16.0701 48.7471 15.9636C48.7471 15.8571 48.7686 15.7517 48.8103 15.6537C48.8519 15.5556 48.913 15.4671 48.9897 15.3932C49.0664 15.3193 49.1573 15.2617 49.2568 15.2238C49.3563 15.1859 49.4625 15.1684 49.5689 15.1724H53.3897C54.0959 15.173 54.7938 15.3256 55.4359 15.6199C56.0779 15.9142 56.6491 16.3433 57.1105 16.878C57.572 17.4127 57.9129 18.0405 58.1101 18.7187C58.3073 19.3969 58.3562 20.1096 58.2534 20.8084C57.9195 23.0825 57.1485 25.0479 55.9586 26.6496C55.8857 26.7483 55.7908 26.8286 55.6815 26.8841C55.5721 26.9397 55.4514 26.969 55.3287 26.9698Z" fill="#0693E3"/>
<path d="M46.4107 39.96C44.4198 39.96 42.4736 39.3696 40.8182 38.2635C39.1629 37.1574 37.8727 35.5852 37.1108 33.7459C36.349 31.9065 36.1497 29.8825 36.5382 27.9299C36.9267 25.9772 37.8855 24.1837 39.2934 22.776C40.7012 21.3683 42.4949 20.4097 44.4476 20.0214C46.4003 19.6331 48.4242 19.8326 50.2635 20.5947C52.1028 21.3567 53.6748 22.6471 54.7807 24.3026C55.8866 25.958 56.4768 27.9043 56.4766 29.8952C56.4735 32.5638 55.412 35.1222 53.5249 37.0091C51.6378 38.896 49.0793 39.9572 46.4107 39.96ZM46.4107 21.4115C44.7327 21.4115 43.0925 21.9091 41.6974 22.8413C40.3022 23.7735 39.2149 25.0984 38.5727 26.6486C37.9306 28.1988 37.7626 29.9046 38.09 31.5503C38.4173 33.196 39.2253 34.7076 40.4118 35.8941C41.5982 37.0805 43.1099 37.8885 44.7556 38.2159C46.4012 38.5432 48.107 38.3752 49.6572 37.7331C51.2074 37.091 52.5324 36.0036 53.4646 34.6085C54.3968 33.2134 54.8944 31.5731 54.8944 29.8952C54.8925 27.6457 53.9981 25.4889 52.4075 23.8983C50.8169 22.3077 48.6601 21.4133 46.4107 21.4115Z" fill="#0693E3"/>
<path d="M34.9196 45.1686C34.8157 45.1688 34.7128 45.1485 34.6167 45.1088C34.5207 45.0691 34.4334 45.0109 34.3599 44.9375C34.2864 44.8641 34.228 44.7769 34.1882 44.6809C34.1484 44.5849 34.1279 44.482 34.1279 44.3781V37.3963C34.1357 37.1917 34.2225 36.9981 34.37 36.8561C34.5175 36.7141 34.7143 36.6348 34.919 36.6348C35.1238 36.6348 35.3206 36.7141 35.4681 36.8561C35.6156 36.9981 35.7024 37.1917 35.7102 37.3963V44.3781C35.7102 44.5878 35.6269 44.7888 35.4786 44.9371C35.3304 45.0854 35.1293 45.1686 34.9196 45.1686Z" fill="#0693E3"/>
<path d="M43.4604 60.0002H26.8521C26.2772 59.9996 25.726 59.771 25.3194 59.3644C24.9129 58.9579 24.6842 58.4067 24.6836 57.8317V45.7556C24.6854 45.1815 24.9147 44.6316 25.3211 44.2262C25.7276 43.8209 26.2781 43.5931 26.8521 43.5928H37.1429C37.3526 43.5928 37.5537 43.6761 37.7019 43.8243C37.8502 43.9726 37.9335 44.1737 37.9335 44.3833C37.9335 44.593 37.8502 44.7941 37.7019 44.9423C37.5537 45.0906 37.3526 45.1739 37.1429 45.1739H26.8521C26.7751 45.1739 26.6989 45.189 26.6278 45.2185C26.5566 45.248 26.492 45.2911 26.4376 45.3456C26.3831 45.4 26.3399 45.4647 26.3105 45.5358C26.281 45.6069 26.2658 45.6832 26.2658 45.7602V57.8283C26.2658 57.9053 26.281 57.9815 26.3105 58.0526C26.3399 58.1238 26.3831 58.1884 26.4376 58.2428C26.492 58.2973 26.5566 58.3405 26.6278 58.3699C26.6989 58.3994 26.7751 58.4146 26.8521 58.4146H43.4604C43.6157 58.4143 43.7645 58.3524 43.8742 58.2424C43.9839 58.1325 44.0456 57.9836 44.0456 57.8283V49.2069C44.0415 49.1005 44.059 48.9943 44.0969 48.8948C44.1348 48.7953 44.1924 48.7044 44.2663 48.6277C44.3402 48.551 44.4288 48.4899 44.5268 48.4482C44.6248 48.4065 44.7302 48.3851 44.8367 48.3851C44.9432 48.3851 45.0486 48.4065 45.1466 48.4482C45.2446 48.4899 45.3332 48.551 45.407 48.6277C45.4809 48.7044 45.5385 48.7953 45.5764 48.8948C45.6144 48.9943 45.6318 49.1005 45.6278 49.2069V57.8283C45.6281 58.4036 45.4 58.9555 44.9936 59.3628C44.5872 59.7701 44.0357 59.9993 43.4604 60.0002Z" fill="#0693E3"/>
<path d="M42.8133 54.0741C42.6678 54.0741 42.5251 54.034 42.401 53.9581C42.2769 53.8821 42.1762 53.7734 42.11 53.6438L39.9701 49.4731L35.0766 50.4667C34.9336 50.4962 34.7853 50.4854 34.6481 50.4356C34.5109 50.3859 34.3902 50.299 34.2994 50.1848C34.2086 50.0706 34.1512 49.9334 34.1337 49.7885C34.1161 49.6436 34.1391 49.4967 34.2 49.3641L39.6798 37.3465C39.7701 37.1605 39.9295 37.0171 40.1241 36.9471C40.3186 36.8771 40.5328 36.886 40.7209 36.9719C40.909 37.0578 41.056 37.2138 41.1306 37.4067C41.2051 37.5995 41.2012 37.8139 41.1198 38.0039L36.2825 48.608L40.242 47.8048C40.4112 47.7703 40.587 47.7921 40.7426 47.8669C40.8982 47.9417 41.025 48.0654 41.1037 48.219L42.7732 51.473L48.8003 38.3068C48.8411 38.2086 48.9013 38.1197 48.9772 38.0452C49.0531 37.9708 49.1433 37.9124 49.2423 37.8735C49.3413 37.8347 49.4471 37.8162 49.5534 37.8191C49.6596 37.8221 49.7643 37.8464 49.861 37.8907C49.9576 37.9349 50.0444 37.9982 50.1161 38.0767C50.1878 38.1553 50.243 38.2474 50.2782 38.3477C50.3135 38.4481 50.3283 38.5544 50.3216 38.6606C50.3148 38.7667 50.2868 38.8704 50.2391 38.9654L43.5327 53.6128C43.4706 53.7473 43.372 53.8617 43.248 53.9428C43.1241 54.024 42.9798 54.0686 42.8317 54.0718L42.8133 54.0741Z" fill="#0693E3"/>
<path d="M50.0843 54.0746H50.0671C49.9189 54.0714 49.7745 54.0267 49.6503 53.9456C49.5262 53.8645 49.4273 53.7501 49.3649 53.6156L45.73 45.6746C45.6868 45.5802 45.6626 45.4783 45.6587 45.3745C45.6549 45.2707 45.6716 45.1672 45.7077 45.0699C45.7808 44.8733 45.9289 44.7139 46.1196 44.6265C46.3102 44.5392 46.5277 44.5312 46.7243 44.6042C46.9209 44.6773 47.0804 44.8254 47.1677 45.016L50.1245 51.4746L51.7939 48.2207C51.8726 48.067 51.9995 47.9433 52.155 47.8685C52.3106 47.7938 52.4864 47.772 52.6556 47.8065L56.6152 48.6096L51.779 38.0044C51.7358 37.91 51.7117 37.8079 51.708 37.7041C51.7042 37.6003 51.721 37.4968 51.7573 37.3995C51.7935 37.3021 51.8486 37.2129 51.9194 37.1369C51.9902 37.0608 52.0752 36.9995 52.1697 36.9563C52.2642 36.9131 52.3662 36.889 52.47 36.8853C52.5738 36.8815 52.6773 36.8983 52.7747 36.9346C52.872 36.9709 52.9612 37.0259 53.0373 37.0967C53.1133 37.1675 53.1746 37.2525 53.2178 37.347L58.6988 49.3646C58.7594 49.4973 58.782 49.6442 58.7643 49.7891C58.7465 49.9339 58.689 50.071 58.5981 50.1851C58.5072 50.2992 58.3865 50.386 58.2494 50.4358C58.1123 50.4856 57.964 50.4965 57.8211 50.4672L52.9287 49.4736L50.7888 53.6443C50.7222 53.7738 50.6213 53.8825 50.497 53.9584C50.3727 54.0343 50.2299 54.0745 50.0843 54.0746Z" fill="#0693E3"/>
<path d="M47.7144 24.6241L48.6412 27.4785C48.6609 27.5343 48.6975 27.5826 48.7459 27.6167C48.7943 27.6508 48.8522 27.669 48.9114 27.6688H51.9161C52.1113 27.6685 52.3016 27.73 52.4596 27.8447C52.6176 27.9593 52.7351 28.1211 52.7954 28.3068C52.8557 28.4924 52.8555 28.6924 52.795 28.878C52.7344 29.0636 52.6166 29.2252 52.4584 29.3395L50.0284 31.1055C49.9801 31.1409 49.9441 31.1907 49.9257 31.2478C49.9072 31.3048 49.9072 31.3662 49.9256 31.4232L50.8543 34.2776C50.9139 34.4631 50.9135 34.6626 50.8531 34.8478C50.7926 35.033 50.6753 35.1944 50.5177 35.309C50.3601 35.4235 50.1703 35.4854 49.9755 35.4857C49.7807 35.4861 49.5908 35.4249 49.4328 35.3109L47.0027 33.545C46.954 33.5097 46.8954 33.4907 46.8353 33.4907C46.7751 33.4907 46.7165 33.5097 46.6678 33.545L44.2378 35.3109C44.0798 35.4249 43.8899 35.4861 43.695 35.4857C43.5002 35.4854 43.3105 35.4235 43.1529 35.309C42.9953 35.1944 42.8779 35.033 42.8175 34.8478C42.7571 34.6626 42.7566 34.4631 42.8163 34.2776L43.7449 31.4232C43.7634 31.3662 43.7633 31.3048 43.7449 31.2478C43.7265 31.1907 43.6905 31.1409 43.6422 31.1055L41.2122 29.3395C41.054 29.2252 40.9362 29.0636 40.8756 28.878C40.8151 28.6924 40.8149 28.4924 40.8752 28.3068C40.9354 28.1211 41.053 27.9593 41.211 27.8447C41.369 27.73 41.5593 27.6685 41.7545 27.6688H44.7592C44.8184 27.669 44.8762 27.6508 44.9247 27.6167C44.9731 27.5826 45.0097 27.5343 45.0294 27.4785L45.9561 24.6241C46.0167 24.4387 46.1343 24.2771 46.2922 24.1626C46.4501 24.048 46.6402 23.9863 46.8353 23.9863C47.0304 23.9863 47.2204 24.048 47.3784 24.1626C47.5363 24.2771 47.6539 24.4387 47.7144 24.6241Z" fill="#FEE13E"/>
<path d="M44.8697 28.6628H42.0477C41.9972 28.6628 41.9488 28.6428 41.9132 28.6071C41.8775 28.5714 41.8574 28.523 41.8574 28.4725C41.8574 28.422 41.8775 28.3736 41.9132 28.338C41.9488 28.3023 41.9972 28.2822 42.0477 28.2822H44.8697C44.9202 28.2822 44.9686 28.3023 45.0043 28.338C45.04 28.3736 45.06 28.422 45.06 28.4725C45.06 28.523 45.04 28.5714 45.0043 28.6071C44.9686 28.6428 44.9202 28.6628 44.8697 28.6628Z" fill="white"/>
</svg>
