<svg width="158" height="45" viewBox="0 0 158 45" fill="none" xmlns="http://www.w3.org/2000/svg">
<g filter="url(#filter0_d_340_114)">
<g opacity="0.9">
<path d="M95.2566 18.9525C95.68 18.9525 96.0038 19.351 96.203 20.1231L98.6936 18.1804C97.9714 17.1593 96.7759 16.6611 95.0822 16.6611C93.6875 16.6611 92.6414 17.0347 91.9441 17.8068C91.2467 18.5789 90.898 19.5253 90.898 20.6461V21.6424H89.4535V24.133H90.898V29.961H90.3252H88.8806H87.5357V16.9351H82.405V19.4257H84.0986V22.8628C83.2767 21.8914 82.2307 21.3933 80.9854 21.3933C79.6653 21.3933 78.5695 21.9412 77.6728 23.0122C76.7762 24.1081 76.303 25.4281 76.303 26.9972C76.303 28.5414 76.7513 29.8614 77.623 30.9573C78.4947 32.0531 79.6155 32.6011 80.9605 32.6011C82.0812 32.6011 83.1273 32.1278 84.0737 31.1565V32.4516H88.8557H90.3003H96.0038V29.961H94.3101V24.133H96.0038V21.6424H94.3101V20.4469C94.36 19.4506 94.6588 18.9525 95.2566 18.9525ZM83.5009 29.1889C83.0526 29.6372 82.5544 29.8614 81.9816 29.8614C81.2842 29.8614 80.7612 29.5874 80.3876 29.0395C80.014 28.4915 79.8397 27.7942 79.8397 26.9972C79.8397 26.1504 80.014 25.453 80.3876 24.93C80.7612 24.4069 81.2842 24.133 81.9567 24.133C82.5295 24.133 83.0277 24.3571 83.476 24.7805C83.9243 25.2288 84.1484 25.9511 84.1484 26.9972C84.1484 28.0183 83.9243 28.7406 83.5009 29.1889Z" fill="#3F596B"/>
<path d="M108.532 24.6309C108.183 23.7093 107.56 22.9373 106.664 22.2897C105.767 21.667 104.696 21.3433 103.451 21.3433C101.757 21.3433 100.337 21.8912 99.2416 23.012C98.1457 24.1328 97.5978 25.5275 97.5978 27.1713C97.5978 28.8151 98.1208 30.1351 99.1918 31.1314C100.263 32.1276 101.757 32.6257 103.65 32.6257C106.041 32.6257 107.784 31.754 108.905 29.9857L106.24 29.1389C105.393 29.9857 104.571 30.4091 103.75 30.4091C103.127 30.4091 102.504 30.2098 101.956 29.7864C101.384 29.363 101.085 28.6906 101.035 27.6943H109.08C109.055 26.5985 108.88 25.5524 108.532 24.6309ZM101.06 25.8264C101.259 24.3818 102.006 23.6595 103.276 23.6595C103.949 23.6595 104.497 23.8588 104.87 24.3071C105.269 24.7305 105.493 25.2535 105.568 25.8513L101.06 25.8264Z" fill="#3F596B"/>
<path d="M143.973 30.434C143.35 30.434 142.728 30.2348 142.18 29.8114C141.607 29.388 141.308 28.7155 141.258 27.7192H149.303C149.303 26.5736 149.129 25.5275 148.78 24.606C148.431 23.6844 147.809 22.9124 146.912 22.2648C146.015 21.6421 144.944 21.3184 143.699 21.3184C142.005 21.3184 140.586 21.8663 139.49 22.9871C138.394 24.1079 137.846 25.5026 137.846 27.1464C137.846 28.7902 138.369 30.1102 139.44 31.1065C140.511 32.1027 142.005 32.6008 143.898 32.6008C146.289 32.6008 148.033 31.7291 149.153 29.9608L146.489 29.114C145.617 30.0106 144.795 30.434 143.973 30.434ZM143.5 23.6595C144.172 23.6595 144.72 23.8588 145.094 24.3071C145.492 24.7305 145.716 25.2535 145.791 25.8513H141.283C141.507 24.3818 142.23 23.6595 143.5 23.6595Z" fill="#3F596B"/>
<path d="M122.155 25.6271C122.155 22.8376 121.059 21.4678 118.893 21.4678C117.822 21.4678 116.776 21.8663 115.729 22.6384V21.6421H110.624V24.1327H112.267V29.9608H110.624V32.4514H117.373V29.9608H115.705V25.0792C116.377 24.6059 117.025 24.3818 117.672 24.3818C118.046 24.3818 118.295 24.4814 118.469 24.7056C118.619 24.9297 118.718 25.3282 118.718 25.9011V32.4265H123.799V29.9359H122.18L122.155 25.6271Z" fill="#3F596B"/>
<path d="M132.516 29.4876C132.018 29.8113 131.495 29.9608 130.947 29.9608C130.25 29.9608 129.677 29.7117 129.204 29.2385C128.73 28.7404 128.481 27.9932 128.481 26.972C128.481 26.1252 128.706 25.4528 129.154 24.9546C129.602 24.4565 130.2 24.2074 130.972 24.2074C132.167 24.2074 133.039 24.8052 133.587 26.0256H136.053V21.6421H133.712V22.5387C132.691 21.8414 131.62 21.4678 130.449 21.4678C129.004 21.4678 127.709 21.9659 126.613 22.9621C125.518 23.9584 124.97 25.3033 124.97 27.0218C124.97 28.7404 125.542 30.1102 126.638 31.1314C127.759 32.1525 129.253 32.6755 131.146 32.6755C133.637 32.6755 135.38 31.5797 136.402 29.4128L133.712 28.2422C133.413 28.7653 133.014 29.1638 132.516 29.4876Z" fill="#3F596B"/>
<path d="M54.4354 16.9102H48.2089V19.5253H49.778L47.3372 26.9971L44.7967 19.5253H46.2164V16.9102H40.6374V19.5253H42.0571L39.691 26.9971L37.1754 19.5253H38.7694V16.9102H31.7708V19.5253H33.4146L37.8479 32.5263H40.8117L43.128 25.453L45.5688 32.5263H48.4579L52.7418 19.5253H54.4354V16.9102Z" fill="#3F596B"/>
<path d="M72.318 22.3401C71.6206 22.9129 71.1972 23.6103 70.998 24.3824V21.6427H65.9669V24.1333H67.8349V29.9613H65.8424V32.452H73.4388V29.9613H71.2969V28.6413C71.2969 27.7447 71.4712 26.9726 71.8448 26.325C72.1935 25.6775 72.6418 25.2541 73.2146 25.0548C73.7626 24.8556 74.4848 24.756 75.3565 24.756V21.4933C75.1324 21.4933 74.9581 21.4933 74.8086 21.4933C73.8124 21.4683 73.0154 21.7423 72.318 22.3401Z" fill="#3F596B"/>
<path d="M62.7291 22.8874C61.6333 21.8663 60.2883 21.3682 58.6943 21.3682C57.1004 21.3682 55.7554 21.8663 54.6596 22.8874C53.5637 23.9086 53.0157 25.2784 53.0157 27.0219C53.0157 28.7902 53.5637 30.16 54.6596 31.1563C55.7554 32.1774 57.1004 32.6756 58.6943 32.6756C60.3132 32.6756 61.6582 32.1774 62.7541 31.1563C63.8499 30.1351 64.373 28.7653 64.373 27.0219C64.348 25.2535 63.8001 23.8837 62.7291 22.8874ZM60.2136 29.2634C59.8151 29.7615 59.2921 30.0106 58.6694 30.0106C57.9472 30.0106 57.4241 29.7366 57.0754 29.1887C56.7268 28.6408 56.5524 27.9434 56.5524 27.0966C56.5524 25.0543 57.2498 24.0331 58.6943 24.0331C59.3668 24.0331 59.8898 24.2822 60.2634 24.8052C60.6619 25.3282 60.8363 26.0505 60.8363 26.972C60.8114 27.9932 60.6121 28.7653 60.2136 29.2634Z" fill="#3F596B"/>
</g>
<g opacity="0.9">
<path d="M149.851 23.5106V21.543H149.228V21.1445H150.922V21.543H150.299V23.5106H149.851Z" fill="#3F596B"/>
<path d="M151.271 23.5106V21.1445H151.918L152.267 22.2902C152.292 22.3898 152.317 22.4895 152.341 22.5891C152.366 22.6887 152.391 22.7883 152.391 22.8631C152.416 22.7634 152.441 22.6887 152.466 22.5891C152.491 22.4895 152.516 22.3898 152.566 22.2902L152.914 21.1445H153.537V23.5106H153.163V21.5181C153.138 21.6177 153.114 21.6925 153.089 21.7672C153.064 21.8419 153.039 21.9415 153.014 22.0162L152.591 23.4857H152.267L151.843 22.0162C151.794 21.8668 151.769 21.7423 151.744 21.6676C151.719 21.5928 151.719 21.543 151.694 21.4683V23.4608L151.271 23.5106Z" fill="#3F596B"/>
</g>
<path d="M12.6429 27.6197V32.9745H14.8097C15.258 30.8575 15.532 28.9646 15.7313 27.3208C15.0339 27.3457 13.9629 27.4204 12.6429 27.6197Z" fill="#008DC2"/>
<path d="M4.57331 30.0856C4.5484 29.986 4.52349 29.8864 4.52349 29.7867C4.89709 29.6124 5.27068 29.4381 5.61936 29.2886V28.2177C5.19596 28.392 4.77256 28.5912 4.34915 28.7905C4.32425 28.6411 4.29934 28.4667 4.27443 28.3173C4.72274 28.118 5.17105 27.9188 5.59446 27.7195V23.7096H5.22087L5.84352 22.2651L6.44127 23.7096H6.09258V27.5203C7.01411 27.1716 7.91073 26.8727 8.75754 26.6237V22.5391H8.38395L9.05641 20.8953L9.70397 22.5391H9.35529V26.4742C10.3017 26.2252 11.1485 26.0508 11.9206 25.9263V21.2439H11.3976L12.2693 19.4009L13.1161 21.2439H12.618V25.8018C14.0376 25.6025 15.1833 25.5278 15.9056 25.5278C16.1547 22.5142 16.055 20.5964 16.0301 20.0983C15.8807 19.9239 15.7811 19.6998 15.7811 19.4756C15.7811 19.4258 15.7811 19.3511 15.7811 19.3511H15.3079L16.7026 15.9389V15.9638V13.0249V13C16.7026 13 11.1236 16.3374 4.87218 16.5367C4.87218 16.5367 2.68044 24.7059 5.24577 32.9996H5.59446V29.6124C5.27068 29.7369 4.92199 29.9113 4.57331 30.0856Z" fill="#008DC2"/>
<path d="M9.38017 28.2931V32.9754H11.9455V27.7202C11.1485 27.8697 10.3017 28.0689 9.38017 28.2931Z" fill="#008DC2"/>
<path d="M6.14241 29.3883V32.9748H8.78246V28.4668C7.93565 28.7159 7.03903 29.0147 6.14241 29.3883Z" fill="#008DC2"/>
<path d="M11.9455 26.3989C11.1485 26.5235 10.3017 26.7227 9.38017 26.9469V27.9929C10.3017 27.7439 11.1734 27.5695 11.9455 27.445V26.3989Z" fill="#008DC2"/>
<path d="M15.9056 25.9761C15.1833 26.001 14.0625 26.0508 12.6678 26.275V27.321C13.9878 27.1218 15.0837 27.0719 15.806 27.047C15.8309 26.6734 15.8558 26.3248 15.9056 25.9761Z" fill="#008DC2"/>
<path d="M8.78245 27.0972C7.93564 27.3462 7.03902 27.6451 6.11749 27.9938V29.0398C7.03902 28.6663 7.93564 28.3674 8.78245 28.1183V27.0972Z" fill="#008DC2"/>
<path d="M27.4122 28.0182C26.5156 27.6446 25.619 27.3706 24.7473 27.1216V28.1676C25.5941 28.4167 26.4907 28.7156 27.4122 29.0892V28.0182Z" fill="#008DC2"/>
<path d="M17.7486 27.3208C17.9479 28.9646 18.2468 30.8575 18.6702 32.9745H20.8619V27.6197C19.5668 27.4204 18.4958 27.3457 17.7486 27.3208Z" fill="#008DC2"/>
<path d="M24.1496 26.9469C23.2529 26.7227 22.3812 26.5235 21.5842 26.3989V27.4201C22.3314 27.5446 23.2031 27.7189 24.1496 27.9929V26.9469Z" fill="#008DC2"/>
<path d="M27.9103 32.9995H28.2092C28.5081 32.0282 28.7571 31.0569 28.9315 30.0855C28.5828 29.9112 28.259 29.7617 27.9103 29.6123V32.9995V32.9995Z" fill="#008DC2"/>
<path d="M21.5842 27.7451V33.0003H24.1496V28.318C23.228 28.0689 22.3812 27.8696 21.5842 27.7451Z" fill="#008DC2"/>
<path d="M24.7473 28.4668V32.9748H27.4122V29.3883C26.4907 29.0396 25.5941 28.7159 24.7473 28.4668Z" fill="#008DC2"/>
<path d="M18.1721 19.3511H17.6989C17.6989 19.3511 17.6989 19.4258 17.6989 19.4756C17.6989 19.7247 17.5992 19.9239 17.4747 20.0983C17.4498 20.5715 17.3502 22.4892 17.5992 25.5527C18.3215 25.5776 19.4672 25.6274 20.9118 25.8267V21.2439H20.3887L21.2355 19.4009L22.1073 21.2439H21.6091V25.9263C22.3563 26.0508 23.228 26.2252 24.1745 26.4742V22.564H23.8009L24.4484 20.9202L25.1209 22.564H24.7722V26.6486C25.619 26.8976 26.5156 27.1716 27.4372 27.5452V23.7346H27.0885L27.6862 22.29L28.3089 23.7346H27.9602V27.7195C28.3836 27.8939 28.8319 28.0931 29.2553 28.2924C30.0523 21.8666 28.6327 16.5118 28.6327 16.5118C22.6054 16.3125 17.2506 13.2491 16.8271 13V15.9389L18.1721 19.3511Z" fill="#008DC2"/>
<path d="M20.8868 26.275C19.4921 26.0757 18.3464 26.001 17.6241 25.9761C17.649 26.3248 17.6988 26.6485 17.7238 27.0221C18.446 27.047 19.5419 27.1218 20.8868 27.2961V26.275Z" fill="#008DC2"/>
<path d="M27.9104 29.2887C28.2591 29.4382 28.6327 29.6125 28.9813 29.7869C29.0312 29.4631 29.081 29.1144 29.1308 28.7906C28.7074 28.5914 28.3089 28.417 27.8855 28.2178V29.2887H27.9104Z" fill="#008DC2"/>
</g>
<defs>
<filter id="filter0_d_340_114" x="-3" y="0" width="163" height="53" filterUnits="userSpaceOnUse" color-interpolation-filters="sRGB">
<feFlood flood-opacity="0" result="BackgroundImageFix"/>
<feColorMatrix in="SourceAlpha" type="matrix" values="0 0 0 0 0 0 0 0 0 0 0 0 0 0 0 0 0 0 127 0" result="hardAlpha"/>
<feOffset dy="4"/>
<feGaussianBlur stdDeviation="2"/>
<feComposite in2="hardAlpha" operator="out"/>
<feColorMatrix type="matrix" values="0 0 0 0 0 0 0 0 0 0 0 0 0 0 0 0 0 0 0.25 0"/>
<feBlend mode="normal" in2="BackgroundImageFix" result="effect1_dropShadow_340_114"/>
<feBlend mode="normal" in="SourceGraphic" in2="effect1_dropShadow_340_114" result="shape"/>
</filter>
</defs>
</svg>
