<svg width="85" height="70" viewBox="0 0 85 70" fill="none" xmlns="http://www.w3.org/2000/svg">
<g clip-path="url(#clip0_563_465)">
<path d="M21.3926 69.7923C27.7088 69.7923 32.8292 69.1045 32.8292 68.256C32.8292 67.4075 27.7088 66.7197 21.3926 66.7197C15.0764 66.7197 9.95605 67.4075 9.95605 68.256C9.95605 69.1045 15.0764 69.7923 21.3926 69.7923Z" fill="#E6E7E8"/>
<path d="M71.0616 69.7923C77.3778 69.7923 82.4981 69.1045 82.4981 68.256C82.4981 67.4075 77.3778 66.7197 71.0616 66.7197C64.7453 66.7197 59.625 67.4075 59.625 68.256C59.625 69.1045 64.7453 69.7923 71.0616 69.7923Z" fill="#E6E7E8"/>
<path d="M20.7471 63.0548C20.7471 63.0548 22.7352 69.1376 23.0874 69.0223C23.4395 68.907 30.5164 64.8092 30.2827 64.1081C30.049 63.4069 25.1347 64.8684 25.1347 64.8684L24.0285 61.5933" fill="white"/>
<path d="M23.0934 69.178C23.0609 69.1786 23.0288 69.1711 22.9999 69.1562C22.5605 68.9349 21.1863 64.8496 20.616 63.1045C20.6092 63.0848 20.6064 63.0641 20.6078 63.0433C20.6091 63.0226 20.6146 63.0023 20.6239 62.9838C20.6332 62.9652 20.6461 62.9486 20.6619 62.9351C20.6776 62.9216 20.6959 62.9114 20.7157 62.905C20.7554 62.8932 20.7981 62.8974 20.8348 62.9166C20.8714 62.9358 20.8992 62.9685 20.9121 63.0079C21.7597 65.6006 22.7974 68.4582 23.1152 68.8477C24.0781 68.4363 30.1049 64.753 30.1454 64.1422C30.0613 63.8929 27.9236 64.2045 25.1938 65.0178C25.1549 65.0281 25.1136 65.0236 25.0779 65.0052C25.0422 64.9868 25.0147 64.9557 25.0005 64.9181L23.8912 61.643C23.8781 61.6037 23.8809 61.5609 23.899 61.5236C23.917 61.4864 23.9489 61.4577 23.9878 61.4435C24.0275 61.4315 24.0703 61.4351 24.1074 61.4536C24.1445 61.4722 24.1731 61.5043 24.1872 61.5432L25.2498 64.6595C29.6842 63.3538 30.3605 63.79 30.4446 64.0362C30.5069 64.2201 30.6347 64.6003 27.0167 66.8938C25.2343 68.0188 23.3676 69.0752 23.1682 69.1468C23.1457 69.1623 23.1202 69.1729 23.0934 69.178Z" fill="#231F20"/>
<path d="M12.3238 52.8774C12.3238 52.8774 8.22909 52.9366 8.11379 53.2857C7.99849 53.6347 6.76758 60.1414 7.88007 59.6054C8.99256 59.0694 10.8031 55.3922 10.8031 55.3922L12.8505 55.0806L12.3238 52.8774Z" fill="white"/>
<path d="M7.75872 59.7888C7.67385 59.7885 7.59196 59.7575 7.52812 59.7015C6.76464 59.0222 7.8896 53.4691 7.96439 53.2354C8.00178 53.1232 8.11708 52.7804 12.3271 52.7212C12.3621 52.7227 12.3957 52.7348 12.4236 52.756C12.4514 52.7771 12.4721 52.8063 12.4829 52.8396L13.0096 55.0366C13.0183 55.0784 13.0105 55.1219 12.9877 55.1581C12.976 55.1764 12.9605 55.192 12.9422 55.2038C12.9239 55.2156 12.9033 55.2234 12.8818 55.2266L10.9123 55.5383C10.6443 56.0774 9.02391 59.2435 7.95193 59.7514C7.89108 59.778 7.82509 59.7908 7.75872 59.7888ZM8.2542 53.36C8.08904 53.9303 7.20403 58.9973 7.73691 59.4678C7.73691 59.4678 7.75872 59.4896 7.81169 59.4678C8.68424 59.0565 10.1644 56.3516 10.663 55.3295C10.6735 55.3068 10.6896 55.2871 10.7097 55.2724C10.7299 55.2577 10.7535 55.2484 10.7783 55.2453L12.6481 54.9337L12.19 53.0266C10.4262 53.064 8.51596 53.1917 8.2542 53.36Z" fill="#231F20"/>
<path d="M35.624 4.95594L37.3753 3.95252C37.3753 3.95252 37.8677 2.37571 38.3632 1.99553C38.8587 1.61535 39.5411 2.13264 39.5411 2.13264C39.5411 2.13264 41.3517 0.621269 41.7879 0.671129C42.2242 0.720989 41.6477 1.49381 41.2021 1.88334L40.2672 2.70291C40.2672 2.70291 41.0868 4.37321 40.6131 5.03073C40.1394 5.68826 36.3252 7.72004 36.3252 7.72004L35.624 4.95594Z" fill="white"/>
<path d="M36.3193 7.87284C36.2976 7.87579 36.2755 7.87579 36.2538 7.87284C36.2325 7.86247 36.2137 7.84764 36.1987 7.82936C36.1836 7.81108 36.1727 7.78977 36.1666 7.76689L35.4748 5.00591C35.4662 4.97344 35.4686 4.93904 35.4816 4.90806C35.4945 4.87708 35.5173 4.85123 35.5465 4.83452L37.2448 3.86537C37.3507 3.55375 37.787 2.2574 38.2576 1.88345C38.7281 1.5095 39.289 1.80554 39.5228 1.94889C40.0401 1.52197 41.3582 0.481148 41.7945 0.527891C41.8571 0.530889 41.9174 0.552718 41.9674 0.590524C42.0175 0.62833 42.055 0.680354 42.0749 0.739795C42.1934 1.11686 41.5358 1.80243 41.299 2.01433L40.4514 2.75599C40.6415 3.16734 41.1899 4.50108 40.7319 5.13679C40.2738 5.7725 36.7836 7.66094 36.3909 7.86972C36.3677 7.87682 36.343 7.87789 36.3193 7.87284ZM35.8051 5.03396L36.4283 7.48643C37.5845 6.86318 40.1335 5.4266 40.4794 4.93735C40.8253 4.44811 40.3361 3.21096 40.1211 2.75599C40.1062 2.72498 40.1019 2.68999 40.1086 2.65628C40.1154 2.62257 40.1328 2.59195 40.1585 2.56902L41.0933 1.75257C41.514 1.38174 41.8101 0.914304 41.7789 0.817701C41.539 0.795887 40.4794 1.5469 39.6349 2.25117C39.6074 2.2729 39.5734 2.28473 39.5383 2.28473C39.5033 2.28473 39.4692 2.2729 39.4417 2.25117C39.4417 2.25117 38.8403 1.80554 38.4539 2.11093C38.0675 2.41632 37.6592 3.56933 37.519 3.98067C37.5063 4.01817 37.481 4.0501 37.4473 4.07104L35.8051 5.03396Z" fill="#231F20"/>
<path d="M14.4121 15.2209C15.7832 15.9875 35.5588 4.44189 35.5588 4.44189L38.5037 7.48957L18.4819 21.9925L14.4121 15.2209Z" fill="#68E1FD"/>
<path d="M21.0749 15.0273C21.0749 15.0273 9.31109 15.0273 6.27901 17.4424C4.03221 19.2311 3.6084 31.7023 3.6084 31.7023L26.0702 29.951C26.0702 29.951 27.3603 16.8036 21.0749 15.0273Z" fill="#68E1FD"/>
<path d="M22.782 22.3101C22.744 22.3101 22.7075 22.295 22.6807 22.2681C22.6538 22.2412 22.6387 22.2048 22.6387 22.1668V16.0496C22.6387 16.0116 22.6538 15.9751 22.6807 15.9482C22.7075 15.9214 22.744 15.9062 22.782 15.9062C22.82 15.9062 22.8565 15.9214 22.8834 15.9482C22.9103 15.9751 22.9254 16.0116 22.9254 16.0496V22.1668C22.9254 22.2048 22.9103 22.2412 22.8834 22.2681C22.8565 22.295 22.82 22.3101 22.782 22.3101Z" fill="#231F20"/>
<path d="M48.251 47.9848C48.0578 47.8321 41.0837 47.1185 40.6505 47.2525C40.2174 47.3865 38.4691 53.1515 38.5034 53.6439C38.5595 54.6286 42.4112 50.6835 42.4112 50.6835L48.251 51.8552" fill="white"/>
<path d="M38.6284 53.9523C38.5976 53.9588 38.5657 53.9588 38.5349 53.9523C38.4779 53.9307 38.4291 53.8917 38.3955 53.8408C38.3619 53.7898 38.3453 53.7296 38.3479 53.6687C38.3261 53.301 40.0026 47.3085 40.6072 47.1246C41.0622 46.9844 48.0861 47.6731 48.3479 47.885C48.38 47.9107 48.4006 47.9481 48.4053 47.9889C48.41 48.0298 48.3983 48.0708 48.3728 48.1031C48.3494 48.1329 48.3159 48.1532 48.2786 48.1601C48.2413 48.167 48.2028 48.16 48.1703 48.1405C47.681 47.9567 41.0902 47.321 40.6913 47.4238C40.3174 47.7105 38.6222 53.1732 38.6533 53.6562C38.9649 53.7528 40.7911 52.1324 42.2931 50.5961C42.3112 50.5771 42.3339 50.5631 42.359 50.5555C42.3841 50.5479 42.4108 50.5468 42.4364 50.5525L48.2731 51.7148C48.3138 51.7231 48.3496 51.747 48.3729 51.7814C48.3962 51.8157 48.4051 51.8578 48.3978 51.8987C48.3937 51.9187 48.3857 51.9378 48.3742 51.9548C48.3628 51.9717 48.3481 51.9863 48.331 51.9975C48.3139 52.0088 48.2948 52.0166 48.2747 52.0205C48.2546 52.0244 48.234 52.0243 48.2139 52.0202L42.4582 50.8735C41.4797 51.8551 39.342 53.9523 38.6284 53.9523Z" fill="#231F20"/>
<path d="M74.0879 61.8646C74.0879 62.0671 75.9857 68.1562 76.5404 68.2528C77.095 68.3494 84.9105 65.8845 84.2655 65.4482C83.6204 65.0119 80.0835 65.3329 80.0835 65.3329L78.1982 60.269" fill="white"/>
<path d="M76.5435 68.4084H76.5124C75.7769 68.2775 73.9353 61.9359 73.9321 61.8643C73.9288 61.8229 73.9421 61.782 73.969 61.7504C73.9958 61.7189 74.0342 61.6993 74.0755 61.696C74.1168 61.6927 74.1577 61.7059 74.1893 61.7328C74.2209 61.7597 74.2405 61.798 74.2438 61.8393C74.331 62.3909 76.1135 67.8505 76.584 68.0936C76.7928 68.1217 78.4289 67.6823 80.4513 67.0123C82.6326 66.2862 83.8324 65.7658 84.1035 65.5321C83.5208 65.2859 81.4298 65.3638 80.0991 65.4822C80.0653 65.4856 80.0314 65.4777 80.0026 65.4596C79.9738 65.4416 79.9518 65.4144 79.9402 65.3825L78.0705 60.3249C78.0605 60.3053 78.0548 60.2839 78.0536 60.262C78.0525 60.2401 78.056 60.2182 78.0639 60.1977C78.0718 60.1773 78.084 60.1587 78.0996 60.1433C78.1151 60.1278 78.1338 60.1159 78.1543 60.1081C78.1749 60.1004 78.1968 60.0971 78.2187 60.0984C78.2406 60.0998 78.262 60.1057 78.2814 60.1159C78.3009 60.126 78.3179 60.1402 78.3315 60.1574C78.3451 60.1746 78.3549 60.1945 78.3603 60.2158L80.202 65.1612C80.8969 65.1052 83.7451 64.8964 84.3684 65.3139C84.414 65.3418 84.4479 65.3853 84.464 65.4363C84.48 65.4872 84.477 65.5423 84.4556 65.5913C84.1347 66.361 77.2073 68.4084 76.5435 68.4084Z" fill="#231F20"/>
<path d="M65.864 32.7557C65.864 32.7557 62.7852 55.8501 59.6316 55.1458C56.478 54.4416 43.8604 51.7585 43.8604 51.7585L45.0009 46.7725C45.0009 46.7725 53.9787 47.7261 55.1754 47.8133C56.372 47.9006 55.5306 31.7056 55.5306 31.7056L65.864 32.7557Z" fill="#231F20"/>
<path d="M59.7689 55.3171C59.7092 55.317 59.6497 55.3108 59.5913 55.2984C56.475 54.6066 43.9478 51.936 43.8231 51.9111C43.7823 51.9019 43.7466 51.8774 43.7234 51.8425C43.7009 51.8074 43.6931 51.7649 43.7016 51.7241L44.8422 46.7381C44.8515 46.7014 44.8735 46.6691 44.9043 46.6469C44.935 46.6247 44.9726 46.6139 45.0104 46.6166C45.1008 46.6166 54.0007 47.5733 55.1818 47.6574C55.805 47.3458 55.7645 39.309 55.3719 31.7117C55.37 31.6897 55.3733 31.6675 55.3814 31.647C55.3895 31.6264 55.4022 31.6081 55.4186 31.5932C55.4349 31.5773 55.4546 31.5651 55.4761 31.5576C55.4976 31.55 55.5206 31.5473 55.5433 31.5496L65.8798 32.6029C65.9011 32.6046 65.9218 32.6107 65.9406 32.6209C65.9594 32.6311 65.9759 32.6452 65.9889 32.6621C66.0016 32.6783 66.0108 32.6968 66.0162 32.7166C66.0216 32.7364 66.0229 32.7571 66.02 32.7774C65.911 33.6063 63.284 53.0641 60.3298 55.127C60.1666 55.2461 59.9709 55.3124 59.7689 55.3171ZM44.0413 51.6399C45.4966 51.9516 56.7274 54.3417 59.6598 54.9961C59.7463 55.0106 59.8348 55.0068 59.9196 54.9848C60.0045 54.9627 60.0837 54.9231 60.1522 54.8684C62.8571 52.9768 65.428 34.7967 65.6897 32.8927L55.6897 31.8768C55.8019 34.0862 56.4034 46.8877 55.3999 47.8693C55.3688 47.9021 55.331 47.9277 55.289 47.9443C55.2471 47.961 55.202 47.9684 55.1569 47.9659C54.0537 47.8849 46.2538 47.0591 45.1164 46.9376L44.0413 51.6399Z" fill="#231F20"/>
<path d="M63.0596 34.5664L73.8916 65.2083L79.9807 61.9424L70.6476 32.7559L63.0596 34.5664Z" fill="#231F20"/>
<path d="M73.8888 65.364C73.8703 65.3676 73.8512 65.3676 73.8327 65.364C73.8112 65.3563 73.7917 65.3439 73.7755 65.3277C73.7594 65.3116 73.747 65.292 73.7392 65.2706L62.9103 34.6287C62.9018 34.6085 62.8975 34.5867 62.8975 34.5648C62.8975 34.5429 62.9018 34.5211 62.9103 34.5009C62.9334 34.4628 62.9702 34.4349 63.0131 34.423L70.598 32.6125C70.6364 32.6029 70.6771 32.6085 70.7114 32.6283C70.7457 32.6481 70.771 32.6804 70.7819 32.7184L80.1306 61.905C80.1414 61.9396 80.1399 61.9769 80.1263 62.0104C80.1126 62.044 80.0877 62.0717 80.0558 62.0889L73.9636 65.3547C73.9399 65.3644 73.9141 65.3677 73.8888 65.364ZM63.2624 34.6785L73.9729 64.987L79.7909 61.8708L70.542 32.9397L63.2624 34.6785Z" fill="#231F20"/>
<path d="M71.9622 20.562L75.7546 19.3155C75.5801 19.06 73.6667 13.1828 71.3919 12.0641C69.4069 10.749 65.7391 10.9983 61.5882 11.2881C60.2566 11.3537 58.9433 11.6271 57.6961 12.0984C53.0217 13.9681 52.3486 20.1226 52.3486 20.1226L56.6646 21.6278C56.6646 21.6278 55.9666 30.0011 55.309 34.3794C55.309 34.3794 60.5692 36.3738 72.3268 34.4261C72.3299 34.4043 71.984 21.7992 71.9622 20.562Z" fill="#68E1FD"/>
<path d="M67.0354 13.6533L62.8254 23.2606L61.7939 13.993L67.0354 13.6533Z" fill="#231F20"/>
<path d="M62.8253 23.4167H62.8035C62.7696 23.4114 62.7384 23.3951 62.7148 23.3703C62.6911 23.3455 62.6763 23.3136 62.6726 23.2795L61.6411 14.0088C61.6379 13.9674 61.6502 13.9264 61.6754 13.8935C61.6888 13.8772 61.7054 13.8639 61.7242 13.8542C61.7429 13.8446 61.7634 13.8389 61.7845 13.8374L67.0322 13.4977C67.0587 13.4966 67.085 13.502 67.1089 13.5134C67.1328 13.5248 67.1535 13.5419 67.1693 13.5631C67.1849 13.5851 67.1945 13.6107 67.1972 13.6374C67.1999 13.6642 67.1957 13.6912 67.1849 13.7158L62.9811 23.3232C62.9678 23.3528 62.9457 23.3777 62.9179 23.3944C62.89 23.4111 62.8577 23.4189 62.8253 23.4167ZM61.9683 14.149L62.9032 22.6812L66.7922 13.8374L61.9683 14.149Z" fill="#231F20"/>
<path d="M69.236 1.56533C68.7137 0.971646 68.0292 0.543772 67.2667 0.33446C66.5042 0.125148 65.6971 0.14355 64.9449 0.387398C63.6112 0.817438 62.3959 1.56222 61.059 1.98914C59.7221 2.41606 58.1453 2.47216 57.0391 1.61208C57.0459 1.93353 57.1214 2.2498 57.2604 2.53971C57.3995 2.82961 57.5989 3.08645 57.8453 3.29301C58.0917 3.49957 58.3794 3.65108 58.6891 3.73739C58.9988 3.82369 59.3234 3.8428 59.6411 3.79344C59.5913 4.10506 59.1675 4.1518 58.8652 4.08636C58.5629 4.02092 58.1765 3.94613 57.9895 4.19543C57.9403 4.27844 57.911 4.37175 57.904 4.468C57.8969 4.56426 57.9123 4.66084 57.949 4.75012C58.1765 5.50113 58.8621 5.99661 59.5071 6.45158C60.442 7.09664 61.3769 7.23064 62.3304 7.67626C63.3401 8.15304 64.0942 8.81368 65.2534 8.97572C66.3078 9.11764 67.3767 8.85487 68.245 8.24029C68.7904 7.85388 69.8997 7.32724 69.6816 6.49832C69.5757 6.10568 70.2675 5.35778 70.3048 4.78128C70.359 4.20044 70.292 3.61468 70.108 3.0611C69.924 2.50752 69.6271 1.99817 69.236 1.56533Z" fill="white"/>
<path d="M65.7859 9.16279C65.5961 9.16337 65.4065 9.14983 65.2187 9.12228C64.4726 8.98405 63.7617 8.69798 63.1278 8.2809C62.8504 8.11886 62.5606 7.96928 62.249 7.80724C61.906 7.65095 61.5544 7.51465 61.1957 7.39901C60.5622 7.20899 59.9588 6.92989 59.4039 6.57009C58.684 6.0715 58.0202 5.56043 57.7865 4.78761C57.7419 4.67482 57.7246 4.55307 57.736 4.43231C57.7473 4.31154 57.7871 4.19517 57.852 4.09269C57.9418 3.99082 58.058 3.91569 58.1877 3.87555C58.3175 3.83542 58.4558 3.83184 58.5874 3.86521C58.2799 3.7641 57.9943 3.60547 57.746 3.39777C57.4756 3.18143 57.2575 2.9068 57.108 2.59438C56.9585 2.28196 56.8816 1.93981 56.8828 1.59348C56.883 1.56473 56.8913 1.5366 56.9067 1.51235C56.9221 1.48809 56.9441 1.46868 56.9701 1.45636C56.9963 1.44455 57.0252 1.44004 57.0537 1.44334C57.0822 1.44663 57.1093 1.45759 57.1321 1.47506C58.4441 2.49407 60.2826 2.06091 61.0118 1.82719C61.672 1.61161 62.3183 1.3556 62.947 1.0606C63.5803 0.753204 64.2318 0.48471 64.8978 0.256614C65.6779 0.00264754 66.5154 -0.0173023 67.3067 0.199227C68.0981 0.415755 68.8087 0.859285 69.3509 1.47506C69.7556 1.92245 70.0632 2.44894 70.2542 3.02125C70.4451 3.59357 70.5153 4.19926 70.4602 4.80008C70.3993 5.13256 70.2744 5.45006 70.0925 5.73494C69.9461 6.00294 69.7809 6.30833 69.8214 6.45479C70.0333 7.25878 69.2169 7.78542 68.6217 8.16872C68.5157 8.23727 68.4129 8.30272 68.3256 8.36504C67.5805 8.88443 66.6941 9.16286 65.7859 9.16279ZM58.4067 4.17683C58.3527 4.17074 58.2981 4.17744 58.2472 4.19639C58.1963 4.21534 58.1506 4.246 58.1137 4.2859C58.0821 4.35053 58.0643 4.4211 58.0616 4.49303C58.0589 4.56496 58.0714 4.63666 58.0982 4.70347C58.3007 5.37969 58.9208 5.85336 59.594 6.32079C60.1255 6.6647 60.7038 6.93023 61.311 7.1092C61.6795 7.23168 62.0415 7.37314 62.3954 7.53301C62.7071 7.68259 63.0187 7.84463 63.296 8.01602C63.8951 8.41383 64.568 8.68724 65.2748 8.82001C66.2893 8.95219 67.3165 8.69984 68.1542 8.11263C68.2446 8.04718 68.3506 7.97863 68.4659 7.90695C69.0112 7.55482 69.6874 7.11855 69.5316 6.53581C69.463 6.26782 69.6313 5.95308 69.8432 5.60095C69.9939 5.34297 70.0974 5.06014 70.1486 4.7658C70.1992 4.20893 70.1339 3.64762 69.9569 3.11721C69.7799 2.5868 69.4951 2.09877 69.1203 1.68385C68.6179 1.11327 67.9596 0.702141 67.2265 0.501138C66.4934 0.300136 65.7174 0.318044 64.9944 0.552656C64.3397 0.776364 63.6996 1.04072 63.0779 1.34418C62.4377 1.65235 61.7801 1.92288 61.1084 2.1544C59.6064 2.6343 58.2072 2.55016 57.2131 1.93626C57.2978 2.42689 57.5581 2.86994 57.9455 3.18275C58.1696 3.38109 58.4358 3.52616 58.7239 3.6071C59.0121 3.68805 59.3149 3.70278 59.6095 3.65019C59.634 3.64551 59.6592 3.64674 59.683 3.65379C59.7069 3.66084 59.7287 3.67349 59.7466 3.6907C59.7659 3.70734 59.7804 3.72882 59.7886 3.75292C59.7968 3.77701 59.7985 3.80287 59.7934 3.82781C59.7827 3.89122 59.7589 3.9517 59.7235 4.00537C59.6881 4.05903 59.6418 4.1047 59.5877 4.13944C59.3575 4.26866 59.0863 4.30436 58.8305 4.23915C58.6915 4.205 58.5496 4.18413 58.4067 4.17683Z" fill="#231F20"/>
<path d="M62.5515 11.0327L61.7974 13.9931C61.7974 13.9931 62.6356 15.9251 64.6363 15.5512C66.6369 15.1772 67.0358 13.6815 67.0389 13.6815L67.3754 10.4936L67.5842 8.53345C67.6367 8.33212 67.6608 8.12444 67.6559 7.91644C67.5312 7.47081 66.9734 7.22775 66.8114 6.76655C66.4873 5.84272 66.5308 4.82964 66.9329 3.93701C66.0978 4.61012 65.138 5.29569 64.066 5.22401C64.2823 4.99722 64.4774 4.75105 64.6487 4.48858L62.5515 5.23648C62.2792 5.32616 61.9998 5.39287 61.7164 5.43592C61.4047 5.49513 61.5263 5.2988 61.2894 5.67898C60.7036 6.61385 60.6226 8.22806 60.741 9.30316C60.9093 10.8301 62.5515 11.0327 62.5515 11.0327Z" fill="white"/>
<path d="M64.1225 15.7445C62.4116 15.7445 61.6606 14.0711 61.6544 14.0555C61.642 14.0224 61.642 13.9858 61.6544 13.9527L62.368 11.1481C61.9224 11.039 60.7413 10.6277 60.5949 9.27833C60.4734 8.18454 60.5544 6.55163 61.1683 5.55444L61.1839 5.52639C61.3303 5.29268 61.3771 5.21477 61.5516 5.24282C61.5997 5.25445 61.6499 5.25445 61.698 5.24282C61.973 5.20093 62.244 5.1363 62.5083 5.04961L64.6055 4.2986C64.6364 4.28798 64.67 4.28738 64.7013 4.29689C64.7326 4.3064 64.7601 4.32553 64.78 4.35158C64.7983 4.37814 64.8082 4.40966 64.8082 4.44195C64.8082 4.47423 64.7983 4.50576 64.78 4.53232C64.6676 4.70299 64.5458 4.86736 64.4154 5.02468C65.3066 4.94366 66.1231 4.34534 66.8273 3.77819C66.8548 3.75645 66.8889 3.74463 66.9239 3.74463C66.959 3.74463 66.993 3.75645 67.0205 3.77819C67.0491 3.79885 67.0695 3.82893 67.078 3.86315C67.0866 3.89736 67.0828 3.93349 67.0673 3.96516C66.6827 4.82285 66.6414 5.79533 66.952 6.68252C67.0411 6.88654 67.1753 7.06768 67.3446 7.21227C67.5507 7.38516 67.7085 7.60847 67.8027 7.86045C67.8262 8.02722 67.8146 8.19706 67.7684 8.35905C67.7684 8.42137 67.7466 8.47746 67.7404 8.52109L67.1951 13.6691C67.1951 13.6691 66.79 15.2802 64.6709 15.6915C64.4902 15.7268 64.3066 15.7446 64.1225 15.7445ZM61.9598 13.9776C62.1031 14.2674 62.8947 15.7165 64.6055 15.3861C66.4908 15.0215 66.8834 13.6286 66.8865 13.613L67.4288 8.48993C67.4288 8.43695 67.4475 8.37151 67.4599 8.29984C67.4925 8.18437 67.5061 8.06441 67.5004 7.94459C67.419 7.7448 67.2882 7.56896 67.1203 7.43352C66.9211 7.26288 66.7625 7.04997 66.656 6.81028C66.3838 6.02837 66.361 5.1813 66.5905 4.38585C65.8488 4.94366 64.9981 5.43291 64.0508 5.37058C64.0212 5.36877 63.9927 5.35838 63.9689 5.34067C63.9451 5.32296 63.927 5.2987 63.9168 5.27086C63.906 5.24317 63.9032 5.21302 63.9087 5.18383C63.9143 5.15463 63.9278 5.12757 63.9479 5.1057C64.0446 5.00598 64.138 4.90315 64.2253 4.79408L62.6017 5.3737C62.3299 5.4658 62.0504 5.53359 61.7666 5.57625C61.6861 5.58902 61.604 5.58902 61.5235 5.57625L61.4394 5.71025L61.4238 5.73518C60.8878 6.60773 60.7725 8.13468 60.894 9.26275C61.0467 10.6619 62.5082 10.8738 62.5706 10.8801C62.5925 10.8833 62.6136 10.891 62.6324 10.9028C62.6512 10.9146 62.6673 10.9302 62.6796 10.9486C62.6922 10.9666 62.7006 10.987 62.7044 11.0085C62.7081 11.0301 62.7072 11.0522 62.7015 11.0733L61.9598 13.9776Z" fill="#231F20"/>
<path d="M62.1523 12.5906C62.4896 12.6728 62.8419 12.6714 63.1786 12.5867C63.5152 12.502 63.8262 12.3365 64.0844 12.1044C64.9943 11.3036 64.9601 10.5962 64.9601 10.5962C64.2429 11.0454 63.3804 11.2016 62.5512 11.0325L62.1523 12.5906Z" fill="#231F20"/>
<path d="M62.6696 12.8121C62.4855 12.8148 62.302 12.7917 62.1243 12.7436C62.086 12.732 62.0536 12.7061 62.0339 12.6713C62.0142 12.6364 62.0086 12.5954 62.0183 12.5566L62.4141 10.9985C62.4192 10.9786 62.4281 10.9599 62.4405 10.9435C62.4528 10.9271 62.4682 10.9133 62.4859 10.9029C62.5035 10.8925 62.5231 10.8857 62.5434 10.8828C62.5637 10.8799 62.5843 10.8811 62.6042 10.8863C63.3918 11.0383 64.2077 10.8869 64.8884 10.4625C64.911 10.4467 64.9375 10.4374 64.965 10.4354C64.9925 10.4335 65.0201 10.4391 65.0447 10.4515C65.0693 10.464 65.0901 10.4829 65.1048 10.5062C65.1195 10.5295 65.1277 10.5564 65.1283 10.584C65.1283 10.6152 65.1564 11.3755 64.1935 12.2169C63.7764 12.5966 63.2336 12.8087 62.6696 12.8121ZM62.358 12.4787C62.6502 12.5242 62.9488 12.5042 63.2323 12.4202C63.5158 12.3361 63.7771 12.19 63.9971 11.9925C64.3514 11.7063 64.6181 11.3262 64.7669 10.8956C64.1254 11.2301 63.3927 11.3471 62.679 11.2291L62.358 12.4787Z" fill="#231F20"/>
<path d="M63.7918 6.37695C63.7918 6.37695 62.6326 7.83535 62.8569 8.12516C63.0813 8.41497 63.7918 8.29032 63.7918 8.29032" fill="white"/>
<path d="M63.4583 8.47387C63.3268 8.48648 63.194 8.47106 63.0689 8.42863C62.9437 8.38619 62.829 8.31771 62.7322 8.22768C62.4861 7.91606 63.1062 6.98119 63.6671 6.28627C63.6796 6.27002 63.6952 6.25645 63.713 6.24636C63.7309 6.23627 63.7505 6.22988 63.7709 6.22755C63.7912 6.22522 63.8119 6.22702 63.8315 6.23282C63.8511 6.23863 63.8694 6.24833 63.8852 6.26134C63.9173 6.28705 63.938 6.32441 63.9426 6.36527C63.9473 6.40614 63.9356 6.44719 63.9102 6.47948C63.3711 7.15882 62.9348 7.89113 62.9753 8.03759C63.0937 8.19029 63.5487 8.17159 63.745 8.13731C63.7858 8.13094 63.8275 8.14071 63.8613 8.16456C63.895 8.18841 63.9181 8.22447 63.9258 8.26508C63.9293 8.28535 63.9289 8.30612 63.9244 8.3262C63.9199 8.34628 63.9114 8.36527 63.8995 8.38208C63.8877 8.39888 63.8726 8.41317 63.8551 8.42411C63.8377 8.43505 63.8183 8.44243 63.798 8.44582C63.6855 8.46275 63.572 8.47212 63.4583 8.47387Z" fill="#231F20"/>
<path d="M65.0447 6.73068C65.1858 6.73009 65.2995 6.56777 65.2987 6.36813C65.2979 6.16849 65.1828 6.00713 65.0417 6.00772C64.9005 6.00831 64.7868 6.17063 64.7876 6.37027C64.7885 6.56991 64.9036 6.73127 65.0447 6.73068Z" fill="#231F20"/>
<path d="M62.8704 6.2611C62.9284 6.07007 62.866 5.88197 62.7309 5.84096C62.5959 5.79996 62.4394 5.92158 62.3814 6.11261C62.3234 6.30364 62.3858 6.49173 62.5209 6.53274C62.6559 6.57374 62.8124 6.45212 62.8704 6.2611Z" fill="#231F20"/>
<path d="M63.5709 9.63002C62.797 9.59591 62.0503 9.33471 61.4238 8.87901C61.4062 8.86707 61.3913 8.85166 61.3798 8.83371C61.3684 8.81577 61.3608 8.79568 61.3574 8.77468C61.3541 8.75367 61.355 8.7322 61.3603 8.71159C61.3655 8.69098 61.375 8.67166 61.388 8.65482C61.401 8.63799 61.4173 8.62399 61.4359 8.6137C61.4545 8.6034 61.475 8.59703 61.4962 8.59497C61.5174 8.59291 61.5387 8.59521 61.559 8.60172C61.5792 8.60823 61.5979 8.61882 61.6139 8.63283C61.6856 8.68892 63.3871 9.97904 64.8579 8.88836C64.874 8.87352 64.8931 8.86224 64.9138 8.85525C64.9346 8.84827 64.9566 8.84573 64.9783 8.84782C65.0001 8.8499 65.0213 8.85655 65.0403 8.86734C65.0594 8.87813 65.0759 8.89282 65.0889 8.91044C65.1019 8.92806 65.1111 8.94822 65.1157 8.96961C65.1204 8.991 65.1205 9.01314 65.1161 9.03458C65.1116 9.05602 65.1027 9.07628 65.0899 9.09404C65.0771 9.1118 65.0607 9.12666 65.0418 9.13766C64.6187 9.45863 64.1019 9.63163 63.5709 9.63002Z" fill="#231F20"/>
<path d="M66.7955 7.64848C66.914 7.53258 67.0544 7.44146 67.2085 7.38046C67.3626 7.31947 67.5273 7.28981 67.693 7.29323C67.8593 7.30075 68.0199 7.35584 68.1558 7.45196C68.2917 7.54808 68.3971 7.68118 68.4596 7.83546C68.5033 8.01759 68.4999 8.20784 68.4498 8.3883C68.3996 8.56876 68.3043 8.73348 68.1729 8.86693C67.9851 9.08164 67.7545 9.25466 67.4958 9.37488C67.2371 9.4951 66.9561 9.55985 66.6709 9.56497" fill="white"/>
<path d="M66.6715 9.72702C66.6301 9.72702 66.5905 9.7106 66.5613 9.68138C66.5321 9.65216 66.5157 9.61253 66.5157 9.57121C66.5152 9.55089 66.5189 9.5307 66.5264 9.51182C66.5339 9.49293 66.545 9.47573 66.5593 9.46121C66.5735 9.4467 66.5905 9.43518 66.6092 9.42731C66.6279 9.41944 66.648 9.41539 66.6683 9.4154C66.9319 9.41169 67.1917 9.35231 67.4307 9.24114C67.6697 9.12997 67.8825 8.96953 68.0551 8.77034C68.1682 8.6572 68.2509 8.51735 68.2956 8.36373C68.3402 8.21011 68.3454 8.04771 68.3106 7.89156C68.2591 7.76702 68.173 7.6598 68.0626 7.58251C67.9522 7.50522 67.822 7.46108 67.6874 7.45529C67.5427 7.45175 67.3988 7.47754 67.2644 7.53109C67.13 7.58465 67.0078 7.66487 66.9052 7.76691C66.8755 7.79566 66.8359 7.81174 66.7946 7.81174C66.7533 7.81174 66.7136 7.79566 66.6839 7.76691C66.6693 7.75243 66.6577 7.73519 66.6498 7.71621C66.6419 7.69722 66.6378 7.67685 66.6378 7.65629C66.6378 7.63572 66.6419 7.61535 66.6498 7.59636C66.6577 7.57738 66.6693 7.56014 66.6839 7.54566C66.8185 7.41589 66.9777 7.31453 67.1523 7.24761C67.3268 7.18069 67.513 7.14958 67.6998 7.15613C67.8959 7.16648 68.0848 7.23273 68.2444 7.34703C68.404 7.46134 68.5275 7.61893 68.6004 7.80119C68.6553 8.00916 68.6555 8.2278 68.6009 8.43585C68.5463 8.6439 68.4388 8.83428 68.2888 8.98847C68.0862 9.21999 67.8373 9.40645 67.5582 9.53581C67.2791 9.66517 66.9759 9.73455 66.6683 9.73948L66.6715 9.72702Z" fill="#231F20"/>
<path d="M25.6243 38.2311C25.6243 38.2311 29.1613 52.7527 26.8272 53.7624C24.4931 54.772 11.2118 56.7134 11.2118 56.7134L10.6104 52.5252C10.6104 52.5252 20.8285 50.2878 21.3863 49.7798C21.9441 49.2719 17.9584 36.9316 17.8649 36.8319C17.7714 36.7322 25.6243 38.2311 25.6243 38.2311Z" fill="#231F20"/>
<path d="M11.212 56.8693C11.1793 56.8685 11.1478 56.8576 11.1216 56.8382C11.1049 56.826 11.0908 56.8107 11.0801 56.793C11.0694 56.7754 11.0623 56.7558 11.0593 56.7353L10.4547 52.5471C10.4491 52.5081 10.4585 52.4683 10.4811 52.4359C10.5036 52.4035 10.5376 52.3809 10.5762 52.3726C14.512 51.5125 20.8972 50.0136 21.2805 49.6646C21.5921 48.9884 18.077 37.6329 17.7342 36.913C17.7196 36.8891 17.7119 36.8616 17.7119 36.8336C17.7119 36.8055 17.7196 36.778 17.7342 36.7541C17.8059 36.617 17.8246 36.5796 25.6588 38.0785C25.6881 38.0838 25.7152 38.0975 25.7368 38.118C25.7584 38.1385 25.7735 38.1648 25.7803 38.1938C26.148 39.6927 29.283 52.8712 26.8959 53.9058C24.5681 54.9155 11.7853 56.7883 11.2431 56.8662L11.212 56.8693ZM10.785 52.6468L11.346 56.5297C12.8355 56.3084 24.6117 54.5477 26.765 53.6129C27.2699 53.3947 27.9617 52.0703 26.9489 45.6385C26.416 42.2698 25.6401 38.9635 25.4967 38.3589C22.8635 37.8572 19.0835 37.1498 18.1051 37.0034C18.7844 38.7734 21.6295 48.0442 21.5952 49.5618C21.601 49.6207 21.5946 49.6801 21.5764 49.7364C21.5581 49.7927 21.5285 49.8447 21.4893 49.889C20.9377 50.4001 12.3338 52.3072 10.785 52.6468Z" fill="#231F20"/>
<path d="M9.31055 37.7323L20.37 63.8556L25.1348 62.9363L17.8958 35.3608L9.31055 37.7323Z" fill="#231F20"/>
<path d="M20.3706 64.0086C20.3403 64.0083 20.3107 63.9994 20.2853 63.9828C20.2599 63.9662 20.2397 63.9427 20.2272 63.9151L9.16775 37.7887C9.15946 37.7681 9.15558 37.746 9.15634 37.7238C9.15711 37.7016 9.16251 37.6799 9.1722 37.6599C9.18188 37.6399 9.19564 37.6222 9.21259 37.6079C9.22953 37.5936 9.24929 37.583 9.27059 37.5767L17.8527 35.2084C17.8719 35.2001 17.8925 35.1958 17.9134 35.1958C17.9344 35.1958 17.955 35.2001 17.9742 35.2084C18.009 35.2295 18.0346 35.2629 18.0459 35.3019L25.2755 62.8992C25.2819 62.9196 25.2835 62.9411 25.2802 62.9621C25.277 62.9832 25.269 63.0032 25.2568 63.0208C25.2457 63.0393 25.2308 63.0553 25.2131 63.0676C25.1954 63.08 25.1752 63.0884 25.154 63.0924L20.4018 64.0086H20.3706ZM9.52612 37.8323L20.4641 63.6752L24.9421 62.812L17.7748 35.5512L9.52612 37.8323Z" fill="#231F20"/>
<path d="M13.2185 3.48192C12.4222 2.92084 11.4669 2.63014 10.493 2.65258C9.5192 2.67501 8.57827 3.00941 7.80869 3.60657C7.22385 4.06409 6.77976 4.67715 6.52733 5.37547C6.2749 6.07378 6.22434 6.8291 6.38146 7.55483C6.58177 8.26741 7.0021 8.89849 7.58244 9.35795C8.16278 9.81741 8.87345 10.0818 9.61299 10.1133C11.0433 10.1849 12.5485 8.96025 13.3088 7.83841C14.2281 6.48285 14.8451 4.60376 13.2185 3.48192Z" fill="white"/>
<path d="M9.73459 10.272H9.6037C8.8314 10.2412 8.0887 9.96651 7.48232 9.48723C6.87595 9.00795 6.4371 8.34879 6.22883 7.60446C6.06758 6.84918 6.12107 6.06383 6.38323 5.33738C6.64539 4.61093 7.10575 3.97241 7.71215 3.49416C8.50863 2.87155 9.48487 2.52277 10.4956 2.49975C11.5063 2.47673 12.4974 2.78069 13.3214 3.36639C15.3033 4.72195 14.0568 7.00615 13.4335 7.91608C12.6638 9.07221 11.1867 10.272 9.73459 10.272ZM10.5666 2.79301C9.59932 2.79461 8.66115 3.12418 7.90536 3.72787C7.34584 4.16861 6.92067 4.75697 6.67783 5.42656C6.435 6.09614 6.38418 6.82027 6.5311 7.51721C6.72082 8.19871 7.12218 8.80231 7.67725 9.24087C8.23232 9.67944 8.91238 9.93029 9.61929 9.95721C10.9281 10.0164 12.4052 8.8977 13.1811 7.75092C13.7514 6.90643 14.8888 4.81855 13.1313 3.61257C12.3778 3.09007 11.4835 2.80863 10.5666 2.80547V2.79301Z" fill="#231F20"/>
<path d="M10.342 5.85666C9.82622 6.30955 9.43513 6.88705 9.206 7.53405C8.97688 8.18105 8.91737 8.87597 9.03315 9.55251C9.07621 9.92758 9.25063 10.2753 9.52551 10.5341C10.0771 10.9829 10.9122 10.7211 11.5043 10.3284C12.4606 9.65867 13.2488 8.7766 13.8072 7.75133C14.2217 7.02836 14.848 5.39857 13.7262 4.99658C12.6043 4.59459 11.1646 5.14616 10.342 5.85666Z" fill="#231F20"/>
<path d="M10.2298 10.9234C9.93872 10.9307 9.65428 10.8359 9.42581 10.6554C9.11847 10.3746 8.92449 9.99112 8.88047 9.57719C8.75862 8.87399 8.81958 8.15127 9.05751 7.47841C9.29543 6.80556 9.70233 6.20517 10.2391 5.73488C11.0961 4.99633 12.6293 4.43541 13.7792 4.84675C13.9281 4.89477 14.0643 4.97574 14.1776 5.08364C14.2909 5.19155 14.3784 5.32361 14.4336 5.47C14.7452 6.35501 14.0285 7.67005 13.9412 7.81652C13.3729 8.86378 12.5684 9.76427 11.5916 10.4466C11.1918 10.7309 10.7196 10.8962 10.2298 10.9234ZM12.9284 5.02438C12.0148 5.05494 11.1375 5.38941 10.4355 5.97483C9.94181 6.41071 9.56805 6.96579 9.34984 7.58714C9.13164 8.20849 9.07625 8.87538 9.18897 9.52421C9.22437 9.86265 9.37901 10.1775 9.62524 10.4123C10.1145 10.8081 10.8717 10.5588 11.4233 10.1973C12.3601 9.5423 13.1315 8.67809 13.6763 7.67317C13.9537 7.18704 14.3681 6.20231 14.1438 5.59153C14.1062 5.48586 14.0443 5.39049 13.9631 5.31309C13.8819 5.23569 13.7837 5.17843 13.6763 5.14591C13.436 5.06208 13.1829 5.02095 12.9284 5.02438Z" fill="#231F20"/>
<path d="M16.1073 14.7003C15.8616 14.9383 15.6026 15.162 15.3313 15.3703C14.7941 15.6848 14.1859 15.8581 13.5636 15.8739C12.9413 15.8897 12.3251 15.7475 11.7726 15.4606C9.13937 14.1051 9.2017 11.0263 9.74704 8.52081C9.96829 7.5018 10.7131 5.37653 12.0873 6.43917C11.6853 6.12754 13.3338 5.09607 13.5862 4.99947C15.3376 4.28585 17.1979 5.31109 18.2232 6.73521C18.8296 7.54941 19.3438 8.42837 19.7564 9.35596C20.1615 10.3781 19.719 11.7804 19.1331 12.6498C18.6805 13.3235 18.0537 13.862 17.3195 14.2079C16.9798 14.3668 16.5435 14.4074 16.2288 14.6037L16.1073 14.7003Z" fill="white"/>
<path d="M13.4986 16.0187C12.8743 16.0194 12.2589 15.8709 11.7036 15.5856C9.52225 14.4637 8.81175 12.0736 9.59393 8.47745C9.69988 7.99132 10.1143 6.37711 11.0336 6.04056C11.1777 5.99063 11.3309 5.97257 11.4826 5.98764C11.6343 6.0027 11.781 6.05053 11.9124 6.12781C12.1648 5.59182 13.4362 4.88132 13.5266 4.84392C15.4182 4.07422 17.3533 5.23034 18.3505 6.63264C18.9687 7.45474 19.4914 8.34442 19.9086 9.28455C20.3356 10.3565 19.8837 11.818 19.2854 12.7124C18.8203 13.4103 18.1739 13.9683 17.4157 14.3266C17.2526 14.3981 17.0837 14.4554 16.9108 14.498C16.7135 14.5456 16.523 14.6178 16.3437 14.713C16.3032 14.7411 16.2627 14.7691 16.2253 14.8003C16.116 14.882 16.0119 14.9705 15.9136 15.0652C15.7646 15.2203 15.5996 15.3593 15.4213 15.4796C14.843 15.8346 14.1771 16.0213 13.4986 16.0187ZM11.3702 6.29297C11.2915 6.2925 11.2134 6.30623 11.1396 6.33348C10.5163 6.55785 10.0894 7.66411 9.89308 8.54289C9.14519 11.9707 9.7996 14.2612 11.8376 15.3082C12.3661 15.5831 12.9555 15.7199 13.551 15.7057C14.1466 15.6916 14.7288 15.5269 15.2436 15.2272C15.4026 15.1179 15.5508 14.9938 15.6862 14.8564C15.7849 14.7543 15.8889 14.6576 15.9978 14.5666C16.0446 14.5295 16.0935 14.4952 16.1442 14.4637C16.3465 14.3477 16.565 14.2626 16.7924 14.2113C16.9492 14.1721 17.1024 14.12 17.2505 14.0555C17.9599 13.7218 18.5652 13.2015 19.0018 12.5504C19.5565 11.7121 19.9803 10.369 19.597 9.39985C19.1981 8.48893 18.6985 7.62555 18.1075 6.82585C17.1726 5.52015 15.387 4.43882 13.6544 5.1462C13.3427 5.27085 12.1742 6.08107 12.1897 6.31478C12.2057 6.32706 12.2191 6.34236 12.2291 6.35981C12.2392 6.37726 12.2457 6.39652 12.2483 6.41649C12.2509 6.43645 12.2495 6.45674 12.2443 6.47618C12.2391 6.49562 12.2301 6.51385 12.2178 6.52981C12.2055 6.54577 12.1902 6.55915 12.1728 6.5692C12.1553 6.57924 12.1361 6.58576 12.1161 6.58836C12.0961 6.59096 12.0758 6.58961 12.0564 6.58438C12.037 6.57914 12.0187 6.57013 12.0028 6.55785C11.8259 6.40556 11.6033 6.31672 11.3702 6.30544V6.29297Z" fill="#231F20"/>
<path d="M18.0672 8.79493C18.0672 8.79493 19.0987 11.0417 18.8494 12.846C18.7919 13.3461 18.5902 13.8187 18.2686 14.2061C17.9471 14.5934 17.5198 14.8788 17.0389 15.0274L17.31 18.1436C17.31 18.1436 17.4658 19.7391 15.487 19.6643C14.9128 19.642 14.3538 19.4734 13.863 19.1746C13.3722 18.8757 12.9658 18.4565 12.6824 17.9566L11.9688 12.2415C11.9688 12.2415 14.0753 10.7737 13.7014 8.72949C13.7014 8.72949 16.4468 9.78589 18.0672 8.79493Z" fill="white"/>
<path d="M15.6144 19.8234H15.4742C14.8733 19.801 14.2882 19.6245 13.7752 19.3107C13.2622 18.9969 12.8385 18.5564 12.5449 18.0316C12.5436 18.015 12.5436 17.9983 12.5449 17.9817L11.8251 12.2603C11.8206 12.2322 11.8244 12.2033 11.836 12.1773C11.8476 12.1513 11.8666 12.1292 11.8905 12.1138C11.9092 12.1138 13.9067 10.6773 13.5577 8.75766C13.5536 8.73029 13.5562 8.70233 13.5655 8.67623C13.5747 8.65014 13.5902 8.62673 13.6107 8.60808C13.6325 8.59126 13.6582 8.58016 13.6854 8.5758C13.7126 8.57145 13.7405 8.57398 13.7665 8.58315C13.7946 8.58315 16.462 9.58969 17.9952 8.66106C18.0149 8.65266 18.0361 8.64833 18.0576 8.64833C18.079 8.64833 18.1002 8.65266 18.1199 8.66106C18.1411 8.66725 18.1608 8.67798 18.1774 8.69251C18.1941 8.70703 18.2074 8.72501 18.2165 8.7452C18.2601 8.83868 19.2667 11.0543 19.0142 12.8773C18.952 13.3854 18.7509 13.8664 18.4332 14.2677C18.1154 14.669 17.6933 14.975 17.2131 15.1522L17.4748 18.15C17.488 18.3633 17.459 18.5771 17.3895 18.7793C17.32 18.9814 17.2113 19.1678 17.0697 19.3279C16.8752 19.5076 16.6452 19.6445 16.3946 19.7299C16.1439 19.8152 15.8782 19.8471 15.6144 19.8234ZM12.8348 17.9131C13.105 18.3826 13.4901 18.7756 13.954 19.0553C14.4179 19.3349 14.9453 19.492 15.4867 19.5118C15.726 19.5437 15.9694 19.5235 16.2001 19.4525C16.4309 19.3815 16.6436 19.2614 16.8235 19.1004C17.0458 18.8416 17.1577 18.506 17.1352 18.1656L16.864 15.0493C16.8614 15.0123 16.8718 14.9755 16.8934 14.9453C16.915 14.9152 16.9465 14.8935 16.9825 14.8842C17.4351 14.745 17.8368 14.4758 18.1376 14.1101C18.4385 13.7445 18.6252 13.2984 18.6746 12.8275C18.8802 11.3597 18.1947 9.55542 17.9734 9.02254C16.5773 9.73927 14.5674 9.19393 13.8725 8.96956C14.0345 10.752 12.4889 12.039 12.1149 12.3226L12.8348 17.9131Z" fill="#231F20"/>
<path d="M13.0155 11.7432C13.0155 11.7432 11.8594 9.66161 10.8933 11.12C9.92732 12.5784 11.6412 13.9246 12.5948 13.7252" fill="white"/>
<path d="M12.383 13.9057C12.0604 13.8833 11.7473 13.7875 11.4675 13.6254C11.1877 13.4634 10.9487 13.2395 10.7688 12.9708C10.566 12.6877 10.457 12.3483 10.457 12.0001C10.457 11.6519 10.566 11.3125 10.7688 11.0294C10.8578 10.8567 10.9914 10.7109 11.1558 10.6073C11.3202 10.5038 11.5094 10.4461 11.7036 10.4404C12.492 10.4716 13.134 11.6121 13.162 11.662C13.1719 11.68 13.178 11.6998 13.1802 11.7202C13.1824 11.7405 13.1805 11.7612 13.1748 11.7809C13.169 11.8005 13.1594 11.8189 13.1465 11.8348C13.1336 11.8508 13.1177 11.8641 13.0997 11.8739C13.0817 11.8837 13.0619 11.8899 13.0415 11.8921C13.0211 11.8943 13.0005 11.8924 12.9808 11.8866C12.9612 11.8808 12.9428 11.8712 12.9269 11.8583C12.9109 11.8455 12.8976 11.8296 12.8878 11.8116C12.7289 11.5249 12.1991 10.7707 11.6912 10.7521C11.552 10.763 11.418 10.8102 11.3027 10.8889C11.1874 10.9677 11.0946 11.0752 11.0336 11.2008C10.8652 11.4321 10.7744 11.7109 10.7744 11.997C10.7744 12.2831 10.8652 12.5619 11.0336 12.7932C11.4045 13.3292 12.0901 13.6782 12.5699 13.5722C12.6113 13.5631 12.6545 13.5708 12.6902 13.5936C12.7258 13.6164 12.7509 13.6524 12.76 13.6938C12.7691 13.7351 12.7614 13.7783 12.7386 13.814C12.7158 13.8496 12.6798 13.8748 12.6385 13.8839C12.5545 13.9012 12.4687 13.9086 12.383 13.9057Z" fill="#231F20"/>
<path d="M17.0543 13.1174C16.9091 13.117 16.7642 13.1045 16.6211 13.08C16.6007 13.0766 16.5811 13.0691 16.5635 13.058C16.546 13.047 16.5307 13.0326 16.5187 13.0157C16.5067 12.9987 16.4982 12.9796 16.4935 12.9594C16.4889 12.9391 16.4883 12.9182 16.4918 12.8977C16.4953 12.8773 16.5028 12.8577 16.5138 12.8401C16.5249 12.8226 16.5393 12.8073 16.5562 12.7953C16.5731 12.7833 16.5922 12.7748 16.6125 12.7701C16.6327 12.7655 16.6536 12.7649 16.6741 12.7684C16.964 12.8261 17.2641 12.8057 17.5435 12.7092C17.5435 12.5285 17.0792 11.8585 16.5214 11.2383C16.5069 11.2241 16.4954 11.2072 16.4875 11.1884C16.4796 11.1697 16.4756 11.1496 16.4756 11.1293C16.4756 11.109 16.4796 11.0889 16.4875 11.0701C16.4954 11.0514 16.5069 11.0344 16.5214 11.0202C16.5359 11.0056 16.5531 10.994 16.5721 10.9861C16.5911 10.9782 16.6115 10.9741 16.632 10.9741C16.6526 10.9741 16.673 10.9782 16.692 10.9861C16.711 10.994 16.7282 11.0056 16.7427 11.0202C17.0138 11.3318 17.8957 12.3384 17.8365 12.7559C17.8326 12.7958 17.8196 12.8342 17.7985 12.8682C17.7774 12.9023 17.7489 12.931 17.7149 12.9523C17.5133 13.0649 17.2853 13.1219 17.0543 13.1174Z" fill="#231F20"/>
<path d="M16.3937 14.1486C16.2895 14.1493 16.1853 14.142 16.0821 14.1267C15.5223 14.0449 15.0127 13.7584 14.6518 13.3228C14.6316 13.2868 14.6265 13.2443 14.6376 13.2046C14.6487 13.1649 14.6751 13.1312 14.711 13.1109C14.7471 13.0915 14.7893 13.0868 14.8288 13.0979C14.8683 13.1089 14.902 13.1348 14.9229 13.1701C15.2478 13.5289 15.6895 13.7608 16.1694 13.8245C16.7926 13.8961 17.3785 13.6468 17.9487 13.0922C17.9628 13.076 17.9801 13.0628 17.9995 13.0536C18.0189 13.0444 18.04 13.0393 18.0614 13.0387C18.0829 13.038 18.1043 13.0417 18.1242 13.0497C18.1441 13.0577 18.1622 13.0697 18.1773 13.085C18.1924 13.1003 18.2041 13.1185 18.2118 13.1386C18.2195 13.1586 18.223 13.18 18.222 13.2015C18.221 13.2229 18.2156 13.2439 18.2061 13.2632C18.1966 13.2825 18.1833 13.2996 18.1669 13.3134C17.7091 13.8147 17.0718 14.1149 16.3937 14.1486Z" fill="#231F20"/>
<path d="M17.0391 15.0273C17.0391 15.0273 15.3906 15.3826 14.4121 15.2206C14.4121 15.2206 15.6586 17.5889 17.2541 17.4362L17.0391 15.0273Z" fill="#231F20"/>
<path d="M17.1077 17.5983C15.5185 17.5983 14.325 15.392 14.2751 15.2954C14.26 15.2706 14.252 15.242 14.252 15.2129C14.252 15.1837 14.26 15.1552 14.2751 15.1303C14.2926 15.1072 14.3161 15.0892 14.3429 15.0782C14.3698 15.0673 14.3991 15.0637 14.4278 15.068C15.3627 15.2207 16.98 14.8779 16.9956 14.8748C17.0176 14.8699 17.0405 14.8699 17.0625 14.8747C17.0846 14.8796 17.1053 14.8891 17.1233 14.9028C17.1409 14.9155 17.1555 14.9318 17.1662 14.9506C17.177 14.9694 17.1836 14.9903 17.1856 15.0119L17.4007 17.4207C17.4028 17.4412 17.4009 17.4619 17.395 17.4816C17.3891 17.5014 17.3793 17.5197 17.3663 17.5357C17.3533 17.5516 17.3372 17.5648 17.319 17.5745C17.3008 17.5842 17.2809 17.5902 17.2604 17.5921L17.1077 17.5983ZM14.7051 15.417C15.0635 15.9841 15.9953 17.2867 17.0859 17.2867L16.899 15.2144C16.1771 15.3603 15.4414 15.4261 14.7051 15.4107V15.417Z" fill="#231F20"/>
<path d="M15.5789 11.3319C15.7135 11.3127 15.7955 11.1065 15.762 10.8714C15.7285 10.6363 15.5922 10.4612 15.4576 10.4804C15.323 10.4996 15.241 10.7057 15.2745 10.9409C15.308 11.176 15.4443 11.3511 15.5789 11.3319Z" fill="#231F20"/>
<path d="M17.827 11.0086C17.9616 10.9895 18.0435 10.7833 18.01 10.5482C17.9765 10.313 17.8402 10.138 17.7056 10.1572C17.571 10.1763 17.4891 10.3825 17.5226 10.6176C17.5561 10.8528 17.6924 11.0278 17.827 11.0086Z" fill="#231F20"/>
<path d="M70.2768 20.4623L44.7736 7.11864C44.5309 6.99147 44.2574 6.93507 43.9842 6.95588C43.7111 6.97669 43.4492 7.07386 43.2286 7.23631C43.008 7.39876 42.8375 7.61995 42.7365 7.87464C42.6356 8.12933 42.6083 8.40727 42.6577 8.67675L43.6518 14.286L0.928271 21.8584C0.811137 21.8791 0.699236 21.9227 0.598986 21.9867C0.498736 22.0507 0.412109 22.1339 0.344074 22.2314C0.276038 22.329 0.227933 22.439 0.202515 22.5552C0.177098 22.6714 0.174868 22.7915 0.195956 22.9086L4.03827 44.557C4.08006 44.7929 4.21383 45.0026 4.41017 45.1399C4.60652 45.2773 4.84937 45.331 5.08532 45.2893L47.8119 37.7075L48.806 43.3167C48.8543 43.585 48.9767 43.8344 49.1593 44.0368C49.3419 44.2391 49.5775 44.3864 49.8394 44.4619C50.1013 44.5375 50.3791 44.5382 50.6415 44.4642C50.9038 44.3901 51.1402 44.2442 51.3239 44.0428L70.6819 22.7372C70.8309 22.5715 70.9402 22.3741 71.0014 22.1598C71.0626 21.9456 71.0741 21.7202 71.035 21.5008C70.996 21.2814 70.9074 21.0739 70.776 20.8939C70.6446 20.7139 70.4739 20.5663 70.2768 20.4623Z" fill="white"/>
<path d="M4.9262 45.4607C4.70971 45.4594 4.49878 45.392 4.32165 45.2675C4.20725 45.1884 4.10976 45.0873 4.03485 44.9702C3.95994 44.853 3.90913 44.7221 3.88538 44.5851L0.0337215 22.9335C0.00951106 22.7964 0.0125582 22.6559 0.0426871 22.52C0.0728159 22.384 0.129435 22.2554 0.209311 22.1414C0.289187 22.0273 0.390754 21.9302 0.508203 21.8554C0.625651 21.7807 0.756681 21.7298 0.893801 21.7057L43.4708 14.1489L42.5048 8.69234C42.4533 8.39531 42.4859 8.0898 42.5988 7.8103C42.7117 7.53079 42.9005 7.28841 43.1439 7.1105C43.3873 6.93259 43.6755 6.82624 43.9761 6.80346C44.2767 6.78067 44.5777 6.84235 44.8451 6.98153L70.3514 20.3283C70.5703 20.4427 70.7601 20.6058 70.9061 20.8051C71.052 21.0044 71.1503 21.2345 71.1934 21.4777C71.2364 21.7209 71.2231 21.9708 71.1544 22.2081C71.0857 22.4453 70.9634 22.6637 70.797 22.8462L51.4515 44.1519C51.2479 44.3746 50.986 44.5359 50.6956 44.6176C50.4051 44.6993 50.0975 44.6981 49.8077 44.6141C49.5179 44.5302 49.2573 44.3668 49.0555 44.1425C48.8536 43.9182 48.7186 43.6419 48.6656 43.3448L47.6964 37.8883L5.11317 45.442C5.05162 45.4544 4.98899 45.4607 4.9262 45.4607ZM44.091 7.10306C43.8149 7.10525 43.5465 7.19469 43.3244 7.35859C43.1256 7.50097 42.9716 7.69713 42.8805 7.92401C42.7895 8.1509 42.765 8.39908 42.8102 8.63936L43.8074 14.2486C43.8138 14.2894 43.804 14.3311 43.7801 14.3648C43.7563 14.3986 43.7202 14.4217 43.6796 14.4293L0.96859 22.0111C0.773137 22.0481 0.599835 22.1599 0.485574 22.3227C0.367969 22.4809 0.317574 22.6791 0.345344 22.8743L4.18765 44.5227C4.2226 44.7185 4.33376 44.8924 4.49674 45.0063C4.65973 45.1202 4.86124 45.1648 5.05708 45.1304L47.7806 37.5486C47.8209 37.5421 47.8623 37.5515 47.8959 37.5747C47.9296 37.5979 47.953 37.6332 47.9613 37.6733L48.9554 43.2825C48.9975 43.5229 49.1063 43.7466 49.2694 43.9282C49.4325 44.1098 49.6433 44.2419 49.8778 44.3094C50.1124 44.377 50.3612 44.3773 50.5959 44.3104C50.8306 44.2434 51.0417 44.1118 51.2053 43.9306L70.5633 22.625C70.6969 22.4773 70.7949 22.301 70.8499 22.1095C70.9048 21.9181 70.9152 21.7166 70.8804 21.5205C70.8455 21.3245 70.7662 21.139 70.6486 20.9782C70.531 20.8175 70.3782 20.6858 70.2018 20.5932L44.6986 7.25576C44.5116 7.15582 44.303 7.10338 44.091 7.10306Z" fill="#231F20"/>
<path d="M43.5738 12.4411C43.231 12.3258 42.882 12.2229 42.533 12.1294C42.3163 12.053 42.0815 12.0443 41.8598 12.1045C41.5482 12.226 41.3893 12.5969 41.2771 12.9241C41.112 13.4258 40.9406 13.9618 41.0839 14.4822C41.2927 15.2239 42.0842 15.6321 42.8259 15.8346C43.1891 15.9497 43.5731 15.9838 43.9508 15.9344C46.154 15.5355 45.0384 12.9334 43.5738 12.4411Z" fill="white"/>
<path d="M43.6422 16.1118C43.3519 16.1048 43.0638 16.0598 42.7852 15.9778C42.2025 15.822 41.1866 15.4231 40.9342 14.5194C40.7721 13.946 40.9716 13.357 41.1305 12.8803C41.252 12.5157 41.4172 12.1105 41.8036 11.9641C42.0551 11.8906 42.3233 11.8982 42.5702 11.9859C42.9254 12.0731 43.2807 12.1791 43.6235 12.2975C44.5926 12.6091 45.4091 13.8027 45.3374 14.7718C45.3094 15.1769 45.0912 15.8843 43.9787 16.0869C43.8674 16.1043 43.7549 16.1126 43.6422 16.1118ZM42.1028 12.2258C42.037 12.2248 41.9716 12.2353 41.9096 12.257C41.6478 12.3536 41.52 12.6808 41.4203 12.98C41.2396 13.5128 41.1087 13.9896 41.2271 14.4353C41.439 15.1894 42.3427 15.5384 42.86 15.6817C43.2009 15.7904 43.5612 15.8244 43.9164 15.7815C44.5989 15.6599 44.979 15.3016 45.0196 14.75C45.0819 13.9242 44.3496 12.8803 43.5175 12.5936C43.181 12.4814 42.8351 12.3817 42.4892 12.2819C42.3633 12.2469 42.2334 12.228 42.1028 12.2258Z" fill="#231F20"/>
<path d="M4.89194 23.8497C4.97481 23.8496 5.05667 23.8315 5.13189 23.7967C5.92653 23.4508 5.81434 21.983 5.8829 21.2663C5.92029 20.8643 5.91094 20.3782 5.57127 20.1694C4.80468 19.7051 3.73894 19.9076 3.04402 20.4187C2.3491 20.9298 2.1964 21.8958 2.27431 22.7247C2.30235 23.055 2.32728 23.7873 2.62644 23.993C3.02532 24.2735 3.49587 23.5006 3.48652 23.1579V23.4352C3.482 23.563 3.49993 23.6906 3.5395 23.8123C3.55897 23.8738 3.59333 23.9297 3.63954 23.9748C3.68574 24.0199 3.74236 24.0529 3.80437 24.0709C4.00381 24.1114 4.18456 23.9369 4.26558 23.7593C4.32293 23.5653 4.39161 23.3749 4.47125 23.189C4.41087 23.274 4.38471 23.3786 4.398 23.4819C4.41128 23.5853 4.46303 23.6799 4.54292 23.7468C4.64243 23.8233 4.76686 23.86 4.89194 23.8497Z" fill="white"/>
<path d="M3.86701 24.2331C3.83593 24.2361 3.80461 24.2361 3.77353 24.2331C3.68545 24.2105 3.60447 24.1661 3.53804 24.104C3.47161 24.0419 3.42185 23.9642 3.39335 23.8778C3.39335 23.8778 3.39335 23.856 3.39335 23.8435C3.31261 23.9682 3.20641 24.0744 3.08172 24.1552C2.99699 24.2073 2.89824 24.2319 2.79896 24.2258C2.69968 24.2197 2.60471 24.183 2.52704 24.1209C2.19983 23.8934 2.14997 23.267 2.11881 22.8526V22.7404C2.04714 21.9582 2.11881 20.8987 2.95396 20.2942C3.63018 19.7924 4.76449 19.4995 5.65261 20.0355C6.08577 20.2973 6.08265 20.8707 6.04526 21.282C6.04526 21.4129 6.02656 21.5656 6.01721 21.7307C5.98605 22.5285 5.93931 23.6192 5.20076 23.9433C5.1027 23.9869 4.99647 24.0092 4.88914 24.0087C4.72493 24.0152 4.56374 23.9633 4.43417 23.8622L4.39677 23.8093C4.35655 23.9221 4.28568 24.0216 4.19211 24.0964C4.09854 24.1713 3.98597 24.2186 3.86701 24.2331ZM3.63641 23.1549V23.4291C3.63279 23.5408 3.64753 23.6524 3.68004 23.7594C3.6907 23.7963 3.71017 23.83 3.73677 23.8577C3.76337 23.8854 3.79631 23.9062 3.83274 23.9183C3.93869 23.9401 4.06022 23.8186 4.11631 23.6877C4.14635 23.6147 4.17134 23.5398 4.1911 23.4634L4.23784 23.3075C4.25474 23.2238 4.29223 23.1457 4.34691 23.0801C4.37258 23.0526 4.40733 23.0353 4.44473 23.0315C4.48213 23.0276 4.51967 23.0374 4.55043 23.059C4.58118 23.0807 4.60307 23.1127 4.61206 23.1492C4.62104 23.1857 4.61652 23.2242 4.59933 23.2577C4.57691 23.2985 4.55813 23.3413 4.54324 23.3855C4.54013 23.4009 4.54013 23.4168 4.54324 23.4322C4.54882 23.5043 4.58236 23.5714 4.63672 23.6192C4.70596 23.6751 4.79424 23.7019 4.8829 23.694C4.94494 23.6927 5.00621 23.68 5.06364 23.6566C5.62457 23.4104 5.66508 22.4319 5.68689 21.7152C5.68689 21.5438 5.68689 21.3848 5.71182 21.2508C5.76168 20.7335 5.68377 20.4344 5.47187 20.316C4.73956 19.8735 3.73302 20.1009 3.116 20.5559C2.41485 21.0763 2.34318 22.0205 2.4055 22.7373V22.8526C2.43043 23.1424 2.47718 23.7469 2.68285 23.8903C2.71163 23.9104 2.7459 23.9212 2.78101 23.9212C2.81612 23.9212 2.85038 23.9104 2.87917 23.8903C2.99422 23.8077 3.09097 23.7022 3.16337 23.5805C3.23576 23.4588 3.28223 23.3234 3.29986 23.1829C3.29901 23.1421 3.3142 23.1026 3.34218 23.0729C3.37015 23.0432 3.40866 23.0256 3.44944 23.024C3.49084 23.0239 3.5307 23.0397 3.56084 23.0681C3.59097 23.0965 3.60909 23.1353 3.61148 23.1767L3.63641 23.1549Z" fill="#231F20"/>
<path d="M75.1345 19.4185C75.1345 19.4185 77.0478 28.6144 74.7823 29.2128C71.7066 30.0417 58.9301 26.9068 58.9301 26.9068C58.9301 26.9068 55.5957 27.7263 55.013 26.8475C54.4302 25.9688 55.013 24.741 55.3059 24.6662C55.5988 24.5914 58.1105 24.4169 58.1105 24.4169C58.1105 24.4169 56.0663 22.9117 56.7082 22.7964C57.3501 22.6811 59.6343 23.4384 59.6343 23.4384C59.6343 23.4384 72.1491 24.3733 72.0338 23.7251C71.9185 23.0769 71.3389 20.64 71.3389 20.64" fill="white"/>
<path d="M73.3582 29.5056C69.0422 29.5056 59.7372 27.2588 58.9425 27.0656C58.4502 27.184 55.5147 27.8478 54.8914 26.9347C54.7312 26.6619 54.6383 26.3547 54.6204 26.0388C54.6025 25.7229 54.6602 25.4072 54.7886 25.118C54.8385 24.9933 55.0286 24.582 55.2841 24.529C55.5396 24.476 56.97 24.367 57.6992 24.3078C57.0915 23.8372 56.3685 23.1953 56.4527 22.865C56.4669 22.8092 56.4984 22.7593 56.5426 22.7224C56.5867 22.6855 56.6414 22.6634 56.6989 22.6593C57.347 22.5409 59.3695 23.1984 59.6811 23.3012C64.0687 23.6129 71.1208 24.0117 71.8842 23.7001C71.7471 22.9771 71.2142 20.7148 71.208 20.6898C71.1985 20.6485 71.2058 20.6051 71.2283 20.5692C71.2508 20.5332 71.2867 20.5077 71.328 20.4982C71.3693 20.4887 71.4127 20.496 71.4487 20.5185C71.4846 20.541 71.5101 20.5768 71.5196 20.6182C71.5446 20.7179 72.0993 23.0737 72.2146 23.7126C72.2208 23.7443 72.2192 23.777 72.21 23.8079C72.2007 23.8388 72.1841 23.8671 72.1616 23.8902C71.6568 24.4542 62.4576 23.8185 59.6499 23.6097H59.6125C58.9893 23.4009 57.2878 22.8868 56.7768 22.9678C56.8547 23.1797 57.4935 23.7687 58.232 24.314C58.2576 24.3329 58.2769 24.359 58.2875 24.389C58.298 24.419 58.2994 24.4515 58.2913 24.4823C58.2815 24.5127 58.263 24.5396 58.2381 24.5596C58.2131 24.5795 58.1829 24.5917 58.151 24.5945C57.4561 24.6474 55.5957 24.797 55.362 24.8406C55.2078 24.9798 55.0992 25.1623 55.0504 25.3642C54.9641 25.5919 54.9299 25.8361 54.9504 26.0788C54.9709 26.3214 55.0455 26.5564 55.1688 26.7665C55.5521 27.3399 57.6618 27.0781 58.9083 26.7665C58.9328 26.7603 58.9585 26.7603 58.9831 26.7665C59.1108 26.7976 71.7378 29.8827 74.7574 29.0756C76.4994 28.6144 75.5209 21.9799 74.9974 19.462C74.9891 19.4207 74.9976 19.3778 75.021 19.3427C75.0443 19.3077 75.0807 19.2833 75.122 19.2751C75.1633 19.2668 75.2062 19.2753 75.2413 19.2987C75.2764 19.322 75.3007 19.3584 75.309 19.3997C75.5084 20.3564 77.1787 28.7484 74.8447 29.3716C74.3567 29.4781 73.8573 29.5231 73.3582 29.5056Z" fill="#231F20"/>
<path d="M71.3521 20.8112C71.3172 20.8107 71.2834 20.7984 71.2563 20.7763C71.2292 20.7543 71.2102 20.7238 71.2025 20.6897L69.7909 14.7159C69.7858 14.696 69.7848 14.6753 69.7879 14.6551C69.791 14.6348 69.7981 14.6154 69.8089 14.5979C69.8196 14.5805 69.8338 14.5654 69.8505 14.5535C69.8672 14.5416 69.8862 14.5333 69.9062 14.5289C69.9462 14.5204 69.988 14.5276 70.0228 14.549C70.0576 14.5705 70.0828 14.6046 70.0932 14.6442L71.5048 20.618C71.5142 20.6581 71.5073 20.7002 71.4857 20.7353C71.4641 20.7703 71.4295 20.7954 71.3895 20.805L71.3521 20.8112Z" fill="#231F20"/>
<path d="M38.834 4.84048C38.8107 4.84025 38.7878 4.83447 38.7672 4.82363C38.7466 4.8128 38.7289 4.79721 38.7155 4.77816C38.7049 4.76261 38.6974 4.74512 38.6935 4.72668C38.6896 4.70823 38.6894 4.68921 38.6929 4.67068C38.6964 4.65216 38.7034 4.6345 38.7138 4.61872C38.7241 4.60294 38.7374 4.58935 38.7529 4.57872C38.8642 4.50462 38.9523 4.40078 39.0074 4.27903C39.0625 4.15727 39.0823 4.02249 39.0646 3.89003C38.9686 3.69234 38.8995 3.48275 38.8589 3.26679C38.854 3.23444 38.8604 3.20139 38.8769 3.17315C38.8934 3.1449 38.919 3.12315 38.9496 3.1115C38.9802 3.09986 39.0138 3.09902 39.0449 3.10913C39.076 3.11923 39.1028 3.13968 39.1207 3.16707C39.2352 3.35799 39.3104 3.56989 39.3419 3.79031C39.3786 3.87032 39.4382 3.93759 39.5133 3.98352C39.5377 3.99455 39.5648 3.99836 39.5913 3.99449C39.6178 3.99063 39.6426 3.97925 39.6629 3.96171C39.9465 3.79343 39.6629 2.79312 39.3949 2.17299C39.3871 2.15604 39.3828 2.1377 39.3822 2.11907C39.3817 2.10043 39.3848 2.08186 39.3915 2.06445C39.3981 2.04704 39.4082 2.03114 39.4211 2.01767C39.434 2.0042 39.4495 1.99344 39.4666 1.98602C39.5014 1.97106 39.5406 1.97017 39.576 1.98354C39.6115 1.9969 39.6404 2.02348 39.6566 2.05769C39.7875 2.35373 40.4108 3.8464 39.8093 4.20477C39.7502 4.24672 39.6809 4.27227 39.6087 4.27884C39.5365 4.28541 39.4638 4.27275 39.398 4.24217C39.3724 4.23189 39.3483 4.21827 39.3263 4.20166C39.2702 4.44862 39.1205 4.6642 38.9088 4.80309C38.8877 4.82213 38.8618 4.83506 38.834 4.84048Z" fill="#231F20"/>
<path d="M22.7826 54.1209C22.7512 54.1211 22.7206 54.1108 22.6958 54.0916C22.6709 54.0724 22.6532 54.0454 22.6455 54.0149L19.8658 43.6285C19.8593 43.6089 19.857 43.588 19.8592 43.5674C19.8615 43.5468 19.8682 43.5269 19.8788 43.5092C19.8895 43.4914 19.9039 43.4761 19.921 43.4645C19.9381 43.4528 19.9576 43.445 19.978 43.4415C20.0148 43.4321 20.0538 43.4376 20.0866 43.4569C20.1193 43.4761 20.143 43.5076 20.1525 43.5444L22.9322 53.9308C22.9418 53.9671 22.9367 54.0058 22.9181 54.0384C22.8994 54.0711 22.8687 54.0951 22.8325 54.1053L22.7826 54.1209Z" fill="white"/>
</g>
<defs>
<clipPath id="clip0_563_465">
<rect width="84.7368" height="70" fill="white"/>
</clipPath>
</defs>
</svg>
