<svg width="155" height="45" viewBox="0 0 155 45" fill="none" xmlns="http://www.w3.org/2000/svg">
<path d="M77.8159 38C93.7305 38 106.632 31.2843 106.632 23C106.632 14.7158 93.7305 8 77.8159 8C61.9013 8 49 14.7158 49 23C49 31.2843 61.9013 38 77.8159 38Z" fill="#8993BE"/>
<path fill-rule="evenodd" clip-rule="evenodd" d="M57.092 31.8815L60.2501 15.8945H67.5524C70.7103 16.092 72.2892 17.6707 72.2892 20.4342C72.2892 25.171 68.5394 27.9342 65.1839 27.7367H61.6317L60.8421 31.8815H57.092ZM62.421 24.7764L63.4079 18.8551H65.9737C67.3552 18.8551 68.342 19.4472 68.342 20.6313C68.1447 23.9868 66.5657 24.5789 64.7895 24.7764H62.4212H62.421ZM71.5556 27.7367L74.7134 11.75H78.4636L77.674 15.8945H81.2265C84.3845 16.092 85.5687 17.6707 85.1741 19.6446L83.7925 27.7367H79.8451L81.2267 20.4342C81.4239 19.4472 81.4239 18.8551 80.0425 18.8551H77.082L75.3057 27.7367H71.5556ZM83.5396 31.8815L86.6975 15.8945H94C97.1581 16.092 98.7371 17.6707 98.7371 20.4342C98.7371 25.171 94.9869 27.9342 91.6317 27.7367H88.0791L87.2895 31.8815H83.5396ZM88.8683 24.7764L89.8553 18.8551H92.4213C93.8028 18.8551 94.7896 19.4472 94.7896 20.6313C94.5923 23.9868 93.0133 24.5789 91.2371 24.7764H88.8685H88.8683Z" fill="#232531"/>
</svg>
