<svg width="119" height="120" viewBox="0 0 119 120" fill="none" xmlns="http://www.w3.org/2000/svg">
<g clip-path="url(#clip0_1199_6)">
<path d="M72.5007 67.9042H83.7866C88.0377 67.9113 92.1748 69.2802 95.591 71.8104C99.0072 74.3405 101.523 77.8986 102.769 81.963L108.866 101.846C109.085 102.556 109.134 103.308 109.01 104.041C108.885 104.773 108.59 105.466 108.149 106.064C107.708 106.663 107.133 107.149 106.47 107.484C105.806 107.819 105.074 107.994 104.331 107.994H51.9178C51.1747 107.994 50.442 107.819 49.7788 107.484C49.1155 107.149 48.5402 106.663 48.0991 106.064C47.6579 105.466 47.3633 104.773 47.2389 104.041C47.1145 103.308 47.1638 102.556 47.3827 101.846L53.4792 81.963C54.7274 77.8923 57.249 74.3295 60.6731 71.7988C64.0971 69.2681 68.2429 67.9029 72.5007 67.9042Z" fill="#F3EFD2"/>
<path d="M104.348 108.642H51.935C51.0888 108.645 50.2539 108.449 49.4975 108.069C48.741 107.69 48.0842 107.139 47.5799 106.459C47.0756 105.78 46.738 104.991 46.5942 104.157C46.4504 103.323 46.5045 102.467 46.752 101.658L52.8809 81.7751C54.1543 77.5644 56.7525 73.8771 60.2892 71.2613C63.826 68.6455 68.1124 67.2409 72.5114 67.2563H83.7843C88.1833 67.2409 92.4698 68.6455 96.0065 71.2613C99.5433 73.8771 102.141 77.5644 103.415 81.7751L109.511 101.658C109.759 102.467 109.813 103.323 109.669 104.157C109.525 104.991 109.188 105.78 108.683 106.459C108.179 107.139 107.522 107.69 106.766 108.069C106.009 108.449 105.174 108.645 104.328 108.642H104.348ZM72.4984 68.552C68.3765 68.5375 64.36 69.8538 61.0461 72.305C57.7322 74.7563 55.298 78.2117 54.1054 82.1573L48.0089 102.04C47.8219 102.655 47.7812 103.304 47.89 103.937C47.9989 104.569 48.2543 105.168 48.6359 105.684C49.0175 106.2 49.5146 106.62 50.0874 106.91C50.6603 107.2 51.293 107.352 51.935 107.353H104.348C104.99 107.352 105.622 107.2 106.195 106.91C106.768 106.62 107.265 106.2 107.647 105.684C108.028 105.168 108.284 104.569 108.393 103.937C108.502 103.304 108.461 102.655 108.274 102.04L102.177 82.1573C100.985 78.2117 98.5505 74.7563 95.2367 72.305C91.9228 69.8538 87.9063 68.5375 83.7843 68.552H72.4984Z" fill="black"/>
<path d="M74.694 65.6625H81.5873V69.6275C81.5873 70.0121 81.5116 70.3929 81.3644 70.7481C81.2173 71.1034 81.0015 71.4263 80.7296 71.6982C80.4577 71.9701 80.1349 72.1858 79.7796 72.333C79.4243 72.4801 79.0435 72.5559 78.6589 72.5559H77.6159C76.8392 72.5559 76.0944 72.2474 75.5452 71.6982C74.996 71.149 74.6875 70.4042 74.6875 69.6275V65.6625H74.694Z" fill="#FFC9B0"/>
<path d="M78.6597 73.1972H77.6231C76.6758 73.1972 75.7671 72.8214 75.0966 72.1521C74.4261 71.4828 74.0486 70.5748 74.0469 69.6275V65.6625C74.0469 65.4907 74.1151 65.3259 74.2366 65.2044C74.3581 65.0829 74.5229 65.0146 74.6947 65.0146H81.5881C81.7599 65.0146 81.9247 65.0829 82.0462 65.2044C82.1677 65.3259 82.236 65.4907 82.236 65.6625V69.6275C82.2342 70.5748 81.8567 71.4828 81.1862 72.1521C80.5157 72.8214 79.6071 73.1972 78.6597 73.1972ZM75.3426 66.3104V69.6275C75.3443 70.2312 75.5854 70.8096 76.0128 71.2359C76.4403 71.6621 77.0194 71.9015 77.6231 71.9015H78.6597C79.2634 71.9015 79.8425 71.6621 80.27 71.2359C80.6975 70.8096 80.9385 70.2312 80.9402 69.6275V66.3104H75.3426Z" fill="black"/>
<path d="M54.3552 46.5439C51.1547 45.3323 51.3491 42.8834 50.8697 39.7477C50.3895 36.6408 50.0932 33.5083 49.9821 30.3665C49.859 26.7968 49.9821 23.1298 51.3426 19.8192C53.0854 15.5627 56.5256 12.8157 61.119 13.1915C60.9829 6.9201 64.7471 1.03743 71.4136 0.681099C82.097 0.110973 88.2583 11.5848 94.2252 10.7296C100.192 9.87438 101.792 7.21811 101.792 7.21811C102.795 9.13691 103.207 11.3096 102.976 13.4622C102.746 15.6148 101.883 17.651 100.497 19.3139C100.497 19.3139 105.207 17.9404 105.777 24.2053C106.347 30.4702 102.596 47.1205 102.596 47.1205L98.3391 46.3949C96.5445 46.0774 94.3029 46.518 92.5083 46.5763L79.1557 46.9909C72.4567 47.1788 61.6243 49.2908 54.3552 46.5439Z" fill="black"/>
<path d="M63.9826 48.5847C60.4711 48.5847 57.018 48.2413 54.122 47.1464C51.0187 45.9673 50.7336 43.7256 50.4032 41.1277C50.3514 40.6958 50.2931 40.2639 50.2283 39.8319C49.7454 36.6992 49.4469 33.5408 49.3342 30.373C49.2176 27.0235 49.2953 23.1104 50.7466 19.5665C52.593 15.0314 56.0397 12.4983 60.2703 12.4983H60.4711C60.6136 6.4666 64.313 0.396046 71.3813 0.0202813C77.5943 -0.303654 82.3951 3.31794 86.2304 6.22688C89.1977 8.475 91.7633 10.4121 94.128 10.0752C99.6673 9.28483 101.255 6.89419 101.255 6.86827C101.313 6.77397 101.396 6.69642 101.493 6.64309C101.591 6.58976 101.701 6.56244 101.812 6.56377C101.924 6.56379 102.035 6.59308 102.132 6.64874C102.23 6.7044 102.312 6.78452 102.369 6.88123C102.401 6.93954 105.647 12.6602 101.877 18.5429C102.681 18.5793 103.461 18.8347 104.131 19.2815C105.427 20.1885 106.237 21.8211 106.444 24.147C107.021 30.4443 103.412 46.5763 103.256 47.263C103.219 47.425 103.121 47.5664 102.982 47.6581C102.844 47.7497 102.675 47.7846 102.511 47.7554L98.2355 47.0427C96.9706 46.9023 95.6931 46.9197 94.4325 47.0946C93.7846 47.1594 93.1367 47.2177 92.4889 47.2371L79.1363 47.6517C77.4712 47.7036 75.5147 47.8785 73.448 48.0599C70.5261 48.2931 67.2284 48.5847 63.9826 48.5847ZM54.582 45.9349C59.8815 47.9433 67.3515 47.276 73.3702 46.7382C75.4564 46.5504 77.4324 46.3754 79.1363 46.3236L92.4889 45.909C93.0525 45.909 93.668 45.8312 94.3159 45.7729C95.6906 45.5824 97.0842 45.5693 98.4622 45.734C98.689 45.734 99.4276 45.896 102.123 46.3819C102.771 43.3499 105.647 29.6992 105.155 24.2701C104.98 22.3265 104.397 21.0307 103.412 20.3829C103.012 20.135 102.566 19.9695 102.101 19.896C101.636 19.8226 101.161 19.8427 100.704 19.9553C100.571 19.9933 100.43 19.988 100.301 19.9402C100.171 19.8925 100.061 19.8047 99.9847 19.6896C99.9092 19.5746 99.8722 19.4385 99.8792 19.301C99.8862 19.1636 99.9368 19.0319 100.024 18.9251C101.238 17.4914 102.032 15.7498 102.318 13.8929C102.603 12.036 102.37 10.1362 101.643 8.40373C100.652 9.33666 98.4946 10.7944 94.3288 11.3904C91.4264 11.7986 88.66 9.71243 85.4595 7.29587C81.5723 4.36102 77.1991 1.04392 71.4655 1.34842C64.9479 1.69179 61.6567 7.57446 61.7798 13.198C61.7813 13.289 61.7636 13.3793 61.7279 13.463C61.6922 13.5467 61.6392 13.622 61.5725 13.6839C61.5063 13.7465 61.4277 13.7944 61.3417 13.8245C61.2557 13.8547 61.1644 13.8664 61.0736 13.8588C57.0309 13.5219 53.7073 15.8024 51.9581 20.0848C50.604 23.4084 50.5328 27.1466 50.6623 30.3601C50.7717 33.4756 51.0637 36.5821 51.537 39.6635C51.6082 40.1235 51.6665 40.5576 51.7184 40.9592C52.0293 43.4082 52.2367 45.0279 54.6144 45.9284L54.582 45.9349Z" fill="black"/>
<path d="M58.4503 53.5279C62.1465 53.5279 65.1428 50.9464 65.1428 47.7619C65.1428 44.5774 62.1465 41.9958 58.4503 41.9958C54.7541 41.9958 51.7578 44.5774 51.7578 47.7619C51.7578 50.9464 54.7541 53.5279 58.4503 53.5279Z" fill="#FFC9B0"/>
<path d="M58.4498 54.1693C54.4006 54.1693 51.1094 51.2928 51.1094 47.7554C51.1094 44.218 54.4006 41.335 58.4498 41.335C62.4989 41.335 65.7966 44.218 65.7966 47.7554C65.7966 51.2928 62.4989 54.1693 58.4498 54.1693ZM58.4498 42.6308C55.1197 42.6308 52.4051 44.9307 52.4051 47.7554C52.4051 50.5801 55.1197 52.8736 58.4498 52.8736C61.7798 52.8736 64.5009 50.5801 64.5009 47.7554C64.5009 44.9307 61.7863 42.6372 58.4498 42.6372V42.6308Z" fill="black"/>
<path d="M97.4816 53.5279C101.178 53.5279 104.174 50.9464 104.174 47.7619C104.174 44.5774 101.178 41.9958 97.4816 41.9958C93.7854 41.9958 90.7891 44.5774 90.7891 47.7619C90.7891 50.9464 93.7854 53.5279 97.4816 53.5279Z" fill="#FFC9B0"/>
<path d="M97.4797 54.1693C93.4305 54.1693 90.1328 51.2928 90.1328 47.7554C90.1328 44.218 93.4305 41.335 97.4797 41.335C101.529 41.335 104.82 44.218 104.82 47.7554C104.82 51.2928 101.529 54.1693 97.4797 54.1693ZM97.4797 42.6308C94.1431 42.6308 91.4286 44.9307 91.4286 47.7554C91.4286 50.5801 94.1431 52.8736 97.4797 52.8736C100.816 52.8736 103.524 50.5801 103.524 47.7554C103.524 44.9307 100.823 42.6372 97.4797 42.6372V42.6308Z" fill="black"/>
<path d="M78.1459 66.5631C72.7935 66.5648 67.6593 64.4415 63.8715 60.6598C60.0837 56.8781 57.9522 51.7473 57.9453 46.3949V31.7141C59.1244 33.6577 63.044 32.8803 68.7907 23.0262C90.3 33.9234 98.3336 27.6779 98.3336 27.6779V46.3949C98.3267 51.7451 96.197 56.8739 92.412 60.6553C88.627 64.4366 83.4961 66.5614 78.1459 66.5631Z" fill="#FFC9B0"/>
<path d="M78.1532 67.211C72.6305 67.2076 67.3345 65.0144 63.4263 61.1123C59.5181 57.2102 57.3167 51.9176 57.3047 46.3949V31.7141C57.3033 31.5716 57.3489 31.4327 57.4345 31.3187C57.5201 31.2048 57.6409 31.1222 57.7781 31.0839C57.9154 31.0455 58.0614 31.0534 58.1937 31.1065C58.326 31.1595 58.437 31.2547 58.5097 31.3772C58.609 31.5499 58.7542 31.6915 58.9292 31.7865C59.1043 31.8814 59.3022 31.9259 59.501 31.915C60.2914 31.915 63.2586 31.2218 68.2278 22.6958C68.3077 22.5488 68.4413 22.4384 68.6007 22.3877C68.7601 22.337 68.9329 22.3499 69.083 22.4237C89.8667 32.9516 97.8614 27.1985 97.9392 27.1402C98.0354 27.0661 98.1505 27.0206 98.2713 27.0087C98.3922 26.9969 98.5139 27.0193 98.6227 27.0733C98.7314 27.1274 98.8228 27.2109 98.8864 27.3143C98.9499 27.4178 98.9832 27.537 98.9822 27.6585V46.3949C98.9702 51.9142 96.7715 57.2039 92.8675 61.1054C88.9635 65.007 83.6725 67.2024 78.1532 67.211ZM58.6069 33.0552V46.3949C58.6069 51.5789 60.6663 56.5505 64.3319 60.2162C67.9975 63.8818 72.9692 65.9412 78.1532 65.9412C83.3372 65.9412 88.3088 63.8818 91.9745 60.2162C95.6401 56.5505 97.6995 51.5789 97.6995 46.3949V28.7922C94.9007 30.088 86.3034 32.4721 69.0571 23.8749C65.4808 29.8807 62.1054 33.1913 59.5334 33.2107C59.2149 33.2262 58.8967 33.1732 58.6005 33.0552H58.6069Z" fill="black"/>
<path d="M91.1088 103.226C90.937 103.226 90.7722 103.158 90.6507 103.036C90.5292 102.915 90.4609 102.75 90.4609 102.578V78.8791C90.4609 78.7072 90.5292 78.5425 90.6507 78.421C90.7722 78.2995 90.937 78.2312 91.1088 78.2312C91.2806 78.2312 91.4454 78.2995 91.5669 78.421C91.6884 78.5425 91.7567 78.7072 91.7567 78.8791V102.578C91.7567 102.75 91.6884 102.915 91.5669 103.036C91.4454 103.158 91.2806 103.226 91.1088 103.226Z" fill="black"/>
<path d="M65.1947 103.226C65.0229 103.226 64.8581 103.158 64.7366 103.036C64.6151 102.915 64.5469 102.75 64.5469 102.578V78.8791C64.5469 78.7072 64.6151 78.5425 64.7366 78.421C64.8581 78.2995 65.0229 78.2312 65.1947 78.2312C65.3666 78.2312 65.5314 78.2995 65.6529 78.421C65.7744 78.5425 65.8426 78.7072 65.8426 78.8791V102.578C65.8426 102.75 65.7744 102.915 65.6529 103.036C65.5314 103.158 65.3666 103.226 65.1947 103.226Z" fill="black"/>
<path d="M78.0956 50.0813C77.4164 50.0764 76.7385 50.0201 76.0678 49.9128C75.896 49.8827 75.7431 49.7857 75.6429 49.6429C75.5426 49.5001 75.5032 49.3234 75.5333 49.1516C75.5634 48.9798 75.6605 48.8269 75.8032 48.7267C75.946 48.6264 76.1227 48.587 76.2945 48.6171C77.3141 48.7775 78.3524 48.7775 79.3719 48.6171C79.5015 48.021 78.7241 45.7988 77.6227 43.7062C77.5846 43.629 77.5623 43.5449 77.5571 43.459C77.552 43.3731 77.5639 43.2869 77.5924 43.2057C77.6209 43.1244 77.6653 43.0497 77.723 42.9858C77.7807 42.9218 77.8505 42.8701 77.9284 42.8335C78.0064 42.7969 78.0908 42.7762 78.1769 42.7726C78.2629 42.769 78.3488 42.7826 78.4295 42.8126C78.5102 42.8426 78.5841 42.8883 78.6469 42.9472C78.7097 43.0061 78.7602 43.0769 78.7953 43.1555C79.5209 44.5485 81.1471 47.9303 80.5511 49.2585C80.4843 49.4172 80.3818 49.5583 80.2514 49.6707C80.121 49.7831 79.9663 49.8637 79.7995 49.9063C79.2409 50.0346 78.6686 50.0934 78.0956 50.0813Z" fill="black"/>
<path d="M73.6171 34.5583H63.7176C63.374 34.5583 63.0444 34.4218 62.8014 34.1788C62.5584 33.9358 62.4219 33.6062 62.4219 33.2625C62.4219 32.9189 62.5584 32.5893 62.8014 32.3463C63.0444 32.1033 63.374 31.9668 63.7176 31.9668H73.6236C73.9672 31.9668 74.2968 32.1033 74.5398 32.3463C74.7828 32.5893 74.9193 32.9189 74.9193 33.2625C74.9193 33.6062 74.7828 33.9358 74.5398 34.1788C74.2968 34.4218 73.9672 34.5583 73.6236 34.5583H73.6171Z" fill="black"/>
<path d="M69.1924 42.3848C70.4032 42.3848 71.3848 41.4032 71.3848 40.1924C71.3848 38.9816 70.4032 38 69.1924 38C67.9816 38 67 38.9816 67 40.1924C67 41.4032 67.9816 42.3848 69.1924 42.3848Z" fill="black"/>
<path d="M87.1924 42.3848C88.4032 42.3848 89.3848 41.4032 89.3848 40.1924C89.3848 38.9816 88.4032 38 87.1924 38C85.9816 38 85 38.9816 85 40.1924C85 41.4032 85.9816 42.3848 87.1924 42.3848Z" fill="black"/>
<path d="M91.914 34.5583H82.0145C81.6708 34.5583 81.3413 34.4218 81.0983 34.1788C80.8553 33.9358 80.7188 33.6062 80.7188 33.2625C80.7188 32.9189 80.8553 32.5893 81.0983 32.3463C81.3413 32.1033 81.6708 31.9668 82.0145 31.9668H91.914C92.2576 31.9668 92.5872 32.1033 92.8302 32.3463C93.0732 32.5893 93.2097 32.9189 93.2097 33.2625C93.2097 33.6062 93.0732 33.9358 92.8302 34.1788C92.5872 34.4218 92.2576 34.5583 91.914 34.5583Z" fill="black"/>
<path d="M77.7187 56.3267C75.407 56.3358 73.1137 55.9162 70.9549 55.0893C70.7943 55.0274 70.6648 54.9043 70.5949 54.7469C70.525 54.5896 70.5206 54.411 70.5824 54.2503C70.6443 54.0896 70.7674 53.9601 70.9248 53.8903C71.0821 53.8204 71.2607 53.8159 71.4214 53.8778C75.5613 55.3655 80.0899 55.3655 84.2298 53.8778C84.3085 53.845 84.3929 53.8281 84.4781 53.8279C84.5634 53.8278 84.6478 53.8444 84.7266 53.8769C84.8054 53.9094 84.8771 53.9571 84.9375 54.0173C84.9978 54.0774 85.0458 54.1489 85.0785 54.2276C85.1113 54.3063 85.1282 54.3907 85.1284 54.4759C85.1285 54.5612 85.1119 54.6456 85.0794 54.7244C85.0469 54.8032 84.9992 54.8749 84.939 54.9353C84.8788 54.9956 84.8074 55.0436 84.7287 55.0763C82.4868 55.9133 80.1117 56.337 77.7187 56.3267Z" fill="black"/>
<path d="M95.911 97.784C95.7594 97.787 95.6116 97.7368 95.4932 97.6421C95.3748 97.5474 95.2934 97.4142 95.2631 97.2657C95.2461 97.1823 95.2456 97.0964 95.2618 97.0128C95.278 96.9293 95.3105 96.8497 95.3574 96.7787C95.4043 96.7078 95.4648 96.6467 95.5353 96.5991C95.6058 96.5515 95.6851 96.5182 95.7684 96.5012L102.934 95.037C103.106 95.0026 103.284 95.0379 103.43 95.1351C103.576 95.2323 103.677 95.3835 103.711 95.5553C103.746 95.7271 103.71 95.9056 103.613 96.0514C103.516 96.1972 103.365 96.2984 103.193 96.3327L96.0276 97.7905C95.9886 97.7938 95.9494 97.7916 95.911 97.784Z" fill="black"/>
<path d="M60.3808 97.784C60.3379 97.7908 60.2942 97.7908 60.2513 97.784L53.0858 96.2809C53.0007 96.2639 52.9198 96.2303 52.8477 96.182C52.7757 96.1337 52.7138 96.0717 52.6657 95.9995C52.6175 95.9274 52.5841 95.8464 52.5672 95.7613C52.5504 95.6762 52.5505 95.5886 52.5675 95.5035C52.5845 95.4184 52.6181 95.3375 52.6664 95.2654C52.7147 95.1933 52.7767 95.1314 52.8489 95.0833C52.9211 95.0352 53.0021 95.0018 53.0872 94.9849C53.1723 94.9681 53.2599 94.9682 53.345 94.9852L60.5104 96.4494C60.5938 96.4664 60.673 96.4996 60.7436 96.5473C60.8141 96.5949 60.8745 96.6559 60.9215 96.7269C60.9684 96.7979 61.0009 96.8775 61.0171 96.961C61.0332 97.0446 61.0328 97.1305 61.0158 97.2139C60.9969 97.3697 60.9222 97.5134 60.8054 97.6182C60.6886 97.7231 60.5378 97.782 60.3808 97.784Z" fill="black"/>
<path d="M59.8573 84.2046H96.3583C97.1797 84.2046 97.9674 84.5309 98.5481 85.1116C99.1289 85.6924 99.4552 86.4801 99.4552 87.3014V108.59H56.7734V87.3014C56.7734 86.4823 57.0979 85.6966 57.6759 85.1162C58.2539 84.5358 59.0382 84.208 59.8573 84.2046Z" fill="#F27475"/>
<path fill-rule="evenodd" clip-rule="evenodd" d="M73 101C73 101 73.0203 96.3144 73.0203 96H73.0149C73.0149 95.011 73.3078 94.0443 73.8565 93.222C74.4052 92.3997 75.1851 91.7589 76.0976 91.3805C77.01 91.0021 78.014 90.9031 78.9827 91.0962C79.9513 91.2892 80.841 91.7656 81.5392 92.4649C82.2375 93.1643 82.7129 94.0554 82.9054 95.0254C82.909 95.0436 82.9126 95.0619 82.916 95.0801L79.0026 95.0972L79.0071 96.127L83 96.1096C82.9865 96.7264 82.859 97.3386 82.6207 97.9144C82.2426 98.828 81.6024 99.6088 80.7811 100.158C79.9598 100.707 78.9943 101 78.0067 101H73Z" fill="#FEE600"/>
<path d="M99.4546 109.238H56.7729C56.601 109.238 56.4363 109.17 56.3148 109.049C56.1933 108.927 56.125 108.762 56.125 108.59V87.3014C56.125 86.3082 56.5195 85.3558 57.2218 84.6535C57.9241 83.9512 58.8765 83.5567 59.8697 83.5567H96.3578C97.3509 83.5567 98.3034 83.9512 99.0057 84.6535C99.7079 85.3558 100.102 86.3082 100.102 87.3014V108.59C100.102 108.762 100.034 108.927 99.9127 109.049C99.7912 109.17 99.6264 109.238 99.4546 109.238ZM57.4207 107.943H98.8197V87.3014C98.818 86.6524 98.5594 86.0305 98.1005 85.5716C97.6416 85.1127 97.0197 84.8542 96.3707 84.8524H59.8567C59.2078 84.8542 58.5859 85.1127 58.127 85.5716C57.6681 86.0305 57.4095 86.6524 57.4078 87.3014L57.4207 107.943Z" fill="black"/>
<path d="M54.6875 108.59H101.535C101.535 109.419 101.206 110.213 100.62 110.799C100.035 111.384 99.2405 111.713 98.4123 111.713H57.8102C56.982 111.713 56.1878 111.384 55.6021 110.799C55.0165 110.213 54.6875 109.419 54.6875 108.59Z" fill="#F27475"/>
<path d="M98.4053 112.374H57.8097C56.8102 112.372 55.8521 111.975 55.1453 111.268C54.4386 110.561 54.0408 109.603 54.0391 108.603C54.0391 108.432 54.1073 108.267 54.2288 108.145C54.3503 108.024 54.5151 107.956 54.6869 107.956H101.528C101.7 107.956 101.865 108.024 101.986 108.145C102.108 108.267 102.176 108.432 102.176 108.603C102.174 109.603 101.776 110.561 101.07 111.268C100.363 111.975 99.4048 112.372 98.4053 112.374ZM55.419 109.238C55.5624 109.763 55.8739 110.225 56.3058 110.556C56.7377 110.886 57.2661 111.065 57.8097 111.065H98.4053C98.9544 111.072 99.4901 110.896 99.9286 110.565C100.367 110.235 100.684 109.768 100.828 109.238H55.419Z" fill="black"/>
<path d="M77.6244 84.8525C77.4526 84.8525 77.2878 84.7842 77.1663 84.6627C77.0448 84.5412 76.9766 84.3764 76.9766 84.2046V72.543C76.9766 72.3711 77.0448 72.2063 77.1663 72.0848C77.2878 71.9633 77.4526 71.8951 77.6244 71.8951C77.7963 71.8951 77.961 71.9633 78.0825 72.0848C78.204 72.2063 78.2723 72.3711 78.2723 72.543V84.2046C78.2723 84.3764 78.204 84.5412 78.0825 84.6627C77.961 84.7842 77.7963 84.8525 77.6244 84.8525Z" fill="black"/>
<path d="M113.529 111.726H5.19229C3.08837 111.726 1.38281 113.43 1.38281 115.532C1.38281 117.635 3.08837 119.339 5.19229 119.339H113.529C115.633 119.339 117.339 117.635 117.339 115.532C117.339 113.43 115.633 111.726 113.529 111.726Z" fill="#E27525" stroke="black" stroke-width="1.5"/>
<path d="M16.1875 92.9833H34.3279V105.772C34.3279 107.351 33.7006 108.866 32.584 109.982C31.4674 111.099 29.953 111.726 28.3739 111.726H22.1414C20.5624 111.726 19.0479 111.099 17.9314 109.982C16.8148 108.866 16.1875 107.351 16.1875 105.772V92.9833Z" fill="#0ACF83"/>
<path d="M28.3734 112.374H22.1409C20.3905 112.372 18.7123 111.676 17.4746 110.439C16.2369 109.201 15.5408 107.523 15.5391 105.772V92.9833C15.5391 92.8114 15.6073 92.6466 15.7288 92.5251C15.8503 92.4036 16.0151 92.3354 16.1869 92.3354H34.3273C34.4991 92.3354 34.6639 92.4036 34.7854 92.5251C34.9069 92.6466 34.9752 92.8114 34.9752 92.9833V105.772C34.9735 107.523 34.2774 109.201 33.0397 110.439C31.802 111.676 30.1238 112.372 28.3734 112.374ZM16.8348 93.6311V105.772C16.8348 107.179 17.3938 108.529 18.3889 109.524C19.384 110.519 20.7336 111.078 22.1409 111.078H28.3734C29.7801 111.077 31.1287 110.517 32.1234 109.522C33.1181 108.528 33.6777 107.179 33.6794 105.772V93.6311H16.8348Z" fill="black"/>
<path d="M35.3914 105.999H34.3354C34.1635 105.999 33.9988 105.931 33.8773 105.809C33.7558 105.688 33.6875 105.523 33.6875 105.351V95.0694C33.6875 94.8976 33.7558 94.7328 33.8773 94.6113C33.9988 94.4898 34.1635 94.4215 34.3354 94.4215H35.3914C36.2102 94.3226 37.0407 94.3984 37.828 94.6442C38.6153 94.8899 39.3415 95.2998 39.9587 95.8469C40.5759 96.394 41.07 97.0658 41.4084 97.8179C41.7468 98.5701 41.9218 99.3855 41.9218 100.21C41.9218 101.035 41.7468 101.85 41.4084 102.603C41.07 103.355 40.5759 104.026 39.9587 104.574C39.3415 105.121 38.6153 105.531 37.828 105.776C37.0407 106.022 36.2102 106.098 35.3914 105.999ZM34.9832 104.703H35.3914C36.0262 104.776 36.6691 104.713 37.278 104.519C37.8868 104.326 38.448 104.006 38.9246 103.581C39.4013 103.155 39.7827 102.634 40.0438 102.051C40.3049 101.468 40.4399 100.836 40.4399 100.197C40.4399 99.5584 40.3049 98.9267 40.0438 98.3436C39.7827 97.7606 39.4013 97.2392 38.9246 96.8138C38.448 96.3884 37.8868 96.0685 37.278 95.8751C36.6691 95.6816 36.0262 95.619 35.3914 95.6913H34.9832V104.703Z" fill="black"/>
<path d="M43.1661 36.016H4.7603C3.86578 36.016 3.14062 36.7411 3.14062 37.6357V69.4267C3.14062 70.3212 3.86578 71.0464 4.7603 71.0464H43.1661C44.0606 71.0464 44.7858 70.3212 44.7858 69.4267V37.6357C44.7858 36.7411 44.0606 36.016 43.1661 36.016Z" fill="white"/>
<path d="M43.1655 71.6942H4.75325C4.15299 71.6925 3.57789 71.4528 3.15404 71.0278C2.73019 70.6027 2.49219 70.0269 2.49219 69.4267V37.6292C2.49219 37.0295 2.7304 36.4544 3.15444 36.0304C3.57847 35.6063 4.15358 35.3681 4.75325 35.3681H43.1655C43.7658 35.3681 44.3416 35.6061 44.7666 36.03C45.1917 36.4538 45.4313 37.0289 45.4331 37.6292V69.4267C45.4331 70.0281 45.1942 70.6048 44.7689 71.0301C44.3437 71.4553 43.7669 71.6942 43.1655 71.6942ZM4.75325 36.6768C4.49723 36.6768 4.2517 36.7785 4.07067 36.9595C3.88963 37.1406 3.78793 37.3861 3.78793 37.6421V69.4396C3.78792 69.6962 3.88942 69.9424 4.07027 70.1245C4.25112 70.3066 4.49664 70.4097 4.75325 70.4114H43.1655C43.4232 70.4114 43.6704 70.309 43.8527 70.1268C44.0349 69.9445 44.1373 69.6974 44.1373 69.4396V37.6292C44.1322 37.3748 44.0276 37.1326 43.8459 36.9545C43.6642 36.7765 43.4199 36.6767 43.1655 36.6768H4.75325Z" fill="#093F68"/>
<path d="M4.75382 36.0289H43.1661C43.5956 36.0289 44.0076 36.1996 44.3114 36.5033C44.6151 36.8071 44.7858 37.219 44.7858 37.6486V40.4539H3.14063V37.6486C3.14062 37.2202 3.31037 36.8092 3.61272 36.5056C3.91507 36.202 4.32538 36.0306 4.75382 36.0289Z" fill="#68E1FD"/>
<path d="M44.7852 41.0888H3.14006C2.96823 41.0888 2.80344 41.0205 2.68194 40.899C2.56044 40.7775 2.49219 40.6128 2.49219 40.4409V37.6292C2.49219 37.0295 2.7304 36.4544 3.15444 36.0304C3.57847 35.6063 4.15358 35.3681 4.75325 35.3681H43.1655C43.7658 35.3681 44.3416 35.6061 44.7666 36.03C45.1917 36.4538 45.4313 37.0289 45.4331 37.6292V40.4409C45.4331 40.6128 45.3648 40.7775 45.2433 40.899C45.1218 41.0205 44.957 41.0888 44.7852 41.0888ZM3.78793 39.7931H44.1373V37.6292C44.1322 37.3748 44.0276 37.1326 43.8459 36.9545C43.6642 36.7765 43.4199 36.6767 43.1655 36.6768H4.75325C4.49723 36.6768 4.2517 36.7785 4.07067 36.9595C3.88963 37.1406 3.78793 37.3861 3.78793 37.6421V39.7931Z" fill="#093F68"/>
<path d="M6.37596 39.0933C6.85542 39.0933 7.24411 38.7047 7.24411 38.2252C7.24411 37.7457 6.85542 37.3571 6.37596 37.3571C5.89649 37.3571 5.50781 37.7457 5.50781 38.2252C5.50781 38.7047 5.89649 39.0933 6.37596 39.0933Z" fill="#093F68"/>
<path d="M8.79783 39.0933C9.2773 39.0933 9.66598 38.7047 9.66598 38.2252C9.66598 37.7457 9.2773 37.3571 8.79783 37.3571C8.31837 37.3571 7.92969 37.7457 7.92969 38.2252C7.92969 38.7047 8.31837 39.0933 8.79783 39.0933Z" fill="#093F68"/>
<path d="M11.2353 39.0933C11.7148 39.0933 12.1035 38.7047 12.1035 38.2252C12.1035 37.7457 11.7148 37.3571 11.2353 37.3571C10.7559 37.3571 10.3672 37.7457 10.3672 38.2252C10.3672 38.7047 10.7559 39.0933 11.2353 39.0933Z" fill="#093F68"/>
<g clip-path="url(#clip1_1199_6)">
<path d="M27.3865 63.1603L26.9157 63.3323L26.8906 64.7327L28.5203 64.1374C27.9608 63.95 27.5529 63.6199 27.3865 63.1603Z" fill="#FDBD39"/>
<path d="M27.6337 61.679L26 62.2758L26.9165 63.3326L27.3873 63.1606C27.2213 62.7025 27.3237 62.1853 27.6337 61.679Z" fill="#F69833"/>
<path d="M30.379 59.658C28.2987 60.4179 26.9574 61.9862 27.3837 63.1603L34.9167 60.4085C34.4904 59.2343 32.4592 58.8982 30.379 59.658Z" fill="#FECF33"/>
<path d="M31.9284 63.911C34.0086 63.1512 35.3522 61.59 34.9237 60.4087L27.3906 63.1601C27.8192 64.3418 29.8482 64.6709 31.9284 63.911Z" fill="#EE6723"/>
<path d="M34.9233 60.4084L27.3906 63.1602C27.538 63.5671 28.1007 63.7675 28.8898 63.7675C29.6593 63.7675 30.6443 63.5772 31.6711 63.2021C33.7514 62.4422 35.2146 61.2116 34.9233 60.4084Z" fill="#F69833"/>
<path d="M33.422 59.8014C32.6528 59.8014 31.6675 59.9917 30.6407 60.3668C28.5604 61.1266 27.0972 62.3569 27.3885 63.1601L34.9215 60.4083C34.7738 60.0014 34.2114 59.8014 33.422 59.8014Z" fill="#FDBD39"/>
<path d="M33.0056 64.8071C32.7838 64.8071 32.457 64.6071 32.0337 64.2122C31.533 63.7451 30.9598 63.0608 30.4187 62.2857C29.8779 61.5105 29.4337 60.7357 29.1675 60.1033C28.8776 59.4145 28.8361 58.9912 29.0444 58.8447C29.0927 58.8117 29.1499 58.7949 29.2082 58.7964C29.3776 58.7964 29.7082 58.9224 30.3188 59.5237L30.3323 59.5368L30.3304 59.5555C30.3263 59.5989 30.3226 59.6423 30.3192 59.6853L30.3125 59.7702L30.2526 59.71C29.5945 59.047 29.3051 58.9755 29.2108 58.9755C29.1839 58.9755 29.1626 58.9808 29.1473 58.9916C29.0568 59.0552 29.0508 59.3663 29.332 60.0338C29.5934 60.6545 30.0313 61.4177 30.5649 62.1828C31.0989 62.9483 31.6635 63.6221 32.1556 64.0809C32.6859 64.5757 32.9248 64.6291 33.003 64.6291C33.0299 64.6291 33.0516 64.6235 33.068 64.6119C33.1634 64.545 33.1634 64.2118 32.85 63.4931L32.8354 63.4602L32.8668 63.443C32.8983 63.4258 32.9289 63.409 32.9573 63.3925L32.9951 63.3712L33.0127 63.4108C33.2348 63.9202 33.4427 64.5674 33.1701 64.7589C33.1219 64.7918 33.0643 64.8086 33.0056 64.8071ZM33.0056 64.7286V64.7679V64.7286Z" fill="#EE6723"/>
<path d="M31.9777 63.8895L31.9747 63.9284C31.922 64.5791 31.7836 65.3613 31.4224 65.3931C31.4149 65.3939 31.4075 65.3939 31.4004 65.3939C31.1551 65.3939 30.9228 65.0424 30.7108 64.3495C30.5096 63.6936 30.3537 62.8133 30.2718 61.8706C30.1895 60.9279 30.1907 60.0338 30.2752 59.3529C30.3672 58.611 30.5422 58.2236 30.7957 58.2011C30.8032 58.2004 30.811 58.2 30.8185 58.2C30.9965 58.2 31.2646 58.4016 31.5391 59.3402L31.36 59.3746C31.2684 59.0612 31.1685 58.8062 31.0694 58.6304C30.9778 58.4685 30.8884 58.3791 30.8185 58.3791C30.8163 58.3791 30.814 58.3791 30.8114 58.3795C30.7015 58.3892 30.5414 58.6555 30.4524 59.3749C30.3694 60.0435 30.3683 60.9245 30.4494 61.8549C30.5306 62.7856 30.6839 63.6528 30.8813 64.2967C30.9696 64.585 31.0664 64.8229 31.1618 64.984C31.2493 65.1329 31.3342 65.2148 31.4004 65.2148C31.4026 65.2148 31.4048 65.2148 31.4071 65.2144C31.5122 65.2054 31.7104 64.928 31.7937 63.9523L31.9777 63.8895Z" fill="#EE6723"/>
</g>
<g clip-path="url(#clip2_1199_6)">
<path d="M21.1841 57H13.8159C13.3653 57 13 57.3653 13 57.8159V65.1841C13 65.6347 13.3653 66 13.8159 66H21.1841C21.6347 66 22 65.6347 22 65.1841V57.8159C22 57.3653 21.6347 57 21.1841 57Z" fill="#DC395F"/>
<path d="M16.007 59.8316C16.3062 59.8316 16.5568 59.5971 16.5568 59.2898C16.5568 58.9827 16.3062 58.7482 16.007 58.7482C15.7078 58.7482 15.4572 58.9827 15.4572 59.2898C15.4572 59.5971 15.7078 59.8316 16.007 59.8316ZM14.867 62.7327C14.8347 62.8702 14.8185 63.0186 14.8185 63.1397C14.8185 63.6168 15.0772 63.9335 15.627 63.9335C16.083 63.9335 16.4526 63.6628 16.7188 63.2255L16.5563 63.8778H17.4617L17.9792 61.8022C18.1086 61.2767 18.3592 61.0039 18.7393 61.0039C19.0384 61.0039 19.2244 61.1899 19.2244 61.4971C19.2244 61.586 19.2163 61.683 19.1839 61.7881L18.9171 62.7422C18.8767 62.8796 18.8606 63.0171 18.8606 63.1464C18.8606 63.5993 19.1273 63.9306 19.6852 63.9306C20.1622 63.9306 20.5422 63.6235 20.7524 62.8877L20.3967 62.7504C20.2188 63.2433 20.0652 63.3325 19.9439 63.3325C19.8226 63.3325 19.7579 63.2517 19.7579 63.0901C19.7579 63.0173 19.7742 62.9365 19.7984 62.8393L20.0571 61.9098C20.1218 61.6916 20.1461 61.498 20.1461 61.3202C20.1461 60.6249 19.7256 60.262 19.2163 60.262C18.7393 60.262 18.2541 60.6923 18.0116 61.1451L18.1894 60.3323H16.807L16.6129 61.0483H17.2597L16.8614 62.6429C16.5486 63.3383 15.9741 63.3495 15.902 63.3334C15.7836 63.3067 15.7078 63.2617 15.7078 63.1079C15.7078 63.0191 15.724 62.8916 15.7644 62.7379L16.3709 60.3323H14.8347L14.6406 61.0483H15.2793L14.867 62.7327" fill="white"/>
</g>
<path d="M35.0625 53C35.8905 53 36.5625 52.328 36.5625 51.5V50.0001H35.0625C34.2345 50.0001 33.5625 50.6721 33.5625 51.5C33.5625 52.328 34.2345 53 35.0625 53Z" fill="#0ACF83"/>
<path d="M33.5625 48.4999C33.5625 47.6719 34.2345 46.9999 35.0625 46.9999H36.5625V49.9999H35.0625C34.2345 49.9999 33.5625 49.3279 33.5625 48.4999Z" fill="#A259FF"/>
<path d="M33.5625 45.5C33.5625 44.672 34.2345 44 35.0625 44H36.5625V47H35.0625C34.2345 47 33.5625 46.328 33.5625 45.5Z" fill="#F24E1E"/>
<path d="M36.5625 44H38.0625C38.8905 44 39.5625 44.672 39.5625 45.5C39.5625 46.328 38.8905 47 38.0625 47H36.5625V44Z" fill="#FF7262"/>
<path d="M39.5625 48.4999C39.5625 49.3279 38.8905 49.9999 38.0625 49.9999C37.2345 49.9999 36.5625 49.3279 36.5625 48.4999C36.5625 47.6719 37.2345 46.9999 38.0625 46.9999C38.8905 46.9999 39.5625 47.6719 39.5625 48.4999Z" fill="#1ABCFE"/>
<g clip-path="url(#clip3_1199_6)">
<path d="M21.5938 44.1134H27.4062C28.2875 44.1134 29 44.8259 29 45.7072V51.2947C29 52.1759 28.2875 52.8884 27.4062 52.8884H21.5938C20.7125 52.8884 20 52.1759 20 51.2947V45.7072C20 44.8259 20.7125 44.1134 21.5938 44.1134Z" fill="#470137"/>
<path d="M24.734 46.4198L23.609 48.276L24.809 50.2448C24.8165 50.2598 24.8202 50.2748 24.8165 50.2898C24.8127 50.3048 24.7977 50.2935 24.7752 50.2973H23.9165C23.8565 50.2973 23.8152 50.2935 23.789 50.256C23.7102 50.0985 23.6277 49.9448 23.549 49.7873C23.4702 49.6335 23.384 49.476 23.294 49.3148C23.204 49.1535 23.114 48.9923 23.024 48.8273H23.0165C22.9377 48.9885 22.8515 49.1498 22.7652 49.311C22.679 49.4723 22.5927 49.6335 22.5102 49.791C22.424 49.9485 22.3377 50.1098 22.2515 50.2635C22.2365 50.301 22.2065 50.3048 22.1652 50.3048H21.3402C21.3252 50.3048 21.314 50.3123 21.314 50.2935C21.3102 50.2785 21.314 50.2635 21.3215 50.2523L22.4877 48.3398L21.3515 46.416C21.3402 46.401 21.3365 46.386 21.344 46.3785C21.3515 46.3673 21.3665 46.3635 21.3815 46.3635H22.2327C22.2515 46.3635 22.2702 46.3673 22.2852 46.371C22.3002 46.3785 22.3115 46.3898 22.3227 46.4048C22.394 46.566 22.4765 46.7273 22.5627 46.8885C22.6527 47.0498 22.739 47.2073 22.8327 47.3648C22.9227 47.5223 23.0052 47.6798 23.084 47.841H23.0915C23.1702 47.676 23.2527 47.5148 23.3352 47.3573C23.4177 47.1998 23.504 47.0423 23.5902 46.8848C23.6765 46.7273 23.759 46.566 23.8415 46.4123C23.8452 46.3973 23.8527 46.3823 23.864 46.3748C23.879 46.3673 23.894 46.3635 23.9127 46.3673H24.704C24.7227 46.3635 24.7415 46.3748 24.7452 46.3935C24.749 46.3973 24.7415 46.4123 24.734 46.4198ZM26.4665 50.376C26.189 50.3798 25.9115 50.3235 25.6602 50.2073C25.424 50.0985 25.229 49.9185 25.094 49.6973C24.9552 49.4685 24.8877 49.1835 24.8877 48.8423C24.884 48.5648 24.9552 48.291 25.094 48.051C25.2365 47.8073 25.4427 47.6048 25.6902 47.4698C25.9527 47.3235 26.2677 47.2523 26.639 47.2523C26.6577 47.2523 26.684 47.2523 26.7177 47.256C26.7515 47.2598 26.789 47.2598 26.834 47.2635V46.0785C26.834 46.0523 26.8452 46.0373 26.8715 46.0373H27.6327C27.6515 46.0335 27.6665 46.0485 27.6702 46.0635V49.641C27.6702 49.7085 27.674 49.7835 27.6777 49.866C27.6852 49.9448 27.689 50.0198 27.6927 50.0835C27.6927 50.1098 27.6815 50.1323 27.6552 50.1435C27.4602 50.226 27.254 50.286 27.044 50.3235C26.8527 50.3573 26.6615 50.376 26.4665 50.376ZM26.834 49.626V47.976C26.8002 47.9685 26.7665 47.961 26.7327 47.9573C26.6915 47.9535 26.6502 47.9498 26.609 47.9498C26.4627 47.9498 26.3165 47.9798 26.1852 48.0473C26.0577 48.111 25.949 48.2048 25.8665 48.3248C25.784 48.4448 25.7427 48.606 25.7427 48.801C25.739 48.9323 25.7615 49.0635 25.8065 49.1873C25.844 49.2885 25.9002 49.3785 25.9752 49.4535C26.0465 49.521 26.1327 49.5735 26.2302 49.6035C26.3315 49.6373 26.4365 49.6523 26.5415 49.6523C26.5977 49.6523 26.6502 49.6485 26.699 49.6448C26.7477 49.6485 26.789 49.641 26.834 49.626Z" fill="#FF61F6"/>
</g>
<g clip-path="url(#clip4_1199_6)">
<path d="M8.59375 44.1134H14.4062C15.2875 44.1134 16 44.8259 16 45.7072V51.2947C16 52.1759 15.2875 52.8884 14.4062 52.8884H8.59375C7.7125 52.8884 7 52.1759 7 51.2947V45.7072C7 44.8259 7.7125 44.1134 8.59375 44.1134Z" fill="#001E36"/>
<path d="M9.02344 50.2672V46.4085C9.02344 46.3822 9.03469 46.3672 9.06093 46.3672C9.12469 46.3672 9.18468 46.3672 9.27094 46.3635C9.36094 46.3597 9.45468 46.3597 9.55593 46.356C9.65718 46.3522 9.76594 46.3522 9.88218 46.3485C9.99844 46.3447 10.1109 46.3447 10.2234 46.3447C10.5309 46.3447 10.7859 46.3822 10.9959 46.461C11.1834 46.5247 11.3559 46.6297 11.4984 46.7685C11.6184 46.8885 11.7122 47.0347 11.7722 47.196C11.8284 47.3535 11.8584 47.5147 11.8584 47.6835C11.8584 48.006 11.7834 48.2722 11.6334 48.4822C11.4834 48.6922 11.2734 48.8497 11.0297 48.9397C10.7747 49.0335 10.4934 49.0672 10.1859 49.0672C10.0959 49.0672 10.0359 49.0672 9.99844 49.0635C9.96093 49.0597 9.90844 49.0597 9.83718 49.0597V50.2635C9.84094 50.2897 9.82219 50.3122 9.79594 50.316H9.06844C9.03843 50.316 9.02344 50.301 9.02344 50.2672ZM9.84094 47.091V48.351C9.89343 48.3547 9.94219 48.3585 9.98719 48.3585H10.1859C10.3322 48.3585 10.4784 48.336 10.6172 48.291C10.7372 48.2572 10.8422 48.186 10.9247 48.0922C11.0034 47.9985 11.0409 47.871 11.0409 47.706C11.0447 47.5897 11.0147 47.4735 10.9547 47.3722C10.8909 47.2747 10.8009 47.1997 10.6922 47.1585C10.5534 47.1022 10.4034 47.0797 10.2497 47.0835C10.1522 47.0835 10.0659 47.0835 9.99468 47.0872C9.91969 47.0835 9.86719 47.0872 9.84094 47.091ZM14.1984 48.1222C14.0859 48.0622 13.9659 48.021 13.8384 47.9947C13.6997 47.9647 13.5609 47.946 13.4184 47.946C13.3434 47.9422 13.2647 47.9535 13.1934 47.9722C13.1447 47.9835 13.1034 48.0097 13.0772 48.0472C13.0584 48.0772 13.0472 48.1147 13.0472 48.1485C13.0472 48.1822 13.0622 48.216 13.0847 48.246C13.1184 48.2872 13.1634 48.321 13.2122 48.3472C13.2984 48.3922 13.3884 48.4335 13.4784 48.471C13.6809 48.5385 13.8759 48.6322 14.0559 48.7447C14.1797 48.8235 14.2809 48.9285 14.3522 49.056C14.4122 49.176 14.4422 49.3072 14.4384 49.4422C14.4422 49.6185 14.3897 49.7947 14.2922 49.941C14.1872 50.091 14.0409 50.2072 13.8722 50.2747C13.6884 50.3535 13.4634 50.3947 13.1934 50.3947C13.0209 50.3947 12.8522 50.3797 12.6834 50.346C12.5522 50.3235 12.4209 50.2822 12.3009 50.226C12.2747 50.211 12.2559 50.1847 12.2597 50.1547V49.5022C12.2597 49.491 12.2634 49.476 12.2747 49.4685C12.2859 49.461 12.2972 49.4647 12.3084 49.4722C12.4547 49.5585 12.6084 49.6185 12.7734 49.656C12.9159 49.6935 13.0659 49.7122 13.2159 49.7122C13.3584 49.7122 13.4597 49.6935 13.5272 49.6597C13.5872 49.6335 13.6284 49.5697 13.6284 49.5022C13.6284 49.4497 13.5984 49.401 13.5384 49.3522C13.4784 49.3035 13.3547 49.2472 13.1709 49.176C12.9797 49.1085 12.8034 49.0185 12.6384 48.906C12.5222 48.8235 12.4247 48.7147 12.3534 48.5872C12.2934 48.4672 12.2634 48.336 12.2672 48.2047C12.2672 48.0435 12.3122 47.8897 12.3947 47.751C12.4884 47.601 12.6272 47.481 12.7884 47.406C12.9647 47.316 13.1859 47.2747 13.4522 47.2747C13.6059 47.2747 13.7634 47.286 13.9172 47.3085C14.0297 47.3235 14.1384 47.3535 14.2397 47.3947C14.2547 47.3985 14.2697 47.4135 14.2772 47.4285C14.2809 47.4435 14.2847 47.4585 14.2847 47.4735V48.0847C14.2847 48.0997 14.2772 48.1147 14.2659 48.1222C14.2322 48.1297 14.2134 48.1297 14.1984 48.1222Z" fill="#31A8FF"/>
</g>
</g>
<defs>
<clipPath id="clip0_1199_6">
<rect width="118.723" height="120" fill="white"/>
</clipPath>
<clipPath id="clip1_1199_6">
<rect width="9" height="9" fill="white" transform="translate(26 57)"/>
</clipPath>
<clipPath id="clip2_1199_6">
<rect width="9" height="9" fill="white" transform="translate(13 57)"/>
</clipPath>
<clipPath id="clip3_1199_6">
<rect width="9" height="9" fill="white" transform="translate(20 44)"/>
</clipPath>
<clipPath id="clip4_1199_6">
<rect width="9" height="9" fill="white" transform="translate(7 44)"/>
</clipPath>
</defs>
</svg>
