<svg width="155" height="45" viewBox="0 0 155 45" fill="none" xmlns="http://www.w3.org/2000/svg">
<path d="M49.2008 34.8973L47 8L73.2838 8.05405L70.9566 34.8973L60.2411 38L49.2008 34.8973Z" fill="#E9CA32"/>
<path d="M60.2411 35.4745V10.6338L71.065 10.6698L69.1348 32.8947L60.2411 35.4745Z" fill="#FFDE25"/>
<path d="M59.0821 12.8911H56.2205V29.4245L53.9949 29.0006V26.7749L51.3453 26.351V31.3322L59.0821 33.3459V12.8911ZM61.2287 12.8911H69.1505L68.6206 16.06H64.2528V21.2602H68.6206L68.0907 31.7561L61.2287 33.3459V30.0604L65.865 28.4706L66.1327 24.1254L61.2287 24.8354V12.8911Z" fill="white"/>
<path d="M97.1263 15.2856H109V19.6033H102.092V20.4669H109V30.3976H97.1263V25.864H104.035V25.0005H97.1263V15.2856Z" fill="black"/>
<path d="M89.7143 15.2856H94.4277V30.1742H82.9611V24.2854H86.6626V26.4283H89.6626V25.8904L89.7143 15.2856Z" fill="black"/>
</svg>
