<svg width="155" height="45" viewBox="0 0 155 45" fill="none" xmlns="http://www.w3.org/2000/svg">
<path d="M56.0856 13.8524C56.0752 13.7878 56.0436 13.7284 55.9958 13.6836C55.948 13.6388 55.8866 13.6112 55.8214 13.6051C55.7159 13.5882 53.3987 13.4278 53.3987 13.4278L51.6319 11.661C51.4732 11.4838 51.1204 11.5361 50.987 11.5733C50.9701 11.5733 50.6341 11.6788 50.0863 11.8569C49.5528 10.3155 48.609 8.9007 46.9478 8.9007H46.806C46.329 8.28448 45.7466 8 45.2527 8C41.3832 8.01688 39.5379 12.8437 38.9554 15.3103L36.2508 16.1401C35.421 16.4043 35.3898 16.4237 35.28 17.2147L33 34.8007L50.0922 38L59.3558 36.0028C59.3558 35.9859 56.1034 14.0213 56.0865 13.8541L56.0856 13.8524ZM49.1383 12.154C48.7078 12.2958 48.2098 12.4377 47.6898 12.5972V12.279C47.7067 11.4838 47.5859 10.692 47.3369 9.93562C48.203 10.069 48.7855 11.0414 49.1383 12.154ZM46.2936 10.1399C46.5764 10.9731 46.7156 11.851 46.6802 12.7314V12.8901L43.6919 13.8187C44.2769 11.6349 45.3549 10.5552 46.2919 10.1492L46.2936 10.1399ZM45.1455 9.06531C45.3228 9.06953 45.4942 9.1244 45.6402 9.22401C44.3934 9.80478 43.0757 11.2702 42.5101 14.2045L40.1465 14.9287C40.8134 12.7019 42.3691 9.06024 45.1438 9.06024L45.1455 9.06531Z" fill="#95BF47"/>
<path d="M55.8222 13.6043C55.7167 13.5874 53.3996 13.427 53.3996 13.427L51.6328 11.6602C51.5678 11.5927 51.4791 11.5555 51.3854 11.5547L50.0956 37.9966L59.3592 35.9994L56.0873 13.8676C56.0654 13.7326 55.959 13.6245 55.8231 13.6034L55.8222 13.6043Z" fill="#5E8E3E"/>
<path d="M46.9469 18.7303L45.7972 22.1237C45.1025 21.7861 44.3419 21.6063 43.5704 21.5919C41.7664 21.5919 41.6795 22.7231 41.6795 23.0067C41.6795 24.5515 45.7271 25.1457 45.7271 28.7874C45.7271 31.6507 43.9063 33.4893 41.4668 33.4893C38.5325 33.4893 37.0299 31.6684 37.0299 31.6684L37.8099 29.0685C37.8099 29.0685 39.3463 30.3938 40.6564 30.3938C40.813 30.4 40.9692 30.3743 41.1155 30.3182C41.2619 30.2622 41.3953 30.177 41.5077 30.0678C41.6202 29.9586 41.7092 29.8277 41.7695 29.6831C41.8298 29.5384 41.86 29.383 41.8584 29.2263C41.8584 27.1919 38.535 27.1042 38.535 23.7816C38.535 20.9875 40.5492 18.2651 44.5977 18.2651C46.1889 18.2888 46.9495 18.7294 46.9495 18.7294L46.9469 18.7303Z" fill="white"/>
<path d="M71.6195 23.7849C70.9586 23.4303 70.6167 23.1239 70.6167 22.7044C70.6167 22.1725 71.081 21.829 71.8348 21.829C72.3943 21.8411 72.9462 21.9618 73.4598 22.1844L74.0692 20.3323C74.0692 20.3323 73.5104 19.9001 71.8728 19.9001C69.5885 19.9001 68.0015 21.2085 68.0015 23.0471C68.0015 24.0871 68.7376 24.8873 69.727 25.458C70.5264 25.9222 70.8075 26.2295 70.8075 26.714C70.8075 27.1986 70.4141 27.6029 69.6653 27.6029C68.562 27.6029 67.5212 27.0323 67.5212 27.0323L66.8746 28.8843C66.8746 28.8843 67.8395 29.5309 69.4509 29.5309C71.7976 29.5309 73.4859 28.3762 73.4859 26.2894C73.4986 25.16 72.6477 24.3732 71.6288 23.7764L71.6195 23.7849ZM80.9845 19.8891C79.8297 19.8891 78.9163 20.4353 78.2174 21.2786L78.1785 21.2659L79.1814 16.0187H76.5687L74.0304 29.3815H76.6447L77.5201 24.813C77.8628 23.0876 78.7551 22.0206 79.5882 22.0206C80.1707 22.0206 80.4003 22.414 80.4003 22.9855C80.4003 23.3738 80.3615 23.7595 80.2863 24.1402L79.297 29.3689H81.9113L82.9395 23.9664C83.0518 23.4067 83.1168 22.8386 83.1294 22.2696C83.1168 20.7974 82.3427 19.9094 80.9853 19.9094L80.9845 19.8891ZM89.0291 19.8891C85.8822 19.8891 83.8005 22.7322 83.8005 25.8826C83.8005 27.9136 85.0566 29.5377 87.405 29.5377C90.492 29.5377 92.583 26.7706 92.583 23.5443C92.583 21.6661 91.4797 19.8891 89.0334 19.8891H89.0291ZM87.746 27.5413C86.8572 27.5413 86.4773 26.7816 86.4773 25.8446C86.4773 24.3471 87.2488 21.8982 88.6738 21.8982C89.5998 21.8982 89.9087 22.6976 89.9087 23.4725C89.9054 25.0806 89.1321 27.5413 87.7477 27.5413H87.746ZM99.2686 19.8891C97.4959 19.8891 96.5015 21.4322 96.5015 21.4322H96.4627L96.6171 20.0428H94.3017L93.7698 23.508L91.9549 33.0772H94.5574L95.2817 29.2059H95.3324C95.3324 29.2059 95.8642 29.5487 96.8687 29.5487C99.9397 29.5487 101.945 26.4017 101.945 23.221C101.957 21.4694 101.173 19.8967 99.2669 19.8967L99.2686 19.8891ZM96.7682 27.5793C96.3738 27.5871 95.9898 27.4516 95.6877 27.1977L96.1199 24.748C96.4289 23.1231 97.2747 22.0316 98.1881 22.0316C98.9875 22.0316 99.2281 22.7677 99.2281 23.4666C99.2323 25.1693 98.232 27.5801 96.7716 27.5801L96.7682 27.5793ZM105.691 16.1327C105.291 16.1302 104.906 16.2889 104.625 16.5733C104.344 16.8578 104.187 17.2436 104.203 17.6437C104.203 18.4153 104.698 18.9521 105.438 18.9521H105.476C105.678 18.9602 105.879 18.9267 106.068 18.854C106.256 18.7812 106.427 18.6706 106.571 18.529C106.715 18.3874 106.828 18.2178 106.904 18.0307C106.98 17.8436 107.017 17.6429 107.012 17.4411C107.012 16.6814 106.504 16.1327 105.703 16.1327H105.691ZM102.039 29.3562H104.653L106.429 20.096H103.806M113.091 20.0833H111.266L111.355 19.6511C111.51 18.7622 112.04 17.9628 112.898 17.9628C113.182 17.9629 113.465 18.0056 113.736 18.0894L114.241 16.0441C114.241 16.0441 113.777 15.8162 112.82 15.8162C111.888 15.793 110.979 16.1034 110.256 16.6915C109.367 17.4513 108.948 18.5436 108.737 19.6486L108.652 20.0808H107.434L107.052 22.0476H108.271L106.881 29.3579H109.505L110.894 22.0476H112.697L113.052 20.0808L113.091 20.0833ZM119.387 20.096L117.013 26.4667H116.974L116.328 20.096H113.573L115.147 28.5982C115.185 28.7435 115.167 28.8977 115.096 29.0304C114.754 29.6609 114.267 30.2003 113.675 30.6047C113.221 30.917 112.725 31.1652 112.203 31.3408L112.927 33.5609C113.884 33.3046 114.764 32.8147 115.485 32.1351C116.678 31.0175 117.781 29.2921 118.913 26.9436L122.11 20.0909H119.386L119.387 20.096Z" fill="black"/>
</svg>
