<svg width="155" height="45" viewBox="0 0 155 45" fill="none" xmlns="http://www.w3.org/2000/svg">
<g clip-path="url(#clip0_953_15)">
<path d="M49.3125 7H68.6875C71.625 7 74 9.4359 74 12.4487V31.5513C74 34.5641 71.625 37 68.6875 37H49.3125C46.375 37 44 34.5641 44 31.5513V12.4487C44 9.4359 46.375 7 49.3125 7Z" fill="#470137"/>
<path d="M59.4078 16.2769L55.6578 22.4644L59.6578 29.0269C59.6828 29.0769 59.6953 29.127 59.6828 29.1769C59.6703 29.2269 59.6203 29.1894 59.5453 29.202H56.6828C56.4828 29.202 56.3453 29.1894 56.2578 29.0644C55.9953 28.5394 55.7203 28.0269 55.4578 27.5019C55.1953 26.9895 54.9078 26.4645 54.6078 25.9269C54.3078 25.3894 54.0078 24.852 53.7078 24.3019H53.6828C53.4203 24.8394 53.1328 25.377 52.8453 25.9144C52.5578 26.4519 52.2703 26.9895 51.9953 27.5145C51.7078 28.0395 51.4203 28.5769 51.1328 29.0895C51.0828 29.2144 50.9828 29.2269 50.8453 29.2269H48.0953C48.0453 29.2269 48.0078 29.2519 48.0078 29.1894C47.9953 29.1394 48.0078 29.0895 48.0328 29.052L51.9203 22.677L48.1328 16.2645C48.0953 16.2144 48.0828 16.1644 48.1078 16.1394C48.1328 16.1019 48.1828 16.0894 48.2328 16.0894H51.0703C51.1328 16.0894 51.1953 16.1019 51.2453 16.1145C51.2953 16.1394 51.3328 16.1769 51.3703 16.227C51.6078 16.7644 51.8828 17.3019 52.1703 17.8395C52.4703 18.3769 52.7578 18.9019 53.0703 19.4269C53.3703 19.9519 53.6453 20.4769 53.9078 21.0144H53.9328C54.1953 20.4645 54.4703 19.9269 54.7453 19.4019C55.0203 18.8769 55.3078 18.3519 55.5953 17.8269C55.8828 17.3019 56.1578 16.7644 56.4328 16.2519C56.4453 16.2019 56.4703 16.152 56.5078 16.1269C56.5578 16.1019 56.6078 16.0894 56.6703 16.1019H59.3078C59.3703 16.0894 59.4328 16.1269 59.4453 16.1895C59.4578 16.2019 59.4328 16.2519 59.4078 16.2769ZM65.1828 29.4645C64.2578 29.4769 63.3328 29.2894 62.4953 28.902C61.7078 28.5394 61.0578 27.9394 60.6078 27.2019C60.1453 26.4394 59.9203 25.4895 59.9203 24.3519C59.9078 23.427 60.1453 22.5144 60.6078 21.7144C61.0828 20.9019 61.7703 20.2269 62.5953 19.7769C63.4703 19.2894 64.5203 19.0519 65.7578 19.0519C65.8203 19.0519 65.9078 19.0519 66.0203 19.0644C66.1328 19.077 66.2578 19.077 66.4078 19.0894V15.1395C66.4078 15.0519 66.4453 15.0019 66.5328 15.0019H69.0703C69.1328 14.9895 69.1828 15.0394 69.1953 15.0894V27.0144C69.1953 27.2394 69.2078 27.4894 69.2203 27.7644C69.2453 28.0269 69.2578 28.2769 69.2703 28.4895C69.2703 28.5769 69.2328 28.6519 69.1453 28.6894C68.4953 28.9644 67.8078 29.1645 67.1078 29.2894C66.4703 29.4019 65.8328 29.4645 65.1828 29.4645ZM66.4078 26.9644V21.4644C66.2953 21.4395 66.1828 21.4144 66.0703 21.402C65.9328 21.3894 65.7953 21.3769 65.6578 21.3769C65.1703 21.3769 64.6828 21.477 64.2453 21.702C63.8203 21.9144 63.4578 22.227 63.1828 22.6269C62.9078 23.0269 62.7703 23.5644 62.7703 24.2145C62.7578 24.6519 62.8328 25.0894 62.9828 25.5019C63.1078 25.8394 63.2953 26.1394 63.5453 26.3895C63.7828 26.6145 64.0703 26.7894 64.3953 26.8894C64.7328 27.0019 65.0828 27.0519 65.4328 27.0519C65.6203 27.0519 65.7953 27.0394 65.9578 27.027C66.1203 27.0394 66.2578 27.0144 66.4078 26.9644Z" fill="#FF61F6"/>
</g>
<path d="M85.1447 16.108L86.0207 18.544C86.0447 18.58 86.0687 18.604 86.1167 18.604H87.0287C87.0887 18.604 87.1007 18.568 87.0767 18.52L84.2567 10.732C84.2447 10.684 84.2327 10.672 84.1847 10.672H83.0087C82.9727 10.672 82.9487 10.696 82.9487 10.732C82.9367 11.044 82.9007 11.128 82.8647 11.224L80.2487 18.508C80.2367 18.568 80.2607 18.604 80.3207 18.604H81.1367C81.1967 18.604 81.2207 18.58 81.2327 18.532L82.0967 16.108H85.1447ZM82.3727 15.184C82.8287 13.864 83.4047 12.256 83.6087 11.488H83.6207C83.8487 12.304 84.6047 14.404 84.8687 15.184H82.3727Z" fill="#231F20"/>
<path d="M90.6031 18.724C91.2751 18.724 91.9471 18.604 92.6311 18.28C92.6791 18.256 92.6911 18.244 92.6911 18.196C92.6671 17.992 92.6671 17.788 92.6671 17.62V10.06C92.6671 10.024 92.6551 10 92.5951 10H91.7311C91.6831 10 91.6591 10.012 91.6591 10.072V12.724C91.4311 12.688 91.2391 12.652 90.9031 12.652C88.9471 12.652 87.6391 13.972 87.6391 15.736C87.6391 17.716 88.9351 18.724 90.6031 18.724ZM91.6591 17.692C91.3831 17.812 91.0111 17.848 90.6991 17.848C89.6431 17.848 88.6591 17.248 88.6591 15.688C88.6591 14.44 89.5111 13.516 90.8791 13.516C91.1791 13.516 91.4671 13.552 91.6591 13.636V17.692Z" fill="#231F20"/>
<path d="M96.692 12.652C95.012 12.652 93.932 13.996 93.932 15.688C93.932 17.164 94.76 18.724 96.692 18.724C98.3 18.724 99.428 17.5 99.428 15.676C99.428 13.948 98.384 12.652 96.692 12.652ZM96.644 13.516C97.892 13.516 98.408 14.584 98.408 15.7C98.408 17.188 97.568 17.86 96.716 17.86C95.576 17.86 94.94 16.888 94.94 15.664C94.94 14.38 95.636 13.516 96.644 13.516Z" fill="#231F20"/>
<path d="M100.764 10C100.704 10 100.68 10.012 100.68 10.072V18.376C100.68 18.424 100.704 18.472 100.752 18.484C101.268 18.652 101.796 18.724 102.396 18.724C104.088 18.724 105.72 17.62 105.72 15.46C105.72 13.84 104.64 12.652 102.984 12.652C102.504 12.652 102.072 12.736 101.688 12.892V10.072C101.688 10 101.664 10 101.604 10H100.764ZM104.7 15.544C104.7 17.092 103.632 17.86 102.48 17.86C102.156 17.86 101.916 17.836 101.688 17.764V13.732C101.988 13.612 102.312 13.528 102.828 13.528C103.98 13.528 104.7 14.32 104.7 15.544Z" fill="#231F20"/>
<path d="M110.283 15.808C110.811 15.808 111.339 15.796 111.519 15.76C111.567 15.76 111.603 15.724 111.603 15.688C111.627 15.58 111.651 15.364 111.651 15.064C111.651 14.044 111.027 12.652 109.311 12.652C107.643 12.652 106.659 14.056 106.659 15.736C106.659 17.2 107.403 18.724 109.479 18.724C110.235 18.724 110.763 18.58 111.171 18.376C111.207 18.352 111.231 18.328 111.231 18.256V17.572C111.231 17.524 111.207 17.5 111.171 17.524C110.703 17.752 110.199 17.848 109.671 17.848C108.315 17.848 107.655 16.948 107.667 15.808H110.283ZM107.679 15.064C107.787 14.26 108.279 13.48 109.275 13.48C110.403 13.48 110.691 14.476 110.691 14.908C110.691 14.944 110.691 15.004 110.679 15.04C110.643 15.052 110.499 15.064 109.911 15.064H107.679Z" fill="#231F20"/>
<path d="M87.6987 23.546C87.7407 23.462 87.7267 23.406 87.6427 23.406H86.0747C85.9767 23.406 85.9347 23.448 85.9067 23.518C85.2627 24.666 84.6047 25.814 83.9887 26.976H83.9747C83.3447 25.814 82.6447 24.666 82.0287 23.504C81.9867 23.42 81.9447 23.406 81.8607 23.406H80.1527C80.0827 23.406 80.0407 23.462 80.0827 23.532L82.7707 27.984L80.0267 32.464C79.9847 32.52 79.9847 32.604 80.0827 32.604H81.7207C81.8047 32.604 81.8467 32.576 81.8887 32.492C82.5467 31.344 83.2047 30.154 83.8347 28.978H83.8487C84.5347 30.182 85.2207 31.344 85.8927 32.492C85.9347 32.576 85.9907 32.604 86.1027 32.604H87.8247C87.8947 32.59 87.9367 32.534 87.8807 32.464L85.0527 27.872L87.6987 23.546Z" fill="#231F20"/>
<path d="M88.8859 32.478C88.8859 32.562 88.9279 32.604 88.9839 32.604C89.4319 32.632 90.7199 32.632 91.6019 32.632C93.9679 32.632 96.5719 31.26 96.5719 27.844C96.5719 25.24 94.9199 23.378 91.6299 23.378C90.3419 23.378 89.3899 23.406 88.9839 23.42C88.8999 23.434 88.8859 23.462 88.8859 23.532V32.478ZM90.5799 24.876C90.9159 24.862 91.2239 24.848 91.6159 24.848C93.5059 24.848 94.8359 25.856 94.8359 27.886C94.8359 30.014 93.5059 31.162 91.5319 31.162C91.1679 31.162 90.8599 31.162 90.5799 31.148V24.876Z" fill="#231F20"/>
<defs>
<clipPath id="clip0_953_15">
<rect width="30" height="30" fill="white" transform="translate(44 7)"/>
</clipPath>
</defs>
</svg>
