<svg width="800" height="520" viewBox="0 0 800 520" fill="none" xmlns="http://www.w3.org/2000/svg">
<style>
@-webkit-keyframes rotate{0%{-webkit-transform:rotate(0deg);transform:rotate(0deg)}100%{-webkit-transform:rotate(360deg);transform:rotate(360deg)}}@keyframes rotate{0%{-webkit-transform:rotate(0deg);transform:rotate(0deg)}100%{-webkit-transform:rotate(360deg);transform:rotate(360deg)}}.rotate{-webkit-animation:rotate 10s infinite linear;animation:rotate 10s infinite linear;-webkit-transform-origin:center;-ms-transform-origin:center;transform-origin:center;transform-box:fill-box}@-webkit-keyframes top-bottom{25%{-webkit-transform:translateY(-15px);transform:translateY(-15px)}50%{-webkit-transform:translateY(-30px);transform:translateY(-30px)}75%{-webkit-transform:translateY(-15px);transform:translateY(-15px)}100%{-webkit-transform:translateY(0);transform:translateY(0)}@-webkit-keyframes top-bottom{25%{-webkit-transform:translateY(-15px)}-webkit-transform:translateY(-15px);transform:translateY(-15px);50%{-webkit-transform:translateY(-30px);transform:translateY(-30px)}75%{-webkit-transform:translateY(-15px);transform:translateY(-15px)}100%{-webkit-transform:translateY(0);transform:translateY(0)}}@keyframes top-bottom{25%{-webkit-transform:translateY(-15px)}-webkit-transform:translateY(-15px);transform:translateY(-15px);50%{-webkit-transform:translateY(-30px);transform:translateY(-30px)}75%{-webkit-transform:translateY(-15px);transform:translateY(-15px)}100%{-webkit-transform:translateY(0);transform:translateY(0)}}.top-bottom{-webkit-animation:top-bottom 5s infinite linear;animation:top-bottom 5s infinite linear;-webkit-transform-origin:center;-ms-transform-origin:center;transform-origin:center;transform-box:fill-box}@-webkit-keyframes bottom-top{25%{-webkit-transform:translateY(15px);transform:translateY(15px)}50%{-webkit-transform:translateY(30px);transform:translateY(30px)}75%{-webkit-transform:translateY(15px);transform:translateY(15px)}100%{-webkit-transform:translateY(0);transform:translateY(0)}}}@-webkit-keyframes bottom-top{25%{-webkit-transform:translateY(15px)}-webkit-transform:translateY(15px);transform:translateY(15px);50%{-webkit-transform:translateY(30px);transform:translateY(30px)}75%{-webkit-transform:translateY(15px);transform:translateY(15px)}100%{-webkit-transform:translateY(0);transform:translateY(0)}}@keyframes bottom-top{25%{-webkit-transform:translateY(15px)}-webkit-transform:translateY(15px);transform:translateY(15px);50%{-webkit-transform:translateY(30px);transform:translateY(30px)}75%{-webkit-transform:translateY(15px);transform:translateY(15px)}100%{-webkit-transform:translateY(0);transform:translateY(0)}}.bottom-top{-webkit-animation:bottom-top 5s infinite linear;animation:bottom-top 5s infinite linear;-webkit-transform-origin:center;-ms-transform-origin:center;transform-origin:center;transform-box:fill-box}.zoom{animation:zoom 5s infinite;-webkit-animation:zoom 5s infinite;-moz-animation:zoom 5s infinite;-o-animation:zoom 5s infinite;-webkit-transform-origin:center;-ms-transform-origin:center;transform-origin:center;transform-box:fill-box}-webkit-keyframes zoom{0%{-webkit-transform:scale(1)}50%{-webkit-transform:scale(1.2)}100%{-webkit-transform:scale(1)}}@-webkit-keyframes zoom{0%{-webkit-transform:scale(1);transform:scale(1)}50%{-webkit-transform:scale(1.2);transform:scale(1.2)}100%{-webkit-transform:scale(1);transform:scale(1)}}@keyframes zoom{0%{-webkit-transform:scale(1);transform:scale(1)}50%{-webkit-transform:scale(1.2);transform:scale(1.2)}100%{-webkit-transform:scale(1);transform:scale(1)}}-webkit-keyframes fade{0%{opacity:1}50%{opacity:0}75%{opacity:1}100%{opacity:1}}@-webkit-keyframes fade{0%{opacity:1}50%{opacity:0}75%{opacity:1}100%{opacity:1}}@keyframes fade{0%{opacity:1}50%{opacity:0}75%{opacity:1}100%{opacity:1}}.fade{animation:fade 6s ease-in-out infinite both;-webkit-animation:fade 6s ease-in-out infinite both;-moz-animation:fade 6s ease-in-out infinite both;-o-animation:fade 6s ease-in-out infinite both}.stroke_1{-webkit-animation:stroke_1 100s infinite linear;animation:stroke_1 100s infinite linear}@-webkit-keyframes stroke_1{100%{stroke-dashoffset:1000}}
</style>
<rect width="800" height="520" fill="#ECECEC"/>
<path d="M340.893 252.39C340.893 266.201 340 472.062 340 472.062H560.268C603.718 472.074 646.195 459.2 682.328 435.07C718.46 410.939 746.626 376.635 763.261 336.496C779.897 296.357 784.256 252.186 775.786 209.57C767.317 166.954 746.4 127.807 715.68 97.0789C684.961 66.3512 645.819 45.4234 603.205 36.9424C560.591 28.4615 516.419 32.8083 476.276 49.4331C436.133 66.0578 401.821 94.2137 377.68 130.34C353.54 166.466 340.655 208.94 340.655 252.39H340.893Z" fill="#FEE600"/>
<g class="rotate">
<path d="M773.716 289.446V279.753L766.451 279.121C766.024 277.605 765.423 276.143 764.661 274.765L769.35 269.183L762.523 262.326L756.958 267.018C755.583 266.25 754.122 265.648 752.604 265.226L751.973 257.956H742.274L741.656 265.226C740.138 265.646 738.676 266.247 737.302 267.018L731.724 262.326L724.872 269.183L729.56 274.765C728.789 276.14 728.184 277.603 727.757 279.121L720.492 279.753V289.446L727.757 290.078C728.184 291.597 728.789 293.059 729.56 294.435L724.833 299.965L731.686 306.822L737.263 302.13C738.637 302.9 740.099 303.502 741.617 303.922L742.235 311.192H751.935L752.566 303.922C754.083 303.499 755.544 302.898 756.92 302.13L762.484 306.822L769.35 299.965L764.661 294.383C765.423 293.004 766.024 291.543 766.451 290.026L773.716 289.446ZM747.091 295.891C744.862 295.894 742.681 295.234 740.826 293.997C738.971 292.759 737.524 290.998 736.669 288.938C735.814 286.877 735.589 284.609 736.023 282.42C736.456 280.231 737.528 278.22 739.104 276.642C740.68 275.063 742.688 273.988 744.875 273.551C747.062 273.115 749.328 273.338 751.389 274.191C753.449 275.044 755.21 276.49 756.449 278.345C757.688 280.2 758.349 282.381 758.349 284.612C758.348 286.094 758.054 287.56 757.486 288.928C756.918 290.295 756.087 291.538 755.039 292.584C753.991 293.63 752.748 294.46 751.38 295.025C750.012 295.59 748.546 295.88 747.066 295.878L747.091 295.891Z" stroke="#263238" stroke-linecap="round" stroke-linejoin="round"/>
</g>
<g class="bottom-top">
<path d="M766.393 112.801C767.421 108.347 767.279 103.701 765.979 99.3176C764.68 94.9343 762.267 90.9627 758.978 87.7899C755.688 84.6171 751.632 82.3515 747.207 81.2138C742.782 80.0761 738.137 80.1052 733.727 81.2982C731.04 76.5298 726.885 72.7581 721.881 70.5453C716.877 68.3325 711.293 67.797 705.96 69.0188C700.628 70.2405 695.833 73.154 692.29 77.325C688.747 81.496 686.645 86.7011 686.299 92.1645C683.495 91.6279 680.611 91.6771 677.827 92.3089C675.043 92.9408 672.42 94.1417 670.122 95.8362C667.824 97.5307 665.901 99.6823 664.473 102.156C663.045 104.63 662.144 107.372 661.825 110.21C658.954 110.513 656.299 111.876 654.379 114.034C652.46 116.192 651.414 118.989 651.446 121.877C651.478 124.766 652.586 127.539 654.554 129.653C656.521 131.768 659.206 133.071 662.083 133.309H759.051C761.425 133.292 763.737 132.545 765.674 131.17C767.61 129.795 769.078 127.858 769.879 125.621C770.68 123.384 770.775 120.955 770.152 118.663C769.528 116.37 768.216 114.324 766.393 112.801V112.801Z" stroke="#263238" stroke-linecap="round" stroke-linejoin="round"/>
<path d="M713.102 124.441V151.188" stroke="#263238" stroke-linecap="round" stroke-linejoin="round"/>
<path d="M713.102 108.406V119.092" stroke="#263238" stroke-linecap="round" stroke-linejoin="round"/>
<path d="M713.102 98.4032V104.126" stroke="#263238" stroke-linecap="round" stroke-linejoin="round"/>
<path d="M708.055 148.068L713.104 154.32L718.153 148.068" stroke="#263238" stroke-linecap="round" stroke-linejoin="round"/>
</g>
<g class="top-bottom">
<path d="M409.353 437.509C410.525 432.418 410.359 427.109 408.872 422.101C407.385 417.093 404.627 412.556 400.867 408.931C397.107 405.306 392.473 402.718 387.416 401.417C382.36 400.117 377.053 400.149 372.012 401.511C368.945 396.059 364.197 391.745 358.478 389.215C352.759 386.684 346.376 386.073 340.281 387.471C334.187 388.869 328.707 392.203 324.661 396.974C320.615 401.745 318.22 407.697 317.833 413.943C316.377 413.664 314.899 413.521 313.417 413.516C307.594 413.511 301.974 415.654 297.63 419.533C293.286 423.413 290.522 428.759 289.867 434.549C286.587 434.892 283.552 436.449 281.357 438.913C279.163 441.377 277.966 444.572 278.001 447.873C278.036 451.174 279.3 454.343 281.546 456.76C283.793 459.177 286.86 460.669 290.147 460.943H401.052C403.762 460.914 406.397 460.054 408.603 458.48C410.809 456.905 412.479 454.692 413.389 452.138C414.299 449.583 414.404 446.812 413.69 444.196C412.976 441.58 411.478 439.246 409.398 437.509H409.353Z" stroke="#263238" stroke-linecap="round" stroke-linejoin="round"/>
<path d="M348.414 455.184V424.636" stroke="#263238" stroke-linecap="round" stroke-linejoin="round"/>
<path d="M348.414 473.521V461.296" stroke="#263238" stroke-linecap="round" stroke-linejoin="round"/>
<path d="M348.414 484.951V478.412" stroke="#263238" stroke-linecap="round" stroke-linejoin="round"/>
<path d="M354.188 428.2L348.418 421.057L342.648 428.2" stroke="#263238" stroke-linecap="round" stroke-linejoin="round"/>
</g>
<path d="M131.37 40.4397H509.164C510.854 40.4397 512.474 41.1113 513.669 42.3069C514.863 43.5024 515.535 45.1239 515.535 46.8146V64.6464H125V46.8146C125 45.1239 125.671 43.5024 126.866 42.3069C128.061 41.1113 129.681 40.4397 131.37 40.4397Z" fill="#0693E3" stroke="#263238" stroke-linecap="round" stroke-linejoin="round"/>
<path d="M536.805 69.1118H142.094V347.067H536.805V69.1118Z" fill="white" stroke="#263238" stroke-linecap="round" stroke-linejoin="round"/>
<path d="M200.115 178.921C190.722 178.921 181.544 178.921 172.366 178.965C171.936 178.965 171.246 179.395 171.16 179.783C170.729 181.377 169.609 181.636 168.187 181.593C166.248 181.55 164.309 181.55 162.37 181.593C160.862 181.593 160.086 180.86 160.043 179.395C160 177.155 160 174.957 160.043 172.717C160.086 170.131 162.241 170.562 163.921 170.347C163.921 159.876 163.921 149.492 163.921 139.151C160 138.547 160 138.547 160 134.497C160 133.722 160 132.903 160 132.127C160 128.077 160 128.077 163.921 127.517C163.921 117.175 163.921 106.791 163.921 96.4068C160 95.8036 160 95.8036 160 91.8394C160 90.3313 160 88.8233 160.043 87.3152C160.086 85.8501 160.819 85.0745 162.327 85.0745C164.481 85.0745 166.679 84.8591 168.79 85.1607C169.867 85.3331 170.815 86.4965 171.806 87.1859C171.72 87.3582 171.634 87.4875 171.505 87.6599C180.984 87.6599 190.42 87.6599 200.115 87.6599C200.288 85.2469 201.882 84.9022 203.907 85.0315C205.415 85.1607 206.923 85.0745 208.431 85.0315C209.94 84.9884 211.103 85.2038 211.577 86.9704C211.663 87.3151 212.525 87.703 213.042 87.703C220.712 87.746 228.382 87.746 236.31 87.746C236.525 85.2038 238.249 84.9453 240.274 85.0745C241.696 85.1607 243.161 85.0745 244.583 85.0745C247.211 85.0745 247.685 85.5485 247.728 88.2631C247.728 89.5558 247.728 90.8484 247.728 92.1411C247.685 95.9329 247.642 95.9759 243.635 96.4068C243.635 97.6133 243.635 98.906 243.635 100.156C243.635 105.024 243.721 109.937 243.592 114.806C243.549 116.572 244.023 117.865 245.531 118.77C246.091 119.114 246.694 119.459 247.039 119.976C247.513 120.752 248.202 121.872 247.944 122.519C247.728 123.165 246.479 123.509 245.617 123.854C245.143 124.027 244.497 123.897 243.807 123.897C243.807 125.19 243.807 126.31 243.807 127.56C244.281 127.646 244.755 127.732 245.229 127.732C247.039 127.775 247.771 128.766 247.728 130.49C247.685 131.912 247.728 133.377 247.728 134.799C247.728 138.547 247.642 138.677 243.807 139.021C243.807 149.363 243.807 159.747 243.807 170.261C244.453 170.347 245.186 170.174 245.66 170.519C246.436 171.079 247.556 171.812 247.642 172.587C247.901 174.871 247.771 177.155 247.728 179.481C247.685 180.86 246.91 181.593 245.531 181.593C243.29 181.593 241.05 181.808 238.852 181.507C237.818 181.377 236.956 180.257 236.008 179.611C236.138 179.395 236.224 179.18 236.353 178.921C230.536 178.921 224.719 178.921 218.945 178.921C217.308 178.921 215.627 178.921 213.99 178.921C212.783 178.921 211.577 178.663 211.232 180.429C211.146 180.947 209.896 181.464 209.164 181.507C207.441 181.679 205.717 181.464 203.993 181.593C201.882 181.722 200.288 181.377 200.115 178.921ZM236.267 175.905C236.87 170.864 236.87 170.864 240.533 170.131C240.533 159.79 240.533 149.406 240.533 139.064C236.396 138.547 236.396 138.547 236.396 134.368C236.396 133.204 236.396 132.084 236.396 130.921C236.439 128.422 236.913 127.905 239.369 127.732C239.714 127.689 240.059 127.646 240.489 127.603C240.489 126.353 240.489 125.19 240.489 123.854C238.637 123.854 236.913 123.94 235.233 123.811C233.983 123.725 233.294 124.242 232.733 125.319C231.053 128.378 229.286 131.438 227.391 134.411C227.003 135.057 225.839 135.66 225.15 135.531C224.504 135.402 223.728 134.411 223.512 133.678C223.082 132.17 222.995 130.576 222.737 129.025C221.401 120.321 219.979 111.617 218.73 102.87C218.6 101.879 219.031 100.371 219.764 99.7677C220.195 99.3799 221.875 99.9832 222.694 100.586C225.322 102.482 227.778 104.594 230.277 106.576C231.182 107.308 232.346 108.084 231.312 109.333C230.321 110.497 229.373 109.506 228.554 108.859C226.399 107.136 224.245 105.412 221.703 103.387C223.125 112.78 224.504 121.614 225.839 130.447C227.606 128.292 228.985 126.181 230.062 123.94C231.182 121.614 232.777 120.709 235.362 120.924C237.861 121.14 240.403 120.967 242.902 120.967C240.36 118.296 237.689 116.228 235.189 114.03C234.629 113.556 234.629 112.479 234.328 111.703C235.189 111.746 236.224 111.531 236.913 111.919C238.119 112.565 239.154 113.556 240.489 114.547C240.489 108.213 240.489 102.31 240.489 96.0621C235.577 97.0532 236.439 93.3476 236.267 90.7192C227.865 90.7192 219.721 90.7192 211.405 90.7192C211.405 91.5809 211.405 92.3134 211.405 93.0028C211.362 95.502 210.801 96.0621 208.388 96.1052C206.579 96.1483 204.812 96.0621 203.002 96.1052C201.02 96.1052 200.115 95.1573 200.202 93.1752C200.245 92.3565 200.202 91.5378 200.202 90.633C190.377 90.633 180.855 90.633 171.246 90.633C171.117 92.098 171.375 93.6923 170.729 94.6833C170.083 95.6743 168.488 96.019 167.066 96.7515C167.066 106.705 167.066 117.046 167.066 127.431C171.031 127.948 171.074 127.991 171.117 132.041C171.117 132.989 171.117 133.894 171.074 134.842C171.031 138.418 170.944 138.504 167.411 138.892C167.282 138.892 167.196 139.064 167.066 139.151C167.066 149.449 167.066 159.747 167.066 169.657C168.488 170.347 170.126 170.648 170.686 171.553C171.375 172.631 171.117 174.268 171.246 175.69C180.941 175.69 190.507 175.69 200.159 175.69C200.159 174.656 200.159 173.794 200.159 172.932C200.115 171.122 201.02 170.304 202.787 170.304C204.812 170.304 206.794 170.304 208.819 170.304C210.629 170.304 211.405 171.209 211.362 173.018C211.362 173.923 211.448 174.828 211.491 175.776C219.936 175.905 228.037 175.905 236.267 175.905ZM162.973 93.1321C164.826 93.1321 166.506 93.1321 168.187 93.1321C168.187 91.3655 168.187 89.7712 168.187 88.1338C166.377 88.1338 164.74 88.1338 162.973 88.1338C162.973 89.8574 162.973 91.4086 162.973 93.1321ZM162.973 135.833C164.783 135.833 166.42 135.833 168.144 135.833C168.144 134.066 168.144 132.472 168.144 130.878C166.334 130.878 164.654 130.878 162.973 130.878C162.973 132.601 162.973 134.152 162.973 135.833ZM162.973 178.534C164.826 178.534 166.506 178.534 168.187 178.534C168.187 176.767 168.187 175.173 168.187 173.535C166.377 173.535 164.74 173.535 162.973 173.535C162.973 175.216 162.973 176.767 162.973 178.534ZM208.431 93.1752C208.431 91.3655 208.431 89.7281 208.431 88.0477C206.665 88.0477 205.071 88.0477 203.39 88.0477C203.39 89.8574 203.39 91.4947 203.39 93.1752C205.157 93.1752 206.708 93.1752 208.431 93.1752ZM244.626 88.0907C242.773 88.0907 241.179 88.0907 239.541 88.0907C239.541 89.8574 239.541 91.4516 239.541 93.1321C241.265 93.1321 242.902 93.1321 244.626 93.1321C244.626 91.4516 244.626 89.8574 244.626 88.0907ZM239.498 135.833C241.351 135.833 242.945 135.833 244.626 135.833C244.626 134.109 244.626 132.515 244.626 130.878C242.816 130.878 241.179 130.878 239.498 130.878C239.498 132.601 239.498 134.109 239.498 135.833ZM208.475 173.535C206.622 173.535 204.941 173.535 203.39 173.535C203.39 175.345 203.39 176.939 203.39 178.534C205.2 178.534 206.794 178.534 208.475 178.534C208.475 176.81 208.475 175.259 208.475 173.535ZM244.669 173.535C242.859 173.535 241.179 173.535 239.585 173.535C239.585 175.302 239.585 176.939 239.585 178.534C241.351 178.534 242.945 178.534 244.669 178.534C244.669 176.853 244.669 175.302 244.669 173.535Z" fill="#303030"/>
<path d="M185.164 115.581C180.813 114.849 180.812 114.849 180.812 110.281C180.812 109.118 180.812 107.998 180.812 106.834C180.812 104.249 181.028 104.034 183.656 103.99C184.217 103.99 184.777 103.99 185.466 103.99C185.552 103.473 185.725 103.086 185.725 102.698C185.897 98.9922 185.854 98.9922 189.516 98.9922C195.032 98.9922 200.59 98.9922 206.105 98.9922C208.734 98.9922 208.949 99.2507 208.992 101.793C208.992 103.732 208.863 105.671 209.035 107.61C209.208 109.807 208.26 110.669 206.149 110.411C205.718 110.368 205.287 110.454 204.684 110.497C204.684 121.441 204.684 132.386 204.684 143.46C209.897 143.46 215.025 143.46 220.152 143.46C220.282 143.33 220.411 143.201 220.454 143.115C221.014 138.978 221.014 138.978 225.366 138.978C226.874 138.978 228.382 138.978 229.89 138.978C231.312 138.978 232.002 139.668 231.959 141.133C231.916 142.425 232.088 143.761 231.872 145.011C231.786 145.614 230.967 146.088 230.494 146.605C230.02 146.088 229.33 145.571 229.158 144.968C228.942 144.106 229.115 143.158 229.115 142.081C227.219 142.081 225.495 142.081 223.729 142.081C223.298 143.373 223.556 144.106 225.107 144.02C226.486 143.933 227.003 144.752 227.003 146.045C227.003 148.415 227.047 150.785 226.96 153.154C226.917 154.576 227.391 155.18 229.115 154.576C229.115 153.758 228.985 152.81 229.158 151.948C229.287 151.388 229.933 150.957 230.364 150.44C230.881 150.914 231.7 151.345 231.829 151.905C232.088 153.068 231.916 154.318 231.959 155.567C232.002 157.119 231.183 157.765 229.718 157.722C228.942 157.722 228.167 157.722 227.003 157.722C227.003 158.67 226.96 159.532 227.003 160.35C227.09 161.988 226.357 162.677 224.72 162.677C212.44 162.634 200.159 162.634 187.879 162.677C185.94 162.677 185.423 161.815 185.423 160.049C185.466 151.302 185.423 142.555 185.423 133.765C185.423 128.249 185.423 122.691 185.423 117.176C185.294 116.615 185.208 116.055 185.164 115.581ZM201.495 115.538C199.858 115.021 199.341 115.538 199.384 116.917C199.427 119.502 199.513 122.088 199.341 124.673C199.297 125.535 198.522 127.043 198.005 127.086C196.411 127.215 196.497 125.75 196.497 124.587C196.497 122.001 196.497 119.416 196.54 116.831C196.54 112.737 196.54 112.737 200.504 112.522C200.633 112.522 200.763 112.393 200.935 112.307C200.935 110.583 200.935 108.859 200.935 107.136C195.161 107.136 189.516 107.136 183.872 107.136C183.872 108.989 183.872 110.669 183.872 112.307C188.224 112.996 188.224 112.996 188.224 117.348C188.224 130.791 188.224 144.192 188.224 157.636C188.224 158.239 188.31 158.885 188.353 159.488C200.289 159.488 212.095 159.488 223.858 159.488C223.858 155.223 223.858 151.172 223.858 146.993C222.005 146.993 220.325 146.993 218.386 146.993C218.386 147.811 218.343 148.501 218.386 149.233C218.472 150.741 217.826 151.474 216.231 151.431C210.328 151.388 204.468 151.474 198.565 151.345C197.876 151.345 196.669 150.44 196.669 149.923C196.54 144.106 196.54 138.289 196.626 132.472C196.626 131.998 197.574 131.524 198.091 131.05C198.522 131.524 199.082 131.955 199.341 132.515C199.556 132.903 199.384 133.506 199.384 134.023C199.384 138.246 199.427 142.512 199.341 146.734C199.297 148.156 199.771 148.63 201.193 148.587C205.373 148.501 209.509 148.587 213.689 148.501C214.249 148.501 214.852 147.855 215.413 147.51C214.852 147.165 214.249 146.562 213.689 146.562C210.457 146.476 207.226 146.476 203.994 146.519C202.141 146.562 201.452 145.829 201.452 143.977C201.538 138.461 201.495 132.903 201.495 127.388C201.495 123.466 201.495 119.545 201.495 115.538ZM204.253 107.351C205.502 107.782 206.149 107.438 206.062 106.016C206.019 105.24 206.019 104.421 206.062 103.646C206.149 102.353 205.675 101.879 204.339 101.879C199.599 101.922 194.902 101.922 190.163 101.879C188.698 101.879 188.181 102.353 188.784 103.947C192.533 103.947 196.324 103.947 200.073 103.947C203.693 103.99 203.693 103.99 204.253 107.351Z" fill="#0693E3"/>
<path d="M542.856 52.528C542.856 53.7175 542.503 54.8802 541.843 55.8692C541.182 56.8582 540.244 57.6291 539.146 58.0843C538.048 58.5395 536.839 58.6586 535.673 58.4265C534.508 58.1945 533.437 57.6217 532.596 56.7806C531.756 55.9395 531.183 54.8679 530.951 53.7013C530.72 52.5347 530.839 51.3254 531.293 50.2265C531.748 49.1276 532.519 48.1883 533.507 47.5275C534.495 46.8666 535.657 46.5139 536.846 46.5139C538.44 46.5139 539.968 47.1475 541.095 48.2754C542.222 49.4033 542.856 50.933 542.856 52.528Z" fill="white" stroke="#263238" stroke-linecap="round" stroke-linejoin="round"/>
<path d="M521.574 52.528C521.574 53.7175 521.222 54.8802 520.562 55.8692C519.901 56.8582 518.963 57.6291 517.864 58.0843C516.766 58.5395 515.558 58.6586 514.392 58.4265C513.226 58.1945 512.155 57.6217 511.315 56.7806C510.474 55.9395 509.902 54.8679 509.67 53.7013C509.438 52.5347 509.557 51.3254 510.012 50.2265C510.467 49.1276 511.237 48.1883 512.226 47.5275C513.214 46.8666 514.376 46.5139 515.565 46.5139C517.158 46.5139 518.687 47.1475 519.814 48.2754C520.941 49.4033 521.574 50.933 521.574 52.528Z" fill="white" stroke="#263238" stroke-linecap="round" stroke-linejoin="round"/>
<path d="M500.254 52.528C500.254 53.7175 499.902 54.8802 499.241 55.8692C498.581 56.8582 497.642 57.6291 496.544 58.0843C495.446 58.5395 494.238 58.6586 493.072 58.4265C491.906 58.1945 490.835 57.6217 489.995 56.7806C489.154 55.9395 488.582 54.8679 488.35 53.7013C488.118 52.5347 488.237 51.3254 488.692 50.2265C489.147 49.1276 489.917 48.1883 490.905 47.5275C491.894 46.8666 493.056 46.5139 494.244 46.5139C495.838 46.5139 497.367 47.1475 498.494 48.2754C499.621 49.4033 500.254 50.933 500.254 52.528Z" fill="white" stroke="#263238" stroke-linecap="round" stroke-linejoin="round"/>
<path d="M524.852 81.0347H509.227" stroke="#263238" stroke-width="2" stroke-linecap="round" stroke-linejoin="round"/>
<path d="M524.852 87.3796H509.227" stroke="#263238" stroke-width="2" stroke-linecap="round" stroke-linejoin="round"/>
<path d="M524.852 93.7244H509.227" stroke="#263238" stroke-width="2" stroke-linecap="round" stroke-linejoin="round"/>
<path d="M420.258 72.2391V72.9909" stroke="#263238" stroke-linecap="round" stroke-linejoin="round"/>
<g class="stroke_1">
<path d="M420.258 77.5015V339.46" stroke="#263238" stroke-linecap="round" stroke-linejoin="round" stroke-dasharray="1 3"/>
</g>
<path d="M420.258 341.715V342.467" stroke="#263238" stroke-linecap="round" stroke-linejoin="round"/>
<path d="M146.844 284.731H147.595" stroke="#263238" stroke-linecap="round" stroke-linejoin="round"/>
<g class="stroke_1">
<path d="M152.094 284.731H527.769" stroke="#263238" stroke-linecap="round" stroke-linejoin="round" stroke-dasharray="1 2.99"/>
</g>
<path d="M530.023 284.731H530.775" stroke="#263238" stroke-linecap="round" stroke-linejoin="round"/>
<path d="M422.863 282.13H417.68V287.318H422.863V282.13Z" fill="white" stroke="#263238" stroke-linecap="round" stroke-linejoin="round"/>
<path d="M399.578 234.905H330.375" stroke="#263238" stroke-linecap="round" stroke-linejoin="round"/>
<path d="M400.914 266.93C400.914 266.93 400.914 234.74 364.976 234.74C329.037 234.74 328.977 266.93 328.977 266.93" stroke="#263238" stroke-linecap="round" stroke-linejoin="round"/>
<path d="M400.91 269.967C402.586 269.967 403.945 268.607 403.945 266.93C403.945 265.252 402.586 263.893 400.91 263.893C399.234 263.893 397.875 265.252 397.875 266.93C397.875 268.607 399.234 269.967 400.91 269.967Z" fill="#0693E3" stroke="#263238" stroke-linecap="round" stroke-linejoin="round"/>
<path d="M325.969 266.93C325.969 266.335 326.145 265.754 326.475 265.259C326.805 264.765 327.275 264.379 327.824 264.152C328.373 263.924 328.977 263.864 329.56 263.981C330.143 264.097 330.678 264.383 331.098 264.803C331.519 265.224 331.805 265.76 331.921 266.343C332.037 266.926 331.977 267.531 331.75 268.081C331.522 268.63 331.137 269.1 330.643 269.43C330.149 269.76 329.568 269.937 328.974 269.937C328.177 269.937 327.412 269.62 326.849 269.056C326.285 268.492 325.969 267.727 325.969 266.93Z" fill="#0693E3" stroke="#263238" stroke-linecap="round" stroke-linejoin="round"/>
<path d="M398.252 237.401H403.57V232.078H398.252V237.401Z" fill="#0693E3" stroke="#263238" stroke-linecap="round" stroke-linejoin="round"/>
<path d="M362.314 237.401H367.633V232.078H362.314V237.401Z" fill="#0693E3" stroke="#263238" stroke-linecap="round" stroke-linejoin="round"/>
<path d="M326.377 237.401H331.695V232.078H326.377V237.401Z" fill="#0693E3" stroke="#263238" stroke-linecap="round" stroke-linejoin="round"/>
<path d="M435.102 302.413H493.292" stroke="#263238" stroke-width="2" stroke-linecap="round" stroke-linejoin="round"/>
<path d="M435.102 311.75H493.292" stroke="#263238" stroke-width="2" stroke-linecap="round" stroke-linejoin="round"/>
<path d="M435.102 321.252H468.276" stroke="#263238" stroke-width="2" stroke-linecap="round" stroke-linejoin="round"/>
<path d="M358.444 325.131H327.809C325.817 325.131 323.906 324.339 322.497 322.929C321.088 321.519 320.297 319.607 320.297 317.613C320.297 315.62 321.088 313.708 322.497 312.298C323.906 310.888 325.817 310.096 327.809 310.096H358.444C360.437 310.096 362.348 310.888 363.756 312.298C365.165 313.708 365.957 315.62 365.957 317.613C365.957 319.607 365.165 321.519 363.756 322.929C362.348 324.339 360.437 325.131 358.444 325.131Z" fill="#0693E3" stroke="#263238" stroke-linecap="round" stroke-linejoin="round"/>
<path d="M415.53 325.131H384.895C382.903 325.131 380.992 324.339 379.583 322.929C378.174 321.519 377.383 319.607 377.383 317.613C377.383 315.62 378.174 313.708 379.583 312.298C380.992 310.888 382.903 310.096 384.895 310.096H415.53C417.523 310.096 419.433 310.888 420.842 312.298C422.251 313.708 423.043 315.62 423.043 317.613C423.043 319.607 422.251 321.519 420.842 322.929C419.433 324.339 417.523 325.131 415.53 325.131Z" fill="#0693E3" stroke="#263238" stroke-linecap="round" stroke-linejoin="round"/>
<path d="M531.007 172.253C531.007 172.344 529.609 171.549 526.946 170.71C523.184 169.536 519.204 169.228 515.305 169.808C512.631 170.221 510.038 171.055 507.625 172.28C504.883 173.749 502.344 175.569 500.072 177.695C497.599 179.879 495.136 182.361 492.302 184.653C489.411 187.124 486.027 188.951 482.375 190.013C480.489 190.511 478.523 190.631 476.591 190.365C474.729 190.083 472.92 189.526 471.221 188.714C468.117 187.098 465.104 185.312 462.197 183.362C459.613 181.638 456.758 180.36 453.75 179.581C451.122 178.939 448.406 178.729 445.71 178.958C441.783 179.298 437.986 180.533 434.61 182.568C432.227 184.021 431.108 185.113 431 185.041C431.233 184.743 431.503 184.477 431.803 184.247C432.608 183.522 433.472 182.864 434.384 182.279C437.238 180.435 440.433 179.183 443.78 178.597C447.127 178.011 450.557 178.103 453.868 178.868C456.959 179.645 459.899 180.932 462.567 182.676C465.446 184.59 468.429 186.344 471.501 187.929C474.765 189.602 478.523 190.045 482.087 189.174C485.648 188.167 488.956 186.42 491.797 184.048C494.594 181.801 497.058 179.337 499.576 177.144C501.909 174.99 504.516 173.152 507.328 171.676C510.372 170.165 513.685 169.274 517.076 169.054C520.467 168.834 523.868 169.289 527.082 170.394C528.108 170.74 529.104 171.169 530.06 171.676C530.393 171.838 530.711 172.031 531.007 172.253Z" fill="#0693E3"/>
<path d="M461.081 191.61H450.352V220.642H461.081V191.61Z" fill="#0693E3"/>
<path d="M506.636 191.61H495.906V220.642H506.636V191.61Z" fill="#263238"/>
<path d="M521.816 174.555H511.086V220.633H521.816V174.555Z" fill="#0693E3"/>
<path d="M447.191 211.5H436.461V221.273H447.191V211.5Z" fill="#263238"/>
<path d="M476.278 204.714H465.539V220.633H476.278V204.714Z" fill="#263238"/>
<path d="M491.449 201.059H480.719V220.633H491.449V201.059Z" fill="#0693E3"/>
<path d="M461.519 224.062C461.519 224.297 458.92 224.495 455.717 224.495C452.513 224.495 449.914 224.297 449.914 224.062C449.914 223.827 452.513 223.629 455.717 223.629C458.92 223.629 461.519 223.818 461.519 224.062Z" fill="#263238"/>
<path d="M448.168 224.062C448.168 224.297 445.569 224.495 442.365 224.495C439.162 224.495 436.562 224.297 436.562 224.062C436.562 223.827 439.162 223.629 442.365 223.629C445.569 223.629 448.168 223.818 448.168 224.062Z" fill="#263238"/>
<path d="M523.933 224.062C523.933 224.297 521 224.495 517.381 224.495C513.762 224.495 510.82 224.297 510.82 224.062C510.82 223.827 513.753 223.629 517.381 223.629C521.009 223.629 523.933 223.818 523.933 224.062Z" fill="#263238"/>
<path d="M501.434 224.495C505.053 224.495 507.986 224.301 507.986 224.062C507.986 223.823 505.053 223.629 501.434 223.629C497.816 223.629 494.883 223.823 494.883 224.062C494.883 224.301 497.816 224.495 501.434 224.495Z" fill="#263238"/>
<path d="M491.457 224.062C491.457 224.297 488.858 224.495 485.654 224.495C482.451 224.495 479.852 224.297 479.852 224.062C479.852 223.827 482.451 223.629 485.654 223.629C488.858 223.629 491.457 223.818 491.457 224.062Z" fill="#263238"/>
<path d="M475.76 224.062C475.76 224.297 473.17 224.495 469.967 224.495C466.763 224.495 464.164 224.297 464.164 224.062C464.164 223.827 466.763 223.629 469.967 223.629C473.17 223.629 475.76 223.818 475.76 224.062Z" fill="#263238"/>
<path d="M464.838 90.0258V105.196L458.152 111.887H442.992V90.0258H464.838Z" fill="white" stroke="#263238" stroke-linecap="round" stroke-linejoin="round"/>
<path d="M464.842 105.196L458.156 111.887V105.196H464.842Z" fill="white" stroke="#263238" stroke-linecap="round" stroke-linejoin="round"/>
<path d="M149.97 300.819V315.99L143.284 322.68H128.109V300.819H149.97Z" fill="white" stroke="#263238" stroke-linecap="round" stroke-linejoin="round"/>
<path d="M149.975 315.99L143.289 322.68V315.99H149.975Z" fill="white" stroke="#263238" stroke-linecap="round" stroke-linejoin="round"/>

<path d="M601.311 112H519.539V119.793H601.311V112Z" fill="#0693E3" stroke="#263238" stroke-linecap="round" stroke-linejoin="round"/>
<g class="fade">
    <path d="M293.772 318H212V369.284H293.772V318Z" fill="#E0F4FF" stroke="#263238" stroke-linecap="round" stroke-linejoin="round"/>
    <path d="M293.772 318.342H212V326.134H293.772V318.342Z" fill="#0693E3" stroke="#263238" stroke-linecap="round" stroke-linejoin="round"/>
</g>
<path d="M425.701 208.038C418.416 208.658 409.176 199.949 409.176 199.949C408.999 200.132 408.781 200.271 408.541 200.356C408.301 200.44 408.044 200.467 407.792 200.435C407.539 200.403 407.297 200.313 407.086 200.171C406.874 200.029 406.699 199.84 406.573 199.618C405.389 197.909 400.252 193.954 399.963 190.537C399.674 187.119 405.733 181.579 405.733 181.579C401.065 182.847 400.569 180.105 400.569 180.105C400.569 180.105 408.432 173.614 411.186 173.435C412.26 173.366 416.942 176.067 421.473 179.705C426.21 183.523 435.106 196.958 435.106 196.958C435.106 196.958 465.195 218.828 472.796 224.423C482.835 231.809 494.733 244.914 494.733 244.914C494.733 244.914 534.668 262.939 545.685 272.847L530.785 308.153C530.785 308.153 494.472 283.802 490.85 277.629C487.228 271.455 483.593 275.162 479.957 271.125C476.322 267.087 472.838 262.47 472.838 262.47C466.372 259.346 460.504 255.111 455.5 249.958C447.018 241.235 439.54 227.909 434.844 219.889C432.413 215.498 429.33 211.503 425.701 208.038Z" fill="#FFBE9D" stroke="#263238" stroke-linecap="round" stroke-linejoin="round"/>
<path d="M427.917 202.884C427.917 202.884 417.079 200.252 416.143 193.1C415.729 191.287 414.936 189.582 413.815 188.098C413.815 188.098 403.708 187.601 404.341 183.481L417.836 182.282C422.749 184.171 426.885 187.655 429.583 192.177" fill="#FFBE9D"/>
<path d="M427.917 202.884C427.917 202.884 417.079 200.252 416.143 193.1C415.729 191.287 414.936 189.582 413.815 188.098C413.815 188.098 403.708 187.601 404.341 183.481L417.836 182.282C422.749 184.171 426.885 187.655 429.583 192.177" stroke="#263238" stroke-linecap="round" stroke-linejoin="round"/>
<path d="M409.164 199.949C409.645 199.055 409.805 198.024 409.618 197.027C409.618 197.027 412.593 196.476 412.262 193.844C412.262 193.844 416.669 193.307 413.819 188.098" stroke="#263238" stroke-linecap="round" stroke-linejoin="round"/>
<path d="M412.26 193.844C412.26 193.844 406.325 189.448 405.664 187.436" stroke="#263238" stroke-linecap="round" stroke-linejoin="round"/>
<path d="M409.618 197.027C409.618 197.027 403.298 193.169 403.188 190.922" stroke="#263238" stroke-linecap="round" stroke-linejoin="round"/>
<path d="M411.062 177.211C411.062 177.211 409.051 180.822 405.719 181.579" stroke="#263238" stroke-linecap="round" stroke-linejoin="round"/>
<path d="M410.062 178.617C411.119 179.169 412.116 179.829 413.037 180.587" stroke="#263238" stroke-linecap="round" stroke-linejoin="round"/>
<path d="M640.875 300.67C625.293 294.07 609.22 288.698 592.802 284.602C568.621 278.938 529.457 273.88 529.457 273.88C529.457 273.88 540.225 383.848 537.389 390.463C534.552 397.077 517.531 419.291 517.531 419.291C517.531 419.291 609.644 455.231 625.7 458.29C641.757 461.349 633.384 405.58 633.384 405.58C633.384 405.58 650.35 334.693 640.875 300.67Z" fill="#263238"/>
<path d="M607.807 288.86C607.807 288.86 609.997 292.994 604.241 295.158C589.327 300.67 573.436 295.805 575.129 289.962C575.777 287.73 579.467 289.962 579.261 281.694C579.159 280.42 578.818 279.176 578.255 278.029C577.203 275.792 575.935 273.665 574.468 271.676C572.877 269.462 571.171 267.332 569.359 265.295C569.359 265.295 593.031 250.137 610.589 265.295C610.561 265.227 604.034 268.534 607.807 288.86Z" fill="#FFBE9D" stroke="#263238" stroke-linecap="round" stroke-linejoin="round"/>
<path d="M637.137 484.721C627.814 499.879 580.512 507.059 554.692 506.384C528.872 505.708 454.579 470.555 449.539 463.058C444.871 456.168 433.4 433.334 451.081 419.539C452.581 418.38 454.175 417.348 455.846 416.453C467.95 409.893 548.454 430.578 548.454 430.578C548.454 430.578 553.439 427.422 555.27 427.656C560.889 428.373 564.91 432.92 576.257 436.159C584.203 438.432 605.891 429.696 619.745 437.206C621.282 438.029 622.7 439.058 623.959 440.265C636.903 452.64 646.446 469.521 637.137 484.721Z" fill="#0693E3"/>
<path opacity="0.3" d="M619.742 437.206C605.544 436.255 592.889 439.232 584.048 444.454C573.569 450.656 524.077 474.509 524.077 474.509C524.187 471.946 526.941 466.779 526.941 466.779C522.286 462.645 510.113 459.406 510.113 459.406C500.68 451.345 463.293 427.298 451.078 419.539C452.578 418.38 454.172 417.348 455.843 416.453C467.947 409.893 548.451 430.578 548.451 430.578C548.451 430.578 553.436 427.422 555.267 427.656C560.886 428.373 564.907 432.92 576.254 436.159C584.241 438.432 605.888 429.696 619.742 437.206Z" fill="black" fill-opacity="0.7"/>
<path d="M637.137 484.721C627.814 499.879 580.512 507.059 554.692 506.384C528.872 505.708 454.579 470.555 449.539 463.058C444.871 456.168 433.4 433.334 451.081 419.539C452.581 418.38 454.175 417.348 455.846 416.453C467.95 409.893 548.454 430.578 548.454 430.578C548.454 430.578 553.439 427.422 555.27 427.656C560.889 428.373 564.91 432.92 576.257 436.159C584.203 438.432 605.891 429.696 619.745 437.206C621.282 438.029 622.7 439.058 623.959 440.265C636.903 452.64 646.446 469.521 637.137 484.721Z" stroke="#263238" stroke-linecap="round" stroke-linejoin="round"/>
<path d="M622.618 498.446L623.803 503.641C623.803 503.641 620.636 512.626 606.713 514.101C592.791 515.575 584.543 518.648 577.795 519.048C574.268 519.326 570.722 519.271 567.205 518.882L565.828 516.843L622.618 498.446Z" fill="white" stroke="#263238" stroke-linecap="round" stroke-linejoin="round"/>
<path d="M541.773 497.895L565.9 516.843C577.528 515.848 589.082 514.118 600.492 511.661C611.921 509.016 621.905 505.226 622.442 500.017C623.282 492.107 614.827 489.943 604.788 490.247C602.915 490.247 600.987 490.44 599.046 490.633C582.975 492.355 562.54 483.48 562.54 483.48L541.773 497.895Z" fill="#263238"/>
<path opacity="0.3" d="M622.456 499.824C617.772 501.568 613.278 503.784 609.043 506.439C609.043 506.439 586.638 517.973 552.198 506.094L541.773 497.895L562.54 483.467C562.54 483.467 582.962 492.355 599.046 490.619C600.987 490.412 602.915 490.274 604.788 490.233C614.758 489.93 623.145 492.052 622.456 499.824Z" fill="black" fill-opacity="0.7"/>
<path d="M541.773 497.895L565.9 516.843C577.528 515.848 589.082 514.118 600.492 511.661V511.661C611.921 509.016 621.905 505.226 622.442 500.017C623.282 492.107 614.827 489.943 604.788 490.247C602.915 490.247 600.987 490.44 599.046 490.633C582.975 492.355 562.54 483.48 562.54 483.48L541.773 497.895Z" stroke="#263238" stroke-linecap="round" stroke-linejoin="round"/>
<path d="M564.264 505.364C559.912 506.067 564.691 515.01 570.585 512.254C576.479 509.498 568.615 504.647 564.264 505.364Z" fill="white"/>
<path opacity="0.2" d="M572.43 510.834C569.278 510.45 566.148 509.903 563.053 509.195C562.226 507.445 562.419 505.653 564.264 505.364C567.914 504.757 574.055 508.134 572.43 510.834Z" fill="black" fill-opacity="0.7"/>
<path d="M564.264 505.364C559.912 506.067 564.691 515.01 570.585 512.254C576.479 509.498 568.615 504.647 564.264 505.364Z" stroke="#263238" stroke-linecap="round" stroke-linejoin="round"/>
<path d="M600.491 511.648C611.921 509.002 621.905 505.212 622.442 500.003C623.282 492.093 614.827 489.93 604.788 490.233C604.347 490.66 594.611 500.072 600.491 511.648Z" fill="white"/>
<path opacity="0.3" d="M622.453 499.824C617.769 501.568 613.275 503.784 609.04 506.439C606.022 507.835 602.858 508.894 599.607 509.594C595.752 498.984 604.372 490.633 604.785 490.233C614.755 489.93 623.141 492.052 622.453 499.824Z" fill="black" fill-opacity="0.7"/>
<path d="M600.491 511.648C611.921 509.002 621.905 505.212 622.442 500.003C623.282 492.093 614.827 489.93 604.788 490.233C604.347 490.66 594.611 500.072 600.491 511.648Z" stroke="#263238" stroke-linecap="round" stroke-linejoin="round"/>
<path d="M592.344 501.822H592.413C592.57 501.83 592.726 501.806 592.874 501.752C593.021 501.698 593.156 501.616 593.272 501.51C593.387 501.403 593.48 501.275 593.545 501.132C593.611 500.989 593.647 500.835 593.652 500.678C594.043 497.292 595.488 494.115 597.784 491.597C597.894 491.487 597.982 491.356 598.042 491.212C598.102 491.067 598.133 490.913 598.133 490.756C598.133 490.6 598.102 490.446 598.042 490.301C597.982 490.157 597.894 490.026 597.784 489.916C597.56 489.695 597.258 489.572 596.944 489.572C596.629 489.572 596.328 489.695 596.104 489.916C593.403 492.846 591.727 496.575 591.325 500.541C591.298 500.844 591.388 501.147 591.578 501.386C591.768 501.625 592.042 501.781 592.344 501.822Z" fill="white" stroke="#263238" stroke-linecap="round" stroke-linejoin="round"/>
<path d="M587.567 502.139H587.664C587.82 502.143 587.976 502.115 588.122 502.058C588.268 502.001 588.401 501.916 588.514 501.807C588.627 501.698 588.717 501.568 588.779 501.424C588.841 501.28 588.874 501.125 588.875 500.968C589.149 497.527 590.422 494.241 592.538 491.515C592.654 491.396 592.744 491.254 592.802 491.098C592.861 490.943 592.886 490.777 592.877 490.611C592.868 490.445 592.824 490.283 592.749 490.135C592.674 489.987 592.569 489.856 592.441 489.751C592.312 489.646 592.164 489.568 592.004 489.523C591.844 489.478 591.677 489.467 591.513 489.491C591.348 489.514 591.191 489.571 591.05 489.659C590.908 489.746 590.787 489.862 590.693 489.999C588.235 493.135 586.772 496.937 586.493 500.913C586.481 501.216 586.586 501.512 586.786 501.74C586.986 501.968 587.265 502.111 587.567 502.139Z" fill="white" stroke="#263238" stroke-linecap="round" stroke-linejoin="round"/>
<path d="M581.848 501.505C582.004 501.521 582.161 501.505 582.31 501.459C582.46 501.413 582.599 501.338 582.719 501.238C582.839 501.138 582.939 501.015 583.011 500.877C583.084 500.738 583.129 500.586 583.143 500.431C583.514 496.296 587.067 490.881 587.108 490.784C587.283 490.518 587.346 490.195 587.284 489.883C587.222 489.571 587.04 489.296 586.778 489.117C586.514 488.943 586.193 488.88 585.884 488.942C585.574 489.004 585.302 489.186 585.125 489.448C584.96 489.682 581.187 495.359 580.76 500.155C580.739 500.316 580.751 500.479 580.795 500.635C580.839 500.791 580.914 500.937 581.015 501.063C581.117 501.189 581.243 501.294 581.386 501.37C581.53 501.446 581.687 501.492 581.848 501.505Z" fill="white" stroke="#263238" stroke-linecap="round" stroke-linejoin="round"/>
<path d="M576.446 500.94C576.551 500.954 576.657 500.954 576.762 500.94C576.918 500.915 577.066 500.859 577.2 500.776C577.333 500.693 577.449 500.584 577.54 500.456C577.631 500.328 577.695 500.183 577.73 500.029C577.764 499.876 577.768 499.717 577.74 499.562C576.9 494.491 581.61 490.15 581.651 490.109C581.807 489.888 581.884 489.622 581.869 489.352C581.855 489.083 581.75 488.826 581.572 488.623C581.393 488.421 581.152 488.284 580.886 488.236C580.621 488.188 580.347 488.231 580.109 488.359C579.875 488.565 574.38 493.609 575.44 499.989C575.491 500.232 575.614 500.452 575.794 500.622C575.974 500.792 576.201 500.903 576.446 500.94Z" fill="white" stroke="#263238" stroke-linecap="round" stroke-linejoin="round"/>
<path d="M570.581 499.521C570.709 499.541 570.839 499.541 570.967 499.521C571.263 499.448 571.521 499.266 571.688 499.009C571.854 498.753 571.916 498.443 571.862 498.143C570.829 493.623 575.277 488.496 575.332 488.496C575.539 488.258 575.643 487.948 575.622 487.633C575.601 487.319 575.458 487.025 575.222 486.815C575.106 486.711 574.97 486.63 574.822 486.578C574.675 486.526 574.518 486.504 574.362 486.513C574.206 486.522 574.053 486.562 573.912 486.63C573.771 486.699 573.646 486.794 573.542 486.912C573.322 487.16 568.227 492.989 569.535 498.722C569.611 498.943 569.751 499.138 569.937 499.28C570.123 499.422 570.347 499.506 570.581 499.521Z" fill="white" stroke="#263238" stroke-linecap="round" stroke-linejoin="round"/>
<path d="M446.534 490.674L444.812 495.717C444.812 495.717 447.016 504.992 460.704 507.913C474.392 510.835 482.269 514.803 488.879 515.878C492.358 516.519 495.889 516.833 499.427 516.815L501.011 514.927L446.534 490.674Z" fill="white" stroke="#263238" stroke-linecap="round" stroke-linejoin="round"/>
<path d="M526.943 498.625L500.971 514.927C489.51 512.718 478.201 509.786 467.109 506.149C456.024 502.318 446.453 497.495 446.453 492.259C446.453 484.294 455.087 483.04 465.044 484.39C466.903 484.638 468.803 484.983 470.717 485.382C486.512 488.786 507.76 482.103 507.76 482.103L526.943 498.625Z" fill="#263238"/>
<path opacity="0.3" d="M526.952 498.625L511.68 508.271C499.296 504.422 488.437 496.771 480.641 486.402C489.846 486.199 498.984 484.767 507.81 482.144L526.952 498.625Z" fill="black" fill-opacity="0.7"/>
<path d="M526.943 498.625L500.971 514.927C489.51 512.718 478.201 509.786 467.109 506.149V506.149C456.024 502.318 446.453 497.495 446.453 492.259C446.453 484.294 455.087 483.04 465.044 484.39C466.903 484.638 468.803 484.983 470.717 485.382C486.512 488.786 507.76 482.103 507.76 482.103L526.943 498.625Z" stroke="#263238" stroke-linecap="round" stroke-linejoin="round"/>
<path d="M467.109 506.135C456.024 502.304 446.453 497.481 446.453 492.245C446.453 484.28 455.087 483.026 465.044 484.376C465.484 484.845 474.174 495.249 467.109 506.135Z" fill="white" stroke="#263238" stroke-linecap="round" stroke-linejoin="round"/>
<path d="M476.257 497.22H476.188C475.871 497.198 475.576 497.054 475.365 496.817C475.153 496.58 475.044 496.269 475.059 495.952C475.037 492.55 473.943 489.242 471.933 486.499C471.816 486.378 471.725 486.234 471.667 486.077C471.609 485.919 471.585 485.751 471.596 485.583C471.608 485.416 471.654 485.252 471.732 485.104C471.81 484.955 471.919 484.824 472.051 484.721C472.183 484.617 472.335 484.542 472.498 484.5C472.661 484.459 472.83 484.453 472.996 484.481C473.161 484.51 473.319 484.573 473.458 484.667C473.598 484.76 473.716 484.882 473.806 485.024C476.182 488.206 477.458 492.076 477.441 496.048C477.437 496.36 477.311 496.658 477.089 496.877C476.868 497.097 476.569 497.22 476.257 497.22Z" fill="white" stroke="#263238" stroke-linecap="round" stroke-linejoin="round"/>
<path d="M480.966 498.005H480.856C480.54 497.977 480.248 497.825 480.044 497.582C479.84 497.339 479.741 497.026 479.768 496.71C479.866 493.266 478.951 489.868 477.138 486.939C477.047 486.809 476.983 486.662 476.949 486.507C476.916 486.352 476.913 486.192 476.941 486.036C476.969 485.88 477.028 485.731 477.113 485.597C477.199 485.464 477.31 485.349 477.44 485.258C477.571 485.168 477.717 485.104 477.872 485.07C478.027 485.036 478.187 485.034 478.343 485.062C478.499 485.09 478.648 485.148 478.782 485.234C478.915 485.32 479.03 485.431 479.12 485.561C481.248 488.935 482.304 492.875 482.15 496.861C482.136 497.167 482.005 497.456 481.785 497.669C481.565 497.882 481.272 498.002 480.966 498.005Z" fill="white" stroke="#263238" stroke-linecap="round" stroke-linejoin="round"/>
<path d="M486.72 498.005C486.404 497.998 486.103 497.867 485.881 497.64C485.66 497.414 485.536 497.109 485.536 496.792C485.619 492.589 482.644 486.898 482.603 486.843C482.457 486.559 482.429 486.23 482.524 485.925C482.62 485.621 482.831 485.366 483.113 485.217C483.394 485.071 483.721 485.044 484.023 485.139C484.325 485.235 484.577 485.446 484.724 485.727C484.861 485.975 488.015 492.011 487.932 496.834C487.925 497.149 487.794 497.449 487.567 497.669C487.34 497.888 487.036 498.009 486.72 498.005Z" fill="white" stroke="#263238" stroke-linecap="round" stroke-linejoin="round"/>
<path d="M492.141 498.005H491.824C491.52 497.918 491.262 497.715 491.107 497.438C490.952 497.162 490.913 496.836 490.998 496.531C492.375 491.584 488.147 486.76 488.106 486.719C487.986 486.605 487.892 486.468 487.828 486.315C487.764 486.163 487.732 485.999 487.735 485.834C487.737 485.669 487.773 485.506 487.842 485.355C487.91 485.205 488.009 485.07 488.131 484.96C488.254 484.849 488.398 484.765 488.555 484.713C488.712 484.661 488.877 484.642 489.042 484.657C489.206 484.672 489.366 484.721 489.51 484.801C489.655 484.881 489.782 484.99 489.882 485.121C490.089 485.355 495.032 490.95 493.297 497.178C493.216 497.421 493.061 497.631 492.853 497.779C492.645 497.928 492.396 498.007 492.141 498.005Z" fill="white" stroke="#263238" stroke-linecap="round" stroke-linejoin="round"/>
<path d="M498.133 497.219C498.001 497.225 497.869 497.201 497.747 497.151C497.597 497.103 497.458 497.025 497.339 496.922C497.22 496.819 497.122 496.693 497.053 496.551C496.983 496.409 496.943 496.255 496.935 496.098C496.926 495.94 496.95 495.783 497.003 495.635C498.504 491.253 494.607 485.699 494.58 485.644C494.467 485.518 494.382 485.37 494.331 485.209C494.279 485.048 494.262 484.878 494.281 484.71C494.3 484.542 494.354 484.38 494.439 484.234C494.525 484.089 494.641 483.963 494.778 483.865C494.916 483.767 495.073 483.7 495.239 483.667C495.404 483.634 495.575 483.637 495.74 483.675C495.904 483.713 496.059 483.785 496.194 483.887C496.328 483.989 496.44 484.118 496.521 484.266C496.714 484.528 501.162 490.867 499.276 496.434C499.188 496.666 499.032 496.866 498.828 497.006C498.623 497.147 498.381 497.221 498.133 497.219Z" fill="white" stroke="#263238" stroke-linecap="round" stroke-linejoin="round"/>
<path d="M503.79 503.682C508.045 504.854 502.413 513.191 496.781 509.884C491.148 506.576 499.548 502.525 503.79 503.682Z" fill="white" stroke="#263238" stroke-linecap="round" stroke-linejoin="round"/>
<path d="M454.688 459.42C461.063 468.363 479.971 478.244 498.754 486.388C502.113 491.956 506.075 497.137 510.569 501.836C522.164 513.77 526.887 507.086 526.887 507.086C526.887 507.086 534.213 506.26 545.023 504.785C545.473 505.834 546.258 506.705 547.254 507.261C548.251 507.817 549.403 508.027 550.532 507.858C551.909 507.638 554.663 505.626 557.706 502.966C585.013 498.832 622.07 491.942 632.068 483.921" fill="#0693E3"/>
<path d="M454.688 459.42C461.063 468.363 479.971 478.244 498.754 486.388C502.113 491.956 506.075 497.137 510.569 501.836C522.164 513.77 526.887 507.086 526.887 507.086C526.887 507.086 534.213 506.26 545.023 504.785C545.473 505.834 546.258 506.705 547.254 507.261C548.251 507.817 549.403 508.027 550.532 507.858C551.909 507.638 554.663 505.626 557.706 502.966C585.013 498.832 622.07 491.942 632.068 483.921" stroke="#263238" stroke-linecap="round" stroke-linejoin="round"/>
<path d="M621.424 442.387C616.701 437.192 611.977 436.958 602.062 437.661C602.062 437.661 576.187 445.929 558.134 456.802C540.08 467.674 513.751 479.209 513.751 479.209C513.751 479.209 505.722 476.88 500.132 479.209C500.132 479.209 496.207 479.512 498.837 486.374" stroke="#263238" stroke-linecap="round" stroke-linejoin="round"/>
<path d="M633.428 473.435C633.428 473.435 633.566 481.441 622.219 486.981" stroke="#263238" stroke-linecap="round" stroke-linejoin="round"/>
<path d="M508.281 440.031C508.281 440.031 526.183 452.984 529.777 461.528C533.296 463.012 536.693 464.768 539.94 466.779" stroke="#263238" stroke-linecap="round" stroke-linejoin="round"/>
<path d="M531.078 450.793C532.391 454.517 532.611 458.538 531.712 462.383" stroke="#263238" stroke-linecap="round" stroke-linejoin="round"/>
<path d="M526.938 442.387C527.913 443.807 528.77 445.305 529.499 446.866" stroke="#263238" stroke-linecap="round" stroke-linejoin="round"/>
<path d="M552.445 441.202C552.445 441.202 558.436 449.222 559.923 455.727" stroke="#263238" stroke-linecap="round" stroke-linejoin="round"/>
<path d="M585.812 489.654C588.041 489.523 590.258 489.247 592.45 488.827" stroke="#263238" stroke-linecap="round" stroke-linejoin="round"/>
<path d="M529.609 483.908C546.584 487.272 563.803 489.25 581.098 489.82" stroke="#263238" stroke-linecap="round" stroke-linejoin="round"/>
<path d="M650.779 362.392C650.779 362.392 647.543 418.892 643.728 422.13C639.914 425.369 633.896 426.375 622.508 427.325C611.119 428.276 560.746 431.363 560.746 431.363L555.32 415.171C555.32 415.171 582.104 412.415 593.988 408.074C602.948 405.009 612.115 402.587 621.42 400.826C621.42 400.826 619.161 386.618 619.161 380.5V351.726" fill="#FFBE9D"/>
<path d="M650.779 362.392C650.779 362.392 647.543 418.892 643.728 422.13C639.914 425.369 633.896 426.375 622.508 427.325C611.119 428.276 560.746 431.363 560.746 431.363L555.32 415.171C555.32 415.171 582.104 412.415 593.988 408.074C602.948 405.009 612.115 402.587 621.42 400.826C621.42 400.826 619.161 386.618 619.161 380.5V351.726" stroke="#263238" stroke-linecap="round" stroke-linejoin="round"/>
<path d="M640.864 300.67C653.134 308.235 656.756 325.722 652.514 363.054C652.514 363.054 656.136 367.463 650.779 369.668C650.779 369.668 630.715 362.158 621.392 367.339C612.07 372.521 614.507 360.187 614.507 360.187C614.507 360.187 610.665 325.846 619.162 319.632" fill="#263238"/>
<path d="M618.038 314.381C618.038 314.381 606.236 326.659 616.661 357.693C616.003 360.226 615.542 362.806 615.283 365.41C615.283 367.491 618.134 368.566 618.134 368.566" stroke="white" stroke-linecap="round" stroke-linejoin="round"/>
<path d="M604.242 335.176C604.242 335.176 605.096 350.334 614.488 356.907" stroke="white" stroke-linecap="round" stroke-linejoin="round"/>
<path d="M607.272 299.981C607.272 299.981 588.97 306.995 574.415 299.223C565.781 294.62 569.333 287.22 569.333 287.22" stroke="white" stroke-linecap="round" stroke-linejoin="round"/>
<path d="M475.666 442.415H575.283C577.533 442.416 579.773 442.124 581.948 441.547L601.599 436.393C601.87 436.323 602.111 436.164 602.283 435.942C602.455 435.72 602.549 435.447 602.549 435.166C602.549 434.826 602.414 434.5 602.174 434.26C601.934 434.02 601.608 433.885 601.268 433.885H471.548C471.211 433.888 470.889 434.025 470.651 434.265C470.414 434.505 470.281 434.829 470.281 435.166V437.027C470.281 438.456 470.849 439.826 471.858 440.837C472.868 441.847 474.238 442.415 475.666 442.415Z" fill="#EFEFEF" stroke="#263238" stroke-linecap="round" stroke-linejoin="round"/>
<path d="M465.816 437.454H565.709C566.1 437.472 566.49 437.393 566.843 437.223C567.196 437.053 567.501 436.799 567.732 436.482C567.962 436.165 568.111 435.796 568.164 435.408C568.217 435.019 568.173 434.624 568.036 434.257L549.515 362.144C549.266 361.259 548.748 360.474 548.032 359.898C547.316 359.323 546.438 358.985 545.521 358.933H445.601C445.209 358.918 444.819 358.999 444.467 359.171C444.114 359.342 443.809 359.598 443.579 359.916C443.349 360.233 443.2 360.603 443.147 360.992C443.094 361.38 443.137 361.776 443.274 362.144L461.809 434.257C462.057 435.144 462.577 435.929 463.296 436.503C464.016 437.077 464.897 437.41 465.816 437.454Z" fill="#CBCBCB" stroke="#263238" stroke-linecap="round" stroke-linejoin="round"/>
<path d="M449.121 361.496H447.234" stroke="#263238" stroke-linecap="round" stroke-linejoin="round"/>
<path d="M463.765 361.496H454.016" stroke="#263238" stroke-linecap="round" stroke-linejoin="round"/>
<path d="M563.286 428.345L546.927 364.707C546.681 363.823 546.165 363.039 545.452 362.463C544.738 361.887 543.862 361.549 542.947 361.496H465.969" stroke="#263238" stroke-linecap="round" stroke-linejoin="round"/>
<path d="M564.702 433.885L564.289 432.3" stroke="#263238" stroke-linecap="round" stroke-linejoin="round"/>
<path fill-rule="evenodd" clip-rule="evenodd" d="M496 407C496 407 496.041 397.629 496.041 397H496.03C496.03 395.022 496.615 393.089 497.713 391.444C498.81 389.799 500.37 388.518 502.194 387.761C504.019 387.004 506.027 386.806 507.964 387.192C509.901 387.578 511.68 388.531 513.076 389.93C514.473 391.329 515.423 393.111 515.808 395.051C515.868 395.349 515.913 395.649 515.945 395.949L505.612 395.995L505.621 398.054L515.949 398.009C515.851 398.973 515.614 399.924 515.239 400.829C514.483 402.656 513.203 404.218 511.56 405.316C509.918 406.414 507.987 407.001 506.012 407H496ZM515.996 397.292C516.002 397.068 516.001 396.844 515.993 396.62L515.996 397.292Z" fill="#0693E3"/>
<path d="M539.943 264.868C531.295 263.931 526.585 255.704 521.38 254.423C518.476 253.727 515.631 252.805 512.87 251.666C512.87 251.666 511.08 245.41 508.394 247.532C505.709 249.654 502.184 296.453 505.64 294.978C509.097 293.504 509.11 299.03 509.11 299.03L541.21 327.335L568.118 279.654C568.118 279.654 548.591 265.819 539.943 264.868Z" fill="#263238"/>
<path d="M278.375 98.2217V97.5327H279.064" stroke="#263238" stroke-linecap="round" stroke-linejoin="round"/>
<path d="M401.617 97.5327H402.306V98.2217" stroke="#263238" stroke-linecap="round" stroke-linejoin="round"/>
<path d="M402.306 179.526V180.215H401.617" stroke="#263238" stroke-linecap="round" stroke-linejoin="round"/>
<path d="M279.064 180.215H278.375V179.526" stroke="#263238" stroke-linecap="round" stroke-linejoin="round"/>
<g class="stroke_1">
    <path d="M283.109 97.5327H399.61" stroke="#263238" stroke-linecap="round" stroke-linejoin="round" stroke-dasharray="0.98 2.93"/>
    <path d="M402.32 102.356V177.459" stroke="#263238" stroke-linecap="round" stroke-linejoin="round" stroke-dasharray="1 3"/>
    <path d="M397.578 180.215H281.078" stroke="#263238" stroke-linecap="round" stroke-linejoin="round" stroke-dasharray="0.98 2.93"/>
    <path d="M278.383 175.392V100.289" stroke="#263238" stroke-linecap="round" stroke-linejoin="round" stroke-dasharray="1 3"/>
</g>
<path d="M340.351 99.5723C341.476 99.5723 342.389 98.6592 342.389 97.5328C342.389 96.4064 341.476 95.4933 340.351 95.4933C339.225 95.4933 338.312 96.4064 338.312 97.5328C338.312 98.6592 339.225 99.5723 340.351 99.5723Z" fill="#0693E3" stroke="#263238" stroke-linecap="round" stroke-linejoin="round"/>
<path d="M278.382 140.913C279.507 140.913 280.42 140 280.42 138.874C280.42 137.748 279.507 136.834 278.382 136.834C277.256 136.834 276.344 137.748 276.344 138.874C276.344 140 277.256 140.913 278.382 140.913Z" fill="#0693E3" stroke="#263238" stroke-linecap="round" stroke-linejoin="round"/>
<path d="M340.351 182.255C341.476 182.255 342.389 181.342 342.389 180.215C342.389 179.089 341.476 178.176 340.351 178.176C339.225 178.176 338.312 179.089 338.312 180.215C338.312 181.342 339.225 182.255 340.351 182.255Z" fill="#0693E3" stroke="#263238" stroke-linecap="round" stroke-linejoin="round"/>
<path d="M402.319 140.913C403.445 140.913 404.357 140 404.357 138.874C404.357 137.748 403.445 136.834 402.319 136.834C401.194 136.834 400.281 137.748 400.281 138.874C400.281 140 401.194 140.913 402.319 140.913Z" fill="#0693E3" stroke="#263238" stroke-linecap="round" stroke-linejoin="round"/>
<path d="M404.688 177.845H399.938V182.599H404.688V177.845Z" fill="#0693E3" stroke="#263238" stroke-linecap="round" stroke-linejoin="round"/>
<path d="M404.688 95.1625H399.938V99.9167H404.688V95.1625Z" fill="#0693E3" stroke="#263238" stroke-linecap="round" stroke-linejoin="round"/>
<path d="M280.751 177.845H276V182.599H280.751V177.845Z" fill="#0693E3" stroke="#263238" stroke-linecap="round" stroke-linejoin="round"/>
<path d="M280.751 95.1625H276V99.9167H280.751V95.1625Z" fill="#0693E3" stroke="#263238" stroke-linecap="round" stroke-linejoin="round"/>
<path d="M394.475 104.85H286.609V173.435H394.475V104.85Z" fill="white" stroke="#263238" stroke-linecap="round" stroke-linejoin="round"/>
<path d="M394.475 153.178L382.481 165.181L350.037 132.714L336.39 146.37L314.633 124.597L286.609 152.627V173.435H394.475V153.178Z" fill="#0693E3" stroke="#263238" stroke-linecap="round" stroke-linejoin="round"/>
<path d="M372.123 131.942C376.329 131.942 379.738 128.53 379.738 124.322C379.738 120.113 376.329 116.701 372.123 116.701C367.917 116.701 364.508 120.113 364.508 124.322C364.508 128.53 367.917 131.942 372.123 131.942Z" fill="#0693E3" stroke="#263238" stroke-linecap="round" stroke-linejoin="round"/>
<path d="M545.685 277.519C545.685 277.519 537.423 292.911 536.445 316.462" stroke="white" stroke-linecap="round" stroke-linejoin="round"/>
<path d="M521.391 288.171C521.391 288.171 523.856 301.262 531.03 310.743" stroke="white" stroke-linecap="round" stroke-linejoin="round"/>
<path d="M555.32 342.19C555.32 342.19 567.714 382.925 594.636 394.914" stroke="white" stroke-linecap="round" stroke-linejoin="round"/>
<path d="M587.933 268.451C587.933 268.451 586.762 277.339 578.224 277.96C577.172 275.723 575.904 273.596 574.438 271.607C578.871 270.294 583.377 269.24 587.933 268.451Z" fill="#263238"/>
<path d="M606.127 269.071C606.127 269.071 620.407 270.821 626.384 251.639C632.36 232.457 627.664 218.001 604.034 211.042C590.924 207.183 577.869 210.284 573.091 220.22C569.042 228.722 570.957 235.791 570.034 238.644C568.987 241.841 559.32 244.556 559.32 246.747C559.32 248.552 564.677 251.639 564.677 251.639L563.107 256.407L564.581 257.192C564.581 257.192 561.827 267.927 563.107 271.717C564.016 274.473 588.211 275.631 590.098 268.768" fill="#FFBE9D"/>
<path d="M606.127 269.071C606.127 269.071 620.407 270.821 626.384 251.639C632.36 232.457 627.664 218.001 604.034 211.042C590.924 207.183 577.869 210.284 573.091 220.22C569.042 228.722 570.957 235.791 570.034 238.644C568.987 241.841 559.32 244.556 559.32 246.747C559.32 248.552 564.677 251.639 564.677 251.639L563.107 256.407L564.581 257.192C564.581 257.192 561.827 267.927 563.107 271.717C564.016 274.473 588.211 275.631 590.098 268.768" stroke="#263238" stroke-linecap="round" stroke-linejoin="round"/>
<path d="M573.227 227.179C573.227 227.179 577.95 228.364 579.244 230.844" stroke="#263238" stroke-linecap="round" stroke-linejoin="round"/>
<path d="M574.047 238.079C573.841 239.457 574.158 240.656 574.764 240.739C575.369 240.821 576.003 239.774 576.209 238.382C576.416 236.99 576.086 235.805 575.493 235.723C574.901 235.64 574.254 236.687 574.047 238.079Z" fill="#263238"/>
<path d="M564.578 257.193C564.578 257.193 572.262 260.142 575.126 258.364" stroke="#263238" stroke-linecap="round" stroke-linejoin="round"/>
<path d="M567.275 236.977C566.711 240.063 567.399 242.764 568.818 243.026C570.236 243.288 571.861 241.014 572.426 237.941C572.99 234.868 572.315 232.14 570.883 231.878C569.451 231.616 567.854 233.904 567.275 236.977Z" stroke="#263238" stroke-linecap="round" stroke-linejoin="round"/>
<path d="M627.012 221.281C625.862 215.697 622.657 210.749 618.033 207.418C612.879 203.796 606.978 201.38 600.765 200.348C600.765 200.348 605.323 202.346 607.058 204.978C607.058 204.978 595.256 196.104 581.238 201.933C567.219 207.762 568.968 222.907 568.968 222.907L571.006 218.938C571.006 218.938 570.772 223.665 573.251 225.401C573.994 223.086 575.006 220.865 576.267 218.786C576.267 218.786 579.985 229.962 590.216 233.752C589.521 231.99 589.463 230.04 590.051 228.24C590.051 228.24 595.725 240.518 594.072 246.513L595.876 249.655C595.876 249.655 602.39 243.054 607.691 248.552C610.735 251.722 601.866 263.711 600.599 263.711L605.956 271.579C605.956 271.579 619.341 273.495 627.053 258.984C634.765 244.473 632.878 238.313 632.878 238.313C632.878 238.313 635.398 241.841 635.632 243.825C635.66 243.798 637.946 228.212 627.012 221.281Z" fill="#263238"/>
<path d="M595.523 251.046C595.523 251.046 599.655 237.156 608.44 242.048C617.226 246.94 610.96 254.354 607.807 257.206C604.653 260.059 602.299 265.24 600.247 265.24C598.195 265.24 597.741 262.719 597.741 262.719" fill="#FFBE9D"/>
<path d="M595.523 251.046C595.523 251.046 599.655 237.156 608.44 242.048C617.226 246.94 610.96 254.354 607.807 257.206C604.653 260.059 602.299 265.24 600.247 265.24C598.195 265.24 597.741 262.719 597.741 262.719" stroke="#263238" stroke-linecap="round" stroke-linejoin="round"/>
<path d="M572.43 237.941L596.942 243.026" stroke="#263238" stroke-linecap="round" stroke-linejoin="round"/>
<g class="top-bottom">
<path d="M100.311 94H36.808C36.0644 94.0034 35.3521 94.3005 34.8262 94.8268C34.3003 95.353 34.0034 96.0658 34 96.81V126.457C34.0034 127.2 34.3008 127.912 34.827 128.436C35.3532 128.96 36.0655 129.254 36.808 129.254H65.275L68.521 140.855L71.7798 129.254H100.311C101.054 129.254 101.766 128.96 102.292 128.436C102.818 127.912 103.116 127.2 103.119 126.457V96.81C103.116 96.0658 102.819 95.353 102.293 94.8268C101.767 94.3005 101.055 94.0034 100.311 94Z" fill="#E0F4FF" stroke="#263238" stroke-linecap="round" stroke-linejoin="round"/>
<path d="M44.5391 102.482H92.5206" stroke="#263238" stroke-width="2" stroke-linecap="round" stroke-linejoin="round"/>
<path d="M44.5391 108.566H92.5206" stroke="#263238" stroke-width="2" stroke-linecap="round" stroke-linejoin="round"/>
<path d="M44.5391 114.65H92.5206" stroke="#263238" stroke-width="2" stroke-linecap="round" stroke-linejoin="round"/>
<path d="M44.5391 120.734H80.6959" stroke="#263238" stroke-width="2" stroke-linecap="round" stroke-linejoin="round"/>
</g>
<g class="zoom">
<path d="M601.311 112H519.539V163.284H601.311V112Z" fill="#E0F4FF" stroke="#263238" stroke-linecap="round" stroke-linejoin="round"/>

<path d="M550.49 125H570.51C573.546 125 576 127.454 576 130.49V149.735C576 152.771 573.546 155.225 570.51 155.225H550.49C547.454 155.225 545 152.771 545 149.735V130.49C545 127.454 547.454 125 550.49 125Z" fill="#330000"/>
<path d="M559.984 143.084H555.179L554.197 146.119C554.171 146.235 554.068 146.313 553.952 146.3H551.523C551.381 146.3 551.343 146.222 551.381 146.067L555.54 134.094C555.579 133.965 555.618 133.822 555.67 133.667C555.721 133.396 555.747 133.112 555.747 132.828C555.734 132.763 555.786 132.699 555.85 132.686H559.196C559.299 132.686 559.351 132.725 559.364 132.789L564.078 146.093C564.117 146.235 564.078 146.3 563.949 146.3H561.25C561.159 146.313 561.069 146.248 561.043 146.158L559.984 143.084ZM555.928 140.462H559.209C559.131 140.19 559.028 139.867 558.912 139.532C558.795 139.183 558.679 138.808 558.563 138.421C558.434 138.02 558.318 137.633 558.188 137.232C558.059 136.832 557.943 136.457 557.84 136.083C557.736 135.721 557.646 135.385 557.555 135.075H557.53C557.413 135.631 557.271 136.186 557.09 136.742C556.897 137.362 556.703 138.007 556.496 138.653C556.315 139.312 556.122 139.919 555.928 140.462ZM566.959 134.946C566.533 134.959 566.119 134.791 565.809 134.494C565.512 134.171 565.357 133.745 565.37 133.306C565.357 132.867 565.525 132.453 565.835 132.156C566.145 131.859 566.558 131.704 566.985 131.704C567.488 131.704 567.876 131.859 568.16 132.156C568.444 132.466 568.599 132.88 568.586 133.306C568.599 133.745 568.444 134.171 568.134 134.494C567.837 134.804 567.398 134.972 566.959 134.946ZM565.512 146.158V136.212C565.512 136.083 565.564 136.031 565.68 136.031H568.238C568.354 136.031 568.405 136.096 568.405 136.212V146.158C568.405 146.3 568.354 146.365 568.238 146.365H565.706C565.577 146.365 565.512 146.287 565.512 146.158Z" fill="#FF9A00"/>
</g>
<path fill-rule="evenodd" clip-rule="evenodd" d="M20 500C20 500 20.0508 488.286 20.0508 487.5H20.0373C20.0373 485.028 20.7705 482.611 22.1441 480.555C23.5178 478.499 25.4702 476.897 27.7545 475.951C30.0388 475.005 32.5523 474.758 34.9771 475.24C37.402 475.723 39.6293 476.914 41.3773 478.662C43.1253 480.411 44.3155 482.638 44.7975 485.063C44.8715 485.436 44.9284 485.811 44.9681 486.187L32.0312 486.243L32.0425 488.818L44.9735 488.761C44.8512 489.967 44.5537 491.154 44.0848 492.286C43.1382 494.57 41.5355 496.522 39.4794 497.895C37.4234 499.268 35.0063 500.001 32.5339 500H20ZM45.0299 487.928C45.0409 487.607 45.0396 487.285 45.0257 486.963L45.0299 487.928Z" fill="#0693E3"/>
<path d="M53.4453 481.775H55.8403V493.232H53.4453V481.775Z" fill="black"/>
<path d="M57.5469 484.722H59.8673V486.118H59.9148C60.3517 485.142 61.2257 484.546 62.5096 484.546C64.3829 484.546 65.4466 485.745 65.4466 487.737V493.232H63.1295V488.215C63.1295 487.103 62.6045 486.467 61.5645 486.467C60.5245 486.467 59.8707 487.229 59.8707 488.34V493.232H57.5503L57.5469 484.722Z" fill="black"/>
<path d="M66.7578 487.5C66.7578 483.808 68.8716 481.585 72.2117 481.585C74.9929 481.585 76.9848 483.337 77.2084 485.769V485.84H74.8743L74.8405 485.705C74.7349 485.094 74.4077 484.543 73.9214 484.158C73.4352 483.773 72.824 483.581 72.205 483.618C70.3723 483.618 69.1968 485.092 69.1968 487.49C69.1968 489.902 70.3723 491.396 72.205 491.396C72.8344 491.423 73.4522 491.22 73.942 490.824C74.4318 490.428 74.7598 489.866 74.8642 489.245L74.8811 489.163H77.2151V489.251C76.9916 491.687 74.9827 493.428 72.2117 493.428C68.8615 493.432 66.7578 491.192 66.7578 487.5Z" fill="black"/>
<path d="M78.5156 484.722H80.8327V486.206H80.8801C81.1342 485.159 81.8252 484.546 82.8178 484.546C83.0465 484.546 83.2742 484.575 83.4953 484.634V486.666C83.2236 486.576 82.9381 486.534 82.6518 486.541C81.5102 486.541 80.8429 487.219 80.8429 488.462V493.225H78.5258L78.5156 484.722Z" fill="black"/>
<path d="M83.8281 488.994C83.8281 486.284 85.4236 484.556 87.9169 484.556C90.4101 484.556 91.9819 486.25 91.9819 488.821V489.536H86.1215C86.1452 490.891 86.8837 491.687 88.0659 491.687C89.0212 491.687 89.6005 491.162 89.7597 490.671L89.7766 490.623H91.904L91.8803 490.711C91.6161 491.965 90.444 493.421 88.0117 493.421C85.4101 493.408 83.8281 491.714 83.8281 488.994ZM86.1384 488.062H89.7529C89.6073 486.887 88.9196 486.277 87.9575 486.277C86.9955 486.277 86.2909 486.927 86.1384 488.062Z" fill="black"/>
<path d="M92.8438 490.796C92.8438 489.248 94.0429 488.344 96.1568 488.208L98.2604 488.079V487.558C98.2604 486.802 97.7658 486.335 96.8614 486.335C95.9569 486.335 95.4725 486.738 95.3607 487.287V487.358H93.2401V487.263C93.3688 485.691 94.717 484.553 96.9664 484.553C99.2157 484.553 100.588 485.688 100.588 487.402V493.239H98.2706V491.968H98.2231C97.9738 492.41 97.6078 492.775 97.1651 493.023C96.7224 493.271 96.22 493.392 95.713 493.374C93.9955 493.364 92.8438 492.297 92.8438 490.796ZM96.4582 491.677C97.4982 491.677 98.2604 490.999 98.2604 490.119V489.509L96.5057 489.621C95.608 489.675 95.1507 490.058 95.1507 490.661C95.1405 491.304 95.6554 491.67 96.4582 491.67V491.677Z" fill="black"/>
<path d="M102.667 490.85V486.467H101.484V484.722H102.667V482.642H105.007V484.722H106.566V486.467H105.007V490.596C105.007 491.389 105.366 491.66 106.064 491.66C106.232 491.657 106.4 491.644 106.566 491.619V493.313C106.195 493.372 105.82 493.401 105.444 493.401C103.544 493.408 102.667 492.686 102.667 490.85Z" fill="black"/>
<path d="M107.813 482.419C107.806 482.172 107.873 481.929 108.005 481.721C108.138 481.512 108.329 481.348 108.555 481.249C108.781 481.15 109.032 481.121 109.274 481.165C109.517 481.209 109.741 481.325 109.918 481.497C110.095 481.67 110.216 481.891 110.266 482.132C110.316 482.374 110.293 482.625 110.2 482.854C110.107 483.082 109.948 483.277 109.743 483.415C109.538 483.552 109.296 483.625 109.049 483.625C108.889 483.627 108.729 483.598 108.58 483.539C108.431 483.48 108.295 483.391 108.18 483.279C108.065 483.167 107.973 483.033 107.91 482.886C107.847 482.738 107.814 482.579 107.813 482.419ZM107.891 484.722H110.208V493.232H107.891V484.722Z" fill="black"/>
<path d="M111.055 484.722H113.534L115.313 491.182H115.36L117.115 484.722H119.534L116.614 493.232H114.002L111.055 484.722Z" fill="black"/>
<path d="M119.758 488.994C119.758 486.284 121.353 484.556 123.847 484.556C126.34 484.556 127.912 486.25 127.912 488.821V489.536H122.051C122.075 490.891 122.813 491.687 123.999 491.687C124.951 491.687 125.53 491.162 125.693 490.671L125.71 490.623H127.837L127.813 490.711C127.553 491.965 126.377 493.421 123.945 493.421C121.34 493.408 119.758 491.714 119.758 488.994ZM122.068 488.062H125.683C125.54 486.887 124.849 486.277 123.887 486.277C122.925 486.277 122.221 486.927 122.068 488.062Z" fill="black"/>
<path d="M128.672 481.775H129.807L132.341 491.599H132.364L135.142 481.775H136.229L139.007 491.599H139.031L141.565 481.775H142.7L139.549 493.232H138.533L135.698 483.56H135.674L132.839 493.232H131.822L128.672 481.775Z" fill="black"/>
<path d="M142.664 489.126C142.664 486.538 144.124 484.831 146.333 484.831C148.541 484.831 149.927 486.484 149.927 488.953V489.363H143.728C143.758 491.335 144.815 492.453 146.438 492.453C147.654 492.453 148.494 491.843 148.765 490.945L148.782 490.874H149.822L149.805 490.952C149.52 492.364 148.203 493.391 146.417 493.391C144.1 493.384 142.664 491.741 142.664 489.126ZM143.741 488.523H148.873C148.751 486.721 147.735 485.762 146.323 485.762C144.91 485.762 143.87 486.768 143.741 488.523Z" fill="black"/>
<path d="M152.487 491.487H152.463V493.232H151.406V481.775H152.463V486.697H152.487C152.712 486.135 153.103 485.655 153.608 485.321C154.112 484.986 154.707 484.813 155.312 484.824C157.378 484.824 158.798 486.518 158.798 489.096C158.798 491.677 157.385 493.377 155.305 493.377C154.698 493.389 154.103 493.214 153.599 492.876C153.095 492.538 152.707 492.053 152.487 491.487ZM157.717 489.116C157.717 487.083 156.701 485.783 155.105 485.783C153.567 485.783 152.456 487.138 152.456 489.116C152.456 491.111 153.551 492.459 155.105 492.459C156.66 492.459 157.717 491.145 157.717 489.102V489.116Z" fill="black"/>
<path d="M109.068 483.713C109.766 483.713 110.332 483.147 110.332 482.449C110.332 481.751 109.766 481.186 109.068 481.186C108.37 481.186 107.805 481.751 107.805 482.449C107.805 483.147 108.37 483.713 109.068 483.713Z" fill="#308FCE"/>
<path fill-rule="evenodd" clip-rule="evenodd" d="M108.692 480.82C108.041 480.82 107.513 481.348 107.513 481.999C107.513 482.65 108.041 483.177 108.692 483.177C109.343 483.177 109.871 482.65 109.871 481.999C109.871 481.348 109.343 480.82 108.692 480.82ZM107.344 481.999C107.344 481.254 107.947 480.65 108.692 480.65C109.437 480.65 110.04 481.254 110.04 481.999C110.04 482.743 109.437 483.347 108.692 483.347C107.947 483.347 107.344 482.743 107.344 481.999Z" fill="#FCE13F"/>
<path d="M157.617 483.035C158.717 483.035 159.609 482.143 159.609 481.043C159.609 479.943 158.717 479.052 157.617 479.052C156.517 479.052 155.625 479.943 155.625 481.043C155.625 482.143 156.517 483.035 157.617 483.035Z" fill="#FEE500"/>
<path d="M156.768 480.728H156.398V480.511H157.384V480.728H157.022V481.765H156.761L156.768 480.728Z" fill="#231F20"/>
<path d="M157.531 480.511H157.836L158.192 481.413L158.548 480.511H158.852V481.765H158.619V480.915L158.28 481.765H158.114L157.775 480.915V481.765H157.541L157.531 480.511Z" fill="#231F20"/>
<g clip-path="url(#clip0_1265_6)" class="fade" style="animation-delay: 1s;">
    <path d="M196.827 227H168.173C166.421 227 165 228.421 165 230.173V258.827C165 260.579 166.421 262 168.173 262H196.827C198.579 262 200 260.579 200 258.827V230.173C200 228.421 198.579 227 196.827 227Z" fill="#DC395F"/>
    <path d="M176.696 238.012C177.86 238.012 178.835 237.1 178.835 235.905C178.835 234.71 177.86 233.799 176.696 233.799C175.533 233.799 174.559 234.71 174.559 235.905C174.559 237.1 175.533 238.012 176.696 238.012ZM172.263 249.294C172.138 249.829 172.074 250.406 172.074 250.877C172.074 252.732 173.081 253.964 175.219 253.964C176.992 253.964 178.43 252.911 179.465 251.21L178.833 253.747H182.354L184.366 245.675C184.869 243.632 185.844 242.571 187.322 242.571C188.485 242.571 189.208 243.294 189.208 244.489C189.208 244.835 189.177 245.212 189.051 245.621L188.014 249.331C187.856 249.865 187.794 250.4 187.794 250.903C187.794 252.664 188.831 253.952 191.001 253.952C192.856 253.952 194.333 252.758 195.151 249.897L193.768 249.363C193.076 251.28 192.478 251.626 192.007 251.626C191.535 251.626 191.283 251.312 191.283 250.684C191.283 250.401 191.347 250.087 191.441 249.708L192.447 246.094C192.698 245.245 192.793 244.492 192.793 243.801C192.793 241.097 191.158 239.686 189.177 239.686C187.322 239.686 185.435 241.359 184.492 243.12L185.184 239.959H179.807L179.053 242.743H181.568L180.019 248.945C178.803 251.649 176.568 251.693 176.288 251.63C175.828 251.526 175.533 251.351 175.533 250.753C175.533 250.408 175.596 249.912 175.753 249.314L178.112 239.959H172.138L171.383 242.743H173.867L172.263 249.294" fill="white"/>
</g>
<g clip-path="url(#clip1_1265_6)" class="fade" style="animation-delay: 2s;">
    <path d="M228.521 262C231.741 262 234.354 259.387 234.354 256.167V250.334H228.521C225.301 250.334 222.688 252.947 222.688 256.167C222.688 259.387 225.301 262 228.521 262Z" fill="#0ACF83"/>
    <path d="M222.688 244.5C222.688 241.28 225.301 238.666 228.521 238.666H234.354V250.333H228.521C225.301 250.333 222.688 247.72 222.688 244.5Z" fill="#A259FF"/>
    <path d="M222.688 232.833C222.688 229.613 225.301 227 228.521 227H234.354V238.667H228.521C225.301 238.667 222.688 236.053 222.688 232.833Z" fill="#F24E1E"/>
    <path d="M234.352 227H240.185C243.405 227 246.018 229.613 246.018 232.833C246.018 236.053 243.405 238.667 240.185 238.667H234.352V227Z" fill="#FF7262"/>
    <path d="M246.018 244.5C246.018 247.72 243.405 250.333 240.185 250.333C236.965 250.333 234.352 247.72 234.352 244.5C234.352 241.28 236.965 238.666 240.185 238.666C243.405 238.666 246.018 241.28 246.018 244.5Z" fill="#1ABCFE"/>
</g>
<g clip-path="url(#clip2_1265_6)" class="fade" style="animation-delay: 3s;">
    <path d="M274.198 227.441H296.802C300.229 227.441 303 230.212 303 233.639V255.368C303 258.795 300.229 261.566 296.802 261.566H274.198C270.771 261.566 268 258.795 268 255.368V233.639C268 230.212 270.771 227.441 274.198 227.441Z" fill="#470137"/>
    <path d="M286.407 236.41L282.032 243.629L286.699 251.285C286.728 251.343 286.743 251.402 286.728 251.46C286.714 251.518 286.655 251.475 286.568 251.489H283.228C282.995 251.489 282.834 251.475 282.732 251.329C282.426 250.716 282.105 250.118 281.799 249.506C281.493 248.908 281.157 248.295 280.807 247.668C280.457 247.041 280.107 246.414 279.757 245.773H279.728C279.422 246.4 279.086 247.027 278.751 247.654C278.416 248.281 278.08 248.908 277.759 249.52C277.424 250.133 277.089 250.76 276.753 251.358C276.695 251.504 276.578 251.518 276.418 251.518H273.209C273.151 251.518 273.107 251.548 273.107 251.475C273.093 251.416 273.107 251.358 273.136 251.314L277.672 243.877L273.253 236.395C273.209 236.337 273.195 236.279 273.224 236.25C273.253 236.206 273.311 236.191 273.37 236.191H276.68C276.753 236.191 276.826 236.206 276.884 236.22C276.943 236.25 276.986 236.293 277.03 236.352C277.307 236.979 277.628 237.606 277.964 238.233C278.314 238.86 278.649 239.473 279.014 240.085C279.364 240.698 279.684 241.31 279.991 241.937H280.02C280.326 241.295 280.647 240.668 280.968 240.056C281.289 239.443 281.624 238.831 281.959 238.218C282.295 237.606 282.616 236.979 282.936 236.381C282.951 236.323 282.98 236.264 283.024 236.235C283.082 236.206 283.141 236.191 283.214 236.206H286.291C286.364 236.191 286.436 236.235 286.451 236.308C286.466 236.323 286.436 236.381 286.407 236.41ZM293.145 251.795C292.066 251.81 290.986 251.591 290.009 251.139C289.091 250.716 288.332 250.016 287.807 249.156C287.268 248.266 287.005 247.158 287.005 245.831C286.991 244.752 287.268 243.687 287.807 242.754C288.361 241.806 289.164 241.018 290.126 240.493C291.147 239.925 292.372 239.648 293.816 239.648C293.889 239.648 293.991 239.648 294.122 239.662C294.253 239.677 294.399 239.677 294.574 239.691V235.083C294.574 234.981 294.618 234.923 294.72 234.923H297.68C297.753 234.908 297.811 234.966 297.826 235.025V248.937C297.826 249.2 297.841 249.491 297.855 249.812C297.884 250.118 297.899 250.41 297.914 250.658C297.914 250.76 297.87 250.848 297.768 250.891C297.009 251.212 296.207 251.445 295.391 251.591C294.647 251.723 293.903 251.795 293.145 251.795ZM294.574 248.879V242.462C294.443 242.433 294.311 242.404 294.18 242.389C294.02 242.375 293.859 242.36 293.699 242.36C293.13 242.36 292.561 242.477 292.051 242.739C291.555 242.987 291.132 243.352 290.811 243.818C290.491 244.285 290.33 244.912 290.33 245.67C290.316 246.181 290.403 246.691 290.578 247.173C290.724 247.566 290.943 247.916 291.234 248.208C291.511 248.47 291.847 248.675 292.226 248.791C292.62 248.923 293.028 248.981 293.436 248.981C293.655 248.981 293.859 248.966 294.049 248.952C294.239 248.966 294.399 248.937 294.574 248.879Z" fill="#FF61F6"/>
</g>
<defs>
<clipPath id="clip0_1265_6">
<rect width="35" height="35" fill="white" transform="translate(165 227)"/>
</clipPath>
<clipPath id="clip1_1265_6">
<rect width="35" height="35" fill="white" transform="translate(217 227)"/>
</clipPath>
<clipPath id="clip2_1265_6">
<rect width="35" height="35" fill="white" transform="translate(268 227)"/>
</clipPath>
</defs>
</svg>
