<svg width="155" height="45" viewBox="0 0 155 45" fill="none" xmlns="http://www.w3.org/2000/svg">
<path fill-rule="evenodd" clip-rule="evenodd" d="M30.7239 23.1926C30.7239 29.0785 24.8315 33.8548 17.5703 33.8548C10.309 33.8548 4.41663 29.0785 4.41663 23.1926C4.41663 17.3066 10.309 12.5303 17.5703 12.5303C24.8315 12.5303 30.7239 17.3066 30.7239 23.1926Z" fill="#3AD0F6"/>
<path fill-rule="evenodd" clip-rule="evenodd" d="M30.0003 27.3903C23.9592 25.1952 18.9262 18.8026 18.4203 18.5131C17.8846 18.2237 17.2002 18.5855 17.2002 18.5855C16.7538 18.0066 16.0693 18.6579 16.0693 18.6579C12.8255 23.1447 5.59766 27.3903 5.59766 27.3903C5.59766 27.3903 8.28527 33.6381 17.9273 33.6381C27.7181 33.614 30.0003 27.3903 30.0003 27.3903Z" fill="#1D5992"/>
<path fill-rule="evenodd" clip-rule="evenodd" d="M11.6481 22.9031C11.6481 22.9031 13.4039 22.2518 13.0468 23.3373C12.6896 24.3987 11.291 25.9667 11.7373 26.0391C12.1837 26.1114 13.4039 25.1224 13.761 25.2671C14.1181 25.4119 14.3859 25.3395 14.2074 25.8461C14.0288 26.3527 13.8503 26.6904 14.2074 26.6904C14.5645 26.6904 14.8323 26.0391 15.249 25.4119C15.6953 24.7606 16.3798 25.05 16.6476 25.2671C16.9155 25.4843 17.6892 26.6904 18.3142 26.5457C18.9391 26.4009 19.2665 25.7737 19.0284 24.3505C18.7606 22.9272 19.2069 22.493 19.2069 22.493C19.2069 22.493 19.7426 22.2759 20.6949 23.265C21.6472 24.254 23.403 25.7496 23.6709 25.6772C23.9387 25.6049 22.4507 24.0369 22.8078 23.8921C23.1649 23.7474 24.5636 24.1093 25.2779 24.5917C25.2779 24.5917 25.5159 25.4119 25.5159 24.6158L18.3142 18.9229L17.094 18.9952L15.9632 19.0676C15.9334 19.0676 13.136 22.4689 11.6481 22.9031Z" fill="#FFFFFE"/>
<path d="M17.5703 12C10.0709 12 4 16.9211 4 23C4 29.0789 10.0709 34 17.5703 34C25.0696 34 31.1405 29.0789 31.1405 23C31.1405 16.9211 25.0399 12 17.5703 12ZM17.5703 12.6754C24.6232 12.6754 30.337 17.307 30.337 23.0241C30.337 28.7412 24.6232 33.3728 17.5703 33.3728C10.5173 33.3728 4.8035 28.7412 4.8035 23.0241C4.8035 17.307 10.5173 12.6754 17.5703 12.6754Z" fill="#1A1919"/>
<path d="M29.5335 27.4144C26.5575 26.3771 18.8796 19.9363 18.0464 19.2367C17.7785 19.1644 17.3916 19.285 17.2726 19.3332L16.8857 19.478L16.6774 19.1885C16.6477 19.1644 16.6477 19.1402 16.6179 19.1402C16.5584 19.1402 16.3798 19.2126 16.2608 19.3091C13.017 23.5065 6.11285 27.1008 5.81526 27.2696L5.33911 26.6666C5.39863 26.6183 12.3921 22.9758 15.5466 18.899L15.6061 18.8508C15.6954 18.7784 16.2013 18.3924 16.7369 18.4407C16.856 18.4648 17.0345 18.4889 17.1833 18.6095C17.5107 18.5372 18.0166 18.4648 18.4927 18.6578L18.5523 18.6819L18.6118 18.7302C18.7011 18.8025 26.9444 25.774 29.8906 26.7872L29.5335 27.4144Z" fill="#1A1919"/>
<path d="M39.7408 27.077C38.9076 26.6669 38.2826 26.1121 37.866 25.3643C37.4196 24.6165 37.2113 23.724 37.2113 22.7108C37.2113 21.6976 37.4196 20.8051 37.866 20.0814C38.3124 19.3336 38.9373 18.7788 39.7408 18.3687C40.5741 17.9586 41.5264 17.7656 42.6275 17.7656C43.3715 17.7656 44.1155 17.8621 44.7999 18.0792C45.4844 18.2963 46.0498 18.5858 46.526 18.9718C46.6748 19.0924 46.7641 19.213 46.7641 19.3819C46.7641 19.4783 46.7343 19.5748 46.645 19.6472C46.5855 19.7196 46.4962 19.7678 46.4069 19.7678C46.2879 19.7678 46.1689 19.7196 46.0201 19.6231C45.3951 19.213 44.8595 18.9476 44.3535 18.7788C43.8476 18.634 43.2822 18.5376 42.5977 18.5376C41.2288 18.5376 40.1575 18.8994 39.4135 19.6472C38.6695 20.3709 38.2826 21.4082 38.2826 22.7349C38.2826 24.0617 38.6695 25.099 39.4135 25.8468C40.1575 26.5705 41.2288 26.9564 42.5977 26.9564C43.2525 26.9564 43.8476 26.884 44.3535 26.7152C44.8595 26.5704 45.3951 26.281 46.0201 25.8709C46.1986 25.7744 46.3177 25.7262 46.4069 25.7262C46.4962 25.7262 46.5855 25.7744 46.645 25.8468C46.7045 25.9191 46.7641 26.0156 46.7641 26.1121C46.7641 26.2569 46.6748 26.4016 46.526 26.5222C46.0498 26.9082 45.4844 27.1976 44.7999 27.4147C44.1155 27.6319 43.4013 27.7283 42.6275 27.7283C41.5264 27.6801 40.5444 27.4871 39.7408 27.077Z" fill="black"/>
<path d="M50.0674 27.2456C49.502 26.9561 49.0556 26.5701 48.7282 26.0394C48.4009 25.5087 48.2521 24.9057 48.2521 24.2061C48.2521 23.5065 48.4009 22.9035 48.7282 22.3728C49.0556 21.8421 49.502 21.4561 50.0674 21.1666C50.6328 20.8772 51.3173 20.7324 52.0613 20.7324C52.8053 20.7324 53.46 20.8772 54.0551 21.1666C54.6206 21.4561 55.067 21.8662 55.3943 22.3728C55.6919 22.9035 55.8705 23.5065 55.8705 24.2061C55.8705 24.9057 55.7217 25.5087 55.3943 26.0394C55.0967 26.5701 54.6503 26.9561 54.0551 27.2456C53.4897 27.5351 52.8053 27.6798 52.0613 27.6798C51.2875 27.6798 50.6328 27.5351 50.0674 27.2456ZM54.0551 26.2324C54.5313 25.7741 54.7694 25.0987 54.7694 24.2061C54.7694 23.3377 54.5313 22.6622 54.0551 22.1798C53.579 21.6973 52.9243 21.4561 52.0613 21.4561C51.1983 21.4561 50.5435 21.6973 50.0674 22.1798C49.5912 22.6622 49.3532 23.3377 49.3532 24.2061C49.3532 25.0745 49.5912 25.75 50.0376 26.2324C50.5138 26.6908 51.1685 26.932 52.0315 26.932C52.9243 26.932 53.579 26.6908 54.0551 26.2324Z" fill="black"/>
<path d="M64.8579 23.3138V27.1975C64.8579 27.3181 64.7984 27.4388 64.7091 27.5111C64.6198 27.5835 64.5008 27.6317 64.3222 27.6317C64.1734 27.6317 64.0246 27.5835 63.9354 27.5111C63.8461 27.4388 63.7866 27.3181 63.7866 27.1975V23.362C63.7866 22.7107 63.608 22.2282 63.2807 21.9146C62.9533 21.601 62.4176 21.4563 61.7332 21.4563C60.9297 21.4563 60.275 21.6493 59.7691 22.0594C59.2631 22.4695 59.0251 23.0002 59.0251 23.6756V27.1734C59.0251 27.294 58.9656 27.4146 58.8763 27.487C58.787 27.5594 58.668 27.6076 58.4894 27.6076C58.3406 27.6076 58.1918 27.5594 58.1025 27.487C58.0133 27.4146 57.9537 27.294 57.9537 27.1734V21.1427C57.9537 21.0221 58.0133 20.9015 58.1025 20.8291C58.1918 20.7567 58.3406 20.7085 58.4894 20.7085C58.6382 20.7085 58.7572 20.7567 58.8465 20.8291C58.9358 20.9015 58.9953 20.998 58.9953 21.1427V22.0111C59.2631 21.601 59.6203 21.2633 60.1262 21.0462C60.6321 20.8291 61.1975 20.7085 61.8225 20.7085C63.8461 20.7326 64.8579 21.601 64.8579 23.3138Z" fill="black"/>
<path d="M71.6131 27.2939C71.6131 27.4145 71.5536 27.4869 71.4643 27.5592C71.3751 27.6316 71.1965 27.6557 70.9584 27.6316L70.4823 27.6075C69.6192 27.5592 68.9943 27.3421 68.5777 26.9561C68.161 26.5702 67.9527 25.9912 67.9527 25.2193V21.5768H66.6731C66.5243 21.5768 66.435 21.5526 66.3457 21.4803C66.2564 21.432 66.2267 21.3355 66.2267 21.239C66.2267 21.1426 66.2564 21.0461 66.3457 20.9978C66.435 20.9254 66.5243 20.9013 66.6731 20.9013H67.9527V19.1886C67.9527 19.0439 68.0122 18.9474 68.1015 18.875C68.1908 18.8026 68.3098 18.7544 68.4884 18.7544C68.6372 18.7544 68.786 18.8026 68.8753 18.875C68.9645 18.9474 69.0241 19.0439 69.0241 19.1886V20.9013H71.0775C71.2263 20.9013 71.3453 20.9254 71.4048 20.9978C71.4941 21.0702 71.5238 21.1426 71.5238 21.239C71.5238 21.3355 71.4941 21.432 71.4048 21.4803C71.3155 21.5285 71.2263 21.5768 71.0775 21.5768H69.0241V25.2676C69.0241 25.8465 69.1729 26.2325 69.4407 26.4737C69.7085 26.7149 70.1252 26.8597 70.7203 26.8838L71.1667 26.9079C71.4346 26.9561 71.6131 27.0768 71.6131 27.2939Z" fill="black"/>
<path d="M78.5768 21.3598C79.0827 21.7699 79.3207 22.4212 79.3207 23.2655V27.1734C79.3207 27.294 79.2612 27.4146 79.1719 27.487C79.0827 27.5594 78.9636 27.6076 78.7851 27.6076C78.6065 27.6076 78.4875 27.5594 78.3982 27.487C78.3089 27.4146 78.2494 27.294 78.2494 27.1734V26.3532C78.0113 26.7633 77.6542 27.0769 77.2078 27.3181C76.7614 27.5353 76.2258 27.6559 75.6603 27.6559C75.1247 27.6559 74.6485 27.5594 74.2021 27.3905C73.7557 27.2217 73.3986 26.9804 73.1606 26.6668C72.8927 26.3532 72.7737 26.0155 72.7737 25.6295C72.7737 25.123 72.9225 24.7611 73.2498 24.4717C73.5772 24.2063 74.0831 23.9892 74.8271 23.8686C75.5711 23.748 76.5829 23.6997 77.8923 23.6997H78.2494V23.1931C78.2494 22.5901 78.1006 22.1559 77.803 21.8664C77.5054 21.5769 77.0293 21.4563 76.3746 21.4563C75.5413 21.4563 74.7378 21.6252 73.9938 21.987C73.9641 22.0111 73.8748 22.0594 73.726 22.1317C73.5772 22.2041 73.4581 22.2524 73.3689 22.2524C73.2498 22.2524 73.1606 22.2282 73.101 22.1559C73.0415 22.0835 72.982 22.0111 72.982 21.8905C72.982 21.6975 73.1903 21.4804 73.5772 21.2874C73.9641 21.0945 74.4104 20.9738 74.8866 20.8532C75.3627 20.7567 75.8389 20.7085 76.315 20.7085C77.3566 20.7326 78.1006 20.9497 78.5768 21.3598ZM77.5947 26.3291C78.0708 25.919 78.3089 25.4124 78.3089 24.7853V24.3269H77.9816C76.9102 24.3269 76.077 24.3752 75.4818 24.4475C74.9164 24.5199 74.4997 24.6405 74.2616 24.8335C74.0236 25.0265 73.9045 25.2677 73.9045 25.6054C73.9045 25.9914 74.0831 26.305 74.4402 26.5703C74.7973 26.8116 75.2437 26.9563 75.7794 26.9563C76.5234 26.9322 77.1185 26.7392 77.5947 26.3291Z" fill="black"/>
<path d="M83.3087 27.2456C82.7433 26.9561 82.2969 26.5701 81.9696 26.0394C81.6422 25.5087 81.4934 24.9057 81.4934 24.2302C81.4934 23.5307 81.6422 22.9276 81.9696 22.3969C82.2969 21.8662 82.7433 21.4561 83.3385 21.1666C83.9337 20.8772 84.5884 20.7324 85.3621 20.7324C85.7788 20.7324 86.1954 20.7807 86.612 20.8772C87.0286 20.9737 87.3858 21.1184 87.6834 21.2872C87.8917 21.4079 88.0405 21.5044 88.1297 21.6008C88.219 21.6973 88.2488 21.7938 88.2488 21.9144C88.2488 22.0109 88.219 22.1074 88.1595 22.1557C88.1 22.228 88.0107 22.2522 87.8917 22.2522C87.7726 22.2522 87.5941 22.1798 87.356 22.0109C87.0584 21.8421 86.7608 21.6973 86.4632 21.6008C86.1656 21.5044 85.8085 21.4561 85.3919 21.4561C84.4991 21.4561 83.8146 21.6973 83.3087 22.1798C82.8028 22.6622 82.5647 23.3377 82.5647 24.2061C82.5647 25.0504 82.8028 25.7258 83.3087 26.1842C83.8146 26.6666 84.4991 26.8837 85.3621 26.8837C85.7788 26.8837 86.1656 26.8355 86.4335 26.739C86.7311 26.6425 87.0286 26.4978 87.3858 26.3289C87.475 26.2807 87.5941 26.2324 87.6834 26.1842C87.7726 26.1359 87.8619 26.1118 87.9214 26.1118C88.0405 26.1118 88.1297 26.1359 88.1893 26.2083C88.2488 26.2807 88.2785 26.353 88.2785 26.4495C88.2785 26.5701 88.2488 26.6666 88.1595 26.739C88.0702 26.8114 87.9214 26.932 87.7131 27.0526C87.4155 27.2456 87.0286 27.3903 86.612 27.4868C86.1656 27.5833 85.749 27.6557 85.3026 27.6557C84.5586 27.6798 83.8742 27.5351 83.3087 27.2456Z" fill="black"/>
<path d="M94.1112 27.2939C94.1112 27.4145 94.0517 27.4869 93.9624 27.5592C93.8731 27.6316 93.6945 27.6557 93.4565 27.6316L92.9803 27.6075C92.1173 27.5592 91.4924 27.3421 91.0757 26.9561C90.6591 26.5702 90.4508 25.9912 90.4508 25.2193V21.5768H89.1711C89.0223 21.5768 88.933 21.5526 88.8438 21.4803C88.7545 21.432 88.7247 21.3355 88.7247 21.239C88.7247 21.1426 88.7545 21.0461 88.8438 20.9978C88.933 20.9254 89.0223 20.9013 89.1711 20.9013H90.4508V19.1886C90.4508 19.0439 90.5103 18.9474 90.5996 18.875C90.6888 18.8026 90.8079 18.7544 90.9864 18.7544C91.165 18.7544 91.284 18.8026 91.3733 18.875C91.4626 18.9474 91.5221 19.0439 91.5221 19.1886V20.9013H93.5755C93.7243 20.9013 93.8433 20.9254 93.9029 20.9978C93.9921 21.0702 94.0219 21.1426 94.0219 21.239C94.0219 21.3355 93.9921 21.432 93.9029 21.4803C93.8136 21.5285 93.7243 21.5768 93.5755 21.5768H91.5221V25.2676C91.5221 25.8465 91.6709 26.2325 91.9387 26.4737C92.2066 26.7149 92.6232 26.8597 93.2184 26.8838L93.6648 26.9079C93.9624 26.9561 94.1112 27.0768 94.1112 27.2939Z" fill="black"/>
<path d="M100.212 27.5114C100.123 27.4391 100.063 27.3184 100.063 27.1978V18.2965C100.063 18.1759 100.123 18.0794 100.212 17.9829C100.331 17.9106 100.45 17.8623 100.599 17.8623H106.908C107.057 17.8623 107.176 17.8864 107.265 17.9588C107.354 18.0312 107.384 18.1035 107.384 18.2241C107.384 18.3448 107.354 18.4413 107.265 18.4895C107.176 18.5377 107.057 18.586 106.908 18.586H101.134V22.2527H106.58C106.729 22.2527 106.848 22.2768 106.938 22.3491C107.027 22.4215 107.057 22.4939 107.057 22.6145C107.057 22.7351 107.027 22.8316 106.938 22.8798C106.848 22.9522 106.729 22.9763 106.58 22.9763H101.134V27.1496C101.134 27.2943 101.075 27.3908 100.986 27.4632C100.896 27.5356 100.777 27.5838 100.599 27.5838C100.45 27.632 100.331 27.6079 100.212 27.5114Z" fill="black"/>
<path d="M110.39 27.2456C109.824 26.9561 109.378 26.5701 109.05 26.0394C108.723 25.5087 108.574 24.9057 108.574 24.2061C108.574 23.5065 108.723 22.9035 109.05 22.3728C109.378 21.8421 109.824 21.4561 110.39 21.1666C110.955 20.8772 111.639 20.7324 112.383 20.7324C113.127 20.7324 113.782 20.8772 114.377 21.1666C114.943 21.4561 115.389 21.8662 115.716 22.3728C116.044 22.8794 116.193 23.5065 116.193 24.2061C116.193 24.9057 116.044 25.5087 115.716 26.0394C115.389 26.5701 114.972 26.9561 114.377 27.2456C113.812 27.5351 113.127 27.6798 112.383 27.6798C111.61 27.6798 110.955 27.5351 110.39 27.2456ZM114.377 26.2324C114.853 25.7741 115.092 25.0987 115.092 24.2061C115.092 23.3377 114.853 22.6622 114.377 22.1798C113.901 21.6973 113.246 21.4561 112.383 21.4561C111.52 21.4561 110.866 21.6973 110.39 22.1798C109.913 22.6622 109.675 23.3377 109.675 24.2061C109.675 25.0745 109.913 25.75 110.36 26.2324C110.836 26.6908 111.491 26.932 112.354 26.932C113.217 26.932 113.901 26.6908 114.377 26.2324Z" fill="black"/>
<path d="M122.651 20.8287C122.74 20.877 122.799 20.9735 122.799 21.0941C122.799 21.3353 122.621 21.4559 122.293 21.48L121.788 21.5283C120.984 21.6006 120.389 21.8178 120.002 22.2278C119.615 22.6379 119.407 23.0963 119.407 23.6511V27.2213C119.407 27.366 119.347 27.4625 119.258 27.5349C119.169 27.6072 119.05 27.6555 118.871 27.6555C118.722 27.6555 118.574 27.6072 118.484 27.5349C118.395 27.4625 118.335 27.366 118.335 27.2213V21.1906C118.335 21.0458 118.395 20.9493 118.484 20.877C118.574 20.8046 118.693 20.7563 118.871 20.7563C119.02 20.7563 119.139 20.8046 119.228 20.877C119.318 20.9493 119.377 21.0458 119.377 21.1906V22.0831C119.853 21.287 120.686 20.8528 121.966 20.7805L122.204 20.7563C122.383 20.7563 122.561 20.7805 122.651 20.8287Z" fill="black"/>
<path d="M135.715 23.314V27.1977C135.715 27.3183 135.655 27.439 135.566 27.5113C135.477 27.5837 135.358 27.6319 135.179 27.6319C135.001 27.6319 134.882 27.5837 134.792 27.5113C134.703 27.439 134.644 27.3183 134.644 27.1977V23.3622C134.644 22.6868 134.495 22.2043 134.197 21.9148C133.9 21.6254 133.423 21.4565 132.799 21.4565C132.055 21.4565 131.489 21.6495 131.043 22.0596C130.596 22.4697 130.388 23.0004 130.388 23.6758V27.1736C130.388 27.2942 130.328 27.4148 130.239 27.4872C130.15 27.5596 130.031 27.6078 129.852 27.6078C129.704 27.6078 129.555 27.5596 129.465 27.4872C129.376 27.4148 129.317 27.2942 129.317 27.1736V23.3381C129.317 22.6626 129.168 22.1802 128.87 21.8907C128.573 21.6012 128.097 21.4324 127.472 21.4324C126.728 21.4324 126.162 21.6254 125.716 22.0354C125.269 22.4455 125.061 22.9762 125.061 23.6517V27.1495C125.061 27.2701 125.002 27.3907 124.912 27.4631C124.823 27.5354 124.704 27.5837 124.525 27.5837C124.377 27.5837 124.228 27.5354 124.139 27.4631C124.049 27.3907 123.99 27.2701 123.99 27.1495V21.1188C123.99 20.974 124.049 20.8776 124.139 20.8052C124.228 20.7328 124.347 20.6846 124.525 20.6846C124.674 20.6846 124.793 20.7328 124.883 20.8052C124.972 20.8776 125.002 20.974 125.002 21.1188V21.939C125.24 21.5289 125.567 21.2153 126.013 20.9982C126.46 20.7811 126.966 20.6846 127.561 20.6846C128.87 20.6846 129.704 21.1188 130.09 22.0113C130.328 21.6012 130.686 21.2876 131.162 21.0464C131.638 20.8052 132.203 20.6846 132.828 20.6846C134.822 20.7328 135.715 21.6012 135.715 23.314Z" fill="black"/>
<path d="M150.237 17.9828C150.327 18.0552 150.356 18.1275 150.356 18.2481C150.356 18.3205 150.327 18.4411 150.237 18.5859L144.494 27.4389C144.405 27.5837 144.256 27.6802 144.047 27.6802C143.899 27.6802 143.809 27.6319 143.69 27.5595C143.601 27.4872 143.542 27.3907 143.542 27.2701C143.542 27.1977 143.571 27.1253 143.601 27.053L149.077 18.6341H142.917C142.768 18.6341 142.649 18.61 142.559 18.5376C142.47 18.4652 142.44 18.3687 142.44 18.2723C142.44 18.1516 142.47 18.0552 142.559 18.0069C142.649 17.9345 142.768 17.9104 142.917 17.9104H149.851C150.029 17.8863 150.148 17.9104 150.237 17.9828Z" fill="black"/>
</svg>
