<svg width="155" height="45" viewBox="0 0 155 45" fill="none" xmlns="http://www.w3.org/2000/svg">
<path d="M50.3898 23.5241H47.8657V28.3885C47.8657 29.6856 48.7217 29.6646 50.3898 29.5841V31.5499C47.0115 31.9559 45.6671 31.023 45.6671 28.3885V23.5241H43.7941V21.4149H45.6671V18.6929L47.8657 18.0452V21.4149H50.3898V23.5241ZM60.0137 21.4149H62.2123V31.5499H60.0137V30.0901C59.24 31.1648 58.0374 31.8143 56.4498 31.8143C53.6824 31.8143 51.3823 29.4826 51.3823 26.4824C51.3823 23.4629 53.6824 21.1522 56.4498 21.1522C58.0374 21.1522 59.24 21.7999 60.0137 22.8538V21.4149ZM56.7964 29.7259C58.6291 29.7259 60.0137 28.3675 60.0137 26.4824C60.0137 24.5971 58.6291 23.2388 56.7964 23.2388C54.9637 23.2388 53.5809 24.5971 53.5809 26.4824C53.5809 28.3675 54.9637 29.7259 56.7964 29.7259ZM65.8759 19.8955C65.1022 19.8955 64.4703 19.2461 64.4703 18.4969C64.4721 18.3131 64.5089 18.131 64.5789 17.9613C64.6495 17.7915 64.7531 17.6372 64.8834 17.5075C65.0139 17.3778 65.1685 17.275 65.3386 17.2051C65.5083 17.1349 65.6922 17.0983 65.8759 17.0983C66.0597 17.0983 66.2417 17.1349 66.4133 17.2051C66.583 17.275 66.7372 17.3783 66.8685 17.5079C66.9979 17.6392 67.1013 17.7931 67.173 17.9613C67.243 18.131 67.2798 18.3131 67.2798 18.4969C67.2798 19.2461 66.6497 19.8955 65.8759 19.8955ZM64.7766 31.5499V21.4149H66.9753V31.5499H64.7766ZM69.5203 31.5499V16.7534H71.7189V31.5499H69.5203ZM85.9885 21.4149H88.3095L85.1133 31.5499H82.955L80.8386 24.7196L78.7014 31.5499H76.5431L73.3468 21.4149H75.6678L77.6424 28.4078L79.7796 21.4149H81.8767L83.9929 28.4078L85.9885 21.4149ZM91.0367 19.8955C90.263 19.8955 89.6329 19.2461 89.6329 18.4969C89.6329 18.3131 89.6697 18.131 89.7397 17.9613C89.8114 17.7931 89.9146 17.6392 90.0442 17.5079C90.1755 17.3783 90.3295 17.275 90.4994 17.2051C90.6708 17.1349 90.853 17.0983 91.0367 17.0983C91.4086 17.0983 91.7654 17.2456 92.0293 17.5079C92.1604 17.6392 92.2639 17.7931 92.3338 17.9613C92.4055 18.131 92.4423 18.3131 92.4423 18.4969C92.4423 19.2461 91.8105 19.8955 91.0367 19.8955ZM89.9374 31.5499V21.4149H92.136V31.5499H89.9374ZM103.944 25.3271V31.5499H101.746V25.5512C101.746 24.009 100.85 23.1985 99.4651 23.1985C98.0192 23.1985 96.8797 24.0509 96.8797 26.1182V31.5499H94.6811V21.4149H96.8797V22.7119C97.5519 21.6582 98.651 21.1522 100.036 21.1522C102.315 21.1522 103.944 22.6926 103.944 25.3271ZM114.367 17.3608H116.565V31.5499H114.367V30.0901C113.593 31.1648 112.392 31.8143 110.804 31.8143C108.035 31.8143 105.735 29.4826 105.735 26.4824C105.735 23.4629 108.035 21.1522 110.804 21.1522C112.392 21.1522 113.593 21.7999 114.367 22.8538V17.3608ZM111.151 29.7259C112.982 29.7259 114.367 28.3675 114.367 26.4824C114.367 24.5971 112.982 23.2388 111.151 23.2388C109.318 23.2388 107.934 24.5971 107.934 26.4824C107.934 28.3675 109.318 29.7259 111.151 29.7259ZM118.561 26.4824C118.561 23.4629 120.861 21.1522 123.934 21.1522C125.93 21.1522 127.659 22.1851 128.473 23.7674L126.581 24.8615C126.133 23.9093 125.135 23.3 123.914 23.3C122.123 23.3 120.759 24.6584 120.759 26.4824C120.759 28.3063 122.123 29.6646 123.914 29.6646C125.135 29.6646 126.133 29.0362 126.621 28.105L128.515 29.178C127.659 30.7796 125.93 31.8143 123.934 31.8143C120.861 31.8143 118.561 29.4826 118.561 26.4824ZM137.614 28.6913C137.614 30.7185 135.843 31.8143 133.644 31.8143C131.608 31.8143 130.143 30.9005 129.492 29.4424L131.384 28.3466C131.712 29.2603 132.526 29.8064 133.644 29.8064C134.623 29.8064 135.375 29.4826 135.375 28.6722C135.375 26.8674 129.9 27.881 129.9 24.2524C129.9 22.3478 131.549 21.1522 133.625 21.1522C135.293 21.1522 136.678 21.9224 137.39 23.2598L135.538 24.2943C135.172 23.5032 134.46 23.139 133.625 23.139C132.83 23.139 132.139 23.4822 132.139 24.212C132.139 26.057 137.614 24.9419 137.614 28.6913ZM147 28.6913C147 30.7185 145.228 31.8143 143.03 31.8143C140.994 31.8143 139.527 30.9005 138.876 29.4424L140.77 28.3466C141.096 29.2603 141.91 29.8064 143.03 29.8064C144.007 29.8064 144.759 29.4826 144.759 28.6722C144.759 26.8674 139.284 27.881 139.284 24.2524C139.284 22.3478 140.933 21.1522 143.009 21.1522C144.679 21.1522 146.063 21.9224 146.776 23.2598L144.922 24.2943C144.556 23.5032 143.844 23.139 143.009 23.139C142.216 23.139 141.523 23.4822 141.523 24.212C141.523 26.057 147 24.9419 147 28.6913Z" fill="black"/>
<path d="M21.4639 15C17.6077 15 15.1955 16.9202 14.2311 20.7608C15.6787 18.8404 17.3661 18.1193 19.2951 18.599C20.3944 18.8737 21.1803 19.6685 22.052 20.549C23.4699 21.9807 25.1118 23.6402 28.6966 23.6402C32.5529 23.6402 34.9632 21.72 35.9277 17.8794C34.4819 19.7998 32.7944 20.5191 30.8654 20.0394C29.7661 19.7665 28.9785 18.9699 28.1086 18.0912C26.6907 16.6577 25.0487 15 21.4639 15ZM14.2311 23.6402C10.3748 23.6402 7.96449 25.5603 7 29.4009C8.44586 27.4805 10.1333 26.7612 12.0623 27.2409C13.1633 27.5139 13.9492 28.3104 14.8192 29.1891C16.2371 30.6226 17.879 32.2803 21.4639 32.2803C25.3219 32.2803 27.7321 30.3601 28.6966 26.5196C27.2491 28.4399 25.5616 29.1611 23.6344 28.6814C22.5334 28.4066 21.7474 27.6119 20.8757 26.7314C19.4579 25.2996 17.8159 23.6402 14.2311 23.6402Z" fill="#06B6D4"/>
</svg>
