<svg width="155" height="45" viewBox="0 0 155 45" fill="none" xmlns="http://www.w3.org/2000/svg">
<path d="M84.1766 18.5307C82.7067 18.5307 81.6122 19.2524 81.6122 20.9893C81.6122 22.298 82.3335 23.2067 84.0973 23.2067C85.5924 23.2067 86.608 22.3256 86.608 20.935C86.608 19.3593 85.6993 18.5307 84.1766 18.5307ZM81.2379 30.7954C80.89 31.2221 80.5433 31.6759 80.5433 32.2108C80.5433 33.2789 81.9053 33.6004 83.7761 33.6004C85.3256 33.6004 87.4365 33.4917 87.4365 32.0509C87.4365 31.1946 86.421 31.1417 85.1377 31.0614L81.2379 30.7954ZM89.1461 18.6113C89.6262 19.2259 90.1347 20.0812 90.1347 21.31C90.1347 24.2755 87.8102 26.012 84.4445 26.012C83.5886 26.012 82.8139 25.9053 82.3335 25.7719L81.4515 27.1874L84.0694 27.3477C88.6921 27.6423 91.4163 27.7763 91.4163 31.3282C91.4163 34.4014 88.7186 36.137 84.0694 36.137C79.2338 36.137 77.3903 34.9079 77.3903 32.7975C77.3903 31.5953 77.9246 30.9553 78.8598 30.072C77.978 29.6995 77.6844 29.0319 77.6844 28.3099C77.6844 27.7216 77.978 27.1877 78.4597 26.6796C78.9403 26.1726 79.4744 25.6645 80.1157 25.0768C78.8068 24.4354 77.8178 23.0462 77.8178 21.0687C77.8178 17.9968 79.8487 15.887 83.9356 15.887C85.0847 15.887 85.7797 15.9926 86.3942 16.154H91.6046V18.4241L89.1461 18.6113ZM96.3049 13.7563C94.7818 13.7563 93.9001 12.8738 93.9001 11.3504C93.9001 9.82905 94.7815 9 96.3049 9C97.8544 9 98.7363 9.82905 98.7363 11.3504C98.7363 12.8738 97.8546 13.7563 96.3049 13.7563ZM92.8578 29.8121V27.7024L94.2208 27.516C94.5951 27.4621 94.6481 27.3823 94.6481 26.9807V19.1258C94.6481 18.8328 94.5682 18.6447 94.3 18.5654L92.8578 18.0572L93.1514 15.8937H98.6824V26.9807C98.6824 27.4089 98.7082 27.4621 99.1103 27.5163L100.473 27.7028V29.8121H92.8578ZM111.038 28.7764C109.889 29.337 108.206 29.8447 106.682 29.8447C103.503 29.8447 102.301 28.5635 102.301 25.543V18.5439C102.301 18.3837 102.301 18.2768 102.087 18.2768H100.217V15.8983C102.569 15.6303 103.503 14.4549 103.797 11.5427H106.335V15.3375C106.335 15.524 106.335 15.6046 106.549 15.6046H110.316V18.2763H106.335V24.6613C106.335 26.2376 106.71 26.8516 108.152 26.8516C108.901 26.8516 109.675 26.6651 110.316 26.4246L111.038 28.776" fill="#2F2707"/>
<path d="M71.4511 21.7646L59.2351 9.54934C59.0678 9.38194 58.8692 9.2492 58.6506 9.15863C58.432 9.06807 58.1978 9.02148 57.9611 9.02148C57.7245 9.02148 57.4901 9.06807 57.2714 9.15863C57.0528 9.2492 56.8543 9.38194 56.687 9.54934L54.1503 12.0861L57.3681 15.3038C57.7465 15.1752 58.1532 15.1551 58.5423 15.2457C58.9314 15.3364 59.2873 15.5342 59.5698 15.8168C59.8538 16.1011 60.052 16.4595 60.1419 16.8513C60.2318 17.2428 60.2097 17.652 60.0782 18.0316L63.1789 21.1329C63.9292 20.8745 64.7951 21.0418 65.3941 21.6419C65.5932 21.8409 65.7512 22.0773 65.8591 22.3374C65.9669 22.5975 66.0224 22.8763 66.0224 23.1579C66.0224 23.4394 65.9669 23.7183 65.8591 23.9784C65.7512 24.2385 65.5932 24.4747 65.3941 24.6738C65.0438 25.0246 64.5827 25.243 64.0892 25.2921C63.5959 25.3411 63.1009 25.2175 62.6883 24.9427C62.2758 24.6677 61.9712 24.2583 61.8266 23.7841C61.682 23.3098 61.7062 22.8001 61.895 22.3418L59.003 19.4498L59.0027 27.0605C59.2124 27.1642 59.4039 27.3011 59.5698 27.466C59.769 27.6651 59.9269 27.9015 60.0346 28.1617C60.1424 28.4219 60.1979 28.7007 60.1979 28.9823C60.1979 29.2639 60.1424 29.5427 60.0346 29.8028C59.9269 30.063 59.769 30.2994 59.5698 30.4985C58.732 31.3363 57.3742 31.3363 56.5378 30.4985C56.2878 30.2488 56.1035 29.9413 56.0013 29.6031C55.8989 29.2649 55.8817 28.9068 55.9511 28.5603C56.0206 28.2141 56.1745 27.8902 56.3994 27.6177C56.624 27.3451 56.9127 27.1324 57.2395 26.9983V19.3167C56.9766 19.2092 56.738 19.0501 56.5378 18.8487C55.9033 18.2149 55.7507 17.2839 56.0759 16.5047L52.9039 13.3323L44.5279 21.7078C44.3606 21.8751 44.2278 22.0739 44.1372 22.2925C44.0466 22.5112 44 22.7456 44 22.9823C44 23.219 44.0466 23.4534 44.1372 23.672C44.2278 23.8907 44.3606 24.0895 44.5279 24.2568L56.744 36.4722C57.0818 36.8101 57.5403 36.9999 58.0181 36.9999C58.4959 36.9999 58.9542 36.8101 59.2922 36.4722L71.4511 24.3138C71.7891 23.9757 71.9789 23.5172 71.9789 23.0392C71.9789 22.5612 71.7891 22.1027 71.4511 21.7646Z" fill="#DE4C36"/>
</svg>
