<svg width="155" height="45" viewBox="0 0 155 45" fill="none" xmlns="http://www.w3.org/2000/svg">
<path d="M51.7676 22.4326C51.6981 22.2936 51.6981 22.1546 51.6286 22.0851C51.4202 21.6682 51.1422 21.3208 50.7253 21.0428C50.3779 20.7649 49.961 20.4869 49.5441 20.348C49.0577 20.1395 48.5713 20.1395 48.0848 20.2785C47.5984 20.4175 47.1815 20.6954 46.8341 21.0428C46.7646 21.1123 46.6951 21.1818 46.6256 21.3208L46.0697 22.0156C45.8613 22.2936 45.5833 22.641 45.3749 22.919C45.2359 23.0579 45.0969 23.1969 45.0275 23.3359C44.8885 23.4749 44.819 23.5443 44.68 23.6138C44.6105 23.6833 44.5411 23.6833 44.4716 23.6833H44.4021C44.1936 23.4054 44.0546 23.1274 43.9852 22.78C43.8462 22.4326 43.7767 22.0156 43.7072 21.6682C43.6377 21.3208 43.5682 20.9039 43.4988 20.5564C43.4988 20.4175 43.4293 20.2785 43.4293 20.07V19.9311C43.4293 19.7921 43.3598 19.6531 43.3598 19.5141C43.3598 19.4447 43.3598 19.3752 43.2903 19.3057C43.2208 18.8888 43.0818 18.4718 42.8734 18.1244C42.7344 17.7075 42.526 17.3601 42.248 17.0126C41.7616 16.2483 41.0667 15.6924 40.3024 15.345C39.8855 15.1365 39.4686 15.067 39.0516 14.9975C38.9127 14.8586 38.7042 14.8586 38.4958 14.8586C38.4263 14.8586 38.3568 14.8586 38.2178 14.8586C37.8704 14.0247 37.3145 13.2604 36.5501 12.7045C35.7163 12.0096 34.674 11.5232 33.6317 11.3843C33.0758 11.3148 32.5894 11.3843 32.0335 11.4537C31.4776 11.5927 30.9912 11.8012 30.5743 12.1486C30.1574 12.496 29.81 12.9129 29.532 13.3994C29.2541 13.8858 29.1151 14.3722 28.9761 14.8586C28.9067 15.067 28.9067 15.2755 28.8372 15.4839C28.2813 15.4839 27.7949 15.4839 27.239 15.4839C26.961 15.4839 26.6831 15.5534 26.4052 15.5534H26.1967L25.8493 15.6924H25.6408L25.3629 15.7619L25.0849 15.8314C24.3901 16.0398 23.7647 16.2483 23.0698 16.5262C22.9308 16.7347 22.5834 16.8737 22.3055 17.0126L22.1665 17.0821L21.8191 17.2211L21.6801 17.3601C21.5411 17.2211 21.4021 17.1516 21.1937 17.0821C20.9852 16.9431 20.6378 16.8737 20.3599 16.8042C20.0124 16.8042 19.665 16.8042 19.387 16.9431L19.1786 17.0126H19.0396L18.9701 17.0821L18.7617 17.2211L18.5532 17.4296C18.1363 17.8465 17.8584 18.4024 17.7889 19.0277C17.7889 19.1667 17.7194 19.2362 17.7194 19.3752V19.4447V19.7921C17.7194 20.0005 17.6499 20.1395 17.5109 20.2785C17.3719 20.4869 17.233 20.6259 17.094 20.7649L16.8161 21.0428L16.7466 21.1123C16.6076 21.1818 16.5381 21.3208 16.4686 21.4598V21.5292V21.6682V21.7377V21.8072V21.9462V22.0851L16.5381 22.2241C16.6076 22.2936 16.6076 22.3631 16.6771 22.3631L16.7466 22.4326L16.8855 22.5715V22.78C17.0245 22.8495 17.233 22.919 17.4414 22.919C17.5804 22.919 17.7889 22.919 17.9278 22.8495C18.2753 22.78 18.5532 22.5715 18.8312 22.3631C18.7617 22.9884 18.6227 23.6833 18.6227 24.4477C18.5532 25.49 18.5532 26.5322 18.5532 27.5745C18.5532 28.6863 18.6227 29.7286 18.7617 30.7014C18.7617 30.8404 18.8312 30.9794 18.9701 31.0488C19.526 31.4658 20.1514 31.7437 20.7768 31.9522C21.4716 32.1606 22.097 32.2301 22.7919 32.2301C23.4867 32.2301 24.1121 32.0911 24.7375 31.8827C25.0849 31.8132 25.3629 31.6742 25.6408 31.5353L26.0577 31.3268C26.1967 31.2573 26.3357 31.1878 26.5441 31.0488C26.6831 30.9099 26.8221 30.7709 26.7526 30.5624C26.5441 29.5896 26.5441 28.5473 26.7526 27.5051C26.8221 27.0881 27.0305 26.6712 27.378 26.3933C27.7254 26.1153 28.1423 25.9764 28.5592 26.0458C28.9761 26.0458 29.3931 26.1848 29.7405 26.4628C30.0879 26.8102 30.2964 27.2271 30.3659 27.644C30.5048 28.1304 30.5743 28.6168 30.5743 29.1727V29.9371C30.5743 29.9371 30.5048 30.493 30.5048 30.7014C30.4354 30.9099 30.5743 31.1183 30.7828 31.1878L31.6861 31.6047H31.7556L32.6589 31.8827L33.4233 32.0911H33.5622H33.6317L34.1181 32.1606H34.4656H34.952C35.5773 32.1606 36.1332 32.0911 36.6891 31.9522L36.8281 31.8827C36.9671 31.8827 37.0365 31.8132 37.1755 31.7437L37.4535 31.6047L37.5924 31.5353H37.6619C37.7314 31.4658 37.8009 31.4658 37.8704 31.3963L37.9399 31.3268C38.0093 31.3268 38.0788 31.2573 38.1483 31.1878L38.3568 31.0488L38.4263 30.9794L38.4958 30.9099C38.5652 30.8404 38.6347 30.7709 38.6347 30.6319C38.8432 29.4507 38.9822 28.2694 38.9822 27.0186C38.9822 26.4628 38.9822 25.9069 38.9822 25.212C38.9822 25.073 38.9822 25.0035 38.9822 24.9341V24.8646C39.2601 25.1425 39.4686 25.351 39.677 25.5594C40.3024 26.1153 40.9973 26.6017 41.7616 26.9492C42.1785 27.1576 42.5954 27.2966 43.0124 27.3661C43.4293 27.4356 43.9157 27.4356 44.4021 27.3661C44.8885 27.2966 45.3054 27.0881 45.6528 26.7407L45.8613 26.6017L45.9308 26.5322C46.0003 26.4628 46.0697 26.3933 46.0697 26.3933L46.0003 26.2543C46.1392 26.1153 46.2087 25.9764 46.2782 25.8374L46.3477 25.6984C46.7646 25.073 47.251 24.5866 47.8069 24.1002C48.0848 23.8918 48.3628 23.7528 48.7102 23.6833C49.0577 23.6138 49.4051 23.5443 49.7525 23.6138H50.2389H50.9338C51.1422 23.6138 51.3507 23.5443 51.4897 23.4749C51.6286 23.4054 51.6981 23.2664 51.7676 23.1969C51.8371 23.1274 51.8371 22.9884 51.8371 22.8495C51.8371 22.7105 51.8371 22.5715 51.7676 22.4326V22.4326ZM37.8009 23.6138C37.8009 24.1697 37.8704 24.7256 37.8704 25.351C37.8704 25.9764 37.8704 26.6017 37.8704 27.0881C37.8704 28.1999 37.8009 29.3117 37.6619 30.4235L37.5229 30.493H37.4535L37.3145 30.5624C37.245 30.6319 37.1755 30.6319 37.106 30.7014L36.8976 30.7709L36.7586 30.8404C36.6891 30.9099 36.6196 30.9099 36.4807 30.9099L36.3417 30.9794C35.7858 31.1183 35.1604 31.1878 34.6045 31.1878H34.3961H34.1181L33.7012 31.1183H33.6317H33.4927L32.8674 30.9794L32.1725 30.7709L32.0335 30.7014L31.5471 30.493C31.5471 30.354 31.5471 30.215 31.6166 30.0066C31.6861 29.7981 31.6166 29.4507 31.6166 29.1032C31.6166 28.5473 31.5471 27.922 31.4082 27.3661C31.3387 27.0881 31.1997 26.7407 31.0607 26.4628C30.9218 26.1848 30.7133 25.9069 30.5048 25.6984C30.2269 25.49 29.949 25.2815 29.6015 25.1425C28.9761 24.9341 28.2813 24.9341 27.6559 25.073C27.3085 25.1425 27.0305 25.351 26.7526 25.5594C26.4746 25.7679 26.2662 26.0458 26.1272 26.3238C25.9882 26.6017 25.8493 26.8797 25.7798 27.2271C25.6408 27.783 25.5713 28.4084 25.5713 28.9643C25.5713 29.2422 25.5713 29.5202 25.6408 29.8676C25.7103 30.215 25.6408 30.215 25.7103 30.354L25.6408 30.4235L25.2239 30.6319C24.9459 30.7709 24.668 30.8404 24.3901 30.9099C23.8342 31.0488 23.2088 31.1878 22.6529 31.1878C22.097 31.1878 21.5411 31.1183 20.9852 30.9794C20.5683 30.8404 20.0819 30.7014 19.7345 30.4235C19.526 28.4779 19.526 26.5322 19.665 24.5866C19.7345 23.6138 19.8735 22.5715 20.0819 21.5987L20.2904 20.9039C20.3599 20.7649 20.3599 20.6259 20.4293 20.4869L20.4988 20.2785C20.4988 20.2785 20.4988 20.2785 20.4988 20.209C20.5683 20.07 20.6378 19.9311 20.7073 19.7226V19.5836C20.7073 19.5836 20.7073 19.5836 20.7073 19.5141C20.7768 19.3752 20.6378 19.0972 20.4293 19.0277C20.2209 18.9582 20.2209 18.8888 20.1514 18.9582C20.0124 18.9582 19.804 19.0972 19.7345 19.2362L19.5955 19.5141L19.4565 19.7226L19.3176 19.9311C19.1091 20.348 18.8312 20.7649 18.5532 21.1818C18.4142 21.3208 18.2753 21.5292 18.0668 21.6682C18.0668 21.8072 17.8584 21.8767 17.7194 21.9462C17.5804 22.0156 17.4414 22.0156 17.3025 21.9462L17.5804 21.6682C17.7889 21.4598 17.9973 21.2513 18.1363 21.0428C18.3448 20.7649 18.4837 20.4175 18.5532 20.1395V19.7226V19.6531C18.6227 19.5141 18.6227 19.3752 18.6922 19.3057C18.7617 18.8888 18.9701 18.4718 19.2481 18.1939L19.3176 18.0549L19.4565 17.9854H19.526L19.7345 17.8465C19.9429 17.777 20.0819 17.777 20.2904 17.777C20.7073 17.8465 21.0547 18.0549 21.3327 18.3329C21.5411 18.4718 21.7496 18.4718 21.958 18.3329C22.097 18.2634 22.236 18.1939 22.3055 18.1244C22.375 18.0549 22.5139 17.9854 22.5834 17.9854L22.7224 17.916C23.0698 17.777 23.3478 17.638 23.6257 17.499C24.1816 17.2211 24.807 17.0821 25.4323 16.8737L25.6408 16.8042H25.8493H25.9882L26.2662 16.7347H26.4746C26.7526 16.7347 26.961 16.6652 27.239 16.6652C27.7254 16.5957 28.2813 16.5957 28.7677 16.6652C28.8372 17.1516 28.9761 17.638 29.1151 18.0549C29.3236 18.5413 29.532 18.9582 29.7405 19.3752C29.949 19.7921 30.2269 20.209 30.5743 20.5564C31.7556 22.0156 33.0758 23.3359 34.6045 24.3782C34.7435 24.5171 34.8825 24.5171 35.0214 24.3782C35.0909 24.3087 35.0909 24.2392 35.0909 24.1697C35.0909 24.1002 35.0214 24.0307 34.952 23.9613C34.2571 23.3359 33.6317 22.7105 33.0063 22.0156C32.381 21.3208 31.7556 20.6259 31.2692 19.8616C30.7828 19.0972 30.3659 18.3329 30.0879 17.499C29.949 17.0821 29.8795 16.6652 29.81 16.2483V15.7619C29.81 15.5534 29.8795 15.345 29.949 15.1365C30.0879 14.3722 30.5048 13.6078 31.1302 13.1214C31.7556 12.635 32.5894 12.4265 33.4233 12.5655C34.2571 12.635 35.0214 12.9129 35.7163 13.4688C36.4112 13.9552 36.8976 14.6501 37.245 15.4145C37.3145 15.6229 37.5229 15.7619 37.8009 15.6924H38.0094H38.2873C38.4958 15.6924 38.6347 15.6924 38.8432 15.7619C39.1906 15.8314 39.538 15.9009 39.816 16.0398C40.4414 16.3178 40.9973 16.8042 41.3447 17.3601C41.5531 17.638 41.6921 17.9854 41.8311 18.3329C41.9701 18.6803 42.109 19.0277 42.1785 19.3752V19.5836C42.1785 19.5836 42.248 19.7921 42.248 19.9311V20.07C42.248 20.209 42.3175 20.348 42.3175 20.4869C42.387 20.9039 42.4565 21.2513 42.526 21.6682C42.5954 22.0851 42.7344 22.4326 42.8039 22.8495C42.9429 23.2664 43.1513 23.6833 43.3598 24.1002C43.4293 24.2392 43.5682 24.3087 43.7072 24.3782C43.7767 24.4477 43.8462 24.4477 43.9157 24.4477H43.9852C44.0546 24.4477 44.1241 24.5171 44.2631 24.5171C44.4021 24.5171 44.6105 24.5171 44.7495 24.4477C44.819 24.4477 44.958 24.4477 45.0275 24.3782L45.1664 24.3087C45.3749 24.1697 45.5139 24.0307 45.7223 23.8918C45.8613 23.7528 46.0003 23.6138 46.1392 23.4054C46.4172 23.1274 46.6256 22.8495 46.9036 22.502L47.4595 21.8072L47.5984 21.5987C48.0154 21.1123 48.6407 20.9733 49.1966 21.1818C49.822 21.4598 50.3084 21.8767 50.6558 22.4326C50.6558 22.502 50.7253 22.5715 50.7253 22.5715H50.2389H49.683C49.2661 22.5715 48.7797 22.641 48.3628 22.7105C47.9459 22.8495 47.529 23.0579 47.1815 23.2664C46.4867 23.7528 45.9308 24.3782 45.4444 25.073L45.3749 25.1425C45.3054 25.2815 45.2359 25.351 45.0969 25.49L45.0275 25.5594L44.958 25.6984V25.9069C44.8885 25.9069 44.8885 25.9764 44.819 25.9764C44.6105 26.1848 44.2631 26.3238 43.9852 26.3933C43.2903 26.5322 42.5954 26.3933 42.0395 26.0458C41.3447 25.6984 40.7888 25.2815 40.2329 24.7951C39.677 24.3087 39.1211 23.7528 38.7042 23.1969C38.6347 23.0579 38.4263 22.9884 38.2873 22.9884C38.0093 23.1274 37.8009 23.3359 37.8009 23.6138V23.6138Z" fill="#48474C"/>
<path d="M39.6076 19.0276C39.9529 19.0276 40.2329 18.7476 40.2329 18.4022C40.2329 18.0568 39.9529 17.7769 39.6076 17.7769C39.2622 17.7769 38.9822 18.0568 38.9822 18.4022C38.9822 18.7476 39.2622 19.0276 39.6076 19.0276Z" fill="#48474C"/>
<path d="M55.4503 24.8646H57.7434C58.1603 26.9492 59.2721 27.7135 61.4261 27.7135C63.3023 27.7135 64.414 26.8102 64.414 25.351C64.414 23.8918 62.7464 23.6138 60.7313 23.1969C58.3687 22.7105 55.9367 21.9462 55.9367 19.2362C55.9367 16.8042 58.0213 14.9976 60.8702 14.9976C64.0666 14.9976 66.0817 16.5263 66.4986 19.7226H64.2056C63.9276 17.638 62.7464 16.8737 60.8008 16.8737C59.0636 16.8737 57.9518 17.777 57.9518 19.0972C57.9518 20.6259 59.828 20.9039 61.8431 21.2513C64.1361 21.6682 66.4986 22.4326 66.4986 25.1425C66.4986 27.7135 64.6225 29.5202 61.4261 29.5202C57.8823 29.5897 56.0062 27.922 55.4503 24.8646V24.8646Z" fill="#48474C"/>
<path d="M70.4594 17.7079H68.2358V15.4844H70.4594V17.7079ZM70.3204 29.3816H68.2358V19.3061H70.3204V29.3816Z" fill="#48474C"/>
<path d="M75.3236 29.3812C73.517 29.3118 73.0306 28.4779 73.0306 26.8797V21.1124H71.4324V19.3752H73.0306V17.3601L75.0457 16.1094V19.3057H77.1997V21.1124H75.0457V26.6018C75.0457 27.2272 75.3236 27.5051 75.949 27.5051H77.1302V29.3118L75.3236 29.3812Z" fill="#48474C"/>
<path d="M77.7555 24.378C77.7555 21.2511 79.8401 19.1665 82.689 19.1665C85.538 19.1665 87.4141 21.1121 87.4141 24.3085V25.0728H79.8401C79.8401 26.6015 81.0213 27.8523 82.55 27.8523H82.7585C84.0093 27.9913 85.1905 27.2269 85.6074 26.0456L87.4836 26.7405C86.7887 28.2692 85.399 29.5199 82.828 29.5199C79.6316 29.5199 77.7555 27.5048 77.7555 24.378ZM79.7706 23.5441H85.1905C85.3295 22.2239 84.2872 21.0426 82.967 20.9037C82.828 20.9037 82.689 20.9037 82.6195 20.9037C81.0908 20.9037 79.9096 22.0154 79.7706 23.5441Z" fill="#48474C"/>
<path d="M88.5259 22.2936C88.5259 17.916 91.2358 14.9976 95.405 14.9976C99.5742 14.9976 102.215 17.916 102.215 22.2936C102.215 26.6712 99.5047 29.5897 95.3355 29.5897C91.1664 29.5897 88.5259 26.6712 88.5259 22.2936ZM99.9911 22.2936V22.1546C99.9911 18.8888 98.2539 16.8042 95.405 16.8042C92.5561 16.8042 90.7494 18.8193 90.7494 22.1546V22.2936C90.7494 25.6289 92.4866 27.644 95.3355 27.644C98.2539 27.644 99.9911 25.6984 99.9911 22.2936Z" fill="#48474C"/>
<path d="M106.036 21.1823C106.314 20.001 107.079 19.3062 108.955 19.3062H109.302V21.3213H108.33C106.592 21.3213 106.036 22.2246 106.036 24.2397V29.3817H103.952V19.3062H106.036V21.1823Z" fill="#48474C"/>
<path d="M112.638 17.7079H110.414V15.4844H112.638V17.7079ZM112.568 29.3816H110.484V19.3061H112.568V29.3816Z" fill="#48474C"/>
<path d="M117.154 26.3931H117.015C116.251 26.3236 115.834 26.671 115.834 27.0879C115.834 27.5049 116.459 27.9218 117.363 27.9218H119.447C122.644 27.9218 124.242 28.9641 124.242 30.9792C124.242 32.9943 122.227 34.3145 118.891 34.3145C115.556 34.3145 113.819 33.2722 113.819 31.3961C113.888 30.3538 114.653 29.4505 115.695 29.1725C114.792 29.0336 114.097 28.3387 114.027 27.4354C114.027 26.5321 114.653 25.9067 115.834 25.6982C114.931 25.0034 114.444 23.9611 114.375 22.8493C114.375 20.6952 116.181 19.097 118.613 19.097C120.003 19.0275 121.323 19.6529 122.088 20.7647C122.366 19.8614 123.269 19.236 124.172 19.3055V21.4596C123.616 21.2511 122.991 21.3901 122.574 21.807C122.644 22.1544 122.713 22.5019 122.713 22.8493C122.713 25.1423 121.045 26.6015 118.474 26.6015C118.058 26.671 117.641 26.5321 117.154 26.3931V26.3931ZM118.127 29.7979C116.807 29.7979 115.625 30.3538 115.625 31.3961C115.625 32.3689 116.807 32.8553 118.961 32.8553C121.115 32.8553 122.435 32.2299 122.435 31.2571C122.435 30.2843 121.532 29.7979 119.447 29.7979H118.127ZM120.906 22.9883V22.9188C120.767 21.668 119.656 20.7647 118.405 20.8342C117.293 20.9037 116.459 21.807 116.32 22.9188V22.9883C116.459 24.239 117.571 25.1423 118.822 25.0728C119.934 24.9339 120.767 24.0306 120.906 22.9883Z" fill="#48474C"/>
<path d="M127.438 17.7079H125.215V15.4844H127.438V17.7079ZM127.369 29.3816H125.284V19.3061H127.369V29.3816Z" fill="#48474C"/>
<path d="M131.468 21.2517C131.885 19.9315 133.205 19.0976 134.526 19.1671C136.68 19.1671 138 20.6263 138 23.2668V29.3816H135.915V23.4058C135.915 21.8076 135.29 20.9738 133.9 20.9738C132.372 20.9738 131.468 22.294 131.468 24.587V29.3816H129.384V19.3061H131.468V21.2517Z" fill="#48474C"/>
</svg>
