<svg width="285" height="285" viewBox="0 0 285 285" fill="none" xmlns="http://www.w3.org/2000/svg">
<rect width="285" height="285" fill="#FFF0DB"/>
<path d="M229.216 243.414H53.6641V68.539H229.216V243.414Z" fill="#EDD4B9"/>
<path d="M1.55126 282.84H282.515C283.37 282.84 284.065 282.145 284.065 281.289C284.065 280.432 283.37 279.737 282.515 279.737H1.55126C0.694517 279.737 0 280.432 0 281.289C0 282.145 0.694517 282.84 1.55126 282.84Z" fill="#2D5B98"/>
<path d="M44.2417 267.591C35.2037 267.591 27.877 260.264 27.877 251.225V228.917H60.6065V251.225C60.6065 260.264 53.2797 267.591 44.2417 267.591" fill="#296E99"/>
<path d="M27.8763 280.404H26.0625V245.777H27.8763V280.404Z" fill="#0E0E0E"/>
<path d="M62.4173 280.404H60.6035V245.777H62.4173V280.404Z" fill="#0E0E0E"/>
<path d="M48.5423 280.404H46.7285V245.777H48.5423V280.404Z" fill="#0E0E0E"/>
<path d="M26.0625 269.405V267.591H60.69V269.405H26.0625Z" fill="#0E0E0E"/>
<path d="M69.7287 192.06C71.7039 194.905 67.7282 197.357 67.1091 201.301C66.4901 205.243 71.0068 207.462 66.2165 212.625C63.266 215.805 60.7757 211.581 58.3775 216.455C55.9794 221.328 57.869 222.15 55.1734 223.903C50.4741 226.96 43.2847 220.204 45.7027 215.336C48.1206 210.468 53.0116 210.904 50.7488 206.898C48.4859 202.893 47.6441 201.167 51.5463 199.109C56.376 196.562 60.6319 198.902 61.0204 195.175C61.409 191.448 67.116 188.297 69.7287 192.06Z" fill="#FFCA59"/>
<path d="M49.0825 228.695L48.2695 228.534C52.0774 209.288 64.7014 195.81 64.8284 195.677L65.4295 196.247C65.304 196.379 52.8424 209.692 49.0825 228.695" fill="#0E0E0E"/>
<path d="M6.43299 184.949C4.39115 189.11 10.1453 191.555 11.7574 196.65C13.3695 201.742 7.43316 203.542 14.8107 209.411C19.3545 213.027 20.3055 210.766 21.976 218.853C23.4467 225.972 28.8561 219.197 32.9013 223.376C38.1209 228.767 46.277 216.934 42.0985 210.979C37.9198 205.024 33.0435 206.563 35.2325 200.808C37.4216 195.052 34.8107 190.717 29.233 188.777C22.3295 186.378 19.8466 192.172 18.583 187.319C17.3194 182.465 9.13351 179.444 6.43299 184.949Z" fill="#ED5A24"/>
<path d="M41.1223 229.276C32.3206 204.872 13.1572 189.775 12.9648 189.626L13.6456 188.749C13.8406 188.901 33.2562 204.196 42.1658 228.9L41.1223 229.276Z" fill="#0E0E0E"/>
<path fill-rule="evenodd" clip-rule="evenodd" d="M96.4429 166.422C96.7206 166.425 96.9987 166.427 97.2772 166.427C97.5558 166.427 97.8339 166.425 98.1116 166.422L98.0983 165.315C97.825 165.319 97.5513 165.32 97.2772 165.32C97.0032 165.32 96.7295 165.319 96.4562 165.315L96.4429 166.422ZM93.123 166.301C93.674 166.335 94.2269 166.362 94.7814 166.382L94.8215 165.276C94.2759 165.256 93.732 165.23 93.1898 165.197L93.123 166.301ZM99.7731 166.382C100.328 166.361 100.88 166.335 101.432 166.301L101.365 165.197C100.823 165.23 100.279 165.256 99.733 165.276L99.7731 166.382ZM89.8124 166.02C90.3612 166.08 90.912 166.134 91.4646 166.181L91.5584 165.078C91.0147 165.032 90.4729 164.979 89.9331 164.92L89.8124 166.02ZM103.09 166.181C103.642 166.134 104.193 166.08 104.742 166.02L104.621 164.92C104.082 164.979 103.54 165.032 102.996 165.078L103.09 166.181ZM86.5193 165.577C87.0646 165.664 87.612 165.744 88.1615 165.818L88.3091 164.722C87.7686 164.649 87.2301 164.57 86.6938 164.484L86.5193 165.577ZM106.393 165.818C106.942 165.744 107.49 165.664 108.035 165.577L107.861 164.484C107.324 164.57 106.786 164.649 106.245 164.722L106.393 165.818ZM83.2517 164.972C83.7922 165.086 84.335 165.193 84.8801 165.294L85.0815 164.206C84.5453 164.107 84.0114 164.001 83.4799 163.889L83.2517 164.972ZM109.674 165.294C110.219 165.193 110.762 165.086 111.303 164.972L111.075 163.889C110.543 164.001 110.009 164.107 109.473 164.206L109.674 165.294ZM80.0178 164.207C80.5521 164.347 81.089 164.481 81.6284 164.609L81.8832 163.532C81.3527 163.407 80.8247 163.275 80.2991 163.137L80.0178 164.207ZM112.926 164.609C113.465 164.481 114.002 164.347 114.537 164.207L114.255 163.137C113.73 163.275 113.202 163.407 112.671 163.532L112.926 164.609ZM76.8256 163.283C77.3525 163.449 77.8821 163.61 78.4145 163.764L78.7222 162.701C78.1986 162.55 77.6777 162.392 77.1595 162.228L76.8256 163.283ZM116.14 163.764C116.672 163.61 117.202 163.449 117.729 163.283L117.395 162.228C116.877 162.392 116.356 162.55 115.832 162.701L116.14 163.764ZM73.6829 162.202C74.2011 162.394 74.7222 162.581 75.2463 162.761L75.6062 161.715C75.0908 161.538 74.5782 161.354 74.0685 161.165L73.6829 162.202ZM119.308 162.761C119.832 162.581 120.353 162.394 120.872 162.202L120.486 161.165C119.976 161.354 119.464 161.537 118.948 161.715L119.308 162.761ZM70.5975 160.967C71.1057 161.185 71.617 161.397 72.1315 161.603L72.5427 160.576C72.0367 160.373 71.5337 160.164 71.0339 159.95L70.5975 160.967ZM122.423 161.603C122.937 161.397 123.449 161.185 123.957 160.967L123.52 159.95C123.021 160.164 122.518 160.373 122.012 160.576L122.423 161.603ZM67.5768 159.581C68.0738 159.824 68.5741 160.061 69.0778 160.292L69.5392 159.286C69.0438 159.059 68.5517 158.826 68.0629 158.587L67.5768 159.581ZM125.477 160.292C125.98 160.061 126.481 159.824 126.978 159.581L126.492 158.587C126.003 158.826 125.511 159.059 125.015 159.286L125.477 160.292ZM64.6282 158.048C65.1127 158.315 65.6008 158.577 66.0925 158.832L66.6029 157.851C66.1193 157.599 65.6391 157.342 65.1626 157.079L64.6282 158.048ZM128.462 158.832C128.954 158.577 129.442 158.315 129.926 158.048L129.392 157.079C128.915 157.342 128.435 157.599 127.952 157.851L128.462 158.832ZM61.7585 156.372C62.2294 156.663 62.7042 156.948 63.1826 157.227L63.7407 156.272C63.27 155.997 62.8031 155.717 62.3399 155.431L61.7585 156.372ZM131.372 157.227C131.85 156.948 132.325 156.663 132.796 156.372L132.214 155.43C131.751 155.717 131.284 155.997 130.814 156.272L131.372 157.227ZM58.9746 154.557C59.4308 154.871 59.891 155.179 60.3552 155.482L60.9594 154.555C60.5028 154.257 60.0501 153.954 59.6014 153.645L58.9746 154.557ZM134.199 155.481C134.663 155.179 135.124 154.871 135.58 154.557L134.953 153.645C134.504 153.954 134.052 154.257 133.595 154.555L134.199 155.481ZM56.283 152.608C56.7233 152.944 57.1679 153.274 57.6167 153.599L58.2656 152.703C57.8242 152.383 57.3868 152.058 56.9536 151.728L56.283 152.608ZM136.938 153.599C137.386 153.274 137.831 152.944 138.271 152.608L137.601 151.728C137.168 152.058 136.73 152.383 136.289 152.703L136.938 153.599ZM53.6898 150.53C54.1133 150.887 54.5413 151.239 54.9736 151.585L55.6655 150.722C55.2403 150.381 54.8193 150.035 54.4026 149.684L53.6898 150.53ZM139.581 151.585C140.013 151.239 140.441 150.887 140.864 150.53L140.152 149.684C139.735 150.035 139.314 150.381 138.889 150.722L139.581 151.585ZM51.2012 148.328C51.6069 148.705 52.0172 149.077 52.432 149.445L53.1653 148.616C52.7572 148.255 52.3535 147.889 51.9545 147.518L51.2012 148.328ZM142.122 149.444C142.537 149.077 142.947 148.705 143.353 148.328L142.6 147.518C142.201 147.889 141.797 148.255 141.389 148.616L142.122 149.444ZM48.823 146.007C49.2099 146.404 49.6015 146.796 49.9979 147.182L50.7707 146.39C50.3808 146.01 49.9955 145.625 49.6149 145.235L48.823 146.007ZM144.556 147.182C144.953 146.795 145.344 146.404 145.731 146.007L144.939 145.235C144.559 145.625 144.174 146.01 143.784 146.39L144.556 147.182ZM46.5608 143.573C46.9279 143.988 47.3 144.399 47.677 144.804L48.4875 144.051C48.1166 143.652 47.7506 143.248 47.3895 142.84L46.5608 143.573ZM146.877 144.804C147.254 144.398 147.626 143.988 147.993 143.573L147.165 142.84C146.804 143.248 146.438 143.652 146.067 144.051L146.877 144.804ZM44.4201 141.032C44.7666 141.464 45.1182 141.892 45.4749 142.316L46.3212 141.603C45.9703 141.186 45.6244 140.765 45.2836 140.34L44.4201 141.032ZM149.079 142.316C149.436 141.892 149.788 141.464 150.134 141.032L149.271 140.34C148.93 140.765 148.584 141.186 148.233 141.603L149.079 142.316ZM42.4061 138.389C42.731 138.838 43.0613 139.282 43.3968 139.723L44.2769 139.052C43.9468 138.619 43.6219 138.181 43.3023 137.74L42.4061 138.389ZM151.157 139.722C151.493 139.282 151.823 138.837 152.148 138.389L151.252 137.74C150.932 138.181 150.607 138.619 150.277 139.052L151.157 139.722ZM40.5237 135.65C40.8263 136.115 41.1344 136.575 41.448 137.031L42.3598 136.404C42.0514 135.955 41.7483 135.503 41.4506 135.046L40.5237 135.65ZM153.106 137.031C153.42 136.575 153.728 136.114 154.03 135.65L153.104 135.046C152.806 135.503 152.503 135.955 152.194 136.404L153.106 137.031ZM38.7778 132.823C39.0573 133.301 39.3424 133.776 39.6332 134.247L40.5747 133.666C40.2886 133.202 40.0081 132.736 39.7332 132.265L38.7778 132.823ZM154.921 134.247C155.212 133.776 155.497 133.301 155.776 132.823L154.821 132.265C154.546 132.735 154.266 133.202 153.98 133.666L154.921 134.247ZM37.1728 129.913C37.4284 130.405 37.6899 130.893 37.9571 131.377L38.926 130.843C38.6632 130.366 38.406 129.886 38.1546 129.403L37.1728 129.913ZM156.597 131.377C156.864 130.893 157.126 130.405 157.381 129.913L156.4 129.403C156.148 129.886 155.891 130.366 155.628 130.843L156.597 131.377ZM35.713 126.928C35.9441 127.431 36.1812 127.932 36.4242 128.429L37.4182 127.943C37.1792 127.454 36.946 126.962 36.7187 126.466L35.713 126.928ZM158.13 128.429C158.373 127.932 158.61 127.431 158.841 126.928L157.835 126.466C157.608 126.962 157.375 127.454 157.136 127.943L158.13 128.429ZM34.4022 123.874C34.6082 124.389 34.8203 124.9 35.0384 125.408L36.0552 124.972C35.8406 124.472 35.632 123.969 35.4295 123.463L34.4022 123.874ZM159.516 125.408C159.734 124.9 159.946 124.389 160.152 123.874L159.125 123.463C158.922 123.969 158.714 124.472 158.499 124.972L159.516 125.408ZM33.2439 120.759C33.4242 121.283 33.6107 121.805 33.8034 122.323L34.8405 121.937C34.651 121.427 34.4675 120.915 34.2902 120.399L33.2439 120.759ZM160.751 122.323C160.943 121.805 161.13 121.283 161.31 120.759L160.264 120.399C160.087 120.915 159.903 121.427 159.714 121.937L160.751 122.323ZM32.241 117.591C32.3951 118.124 32.5556 118.653 32.7224 119.18L33.7773 118.846C33.6133 118.328 33.4554 117.807 33.3038 117.283L32.241 117.591ZM161.832 119.18C161.998 118.653 162.159 118.123 162.313 117.591L161.25 117.283C161.099 117.807 160.941 118.328 160.777 118.846L161.832 119.18ZM31.396 114.377C31.5236 114.917 31.6577 115.454 31.7982 115.988L32.8683 115.707C32.7302 115.181 32.5983 114.653 32.4727 114.122L31.396 114.377ZM162.756 115.988C162.896 115.453 163.03 114.917 163.158 114.377L162.081 114.122C161.956 114.653 161.824 115.181 161.686 115.706L162.756 115.988ZM30.7108 111.126C30.8117 111.671 30.9191 112.213 31.033 112.754L32.1157 112.526C32.0037 111.994 31.898 111.46 31.7988 110.924L30.7108 111.126ZM163.521 112.754C163.635 112.213 163.742 111.671 163.843 111.125L162.755 110.924C162.656 111.46 162.55 111.994 162.438 112.526L163.521 112.754ZM30.1867 107.844C30.2606 108.394 30.3412 108.941 30.4283 109.486L31.5209 109.312C31.4353 108.776 31.356 108.237 31.2833 107.697L30.1867 107.844ZM164.126 109.486C164.213 108.941 164.293 108.394 164.367 107.844L163.271 107.696C163.198 108.237 163.119 108.775 163.033 109.312L164.126 109.486ZM29.8242 104.541C29.8712 105.094 29.9249 105.644 29.9851 106.193L31.0849 106.073C31.0257 105.533 30.973 104.991 30.9267 104.447L29.8242 104.541ZM164.569 106.193C164.629 105.644 164.683 105.094 164.73 104.541L163.627 104.447C163.581 104.991 163.528 105.533 163.469 106.073L164.569 106.193ZM29.6233 101.224C29.6434 101.779 29.6702 102.332 29.7035 102.883L30.808 102.816C30.7752 102.274 30.7488 101.73 30.729 101.184L29.6233 101.224ZM164.851 102.883C164.884 102.332 164.911 101.779 164.931 101.224L163.825 101.184C163.805 101.73 163.779 102.274 163.746 102.816L164.851 102.883ZM29.5781 98.7284C29.5781 99.0069 29.5798 99.285 29.5832 99.5628L30.6896 99.5494C30.6863 99.2761 30.6846 99.0025 30.6846 98.7284C30.6846 98.4544 30.6863 98.1807 30.6896 97.9074L29.5832 97.8941C29.5798 98.1718 29.5781 98.4499 29.5781 98.7284ZM164.971 99.5628C164.974 99.285 164.976 99.0069 164.976 98.7284C164.976 98.4499 164.974 98.1718 164.971 97.894L163.864 97.9074C163.868 98.1807 163.869 98.4543 163.869 98.7284C163.869 99.0025 163.868 99.2761 163.864 99.5494L164.971 99.5628ZM29.7035 94.5741C29.6702 95.1252 29.6434 95.6781 29.6233 96.2326L30.729 96.2727C30.7488 95.7271 30.7752 95.1831 30.808 94.641L29.7035 94.5741ZM164.931 96.2326C164.911 95.678 164.884 95.1252 164.851 94.5741L163.746 94.6409C163.779 95.1831 163.805 95.727 163.825 96.2726L164.931 96.2326ZM29.985 91.2636C29.9248 91.8124 29.8712 92.3631 29.8242 92.9158L30.9267 93.0095C30.9729 92.4659 31.0257 91.9241 31.0849 91.3842L29.985 91.2636ZM164.73 92.9157C164.683 92.3631 164.629 91.8123 164.569 91.2635L163.469 91.3842C163.528 91.924 163.581 92.4658 163.627 93.0095L164.73 92.9157ZM30.4282 87.9704C30.3412 88.5157 30.2606 89.0631 30.1866 89.6126L31.2832 89.7602C31.356 89.2197 31.4352 88.6812 31.5209 88.1449L30.4282 87.9704ZM164.367 89.6126C164.293 89.0631 164.213 88.5156 164.126 87.9704L163.033 88.1448C163.119 88.6812 163.198 89.2197 163.271 89.7602L164.367 89.6126ZM31.0329 84.7028C30.919 85.2432 30.8116 85.7861 30.7107 86.3312L31.7987 86.5325C31.898 85.9964 32.0036 85.4625 32.1156 84.9309L31.0329 84.7028ZM163.843 86.3312C163.742 85.786 163.635 85.2432 163.521 84.7028L162.438 84.9309C162.55 85.4624 162.656 85.9963 162.755 86.5325L163.843 86.3312ZM31.7981 81.4688C31.6576 82.0032 31.5235 82.5401 31.3959 83.0795L32.4726 83.3343C32.5982 82.8037 32.7301 82.2757 32.8682 81.7501L31.7981 81.4688ZM163.158 83.0794C163.031 82.54 162.896 82.0031 162.756 81.4688L161.686 81.7501C161.824 82.2757 161.956 82.8037 162.081 83.3342L163.158 83.0794ZM32.7223 78.2765C32.5555 78.8034 32.395 79.3331 32.2409 79.8655L33.3037 80.1732C33.4553 79.6496 33.6132 79.1286 33.7772 78.6104L32.7223 78.2765ZM162.313 79.8655C162.159 79.3331 161.999 78.8034 161.832 78.2765L160.777 78.6104C160.941 79.1287 161.099 79.6496 161.25 80.1732L162.313 79.8655ZM161.31 76.6972C161.13 76.1732 160.944 75.652 160.751 75.1338L159.714 75.5195C159.903 76.0291 160.087 76.5417 160.264 77.0572L161.31 76.6972ZM33.8032 75.1338C33.6105 75.652 33.424 76.1732 33.2437 76.6972L34.2901 77.0571C34.4674 76.5417 34.6508 76.0291 34.8403 75.5195L33.8032 75.1338ZM160.152 73.5825C159.946 73.068 159.734 72.5566 159.516 72.0484L158.499 72.4848C158.714 72.9846 158.922 73.4876 159.125 73.9936L160.152 73.5825ZM35.0382 72.0484C34.8201 72.5566 34.608 73.0679 34.4021 73.5824L35.4293 73.9936C35.6319 73.4876 35.8404 72.9846 36.055 72.4848L35.0382 72.0484ZM158.841 70.5287C158.61 70.025 158.373 69.5247 158.13 69.0277L157.136 69.5138C157.375 70.0026 157.608 70.4947 157.836 70.9901L158.841 70.5287ZM36.424 69.0277C36.181 69.5246 35.9439 70.025 35.7128 70.5287L36.7185 70.9901C36.9458 70.4947 37.179 70.0025 37.418 69.5137L36.424 69.0277ZM157.382 67.5433C157.126 67.0517 156.864 66.5636 156.597 66.0791L155.628 66.6134C155.891 67.09 156.148 67.5701 156.4 68.0537L157.382 67.5433ZM37.9569 66.079C37.6897 66.5635 37.4282 67.0517 37.1726 67.5433L38.1543 68.0537C38.4058 67.5701 38.6629 67.09 38.9258 66.6134L37.9569 66.079ZM155.777 64.6335C155.497 64.155 155.212 63.6803 154.921 63.2094L153.98 63.7907C154.266 64.2539 154.546 64.7209 154.821 65.1915L155.777 64.6335ZM39.6329 63.2093C39.3421 63.6802 39.057 64.155 38.7775 64.6335L39.733 65.1915C40.0079 64.7208 40.2884 64.2539 40.5744 63.7907L39.6329 63.2093ZM154.031 61.806C153.728 61.3418 153.42 60.8816 153.107 60.4254L152.195 61.0522C152.503 61.5009 152.806 61.9536 153.104 62.4102L154.031 61.806ZM41.4477 60.4254C41.1341 60.8816 40.826 61.3418 40.5234 61.806L41.4503 62.4102C41.748 61.9536 42.0511 61.5009 42.3595 61.0522L41.4477 60.4254ZM152.148 59.0675C151.824 58.6187 151.493 58.1741 151.158 57.7337L150.278 58.4044C150.608 58.8376 150.933 59.2749 151.252 59.7164L152.148 59.0675ZM43.3965 57.7337C43.061 58.1741 42.7307 58.6187 42.4058 59.0675L43.302 59.7164C43.6216 59.2749 43.9465 58.8375 44.2766 58.4043L43.3965 57.7337ZM150.134 56.4244C149.788 55.9921 149.436 55.5641 149.08 55.1406L148.233 55.8534C148.584 56.27 148.93 56.691 149.271 57.1163L150.134 56.4244ZM45.4746 55.1405C45.1178 55.564 44.7662 55.992 44.4198 56.4243L45.2832 57.1163C45.624 56.691 45.9699 56.27 46.3209 55.8533L45.4746 55.1405ZM147.994 53.8828C147.627 53.4679 147.255 53.0576 146.878 52.652L146.067 53.4052C146.438 53.8043 146.804 54.2079 147.165 54.616L147.994 53.8828ZM47.6767 52.6519C47.2997 53.0576 46.9276 53.4679 46.5605 53.8827L47.3891 54.616C47.7503 54.2079 48.1163 53.8042 48.4872 53.4052L47.6767 52.6519ZM145.732 51.4487C145.345 51.0523 144.953 50.6606 144.557 50.2737L143.784 51.0656C144.174 51.4462 144.559 51.8315 144.94 52.2215L145.732 51.4487ZM49.9976 50.2737C49.6012 50.6605 49.2095 51.0522 48.8227 51.4486L49.6145 52.2214C49.9951 51.8315 50.3804 51.4461 50.7704 51.0656L49.9976 50.2737ZM143.353 49.1278C142.948 48.7507 142.537 48.3786 142.123 48.0115L141.389 48.8402C141.797 49.2013 142.201 49.5674 142.6 49.9383L143.353 49.1278ZM52.4317 48.0115C52.0168 48.3786 51.6065 48.7507 51.2008 49.1277L51.9541 49.9382C52.3532 49.5673 52.7568 49.2013 53.1649 48.8401L52.4317 48.0115ZM140.865 46.9256C140.441 46.5689 140.013 46.2172 139.581 45.8708L138.889 46.7342C139.314 47.075 139.735 47.421 140.152 47.7719L140.865 46.9256ZM54.9732 45.8708C54.5409 46.2172 54.113 46.5688 53.6894 46.9256L54.4023 47.7718C54.8189 47.4209 55.2399 47.075 55.6652 46.7342L54.9732 45.8708ZM138.272 44.8475C137.831 44.512 137.387 44.1817 136.938 43.8567L136.289 44.753C136.73 45.0726 137.168 45.3975 137.601 45.7276L138.272 44.8475ZM57.6163 43.8567C57.1676 44.1816 56.723 44.5119 56.2826 44.8475L56.9532 45.7276C57.3864 45.3975 57.8238 45.0726 58.2652 44.7529L57.6163 43.8567ZM135.58 42.8986C135.124 42.5851 134.664 42.2769 134.199 41.9744L133.595 42.9013C134.052 43.1989 134.505 43.502 134.953 43.8105L135.58 42.8986ZM60.3548 41.9743C59.8907 42.2769 59.4304 42.585 58.9743 42.8986L59.601 43.8105C60.0498 43.502 60.5025 43.1989 60.9591 42.9013L60.3548 41.9743ZM132.796 41.0838C132.325 40.7931 131.85 40.5079 131.372 40.2284L130.814 41.1839C131.285 41.4588 131.752 41.7393 132.215 42.0253L132.796 41.0838ZM63.1823 40.2284C62.7038 40.5079 62.2291 40.793 61.7582 41.0838L62.3395 42.0253C62.8027 41.7393 63.2697 41.4588 63.7404 41.1839L63.1823 40.2284ZM129.926 39.4078C129.442 39.1406 128.954 38.8791 128.462 38.6235L127.952 39.6052C128.435 39.8566 128.916 40.1138 129.392 40.3767L129.926 39.4078ZM66.0921 38.6235C65.6005 38.8791 65.1124 39.1405 64.6279 39.4078L65.1623 40.3767C65.6388 40.1138 66.1189 39.8566 66.6025 39.6052L66.0921 38.6235ZM126.978 37.8748C126.481 37.6318 125.981 37.3948 125.477 37.1637L125.015 38.1694C125.511 38.3967 126.003 38.6299 126.492 38.8689L126.978 37.8748ZM69.0775 37.1637C68.5738 37.3947 68.0735 37.6318 67.5765 37.8748L68.0626 38.8688C68.5514 38.6298 69.0435 38.3967 69.5389 38.1694L69.0775 37.1637ZM72.1312 35.8529C71.6167 36.0588 71.1054 36.2709 70.5972 36.489L71.0336 37.5058C71.5334 37.2913 72.0364 37.0827 72.5424 36.8801L72.1312 35.8529ZM123.957 36.489C123.449 36.2709 122.938 36.0588 122.423 35.8529L122.012 36.8801C122.518 37.0827 123.021 37.2913 123.521 37.5058L123.957 36.489ZM75.246 34.6945C74.722 34.8748 74.2008 35.0613 73.6826 35.254L74.0683 36.2911C74.5779 36.1016 75.0905 35.9181 75.606 35.7408L75.246 34.6945ZM120.872 35.254C120.354 35.0613 119.832 34.8748 119.308 34.6945L118.948 35.7408C119.464 35.9182 119.976 36.1016 120.486 36.2911L120.872 35.254ZM78.4143 33.6916C77.8819 33.8458 77.3522 34.0063 76.8253 34.173L77.1592 35.228C77.6774 35.0639 78.1984 34.9061 78.722 34.7545L78.4143 33.6916ZM117.729 34.173C117.202 34.0063 116.672 33.8458 116.14 33.6916L115.832 34.7545C116.356 34.9061 116.877 35.0639 117.395 35.228L117.729 34.173ZM81.6282 32.8466C81.0888 32.9743 80.5519 33.1084 80.0176 33.2488L80.2989 34.319C80.8244 34.1808 81.3525 34.0489 81.883 33.9234L81.6282 32.8466ZM114.537 33.2488C114.002 33.1084 113.466 32.9743 112.926 32.8466L112.671 33.9234C113.202 34.0489 113.73 34.1808 114.255 34.319L114.537 33.2488ZM84.8799 32.1615C84.3348 32.2623 83.792 32.3698 83.2516 32.4836L83.4797 33.5663C84.0112 33.4544 84.5451 33.3487 85.0813 33.2495L84.8799 32.1615ZM111.303 32.4836C110.762 32.3698 110.22 32.2623 109.674 32.1615L109.473 33.2495C110.009 33.3487 110.543 33.4544 111.075 33.5663L111.303 32.4836ZM88.1614 31.6374C87.6119 31.7113 87.0644 31.7919 86.5192 31.8789L86.6937 32.9716C87.23 32.8859 87.7685 32.8067 88.309 32.734L88.1614 31.6374ZM108.035 31.8789C107.49 31.7919 106.942 31.7113 106.393 31.6373L106.245 32.7339C106.786 32.8067 107.324 32.8859 107.861 32.9716L108.035 31.8789ZM91.4645 31.2749C90.9119 31.3219 90.3611 31.3755 89.8123 31.4357L89.933 32.5356C90.4728 32.4764 91.0146 32.4236 91.5583 32.3774L91.4645 31.2749ZM104.742 31.4357C104.193 31.3755 103.642 31.3219 103.09 31.2749L102.996 32.3774C103.54 32.4236 104.082 32.4764 104.621 32.5356L104.742 31.4357ZM94.7814 31.074C94.2268 31.0941 93.674 31.1208 93.1229 31.1542L93.1897 32.2587C93.7319 32.2259 94.2758 32.1995 94.8214 32.1797L94.7814 31.074ZM101.432 31.1542C100.88 31.1208 100.328 31.0941 99.773 31.074L99.7329 32.1797C100.279 32.1995 100.822 32.2258 101.365 32.2587L101.432 31.1542ZM97.2772 31.0288C96.9987 31.0288 96.7206 31.0305 96.4428 31.0338L96.4562 32.1403C96.7295 32.1369 97.0031 32.1353 97.2772 32.1353C97.5513 32.1353 97.8249 32.1369 98.0982 32.1403L98.1116 31.0338C97.8339 31.0305 97.5557 31.0288 97.2772 31.0288Z" fill="#296E99"/>
<path d="M230.173 27.5184C230.229 27.1085 230.268 26.6927 230.268 26.2669C230.268 21.1486 226.093 17 220.943 17C217.08 17 213.765 19.3343 212.35 22.6622C211.199 21.6429 209.686 21.0196 208.023 21.0196C204.425 21.0196 201.507 23.9187 201.507 27.4946H200.291C196.831 27.4946 194 30.3083 194 33.7473C194 37.1863 196.831 40 200.291 40H229.709C233.169 40 236 37.1863 236 33.7473C236 30.4641 233.418 27.7576 230.173 27.5184" fill="#296E99"/>
<path d="M121.622 181.176H71.6377C69.9555 181.176 68.5918 179.812 68.5918 178.13V136.196C68.5918 134.514 69.9555 133.15 71.6377 133.15H121.622C123.304 133.15 124.667 134.514 124.667 136.196V178.13C124.667 179.812 123.304 181.176 121.622 181.176" fill="#296E99"/>
<path d="M113.607 162.148H79.8022C78.696 162.148 77.791 161.242 77.791 160.137C77.791 159.031 78.696 158.126 79.8022 158.126H113.607C114.713 158.126 115.619 159.031 115.619 160.137C115.619 161.242 114.713 162.148 113.607 162.148Z" fill="white"/>
<path d="M113.607 168.626H79.8022C78.696 168.626 77.791 167.721 77.791 166.615C77.791 165.508 78.696 164.603 79.8022 164.603H113.607C114.713 164.603 115.619 165.508 115.619 166.615C115.619 167.721 114.713 168.626 113.607 168.626Z" fill="white"/>
<path d="M86.1155 166.793C86.1155 167.183 85.7984 167.5 85.4073 167.5C85.0162 167.5 84.6992 167.183 84.6992 166.793C84.6992 166.401 85.0162 166.084 85.4073 166.084C85.7984 166.084 86.1155 166.401 86.1155 166.793Z" fill="#80B2FF"/>
<path d="M88.5413 166.793C88.5413 167.183 88.2242 167.5 87.8331 167.5C87.442 167.5 87.125 167.183 87.125 166.793C87.125 166.401 87.442 166.084 87.8331 166.084C88.2242 166.084 88.5413 166.401 88.5413 166.793Z" fill="#80B2FF"/>
<path d="M90.969 166.793C90.969 167.183 90.6519 167.5 90.2609 167.5C89.8698 167.5 89.5527 167.183 89.5527 166.793C89.5527 166.401 89.8698 166.084 90.2609 166.084C90.6519 166.084 90.969 166.401 90.969 166.793Z" fill="#80B2FF"/>
<path d="M93.3966 166.793C93.3966 167.183 93.0795 167.5 92.6885 167.5C92.2974 167.5 91.9805 167.183 91.9805 166.793C91.9805 166.401 92.2974 166.084 92.6885 166.084C93.0795 166.084 93.3966 166.401 93.3966 166.793Z" fill="#80B2FF"/>
<path d="M95.8245 166.793C95.8245 167.183 95.5074 167.5 95.1163 167.5C94.7252 167.5 94.4082 167.183 94.4082 166.793C94.4082 166.401 94.7252 166.084 95.1163 166.084C95.5074 166.084 95.8245 166.401 95.8245 166.793Z" fill="#80B2FF"/>
<path d="M98.2522 166.793C98.2522 167.183 97.9351 167.5 97.544 167.5C97.1529 167.5 96.8359 167.183 96.8359 166.793C96.8359 166.401 97.1529 166.084 97.544 166.084C97.9351 166.084 98.2522 166.401 98.2522 166.793Z" fill="#80B2FF"/>
<path d="M100.68 166.793C100.68 167.183 100.363 167.5 99.9719 167.5C99.5808 167.5 99.2637 167.183 99.2637 166.793C99.2637 166.401 99.5808 166.084 99.9719 166.084C100.363 166.084 100.68 166.401 100.68 166.793Z" fill="#80B2FF"/>
<path d="M103.11 166.793C103.11 167.183 102.792 167.5 102.401 167.5C102.01 167.5 101.693 167.183 101.693 166.793C101.693 166.401 102.01 166.084 102.401 166.084C102.792 166.084 103.11 166.401 103.11 166.793Z" fill="#80B2FF"/>
<path d="M105.535 166.793C105.535 167.183 105.218 167.5 104.827 167.5C104.436 167.5 104.119 167.183 104.119 166.793C104.119 166.401 104.436 166.084 104.827 166.084C105.218 166.084 105.535 166.401 105.535 166.793Z" fill="#80B2FF"/>
<path d="M104.485 144.726C104.485 149.018 101.006 152.497 96.7142 152.497C92.4225 152.497 88.9434 149.018 88.9434 144.726C88.9434 140.434 92.4225 136.955 96.7142 136.955C101.006 136.955 104.485 140.434 104.485 144.726Z" fill="white"/>
<path d="M96.7247 144.415C97.4832 144.415 98.1838 144.045 98.6311 143.481C98.9617 143.072 99.1564 142.547 99.1564 141.963C99.1564 140.621 98.0669 139.512 96.7247 139.512C95.363 139.512 94.2734 140.621 94.2734 141.963C94.2734 142.547 94.4676 143.072 94.7988 143.481C95.2461 144.045 95.9462 144.415 96.7247 144.415Z" fill="#296E99"/>
<path d="M101.033 148.782C101.033 150.329 92.3945 150.329 92.3945 148.782L92.3973 146.98C92.7386 144.515 100.331 144.411 101.034 146.98L101.033 148.782Z" fill="#296E99"/>
<path d="M80.8198 166.962V167.374C80.8198 167.448 80.7563 167.5 80.6823 167.5C80.6083 167.5 80.5557 167.448 80.5557 167.374V166.962C80.4815 166.92 80.4287 166.845 80.4287 166.75C80.4287 166.613 80.545 166.497 80.6823 166.497C80.8198 166.497 80.9359 166.613 80.9359 166.75C80.9359 166.845 80.8829 166.92 80.8198 166.962ZM80.1758 166.135C80.1758 165.862 80.3446 165.613 80.6851 165.613C81.0253 165.613 81.1999 165.846 81.1999 166.135V166.243H80.1758V166.135ZM81.4764 166.243V166.135C81.4764 165.699 81.1215 165.344 80.6851 165.344C80.2486 165.344 79.8937 165.699 79.8937 166.135V166.243H79.7734V167.67C79.7734 167.916 81.6016 167.916 81.6016 167.67V166.243H81.4764" fill="#296E99"/>
<path d="M80.6871 159.99C80.8472 159.99 80.9951 159.913 81.0895 159.794C81.1592 159.708 81.2003 159.597 81.2003 159.473C81.2003 159.191 80.9704 158.956 80.6871 158.956C80.3998 158.956 80.1699 159.191 80.1699 159.473C80.1699 159.597 80.211 159.708 80.2808 159.794C80.3752 159.913 80.5229 159.99 80.6871 159.99Z" fill="#296E99"/>
<path d="M81.5979 160.913C81.5979 161.239 79.7656 161.239 79.7656 160.913L79.7755 160.533C79.8476 160.012 81.4497 159.99 81.5982 160.533L81.5979 160.913Z" fill="#296E99"/>
<path d="M92.5296 160.727H85.1215C84.7969 160.727 84.5312 160.462 84.5312 160.137C84.5312 159.812 84.7969 159.547 85.1215 159.547H92.5296C92.8542 159.547 93.1198 159.812 93.1198 160.137C93.1198 160.462 92.8542 160.727 92.5296 160.727Z" fill="#80B2FF"/>
<path d="M102.299 160.727H94.891C94.5664 160.727 94.3008 160.462 94.3008 160.137C94.3008 159.812 94.5664 159.547 94.891 159.547H102.299C102.624 159.547 102.889 159.812 102.889 160.137C102.889 160.462 102.624 160.727 102.299 160.727Z" fill="#80B2FF"/>
<path d="M99.1788 174.902H92.4654C91.5136 174.902 90.7422 174.131 90.7422 173.18C90.7422 172.228 91.5136 171.456 92.4654 171.456H99.1788C100.13 171.456 100.902 172.228 100.902 173.18C100.902 174.131 100.13 174.902 99.1788 174.902Z" fill="#296E99"/>
<path d="M27.9014 95.8185C24.0506 99.9438 17.906 103.324 11.3307 104.764C11.3288 105.203 11.3179 107.637 11.2678 118.85C11.2009 133.81 25.4379 141.121 27.6481 142.242C29.7899 141.256 44.2065 133.957 44.2733 118.999C44.3234 107.784 44.3343 105.35 44.3363 104.912C37.7743 103.413 31.7151 99.978 27.9014 95.8185" fill="white"/>
<path d="M27.8631 98.5209C24.0922 101.981 18.868 104.699 13.1233 106.181L13.0666 118.856C13.0406 124.655 15.3447 129.902 19.9148 134.451C22.9177 137.439 26.075 139.293 27.677 140.126C27.7459 140.092 27.8216 140.051 27.896 140.013V98.55C27.8851 98.5411 27.8736 98.531 27.8631 98.5209Z" fill="#296E99"/>
<path d="M27.8945 98.5515V140.015C29.5605 139.148 32.5884 137.357 35.4882 134.522C40.0986 130.014 42.4496 124.789 42.4753 118.989L42.5321 106.314C36.8172 104.786 31.6316 102.03 27.8945 98.5515" fill="#296E99"/>
<path d="M28.5709 122.035V124.818C28.5709 125.189 28.2694 125.496 27.8987 125.496C27.5219 125.496 27.2203 125.189 27.2203 124.818V122.029C26.6486 121.77 26.2466 121.193 26.2466 120.527C26.2466 119.616 26.9877 118.881 27.8987 118.881C28.8096 118.881 29.5448 119.616 29.5448 120.527C29.5448 121.199 29.1488 121.777 28.5709 122.035ZM21.2207 116.82V126.64C21.2207 127.733 34.5706 127.733 34.5706 126.64V116.82H21.2207Z" fill="white"/>
<path d="M33.4026 116.12H32.0513V115.459C32.0513 113.168 30.1873 111.304 27.8968 111.304C25.6058 111.304 23.742 113.168 23.742 115.459V116.12H22.3906V115.459C22.3906 112.423 24.8606 109.953 27.8968 109.953C30.9325 109.953 33.4026 112.423 33.4026 115.459V116.12Z" fill="white"/>
<path d="M126.715 45.1016H102.6V15.0003H126.715V45.1016Z" fill="#296E99"/>
<path d="M129.844 48.21H105.729V18.1087H129.844V48.21Z" fill="white"/>
<path d="M129.844 48.21H105.729V18.1087H129.844V48.21Z" stroke="#296E99" stroke-width="8.45409" stroke-miterlimit="10"/>
<path d="M133.815 51.2607H109.701V21.1595H133.815V51.2607Z" fill="white"/>
<path d="M132.952 31.1689H120.479V29.2109H132.952V31.1689Z" fill="#296E99"/>
<path d="M132.952 35.7676H116.789V33.8095H132.952V35.7676Z" fill="#296E99"/>
<path d="M132.952 40.3672H116.789V38.4091H132.952V40.3672Z" fill="#296E99"/>
<path d="M132.952 44.9658H116.789V43.0077H132.952V44.9658Z" fill="#296E99"/>
<path d="M132.952 49.5654H116.789V47.6086H132.952V49.5654Z" fill="#296E99"/>
<path d="M58.2144 47.7643C58.2144 52.4687 54.401 56.2822 49.697 56.2822C44.9931 56.2822 41.1797 52.4687 41.1797 47.7643C41.1797 43.0611 44.9931 39.2476 49.697 39.2476C54.401 39.2476 58.2144 43.0611 58.2144 47.7643Z" fill="white"/>
<path d="M45.3038 55.0573C41.2718 52.6265 39.9763 47.3948 42.4077 43.3633C44.8353 39.3369 50.0664 38.0417 54.0984 40.4737C58.1241 42.9007 59.4193 48.1324 56.9918 52.1576C54.5604 56.1891 49.3294 57.4856 45.3038 55.0573ZM63.1367 55.8634C64.2411 54.032 64.9316 52.0524 65.224 50.055L65.8585 50.1488L67.1113 50.3326L67.1276 50.3339C67.4656 48.0488 67.3506 45.7371 66.7984 43.5294L64.9346 43.9907C64.4345 41.992 63.5536 40.0885 62.2979 38.4105L63.8428 37.2623C62.5211 35.4677 60.8244 33.8999 58.7991 32.6782L57.8039 34.3283C55.966 33.2206 53.9933 32.5337 51.996 32.2409L52.2744 30.3374C49.9891 29.999 47.674 30.1206 45.4695 30.6669L45.9311 32.5312C43.9331 33.0305 42.0295 33.9113 40.3515 35.1673L39.2033 33.6224C37.409 34.9442 35.8402 36.6412 34.6187 38.6665L36.2692 39.6614C35.1609 41.499 34.4741 43.4723 34.1817 45.4697L32.8351 45.2707L32.2845 45.1947L32.2783 45.1909C31.9401 47.476 32.0614 49.7914 32.6073 51.9954L34.4713 51.5341C34.9713 53.5327 35.8583 55.4401 37.114 57.1168L35.5691 58.2663C36.891 60.0596 38.5814 61.6248 40.6066 62.8466L41.6019 61.1965C43.4397 62.3042 45.4187 62.9949 47.4161 63.2876L47.1975 64.7666L47.1376 65.1912C49.423 65.5283 51.7317 65.4041 53.9362 64.8579L53.4749 62.9936C55.4727 62.4942 57.3801 61.6071 59.0642 60.3549L60.2124 61.8999C62.0007 60.5742 63.5655 58.8835 64.787 56.8583L63.1367 55.8634" fill="#296E99"/>
<path d="M26.8455 63.0311C24.7782 64.3999 21.9978 63.8334 20.6298 61.7663C19.2639 59.7018 19.83 56.9211 21.8973 55.5537C23.9615 54.1874 26.7417 54.754 28.1076 56.8172C29.4755 58.8856 28.9097 61.6649 26.8455 63.0311V63.0311ZM31.2584 54.7324C30.637 53.7933 29.8517 53.0189 28.968 52.4283L29.1555 52.147L29.5262 51.5931L29.5306 51.5855C28.5201 50.9088 27.3949 50.4411 26.2199 50.2041L26.0184 51.1952C24.9552 50.981 23.851 50.9696 22.7693 51.1876L22.5723 50.194C21.4203 50.417 20.2909 50.8695 19.2525 51.5564L19.8124 52.403C18.87 53.0265 18.0978 53.8098 17.5073 54.6931L16.665 54.1304C15.9877 55.1405 15.5223 56.2697 15.2838 57.4408L16.2745 57.6423C16.0609 58.7056 16.0496 59.8108 16.2677 60.8918L15.2734 61.0883C15.4966 62.2403 15.9489 63.3708 16.6361 64.4088L17.4823 63.8486C18.1059 64.7915 18.8887 65.5633 19.7726 66.1539L19.374 66.7496L19.2133 66.9942L19.2101 66.9967C20.2205 67.6735 21.3488 68.1386 22.5206 68.3769L22.7223 67.3871C23.7853 67.6 24.8929 67.6088 25.9745 67.3909L26.1715 68.3857C27.3236 68.1627 28.4496 67.7128 29.4882 67.0246L28.9282 66.1793C29.8706 65.5557 30.6461 64.7699 31.2366 63.8866L31.8905 64.3251L32.0787 64.4493C32.756 63.4379 33.2182 62.3125 33.4567 61.1402L32.466 60.9387C32.6797 59.8754 32.6888 58.7677 32.474 57.6841L33.4681 57.4877C33.2419 56.3381 32.7916 55.2115 32.1044 54.1735L31.2584 54.7324" fill="#EA7B00"/>
<path d="M170.558 72.041H149.852C149.416 72.041 149.062 71.6874 149.062 71.2514V59.5029C149.062 59.067 149.416 58.7147 149.852 58.7147H170.558C170.994 58.7147 171.348 59.067 171.348 59.5029V71.2514C171.348 71.6874 170.994 72.041 170.558 72.041Z" fill="#296E99"/>
<path d="M171.348 63.5312H149.062V61.2322H171.348V63.5312Z" fill="#296E99"/>
<path d="M154.166 69.4852H150.889C150.68 69.4852 150.512 69.6537 150.512 69.8616C150.512 70.0707 150.68 70.2393 150.889 70.2393H154.166C154.373 70.2393 154.543 70.0707 154.543 69.8616C154.543 69.6537 154.373 69.4852 154.166 69.4852Z" fill="#D1F5FF"/>
<path d="M159.205 69.4852H155.927C155.719 69.4852 155.551 69.6537 155.551 69.8616C155.551 70.0707 155.719 70.2393 155.927 70.2393H159.205C159.412 70.2393 159.581 70.0707 159.581 69.8616C159.581 69.6537 159.412 69.4852 159.205 69.4852Z" fill="#D1F5FF"/>
<path d="M164.246 69.4852H160.968C160.76 69.4852 160.592 69.6537 160.592 69.8616C160.592 70.0707 160.76 70.2393 160.968 70.2393H164.246C164.453 70.2393 164.622 70.0707 164.622 69.8616C164.622 69.6537 164.453 69.4852 164.246 69.4852Z" fill="#D1F5FF"/>
<path d="M169.285 69.4852H166.009C165.801 69.4852 165.631 69.6537 165.631 69.8616C165.631 70.0707 165.801 70.2393 166.009 70.2393H169.285C169.494 70.2393 169.662 70.0707 169.662 69.8616C169.662 69.6537 169.494 69.4852 169.285 69.4852Z" fill="#D1F5FF"/>
<path d="M150.739 59.3914C150.509 59.3914 150.322 59.5777 150.322 59.8084V59.9541C150.322 60.1835 150.509 60.3711 150.739 60.3711C150.969 60.3711 151.155 60.1835 151.155 59.9541V59.8084C151.155 59.5777 150.969 59.3914 150.739 59.3914Z" fill="#D1F5FF"/>
<path d="M151.637 59.8806C151.637 60.1518 151.856 60.3711 152.126 60.3711H153.861C154.131 60.3711 154.35 60.1518 154.35 59.8806C154.35 59.6107 154.131 59.3914 153.861 59.3914H152.126C151.856 59.3914 151.637 59.6107 151.637 59.8806Z" fill="#D1F5FF"/>
<path d="M151.41 64.7682H153.649C154.008 64.7682 154.3 65.0597 154.3 65.4184V67.3499C154.3 67.7085 154.008 68 153.649 68H151.41C151.05 68 150.76 67.7085 150.76 67.3499V65.4184C150.76 65.0597 151.05 64.7682 151.41 64.7682Z" fill="#296E99"/>
<path d="M162.357 105.989V104.467C162.357 103.775 161.797 103.215 161.107 103.215H147.781C147.091 103.215 146.529 103.775 146.529 104.467V131.377H180.997V105.989H162.357Z" fill="#296E99"/>
<path d="M182.431 106.914H148.633L146.531 131.377H180.829L182.431 106.914" fill="white"/>
<path d="M180.997 131.377H146.531L150.188 107.218C150.295 106.511 150.902 105.989 151.617 105.989H183.159C184.044 105.989 184.721 106.776 184.589 107.651L180.997 131.377Z" fill="#296E99"/>
<path d="M192.499 106.915C192.499 111.276 188.964 114.812 184.602 114.812C180.241 114.812 176.705 111.276 176.705 106.915C176.705 102.552 180.241 99.0163 184.602 99.0163C188.964 99.0163 192.499 102.552 192.499 106.915Z" fill="#EA7B00"/>
<path d="M184.603 99.3044C180.407 99.3044 176.995 102.717 176.995 106.912C176.995 111.109 180.407 114.522 184.603 114.522C188.799 114.522 192.211 111.109 192.211 106.912C192.211 102.717 188.799 99.3044 184.603 99.3044ZM184.603 115.1C180.089 115.1 176.416 111.427 176.416 106.912C176.416 102.399 180.089 98.7278 184.603 98.7278C189.118 98.7278 192.79 102.399 192.79 106.912C192.79 111.427 189.118 115.1 184.603 115.1Z" fill="white"/>
<path d="M184.987 108.454V110.04C184.987 110.25 184.815 110.426 184.604 110.426C184.389 110.426 184.218 110.25 184.218 110.04V108.45C183.892 108.305 183.662 107.975 183.662 107.596C183.662 107.076 184.085 106.658 184.604 106.658C185.122 106.658 185.541 107.076 185.541 107.596C185.541 107.979 185.315 108.308 184.987 108.454V108.454ZM180.801 105.485V111.076C180.801 111.699 188.402 111.699 188.402 111.076V105.485H180.801Z" fill="white"/>
<path d="M187.74 105.087H186.97V104.71C186.97 103.405 185.91 102.344 184.604 102.344C183.3 102.344 182.238 103.405 182.238 104.71V105.087H181.469V104.71C181.469 102.981 182.876 101.574 184.604 101.574C186.334 101.574 187.74 102.981 187.74 104.71V105.087" fill="white"/>
<path d="M160.205 40.8227C160.205 42.4931 158.851 43.8467 157.182 43.8467C155.512 43.8467 154.158 42.4931 154.158 40.8227C154.158 39.1536 155.512 37.8001 157.182 37.8001C158.851 37.8001 160.205 39.1536 160.205 40.8227Z" fill="#AAE0FF"/>
<path d="M80.8124 52.104C80.8124 53.7744 79.4588 55.1279 77.7891 55.1279C76.1193 55.1279 74.7656 53.7744 74.7656 52.104C74.7656 50.4349 76.1193 49.0813 77.7891 49.0813C79.4588 49.0813 80.8124 50.4349 80.8124 52.104Z" fill="#AAE0FF"/>
<path d="M179.964 92.36C179.964 93.2332 179.256 93.9404 178.382 93.9404C177.509 93.9404 176.801 93.2332 176.801 92.36C176.801 91.4855 177.509 90.7783 178.382 90.7783C179.256 90.7783 179.964 91.4855 179.964 92.36Z" fill="white"/>
<path d="M14.4308 95.3246C14.4308 96.1978 13.7227 96.9062 12.8491 96.9062C11.9757 96.9062 11.2676 96.1978 11.2676 95.3246C11.2676 94.4514 11.9757 93.7429 12.8491 93.7429C13.7227 93.7429 14.4308 94.4514 14.4308 95.3246Z" fill="#AAE0FF"/>
<path d="M40.6189 152.965C40.6189 154.634 39.2653 155.987 37.5956 155.987C35.9258 155.987 34.5723 154.634 34.5723 152.965C34.5723 151.294 35.9258 149.941 37.5956 149.941C39.2653 149.941 40.6189 151.294 40.6189 152.965Z" fill="#AAE0FF"/>
<path d="M86.1118 22.0908C85.8225 22.0908 85.5879 21.8564 85.5879 21.5674V15.9593C85.5879 15.6691 85.8225 15.4346 86.1118 15.4346C86.4012 15.4346 86.6356 15.6691 86.6356 15.9593V21.5674C86.6356 21.8564 86.4012 22.0908 86.1118 22.0908Z" fill="#AAE0FF"/>
<path d="M82.7852 18.7617C82.7852 18.4728 83.0197 18.2383 83.309 18.2383H88.9174C89.2068 18.2383 89.4412 18.4728 89.4412 18.7617C89.4412 19.0507 89.2068 19.2852 88.9174 19.2852H83.309C83.0197 19.2852 82.7852 19.0507 82.7852 18.7617Z" fill="#AAE0FF"/>
<path d="M145.734 94.1064C145.443 94.1064 145.209 93.8707 145.209 93.5818V87.9737C145.209 87.6847 145.443 87.4502 145.734 87.4502C146.023 87.4502 146.257 87.6847 146.257 87.9737V93.5818C146.257 93.8707 146.023 94.1064 145.734 94.1064Z" fill="white"/>
<path d="M142.406 90.7774C142.406 90.4871 142.641 90.2527 142.93 90.2527H148.538C148.827 90.2527 149.061 90.4871 149.061 90.7774C149.061 91.0663 148.827 91.3008 148.538 91.3008H142.93C142.641 91.3008 142.406 91.0663 142.406 90.7774Z" fill="white"/>
<path d="M140.031 167.975C139.742 167.975 139.508 167.74 139.508 167.451V161.843C139.508 161.554 139.742 161.318 140.031 161.318C140.321 161.318 140.556 161.554 140.556 161.843V167.451C140.556 167.74 140.321 167.975 140.031 167.975Z" fill="white"/>
<path d="M136.703 164.646C136.703 164.357 136.938 164.123 137.228 164.123H142.836C143.125 164.123 143.359 164.357 143.359 164.646C143.359 164.936 143.125 165.171 142.836 165.171H137.228C136.938 165.171 136.703 164.936 136.703 164.646Z" fill="white"/>
<path d="M220.354 100.677C220.354 101.603 219.603 102.354 218.677 102.354C217.751 102.354 217 101.603 217 100.677C217 99.7516 217.751 99.0001 218.677 99.0001C219.603 99.0001 220.354 99.7516 220.354 100.677Z" stroke="white" stroke-width="5.63423" stroke-miterlimit="10"/>
<path d="M134.568 279.722H128.005L127.326 265.454H135.246L134.568 279.722Z" fill="#0E0E0E"/>
<path d="M248.613 279.722H242.05L241.371 265.454H249.291L248.613 279.722" fill="#0E0E0E"/>
<path d="M242.894 240.69C242.17 242.933 241.382 245.236 240.519 247.599H131.582C131.582 247.599 117.523 190.376 131.582 179.911C131.942 179.644 132.373 179.38 132.876 179.122C151.811 169.393 227.726 167.108 243.139 179.625C243.256 179.718 243.365 179.815 243.471 179.911C249.15 185.124 254.087 205.934 242.894 240.69" fill="#EA7B00"/>
<path d="M172.655 247.599H131.607L135.611 207.493C142.768 210.598 161.824 226.996 172.655 247.599Z" fill="#982C20"/>
<path d="M242.892 240.69C242.168 242.933 241.38 245.236 240.517 247.599H200.951C207.756 234.979 224.254 215.864 240.276 207.066L242.892 240.69Z" fill="#982C20"/>
<path d="M256.542 206.93H241.439C238.9 206.93 236.755 208.811 236.421 211.328L231.605 247.75H143.336L138.52 211.328C138.187 208.811 136.041 206.93 133.502 206.93H118.399C115.247 206.93 112.863 209.778 113.416 212.881L121.801 273.534H130.096H252.873H253.139L261.525 212.881C262.078 209.778 259.694 206.93 256.542 206.93Z" fill="#EA7B00"/>
<path d="M230.726 227.857C237.833 230.236 236.448 245.285 230.726 247.598H144.504C138.065 245.936 137.521 226.031 146.807 227.528C203.642 238.214 206.395 221.167 230.726 227.857Z" fill="#F2B066"/>
<path d="M165.01 212.602C164.983 216.488 165.193 220.146 165.611 223.35H206.04L208.434 183.872C206.032 169.454 199.458 165.959 189.052 165.959C179.739 165.959 173.537 173.556 169.768 183.725C166.509 192.512 165.068 203.216 165.01 212.602" fill="#007880"/>
<path d="M165.01 213.365L179.64 212.484C171.518 209.825 170.871 197.358 179.128 189.602L169.767 183.725C166.509 192.512 165.068 203.978 165.01 213.365" fill="#005459"/>
<path d="M162.223 231.506H217.769V212.603H167.733L162.223 231.506" fill="#0E0E0E"/>
<path d="M224.866 225.509L209.947 279.722H198.312C201.995 256.652 201.172 241.655 204.635 222.499C207.675 206.775 228.483 210.937 224.866 225.509" fill="#0E0E0E"/>
<path d="M205.768 279.722C205.768 279.686 205.766 279.651 205.766 279.614C205.766 275.595 209.024 272.338 213.043 272.338C217.062 272.338 220.319 275.595 220.319 279.614C220.319 279.651 220.318 279.686 220.316 279.722H205.768" fill="#B15626"/>
<path d="M214.445 272.474L211.8 271.665C210.055 268.23 202.608 268.655 203.646 272.836C200.723 273.271 199.187 271.816 199.187 271.816L198.312 279.722H214.089L214.445 272.474" fill="#B15626"/>
<path d="M159.352 225.509L174.273 279.722H185.906C182.223 256.652 183.048 241.655 179.585 222.499C176.545 206.775 155.735 210.937 159.352 225.509Z" fill="#0E0E0E"/>
<path d="M178.45 279.722C178.45 279.686 178.453 279.651 178.453 279.614C178.453 275.595 175.194 272.338 171.176 272.338C167.157 272.338 163.898 275.595 163.898 279.614C163.898 279.651 163.901 279.686 163.902 279.722H178.45" fill="#B15626"/>
<path d="M169.775 272.474L172.42 271.665C174.167 268.23 181.613 268.655 180.576 272.836C183.497 273.271 185.034 271.816 185.034 271.816L185.908 279.722H170.132L169.775 272.474" fill="#B15626"/>
<path d="M182.821 167.228C188.278 170.54 189.055 180.373 186.258 184.291L170.689 195.889L186.541 204.053L183.966 212.484C183.966 212.484 167.419 211.137 159.32 202.83C151.544 194.853 170.502 171.422 182.821 167.228" fill="#007880"/>
<path d="M193.891 182.146C189.225 176.284 192.448 167.229 198.397 167.495C217.772 174.316 223.753 193.254 217.615 201.756C212.355 209.039 189.225 211.844 189.225 211.844V203.869L205.296 200.397C205.296 200.397 197.009 187.557 193.891 182.146Z" fill="#007880"/>
<path d="M176.913 209.82C176.613 207.15 178.175 203.81 182.194 203.081C189.214 201.807 191.755 205.658 192.419 208.411C192.592 209.128 191.939 209.887 191.337 209.82C190.734 209.754 190.31 209.413 190.206 208.867C190.082 208.209 189.734 207.396 188.981 206.971C189.707 208.393 189.404 209.82 187.427 209.82H176.913" fill="#F7A594"/>
<path d="M192.762 209.815L198.287 182.115H199.458C199.084 184.023 193.649 211.739 193.479 212.604C192.031 212.604 178.731 212.604 176.924 212.604L175.115 209.815H192.762" fill="#99C1FF"/>
<path d="M199.457 182.115H240.564L234.483 212.604H193.479L199.457 182.115Z" fill="white"/>
<path d="M187.471 169.214C187.471 172.365 196.919 174.457 200.007 171.144C200.475 170.646 200.796 170.03 200.92 169.274L202.699 161.291L191.415 157.037L191.079 158.08L187.471 169.214" fill="#F7A594"/>
<path d="M200.921 169.274L202.7 161.291L192.024 158.417C189.261 166.641 199.123 173.212 200.921 169.274" fill="#F4856D"/>
<path d="M190.583 153.97C189.988 161.816 196.189 168.726 201.392 169.077C206.595 169.427 213.758 163.616 214.352 155.769C214.946 147.923 210.106 141.159 203.543 140.662C196.979 140.166 191.177 146.124 190.583 153.97Z" fill="#F7A594"/>
<path d="M199.279 141.256C206.472 136.7 210.433 140.985 214.016 145.53C216.529 148.719 218.309 151.01 221.439 151.489C215.42 159.081 203.384 154.073 199.592 146.466C199.218 150.796 194.114 154.382 190.579 153.969C189.435 149.151 192.772 139.41 199.279 141.256" fill="#0E0E0E"/>
<path d="M188.822 154.073C188.822 155.803 190.225 157.205 191.954 157.205C193.684 157.205 195.086 155.803 195.086 154.073C195.086 152.343 193.684 150.942 191.954 150.942C190.225 150.942 188.822 152.343 188.822 154.073Z" fill="#F7A594"/>
<path d="M265.705 163.75V171.25C265.705 171.664 266.06 172 266.499 172C266.938 172 267.293 171.664 267.293 171.25V163.75C267.293 163.335 266.938 163 266.499 163C266.06 163 265.705 163.335 265.705 163.75Z" fill="#EA7B00"/>
<path d="M270.25 166.706H262.75C262.335 166.706 262 167.061 262 167.5C262 167.938 262.335 168.294 262.75 168.294H270.25C270.664 168.294 271 167.938 271 167.5C271 167.061 270.664 166.706 270.25 166.706Z" fill="#EA7B00"/>
<path d="M261.681 115.841C261.681 117.409 260.409 118.681 258.84 118.681C257.272 118.681 256 117.409 256 115.841C256 114.272 257.272 113 258.84 113C260.409 113 261.681 114.272 261.681 115.841Z" fill="#AAE0FF"/>
<path d="M262 23.4163V37.5837C262 38.3655 262.67 39 263.5 39C264.328 39 265 38.3655 265 37.5837V23.4163C265 22.633 264.328 22 263.5 22C262.67 22 262 22.633 262 23.4163Z" fill="#EA7B00"/>
<path d="M270.584 29H256.416C255.633 29 255 29.672 255 30.5C255 31.328 255.633 32 256.416 32H270.584C271.365 32 272 31.328 272 30.5C272 29.672 271.365 29 270.584 29Z" fill="#EA7B00"/>
<g filter="url(#filter0_d_500_4479)">
<circle cx="96" cy="92" r="36" fill="white"/>
</g>
<path d="M95.5003 115C82.4773 115 71.9025 104.621 72.0007 91.5C72.0989 78.3795 81.988 68 95.5003 68C109.014 68 119 78.575 119 91.5C119 104.425 108.523 115 95.5003 115ZM102.452 111.377L95.7941 93.458L89.5272 111.769C94.1298 112.846 97.2628 113.139 102.452 111.377ZM86.1987 110.398L76.2113 83.0795C74.8399 86.017 74.5471 88.4652 74.3506 91.5C74.4489 99.5285 78.9524 106.872 86.1987 110.398ZM116.65 91.5C116.747 86.3107 114.301 82.1982 114.105 81.6107C114.301 85.6259 113.713 87.6812 113.028 89.934L106.173 109.615C114.79 104.425 116.454 96.6893 116.65 91.5ZM94.8155 90.6187L91.4861 81.5125L89.0379 81.317C88.0594 80.6312 88.646 79.5545 89.3317 79.5545C93.7379 79.8482 96.1851 79.8482 100.592 79.5545C101.67 79.5545 101.963 81.1215 100.69 81.317L98.3396 81.5125L105.976 104.033L109.598 91.6955C109.795 86.3107 108.325 85.7232 106.367 81.8062C104.8 78.7705 106.465 75.833 109.501 75.7357C107.052 73.3857 102.059 70.4482 95.4985 70.35C88.9379 70.2518 81.9862 73.5812 77.8738 79.8482L85.1201 79.6527C86.0013 80.0447 85.6093 81.317 85.1201 81.4152L82.5746 81.6107L90.212 104.523L94.8155 90.6187Z" fill="#21759B"/>
<path d="M218.5 203C215.452 203 212.977 200.571 213 197.5C213.023 194.429 215.338 192 218.5 192C221.663 192 224 194.475 224 197.5C224 200.525 221.548 203 218.5 203ZM220.127 202.152L218.569 197.958L217.102 202.244C218.179 202.496 218.913 202.565 220.127 202.152ZM216.323 201.923L213.986 195.529C213.665 196.217 213.596 196.79 213.55 197.5C213.573 199.379 214.627 201.098 216.323 201.923ZM223.45 197.5C223.473 196.285 222.9 195.323 222.854 195.185C222.9 196.125 222.763 196.606 222.602 197.133L220.998 201.74C223.015 200.525 223.404 198.715 223.45 197.5ZM218.34 197.294L217.561 195.163L216.988 195.117C216.759 194.956 216.896 194.704 217.056 194.704C218.088 194.773 218.66 194.773 219.692 194.704C219.944 194.704 220.013 195.071 219.715 195.117L219.165 195.163L220.952 200.433L221.8 197.546C221.846 196.285 221.502 196.148 221.043 195.231C220.677 194.521 221.066 193.833 221.777 193.81C221.204 193.26 220.035 192.573 218.5 192.55C216.964 192.527 215.337 193.306 214.375 194.773L216.071 194.727C216.277 194.819 216.185 195.117 216.071 195.14L215.475 195.185L217.262 200.548L218.34 197.294Z" fill="#21759B"/>
<defs>
<filter id="filter0_d_500_4479" x="56" y="53" width="80" height="80" filterUnits="userSpaceOnUse" color-interpolation-filters="sRGB">
<feFlood flood-opacity="0" result="BackgroundImageFix"/>
<feColorMatrix in="SourceAlpha" type="matrix" values="0 0 0 0 0 0 0 0 0 0 0 0 0 0 0 0 0 0 127 0" result="hardAlpha"/>
<feOffset dy="1"/>
<feGaussianBlur stdDeviation="2"/>
<feComposite in2="hardAlpha" operator="out"/>
<feColorMatrix type="matrix" values="0 0 0 0 0 0 0 0 0 0 0 0 0 0 0 0 0 0 0.24 0"/>
<feBlend mode="normal" in2="BackgroundImageFix" result="effect1_dropShadow_500_4479"/>
<feBlend mode="normal" in="SourceGraphic" in2="effect1_dropShadow_500_4479" result="shape"/>
</filter>
</defs>
</svg>
