<svg width="155" height="45" viewBox="0 0 155 45" fill="none" xmlns="http://www.w3.org/2000/svg">
<path d="M59.801 31.2583L57.2102 27.5449C57.0375 27.5665 56.8864 27.5665 56.7136 27.5665H53.8422V31.2583H51.4889V18.5635H56.7136C60.0601 18.5635 62.1327 20.2691 62.1327 23.0758C62.1327 24.9973 61.1612 26.4222 59.434 27.0915L62.3702 31.2583H59.801ZM56.6057 20.5497H53.8422V25.6234H56.6057C58.6783 25.6234 59.7362 24.6734 59.7362 23.0758C59.7362 21.4781 58.6783 20.5497 56.6057 20.5497V20.5497Z" fill="#6666C3"/>
<path d="M72.5606 25.5804V31.2585H70.4232V30.0711C69.8835 30.9131 68.8256 31.388 67.3791 31.388C65.1769 31.388 63.7736 30.179 63.7736 28.495C63.7736 26.8758 64.8746 25.602 67.8109 25.602H70.3153V25.4508C70.3153 24.1338 69.5165 23.335 67.8972 23.335C66.8177 23.335 65.6951 23.702 64.961 24.3066L64.0758 22.6657C65.1121 21.8669 66.6234 21.4783 68.1779 21.4783C70.9414 21.4567 72.5606 22.7953 72.5606 25.5804V25.5804ZM70.2937 28.2359V27.1132H67.962C66.4291 27.1132 65.9973 27.6962 65.9973 28.4086C65.9973 29.2291 66.6882 29.7472 67.854 29.7472C68.9551 29.7256 69.9051 29.2291 70.2937 28.2359Z" fill="#6666C3"/>
<path d="M85.018 25.7098V31.2584H82.7511V25.9904C82.7511 24.2632 81.8875 23.4212 80.441 23.4212C78.8217 23.4212 77.7422 24.3928 77.7422 26.3359V31.2368H75.4753V21.5645H77.6343V22.8167C78.3899 21.9315 79.5558 21.4565 80.9807 21.4565C83.2908 21.4565 85.018 22.7951 85.018 25.7098V25.7098Z" fill="#6666C3"/>
<path d="M91.862 27.113L90.178 28.7106V31.2582H87.9111V17.7861H90.178V25.9255L94.8846 21.5644H97.6049L93.546 25.6233L97.972 31.2366H95.2085L91.862 27.113Z" fill="#6666C3"/>
<path d="M111.314 31.2583L111.293 22.8383L107.126 29.8118H106.068L101.901 22.9462V31.2583H99.6559V18.5635H101.599L106.651 26.9835L111.617 18.5635H113.56L113.581 31.2583H111.314Z" fill="#334E68"/>
<path d="M124.873 25.5804V31.2585H122.735V30.0711C122.196 30.9131 121.138 31.388 119.691 31.388C117.489 31.388 116.086 30.179 116.086 28.495C116.086 26.8758 117.187 25.6235 120.123 25.6235H122.628V25.4724C122.628 24.1554 121.829 23.3566 120.209 23.3566C119.13 23.3566 118.007 23.7236 117.273 24.3281L116.388 22.6657C117.424 21.8669 118.936 21.4783 120.49 21.4783C123.254 21.4567 124.873 22.7953 124.873 25.5804V25.5804ZM122.606 28.2359V27.1132H120.274C118.741 27.1132 118.31 27.6962 118.31 28.4086C118.31 29.2291 119 29.7472 120.166 29.7472C121.267 29.7256 122.217 29.2291 122.606 28.2359Z" fill="#334E68"/>
<path d="M133.595 30.7403C133.055 31.1721 132.235 31.388 131.415 31.388C129.299 31.388 128.068 30.2654 128.068 28.128V23.4646H126.471V21.651H128.068V19.4272H130.335V21.6294H132.926V23.443H130.335V28.0632C130.335 29.0132 130.81 29.5097 131.674 29.5097C132.127 29.5313 132.581 29.3802 132.948 29.1211L133.595 30.7403Z" fill="#334E68"/>
<path d="M145.016 25.7096V31.2582H142.749V25.9903C142.749 24.2631 141.886 23.4211 140.439 23.4211C138.82 23.4211 137.741 24.3926 137.741 26.3357V31.2366H135.474V17.7861H137.741V22.687C138.496 21.8882 139.64 21.4564 140.979 21.4564C143.289 21.4564 145.016 22.795 145.016 25.7096V25.7096Z" fill="#334E68"/>
<path d="M44.8392 23.292L38.9236 23.5511L39.9599 25.1703L30.1149 31.4746L20.3563 27.3725L9 32.1007L9.77724 34.0006L20.3347 29.5962L30.3092 33.7847L41.061 26.9191L42.0973 28.5599L44.8392 23.292Z" fill="#334E68"/>
<path d="M13.1884 29.3367L20.3347 26.3573L20.6801 26.5084V22.2768H13.1884V29.3367ZM29.5535 12V30.2219L30.1149 30.4594L37.0452 26.0334V12H29.5535ZM21.371 26.7891L28.8627 29.9412V17.1384H21.371V26.7891Z" fill="#6666C3"/>
</svg>
