<svg width="155" height="45" viewBox="0 0 155 45" fill="none" xmlns="http://www.w3.org/2000/svg">
<path d="M65.0793 15.5249H69.8452V20.2323H74.2039V15.5249H78.9698V29.7808H74.2039V25.0149H69.8452V29.7808H65.0793V15.5249ZM85.2357 20.2532H81.0325V15.5257H94.1897V20.2532H89.9924V29.7824H85.2265V20.2532H85.2357ZM96.2783 15.5249H101.247L104.304 20.5416L107.358 15.5249H112.32V29.7808H107.574V22.7139L104.297 27.7833H104.215L100.949 22.7147V29.7816H96.2867L96.2783 15.5249ZM114.698 15.5249H119.464V25.0776H126.165V29.79H114.699L114.698 15.5249Z" fill="black"/>
<path d="M29 8H55.4523L53.0426 34.9967L42.2107 38L31.408 35.0008L29 8Z" fill="#E44D26"/>
<path d="M50.9816 33.2782L53.0409 10.208H42.2357V35.7047L50.9816 33.2782Z" fill="#F16529"/>
<path d="M37.8461 20.2224L37.5434 16.8311H42.2358V13.52H33.9331L34.8261 23.5342H42.2358V20.2232L37.8461 20.2224ZM34.9648 25.1906L35.4289 30.3913L42.2123 32.2742L42.2274 32.27V28.8252L42.2132 28.8294L38.5342 27.826L38.2985 25.1839H36.5066L34.9648 25.1906Z" fill="#EBEBEB"/>
<path d="M49.8328 21.1104L49.9139 20.2207H42.2166V23.5318H46.2943L45.9097 27.8269L42.2166 28.8236V32.2684L49.0059 30.3871L49.056 29.8269L49.8328 21.1104ZM42.2241 16.8311H50.2232L50.5201 13.5117H42.2241V16.8144V16.8311Z" fill="white"/>
</svg>
