<svg width="155" height="45" viewBox="0 0 155 45" fill="none" xmlns="http://www.w3.org/2000/svg">
<path d="M101.842 16.9799C102.548 16.9674 103.254 16.9674 103.948 16.9924C105.095 20.2253 106.293 23.4457 107.466 26.6785C106.621 26.6785 105.789 26.6911 104.944 26.666C104.83 26.2901 104.717 25.9142 104.603 25.5257C103.456 25.5132 102.321 25.5132 101.174 25.5132C101.048 25.9016 100.934 26.2775 100.808 26.666C99.9757 26.666 99.1434 26.666 98.3238 26.666C99.5217 23.4582 100.644 20.2003 101.842 16.9799ZM101.754 23.6587C102.485 23.6587 103.229 23.6587 103.96 23.6461C103.683 22.3806 103.191 21.1776 102.901 19.8995C102.51 21.1526 102.107 22.4056 101.754 23.6587Z" fill="#282828"/>
<path d="M120.555 16.98C121.249 16.98 121.955 16.98 122.648 16.98C123.821 20.2129 125.031 23.4207 126.154 26.6786C125.322 26.6786 124.514 26.6786 123.682 26.6786C123.544 26.2902 123.417 25.9142 123.279 25.5258C122.156 25.5258 121.047 25.5383 119.925 25.5133C119.786 25.8892 119.66 26.2776 119.546 26.6661C118.727 26.6661 117.907 26.6661 117.1 26.6661C118.197 23.4207 119.395 20.2129 120.555 16.98ZM120.479 23.6587C121.223 23.6587 121.98 23.6587 122.724 23.6587C122.358 22.4182 121.955 21.2028 121.665 19.9497C121.16 21.1401 120.87 22.4182 120.479 23.6587Z" fill="#282828"/>
<path d="M126.091 20.8142C126.444 18.8469 128.108 17.2054 130.088 16.8671C131.059 16.7794 132.055 16.7418 132.988 17.0801C134.35 17.5312 135.472 18.7091 135.687 20.1375C134.854 20.1125 134.01 20.1375 133.165 20.1125C132.736 18.5587 130.529 18.283 129.432 19.298C128.07 20.5385 128.033 22.8692 129.167 24.2851C130.151 25.3377 132.156 25.5006 133.102 24.2977C133.367 23.9844 133.48 23.5709 133.619 23.195C133.039 23.1825 132.433 23.195 131.853 23.1824C131.853 22.6562 131.853 22.1174 131.866 21.5911C133.568 21.6161 135.271 21.5911 136.96 21.6036C136.96 22.1174 136.96 22.6311 136.96 23.1574C136.607 23.1699 136.267 23.1824 135.926 23.2075C135.762 24.4731 135.031 25.6635 133.896 26.3025C132.686 27.0168 131.198 27.0669 129.836 26.8414C127.755 26.478 126.154 24.5608 126.015 22.4933C126.002 21.9419 126.002 21.3655 126.091 20.8142Z" fill="#282828"/>
<path d="M45.3625 17.105C46.5479 17.105 47.7206 17.105 48.9059 17.0925C50.9739 16.9672 52.7141 19.1726 52.0962 21.1399C51.7936 22.4305 50.5704 23.4329 49.2464 23.5582C48.4141 23.646 47.5693 23.5708 46.7244 23.5958C46.737 24.6108 46.737 25.6383 46.737 26.6533C46.2831 26.6658 45.8291 26.6783 45.3752 26.6783C45.3625 23.4831 45.3752 20.3003 45.3625 17.105ZM46.7118 18.1952C46.7244 19.6111 46.7244 21.0521 46.7244 22.4681C47.7836 22.3804 48.9564 22.7062 49.9147 22.1172C51.1252 21.3403 51.1631 19.348 49.9777 18.5335C49.0194 17.9321 47.7962 18.308 46.7118 18.1952Z" fill="#282828"/>
<path d="M60.7213 17.1055C61.4779 17.1055 62.2471 17.1055 63.0037 17.1055C63.0037 19.2983 63.0037 21.5037 63.0037 23.6965C63.0163 24.7616 62.4993 25.8768 61.5788 26.4532C60.7213 26.9795 59.6368 27.0171 58.6659 26.9169C57.6319 26.7916 56.6861 26.14 56.2448 25.2127C55.9674 24.6488 55.9043 24.0223 55.8287 23.4083C56.6105 23.3833 57.3923 23.3833 58.1741 23.4083C58.2245 23.8344 58.2372 24.3105 58.5398 24.6488C58.9433 25.1626 59.7629 25.1751 60.2547 24.7867C60.6708 24.3732 60.7213 23.7466 60.7339 23.1953C60.7213 21.1654 60.7213 19.1354 60.7213 17.1055Z" fill="#282828"/>
<path d="M75.4496 17.1052C76.9123 17.1052 78.3877 17.0926 79.8504 17.1052C80.6448 17.0926 81.4519 17.4059 82.0445 17.9447C82.7885 18.7592 82.9524 20.1 82.2463 20.9896C81.9689 21.3906 81.5401 21.6412 81.0988 21.8292C82.2967 22.0798 83.0533 23.4331 82.7003 24.5734C82.4733 25.8014 81.2375 26.6785 80.0017 26.666C78.476 26.6785 76.9502 26.666 75.4244 26.666C75.437 23.4832 75.4496 20.3005 75.4496 17.1052ZM77.732 18.6966C77.732 19.4734 77.732 20.2378 77.732 21.0022C78.5642 20.952 79.7243 21.2277 80.2287 20.3882C80.3548 19.887 80.3927 19.1852 79.863 18.897C79.2199 18.5712 78.4381 18.7341 77.732 18.6966ZM77.732 22.6186C77.732 23.383 77.732 24.1599 77.732 24.9242C78.4129 24.9117 79.1191 25.0119 79.7622 24.7989C80.6196 24.4982 80.607 23.0697 79.7496 22.7564C79.1191 22.5058 78.4129 22.6437 77.732 22.6186Z" fill="#282828"/>
<path d="M87.2902 17.1054C88.1855 17.0929 89.0934 17.0929 89.9887 17.1179C90.8209 19.3233 91.7289 21.4911 92.5107 23.7215C93.3555 21.5287 94.2004 19.3233 95.0326 17.1179C95.9279 17.1054 96.8106 17.1054 97.6933 17.1054C97.6807 20.3007 97.6933 23.4834 97.6933 26.6787C96.9367 26.6787 96.1801 26.6787 95.4235 26.6787C95.3983 24.8367 95.474 22.9822 95.3731 21.1402C94.6669 22.9822 94.0491 24.8367 93.3807 26.6787C92.8007 26.6787 92.2333 26.6787 91.6532 26.6787C90.9344 24.7991 90.2787 22.882 89.56 20.9899C89.5474 22.882 89.56 24.7741 89.5474 26.6662C88.7908 26.6662 88.0342 26.6662 87.2776 26.6662C87.2902 23.4834 87.2902 20.3007 87.2902 17.1054Z" fill="#282828"/>
<path d="M137.818 17.0051C139.81 17.0051 141.815 16.9926 143.82 17.0051C143.82 17.6191 143.82 18.2205 143.82 18.8345C142.584 18.8471 141.348 18.822 140.1 18.8471C140.113 19.5613 140.113 20.2881 140.113 21.0023C141.348 21.0148 142.584 20.9898 143.82 21.0148C143.807 21.6038 143.807 22.1927 143.82 22.7942C142.572 22.8694 141.323 22.6939 140.1 22.8944C140.125 23.5335 140.125 24.1725 140.113 24.8116C141.348 24.8241 142.584 24.8116 143.82 24.8241C143.82 25.4381 143.82 26.0521 143.833 26.6661C141.828 26.6786 139.835 26.6661 137.83 26.6786C137.818 23.4583 137.818 20.238 137.818 17.0051Z" fill="#282828"/>
<path d="M67.5937 17.0052C69.1321 16.6168 70.8975 16.717 72.2215 17.6568C74.7057 19.2482 75.0966 23.07 73.1925 25.2378C72.5116 26.0397 71.5532 26.6287 70.5066 26.8292C68.9178 27.1299 67.1398 26.9169 65.8788 25.8392C63.8486 24.2353 63.4703 21.0275 64.9457 18.9224C65.5509 17.9951 66.5471 17.3561 67.5937 17.0052ZM68.2747 19.0226C66.4967 19.6993 65.9166 22.0926 66.9254 23.6213C67.682 24.9997 69.7248 25.3255 70.9227 24.3481C72.272 23.2705 72.4485 21.0777 71.2884 19.7745C70.5823 18.9349 69.3213 18.6091 68.2747 19.0226Z" fill="#282828"/>
<path d="M31.1765 17.1173C31.6557 17.1048 32.1096 17.1048 32.5888 17.1048C33.4463 19.5357 34.1398 22.0042 35.0477 24.4101C35.6908 21.9541 36.6114 19.5733 37.2797 17.1173C37.6327 17.1048 37.9984 17.1048 38.3515 17.1048C39.1333 19.5357 39.8899 21.9917 40.6717 24.4226C41.4409 21.9917 42.2732 19.5608 43.055 17.1173C43.5215 17.1048 43.9881 17.0923 44.4547 17.1048C43.3576 20.3001 42.2606 23.4954 41.1131 26.6781C40.7852 26.6656 40.4573 26.6656 40.1421 26.6656C39.3477 24.2722 38.5911 21.8539 37.8093 19.4605C37.0527 21.8664 36.2961 24.2723 35.4891 26.6781C35.1486 26.6781 34.8334 26.6656 34.4929 26.6656C33.3958 23.4828 32.324 20.2876 31.1765 17.1173Z" fill="#282828"/>
<path d="M108.147 17.118C108.979 17.1055 109.799 17.1055 110.631 17.1055C111.766 19.1354 112.863 21.1904 114.061 23.1828C114.074 21.1528 114.061 19.1229 114.074 17.1055C114.83 17.1055 115.599 17.1055 116.369 17.1055C116.356 20.3007 116.369 23.4835 116.369 26.6788C115.561 26.6788 114.767 26.6788 113.96 26.6788C112.813 24.6739 111.615 22.7066 110.543 20.6516C110.555 22.669 110.543 24.6614 110.543 26.6788C109.748 26.6788 108.954 26.6788 108.16 26.6662C108.147 23.4835 108.16 20.3008 108.147 17.118Z" fill="#282828"/>
<path d="M145.321 17.1051C146.733 17.1051 148.158 17.1051 149.57 17.1051C150.503 17.08 151.411 17.506 152.054 18.1701C152.95 19.0598 153.189 20.4632 152.849 21.6411C152.597 22.5558 151.916 23.2826 151.096 23.7212C151.714 24.7612 152.445 25.7386 153 26.8037C152.13 26.8037 151.247 26.7911 150.377 26.8037C149.822 25.9516 149.28 25.0995 148.738 24.2474C148.511 23.8841 147.994 24.1221 147.641 24.0595C147.641 24.9742 147.654 25.8889 147.628 26.8037C146.872 26.7911 146.09 26.7911 145.333 26.8037C145.308 23.5708 145.333 20.3379 145.321 17.1051ZM147.641 19.0598C147.616 20.1124 147.654 21.1775 147.628 22.23C148.208 22.23 148.801 22.2676 149.368 22.205C150.175 22.0922 150.718 21.2401 150.655 20.4758C150.629 19.6487 149.898 18.8844 149.053 18.922C148.599 18.947 148.019 18.7466 147.641 19.0598Z" fill="#282828"/>
<path d="M12.4377 8.74744C12.17 7.91363 12.9019 7.01774 13.7499 7C14.5622 7 15.2853 7.79832 15.1067 8.59664C15.0532 9.10225 14.6069 9.39496 14.2498 9.69655C14.2409 10.0248 14.2409 10.353 14.2409 10.6811C15.1335 10.7965 16.0351 10.6723 16.9277 10.7699C17.2491 11.1779 17.3562 11.7012 17.5079 12.1891C18.2488 12.3044 18.9986 12.3133 19.7485 12.3754C21.864 12.6592 23.5779 14.8502 23.1762 16.9701C22.712 19.4361 22.1854 21.8931 21.7212 24.3679C21.4355 24.4212 21.1588 24.4832 20.8732 24.4832C16.1243 24.4744 11.3576 24.4744 6.60881 24.4832C6.33209 24.4744 6.0643 24.4123 5.79651 24.3591C5.35912 21.8222 4.7789 19.3119 4.31473 16.7839C4.11835 15.2582 4.97528 13.697 6.29639 12.9342C7.35863 12.2512 8.66188 12.2246 9.8848 12.2601C10.099 11.7633 10.2329 11.2311 10.5364 10.7787C11.438 10.6812 12.3485 10.7876 13.259 10.69C13.25 10.353 13.25 10.0159 13.2411 9.68768C12.9376 9.42157 12.5627 9.16434 12.4377 8.74744ZM8.74222 14.4333C7.22473 14.4776 6.0286 16.0565 6.38565 17.5201C6.56418 18.6466 7.47467 19.4893 8.4655 19.9506C9.49204 20.4118 10.5721 20.7666 11.6879 20.9529C12.9376 21.0682 14.1962 21.0416 15.4459 20.9884C16.6956 20.8819 17.8918 20.4739 19.0343 19.9772C19.9181 19.5691 20.7482 18.8773 21.0606 17.9193C21.4266 16.9081 21.1588 15.6485 20.2662 14.9921C19.6681 14.4865 18.8469 14.3889 18.0881 14.4067C14.955 14.4333 11.8486 14.38 8.74222 14.4333Z" fill="#D15373"/>
<path d="M10.0722 16.1635C10.9827 15.6047 12.2949 16.403 12.2413 17.4674C11.1969 17.4497 10.1347 17.5384 9.09924 17.4053C9.31348 16.9175 9.56342 16.403 10.0722 16.1635Z" fill="#D15373"/>
<path d="M15.2764 17.4494C15.2674 16.4826 16.3832 15.6931 17.2848 16.0746C17.8918 16.252 18.2488 16.8374 18.4095 17.414C17.3651 17.5027 16.3207 17.4583 15.2764 17.4494Z" fill="#D15373"/>
<path d="M3.89514 26.9679C4.68959 25.9922 5.99284 25.593 7.22468 25.6551C8.76002 28.1033 10.1258 30.658 11.6879 33.0884C11.8486 32.8223 11.9824 32.5384 12.0628 32.2369C12.4109 30.862 12.8929 29.5314 13.2768 28.1743C12.8751 27.4203 12.2145 26.7639 12.0806 25.8858C13.0893 25.8769 14.0891 25.8592 15.0888 25.8769C15.5262 25.7705 15.428 26.2849 15.2763 26.5067C14.9906 27.1099 14.4194 27.6066 14.339 28.2896C14.6604 29.8419 15.3209 31.3055 15.6244 32.8666C15.7137 32.9021 15.8833 32.9731 15.9815 33.0086C17.3918 30.5426 18.829 28.0856 20.284 25.6551C21.3373 25.5842 22.4174 25.868 23.2297 26.5422C24.1759 27.2695 24.5865 28.4936 24.5419 29.6556C24.5151 32.0949 24.5776 34.5343 24.5062 36.9736C17.3829 37.0268 10.2775 36.9736 3.16317 37.0002C3.06498 36.7341 2.98465 36.4591 3.0025 36.1752C3.01142 34.0641 3.01142 31.953 3.0025 29.8419C3.01142 28.8396 3.18995 27.7485 3.89514 26.9679Z" fill="#D15373"/>
</svg>
