<svg width="550" height="550" viewBox="0 0 550 550" fill="none" xmlns="http://www.w3.org/2000/svg">
<g clip-path="url(#clip0_1141_43)">
<circle cx="282.5" cy="418.5" r="153.5" fill="#F5F5F5"/>
<g clip-path="url(#clip1_1141_43)">
<path d="M155.827 279C161.088 279 165.358 274.52 165.358 269V259H155.827C150.566 259 146.297 263.48 146.297 269C146.297 274.52 150.566 279 155.827 279Z" fill="#0ACF83"/>
<path d="M146.297 248.999C146.297 243.479 150.566 239 155.827 239H165.358V259H155.827C150.566 259 146.297 254.519 146.297 248.999Z" fill="#A259FF"/>
<path d="M146.297 229C146.297 223.48 150.566 219 155.827 219H165.358L165.358 239H155.827C150.566 239 146.297 234.52 146.297 229Z" fill="#F24E1E"/>
<path d="M165.358 219H174.888C180.149 219 184.419 223.48 184.419 229C184.419 234.52 180.149 239 174.888 239L165.358 239L165.358 219Z" fill="#FF7262"/>
<path d="M184.419 248.999C184.419 254.519 180.149 259 174.888 259C169.627 259 165.358 254.519 165.358 248.999C165.358 243.479 169.627 239 174.888 239C180.149 239 184.419 243.479 184.419 248.999Z" fill="#1ABCFE"/>
</g>
<path d="M415.309 232.996H353.524C350.474 232.996 348 230.524 348 227.472V181.524C348 178.472 350.474 176 353.524 176H415.309C418.359 176 420.833 178.472 420.833 181.524V227.472C420.833 230.524 418.359 232.996 415.309 232.996Z" fill="#F14E25"/>
<path d="M372.112 214.077C371.677 214.077 371.242 213.899 370.909 213.545L363.233 205.328C362.568 204.618 362.568 203.465 363.233 202.756L371.04 194.403C371.703 193.692 372.781 193.692 373.444 194.403C374.109 195.113 374.109 196.266 373.444 196.975L366.84 204.042L373.314 210.971C373.979 211.682 373.979 212.834 373.314 213.545C372.981 213.899 372.548 214.077 372.112 214.077Z" fill="white"/>
<path d="M396.713 214.077C396.278 214.077 395.843 213.899 395.511 213.545C394.846 212.834 394.846 211.682 395.511 210.971L401.986 204.042L395.38 196.975C394.717 196.266 394.717 195.113 395.38 194.403C396.045 193.692 397.122 193.692 397.785 194.403L405.593 202.756C405.913 203.097 406.09 203.56 406.09 204.042C406.09 204.525 405.913 204.988 405.593 205.328L397.915 213.545C397.583 213.899 397.146 214.077 396.713 214.077Z" fill="white"/>
<path d="M380.607 216.334C380.395 216.334 380.177 216.291 379.967 216.2C379.096 215.822 378.679 214.76 379.032 213.829L386.651 193.796C387.006 192.868 387.994 192.415 388.869 192.797C389.739 193.175 390.157 194.238 389.804 195.169L382.183 215.201C381.913 215.906 381.279 216.334 380.607 216.334Z" fill="white"/>
<path d="M148.733 242.172C148.732 242.172 148.729 242.172 148.727 242.17C148.729 242.172 148.731 242.172 148.733 242.172Z" fill="#E4F6F3"/>
<path d="M280.309 163.997H218.525C215.474 163.997 213 161.524 213 158.474V112.524C213 109.474 215.474 107 218.525 107H280.309C283.361 107 285.833 109.474 285.833 112.524V158.474C285.833 161.524 283.361 163.997 280.309 163.997Z" fill="#343573"/>
<path d="M229.944 127.16V133.295C229.944 133.785 230.343 134.184 230.835 134.184H234.23C234.721 134.184 235.119 133.785 235.119 133.295V127.16C235.119 126.669 235.518 126.271 236.009 126.271H236.338C236.828 126.271 237.227 126.669 237.227 127.16V143.837C237.227 144.327 236.828 144.726 236.338 144.726H236.009C235.518 144.726 235.119 144.327 235.119 143.837V136.99C235.119 136.499 234.721 136.101 234.23 136.101H230.835C230.343 136.101 229.944 136.499 229.944 136.99V143.837C229.944 144.327 229.547 144.726 229.055 144.726H228.725C228.233 144.726 227.836 144.327 227.836 143.837V127.16C227.836 126.669 228.233 126.271 228.725 126.271H229.055C229.547 126.271 229.944 126.669 229.944 127.16Z" fill="white"/>
<path d="M241.783 128.16H240.194C239.704 128.16 239.305 127.761 239.305 127.271V127.16C239.305 126.669 239.704 126.271 240.194 126.271H247.259C247.751 126.271 248.149 126.669 248.149 127.16V127.271C248.149 127.761 247.751 128.16 247.259 128.16H245.671C245.179 128.16 244.781 128.558 244.781 129.05V143.837C244.781 144.327 244.382 144.726 243.891 144.726H243.563C243.071 144.726 242.672 144.327 242.672 143.837V129.05C242.672 128.558 242.274 128.16 241.783 128.16Z" fill="white"/>
<path d="M261.275 136.785C261.136 134.348 260.999 131.638 261.082 129.557H260.973C260.562 131.611 260.069 133.801 259.494 135.964L257.222 144.617H255.879L253.716 136.32C253.114 133.965 252.567 131.692 252.211 129.557H252.129C252.129 131.72 252.018 134.294 251.91 136.923L251.593 143.877C251.571 144.352 251.179 144.726 250.704 144.726H250.608C250.096 144.726 249.69 144.296 249.72 143.784L250.709 127.108C250.737 126.638 251.126 126.271 251.597 126.271H252.341C252.748 126.271 253.103 126.545 253.203 126.939L255.196 134.704C255.825 137.141 256.291 138.948 256.674 141.057H256.755C257.113 138.948 257.523 137.195 258.125 134.704L260.039 126.947C260.138 126.55 260.495 126.271 260.904 126.271H261.721C262.193 126.271 262.583 126.638 262.609 127.109L263.574 143.786C263.603 144.296 263.197 144.726 262.686 144.726H262.505C262.03 144.726 261.639 144.354 261.616 143.88L261.275 136.785Z" fill="white"/>
<path d="M267.383 126.271H267.711C268.203 126.271 268.602 126.669 268.602 127.16V142.057C268.602 142.549 269.001 142.946 269.491 142.946H272.914C273.405 142.946 273.803 143.345 273.803 143.837C273.803 144.327 273.405 144.726 272.914 144.726H267.383C266.891 144.726 266.492 144.327 266.492 143.837V127.16C266.492 126.669 266.891 126.271 267.383 126.271Z" fill="white"/>
<path d="M121 364.594C123.312 364.594 123.857 363.038 123.857 361.652C123.857 360.434 123.731 359.255 123.607 358.079C123.481 356.818 123.353 355.683 123.353 354.38C123.353 350.597 125.666 349 128.65 349H129.154V351.186H128.523C126.758 351.186 126.043 352.446 126.043 354.338C126.043 355.473 126.171 356.524 126.297 357.532C126.38 358.625 126.506 359.633 126.506 360.643C126.549 363.922 125.413 365.056 123.607 365.562V365.645C125.413 366.192 126.549 367.326 126.506 370.648C126.506 371.698 126.38 372.749 126.297 373.799C126.171 374.85 126.043 375.902 126.043 377.036C126.043 378.928 126.673 380.23 128.567 380.23H129.154V382.417H128.608C125.834 382.417 123.353 381.029 123.353 377.036C123.353 375.776 123.481 374.514 123.607 373.295C123.731 372.076 123.857 370.857 123.857 369.68C123.857 368.336 123.312 366.696 121 366.696V364.594Z" fill="#343573"/>
<path d="M163.851 366.696C161.539 366.696 160.993 368.336 160.993 369.68C160.993 370.857 161.119 372.076 161.244 373.295C161.37 374.514 161.498 375.776 161.498 377.036C161.498 381.029 159.017 382.417 156.242 382.417H155.695V380.23H156.284C158.177 380.021 158.808 378.928 158.808 377.036C158.808 375.902 158.68 374.85 158.596 373.799C158.47 372.749 158.345 371.698 158.345 370.648C158.302 367.326 159.437 366.192 161.244 365.645V365.562C159.437 365.056 158.302 363.922 158.345 360.643C158.345 359.633 158.47 358.625 158.596 357.532C158.68 356.524 158.808 355.473 158.808 354.338C158.808 352.446 158.092 351.396 156.327 351.186H155.695V349H156.201C159.184 349 161.498 350.597 161.498 354.38C161.498 355.683 161.37 356.818 161.244 358.079C161.119 359.255 160.993 360.434 160.993 361.652C160.993 363.038 161.539 364.594 163.851 364.594V366.696Z" fill="#343573"/>
<path d="M149.427 369.752V361.665L142.424 357.622L135.422 361.665V369.752L142.424 373.795L149.427 369.752Z" fill="#F14E25"/>
<path d="M325.686 256.794C319.105 253.517 311.188 254.811 305.987 260.013C299.566 266.434 299.352 276.727 305.308 283.43L302.742 283.125C302.431 283.088 302.149 283.311 302.113 283.621C302.075 283.931 302.298 284.214 302.607 284.251L306.517 284.715C306.674 284.734 306.821 284.687 306.936 284.599C307.049 284.509 307.13 284.376 307.148 284.219L307.598 280.436C307.635 280.126 307.414 279.845 307.102 279.808C306.792 279.77 306.509 279.992 306.472 280.303L306.185 282.712C300.593 276.454 300.782 266.822 306.789 260.815C311.646 255.957 319.037 254.75 325.182 257.808C325.462 257.949 325.802 257.833 325.942 257.553C326.081 257.273 325.967 256.934 325.686 256.794Z" fill="#F14E25"/>
<path d="M310.979 288.164C317.559 291.443 325.476 290.149 330.679 284.946C337.1 278.524 337.314 268.232 331.356 261.528L333.924 261.834C334.235 261.872 334.516 261.649 334.553 261.339C334.591 261.027 334.369 260.746 334.057 260.708L330.147 260.244C329.992 260.225 329.844 260.272 329.729 260.361C329.615 260.451 329.536 260.584 329.518 260.74L329.068 264.523C329.031 264.833 329.254 265.114 329.563 265.152C329.874 265.189 330.157 264.966 330.193 264.656L330.48 262.247C336.073 268.505 335.884 278.137 329.877 284.144C325.021 289.001 317.628 290.21 311.483 287.15C311.203 287.01 310.864 287.125 310.724 287.405C310.584 287.686 310.699 288.025 310.979 288.164Z" fill="#F14E25"/>
<path d="M460.919 457.711C458.901 463.565 456.49 468.675 453.97 473.288C445.259 489.203 435.142 499.328 434.763 514.167C434.763 514.167 431.623 500.188 434.144 484.259C435.556 475.313 438.75 465.754 445.286 457.711C463.473 435.343 460.781 415 460.781 415C460.781 415 469.899 431.686 460.919 457.711Z" fill="#185F00"/>
<path d="M442.156 480.615C442.792 478.983 443.513 477.386 444.302 475.825C445.086 474.196 446.022 472.65 446.938 471.095L449.866 466.574C451.732 463.534 453.306 460.309 454.632 456.985C455.968 453.665 457.093 450.257 458.037 446.801C458.991 443.345 459.771 439.841 460.384 436.308C461.002 432.776 461.452 429.211 461.675 425.632C461.782 423.842 461.832 422.047 461.754 420.255C461.71 419.359 461.654 418.462 461.508 417.577C461.36 416.697 461.196 415.8 460.778 415C460.78 415.003 460.781 415.005 460.782 415.008C460.792 415.025 460.814 415.067 460.85 415.136C461.23 415.895 461.399 416.741 461.551 417.57C461.712 418.455 461.783 419.353 461.843 420.25C461.95 422.045 461.929 423.846 461.852 425.64C461.696 429.234 461.271 432.812 460.693 436.361C460.117 439.91 459.373 443.433 458.453 446.913C457.543 450.393 456.451 453.83 455.142 457.187C453.844 460.549 452.292 463.819 450.434 466.922L447.532 471.46C446.631 473 445.708 474.533 444.938 476.145C444.286 477.443 443.682 478.767 443.136 480.113C442.808 480.283 442.481 480.451 442.156 480.615Z" fill="white"/>
<path d="M439.811 529.802C439.811 529.802 433.45 518.925 448.505 505.504C463.561 492.082 475.344 474.331 473.052 459.969C458.652 476.7 420.359 500.424 431.159 529.8L439.811 529.802Z" fill="#1F7900"/>
<path d="M436.17 529.877H435.44C434.096 526.652 433.699 523.128 433.828 519.693C433.954 516.181 434.669 512.723 435.69 509.385C437.778 502.709 441.196 496.488 445.538 491.036C447.712 488.31 450.144 485.784 452.821 483.551C455.508 481.339 458.195 479.142 460.645 476.671C463.113 474.228 465.435 471.634 467.551 468.876C469.644 466.108 471.592 463.202 473.055 460.045C471.618 463.215 469.692 466.14 467.619 468.929C465.524 471.706 463.219 474.325 460.765 476.792C458.335 479.287 455.648 481.519 452.988 483.75C450.343 485.991 447.945 488.523 445.807 491.25C441.537 496.703 438.195 502.913 436.184 509.535C435.201 512.847 434.525 516.267 434.43 519.713C434.329 523.144 434.768 526.637 436.142 529.771C436.157 529.806 436.167 529.842 436.17 529.877Z" fill="white"/>
<path d="M460.849 415.136C460.813 415.067 460.791 415.025 460.781 415.008C460.805 415.051 460.827 415.093 460.849 415.136Z" fill="#E9F8F5"/>
<path d="M433.388 503.64C433.252 501.675 433.163 499.499 433.164 497.172C433.164 493.215 433.422 488.817 434.143 484.259C436.51 483.292 439.28 482.07 442.159 480.615C441.481 482.352 440.899 484.129 440.434 485.938C439.969 487.689 439.645 489.479 439.465 491.286C439.369 492.305 439.305 493.322 439.313 494.347C437.03 497.349 435.008 500.447 433.388 503.64ZM440.039 493.407C440.066 492.723 440.12 492.038 440.191 491.361C440.387 489.597 440.701 487.842 441.151 486.12C441.671 484.076 442.343 482.07 443.138 480.113C446.828 478.195 450.641 475.905 453.969 473.288C451.285 478.192 448.468 482.545 445.843 486.656C443.804 488.849 441.849 491.098 440.039 493.407Z" fill="#185F00"/>
<path d="M439.313 494.347C439.305 493.323 439.37 492.305 439.466 491.286C439.645 489.479 439.97 487.689 440.434 485.938C440.899 484.129 441.482 482.352 442.159 480.615C442.484 480.451 442.811 480.283 443.138 480.113C442.343 482.07 441.671 484.076 441.151 486.12C440.702 487.842 440.387 489.597 440.191 491.361C440.12 492.038 440.066 492.723 440.039 493.408C439.795 493.719 439.552 494.034 439.313 494.347Z" fill="white"/>
<path d="M345.337 532.795C344.991 532.795 344.649 532.644 344.415 532.354L252.722 418.347C252.313 417.838 252.394 417.095 252.902 416.686C253.411 416.278 254.154 416.357 254.562 416.866L346.256 530.872C346.665 531.38 346.584 532.124 346.076 532.533C345.858 532.709 345.597 532.795 345.337 532.795Z" fill="#E13122"/>
<path d="M203.102 532.795C202.842 532.795 202.58 532.709 202.363 532.533C201.855 532.124 201.774 531.38 202.182 530.872L293.876 416.866C294.286 416.357 295.029 416.278 295.537 416.686C296.046 417.095 296.126 417.838 295.717 418.347L204.023 532.354C203.79 532.644 203.447 532.795 203.102 532.795Z" fill="#F14E25"/>
<path d="M294.797 532.795C294.451 532.795 294.11 532.644 293.876 532.354L202.182 418.347C201.774 417.838 201.855 417.095 202.363 416.686C202.872 416.278 203.615 416.357 204.023 416.866L295.717 530.872C296.125 531.38 296.045 532.124 295.537 532.533C295.318 532.709 295.057 532.795 294.797 532.795Z" fill="#F14E25"/>
<path d="M219.345 420.633H176.746C175.074 420.633 173.719 419.278 173.719 417.606C173.719 415.935 175.074 414.58 176.746 414.58H219.345C221.016 414.58 222.372 415.935 222.372 417.606C222.372 419.278 221.016 420.633 219.345 420.633Z" fill="#E13122"/>
<path d="M341.915 420.633H220.159C218.487 420.633 217.133 419.278 217.133 417.606C217.133 415.935 218.487 414.58 220.159 414.58H341.915V420.633Z" fill="#F14E25"/>
<path d="M252.252 474.61C252.252 476.436 250.773 477.916 248.946 477.916C247.12 477.916 245.641 476.436 245.641 474.61C245.641 472.785 247.12 471.304 248.946 471.304C250.773 471.304 252.252 472.785 252.252 474.61Z" fill="#E13122"/>
<path d="M302.791 474.61C302.791 476.436 301.311 477.916 299.486 477.916C297.659 477.916 296.18 476.436 296.18 474.61C296.18 472.785 297.659 471.304 299.486 471.304C301.311 471.304 302.791 472.785 302.791 474.61Z" fill="#FBC52F"/>
<path d="M339.881 352.201C339.881 355.098 337.533 357.446 334.636 357.446C331.739 357.446 329.391 355.098 329.391 352.201C329.391 349.304 331.739 346.955 334.636 346.955C337.533 346.955 339.881 349.304 339.881 352.201Z" fill="#50C4C0"/>
<path d="M237.344 384.779H275.119L288.779 411.07H251.004L237.344 384.779Z" fill="#87C5B8"/>
<path d="M251.764 409.126L240.453 387.357C240.216 386.9 240.547 386.355 241.062 386.355H273.742C273.998 386.355 274.231 386.497 274.35 386.724L285.661 408.493C285.898 408.95 285.567 409.495 285.053 409.495H252.373C252.117 409.495 251.882 409.353 251.764 409.126Z" fill="white"/>
<path d="M281.603 411.071H251.008V414.58H281.603V411.071Z" fill="#BBE8E0"/>
<path d="M307.882 411.071H277.691C276.723 411.071 275.938 411.857 275.938 412.824C275.938 413.794 276.723 414.58 277.691 414.58H307.882C308.852 414.58 309.637 413.794 309.637 412.824C309.637 411.857 308.852 411.071 307.882 411.071Z" fill="#9FD2C5"/>
<path d="M250.999 411.071L237.338 384.779L236.653 385.293C236.212 385.625 236.075 386.228 236.333 386.718L250.999 414.58V411.071Z" fill="#BBE8E0"/>
<path d="M264.759 413.293H261.391V412.708H264.759V413.293Z" fill="#9FD2C5"/>
<path d="M268.993 413.293H265.625V412.708H268.993V413.293Z" fill="#9FD2C5"/>
<path d="M273.227 413.293H269.859V412.708H273.227V413.293Z" fill="#9FD2C5"/>
<path d="M319.875 462.529C319.875 462.529 288.542 486.926 283.572 493.123C281.698 495.471 278.43 499.581 275.044 503.794C269.485 510.717 263.586 517.93 262.885 518.103C261.767 518.386 252.365 511.228 252.081 509.684C251.908 508.723 260.468 494.029 267.878 482.216C272.39 475.036 276.469 468.908 277.902 467.585C281.69 464.073 305 451.725 305 451.725L319.875 462.529Z" fill="#343573"/>
<path d="M352.513 355.488C352.183 356.244 351.804 357.031 351.38 357.835C349.088 362.213 350.781 366.6 348.166 367.718C348.01 367.781 347.835 367.844 347.639 367.883C344.269 368.632 336.504 364.142 336.165 361.899C335.827 359.654 338.559 355.811 336.165 355.347C333.772 354.882 332.48 358.905 332.48 358.905C330.511 359.11 329.811 355.811 326.581 355.811C326.125 355.811 325.677 355.875 325.244 355.984C323.723 356.363 322.393 357.3 321.541 358.024C320.912 358.551 320.549 358.969 320.549 358.969C320.549 358.969 317.675 357.15 317.809 353.567C318.037 347.889 320.132 343.747 325.18 342.904C325.739 336.589 330.937 333.218 337.881 333.006C343.97 332.816 344.883 338.29 345.024 339.652C344.97 338.636 344.686 335.297 343.237 333.006C346.284 332.871 348.97 335.046 348.268 342.133C348.97 340.023 351.427 338.691 353.317 340.234C351.569 340.234 349.883 343.179 349.883 343.179C349.883 343.179 351.939 344.495 353.341 346.928C354.506 348.937 354.065 351.905 352.513 355.488Z" fill="#261A19"/>
<path d="M348.188 367.772L348.11 368.812L347.843 372.497C347.843 372.497 342.235 377.293 339.054 372.497L338.984 372.402C337.998 370.938 337.109 370.426 336.297 370.331C335.683 370.257 335.108 370.42 334.559 370.582C333.542 370.883 332.611 371.184 331.659 369.977C327.47 364.661 325.801 358.504 325.266 356.039C325.699 355.929 326.147 355.865 326.603 355.865C329.833 355.865 330.533 359.164 332.502 358.96C332.502 358.96 333.794 354.936 336.187 355.401C338.581 355.865 335.849 359.708 336.187 361.953C336.337 362.952 337.968 364.401 340.03 365.63C342.432 367.071 345.425 368.213 347.322 367.993C347.44 367.977 347.551 367.96 347.661 367.937C347.857 367.898 348.032 367.835 348.188 367.772Z" fill="#F89D8A"/>
<path d="M337.809 375.585C337.39 374.838 336.741 373.41 337.267 372.497C337.41 372.245 337.764 371.898 338.267 371.488C338.268 371.488 338.268 371.488 338.268 371.487C338.499 371.74 338.734 372.043 338.977 372.402L339.047 372.497C339.459 373.119 339.912 373.579 340.388 373.91C339.644 374.389 338.758 374.964 337.809 375.585Z" fill="#E9F8F5"/>
<path d="M340.394 373.91C339.918 373.579 339.465 373.119 339.053 372.497L338.983 372.402C338.74 372.043 338.504 371.74 338.273 371.487C339.29 370.653 340.928 369.583 342.62 368.701C342.62 368.701 342.621 368.701 342.621 368.7C342.199 369.329 341.987 369.77 341.919 369.922L341.911 369.977C341.793 370.489 341.675 371.025 341.565 371.584C341.445 372.163 341.324 372.764 341.206 373.389C340.961 373.545 340.688 373.721 340.394 373.91Z" fill="#F6836D"/>
<path d="M348.307 436.055C342.669 437.141 330.739 433.818 325.029 431.251C323.344 430.495 322.194 429.802 321.919 429.314C320.824 427.384 321.926 425.904 324.643 419.778C324.95 419.084 325.273 418.337 325.62 417.525C327.462 413.186 327.47 403.933 327.462 395.955C327.438 389.128 327.408 383.238 328.494 382.191C330.848 379.922 342.598 372.497 342.598 372.497L344.937 384.687C344.937 384.687 346.26 390.877 347.654 398.956C350.221 413.832 353.041 435.141 348.307 436.055Z" fill="#50C4C0"/>
<path d="M352.243 441.481C352.243 442.04 346.628 455.135 341.918 457.009C337.21 458.884 308.829 456.821 308.829 456.821L294.796 465.995L297.732 493.636L299.78 512.897L299.843 513.52C295.551 516.323 284.74 517.079 283.574 514.661L283.566 514.645C282.439 512.212 265.226 460.38 271.967 451.394C278.7 442.418 321.924 429.314 321.924 429.314C323.051 430.03 324.358 430.676 325.783 431.251C330.586 433.22 336.69 434.456 341.336 435.181C343.123 435.457 344.69 435.662 345.887 435.802C347.4 435.984 348.313 436.055 348.313 436.055C348.313 436.055 352.243 440.914 352.243 441.481Z" fill="#343573"/>
<path d="M301.621 531.577H265.129C264.948 530.931 265.193 530.278 265.744 529.616C267.224 527.836 270.933 526.048 274.508 524.505C277.902 523.04 281.163 521.781 282.257 520.914C284.833 518.875 283.644 514.906 283.572 514.661C283.966 515.472 285.454 515.929 287.424 516.063C291.29 516.338 297 515.378 299.842 513.52L299.778 512.897C300.866 514.976 301.378 525.254 301.551 529.616C301.598 530.821 301.621 531.577 301.621 531.577Z" fill="#202853"/>
<path d="M287.423 516.063C287.313 517.804 287.061 520.622 286.557 521.379C285.809 522.505 277.761 526.434 276.642 526.057C275.918 525.82 275.036 525.032 274.508 524.505C277.902 523.04 281.163 521.781 282.257 520.914C284.832 518.875 283.643 514.906 283.572 514.661C283.966 515.472 285.454 515.929 287.423 516.063Z" fill="#304383"/>
<path d="M301.621 531.577H265.129C264.948 530.931 265.193 530.278 265.744 529.616H301.551C301.598 530.821 301.621 531.577 301.621 531.577Z" fill="#304383"/>
<path d="M262.886 518.103C262.886 518.103 260.114 525.41 257.712 529.277C256.759 530.82 255.854 531.821 255.215 531.577C252.971 530.734 230.418 511.558 232.575 510.157C232.89 509.953 233.395 509.81 234.025 509.731C235.986 509.479 239.238 509.754 242.246 510.062C244.829 510.33 247.23 510.621 248.483 510.621C251.664 510.621 252.081 509.684 252.081 509.684C252.152 510.055 252.751 510.756 253.641 511.606C256.428 514.251 262.035 518.315 262.886 518.103Z" fill="#202853"/>
<path d="M253.64 511.606C248.86 514.771 243.876 512.866 242.89 512.142C242.166 511.613 242.166 510.63 242.246 510.062C244.828 510.33 247.23 510.621 248.482 510.621C251.663 510.621 252.081 509.684 252.081 509.684C252.152 510.055 252.75 510.756 253.64 511.606Z" fill="#304383"/>
<path d="M257.712 529.277C256.759 530.82 255.854 531.821 255.215 531.577C252.971 530.734 230.418 511.558 232.575 510.157C232.89 509.953 233.395 509.81 234.025 509.731L257.712 529.277Z" fill="#304383"/>
<path d="M325.052 412.17C323.288 414.627 320.13 418.376 317.532 417.997C317.437 417.982 317.335 417.966 317.209 417.943C312.247 417.068 283.071 409.752 281.693 409.477C280.291 409.202 270.472 409.107 271.031 408.075C271.59 407.044 277.205 403.776 278.701 403.855C280.197 403.933 286.095 405.642 291.985 405.453C297.884 405.272 313.318 405.453 313.318 405.453L314.067 404.161L315.169 402.255C314.862 407.972 321.752 412.635 325.052 412.17Z" fill="#F89D8A"/>
<path d="M328.951 443.415C328.896 443.415 328.84 443.405 328.787 443.381C326.955 442.549 325.869 441.144 325.264 439.676C324.656 438.206 324.509 436.667 324.508 435.484C324.508 434.268 324.667 433.423 324.669 433.406C324.705 433.217 324.871 433.085 325.056 433.085C325.08 433.085 325.104 433.087 325.128 433.092C325.343 433.132 325.483 433.338 325.443 433.552C325.443 433.552 325.435 433.594 325.422 433.684C325.407 433.776 325.389 433.91 325.37 434.081C325.333 434.422 325.295 434.91 325.295 435.484C325.295 436.602 325.44 438.045 325.991 439.375C326.546 440.706 327.484 441.919 329.114 442.664C329.312 442.754 329.399 442.987 329.309 443.186C329.243 443.33 329.1 443.415 328.951 443.415Z" fill="#2C2E5F"/>
<path d="M294.796 513.29C294.614 513.29 294.45 513.163 294.411 512.978C294.411 512.975 289.35 488.972 286.817 472.769C285.972 467.363 285.407 462.837 285.406 460.306C285.409 459.497 285.456 458.898 285.608 458.466C285.746 458.094 286.011 457.738 286.377 457.355C286.743 456.973 287.214 456.569 287.779 456.139C288.907 455.28 290.407 454.32 292.158 453.3C295.657 451.261 300.152 448.98 304.594 446.843C313.476 442.569 322.144 438.872 322.147 438.87C322.197 438.849 322.25 438.839 322.301 438.839C322.454 438.839 322.6 438.929 322.664 439.078C322.749 439.278 322.656 439.509 322.456 439.595C322.453 439.596 321.387 440.051 319.615 440.828C317.842 441.606 315.365 442.704 312.554 443.987C306.931 446.553 299.964 449.862 294.605 452.819C291.036 454.785 288.167 456.619 286.946 457.899C286.619 458.237 286.419 458.534 286.349 458.735C286.257 458.977 286.19 459.541 286.193 460.306C286.19 464.568 287.91 475.197 289.846 485.745C291.782 496.302 293.935 506.814 294.796 510.964C295.041 512.15 295.182 512.814 295.182 512.816C295.227 513.029 295.09 513.237 294.877 513.283C294.851 513.288 294.823 513.29 294.796 513.29Z" fill="#2C2E5F"/>
<path d="M297.734 493.636C297.734 493.636 291.805 462.065 291.805 460.002C291.805 458.239 331.006 446.97 341.338 435.181C343.125 435.462 344.693 435.666 345.888 435.805C345.91 435.957 345.931 436.109 345.953 436.26C346.257 438.489 346.434 440.548 346.434 442.33C346.434 446.18 345.607 448.741 343.448 448.961C338.022 449.529 334.463 449.71 333.156 455.135L308.831 456.821L296.711 464.632L294.798 465.995L297.734 493.636Z" fill="#2C2E5F"/>
<path d="M324.648 419.778C324.955 419.084 325.278 418.337 325.625 417.525C326.334 415.854 326.772 413.454 327.041 410.677C331.991 405.91 336.306 398.749 336.096 392.397C336.422 396.055 336.696 403.82 333.76 407.981C331.326 411.43 327.404 415.808 324.648 419.778Z" fill="#43BAB4"/>
<path d="M326.586 411.107C326.223 411.438 325.853 411.769 325.482 412.076C325.349 412.123 325.207 412.155 325.049 412.17C321.75 412.635 314.859 407.972 315.166 402.255C315.19 401.831 315.529 400.981 316.08 399.87C318.899 394.184 327.38 381.529 328.94 382.112C328.94 382.112 334.389 382.954 335.869 390.396C337.255 397.381 332.255 405.855 326.586 411.107Z" fill="#389A9A"/>
<path d="M345.883 435.802C344.686 435.661 343.12 435.457 341.334 435.181C336.688 434.456 330.584 433.22 325.781 431.251C330.018 431.101 339.082 428.314 340.177 407.564C340.672 411.446 341.421 415.469 342.46 419.588C343.85 425.058 345.166 430.832 345.883 435.802Z" fill="#43BAB4"/>
<path d="M338.276 371.488C338.102 371.299 337.933 371.136 337.766 370.999C337.933 371.136 338.103 371.298 338.277 371.487C338.277 371.488 338.277 371.488 338.276 371.488Z" fill="#E9F8F5"/>
<path d="M338.274 371.487C338.101 371.298 337.931 371.136 337.763 370.999C337.247 370.573 336.761 370.385 336.297 370.331L340.026 365.634C341.16 366.313 342.425 366.926 343.644 367.362L343.648 367.359L343.644 367.362C343.302 367.761 343.02 368.131 342.789 368.458C342.73 368.541 342.674 368.623 342.621 368.701C340.929 369.583 339.291 370.653 338.274 371.487Z" fill="#F6836D"/>
<path d="M317.901 418.024C317.776 418.024 317.651 418.015 317.529 417.997C317.434 417.982 317.332 417.966 317.206 417.943C313.993 413.297 313.875 407.209 314.064 404.161L315.166 402.255C315.165 402.279 315.164 402.303 315.163 402.326C314.944 407.353 320.273 411.549 323.781 412.133C323.784 412.133 323.786 412.134 323.788 412.134C323.795 412.135 323.802 412.136 323.809 412.138C323.822 412.139 323.836 412.141 323.85 412.143C323.859 412.145 323.868 412.146 323.877 412.148C323.905 412.152 323.932 412.156 323.96 412.16C323.986 412.163 324.011 412.166 324.036 412.169C324.141 412.182 324.243 412.19 324.344 412.196H324.345C324.374 412.197 324.403 412.199 324.433 412.2C324.479 412.201 324.524 412.202 324.57 412.202C324.736 412.202 324.897 412.191 325.049 412.17C323.369 414.51 320.423 418.024 317.901 418.024Z" fill="#F6836D"/>
<path d="M324.433 412.2C324.403 412.199 324.374 412.197 324.344 412.196C324.374 412.197 324.403 412.199 324.433 412.2ZM324.343 412.196C324.242 412.19 324.14 412.182 324.036 412.169C324.14 412.182 324.242 412.19 324.343 412.196ZM323.877 412.148C323.868 412.146 323.859 412.145 323.85 412.143C323.859 412.145 323.868 412.146 323.877 412.148ZM323.809 412.138C323.802 412.136 323.795 412.135 323.788 412.134C323.795 412.135 323.802 412.136 323.809 412.138ZM323.781 412.133C320.273 411.549 314.943 407.353 315.163 402.326C314.943 407.353 320.273 411.549 323.781 412.133Z" fill="#2E7D80"/>
<path d="M350.094 362.437C350.206 361.546 350.371 360.596 350.681 359.625C350.372 360.595 350.209 361.544 350.097 362.435C350.096 362.436 350.095 362.436 350.094 362.437Z" fill="#272952"/>
<path d="M343.644 367.355C342.993 367.123 342.327 366.843 341.677 366.527C341.108 366.251 340.55 365.948 340.021 365.63C339.102 365.083 338.268 364.491 337.614 363.915C336.801 363.199 336.263 362.507 336.178 361.953C336.158 361.817 336.148 361.675 336.149 361.528C336.151 360.006 337.171 357.971 337.171 356.662C337.171 356.014 336.922 355.545 336.178 355.401C336.047 355.375 335.92 355.363 335.796 355.363C335.795 355.363 335.793 355.363 335.792 355.363C334.677 355.366 333.831 356.337 333.273 357.269C332.76 358.131 332.493 358.96 332.493 358.96C332.434 358.966 332.376 358.969 332.319 358.969C332.318 358.969 332.316 358.969 332.315 358.969C331.289 358.967 330.6 357.996 329.645 357.141C328.892 356.468 327.974 355.865 326.594 355.865C326.138 355.865 325.69 355.929 325.257 356.039C323.737 356.417 322.406 357.354 321.555 358.078C321.555 358.078 324.557 353.861 329.385 353.861C329.873 353.861 330.379 353.905 330.903 353.999C330.903 353.999 330.159 352.582 326.844 352.582C326.647 352.582 326.441 352.586 326.226 352.597C329.424 351.555 332.164 351.09 334.46 351.09C337.941 351.09 340.401 352.158 341.896 353.905C343.23 355.467 345.748 357.272 348.415 357.273C349.794 357.273 351.211 356.791 352.527 355.542C352.197 356.298 351.818 357.085 351.393 357.889C351.088 358.471 350.854 359.052 350.672 359.625C350.362 360.596 350.197 361.546 350.085 362.437C349.622 362.676 349.185 362.92 348.771 363.165C346.337 364.614 344.7 366.118 343.644 367.355Z" fill="#261A19"/>
<path d="M341.685 366.527C341.117 366.252 340.559 365.949 340.03 365.63L340.027 365.634C339.109 365.084 338.277 364.492 337.622 363.915C338.277 364.491 339.111 365.083 340.03 365.63C340.559 365.948 341.117 366.251 341.685 366.527ZM336.187 361.953C336.167 361.817 336.157 361.675 336.158 361.528C336.157 361.675 336.167 361.817 336.187 361.953ZM332.324 358.969C331.297 358.967 330.608 357.996 329.654 357.141C330.608 357.996 331.297 358.967 332.324 358.969ZM332.502 358.96C332.502 358.96 332.503 358.959 332.504 358.956C332.503 358.959 332.502 358.96 332.502 358.96ZM337.18 356.662C337.18 356.014 336.931 355.545 336.187 355.401C336.057 355.375 335.929 355.363 335.805 355.363C335.929 355.363 336.056 355.375 336.187 355.401C336.931 355.545 337.18 356.014 337.18 356.662ZM325.266 356.039C325.699 355.929 326.147 355.865 326.603 355.865C326.147 355.865 325.699 355.929 325.266 356.039ZM335.801 355.363C335.802 355.363 335.804 355.363 335.805 355.363C335.804 355.363 335.802 355.363 335.801 355.363Z" fill="#F6836D"/>
<path d="M349.926 363.95C349.652 363.739 349.374 363.541 349.094 363.36C349.374 363.54 349.651 363.734 349.927 363.943C349.926 363.946 349.926 363.948 349.926 363.95Z" fill="#261A19"/>
<path d="M343.65 367.359C343 367.127 342.337 366.843 341.688 366.527C342.338 366.843 343.004 367.123 343.655 367.355L343.65 367.359Z" fill="#1F1616"/>
<path d="M343.633 367.362C342.414 366.926 341.15 366.313 340.016 365.634L340.019 365.63C340.548 365.949 341.106 366.252 341.674 366.527C342.324 366.843 342.987 367.127 343.637 367.359L343.633 367.362Z" fill="#F3654F"/>
<path d="M368.893 465.995H340.82C340.82 465.995 363.09 459.443 363.09 415.281C363.09 414.713 363.09 414.154 363.082 413.595C362.854 384.081 356.545 367.803 348.773 363.165C351.207 361.725 354.443 360.346 358.719 359.393C360.586 358.968 362.641 358.629 364.917 358.393C384.139 356.432 399.495 363.968 401.322 372.497C403.141 381.026 391.904 465.995 368.893 465.995Z" fill="#BBE8E0"/>
<path d="M363.087 415.281C363.087 459.443 340.817 465.995 340.817 465.995H294.789L296.702 464.632L308.822 456.821L333.147 455.135C334.454 449.71 338.013 449.529 343.439 448.961C346.597 448.639 346.905 443.308 345.944 436.26C345.242 431.188 343.889 425.226 342.455 419.588C341.416 415.469 340.667 411.446 340.172 407.564C339.58 403.019 339.321 398.68 339.296 394.593C339.226 385.285 340.36 377.332 341.557 371.584C341.667 371.025 341.785 370.489 341.904 369.977L341.911 369.922C342.021 369.678 342.503 368.686 343.636 367.362L343.644 367.355C344.7 366.118 346.337 364.614 348.77 363.165C349.157 363.393 349.542 363.661 349.92 363.952C357.157 369.465 362.859 385.554 363.079 413.595C363.087 414.154 363.087 414.713 363.087 415.281Z" fill="#87C5B8"/>
<path d="M354.208 531.577H321.07C319.936 531.577 319.44 530.143 320.338 529.442L328.631 522.953C332.308 520.071 334.457 515.653 334.457 510.984V465.995H340.821V510.984C340.821 515.653 342.97 520.071 346.655 522.953L354.939 529.442C355.838 530.143 355.341 531.577 354.208 531.577Z" fill="#BBE8E0"/>
<path d="M366.112 460.979C366.017 460.979 365.922 460.945 365.847 460.875C365.686 460.729 365.675 460.48 365.822 460.319C366.718 459.34 367.58 458.335 368.405 457.308C368.483 457.211 368.597 457.161 368.712 457.161C368.799 457.161 368.886 457.189 368.958 457.248C369.128 457.384 369.155 457.632 369.019 457.801C368.183 458.841 367.311 459.858 366.403 460.851C366.325 460.936 366.219 460.979 366.112 460.979ZM371.114 454.76C371.036 454.76 370.957 454.736 370.888 454.688C370.71 454.562 370.668 454.316 370.793 454.138C371.558 453.055 372.289 451.951 372.986 450.829C373.06 450.708 373.189 450.642 373.321 450.642C373.391 450.642 373.463 450.661 373.527 450.702C373.712 450.816 373.769 451.059 373.654 451.243C372.95 452.38 372.211 453.497 371.437 454.593C371.36 454.701 371.239 454.76 371.114 454.76ZM375.327 447.977C375.263 447.977 375.199 447.962 375.139 447.929C374.948 447.825 374.877 447.585 374.981 447.395C375.614 446.231 376.215 445.049 376.783 443.854C376.851 443.712 376.992 443.629 377.139 443.629C377.196 443.629 377.254 443.642 377.309 443.668C377.505 443.761 377.589 443.996 377.494 444.192C376.92 445.4 376.313 446.594 375.673 447.771C375.602 447.902 375.466 447.977 375.327 447.977ZM378.761 440.767C378.711 440.767 378.66 440.757 378.611 440.737C378.41 440.653 378.315 440.423 378.398 440.222C378.906 438.997 379.382 437.76 379.829 436.513C379.887 436.352 380.039 436.252 380.2 436.252C380.244 436.252 380.289 436.26 380.334 436.275C380.538 436.349 380.644 436.574 380.571 436.779C380.119 438.038 379.638 439.287 379.125 440.523C379.063 440.675 378.916 440.767 378.761 440.767ZM381.462 433.25C381.424 433.25 381.384 433.244 381.346 433.231C381.138 433.168 381.022 432.947 381.085 432.74C381.476 431.471 381.837 430.195 382.172 428.913C382.218 428.735 382.378 428.618 382.553 428.618C382.586 428.618 382.62 428.623 382.653 428.631C382.863 428.686 382.989 428.901 382.934 429.111C382.597 430.405 382.232 431.692 381.838 432.972C381.786 433.141 381.631 433.25 381.462 433.25ZM383.483 425.52C383.455 425.52 383.427 425.517 383.398 425.511C383.186 425.465 383.051 425.255 383.098 425.043C383.38 423.744 383.637 422.441 383.867 421.138C383.901 420.947 384.067 420.813 384.254 420.813C384.277 420.813 384.3 420.815 384.324 420.819C384.537 420.856 384.68 421.061 384.642 421.275C384.41 422.588 384.151 423.901 383.867 425.21C383.827 425.395 383.664 425.52 383.483 425.52ZM384.878 417.653C384.86 417.653 384.842 417.652 384.823 417.65C384.608 417.62 384.457 417.422 384.487 417.206C384.671 415.886 384.83 414.568 384.964 413.253H384.965C384.985 413.051 385.157 412.9 385.356 412.9C385.369 412.9 385.383 412.9 385.396 412.901C385.613 412.924 385.771 413.117 385.748 413.333C385.612 414.657 385.452 415.985 385.267 417.314C385.24 417.511 385.071 417.653 384.878 417.653ZM385.697 409.705C385.688 409.705 385.678 409.705 385.67 409.704C385.452 409.69 385.289 409.502 385.304 409.285C385.394 407.951 385.462 406.625 385.508 405.307C385.515 405.095 385.69 404.927 385.9 404.927C385.905 404.927 385.91 404.927 385.915 404.927C386.132 404.935 386.302 405.118 386.295 405.335C386.249 406.661 386.18 407.996 386.089 409.339C386.075 409.546 385.902 409.705 385.697 409.705ZM385.974 401.72C385.756 401.72 385.58 401.542 385.58 401.325L385.581 401.087C385.581 399.827 385.561 398.578 385.523 397.343C385.517 397.125 385.688 396.944 385.905 396.938C385.909 396.938 385.913 396.938 385.917 396.938C386.129 396.938 386.305 397.106 386.31 397.319C386.349 398.562 386.368 399.819 386.368 401.087V401.327C386.367 401.543 386.191 401.72 385.974 401.72ZM385.73 393.734C385.524 393.734 385.351 393.573 385.338 393.365C385.253 392.02 385.147 390.696 385.022 389.396C385.002 389.179 385.161 388.987 385.376 388.966C385.39 388.965 385.402 388.965 385.415 388.965C385.615 388.965 385.787 389.117 385.806 389.321C385.932 390.629 386.039 391.963 386.124 393.315C386.137 393.533 385.973 393.719 385.755 393.733C385.748 393.734 385.739 393.734 385.73 393.734ZM384.964 385.783C384.769 385.783 384.6 385.638 384.574 385.439C384.395 384.067 384.209 382.751 384.018 381.492C383.986 381.276 384.133 381.076 384.349 381.043C384.369 381.04 384.388 381.038 384.408 381.038C384.599 381.038 384.767 381.179 384.797 381.373C384.988 382.639 385.175 383.96 385.355 385.338C385.383 385.554 385.231 385.751 385.015 385.779C384.998 385.782 384.981 385.783 384.964 385.783ZM383.765 377.883C383.577 377.883 383.411 377.748 383.378 377.557C383.135 376.167 382.889 374.862 382.645 373.64C382.602 373.426 382.74 373.218 382.953 373.176C382.979 373.171 383.005 373.168 383.031 373.168C383.215 373.168 383.38 373.298 383.417 373.485C383.663 374.713 383.91 376.026 384.153 377.422C384.191 377.635 384.047 377.839 383.833 377.877C383.811 377.881 383.788 377.883 383.765 377.883ZM382.191 370.05C382.013 370.05 381.85 369.927 381.809 369.744C381.474 368.288 381.15 367 380.851 365.879C380.795 365.669 380.92 365.454 381.13 365.398C381.164 365.388 381.199 365.385 381.232 365.385C381.406 365.385 381.565 365.5 381.612 365.676C381.913 366.807 382.239 368.104 382.575 369.568C382.624 369.78 382.493 369.991 382.28 370.039C382.25 370.046 382.221 370.05 382.191 370.05Z" fill="#AAE2D8"/>
<path d="M334.453 480.957V465.995H340.817V478.28C338.611 479.429 336.375 480.311 334.453 480.957Z" fill="#B1E4DB"/>
<path d="M313.193 465.995H294.789L296.702 464.632L308.822 456.821L333.147 455.135C334.454 449.71 338.013 449.529 343.439 448.961C345.598 448.741 346.425 446.18 346.425 442.33C346.425 440.548 346.248 438.489 345.944 436.26C345.242 431.188 343.889 425.226 342.455 419.588C341.416 415.469 340.667 411.446 340.172 407.564C339.58 403.019 339.321 398.68 339.296 394.593C342.897 413.352 350.724 443.441 349.613 446.906C348.116 451.583 338.77 450.746 337.636 454.206C336.217 458.532 335.172 459.188 332.659 459.188C332.113 459.188 331.498 459.156 330.796 459.125C330.093 459.094 329.302 459.064 328.405 459.064C327.318 459.064 326.076 459.109 324.642 459.254C319.35 459.79 315.508 463.183 313.193 465.995Z" fill="#74BAAF"/>
<path d="M367.036 465.995H340.82C340.82 465.995 363.09 459.443 363.09 415.281C363.09 414.713 363.09 414.154 363.082 413.595C362.866 385.549 357.158 369.455 349.922 363.943C349.646 363.734 349.369 363.54 349.089 363.36C348.984 363.293 348.879 363.228 348.773 363.165C351.207 361.725 354.443 360.346 358.719 359.393C357.435 361.244 356.096 364.023 356.727 366.992C357.854 372.245 370.579 392.452 365.713 424.825C362.2 448.182 363.365 460.333 367.036 465.995ZM363.301 463.068C363.203 463.068 363.105 463.105 363.029 463.177C362.56 463.626 362.081 464.07 361.594 464.506C361.431 464.652 361.418 464.901 361.563 465.062C361.641 465.149 361.749 465.193 361.856 465.193C361.95 465.193 362.044 465.161 362.119 465.093C362.613 464.651 363.098 464.201 363.574 463.746C363.731 463.596 363.736 463.347 363.586 463.189C363.508 463.108 363.404 463.068 363.301 463.068Z" fill="#B1E4DB"/>
<path d="M363.09 415.281C363.09 414.713 363.09 414.154 363.082 413.595C363.09 414.154 363.09 414.713 363.09 415.281ZM349.089 363.36C348.984 363.293 348.879 363.227 348.773 363.165C348.879 363.227 348.984 363.293 349.089 363.36Z" fill="#74BAAF"/>
<path d="M361.863 465.193C361.755 465.193 361.647 465.149 361.569 465.063C361.424 464.901 361.438 464.652 361.6 464.506C362.087 464.07 362.566 463.626 363.036 463.177C363.112 463.105 363.21 463.068 363.308 463.068C363.411 463.068 363.515 463.108 363.593 463.189C363.743 463.347 363.737 463.596 363.58 463.746C363.104 464.201 362.619 464.651 362.126 465.093C362.05 465.161 361.956 465.193 361.863 465.193Z" fill="#9CDDD2"/>
<path d="M173.393 481.353C173.177 481.353 173.002 481.178 173 480.963V480.957C173.002 480.782 173.002 480.607 173.002 480.433C173.133 480.608 173.264 480.783 173.394 480.957C173.474 481.063 173.552 481.168 173.632 481.273C173.567 481.323 173.485 481.353 173.396 481.353C173.395 481.353 173.394 481.353 173.393 481.353Z" fill="white"/>
<path d="M173.631 481.273C173.551 481.168 173.473 481.063 173.394 480.957C173.394 480.957 173.555 480.42 173.759 479.479C173.778 479.972 173.787 480.465 173.787 480.958C173.788 481.086 173.726 481.201 173.631 481.273ZM173.394 480.957C173.263 480.783 173.132 480.608 173.001 480.433C173.001 480.416 173 480.4 173 480.383L173.394 480.957Z" fill="#E9F8F5"/>
<path d="M456.465 550H122.535C117.269 550 113 545.525 113 540.001C113 534.478 117.269 530 122.535 530H456.465C461.731 530 466 534.478 466 540.001C466 545.525 461.731 550 456.465 550Z" fill="#EEF9F8"/>
<path d="M10.625 203H49.375C55.25 203 60 207.872 60 213.897V252.103C60 258.128 55.25 263 49.375 263H10.625C4.75 263 0 258.128 0 252.103V213.897C0 207.872 4.75 203 10.625 203Z" fill="#470137"/>
<path d="M31.8098 221.154L24.3098 233.529L32.3098 246.654C32.3598 246.754 32.3848 246.854 32.3598 246.954C32.3348 247.054 32.2348 246.979 32.0848 247.004H26.3598C25.9598 247.004 25.6848 246.979 25.5098 246.729C24.9848 245.679 24.4348 244.654 23.9098 243.604C23.3848 242.579 22.8098 241.529 22.2098 240.454C21.6098 239.379 21.0098 238.304 20.4098 237.204H20.3598C19.8348 238.279 19.2598 239.354 18.6848 240.429C18.1098 241.504 17.5348 242.579 16.9848 243.629C16.4098 244.679 15.8348 245.754 15.2598 246.779C15.1598 247.029 14.9598 247.054 14.6848 247.054H9.18485C9.0848 247.054 9.0098 247.104 9.0098 246.979C8.98482 246.879 9.0098 246.779 9.05982 246.704L16.8348 233.954L9.25985 221.129C9.18485 221.029 9.1598 220.929 9.20982 220.879C9.25985 220.804 9.35982 220.779 9.4598 220.779H15.1348C15.2598 220.779 15.3848 220.804 15.4848 220.829C15.5848 220.879 15.6598 220.954 15.7348 221.054C16.2098 222.129 16.7598 223.204 17.3348 224.279C17.9348 225.354 18.5098 226.404 19.1348 227.454C19.7348 228.504 20.2848 229.554 20.8098 230.629H20.8598C21.3848 229.529 21.9348 228.454 22.4848 227.404C23.0348 226.354 23.6098 225.304 24.1848 224.254C24.7598 223.204 25.3098 222.129 25.8598 221.104C25.8848 221.004 25.9348 220.904 26.0098 220.854C26.1098 220.804 26.2098 220.779 26.3348 220.804H31.6098C31.7348 220.779 31.8598 220.854 31.8848 220.979C31.9098 221.004 31.8598 221.104 31.8098 221.154ZM43.3598 247.529C41.5098 247.554 39.6598 247.179 37.9848 246.404C36.4098 245.679 35.1098 244.479 34.2098 243.004C33.2848 241.479 32.8348 239.579 32.8348 237.304C32.8098 235.454 33.2848 233.629 34.2098 232.029C35.1598 230.404 36.5348 229.054 38.1848 228.154C39.9348 227.179 42.0348 226.704 44.5098 226.704C44.6348 226.704 44.8098 226.704 45.0348 226.729C45.2598 226.754 45.5098 226.754 45.8098 226.779V218.879C45.8098 218.704 45.8848 218.604 46.0598 218.604H51.1348C51.2598 218.579 51.3598 218.679 51.3848 218.779V242.629C51.3848 243.079 51.4098 243.579 51.4348 244.129C51.4848 244.654 51.5098 245.154 51.5348 245.579C51.5348 245.754 51.4598 245.904 51.2848 245.979C49.9848 246.529 48.6098 246.929 47.2098 247.179C45.9348 247.404 44.6598 247.529 43.3598 247.529ZM45.8098 242.529V231.529C45.5848 231.479 45.3598 231.429 45.1348 231.404C44.8598 231.379 44.5848 231.354 44.3098 231.354C43.3348 231.354 42.3598 231.554 41.4848 232.004C40.6348 232.429 39.9098 233.054 39.3598 233.854C38.8098 234.654 38.5348 235.729 38.5348 237.029C38.5098 237.904 38.6598 238.779 38.9598 239.604C39.2098 240.279 39.5848 240.879 40.0848 241.379C40.5598 241.829 41.1348 242.179 41.7848 242.379C42.4598 242.604 43.1598 242.704 43.8598 242.704C44.2348 242.704 44.5848 242.679 44.9098 242.654C45.2348 242.679 45.5098 242.629 45.8098 242.529Z" fill="#FF61F6"/>
<g clip-path="url(#clip2_1141_43)">
<path d="M63.625 73.7559H102.375C108.25 73.7559 113 78.5059 113 84.3809V121.631C113 127.506 108.25 132.256 102.375 132.256H63.625C57.75 132.256 53 127.506 53 121.631V84.3809C53 78.5059 57.75 73.7559 63.625 73.7559Z" fill="#001E36"/>
<path d="M66.5 114.781V89.0564C66.5 88.8813 66.575 88.7813 66.75 88.7813C67.175 88.7813 67.575 88.7813 68.15 88.7564C68.75 88.7313 69.375 88.7313 70.05 88.7063C70.725 88.6814 71.45 88.6814 72.225 88.6563C73 88.6313 73.75 88.6313 74.5 88.6313C76.55 88.6313 78.25 88.8813 79.65 89.4063C80.9 89.8313 82.05 90.5313 83 91.4564C83.8 92.2563 84.425 93.2313 84.825 94.3064C85.2 95.3564 85.4 96.4313 85.4 97.5563C85.4 99.7064 84.9 101.481 83.9 102.881C82.9 104.281 81.5 105.331 79.875 105.931C78.175 106.556 76.3 106.781 74.25 106.781C73.65 106.781 73.25 106.781 73 106.756C72.75 106.731 72.4 106.731 71.925 106.731V114.756C71.95 114.931 71.825 115.081 71.65 115.106H66.8C66.6 115.106 66.5 115.006 66.5 114.781ZM71.95 93.6063V102.006C72.3 102.031 72.625 102.056 72.925 102.056H74.25C75.225 102.056 76.2 101.906 77.125 101.606C77.925 101.381 78.625 100.906 79.175 100.281C79.7 99.6563 79.95 98.8064 79.95 97.7063C79.975 96.9314 79.775 96.1563 79.375 95.4813C78.95 94.8314 78.35 94.3313 77.625 94.0563C76.7 93.6813 75.7 93.5313 74.675 93.5564C74.025 93.5564 73.45 93.5564 72.975 93.5813C72.475 93.5564 72.125 93.5813 71.95 93.6063ZM101 100.481C100.25 100.081 99.45 99.8063 98.6 99.6314C97.675 99.4313 96.75 99.3063 95.8 99.3063C95.3 99.2813 94.775 99.3563 94.3 99.4814C93.975 99.5564 93.7 99.7313 93.525 99.9813C93.4 100.181 93.325 100.431 93.325 100.656C93.325 100.881 93.425 101.106 93.575 101.306C93.8 101.581 94.1 101.806 94.425 101.981C95 102.281 95.6 102.556 96.2 102.806C97.55 103.256 98.85 103.881 100.05 104.631C100.875 105.156 101.55 105.856 102.025 106.706C102.425 107.506 102.625 108.381 102.6 109.281C102.625 110.456 102.275 111.631 101.625 112.606C100.925 113.606 99.95 114.381 98.825 114.831C97.6 115.356 96.1 115.631 94.3 115.631C93.15 115.631 92.025 115.531 90.9 115.306C90.025 115.156 89.15 114.881 88.35 114.506C88.175 114.406 88.05 114.231 88.075 114.031V109.681C88.075 109.606 88.1 109.506 88.175 109.456C88.25 109.406 88.325 109.431 88.4 109.481C89.375 110.056 90.4 110.456 91.5 110.706C92.45 110.956 93.45 111.081 94.45 111.081C95.4 111.081 96.075 110.956 96.525 110.731C96.925 110.556 97.2 110.131 97.2 109.681C97.2 109.331 97 109.006 96.6 108.681C96.2 108.356 95.375 107.981 94.15 107.506C92.875 107.056 91.7 106.456 90.6 105.706C89.825 105.156 89.175 104.431 88.7 103.581C88.3 102.781 88.1 101.906 88.125 101.031C88.125 99.9563 88.425 98.9313 88.975 98.0063C89.6 97.0064 90.525 96.2063 91.6 95.7063C92.775 95.1063 94.25 94.8314 96.025 94.8314C97.05 94.8314 98.1 94.9064 99.125 95.0564C99.875 95.1563 100.6 95.3564 101.275 95.6313C101.375 95.6564 101.475 95.7563 101.525 95.8563C101.55 95.9564 101.575 96.0563 101.575 96.1563V100.231C101.575 100.331 101.525 100.431 101.45 100.481C101.225 100.531 101.1 100.531 101 100.481Z" fill="#31A8FF"/>
</g>
<g clip-path="url(#clip3_1141_43)">
<path d="M237.561 0H188.439C185.435 0 183 2.43516 183 5.43914V54.5609C183 57.5648 185.435 60 188.439 60H237.561C240.565 60 243 57.5648 243 54.5609V5.43914C243 2.43516 240.565 0 237.561 0Z" fill="#DC395F"/>
<path d="M203.054 18.8778C205.049 18.8778 206.72 17.3145 206.72 15.2656C206.72 13.2181 205.049 11.655 203.054 11.655C201.06 11.655 199.389 13.2181 199.389 15.2656C199.389 17.3142 201.06 18.8778 203.054 18.8778ZM195.454 38.2184C195.239 39.1348 195.131 40.1243 195.131 40.9315C195.131 44.1122 196.856 46.2237 200.521 46.2237C203.561 46.2237 206.025 44.4185 207.8 41.5036L206.716 45.852H212.753L216.203 32.0147C217.065 28.5113 218.736 26.6928 221.27 26.6928C223.264 26.6928 224.504 27.9331 224.504 29.9806C224.504 30.5738 224.45 31.22 224.234 31.921L222.455 38.2812C222.186 39.1976 222.078 40.1145 222.078 40.9763C222.078 43.9957 223.856 46.2043 227.576 46.2043C230.756 46.2043 233.289 44.157 234.691 39.2518L232.319 38.3363C231.133 41.6225 230.109 42.2166 229.301 42.2166C228.492 42.2166 228.061 41.678 228.061 40.6006C228.061 40.1154 228.169 39.5771 228.33 38.9288L230.055 32.7324C230.486 31.2774 230.648 29.9871 230.648 28.8017C230.648 24.1662 227.845 21.747 224.45 21.747C221.27 21.747 218.035 24.6155 216.419 27.6345L217.604 22.2157H208.387L207.094 26.9885H211.406L208.751 37.6198C206.665 42.2553 202.835 42.3305 202.354 42.2229C201.565 42.0448 201.06 41.745 201.06 40.7194C201.06 40.1276 201.168 39.2775 201.437 38.2526L205.48 22.2157H195.239L193.945 26.9885H198.203L195.455 38.2184" fill="white"/>
</g>
<path d="M349.402 74.7944L345 21L397.568 21.1081L392.914 74.7944L371.483 81L349.402 74.7944Z" fill="#1B73BA"/>
<path d="M371.484 75.8035V26.1222L393.132 26.1943L389.272 70.6442L371.484 75.8035Z" fill="#1C88C7"/>
<path d="M387.755 32.4731H354.453L355.355 38.9669H371.158L355.608 45.6419L356.51 51.9195H379.421L378.59 60.6866L370.833 62.2022L363.798 60.3983L363.257 55.4191H356.798L357.664 65.7742L371.519 69.6346L384.796 65.4135L386.492 45.1725H372.457L387.754 38.8228L387.755 32.4731Z" fill="white"/>
<path d="M486.313 115.843C482.474 121.37 482.682 128.77 485.677 134.616C486.179 135.598 486.746 136.546 487.376 137.452C487.951 138.276 488.589 139.258 489.353 139.921C489.63 140.226 489.919 140.523 490.215 140.816C490.289 140.892 490.366 140.965 490.441 141.04C490.728 141.318 491.02 141.593 491.322 141.858C491.335 141.868 491.345 141.88 491.357 141.89C491.361 141.893 491.364 141.894 491.366 141.898C491.7 142.19 492.044 142.472 492.395 142.748C492.472 142.808 492.549 142.869 492.628 142.931C492.978 143.2 493.336 143.464 493.703 143.716C493.715 143.724 493.723 143.732 493.734 143.74C493.896 143.852 494.061 143.956 494.226 144.064C494.304 144.115 494.378 144.169 494.458 144.217C494.72 144.385 494.985 144.549 495.255 144.706C495.294 144.729 495.33 144.749 495.368 144.771C495.6 144.905 495.836 145.037 496.072 145.165C496.155 145.211 496.239 145.252 496.323 145.295C496.486 145.382 496.65 145.468 496.816 145.55C496.841 145.563 496.866 145.574 496.89 145.585C497.229 145.752 497.569 145.912 497.918 146.064C497.992 146.097 498.07 146.126 498.145 146.157C498.424 146.275 498.705 146.391 498.988 146.499C499.107 146.544 499.229 146.588 499.348 146.632C499.605 146.727 499.863 146.814 500.122 146.901C500.24 146.939 500.355 146.977 500.472 147.013C500.841 147.128 501.206 147.273 501.591 147.337C521.418 150.622 525.996 135.353 525.996 135.353C521.869 141.297 513.879 144.133 505.352 141.919C504.861 141.79 504.374 141.646 503.892 141.485C503.509 141.361 503.128 141.227 502.752 141.082C502.468 140.973 502.186 140.86 501.907 140.741C501.831 140.709 501.754 140.679 501.679 140.645C501.331 140.493 500.986 140.333 500.645 140.165C500.47 140.079 500.298 139.988 500.127 139.9L499.827 139.746C499.606 139.626 499.388 139.503 499.171 139.375C499.119 139.346 499.066 139.318 499.014 139.287C498.745 139.13 498.481 138.969 498.219 138.802C498.138 138.75 498.061 138.694 497.98 138.641C497.807 138.53 497.635 138.416 497.464 138.3C497.101 138.048 496.744 137.786 496.393 137.517C496.312 137.453 496.231 137.391 496.151 137.327C492.419 134.379 489.46 130.351 488.054 125.784C486.579 121.047 486.897 115.729 489.451 111.414" fill="#0868AC"/>
<path d="M469.957 123.021C464.688 130.627 464.974 140.811 469.084 148.856C469.772 150.208 470.551 151.512 471.415 152.759C472.204 153.893 473.079 155.244 474.127 156.157C474.507 156.577 474.904 156.986 475.31 157.389C475.412 157.494 475.517 157.594 475.621 157.697C476.014 158.08 476.415 158.457 476.829 158.823C476.846 158.836 476.861 158.853 476.878 158.866L476.89 158.877C477.347 159.28 477.82 159.667 478.301 160.048C478.408 160.13 478.513 160.215 478.621 160.299C479.102 160.669 479.593 161.033 480.096 161.38C480.112 161.391 480.124 161.401 480.139 161.413C480.361 161.567 480.588 161.71 480.813 161.858C480.921 161.928 481.023 162.003 481.132 162.07C481.492 162.301 481.855 162.526 482.226 162.742C482.279 162.774 482.329 162.802 482.381 162.832C482.7 163.017 483.023 163.198 483.347 163.373C483.461 163.438 483.576 163.494 483.692 163.553C483.916 163.672 484.14 163.791 484.367 163.904C484.402 163.922 484.437 163.937 484.47 163.951C484.934 164.181 485.402 164.402 485.88 164.611C485.982 164.656 486.088 164.697 486.191 164.739C486.574 164.902 486.959 165.06 487.347 165.21C487.512 165.272 487.679 165.333 487.842 165.392C488.194 165.523 488.548 165.643 488.904 165.763C489.066 165.815 489.223 165.867 489.385 165.917C489.891 166.075 490.392 166.274 490.92 166.363C518.126 170.884 524.407 149.87 524.407 149.87C518.744 158.051 507.78 161.954 496.081 158.907C495.407 158.729 494.739 158.53 494.077 158.31C493.551 158.139 493.029 157.954 492.513 157.755C492.123 157.605 491.736 157.449 491.353 157.286C491.249 157.241 491.143 157.2 491.041 157.153C490.562 156.944 490.089 156.723 489.622 156.492C489.381 156.374 489.145 156.25 488.91 156.128L488.499 155.916C488.197 155.751 487.896 155.581 487.599 155.406C487.528 155.366 487.455 155.327 487.383 155.284C487.015 155.068 486.652 154.846 486.293 154.616C486.182 154.545 486.076 154.469 485.964 154.396C485.727 154.242 485.492 154.086 485.257 153.927C484.759 153.579 484.269 153.219 483.787 152.848C483.676 152.76 483.565 152.675 483.456 152.587C478.334 148.53 474.275 142.987 472.345 136.701C470.322 130.182 470.758 122.863 474.263 116.925" fill="#0868AC"/>
<path d="M500.032 110.048C497.774 113.851 497.896 118.943 499.658 122.965C499.953 123.642 500.286 124.294 500.656 124.917C500.995 125.484 501.37 126.16 501.819 126.616C501.982 126.826 502.152 127.031 502.326 127.232C502.37 127.284 502.415 127.334 502.459 127.386C502.628 127.578 502.799 127.766 502.977 127.949C502.984 127.956 502.991 127.964 502.998 127.971L503.003 127.976C503.199 128.177 503.402 128.371 503.608 128.562C503.654 128.602 503.698 128.645 503.745 128.687C503.951 128.872 504.161 129.054 504.377 129.228L504.396 129.244C504.491 129.321 504.588 129.393 504.684 129.467C504.731 129.502 504.774 129.539 504.821 129.572C504.975 129.688 505.131 129.801 505.29 129.909C505.313 129.925 505.334 129.939 505.356 129.954C505.493 130.046 505.632 130.137 505.771 130.224C505.819 130.256 505.868 130.285 505.918 130.314C506.014 130.374 506.11 130.433 506.208 130.49C506.222 130.498 506.237 130.506 506.252 130.513C506.45 130.628 506.651 130.739 506.856 130.843C506.9 130.866 506.945 130.886 506.989 130.907C507.153 130.989 507.318 131.068 507.485 131.143C507.555 131.174 507.627 131.204 507.697 131.234C507.848 131.299 508 131.359 508.152 131.419C508.221 131.445 508.289 131.471 508.358 131.496C508.575 131.575 508.79 131.675 509.016 131.719C520.675 133.98 523.367 123.473 523.367 123.473C520.941 127.563 516.242 129.514 511.228 127.991C510.939 127.902 510.653 127.803 510.369 127.692C510.143 127.607 509.92 127.515 509.698 127.415C509.532 127.34 509.366 127.262 509.201 127.18C509.157 127.158 509.111 127.137 509.068 127.114C508.863 127.01 508.66 126.899 508.46 126.784C508.357 126.725 508.255 126.662 508.155 126.602L507.979 126.496C507.849 126.413 507.72 126.328 507.593 126.241C507.562 126.221 507.531 126.201 507.5 126.18C507.342 126.072 507.187 125.961 507.033 125.846C506.985 125.81 506.94 125.772 506.892 125.736C506.79 125.659 506.689 125.581 506.589 125.501C506.375 125.327 506.165 125.147 505.959 124.962C505.911 124.918 505.864 124.875 505.817 124.831C503.622 122.803 501.882 120.031 501.055 116.888C500.188 113.628 500.375 109.969 501.877 107" fill="#0868AC"/>
<path d="M538.375 324.007C538.375 319.544 532.785 315.314 524.216 312.691C526.193 303.957 525.315 297.008 521.442 294.783C520.549 294.261 519.505 294.014 518.365 294.014V297.076C518.997 297.076 519.505 297.2 519.931 297.433C521.799 298.505 522.609 302.583 521.977 307.829C521.826 309.12 521.579 310.48 521.277 311.867C518.585 311.208 515.646 310.699 512.556 310.37C510.702 307.829 508.78 305.522 506.843 303.503C511.32 299.342 515.523 297.062 518.379 297.062V294C514.603 294 509.659 296.692 504.66 301.361C499.661 296.719 494.717 294.055 490.94 294.055V297.117C493.783 297.117 497.999 299.383 502.476 303.517C500.554 305.536 498.631 307.829 496.804 310.37C493.701 310.699 490.762 311.208 488.07 311.88C487.754 310.507 487.521 309.175 487.356 307.898C486.711 302.652 487.507 298.573 489.361 297.488C489.773 297.241 490.309 297.131 490.94 297.131V294.069C489.787 294.069 488.743 294.316 487.837 294.838C483.978 297.062 483.113 303.998 485.104 312.704C476.562 315.341 471 319.557 471 324.007C471 328.47 476.589 332.7 485.159 335.323C483.181 344.057 484.06 351.006 487.933 353.231C488.826 353.753 489.869 354 491.023 354C494.8 354 499.743 351.308 504.742 346.639C509.741 351.281 514.685 353.945 518.462 353.945C519.615 353.945 520.659 353.698 521.565 353.176C525.424 350.951 526.29 344.016 524.298 335.309C532.813 332.686 538.375 328.456 538.375 324.007ZM520.494 314.847C519.986 316.618 519.354 318.445 518.64 320.271C518.077 319.173 517.487 318.074 516.841 316.976C516.209 315.877 515.537 314.806 514.864 313.762C516.814 314.05 518.695 314.407 520.494 314.847ZM514.204 329.473C513.133 331.327 512.035 333.084 510.895 334.719C508.848 334.897 506.775 334.993 504.687 334.993C502.614 334.993 500.54 334.897 498.507 334.732C497.368 333.098 496.255 331.354 495.184 329.514C494.14 327.715 493.193 325.888 492.328 324.048C493.179 322.208 494.14 320.368 495.17 318.569C496.241 316.715 497.34 314.957 498.48 313.322C500.526 313.144 502.6 313.048 504.687 313.048C506.761 313.048 508.835 313.144 510.867 313.309C512.007 314.943 513.119 316.687 514.191 318.527C515.234 320.326 516.182 322.153 517.047 323.993C516.182 325.833 515.234 327.674 514.204 329.473ZM518.64 327.687C519.382 329.528 520.013 331.368 520.535 333.153C518.736 333.593 516.841 333.963 514.877 334.252C515.55 333.194 516.223 332.109 516.855 330.997C517.487 329.898 518.077 328.786 518.64 327.687ZM504.715 342.341C503.438 341.022 502.16 339.553 500.897 337.946C502.133 338.001 503.396 338.042 504.674 338.042C505.965 338.042 507.242 338.015 508.491 337.946C507.255 339.553 505.978 341.022 504.715 342.341ZM494.497 334.252C492.547 333.963 490.666 333.606 488.867 333.167C489.375 331.395 490.007 329.569 490.721 327.742C491.284 328.841 491.874 329.94 492.52 331.038C493.165 332.137 493.824 333.208 494.497 334.252ZM504.646 305.673C505.923 306.992 507.2 308.461 508.464 310.068C507.228 310.013 505.965 309.972 504.687 309.972C503.396 309.972 502.119 309.999 500.87 310.068C502.106 308.461 503.383 306.992 504.646 305.673ZM494.484 313.762C493.811 314.819 493.138 315.904 492.506 317.017C491.874 318.115 491.284 319.214 490.721 320.313C489.979 318.472 489.347 316.632 488.826 314.847C490.625 314.421 492.52 314.05 494.484 313.762ZM482.055 330.956C477.194 328.882 474.049 326.163 474.049 324.007C474.049 321.851 477.194 319.118 482.055 317.058C483.236 316.55 484.527 316.097 485.859 315.671C486.642 318.363 487.672 321.164 488.949 324.034C487.686 326.891 486.669 329.679 485.9 332.357C484.541 331.931 483.25 331.464 482.055 330.956ZM489.444 350.58C487.576 349.509 486.766 345.431 487.397 340.184C487.548 338.894 487.796 337.534 488.098 336.147C490.789 336.806 493.728 337.314 496.818 337.644C498.672 340.184 500.595 342.492 502.531 344.51C498.054 348.672 493.852 350.951 490.995 350.951C490.377 350.937 489.856 350.814 489.444 350.58ZM522.019 340.116C522.664 345.362 521.867 349.441 520.013 350.525C519.601 350.773 519.066 350.883 518.434 350.883C515.591 350.883 511.375 348.617 506.898 344.483C508.821 342.464 510.744 340.171 512.57 337.63C515.674 337.301 518.613 336.792 521.304 336.119C521.62 337.507 521.867 338.839 522.019 340.116ZM527.306 330.956C526.125 331.464 524.834 331.917 523.502 332.343C522.719 329.651 521.689 326.85 520.412 323.979C521.675 321.123 522.691 318.335 523.461 315.657C524.82 316.083 526.111 316.55 527.319 317.058C532.181 319.132 535.326 321.851 535.326 324.007C535.312 326.163 532.167 328.896 527.306 330.956Z" fill="#61DAFB"/>
<path d="M504.674 330.283C508.14 330.283 510.95 327.473 510.95 324.007C510.95 320.541 508.14 317.731 504.674 317.731C501.207 317.731 498.398 320.541 498.398 324.007C498.398 327.473 501.207 330.283 504.674 330.283Z" fill="#61DAFB"/>
</g>
<defs>
<clipPath id="clip0_1141_43">
<rect width="550" height="550" fill="white"/>
</clipPath>
<clipPath id="clip1_1141_43">
<rect width="57.1826" height="60" fill="white" transform="translate(137 219)"/>
</clipPath>
<clipPath id="clip2_1141_43">
<rect width="60" height="60" fill="white" transform="translate(53 73)"/>
</clipPath>
<clipPath id="clip3_1141_43">
<rect width="60" height="60" fill="white" transform="translate(183)"/>
</clipPath>
</defs>
</svg>
