<svg width="800" height="520" viewBox="0 0 800 520" fill="none" xmlns="http://www.w3.org/2000/svg">
<style>
.zoom{animation:zoom 5s infinite;-webkit-animation:zoom 5s infinite;-moz-animation:zoom 5s infinite;-o-animation:zoom 5s infinite;-webkit-transform-origin:center;-ms-transform-origin:center;transform-origin:center;transform-box:fill-box}-webkit-keyframes zoom{0%{-webkit-transform:scale(1)}50%{-webkit-transform:scale(1.1)}100%{-webkit-transform:scale(1)}}@-webkit-keyframes zoom{0%{-webkit-transform:scale(1);transform:scale(1)}50%{-webkit-transform:scale(1.1);transform:scale(1.1)}100%{-webkit-transform:scale(1);transform:scale(1)}}@keyframes zoom{0%{-webkit-transform:scale(1);transform:scale(1)}50%{-webkit-transform:scale(1.1);transform:scale(1.1)}100%{-webkit-transform:scale(1);transform:scale(1)}}.stroke_1{-webkit-animation:stroke_1 100s infinite linear;animation:stroke_1 100s infinite linear}@-webkit-keyframes stroke_1{100%{stroke-dashoffset:1000}}.vector-1{-webkit-animation:vector_1 5s infinite linear;animation:vector_1 5s infinite linear;-webkit-transform-origin:center;-ms-transform-origin:center;transform-origin:center;transform-box:fill-box}@-webkit-keyframes vector_1{25%{-webkit-transform:translate(-5px,10px);transform:translate(-5px,10px)}50%{-webkit-transform:translate(-10px,20px);transform:translate(-10px,20px)}75%{-webkit-transform:translate(-5px,10px);transform:translate(-5px,10px)}100%{-webkit-transform:translate(0,0);transform:translate(0,0)}}@keyframes vector_1{25%{-webkit-transform:translate(-5px,10px);transform:translate(-5px,10px)}50%{-webkit-transform:translate(-10px,20px);transform:translate(-10px,20px)}75%{-webkit-transform:translate(-5px,10px);transform:translate(-5px,10px)}100%{-webkit-transform:translate(0,0);transform:translate(0,0)}}.vector-2{-webkit-animation:vector_2 5s infinite linear;animation:vector_2 5s infinite linear;-webkit-transform-origin:center;-ms-transform-origin:center;transform-origin:center;transform-box:fill-box}@-webkit-keyframes vector_2{25%{-webkit-transform:translate(-5px,-10px);transform:translate(-5px,-10px)}50%{-webkit-transform:translate(-10px,-20px);transform:translate(-10px,-20px)}75%{-webkit-transform:translate(-5px,-10px);transform:translate(-5px,-10px)}100%{-webkit-transform:translate(0,0);transform:translate(0,0)}}@keyframes vector_2{25%{-webkit-transform:translate(-5px,-10px);transform:translate(-5px,-10px)}50%{-webkit-transform:translate(-10px,-20px);transform:translate(-10px,-20px)}75%{-webkit-transform:translate(-5px,-10px);transform:translate(-5px,-10px)}100%{-webkit-transform:translate(0,0);transform:translate(0,0)}}.vector-3{-webkit-animation:vector_3 5s infinite linear;animation:vector_3 5s infinite linear;-webkit-transform-origin:center;-ms-transform-origin:center;transform-origin:center;transform-box:fill-box}@-webkit-keyframes vector_3{25%{-webkit-transform:translate(-5px,10px);transform:translate(-5px,10px)}50%{-webkit-transform:translate(-10px,20px);transform:translate(-10px,20px)}75%{-webkit-transform:translate(-5px,10px);transform:translate(-5px,10px)}100%{-webkit-transform:translate(0,0);transform:translate(0,0)}}@keyframes vector_3{25%{-webkit-transform:translate(-5px,10px);transform:translate(-5px,10px)}50%{-webkit-transform:translate(-10px,20px);transform:translate(-10px,20px)}75%{-webkit-transform:translate(-5px,10px);transform:translate(-5px,10px)}100%{-webkit-transform:translate(0,0);transform:translate(0,0)}}.vector-4{-webkit-animation:vector_4 5s infinite linear;animation:vector_4 5s infinite linear;-webkit-transform-origin:center;-ms-transform-origin:center;transform-origin:center;transform-box:fill-box}@-webkit-keyframes vector_4{25%{-webkit-transform:translate(5px,-10px);transform:translate(5px,-10px)}50%{-webkit-transform:translate(10px,-20px);transform:translate(10px,-20px)}75%{-webkit-transform:translate(5px,-10px);transform:translate(5px,-10px)}100%{-webkit-transform:translate(0,0);transform:translate(0,0)}}@keyframes vector_4{25%{-webkit-transform:translate(5px,-10px);transform:translate(5px,-10px)}50%{-webkit-transform:translate(10px,-20px);transform:translate(10px,-20px)}75%{-webkit-transform:translate(5px,-10px);transform:translate(5px,-10px)}100%{-webkit-transform:translate(0,0);transform:translate(0,0)}}.eyes{-webkit-animation:rotate_Z 5s infinite linear;animation:rotate_Z 5s infinite linear;-webkit-transform-origin:center;-ms-transform-origin:center;transform-origin:center;transform-box:fill-box}@-webkit-keyframes rotate_Z{0%{-webkit-transform:rotateZ(0deg);transform:rotateZ(0deg)}25%{-webkit-transform:rotateZ(-20deg);transform:rotateZ(-20deg)}50%{-webkit-transform:rotateZ(0deg);transform:rotateZ(0deg)}75%{-webkit-transform:rotateZ(20deg);transform:rotateZ(20deg)}100%{-webkit-transform:rotateZ(0deg);transform:rotateZ(0deg)}}
</style>
<g clip-path="url(#clip0_1286_5606)">
<rect width="800" height="520" fill="#ECECEC"/>
<path fill-rule="evenodd" clip-rule="evenodd" d="M20 45C20 45 20.0508 33.2859 20.0508 32.5H20.0373C20.0373 30.0276 20.7705 27.6107 22.1441 25.555C23.5178 23.4993 25.4702 21.8972 27.7545 20.9512C30.0388 20.0052 32.5523 19.7578 34.9771 20.2404C37.402 20.723 39.6293 21.9139 41.3773 23.6624C43.1253 25.4109 44.3155 27.6385 44.7975 30.0635C44.8715 30.4362 44.9284 30.811 44.9681 31.1867L32.0312 31.2431L32.0425 33.8176L44.9735 33.7612C44.8512 34.9666 44.5537 36.1544 44.0848 37.2859C43.1382 39.5699 41.5355 41.5219 39.4794 42.895C37.4234 44.2681 35.0063 45.0007 32.5339 45H20ZM45.0299 32.9283C45.0409 32.6068 45.0396 32.2846 45.0257 31.9626L45.0299 32.9283Z" fill="#0693E3"/>
<path fill-rule="evenodd" clip-rule="evenodd" d="M360 492.062C360 492.062 360.893 286.201 360.893 272.39H360.655C360.655 228.94 373.54 186.466 397.68 150.34C421.821 114.214 456.133 86.0578 496.276 69.4331C536.419 52.8083 580.591 48.4615 623.205 56.9424C665.819 65.4234 704.961 86.3512 735.68 117.079C766.4 147.807 787.317 186.954 795.786 229.57C797.088 236.12 798.087 242.707 798.784 249.31L571.435 250.302L571.632 295.546L798.879 294.554C796.73 315.738 791.502 336.612 783.261 356.496C766.626 396.635 738.46 430.939 702.328 455.07C666.195 479.2 623.718 492.074 580.268 492.062H360ZM799.871 279.922C800.065 274.268 800.041 268.603 799.797 262.939L799.871 279.922Z" fill="#FEE13E"/>
<path d="M53.4453 26.7751H55.8403V38.2318H53.4453V26.7751Z" fill="black"/>
<path d="M57.5469 29.7221H59.8673V31.1177H59.9148C60.3517 30.1421 61.2257 29.5459 62.5096 29.5459C64.3829 29.5459 65.4466 30.7451 65.4466 32.737V38.2315H63.1295V33.2146C63.1295 32.1035 62.6045 31.4666 61.5645 31.4666C60.5245 31.4666 59.8707 32.2288 59.8707 33.3399V38.2315H57.5503L57.5469 29.7221Z" fill="black"/>
<path d="M66.7578 32.5002C66.7578 28.8078 68.8716 26.5856 72.2117 26.5856C74.9929 26.5856 76.9848 28.3369 77.2084 30.7692V30.8403H74.8743L74.8405 30.7048C74.7349 30.0937 74.4077 29.5429 73.9214 29.1579C73.4352 28.7729 72.824 28.5807 72.205 28.6181C70.3723 28.6181 69.1968 30.0917 69.1968 32.49C69.1968 34.902 70.3723 36.3959 72.205 36.3959C72.8344 36.4236 73.4522 36.2202 73.942 35.824C74.4318 35.4278 74.7598 34.8661 74.8642 34.2448L74.8811 34.1635H77.2151V34.2516C76.9916 36.6872 74.9827 38.4284 72.2117 38.4284C68.8615 38.4318 66.7578 36.1926 66.7578 32.5002Z" fill="black"/>
<path d="M78.5156 29.7221H80.8327V31.2058H80.8801C81.1342 30.1591 81.8252 29.5459 82.8178 29.5459C83.0465 29.5457 83.2742 29.5753 83.4953 29.634V31.6665C83.2236 31.5759 82.9381 31.5335 82.6518 31.5412C81.5102 31.5412 80.8429 32.2187 80.8429 33.4619V38.2248H78.5258L78.5156 29.7221Z" fill="black"/>
<path d="M83.8281 33.9939C83.8281 31.2839 85.4236 29.5563 87.9169 29.5563C90.4101 29.5563 91.9819 31.25 91.9819 33.8212V34.536H86.1215C86.1452 35.891 86.8837 36.687 88.0659 36.687C89.0212 36.687 89.6005 36.162 89.7597 35.6708L89.7766 35.6233H91.904L91.8803 35.7114C91.6161 36.9648 90.444 38.4214 88.0117 38.4214C85.4101 38.4079 83.8281 36.7141 83.8281 33.9939ZM86.1384 33.0624H89.7529C89.6073 31.8869 88.9196 31.2771 87.9575 31.2771C86.9955 31.2771 86.2909 31.9275 86.1384 33.0624Z" fill="black"/>
<path d="M92.8438 35.7962C92.8438 34.2481 94.0429 33.3436 96.1568 33.2081L98.2604 33.0794V32.5577C98.2604 31.8023 97.7658 31.3348 96.8614 31.3348C95.9569 31.3348 95.4725 31.7379 95.3607 32.2867V32.3579H93.2401V32.263C93.3688 30.6912 94.717 29.553 96.9664 29.553C99.2157 29.553 100.588 30.6878 100.588 32.4019V38.2386H98.2706V36.9683H98.2231C97.9738 37.4102 97.6078 37.7751 97.1651 38.023C96.7224 38.2709 96.22 38.3924 95.713 38.3741C93.9955 38.364 92.8438 37.2969 92.8438 35.7962ZM96.4582 36.677C97.4982 36.677 98.2604 35.9994 98.2604 35.1187V34.5089L96.5057 34.6207C95.608 34.6749 95.1507 35.0577 95.1507 35.6607C95.1405 36.3043 95.6554 36.6702 96.4582 36.6702V36.677Z" fill="black"/>
<path d="M102.667 35.8502V31.4667H101.484V29.7222H102.667V27.6422H105.007V29.7222H106.566V31.4667H105.007V35.5962C105.007 36.3888 105.366 36.6598 106.064 36.6598C106.232 36.6574 106.4 36.6438 106.566 36.6192V38.3129C106.195 38.3717 105.82 38.4011 105.444 38.401C103.544 38.4078 102.667 37.6863 102.667 35.8502Z" fill="black"/>
<path d="M107.813 27.4187C107.806 27.172 107.873 26.9289 108.005 26.7206C108.138 26.5122 108.329 26.348 108.555 26.2491C108.781 26.1501 109.032 26.1209 109.274 26.1651C109.517 26.2093 109.741 26.325 109.918 26.4973C110.095 26.6696 110.216 26.8907 110.266 27.1323C110.316 27.3739 110.293 27.625 110.2 27.8535C110.107 28.082 109.948 28.2774 109.743 28.4148C109.538 28.5522 109.296 28.6253 109.049 28.6247C108.889 28.6274 108.729 28.5982 108.58 28.539C108.431 28.4797 108.295 28.3915 108.18 28.2793C108.065 28.1672 107.973 28.0334 107.91 27.8857C107.847 27.738 107.814 27.5793 107.813 27.4187ZM107.891 29.7222H110.208V38.2317H107.891V29.7222Z" fill="black"/>
<path d="M111.055 29.7223H113.534L115.313 36.1823H115.36L117.115 29.7223H119.534L116.614 38.2318H114.002L111.055 29.7223Z" fill="black"/>
<path d="M119.758 33.9939C119.758 31.2839 121.353 29.5563 123.847 29.5563C126.34 29.5563 127.912 31.25 127.912 33.8212V34.536H122.051C122.075 35.891 122.813 36.687 123.999 36.687C124.951 36.687 125.53 36.162 125.693 35.6708L125.71 35.6233H127.837L127.813 35.7114C127.553 36.9648 126.377 38.4214 123.945 38.4214C121.34 38.4079 119.758 36.7141 119.758 33.9939ZM122.068 33.0624H125.683C125.54 31.8869 124.849 31.2771 123.887 31.2771C122.925 31.2771 122.221 31.9275 122.068 33.0624Z" fill="black"/>
<path d="M128.672 26.7751H129.807L132.341 36.599H132.364L135.142 26.7751H136.229L139.007 36.599H139.031L141.565 26.7751H142.7L139.549 38.2318H138.533L135.698 28.5604H135.674L132.839 38.2318H131.822L128.672 26.7751Z" fill="black"/>
<path d="M142.664 34.126C142.664 31.5379 144.124 29.8306 146.333 29.8306C148.541 29.8306 149.927 31.4837 149.927 33.9532V34.3631H143.728C143.758 36.3346 144.815 37.4525 146.438 37.4525C147.654 37.4525 148.494 36.8428 148.765 35.9451L148.782 35.8739H149.822L149.805 35.9518C149.52 37.3644 148.203 38.3909 146.417 38.3909C144.1 38.3841 142.664 36.7411 142.664 34.126ZM143.741 33.523H148.873C148.751 31.7208 147.735 30.7621 146.323 30.7621C144.91 30.7621 143.87 31.7682 143.741 33.523Z" fill="black"/>
<path d="M152.487 36.4872H152.463V38.2318H151.406V26.7751H152.463V31.6972H152.487C152.712 31.1353 153.103 30.6551 153.608 30.3205C154.112 29.986 154.707 29.8127 155.312 29.8239C157.378 29.8239 158.798 31.5177 158.798 34.0956C158.798 36.6769 157.385 38.3774 155.305 38.3774C154.698 38.3888 154.103 38.2136 153.599 37.8756C153.095 37.5376 152.707 37.0529 152.487 36.4872ZM157.717 34.1159C157.717 32.0834 156.701 30.7826 155.105 30.7826C153.567 30.7826 152.456 32.1376 152.456 34.1159C152.456 36.1112 153.551 37.4594 155.105 37.4594C156.66 37.4594 157.717 36.1451 157.717 34.1024V34.1159Z" fill="black"/>
<path d="M109.068 28.7127C109.766 28.7127 110.332 28.1469 110.332 27.4491C110.332 26.7513 109.766 26.1855 109.068 26.1855C108.37 26.1855 107.805 26.7513 107.805 27.4491C107.805 28.1469 108.37 28.7127 109.068 28.7127Z" fill="#308FCE"/>
<path fill-rule="evenodd" clip-rule="evenodd" d="M108.692 25.8198C108.041 25.8198 107.513 26.3476 107.513 26.9986C107.513 27.6497 108.041 28.1775 108.692 28.1775C109.343 28.1775 109.871 27.6497 109.871 26.9986C109.871 26.3476 109.343 25.8198 108.692 25.8198ZM107.344 26.9986C107.344 26.254 107.947 25.6504 108.692 25.6504C109.437 25.6504 110.04 26.254 110.04 26.9986C110.04 27.7433 109.437 28.3469 108.692 28.3469C107.947 28.3469 107.344 27.7433 107.344 26.9986Z" fill="#FCE13F"/>
<path d="M157.617 28.0353C158.717 28.0353 159.609 27.1435 159.609 26.0434C159.609 24.9433 158.717 24.0515 157.617 24.0515C156.517 24.0515 155.625 24.9433 155.625 26.0434C155.625 27.1435 156.517 28.0353 157.617 28.0353Z" fill="#FEE500"/>
<path d="M156.768 25.7283H156.398V25.5115H157.384V25.7283H157.022V26.7649H156.761L156.768 25.7283Z" fill="#231F20"/>
<path d="M157.531 25.5115H157.836L158.192 26.4125L158.548 25.5115H158.852V26.7649H158.619V25.9146L158.28 26.7649H158.114L157.775 25.9146V26.7649H157.541L157.531 25.5115Z" fill="#231F20"/>
<path d="M746.859 510.945L741.067 485.777L765.073 492.636L746.859 510.945Z" fill="#FEE13E"/>
<g class="vector-1">
<path d="M337.874 361.794L303.936 351.374L307.73 386.09L337.874 361.794Z" stroke="#FEE13E" stroke-width="3"/>
</g>
<g class="vector-2">
<path d="M98.1247 63.0094C97.9136 63.4501 97.6244 63.7368 97.1459 63.9952C96.3189 64.4433 94.8722 64.6333 93.1605 64.5965C90.5871 64.5593 87.4804 64.0929 84.7067 64.0876C83.3163 64.0898 81.996 64.1991 80.8065 64.6098C80.2124 64.8168 79.65 65.1039 79.1558 65.5077C78.6615 65.9089 78.2446 66.4297 77.9598 67.0423C77.5174 67.9782 77.4569 68.9998 77.6643 69.9285C78.0324 71.5642 79.0668 72.998 80.2829 74.4174C82.1179 76.5332 84.4637 78.6147 86.0756 80.5454C86.8819 81.5031 87.4918 82.42 87.7797 83.1904C87.9249 83.5755 87.9944 83.9187 87.9973 84.223C88.0002 84.5299 87.945 84.8019 87.8094 85.095C87.5978 85.5368 87.3085 85.8235 86.8306 86.0808C86.0031 86.53 84.5563 86.7201 82.8441 86.6843C80.2713 86.6461 77.1645 86.1796 74.3904 86.1753C73 86.1775 71.6792 86.2879 70.4897 86.6987C69.896 86.9045 69.3331 87.1927 68.839 87.5965C68.3447 87.9977 67.9278 88.5185 67.643 89.1311C67.2006 90.0671 67.14 91.0887 67.3469 92.0184C67.7151 93.6541 68.7479 95.0884 69.9646 96.5094C71.7985 98.6247 74.1454 100.707 75.7568 102.639C76.5626 103.597 77.1725 104.514 77.4603 105.285C77.6056 105.67 77.674 106.012 77.6779 106.317C77.6808 106.624 77.6256 106.896 77.4895 107.19C77.2779 107.632 76.9887 107.919 76.5102 108.177C75.6827 108.626 74.236 108.816 72.5243 108.78C69.9509 108.742 66.8442 108.276 64.0705 108.271C62.6796 108.274 61.3593 108.383 60.1698 108.794C59.5757 109.001 59.0128 109.289 58.5191 109.692C58.0249 110.093 57.6079 110.614 57.3226 111.227C56.8803 112.163 56.8197 113.185 57.0266 114.115C57.3942 115.752 58.4276 117.185 59.6437 118.607C61.4776 120.722 63.8229 122.805 65.4344 124.737C66.2412 125.696 66.8511 126.613 67.139 127.383C67.2842 127.768 67.3527 128.111 67.3561 128.417C67.359 128.724 67.3033 128.997 67.1672 129.291C66.9556 129.733 66.6658 130.02 66.1878 130.278C65.3599 130.728 63.9131 130.918 62.201 130.882C59.6271 130.846 56.5203 130.38 53.7462 130.376C52.3542 130.378 51.0345 130.489 49.8439 130.899C49.2508 131.107 48.6879 131.395 48.1938 131.799C47.699 132.201 47.2821 132.722 46.9973 133.335L49.1412 134.336C49.3538 133.895 49.6436 133.607 50.1216 133.35C50.9495 132.899 52.3963 132.709 54.1085 132.745C56.6824 132.781 59.7891 133.248 62.5633 133.252C63.9542 133.249 65.275 133.138 66.4645 132.727C67.0586 132.52 67.6215 132.232 68.1157 131.828C68.6099 131.427 69.0273 130.905 69.3111 130.292C69.7545 129.357 69.8151 128.335 69.6082 127.406C69.2406 125.769 68.2077 124.334 66.991 122.913C65.1566 120.797 62.8108 118.715 61.1993 116.783C60.3936 115.824 59.7837 114.908 59.4958 114.137C59.3505 113.752 59.2815 113.408 59.2787 113.103C59.2758 112.797 59.3315 112.524 59.4665 112.229C59.6792 111.788 59.9685 111.501 60.4464 111.244C61.2739 110.794 62.7207 110.604 64.4329 110.64C67.0062 110.677 70.113 111.144 72.8856 111.149C74.277 111.147 75.5978 111.036 76.7873 110.626C77.381 110.42 77.9439 110.132 78.438 109.728C78.9323 109.327 79.3492 108.806 79.6334 108.192C80.0764 107.257 80.137 106.236 79.9301 105.306C79.5624 103.669 78.528 102.235 77.3124 100.815C75.4775 98.6991 73.1316 96.6175 71.5202 94.6858C70.7133 93.7265 70.1045 92.8102 69.8167 92.0398C69.6703 91.6541 69.6019 91.3114 69.598 91.0066C69.5961 90.7002 69.6519 90.4272 69.7869 90.1325C69.999 89.6922 70.2883 89.4056 70.7668 89.1472C71.5943 88.6979 73.041 88.508 74.7527 88.5448C77.3261 88.582 80.4318 89.0479 83.2054 89.0532C84.5969 89.0515 85.9177 88.9411 87.1072 88.5304C87.7013 88.3234 88.2642 88.0353 88.7579 87.6326C89.2521 87.2314 89.669 86.7105 89.9533 86.0964C90.3962 85.162 90.4568 84.1404 90.2499 83.2107C89.8813 81.576 88.8469 80.1422 87.6302 78.7213C85.7963 76.606 83.45 74.5255 81.838 72.5948C81.0312 71.6355 80.4213 70.7187 80.134 69.9499C79.9877 69.5642 79.9192 69.2214 79.9153 68.9167C79.9135 68.6103 79.9687 68.3383 80.1037 68.0436C80.3159 67.6034 80.6052 67.3167 81.0831 67.0594C81.9106 66.6102 83.3574 66.4202 85.068 66.4565C87.6414 66.4937 90.7476 66.9612 93.5213 66.9665C94.9127 66.9648 96.2335 66.8544 97.423 66.4437C98.0167 66.2378 98.5796 65.9497 99.0737 65.5459C99.568 65.1447 99.9849 64.6239 100.269 64.0108L98.1247 63.0094Z" fill="#0693E3"/>
</g>
<g class="vector-3">
<path d="M31 390C31 393.866 27.866 397 24 397C20.134 397 17 393.866 17 390C17 386.134 20.134 383 24 383C27.866 383 31 386.134 31 390Z" fill="#0693E3"/>
</g>
<g class="vector-4">
<path d="M744.751 41.9315L737.479 48.0123L731.173 41L723.966 47.026L730.272 54.0383L723 60.1197L729.249 67.0687L736.521 60.9872L742.828 68L750.034 61.9736L743.728 54.9613L751 48.881L744.751 41.9315Z" stroke="#0693E3" stroke-width="1.92504" stroke-miterlimit="10"/>
</g>
<g class="vector-2">
<path d="M100.5 505H77.825C77.1907 505 76.7943 504.345 77.1119 503.822L88.4489 485.107L99.7859 466.393C100.103 465.869 100.896 465.869 101.214 466.393L112.551 485.107L123.889 503.822C124.205 504.345 123.809 505 123.175 505H100.5Z" fill="#0693E3"/>
<path d="M87.9996 512H65.8081C65.1873 512 64.7986 511.346 65.1094 510.822L76.2051 492.108L87.3016 473.393C87.6117 472.869 88.3883 472.869 88.6984 473.393L99.7949 492.108L110.891 510.822C111.201 511.346 110.813 512 110.192 512H87.9996Z" stroke="#100F0D" stroke-width="1.90235" stroke-miterlimit="10"/>
</g>
<g class="vector-3">
<path d="M250.8 199.982L233.982 216.8C233.715 217.067 233.284 217.067 233.018 216.8L216.199 199.982C215.934 199.715 215.934 199.284 216.199 199.018L233.018 182.199C233.284 181.934 233.715 181.934 233.982 182.199L250.8 199.018C251.067 199.284 251.067 199.715 250.8 199.982Z" fill="#FEE13E"/>
</g>
<g class="stroke_1">
<path d="M250.5 420V377H149V315.5M149 158.5V288.5M149 288.5H194.5M149 288.5V315.5M103 315.5H149M305 95.5V209.5M271.5 288.5H305V209.5M305 209.5H349M426.5 209.5H466V66M466 66H366.5M466 66H495" stroke="#0693E3" stroke-dasharray="6 6"/>
</g>
<g class="stroke_1">
<path d="M390.5 250V287H490.5V320.5" stroke="#0693E3" stroke-dasharray="6 6"/>
</g>
<g class="zoom">
    <g filter="url(#filter0_d_1286_5606)">
    <rect x="286" y="31" width="80" height="80" rx="16" fill="white"/>
    </g>
    <path d="M314.51 84.9696H298.149C297.24 84.9696 296.492 84.2248 296.492 83.3124V45.1516C296.492 44.237 297.24 43.493 298.149 43.493H353.848C354.761 43.493 355.506 44.237 355.506 45.1516V83.3124C355.506 84.2248 354.761 84.9696 353.848 84.9696H337.489" fill="#FEE13E"/>
    <path d="M353.848 85.4619H337.49C337.217 85.4619 336.997 85.2412 336.997 84.9697C336.997 84.6974 337.217 84.4767 337.49 84.4767H353.848C354.491 84.4767 355.014 83.9541 355.014 83.3125V45.1517C355.014 44.5085 354.491 43.986 353.848 43.986H298.149C297.508 43.986 296.987 44.5085 296.987 45.1517V83.3125C296.987 83.9541 297.508 84.4767 298.149 84.4767H314.51C314.783 84.4767 315.004 84.6974 315.004 84.9697C315.004 85.2412 314.783 85.4619 314.51 85.4619H298.149C296.964 85.4619 296 84.4979 296 83.3125V45.1517C296 43.9655 296.964 43 298.149 43H353.848C355.035 43 356 43.9655 356 45.1517V83.3125C356 84.4979 355.035 85.4619 353.848 85.4619Z" fill="#100F0D"/>
    <path d="M355.507 52.7975H296.493C296.221 52.7975 296 52.5768 296 52.3045C296 52.0322 296.221 51.8115 296.493 51.8115H355.507C355.779 51.8115 356 52.0322 356 52.3045C356 52.5768 355.779 52.7975 355.507 52.7975Z" fill="#100F0D"/>
    <path d="M300.813 46.1793C299.86 46.1793 299.094 46.9483 299.094 47.8994C299.094 48.8505 299.86 49.618 300.813 49.618C301.761 49.618 302.531 48.8505 302.531 47.8994C302.531 46.9483 301.761 46.1793 300.813 46.1793Z" fill="#F47178"/>
    <path d="M300.814 46.6723C300.137 46.6723 299.588 47.2229 299.588 47.8995C299.588 48.5752 300.137 49.1251 300.814 49.1251C301.489 49.1251 302.039 48.5752 302.039 47.8995C302.039 47.2229 301.489 46.6723 300.814 46.6723ZM300.814 50.1111C299.594 50.1111 298.602 49.119 298.602 47.8995C298.602 46.6791 299.594 45.6864 300.814 45.6864C302.033 45.6864 303.026 46.6791 303.026 47.8995C303.026 49.119 302.033 50.1111 300.814 50.1111Z" fill="#100F0D"/>
    <path d="M307.376 46.1793C306.428 46.1793 305.656 46.9483 305.656 47.8994C305.656 48.8505 306.428 49.618 307.376 49.618C308.325 49.618 309.092 48.8505 309.092 47.8994C309.092 46.9483 308.325 46.1793 307.376 46.1793Z" fill="#FBE663"/>
    <path d="M307.377 46.6723C306.701 46.6723 306.151 47.2229 306.151 47.8995C306.151 48.5752 306.701 49.1251 307.377 49.1251C308.051 49.1251 308.599 48.5752 308.599 47.8995C308.599 47.2229 308.051 46.6723 307.377 46.6723ZM307.377 50.1111C306.158 50.1111 305.164 49.119 305.164 47.8995C305.164 46.6791 306.158 45.6864 307.377 45.6864C308.594 45.6864 309.586 46.6791 309.586 47.8995C309.586 49.119 308.594 50.1111 307.377 50.1111Z" fill="#100F0D"/>
    <path d="M313.937 46.1793C312.986 46.1793 312.219 46.9483 312.219 47.8994C312.219 48.8505 312.986 49.618 313.937 49.618C314.885 49.618 315.657 48.8505 315.657 47.8994C315.657 46.9483 314.885 46.1793 313.937 46.1793Z" fill="#FBE663"/>
    <path d="M313.939 46.6723C313.263 46.6723 312.713 47.2229 312.713 47.8995C312.713 48.5752 313.263 49.1251 313.939 49.1251C314.615 49.1251 315.166 48.5752 315.166 47.8995C315.166 47.2229 314.615 46.6723 313.939 46.6723ZM313.939 50.1111C312.719 50.1111 311.727 49.119 311.727 47.8995C311.727 46.6791 312.719 45.6864 313.939 45.6864C315.159 45.6864 316.152 46.6791 316.152 47.8995C316.152 49.119 315.159 50.1111 313.939 50.1111Z" fill="#100F0D"/>
    <path d="M334.509 76.5577H317.501C315.858 76.5577 314.516 77.9085 314.516 79.5505V90.3802C314.516 94.7784 318.111 98.3779 322.509 98.3779H329.862C334.06 98.3779 337.495 94.9392 337.495 90.7412V79.5505C337.495 77.9085 336.151 76.5577 334.509 76.5577Z" fill="#F47178"/>
    <path d="M317.502 77.0507C316.127 77.0507 315.01 78.1725 315.01 79.5506V90.3803C315.01 94.5183 318.374 97.885 322.51 97.885H329.863C333.8 97.885 337.003 94.6806 337.003 90.7413V79.5506C337.003 78.1725 335.884 77.0507 334.51 77.0507H317.502ZM329.863 98.871H322.51C317.83 98.871 314.023 95.0621 314.023 90.3803V79.5506C314.023 77.6287 315.584 76.0648 317.502 76.0648H334.51C336.428 76.0648 337.989 77.6287 337.989 79.5506V90.7413C337.989 95.2244 334.343 98.871 329.863 98.871Z" fill="#100F0D"/>
    <path d="M318.971 76.0648H333.028V71.2161C333.028 68.5419 330.904 66.3667 328.295 66.3667H323.71C321.097 66.3667 318.971 68.5419 318.971 71.2161V76.0648ZM333.522 77.0508H318.478C318.205 77.0508 317.984 76.8301 317.984 76.5578V71.2161C317.984 67.9981 320.553 65.3807 323.71 65.3807H328.295C331.448 65.3807 334.015 67.9981 334.015 71.2161V76.5578C334.015 76.8301 333.794 77.0508 333.522 77.0508Z" fill="#100F0D"/>
    <path d="M325.734 90.2483H326.278V88.2088C326.278 88.0056 326.403 87.8228 326.592 87.7492C327.201 87.5133 327.593 86.9339 327.593 86.2741C327.593 85.3988 326.88 84.6874 326.003 84.6874C325.128 84.6874 324.416 85.3988 324.416 86.2741C324.416 86.9339 324.809 87.5133 325.418 87.7492C325.609 87.8228 325.734 88.0048 325.734 88.2088V90.2483ZM326.771 91.2343H325.241C324.968 91.2343 324.747 91.0135 324.747 90.7413V88.5221C323.937 88.0754 323.43 87.2267 323.43 86.2741C323.43 84.8558 324.585 83.7015 326.003 83.7015C327.424 83.7015 328.579 84.8558 328.579 86.2741C328.579 87.2259 328.073 88.0746 327.264 88.5213V90.7413C327.264 91.0135 327.044 91.2343 326.771 91.2343Z" fill="#100F0D"/>
</g>
<g class="zoom">
    <g filter="url(#filter1_d_1286_5606)">
    <rect x="209" y="418" width="80" height="80" rx="16" fill="white"/>
    </g>
    <path d="M239.46 469.358H230.854C224.606 469.358 219.492 464.245 219.492 457.998C219.492 452.192 223.903 447.368 229.542 446.712L229.541 446.637C229.541 443.148 232.37 440.315 235.859 440.315C236.383 440.315 236.894 440.377 237.376 440.497C239.582 436.334 243.956 433.494 248.997 433.494C254.038 433.494 258.414 436.334 260.614 440.497C261.107 440.377 261.612 440.315 262.135 440.315C265.626 440.315 268.456 443.148 268.456 446.637V446.712C274.093 447.368 278.506 452.192 278.506 457.998C278.506 464.245 273.394 469.358 267.146 469.358H258.537" fill="#0693E3"/>
    <path d="M267.147 469.851H258.537C258.264 469.851 258.044 469.63 258.044 469.358C258.044 469.086 258.264 468.864 258.537 468.864H267.147C273.14 468.864 278.014 463.99 278.014 457.997C278.014 452.48 273.881 447.839 268.4 447.201C268.151 447.172 267.964 446.962 267.964 446.712C267.964 443.422 265.35 440.807 262.136 440.807C261.659 440.807 261.199 440.863 260.73 440.976C260.513 441.031 260.285 440.927 260.179 440.727C257.981 436.569 253.696 433.987 248.998 433.987C244.301 433.987 240.016 436.569 237.813 440.728C237.707 440.927 237.482 441.029 237.259 440.975C236.808 440.864 236.337 440.807 235.859 440.807C232.648 440.807 230.035 443.422 230.035 446.637C230.035 446.887 229.849 447.172 229.601 447.201C224.119 447.839 219.987 452.48 219.987 457.997C219.987 463.99 224.862 468.864 230.855 468.864H239.46C239.733 468.864 239.954 469.086 239.954 469.358C239.954 469.63 239.733 469.851 239.46 469.851H230.855C224.318 469.851 219 464.533 219 457.997C219 452.124 223.294 447.161 229.058 446.279C229.244 442.687 232.224 439.821 235.859 439.821C236.286 439.821 236.71 439.86 237.122 439.937C239.544 435.648 244.06 433 248.998 433C253.937 433 258.453 435.649 260.871 439.938C261.29 439.86 261.714 439.821 262.136 439.821C265.774 439.821 268.754 442.687 268.941 446.279C274.705 447.16 279 452.124 279 457.997C279 464.533 273.683 469.851 267.147 469.851Z" fill="#100F0D"/>
    <path d="M256.056 463.816H241.942C240.577 463.816 239.461 464.931 239.461 466.291V475.284C239.461 478.931 242.448 481.916 246.096 481.916H252.198C255.685 481.916 258.538 479.07 258.538 475.58V466.291C258.538 464.931 257.421 463.816 256.056 463.816Z" fill="#F47178"/>
    <path d="M241.935 464.31C240.839 464.31 239.948 465.199 239.948 466.291V475.284C239.948 478.669 242.702 481.423 246.089 481.423H252.191C255.414 481.423 258.037 478.802 258.037 475.58V466.291C258.037 465.199 257.146 464.31 256.049 464.31H241.935ZM252.191 482.409H246.089C242.159 482.409 238.961 479.213 238.961 475.284V466.291C238.961 464.655 240.295 463.323 241.935 463.323H256.049C257.689 463.323 259.024 464.655 259.024 466.291V475.58C259.024 479.346 255.958 482.409 252.191 482.409Z" fill="#100F0D"/>
    <path d="M243.252 463.323H254.754V459.472C254.754 457.347 253.027 455.62 250.904 455.62H247.101C244.979 455.62 243.252 457.347 243.252 459.472V463.323ZM255.247 464.31H242.759C242.486 464.31 242.266 464.089 242.266 463.816V459.472C242.266 456.804 244.435 454.633 247.101 454.633H250.904C253.571 454.633 255.74 456.804 255.74 459.472V463.816C255.74 464.089 255.519 464.31 255.247 464.31Z" fill="#100F0D"/>
    <path d="M248.992 470.153C248.04 470.153 247.266 470.92 247.266 471.877C247.266 472.608 247.718 473.231 248.354 473.483V475.58H249.63V473.483C250.27 473.231 250.719 472.608 250.719 471.877C250.719 470.92 249.948 470.153 248.992 470.153Z" fill="#F47178"/>
    <path d="M248.848 475.087H249.138V473.483C249.138 473.281 249.262 473.099 249.45 473.025C249.922 472.839 250.227 472.388 250.227 471.877C250.227 471.198 249.673 470.646 248.993 470.646C248.312 470.646 247.76 471.198 247.76 471.877C247.76 472.387 248.064 472.838 248.537 473.025C248.724 473.099 248.848 473.281 248.848 473.483V475.087ZM249.631 476.073H248.355C248.082 476.073 247.862 475.853 247.862 475.58V473.79C247.191 473.394 246.773 472.676 246.773 471.877C246.773 470.654 247.769 469.659 248.993 469.659C250.217 469.659 251.213 470.654 251.213 471.877C251.213 472.678 250.795 473.396 250.125 473.79V475.58C250.125 475.853 249.904 476.073 249.631 476.073Z" fill="#100F0D"/>
    <path d="M239.57 442.569C241.355 439.193 244.904 436.888 248.989 436.888L239.57 442.569Z" fill="#0693E3"/>
    <path d="M239.578 443.062C239.5 443.062 239.422 443.044 239.348 443.005C239.108 442.878 239.016 442.579 239.143 442.339C241.081 438.672 244.858 436.395 248.998 436.395C249.27 436.395 249.491 436.616 249.491 436.888C249.491 437.161 249.27 437.382 248.998 437.382C245.224 437.382 241.782 439.457 240.014 442.799C239.926 442.967 239.755 443.062 239.578 443.062Z" fill="#100F0D"/>
</g>
<g class="stroke_1">
<path d="M288.5 460.5H341.5V388.5H381" stroke="#0693E3" stroke-dasharray="6 6"/>
</g>
<g class="zoom">
<g filter="url(#filter2_d_1286_5606)">
<rect x="24" y="273" width="80" height="80" rx="16" fill="white"/>
</g>
<path d="M79.7981 302.901H48.9251C45.9437 302.901 43.5 305.34 43.5 308.319V327.987C43.5 335.969 50.0302 342.507 58.0127 342.507H71.3613C78.9859 342.507 85.2248 336.267 85.2248 328.64V308.319C85.2248 305.34 82.7833 302.901 79.7981 302.901Z" fill="#FEE13E"/>
<path d="M48.9188 303.395C46.1991 303.395 43.9867 305.604 43.9867 308.319V327.987C43.9867 335.722 50.2757 342.014 58.0065 342.014H71.355C78.7278 342.014 84.7255 336.014 84.7255 328.64V308.319C84.7255 305.604 82.5124 303.395 79.7918 303.395H48.9188ZM71.355 343H58.0065C49.7319 343 43 336.265 43 327.987V308.319C43 305.06 45.6553 302.408 48.9188 302.408H79.7918C83.0562 302.408 85.7122 305.06 85.7122 308.319V328.64C85.7122 336.558 79.2716 343 71.355 343Z" fill="#100F0D"/>
<path d="M51.1977 301.993H77.5231V292.993C77.5231 288.027 73.4844 283.987 68.5189 283.987H60.1996C55.2356 283.987 51.1977 288.027 51.1977 292.993V301.993ZM78.0168 302.98H50.7047C50.4317 302.98 50.2109 302.76 50.2109 302.486V292.993C50.2109 287.483 54.6926 283 60.1996 283H68.5189C74.0282 283 78.5098 287.483 78.5098 292.993V302.486C78.5098 302.76 78.2891 302.98 78.0168 302.98Z" fill="#100F0D"/>
<path d="M64.3567 316.76C62.2709 316.76 60.5781 318.449 60.5781 320.537C60.5781 322.132 61.5679 323.498 62.9642 324.051V328.647H65.7514V324.051C67.1462 323.498 68.1367 322.132 68.1367 320.537C68.1367 318.449 66.4446 316.76 64.3567 316.76Z" fill="#FEFAC9"/>
<path d="M63.458 328.154H65.2585V324.051C65.2585 323.849 65.3821 323.667 65.5702 323.592C66.8299 323.093 67.6445 321.893 67.6445 320.537C67.6445 318.725 66.1694 317.253 64.3575 317.253C62.5455 317.253 61.0726 318.725 61.0726 320.537C61.0726 321.893 61.8864 323.093 63.1462 323.592C63.3343 323.667 63.458 323.849 63.458 324.051V328.154ZM65.7522 329.141H62.965C62.6919 329.141 62.4712 328.92 62.4712 328.647V324.372C61.012 323.657 60.0859 322.186 60.0859 320.537C60.0859 318.182 62.0017 316.267 64.3575 316.267C66.7132 316.267 68.6305 318.182 68.6305 320.537C68.6305 322.186 67.7052 323.657 66.2452 324.372V328.647C66.2452 328.92 66.0245 329.141 65.7522 329.141Z" fill="#100F0D"/>
<path d="M84.7741 307.529L78.6406 312.148V326.545L84.7741 331.157V307.529Z" fill="#F47178"/>
<path d="M79.1273 326.299L84.2741 330.17V308.517L79.1273 312.394V326.299ZM84.7679 331.65C84.6624 331.65 84.5585 331.617 84.4713 331.551L78.3378 326.939C78.2142 326.846 78.1406 326.7 78.1406 326.545V312.148C78.1406 311.993 78.2142 311.847 78.3378 311.754L84.4713 307.134C84.6192 307.024 84.8202 307.002 84.9878 307.087C85.1547 307.171 85.2608 307.342 85.2608 307.529V331.157C85.2608 331.344 85.1547 331.515 84.9878 331.598C84.918 331.633 84.8422 331.65 84.7679 331.65Z" fill="#100F0D"/>
<path d="M84.4978 314.791H78.6344C78.3613 314.791 78.1406 314.57 78.1406 314.298C78.1406 314.025 78.3613 313.804 78.6344 313.804H84.4978C84.7709 313.804 84.9916 314.025 84.9916 314.298C84.9916 314.57 84.7709 314.791 84.4978 314.791Z" fill="#100F0D"/>
<path d="M84.7679 319.84H78.6344C78.3613 319.84 78.1406 319.619 78.1406 319.347C78.1406 319.074 78.3613 318.853 78.6344 318.853H84.7679C85.0401 318.853 85.2608 319.074 85.2608 319.347C85.2608 319.619 85.0401 319.84 84.7679 319.84Z" fill="#100F0D"/>
<path d="M84.5858 324.889H78.6344C78.3613 324.889 78.1406 324.669 78.1406 324.396C78.1406 324.124 78.3613 323.903 78.6344 323.903H84.5858C84.8589 323.903 85.0796 324.124 85.0796 324.396C85.0796 324.669 84.8589 324.889 84.5858 324.889Z" fill="#100F0D"/>
<path d="M43.9219 307.529L50.0538 312.148V326.545L43.9219 331.157V307.529Z" fill="#F47178"/>
<path d="M44.4242 308.517V330.17L49.5694 326.299V312.394L44.4242 308.517ZM43.9305 331.65C43.8562 331.65 43.7803 331.633 43.7105 331.598C43.5429 331.515 43.4375 331.344 43.4375 331.157V307.529C43.4375 307.342 43.5429 307.171 43.7105 307.087C43.8789 307.002 44.0791 307.024 44.227 307.134L50.359 311.754C50.4826 311.847 50.5562 311.993 50.5562 312.148V326.545C50.5562 326.7 50.4826 326.846 50.359 326.939L44.227 331.551C44.1405 331.617 44.0359 331.65 43.9305 331.65Z" fill="#100F0D"/>
<path d="M50.0565 314.791H44.1969C43.9238 314.791 43.7031 314.57 43.7031 314.298C43.7031 314.025 43.9238 313.804 44.1969 313.804H50.0565C50.3296 313.804 50.5503 314.025 50.5503 314.298C50.5503 314.57 50.3296 314.791 50.0565 314.791Z" fill="#100F0D"/>
<path d="M50.0624 319.84H43.9305C43.6582 319.84 43.4375 319.619 43.4375 319.347C43.4375 319.074 43.6582 318.853 43.9305 318.853H50.0624C50.3355 318.853 50.5562 319.074 50.5562 319.347C50.5562 319.619 50.3355 319.84 50.0624 319.84Z" fill="#100F0D"/>
<path d="M50.0571 324.889H44.1102C43.8379 324.889 43.6172 324.669 43.6172 324.396C43.6172 324.124 43.8379 323.903 44.1102 323.903H50.0571C50.3301 323.903 50.5508 324.124 50.5508 324.396C50.5508 324.669 50.3301 324.889 50.0571 324.889Z" fill="#100F0D"/>
</g>
<g class="zoom">
    <g filter="url(#filter3_d_1286_5606)">
    <rect x="109" y="78" width="80" height="80" rx="16" fill="white"/>
    </g>
    <path d="M147.63 88.493C133.748 88.493 122.492 99.7414 122.492 113.633C122.492 127.508 133.748 138.765 147.63 138.765C150.319 138.765 152.909 138.338 155.336 137.56C153.198 132.672 153.174 127.21 153.174 120.647H154.797H157.059H154.797V117.714H172.435C172.649 116.381 172.763 115.018 172.763 113.633C172.763 99.7414 161.515 88.493 147.63 88.493ZM155.336 137.56C153.198 132.672 153.174 127.21 153.174 120.647H154.797V117.714H172.435" fill="#0693E3"/>
    <path d="M147.631 88.9861C134.042 88.9861 122.987 100.043 122.987 113.633C122.987 127.218 134.042 138.272 147.631 138.272C150.022 138.272 152.388 137.928 154.672 137.25C152.692 132.368 152.682 126.958 152.682 120.733C152.682 120.729 152.682 120.726 152.682 120.723C152.682 120.72 152.682 120.717 152.682 120.713C152.682 120.71 152.682 120.707 152.682 120.704C152.682 120.701 152.682 120.698 152.682 120.694C152.682 120.678 152.682 120.663 152.682 120.647C152.682 120.375 152.903 120.154 153.176 120.154H154.306V117.714C154.306 117.442 154.526 117.221 154.799 117.221H172.014C172.184 116.025 172.272 114.821 172.272 113.633C172.272 100.043 161.218 88.9861 147.631 88.9861ZM147.631 139.257C133.498 139.257 122 127.762 122 113.633C122 99.4995 133.498 88.0001 147.631 88.0001C161.762 88.0001 173.258 99.4995 173.258 113.633C173.258 115.007 173.146 116.404 172.925 117.784C172.915 117.857 172.889 117.924 172.85 117.983V117.983H172.849C172.827 118.018 172.802 118.049 172.772 118.076C172.686 118.156 172.571 118.205 172.446 118.207H172.445H172.444H172.444H172.443H172.442H172.441H172.441H172.44H172.439H172.438C172.438 118.207 172.438 118.207 172.437 118.207H155.292V120.154H157.06C157.333 120.154 157.553 120.375 157.553 120.647C157.553 120.919 157.333 121.14 157.06 121.14H153.669C153.67 127.299 153.723 132.64 155.79 137.362C155.841 137.479 155.843 137.605 155.806 137.717C155.801 137.729 155.797 137.742 155.791 137.754L155.791 137.755C155.791 137.755 155.791 137.756 155.79 137.757C155.745 137.862 155.663 137.951 155.553 138.004C155.542 138.009 155.531 138.014 155.52 138.018C155.507 138.024 155.495 138.027 155.483 138.031C152.944 138.845 150.302 139.257 147.631 139.257Z" fill="#100F0D"/>
    <path d="M159.574 117.714C159.674 116.381 159.733 115.018 159.733 113.633C159.733 99.7414 154.311 88.493 147.632 88.493C140.946 88.493 135.531 99.7414 135.531 113.633C135.531 127.508 140.946 138.765 147.632 138.765C150.101 138.765 152.393 137.233 154.305 134.598" fill="#FEE13E"/>
    <path d="M147.633 139.257C140.689 139.257 135.039 127.762 135.039 113.633C135.039 99.4995 140.689 88.0001 147.633 88.0001C154.578 88.0001 160.228 99.4995 160.228 113.633C160.228 114.945 160.173 116.33 160.067 117.751C160.045 118.022 159.806 118.226 159.538 118.206C159.267 118.185 159.063 117.949 159.083 117.677C159.188 116.281 159.241 114.921 159.241 113.633C159.241 100.043 154.034 88.9861 147.633 88.9861C141.232 88.9861 136.026 100.043 136.026 113.633C136.026 127.218 141.232 138.272 147.633 138.272C149.856 138.272 152.025 136.901 153.907 134.309C154.067 134.088 154.374 134.038 154.595 134.2C154.815 134.359 154.865 134.668 154.705 134.887C152.63 137.746 150.185 139.257 147.633 139.257Z" fill="#100F0D"/>
    <path d="M147.634 139.257C147.361 139.257 147.141 139.036 147.141 138.765V88.4931C147.141 88.2208 147.361 88.0001 147.634 88.0001C147.907 88.0001 148.127 88.2208 148.127 88.4931V138.765C148.127 139.036 147.907 139.257 147.634 139.257Z" fill="#100F0D"/>
    <path d="M172.765 114.126H122.494C122.221 114.126 122 113.905 122 113.633C122 113.361 122.221 113.14 122.494 113.14H172.765C173.037 113.14 173.258 113.361 173.258 113.633C173.258 113.905 173.037 114.126 172.765 114.126Z" fill="#100F0D"/>
    <path d="M147.631 101.126C141.502 101.126 135.571 98.9276 130.93 94.9367C130.723 94.7593 130.7 94.4476 130.877 94.2413C131.056 94.035 131.366 94.013 131.572 94.1897C136.035 98.0266 141.738 100.14 147.631 100.14C153.525 100.14 159.228 98.0266 163.692 94.1897C163.898 94.0122 164.209 94.0342 164.387 94.2413C164.564 94.4483 164.541 94.7593 164.335 94.9367C159.693 98.9276 153.76 101.126 147.631 101.126Z" fill="#100F0D"/>
    <path d="M147.634 101.126C147.361 101.126 147.141 100.905 147.141 100.633V88.4931C147.141 88.2208 147.361 88.0001 147.634 88.0001C147.907 88.0001 148.127 88.2208 148.127 88.4931V100.633C148.127 100.905 147.907 101.126 147.634 101.126Z" fill="#100F0D"/>
    <path d="M131.251 133.188C131.112 133.188 130.975 133.13 130.877 133.017C130.7 132.811 130.723 132.5 130.929 132.322C135.558 128.331 141.491 126.133 147.631 126.133C149.567 126.133 151.505 126.349 153.392 126.777C153.658 126.837 153.824 127.1 153.764 127.366C153.704 127.631 153.436 127.8 153.175 127.738C151.358 127.327 149.493 127.119 147.631 127.119C141.727 127.119 136.024 129.232 131.573 133.069C131.479 133.149 131.365 133.188 131.251 133.188Z" fill="#100F0D"/>
    <path d="M147.634 139.257C147.361 139.257 147.141 139.036 147.141 138.765V126.626C147.141 126.354 147.361 126.133 147.634 126.133C147.907 126.133 148.127 126.354 148.127 126.626V138.765C148.127 139.036 147.907 139.257 147.634 139.257Z" fill="#100F0D"/>
    <path d="M157.057 120.647H153.172C153.172 131.97 153.234 140.02 164.154 147.507C175.076 140.02 175.145 131.979 175.145 120.647H170.704" fill="#F47178"/>
    <path d="M164.156 148C164.059 148 163.961 147.971 163.877 147.914C152.68 140.237 152.68 132.02 152.68 120.647C152.68 120.375 152.9 120.154 153.173 120.154H157.058C157.33 120.154 157.551 120.375 157.551 120.647C157.551 120.919 157.33 121.14 157.058 121.14H153.666C153.669 131.861 153.824 139.688 164.156 146.907C174.494 139.684 174.65 131.858 174.652 121.14H170.705C170.433 121.14 170.212 120.919 170.212 120.647C170.212 120.375 170.433 120.154 170.705 120.154H175.146C175.418 120.154 175.639 120.375 175.639 120.647C175.639 132.017 175.639 140.232 164.434 147.914C164.351 147.971 164.253 148 164.156 148Z" fill="#100F0D"/>
    <path d="M154.805 120.647H173.479V117.714H154.805V120.647Z" fill="#F47178"/>
    <path d="M173.472 121.14C173.199 121.14 172.978 120.919 172.978 120.647V118.207H155.291V120.647C155.291 120.919 155.071 121.14 154.798 121.14C154.525 121.14 154.305 120.919 154.305 120.647V117.714C154.305 117.442 154.525 117.221 154.798 117.221H173.472C173.744 117.221 173.965 117.442 173.965 117.714V120.647C173.965 120.919 173.744 121.14 173.472 121.14Z" fill="#100F0D"/>
    <path d="M164.158 124.28C161.204 124.28 158.805 126.677 158.805 129.64C158.805 132.595 161.204 134.994 164.158 134.994C167.12 134.994 169.52 132.595 169.52 129.64C169.52 126.677 167.12 124.28 164.158 124.28Z" fill="#FBE663"/>
    <path d="M164.159 124.773C161.479 124.773 159.299 126.956 159.299 129.64C159.299 132.32 161.479 134.501 164.159 134.501C166.844 134.501 169.028 132.32 169.028 129.64C169.028 126.956 166.844 124.773 164.159 124.773ZM164.159 135.487C160.935 135.487 158.312 132.864 158.312 129.64C158.312 126.413 160.935 123.787 164.159 123.787C167.388 123.787 170.014 126.413 170.014 129.64C170.014 132.864 167.388 135.487 164.159 135.487Z" fill="#100F0D"/>
    <path d="M162.556 131.687C162.52 131.687 162.484 131.683 162.449 131.675C162.313 131.644 162.196 131.559 162.128 131.438L160.939 129.351C160.805 129.114 160.887 128.813 161.124 128.678C161.361 128.543 161.662 128.626 161.796 128.862L162.716 130.478L166.68 127.684C166.903 127.526 167.21 127.581 167.366 127.803C167.523 128.025 167.47 128.333 167.247 128.49L162.839 131.597C162.756 131.656 162.657 131.687 162.556 131.687Z" fill="#100F0D"/>
</g>
<g class="zoom">
    <g filter="url(#filter4_d_1286_5606)">
    <rect x="193" y="247" width="80" height="80" rx="16" fill="white"/>
    </g>
    <path d="M209.192 267.493H256.802C258.19 267.493 259.323 268.626 259.323 270.016V301.627H206.672V270.016C206.672 268.626 207.806 267.493 209.192 267.493Z" fill="#FEE13E"/>
    <path d="M207.166 301.134H258.83V270.016C258.83 268.897 257.92 267.987 256.802 267.987H209.193C208.075 267.987 207.166 268.897 207.166 270.016V301.134ZM259.323 302.121H206.673C206.4 302.121 206.18 301.9 206.18 301.627V270.016C206.18 268.353 207.531 267 209.193 267H256.802C258.464 267 259.816 268.353 259.816 270.016V301.627C259.816 301.9 259.596 302.121 259.323 302.121Z" fill="#100F0D"/>
    <path d="M209.914 270.732V298.389H256.083V270.732H209.914Z" fill="#0693E3"/>
    <path d="M210.408 297.895H255.591V271.225H210.408V297.895ZM256.084 298.882H209.915C209.643 298.882 209.422 298.661 209.422 298.389V270.732C209.422 270.459 209.643 270.238 209.915 270.238H256.084C256.357 270.238 256.578 270.459 256.578 270.732V298.389C256.578 298.661 256.357 298.882 256.084 298.882Z" fill="#100F0D"/>
    <path d="M237.841 281.009H227.177C226.146 281.009 225.305 281.856 225.305 282.885V289.676C225.305 292.434 227.559 294.691 230.317 294.691H234.928C237.56 294.691 239.714 292.535 239.714 289.902V282.885C239.714 281.856 238.871 281.009 237.841 281.009Z" fill="#F47178"/>
    <path d="M227.181 281.318C226.319 281.318 225.619 282.021 225.619 282.885V289.676C225.619 292.271 227.728 294.382 230.321 294.382H234.932C237.401 294.382 239.409 292.372 239.409 289.902V282.885C239.409 282.021 238.708 281.318 237.846 281.318H227.181ZM234.932 295H230.321C227.387 295 225 292.612 225 289.676V282.885C225 281.68 225.978 280.699 227.181 280.699H237.846C239.049 280.699 240.027 281.68 240.027 282.885V289.902C240.027 292.713 237.742 295 234.932 295Z" fill="#100F0D"/>
    <path d="M228.103 280.699H236.917V277.659C236.917 275.982 235.586 274.618 233.949 274.618H231.075C229.436 274.618 228.103 275.982 228.103 277.659V280.699ZM237.227 281.318H227.794C227.623 281.318 227.484 281.179 227.484 281.009V277.659C227.484 275.641 229.095 274 231.075 274H233.949C235.927 274 237.536 275.641 237.536 277.659V281.009C237.536 281.179 237.398 281.318 237.227 281.318Z" fill="#100F0D"/>
    <path d="M232.343 289.593H232.684V288.314C232.684 288.187 232.763 288.072 232.882 288.026C233.263 287.878 233.509 287.515 233.509 287.101C233.509 286.552 233.062 286.106 232.512 286.106C231.963 286.106 231.517 286.552 231.517 287.101C231.517 287.515 231.764 287.878 232.145 288.026C232.265 288.072 232.343 288.186 232.343 288.314V289.593ZM232.993 290.211H232.034C231.863 290.211 231.725 290.073 231.725 289.902V288.511C231.217 288.231 230.898 287.698 230.898 287.101C230.898 286.212 231.623 285.488 232.512 285.488C233.403 285.488 234.128 286.212 234.128 287.101C234.128 287.698 233.81 288.23 233.303 288.51V289.902C233.303 290.073 233.165 290.211 232.993 290.211Z" fill="#100F0D"/>
    <path d="M203.492 301.627H262.506V304.053C262.506 305.381 261.074 306.472 259.325 306.472H206.672C204.923 306.472 203.492 305.381 203.492 304.053V301.627Z" fill="#6A6D83"/>
    <path d="M203.986 302.121V304.053C203.986 305.097 205.217 305.979 206.673 305.979H259.326C260.782 305.979 262.014 305.097 262.014 304.053V302.121H203.986ZM259.326 306.965H206.673C204.648 306.965 203 305.659 203 304.053V301.627C203 301.355 203.221 301.134 203.493 301.134H262.507C262.779 301.134 263 301.355 263 301.627V304.053C263 305.659 261.351 306.965 259.326 306.965Z" fill="#100F0D"/>
    <path d="M233.003 303.49C232.692 303.49 232.44 303.742 232.44 304.053C232.44 304.364 232.692 304.617 233.003 304.617C233.314 304.617 233.565 304.364 233.565 304.053C233.565 303.742 233.314 303.49 233.003 303.49ZM233.003 305.603C232.149 305.603 231.453 304.907 231.453 304.053C231.453 303.198 232.149 302.503 233.003 302.503C233.857 302.503 234.552 303.198 234.552 304.053C234.552 304.907 233.857 305.603 233.003 305.603Z" fill="#100F0D"/>
</g>
<g class="zoom">
    <g filter="url(#filter5_d_1286_5606)">
    <rect x="347" y="170" width="80" height="80" rx="16" fill="white"/>
    </g>
    <path d="M414.341 184.494H359.657C358.463 184.494 357.492 185.471 357.492 186.666V222.57C357.492 223.757 358.463 224.728 359.657 224.728H414.341C415.535 224.728 416.506 223.757 416.506 222.57V186.666C416.506 185.471 415.535 184.494 414.341 184.494Z" fill="#FEE13E"/>
    <path d="M359.658 184.987C358.736 184.987 357.987 185.74 357.987 186.666V222.57C357.987 223.488 358.736 224.234 359.658 224.234H414.342C415.264 224.234 416.014 223.488 416.014 222.57V186.666C416.014 185.74 415.264 184.987 414.342 184.987H359.658ZM414.342 225.221H359.658C358.192 225.221 357 224.032 357 222.57V186.666C357 185.196 358.192 184 359.658 184H414.342C415.808 184 417 185.196 417 186.666V222.57C417 224.032 415.808 225.221 414.342 225.221Z" fill="#100F0D"/>
    <path d="M360.492 187.498H413.513V221.73H360.492V187.498Z" fill="#0693E3"/>
    <path d="M360.979 221.237H413.013V187.991H360.979V221.237ZM413.507 222.224H360.486C360.213 222.224 359.992 222.003 359.992 221.73V187.498C359.992 187.225 360.213 187.004 360.486 187.004H413.507C413.779 187.004 414 187.225 414 187.498V221.73C414 222.003 413.779 222.224 413.507 222.224Z" fill="#100F0D"/>
    <path d="M378.75 224.728H395.254L390.177 233.085H383.826L378.75 224.728Z" fill="#FEE13E"/>
    <path d="M384.104 232.592H389.901L394.378 225.221H379.627L384.104 232.592ZM390.178 233.578H383.827C383.655 233.578 383.496 233.488 383.406 233.342L378.329 224.984C378.237 224.831 378.234 224.641 378.321 224.486C378.409 224.331 378.573 224.234 378.751 224.234H395.255C395.432 224.234 395.597 224.331 395.684 224.486C395.771 224.641 395.768 224.831 395.676 224.984L390.599 233.342C390.51 233.488 390.351 233.578 390.178 233.578Z" fill="#100F0D"/>
    <path d="M376.016 235.25H397.984V233.085H376.016V235.25Z" fill="#FBE663"/>
    <path d="M376.51 234.757H397.492V233.578H376.51V234.757ZM397.985 235.744H376.016C375.744 235.744 375.523 235.523 375.523 235.251V233.085C375.523 232.813 375.744 232.592 376.016 232.592H397.985C398.257 232.592 398.478 232.813 398.478 233.085V235.251C398.478 235.523 398.257 235.744 397.985 235.744Z" fill="#100F0D"/>
    <path d="M386.006 195.122H387.927C389.524 195.122 390.831 196.429 390.831 198.026V200.469C389.749 199.75 388.447 199.32 387.055 199.32C385.583 199.32 384.216 199.789 383.102 200.587V198.026C383.102 196.429 384.408 195.122 386.006 195.122Z" fill="#6A6D83"/>
    <path d="M386.007 195.615C384.678 195.615 383.596 196.697 383.596 198.026V199.699C385.643 198.591 388.229 198.544 390.339 199.612V198.026C390.339 196.697 389.258 195.615 387.928 195.615H386.007ZM383.103 201.081C383.026 201.081 382.949 201.062 382.878 201.026C382.713 200.941 382.609 200.772 382.609 200.587V198.026C382.609 196.153 384.134 194.629 386.007 194.629H387.928C389.802 194.629 391.326 196.153 391.326 198.026V200.469C391.326 200.65 391.226 200.818 391.065 200.903C390.906 200.989 390.712 200.981 390.56 200.879C388.389 199.437 385.469 199.499 383.391 200.988C383.305 201.05 383.205 201.081 383.103 201.081Z" fill="#100F0D"/>
    <path d="M387.058 199.32C383.294 199.32 380.219 202.403 380.219 206.165V209.433C380.219 213.195 383.294 216.271 387.058 216.271C390.82 216.271 393.897 213.195 393.897 209.433V206.165C393.897 202.403 390.82 199.32 387.058 199.32Z" fill="#F47178"/>
    <path d="M387.058 199.813C383.559 199.813 380.713 202.663 380.713 206.165V209.433C380.713 212.932 383.559 215.778 387.058 215.778C390.558 215.778 393.405 212.932 393.405 209.433V206.165C393.405 202.663 390.558 199.813 387.058 199.813ZM387.058 216.764C383.016 216.764 379.727 213.476 379.727 209.433V206.165C379.727 202.119 383.016 198.827 387.058 198.827C391.102 198.827 394.392 202.119 394.392 206.165V209.433C394.392 213.476 391.102 216.764 387.058 216.764Z" fill="#100F0D"/>
    <path d="M393.51 204.381C393.357 204.381 393.206 204.31 393.109 204.177C392.949 203.957 392.999 203.649 393.22 203.489L395.881 201.561L395.396 197.706C395.362 197.435 395.553 197.189 395.823 197.155C396.084 197.114 396.34 197.311 396.374 197.583L396.896 201.727C396.919 201.906 396.842 202.083 396.696 202.188L393.798 204.287C393.71 204.351 393.61 204.381 393.51 204.381Z" fill="#100F0D"/>
    <path d="M400.143 210.395C400.013 210.395 399.883 210.344 399.786 210.243L397.306 207.649H393.899C393.627 207.649 393.406 207.428 393.406 207.156C393.406 206.883 393.627 206.662 393.899 206.662H397.516C397.651 206.662 397.779 206.717 397.873 206.815L400.498 209.561C400.687 209.758 400.68 210.07 400.483 210.258C400.388 210.35 400.265 210.395 400.143 210.395Z" fill="#100F0D"/>
    <path d="M394.716 217.63C394.647 217.63 394.576 217.615 394.509 217.584C394.262 217.47 394.155 217.176 394.269 216.929L396.161 212.843L393.242 212.838C392.97 212.837 392.75 212.616 392.75 212.344C392.751 212.072 392.971 211.851 393.243 211.851H393.244L396.933 211.858C397.101 211.859 397.257 211.945 397.348 212.086C397.438 212.228 397.45 212.406 397.38 212.559L395.163 217.344C395.08 217.524 394.902 217.63 394.716 217.63Z" fill="#100F0D"/>
    <path d="M388.158 195.608C387.89 195.608 387.671 195.395 387.665 195.126C387.638 193.934 388.138 191.663 390.222 191.6C390.532 191.601 390.721 191.806 390.729 192.078C390.737 192.35 390.523 192.577 390.251 192.586C388.622 192.634 388.649 195.004 388.65 195.105C388.656 195.377 388.44 195.602 388.169 195.608C388.165 195.608 388.161 195.608 388.158 195.608Z" fill="#100F0D"/>
    <path d="M380.492 204.381C380.392 204.381 380.291 204.351 380.204 204.287L377.305 202.188C377.159 202.082 377.083 201.905 377.106 201.726L377.635 197.582C377.67 197.311 377.918 197.114 378.186 197.155C378.456 197.189 378.647 197.437 378.613 197.707L378.12 201.562L380.781 203.489C381.002 203.649 381.052 203.957 380.892 204.177C380.795 204.31 380.645 204.381 380.492 204.381Z" fill="#100F0D"/>
    <path d="M373.867 210.395C373.745 210.395 373.622 210.35 373.527 210.258C373.33 210.071 373.324 209.758 373.512 209.561L376.133 206.815C376.225 206.717 376.354 206.662 376.489 206.662H380.106C380.378 206.662 380.599 206.883 380.599 207.156C380.599 207.428 380.378 207.649 380.106 207.649H376.7L374.224 210.243C374.128 210.344 373.997 210.395 373.867 210.395Z" fill="#100F0D"/>
    <path d="M379.282 217.63C379.096 217.63 378.917 217.524 378.834 217.343L376.624 212.558C376.553 212.405 376.565 212.228 376.655 212.086C376.746 211.945 376.902 211.859 377.07 211.858L380.754 211.851H380.755C381.027 211.851 381.248 212.072 381.249 212.344C381.249 212.616 381.029 212.837 380.756 212.838L377.841 212.843L379.729 216.93C379.843 217.177 379.735 217.47 379.488 217.584C379.421 217.615 379.352 217.63 379.282 217.63Z" fill="#100F0D"/>
    <path d="M385.837 195.608C385.835 195.608 385.831 195.608 385.827 195.608C385.555 195.602 385.34 195.377 385.345 195.105C385.346 195.004 385.372 192.634 383.751 192.586C383.479 192.577 383.265 192.35 383.274 192.078C383.281 191.81 383.5 191.6 383.766 191.6C383.77 191.6 383.776 191.6 383.781 191.6C385.858 191.663 386.357 193.934 386.33 195.126C386.324 195.395 386.105 195.608 385.837 195.608Z" fill="#100F0D"/>
    <path d="M388.782 208.758C388.656 208.758 388.53 208.71 388.433 208.614C388.242 208.422 388.241 208.11 388.432 207.916L390.439 205.903C390.632 205.711 390.943 205.709 391.137 205.901C391.329 206.094 391.33 206.406 391.138 206.599L389.131 208.613C389.034 208.709 388.908 208.758 388.782 208.758Z" fill="#100F0D"/>
    <path d="M388.782 211.075C388.656 211.075 388.529 211.027 388.433 210.93C388.241 210.738 388.241 210.425 388.433 210.233L390.44 208.226C390.632 208.033 390.945 208.033 391.138 208.226C391.33 208.419 391.33 208.731 391.138 208.924L389.131 210.93C389.034 211.027 388.908 211.075 388.782 211.075Z" fill="#100F0D"/>
</g>
<g class="zoom">
    <g filter="url(#filter6_d_1286_5606)">
    <rect x="493" y="27" width="80" height="80" rx="16" fill="white"/>
    </g>
    <path d="M538.667 37.4929H513.166C510.595 37.4929 508.492 39.5961 508.492 42.1664V91.8335C508.492 94.4038 510.595 96.507 513.166 96.507H538.667C541.237 96.507 543.34 94.4038 543.34 91.8335V80.5502C535.853 80.5502 529.787 74.4796 529.787 66.9961C529.787 59.5142 535.853 53.4421 543.34 53.4421V42.1664C543.34 39.5961 541.237 37.4929 538.667 37.4929Z" fill="#0693E3"/>
    <path d="M513.167 37.9867C510.862 37.9867 508.986 39.8616 508.986 42.1665V91.8335C508.986 94.1384 510.862 96.014 513.167 96.014H538.667C540.972 96.014 542.847 94.1384 542.847 91.8335V81.0349C535.33 80.774 529.294 74.5768 529.294 66.9962C529.294 59.4156 535.33 53.2184 542.847 52.9575V42.1665C542.847 39.8616 540.972 37.9867 538.667 37.9867H513.167ZM538.667 97H513.167C510.318 97 508 94.6822 508 91.8335V42.1665C508 39.3185 510.318 37 513.167 37H538.667C541.516 37 543.834 39.3185 543.834 42.1665V53.4422C543.834 53.7145 543.613 53.9352 543.341 53.9352C536.14 53.9352 530.281 59.7941 530.281 66.9962C530.281 74.1983 536.14 80.0565 543.341 80.0565C543.613 80.0565 543.834 80.2772 543.834 80.5502V91.8335C543.834 94.6822 541.516 97 538.667 97Z" fill="#100F0D"/>
    <path d="M508.492 87.0826V91.8335C508.492 94.3962 510.595 96.507 513.166 96.507H538.667C541.237 96.507 543.34 94.3962 543.34 91.8335V87.0826H508.492Z" fill="#6A6D83"/>
    <path d="M508.986 87.5764V91.8335C508.986 94.1384 510.862 96.014 513.167 96.014H538.667C540.972 96.014 542.847 94.1384 542.847 91.8335V87.5764H508.986ZM538.667 97H513.167C510.318 97 508 94.6822 508 91.8335V87.0827C508 86.8104 508.221 86.5897 508.493 86.5897H543.341C543.613 86.5897 543.834 86.8104 543.834 87.0827V91.8335C543.834 94.6822 541.516 97 538.667 97Z" fill="#100F0D"/>
    <path d="M543.34 46.9644H508.492V42.1665C508.492 39.5961 510.595 37.493 513.166 37.493H538.667C541.237 37.493 543.34 39.5961 543.34 42.1665V46.9644Z" fill="#6A6D83"/>
    <path d="M508.986 46.4707H542.847V42.1665C542.847 39.8616 540.972 37.9868 538.667 37.9868H513.167C510.862 37.9868 508.986 39.8616 508.986 42.1665V46.4707ZM543.341 47.4574H508.493C508.221 47.4574 508 47.2367 508 46.9644V42.1665C508 39.3186 510.318 37.0001 513.167 37.0001H538.667C541.516 37.0001 543.834 39.3186 543.834 42.1665V46.9644C543.834 47.2367 543.613 47.4574 543.341 47.4574Z" fill="#100F0D"/>
    <path d="M517.104 41.7244C516.824 41.7244 516.595 41.9504 516.595 42.2287C516.595 42.5078 516.824 42.7346 517.104 42.7346C517.384 42.7346 517.612 42.5078 517.612 42.2287C517.612 41.9504 517.384 41.7244 517.104 41.7244ZM517.104 43.7206C516.28 43.7206 515.609 43.0509 515.609 42.2287C515.609 41.4074 516.28 40.7384 517.104 40.7384C517.928 40.7384 518.598 41.4074 518.598 42.2287C518.598 43.0509 517.928 43.7206 517.104 43.7206Z" fill="#100F0D"/>
    <path d="M529.705 92.2878H522.134C521.861 92.2878 521.641 92.0671 521.641 91.7949C521.641 91.5226 521.861 91.3019 522.134 91.3019H529.705C529.978 91.3019 530.199 91.5226 530.199 91.7949C530.199 92.0671 529.978 92.2878 529.705 92.2878Z" fill="#100F0D"/>
    <path d="M529.705 42.7218H522.134C521.861 42.7218 521.641 42.5011 521.641 42.2288C521.641 41.9558 521.861 41.7351 522.134 41.7351H529.705C529.978 41.7351 530.199 41.9558 530.199 42.2288C530.199 42.5011 529.978 42.7218 529.705 42.7218Z" fill="#100F0D"/>
    <path d="M543.342 53.4422C535.855 53.4422 529.789 59.5143 529.789 66.9963C529.789 74.4798 535.855 80.5503 543.342 80.5503C550.83 80.5503 556.902 74.4798 556.902 66.9963C556.902 59.5143 550.83 53.4422 543.342 53.4422Z" fill="#FEE13E"/>
    <path d="M543.344 53.9353C536.143 53.9353 530.284 59.7942 530.284 66.9963C530.284 74.1984 536.143 80.0566 543.344 80.0566C550.548 80.0566 556.409 74.1984 556.409 66.9963C556.409 59.7942 550.548 53.9353 543.344 53.9353ZM543.344 81.0433C535.599 81.0433 529.297 74.7422 529.297 66.9963C529.297 59.2504 535.599 52.9485 543.344 52.9485C551.093 52.9485 557.396 59.2504 557.396 66.9963C557.396 74.7422 551.093 81.0433 543.344 81.0433Z" fill="#100F0D"/>
    <path d="M549.023 63.2815H537.671C536.577 63.2815 535.68 64.1802 535.68 65.2777V72.5071C535.68 75.44 538.078 77.8412 541.015 77.8412H545.916C548.723 77.8412 551.018 75.5462 551.018 72.746V65.2777C551.018 64.1802 550.118 63.2815 549.023 63.2815Z" fill="#F47178"/>
    <path d="M537.671 63.7753C536.846 63.7753 536.174 64.4488 536.174 65.2777V72.5071C536.174 75.1768 538.346 77.3475 541.015 77.3475H545.917C548.459 77.3475 550.526 75.2838 550.526 72.7461V65.2777C550.526 64.4488 549.852 63.7753 549.024 63.7753H537.671ZM545.917 78.3342H541.015C537.802 78.3342 535.188 75.7206 535.188 72.5071V65.2777C535.188 63.9057 536.302 62.7885 537.671 62.7885H549.024C550.396 62.7885 551.512 63.9057 551.512 65.2777V72.7461C551.512 75.8268 549.002 78.3342 545.917 78.3342Z" fill="#100F0D"/>
    <path d="M538.823 62.6435H547.875V59.6432C547.875 57.9898 546.531 56.6443 544.878 56.6443H541.816C540.165 56.6443 538.823 57.9898 538.823 59.6432V62.6435ZM548.368 63.6295H538.33C538.057 63.6295 537.836 63.4088 537.836 63.1365V59.6432C537.836 57.446 539.622 55.6583 541.816 55.6583H544.878C547.074 55.6583 548.861 57.446 548.861 59.6432V63.1365C548.861 63.4088 548.64 63.6295 548.368 63.6295Z" fill="#100F0D"/>
    <path d="M543.081 73.3026H543.606V71.2942C543.606 71.0917 543.731 70.9097 543.919 70.8354C544.507 70.6033 544.902 70.0223 544.902 69.3906C544.902 68.5282 544.203 67.8274 543.343 67.8274C542.483 67.8274 541.784 68.5282 541.784 69.3906C541.784 70.0231 542.18 70.6041 542.769 70.8354C542.957 70.9097 543.081 71.091 543.081 71.2942V73.3026ZM544.1 74.2893H542.588C542.315 74.2893 542.095 74.0686 542.095 73.7963V71.6037C541.307 71.1592 540.797 70.3083 540.797 69.3906C540.797 67.9844 541.939 66.8415 543.343 66.8415C544.746 66.8415 545.889 67.9844 545.889 69.3906C545.889 70.3075 545.379 71.1585 544.593 71.6037V73.7963C544.593 74.0686 544.372 74.2893 544.1 74.2893Z" fill="#100F0D"/>
</g>
<path d="M762.376 520.166L776.747 368.178C777.014 365.347 776.694 362.491 775.807 359.79C774.92 357.088 773.485 354.598 771.592 352.476C769.699 350.354 767.389 348.644 764.805 347.455C762.221 346.265 759.42 345.622 756.576 345.563L596.635 342.315C591.378 342.226 586.284 344.143 582.389 347.674C578.494 351.205 576.091 356.087 575.668 361.326L563.406 520.105L762.376 520.166Z" fill="#455A64"/>
<path d="M739.689 520.154C739.67 519.975 739.67 519.794 739.689 519.615C739.689 519.235 739.762 518.708 739.811 518.034C739.934 516.612 740.118 514.565 740.339 511.905C740.829 506.598 741.565 498.961 742.399 489.536C744.201 470.623 746.678 444.54 749.425 415.735C751.607 393.305 753.63 372.529 755.286 355.614C755.286 354.781 755.286 353.947 755.286 353.163C755.303 352.364 755.225 351.565 755.053 350.785C754.651 349.328 753.791 348.039 752.6 347.108C751.441 346.203 750.024 345.688 748.554 345.637L744.348 345.527L730.333 345.183L721.37 344.938L719.028 344.852C718.488 344.852 718.219 344.852 718.219 344.852C718.219 344.852 718.488 344.852 719.028 344.852H721.382L730.346 344.963L744.361 345.183L748.566 345.257C750.157 345.326 751.684 345.9 752.926 346.896C754.168 347.893 755.059 349.259 755.47 350.797C755.657 351.6 755.743 352.424 755.727 353.249L755.801 355.761C754.182 372.664 752.196 393.452 750.062 415.821C747.242 444.626 744.692 470.697 742.84 489.597C741.896 499.023 741.123 506.647 740.584 511.954C740.314 514.565 740.093 516.612 739.934 518.083C739.86 518.757 739.799 519.308 739.75 519.664C739.701 520.019 739.689 520.154 739.689 520.154Z" fill="#263238"/>
<path d="M547.388 402.963C545.242 403.025 530.222 430.101 519.272 450.521C515.699 457.156 510.285 462.618 503.681 466.252C497.078 469.885 489.565 471.535 482.046 471.003C473.157 470.384 464.745 466.753 458.199 460.709C451.654 454.665 447.366 446.57 446.046 437.761L436.812 332.154L473.794 323.01L488.9 405.697L498.17 379.405L547.388 402.963Z" fill="#F9AD95"/>
<path d="M474.124 330.659L472.897 312.126C472.897 312.126 467.662 270.525 467.662 266.468C467.662 261.773 465.418 260.646 463.689 260.756C460.991 260.94 459.079 264.249 458.944 268.282C458.944 269.667 459.079 291.656 459.079 291.656C457.801 289.579 456.375 287.596 454.812 285.724C451.562 281.605 443.923 279.252 436.088 279.497C428.253 279.742 426.083 280.515 426.033 283.567C426.055 284.143 426.205 284.707 426.472 285.218C426.739 285.729 427.117 286.174 427.578 286.521C429.021 287.728 430.86 288.361 432.741 288.298C445.297 288.077 448.681 294.782 448.681 294.782L448.84 297.233C448.84 297.233 441.213 291.779 435.132 294.083C434.225 294.417 433.391 294.925 432.679 295.579C430.965 295.582 429.282 296.035 427.797 296.891C426.312 297.748 425.078 298.978 424.217 300.46C423.356 301.942 422.899 303.623 422.891 305.337C422.882 307.05 423.323 308.736 424.17 310.226C424.979 311.672 426.487 313.021 428.118 312.677C428.96 312.422 429.723 311.958 430.337 311.329C430.682 311.017 431.056 310.737 431.453 310.496L432.863 317.225C432.863 317.225 436.824 332.178 437.768 338.883" fill="#F9AD95"/>
<path d="M470.523 329.151C468.218 329.776 465.851 328.085 464.613 326.05C463.374 324.015 462.847 321.613 461.756 319.492C458.482 313.143 450.573 310.103 447.618 303.558C447.201 302.651 446.98 301.401 447.777 300.812C448.574 300.224 449.555 300.69 450.365 301.143L471.062 312.604" fill="#F9AD95"/>
<path d="M471.061 312.653C470.432 312.063 469.722 311.568 468.952 311.182C467.554 310.312 465.494 309.098 462.956 307.615L453.968 302.479L451.356 301.009C450.498 300.604 449.554 299.697 447.947 300.04C447.568 300.165 447.235 300.402 446.992 300.719C446.75 301.036 446.608 301.419 446.586 301.818C446.545 302.469 446.663 303.121 446.93 303.717C447.409 304.781 448.005 305.788 448.708 306.72C451.577 310.398 455.28 312.775 457.953 315.497C459.254 316.721 460.358 318.139 461.227 319.701C462.011 321.172 462.514 322.704 463.115 324.077C463.489 325.236 464.112 326.299 464.94 327.193C465.768 328.086 466.781 328.788 467.909 329.249C468.325 329.427 468.775 329.51 469.226 329.493C469.678 329.477 470.12 329.36 470.521 329.151C469.686 329.165 468.855 329.028 468.069 328.746C467.074 328.239 466.196 327.531 465.491 326.665C464.786 325.8 464.269 324.797 463.973 323.721C463.458 322.18 462.864 320.667 462.195 319.186C461.311 317.496 460.17 315.953 458.811 314.614C456.065 311.758 452.398 309.356 449.762 305.899C449.125 305.063 448.582 304.158 448.144 303.203C447.751 302.308 447.8 301.389 448.327 301.303C448.855 301.217 449.823 301.634 450.706 302.136L453.342 303.558L462.465 308.461C465.077 309.834 467.198 310.912 468.669 311.648C469.419 312.086 470.223 312.423 471.061 312.653Z" fill="#F6865E"/>
<path d="M449.138 297.319C448.991 295.818 448.5 294.371 447.703 293.091C446.755 291.784 445.415 290.814 443.878 290.32C441.952 289.728 439.946 289.439 437.931 289.462C435.85 289.49 433.771 289.309 431.726 288.923C430.012 288.58 428.42 287.784 427.116 286.619C426.671 286.212 426.327 285.706 426.114 285.141C425.901 284.577 425.824 283.97 425.89 283.371C425.913 282.933 426.052 282.51 426.294 282.145C426.38 282.145 426.233 282.598 426.221 283.371C426.227 283.903 426.349 284.427 426.577 284.907C426.806 285.388 427.136 285.813 427.545 286.153C428.818 287.157 430.316 287.834 431.91 288.126C433.911 288.462 435.939 288.614 437.968 288.58C440.071 288.556 442.164 288.883 444.16 289.548C445.834 290.128 447.264 291.255 448.218 292.747C448.85 293.737 449.217 294.872 449.285 296.045C449.371 296.89 449.187 297.331 449.138 297.319Z" fill="#F6865E"/>
<path d="M459.024 266.725C459.177 268.179 459.198 269.644 459.086 271.101C459.086 274.092 459.024 277.671 458.975 281.618C458.926 285.565 458.975 289.144 458.975 292.134C459.066 293.593 459.033 295.057 458.877 296.51C458.544 295.083 458.367 293.624 458.35 292.159C458.166 289.462 458.043 285.736 458.056 281.618C458.068 277.499 458.227 273.761 458.423 271.077C458.471 269.609 458.672 268.151 459.024 266.725Z" fill="#F6865E"/>
<path d="M444.169 302.271C443.742 302.158 443.331 301.993 442.943 301.781C442.426 301.511 441.857 301.357 441.275 301.329C440.692 301.302 440.111 301.401 439.571 301.621C439.239 301.8 438.958 302.063 438.758 302.383C438.558 302.704 438.446 303.07 438.431 303.448C438.379 304.397 438.449 305.348 438.639 306.279C438.891 307.453 438.704 308.679 438.112 309.723C437.729 310.255 437.227 310.689 436.645 310.991C436.064 311.294 435.42 311.455 434.765 311.464C434.119 311.464 433.479 311.331 432.887 311.074C432.294 310.816 431.76 310.44 431.319 309.969C430.487 309.135 429.924 308.072 429.701 306.917C429.46 305.047 429.488 303.152 429.786 301.291C429.956 300.032 430.333 298.81 430.902 297.675C431.356 296.89 431.773 296.572 431.797 296.608C431.627 297.029 431.43 297.438 431.209 297.834C430.78 298.977 430.508 300.173 430.399 301.389C430.192 303.182 430.22 304.996 430.485 306.782C430.676 307.798 431.196 308.723 431.965 309.414C432.734 310.105 433.709 310.524 434.74 310.606C435.258 310.602 435.767 310.478 436.229 310.244C436.691 310.011 437.092 309.673 437.401 309.258C437.888 308.386 438.045 307.368 437.842 306.39C437.667 305.386 437.626 304.364 437.72 303.35C437.767 302.866 437.937 302.403 438.214 302.004C438.49 301.605 438.865 301.283 439.301 301.07C439.922 300.84 440.587 300.758 441.245 300.83C441.903 300.903 442.535 301.127 443.09 301.487C443.826 301.916 444.194 302.222 444.169 302.271Z" fill="#F6865E"/>
<path d="M431.641 309.307C431.641 309.307 431.8 309.76 431.518 310.532C431.296 311.08 430.95 311.568 430.508 311.959C430.065 312.351 429.538 312.634 428.968 312.788C428.105 312.98 427.206 312.945 426.361 312.685C425.516 312.425 424.754 311.949 424.149 311.305C422.715 309.724 421.946 307.652 422.003 305.519C422.003 303.415 422.658 301.363 423.879 299.648C424.89 298.277 426.243 297.195 427.803 296.51C428.84 296.048 429.955 295.786 431.089 295.738C431.886 295.738 432.315 295.799 432.315 295.861C430.849 296.061 429.42 296.474 428.072 297.086C426.659 297.793 425.445 298.842 424.541 300.138C423.455 301.732 422.874 303.616 422.874 305.544C422.823 307.453 423.483 309.314 424.725 310.765C425.23 311.332 425.87 311.762 426.587 312.015C427.303 312.268 428.071 312.336 428.82 312.212C429.322 312.097 429.794 311.879 430.206 311.57C430.618 311.262 430.96 310.871 431.211 310.422C431.555 309.748 431.567 309.294 431.641 309.307Z" fill="#F6865E"/>
<path d="M446.773 324.003C447.46 323.785 448.196 323.785 448.882 324.003C450.672 324.395 452.28 325.369 453.456 326.773L452.72 326.981C452.816 325.996 452.975 325.017 453.199 324.052C454.425 318.401 457.588 314.712 457.735 314.884C457.882 315.055 455.283 318.806 454.057 324.248C453.836 325.229 453.677 326.185 453.554 327.08L453.431 328.06L452.818 327.3C451.765 325.99 450.349 325.018 448.748 324.506C447.546 324.138 446.773 324.113 446.773 324.003Z" fill="#F6865E"/>
<path d="M446.366 286.594C446.574 286.692 445.728 288.273 443.791 289.046C441.854 289.818 440.113 289.438 440.198 289.217C440.284 288.997 441.78 288.997 443.448 288.249C445.115 287.501 446.17 286.435 446.366 286.594Z" fill="#F6865E"/>
<path d="M681.028 418.886L745.794 402.951C745.794 402.951 741.675 392.962 730.259 359.095C719.714 327.803 710.64 317.078 710.64 317.078C710.64 317.078 677.534 298.839 658.136 288.286L644.489 273.933V275.379L631.859 280.931L611.836 289.744L592.61 282.684L584.554 279.73L581.709 285.332L547.377 294.77C547.377 294.77 522.853 303.668 507.134 339.643C487.711 383.977 486.289 391.699 486.289 391.699L537.015 421.116L528.592 520.13L683.751 520.228L680.685 444.356L681.028 418.886Z" fill="#0693E3"/>
<path d="M672.12 340.808C672.105 340.271 672.162 339.735 672.291 339.214C672.551 337.774 672.962 336.364 673.517 335.01C675.366 330.507 678.421 326.601 682.346 323.721C687.496 320.037 693.623 317.96 699.953 317.752C700.483 317.691 701.018 317.691 701.547 317.752C701.547 317.874 699.267 317.874 695.686 318.585C691.012 319.487 686.589 321.394 682.726 324.175C678.893 327.002 675.863 330.778 673.934 335.132C673.192 336.977 672.585 338.874 672.12 340.808Z" fill="#263238"/>
<path d="M745.792 402.964L745.461 403.074L744.456 403.344L740.618 404.324L726.48 407.83L679.665 419.18L679.383 419.241L679.052 419.327L678.991 418.996C675.864 400.537 673.032 383.855 670.984 371.732C669.991 365.714 669.194 360.836 668.63 357.404C668.372 355.749 668.164 354.438 668.017 353.506C667.955 353.089 667.919 352.746 667.87 352.489C667.856 352.371 667.856 352.251 667.87 352.133C667.918 352.243 667.951 352.358 667.968 352.476C667.968 352.734 668.09 353.065 668.164 353.481C668.348 354.413 668.581 355.712 668.899 357.355C669.5 360.787 670.371 365.653 671.45 371.647C673.547 383.769 676.44 400.439 679.641 418.886L679.261 418.628L679.53 418.555L726.37 407.437L740.581 404.14L744.456 403.27L745.461 403.062C745.566 403.012 745.678 402.979 745.792 402.964Z" fill="#263238"/>
<path d="M581.71 285.332C581.828 285.652 581.907 285.985 581.943 286.324C582.066 287.072 582.225 288.004 582.421 289.131V289.046C586.638 294.218 591.357 298.961 596.51 303.203C597.147 303.717 597.785 304.22 598.423 304.71C599.036 305.2 599.722 305.654 600.237 305.397C600.752 305.139 601.034 304.306 601.464 303.681L602.567 301.768C604.026 299.317 605.424 297.111 606.638 295.309C607.852 293.507 608.906 292.098 609.667 291.154C610.047 290.676 610.353 290.32 610.574 290.087C610.795 289.855 610.905 289.732 610.93 289.744C610.608 290.283 610.256 290.803 609.875 291.301C609.176 292.294 608.183 293.752 607.018 295.566C605.853 297.38 604.566 299.587 603.07 302.063C602.726 302.688 602.359 303.288 601.991 303.975L601.451 304.98C601.257 305.385 600.945 305.723 600.556 305.948C600.337 306.057 600.096 306.114 599.851 306.114C599.606 306.114 599.365 306.057 599.146 305.948C598.767 305.76 598.413 305.525 598.092 305.25C597.442 304.759 596.865 304.257 596.154 303.73C590.919 299.475 586.206 294.616 582.115 289.254C581.992 288.114 581.882 287.17 581.796 286.423C581.717 286.065 581.688 285.698 581.71 285.332Z" fill="#263238"/>
<path d="M655.979 287.428C655.826 287.563 655.657 287.678 655.476 287.771L653.955 288.641L648.376 291.804C643.668 294.5 637.218 298.3 630.254 302.749C627.262 304.674 624.405 306.549 621.818 308.289L621.548 308.473L621.388 308.191C618.507 303.154 616.14 298.778 614.583 295.628C613.798 294.047 613.21 292.784 612.854 291.889C612.643 291.445 612.475 290.981 612.352 290.504C612.611 290.923 612.836 291.361 613.026 291.816C613.443 292.674 614.093 293.912 614.914 295.493C616.57 298.594 618.985 302.921 621.903 307.934L621.486 307.836C624.061 306.071 626.906 304.159 629.91 302.247C636.887 297.797 643.398 294.047 648.156 291.448C650.534 290.149 652.484 289.144 653.845 288.457L655.414 287.685C655.588 287.571 655.779 287.485 655.979 287.428Z" fill="#263238"/>
<path d="M620.553 358.74C620.251 358.772 619.947 358.772 619.646 358.74L617.058 358.507L607.58 357.49H607.359V357.257C607.592 350.932 607.899 342.683 608.23 333.662C608.671 323.586 609.076 314.467 609.37 307.775C609.542 304.526 609.689 301.867 609.787 299.93C609.844 299.056 609.893 298.345 609.934 297.797C609.941 297.545 609.974 297.295 610.032 297.05C610.064 297.298 610.064 297.549 610.032 297.797C610.032 298.361 610.032 299.023 610.032 299.942C610.032 301.879 609.898 304.539 609.812 307.787C609.566 314.491 609.235 323.611 608.855 333.686C608.463 342.707 608.107 350.944 607.825 357.281L607.617 357.036L617.058 358.262L619.633 358.629C619.943 358.63 620.252 358.667 620.553 358.74Z" fill="#263238"/>
<path d="M619.81 319.541C619.81 319.541 619.908 319.541 620.08 319.541C620.337 319.596 620.584 319.687 620.816 319.811C621.67 320.297 622.345 321.045 622.741 321.944C623.062 322.609 623.229 323.338 623.229 324.077C623.229 324.815 623.062 325.544 622.741 326.209C622.329 327 621.664 327.63 620.852 327.999C619.993 328.391 619.044 328.543 618.106 328.44C617.166 328.33 616.273 327.97 615.519 327.398C614.805 326.859 614.295 326.094 614.072 325.229C613.899 324.525 613.884 323.792 614.028 323.082C614.172 322.372 614.472 321.703 614.905 321.123C615.495 320.335 616.319 319.756 617.26 319.468C617.512 319.402 617.772 319.369 618.032 319.37C618.125 319.352 618.221 319.352 618.314 319.37C618.314 319.443 617.934 319.456 617.333 319.688C616.498 320.037 615.783 320.62 615.273 321.368C614.896 321.893 614.636 322.493 614.509 323.127C614.382 323.761 614.392 324.415 614.538 325.045C614.82 325.78 615.299 326.424 615.922 326.906C616.545 327.388 617.289 327.689 618.072 327.778C618.855 327.867 619.647 327.738 620.362 327.408C621.077 327.077 621.688 326.557 622.128 325.903C622.418 325.315 622.579 324.672 622.6 324.016C622.621 323.361 622.502 322.709 622.25 322.103C621.914 321.262 621.344 320.535 620.607 320.007C620.092 319.701 619.737 319.615 619.81 319.541Z" fill="#263238"/>
<path d="M618.897 340.281C618.987 340.264 619.078 340.264 619.167 340.281C619.424 340.335 619.672 340.426 619.903 340.55C620.757 341.036 621.432 341.784 621.828 342.683C622.149 343.348 622.316 344.077 622.316 344.816C622.316 345.554 622.149 346.283 621.828 346.948C621.416 347.739 620.751 348.369 619.94 348.738C619.077 349.131 618.123 349.283 617.181 349.179C616.245 349.066 615.357 348.706 614.606 348.137C613.892 347.598 613.382 346.834 613.159 345.968C612.992 345.25 612.989 344.503 613.15 343.784C613.311 343.064 613.633 342.391 614.091 341.813C614.676 341.024 615.503 340.448 616.445 340.17C616.696 340.096 616.956 340.059 617.218 340.06C617.311 340.043 617.406 340.043 617.5 340.06C617.5 340.133 617.119 340.146 616.519 340.379C615.682 340.724 614.966 341.308 614.459 342.058C614.082 342.583 613.821 343.183 613.694 343.817C613.567 344.451 613.577 345.105 613.723 345.735C614.005 346.47 614.484 347.114 615.107 347.596C615.731 348.078 616.474 348.38 617.257 348.468C618.04 348.557 618.832 348.429 619.548 348.098C620.263 347.767 620.873 347.247 621.313 346.593C621.603 346.005 621.765 345.362 621.786 344.706C621.807 344.051 621.687 343.399 621.436 342.793C621.099 341.952 620.529 341.225 619.792 340.697C619.241 340.44 618.873 340.354 618.897 340.281Z" fill="#263238"/>
<g opacity="0.3">
<path d="M612.339 290.075C612.107 290.541 615.503 304.073 617.992 312.898C618.252 313.815 618.748 314.647 619.431 315.312C620.114 315.977 620.959 316.451 621.883 316.687C622.807 316.923 623.776 316.912 624.694 316.656C625.612 316.4 626.447 315.907 627.115 315.227L652.729 289.156L621.646 308.044L612.339 290.075Z" fill="black"/>
</g>
<g opacity="0.3">
<path d="M583.414 290.59C583.414 290.59 589.361 311.268 600.838 312.996C600.838 312.996 604.516 313.131 605.411 310.14C606.307 307.149 610.905 289.744 610.905 289.744L600.286 305.679C593.598 301.983 587.83 296.825 583.414 290.59Z" fill="black"/>
</g>
<path d="M644.478 275.379L644.662 193.464C644.682 187.609 643.527 181.81 641.267 176.409C639.006 171.007 635.685 166.114 631.5 162.017C627.315 157.921 622.351 154.704 616.902 152.558C611.452 150.412 605.628 149.38 599.772 149.523H599.098C587.602 150.481 576.889 155.731 569.091 164.228C561.293 172.725 556.982 183.846 557.016 195.377C557.077 216.3 557.408 239 558.463 250.08C560.707 273.651 584.617 275.367 584.617 275.367C584.617 275.367 584.617 277.021 584.617 279.681L611.899 289.695L644.478 275.379Z" fill="#F9AD95"/>
<path d="M584.555 275.073C584.555 275.073 599.563 275.073 614.596 263.784C614.596 263.784 608.722 281.373 584.996 281.189L584.555 275.073Z" fill="#F6865E"/>
<g class="eyes">
<path d="M564.962 209.742C565.025 210.622 565.43 211.443 566.089 212.029C566.749 212.615 567.612 212.92 568.493 212.88C568.925 212.877 569.352 212.787 569.749 212.617C570.147 212.447 570.506 212.2 570.806 211.89C571.106 211.579 571.342 211.212 571.498 210.81C571.655 210.407 571.73 209.977 571.718 209.546C571.652 208.668 571.246 207.85 570.587 207.267C569.928 206.683 569.067 206.379 568.187 206.42C567.756 206.422 567.329 206.509 566.932 206.678C566.535 206.847 566.175 207.093 565.875 207.403C565.575 207.712 565.339 208.078 565.182 208.48C565.025 208.882 564.951 209.311 564.962 209.742Z" fill="#263238"/>
<path d="M563.035 204.876C563.489 205.28 565.892 203.184 569.521 202.89C573.151 202.596 575.959 204.189 576.314 203.711C576.486 203.503 575.996 202.743 574.769 201.995C573.113 201.03 571.198 200.602 569.288 200.77C567.4 200.917 565.608 201.665 564.175 202.902C563.133 203.871 562.814 204.68 563.035 204.876Z" fill="#263238"/>
</g>
<g class="eyes">
<path d="M599.462 207.413C599.525 208.293 599.93 209.114 600.589 209.7C601.249 210.286 602.112 210.592 602.993 210.551C603.425 210.548 603.852 210.459 604.25 210.289C604.647 210.119 605.006 209.871 605.306 209.561C605.606 209.25 605.842 208.883 605.998 208.481C606.155 208.078 606.23 207.649 606.218 207.217C606.152 206.339 605.746 205.522 605.087 204.938C604.428 204.354 603.567 204.051 602.687 204.091C602.256 204.093 601.829 204.181 601.432 204.349C601.035 204.518 600.675 204.764 600.375 205.074C600.075 205.383 599.839 205.75 599.682 206.151C599.526 206.553 599.451 206.982 599.462 207.413Z" fill="#263238"/>
<path d="M598.746 202.608C599.2 203.013 601.603 200.905 605.22 200.623C608.837 200.341 611.657 201.922 612.013 201.444C612.197 201.235 611.706 200.476 610.468 199.728C608.813 198.759 606.897 198.331 604.987 198.502C603.104 198.645 601.316 199.389 599.886 200.623C598.844 201.603 598.525 202.424 598.746 202.608Z" fill="#263238"/>
</g>
<path d="M587.804 230.579C587.804 230.371 585.523 230.162 581.832 230.003C580.9 230.003 580.005 229.868 579.797 229.255C579.638 228.306 579.775 227.33 580.189 226.461C580.876 224.144 581.587 221.717 582.347 219.18C585.315 208.835 587.387 200.353 586.97 200.23C586.553 200.108 583.794 208.418 580.839 218.763C580.128 221.313 579.449 223.764 578.804 226.117C578.315 227.284 578.25 228.585 578.62 229.795C578.781 230.111 579.013 230.386 579.298 230.599C579.583 230.811 579.913 230.956 580.263 231.02C580.784 231.119 581.316 231.147 581.844 231.106C585.474 230.959 587.816 230.787 587.804 230.579Z" fill="#263238"/>
<path d="M598.692 232.197C598.091 232.197 598.41 236.144 595.271 239.22C592.132 242.297 587.914 242.211 587.914 242.763C587.914 243.008 588.907 243.449 590.685 243.351C592.985 243.183 595.154 242.216 596.816 240.618C598.414 239.073 599.351 236.968 599.428 234.746C599.477 233.092 598.962 232.16 598.692 232.197Z" fill="#263238"/>
<path d="M596.633 188.476C597.075 189.432 600.655 188.66 604.947 188.819C609.238 188.978 612.782 189.861 613.272 188.929C613.493 188.488 612.818 187.605 611.347 186.772C609.409 185.726 607.247 185.163 605.045 185.13C602.853 185.035 600.669 185.455 598.669 186.355C597.16 187.176 596.437 188.022 596.633 188.476Z" fill="#263238"/>
<path d="M563.501 194.273C564.212 195.046 566.64 193.979 569.632 193.697C572.624 193.415 575.223 193.795 575.763 192.876C575.984 192.435 575.518 191.65 574.34 190.964C572.777 190.162 571.011 189.841 569.265 190.041C567.519 190.242 565.872 190.955 564.531 192.092C563.464 193.023 563.195 193.893 563.501 194.273Z" fill="#263238"/>
<path d="M616.898 169.722L617.033 169.808C621.037 172.457 623.862 176.55 624.918 181.232C624.918 181.403 624.991 181.563 625.028 181.71C626.512 188.365 626.904 195.193 628.449 201.861C629.994 208.528 629.675 213.566 636.358 215.062C638.102 215.44 639.92 215.284 641.574 214.612C643.228 213.941 644.641 212.786 645.627 211.299C646.115 210.325 646.315 209.232 646.204 208.149C646.118 191.797 649.416 185.448 647.969 168.46C647.788 166.184 647.067 163.985 645.867 162.043C644.667 160.102 643.021 158.473 641.066 157.294C637.29 155.038 632.728 152.758 628.927 154.953C625.126 157.147 620.626 164.979 617.818 168.374" fill="#263238"/>
<path d="M637.586 204.79C637.978 204.594 653.403 198.661 654.225 214.829C655.047 230.996 638.628 228.483 638.579 228.03C638.53 227.576 637.586 204.79 637.586 204.79Z" fill="#F9AD95"/>
<path d="M643.213 221.644C643.213 221.644 643.507 221.827 643.985 222.024C644.669 222.279 645.426 222.257 646.094 221.962C647.774 221.251 649.074 218.469 649.012 215.539C648.98 214.155 648.641 212.794 648.019 211.556C647.841 211.058 647.545 210.611 647.157 210.252C646.768 209.893 646.298 209.634 645.788 209.497C645.458 209.428 645.116 209.476 644.818 209.633C644.52 209.789 644.287 210.045 644.157 210.355C643.973 210.82 644.083 211.139 643.997 211.164C643.912 211.188 643.642 210.919 643.74 210.244C643.808 209.838 644.011 209.467 644.316 209.19C644.749 208.834 645.302 208.658 645.861 208.7C646.532 208.799 647.166 209.069 647.703 209.483C648.24 209.897 648.661 210.442 648.927 211.066C649.696 212.425 650.118 213.953 650.153 215.515C650.153 218.788 648.694 221.913 646.388 222.71C645.961 222.858 645.505 222.909 645.055 222.858C644.606 222.807 644.173 222.656 643.789 222.416C643.262 222.036 643.102 221.68 643.213 221.644Z" fill="#F6865E"/>
<path d="M629.689 157.404C633.122 150.626 621.473 142.266 613.307 140.416C605.141 138.565 594.915 143.308 587.263 146.544C582.359 148.616 577.601 151.337 572.329 151.557C568.785 151.704 565.315 150.699 561.882 149.804C558.507 148.689 554.94 148.272 551.398 148.579C547.891 149.118 544.421 151.288 543.342 154.707C542.263 158.127 544.568 162.405 548.112 162.601C543.44 160.517 537.248 164.268 536.942 169.367C536.635 174.466 542.324 178.952 547.205 177.444C544.752 175.9 541.491 179.062 542.018 181.906C542.545 184.75 545.304 186.613 548.038 187.544C555.003 189.996 562.752 188.353 569.545 185.436C576.338 182.519 582.469 178.327 589.164 175.25C595.859 172.174 607.041 166.67 614.178 168.558C619.426 169.931 623.484 175.777 626.255 174.184C627.555 173.346 628.64 172.216 629.424 170.883C630.207 169.551 630.668 168.053 630.768 166.511C630.903 163.421 630.539 160.329 629.689 157.355" fill="#263238"/>
<path d="M546.126 162.356C546.248 162.27 547.058 163.483 548.946 165.224C551.639 167.639 554.879 169.364 558.387 170.249C563.547 171.641 569.047 170.964 573.714 168.362C578.999 165.445 583.291 160.137 588.306 155.063C593.321 149.988 599.341 145.956 605.717 144.853C612.093 143.749 618.065 145.564 621.657 148.922C623.055 150.214 624.176 151.777 624.951 153.515C625.727 155.254 626.142 157.131 626.17 159.034C626.165 160.059 626.016 161.078 625.728 162.062C625.483 162.724 625.336 163.042 625.275 163.03C625.475 161.716 625.569 160.388 625.557 159.059C625.262 155.473 623.593 152.14 620.897 149.755C617.55 146.777 611.922 145.171 606.048 146.299C600.175 147.427 594.388 151.202 589.495 156.19C584.603 161.179 580.152 166.609 574.487 169.673C572.008 171.017 569.288 171.859 566.483 172.149C563.678 172.439 560.844 172.173 558.142 171.365C554.511 170.343 551.21 168.391 548.566 165.702C547.86 164.973 547.228 164.177 546.678 163.324C546.236 162.711 546.077 162.393 546.126 162.356Z" fill="#455A64"/>
<path d="M641.631 203.748C641.631 203.748 640.896 203.368 640.184 202.142C639.248 200.364 638.824 198.362 638.958 196.357C638.885 191.136 643.017 185.179 643.005 177.971C643.149 174.623 642.249 171.312 640.43 168.497C638.861 166.272 636.603 164.627 634.005 163.814C632.246 163.243 630.368 163.145 628.56 163.532C627.273 163.839 626.611 164.194 626.537 164.072C626.464 163.949 627.065 163.459 628.377 162.932C630.289 162.268 632.357 162.196 634.311 162.723C637.259 163.453 639.861 165.187 641.668 167.626C643.748 170.669 644.793 174.301 644.648 177.984C644.533 181.566 643.764 185.096 642.379 188.402C641.266 190.963 640.507 193.664 640.123 196.431C639.869 198.966 640.395 201.519 641.631 203.748Z" fill="#455A64"/>
<path d="M740.134 404.471L763.002 459.126C765.072 464.074 765.968 469.435 765.619 474.787C765.27 480.14 763.686 485.339 760.991 489.977C757.543 495.905 752.418 500.68 746.26 503.701C740.103 506.721 733.188 507.853 726.389 506.953L646.148 499.17L647.632 467.473L706.966 458.133L690.511 416.544L740.134 404.471Z" fill="#F9AD95"/>
<path d="M648.731 467.73C648.731 467.73 635.783 464.874 630.228 463.734C628.426 463.354 626.844 462.349 625.066 461.896C616.385 459.64 605.754 454.039 603.339 451.686C599.145 447.579 596.055 453.904 600.236 459.04C602.269 461.77 604.758 464.13 607.593 466.014L589.875 470.66C588.953 470.904 588.157 471.486 587.644 472.29L573.96 493.948C573.33 494.795 573.033 495.843 573.126 496.894C573.219 497.944 573.694 498.925 574.463 499.648C574.83 500.043 575.334 500.286 575.872 500.327C576.411 500.368 576.945 500.204 577.369 499.868L575.603 502.81C572.697 507.713 579.833 512.444 582.96 507.713C583.008 507.661 583.049 507.603 583.082 507.541L586.504 512.175C586.504 512.175 588.134 516.697 593.37 513.792C597.711 511.341 612.277 500.653 612.277 500.653C612.277 500.653 653.415 501.584 655.475 495.517L648.731 467.73Z" fill="#F9AD95"/>
<path d="M583.02 507.713C583.228 507.811 584.393 505.752 586.465 502.553C588.537 499.354 591.664 495.015 594.705 490.087C596.324 487.758 598.077 485.442 599.61 483.628C600.366 482.874 601.365 482.413 602.43 482.329L605.532 481.875C609.321 481.299 611.663 480.845 611.663 480.649C611.663 480.453 609.211 480.527 605.434 480.833L602.307 481.103C600.936 481.161 599.631 481.709 598.629 482.647C596.779 484.745 595.055 486.951 593.467 489.254C590.364 494.279 587.446 498.618 585.558 502.014C583.669 505.409 582.86 507.64 583.02 507.713Z" fill="#F6865E"/>
<path d="M577.374 499.819C577.864 500.163 582.487 492.159 589.108 483.101C590.763 480.858 592.321 478.529 594.246 477.597C596.204 476.756 598.22 476.055 600.278 475.501C601.658 475.108 603.07 474.833 604.496 474.68C605.502 474.606 606.054 474.68 606.09 474.594C606.127 474.508 605.575 474.202 604.496 474.104C602.999 474.023 601.497 474.147 600.033 474.472C597.862 474.893 595.736 475.517 593.682 476.335C591.107 477.56 589.599 480.012 587.906 482.206C585.03 486.121 582.404 490.215 580.047 494.463C578.22 497.625 577.227 499.758 577.374 499.819Z" fill="#F6865E"/>
<path d="M615.457 490.639C615.457 490.443 613.336 490.492 609.976 490.749L607.218 490.982C606.083 490.998 604.963 491.236 603.919 491.681C602.801 492.273 601.833 493.111 601.087 494.132L598.634 496.964C591.841 504.735 586.593 511.243 586.912 511.501C587.231 511.758 592.97 505.703 599.738 498.018L602.19 495.174C602.813 494.284 603.626 493.543 604.569 493.005C605.462 492.601 606.423 492.364 607.401 492.306L610.136 491.889C613.434 491.276 615.482 490.847 615.457 490.639Z" fill="#F6865E"/>
<path d="M625.728 465.303C625.728 464.691 620.039 464.409 613.148 465.156C606.257 465.904 600.727 467.363 600.886 467.816C601.046 468.27 606.465 467.277 613.344 466.59L622.123 465.72C623.336 465.706 624.544 465.566 625.728 465.303Z" fill="#F6865E"/>
<path d="M389.422 519.76C391.772 516.182 394.943 513.217 398.671 511.113C402.399 509.009 406.577 507.825 410.855 507.662C425.483 507.16 432.804 519.76 432.804 519.76H389.422Z" fill="#455A64"/>
<path d="M417.468 519.392C417.37 519.392 417.345 518.534 417.039 517.21C416.272 513.715 414.197 510.645 411.239 508.63C410.592 508.262 409.97 507.852 409.375 507.405C410.132 507.51 410.855 507.791 411.484 508.226C413.078 509.162 414.444 510.44 415.483 511.968C416.522 513.497 417.209 515.237 417.492 517.063C417.671 517.83 417.663 518.629 417.468 519.392Z" fill="#263238"/>
<path d="M668.225 519.76V519.662C668.199 518.19 667.596 516.787 666.546 515.755C665.496 514.724 664.082 514.146 662.609 514.146H538.006C536.517 514.146 535.089 514.737 534.035 515.79C532.982 516.843 532.391 518.271 532.391 519.76H668.225Z" fill="#455A64"/>
<path d="M603.68 471.577H386.244C384.322 471.577 382.479 470.814 381.12 469.455C379.761 468.097 378.997 466.254 378.997 464.333V326.244C378.997 324.323 379.761 322.48 381.12 321.122C382.479 319.763 384.322 319 386.244 319H603.68C604.359 319 605.011 319.27 605.492 319.75C605.972 320.231 606.242 320.882 606.242 321.562V469.015C606.242 469.695 605.972 470.346 605.492 470.827C605.011 471.307 604.359 471.577 603.68 471.577Z" fill="#455A64"/>
<path fill-rule="evenodd" clip-rule="evenodd" d="M478 402C478 402 478.051 390.286 478.051 389.5H478.037C478.037 387.028 478.77 384.611 480.144 382.555C481.518 380.499 483.47 378.897 485.754 377.951C488.039 377.005 490.552 376.758 492.977 377.24C495.402 377.723 497.629 378.914 499.377 380.662C501.125 382.411 502.316 384.638 502.797 387.063C502.872 387.436 502.928 387.811 502.968 388.187L490.031 388.243L490.042 390.818L502.973 390.761C502.851 391.967 502.554 393.154 502.085 394.286C501.138 396.57 499.535 398.522 497.479 399.895C495.423 401.268 493.006 402.001 490.534 402H478ZM503.03 389.928C503.041 389.607 503.04 389.285 503.026 388.963L503.03 389.928Z" fill="#0693E3"/>
<path d="M464.916 519.76H507.477V453.902H464.916V519.76Z" fill="#455A64"/>
<path d="M597.598 471.577H603.679C605.095 471.577 606.242 470.43 606.242 469.015V321.574C606.242 320.159 605.095 319.012 603.679 319.012H597.598C596.182 319.012 595.035 320.159 595.035 321.574V469.015C595.035 470.43 596.182 471.577 597.598 471.577Z" fill="#263238"/>
<path d="M464.742 442.05C464.914 442.05 465.098 459.442 465.147 480.905C465.196 502.367 465.147 519.76 464.914 519.76C464.681 519.76 464.558 502.367 464.509 480.905C464.46 459.442 464.619 442.05 464.742 442.05Z" fill="#263238"/>
<path d="M507.92 441.044C508.092 441.044 508.141 458.474 508.018 479.985C507.896 501.497 507.65 518.926 507.479 518.926C507.307 518.926 507.258 501.484 507.381 479.973C507.503 458.462 507.736 441.044 507.92 441.044Z" fill="#263238"/>
<path d="M580.187 458.302C580.178 458.213 580.178 458.122 580.187 458.033C580.187 457.824 580.187 457.567 580.187 457.261C580.187 456.55 580.187 455.581 580.187 454.343C580.187 451.769 580.187 448.117 580.076 443.52L580.285 443.729L532.06 443.839L532.379 443.52V451.046C532.379 453.498 532.379 455.949 532.379 458.278L532.072 457.971L566.466 458.106L576.582 458.192H579.316H579.88H580.138C579.835 458.209 579.532 458.209 579.23 458.192H576.569L566.515 458.29L531.913 458.425H531.594V443.545L531.913 443.226L580.138 443.349H580.334V443.545C580.334 448.19 580.248 451.892 580.223 454.49C580.223 455.716 580.223 456.66 580.223 457.359C580.227 457.674 580.215 457.989 580.187 458.302Z" fill="#263238"/>
<path d="M502.097 433.874C502.097 434.045 494.201 434.193 484.465 434.193C474.729 434.193 466.82 434.045 466.82 433.874C466.82 433.702 474.717 433.555 484.465 433.555C494.213 433.555 502.097 433.702 502.097 433.874Z" fill="#263238"/>
</g>
<defs>
<filter id="filter0_d_1286_5606" x="246" y="-5" width="160" height="160" filterUnits="userSpaceOnUse" color-interpolation-filters="sRGB">
<feFlood flood-opacity="0" result="BackgroundImageFix"/>
<feColorMatrix in="SourceAlpha" type="matrix" values="0 0 0 0 0 0 0 0 0 0 0 0 0 0 0 0 0 0 127 0" result="hardAlpha"/>
<feOffset dy="4"/>
<feGaussianBlur stdDeviation="20"/>
<feComposite in2="hardAlpha" operator="out"/>
<feColorMatrix type="matrix" values="0 0 0 0 0.0352941 0 0 0 0 0.0352941 0 0 0 0 0.0470588 0 0 0 0.1 0"/>
<feBlend mode="normal" in2="BackgroundImageFix" result="effect1_dropShadow_1286_5606"/>
<feBlend mode="normal" in="SourceGraphic" in2="effect1_dropShadow_1286_5606" result="shape"/>
</filter>
<filter id="filter1_d_1286_5606" x="169" y="382" width="160" height="160" filterUnits="userSpaceOnUse" color-interpolation-filters="sRGB">
<feFlood flood-opacity="0" result="BackgroundImageFix"/>
<feColorMatrix in="SourceAlpha" type="matrix" values="0 0 0 0 0 0 0 0 0 0 0 0 0 0 0 0 0 0 127 0" result="hardAlpha"/>
<feOffset dy="4"/>
<feGaussianBlur stdDeviation="20"/>
<feComposite in2="hardAlpha" operator="out"/>
<feColorMatrix type="matrix" values="0 0 0 0 0.0352941 0 0 0 0 0.0352941 0 0 0 0 0.0470588 0 0 0 0.1 0"/>
<feBlend mode="normal" in2="BackgroundImageFix" result="effect1_dropShadow_1286_5606"/>
<feBlend mode="normal" in="SourceGraphic" in2="effect1_dropShadow_1286_5606" result="shape"/>
</filter>
<filter id="filter2_d_1286_5606" x="-16" y="237" width="160" height="160" filterUnits="userSpaceOnUse" color-interpolation-filters="sRGB">
<feFlood flood-opacity="0" result="BackgroundImageFix"/>
<feColorMatrix in="SourceAlpha" type="matrix" values="0 0 0 0 0 0 0 0 0 0 0 0 0 0 0 0 0 0 127 0" result="hardAlpha"/>
<feOffset dy="4"/>
<feGaussianBlur stdDeviation="20"/>
<feComposite in2="hardAlpha" operator="out"/>
<feColorMatrix type="matrix" values="0 0 0 0 0.0352941 0 0 0 0 0.0352941 0 0 0 0 0.0470588 0 0 0 0.1 0"/>
<feBlend mode="normal" in2="BackgroundImageFix" result="effect1_dropShadow_1286_5606"/>
<feBlend mode="normal" in="SourceGraphic" in2="effect1_dropShadow_1286_5606" result="shape"/>
</filter>
<filter id="filter3_d_1286_5606" x="69" y="42" width="160" height="160" filterUnits="userSpaceOnUse" color-interpolation-filters="sRGB">
<feFlood flood-opacity="0" result="BackgroundImageFix"/>
<feColorMatrix in="SourceAlpha" type="matrix" values="0 0 0 0 0 0 0 0 0 0 0 0 0 0 0 0 0 0 127 0" result="hardAlpha"/>
<feOffset dy="4"/>
<feGaussianBlur stdDeviation="20"/>
<feComposite in2="hardAlpha" operator="out"/>
<feColorMatrix type="matrix" values="0 0 0 0 0.0352941 0 0 0 0 0.0352941 0 0 0 0 0.0470588 0 0 0 0.1 0"/>
<feBlend mode="normal" in2="BackgroundImageFix" result="effect1_dropShadow_1286_5606"/>
<feBlend mode="normal" in="SourceGraphic" in2="effect1_dropShadow_1286_5606" result="shape"/>
</filter>
<filter id="filter4_d_1286_5606" x="153" y="211" width="160" height="160" filterUnits="userSpaceOnUse" color-interpolation-filters="sRGB">
<feFlood flood-opacity="0" result="BackgroundImageFix"/>
<feColorMatrix in="SourceAlpha" type="matrix" values="0 0 0 0 0 0 0 0 0 0 0 0 0 0 0 0 0 0 127 0" result="hardAlpha"/>
<feOffset dy="4"/>
<feGaussianBlur stdDeviation="20"/>
<feComposite in2="hardAlpha" operator="out"/>
<feColorMatrix type="matrix" values="0 0 0 0 0.0352941 0 0 0 0 0.0352941 0 0 0 0 0.0470588 0 0 0 0.1 0"/>
<feBlend mode="normal" in2="BackgroundImageFix" result="effect1_dropShadow_1286_5606"/>
<feBlend mode="normal" in="SourceGraphic" in2="effect1_dropShadow_1286_5606" result="shape"/>
</filter>
<filter id="filter5_d_1286_5606" x="307" y="134" width="160" height="160" filterUnits="userSpaceOnUse" color-interpolation-filters="sRGB">
<feFlood flood-opacity="0" result="BackgroundImageFix"/>
<feColorMatrix in="SourceAlpha" type="matrix" values="0 0 0 0 0 0 0 0 0 0 0 0 0 0 0 0 0 0 127 0" result="hardAlpha"/>
<feOffset dy="4"/>
<feGaussianBlur stdDeviation="20"/>
<feComposite in2="hardAlpha" operator="out"/>
<feColorMatrix type="matrix" values="0 0 0 0 0.0352941 0 0 0 0 0.0352941 0 0 0 0 0.0470588 0 0 0 0.1 0"/>
<feBlend mode="normal" in2="BackgroundImageFix" result="effect1_dropShadow_1286_5606"/>
<feBlend mode="normal" in="SourceGraphic" in2="effect1_dropShadow_1286_5606" result="shape"/>
</filter>
<filter id="filter6_d_1286_5606" x="453" y="-9" width="160" height="160" filterUnits="userSpaceOnUse" color-interpolation-filters="sRGB">
<feFlood flood-opacity="0" result="BackgroundImageFix"/>
<feColorMatrix in="SourceAlpha" type="matrix" values="0 0 0 0 0 0 0 0 0 0 0 0 0 0 0 0 0 0 127 0" result="hardAlpha"/>
<feOffset dy="4"/>
<feGaussianBlur stdDeviation="20"/>
<feComposite in2="hardAlpha" operator="out"/>
<feColorMatrix type="matrix" values="0 0 0 0 0.0352941 0 0 0 0 0.0352941 0 0 0 0 0.0470588 0 0 0 0.1 0"/>
<feBlend mode="normal" in2="BackgroundImageFix" result="effect1_dropShadow_1286_5606"/>
<feBlend mode="normal" in="SourceGraphic" in2="effect1_dropShadow_1286_5606" result="shape"/>
</filter>
<clipPath id="clip0_1286_5606">
<rect width="800" height="520" fill="white"/>
</clipPath>
</defs>
</svg>
