<svg width="155" height="45" viewBox="0 0 155 45" fill="none" xmlns="http://www.w3.org/2000/svg">
<path d="M20.089 10.7479C20.2663 10.4464 20.4967 10.1567 20.8279 10.0147C20.9639 9.99109 21.0997 10.003 21.2356 10.003H27.9276C27.7326 10.1684 27.5434 10.3399 27.4134 10.5645C27.0705 11.1261 26.8398 11.7527 26.6272 12.3793C26.0241 14.2712 25.6044 16.216 25.1965 18.1609C25.0126 19.042 24.8372 19.9249 24.6704 20.8094C24.1619 23.6943 23.6358 26.5731 22.9796 29.4283C22.6664 30.7467 22.3471 32.0649 21.8624 33.3359C21.6377 33.8621 21.419 34.4235 20.9876 34.8137C20.8871 34.9025 20.7865 35.0147 20.6445 34.9971H14.733C14.3311 34.9852 13.935 35.0206 13.533 34.9793C13.7991 34.7726 14.0355 34.5241 14.1892 34.2285C14.6325 33.3831 14.9103 32.4669 15.1764 31.5565C15.5903 30.0904 15.9211 28.6067 16.2347 27.1228C16.4297 26.1475 16.6602 25.1779 16.8021 24.1966C16.9617 23.103 17.2041 22.0212 17.3992 20.9335C17.7066 19.3313 18.0316 17.7295 18.3923 16.1392C18.6819 14.8978 18.9775 13.662 19.3736 12.4503C19.5689 11.865 19.7813 11.2858 20.089 10.7479Z" fill="#EB7077" stroke="#EB7077" stroke-width="0.14954"/>
<path d="M27.9289 10.0036C28.1001 10.0036 28.2715 9.9977 28.443 10.0036C28.8213 10.2046 29.1406 10.5237 29.3179 10.9198C29.5543 11.3691 29.7496 11.8421 29.9267 12.3268C30.518 14.1535 30.92 16.0334 31.322 17.9073C31.6647 19.5862 31.9901 21.271 32.2973 22.9617C32.3211 23.0504 32.2916 23.1746 32.4097 23.1982C31.9839 25.4209 31.5644 27.6495 31.0324 29.8547C30.7425 31.0429 30.4351 32.2252 29.9979 33.3721C29.7612 33.9454 29.5189 34.572 29.0163 34.9801C28.6972 35.0509 28.4666 34.8086 28.2717 34.5898C27.9348 34.1583 27.7276 33.6499 27.5266 33.1414C26.8586 31.3209 26.4508 29.4232 26.0371 27.5314C25.7237 26.0593 25.4458 24.5757 25.1561 23.0979C25.0259 22.3468 24.8488 21.6079 24.7484 20.8573C24.7306 20.8455 24.689 20.8217 24.6714 20.8101C24.8382 19.9256 25.0136 19.0427 25.1975 18.1616C25.6054 16.2166 26.0253 14.2716 26.6282 12.3801C26.841 11.7533 27.0716 11.1268 27.4145 10.5653C27.5446 10.3405 27.7336 10.169 27.9287 10.0036H27.9289Z" fill="#F6A2AD" stroke="#F6A2AD" stroke-width="0.14954"/>
<path d="M35.3229 11.0251C35.536 10.6173 35.7959 10.1621 36.2571 10.0084C38.6041 9.99651 40.9511 10.0025 43.2979 10.0025C43.079 10.2211 42.8486 10.4399 42.7006 10.7177C42.2455 11.5335 41.9794 12.4381 41.7076 13.3307C41.01 15.7899 40.5194 18.3022 40.0522 20.8146C39.6208 23.2917 39.1596 25.7685 38.6336 28.2338C38.3617 29.4751 38.0778 30.7106 37.7174 31.9342C37.4867 32.691 37.2445 33.4536 36.866 34.1571C36.6827 34.4762 36.4698 34.8252 36.1212 34.9906C33.8806 35.0084 31.6342 34.9906 29.3938 34.9964C29.2696 34.9964 29.1396 34.9964 29.0154 34.9788C29.5179 34.571 29.7602 33.9442 29.9969 33.3707C30.4343 32.2241 30.7415 31.0417 31.0313 29.8535C31.5633 27.6484 31.983 25.4199 32.4087 23.197C32.9229 20.3299 33.4611 17.4628 34.1467 14.6311C34.4658 13.4074 34.7733 12.166 35.3231 11.0251H35.3229Z" fill="#EB7077" stroke="#EB7077" stroke-width="0.14954"/>
<path d="M43.2982 10.0036C43.4873 10.0036 43.6824 9.9977 43.8716 10.0036C44.179 10.1633 44.3978 10.4351 44.5929 10.7129C44.912 11.2213 45.113 11.7948 45.3199 12.3564C45.8106 13.8639 46.1772 15.4128 46.5141 16.9615C46.9634 19.0483 47.3535 21.1469 47.7378 23.2454C47.8323 23.748 47.9268 24.2562 47.986 24.7648L48.0746 24.8535C47.862 25.1491 47.7791 25.5038 47.661 25.8407C47.2885 27.0408 47.0461 28.2822 46.8392 29.5178C46.6797 30.4872 46.4609 31.4509 46.1594 32.3849C45.9348 33.0765 45.6628 33.7622 45.2137 34.3415C45.0006 34.6195 44.711 34.8321 44.3918 34.974C43.9012 35.0272 43.6114 34.5544 43.375 34.2056C42.8843 33.3484 42.6184 32.3908 42.3345 31.4566C41.4005 27.9983 40.7916 24.4574 40.1355 20.94C40.1332 20.914 40.1245 20.889 40.11 20.8673C40.0955 20.8455 40.0758 20.8279 40.0526 20.8158C40.5198 18.3034 41.0104 15.791 41.708 13.3319C41.9798 12.4392 42.2459 11.5347 42.7011 10.7188C42.8489 10.441 43.0794 10.2222 43.2982 10.0036ZM8 23.4524C8.15391 23.4405 8.30763 23.417 8.4671 23.417H14.9107C15.1826 23.4524 15.4665 23.4289 15.7266 23.5472C16.1076 23.7037 16.4401 23.9587 16.6901 24.2861C16.7198 24.2683 16.773 24.221 16.8025 24.1973C16.6607 25.1785 16.4301 26.148 16.2351 27.1235C15.9217 28.6073 15.5907 30.0911 15.1768 31.5571C14.9107 32.4676 14.633 33.3838 14.1896 34.2291C14.0359 34.5247 13.7995 34.773 13.5334 34.9799C13.4329 34.9977 13.3561 34.9267 13.2732 34.8735C12.9954 34.6962 12.8358 34.3888 12.6645 34.111C11.8545 32.2666 11.7659 30.227 11.2634 28.2998C11.0091 27.3364 10.6958 26.3786 10.2348 25.4919C9.9509 24.9597 9.60229 24.4515 9.14707 24.0435C8.81015 23.7717 8.41982 23.5529 8.00019 23.4524H8Z" fill="#F6A2AD" stroke="#F6A2AD" stroke-width="0.14954"/>
<path d="M48.5952 24.0669C48.9675 23.6471 49.5233 23.3812 50.085 23.4048H54.9325C55.6063 23.4166 56.286 23.3812 56.9601 23.4226C56.759 23.5584 56.5167 23.6117 56.3039 23.724C55.565 24.061 54.9324 24.6224 54.5304 25.326C53.8861 26.4493 53.6613 27.738 53.4722 29.003C53.283 30.2445 53.289 31.5273 52.887 32.7333C52.6151 33.5787 52.2012 34.4298 51.4859 34.9855C49.2633 35.0093 47.0404 34.9914 44.8236 34.9974C44.6758 34.9974 44.534 35.0032 44.3921 34.9736C44.7112 34.832 45.0009 34.6191 45.2138 34.3411C45.6631 33.7619 45.935 33.0761 46.1596 32.3845C46.4611 31.4503 46.6799 30.4869 46.8394 29.5174C47.0463 28.2819 47.2887 27.0403 47.6612 25.8404C47.7793 25.5034 47.8622 25.1487 48.0749 24.8531C48.2523 24.593 48.3704 24.2915 48.5952 24.0669Z" fill="#EB7077" stroke="#EB7077" stroke-width="0.14954"/>
<path d="M64.56 28V17.71H66.478L67.304 23.044L67.374 23.59H67.402L67.472 23.044L68.298 17.71H70.216V28H68.816V21.098H68.732L68.676 21.532L67.78 28H66.996L66.1 21.532L66.044 21.098H65.96V28H64.56ZM72.0063 28L73.5603 17.71H75.4083L76.9623 28H75.4923L75.2123 25.9H73.7563L73.4763 28H72.0063ZM73.9663 24.304H75.0023L74.5683 20.846L74.5263 20.3H74.4423L74.4003 20.846L73.9663 24.304ZM79.0534 28V19.264H77.6254V17.71H81.9934V19.264H80.5654V28H79.0534ZM83.6738 28V17.71H87.1318V19.264H85.1858V22.036H86.5858V23.548H85.1858V26.446H87.1318V28H83.6738ZM89.2339 28V17.71H90.7459C91.6512 17.71 92.3186 17.962 92.7479 18.466C93.1772 18.9653 93.3919 19.7027 93.3919 20.678C93.3919 21.2567 93.2892 21.7583 93.0839 22.183C92.8832 22.603 92.6382 22.911 92.3489 23.107L93.3779 28H91.8659L91.0119 23.66H90.7459V28H89.2339ZM90.7459 22.26C91.0259 22.26 91.2476 22.1993 91.4109 22.078C91.5742 21.952 91.6909 21.7747 91.7609 21.546C91.8309 21.3173 91.8659 21.0467 91.8659 20.734C91.8659 20.244 91.7842 19.8683 91.6209 19.607C91.4622 19.341 91.1706 19.208 90.7459 19.208V22.26ZM95.2178 28V17.71H96.7298V28H95.2178ZM98.5215 28L100.075 17.71H101.923L103.477 28H102.007L101.727 25.9H100.271L99.9915 28H98.5215ZM100.481 24.304H101.517L101.083 20.846L101.041 20.3H100.957L100.915 20.846L100.481 24.304ZM105.258 28V17.71H106.77V26.6H108.772V28H105.258ZM110.367 28V17.71H111.879V28H110.367ZM113.635 28V26.376L116.001 19.208H113.971V17.71H117.639V19.208L115.231 26.502H117.639V28H113.635ZM119.395 28V17.71H122.853V19.264H120.907V22.036H122.307V23.548H120.907V26.446H122.853V28H119.395ZM130.041 28.112C129.612 28.112 129.246 28.0163 128.942 27.825C128.644 27.629 128.415 27.363 128.256 27.027C128.102 26.691 128.025 26.3107 128.025 25.886V19.824C128.025 19.404 128.105 19.026 128.263 18.69C128.427 18.354 128.66 18.088 128.963 17.892C129.267 17.696 129.626 17.598 130.041 17.598C130.354 17.598 130.634 17.6563 130.881 17.773C131.129 17.8897 131.339 18.0507 131.511 18.256C131.689 18.4567 131.824 18.6923 131.917 18.963C132.011 19.229 132.057 19.516 132.057 19.824V21.238H130.643V19.824C130.643 19.6093 130.599 19.4297 130.51 19.285C130.422 19.1403 130.275 19.068 130.069 19.068C129.883 19.068 129.747 19.1427 129.663 19.292C129.579 19.4413 129.537 19.6187 129.537 19.824V25.886C129.537 26.0913 129.582 26.2687 129.67 26.418C129.764 26.5673 129.897 26.642 130.069 26.642C130.279 26.642 130.426 26.5697 130.51 26.425C130.599 26.2803 130.643 26.1007 130.643 25.886V24.472H132.057V25.886C132.057 26.306 131.976 26.684 131.812 27.02C131.649 27.356 131.416 27.622 131.112 27.818C130.814 28.014 130.457 28.112 130.041 28.112ZM135.913 28.112C135.498 28.112 135.152 28.0443 134.877 27.909C134.602 27.769 134.385 27.5683 134.226 27.307C134.067 27.0457 133.953 26.7307 133.883 26.362C133.818 25.9933 133.785 25.578 133.785 25.116L135.269 24.976C135.269 25.2 135.276 25.417 135.29 25.627C135.309 25.8323 135.339 26.019 135.381 26.187C135.428 26.3503 135.493 26.481 135.577 26.579C135.666 26.677 135.778 26.726 135.913 26.726C136.137 26.726 136.296 26.6233 136.389 26.418C136.482 26.208 136.529 25.956 136.529 25.662C136.529 25.368 136.452 25.0623 136.298 24.745C136.144 24.4277 135.96 24.1267 135.745 23.842C135.381 23.3567 135.061 22.9063 134.786 22.491C134.515 22.0757 134.303 21.6673 134.149 21.266C134 20.8647 133.925 20.4447 133.925 20.006C133.925 19.6607 133.969 19.3433 134.058 19.054C134.147 18.76 134.275 18.5057 134.443 18.291C134.616 18.0717 134.823 17.9013 135.066 17.78C135.309 17.6587 135.586 17.598 135.899 17.598C136.286 17.598 136.613 17.6633 136.879 17.794C137.15 17.9247 137.367 18.1113 137.53 18.354C137.698 18.5967 137.819 18.886 137.894 19.222C137.973 19.5533 138.013 19.922 138.013 20.328L136.529 20.468C136.529 20.2953 136.52 20.1227 136.501 19.95C136.487 19.7727 136.459 19.6117 136.417 19.467C136.375 19.3223 136.314 19.2057 136.235 19.117C136.156 19.0283 136.053 18.984 135.927 18.984C135.731 18.984 135.596 19.068 135.521 19.236C135.446 19.3993 135.409 19.6327 135.409 19.936C135.409 20.328 135.514 20.706 135.724 21.07C135.934 21.434 136.216 21.8587 136.571 22.344C136.996 22.918 137.341 23.4453 137.607 23.926C137.878 24.4067 138.013 24.9387 138.013 25.522C138.013 25.8907 137.973 26.2337 137.894 26.551C137.815 26.8637 137.689 27.1367 137.516 27.37C137.348 27.6033 137.131 27.7853 136.865 27.916C136.604 28.0467 136.286 28.112 135.913 28.112ZM141.623 28.112C141.208 28.112 140.863 28.0443 140.587 27.909C140.312 27.769 140.095 27.5683 139.936 27.307C139.778 27.0457 139.663 26.7307 139.593 26.362C139.528 25.9933 139.495 25.578 139.495 25.116L140.979 24.976C140.979 25.2 140.986 25.417 141 25.627C141.019 25.8323 141.049 26.019 141.091 26.187C141.138 26.3503 141.203 26.481 141.287 26.579C141.376 26.677 141.488 26.726 141.623 26.726C141.847 26.726 142.006 26.6233 142.099 26.418C142.193 26.208 142.239 25.956 142.239 25.662C142.239 25.368 142.162 25.0623 142.008 24.745C141.854 24.4277 141.67 24.1267 141.455 23.842C141.091 23.3567 140.772 22.9063 140.496 22.491C140.226 22.0757 140.013 21.6673 139.859 21.266C139.71 20.8647 139.635 20.4447 139.635 20.006C139.635 19.6607 139.68 19.3433 139.768 19.054C139.857 18.76 139.985 18.5057 140.153 18.291C140.326 18.0717 140.534 17.9013 140.776 17.78C141.019 17.6587 141.297 17.598 141.609 17.598C141.997 17.598 142.323 17.6633 142.589 17.794C142.86 17.9247 143.077 18.1113 143.24 18.354C143.408 18.5967 143.53 18.886 143.604 19.222C143.684 19.5533 143.723 19.922 143.723 20.328L142.239 20.468C142.239 20.2953 142.23 20.1227 142.211 19.95C142.197 19.7727 142.169 19.6117 142.127 19.467C142.085 19.3223 142.025 19.2057 141.945 19.117C141.866 19.0283 141.763 18.984 141.637 18.984C141.441 18.984 141.306 19.068 141.231 19.236C141.157 19.3993 141.119 19.6327 141.119 19.936C141.119 20.328 141.224 20.706 141.434 21.07C141.644 21.434 141.927 21.8587 142.281 22.344C142.706 22.918 143.051 23.4453 143.317 23.926C143.588 24.4067 143.723 24.9387 143.723 25.522C143.723 25.8907 143.684 26.2337 143.604 26.551C143.525 26.8637 143.399 27.1367 143.226 27.37C143.058 27.6033 142.841 27.7853 142.575 27.916C142.314 28.0467 141.997 28.112 141.623 28.112Z" fill="#EB7077"/>
</svg>
