<svg width="155" height="45" viewBox="0 0 155 45" fill="none" xmlns="http://www.w3.org/2000/svg">
<path d="M51.0035 37.9999C53.7622 37.9999 56.0018 35.7604 56.0018 33.0017V28.0034H51.0035C48.2448 28.0034 46.0052 30.2429 46.0052 33.0017C46.0052 35.7604 48.2448 37.9999 51.0035 37.9999Z" fill="#0ACF83"/>
<path d="M46 23.0002C46 20.2415 48.2395 18.002 50.9983 18.002H55.9965V28.0037H50.9983C48.2395 28.0037 46 25.7642 46 23.0055V23.0002Z" fill="#A259FF"/>
<path d="M46 12.9983C46 10.2395 48.2395 8 50.9983 8H55.9965V18.0018H50.9983C48.2395 18.0018 46 15.7623 46 13.0035V12.9983Z" fill="#F24E1E"/>
<path d="M55.9546 8H60.9528C63.7116 8 65.9511 10.2395 65.9511 12.9983C65.9511 15.757 63.7116 17.9965 60.9528 17.9965H55.9546V8Z" fill="#FF7262"/>
<path d="M66.0035 23.0002C66.0035 25.759 63.764 27.9985 61.0053 27.9985C58.2465 27.9985 55.9546 25.759 55.9546 23.0002C55.9546 20.2415 58.1941 18.002 60.9528 18.002C63.7116 18.002 65.9511 20.2415 65.9511 23.0002H66.0035Z" fill="#1ABCFE"/>
<path d="M71.4686 16.2866V26.7657H72.8165V21.7622H76.0578V20.4615H72.8165V17.5978H77.0281V16.2866H71.4686ZM79.4669 18.416C79.9546 18.416 80.348 18.0226 80.348 17.5349C80.348 17.0471 79.9494 16.7062 79.4669 16.7062C78.9844 16.7062 78.5857 17.0996 78.5857 17.5873C78.5857 17.8233 78.6802 18.0436 78.848 18.2167C79.0158 18.3898 79.2361 18.4789 79.4774 18.4789L79.4669 18.416ZM78.7851 19.7377V26.7657H80.0805V19.7377H78.7431H78.7851ZM85.1417 19.5279C83.348 19.5279 82.0997 21.1013 82.0997 22.8426C82.0997 24.5838 83.3585 26.1468 85.1417 26.1468C85.5128 26.1533 85.8811 26.0825 86.2233 25.9389C86.5655 25.7954 86.8741 25.5822 87.1295 25.3129V26.2464C87.1257 26.8073 86.9081 27.3457 86.5211 27.7517C86.3256 27.9512 86.0921 28.1096 85.8346 28.2177C85.577 28.3258 85.3004 28.3813 85.0211 28.3811C84.5922 28.3675 84.1765 28.229 83.8253 27.9825L83.1435 29.152C83.6671 29.4888 84.2718 29.6781 84.8939 29.7C85.5161 29.7219 86.1326 29.5757 86.6786 29.2766C87.2247 28.9776 87.6799 28.5368 87.9965 28.0008C88.313 27.4647 88.4792 26.8532 88.4774 26.2307V19.7272H87.1295V20.3566C86.8741 20.0873 86.5655 19.8741 86.2233 19.7305C85.8811 19.5869 85.5128 19.5161 85.1417 19.5226V19.5279ZM83.4529 22.8426C83.4222 22.5016 83.4874 22.1588 83.6413 21.853C83.7951 21.5471 84.0314 21.2904 84.3235 21.1118C84.9214 20.7447 85.6714 20.7447 86.2641 21.1118C86.8567 21.4789 87.1924 22.1503 87.1347 22.8426C87.1654 23.1836 87.1002 23.5263 86.9463 23.8322C86.7925 24.138 86.5562 24.3948 86.2641 24.5734C85.6662 24.9405 84.9162 24.9405 84.3235 24.5734C83.7309 24.2062 83.3952 23.5349 83.4529 22.8426Z" fill="black"/>
<path d="M93.3393 20.9022C92.9516 20.9035 92.5802 21.0582 92.3061 21.3323C92.032 21.6064 91.8774 21.9778 91.876 22.3655V26.813H90.5281V19.785H91.876V20.3777C92.2851 19.8322 92.9354 19.5175 93.6173 19.528C94.4774 19.5071 95.2799 19.9686 95.7047 20.7186C96.2292 19.9843 96.9844 19.5385 97.8026 19.528C99.3393 19.528 100.294 20.7658 100.299 22.2973V26.7711H98.9512V22.313C98.9907 22.0353 98.9498 21.7521 98.8335 21.4969C98.7171 21.2417 98.53 21.0251 98.2945 20.8728C98.0589 20.7206 97.7847 20.639 97.5042 20.6377C97.2237 20.6363 96.9487 20.7154 96.7117 20.8654C96.476 21.0191 96.2894 21.2372 96.1741 21.4938C96.0588 21.7504 96.0197 22.0348 96.0613 22.313V26.7606H94.7659V22.3182C94.7645 21.9306 94.6099 21.5592 94.3357 21.2851C94.0616 21.011 93.6902 20.8563 93.3026 20.855L93.3393 20.9022ZM107.5 20.535C107.193 20.2149 106.824 19.9609 106.416 19.7886C106.007 19.6163 105.568 19.5294 105.124 19.5333C103.116 19.5333 101.715 21.2326 101.715 23.2046C101.715 25.1766 103.131 26.876 105.124 26.876C105.568 26.8798 106.007 26.7929 106.416 26.6206C106.824 26.4484 107.193 26.1943 107.5 25.8742V26.6714H108.848V19.6434H107.5V20.535ZM103.042 23.2623C102.974 22.4231 103.383 21.6154 104.102 21.1749C104.82 20.7343 105.675 20.7343 106.441 21.1749C106.791 21.3926 107.076 21.7023 107.262 22.0704C107.449 22.4384 107.532 22.8507 107.5 23.2623C107.568 24.1015 107.159 24.9092 106.441 25.3497C105.722 25.7903 104.867 25.7903 104.102 25.3497C103.751 25.1321 103.467 24.8223 103.28 24.4542C103.093 24.0862 103.011 23.6739 103.042 23.2623Z" fill="black"/>
</svg>
