<svg width="120" height="70" viewBox="0 0 120 70" fill="none" xmlns="http://www.w3.org/2000/svg">
<g clip-path="url(#clip0_396_493)">
<path d="M31.6376 27.2786C34.8219 27.2786 36.3755 28.8818 36.3755 31.4707C36.3755 33.4156 35.5152 34.5852 33.7562 35.032C36.0673 35.4262 37.2101 36.714 37.2101 38.9743C37.2101 41.5369 35.5152 43.2847 32.0228 43.2847H25.5645V27.2786H31.6376ZM27.7087 29.3681V34.1384H31.3552C33.3838 34.1384 34.2184 33.1922 34.2184 31.6415C34.2184 30.0908 33.3196 29.3549 31.3552 29.3549L27.7087 29.3681ZM27.7087 36.0964V41.0769H32.087C34.1414 41.0769 35.0658 40.3148 35.0658 38.7115C35.0658 37.0032 34.1799 36.0833 32.0485 36.0833L27.7087 36.0964ZM40.7025 26.4244C41.4343 26.3719 42.0763 26.9369 42.1277 27.686V27.8831C42.1277 28.6847 41.4857 29.3418 40.7025 29.3418C39.9193 29.3418 39.2773 28.6847 39.2773 27.8831C39.2259 27.1341 39.778 26.477 40.5099 26.4244C40.5741 26.4113 40.6383 26.4113 40.7025 26.4244ZM39.6625 31.1027H41.7168V43.2847H39.6625V31.1027ZM49.5234 41.2346C49.9599 41.2215 50.3836 41.1689 50.8073 41.0638V43.0876C50.3579 43.219 49.8957 43.2847 49.4335 43.2847C46.8784 43.2847 45.6458 41.7472 45.6458 39.4869V33.0476H43.7198V31.1027H45.6458V28.5139H47.6359V31.1027H50.8073V33.0476H47.6359V39.4474C47.6359 40.5119 48.2522 41.2346 49.5234 41.2346ZM59.2559 43.5212C57.5225 43.5212 56.1872 42.7196 55.4682 41.1295V43.2715H53.4138V26.0039H55.481V33.2842C56.2385 31.6809 57.6766 30.853 59.4998 30.853C62.6712 30.853 64.2634 33.5996 64.2634 37.1871C64.2505 40.6301 62.5942 43.5212 59.2559 43.5212ZM58.9477 32.7979C57.1116 32.7979 55.481 33.9938 55.481 36.7009V37.6734C55.481 40.3805 56.9832 41.5763 58.7294 41.5763C61.0406 41.5763 62.2347 40.0125 62.2347 37.1871C62.209 34.2698 61.0663 32.7979 58.9477 32.7979ZM66.3947 31.1027H68.4491V38.475C68.4491 40.6696 69.3094 41.642 71.261 41.642C73.1613 41.642 74.4709 40.3542 74.4709 37.8836V31.1027H76.5253V43.2847H74.4709V41.2872C73.7262 42.6933 72.2753 43.5606 70.7089 43.5344C67.974 43.5344 66.3947 41.5895 66.3947 38.2384V31.1027ZM88.0168 42.9693C87.2978 43.3635 86.2064 43.5212 85.1151 43.5212C80.878 43.5212 78.8878 40.893 78.8878 37.1477C78.8878 33.4682 80.8651 30.8399 85.1151 30.8399C86.0909 30.8136 87.0667 31.0107 87.9526 31.4444V33.3893C87.1052 32.9819 86.1808 32.7848 85.2435 32.8111C82.1491 32.8111 80.8908 34.8086 80.8908 37.174C80.8908 39.5394 82.1748 41.5369 85.2948 41.5369C86.2193 41.5632 87.1309 41.4186 88.004 41.1032L88.0168 42.9693ZM90.3537 43.2847V26.0039H92.408V36.806L97.5311 31.1027H100.202L94.6036 37.082L100.433 43.2847H97.6466L92.408 37.5814V43.2847H90.3537ZM107.212 43.5212C102.757 43.5212 100.805 40.893 100.805 37.1477C100.805 33.4682 102.808 30.8399 106.429 30.8399C110.101 30.8399 111.565 33.455 111.565 37.1477V38.0939H102.872C103.155 40.1702 104.465 41.5106 107.276 41.5106C108.509 41.5106 109.742 41.2872 110.897 40.8535V42.7985C109.934 43.3372 108.432 43.5212 107.212 43.5212ZM102.86 36.3198H109.498C109.382 34.0595 108.381 32.7585 106.326 32.7585C104.156 32.7454 103.065 34.1909 102.847 36.3067V36.3198H102.86ZM118.717 41.2346C119.153 41.2215 119.577 41.1689 120.001 41.0638V43.0876C119.551 43.219 119.089 43.2847 118.627 43.2847C116.072 43.2847 114.839 41.7472 114.839 39.4869V33.0476H112.913V31.1027H114.839V28.5139H116.842V31.1027H120.013V33.0476H116.842V39.4474C116.829 40.5119 117.445 41.2346 118.717 41.2346Z" fill="#253858"/>
<path d="M0.552108 27.7383C0.243955 27.7383 0 27.9748 0 28.2902C0 28.3165 0 28.3559 0.0128397 28.3822L2.31115 42.6536C2.37535 43.0084 2.67066 43.2844 3.03017 43.2844H14.0467C14.3163 43.2844 14.5474 43.0873 14.5859 42.8245L16.8842 28.3953C16.9356 28.0931 16.7302 27.804 16.4348 27.7646C16.4092 27.7646 16.3706 27.7514 16.345 27.7514L0.552108 27.7383ZM10.2204 38.0542H6.70233L5.75219 32.9554H11.0807L10.2204 38.0542Z" fill="#2684FF"/>
<path d="M16.1531 32.9561H11.0814L10.234 38.0549H6.70304L2.54297 43.1011C2.67137 43.2194 2.83828 43.2851 3.01804 43.2851H14.0474C14.317 43.2851 14.5481 43.088 14.5866 42.8252L16.1531 32.9561Z" fill="url(#paint0_linear_396_493)"/>
</g>
<defs>
<linearGradient id="paint0_linear_396_493" x1="17.3309" y1="34.3906" x2="8.79022" y2="40.9033" gradientUnits="userSpaceOnUse">
<stop offset="0.18" stop-color="#0052CC"/>
<stop offset="1" stop-color="#2684FF"/>
</linearGradient>
<clipPath id="clip0_396_493">
<rect width="120" height="17.5385" fill="white" transform="translate(0 26)"/>
</clipPath>
</defs>
</svg>