<svg width="155" height="45" viewBox="0 0 155 45" fill="none" xmlns="http://www.w3.org/2000/svg">
<path d="M53.6816 28.5526V18.2616H55.0129L61.3103 26.5516V18.2618H62.5691V28.5526H61.2381L54.9412 20.1897V28.5526H53.6816ZM72.7879 28.1495C71.9582 28.4667 71.0629 28.6247 70.1035 28.6247C66.3763 28.6247 64.5119 26.8376 64.5119 23.2633C64.5119 19.8809 66.3111 18.1895 69.9088 18.1895C70.941 18.1895 71.9008 18.3338 72.7877 18.6221V19.7733C71.9006 19.4374 70.9885 19.2694 70.0527 19.2694C67.2465 19.2694 65.8437 20.601 65.8437 23.2633C65.8437 26.1176 67.2246 27.5456 69.9888 27.5456C70.4297 27.5456 70.9189 27.4877 71.4566 27.3721V23.8751H72.7879V28.1495ZM74.9111 24.5801V18.2622H76.2412V24.5799C76.2412 26.5565 77.2252 27.546 79.1924 27.546C81.1592 27.546 82.1431 26.5565 82.1431 24.5799V18.2622H83.4742V24.5799C83.4742 27.2772 82.047 28.6251 79.1926 28.6251C76.3381 28.6251 74.9109 27.2774 74.9109 24.5801H74.9111ZM87.1801 18.2616V27.4735H92.564V28.5526H85.8496V18.2616H87.1801ZM94.4847 28.5528H93.1033L98.2197 16.9043L103.336 28.5528H101.861L100.529 25.3139H97.1265L97.4931 24.2358H100.084L98.1625 19.5717L94.4847 28.5528ZM104.74 28.5526V18.2616H109.13C111.087 18.2616 112.066 19.0848 112.066 20.7299C112.066 22.0688 111.109 23.0596 109.195 23.7018L112.728 28.5526H110.972L107.698 23.9256V23.0555C109.665 22.7428 110.648 21.9872 110.648 20.7883C110.648 19.8387 110.101 19.3629 109.008 19.3629H106.071V28.553H104.74V28.5526ZM117.715 18.2616V25.5877C117.715 27.5643 116.552 28.5526 114.224 28.5526V27.4731C115.664 27.4731 116.384 26.844 116.384 25.5877V18.2616H117.715ZM120.09 28.1926V26.9692C121.17 27.3528 122.335 27.5454 123.588 27.5454C125.358 27.5454 126.243 26.8977 126.243 25.6012C126.243 24.4997 125.59 23.9465 124.286 23.9465H122.961C120.807 23.9465 119.73 23.0116 119.73 21.1403C119.73 19.1735 121.11 18.1891 123.869 18.1891C125.068 18.1891 126.183 18.3342 127.215 18.6217V19.8452C126.183 19.461 125.068 19.269 123.869 19.269C121.997 19.269 121.062 19.893 121.062 21.1403C121.062 22.2432 121.695 22.7952 122.961 22.7952H124.286C126.477 22.7952 127.575 23.7313 127.575 25.6012C127.575 27.6168 126.246 28.6247 123.587 28.6247C122.335 28.6247 121.17 28.4801 120.09 28.1926Z" fill="#CCCCCC"/>
<path d="M54.0195 28.2168V17.9258H55.3506L61.6474 26.2161V17.9258H62.907V28.2168H61.5758L55.2785 19.8538V28.2167H54.0195V28.2168ZM73.1256 27.8137C72.2959 28.1309 71.4012 28.2887 70.4414 28.2887C66.7138 28.2887 64.8498 26.502 64.8498 22.9274C64.8498 19.5452 66.649 17.8536 70.2474 17.8536C71.2787 17.8536 72.2386 17.9981 73.1256 18.286V19.4372C72.2385 19.1012 71.3263 18.9333 70.3912 18.9333C67.5849 18.9333 66.1818 20.2651 66.1818 22.9274C66.1818 25.7817 67.5633 27.2096 70.3267 27.2096C70.7678 27.2096 71.2576 27.152 71.7951 27.0362V23.5389H73.1258L73.1256 27.8137ZM75.2486 24.244V17.9252H76.5789V24.244C76.5789 26.2206 77.5629 27.2092 79.5301 27.2092C81.4968 27.2092 82.4806 26.2202 82.4806 24.244V17.9252H83.8117V24.244C83.8117 26.9411 82.3845 28.2883 79.5302 28.2883C76.6758 28.2883 75.2486 26.9413 75.2486 24.244ZM87.5179 17.9252V27.1372H92.9012V28.2163H86.1873V17.9252H87.5179ZM94.8224 28.2167H93.441L98.5576 16.5674L103.674 28.2167H102.198L100.867 24.978H97.4635L97.831 23.8989H100.421L98.5002 19.2348L94.8224 28.2167ZM105.077 28.2168V17.9258H109.467C111.425 17.9258 112.403 18.7485 112.403 20.3942C112.403 21.7325 111.447 22.7239 109.532 23.3659L113.065 28.2168H111.309L108.035 23.5895V22.7186C110.002 22.4061 110.986 21.6512 110.986 20.4514C110.986 19.502 110.439 19.027 109.345 19.027H106.409V28.2168H105.077Z" fill="black"/>
<path d="M118.053 17.925V25.2513C118.053 27.2285 116.89 28.216 114.562 28.216V27.1367C116.002 27.1367 116.722 26.5072 116.722 25.2509V17.9248H118.053L118.053 17.925ZM120.427 27.856V26.6328C121.507 27.0164 122.673 27.2089 123.925 27.2089C125.695 27.2089 126.581 26.5609 126.581 25.2654C126.581 24.163 125.928 23.6105 124.623 23.6105H123.298C121.145 23.6105 120.067 22.675 120.067 20.8037C120.067 18.8369 121.446 17.8525 124.206 17.8525C125.405 17.8525 126.521 17.9978 127.552 18.2853V19.5087C126.52 19.1244 125.405 18.9326 124.206 18.9326C122.335 18.9326 121.399 19.5564 121.399 20.8037C121.399 21.9068 122.032 22.4585 123.298 22.4585H124.623C126.815 22.4585 127.912 23.3943 127.912 25.2652C127.912 27.2806 126.583 28.288 123.925 28.288C122.673 28.288 121.507 28.1435 120.427 27.856Z" fill="#A6120D"/>
<path d="M40.0187 10.0001L28 14.2298L29.8994 29.9763L40.0316 35.5453L50.216 29.9007L52.1144 14.155L40.0189 10L40.0187 10.0001Z" fill="#B3B3B3"/>
<path d="M50.9148 15.0654L39.9902 11.3398V34.2152L49.1459 29.148L50.9152 15.0654H50.9148Z" fill="#A6120D"/>
<path d="M29.3496 15.1321L30.9769 29.2147L39.9914 34.2147V11.3389L29.3496 15.1319V15.1321Z" fill="#DD1B16"/>
<path d="M42.9988 23.5167L39.9916 24.923H36.8219L35.332 28.6498L32.5605 28.7011L39.9916 12.1699L42.9988 23.5167ZM42.708 22.8089L40.0115 17.4703L37.7996 22.7169H39.9914L42.7082 22.8087L42.708 22.8089Z" fill="#F2F2F2"/>
<path d="M39.9904 12.1699L40.0103 17.4703L42.5201 22.721H39.9961L39.9902 24.9197L43.4806 24.923L45.1119 28.7017L47.7636 28.7509L39.9902 12.1699H39.9904Z" fill="#B3B3B3"/>
</svg>
