<svg width="73" height="70" viewBox="0 0 73 70" fill="none" xmlns="http://www.w3.org/2000/svg">
<g clip-path="url(#clip0_563_62)">
<path d="M10.0947 50.1353C10.0947 50.1353 0.926978 57.4723 0.250857 58.157C-0.425264 58.8417 10.1205 70.2241 11.6045 69.6167C13.0886 69.0093 16.9333 64.2221 16.9333 64.2221L10.0947 50.1353Z" fill="#231F20"/>
<path d="M11.4903 69.7885C9.70546 69.7885 2.29965 61.8728 0.537722 59.2342C0.0936593 58.5695 -0.0352606 58.2286 0.145229 58.0595C0.82135 57.3748 9.62811 50.3243 10.0034 50.0235C10.0203 50.0105 10.0398 50.0013 10.0605 49.9963C10.0813 49.9914 10.1028 49.9909 10.1237 49.9948C10.1444 50.0004 10.1637 50.0102 10.1804 50.0235C10.1971 50.0368 10.211 50.0533 10.2211 50.0722L17.0454 64.1618C17.0569 64.1857 17.0614 64.2124 17.0584 64.2388C17.0553 64.2652 17.0449 64.2901 17.0282 64.3108C16.8706 64.5085 13.1548 69.1525 11.6536 69.7541C11.6021 69.7768 11.5465 69.7885 11.4903 69.7885ZM10.0578 50.3586C8.91188 51.2869 0.98465 57.6327 0.365827 58.2601C0.225446 58.8703 5.28203 64.6832 8.88037 67.7917C10.9202 69.5536 11.4588 69.5421 11.5648 69.4934C12.8998 68.9548 16.2862 64.7978 16.7646 64.2048L10.0578 50.3586Z" fill="#231F20"/>
<path d="M63.9524 18.2972C64.087 18.237 69.3957 12.7593 69.5189 11.3125C69.6421 9.86573 57.8128 -0.238839 56.3746 0.377119C54.9365 0.993076 49.9658 8.78566 49.9658 8.78566L63.7174 17.8617" fill="#231F20"/>
<path d="M63.9532 18.4405C63.9223 18.4405 63.8922 18.4304 63.8675 18.4119C63.8428 18.3933 63.8248 18.3673 63.8161 18.3376C63.8074 18.308 63.8085 18.2763 63.8193 18.2474C63.83 18.2184 63.8499 18.1937 63.8758 18.177C64.1623 17.9449 69.2561 12.6591 69.3765 11.3012C69.4538 10.4589 64.2798 5.57133 59.9967 2.46289C57.2063 0.428802 56.5588 0.457451 56.4327 0.509019C55.3469 0.967407 51.9033 6.02685 50.1643 8.7428L63.8042 17.7415C63.8358 17.763 63.8577 17.7961 63.8652 17.8336C63.8727 17.8711 63.8652 17.91 63.8443 17.9421C63.8233 17.9735 63.7907 17.9953 63.7537 18.0028C63.7167 18.0103 63.6782 18.0029 63.6466 17.9822L49.8807 8.90323C49.8501 8.88227 49.8288 8.85026 49.8213 8.81392C49.8138 8.77759 49.8207 8.73976 49.8406 8.70842C50.044 8.38755 54.8542 0.861405 56.3153 0.245447C56.49 0.168094 57.0201 -0.0553701 60.16 2.23084C63.9818 5.0184 69.7575 10.201 69.6572 11.327C69.5168 12.8855 64.0563 18.4062 64.0047 18.4291C63.9884 18.436 63.9709 18.4399 63.9532 18.4405Z" fill="#231F20"/>
<path d="M36.0488 68.5507C54.0374 68.5507 68.6201 53.9681 68.6201 35.9795C68.6201 17.9909 54.0374 3.4082 36.0488 3.4082C18.0602 3.4082 3.47754 17.9909 3.47754 35.9795C3.47754 53.9681 18.0602 68.5507 36.0488 68.5507Z" fill="white"/>
<path d="M36.0485 68.6942C29.5782 68.6942 23.2532 66.7755 17.8733 63.1808C12.4934 59.5861 8.30033 54.4768 5.82424 48.499C3.34816 42.5212 2.7003 35.9434 3.9626 29.5974C5.2249 23.2514 8.34065 17.4222 12.9159 12.847C17.4911 8.2718 23.3202 5.15605 29.6662 3.89375C36.0122 2.63146 42.59 3.27931 48.5678 5.7554C54.5456 8.23148 59.6549 12.4246 63.2496 17.8045C66.8444 23.1843 68.763 29.5093 68.763 35.9797C68.7532 44.6531 65.3033 52.9684 59.1703 59.1014C53.0373 65.2345 44.7219 68.6843 36.0485 68.6942ZM36.0485 3.55164C29.6349 3.55164 23.3652 5.45351 18.0325 9.01675C12.6997 12.58 8.54333 17.6446 6.08893 23.57C3.63453 29.4954 2.99234 36.0156 4.24359 42.3061C5.49483 48.5965 8.5833 54.3746 13.1184 58.9097C17.6536 63.4449 23.4317 66.5333 29.7221 67.7846C36.0125 69.0358 42.5327 68.3937 48.4582 65.9393C54.3836 63.4849 59.4482 59.3285 63.0114 53.9957C66.5747 48.6629 68.4765 42.3933 68.4765 35.9797C68.4667 27.3822 65.047 19.1398 58.9677 13.0605C52.8884 6.98118 44.6459 3.5615 36.0485 3.55164Z" fill="#231F20"/>
<path d="M32.1057 18.8695L23.7656 13.8267L20.2587 19.6265L28.5988 24.6693L32.1057 18.8695Z" fill="white"/>
<path d="M28.3935 24.5744C28.3675 24.5735 28.342 24.5667 28.319 24.5543L20.0365 19.5293C20.0203 19.5196 20.0061 19.5067 19.9949 19.4915C19.9836 19.4763 19.9755 19.459 19.971 19.4406C19.9664 19.4222 19.9656 19.4031 19.9685 19.3844C19.9714 19.3657 19.978 19.3477 19.9878 19.3316L23.483 13.5616C23.5026 13.5296 23.534 13.5066 23.5705 13.4974C23.6069 13.4883 23.6455 13.4939 23.6778 13.5129L31.9861 18.538C32.0187 18.5581 32.0423 18.5899 32.052 18.6268C32.0565 18.6452 32.0573 18.6643 32.0543 18.683C32.0514 18.7017 32.0447 18.7196 32.0348 18.7357L28.5396 24.5056C28.5195 24.5375 28.4876 24.5602 28.4508 24.5687L28.3935 24.5744ZM20.3058 19.3574L28.3534 24.2277L31.7025 18.7042L23.6521 13.8338L20.3058 19.3574Z" fill="#231F20"/>
<path d="M28.4065 24.427L20.1123 19.4019L16.6177 25.1698L24.9119 30.195L28.4065 24.427Z" fill="white"/>
<path d="M24.9069 30.3413C24.8807 30.3418 24.8548 30.3348 24.8324 30.3212L16.5385 25.2961C16.5066 25.276 16.4839 25.2441 16.4754 25.2073C16.4669 25.1711 16.4731 25.133 16.4926 25.1013L19.9878 19.3314C20.0079 19.2988 20.0397 19.2752 20.0766 19.2655C20.1129 19.2569 20.151 19.2631 20.1826 19.2827L28.4766 24.3077C28.5084 24.3286 28.5317 24.3601 28.5425 24.3965C28.5512 24.4337 28.545 24.4728 28.5253 24.5054L25.0301 30.2725C25.0172 30.2936 24.9991 30.311 24.9775 30.3231C24.956 30.3351 24.9316 30.3414 24.9069 30.3413ZM16.8106 25.1271L24.8582 29.9975L28.2044 24.4739L20.1569 19.6035L16.8106 25.1271Z" fill="#231F20"/>
<path d="M27.8495 22.7494C27.8242 22.7499 27.7992 22.7429 27.7779 22.7293C27.7622 22.7205 27.7486 22.7085 27.7377 22.6942C27.7269 22.6799 27.719 22.6635 27.7148 22.6461C27.7105 22.6287 27.7098 22.6105 27.7128 22.5928C27.7157 22.5751 27.7223 22.5582 27.732 22.5431L29.9151 18.939C29.9245 18.9236 29.9368 18.9102 29.9514 18.8995C29.966 18.8888 29.9826 18.8812 30.0001 18.8769C30.0177 18.8727 30.0359 18.8719 30.0538 18.8747C30.0716 18.8775 30.0887 18.8838 30.1042 18.8932C30.1348 18.9127 30.1566 18.9432 30.1652 18.9785C30.1737 19.0137 30.1683 19.0509 30.15 19.0823L27.9669 22.6806C27.955 22.7013 27.9379 22.7185 27.9173 22.7305C27.8967 22.7426 27.8733 22.7491 27.8495 22.7494Z" fill="#D1D3D4"/>
<path d="M26.9756 21.079C26.9516 21.0791 26.9279 21.0732 26.9068 21.0618C26.8914 21.0524 26.8779 21.0401 26.8673 21.0255C26.8566 21.0109 26.8489 20.9943 26.8447 20.9768C26.8404 20.9592 26.8397 20.941 26.8425 20.9231C26.8453 20.9053 26.8515 20.8882 26.861 20.8727L28.5369 18.0966C28.5451 18.0792 28.5568 18.0638 28.5713 18.0512C28.5859 18.0386 28.6028 18.0292 28.6212 18.0236C28.6396 18.018 28.6589 18.0163 28.678 18.0186C28.6971 18.0209 28.7155 18.0272 28.7319 18.037C28.7484 18.0469 28.7627 18.0601 28.7738 18.0758C28.7848 18.0915 28.7925 18.1093 28.7963 18.1282C28.8 18.147 28.7998 18.1664 28.7956 18.1852C28.7914 18.2039 28.7833 18.2216 28.7719 18.237L27.093 21.0045C27.0818 21.0263 27.065 21.0446 27.0444 21.0577C27.0237 21.0708 27 21.0782 26.9756 21.079Z" fill="#D1D3D4"/>
<path d="M25.0925 21.079C25.0672 21.0795 25.0422 21.0725 25.0209 21.0589C25.0055 21.0498 24.9922 21.0377 24.9815 21.0234C24.9709 21.009 24.9632 20.9927 24.959 20.9754C24.9547 20.9581 24.9539 20.9401 24.9567 20.9224C24.9594 20.9048 24.9657 20.8879 24.975 20.8727L26.7455 17.9505C26.7645 17.9201 26.7946 17.8983 26.8293 17.8897C26.8641 17.8812 26.9009 17.8865 26.9318 17.9046C26.9628 17.9237 26.9853 17.954 26.9944 17.9893C27.0035 18.0246 26.9985 18.062 26.9805 18.0937L25.2099 21.0131C25.1977 21.0332 25.1804 21.0498 25.1598 21.0614C25.1393 21.0729 25.1161 21.079 25.0925 21.079Z" fill="#D1D3D4"/>
<path d="M23.7147 20.2456C23.6894 20.2461 23.6645 20.2391 23.6431 20.2255C23.6277 20.2161 23.6143 20.2038 23.6036 20.1892C23.593 20.1746 23.5853 20.158 23.581 20.1405C23.5768 20.1229 23.576 20.1047 23.5788 20.0868C23.5816 20.069 23.5879 20.0518 23.5973 20.0364L24.4825 18.5782C24.4919 18.5628 24.5043 18.5493 24.5189 18.5387C24.5335 18.528 24.55 18.5203 24.5676 18.5161C24.5851 18.5118 24.6034 18.5111 24.6212 18.5139C24.6391 18.5166 24.6562 18.5229 24.6716 18.5323C24.702 18.5513 24.7238 18.5814 24.7324 18.6161C24.7409 18.6509 24.7356 18.6877 24.7175 18.7186L23.8322 20.1797C23.8199 20.1998 23.8027 20.2164 23.7821 20.228C23.7615 20.2395 23.7383 20.2456 23.7147 20.2456Z" fill="#D1D3D4"/>
<path d="M25.1327 17.9047C25.1074 17.9049 25.0826 17.8979 25.061 17.8846C25.0304 17.8651 25.0086 17.8346 25 17.7993C24.9915 17.7641 24.9969 17.7269 25.0152 17.6956L25.7801 16.435C25.8004 16.4076 25.8302 16.3887 25.8637 16.3821C25.8971 16.3754 25.9318 16.3814 25.9611 16.3989C25.9904 16.4164 26.0121 16.4441 26.0221 16.4767C26.0321 16.5093 26.0296 16.5445 26.0151 16.5754L25.2415 17.8388C25.23 17.8577 25.2141 17.8736 25.1952 17.8851C25.1762 17.8966 25.1548 17.9033 25.1327 17.9047Z" fill="#D1D3D4"/>
<path d="M22.7783 18.6698C22.7541 18.6689 22.7304 18.662 22.7095 18.6497C22.6941 18.6403 22.6807 18.628 22.67 18.6134C22.6594 18.5988 22.6517 18.5822 22.6474 18.5647C22.6432 18.5471 22.6424 18.5289 22.6452 18.511C22.648 18.4932 22.6543 18.476 22.6637 18.4606L24.4027 15.5957C24.4222 15.5651 24.4528 15.5433 24.488 15.5347C24.5233 15.5262 24.5604 15.5316 24.5918 15.5499C24.6072 15.5593 24.6206 15.5716 24.6313 15.5862C24.642 15.6008 24.6496 15.6173 24.6539 15.6349C24.6581 15.6525 24.6589 15.6707 24.6561 15.6885C24.6533 15.7064 24.647 15.7235 24.6376 15.7389L22.8957 18.6039C22.8837 18.6242 22.8665 18.641 22.8458 18.6526C22.8252 18.6641 22.8019 18.6701 22.7783 18.6698Z" fill="#D1D3D4"/>
<path d="M24.3505 28.5193C24.3261 28.5198 24.3021 28.5128 24.2818 28.4993C24.2661 28.4904 24.2525 28.4785 24.2416 28.4642C24.2308 28.4499 24.223 28.4335 24.2187 28.4161C24.2144 28.3986 24.2137 28.3805 24.2167 28.3628C24.2196 28.3451 24.2262 28.3282 24.2359 28.3131L26.419 24.709C26.427 24.6912 26.4388 24.6752 26.4534 24.6623C26.4681 24.6494 26.4854 24.6397 26.5041 24.634C26.5228 24.6282 26.5425 24.6266 26.5619 24.6291C26.5813 24.6315 26.6 24.6382 26.6166 24.6484C26.6333 24.6587 26.6475 24.6724 26.6585 24.6886C26.6694 24.7049 26.6767 24.7232 26.68 24.7425C26.6832 24.7618 26.6824 24.7816 26.6774 24.8005C26.6724 24.8194 26.6634 24.8371 26.6511 24.8522L24.468 28.4534C24.4559 28.4738 24.4387 28.4906 24.4181 28.5021C24.3975 28.5137 24.3742 28.5196 24.3505 28.5193Z" fill="#D1D3D4"/>
<path d="M23.4804 26.8493C23.4555 26.8491 23.431 26.8432 23.4088 26.8321C23.3933 26.8227 23.3799 26.8103 23.3692 26.7957C23.3586 26.7811 23.3509 26.7646 23.3466 26.747C23.3424 26.7295 23.3416 26.7112 23.3444 26.6934C23.3472 26.6755 23.3535 26.6584 23.3629 26.643L25.0418 23.8755C25.051 23.8602 25.0631 23.847 25.0774 23.8364C25.0918 23.8259 25.1081 23.8182 25.1254 23.814C25.1427 23.8097 25.1606 23.8089 25.1782 23.8116C25.1958 23.8143 25.2127 23.8204 25.228 23.8296C25.2432 23.8389 25.2565 23.851 25.267 23.8653C25.2776 23.8797 25.2852 23.896 25.2895 23.9133C25.2937 23.9305 25.2945 23.9485 25.2918 23.9661C25.2892 23.9837 25.283 24.0006 25.2738 24.0159L23.5978 26.7862C23.585 26.8057 23.5676 26.8216 23.5471 26.8326C23.5266 26.8436 23.5036 26.8493 23.4804 26.8493Z" fill="#D1D3D4"/>
<path d="M21.5947 26.8492C21.5707 26.8493 21.5471 26.8434 21.5259 26.832C21.5105 26.8226 21.4971 26.8103 21.4864 26.7957C21.4758 26.7811 21.4681 26.7645 21.4638 26.747C21.4596 26.7294 21.4588 26.7112 21.4616 26.6933C21.4644 26.6755 21.4707 26.6584 21.4801 26.6429L23.2477 23.7207C23.2677 23.6907 23.2983 23.6693 23.3333 23.6608C23.3684 23.6523 23.4053 23.6573 23.4368 23.6749C23.4523 23.6843 23.4657 23.6966 23.4763 23.7112C23.487 23.7258 23.4947 23.7424 23.4989 23.7599C23.5032 23.7775 23.504 23.7957 23.5012 23.8136C23.4984 23.8314 23.4921 23.8485 23.4827 23.864L21.7122 26.7833C21.7001 26.8036 21.6829 26.8204 21.6623 26.832C21.6416 26.8436 21.6183 26.8495 21.5947 26.8492Z" fill="#D1D3D4"/>
<path d="M52.5895 37.8276L39.7822 48.2246L40.49 49.0965L53.2973 38.6995L52.5895 37.8276Z" fill="white"/>
<path d="M40.4891 49.2469H40.4747C40.4369 49.2428 40.402 49.2243 40.3773 49.1953L39.6697 48.3358C39.6461 48.3057 39.6353 48.2675 39.6396 48.2294C39.6439 48.1914 39.6629 48.1566 39.6926 48.1324L52.4988 37.7356C52.529 37.712 52.5672 37.7012 52.6052 37.7055C52.6432 37.7098 52.6781 37.7288 52.7022 37.7585L53.4099 38.618C53.4326 38.6485 53.4438 38.6861 53.4414 38.724C53.4373 38.7619 53.4188 38.7967 53.3898 38.8214L40.5807 49.2182C40.5542 49.2376 40.522 49.2477 40.4891 49.2469ZM39.982 48.2499L40.512 48.9002L53.0976 38.6868L52.5676 38.0336L39.982 48.2499Z" fill="#231F20"/>
<path d="M53.1051 38.8548L40.6826 48.9395L45.8974 55.3631L58.3199 45.2784L53.1051 38.8548Z" fill="white"/>
<path d="M45.8981 55.5153H45.8694C45.851 55.5135 45.8332 55.508 45.8169 55.4991C45.8007 55.4903 45.7864 55.4782 45.7749 55.4637L40.5722 49.0377C40.5483 49.0079 40.537 48.9699 40.5407 48.9319C40.5445 48.8939 40.563 48.8588 40.5923 48.8343L53.0145 38.7498C53.0447 38.7262 53.0829 38.7154 53.1209 38.7197C53.159 38.724 53.1938 38.743 53.218 38.7727L58.4321 45.1958C58.4548 45.2263 58.466 45.2639 58.4636 45.3019C58.4582 45.3393 58.44 45.3737 58.4121 45.3993L45.9869 55.4809C45.9625 55.5028 45.9309 55.515 45.8981 55.5153ZM40.8845 48.9661L45.9181 55.1686L58.1198 45.2646L53.0862 39.0649L40.8845 48.9661Z" fill="#231F20"/>
<path d="M44.4366 52.2783C44.4164 52.2784 44.3965 52.2742 44.3782 52.2657C44.3598 52.2573 44.3436 52.245 44.3306 52.2296L41.7407 49.0381C41.7287 49.0242 41.7197 49.008 41.7142 48.9905C41.7087 48.973 41.7068 48.9546 41.7087 48.9363C41.7106 48.9181 41.7162 48.9004 41.7251 48.8844C41.7341 48.8684 41.7462 48.8544 41.7607 48.8433L52.7735 39.9047C52.7871 39.8929 52.8031 39.8842 52.8204 39.8793C52.8378 39.8743 52.856 39.8732 52.8738 39.8761C52.9093 39.8805 52.9419 39.8979 52.9654 39.9248L55.5639 43.1306C55.5754 43.1444 55.5841 43.1604 55.5893 43.1776C55.5946 43.1948 55.5963 43.2129 55.5944 43.2308C55.5926 43.2487 55.5871 43.266 55.5784 43.2818C55.5698 43.2976 55.558 43.3114 55.5439 43.3226L44.534 52.2611C44.5047 52.2785 44.4701 52.2846 44.4366 52.2783ZM42.0272 48.9579L44.4566 51.9517L55.2545 43.185L52.8279 40.1941L42.0272 48.9579Z" fill="#D1D3D4"/>
<path d="M50.2469 50.966C50.2261 50.9661 50.2055 50.9614 50.1867 50.9525C50.1678 50.9436 50.1512 50.9306 50.1381 50.9145L48.8689 49.3502C48.8572 49.3365 48.8487 49.3205 48.8437 49.3032C48.8388 49.2859 48.8376 49.2677 48.8402 49.25C48.8417 49.2322 48.8468 49.2149 48.8552 49.1991C48.8636 49.1834 48.875 49.1695 48.889 49.1583L51.6249 46.938C51.6388 46.9264 51.6548 46.9178 51.672 46.9126C51.6892 46.9073 51.7073 46.9056 51.7252 46.9075C51.7431 46.9093 51.7604 46.9148 51.7761 46.9235C51.7919 46.9321 51.8058 46.9439 51.8169 46.958L53.0861 48.5223C53.0976 48.5361 53.1062 48.5521 53.1114 48.5693C53.1167 48.5865 53.1184 48.6046 53.1166 48.6225C53.1147 48.6404 53.1092 48.6577 53.1006 48.6735C53.0919 48.6892 53.0801 48.7031 53.066 48.7142L50.3329 50.9345C50.3084 50.9541 50.2782 50.9652 50.2469 50.966ZM49.1668 49.2843L50.267 50.6366L52.7881 48.5882L51.6908 47.2359L49.1668 49.2843Z" fill="#D1D3D4"/>
<path d="M54.5361 63.7634C54.5361 63.7634 58.951 69.542 60.2459 69.648C61.5409 69.754 72.3903 59.3715 72.0293 58.3659C71.6684 57.3603 65.3283 51.917 65.3283 51.917L54.5361 63.7634Z" fill="#231F20"/>
<path d="M60.2598 69.7914H60.234C58.9133 69.6825 54.8766 64.4483 54.4211 63.8524C54.3989 63.8265 54.3867 63.7934 54.3867 63.7593C54.3867 63.7252 54.3989 63.6921 54.4211 63.6662L65.2133 51.8198C65.24 51.7935 65.276 51.7788 65.3135 51.7788C65.351 51.7788 65.387 51.7935 65.4138 51.8198C65.6716 52.0432 71.7854 57.2975 72.155 58.3288C72.2094 58.4778 72.1807 58.7414 71.5533 59.5608C69.4619 62.2882 61.5462 69.7914 60.2598 69.7914ZM54.7219 63.7751C55.9968 65.431 59.2657 69.4275 60.2569 69.5049H60.2741C61.1852 69.5049 67.8318 63.5258 70.8084 60.0192C71.9258 58.7042 71.9 58.4406 71.8942 58.4119C71.6078 57.6327 67.1671 53.6905 65.3393 52.1091L54.7219 63.7751Z" fill="#231F20"/>
<path d="M47.7119 57.2317C47.7119 57.2317 48.0786 55.1259 47.9268 54.6847C47.7749 54.2436 47.4082 53.2695 47.1733 53.5388C46.9384 53.8081 47.0845 54.6847 47.0845 54.6847C47.0845 54.6847 46.6519 54.0487 46.2479 53.3955C45.844 52.7423 45.4687 52.7452 45.4515 52.9715C45.5321 53.372 45.652 53.7635 45.8096 54.1404C45.8096 54.1404 45.2624 52.8397 45.0504 53.1577C44.8384 53.4758 45.2652 54.6274 45.2652 54.6274C45.2652 54.6274 44.6464 53.2236 44.4058 53.6992C44.1651 54.1748 44.4516 55.1775 44.6235 55.5242C44.7954 55.8708 46.2365 58.4607 46.2365 58.4607L47.9182 57.1514" fill="white"/>
<path d="M46.2477 58.5867H46.219C46.199 58.5824 46.18 58.5741 46.1633 58.5623C46.1465 58.5505 46.1324 58.5354 46.1216 58.5179C46.0643 58.4119 44.6891 55.9195 44.5058 55.5728C44.3224 55.2262 44.0216 54.1633 44.288 53.6218C44.309 53.5708 44.3441 53.5269 44.3894 53.4954C44.4346 53.4639 44.4879 53.4461 44.543 53.4442C44.607 53.4542 44.6683 53.4768 44.7234 53.5107C44.7785 53.5447 44.8262 53.5892 44.8639 53.6419C44.8256 53.4487 44.8487 53.2483 44.9298 53.0689C44.9531 53.0313 44.9862 53.0007 45.0256 52.9805C45.065 52.9604 45.1091 52.9513 45.1533 52.9543C45.2126 52.9637 45.2682 52.9895 45.3137 53.0288C45.3111 53.0021 45.3111 52.9752 45.3137 52.9485C45.3171 52.8883 45.3394 52.8307 45.3775 52.7838C45.4155 52.737 45.4674 52.7034 45.5257 52.6878C45.7778 52.6248 46.0987 52.8597 46.3852 53.3095C46.5685 53.596 46.7605 53.8997 46.9123 54.1318C46.8911 53.8889 46.9516 53.6459 47.0842 53.4413C47.1135 53.4066 47.1515 53.3803 47.1943 53.3652C47.2371 53.3501 47.2832 53.3467 47.3277 53.3554C47.4251 53.3754 47.6572 53.4213 48.0783 54.6446C48.2101 55.0256 48.0096 56.4008 47.9122 57.0024C47.9389 56.9953 47.9671 56.9965 47.9932 57.0057C48.0192 57.0148 48.0419 57.0317 48.0583 57.054C48.0817 57.0837 48.0924 57.1214 48.0881 57.159C48.0839 57.1965 48.0649 57.2309 48.0354 57.2545L46.3537 58.5638C46.3227 58.585 46.2846 58.5933 46.2477 58.5867ZM44.5516 53.7335C44.3597 54.126 44.5831 55.0571 44.7665 55.4324C44.9126 55.7189 45.9898 57.6642 46.2964 58.2171L47.5741 57.223C47.5727 57.2145 47.5727 57.2058 47.5741 57.1972C47.7116 56.395 47.895 55.017 47.7918 54.7219C47.5054 53.8624 47.3277 53.6762 47.2733 53.6304C47.1558 53.7994 47.1759 54.3094 47.2275 54.6331C47.2331 54.6648 47.2276 54.6975 47.2119 54.7257C47.1963 54.7539 47.1714 54.7758 47.1415 54.7878C47.1113 54.8001 47.0777 54.8017 47.0465 54.7923C47.0152 54.7829 46.9881 54.7631 46.9696 54.7363C46.9696 54.7363 46.5284 54.0916 46.1273 53.4442C45.8408 52.9772 45.6202 52.9428 45.5916 52.9514C45.6739 53.3313 45.7919 53.7025 45.944 54.0601C45.9509 54.0774 45.9543 54.0959 45.954 54.1145C45.9537 54.1332 45.9497 54.1515 45.9423 54.1686C45.9348 54.1857 45.924 54.2011 45.9105 54.2139C45.8971 54.2268 45.8812 54.2368 45.8638 54.2435C45.8467 54.2509 45.8283 54.2548 45.8097 54.2549C45.7911 54.255 45.7727 54.2513 45.7555 54.2441C45.7384 54.2368 45.7229 54.2262 45.71 54.2128C45.6971 54.1994 45.687 54.1835 45.6804 54.1661C45.5538 53.8337 45.377 53.5226 45.1561 53.2436C45.0845 53.4528 45.222 54.063 45.4025 54.55C45.4148 54.5854 45.413 54.6242 45.3976 54.6583C45.3821 54.6924 45.3541 54.7193 45.3194 54.7334C45.2851 54.7469 45.247 54.7468 45.2128 54.7329C45.1787 54.719 45.1512 54.6925 45.1361 54.6589C45.0047 54.3146 44.806 54.0001 44.5516 53.7335Z" fill="#231F20"/>
<path d="M53.4668 46.8146C53.4668 46.8146 51.4069 47.3876 50.9543 47.2844C50.5016 47.1813 49.4932 46.912 49.7281 46.6513C49.963 46.3906 50.8511 46.4479 50.8511 46.4479C50.8511 46.4479 50.175 46.0812 49.4846 45.7431C48.7941 45.405 48.7598 45.0326 48.9832 44.9953C49.3893 45.0345 49.7905 45.1141 50.1808 45.2331C50.1808 45.2331 48.8342 44.8177 49.1293 44.5771C49.4244 44.3364 50.6134 44.643 50.6134 44.643C50.6134 44.643 49.1551 44.1674 49.5935 43.8809C50.0318 43.5944 51.0717 43.7778 51.4327 43.9153C51.7937 44.0528 54.5154 45.2274 54.5154 45.2274L53.3694 47.0294" fill="white"/>
<path d="M51.0946 47.4393C51.0359 47.4404 50.9772 47.4346 50.9198 47.4221C49.6621 47.1356 49.5905 46.9007 49.5618 46.8032C49.5484 46.7602 49.5468 46.7142 49.5574 46.6703C49.568 46.6264 49.5903 46.5862 49.622 46.554C49.8127 46.4019 50.0485 46.3172 50.2924 46.3134C50.046 46.1844 49.7366 46.0269 49.4329 45.8722C48.9573 45.6401 48.6938 45.3479 48.731 45.09C48.7412 45.0305 48.77 44.9757 48.8132 44.9335C48.8565 44.8914 48.9119 44.8639 48.9717 44.8551C48.9852 44.8621 49.0003 44.8656 49.0156 44.8651C49.0308 44.8646 49.0457 44.8602 49.0587 44.8522C49.0718 44.8443 49.0826 44.8332 49.0901 44.8199C49.0975 44.8066 49.1015 44.7916 49.1015 44.7763C49.1015 44.7611 49.0975 44.7461 49.0901 44.7328C49.0826 44.7195 49.0718 44.7083 49.0587 44.7004C49.0457 44.6925 49.0308 44.6881 49.0156 44.6876C49.0003 44.6871 48.9852 44.6905 48.9717 44.6975C48.9633 44.6544 48.9672 44.6098 48.9829 44.5688C48.9986 44.5278 49.0255 44.492 49.0605 44.4655C49.2335 44.3644 49.4342 44.3212 49.6335 44.3423C49.5205 44.276 49.4382 44.168 49.4043 44.0415C49.4006 43.9863 49.413 43.9312 49.4399 43.8829C49.4669 43.8346 49.5072 43.7952 49.5561 43.7693C50.0689 43.4542 51.1547 43.6547 51.5186 43.7922C51.8824 43.9297 54.4981 45.0585 54.6098 45.1072C54.6287 45.1155 54.6456 45.1277 54.6595 45.143C54.6733 45.1583 54.6837 45.1764 54.6901 45.196C54.6956 45.2156 54.6973 45.236 54.6948 45.2562C54.6923 45.2764 54.6859 45.2959 54.6757 45.3135L53.5298 47.1184C53.5092 47.1502 53.477 47.1727 53.4402 47.1812C53.4033 47.1898 53.3645 47.1837 53.3321 47.1642C53.3085 47.1499 53.2897 47.1289 53.278 47.104C53.2663 47.079 53.2622 47.0511 53.2662 47.0238C52.5569 47.2299 51.8298 47.369 51.0946 47.4393ZM49.8483 46.746C49.897 46.7947 50.1119 46.9494 50.9943 47.1556C51.298 47.2273 52.6531 46.9064 53.4352 46.6887H53.461L54.3205 45.3192C53.7475 45.0671 51.7019 44.1876 51.3954 44.073C51.0029 43.9269 50.0575 43.7865 49.6764 44.0271C49.6564 44.0271 49.6535 44.0472 49.6535 44.0472C49.956 44.263 50.2946 44.4231 50.6534 44.5199C50.6893 44.5311 50.7194 44.5561 50.7371 44.5893C50.7548 44.6226 50.7587 44.6614 50.7479 44.6975C50.7373 44.7334 50.713 44.7636 50.6804 44.7818C50.6477 44.8 50.6092 44.8047 50.5732 44.7949C50.0689 44.6632 49.4472 44.5915 49.2496 44.6803C49.5488 44.8736 49.8765 45.0186 50.2208 45.1101C50.2588 45.1207 50.291 45.146 50.3103 45.1804C50.3297 45.2148 50.3346 45.2554 50.3239 45.2934C50.3133 45.3314 50.288 45.3636 50.2536 45.383C50.2192 45.4023 50.1785 45.4072 50.1406 45.3966C49.7677 45.279 49.3837 45.2002 48.9946 45.1617C48.9946 45.1874 49.049 45.4023 49.5361 45.6401C50.2208 45.9753 50.8998 46.3449 50.9084 46.3477C50.9377 46.3632 50.9607 46.3884 50.9735 46.4189C50.9864 46.4495 50.9882 46.4835 50.9788 46.5153C50.9693 46.5471 50.9491 46.5746 50.9217 46.5931C50.8942 46.6117 50.8611 46.6201 50.8281 46.617C50.5101 46.5712 49.9973 46.6027 49.8483 46.746Z" fill="#231F20"/>
<path d="M57.6151 59.9246C57.1091 60.9159 56.68 61.9445 56.3316 63.0015C56.3316 63.0015 52.1459 61.8556 51.8652 61.7123C51.5844 61.5691 48.115 56.3721 48.115 56.3721L45.7715 58.0567C45.7715 58.0567 48.8914 63.4313 49.6334 64.073C50.3754 64.7147 55.0109 66.9007 56.6954 67.1098C58.38 67.3189 61.8695 65.2562 64.1671 62.9356C66.4648 60.615 69.1607 55.8564 68.7252 54.1059C68.2897 52.3555 66.9031 51.3957 66.3731 51.0405C65.8431 50.6852 63.0298 48.0638 62.5714 47.7745C62.113 47.4851 54.2287 44.5371 54.2287 44.5371L53.3893 47.0325C53.3893 47.0325 60.5029 50.0951 60.924 50.3644C61.3452 50.6337 64.4995 54.9482 64.4995 54.9482C64.4995 54.9482 62.027 55.7046 60.8238 56.5583C59.6205 57.4121 57.6151 59.9246 57.6151 59.9246Z" fill="#68E1FD"/>
<path d="M65.2819 59.5692C65.209 58.6675 64.9219 57.7964 64.4445 57.028C63.9672 56.2596 63.3133 55.6163 62.5373 55.1515C61.848 54.7117 61.0299 54.5188 60.2168 54.6043C59.8128 54.654 59.4314 54.8178 59.1173 55.0766C58.8032 55.3354 58.5694 55.6784 58.4434 56.0654C58.2269 56.0023 57.9987 55.9913 57.7771 56.0331C57.5556 56.0749 57.3471 56.1684 57.1685 56.306C56.1973 57.0165 56.246 58.4375 56.458 59.489C56.5919 60.2355 56.8484 60.9548 57.2172 61.6176C57.7043 62.389 58.403 63.0042 59.2299 63.3897C60.0569 63.7752 60.9772 63.9149 61.8813 63.7921C62.8667 63.6263 63.7571 63.1049 64.3839 62.3267C65.0106 61.5484 65.3301 60.5673 65.2819 59.5692Z" fill="white"/>
<path d="M61.2478 63.9785C60.4175 63.9823 59.5999 63.7737 58.8728 63.3725C58.1458 62.9714 57.5333 62.391 57.0937 61.6865C56.716 61.0098 56.4536 60.275 56.3173 59.5121C56.0939 58.4119 56.0308 56.9336 57.0851 56.1859C57.2637 56.0515 57.4681 55.9555 57.6855 55.9037C57.9029 55.852 58.1286 55.8456 58.3486 55.8851C58.4997 55.5024 58.751 55.1675 59.0761 54.9155C59.4012 54.6634 59.7882 54.5036 60.1964 54.4526C61.0429 54.3676 61.8935 54.5694 62.6116 55.0256C63.4083 55.5008 64.0796 56.1601 64.5691 56.9481C65.0586 57.7362 65.3521 58.6302 65.4249 59.555C65.4781 60.5888 65.1497 61.606 64.5022 62.4136C63.8546 63.2211 62.9331 63.7627 61.9125 63.9355C61.6923 63.966 61.4702 63.9804 61.2478 63.9785ZM58.0621 56.1458C57.7693 56.1539 57.4866 56.2542 57.2541 56.4323C56.3374 57.0998 56.3947 58.452 56.5981 59.4691C56.7273 60.2008 56.9781 60.9058 57.3401 61.5547C57.8133 62.3008 58.4911 62.8949 59.2927 63.2663C60.0944 63.6376 60.9859 63.7705 61.8609 63.649C62.8113 63.4901 63.6701 62.9876 64.2743 62.2371C64.8785 61.4866 65.186 60.5403 65.1384 59.578C65.069 58.7001 64.79 57.8517 64.3249 57.104C63.8598 56.3562 63.2221 55.731 62.4654 55.2806C61.8031 54.8583 61.0182 54.6707 60.2365 54.7477C59.8609 54.7949 59.5063 54.9475 59.2138 55.1879C58.9213 55.4282 58.7027 55.7464 58.5835 56.1057C58.5715 56.1432 58.546 56.1749 58.5119 56.1945C58.4937 56.2022 58.4742 56.2062 58.4546 56.2062C58.4349 56.2062 58.4154 56.2022 58.3973 56.1945C58.2888 56.1607 58.1757 56.1443 58.0621 56.1458Z" fill="#231F20"/>
<path d="M62.3537 62.5032C62.3036 62.7573 62.3409 63.0209 62.4597 63.251C62.5444 63.3599 62.6147 63.4793 62.6689 63.6062C62.6919 63.7243 62.686 63.8462 62.6517 63.9615C62.5803 64.2747 62.4914 64.5836 62.3853 64.8868C62.364 64.9273 62.3579 64.9741 62.3681 65.0186C62.3967 65.1046 62.517 65.1074 62.6087 65.0931C63.2075 65.0043 63.8292 64.904 64.3277 64.5459C64.6244 64.2974 64.8627 63.9866 65.0257 63.6355C65.1886 63.2844 65.2721 62.9017 65.2702 62.5147C65.2702 61.9045 65.127 60.8473 64.3678 60.7757C63.4453 60.6955 62.4855 61.6609 62.3537 62.5032Z" fill="white"/>
<path d="M62.532 65.2506C62.4712 65.2549 62.4107 65.2397 62.3592 65.2072C62.3077 65.1748 62.2679 65.1268 62.2455 65.0701C62.224 64.9953 62.2291 64.9153 62.2598 64.8438C62.3659 64.5476 62.4539 64.2453 62.5234 63.9385C62.5516 63.8457 62.5585 63.7478 62.5434 63.652C62.5171 63.5814 62.4794 63.5156 62.4317 63.4572C62.403 63.4171 62.3744 63.3741 62.3486 63.3311C62.2107 63.0733 62.1671 62.7754 62.2254 62.4888C62.3629 61.5778 63.3886 60.5493 64.3827 60.641C65.162 60.7155 65.4284 61.6637 65.4141 62.5261C65.4149 62.9348 65.3257 63.3386 65.1529 63.709C64.9801 64.0793 64.7279 64.4071 64.4142 64.669C63.8871 65.0587 63.1966 65.1618 62.6437 65.242L62.532 65.2506ZM62.5119 64.9641C62.5375 64.9682 62.5636 64.9682 62.5893 64.9641C63.1393 64.881 63.7639 64.7894 64.2309 64.4427C64.5107 64.2077 64.7351 63.9138 64.8881 63.582C65.0412 63.2501 65.119 62.8886 65.1161 62.5232C65.1161 62.3685 65.1161 61.0019 64.3426 60.9303C63.5032 60.8472 62.6236 61.7612 62.4976 62.5347C62.4523 62.7568 62.4826 62.9877 62.5835 63.1907L62.6552 63.2939C62.7381 63.39 62.7944 63.5062 62.8185 63.6308C62.8426 63.7555 62.8337 63.8843 62.7927 64.0044C62.7207 64.3228 62.6299 64.6365 62.5205 64.9441L62.5119 64.9641Z" fill="#231F20"/>
<path d="M35.1606 55.8878C35.9003 55.8147 36.6401 56.0248 37.2309 56.4757C37.8217 56.9267 38.2196 57.5848 38.3443 58.3175C38.4689 59.0502 38.3111 59.803 37.9027 60.4239C37.4942 61.0448 36.8655 61.4878 36.1433 61.6634L36.2522 62.7292C36.2611 62.7825 36.2591 62.8371 36.2461 62.8896C36.2331 62.9421 36.2095 62.9913 36.1767 63.0343C36.1439 63.0773 36.1027 63.1131 36.0555 63.1396C36.0083 63.166 35.9563 63.1824 35.9025 63.1879C35.8487 63.1934 35.7944 63.1878 35.7428 63.1715C35.6913 63.1552 35.6436 63.1284 35.6028 63.093C35.562 63.0575 35.529 63.014 35.5056 62.9652C35.4823 62.9165 35.4692 62.8634 35.4672 62.8094L35.3583 61.7437C34.6149 61.7177 33.909 61.4105 33.3833 60.8841C32.8575 60.3577 32.5512 59.6515 32.5261 58.908C32.501 58.1645 32.759 57.4392 33.248 56.8786C33.7371 56.318 34.4206 55.9638 35.1606 55.8878Z" fill="white"/>
<path d="M35.8596 63.308C35.7262 63.3079 35.5975 63.2584 35.4986 63.169C35.3996 63.0795 35.3373 62.9565 35.3239 62.8238L35.2293 61.8812C34.4599 61.826 33.7392 61.484 33.2098 60.9229C32.6804 60.3618 32.3808 59.6224 32.3704 58.8511C32.36 58.0797 32.6394 57.3325 33.1534 56.7573C33.6674 56.182 34.3786 55.8207 35.1462 55.7446C35.9037 55.6828 36.6573 55.9032 37.262 56.3634C37.8668 56.8237 38.28 57.4913 38.4222 58.2379C38.5644 58.9845 38.4255 59.7572 38.0323 60.4076C37.6391 61.058 37.0193 61.54 36.2922 61.7609L36.3896 62.7035C36.404 62.8456 36.3614 62.9875 36.2711 63.0982C36.1809 63.2089 36.0504 63.2792 35.9083 63.2936L35.8596 63.308ZM35.1749 56.0311C34.4721 56.1049 33.8234 56.4424 33.3596 56.9755C32.8957 57.5085 32.6511 58.1976 32.6751 58.9039C32.6991 59.6101 32.9898 60.281 33.4888 60.7814C33.9877 61.2818 34.6578 61.5745 35.364 61.6005C35.3986 61.6017 35.4316 61.6154 35.4569 61.6391C35.4822 61.6628 35.498 61.6949 35.5015 61.7294L35.6103 62.7952C35.6135 62.8292 35.6235 62.8621 35.6398 62.8922C35.6561 62.9222 35.6783 62.9485 35.7051 62.9697C35.7319 62.9909 35.7627 63.0064 35.7957 63.0153C35.8286 63.0242 35.863 63.0263 35.8968 63.0215C35.9306 63.018 35.9633 63.0077 35.9929 62.9912C36.0226 62.9748 36.0487 62.9525 36.0695 62.9258C36.0904 62.899 36.1056 62.8684 36.1144 62.8356C36.1231 62.8028 36.1251 62.7686 36.1203 62.735L36.0114 61.6664C36.0079 61.6317 36.0174 61.597 36.038 61.5689C36.0587 61.5408 36.089 61.5215 36.1232 61.5145C36.8122 61.3492 37.4127 60.9281 37.803 60.3366C38.1933 59.7452 38.3441 59.0274 38.225 58.3289C38.1059 57.6303 37.7258 57.0031 37.1616 56.5744C36.5974 56.1456 35.8913 55.9473 35.1863 56.0196L35.1749 56.0311Z" fill="#231F20"/>
<path d="M35.4579 60.887C36.6051 60.887 37.535 59.9571 37.535 58.81C37.535 57.6628 36.6051 56.7329 35.4579 56.7329C34.3108 56.7329 33.3809 57.6628 33.3809 58.81C33.3809 59.9571 34.3108 60.887 35.4579 60.887Z" fill="#231F20"/>
<path d="M35.4526 61.0304C34.8792 61.0366 34.3257 60.8205 33.9082 60.4274C33.4907 60.0343 33.2418 59.4947 33.2136 58.922C33.1854 58.3493 33.3802 57.7879 33.7571 57.3557C34.134 56.9235 34.6636 56.6541 35.2348 56.6041C35.8203 56.5448 36.4053 56.7205 36.8612 57.0926C37.3171 57.4647 37.6065 58.0026 37.6657 58.588C37.725 59.1735 37.5493 59.7585 37.1772 60.2144C36.8051 60.6702 36.2672 60.9596 35.6818 61.0189C35.6056 61.027 35.5291 61.0308 35.4526 61.0304ZM35.2692 56.8877C34.8248 56.9329 34.4097 57.1309 34.0949 57.4479C33.78 57.7648 33.5848 58.1812 33.5426 58.6259C33.5003 59.0707 33.6135 59.5163 33.863 59.887C34.1124 60.2576 34.4827 60.5302 34.9107 60.6584C35.3386 60.7867 35.7978 60.7625 36.21 60.5901C36.6221 60.4177 36.9618 60.1077 37.171 59.713C37.3802 59.3182 37.4461 58.8632 37.3574 58.4253C37.2686 57.9874 37.0308 57.5939 36.6845 57.3117C36.2874 56.9886 35.7785 56.8361 35.2692 56.8877Z" fill="#231F20"/>
<path d="M13.8797 33.7993C14.5944 34.0126 15.2012 34.49 15.5768 35.1344C15.9524 35.7789 16.0687 36.5421 15.9021 37.2691C15.7354 37.9962 15.2984 38.6326 14.6796 39.0491C14.0608 39.4657 13.3067 39.6311 12.5704 39.5119L12.2639 40.5376C12.2295 40.6326 12.1601 40.7108 12.0699 40.7563C11.9797 40.8017 11.8755 40.8109 11.7787 40.782C11.6819 40.753 11.5999 40.6881 11.5495 40.6006C11.499 40.513 11.484 40.4095 11.5075 40.3112L11.8169 39.2856C11.1361 38.9791 10.5977 38.4248 10.311 37.7354C10.0244 37.046 10.011 36.2733 10.2738 35.5745C10.5365 34.8756 11.0556 34.3031 11.7255 33.9734C12.3953 33.6436 13.1656 33.5813 13.8797 33.7993Z" fill="white"/>
<path d="M11.8856 40.9617C11.8332 40.9625 11.7809 40.9548 11.7309 40.9388C11.663 40.9188 11.5997 40.8855 11.5448 40.8409C11.4898 40.7963 11.4442 40.7412 11.4106 40.6789C11.3771 40.6165 11.3562 40.5482 11.3492 40.4777C11.3422 40.4072 11.3493 40.3361 11.37 40.2684L11.6564 39.3602C10.96 39.0168 10.4189 38.423 10.1416 37.6977C9.86424 36.9724 9.87117 36.1691 10.1609 35.4486C10.4507 34.7282 11.0019 34.1438 11.7043 33.8125C12.4066 33.4811 13.2081 33.4274 13.9484 33.6619C14.698 33.8736 15.3396 34.3616 15.7439 35.0274C16.1481 35.6933 16.285 36.4876 16.127 37.2504C15.969 38.0132 15.5278 38.6878 14.8923 39.1383C14.2568 39.5888 13.4742 39.7817 12.7021 39.6782L12.43 40.5893C12.3883 40.7254 12.2946 40.8397 12.1693 40.9073C12.0815 40.9512 11.9834 40.97 11.8856 40.9617ZM13.0316 33.8166C12.3955 33.8212 11.78 34.0426 11.2867 34.4443C10.7934 34.8459 10.4517 35.4037 10.3182 36.0257C10.1847 36.6476 10.2672 37.2965 10.5522 37.8653C10.8371 38.434 11.3075 38.8886 11.8856 39.1539C11.9177 39.1679 11.9435 39.193 11.9583 39.2247C11.9731 39.2564 11.9757 39.2923 11.9659 39.3258L11.6564 40.3515C11.6464 40.383 11.6428 40.4162 11.6457 40.4492C11.6487 40.4821 11.6582 40.5142 11.6736 40.5434C11.6889 40.5726 11.71 40.5983 11.7356 40.619C11.7613 40.6397 11.7909 40.6549 11.8226 40.6637C11.8864 40.6834 11.9555 40.677 12.0146 40.6459C12.0736 40.6147 12.118 40.5614 12.1378 40.4976L12.4472 39.4691C12.4566 39.4361 12.4779 39.4079 12.5071 39.3899C12.5362 39.3718 12.5711 39.3653 12.6047 39.3717C12.9842 39.4291 13.3714 39.4077 13.7422 39.3089C14.113 39.2101 14.4594 39.0359 14.7599 38.7972C15.0605 38.5586 15.3086 38.2606 15.4888 37.9218C15.669 37.583 15.7775 37.2107 15.8075 36.8281C15.8375 36.4455 15.7884 36.0609 15.6631 35.6982C15.5379 35.3354 15.3392 35.0024 15.0796 34.7198C14.8199 34.4373 14.5048 34.2112 14.154 34.0558C13.8031 33.9004 13.4239 33.819 13.0402 33.8166H13.0316Z" fill="#231F20"/>
<path d="M13.0312 38.6898C14.1783 38.6898 15.1082 37.7598 15.1082 36.6127C15.1082 35.4656 14.1783 34.5356 13.0312 34.5356C11.884 34.5356 10.9541 35.4656 10.9541 36.6127C10.9541 37.7598 11.884 38.6898 13.0312 38.6898Z" fill="#231F20"/>
<path d="M13.0345 38.8332C12.8172 38.8329 12.601 38.8011 12.3928 38.7387C11.8559 38.5768 11.4002 38.2178 11.1172 37.7338C10.8341 37.2497 10.7447 36.6765 10.8668 36.1293C10.9889 35.582 11.3136 35.1013 11.7756 34.7835C12.2376 34.4658 12.8027 34.3346 13.3574 34.4163C13.9121 34.498 14.4154 34.7866 14.7661 35.2241C15.1169 35.6616 15.2891 36.2155 15.2482 36.7748C15.2073 37.334 14.9564 37.857 14.5457 38.2389C14.1351 38.6207 13.5952 38.833 13.0345 38.8332ZM13.0345 34.6791C12.6196 34.6809 12.2163 34.8158 11.8837 35.0638C11.5511 35.3118 11.3068 35.66 11.1867 36.0571C11.0773 36.4227 11.0788 36.8126 11.1909 37.1774C11.3029 37.5422 11.5206 37.8656 11.8163 38.1068C12.1121 38.348 12.4727 38.4961 12.8526 38.5325C13.2325 38.5689 13.6147 38.4918 13.9508 38.3112C14.287 38.1305 14.562 37.8543 14.7413 37.5174C14.9206 37.1805 14.996 36.798 14.9581 36.4183C14.9201 36.0385 14.7705 35.6785 14.528 35.3838C14.2856 35.089 13.9613 34.8727 13.5961 34.7622C13.412 34.7072 13.2209 34.6792 13.0288 34.6791H13.0345Z" fill="#231F20"/>
<path d="M32.8135 11.9514C32.8283 12.7058 32.5521 13.4369 32.0423 13.9931C31.5325 14.5494 30.8282 14.888 30.0754 14.9389C29.3226 14.9897 28.5791 14.7489 27.9991 14.2662C27.4192 13.7836 27.0472 13.0963 26.9604 12.3468H25.8889C25.8344 12.3514 25.7795 12.3447 25.7276 12.327C25.6758 12.3093 25.6282 12.2811 25.5879 12.2441C25.5476 12.207 25.5154 12.162 25.4934 12.1119C25.4713 12.0618 25.46 12.0076 25.46 11.9529C25.46 11.8981 25.4713 11.8439 25.4934 11.7938C25.5154 11.7437 25.5476 11.6987 25.5879 11.6616C25.6282 11.6246 25.6758 11.5964 25.7276 11.5787C25.7795 11.561 25.8344 11.5543 25.8889 11.5589H26.9604C27.0637 10.8242 27.4413 10.1559 28.0173 9.68817C28.5932 9.22048 29.3249 8.98814 30.0651 9.03785C30.8054 9.08757 31.4994 9.41565 32.0076 9.95615C32.5159 10.4967 32.8007 11.2095 32.8049 11.9514H32.8135Z" fill="white"/>
<path d="M29.8775 15.0312C29.1545 15.0303 28.4548 14.7753 27.9007 14.3108C27.3466 13.8463 26.9735 13.2018 26.8465 12.49H25.8982C25.8243 12.4954 25.7502 12.4855 25.6803 12.4609C25.6105 12.4364 25.5464 12.3977 25.4922 12.3473C25.438 12.2969 25.3947 12.2358 25.3652 12.168C25.3356 12.1001 25.3203 12.0268 25.3203 11.9528C25.3203 11.8788 25.3356 11.8055 25.3652 11.7376C25.3947 11.6698 25.438 11.6087 25.4922 11.5583C25.5464 11.5079 25.6105 11.4692 25.6803 11.4447C25.7502 11.4201 25.8243 11.4102 25.8982 11.4156H26.8465C26.9484 10.8383 27.2131 10.302 27.6093 9.86992C28.0056 9.4378 28.5169 9.12776 29.0833 8.97623C29.6497 8.82469 30.2475 8.83797 30.8066 9.0145C31.3657 9.19103 31.8628 9.52347 32.2394 9.97276C32.6161 10.422 32.8567 10.9695 32.9329 11.5508C33.0092 12.1321 32.9179 12.7231 32.6699 13.2544C32.4218 13.7856 32.0273 14.235 31.5327 14.5497C31.038 14.8645 30.4638 15.0315 29.8775 15.0312ZM25.8982 11.7021C25.863 11.6984 25.8274 11.702 25.7938 11.7129C25.7601 11.7238 25.7291 11.7416 25.7028 11.7653C25.6765 11.7889 25.6555 11.8178 25.6411 11.8501C25.6267 11.8825 25.6192 11.9174 25.6192 11.9528C25.6192 11.9882 25.6267 12.0232 25.6411 12.0555C25.6555 12.0878 25.6765 12.1167 25.7028 12.1403C25.7291 12.164 25.7601 12.1818 25.7938 12.1927C25.8274 12.2036 25.863 12.2072 25.8982 12.2035H26.9611C26.9958 12.2039 27.0291 12.217 27.0549 12.2401C27.0808 12.2633 27.0973 12.2951 27.1014 12.3295C27.1969 13.0312 27.5554 13.6704 28.1043 14.1179C28.6532 14.5653 29.3515 14.7876 30.058 14.7397C30.7645 14.6918 31.4265 14.3774 31.91 13.86C32.3935 13.3427 32.6625 12.6609 32.6625 11.9528C32.6625 11.2447 32.3935 10.5629 31.91 10.0456C31.4265 9.52818 30.7645 9.21376 30.058 9.16589C29.3515 9.11803 28.6532 9.3403 28.1043 9.78774C27.5554 10.2352 27.1969 10.8744 27.1014 11.5761C27.0973 11.6105 27.0808 11.6423 27.0549 11.6655C27.0291 11.6887 26.9958 11.7017 26.9611 11.7021H25.8982Z" fill="#231F20"/>
<path d="M29.8778 14.0286C31.025 14.0286 31.9549 13.0987 31.9549 11.9516C31.9549 10.8044 31.025 9.87451 29.8778 9.87451C28.7307 9.87451 27.8008 10.8044 27.8008 11.9516C27.8008 13.0987 28.7307 14.0286 29.8778 14.0286Z" fill="#231F20"/>
<path d="M29.8775 14.1716C29.4384 14.1716 29.0091 14.0414 28.644 13.7974C28.2789 13.5534 27.9943 13.2067 27.8262 12.8009C27.6582 12.3952 27.6142 11.9488 27.6999 11.5181C27.7856 11.0874 27.997 10.6918 28.3075 10.3813C28.6181 10.0708 29.0137 9.85929 29.4444 9.77362C29.8751 9.68795 30.3215 9.73192 30.7272 9.89997C31.1329 10.068 31.4797 10.3526 31.7237 10.7177C31.9676 11.0829 32.0978 11.5121 32.0978 11.9513C32.0971 12.5399 31.8629 13.1042 31.4467 13.5204C31.0305 13.9367 30.4662 14.1708 29.8775 14.1716ZM29.8775 10.0203C29.4949 10.0203 29.1209 10.1338 28.8029 10.3464C28.4848 10.559 28.2369 10.8612 28.0906 11.2148C27.9444 11.5683 27.9062 11.9573 27.9811 12.3325C28.0559 12.7077 28.2404 13.0522 28.5111 13.3226C28.7819 13.5929 29.1267 13.7769 29.502 13.8511C29.8773 13.9254 30.2663 13.8867 30.6196 13.7399C30.9729 13.5931 31.2747 13.3448 31.4868 13.0264C31.699 12.708 31.8119 12.3339 31.8114 11.9513C31.8106 11.4389 31.6065 10.9477 31.2439 10.5857C30.8814 10.2237 30.3899 10.0203 29.8775 10.0203Z" fill="#231F20"/>
<path d="M64.7775 29.7198C64.7734 30.4617 64.4886 31.1746 63.9803 31.7151C63.4721 32.2556 62.778 32.5837 62.0378 32.6334C61.2975 32.6831 60.5659 32.4508 59.9899 31.9831C59.414 31.5154 59.0364 30.847 58.9331 30.1123H57.8616C57.807 30.117 57.7521 30.1102 57.7003 30.0926C57.6485 30.0749 57.6009 30.0466 57.5606 30.0096C57.5202 29.9726 57.488 29.9275 57.466 29.8774C57.444 29.8273 57.4326 29.7731 57.4326 29.7184C57.4326 29.6636 57.444 29.6095 57.466 29.5593C57.488 29.5092 57.5202 29.4642 57.5606 29.4272C57.6009 29.3901 57.6485 29.3619 57.7003 29.3442C57.7521 29.3265 57.807 29.3198 57.8616 29.3245H58.9331C59.0364 28.5895 59.4142 27.921 59.9905 27.4533C60.5668 26.9856 61.2987 26.7535 62.0392 26.8036C62.7797 26.8537 63.4737 27.1823 63.9817 27.7233C64.4898 28.2643 64.7741 28.9777 64.7775 29.7198Z" fill="white"/>
<path d="M61.8473 32.7968C61.1245 32.7964 60.4248 32.5415 59.8711 32.0768C59.3174 31.6122 58.945 30.9674 58.8191 30.2556H57.8708C57.797 30.261 57.7228 30.2511 57.653 30.2266C57.5831 30.202 57.5191 30.1633 57.4649 30.1129C57.4106 30.0625 57.3674 30.0015 57.3378 29.9336C57.3082 29.8657 57.293 29.7925 57.293 29.7184C57.293 29.6444 57.3082 29.5711 57.3378 29.5033C57.3674 29.4354 57.4106 29.3743 57.4649 29.3239C57.5191 29.2735 57.5831 29.2348 57.653 29.2103C57.7228 29.1857 57.797 29.1759 57.8708 29.1813H58.8191C58.9211 28.6038 59.1859 28.0674 59.5822 27.6353C59.9786 27.2031 60.4901 26.8931 61.0566 26.7417C61.6232 26.5902 62.2211 26.6037 62.7803 26.7805C63.3394 26.9572 63.8365 27.2899 64.213 27.7395C64.5895 28.189 64.8299 28.7367 64.9058 29.3182C64.9817 29.8997 64.8901 30.4908 64.6416 31.0219C64.3932 31.5531 63.9982 32.0023 63.5032 32.3167C63.0082 32.6311 62.4337 32.7977 61.8473 32.7968ZM57.8708 29.4677C57.8357 29.464 57.8001 29.4677 57.7664 29.4785C57.7328 29.4894 57.7018 29.5073 57.6755 29.5309C57.6492 29.5545 57.6281 29.5835 57.6137 29.6158C57.5993 29.6481 57.5919 29.6831 57.5919 29.7184C57.5919 29.7538 57.5993 29.7888 57.6137 29.8211C57.6281 29.8534 57.6492 29.8823 57.6755 29.9059C57.7018 29.9296 57.7328 29.9474 57.7664 29.9583C57.8001 29.9692 57.8357 29.9729 57.8708 29.9691H58.9423C58.977 29.9695 59.0104 29.9826 59.0362 30.0058C59.062 30.0289 59.0785 30.0607 59.0827 30.0952C59.1782 30.7968 59.5366 31.436 60.0855 31.8835C60.6344 32.3309 61.3327 32.5532 62.0393 32.5053C62.7458 32.4575 63.4078 32.143 63.8913 31.6257C64.3748 31.1083 64.6438 30.4266 64.6438 29.7184C64.6438 29.0103 64.3748 28.3286 63.8913 27.8112C63.4078 27.2938 62.7458 26.9794 62.0393 26.9315C61.3327 26.8837 60.6344 27.1059 60.0855 27.5534C59.5366 28.0008 59.1782 28.64 59.0827 29.3417C59.0785 29.3761 59.062 29.4079 59.0362 29.4311C59.0104 29.4543 58.977 29.4673 58.9423 29.4677H57.8708Z" fill="#231F20"/>
<path d="M61.8495 31.7967C62.9967 31.7967 63.9266 30.8668 63.9266 29.7196C63.9266 28.5725 62.9967 27.6426 61.8495 27.6426C60.7024 27.6426 59.7725 28.5725 59.7725 29.7196C59.7725 30.8668 60.7024 31.7967 61.8495 31.7967Z" fill="#231F20"/>
<path d="M61.8501 31.9372C61.4108 31.9378 60.9811 31.808 60.6155 31.5642C60.25 31.3205 59.9649 30.9737 59.7965 30.5679C59.6281 30.1621 59.5839 29.7154 59.6695 29.2844C59.7551 28.8535 59.9666 28.4576 60.2773 28.1469C60.588 27.8362 60.9838 27.6247 61.4148 27.5391C61.8458 27.4535 62.2924 27.4977 62.6983 27.6661C63.1041 27.8345 63.4508 28.1196 63.6946 28.4851C63.9383 28.8507 64.0681 29.2804 64.0676 29.7198C64.0668 30.3076 63.833 30.8712 63.4173 31.2869C63.0016 31.7026 62.438 31.9364 61.8501 31.9372ZM61.8501 27.7859C61.4675 27.7854 61.0934 27.8983 60.775 28.1105C60.4566 28.3226 60.2083 28.6244 60.0615 28.9777C59.9147 29.331 59.876 29.72 59.9503 30.0953C60.0245 30.4706 60.2085 30.8154 60.4788 31.0862C60.7492 31.3569 61.0937 31.5414 61.4689 31.6162C61.8441 31.6911 62.2331 31.6529 62.5866 31.5066C62.9402 31.3604 63.2424 31.1125 63.455 30.7944C63.6676 30.4764 63.7811 30.1024 63.7811 29.7198C63.7803 29.2076 63.5767 28.7166 63.2149 28.3542C62.853 27.9918 62.3623 27.7875 61.8501 27.7859Z" fill="#231F20"/>
<path d="M58.6271 23.0873C58.6271 23.0873 56.4011 24.5857 55.9054 24.7031C55.4098 24.8206 52.8457 24.7404 52.8457 24.7404L55.2809 21.2824C55.2809 21.2824 56.9998 20.9243 57.8851 21.016C58.7704 21.1077 58.6271 23.0873 58.6271 23.0873Z" fill="white"/>
<path d="M54.5356 24.9126C53.7363 24.9126 52.8998 24.884 52.8396 24.884C52.8139 24.8821 52.7892 24.8738 52.7676 24.8598C52.7461 24.8457 52.7285 24.8265 52.7164 24.8038C52.7039 24.7814 52.6973 24.7563 52.6973 24.7307C52.6973 24.7051 52.7039 24.6799 52.7164 24.6576L55.1516 21.1997C55.173 21.1702 55.2047 21.1497 55.2404 21.1424C55.3092 21.1424 56.988 20.7785 57.8876 20.8759C58.9018 20.9819 58.7643 23.0132 58.7471 23.0991C58.7455 23.1209 58.7391 23.142 58.7281 23.1608C58.7172 23.1797 58.7021 23.1958 58.684 23.208C58.4548 23.3627 56.4265 24.7207 55.9194 24.8439C55.4606 24.9023 54.998 24.9253 54.5356 24.9126ZM53.1032 24.6032C53.9426 24.6261 55.5126 24.649 55.8621 24.566C56.2116 24.4829 57.8217 23.4458 58.4749 23.0103C58.5035 22.4545 58.4434 21.2226 57.8561 21.1596C57.0883 21.0794 55.6501 21.3515 55.3521 21.4117L53.1032 24.6032Z" fill="#231F20"/>
<path d="M49.1526 14.5441C49.2283 14.9375 49.2485 15.3396 49.2128 15.7387C49.1469 16.1312 49.4362 17.5465 49.4362 17.5465L46.7289 19.8155C46.7289 19.8155 46.0585 16.3776 46.2275 15.8046C46.5674 14.9569 46.9499 14.127 47.3735 13.3179L49.1526 14.5441Z" fill="white"/>
<path d="M46.729 19.953C46.7139 19.9557 46.6984 19.9557 46.6832 19.953C46.6597 19.9448 46.6387 19.9308 46.6222 19.9122C46.6056 19.8937 46.5941 19.8712 46.5887 19.847C46.5199 19.4917 45.9154 16.369 46.0902 15.7673C46.4287 14.9107 46.8112 14.072 47.2361 13.2548C47.2455 13.2368 47.2585 13.2209 47.2743 13.2081C47.29 13.1953 47.3083 13.1858 47.3278 13.1803C47.3479 13.1754 47.3688 13.175 47.3891 13.1789C47.4093 13.1829 47.4285 13.1912 47.4453 13.2032L49.233 14.4352C49.2537 14.4511 49.2704 14.4717 49.2817 14.4953C49.3695 14.9152 49.3937 15.346 49.3533 15.7731C49.3017 16.0596 49.4966 17.1396 49.5739 17.5264C49.5797 17.552 49.5783 17.5787 49.5697 17.6036C49.561 17.6284 49.5456 17.6503 49.5252 17.6668L46.8093 19.9272C46.786 19.9442 46.7579 19.9532 46.729 19.953ZM47.4195 13.5126C47.0233 14.2643 46.6684 15.0371 46.3566 15.8275C46.2449 16.2114 46.5572 18.1681 46.815 19.5318L49.2817 17.4806C49.2129 17.1482 49.0095 16.0653 49.0725 15.7043C49.0995 15.3454 49.0822 14.9846 49.021 14.63L47.4195 13.5126Z" fill="#231F20"/>
<path d="M67.3993 11.3443C67.6399 12.7996 65.3652 21.0621 64.9154 21.5233C64.4656 21.9846 58.4493 24.076 58.4493 24.076L57.4523 20.6237C57.4523 20.6237 61.7296 18.6641 61.9846 18.4521C62.2395 18.2401 62.844 15.0887 62.844 15.0887C62.844 15.0887 59.0452 14.5157 57.6328 13.3125C56.2204 12.1092 54.9397 8.18426 54.2321 8.02669C53.5245 7.86912 51.3901 9.14688 51.0807 9.68835C50.7713 10.2298 50.0178 15.103 50.0178 15.103L46.4424 13.9915C46.4424 13.9915 47.4508 8.9492 48.041 7.50528C48.6312 6.06136 55.4526 2.77816 56.2289 2.70081C57.0053 2.62346 67.1586 9.89176 67.3993 11.3443Z" fill="#68E1FD"/>
<path d="M54.0059 11.1178C54.1036 12.1013 54.504 13.0302 55.1518 13.7765C55.1518 13.7765 54.9742 14.2692 55.3295 14.401C55.5248 14.4805 55.7347 14.5176 55.9454 14.5099C55.9454 14.5099 58.1113 15.6244 59.2143 15.0829C60.3173 14.5414 58.8017 10.118 56.8994 10.161C54.9971 10.2039 54.0059 11.1178 54.0059 11.1178Z" fill="white"/>
<path d="M58.4754 15.3752C57.4154 15.3752 56.1519 14.7707 55.9199 14.6532C55.7023 14.6547 55.4865 14.6148 55.2839 14.5358C55.1542 14.4734 55.0527 14.3645 54.9996 14.2308C54.9465 14.097 54.9457 13.9482 54.9974 13.8138C54.3588 13.0529 53.9671 12.1156 53.8743 11.1265C53.8729 11.1052 53.8763 11.0839 53.8843 11.064C53.8922 11.0442 53.9045 11.0264 53.9202 11.0119C53.9603 10.9718 54.9659 10.0608 56.9025 10.0178C58.2204 9.97483 59.2776 11.8714 59.607 13.2179C59.8591 14.2436 59.7388 14.9884 59.2833 15.2234C59.0288 15.3338 58.7527 15.3857 58.4754 15.3752ZM55.9371 14.3725C55.9588 14.3682 55.9812 14.3682 56.003 14.3725C56.0259 14.3725 58.1201 15.4497 59.1544 14.9455C59.4695 14.7908 59.5383 14.1376 59.3263 13.2781C58.9739 11.8456 57.9597 10.2957 56.9283 10.2957H56.9054C55.9233 10.2832 54.9629 10.5843 54.1637 11.1552C54.2688 12.0799 54.6502 12.9515 55.2581 13.6563C55.276 13.6755 55.2884 13.6993 55.2939 13.725C55.2995 13.7507 55.298 13.7774 55.2896 13.8024C55.2896 13.8024 55.1664 14.1633 55.3813 14.2464C55.5566 14.3176 55.7451 14.3508 55.9342 14.3438L55.9371 14.3725Z" fill="#231F20"/>
<path d="M54.0054 11.118C54.3674 11.5688 54.8508 11.9065 55.3986 12.0913C55.9464 12.2761 56.5356 12.3002 57.0967 12.1609C57.0967 12.1609 57.3832 14.3239 59.2081 15.0831C59.2081 15.0831 62.5543 13.7967 63.2448 11.3071C63.9352 8.8175 62.2879 6.75762 60.3484 5.89814C58.4088 5.03867 53.5757 6.17318 54.0054 11.118Z" fill="white"/>
<path d="M59.2086 15.2321C59.1907 15.2361 59.1721 15.2361 59.1541 15.2321C57.5469 14.5588 57.0885 12.8714 56.9825 12.3499C56.4116 12.4561 55.8224 12.4054 55.278 12.2031C54.7336 12.0007 54.2543 11.6544 53.8913 11.2011C53.8769 11.1798 53.868 11.1551 53.8655 11.1295C53.6449 8.58258 54.788 7.19596 55.7879 6.48259C57.3292 5.37387 59.3346 5.28792 60.409 5.77782C62.3485 6.6373 64.1047 8.75161 63.3828 11.3587C62.6809 13.8884 59.4005 15.1748 59.2601 15.2292C59.2432 15.2329 59.2258 15.2338 59.2086 15.2321ZM57.0971 12.0233C57.1318 12.0238 57.1652 12.0368 57.191 12.06C57.2168 12.0832 57.2334 12.115 57.2375 12.1494C57.2375 12.1695 57.5412 14.195 59.2115 14.9341C59.6355 14.7565 62.4889 13.5016 63.1077 11.2756C63.7839 8.83183 62.1222 6.84644 60.2915 6.03567C59.2687 5.58014 57.3636 5.71479 55.9512 6.72325C55.0201 7.38791 53.9457 8.68285 54.1434 11.0693C54.4888 11.4906 54.9472 11.8046 55.4648 11.9746C55.9824 12.1446 56.5377 12.1635 57.0656 12.0291L57.0971 12.0233Z" fill="#231F20"/>
<path d="M45.7773 21.7172L51.6849 25.7819C52.0434 26.0286 52.5339 25.9379 52.7806 25.5795L55.7394 21.2792C55.986 20.9207 55.8954 20.4302 55.5369 20.1835L49.6293 16.1188C49.2709 15.8721 48.7803 15.9628 48.5337 16.3213L45.5749 20.6216C45.3282 20.98 45.4189 21.4706 45.7773 21.7172Z" fill="white"/>
<path d="M52.1231 26.0669C51.935 26.0663 51.7514 26.0094 51.5959 25.9036L45.6885 21.8383C45.4853 21.6981 45.346 21.4829 45.3014 21.24C45.2569 20.9972 45.3105 20.7466 45.4507 20.5433L48.4073 16.246C48.5475 16.0429 48.7625 15.9036 49.0051 15.8585C49.2478 15.8134 49.4984 15.8662 49.7022 16.0053L55.6097 20.0678C55.7109 20.1367 55.7974 20.225 55.8643 20.3275C55.9312 20.43 55.9771 20.5448 55.9995 20.6652C56.0219 20.7855 56.0202 20.9091 55.9946 21.0288C55.969 21.1485 55.92 21.262 55.8504 21.3627L52.8938 25.6601C52.8082 25.7856 52.6933 25.8883 52.559 25.9592C52.4246 26.0301 52.275 26.0671 52.1231 26.0669ZM49.1751 16.1256C49.07 16.1264 48.9668 16.1529 48.8744 16.2028C48.782 16.2528 48.7032 16.3246 48.6451 16.4121L45.6856 20.7095C45.5894 20.8507 45.5529 21.0241 45.584 21.1921C45.6152 21.36 45.7114 21.5089 45.8518 21.6062L51.7592 25.6687C51.8289 25.7171 51.9074 25.7511 51.9904 25.769C52.0733 25.7868 52.1589 25.788 52.2423 25.7726C52.3256 25.7571 52.4051 25.7253 52.4761 25.679C52.5472 25.6326 52.6083 25.5726 52.656 25.5025L55.6154 21.2051C55.7116 21.064 55.7481 20.8905 55.717 20.7226C55.6859 20.5546 55.5896 20.4057 55.4493 20.3084L49.5418 16.2402C49.4341 16.1656 49.3061 16.1257 49.1751 16.1256Z" fill="#231F20"/>
<path d="M46.4135 21.3027L51.8443 25.0394C52.0333 25.1695 52.2919 25.1217 52.422 24.9327L55.0089 21.1729C55.139 20.9839 55.0912 20.7252 54.9022 20.5952L49.4713 16.8585C49.2823 16.7284 49.0237 16.7762 48.8936 16.9652L46.3067 20.725C46.1767 20.914 46.2245 21.1727 46.4135 21.3027Z" fill="white"/>
<path d="M52.0714 25.2591C51.9591 25.2582 51.8495 25.2244 51.7563 25.1617L46.3129 21.4373C46.252 21.3958 46.2001 21.3424 46.1602 21.2804C46.1204 21.2184 46.0934 21.149 46.0809 21.0763C46.0664 21.0047 46.0668 20.9309 46.0821 20.8594C46.0974 20.7879 46.1272 20.7204 46.1697 20.6609L48.7481 16.8993C48.8345 16.7804 48.9632 16.6993 49.1077 16.6726C49.2522 16.6459 49.4014 16.6758 49.5245 16.756L54.9678 20.4804C55.0867 20.5668 55.1679 20.6955 55.1945 20.84C55.2212 20.9845 55.1913 21.1337 55.1111 21.2568L52.5327 25.0185C52.4802 25.0921 52.4111 25.1523 52.3309 25.1942C52.2508 25.236 52.1618 25.2582 52.0714 25.2591ZM49.2265 16.9337C49.1828 16.9349 49.1399 16.9461 49.1012 16.9664C49.0624 16.9868 49.0289 17.0158 49.0031 17.0511L46.4247 20.8099C46.3854 20.8699 46.37 20.9425 46.3817 21.0133C46.3965 21.0839 46.4374 21.1463 46.4963 21.1881L51.9396 24.9125C51.9686 24.933 52.0015 24.9476 52.0362 24.9553C52.0709 24.963 52.1068 24.9636 52.1418 24.9572C52.1768 24.9508 52.2101 24.9375 52.2398 24.918C52.2696 24.8985 52.2951 24.8732 52.3149 24.8437L54.8934 21.0821C54.9141 21.0534 54.9288 21.0209 54.9367 20.9864C54.9445 20.952 54.9454 20.9163 54.9392 20.8815C54.9244 20.8109 54.8834 20.7485 54.8246 20.7068L49.3813 16.968C49.3339 16.9423 49.2803 16.9303 49.2265 16.9337Z" fill="#231F20"/>
<path d="M54.9421 23.1649C54.9421 23.1649 52.9366 23.4829 52.7218 23.1363C52.5069 22.7896 52.9338 22.2596 53.3148 22.1536C53.6958 22.0476 55.7357 21.9072 55.7357 21.9072" fill="white"/>
<path d="M53.5017 23.4428C53.0777 23.4428 52.711 23.3855 52.6021 23.2136C52.554 23.133 52.5257 23.0421 52.5198 22.9485C52.5138 22.8548 52.5302 22.761 52.5677 22.675C52.6315 22.5208 52.7277 22.3822 52.8498 22.2685C52.9719 22.1548 53.1171 22.0687 53.2754 22.0161C53.6679 21.9043 55.6418 21.7697 55.7277 21.764C55.7653 21.7616 55.8023 21.7741 55.8307 21.7987C55.8591 21.8234 55.8766 21.8582 55.8796 21.8957C55.8811 21.9146 55.8789 21.9337 55.8729 21.9517C55.8669 21.9697 55.8573 21.9863 55.8447 22.0004C55.8321 22.0146 55.8168 22.0261 55.7996 22.0342C55.7825 22.0423 55.7639 22.0469 55.7449 22.0476C55.1719 22.0877 53.6535 22.2052 53.3527 22.2911C53.2371 22.3309 53.1312 22.3949 53.0423 22.4789C52.9534 22.5629 52.8834 22.6649 52.837 22.7781C52.8139 22.8224 52.8019 22.8715 52.8019 22.9214C52.8019 22.9713 52.8139 23.0204 52.837 23.0646C52.9373 23.205 53.9085 23.1878 54.9141 23.0274C54.9327 23.0245 54.9517 23.0254 54.97 23.0299C54.9883 23.0344 55.0055 23.0425 55.0207 23.0537C55.0359 23.0648 55.0487 23.0789 55.0584 23.095C55.0682 23.1112 55.0746 23.1291 55.0774 23.1477C55.0803 23.1663 55.0794 23.1853 55.0749 23.2036C55.0704 23.2219 55.0623 23.2392 55.0511 23.2543C55.0399 23.2695 55.0259 23.2823 55.0097 23.292C54.9936 23.3018 54.9757 23.3082 54.9571 23.311C54.4757 23.3897 53.9894 23.4337 53.5017 23.4428Z" fill="#231F20"/>
<path d="M47.1961 16.7902C47.1961 16.8389 47.0901 18.9704 47.5829 19.1366C48.0756 19.3028 48.0527 18.7641 48.1129 18.2771C48.1731 17.7901 48.0126 16.9621 48.2876 16.3662" fill="white"/>
<path d="M47.746 19.3113C47.6758 19.3091 47.6063 19.2966 47.5397 19.2741C47.067 19.1137 47.0126 17.8416 47.0527 16.8074C47.0533 16.7691 47.0685 16.7324 47.095 16.7048C47.1216 16.6771 47.1576 16.6606 47.1959 16.6584C47.2141 16.6576 47.2322 16.6606 47.2492 16.667C47.2662 16.6734 47.2817 16.6832 47.2949 16.6958C47.308 16.7084 47.3184 16.7235 47.3255 16.7402C47.3326 16.7569 47.3363 16.7749 47.3363 16.7931V16.8189C47.2847 18.1711 47.4452 18.9389 47.6228 19.0019C47.6808 19.0248 47.7453 19.0248 47.8033 19.0019C47.895 18.9446 47.9207 18.6868 47.9437 18.4605C47.9437 18.3946 47.9437 18.3258 47.9637 18.2599C47.9759 18.0748 47.9759 17.8892 47.9637 17.7041C47.9194 17.2309 47.979 16.7538 48.1385 16.306C48.1465 16.2888 48.1578 16.2734 48.1718 16.2606C48.1858 16.2478 48.2022 16.2379 48.2201 16.2315C48.2379 16.2251 48.2569 16.2224 48.2758 16.2233C48.2948 16.2243 48.3133 16.2291 48.3304 16.2373C48.3475 16.245 48.3629 16.256 48.3757 16.2698C48.3884 16.2835 48.3983 16.2997 48.4047 16.3173C48.4111 16.3349 48.4139 16.3537 48.413 16.3724C48.412 16.3911 48.4073 16.4095 48.3992 16.4264C48.2591 16.8348 48.2083 17.2686 48.2502 17.6984C48.2636 17.8968 48.2636 18.0959 48.2502 18.2943C48.2502 18.3602 48.233 18.4261 48.2273 18.4891C48.1958 18.8071 48.1643 19.1108 47.958 19.2426C47.8959 19.2864 47.822 19.3104 47.746 19.3113Z" fill="#231F20"/>
<path d="M31.0623 50.1383L23.5938 42.7295L14.5627 51.8333L22.0313 59.2421L31.0623 50.1383Z" fill="white"/>
<path d="M22.0244 59.3862C21.9866 59.3857 21.9506 59.3702 21.9241 59.3432L14.4553 51.9345C14.4293 51.9076 14.4149 51.8716 14.4152 51.8343C14.4143 51.8152 14.4175 51.7962 14.4244 51.7785C14.4313 51.7607 14.4418 51.7446 14.4553 51.7311L23.4855 42.6293C23.4988 42.6159 23.5147 42.6052 23.5321 42.5979C23.5496 42.5907 23.5683 42.5869 23.5872 42.5869C23.6061 42.5869 23.6248 42.5907 23.6423 42.5979C23.6597 42.6052 23.6756 42.6159 23.6889 42.6293L31.1578 50.038C31.1712 50.0513 31.1818 50.0671 31.1891 50.0846C31.1964 50.102 31.2001 50.1208 31.2001 50.1397C31.2001 50.1586 31.1964 50.1773 31.1891 50.1948C31.1818 50.2122 31.1712 50.2281 31.1578 50.2414L22.1275 59.3518C22.0989 59.3761 22.0619 59.3884 22.0244 59.3862ZM14.759 51.8314L22.0244 59.0395L30.8541 50.1411L23.5886 42.933L14.759 51.8314Z" fill="#231F20"/>
<path d="M28.2762 50.6134C28.2582 50.6134 28.2402 50.6099 28.2235 50.603C28.2068 50.5961 28.1916 50.586 28.1788 50.5733L23.1423 45.574C23.1297 45.5614 23.1197 45.5464 23.1129 45.53C23.1061 45.5135 23.1025 45.4958 23.1025 45.478C23.1025 45.4602 23.1061 45.4425 23.1129 45.4261C23.1197 45.4096 23.1297 45.3946 23.1423 45.382C23.1549 45.3694 23.1699 45.3594 23.1863 45.3526C23.2028 45.3458 23.2204 45.3423 23.2383 45.3423C23.2561 45.3423 23.2737 45.3458 23.2902 45.3526C23.3067 45.3594 23.3216 45.3694 23.3342 45.382L28.3708 50.3785C28.396 50.4046 28.4101 50.4395 28.4101 50.4759C28.4101 50.5122 28.396 50.5471 28.3708 50.5733C28.3451 50.5976 28.3116 50.6119 28.2762 50.6134Z" fill="#D1D3D4"/>
<path d="M26.8316 52.0661C26.8139 52.0666 26.7963 52.0633 26.78 52.0564C26.7636 52.0495 26.749 52.0391 26.7371 52.026L21.6977 47.0324C21.6849 47.0197 21.6747 47.0045 21.6677 46.9878C21.6608 46.9711 21.6572 46.9531 21.6572 46.935C21.6572 46.9169 21.6608 46.899 21.6677 46.8823C21.6747 46.8656 21.6849 46.8504 21.6977 46.8376C21.7238 46.8124 21.7588 46.7983 21.7951 46.7983C21.8314 46.7983 21.8663 46.8124 21.8925 46.8376L26.929 51.8341C26.9418 51.8468 26.952 51.862 26.9589 51.8787C26.9659 51.8954 26.9695 51.9134 26.9695 51.9315C26.9695 51.9496 26.9659 51.9675 26.9589 51.9842C26.952 52.0009 26.9418 52.0161 26.929 52.0289C26.9025 52.0533 26.8677 52.0667 26.8316 52.0661Z" fill="#D1D3D4"/>
<path d="M25.3909 53.5187C25.3548 53.5195 25.3199 53.5062 25.2935 53.4814L20.257 48.4822C20.2443 48.4696 20.2342 48.4547 20.2273 48.4382C20.2204 48.4217 20.2168 48.404 20.2168 48.3862C20.2168 48.3683 20.2204 48.3506 20.2273 48.3342C20.2342 48.3177 20.2443 48.3027 20.257 48.2902C20.2695 48.2775 20.2845 48.2674 20.301 48.2605C20.3174 48.2536 20.3351 48.25 20.353 48.25C20.3708 48.25 20.3885 48.2536 20.405 48.2605C20.4215 48.2674 20.4364 48.2775 20.449 48.2902L25.4855 53.2895C25.4982 53.302 25.5083 53.317 25.5152 53.3334C25.5221 53.3499 25.5257 53.3676 25.5257 53.3855C25.5257 53.4033 25.5221 53.421 25.5152 53.4375C25.5083 53.454 25.4982 53.4689 25.4855 53.4814C25.46 53.5057 25.4261 53.5191 25.3909 53.5187Z" fill="#D1D3D4"/>
<path d="M23.9466 54.9739C23.911 54.9736 23.877 54.9592 23.852 54.9338L18.8126 49.9374C18.7881 49.9109 18.7744 49.8761 18.7744 49.84C18.7744 49.8039 18.7881 49.7691 18.8126 49.7426C18.8254 49.7298 18.8406 49.7196 18.8573 49.7127C18.874 49.7057 18.8919 49.7021 18.91 49.7021C18.9281 49.7021 18.9461 49.7057 18.9628 49.7127C18.9795 49.7196 18.9947 49.7298 19.0074 49.7426L24.044 54.739C24.0633 54.7582 24.0764 54.7828 24.0818 54.8095C24.0871 54.8362 24.0844 54.8639 24.0739 54.8891C24.0635 54.9143 24.0458 54.9358 24.0231 54.9509C24.0005 54.966 23.9738 54.974 23.9466 54.9739Z" fill="#D1D3D4"/>
<path d="M20.4169 54.3553C20.3995 54.3556 20.3821 54.3525 20.3659 54.3461C20.3497 54.3398 20.3349 54.3302 20.3224 54.318L17.3715 51.3901C17.3587 51.3773 17.3485 51.3621 17.3416 51.3454C17.3346 51.3287 17.3311 51.3108 17.3311 51.2927C17.3311 51.2746 17.3346 51.2567 17.3416 51.24C17.3485 51.2232 17.3587 51.2081 17.3715 51.1953C17.3972 51.1703 17.4316 51.1563 17.4675 51.1562C17.5033 51.1563 17.5378 51.1703 17.5634 51.1953L20.5143 54.1232C20.5271 54.1358 20.5372 54.1507 20.5441 54.1672C20.551 54.1837 20.5545 54.2013 20.5545 54.2192C20.5545 54.2371 20.551 54.2548 20.5441 54.2712C20.5372 54.2877 20.5271 54.3026 20.5143 54.3152C20.5019 54.3285 20.4868 54.339 20.47 54.3459C20.4532 54.3528 20.4351 54.356 20.4169 54.3553Z" fill="#D1D3D4"/>
<path d="M11.694 53.6445C12.0807 53.2291 12.7225 53.1976 13.2926 53.1976C13.6708 53.1763 14.0498 53.2208 14.4128 53.3293C14.8931 53.5467 15.3138 53.877 15.639 54.292C16.2349 54.9394 16.8651 55.6585 16.9196 56.5381C16.9912 57.684 15.9541 58.7097 14.811 58.893C13.6679 59.0764 12.5191 58.5836 11.608 57.8616C11.1004 57.5125 10.7345 56.9932 10.5766 56.3977C10.5392 56.0949 10.5672 55.7876 10.6586 55.4965C10.7501 55.2054 10.9028 54.9373 11.1067 54.7102C11.5191 54.2638 11.9927 53.8779 12.5133 53.5643" fill="white"/>
<path d="M14.3151 59.0652C13.0946 59.0652 12.0633 58.4005 11.5189 57.9651C10.8886 57.4608 10.5334 56.9538 10.436 56.4151C10.3947 56.0907 10.4246 55.7612 10.5235 55.4495C10.6225 55.1378 10.7881 54.8514 11.009 54.6102C11.4259 54.1486 11.9085 53.7508 12.4414 53.4299C12.4735 53.409 12.5124 53.4015 12.5499 53.409C12.5874 53.4165 12.6204 53.4384 12.642 53.47C12.6627 53.5016 12.6701 53.5401 12.6626 53.5771C12.6551 53.6141 12.6333 53.6467 12.6019 53.6677C12.0913 53.9743 11.6281 54.3536 11.2267 54.7936C11.0345 55.0034 10.8901 55.2524 10.8035 55.5235C10.7169 55.7946 10.6903 56.0812 10.7253 56.3636C10.8113 56.8334 11.1322 57.2832 11.7051 57.7416C12.2781 58.2 13.4671 58.9563 14.7964 58.7415C15.8134 58.5782 16.8534 57.6557 16.7846 56.5383C16.7359 55.7362 16.1687 55.06 15.5441 54.3811C15.2324 53.9841 14.8308 53.6669 14.3724 53.4557C14.0251 53.3527 13.6625 53.311 13.3009 53.3325C12.7279 53.3325 12.1549 53.364 11.8083 53.7336C11.795 53.747 11.7791 53.7577 11.7617 53.7649C11.7442 53.7722 11.7255 53.776 11.7066 53.776C11.6877 53.776 11.6689 53.7722 11.6515 53.7649C11.634 53.7577 11.6182 53.747 11.6049 53.7336C11.5784 53.7063 11.5637 53.6698 11.5637 53.6319C11.5637 53.5939 11.5784 53.5574 11.6049 53.5302C12.0289 53.0775 12.705 53.0374 13.3238 53.0374C13.7185 53.0157 14.1139 53.0622 14.4927 53.1749C14.9947 53.4015 15.4349 53.7454 15.7762 54.1776C16.438 54.8967 17.0396 55.6101 17.0941 56.5126C17.1743 57.7817 16.0054 58.8331 14.8651 59.0165C14.6835 59.0485 14.4995 59.0648 14.3151 59.0652Z" fill="#231F20"/>
<path d="M16.5612 43.7407C16.7246 43.6701 16.8958 43.6191 17.0712 43.5889C17.2746 43.566 18.1226 43.4972 18.8532 43.3654C19.5837 43.2336 20.0622 43.1133 19.9476 42.8927C19.833 42.6721 18.5323 42.6234 18.5323 42.6234C18.9711 42.257 19.4386 41.9265 19.9304 41.635C20.3114 41.4746 20.5034 41.3485 20.4805 41.1623C20.4575 40.9761 20.4375 40.7784 19.5178 41.3084C19.5178 41.3084 20.4031 40.6036 20.0393 40.4661C19.6754 40.3286 18.9936 40.8586 18.9936 40.8586C18.9936 40.8586 19.7929 40.1796 19.641 39.9991C19.4892 39.8187 18.5724 40.2341 18.5724 40.2341C18.5724 40.2341 19.4777 39.7413 19.24 39.5522C19.0022 39.3631 18.2859 39.578 17.3663 40.1968C16.4467 40.8157 14.9941 41.996 14.9941 41.996L16.5612 43.7407Z" fill="white"/>
<path d="M16.5616 43.8808C16.5415 43.8806 16.5217 43.8762 16.5035 43.8678C16.4852 43.8594 16.4689 43.8472 16.4556 43.8321L14.8885 42.0817C14.8759 42.0673 14.8663 42.0505 14.8604 42.0322C14.8545 42.014 14.8523 41.9948 14.8541 41.9757C14.8555 41.9563 14.8608 41.9375 14.8696 41.9202C14.8785 41.903 14.8908 41.8878 14.9057 41.8754C14.9057 41.8754 16.3725 40.6865 17.2865 40.0705C18.2519 39.4173 19.0054 39.1795 19.3291 39.4316C19.3612 39.4563 19.3864 39.4887 19.4025 39.5257C19.4185 39.5628 19.4248 39.6034 19.4208 39.6436C19.4127 39.7054 19.388 39.7638 19.3492 39.8127C19.4185 39.792 19.492 39.7893 19.5627 39.8049C19.6333 39.8204 19.6989 39.8536 19.7532 39.9015C19.8334 40.0017 19.8162 40.1421 19.6987 40.3255C19.8257 40.2866 19.9614 40.2866 20.0883 40.3255C20.134 40.3394 20.1749 40.3658 20.2063 40.4017C20.2377 40.4377 20.2584 40.4818 20.266 40.5289C20.2722 40.6391 20.2386 40.7479 20.1714 40.8354C20.2637 40.8002 20.3657 40.8002 20.4579 40.8354C20.5069 40.8653 20.5471 40.9075 20.5748 40.9578C20.6024 41.008 20.6164 41.0646 20.6155 41.1219C20.6527 41.4342 20.329 41.6004 19.9795 41.7436C19.6026 41.9566 19.2451 42.202 18.9109 42.477C19.4409 42.52 19.9652 42.6088 20.0568 42.8036C20.076 42.8414 20.0859 42.8831 20.0859 42.9254C20.0859 42.9677 20.076 43.0094 20.0568 43.0471C19.968 43.2334 19.6758 43.3336 18.8564 43.4855C18.2176 43.5972 17.4899 43.666 17.1776 43.6946H17.063C16.9024 43.7246 16.7458 43.7726 16.596 43.8379C16.5878 43.8545 16.5761 43.8692 16.5616 43.8808ZM15.2151 42.0072L16.6132 43.5714C16.7592 43.5105 16.9122 43.4681 17.0687 43.4454H17.1862C17.4927 43.4167 18.2118 43.348 18.8421 43.2362C19.4724 43.1245 19.7875 43.0328 19.8362 42.9497C19.4133 42.8342 18.9769 42.7755 18.5384 42.775C18.5094 42.7744 18.4813 42.7647 18.4582 42.7472C18.435 42.7297 18.418 42.7053 18.4095 42.6776C18.3998 42.6501 18.3987 42.6202 18.4063 42.5921C18.414 42.5639 18.4301 42.5388 18.4525 42.52C18.9008 42.1442 19.3799 41.8068 19.8849 41.5116C20.2087 41.374 20.3548 41.2738 20.3462 41.1878C20.3489 41.1621 20.3489 41.1362 20.3462 41.1105C20.3462 41.1105 20.2173 41.0904 19.6128 41.4399C19.581 41.4573 19.544 41.4625 19.5087 41.4546C19.4734 41.4467 19.4421 41.4262 19.4208 41.397C19.401 41.3669 19.3932 41.3304 19.399 41.2948C19.4048 41.2592 19.4239 41.2272 19.4523 41.205C19.7388 40.9729 20.0081 40.6807 20.0053 40.589C19.7904 40.5289 19.3034 40.824 19.1028 40.9787C19.0884 40.9902 19.0718 40.9987 19.054 41.0038C19.0362 41.0089 19.0176 41.0104 18.9992 41.0083C18.9808 41.0062 18.9631 41.0004 18.9469 40.9914C18.9308 40.9824 18.9166 40.9703 18.9051 40.9558C18.8818 40.9265 18.8705 40.8894 18.8737 40.8521C18.8769 40.8147 18.8943 40.7801 18.9223 40.7552C19.1624 40.5703 19.3688 40.3455 19.5326 40.0906C19.2268 40.1381 18.9307 40.2348 18.6559 40.377C18.6217 40.3941 18.5821 40.397 18.5458 40.3849C18.5096 40.3728 18.4796 40.3468 18.4625 40.3126C18.4454 40.2784 18.4426 40.2388 18.4547 40.2025C18.4668 40.1663 18.4928 40.1363 18.527 40.1192C18.7594 40.004 18.9698 39.8488 19.1487 39.6608C18.9796 39.5806 18.4124 39.6895 17.4698 40.3283C16.6934 40.8182 15.5675 41.715 15.2151 42.0072Z" fill="#231F20"/>
<path d="M16.0337 44.2448L16.7299 43.8036L15.051 41.7266L13.9395 42.4485L16.0337 44.2448Z" fill="#231F20"/>
<path d="M16.0343 44.3883C15.9996 44.3887 15.966 44.3764 15.9397 44.3539L13.8483 42.5576C13.831 42.5437 13.8174 42.5257 13.8089 42.5052C13.8004 42.4846 13.7972 42.4623 13.7996 42.4402C13.8009 42.418 13.8073 42.3964 13.8182 42.377C13.8291 42.3576 13.8443 42.341 13.8627 42.3284L14.9742 41.6065C15.0041 41.5874 15.0399 41.5801 15.0748 41.5859C15.1098 41.5918 15.1413 41.6103 15.1633 41.638L16.8422 43.7122C16.8654 43.7456 16.8756 43.7864 16.8708 43.8268C16.8674 43.8468 16.8597 43.8658 16.8483 43.8826C16.837 43.8993 16.8222 43.9135 16.8049 43.9242L16.1088 44.3654C16.0865 44.3798 16.0607 44.3877 16.0343 44.3883ZM14.1807 42.4659L16.0457 44.0674L16.5156 43.7809L15.023 41.9302L14.1807 42.4659Z" fill="#231F20"/>
<path d="M20.6295 57.7417C20.6295 57.7417 19.8474 56.4181 19.77 55.9139C19.6927 55.4097 19.8445 54.596 19.9734 54.5817C20.1024 54.5674 20.4261 55.2464 20.3602 55.6475C20.3602 55.6475 21.0506 53.6162 21.4259 53.5618C21.8013 53.5074 21.7124 53.9428 21.6265 54.1921C21.6265 54.1921 21.9474 53.5818 22.1193 53.7308C22.2912 53.8798 22.1937 54.4671 22.1937 54.4671C22.1937 54.4671 22.4344 53.811 22.6321 53.94C22.8298 54.0689 22.7094 54.6361 22.7094 54.6361C22.7094 54.6361 22.9587 53.9686 23.1048 54.2436C23.2509 54.5187 23.2194 57.3521 22.8756 58.2058C22.5318 59.0596 20.6295 57.7417 20.6295 57.7417Z" fill="white"/>
<path d="M22.3765 58.6383C21.6746 58.6383 20.6576 57.9478 20.5373 57.859C20.5204 57.8484 20.5066 57.8336 20.4972 57.816C20.4628 57.7587 19.7007 56.4638 19.609 55.9367C19.5351 55.4589 19.5987 54.97 19.7924 54.5271C19.8092 54.5035 19.8305 54.4835 19.8551 54.4683C19.8797 54.453 19.907 54.4428 19.9356 54.4383C19.9729 54.4359 20.0102 54.4427 20.0442 54.4582C20.0782 54.4737 20.1078 54.4974 20.1304 54.5271C20.2551 54.6799 20.3477 54.8563 20.4026 55.0457C20.669 54.3495 21.0644 53.4671 21.3853 53.4213C21.4507 53.4054 21.5192 53.4082 21.5831 53.4295C21.6469 53.4508 21.7035 53.4896 21.7463 53.5416C21.7756 53.5789 21.7971 53.6218 21.8093 53.6676C21.8601 53.6181 21.9235 53.5835 21.9926 53.5674C22.028 53.5605 22.0645 53.5618 22.0993 53.5712C22.134 53.5806 22.1662 53.598 22.1932 53.6218C22.2703 53.6986 22.3179 53.8 22.3278 53.9083C22.3696 53.8618 22.4216 53.8255 22.4797 53.8023C22.5144 53.7904 22.5513 53.7868 22.5876 53.7918C22.624 53.7968 22.6586 53.8102 22.6888 53.8309C22.7322 53.8634 22.7688 53.9042 22.7963 53.9509C22.8239 53.9977 22.8419 54.0494 22.8493 54.1031C22.889 54.0699 22.938 54.0499 22.9896 54.0458C23.0365 54.0431 23.083 54.0552 23.1226 54.0804C23.1622 54.1056 23.1929 54.1426 23.2102 54.1862C23.3965 54.5386 23.3248 57.4379 22.9868 58.2716C22.955 58.3548 22.9043 58.4294 22.8386 58.4896C22.773 58.5498 22.6942 58.5938 22.6086 58.6182C22.5325 58.6354 22.4544 58.6421 22.3765 58.6383ZM20.7349 57.6327C21.1074 57.8877 22.0786 58.4606 22.537 58.3231C22.5808 58.3109 22.621 58.2884 22.6544 58.2575C22.6878 58.2266 22.7133 58.1882 22.7289 58.1455C23.0527 57.3462 23.0756 54.8623 22.9839 54.3695C22.922 54.4667 22.8711 54.5705 22.8321 54.679C22.8214 54.7169 22.7961 54.7492 22.7617 54.7685C22.7274 54.7878 22.6867 54.7927 22.6487 54.7821C22.6107 54.7715 22.5785 54.7462 22.5592 54.7118C22.5398 54.6774 22.5349 54.6367 22.5456 54.5987C22.5902 54.4249 22.5902 54.2426 22.5456 54.0687C22.4396 54.1992 22.3581 54.3476 22.3049 54.5071C22.292 54.5403 22.2674 54.5676 22.2358 54.584C22.2041 54.6003 22.1676 54.6046 22.133 54.5959C22.0988 54.587 22.0691 54.5656 22.05 54.5359C22.0309 54.5061 22.0237 54.4703 22.0299 54.4354C22.0712 54.2467 22.0712 54.0512 22.0299 53.8625C21.9119 53.9786 21.815 54.1143 21.7434 54.2635C21.7355 54.2807 21.7243 54.2961 21.7104 54.3088C21.6966 54.3216 21.6804 54.3316 21.6627 54.3381C21.645 54.3446 21.6262 54.3476 21.6073 54.3468C21.5885 54.3461 21.57 54.3416 21.5529 54.3337C21.5358 54.3258 21.5204 54.3146 21.5076 54.3008C21.4948 54.2869 21.4848 54.2707 21.4783 54.253C21.4718 54.2353 21.4688 54.2165 21.4696 54.1977C21.4703 54.1788 21.4748 54.1603 21.4827 54.1432C21.5529 54.0134 21.5704 53.8615 21.5314 53.7192C21.5142 53.6992 21.4598 53.7049 21.4368 53.7192C21.2707 53.7708 20.8352 54.6818 20.4886 55.7075C20.4794 55.7455 20.4556 55.7783 20.4223 55.7987C20.389 55.8191 20.3489 55.8254 20.3109 55.8163C20.2729 55.8072 20.2401 55.7834 20.2197 55.7501C20.1993 55.7168 20.193 55.6767 20.2021 55.6387C20.2129 55.3469 20.1361 55.0585 19.9815 54.8107C19.8791 55.165 19.8489 55.5362 19.8927 55.9023C19.9671 56.2719 20.5115 57.2602 20.7349 57.6327Z" fill="#231F20"/>
<path d="M20.4287 58.4465L20.6293 57.7417L22.8639 58.2058L22.6204 59.4148L20.4287 58.4465Z" fill="#231F20"/>
<path d="M22.6201 59.5576C22.6011 59.5606 22.5817 59.5606 22.5627 59.5576L20.3711 58.575C20.3393 58.5616 20.3135 58.5369 20.2987 58.5058C20.2839 58.4746 20.2811 58.439 20.2909 58.4059L20.4914 57.704C20.5003 57.6686 20.5226 57.638 20.5536 57.6188C20.5846 57.5995 20.6219 57.5931 20.6576 57.6009L22.8922 58.065C22.9291 58.0733 22.9613 58.0955 22.9821 58.127C23.003 58.1585 23.0108 58.1969 23.0039 58.234L22.7604 59.443C22.756 59.4638 22.747 59.4833 22.7341 59.5001C22.7213 59.517 22.7048 59.5307 22.6859 59.5404C22.6659 59.5518 22.6431 59.5578 22.6201 59.5576ZM20.6146 58.3658L22.5284 59.211L22.7089 58.3171L20.7292 57.9189L20.6146 58.3658Z" fill="#231F20"/>
<path d="M10.8114 54.7676C10.8114 54.7676 8.76869 53.5672 7.62559 53.3752C7.62559 53.3752 9.77714 49.0779 10.035 48.7914C10.2928 48.5049 16.3378 44.2934 16.3378 44.2934L14.2292 41.9385C14.2292 41.9385 8.02381 46.0382 6.73173 47.4391C5.43965 48.8401 2.80966 52.5329 3.51443 54.8765C4.2192 57.22 4.94689 60.0734 8.00376 62.7378C10.3148 64.7782 13.2478 65.9776 16.3263 66.1413C18.3662 66.253 20.6037 65.7058 21.2454 65.0698C21.8872 64.4338 22.8641 58.9532 22.8641 58.9532L20.0593 58.2055L19.1082 62.6948L16.8162 61.8353C16.8162 61.8353 16.5068 59.9302 14.212 58.0451C12.9805 57.059 11.8422 55.9619 10.8114 54.7676Z" fill="#68E1FD"/>
<path d="M11.5767 62.6605C12.1949 62.687 12.8072 62.5295 13.3358 62.2078C14.668 61.3999 15.8197 60.5376 16.6476 59.171C16.9656 58.6496 17.2206 58.0078 17.0029 57.452C16.7164 56.7329 15.6879 56.4063 15.5074 55.6758C15.4472 55.4294 15.5303 55.1601 15.4472 54.9195C15.3975 54.8011 15.3191 54.6969 15.2191 54.6164C15.119 54.5358 15.0005 54.4815 14.8742 54.4582C14.759 54.4376 14.6451 54.4099 14.5333 54.3751C14.328 54.2564 14.1495 54.0964 14.009 53.9053C13.7709 53.6799 13.4848 53.5112 13.1722 53.412C12.8597 53.3128 12.5287 53.2855 12.2041 53.3323C11.555 53.4324 10.9419 53.6956 10.4221 54.0972C8.96677 55.1458 7.49993 57.2486 7.7721 59.1395C8.05286 60.9673 9.69733 62.5888 11.5767 62.6605Z" fill="white"/>
<path d="M11.7084 62.8068H11.5709C9.68291 62.7352 7.91526 61.0878 7.6345 59.1569C7.348 57.2603 8.8263 55.0715 10.3447 53.9771C10.884 53.5617 11.5197 53.2897 12.1926 53.1864C12.5387 53.1358 12.8919 53.1645 13.2254 53.2702C13.5588 53.3759 13.864 53.5559 14.1178 53.7966L14.241 53.9341C14.336 54.0544 14.4563 54.1522 14.5934 54.2206C14.6578 54.2422 14.724 54.2585 14.7911 54.2693L14.9143 54.2951C15.0628 54.3254 15.2015 54.3919 15.318 54.4889C15.4345 54.5859 15.5251 54.7103 15.5818 54.8509C15.6252 54.9976 15.6407 55.1511 15.6276 55.3036C15.6201 55.4089 15.6258 55.5148 15.6448 55.6187C15.7279 55.9568 16.0316 56.206 16.3524 56.4782C16.6849 56.7097 16.9538 57.021 17.1346 57.3835C17.338 57.8935 17.2176 58.5008 16.7707 59.24C15.8883 60.6953 14.6335 61.5806 13.4102 62.3255C12.8984 62.6403 12.3093 62.807 11.7084 62.8068ZM12.5077 53.4528C12.416 53.4528 12.3215 53.4528 12.2212 53.4672C11.5951 53.5647 11.0038 53.819 10.5023 54.2063C9.05263 55.252 7.63736 57.3262 7.92385 59.1139C8.21035 60.9016 9.83189 62.4515 11.5881 62.5174C12.1785 62.5458 12.7637 62.395 13.2669 62.0848C14.4587 61.3629 15.6821 60.4977 16.5329 59.0967C16.9312 58.4407 17.0429 57.9164 16.8739 57.4924C16.7092 57.1762 16.4691 56.9056 16.1748 56.7045C15.8339 56.418 15.4786 56.1315 15.3726 55.6989C15.3472 55.5698 15.3385 55.4378 15.3469 55.3064C15.3568 55.1891 15.3472 55.071 15.3182 54.9569C15.2758 54.862 15.2113 54.7787 15.13 54.7139C15.0488 54.6491 14.9532 54.6047 14.8512 54.5845L14.7452 54.5644C14.6583 54.5492 14.573 54.5262 14.4902 54.4957C14.3102 54.4082 14.1531 54.2796 14.0319 54.1204C13.9946 54.0774 13.9574 54.0344 13.9173 53.9943C13.7298 53.8153 13.5087 53.6753 13.2667 53.5824C13.0248 53.4894 12.7668 53.4454 12.5077 53.4528Z" fill="#231F20"/>
<path d="M17.389 23.411C18.0284 23.1969 18.7146 23.1642 19.3715 23.3164C19.3715 23.3164 19.6322 22.7435 20.0448 22.6718C20.4573 22.6002 20.3685 22.775 20.3685 22.775C20.3685 22.775 20.7094 22.3596 20.9014 22.5171C20.9014 22.5171 21.3053 22.6947 21.354 22.9497C21.354 22.9497 21.8926 22.7606 21.9786 23.0729C22.0645 23.3852 21.6176 24.0241 20.9272 24.6028C20.2367 25.1815 19.4059 25.637 19.1566 25.6485C18.9074 25.6599 17.0137 25.2789 17.0137 25.2789L17.389 23.411Z" fill="white"/>
<path d="M19.1453 25.7919C18.8445 25.7919 17.3003 25.4825 16.988 25.4195C16.9506 25.4118 16.9177 25.3899 16.8963 25.3583C16.8749 25.3267 16.8666 25.288 16.8734 25.2504L17.2487 23.3825C17.2531 23.3587 17.2636 23.3364 17.2792 23.3178C17.2947 23.2992 17.3148 23.285 17.3375 23.2765C17.9687 23.0652 18.6441 23.0218 19.2971 23.1505C19.3699 23.0042 19.4713 22.8741 19.5954 22.7678C19.7194 22.6615 19.8635 22.5812 20.0191 22.5316C20.1414 22.4944 20.2721 22.4944 20.3944 22.5316C20.5749 22.3655 20.7983 22.2451 20.9674 22.3855C21.1541 22.4688 21.3146 22.6016 21.4315 22.7694C21.5943 22.7236 21.7678 22.7337 21.9243 22.7981C21.9695 22.8209 22.0093 22.8531 22.0409 22.8927C22.0726 22.9322 22.0953 22.9781 22.1076 23.0273C22.2251 23.4513 21.6406 24.1732 21.0132 24.7032C20.3858 25.2333 19.4719 25.7661 19.1539 25.7833L19.1453 25.7919ZM17.1828 25.1674C17.9134 25.3135 18.9906 25.5083 19.1481 25.5054C19.3057 25.5026 20.105 25.1043 20.8356 24.4941C21.5661 23.8839 21.8985 23.3224 21.8383 23.1103C21.8364 23.0991 21.8318 23.0885 21.8248 23.0795C21.8178 23.0705 21.8086 23.0634 21.7982 23.0588C21.666 23.0254 21.5267 23.0345 21.4 23.0846C21.3815 23.0929 21.3615 23.0972 21.3412 23.0972C21.321 23.0972 21.301 23.0929 21.2825 23.0846C21.2651 23.0738 21.25 23.0596 21.2382 23.0429C21.2264 23.0262 21.2181 23.0072 21.2138 22.9872C21.188 22.8525 20.953 22.7007 20.8442 22.6577C20.8322 22.6531 20.8207 22.6474 20.8098 22.6405C20.7754 22.6119 20.6064 22.7236 20.4803 22.8754C20.4635 22.898 20.4402 22.9151 20.4135 22.9242C20.3869 22.9334 20.3581 22.9344 20.3309 22.927C20.3036 22.9195 20.2793 22.9041 20.261 22.8826C20.2427 22.8612 20.2313 22.8347 20.2282 22.8067C20.1762 22.8073 20.1244 22.8131 20.0735 22.8239C19.787 22.8783 19.5664 23.2479 19.5005 23.3968C19.4858 23.4268 19.4613 23.4507 19.4311 23.4648C19.4009 23.4789 19.3667 23.4822 19.3344 23.4742C18.7306 23.3378 18.1018 23.3605 17.5094 23.5401L17.1828 25.1674Z" fill="#231F20"/>
<path d="M20.2886 25.3537C20.2624 25.3542 20.2365 25.3473 20.2141 25.3336C20.1822 25.314 20.159 25.2828 20.1494 25.2465C20.1398 25.2103 20.1445 25.1717 20.1626 25.1388L22.1222 21.7754C22.1419 21.7427 22.1736 21.719 22.2105 21.7093C22.2475 21.6997 22.2867 21.7049 22.3199 21.7238C22.3526 21.7435 22.3763 21.7752 22.3859 21.8122C22.3956 21.8491 22.3904 21.8884 22.3714 21.9215L20.4118 25.2821C20.3993 25.3037 20.3814 25.3217 20.3598 25.3343C20.3382 25.3468 20.3136 25.3535 20.2886 25.3537Z" fill="#231F20"/>
<path d="M20.7499 23.0759C20.9732 23.0217 21.2019 22.9928 21.4317 22.99C21.4822 22.9829 21.5337 22.9861 21.5829 22.9994C21.6321 23.0127 21.6782 23.0358 21.7182 23.0674C21.752 23.1061 21.7735 23.154 21.7802 23.205C21.7868 23.2559 21.7782 23.3077 21.7555 23.3538C21.7085 23.446 21.6359 23.5226 21.5463 23.5744C21.2694 23.7278 20.9724 23.8416 20.6639 23.9125C20.5937 23.9298 20.5268 23.9588 20.4663 23.9985C20.3949 24.0606 20.3331 24.133 20.2829 24.2133C20.0642 24.4675 19.7949 24.6734 19.4922 24.8178" fill="white"/>
<path d="M19.4894 24.9726C19.4636 24.973 19.4381 24.9663 19.4159 24.9531C19.3937 24.94 19.3755 24.9209 19.3634 24.8981C19.3543 24.8816 19.3486 24.8634 19.3465 24.8447C19.3445 24.8259 19.3462 24.8069 19.3515 24.7888C19.3568 24.7707 19.3657 24.7538 19.3776 24.7392C19.3894 24.7245 19.4041 24.7123 19.4207 24.7033C19.7059 24.5658 19.9595 24.3707 20.1655 24.1303L20.1999 24.0845C20.249 24.0093 20.31 23.9425 20.3804 23.8868C20.4532 23.8379 20.5335 23.8011 20.6182 23.778L20.8073 23.7207C21.0377 23.6669 21.2588 23.579 21.4633 23.4599C21.5298 23.4213 21.5851 23.366 21.6238 23.2995C21.6353 23.2795 21.6414 23.2567 21.6414 23.2336C21.6414 23.2105 21.6353 23.1878 21.6238 23.1677C21.5894 23.1333 21.5035 23.1333 21.4404 23.1333C21.2222 23.1366 21.005 23.1645 20.793 23.2164C20.7561 23.225 20.7174 23.2187 20.6851 23.1989C20.6529 23.179 20.6299 23.1472 20.6211 23.1104C20.6164 23.0924 20.6153 23.0735 20.618 23.0551C20.6206 23.0366 20.6269 23.0188 20.6365 23.0028C20.6461 22.9868 20.6588 22.9729 20.6739 22.9618C20.6889 22.9508 20.706 22.9429 20.7242 22.9385C20.9577 22.8808 21.1971 22.8501 21.4376 22.8469C21.5072 22.8399 21.5776 22.8469 21.6446 22.8676C21.7115 22.8882 21.7736 22.9221 21.8272 22.9672C21.8811 23.0268 21.9161 23.1011 21.9279 23.1807C21.9396 23.2602 21.9275 23.3414 21.8931 23.4141C21.8353 23.5325 21.7448 23.6319 21.6324 23.7006C21.4031 23.8334 21.1548 23.93 20.8961 23.9871L20.7127 24.0444C20.6581 24.0568 20.6058 24.0781 20.558 24.1074C20.5125 24.1463 20.4729 24.1917 20.4406 24.2421L20.4033 24.2936C20.1719 24.5639 19.8871 24.7834 19.5668 24.9382C19.5448 24.9568 19.5179 24.9687 19.4894 24.9726Z" fill="#231F20"/>
<path d="M24.1473 17.5782C23.8246 18.0118 23.6087 18.5153 23.517 19.0479C23.285 20.0707 23.1446 20.9474 23.3623 20.9732C23.5801 20.9989 24.0327 20.0249 24.0327 20.0249C24.0327 20.0249 24.176 22.271 24.5484 22.2796C24.9209 22.2881 24.8922 21.9043 24.8922 21.9043C24.8922 21.9043 25.1271 22.3798 25.3105 22.1907C25.3631 22.1248 25.3986 22.0469 25.4141 21.964C25.4296 21.8811 25.4245 21.7957 25.3993 21.7152C25.3993 21.7152 25.6428 22.1506 25.7803 21.9816C25.8206 21.9201 25.847 21.8506 25.8579 21.7779C25.8688 21.7052 25.8638 21.6311 25.8434 21.5605C25.8434 21.5605 26.1614 21.9587 26.253 21.655C26.3447 21.3513 26.1012 19.0537 25.8147 18.1598C25.6718 17.6701 25.4677 17.2004 25.2074 16.7617L24.1473 17.5782Z" fill="white"/>
<path d="M24.5575 22.4228C24.271 22.4228 24.0562 21.784 23.9416 20.5435C23.7153 20.9388 23.5176 21.1365 23.3686 21.1164C23.3367 21.113 23.3059 21.1027 23.2782 21.0864C23.2505 21.0701 23.2267 21.0481 23.2082 21.0219C23.105 20.8758 23.0563 20.532 23.3972 19.0165C23.4944 18.4602 23.7222 17.9349 24.0619 17.4837L24.0791 17.4665L25.1334 16.6472C25.1655 16.6236 25.2056 16.6133 25.2451 16.6185C25.2842 16.6269 25.3189 16.6493 25.3425 16.6815C25.6101 17.1309 25.8199 17.6122 25.9671 18.114C26.2278 18.9534 26.5229 21.3399 26.4111 21.7095C26.401 21.7607 26.3761 21.8079 26.3394 21.845C26.3028 21.8822 26.256 21.9078 26.2049 21.9186C26.1379 21.9306 26.0688 21.9185 26.0101 21.8842C25.9924 21.9573 25.9592 22.0257 25.9126 22.0848C25.8885 22.116 25.8571 22.1407 25.8211 22.1567C25.7851 22.1727 25.7457 22.1795 25.7064 22.1765C25.6418 22.1712 25.5801 22.1473 25.5287 22.1077C25.5041 22.1808 25.4618 22.2468 25.4056 22.2996C25.3765 22.331 25.34 22.3545 25.2994 22.368C25.2589 22.3815 25.2156 22.3846 25.1735 22.377C25.0821 22.3553 25.0005 22.304 24.9414 22.2309C24.9288 22.2495 24.9145 22.2667 24.8985 22.2825C24.8548 22.3286 24.8018 22.365 24.743 22.3892C24.6843 22.4134 24.6211 22.4249 24.5575 22.4228ZM24.0361 19.8817H24.0619C24.0931 19.8875 24.1214 19.9036 24.1422 19.9276C24.163 19.9515 24.1751 19.9818 24.1765 20.0134C24.2453 21.0706 24.4258 22.0418 24.5719 22.1392C24.6178 22.1373 24.6615 22.119 24.6951 22.0876C24.7337 22.0368 24.753 21.9738 24.7495 21.91C24.7484 21.8769 24.7586 21.8445 24.7784 21.8179C24.7981 21.7914 24.8263 21.7723 24.8584 21.7639C24.89 21.7553 24.9236 21.758 24.9535 21.7716C24.9833 21.7853 25.0074 21.8089 25.0217 21.8384C25.0652 21.941 25.1355 22.03 25.2251 22.0962C25.3253 21.9874 25.2623 21.7696 25.2623 21.7668C25.2533 21.7335 25.2566 21.698 25.2717 21.667C25.2867 21.6359 25.3125 21.6114 25.3442 21.5978C25.3759 21.5842 25.4114 21.5825 25.4443 21.593C25.4771 21.6035 25.5051 21.6256 25.523 21.655C25.5679 21.7351 25.6238 21.8084 25.6892 21.8728C25.7239 21.7892 25.7299 21.6966 25.7064 21.6092C25.6985 21.5777 25.7016 21.5445 25.7151 21.515C25.7286 21.4855 25.7518 21.4614 25.7807 21.4468C25.8097 21.4321 25.8428 21.4278 25.8745 21.4344C25.9063 21.441 25.9349 21.4582 25.9556 21.4831C26.0013 21.5379 26.0543 21.5861 26.1132 21.6264C26.1078 20.4667 25.9596 19.312 25.672 18.1885C25.5432 17.7629 25.3723 17.3512 25.162 16.9594L24.2481 17.6699C23.9491 18.0851 23.7465 18.5617 23.6551 19.0652C23.3686 20.2885 23.3686 20.6724 23.4058 20.7841C23.6055 20.5245 23.7728 20.2417 23.9043 19.9418C23.9192 19.9212 23.9391 19.9048 23.9622 19.8943C23.9854 19.8837 24.0108 19.8794 24.0361 19.8817Z" fill="#231F20"/>
<path d="M14.3381 5.93231C14.3381 5.93231 11.5821 2.28527 10.5679 2.08759C9.55373 1.88991 1.01627 12.8969 1.04205 14.2864C1.06783 15.6759 7.19303 18.5494 7.19303 18.5494L14.3381 5.93231Z" fill="#231F20"/>
<path d="M7.19247 18.6929C7.17261 18.6968 7.15217 18.6968 7.13231 18.6929C6.49057 18.3835 0.924027 15.7277 0.889648 14.2895C0.889648 12.9888 7.6308 4.18778 9.83106 2.33991C10.2952 1.95028 10.4814 1.92736 10.5931 1.94741C11.6331 2.14796 14.1657 5.4684 14.4493 5.84657C14.4655 5.86967 14.4741 5.89717 14.4741 5.92535C14.4741 5.95354 14.4655 5.98104 14.4493 6.00414L7.28701 18.6098C7.27862 18.6299 7.26574 18.6479 7.24935 18.6623C7.23297 18.6767 7.21351 18.6871 7.19247 18.6929ZM10.5444 2.22818C10.5244 2.22818 10.3639 2.24537 9.84539 2.71521C7.3128 4.99569 1.17614 13.2266 1.17614 14.2866C1.17614 15.3466 5.36752 17.524 7.12658 18.3634L14.1657 5.94398C13.3635 4.89255 11.3008 2.37715 10.5387 2.21958L10.5444 2.22818Z" fill="#231F20"/>
<path d="M8.47631 8.64262C8.47631 8.64262 11.2037 5.58002 13.1519 4.73774C15.1 3.89545 16.8505 3.85248 18.0595 4.86093C19.2685 5.86938 22.3798 8.72284 22.9699 10.0178C23.5601 11.3127 25.8836 17.0254 25.8836 17.0254L23.1132 18.3146C23.1132 18.3146 20.3886 11.9688 20.1824 11.4388C19.9761 10.9088 16.3749 8.61397 16.2488 8.49078C16.1228 8.36759 15.3894 11.4875 14.1431 12.7538C12.8969 14.0201 8.6568 17.1428 8.6568 17.1428C8.6568 17.1428 11.5532 20.6839 12.0575 21.1766C12.5617 21.6694 18.3144 22.7925 18.3144 22.7925L17.5581 25.7032C17.5581 25.7032 11.4329 24.7549 10.4846 24.3538C9.53633 23.9528 4.28493 20.6552 4.04141 17.5468C3.7979 14.4384 8.47631 8.64262 8.47631 8.64262Z" fill="#68E1FD"/>
<path d="M14.9884 9.8029C15.3379 10.25 15.6269 10.7412 15.8478 11.264C16.1792 11.9062 16.3165 12.6308 16.2432 13.3497C16.1229 14.0573 15.5843 14.7334 14.8709 14.8079C15.1574 15.6502 14.6073 16.6042 13.8223 17.0139C13.0373 17.4236 12.0833 17.372 11.2439 17.117C10.2053 16.7834 9.27311 16.1814 8.54167 15.372C7.81024 14.5626 7.30544 13.5744 7.07831 12.5074C6.7202 10.7884 7.69427 8.61682 9.51349 8.10973C11.4043 7.58545 13.7564 8.28449 14.9884 9.8029Z" fill="white"/>
<path d="M12.502 17.4549C12.0629 17.4515 11.6267 17.3839 11.2071 17.2544C10.1445 16.911 9.19076 16.2943 8.44156 15.4661C7.69236 14.638 7.17398 13.6275 6.93837 12.5359C6.58312 10.8169 7.53713 8.51066 9.47382 7.97205C11.4105 7.43345 13.8543 8.17546 15.1005 9.71392C15.4642 10.1737 15.7639 10.6806 15.9915 11.2209C16.2293 11.7566 16.533 12.5645 16.3955 13.3867C16.2837 14.0543 15.7938 14.7734 15.0604 14.9367C15.2581 15.8477 14.6507 16.7645 13.9144 17.1541C13.4748 17.3669 12.9902 17.4701 12.502 17.4549ZM10.8261 8.06946C10.3956 8.06803 9.96688 8.12391 9.55117 8.23563C7.76633 8.73412 6.88966 10.8656 7.21913 12.4671C7.44399 13.5077 7.93807 14.4711 8.65198 15.261C9.36589 16.0508 10.2746 16.6394 11.2873 16.9679C12.227 17.2544 13.1094 17.2171 13.7683 16.8734C14.4273 16.5296 15.006 15.6472 14.7453 14.8393C14.738 14.8193 14.7358 14.7979 14.7388 14.7769C14.7418 14.756 14.7499 14.736 14.7625 14.7189C14.7736 14.7009 14.7886 14.6856 14.8065 14.6742C14.8243 14.6627 14.8445 14.6555 14.8656 14.653C15.5417 14.5814 16.0116 13.911 16.1118 13.3123C16.2121 12.7135 16.0861 12.109 15.7279 11.3068C15.5063 10.7933 15.2172 10.3116 14.8685 9.87436C13.9574 8.75991 12.3645 8.06946 10.8261 8.06946Z" fill="#231F20"/>
<path d="M9.09824 7.82912C8.66653 7.81166 8.23807 7.91061 7.85773 8.11561C7.57372 8.22259 7.32416 8.40481 7.13577 8.64275C7.01898 8.83251 6.95015 9.04785 6.93523 9.27017C6.86311 9.74545 6.95399 10.2311 7.19307 10.6482C7.31373 10.8527 7.48945 11.0192 7.70019 11.1286C7.91093 11.238 8.14819 11.286 8.38488 11.267C8.58731 11.2307 8.78145 11.1579 8.95786 11.0522C9.40178 10.8223 9.77357 10.4743 10.0322 10.0466C10.4562 9.23579 10.1325 7.94658 9.09824 7.82912Z" fill="white"/>
<path d="M8.24456 11.4041C8.00531 11.3959 7.77193 11.3279 7.56574 11.2063C7.35954 11.0847 7.18712 10.9134 7.06421 10.7079C6.80814 10.2655 6.70729 9.75024 6.77772 9.24396C6.79728 8.9991 6.87486 8.76243 7.00405 8.55351C7.20679 8.2939 7.47752 8.09556 7.78617 7.98053C8.18935 7.76348 8.64373 7.65954 9.10117 7.67971C9.32305 7.7043 9.53508 7.78473 9.71745 7.91349C9.89982 8.04225 10.0466 8.21514 10.144 8.41599C10.2761 8.67609 10.345 8.96369 10.345 9.25542C10.345 9.54714 10.2761 9.83474 10.144 10.0948C9.87593 10.5471 9.48567 10.9145 9.01809 11.1549C8.82734 11.2707 8.6164 11.3494 8.3964 11.3869C8.34635 11.3968 8.29556 11.4026 8.24456 11.4041ZM8.94073 7.9662C8.58362 7.98968 8.23531 8.08725 7.91796 8.25269C7.65837 8.34562 7.42872 8.50697 7.2533 8.71968C7.148 8.89321 7.087 9.08999 7.07567 9.29266C7.00829 9.73221 7.08892 10.1817 7.30486 10.5704C7.41286 10.7499 7.56797 10.8963 7.75334 10.9938C7.9387 11.0912 8.14724 11.1361 8.35629 11.1233C8.54065 11.0896 8.71734 11.0227 8.8777 10.9257C9.29882 10.711 9.65122 10.3825 9.89475 9.97738C10.0051 9.75882 10.0625 9.51742 10.0625 9.27261C10.0625 9.02779 10.0051 8.78639 9.89475 8.56784C9.81771 8.41031 9.70178 8.27502 9.55791 8.17476C9.41404 8.0745 9.24698 8.01258 9.07252 7.99485C9.02925 7.98176 8.98525 7.97123 8.94073 7.96334V7.9662Z" fill="#231F20"/>
</g>
<defs>
<clipPath id="clip0_563_62">
<rect width="72.2581" height="70" fill="white"/>
</clipPath>
</defs>
</svg>
