<svg width="155" height="45" viewBox="0 0 155 45" fill="none" xmlns="http://www.w3.org/2000/svg">
<path fill-rule="evenodd" clip-rule="evenodd" d="M56.3262 19.055L54.281 25.245H54.2529L53.3663 21.97L52.4282 18.9H50.96V19.12L53.7744 28.065H54.5531L56.6123 22.23H56.6405L58.6997 28.065H59.4315L62.2741 19.12V18.9H60.7731L59.8724 21.97L59.0187 25.23H58.9906L56.9641 19.055H56.3262ZM65.0604 28H63.6532V18.9H67.19C67.5899 18.8823 67.9889 18.9533 68.3618 19.1084C68.7346 19.2634 69.0733 19.4993 69.3563 19.8009C69.6393 20.1026 69.8605 20.4636 70.006 20.861C70.1515 21.2585 70.2181 21.6837 70.2015 22.11C70.2136 22.5327 70.1435 22.9535 69.9958 23.3461C69.8482 23.7386 69.626 24.0944 69.3432 24.391C69.0605 24.6877 68.7233 24.919 68.3527 25.0702C67.9822 25.2215 67.5864 25.2895 67.19 25.27H65.0792L65.0604 28ZM65.037 23.945H67.1713C67.3967 23.9434 67.6194 23.8929 67.826 23.7965C68.0325 23.7002 68.2184 23.56 68.3725 23.3846C68.5265 23.2092 68.6454 23.0021 68.722 22.7761C68.7985 22.5501 68.8311 22.3099 68.8177 22.07C68.8319 21.8309 68.7997 21.5913 68.7232 21.366C68.6468 21.1408 68.5276 20.9347 68.3731 20.7607C68.2187 20.5867 68.0322 20.4484 67.8255 20.3545C67.6187 20.2606 67.396 20.2132 67.1713 20.215H65.037V23.945ZM78.6402 23.58L75.1643 18.875H74.6437V28H76.0509V22.305L78.5276 25.675H78.72L81.1826 22.305V28H82.6133V18.875H82.0973L78.6402 23.58ZM89.9497 22.19V26.13C89.9497 26.7 89.9497 27.065 90.5829 27V27.96C89.7386 28.13 88.8755 28.025 88.8755 26.96V26.7C88.7037 27.1168 88.419 27.4694 88.058 27.7126C87.6969 27.9558 87.276 28.0785 86.8491 28.065C85.0572 28.065 84.1894 26.53 84.1894 24.765C84.2269 22.685 85.6201 21.54 87.5339 21.58C88.3721 21.5983 89.1972 21.8063 89.9544 22.19H89.9497ZM88.6644 24.855V23C88.2746 22.8228 87.8544 22.7342 87.4307 22.74C86.3096 22.74 85.5544 23.425 85.5169 24.78C85.5169 25.925 86.0422 26.82 87.1258 26.82C88.125 26.83 88.6362 26 88.6644 24.855ZM91.7462 19.795C91.7434 19.9094 91.763 20.0231 91.8036 20.1289C91.8442 20.2348 91.9051 20.3305 91.9823 20.41C92.0595 20.4894 92.1513 20.5509 92.252 20.5905C92.3527 20.6301 92.46 20.647 92.5671 20.64C92.6723 20.645 92.7772 20.6266 92.8753 20.5858C92.9733 20.5451 93.0623 20.4829 93.1365 20.4033C93.2107 20.3238 93.2685 20.2286 93.3061 20.1238C93.3438 20.019 93.3605 19.907 93.3552 19.795C93.3397 19.5802 93.2488 19.3795 93.1005 19.2331C92.9522 19.0867 92.7575 19.0053 92.5554 19.0053C92.3533 19.0053 92.1586 19.0867 92.0103 19.2331C91.862 19.3795 91.7711 19.5802 91.7556 19.795H91.7462ZM93.2097 21.795H91.8823V28H93.2097V21.795ZM94.9031 18.5V25.765C94.9031 27.855 95.7334 28.35 97.5393 28.04L97.4877 26.945C96.4792 27.115 96.2212 26.79 96.2212 25.75V18.5H94.9031ZM101.222 25.43C101.259 27.34 103.004 28.225 104.674 28.185C106.269 28.185 108.037 27.43 108.037 25.43C108.037 23.335 106.452 22.97 104.721 22.765C103.736 22.62 102.77 22.49 102.77 21.465C102.77 20.44 103.783 20.1 104.561 20.1C105.34 20.1 106.367 20.41 106.438 21.385H107.779C107.742 19.525 106.208 18.745 104.585 18.745C102.962 18.745 101.376 19.63 101.376 21.5C101.376 23.37 102.924 23.855 104.486 24C105.476 24.1 106.635 24.22 106.635 25.415C106.635 26.61 105.561 26.83 104.66 26.83C103.759 26.83 102.68 26.455 102.619 25.43H101.222ZM113.624 23.595L110.148 18.89H109.623V28H111.03V22.305L113.525 25.675H113.722L116.185 22.305V28H117.592V18.875H117.09L113.624 23.595ZM121.383 20.255V28H122.79V20.24H125.252V18.9H118.906V20.24L121.383 20.255ZM127.95 28.015H126.542V18.9H130.079C130.479 18.8823 130.878 18.9533 131.251 19.1084C131.624 19.2634 131.962 19.4993 132.245 19.8009C132.528 20.1026 132.75 20.4636 132.895 20.861C133.041 21.2585 133.107 21.6837 133.091 22.11C133.103 22.5327 133.033 22.9535 132.885 23.3461C132.737 23.7386 132.515 24.0944 132.232 24.391C131.95 24.6877 131.612 24.919 131.242 25.0702C130.871 25.2215 130.476 25.2895 130.079 25.27H127.968L127.95 28.015ZM127.95 23.96H130.084C130.309 23.9584 130.532 23.9079 130.739 23.8115C130.945 23.7152 131.131 23.575 131.285 23.3996C131.439 23.2242 131.558 23.0171 131.635 22.7911C131.711 22.5651 131.744 22.3249 131.73 22.085C131.745 21.8459 131.712 21.6063 131.636 21.381C131.559 21.1558 131.44 20.9497 131.286 20.7757C131.131 20.6017 130.945 20.4634 130.738 20.3695C130.531 20.2756 130.309 20.2282 130.084 20.23H127.95V23.96Z" fill="#23282C"/>
<path fill-rule="evenodd" clip-rule="evenodd" d="M31.7466 12.0701C30.8209 12.5826 30.01 13.3024 29.3696 14.18C28.7292 15.0577 28.2743 16.0726 28.0362 17.1551C26.289 18.6982 25.0309 20.7782 24.4335 23.1114C23.836 25.4447 23.9283 27.9175 24.6977 30.1928C25.4672 32.4681 26.8763 34.435 28.7329 35.8253C30.5896 37.2156 32.8033 37.9616 35.0723 37.9616C37.3413 37.9616 39.5551 37.2156 41.4117 35.8253C43.2683 34.435 44.6775 32.4681 45.4469 30.1928C46.2163 27.9175 46.3086 25.4447 45.7112 23.1114C45.1137 20.7782 43.8556 18.6982 42.1085 17.1551C41.8417 15.9407 41.3024 14.8135 40.5368 13.8703C39.7712 12.9271 38.8023 12.1961 37.7132 11.7401C37.6757 11.4443 37.5657 11.1643 37.3945 10.9282C37.2232 10.6921 36.9966 10.5083 36.7375 10.3951C36.7142 9.87418 36.5266 9.37692 36.205 8.98387C35.8834 8.59083 35.4468 8.32504 34.9658 8.22956C34.4848 8.13408 33.9877 8.21451 33.5549 8.45782C33.1222 8.70112 32.7792 9.09305 32.5815 9.57009C32.2188 10.3686 31.9388 11.2069 31.7466 12.0701Z" fill="#395360"/>
<path d="M32.3751 21H38.004V28H32.3751V21Z" fill="#FBAA6F"/>
<path fill-rule="evenodd" clip-rule="evenodd" d="M36.0668 24.59L36.0105 24.55C35.8674 24.4393 35.7715 24.2725 35.7437 24.0864C35.716 23.9002 35.7588 23.71 35.8627 23.5575C35.9666 23.405 36.123 23.3027 36.2977 23.2732C36.4723 23.2437 36.6508 23.2893 36.7938 23.4C36.6778 23.423 36.5673 23.4707 36.4689 23.5403C36.3706 23.6099 36.2865 23.6999 36.2215 23.805C36.1421 23.9151 36.087 24.0428 36.0602 24.1787C36.0334 24.3146 36.0356 24.4552 36.0668 24.59V24.59ZM33.9653 24.59C33.9921 24.4553 33.9895 24.3158 33.9578 24.1823C33.9261 24.0488 33.8661 23.9249 33.7823 23.82C33.7161 23.7152 33.631 23.6254 33.532 23.5558C33.4329 23.4863 33.3219 23.4384 33.2054 23.415C33.3485 23.3043 33.5269 23.2587 33.7015 23.2882C33.8762 23.3177 34.0326 23.42 34.1365 23.5725C34.2404 23.725 34.2832 23.9152 34.2555 24.1014C34.2278 24.2875 34.1318 24.4543 33.9887 24.565C33.9814 24.5738 33.9736 24.5822 33.9653 24.59V24.59ZM37.352 23H37.6006L37.0987 25.41L36.0949 28.625H34.0826L32.5768 25.945L33.0787 24.34C33.5806 25.055 33.9184 25.5 34.0826 25.68C34.3359 25.945 35.3397 25.945 35.8416 25.41C36.4272 24.6688 36.9338 23.8605 37.352 23V23Z" fill="#DC7F3C"/>
<path fill-rule="evenodd" clip-rule="evenodd" d="M28.5005 22.4999H30.9679V17.9999H29.0634C29.2084 16.9185 29.6068 15.8935 30.2217 15.0196C30.8366 14.1457 31.6482 13.4511 32.5815 12.9999C32.938 11.3333 33.3617 10.2083 33.8527 9.62494L33.9371 9.53994L33.9887 9.48994C34.135 9.36505 34.3099 9.28393 34.4953 9.25494C34.7136 9.21817 34.9373 9.25312 35.1365 9.35515C35.3357 9.45717 35.501 9.62143 35.6105 9.82607C35.72 10.0307 35.7684 10.266 35.7494 10.5007C35.7303 10.7354 35.6447 10.9584 35.5039 11.1399H35.4757C35.4348 11.1945 35.3875 11.2432 35.335 11.2849C35.1136 11.5314 34.9083 11.7937 34.7205 12.0699C35.0946 11.6547 35.5916 11.3898 36.1277 11.3199C36.2355 11.3191 36.3418 11.3466 36.4373 11.3999C36.5791 11.4861 36.6836 11.6281 36.7283 11.7954C36.773 11.9627 36.7544 12.142 36.6766 12.2949C36.6138 12.4184 36.515 12.5168 36.3951 12.5749C37.6228 12.8579 38.7386 13.5381 39.5899 14.5225C40.4413 15.507 40.9867 16.7476 41.1515 18.0749L41.2078 18.5099H39.4113V22.5099H41.6769L42.5166 29.2249C40.5371 30.5349 38.0588 31.1899 35.0817 31.1899C32.1046 31.1899 29.6388 30.5333 27.6843 29.2199L28.5005 22.4999ZM35.5977 27.1949C36.8079 25.0649 37.413 23.7966 37.413 23.3899C37.413 22.2749 35.8885 21.3599 35.1286 21.3599C34.3687 21.3599 32.8442 22.2699 32.8442 23.3899C32.8442 23.7966 33.4399 25.0666 34.6314 27.1999C34.6847 27.2885 34.7584 27.3612 34.8454 27.4111C34.9324 27.4609 35.0298 27.4863 35.1286 27.4849C35.2236 27.4899 35.3179 27.4663 35.4009 27.4167C35.4838 27.3672 35.552 27.2938 35.5977 27.2049V27.1949Z" fill="#BDCFC8"/>
<path fill-rule="evenodd" clip-rule="evenodd" d="M42.6057 32.4099C41.7327 33.6604 40.5974 34.6761 39.2907 35.3758C37.9839 36.0756 36.5417 36.44 35.0794 36.44C33.617 36.44 32.1748 36.0756 30.868 35.3758C29.5613 34.6761 28.426 33.6604 27.553 32.4099L27.947 29.3549C28.0963 29.4182 28.2555 29.4504 28.4161 29.4499C28.7364 29.4509 29.0461 29.3285 29.2884 29.1052C29.5306 28.8819 29.689 28.5728 29.7342 28.2349V28.8449C29.7342 29.2215 29.8746 29.5827 30.1244 29.849C30.3742 30.1153 30.7131 30.2649 31.0664 30.2649C31.4197 30.2649 31.7586 30.1153 32.0084 29.849C32.2582 29.5827 32.3986 29.2215 32.3986 28.8449V29.6549C32.4188 30.0176 32.5681 30.3583 32.8162 30.6075C33.0643 30.8567 33.3922 30.9955 33.7331 30.9955C34.074 30.9955 34.4019 30.8567 34.65 30.6075C34.8981 30.3583 35.0474 30.0176 35.0676 29.6549C35.0676 30.0315 35.208 30.3927 35.4578 30.659C35.7076 30.9253 36.0465 31.0749 36.3998 31.0749C36.7531 31.0749 37.092 30.9253 37.3418 30.659C37.5916 30.3927 37.732 30.0315 37.732 29.6549V28.8699C37.732 29.0563 37.7664 29.241 37.8334 29.4133C37.9003 29.5856 37.9985 29.7421 38.1222 29.874C38.2459 30.0058 38.3927 30.1104 38.5544 30.1818C38.716 30.2531 38.8892 30.2899 39.0642 30.2899C39.2391 30.2899 39.4123 30.2531 39.574 30.1818C39.7356 30.1104 39.8825 30.0058 40.0062 29.874C40.1299 29.7421 40.228 29.5856 40.2949 29.4133C40.3619 29.241 40.3963 29.0563 40.3963 28.8699V28.2599C40.4381 28.6097 40.6006 28.9305 40.852 29.1597C41.1035 29.3889 41.4259 29.5101 41.7567 29.4999C41.9168 29.4998 42.0757 29.4694 42.2257 29.4099L42.6057 32.4099Z" fill="#809EB0"/>
<path fill-rule="evenodd" clip-rule="evenodd" d="M27.8251 30.3253L27.947 29.3803C28.0963 29.4436 28.2555 29.4758 28.4161 29.4753C28.7363 29.4763 29.0461 29.3539 29.2884 29.1306C29.5306 28.9073 29.6889 28.5982 29.7342 28.2603V28.8703C29.7342 29.2469 29.8746 29.608 30.1244 29.8743C30.3742 30.1406 30.7131 30.2903 31.0664 30.2903C31.4197 30.2903 31.7585 30.1406 32.0084 29.8743C32.2582 29.608 32.3986 29.2469 32.3986 28.8703V29.6803C32.4187 30.0429 32.5681 30.3837 32.8162 30.6329C33.0643 30.8821 33.3922 31.0209 33.7331 31.0209C34.074 31.0209 34.4019 30.8821 34.65 30.6329C34.898 30.3837 35.0474 30.0429 35.0676 29.6803C35.0676 30.0569 35.208 30.418 35.4578 30.6843C35.7076 30.9506 36.0465 31.1003 36.3998 31.1003C36.7531 31.1003 37.092 30.9506 37.3418 30.6843C37.5916 30.418 37.732 30.0569 37.732 29.6803V28.8703C37.732 29.2469 37.8723 29.608 38.1222 29.8743C38.372 30.1406 38.7108 30.2903 39.0642 30.2903C39.4175 30.2903 39.7563 30.1406 40.0061 29.8743C40.256 29.608 40.3963 29.2469 40.3963 28.8703V28.2603C40.4381 28.6101 40.6006 28.9308 40.852 29.1601C41.1035 29.3893 41.4259 29.5105 41.7567 29.5003C41.9168 29.5002 42.0756 29.4698 42.2257 29.4103L42.343 30.3553C42.1542 30.4536 41.9464 30.5031 41.7363 30.4998C41.5263 30.4965 41.3199 30.4404 41.1339 30.3362C40.948 30.232 40.7877 30.0825 40.666 29.8999C40.5444 29.7173 40.4649 29.5067 40.4339 29.2853V29.8953C40.4339 30.2719 40.2935 30.633 40.0437 30.8993C39.7938 31.1656 39.455 31.3153 39.1017 31.3153C38.7484 31.3153 38.4095 31.1656 38.1597 30.8993C37.9099 30.633 37.7695 30.2719 37.7695 29.8953V30.7053C37.7695 31.0819 37.6291 31.443 37.3793 31.7093C37.1295 31.9756 36.7906 32.1253 36.4373 32.1253C36.084 32.1253 35.7452 31.9756 35.4953 31.7093C35.2455 31.443 35.1051 31.0819 35.1051 30.7053C35.085 31.0679 34.9356 31.4087 34.6875 31.6579C34.4395 31.9071 34.1115 32.0459 33.7706 32.0459C33.4298 32.0459 33.1018 31.9071 32.8537 31.6579C32.6057 31.4087 32.4563 31.0679 32.4361 30.7053V29.8703C32.4361 30.2469 32.2957 30.608 32.0459 30.8743C31.7961 31.1406 31.4572 31.2903 31.1039 31.2903C30.7506 31.2903 30.4118 31.1406 30.1619 30.8743C29.9121 30.608 29.7717 30.2469 29.7717 29.8703V29.2603C29.7312 29.6079 29.571 29.9272 29.3223 30.1562C29.0737 30.3853 28.7541 30.5079 28.4255 30.5003C28.2172 30.4999 28.0118 30.4486 27.8251 30.3503V30.3253Z" fill="#738E9E"/>
<path fill-rule="evenodd" clip-rule="evenodd" d="M41.6535 19.1947C41.1844 17.7597 40.2462 16.8497 39.4394 16.9397C38.4075 17.0547 38.1542 18.8197 38.3652 20.9397C38.5763 23.0597 39.1627 24.7197 40.1946 24.6047C41.2266 24.4897 42.0709 22.6597 41.9208 20.6047C41.8833 21.2197 41.6769 21.7447 41.2688 21.7797C40.7435 21.8297 40.5934 21.1847 40.523 20.3697C40.4526 19.5547 40.4573 18.8697 40.9921 18.8297C41.1232 18.8191 41.2546 18.8476 41.3714 18.9121C41.4882 18.9765 41.5859 19.0744 41.6535 19.1947V19.1947Z" fill="#86A196"/>
<path fill-rule="evenodd" clip-rule="evenodd" d="M41.2876 18.8753C40.9921 18.2703 40.584 17.9003 40.1665 17.9503C39.4582 18.0253 39.2893 19.2353 39.43 20.6853C39.5708 22.1353 39.9789 23.2753 40.6825 23.1853C41.2032 23.1253 41.5878 22.4353 41.6957 21.4953C41.6522 21.5747 41.5917 21.6419 41.5192 21.6914C41.4466 21.741 41.364 21.7714 41.2782 21.7803C40.7528 21.8303 40.6027 21.1853 40.5324 20.3703C40.462 19.5553 40.4667 18.8703 41.0015 18.8303C41.0987 18.8255 41.1958 18.8408 41.2876 18.8753Z" fill="white"/>
<path fill-rule="evenodd" clip-rule="evenodd" d="M28.4349 19.1947C28.904 17.7597 29.8421 16.8497 30.6489 16.9397C31.6809 17.0547 31.9342 18.8197 31.7231 20.9397C31.512 23.0597 30.9257 24.7197 29.8937 24.6047C28.8617 24.4897 28.0174 22.6597 28.1675 20.6047C28.205 21.2197 28.4067 21.7447 28.8195 21.7797C29.3449 21.8297 29.495 21.1847 29.5607 20.3697C29.6263 19.5547 29.631 18.8697 29.0916 18.8297C28.9598 18.8162 28.8271 18.8422 28.7086 18.905C28.59 18.9677 28.4903 19.0646 28.4208 19.1847L28.4349 19.1947Z" fill="#86A196"/>
<path fill-rule="evenodd" clip-rule="evenodd" d="M28.7961 18.8753C29.0916 18.2703 29.5044 17.9003 29.9218 17.9503C30.6255 18.0253 30.799 19.2353 30.6536 20.6853C30.5082 22.1353 30.1095 23.2753 29.4012 23.1853C28.8805 23.1253 28.4959 22.4353 28.388 21.4953C28.4324 21.5748 28.4938 21.642 28.5672 21.6915C28.6405 21.741 28.7237 21.7714 28.8101 21.7803C29.3308 21.8303 29.4856 21.1853 29.5513 20.3703C29.6169 19.5553 29.6169 18.8703 29.0822 18.8303C28.9809 18.8212 28.879 18.8331 28.782 18.8653L28.7961 18.8753Z" fill="white"/>
<path fill-rule="evenodd" clip-rule="evenodd" d="M32.8442 22.3146C32.8372 22.1997 32.8372 22.0845 32.8442 21.9696C32.8442 20.7346 33.4118 19.3296 35.1286 19.3296C36.8454 19.3296 37.413 20.7346 37.413 21.9696C37.4107 22.1382 37.3903 22.306 37.352 22.4696C36.9768 21.7946 36.2731 21.3796 35.1005 21.3796C33.9887 21.3946 33.2664 21.7396 32.8442 22.3146V22.3146Z" fill="#F4F8FF"/>
<path fill-rule="evenodd" clip-rule="evenodd" d="M36.3717 12.5805L34.88 12.5005L36.7235 11.9205C36.7337 12.0554 36.7056 12.1905 36.6428 12.3082C36.5801 12.4259 36.4856 12.5208 36.3717 12.5805V12.5805ZM34.7205 12.0705L34.1013 12.5705C34.4863 11.9951 34.8015 11.3702 35.0395 10.7105C35.1755 10.2813 35.2266 9.82676 35.1896 9.37549C35.3755 9.48516 35.5279 9.64956 35.6285 9.84905C35.7292 10.0485 35.7738 10.2747 35.7572 10.5005C35.7282 10.7888 35.6034 11.0566 35.4054 11.2555C35.1588 11.509 34.9299 11.7814 34.7205 12.0705V12.0705Z" fill="#86A196"/>
</svg>
