<svg width="107" height="70" viewBox="0 0 107 70" fill="none" xmlns="http://www.w3.org/2000/svg">
<g clip-path="url(#clip0_563_167)">
<path d="M27.6051 59.4733L29.2305 60.4174C29.2305 60.4174 30.6904 59.4441 31.6296 59.4733C32.5689 59.5025 34.7101 59.5414 34.1651 61.2739C33.62 63.0063 33.1918 64.6317 31.6978 65.4639C30.2038 66.2961 24.8848 65.4639 24.8848 65.4639C24.8848 65.4639 25.7072 59.848 27.6051 59.4733Z" fill="#FFC9B0"/>
<path d="M29.2106 66.3155C27.7437 66.2923 26.2803 66.1671 24.8308 65.9408C24.7048 65.9204 24.5919 65.8513 24.5163 65.7485C24.4408 65.6456 24.4086 65.5172 24.4269 65.3909C24.568 64.4176 25.4002 59.4149 27.5219 58.9964C27.6372 58.9714 27.7577 58.9923 27.8577 59.0548L29.23 59.848C29.7167 59.5414 30.797 58.9429 31.6633 58.9867H31.7314C32.5441 59.0159 33.9067 59.0645 34.4955 59.8967C34.6414 60.1188 34.7314 60.3729 34.7577 60.6373C34.7839 60.9017 34.7458 61.1686 34.6464 61.415L34.5296 61.7897C34.0089 63.454 33.5174 65.021 31.9504 65.8824C31.3421 66.2133 30.3104 66.3155 29.2106 66.3155ZM25.4537 65.0502C27.483 65.3325 30.5488 65.5369 31.4637 65.0502C32.6852 64.3738 33.0989 63.055 33.5806 61.5221L33.6974 61.1425C33.8386 60.6996 33.6974 60.5342 33.6974 60.4807C33.386 60.0378 32.2375 59.994 31.6925 59.994H31.6243C31.0452 59.9599 30.0233 60.5099 29.5172 60.8554C29.4398 60.9037 29.3504 60.9293 29.2592 60.9293C29.168 60.9293 29.0787 60.9037 29.0013 60.8554L27.5414 60.0232C26.6119 60.432 25.8089 63.0161 25.4731 65.0502H25.4537Z" fill="#093F68"/>
<path d="M27.6049 59.4733C26.3525 61.2925 25.4361 63.3215 24.8991 65.4639C22.098 64.5392 19.5437 62.9899 17.4292 60.9332C16.575 60.1633 15.8863 59.2279 15.4047 58.1837C14.3974 55.7505 16.0228 48.9812 19.4293 51.5264C20.8892 52.6019 21.6143 54.8794 22.8747 56.2079C24.2029 57.6185 25.815 58.7314 27.6049 59.4733Z" fill="#68E1FD"/>
<path d="M24.8993 65.9507C24.8476 65.9577 24.7952 65.9577 24.7436 65.9507C21.8716 64.9921 19.2543 63.3948 17.0887 61.2789C16.1829 60.4644 15.4569 59.4699 14.9572 58.359C14.1542 56.4124 14.8306 52.3392 16.5972 50.9669C17.1276 50.5532 18.242 50.0228 19.7214 51.1275C20.6168 51.7942 21.2446 52.8453 21.848 53.8624C22.2363 54.5764 22.6996 55.2469 23.2301 55.8625C24.509 57.2243 26.0635 58.2977 27.79 59.0111C27.8573 59.0386 27.9176 59.0809 27.9664 59.1348C28.0153 59.1887 28.0514 59.2529 28.0722 59.3226C28.0939 59.3926 28.0994 59.4666 28.0885 59.5391C28.0775 59.6115 28.0503 59.6806 28.009 59.7411C26.7855 61.5131 25.892 63.4914 25.3713 65.5808C25.3548 65.6455 25.3251 65.7062 25.284 65.7589C25.243 65.8117 25.1916 65.8554 25.1329 65.8874C25.0616 65.9278 24.9812 65.9496 24.8993 65.9507ZM17.989 51.4487C17.6979 51.4515 17.4171 51.5566 17.1957 51.7455C15.8185 52.8161 15.2102 56.4416 15.8526 57.994C16.3054 58.982 16.9583 59.8652 17.77 60.5878C19.7125 62.4719 22.0354 63.9187 24.583 64.8314C25.0926 63.0102 25.8734 61.2762 26.8994 59.6875C25.2616 58.9249 23.7836 57.8581 22.5439 56.5438C21.964 55.876 21.4567 55.1484 21.0305 54.3734C20.4757 53.4342 19.8966 52.4658 19.1569 51.9158C18.83 51.6352 18.4192 51.4708 17.989 51.4487Z" fill="#093F68"/>
<path d="M32.0726 60.4663C32.1017 61.6288 31.7609 62.7705 31.0993 63.7268C30.9581 63.9361 30.7489 64.1551 30.4958 64.1259C30.2428 64.0967 30.0773 63.7949 30.0092 63.5273C29.934 62.8894 29.9937 62.2428 30.1844 61.6294C29.8333 62.4329 29.2326 63.1018 28.4714 63.537C28.365 63.6075 28.2431 63.6509 28.1161 63.6636C28.0531 63.6696 27.9898 63.6566 27.9343 63.6262C27.8787 63.5958 27.8336 63.5495 27.8047 63.4932" fill="#FFC9B0"/>
<path d="M30.539 64.6173H30.4319C30.1985 64.5724 29.9858 64.4535 29.8254 64.2782C29.6649 64.1028 29.5653 63.8804 29.5413 63.644C29.5413 63.571 29.517 63.498 29.5073 63.425C29.267 63.6406 29.0044 63.8299 28.7238 63.9895C28.5503 64.0979 28.3534 64.163 28.1495 64.1793C27.984 64.1896 27.8193 64.1483 27.6781 64.0612C27.5369 63.974 27.4262 63.8453 27.3612 63.6927C27.3177 63.5876 27.3124 63.4706 27.3462 63.3621C27.38 63.2535 27.4507 63.1602 27.5461 63.0983C27.6415 63.0365 27.7555 63.01 27.8684 63.0234C27.9813 63.0369 28.0859 63.0894 28.1641 63.172L28.242 63.1282C28.9098 62.7459 29.437 62.159 29.7457 61.4541C29.7933 61.342 29.8812 61.2519 29.992 61.2014C30.1028 61.151 30.2285 61.1439 30.3443 61.1816C30.46 61.2197 30.5572 61.2999 30.6166 61.4062C30.6761 61.5125 30.6935 61.6373 30.6655 61.7558C30.4953 62.3031 30.4374 62.8791 30.4952 63.4493C30.5063 63.5102 30.526 63.5692 30.5536 63.6245C30.6076 63.579 30.6537 63.5247 30.6898 63.4639C31.2949 62.5923 31.6084 61.5514 31.5852 60.4906C31.5852 60.3615 31.6365 60.2377 31.7278 60.1464C31.819 60.0552 31.9428 60.0039 32.0719 60.0039C32.2009 60.0039 32.3247 60.0552 32.416 60.1464C32.5073 60.2377 32.5585 60.3615 32.5585 60.4906C32.585 61.7595 32.2103 63.0044 31.4879 64.0479C31.3882 64.213 31.2495 64.3512 31.0841 64.4505C30.9187 64.5497 30.7316 64.607 30.539 64.6173Z" fill="#093F68"/>
<path d="M77.7442 61.279L76.1188 62.2231C76.1188 62.2231 74.6588 61.2498 73.7196 61.279C72.7804 61.3082 70.6392 61.3471 71.1842 63.0795C71.7292 64.812 72.1575 66.4374 73.6515 67.2647C75.1455 68.092 80.4645 67.2647 80.4645 67.2647C80.4645 67.2647 79.6421 61.6488 77.7442 61.279Z" fill="#FFC9B0"/>
<path d="M76.1383 68.1163C75.2111 68.1751 74.2823 68.0289 73.418 67.6881C71.8461 66.8267 71.3595 65.2549 70.8388 63.5954L70.7317 63.2256C70.6329 62.9793 70.5945 62.7128 70.6199 62.4486C70.6453 62.1844 70.7337 61.9302 70.8777 61.7072C71.4714 60.8702 72.8243 60.8216 73.6467 60.7924H73.71C74.5713 60.7534 75.6565 61.3471 76.1432 61.6537L77.5107 60.8556C77.6139 60.7968 77.735 60.7778 77.8513 60.8021C79.9828 61.2206 80.8052 66.2038 80.9464 67.1966C80.9646 67.3229 80.9325 67.4513 80.8569 67.5542C80.7814 67.657 80.6684 67.7261 80.5425 67.7465C79.0848 67.9723 77.6132 68.0959 76.1383 68.1163ZM73.7732 61.7656H73.6516C73.1017 61.7656 71.9581 61.8289 71.6466 62.2523C71.6077 62.3107 71.4909 62.4761 71.6466 62.9141L71.7634 63.2937C72.25 64.8266 72.654 66.1503 73.8803 66.8267C74.7952 67.3134 77.8611 67.1236 79.8904 66.8267C79.5351 64.7926 78.7321 62.2085 77.7978 61.7754L76.3379 62.6124C76.2605 62.6607 76.1711 62.6864 76.0799 62.6864C75.9887 62.6864 75.8994 62.6607 75.822 62.6124C75.2133 62.1763 74.5122 61.8865 73.7732 61.7656Z" fill="#093F68"/>
<path d="M77.7441 61.2788C78.9952 63.097 79.9115 65.1241 80.4499 67.2645C83.251 66.3421 85.8055 64.7945 87.9199 62.7387C88.7751 61.9679 89.464 61.0307 89.9443 59.9843C90.9517 57.5511 89.3263 50.7867 85.9198 53.3319C84.4598 54.4074 83.7299 56.68 82.4694 58.0134C81.1443 59.4252 79.5334 60.5384 77.7441 61.2788Z" fill="#68E1FD"/>
<path d="M80.4642 67.7466C80.3826 67.747 80.3023 67.7269 80.2306 67.6882C80.1719 67.6562 80.1205 67.6124 80.0794 67.5597C80.0384 67.507 80.0087 67.4463 79.9921 67.3816C79.4715 65.2922 78.5779 63.3139 77.3545 61.5419C77.3131 61.4814 77.286 61.4123 77.275 61.3398C77.264 61.2674 77.2696 61.1934 77.2912 61.1233C77.312 61.0536 77.3482 60.9895 77.397 60.9356C77.4459 60.8817 77.5062 60.8394 77.5735 60.8119C79.2989 60.0963 80.853 59.0232 82.1334 57.6633C82.6624 57.0465 83.1256 56.3762 83.5154 55.6632C84.1189 54.6461 84.7466 53.595 85.6421 52.9234C87.102 51.8236 88.2359 52.3492 88.7663 52.7677C90.5328 54.14 91.1995 58.2229 90.4063 60.1598C89.8973 61.2653 89.1726 62.258 88.2748 63.0796C86.1052 65.1862 83.4863 66.7735 80.615 67.7222C80.5662 67.7378 80.5154 67.746 80.4642 67.7466ZM78.4835 61.4883C79.5044 63.0778 80.2803 64.8118 80.7854 66.6322C83.3329 65.7195 85.6559 64.2727 87.5984 62.3886C88.4085 61.6645 89.0611 60.7817 89.5157 59.7948C90.1581 58.2375 89.5498 54.6169 88.1726 53.5414C87.6081 53.1035 86.9706 53.1619 86.226 53.7166C85.4815 54.2714 84.9072 55.235 84.3476 56.1498C83.9247 56.9258 83.4189 57.6535 82.839 58.3203C81.5959 59.6433 80.1129 60.7183 78.4689 61.4883H78.4835Z" fill="#093F68"/>
<path d="M73.2719 62.252C73.2461 63.414 73.5866 64.5547 74.2452 65.5125C74.3863 65.7217 74.5955 65.9407 74.8486 65.9115C75.1017 65.8823 75.2671 65.5806 75.3352 65.3129C75.408 64.675 75.3484 64.0289 75.1601 63.415C75.5096 64.2195 76.1107 64.8889 76.873 65.3227C76.9794 65.3931 77.1013 65.4366 77.2283 65.4492C77.2913 65.4552 77.3546 65.4422 77.4102 65.4118C77.4657 65.3815 77.5108 65.3352 77.5397 65.2789" fill="#FFC9B0"/>
<path d="M74.8091 66.4131C74.6088 66.4018 74.4146 66.3401 74.2445 66.2337C74.0744 66.1274 73.9338 65.9799 73.8359 65.8048C73.1144 64.7629 72.7413 63.5193 72.7701 62.2523C72.7701 62.1232 72.8214 61.9994 72.9126 61.9082C73.0039 61.8169 73.1277 61.7656 73.2568 61.7656C73.3858 61.7656 73.5096 61.8169 73.6009 61.9082C73.6921 61.9994 73.7434 62.1232 73.7434 62.2523C73.7227 63.3135 74.0378 64.3542 74.6437 65.2257C74.6812 65.2854 74.7271 65.3395 74.7799 65.3863C74.8075 65.3309 74.8272 65.2719 74.8383 65.2111C74.8964 64.6408 74.8384 64.0648 74.668 63.5175C74.6488 63.4565 74.6419 63.3923 74.6475 63.3286C74.6532 63.2649 74.6713 63.2029 74.7009 63.1462C74.7305 63.0894 74.771 63.0391 74.82 62.9981C74.8691 62.957 74.9257 62.926 74.9868 62.9068C75.0478 62.8876 75.112 62.8807 75.1757 62.8863C75.2395 62.892 75.3014 62.9101 75.3582 62.9397C75.4149 62.9693 75.4652 63.0098 75.5063 63.0588C75.5473 63.1079 75.5783 63.1645 75.5975 63.2256C75.9062 63.9304 76.4334 64.5174 77.1012 64.8996L77.1791 64.9385C77.2468 64.8684 77.3341 64.8202 77.4295 64.8003C77.525 64.7803 77.6242 64.7895 77.7144 64.8266C77.8336 64.8752 77.9287 64.9691 77.9789 65.0877C78.0291 65.2062 78.0302 65.3398 77.9821 65.4592C77.917 65.6119 77.8063 65.7406 77.6651 65.8277C77.524 65.9149 77.3593 65.9562 77.1937 65.9459C76.9898 65.9296 76.7929 65.8645 76.6195 65.7561C76.3389 65.5965 76.0762 65.4072 75.836 65.1916C75.836 65.2646 75.836 65.3376 75.8019 65.4106C75.7764 65.6465 75.6763 65.8681 75.5161 66.0432C75.3559 66.2182 75.1441 66.3376 74.9113 66.3839L74.8091 66.4131Z" fill="#093F68"/>
<path d="M21.7747 69.3085L21.5119 64.5978L1.05339 59.7021L0.668945 69.3085H21.7747Z" fill="#093F68"/>
<path d="M21.775 69.7953H0.654613C0.525547 69.7953 0.401766 69.7441 0.310503 69.6528C0.21924 69.5615 0.167969 69.4377 0.167969 69.3087L0.552418 59.7023C0.555354 59.6301 0.574349 59.5594 0.608021 59.4954C0.641692 59.4315 0.689195 59.3758 0.747076 59.3325C0.804242 59.29 0.870044 59.2605 0.939837 59.2462C1.00963 59.2319 1.08171 59.2331 1.15099 59.2498L21.6144 64.1454C21.7152 64.1701 21.8055 64.2264 21.872 64.3061C21.9385 64.3858 21.9779 64.4846 21.9842 64.5882L22.247 69.2989C22.2518 69.433 22.2048 69.5637 22.1156 69.6639C22.0234 69.7503 21.9013 69.7974 21.775 69.7953ZM1.17532 68.822H21.2591L21.0499 64.9873L1.51597 60.3058L1.17532 68.822Z" fill="#093F68"/>
<path d="M64.3416 69.3085L64.2734 64.15L62.3317 64.0576V63.9651H60.3511L52.9006 63.605L52.9395 63.9651H52.6135L42.7686 60.4175L41.9268 69.3085H64.3416Z" fill="#093F68"/>
<path d="M64.3416 69.795H41.9268C41.8589 69.7948 41.7918 69.7805 41.7298 69.7528C41.6677 69.7252 41.6122 69.6848 41.5667 69.6344C41.5212 69.5849 41.4865 69.5264 41.4647 69.4627C41.4429 69.3991 41.4346 69.3316 41.4402 69.2646L42.2821 60.3736C42.2891 60.2997 42.3129 60.2284 42.3517 60.1651C42.3905 60.1019 42.4433 60.0483 42.5059 60.0086C42.5688 59.9681 42.6401 59.9427 42.7144 59.9343C42.7886 59.9258 42.8639 59.9346 42.9342 59.9599L52.4627 63.3908C52.4829 63.3471 52.5109 63.3075 52.5454 63.274C52.594 63.2228 52.653 63.1828 52.7186 63.1568C52.7841 63.1307 52.8546 63.1192 52.925 63.1231L60.3755 63.4784H62.3221C62.4352 63.4768 62.5453 63.5146 62.6335 63.5854L64.293 63.6682C64.4178 63.6744 64.5354 63.7284 64.6215 63.819C64.7075 63.9096 64.7554 64.0298 64.7553 64.1548L64.8234 69.3132C64.8234 69.4423 64.7721 69.5661 64.6809 69.6573C64.5896 69.7486 64.4658 69.7999 64.3368 69.7999L64.3416 69.795ZM42.4427 68.8217H63.855L63.7966 64.6171L62.3123 64.5441C62.2159 64.5405 62.1228 64.5083 62.0447 64.4517H60.356L53.4067 64.1159C53.3823 64.1793 53.3478 64.2385 53.3046 64.2911C53.2591 64.3415 53.2035 64.3818 53.1415 64.4095C53.0795 64.4371 53.0123 64.4515 52.9444 64.4517H52.6184C52.562 64.4516 52.506 64.4417 52.4529 64.4225L43.2067 61.0889L42.4427 68.8217Z" fill="#093F68"/>
<path d="M47.9365 29.4478H60.7011C62.2499 29.4478 63.7353 30.063 64.8304 31.1582C65.9256 32.2533 66.5409 33.7387 66.5409 35.2875V60.4372H42.1162V35.268C42.1213 33.726 42.7362 32.2485 43.8266 31.1581C44.917 30.0677 46.3944 29.4529 47.9365 29.4478Z" fill="#68E1FD"/>
<path d="M66.5217 60.9042H42.1165C41.9875 60.9042 41.8637 60.8529 41.7724 60.7616C41.6812 60.6704 41.6299 60.5466 41.6299 60.4175V35.2678C41.6299 34.437 41.7935 33.6143 42.1114 32.8468C42.4294 32.0792 42.8954 31.3818 43.4828 30.7944C44.0703 30.2069 44.7677 29.7409 45.5353 29.423C46.3028 29.105 47.1255 28.9414 47.9563 28.9414H60.7209C61.5517 28.9414 62.3744 29.105 63.1419 29.423C63.9095 29.7409 64.6069 30.2069 65.1943 30.7944C65.7818 31.3818 66.2478 32.0792 66.5657 32.8468C66.8837 33.6143 67.0473 34.437 67.0473 35.2678V60.4175C67.0475 60.4848 67.0338 60.5515 67.0069 60.6132C66.98 60.6749 66.9407 60.7304 66.8913 60.7762C66.8419 60.8219 66.7835 60.8569 66.7199 60.8789C66.6563 60.901 66.5888 60.9096 66.5217 60.9042ZM42.6032 59.9309H66.0351V35.2678C66.0351 33.8481 65.4711 32.4865 64.4672 31.4826C63.4633 30.4787 62.1017 29.9147 60.682 29.9147H47.9368C46.5171 29.9147 45.1555 30.4787 44.1516 31.4826C43.1477 32.4865 42.5837 33.8481 42.5837 35.2678L42.6032 59.9309Z" fill="#093F68"/>
<path d="M52.6619 1.72335C53.0995 2.1502 53.4154 2.68609 53.5768 3.27574C55.572 1.56762 58.6038 1.39243 61.0127 2.45331C63.4216 3.5142 65.2416 5.6311 66.4145 7.98645C67.4656 10.0936 67.7089 12.522 67.7333 14.8433C67.7576 17.1646 67.1688 19.3301 67.2223 21.6563C67.2223 22.4738 67.1444 22.6296 66.3366 22.7512C65.5735 22.8048 64.8076 22.8048 64.0445 22.7512H45.9997C45.7564 22.7512 42.1066 22.907 42.0725 22.7512C41.9314 22.2646 42.1504 21.6806 42.1699 21.194C42.2429 19.5053 41.6832 17.622 41.5859 15.9042C41.4545 13.2471 40.9289 10.9209 42.019 8.41956C43.1092 5.92603 44.8136 3.74948 46.973 2.09319C47.8569 1.32431 48.9564 0.846784 50.1216 0.725727C50.5902 0.713899 51.0564 0.796084 51.4927 0.96743C51.929 1.13878 52.3266 1.39581 52.6619 1.72335Z" fill="#725858"/>
<path d="M43.0416 23.3207C41.713 23.3207 41.6838 23.2039 41.5816 22.8827C41.4889 22.4775 41.4889 22.0567 41.5816 21.6515C41.6134 21.4908 41.6345 21.3283 41.6449 21.1648C41.6447 20.1845 41.5486 19.2066 41.3578 18.245C41.215 17.4776 41.1175 16.7025 41.0658 15.9237C41.0366 15.3835 40.9928 14.8579 40.949 14.3421C40.7787 12.2739 40.6181 10.3176 41.533 8.22012C42.6554 5.6441 44.4136 3.39529 46.6427 1.68449C47.436 1.08106 48.6574 0.268362 50.0492 0.224564C50.5858 0.21293 51.1192 0.310457 51.6169 0.511229C52.1147 0.712 52.5664 1.01183 52.9448 1.39251C53.2764 1.71346 53.5482 2.0908 53.7477 2.50692C54.8437 1.81656 56.0945 1.4105 57.387 1.32552C58.6795 1.24055 59.9727 1.47934 61.1496 2.02028C63.4368 3.02277 65.4418 5.07154 66.7898 7.78214C67.9626 10.1326 68.1378 12.7946 68.1621 14.8482C68.1527 15.9884 68.0649 17.1266 67.8993 18.2547C67.7376 19.3831 67.6547 20.5213 67.6511 21.6612C67.6511 22.6345 67.4906 23.0822 66.3469 23.2477C65.8056 23.3085 65.2598 23.3183 64.7167 23.2769C64.4685 23.2769 64.23 23.2769 63.9867 23.2769H46.0004H45.577C44.4188 23.272 43.6109 23.3207 43.0416 23.3207ZM42.5306 22.3377C43.014 22.3377 44.0262 22.3214 45.5672 22.289H46.0198H64.0646C64.3128 22.289 64.5756 22.289 64.8383 22.289C65.324 22.3337 65.8127 22.3337 66.2983 22.289C66.6487 22.2403 66.7265 22.1965 66.7411 22.1819C66.7638 22.0205 66.7638 21.8567 66.7411 21.6953C66.7396 20.5096 66.8258 19.3255 66.999 18.1525C67.157 17.0743 67.2415 15.9866 67.2521 14.8969C67.2278 12.9503 67.0672 10.4198 65.982 8.24932C64.7362 5.7431 62.9015 3.86952 60.8235 2.9449C58.4292 1.88888 55.6505 2.19061 53.8986 3.68947C53.8358 3.74336 53.7604 3.78035 53.6793 3.79697C53.5983 3.81358 53.5144 3.80927 53.4355 3.78443C53.3565 3.75959 53.2853 3.71504 53.2284 3.655C53.1715 3.59496 53.1308 3.5214 53.1102 3.44128C52.9729 2.93621 52.7023 2.47736 52.3267 2.11274C52.0397 1.82835 51.6994 1.60333 51.3253 1.45052C50.9512 1.29772 50.5507 1.22012 50.1466 1.22218C49.0127 1.26598 47.9664 1.96675 47.2754 2.49232C45.1792 4.10285 43.5265 6.21942 42.4722 8.6435C41.6498 10.5171 41.7958 12.269 41.9856 14.2934C42.0245 14.819 42.0732 15.3592 42.0975 15.9091C42.1523 16.6516 42.2466 17.3908 42.3797 18.1233C42.5852 19.1503 42.6863 20.1954 42.6815 21.2427C42.6678 21.442 42.6418 21.6403 42.6036 21.8364C42.5623 21.9935 42.5298 22.1527 42.5063 22.3133L42.5306 22.3377Z" fill="#093F68"/>
<path d="M52.5459 30.9463H56.0935V32.9902C56.0935 33.3903 55.9346 33.774 55.6517 34.0569C55.3687 34.3398 54.985 34.4988 54.5849 34.4988H54.0496C53.6495 34.4988 53.2658 34.3398 52.9829 34.0569C52.7 33.774 52.541 33.3903 52.541 32.9902V30.9463H52.5459Z" fill="#FFC9B0"/>
<path d="M54.5891 34.9999H54.0538C53.5251 34.9986 53.0183 34.788 52.6444 34.4141C52.2705 34.0402 52.0599 33.5335 52.0586 33.0047V30.9656C52.0586 30.8366 52.1099 30.7128 52.2011 30.6215C52.2924 30.5303 52.4162 30.479 52.5452 30.479H56.0929C56.2219 30.479 56.3457 30.5303 56.437 30.6215C56.5282 30.7128 56.5795 30.8366 56.5795 30.9656V33.0047C56.5795 33.533 56.37 34.0398 55.9968 34.4138C55.6237 34.7879 55.1175 34.9986 54.5891 34.9999ZM53.0319 31.4523V33.0047C53.0319 33.2757 53.1395 33.5357 53.3312 33.7273C53.5229 33.919 53.7828 34.0266 54.0538 34.0266H54.5891C54.8593 34.0253 55.118 33.9171 55.3086 33.7256C55.4992 33.5341 55.6062 33.2749 55.6062 33.0047V31.4523H53.0319Z" fill="#093F68"/>
<path d="M44.7694 24.6978C46.562 24.6978 48.0153 23.3687 48.0153 21.7293C48.0153 20.0898 46.562 18.7607 44.7694 18.7607C42.9767 18.7607 41.5234 20.0898 41.5234 21.7293C41.5234 23.3687 42.9767 24.6978 44.7694 24.6978Z" fill="#FFC9B0"/>
<path d="M44.7687 25.1846C42.7102 25.1846 41.0361 23.637 41.0361 21.7294C41.1043 20.786 41.5272 19.9035 42.2196 19.2592C42.9121 18.615 43.8229 18.2568 44.7687 18.2568C45.7145 18.2568 46.6253 18.615 47.3177 19.2592C48.0102 19.9035 48.4331 20.786 48.5013 21.7294C48.5013 23.637 46.8272 25.1846 44.7687 25.1846ZM44.7687 19.2427C44.289 19.2934 43.8343 19.4821 43.4595 19.7858C43.0848 20.0896 42.8061 20.4954 42.6571 20.9541C42.5081 21.4129 42.4952 21.9051 42.62 22.371C42.7447 22.837 43.0018 23.2568 43.3602 23.5797C43.7185 23.9027 44.1627 24.1149 44.6391 24.1907C45.1155 24.2665 45.6036 24.2027 46.0445 24.007C46.4854 23.8113 46.8601 23.492 47.1234 23.0878C47.3866 22.6836 47.5272 22.2118 47.528 21.7294C47.4902 21.0343 47.1787 20.3825 46.6616 19.9165C46.1445 19.4504 45.4639 19.2082 44.7687 19.2427Z" fill="#093F68"/>
<path d="M63.6893 24.6978C65.4819 24.6978 66.9352 23.3687 66.9352 21.7293C66.9352 20.0898 65.4819 18.7607 63.6893 18.7607C61.8966 18.7607 60.4434 20.0898 60.4434 21.7293C60.4434 23.3687 61.8966 24.6978 63.6893 24.6978Z" fill="#FFC9B0"/>
<path d="M63.6896 25.1846C61.6311 25.1846 59.957 23.637 59.957 21.7294C60.0252 20.786 60.4481 19.9035 61.1405 19.2592C61.833 18.615 62.7438 18.2568 63.6896 18.2568C64.6354 18.2568 65.5462 18.615 66.2386 19.2592C66.9311 19.9035 67.354 20.786 67.4221 21.7294C67.4221 23.637 65.7481 25.1846 63.6896 25.1846ZM63.6896 19.2427C63.2099 19.2934 62.7552 19.4821 62.3804 19.7858C62.0057 20.0896 61.727 20.4954 61.578 20.9541C61.429 21.4129 61.4161 21.9051 61.5409 22.371C61.6656 22.837 61.9227 23.2568 62.2811 23.5797C62.6394 23.9027 63.0836 24.1149 63.56 24.1907C64.0364 24.2665 64.5245 24.2027 64.9654 24.007C65.4063 23.8113 65.781 23.492 66.0443 23.0878C66.3075 22.6836 66.4481 22.2118 66.4489 21.7294C66.4111 21.0343 66.0996 20.3825 65.5825 19.9165C65.0654 19.4504 64.3848 19.2082 63.6896 19.2427Z" fill="#093F68"/>
<path d="M54.3221 31.4085C52.7013 31.4029 51.1038 31.0211 49.6556 30.2931C48.2073 29.5652 46.9478 28.5111 45.9762 27.2137C43.7863 24.2938 43.6841 20.7608 44.3849 17.2959C44.8715 14.9356 46.1708 14.8626 48.4289 14.9989C48.5376 13.7427 48.826 12.5087 49.2854 11.3345C49.7777 12.4742 50.0865 13.6847 50.2003 14.921C51.7965 14.921 53.3975 14.921 54.9937 14.9892L55.5679 11.9866C56.1208 12.8504 56.4209 13.8517 56.4342 14.8772L61.9819 15.4515L62.5269 12.5316C62.9724 13.3058 63.1439 14.2077 63.0136 15.0914C65.2473 14.0305 64.7314 16.381 64.7314 17.8993V21.0284C64.7295 22.3935 64.4588 23.7448 63.9346 25.0052C63.4105 26.2656 62.6432 27.4104 61.6766 28.3743C60.71 29.3382 59.563 30.1023 58.3011 30.6229C57.0393 31.1435 55.6872 31.4104 54.3221 31.4085Z" fill="#FFC9B0"/>
<path d="M54.3214 31.8955C52.6257 31.8913 50.9541 31.4936 49.4383 30.7336C47.9225 29.9736 46.6038 28.872 45.5861 27.5157C43.6006 24.844 43.0458 21.4765 43.9072 17.2086C44.3938 14.6732 45.9122 14.4104 47.9901 14.498C48.1294 13.3527 48.4123 12.2294 48.832 11.1547C48.867 11.064 48.9283 10.9859 49.0081 10.9304C49.0879 10.8749 49.1825 10.8445 49.2797 10.8433C49.3761 10.8424 49.4705 10.8701 49.5511 10.923C49.6317 10.9758 49.6947 11.0514 49.7323 11.1401C50.1869 12.1868 50.49 13.2928 50.6326 14.425C51.9514 14.425 53.2751 14.425 54.5939 14.4785L55.0805 11.8896C55.0993 11.7945 55.146 11.7073 55.2147 11.639C55.2834 11.5707 55.3709 11.5244 55.466 11.5061C55.5611 11.4878 55.6595 11.4984 55.7486 11.5363C55.8378 11.5743 55.9135 11.638 55.9662 11.7192C56.4905 12.5358 56.8079 13.4679 56.8908 14.4347L61.5723 14.9214L62.059 12.42C62.0776 12.322 62.1259 12.2322 62.1972 12.1625C62.2686 12.0929 62.3597 12.0469 62.458 12.0307C62.5537 12.0177 62.651 12.0335 62.7376 12.0759C62.8243 12.1184 62.8963 12.1856 62.9447 12.2691C63.3129 12.9082 63.5154 13.6293 63.5335 14.3666C63.7149 14.316 63.9046 14.3029 64.0912 14.328C64.2777 14.353 64.4572 14.4159 64.6187 14.5126C65.3341 14.9992 65.2806 16.0893 65.227 17.1502C65.227 17.4032 65.2027 17.6368 65.2027 17.8802V21.0093C65.2014 23.8952 64.0547 26.6627 62.0145 28.7039C59.9743 30.745 57.2073 31.8929 54.3214 31.8955ZM47.2991 15.4469C45.8051 15.4469 45.1773 15.8119 44.8659 17.3935C44.0629 21.3743 44.5593 24.4936 46.3745 26.9269C47.6173 28.5988 49.3556 29.8365 51.3421 30.4639C53.3287 31.0914 55.4625 31.0767 57.4402 30.4219C59.4179 29.7672 61.139 28.5057 62.3587 26.8168C63.5784 25.1278 64.2347 23.0974 64.2343 21.0141V17.885C64.2343 17.6417 64.2343 17.3984 64.2586 17.1064C64.2878 16.5078 64.3365 15.5005 64.0834 15.3301C64.0494 15.3301 63.8547 15.2133 63.2123 15.5151C63.1341 15.5506 63.0479 15.5649 62.9625 15.5563C62.877 15.5478 62.7953 15.5167 62.7257 15.4664C62.6324 15.3974 62.5668 15.2973 62.5408 15.1841L62.458 15.5345C62.4355 15.654 62.3691 15.7607 62.2718 15.8337C62.1745 15.9066 62.0535 15.9405 61.9325 15.9287L56.3847 15.3593C56.2643 15.3472 56.1526 15.2907 56.0717 15.2007C55.9907 15.1107 55.9461 14.9938 55.9467 14.8727C55.9416 14.4315 55.8778 13.9929 55.757 13.5685L55.4698 15.0674C55.4481 15.1798 55.3874 15.281 55.2983 15.3531C55.2093 15.4252 55.0977 15.4636 54.9832 15.4615C53.4016 15.3934 51.8005 15.3691 50.2238 15.3934C50.102 15.3939 49.9844 15.3487 49.8943 15.2667C49.8042 15.1847 49.7481 15.0719 49.7372 14.9506C49.6744 14.2231 49.5375 13.504 49.3284 12.8045C49.1338 13.5315 49.0019 14.2739 48.9342 15.0236C48.9242 15.151 48.8645 15.2693 48.768 15.3531C48.6715 15.4369 48.5459 15.4793 48.4184 15.4713C47.9852 15.4615 47.6251 15.4469 47.2991 15.4469Z" fill="#093F68"/>
<path d="M53.348 24.9657C53.0219 24.9635 52.6965 24.9359 52.3747 24.8829C52.2456 24.8603 52.1308 24.7874 52.0555 24.6802C51.9802 24.5729 51.9506 24.4402 51.9732 24.3111C51.9958 24.1821 52.0687 24.0672 52.176 23.992C52.2832 23.9167 52.416 23.8871 52.545 23.9096C52.9438 23.9757 53.3494 23.9905 53.7519 23.9534C53.5859 23.2417 53.3205 22.557 52.9635 21.9193C52.934 21.8624 52.916 21.8003 52.9106 21.7365C52.9051 21.6726 52.9123 21.6084 52.9317 21.5473C52.9512 21.4863 52.9825 21.4297 53.0239 21.3808C53.0652 21.3319 53.1158 21.2916 53.1728 21.2623C53.2865 21.2038 53.4187 21.1925 53.5408 21.2308C53.6628 21.269 53.7649 21.3538 53.8249 21.4667C54.2629 22.2988 54.9442 23.7977 54.6473 24.4595C54.6033 24.5596 54.5362 24.6479 54.4517 24.7172C54.3671 24.7866 54.2674 24.835 54.1607 24.8586C53.895 24.9266 53.6222 24.9625 53.348 24.9657Z" fill="#093F68"/>
<path d="M57.2953 22.5276C57.8758 22.5276 58.3464 22.057 58.3464 21.4764C58.3464 20.8959 57.8758 20.4253 57.2953 20.4253C56.7148 20.4253 56.2441 20.8959 56.2441 21.4764C56.2441 22.057 56.7148 22.5276 57.2953 22.5276Z" fill="#093F68"/>
<path d="M48.015 21.7293C48.5956 21.7293 49.0662 21.2586 49.0662 20.6781C49.0662 20.0976 48.5956 19.627 48.015 19.627C47.4345 19.627 46.9639 20.0976 46.9639 20.6781C46.9639 21.2586 47.4345 21.7293 48.015 21.7293Z" fill="#093F68"/>
<path d="M56.8229 19.6073C56.5648 19.6073 56.3172 19.5048 56.1347 19.3223C55.9522 19.1397 55.8496 18.8922 55.8496 18.6341C55.8496 18.3759 55.9522 18.1284 56.1347 17.9458C56.3172 17.7633 56.5648 17.6608 56.8229 17.6608L61.8256 17.5537H61.8499C62.1081 17.5537 62.3556 17.6563 62.5381 17.8388C62.7207 18.0213 62.8232 18.2689 62.8232 18.527C62.8232 18.7851 62.7207 19.0327 62.5381 19.2152C62.3556 19.3977 62.1081 19.5003 61.8499 19.5003L56.8424 19.6073H56.8229Z" fill="#093F68"/>
<path d="M51.7519 19.3206H51.6935L46.6956 19.0433C46.4375 19.0291 46.1956 18.9129 46.0231 18.7203C45.8506 18.5278 45.7617 18.2746 45.7759 18.0164C45.7901 17.7583 45.9062 17.5164 46.0988 17.3439C46.2914 17.1714 46.5446 17.0825 46.8027 17.0967L51.8005 17.3692C52.0587 17.3757 52.3037 17.4844 52.4816 17.6715C52.6596 17.8586 52.7559 18.1087 52.7495 18.3668C52.743 18.625 52.6343 18.87 52.4472 19.0479C52.2601 19.2259 52.01 19.3222 51.7519 19.3158V19.3206Z" fill="#093F68"/>
<path d="M53.2799 27.9145C52.2787 27.9056 51.3016 27.6064 50.4671 27.0531C50.4157 27.0151 50.3722 26.9673 50.3392 26.9125C50.3063 26.8577 50.2844 26.7969 50.2749 26.7336C50.2654 26.6704 50.2685 26.6059 50.2839 26.5438C50.2994 26.4817 50.3269 26.4233 50.3649 26.3718C50.4029 26.3204 50.4507 26.2769 50.5056 26.2439C50.5604 26.211 50.6211 26.1891 50.6844 26.1796C50.7477 26.1701 50.8122 26.1732 50.8743 26.1886C50.9364 26.2041 50.9948 26.2316 51.0462 26.2696C51.7815 26.7649 52.6628 26.9965 53.5465 26.9267C54.4303 26.8569 55.2643 26.4898 55.9127 25.8852C56.0114 25.8019 56.1392 25.7613 56.2678 25.7723C56.3965 25.7832 56.5156 25.8448 56.5988 25.9436C56.6821 26.0423 56.7227 26.1701 56.7117 26.2988C56.7008 26.4274 56.6392 26.5465 56.5404 26.6297C55.6443 27.4375 54.4862 27.8938 53.2799 27.9145Z" fill="#093F68"/>
<path d="M105.755 69.3087L105.05 60.1987L82.2603 65.4399L82.1338 69.3087H105.755Z" fill="#093F68"/>
<path d="M105.77 69.7952H82.1333C82.0677 69.7949 82.0029 69.7814 81.9427 69.7555C81.8825 69.7296 81.8281 69.6918 81.7829 69.6443C81.7381 69.5979 81.703 69.543 81.6796 69.4828C81.6562 69.4227 81.645 69.3585 81.6466 69.294L81.7732 65.4251C81.7767 65.3183 81.8154 65.2156 81.8831 65.133C81.9508 65.0503 82.0439 64.9922 82.1479 64.9677L104.942 59.7217C105.01 59.7065 105.08 59.7061 105.148 59.7203C105.216 59.7346 105.28 59.7633 105.336 59.8044C105.393 59.8457 105.441 59.8988 105.475 59.9601C105.51 60.0215 105.53 60.0895 105.536 60.1596L106.256 69.2696C106.262 69.3367 106.254 69.4041 106.232 69.4678C106.21 69.5315 106.175 69.5899 106.13 69.6395C106.084 69.689 106.028 69.7284 105.966 69.7552C105.904 69.782 105.837 69.7957 105.77 69.7952ZM82.6491 68.8219H105.244L104.606 60.7923L82.7319 65.8242L82.6491 68.8219Z" fill="#093F68"/>
<path d="M29.5756 11.4514C29.9984 10.3869 30.1847 9.24323 30.1216 8.09961C30.0586 6.95599 29.7478 5.83974 29.2106 4.82815C28.2374 2.88157 26.2908 0.964194 24.242 1.56763C24.3849 2.66814 24.6729 3.74488 25.0985 4.76975C23.2882 3.30981 20.7722 3.05676 18.4607 3.30981C17.5409 3.41201 16.5141 3.65047 16.0275 4.42423C15.5408 5.19799 16.0859 6.55573 17.0007 6.37081C15.0343 5.47867 12.805 5.3554 10.7522 6.02529C10.0953 6.24428 9.37991 6.65306 9.29231 7.33923C9.17065 8.27358 10.2656 8.85756 11.1464 9.16414C9.3799 8.27845 6.92235 9.68485 6.76663 11.6558L8.1195 11.9672C5.28723 14.8871 6.98562 19.4615 8.34822 22.7172C8.74727 23.6613 10.6792 28.1773 11.9835 28.3184C12.0175 28.3184 18.8257 29.0387 22.3441 24.8292C24.2663 22.5323 25.6387 19.7535 26.9088 17.0429C27.8529 15.1012 28.9381 13.2909 29.5756 11.4514Z" fill="#725858"/>
<path d="M13.22 28.8879C12.7942 28.8918 12.3686 28.8723 11.945 28.8295C10.8598 28.7176 9.51177 26.7321 7.91071 22.9314C6.81576 20.323 4.83512 15.5977 7.24401 12.2934L6.66977 12.1571C6.55999 12.1324 6.46217 12.0704 6.39296 11.9816C6.32376 11.8929 6.28744 11.7829 6.29019 11.6704C6.34688 11.1049 6.54219 10.5622 6.85882 10.0902C7.17545 9.61821 7.60361 9.23164 8.10537 8.96471C8.43596 8.77628 8.79146 8.63538 9.16139 8.5462C9.01973 8.37883 8.91453 8.18375 8.85253 7.97343C8.79052 7.76311 8.77306 7.54217 8.80127 7.32472C8.8986 6.57042 9.53124 5.96212 10.5873 5.6166C12.1263 5.10962 13.773 5.02392 15.3564 5.36841C15.3051 4.96101 15.3962 4.54841 15.6143 4.20047C16.2566 3.22718 17.5171 2.96439 18.4076 2.86706C20.0622 2.68701 22.2716 2.71134 24.1743 3.64569C23.9848 2.99898 23.8465 2.33835 23.7607 1.66992C23.7456 1.55483 23.7721 1.43811 23.8354 1.34084C23.8988 1.24357 23.9948 1.17215 24.1062 1.13948C26.3691 0.477641 28.5201 2.42422 29.6442 4.64331C30.7684 6.86241 30.9192 9.07664 30.0335 11.6315C29.5533 12.9114 28.9858 14.1569 28.3352 15.3592C28.0091 15.9918 27.6733 16.6488 27.3619 17.3058C26.082 20.0164 24.6756 22.8584 22.729 25.1797C19.9843 28.4548 15.4294 28.8879 13.22 28.8879ZM7.3316 11.3152L8.24163 11.5245C8.3252 11.5441 8.40208 11.5855 8.46447 11.6445C8.52686 11.7035 8.57254 11.7779 8.59688 11.8602C8.62331 11.9443 8.6264 12.034 8.60583 12.1197C8.58526 12.2054 8.5418 12.2839 8.48008 12.3469C6.04686 14.8482 7.20021 18.7365 8.80613 22.5664C10.2369 25.9729 11.5216 27.8173 12.0472 27.8708C12.1104 27.8708 18.6655 28.5229 21.9844 24.5568C23.8532 22.3182 25.1768 19.6563 26.481 16.8921C26.8022 16.2108 27.138 15.5441 27.4543 14.9066C28.0828 13.7428 28.6323 12.5381 29.0992 11.3006C29.4986 10.301 29.6754 9.22638 29.6174 8.1515C29.5594 7.07662 29.268 6.02727 28.7634 5.07643C27.8923 3.36344 26.3594 1.82565 24.7778 1.98624C24.9286 2.88857 25.1833 3.7704 25.537 4.61411C25.5777 4.71409 25.584 4.82476 25.5549 4.92871C25.5258 5.03266 25.463 5.124 25.3764 5.18835C25.2913 5.25386 25.1869 5.28938 25.0795 5.28938C24.9721 5.28938 24.8677 5.25386 24.7826 5.18835C22.9334 3.69922 20.3445 3.63109 18.5001 3.83548C17.8042 3.90848 16.8358 4.08854 16.4172 4.73091C16.3407 4.87842 16.3032 5.04308 16.3083 5.20919C16.3134 5.3753 16.361 5.53734 16.4464 5.67986C16.6946 5.76746 16.9331 5.86479 17.1764 5.97672C17.268 6.01863 17.3444 6.08795 17.395 6.17512C17.4455 6.26229 17.4678 6.363 17.4587 6.46336C17.4472 6.56614 17.4032 6.66259 17.3332 6.73872C17.2632 6.81485 17.1708 6.8667 17.0693 6.88674C16.8528 6.92824 16.6294 6.91479 16.4194 6.84763C16.2094 6.78047 16.0196 6.66174 15.8673 6.50229C14.2454 5.98171 12.5012 5.98171 10.8792 6.50229C10.5629 6.60935 9.81349 6.91107 9.75022 7.41231C9.68696 7.91356 10.3196 8.31747 10.8452 8.55106C11.0133 8.59996 11.1763 8.66516 11.3318 8.74572C11.4417 8.80135 11.5264 8.89655 11.5688 9.01215C11.6113 9.12774 11.6083 9.25513 11.5605 9.36863C11.5129 9.4818 11.4242 9.57279 11.3123 9.62333C11.2004 9.67387 11.0735 9.68024 10.9571 9.64114C10.7949 9.58599 10.644 9.52759 10.5045 9.46595C9.83961 9.33036 9.14808 9.44188 8.5595 9.77961C7.97092 10.1174 7.5257 10.6581 7.30727 11.3006L7.3316 11.3152Z" fill="#093F68"/>
<path d="M20.9715 32.995C18.329 33.1751 15.8326 31.8952 13.8909 30.1822C12.8884 29.2916 11.2678 28.2356 11.6718 26.7076C11.8811 26.0541 12.2509 25.4635 12.7472 24.9897C13.049 24.6637 13.3263 24.3376 13.5794 24.0164C13.0413 23.4573 12.6912 22.7441 12.5778 21.9764C12.4643 21.2088 12.5933 20.4248 12.9468 19.734C13.238 19.1762 13.7298 18.7495 14.3231 18.54C14.9164 18.3305 15.5671 18.3537 16.144 18.6049C17.4288 19.0624 17.8765 20.7072 18.149 21.8898C18.1691 22.0298 18.2281 22.1613 18.3193 22.2694C18.4241 22.3565 18.5533 22.4092 18.6892 22.4202C19.0699 22.4956 19.4618 22.4956 19.8425 22.4202C19.9595 22.4049 20.0677 22.35 20.1491 22.2645C20.1828 22.2098 20.2053 22.1489 20.2153 22.0854C20.2253 22.0219 20.2227 21.9571 20.2075 21.8947C20.0566 19.8216 19.6576 17.7193 20.1053 15.6899C20.8012 12.4976 23.1809 13.2567 25.7017 12.6533C26.0375 12.5706 29.4683 11.7481 29.4586 11.1934L30.174 21.773C30.5681 27.5738 26.9329 32.5911 20.9715 32.995Z" fill="#FFC9B0"/>
<path d="M20.4849 33.4965C18.1782 33.4965 15.7401 32.4649 13.5697 30.5475L13.122 30.1679C12.1487 29.3406 10.7763 28.2213 11.2046 26.5862C11.4314 25.8494 11.8378 25.1805 12.3871 24.6396C12.5915 24.4223 12.7764 24.213 12.9419 24.0118C12.4509 23.3737 12.1502 22.6099 12.0744 21.8083C11.9986 21.0067 12.1509 20.2 12.5137 19.4812C12.8576 18.817 13.44 18.3074 14.1441 18.0547C14.8481 17.8019 15.6216 17.8248 16.3095 18.1186C17.9203 18.6928 18.3923 20.7611 18.6259 21.7538C18.6259 21.8365 18.66 21.8755 18.6648 21.8949C18.6955 21.8907 18.7266 21.8907 18.7573 21.8949C19.0788 21.9565 19.4091 21.9565 19.7306 21.8949C19.6965 21.4083 19.6479 20.9217 19.5992 20.4788C19.4386 18.8534 19.2731 17.1745 19.6333 15.5296C20.2318 12.785 22.0665 12.5854 23.8427 12.3957C24.4321 12.3435 25.0173 12.2524 25.5946 12.1231C27.4828 11.6754 28.7238 11.2131 29.0012 10.9844C29.0153 10.8553 29.0802 10.7372 29.1815 10.656C29.2828 10.5747 29.4123 10.5371 29.5413 10.5513C29.6704 10.5655 29.7885 10.6304 29.8698 10.7317C29.951 10.833 29.9886 10.9624 29.9744 11.0915L30.6898 21.6662C31.1229 28.0899 27.0643 33.044 21.0348 33.4576C20.8304 33.4917 20.6601 33.4965 20.4849 33.4965ZM15.1318 18.8972C14.773 18.8897 14.4195 18.9845 14.1126 19.1707C13.8058 19.3569 13.5584 19.6266 13.3994 19.9484C13.0897 20.544 12.9749 21.2218 13.0709 21.8862C13.1669 22.5506 13.4691 23.1681 13.9347 23.6517C14.0217 23.7341 14.0753 23.8457 14.0852 23.9651C14.0951 24.0845 14.0605 24.2034 13.9882 24.299C13.74 24.6201 13.4577 24.9559 13.122 25.3209C12.6808 25.7381 12.3469 26.2556 12.1487 26.8295C11.8956 27.8028 12.6353 28.5036 13.7546 29.4233C13.9152 29.5596 14.0758 29.691 14.2412 29.8224C16.3727 31.7008 18.7573 32.6595 20.9618 32.5086C26.4317 32.1388 30.1107 27.6422 29.7214 21.7587L29.0693 12.0939C28.0194 12.5347 26.929 12.8721 25.8136 13.1013C25.1962 13.2388 24.5703 13.3347 23.9401 13.3884C22.1881 13.5782 21.0202 13.7047 20.5773 15.7681C20.2513 17.2621 20.4022 18.7902 20.5773 20.4107C20.626 20.8973 20.6747 21.3596 20.7087 21.8365C20.7332 21.954 20.733 22.0753 20.7081 22.1927C20.6832 22.31 20.6342 22.421 20.5642 22.5184C20.4942 22.6159 20.4047 22.6977 20.3014 22.7588C20.1982 22.8198 20.0833 22.8588 19.9642 22.8731C19.5191 22.9606 19.0612 22.9606 18.6162 22.8731C18.3858 22.8493 18.1691 22.752 17.9981 22.5957C17.8391 22.4231 17.7328 22.2087 17.6915 21.9777C17.385 20.6589 16.9713 19.3887 15.998 19.0578C15.7143 18.9534 15.4146 18.899 15.1123 18.8972H15.1318Z" fill="#093F68"/>
<path d="M27.4205 17.5784H23.0407C22.7825 17.5784 22.535 17.4759 22.3525 17.2933C22.1699 17.1108 22.0674 16.8633 22.0674 16.6051C22.0674 16.347 22.1699 16.0994 22.3525 15.9169C22.535 15.7344 22.7825 15.6318 23.0407 15.6318H27.4205C27.6786 15.6318 27.9262 15.7344 28.1087 15.9169C28.2912 16.0994 28.3938 16.347 28.3938 16.6051C28.3938 16.8633 28.2912 17.1108 28.1087 17.2933C27.9262 17.4759 27.6786 17.5784 27.4205 17.5784Z" fill="#093F68"/>
<path d="M26.4957 19.8459C27.0386 19.8459 27.4787 19.4058 27.4787 18.8629C27.4787 18.32 27.0386 17.8799 26.4957 17.8799C25.9528 17.8799 25.5127 18.32 25.5127 18.8629C25.5127 19.4058 25.9528 19.8459 26.4957 19.8459Z" fill="#093F68"/>
<path d="M29.1136 19.1211C29.1136 19.1211 31.9216 23.35 31.2597 23.5642C30.4899 23.71 29.7072 23.7769 28.9238 23.7637" fill="#FFC9B0"/>
<path d="M29.0166 24.2502H28.9193C28.7902 24.2502 28.6664 24.199 28.5752 24.1077C28.4839 24.0164 28.4326 23.8927 28.4326 23.7636C28.4326 23.6345 28.4839 23.5108 28.5752 23.4195C28.6664 23.3282 28.7902 23.277 28.9193 23.277H29.0117C29.6188 23.2805 30.2253 23.2414 30.8269 23.1602C30.2404 21.8388 29.53 20.576 28.7051 19.3887C28.6367 19.2809 28.6133 19.1506 28.6401 19.0257C28.6669 18.9009 28.7416 18.7916 28.8482 18.7214C28.9549 18.6511 29.0848 18.6256 29.2101 18.6503C29.3353 18.675 29.4458 18.7479 29.5178 18.8534C31.2357 21.4423 32.0046 23.0531 31.8002 23.6322C31.7696 23.724 31.7181 23.8074 31.6497 23.8759C31.5812 23.9443 31.4978 23.9958 31.406 24.0264C30.6206 24.1912 29.819 24.2663 29.0166 24.2502Z" fill="#093F68"/>
<path d="M27.3563 27.7003C27.2297 27.7003 24.2126 27.564 22.8062 25.0578C22.7742 25.0022 22.7535 24.9409 22.7453 24.8773C22.737 24.8137 22.7414 24.7491 22.7581 24.6872C22.7748 24.6253 22.8036 24.5673 22.8427 24.5165C22.8818 24.4657 22.9306 24.4231 22.9862 24.3911C23.0418 24.3592 23.1032 24.3385 23.1668 24.3302C23.2303 24.322 23.2949 24.3263 23.3568 24.3431C23.4188 24.3598 23.4768 24.3885 23.5276 24.4277C23.5784 24.4668 23.621 24.5156 23.6529 24.5712C24.7868 26.5956 27.366 26.7173 27.3903 26.7173C27.5194 26.7173 27.6432 26.7685 27.7344 26.8598C27.8257 26.9511 27.877 27.0748 27.877 27.2039C27.8785 27.2716 27.8659 27.3389 27.8399 27.4014C27.814 27.4639 27.7752 27.5204 27.7262 27.5671C27.6772 27.6138 27.619 27.6498 27.5553 27.6727C27.4916 27.6957 27.4238 27.705 27.3563 27.7003Z" fill="#093F68"/>
<path d="M21.8042 64.3494L1.05371 59.702L6.16834 37.6181C6.46881 36.4125 7.00394 35.2779 7.74313 34.2793C8.48232 33.2806 9.41109 32.4374 10.4763 31.7979C11.5416 31.1584 12.7224 30.7351 13.9514 30.5522C15.1803 30.3693 16.4332 30.4304 17.6385 30.7321L19.8333 31.2771C22.2667 31.8862 24.3588 33.4365 25.65 35.5872C26.9412 37.7379 27.3258 40.3132 26.7193 42.7473L21.8042 64.3494Z" fill="#68E1FD"/>
<path d="M21.8037 64.8362C21.7681 64.8408 21.7322 64.8408 21.6966 64.8362L0.946117 60.1741C0.88342 60.1604 0.824055 60.1345 0.771438 60.0977C0.71882 60.061 0.673992 60.0142 0.639533 59.96C0.60586 59.9053 0.583361 59.8444 0.573338 59.7809C0.563314 59.7175 0.565965 59.6526 0.581134 59.5902L5.69089 37.5063C6.33353 34.9476 7.96394 32.7479 10.2251 31.3888C12.4862 30.0298 15.1938 29.6222 17.7548 30.2553L19.9496 30.8052C22.5092 31.4453 24.7099 33.0758 26.0678 35.338C27.4257 37.6002 27.8296 40.3091 27.1908 42.8691L22.2806 64.4615C22.2552 64.5687 22.1943 64.6642 22.1076 64.7322C22.021 64.8003 21.9138 64.8369 21.8037 64.8362ZM1.62742 59.3323L21.429 63.7704L26.2321 42.6404C26.8081 40.3309 26.4445 37.8872 25.2211 35.8455C23.9977 33.8037 22.0144 32.3306 19.7062 31.7493L17.5066 31.2042C15.1984 30.6301 12.7567 30.9954 10.7175 32.2198C8.67827 33.4442 7.20825 35.4278 6.63012 37.735L1.62742 59.3323Z" fill="#093F68"/>
<path d="M46.4872 57.2104C48.244 57.8676 49.9379 58.682 51.5483 59.6437C53.9815 61.1474 56.1617 65.4007 54.7601 65.3423C53.3586 65.2839 50.1224 64.369 48.8766 64.2862C48.1515 64.223 44.127 63.24 44.127 63.24L46.4872 57.2104Z" fill="#FFC9B0"/>
<path d="M54.7893 65.8243H54.7406C53.5928 65.705 52.4546 65.5066 51.3341 65.2306C50.3316 65.0165 49.3875 64.817 48.862 64.7732C48.1174 64.7051 44.4481 63.7999 44.0345 63.7172C43.9671 63.7007 43.904 63.6701 43.8495 63.6273C43.7949 63.5845 43.7502 63.5305 43.7182 63.469C43.6854 63.4073 43.6662 63.3394 43.662 63.2697C43.6578 63.2 43.6687 63.1302 43.6938 63.0651L46.0589 57.0356C46.1057 56.9181 46.1964 56.8234 46.3117 56.7717C46.4271 56.7199 46.5581 56.7151 46.6769 56.7582C48.4661 57.4207 50.1898 58.2483 51.8256 59.2303C53.8744 60.4859 56.0643 63.8924 55.6604 65.2112C55.6081 65.3981 55.4929 65.5613 55.3342 65.673C55.1754 65.7848 54.9829 65.8382 54.7893 65.8243ZM44.779 62.9045C46.3704 63.2841 48.4678 63.7658 48.9204 63.8048C49.791 63.9232 50.6551 64.0856 51.5093 64.2914C52.5693 64.5449 53.6434 64.735 54.726 64.8608C54.799 64.1406 53.2661 61.2791 51.2952 60.0722C49.8485 59.208 48.3331 58.4642 46.7645 57.8482L44.779 62.9045Z" fill="#093F68"/>
<path d="M84.8952 38.0006L84.3211 38.0129C84.0431 38.0189 83.7668 37.9701 83.5077 37.8692C83.2486 37.7684 83.012 37.6175 82.8112 37.4252C82.6105 37.2329 82.4496 37.0029 82.3377 36.7484C82.2258 36.4939 82.1652 36.2199 82.1592 35.942L82.0943 32.9206L86.9061 32.8173L86.9705 35.8143C86.9797 36.0947 86.9332 36.374 86.8336 36.6362C86.7339 36.8983 86.5832 37.1381 86.3901 37.3415C86.197 37.5449 85.9654 37.7079 85.7088 37.8211C85.4521 37.9342 85.1756 37.9953 84.8952 38.0006Z" fill="#FFC9B0"/>
<path d="M84.2791 38.4944C83.5981 38.4933 82.9446 38.226 82.4581 37.7495C81.9717 37.273 81.6908 36.6252 81.6755 35.9444L81.6074 32.9223C81.6074 32.7933 81.6587 32.6695 81.7499 32.5782C81.8412 32.487 81.965 32.4357 82.0941 32.4357L86.907 32.3335C87.036 32.3335 87.1598 32.3848 87.2511 32.476C87.3423 32.5673 87.3936 32.6911 87.3936 32.8201L87.4569 35.8422C87.4699 36.5324 87.2089 37.1996 86.7309 37.6976C86.2529 38.1957 85.597 38.4839 84.9069 38.4993H84.3326L84.2791 38.4944ZM82.5904 33.3895L82.6488 35.9249C82.6577 36.3514 82.8334 36.7573 83.1382 37.0557C83.443 37.3541 83.8526 37.5212 84.2791 37.5211H84.3132H84.8874C85.1015 37.5167 85.3126 37.4701 85.5087 37.3841C85.7048 37.298 85.8821 37.1742 86.0303 37.0196C86.1785 36.8651 86.2948 36.6828 86.3726 36.4833C86.4504 36.2838 86.4881 36.0709 86.4836 35.8568L86.4301 33.3214L82.5904 33.3895Z" fill="#093F68"/>
<path d="M84.1525 33.7495C87.048 34.4649 90.075 33.5305 92.5569 32.0171C93.8465 31.2287 95.8514 30.3771 95.7006 28.6106C95.5949 27.8472 95.3023 27.1217 94.8489 26.4985C93.9049 25.0386 92.8342 23.3597 92.4157 21.6321C91.9047 19.486 92.8196 17.2912 91.9826 15.1257C90.5519 11.4467 85.4373 10.8967 82.0648 10.4588C81.2411 10.308 80.3969 10.308 79.5732 10.4588C77.4855 10.9454 77.6266 13.4322 77.1935 15.1597L76.1375 19.4276C74.5559 25.861 77.6315 32.1387 84.1525 33.7495Z" fill="#FFC9B0"/>
<path d="M86.1921 34.4746C85.4659 34.4777 84.742 34.3927 84.0363 34.2215C82.4846 33.8618 81.0266 33.1776 79.7584 32.2138C78.4901 31.2501 77.4404 30.0287 76.6782 28.63C75.2002 25.7626 74.8395 22.4485 75.666 19.3302L76.7318 15.0283C76.8145 14.6828 76.8777 14.2983 76.941 13.8944C77.1941 12.3566 77.5104 10.4392 79.4667 9.97205C80.3498 9.8088 81.2553 9.8088 82.1384 9.97205L82.4596 10.011C85.8417 10.449 90.9564 11.1108 92.4455 14.9455C92.9321 16.24 92.8737 17.515 92.8007 18.7511C92.6971 19.6724 92.7316 20.6041 92.9029 21.5152C93.2776 23.092 94.2704 24.693 95.2534 26.2016C95.7533 26.8928 96.0743 27.697 96.1878 28.5424C96.3435 30.3916 94.6208 31.3746 93.3652 32.0949L92.8105 32.4209C90.8338 33.6981 88.5446 34.4084 86.1921 34.4746ZM80.586 10.8237C80.2865 10.8197 79.9877 10.8507 79.6954 10.9161C78.4593 11.213 78.182 12.3517 77.9046 14.055C77.8364 14.4589 77.7683 14.8774 77.6758 15.257L76.6101 19.5638C75.8389 22.4545 76.172 25.5287 77.5445 28.1871C78.2421 29.4666 79.2031 30.5835 80.364 31.4643C81.525 32.3451 82.8595 32.9697 84.2796 33.2969C86.7128 33.8955 89.5597 33.2969 92.3092 31.618C92.4941 31.5109 92.6888 31.3941 92.8932 31.2822C94.3191 30.4598 95.3264 29.7931 95.2291 28.6543C95.1238 27.9703 94.8569 27.3214 94.4505 26.7613C93.4188 25.1845 92.3774 23.4959 91.9637 21.7683C91.7694 20.7649 91.7268 19.738 91.8372 18.7219C91.9053 17.5394 91.9734 16.4249 91.5452 15.3154C90.2702 12.016 85.7055 11.4222 82.3428 10.994L82.0216 10.9502C81.5461 10.8787 81.0666 10.8364 80.586 10.8237Z" fill="#093F68"/>
<path d="M77.7393 18.6733C77.7393 18.6733 73.7975 22.8195 74.4885 23.1845C75.3144 23.498 76.1706 23.7247 77.0434 23.861" fill="#FFC9B0"/>
<path d="M77.0579 24.3474H76.98C76.0549 24.2074 75.1488 23.9625 74.2791 23.6174C74.191 23.5725 74.1149 23.507 74.0574 23.4266C73.9998 23.3461 73.9623 23.253 73.9482 23.1551C73.8119 22.3229 75.7488 20.0795 77.3985 18.3422C77.4438 18.2966 77.4976 18.2604 77.5569 18.2357C77.6162 18.211 77.6798 18.1982 77.744 18.1982C77.8083 18.1982 77.8719 18.211 77.9312 18.2357C77.9905 18.2604 78.0443 18.2966 78.0895 18.3422C78.1802 18.4334 78.2311 18.5567 78.2311 18.6853C78.2311 18.8138 78.1802 18.9372 78.0895 19.0284C76.7415 20.4445 75.2767 22.2061 74.9556 22.8777C75.6647 23.1076 76.3902 23.2833 77.126 23.4033C77.2551 23.4143 77.3745 23.476 77.458 23.5751C77.5415 23.6741 77.5822 23.8022 77.5713 23.9313C77.5603 24.0604 77.4985 24.1798 77.3995 24.2633C77.3005 24.3468 77.1723 24.3875 77.0433 24.3766L77.0579 24.3474Z" fill="#093F68"/>
<path d="M91.4237 18.9407C91.4237 18.9407 94.7474 17.6754 95.6526 20.5807C96.5578 23.486 94.0175 27.4327 89.6377 25.0189" fill="#FFC9B0"/>
<path d="M92.222 26.2408C91.2286 26.215 90.2577 25.9388 89.3994 25.4378C89.2865 25.3733 89.2039 25.2665 89.1696 25.141C89.1354 25.0155 89.1524 24.8816 89.217 24.7687C89.2815 24.6557 89.3883 24.5731 89.5137 24.5388C89.6392 24.5046 89.7732 24.5216 89.8861 24.5862C91.5261 25.4865 93.0201 25.5011 94.0956 24.6251C94.6316 24.1489 95.0203 23.5295 95.216 22.8397C95.4117 22.15 95.4063 21.4187 95.2003 20.732C95.1306 20.4462 95.0008 20.1786 94.8196 19.947C94.6383 19.7154 94.4097 19.5251 94.1491 19.3888C93.0687 18.8632 91.6283 19.3888 91.6137 19.3888C91.5539 19.4115 91.4903 19.4222 91.4264 19.4203C91.3625 19.4184 91.2996 19.4039 91.2413 19.3777C91.183 19.3515 91.1305 19.3141 91.0866 19.2675C91.0428 19.221 91.0086 19.1663 90.9859 19.1066C90.9632 19.0468 90.9525 18.9832 90.9544 18.9193C90.9563 18.8554 90.9708 18.7925 90.997 18.7342C91.0232 18.6759 91.0606 18.6234 91.1072 18.5795C91.1537 18.5357 91.2084 18.5015 91.2682 18.4788C91.3412 18.4788 93.1126 17.7926 94.5676 18.4788C94.9518 18.673 95.29 18.9472 95.5594 19.283C95.8288 19.6187 96.0233 20.0082 96.1297 20.4254C96.4006 21.2991 96.4105 22.2329 96.158 23.1121C95.9056 23.9913 95.4019 24.7776 94.7087 25.3745C94.0091 25.9496 93.1275 26.2567 92.222 26.2408Z" fill="#093F68"/>
<path d="M79.4914 16.0501C79.2333 16.0533 78.9844 15.9538 78.7996 15.7736C78.6148 15.5933 78.5092 15.3471 78.5059 15.0889C78.5027 14.8308 78.6022 14.582 78.7824 14.3971C78.9626 14.2123 79.2089 14.1067 79.4671 14.1035L84.4065 13.9818C84.6646 13.9747 84.915 14.0705 85.1026 14.248C85.2901 14.4255 85.3994 14.6702 85.4065 14.9283C85.4136 15.1865 85.3179 15.4368 85.1404 15.6244C84.9629 15.8119 84.7181 15.9213 84.46 15.9284L79.5157 16.0549L79.4914 16.0501Z" fill="#093F68"/>
<path d="M80.6689 19.2866C81.3113 19.2866 81.832 18.7659 81.832 18.1235C81.832 17.4812 81.3113 16.9604 80.6689 16.9604C80.0266 16.9604 79.5059 17.4812 79.5059 18.1235C79.5059 18.7659 80.0266 19.2866 80.6689 19.2866Z" fill="#093F68"/>
<path d="M79.3933 27.9389C79.0653 27.9441 78.7381 27.9065 78.42 27.8269C78.3021 27.7864 78.2044 27.7021 78.1468 27.5916C78.0892 27.481 78.0763 27.3526 78.1106 27.2328C78.1449 27.113 78.2239 27.0109 78.3313 26.9476C78.4386 26.8843 78.5662 26.8646 78.6876 26.8926C78.7996 26.9267 81.4226 27.6177 82.5418 24.3766C82.5608 24.314 82.5922 24.2559 82.6342 24.2057C82.6762 24.1556 82.7278 24.1143 82.7861 24.0846C82.8443 24.0548 82.9079 24.0371 82.9732 24.0325C83.0384 24.0278 83.1039 24.0364 83.1658 24.0577C83.2277 24.079 83.2846 24.1125 83.3332 24.1563C83.3818 24.2001 83.4211 24.2532 83.4487 24.3125C83.4763 24.3718 83.4917 24.436 83.4939 24.5014C83.4961 24.5668 83.4851 24.6319 83.4616 24.693C82.5029 27.4814 80.5661 27.9389 79.3933 27.9389Z" fill="#093F68"/>
<path d="M82.2601 65.4396L105.05 60.1984L98.5578 39.4187C98.0033 36.883 96.4646 34.6713 94.28 33.2696C92.0954 31.868 89.4436 31.3911 86.9076 31.9439L84.6155 32.4305C82.0798 32.985 79.8681 34.5237 78.4664 36.7083C77.0648 38.8929 76.5879 41.5447 77.1406 44.0808L82.2601 65.4396Z" fill="#68E1FD"/>
<path d="M82.2603 65.9266C82.1491 65.9298 82.0402 65.8949 81.9517 65.8276C81.8631 65.7603 81.8003 65.6647 81.7737 65.5567L76.6688 44.2125C76.0882 41.5488 76.5881 38.7636 78.0588 36.4681C79.5296 34.1726 81.8509 32.5544 84.5135 31.9686L86.8007 31.4819C88.1191 31.1932 89.4815 31.1671 90.81 31.4052C92.1385 31.6432 93.4071 32.1407 94.5433 32.8692C95.6794 33.5978 96.6609 34.543 97.4316 35.651C98.2023 36.759 98.7471 38.008 99.0349 39.3266L105.517 60.0625C105.537 60.1267 105.543 60.1944 105.535 60.2611C105.528 60.3279 105.506 60.3923 105.472 60.4504C105.438 60.5084 105.393 60.5589 105.339 60.5985C105.284 60.6381 105.222 60.666 105.157 60.6805L82.3674 65.9266H82.2603ZM89.0149 32.2021C88.3407 32.2028 87.6684 32.2762 87.0099 32.4211L84.7227 32.9078C82.3131 33.4367 80.2116 34.8999 78.8796 36.9764C77.5476 39.0529 77.0938 41.5731 77.6177 43.9838L82.6204 64.8511L104.427 59.8192L98.1005 39.5456C97.655 37.466 96.5112 35.6015 94.8592 34.2621C93.2072 32.9226 91.1465 32.1888 89.0198 32.1827L89.0149 32.2021Z" fill="#093F68"/>
<path d="M80.7849 37.7158C80.7849 37.7158 67.811 52.2665 58.6523 58.3593L61.1342 64.598C61.1342 64.598 79.4904 56.7923 84.1622 46.8793" fill="#68E1FD"/>
<path d="M61.1351 65.0991C61.07 65.0979 61.0057 65.0847 60.9453 65.0602C60.886 65.0352 60.8322 64.9986 60.7871 64.9527C60.742 64.9067 60.7064 64.8523 60.6825 64.7925L58.2006 58.5537C58.1599 58.4499 58.156 58.3353 58.1897 58.229C58.2234 58.1227 58.2925 58.0312 58.3856 57.9698C67.3885 51.9646 80.2845 37.5307 80.4208 37.3945C80.4621 37.3429 80.5135 37.3004 80.5719 37.2694C80.6302 37.2384 80.6942 37.2195 80.76 37.2141C80.8259 37.2086 80.8921 37.2166 80.9548 37.2376C81.0174 37.2585 81.0751 37.292 81.1244 37.336C81.1737 37.38 81.2135 37.4335 81.2414 37.4934C81.2693 37.5533 81.2847 37.6182 81.2868 37.6842C81.2888 37.7503 81.2773 37.816 81.2531 37.8775C81.2289 37.9389 81.1924 37.9948 81.1459 38.0417C81.0194 38.1828 68.3423 52.3588 59.2469 58.5586L61.393 63.9603C64.2448 62.6756 79.5643 55.4392 83.7154 46.6699C83.743 46.6119 83.7818 46.5599 83.8296 46.517C83.8773 46.474 83.9332 46.441 83.9938 46.4197C84.0544 46.3984 84.1186 46.3894 84.1828 46.3931C84.2469 46.3968 84.3097 46.4131 84.3675 46.4412C84.4834 46.4969 84.5725 46.5963 84.6154 46.7176C84.6583 46.8389 84.6514 46.9722 84.5962 47.0884C82.6107 51.2833 78.08 55.5901 71.1405 59.8774C67.9864 61.8223 64.7056 63.5538 61.32 65.0602C61.2615 65.0851 61.1987 65.0983 61.1351 65.0991Z" fill="#093F68"/>
<path d="M88.6057 5.04235C90.4939 5.29054 92.4453 4.88176 94.2508 5.70905C99.998 8.33693 102.105 16.9019 103.01 22.5372C103.38 24.8244 103.56 27.1944 102.967 29.4329C102.508 31.0405 101.697 32.5256 100.592 33.7807C99.4878 35.0357 98.1179 36.0291 96.5818 36.6888C93.47 37.9859 89.983 38.0589 86.8197 36.8932C85.8674 36.5966 84.9975 36.0817 84.2794 35.3895C82.7319 33.7641 82.7806 31.1508 83.5884 29.0631C84.3962 26.9754 85.8367 25.1699 86.8733 23.2234C87.9332 21.1299 88.3883 18.7823 88.1872 16.4444C87.9049 13.8701 86.2406 13.3299 83.9534 13.0768C83.3451 13.0087 80.323 10.7993 80.7561 10.157C80.216 10.9502 79.1891 11.2081 78.2499 11.4125C78.1623 11.4125 78.0358 11.4125 78.0115 11.3395C78.0066 11.3138 78.0066 11.2874 78.0115 11.2617C78.8874 6.84293 84.6104 4.52164 88.6057 5.04235Z" fill="#725858"/>
<path d="M91.5209 38.2024C89.8618 38.201 88.2154 37.9129 86.6545 37.3508C85.6322 37.0247 84.6983 36.4686 83.9244 35.7254C82.1189 33.8275 82.372 30.8589 83.136 28.8831C83.6816 27.5966 84.348 26.3647 85.1264 25.2041C85.579 24.479 86.0462 23.7442 86.4452 22.9753C87.4568 20.9658 87.893 18.7157 87.7056 16.4737C87.4672 14.3228 86.2457 13.7972 83.9001 13.5539C83.2723 13.4857 81.2722 12.0939 80.5325 11.072C79.8681 11.4873 79.1265 11.7638 78.3523 11.8847C78.2722 11.9118 78.1874 11.9226 78.103 11.9164C78.0186 11.9102 77.9363 11.8872 77.861 11.8486C77.7857 11.81 77.7188 11.7567 77.6645 11.6919C77.6101 11.627 77.5693 11.5519 77.5445 11.471C77.5203 11.3703 77.5203 11.2652 77.5445 11.1644C78.5178 6.29801 84.6787 4.05945 88.674 4.58016C89.3107 4.64985 89.9509 4.68235 90.5914 4.67749C91.8664 4.67749 93.1852 4.67749 94.4602 5.28579C98.9568 7.3443 101.998 13.1256 103.497 22.4789C103.818 24.4742 104.101 27.0826 103.444 29.5742C102.971 31.2557 102.127 32.8098 100.974 34.1219C99.8209 35.4341 98.3883 36.4709 96.7815 37.1561C95.1186 37.8629 93.3277 38.219 91.5209 38.2024ZM81.2138 10.3128C81.4085 10.8579 83.4767 12.4589 84.0169 12.5709C86.0851 12.7996 88.3334 13.3008 88.6692 16.3667C88.8896 18.8002 88.4172 21.2465 87.3066 23.423C86.8929 24.2162 86.416 24.9803 85.9537 25.72C85.2059 26.8277 84.5655 28.0042 84.0412 29.2335C83.3842 30.9368 83.1409 33.4868 84.63 35.0733C85.2954 35.7141 86.1023 36.1892 86.9854 36.4602C90.0308 37.5869 93.3899 37.5191 96.3874 36.2704C97.8531 35.6341 99.1605 34.6823 100.216 33.4828C101.272 32.2833 102.05 30.8656 102.495 29.3309C103.108 27.0144 102.835 24.5374 102.534 22.6395C101.074 13.6269 98.2317 8.08886 94.0515 6.17635C92.9663 5.6897 91.8032 5.6897 90.5768 5.65564C89.8972 5.66073 89.218 5.62498 88.5427 5.54858C85.1361 5.10573 79.8123 6.95498 78.6249 10.8335C79.2967 10.7362 79.9114 10.4013 80.3573 9.88944C80.4246 9.79117 80.5255 9.72097 80.6411 9.69215C80.7567 9.66333 80.8788 9.67788 80.9843 9.73305C81.0899 9.78822 81.1715 9.88018 81.2138 9.99151C81.2561 10.1028 81.2561 10.2258 81.2138 10.3372V10.3128Z" fill="#093F68"/>
<path d="M59.052 58.3008C56.9539 58.7661 54.8892 59.3709 52.8717 60.1111C49.7523 61.2596 47.1974 63.1818 48.9152 64.8899C49.7717 65.7464 52.1028 64.4568 54.7988 64.3303C57.4948 64.2038 59.6652 64.8997 61.1495 64.6126L59.052 58.3008Z" fill="#FFC9B0"/>
<path d="M49.7767 65.6587C49.5543 65.6732 49.3314 65.6423 49.1213 65.5679C48.9113 65.4934 48.7187 65.3769 48.5552 65.2255C48.2877 64.9924 48.0866 64.6928 47.9721 64.3569C47.8576 64.0211 47.8338 63.661 47.9031 63.313C48.3168 61.4394 51.3875 60.1206 52.6917 59.6437C54.7321 58.8972 56.8194 58.286 58.9402 57.814C59.0572 57.7902 59.1789 57.8102 59.2821 57.8704C59.3853 57.9305 59.4628 58.0265 59.4998 58.14L61.5973 64.4664C61.6188 64.5322 61.626 64.6018 61.6184 64.6706C61.6109 64.7394 61.5887 64.8059 61.5535 64.8654C61.5188 64.9253 61.4718 64.9771 61.4156 65.0174C61.3594 65.0577 61.2952 65.0855 61.2274 65.099C60.2636 65.2134 59.2882 65.1872 58.3319 65.0212C57.165 64.8572 55.9864 64.7921 54.8086 64.8265C53.8059 64.8943 52.8119 65.0572 51.8401 65.3131C51.1666 65.5019 50.4749 65.6177 49.7767 65.6587ZM58.7163 58.8456C56.7876 59.2968 54.8878 59.8639 53.0275 60.544C50.7013 61.3957 49.0613 62.5636 48.8569 63.5077C48.8247 63.6954 48.8434 63.8882 48.911 64.0663C48.9786 64.2443 49.0927 64.4009 49.2414 64.5199C49.5577 64.8362 50.5553 64.5978 51.6162 64.3447C52.6454 64.0718 53.6979 63.8959 54.7599 63.8191C55.9913 63.7828 57.2236 63.8496 58.4438 64.0187C59.1193 64.1154 59.8005 64.1658 60.4829 64.1695L58.7163 58.8456Z" fill="#093F68"/>
<path d="M25.7365 35.7349C25.7365 35.7349 35.6153 50.1347 46.487 57.2105L43.9661 63.4054C43.9661 63.4054 27.537 58.1789 19.6826 44.2219" fill="#68E1FD"/>
<path d="M43.9662 63.8923C43.915 63.8913 43.8642 63.8832 43.8153 63.868C43.6499 63.8145 27.1186 58.4273 19.2593 44.4606C19.2273 44.4051 19.2066 44.3437 19.1984 44.2801C19.1901 44.2165 19.1945 44.1519 19.2112 44.09C19.2279 44.0281 19.2567 43.9701 19.2958 43.9193C19.335 43.8685 19.3837 43.8259 19.4393 43.794C19.4949 43.762 19.5563 43.7413 19.6199 43.7331C19.6835 43.7248 19.7481 43.7292 19.81 43.7459C19.8719 43.7626 19.9299 43.7914 19.9807 43.8305C20.0315 43.8696 20.0741 43.9184 20.106 43.974C27.0796 56.364 41.0706 61.8484 43.6888 62.7828L45.9128 57.3859C35.2066 50.2663 25.4737 36.1439 25.3569 36.0028C25.2859 35.8963 25.2597 35.766 25.284 35.6403C25.3083 35.5146 25.3812 35.4036 25.4868 35.3312C25.5924 35.2589 25.7223 35.2311 25.8483 35.2539C25.9743 35.2766 26.0863 35.3481 26.1599 35.4529C26.2572 35.594 36.1117 49.8527 46.779 56.7922C46.8731 56.8538 46.943 56.9462 46.9767 57.0536C47.0105 57.1609 47.0059 57.2766 46.9639 57.381L44.4528 63.5858C44.4148 63.6819 44.3471 63.7635 44.2596 63.8186C44.1721 63.8738 44.0693 63.8996 43.9662 63.8923Z" fill="#093F68"/>
<path d="M49.8057 57.9307C50.959 58.9916 51.3143 60.8506 51.9956 62.2327C52.2971 62.987 52.7341 63.6797 53.2852 64.2766C53.7101 64.6415 54.2443 64.8548 54.8037 64.883C55.3631 64.9112 55.916 64.7527 56.3754 64.4323C56.6495 64.2816 56.8896 64.0762 57.081 63.8289C57.331 63.3987 57.4495 62.9047 57.4217 62.4079C57.4524 61.1621 57.2882 59.9191 56.935 58.724C57.0555 58.8608 57.2061 58.9677 57.3751 59.0361C57.544 59.1045 57.7266 59.1326 57.9083 59.1182C57.9455 58.8538 57.921 58.5843 57.8365 58.331C57.7521 58.0777 57.6101 57.8474 57.4217 57.6582C56.8786 56.9415 56.2363 56.3058 55.514 55.77C55.0858 55.4927 54.2244 54.7968 53.7329 54.68C52.0783 54.2858 51.0807 55.4343 49.4845 55.9452C47.8883 56.4562 49.7522 57.8723 49.8057 57.9307Z" fill="#FFC9B0"/>
<path d="M54.8663 65.3717C54.1621 65.3782 53.4825 65.1133 52.9684 64.632C52.4125 64.0498 51.9687 63.3701 51.6594 62.627L51.5718 62.4469C51.3479 61.9895 51.1581 61.4736 50.9732 60.987C50.5936 59.9748 50.1994 58.9285 49.5133 58.2813C48.6568 57.5545 48.2853 56.9057 48.3988 56.3347C48.4534 56.1144 48.5699 55.9143 48.7347 55.7582C48.8994 55.6021 49.1054 55.4965 49.3283 55.4539C49.8037 55.2864 50.2644 55.0796 50.7055 54.8358C51.6156 54.3492 52.5596 53.8625 53.8347 54.1789C54.3928 54.3793 54.9115 54.6758 55.3676 55.0548L55.7666 55.3322C56.5363 55.8971 57.2199 56.5709 57.7959 57.3323C58.1512 57.7898 58.6038 58.4857 58.3702 59.24C58.3417 59.3348 58.285 59.4186 58.2076 59.4804C58.1302 59.5421 58.0358 59.5788 57.9371 59.5855C57.8512 59.5928 57.765 59.5928 57.6791 59.5855C57.8737 60.5116 57.9619 61.457 57.9419 62.4031C57.9707 62.9961 57.8215 63.5842 57.5137 64.0918C57.2844 64.3962 56.9944 64.6498 56.6621 64.8364C56.1235 65.1752 55.5025 65.3603 54.8663 65.3717ZM53.0366 55.0743C52.359 55.1317 51.7058 55.3539 51.1338 55.7215C50.6443 55.9929 50.1312 56.2193 49.6009 56.398C49.4013 56.4612 49.3381 56.5293 49.3332 56.5439C49.3283 56.5585 49.4549 56.9868 50.1118 57.5172L50.1459 57.5513C51.0267 58.3543 51.4647 59.4979 51.8881 60.6318C52.0512 61.0952 52.238 61.55 52.4477 61.9944L52.5353 62.1744C52.7926 62.8104 53.1636 63.3942 53.6303 63.8971C53.9784 64.1888 54.4137 64.3562 54.8675 64.3729C55.3214 64.3897 55.7678 64.2548 56.1365 63.9896C56.3572 63.8714 56.5484 63.7051 56.6961 63.503C56.8893 63.1525 56.9772 62.7537 56.9492 62.3545C56.9704 61.1587 56.8063 59.9669 56.4625 58.8214C56.4299 58.7149 56.4348 58.6003 56.4765 58.4969C56.5181 58.3935 56.594 58.3076 56.6915 58.2535C56.7889 58.1993 56.902 58.1803 57.0118 58.1995C57.1216 58.2188 57.2215 58.2751 57.2947 58.3591C57.208 58.1865 57.1037 58.0235 56.9832 57.8725C56.4748 57.1976 55.8735 56.598 55.1973 56.0914C55.0805 56.0135 54.9247 55.9064 54.7593 55.7848C54.3931 55.4964 53.9926 55.2545 53.567 55.0645C53.3903 55.0493 53.2125 55.0525 53.0366 55.0743Z" fill="#093F68"/>
<path d="M62.7067 54.7336C62.5776 54.7336 62.4539 54.6823 62.3626 54.5911C62.2713 54.4998 62.2201 54.376 62.2201 54.2469C62.3855 48.6213 62.551 39.4286 62.2882 38.4554C62.2252 38.3532 62.2022 38.2315 62.2236 38.1134C62.2449 37.9954 62.3091 37.8894 62.4039 37.8158C62.4986 37.7421 62.6172 37.7061 62.7368 37.7146C62.8565 37.7231 62.9688 37.7754 63.0522 37.8617C63.2323 38.0466 63.6605 38.4748 63.1933 54.2761C63.1859 54.4001 63.1314 54.5165 63.0409 54.6015C62.9504 54.6866 62.8309 54.7338 62.7067 54.7336Z" fill="#093F68"/>
<path d="M43.6446 31.2041C43.6446 31.2041 37.4594 39.6912 37.1528 46.2171C36.8462 52.743 49.8056 57.9306 49.8056 57.9306C49.8056 57.9306 49.7228 57.1422 51.6791 55.6774C53.6354 54.2126 54.3021 54.7528 54.3021 54.7528C54.3021 54.7528 45.6934 51.137 45.1776 46.2171C44.7542 42.1536 48.3213 35.7348 48.3213 35.7348" fill="#68E1FD"/>
<path d="M49.8498 58.4273C49.7762 58.4273 49.7034 58.4124 49.6357 58.3835C49.0955 58.1694 36.3746 52.9915 36.6812 46.2174C36.9781 39.6185 43.0076 31.2872 43.2509 30.9368C43.2885 30.8849 43.336 30.841 43.3907 30.8075C43.4453 30.774 43.506 30.7517 43.5693 30.7417C43.6326 30.7318 43.6973 30.7344 43.7596 30.7495C43.8218 30.7646 43.8805 30.7919 43.9322 30.8297C43.9841 30.8673 44.028 30.9148 44.0615 30.9695C44.095 31.0241 44.1173 31.0848 44.1273 31.1481C44.1372 31.2114 44.1346 31.2761 44.1195 31.3384C44.1044 31.4006 44.0771 31.4593 44.0393 31.511C43.9663 31.5938 37.9368 39.9348 37.6399 46.2417C37.3917 51.6532 47.1781 56.2617 49.4946 57.274C49.9674 56.4775 50.6146 55.7987 51.3876 55.2884C51.7777 54.9867 52.1966 54.7242 52.6383 54.505C50.0883 53.1959 45.105 50.1641 44.6963 46.2709C44.2583 42.1004 47.7475 35.7692 47.8984 35.5015C47.9294 35.4456 47.971 35.3963 48.0211 35.3565C48.0711 35.3167 48.1285 35.2871 48.19 35.2695C48.2514 35.2518 48.3158 35.2465 48.3793 35.2537C48.4428 35.261 48.5043 35.2807 48.5602 35.3117C48.6724 35.3751 48.7548 35.4804 48.7895 35.6044C48.8241 35.7285 48.8082 35.8612 48.7451 35.9736C48.7111 36.0368 45.2559 42.2999 45.6647 46.1687C46.0978 50.3295 52.9935 53.629 54.2831 54.213C54.4019 54.243 54.513 54.2977 54.6092 54.3736C54.7003 54.4472 54.7617 54.5512 54.7823 54.6666C54.8029 54.7819 54.7811 54.9007 54.7211 55.0013C54.661 55.1025 54.5662 55.1785 54.4544 55.2152C54.3425 55.2519 54.2212 55.2468 54.1128 55.2008L53.9863 55.1473C53.7576 55.1084 53.1103 55.2106 51.9716 56.0671C50.3657 57.2691 50.2878 57.9212 50.2878 57.9309C50.2966 58.0106 50.2835 58.0911 50.2501 58.164C50.2167 58.2368 50.1641 58.2993 50.098 58.3446C50.0258 58.3971 49.9391 58.426 49.8498 58.4273Z" fill="#093F68"/>
</g>
<defs>
<clipPath id="clip0_563_167">
<rect width="106.438" height="70" fill="white"/>
</clipPath>
</defs>
</svg>
