<svg width="285" height="285" viewBox="0 0 285 285" fill="none" xmlns="http://www.w3.org/2000/svg">
<rect width="285" height="285" fill="#EDCFC4"/>
<path d="M279.878 270.732C279.878 274.939 218.345 278.351 142.439 278.351C66.5337 278.351 5 274.939 5 270.732C5 266.523 66.5337 263.111 142.439 263.111C218.345 263.111 279.878 266.523 279.878 270.732Z" fill="#F6B1A0"/>
<path d="M127.119 68.2911C116.243 28.8387 67.2351 16.1297 39.1491 45.6146C38.7455 46.0379 38.3426 46.4684 37.9397 46.9059C-2.32606 90.6761 16.6961 198.54 100.73 225.879C184.762 253.217 272.169 203.294 277.08 158.666C281.99 114.038 243.221 100.016 183.056 112.495C149.064 119.545 133.889 92.8502 127.119 68.2911Z" fill="#F7B1A0"/>
<path d="M200.571 77.6546C189.688 81.0163 187.974 91.3119 197.546 97.1147C200.71 99.0333 205.035 100.391 210.95 100.545C233.485 101.136 243.817 89.7652 233.231 78.3584C226.697 71.3178 211.357 74.3224 200.571 77.6546Z" fill="#F6C1B4"/>
<path d="M29.8839 181.253C21.2161 173.862 11.6032 177.927 11.8281 189.118C11.9025 192.818 13.0727 197.199 16.1094 202.277C27.678 221.624 42.8139 224.261 46.7785 209.212C49.2253 199.924 38.4735 188.579 29.8839 181.253Z" fill="#F6B1A0"/>
<path d="M223.365 221.506C213.458 227.129 213.996 237.552 224.591 241.162C228.093 242.356 232.61 242.752 238.42 241.633C260.555 237.368 268.203 224.042 255.413 215.176C247.519 209.704 233.183 215.935 223.365 221.506Z" fill="#F6B1A0"/>
<path d="M257.054 202.584C253.862 207.088 256.343 212.44 261.826 212.643C263.638 212.71 265.729 212.2 268.069 210.694C276.983 204.959 277.514 196.795 269.926 194.198C265.243 192.596 260.216 198.121 257.054 202.584Z" fill="#F6B1A0"/>
<path d="M59.2698 215.517C59.275 215.408 59.8456 204.536 63.9801 201.002C64.9439 200.178 65.9978 199.842 67.2048 199.972C74.2809 200.738 74.4643 215.427 74.4649 215.575L75.7581 215.566C75.7543 214.914 75.5613 199.575 67.3438 198.686C65.7861 198.516 64.3713 198.966 63.1392 200.02C58.5814 203.918 58.001 214.986 57.9785 215.455L59.2698 215.517Z" fill="#E82B2A"/>
<path d="M78.4717 214.235L47.2175 214.103L40.9453 268.591L84.9443 268.775L78.4717 214.235Z" fill="#F03F33"/>
<path d="M74.2478 239.818C74.2478 245.406 69.7183 249.936 64.1311 249.936C58.5438 249.936 54.0137 245.406 54.0137 239.818C54.0137 234.231 58.5438 229.702 64.1311 229.702C69.7183 229.702 74.2478 234.231 74.2478 239.818Z" fill="#E82B2A"/>
<path d="M56.5296 215.069C56.5347 214.959 57.1054 204.088 61.2399 200.554C62.203 199.73 63.2569 199.393 64.4646 199.523C71.5407 200.29 71.7234 214.979 71.7247 215.127L73.0179 215.119C73.014 214.466 72.8204 199.128 64.6036 198.238C63.0453 198.068 61.6304 198.518 60.3983 199.572C55.8411 203.469 55.2602 214.538 55.2383 215.007L56.5296 215.069Z" fill="#F03F33"/>
<path d="M84.9472 268.775L88.4801 264.822L81.384 216.544L78.4746 214.235L84.9472 268.775Z" fill="#E82B2A"/>
<path d="M36.8873 217.53C36.8929 217.42 37.4634 206.549 41.5977 203.014C42.561 202.19 43.6158 201.854 44.8225 201.984C51.8987 202.75 52.0814 217.44 52.0827 217.587L53.3759 217.579C53.3714 216.927 53.1784 201.588 44.9617 200.698C43.4037 200.529 41.9887 200.978 40.7565 202.032C36.1987 205.93 35.6186 216.998 35.5957 217.467L36.8873 217.53Z" fill="#4C3499"/>
<path d="M56.0947 216.247L24.8407 216.116L18.5684 270.604L62.5672 270.788L56.0947 216.247Z" fill="#573D9F"/>
<path d="M49.3372 242.294C49.3372 247.882 44.8079 252.411 39.2207 252.411C33.6329 252.411 29.1035 247.882 29.1035 242.294C29.1035 236.707 33.6329 232.178 39.2207 232.178C44.8079 232.178 49.3372 236.707 49.3372 242.294Z" fill="#4C3499"/>
<path d="M34.1529 217.082C34.1582 216.972 34.7287 206.102 38.8631 202.567C39.8266 201.743 40.8807 201.406 42.0881 201.536C49.1644 202.303 49.3471 216.992 49.3484 217.14L50.6417 217.131C50.6371 216.479 50.4441 201.14 42.2271 200.25C40.6688 200.081 39.2544 200.531 38.0221 201.584C33.4645 205.483 32.884 216.55 32.8613 217.02L34.1529 217.082Z" fill="#573D9F"/>
<path d="M62.5663 270.788L66.0999 266.834L59.0032 218.557L56.0938 216.247L62.5663 270.788Z" fill="#4C3499"/>
<path d="M198.861 138.129L200.46 138.656L201.308 138.936L203.709 139.728C203.709 139.728 239.482 110.79 230.315 93.5523C227.493 88.2455 218.962 88.5743 214.177 106.316C209.742 122.762 198.861 138.129 198.861 138.129Z" fill="#D32430"/>
<path d="M200.457 138.655L201.305 138.935C208.491 131.368 214.037 122.427 217.534 116.002C221.687 108.373 223.929 102.545 223.95 102.487C224.03 102.279 223.926 102.045 223.718 101.967C223.51 101.887 223.276 101.991 223.197 102.199C223.174 102.257 220.947 108.044 216.819 115.628C213.304 122.083 207.707 131.097 200.457 138.655Z" fill="#962127"/>
<path d="M89.4501 77.5568L87.7669 77.5883L86.8746 77.605L84.346 77.6514C84.346 77.6514 58.7189 39.4368 72.5693 25.6772C76.8331 21.441 84.8858 24.2752 84.216 42.639C83.5952 59.6613 89.4501 77.5568 89.4501 77.5568Z" fill="#D32430"/>
<path d="M87.7681 77.5887L86.8757 77.6055C82.2452 68.2537 79.5886 58.0726 78.1454 50.9019C76.4327 42.3872 76.0119 36.1566 76.0087 36.0942C75.9939 35.8722 76.1625 35.6798 76.3845 35.6663C76.6071 35.6515 76.7995 35.8194 76.8136 36.0414C76.8175 36.1038 77.235 42.2914 78.94 50.7559C80.3909 57.9619 83.0739 68.2254 87.7681 77.5887Z" fill="#962127"/>
<path d="M97.6341 83.5142L95.6074 84.8666L94.5323 85.584L91.4865 87.6152C91.4865 87.6152 30.4021 61.0423 36.541 33.4515C38.4302 24.9581 50.4616 22.1245 63.9851 45.034C76.5217 66.2699 97.6341 83.5142 97.6341 83.5142Z" fill="#F03F33"/>
<path d="M95.6043 84.8676L94.5292 85.585C81.5815 77.8012 70.3916 67.4643 63.033 59.8491C54.2951 50.8068 48.9169 43.5397 48.8642 43.467C48.6724 43.2077 48.7278 42.8416 48.9883 42.6511C49.2476 42.4594 49.6137 42.5147 49.8042 42.7734C49.8582 42.8467 55.199 50.0637 63.8875 59.0513C71.2833 66.7026 82.5698 77.1198 95.6043 84.8676Z" fill="#D32430"/>
<path d="M190.561 143.695L192.321 145.379L193.255 146.273L195.901 148.803C195.901 148.803 260.676 133.261 259.431 105.023C259.048 96.3299 247.693 91.4472 230.39 111.654C214.351 130.386 190.561 143.695 190.561 143.695Z" fill="#F03F33"/>
<path d="M192.318 145.38L193.253 146.273C207.356 140.861 220.174 132.628 228.746 126.409C238.923 119.024 245.483 112.803 245.548 112.741C245.782 112.519 245.791 112.149 245.568 111.916C245.345 111.682 244.975 111.672 244.743 111.894C244.677 111.957 238.162 118.134 228.043 125.474C219.429 131.722 206.502 140.017 192.318 145.38Z" fill="#D32430"/>
<path d="M95.5862 172.251C95.6846 172.922 95.7837 173.656 95.8757 174.442V174.444C96.8389 182.683 97.0628 196.632 88.7823 202.208C88.7823 202.208 84.9348 174.629 64.9432 173.911C44.9517 173.192 44.7232 166.106 41.8445 154.334C38.966 142.561 42.1346 139.052 26.2125 132.526C10.2899 126.002 7.21094 109.258 7.21094 109.258C7.21094 109.258 25.028 123.507 37.583 119.705C50.138 115.902 55.9182 125.758 58.0717 133.817C60.2245 141.876 71.0683 139.179 78.3277 141.808C85.5872 144.437 94.8309 168.07 94.8309 168.07C94.8309 168.07 95.2072 169.692 95.5862 172.251Z" fill="#F03F33"/>
<path d="M95.5797 172.25C95.6781 172.921 95.7772 173.655 95.8692 174.44C93.2853 171.021 90.3939 168.395 87.8731 166.482C81.9017 161.952 74.6667 159.024 68.9933 158.839C59.9613 158.548 53.3787 152.027 47.6544 137.693C44.3324 129.372 33.7684 127.386 33.6608 127.368C33.353 127.312 33.1469 127.018 33.2024 126.71C33.2577 126.401 33.5527 126.195 33.8604 126.25C34.3195 126.332 45.1499 128.359 48.7089 137.271C54.2421 151.128 60.5101 157.431 69.0306 157.706C75.0154 157.9 82.3167 160.842 88.5596 165.578C90.7651 167.25 93.2493 169.458 95.5797 172.25Z" fill="#D32430"/>
<path d="M183.041 221.692C183.073 222.369 183.118 223.108 183.178 223.898V223.9C183.813 232.171 186.268 245.903 195.465 249.788C195.465 249.788 193.951 221.983 213.435 217.444C232.917 212.904 231.782 205.906 232.349 193.8C232.917 181.694 229.133 178.857 243.509 169.4C257.884 159.942 257.695 142.919 257.695 142.919C257.695 142.919 242.941 160.321 229.89 158.996C216.839 157.672 213.056 168.454 212.488 176.777C211.921 185.099 200.761 184.532 194.14 188.504C187.52 192.476 182.981 217.444 182.981 217.444C182.981 217.444 182.923 219.108 183.041 221.692Z" fill="#F03F33"/>
<path d="M183.043 221.692C183.075 222.37 183.12 223.109 183.179 223.898C185.059 220.047 187.394 216.915 189.501 214.554C194.492 208.963 201.031 204.701 206.564 203.432C215.372 201.414 220.582 193.752 223.451 178.585C225.116 169.783 235.103 165.807 235.205 165.769C235.497 165.656 235.642 165.326 235.529 165.035C235.415 164.742 235.086 164.596 234.795 164.71C234.36 164.878 224.119 168.945 222.336 178.374C219.562 193.035 214.62 200.423 206.31 202.328C200.473 203.665 193.873 207.953 188.653 213.798C186.809 215.863 184.795 218.505 183.043 221.692Z" fill="#D32430"/>
<path d="M205.686 58.018V258.464C205.686 264.746 200.594 269.839 194.31 269.839H94.4924C91.3359 269.839 88.4812 268.555 86.4197 266.48C84.3789 264.422 83.1172 261.59 83.1172 258.464V58.018C83.1172 51.7345 88.209 46.642 94.4924 46.642H194.31C196.168 46.642 197.921 47.0866 199.471 47.8774C203.161 49.758 205.686 53.592 205.686 58.018Z" fill="#263445"/>
<path d="M205.684 58.018V258.464C205.684 264.746 200.593 269.839 194.308 269.839H94.4907C91.3342 269.839 88.4794 268.555 86.418 266.48L199.469 47.8774C203.159 49.758 205.684 53.592 205.684 58.018Z" fill="#16161E"/>
<path d="M83.1166 109.181H82.6038C80.5887 109.181 78.9551 107.547 78.9551 105.532V86.3491C78.9551 84.334 80.5887 82.7004 82.6038 82.7004H83.1166V109.181Z" fill="#16161E"/>
<path d="M205.686 102.252H206.104C207.753 102.252 209.09 100.915 209.09 99.266V83.6739C209.09 82.0255 207.753 80.6885 206.104 80.6885H205.686V102.252Z" fill="#16161E"/>
<path d="M83.1166 139.255H82.6038C80.5887 139.255 78.9551 137.621 78.9551 135.606V116.423C78.9551 114.408 80.5887 112.774 82.6038 112.774H83.1166V139.255Z" fill="#16161E"/>
<path d="M200.01 57.3274V259.148C200.01 261.921 197.765 264.16 194.998 264.16H93.805C91.7333 264.16 89.9575 262.906 89.1919 261.11C88.9345 260.506 88.793 259.843 88.793 259.148V57.3274C88.793 54.5608 91.0384 52.3153 93.805 52.3153H194.998C195.7 52.3153 196.362 52.4569 196.967 52.7142C198.756 53.4863 200.01 55.2621 200.01 57.3274Z" fill="white"/>
<path d="M136.607 143.905H99.8786C96.3225 143.905 93.4395 141.023 93.4395 137.467V100.739C93.4395 97.1825 96.3225 94.3001 99.8786 94.3001H136.607C140.163 94.3001 143.045 97.1825 143.045 100.739V137.467C143.045 141.023 140.163 143.905 136.607 143.905Z" fill="#F6C1B4"/>
<path d="M125.939 111.162C125.939 111.162 123.779 108.039 121.974 108.107C120.169 108.174 105.901 118.733 101.112 119.48C96.3236 120.226 97.126 123.761 97.936 125.581C98.7454 127.401 135.907 126.222 135.907 126.222C135.907 126.222 137.307 115.221 136.214 111.804C135.12 108.387 129.632 112.09 125.939 111.162Z" fill="#F03F33"/>
<path d="M117.996 118.599C118.163 118.656 118.351 118.646 118.519 118.558C118.845 118.387 118.97 117.984 118.8 117.659C118.743 117.549 117.377 114.976 115.456 113.923C112.901 112.519 110.82 113.919 110.733 113.979C110.431 114.188 110.354 114.603 110.564 114.906C110.772 115.209 111.188 115.286 111.491 115.076C111.547 115.038 112.994 114.095 114.815 115.092C116.381 115.95 117.607 118.255 117.619 118.278C117.702 118.437 117.84 118.547 117.996 118.599Z" fill="white"/>
<path d="M120.049 116.792C120.215 116.848 120.404 116.839 120.572 116.751C120.898 116.58 121.023 116.177 120.852 115.851C120.796 115.742 119.43 113.168 117.509 112.115C114.951 110.709 112.873 112.11 112.786 112.171C112.483 112.38 112.407 112.795 112.616 113.098C112.825 113.401 113.24 113.478 113.543 113.268C113.601 113.23 115.048 112.287 116.868 113.284C118.44 114.146 119.659 116.447 119.671 116.47C119.754 116.628 119.892 116.739 120.049 116.792Z" fill="white"/>
<path d="M115.25 120.028C115.417 120.085 115.605 120.075 115.773 119.988C116.099 119.816 116.225 119.413 116.054 119.087C115.997 118.978 114.632 116.404 112.71 115.351C110.152 113.945 108.075 115.347 107.987 115.407C107.684 115.616 107.608 116.031 107.818 116.334C108.026 116.637 108.442 116.714 108.745 116.504C108.802 116.466 110.25 115.524 112.069 116.52C113.642 117.382 114.861 119.683 114.873 119.706C114.956 119.865 115.094 119.975 115.25 120.028Z" fill="white"/>
<path d="M189.066 143.905H152.338C148.781 143.905 145.898 141.023 145.898 137.467V100.739C145.898 97.1825 148.781 94.3001 152.338 94.3001H189.066C192.622 94.3001 195.505 97.1825 195.505 100.739V137.467C195.505 141.023 192.622 143.905 189.066 143.905Z" fill="#F6C1B4"/>
<path d="M188.622 113.748H181.906V135.934H159.386L159.456 113.748H152.773C154.108 109.334 156.56 106.205 158.105 104.564C158.902 103.716 160.017 103.238 161.182 103.238H165.55C165.55 106.052 167.833 108.333 170.647 108.333C173.461 108.333 175.741 106.052 175.741 103.238H180.214C181.379 103.238 182.494 103.716 183.292 104.564C184.835 106.205 187.288 109.334 188.622 113.748Z" fill="#573D9F"/>
<path d="M136.607 248.859H99.8786C96.3225 248.859 93.4395 245.976 93.4395 242.42V205.692C93.4395 202.136 96.3225 199.253 99.8786 199.253H136.607C140.163 199.253 143.045 202.136 143.045 205.692V242.42C143.045 245.976 140.163 248.859 136.607 248.859Z" fill="#F6C1B4"/>
<path d="M189.066 248.859H152.338C148.781 248.859 145.898 245.976 145.898 242.42V205.692C145.898 202.136 148.781 199.253 152.338 199.253H189.066C192.622 199.253 195.505 202.136 195.505 205.692V242.42C195.505 245.976 192.622 248.859 189.066 248.859Z" fill="#F6C1B4"/>
<path d="M194.288 157.701H94.6581C93.9851 157.701 93.4395 157.156 93.4395 156.483V152.618C93.4395 151.945 93.9851 151.399 94.6581 151.399H194.288C194.961 151.399 195.507 151.945 195.507 152.618V156.483C195.507 157.156 194.961 157.701 194.288 157.701Z" fill="#F6C1B4"/>
<path d="M194.288 171.352H94.6581C93.9851 171.352 93.4395 170.806 93.4395 170.134V166.269C93.4395 165.596 93.9851 165.05 94.6581 165.05H194.288C194.961 165.05 195.507 165.596 195.507 166.269V170.134C195.507 170.806 194.961 171.352 194.288 171.352Z" fill="#F6C1B4"/>
<path d="M194.288 185.004H94.6581C93.9851 185.004 93.4395 184.458 93.4395 183.785V179.92C93.4395 179.247 93.9851 178.702 94.6581 178.702H194.288C194.961 178.702 195.507 179.247 195.507 179.92V183.785C195.507 184.458 194.961 185.004 194.288 185.004Z" fill="#F6C1B4"/>
<path d="M173.741 62.3428H115.057C112.274 62.3428 109.998 60.0664 109.998 57.2844V55.8638C109.998 53.0811 112.274 50.8047 115.057 50.8047H173.741C176.523 50.8047 178.8 53.0811 178.8 55.8638V57.2844C178.8 60.0664 176.523 62.3428 173.741 62.3428Z" fill="#263445"/>
<path d="M160.921 57.2344H122.174C121.489 57.2344 120.93 56.6746 120.93 55.9901V55.6407C120.93 54.9567 121.489 54.397 122.174 54.397H160.921C161.605 54.397 162.164 54.9567 162.164 55.6407V55.9901C162.164 56.6746 161.605 57.2344 160.921 57.2344Z" fill="#16161E"/>
<path d="M172.209 55.7214C172.209 56.6614 171.446 57.4238 170.506 57.4238C169.566 57.4238 168.805 56.6614 168.805 55.7214C168.805 54.7814 169.566 54.019 170.506 54.019C171.446 54.019 172.209 54.7814 172.209 55.7214Z" fill="#384F64"/>
<path d="M194.996 264.16H93.8026C91.7309 264.16 89.9551 262.906 89.1895 261.11L96.1413 247.668C97.1939 248.417 98.482 248.859 99.873 248.859H136.601C140.157 248.859 143.04 245.976 143.04 242.42V205.691C143.04 202.135 140.157 199.253 136.601 199.253H121.18L128.551 185.002H194.282C194.955 185.002 195.501 184.456 195.501 183.783V179.918C195.501 179.245 194.955 178.7 194.282 178.7H131.809L135.61 171.351H194.282C194.955 171.351 195.501 170.805 195.501 170.133V166.268C195.501 165.595 194.955 165.049 194.282 165.049H138.869L142.669 157.7H194.282C194.955 157.7 195.501 157.155 195.501 156.482V152.617C195.501 151.944 194.955 151.398 194.282 151.398H145.929L150.025 143.478C150.742 143.754 151.52 143.904 152.334 143.904H189.062C192.618 143.904 195.501 141.022 195.501 137.466V100.737C195.501 97.1813 192.618 94.2989 189.062 94.2989H175.459L179.637 86.2204H192.421C194.122 86.2204 195.501 84.8416 195.501 83.1411V74.8451C195.501 73.1453 194.122 71.7665 192.421 71.7665H187.112L196.965 52.7142C198.753 53.4863 200.008 55.2621 200.008 57.3274V259.148C200.008 261.921 197.763 264.16 194.996 264.16ZM152.334 199.253C148.777 199.253 145.895 202.135 145.895 205.691V242.42C145.895 245.976 148.777 248.859 152.334 248.859H189.062C192.618 248.859 195.501 245.976 195.501 242.42V205.691C195.501 202.135 192.618 199.253 189.062 199.253H152.334Z" fill="white"/>
<path d="M189.061 143.905H152.333C151.519 143.905 150.741 143.755 150.023 143.479L159.418 125.314L159.385 135.934H181.904V113.748H188.621C187.287 109.334 184.834 106.205 183.29 104.564C182.492 103.716 181.377 103.238 180.213 103.238H175.74C175.74 106.052 173.459 108.333 170.646 108.333C169.861 108.333 169.119 108.156 168.455 107.84L175.458 94.3001H189.061C192.617 94.3001 195.5 97.1825 195.5 100.739V137.467C195.5 141.023 192.617 143.905 189.061 143.905Z" fill="#FCDAD0"/>
<path d="M181.912 135.934H159.393L159.426 125.314L168.463 107.84C169.127 108.156 169.869 108.333 170.653 108.333C173.467 108.333 175.748 106.052 175.748 103.238H180.221C181.385 103.238 182.5 103.716 183.298 104.564C184.841 106.205 187.295 109.334 188.629 113.748H181.912V135.934Z" fill="#8160B6"/>
<path d="M136.606 248.859H99.8782C98.4872 248.859 97.1991 248.418 96.1465 247.668L121.185 199.253H136.606C140.163 199.253 143.045 202.136 143.045 205.692V242.42C143.045 245.976 140.163 248.859 136.606 248.859Z" fill="#FCDAD0"/>
<path d="M189.066 248.859H152.338C148.781 248.859 145.898 245.976 145.898 242.42V205.692C145.898 202.136 148.781 199.253 152.338 199.253H189.066C192.622 199.253 195.505 202.136 195.505 205.692V242.42C195.505 245.976 192.622 248.859 189.066 248.859Z" fill="#FCDAD0"/>
<path d="M192.423 86.2207H179.639L187.114 71.7668H192.423C194.124 71.7668 195.503 73.1456 195.503 74.8455V83.1414C195.503 84.8419 194.124 86.2207 192.423 86.2207Z" fill="#FCDAD0"/>
<path d="M194.283 157.701H142.67L145.929 151.399H194.283C194.956 151.399 195.502 151.945 195.502 152.618V156.483C195.502 157.156 194.956 157.701 194.283 157.701Z" fill="#FCDAD0"/>
<path d="M194.288 171.352H135.615L138.874 165.05H194.288C194.961 165.05 195.506 165.596 195.506 166.269V170.134C195.506 170.806 194.961 171.352 194.288 171.352Z" fill="#FCDAD0"/>
<path d="M194.283 185.004H128.551L131.81 178.702H194.283C194.956 178.702 195.501 179.247 195.501 179.92V183.785C195.501 184.458 194.956 185.004 194.283 185.004Z" fill="#FCDAD0"/>
<path d="M214.546 89.7064C213.728 90.2854 212.602 89.8306 212.423 88.8314C212.336 88.3366 212.554 87.8103 212.964 87.5201C213.783 86.9411 214.909 87.3959 215.087 88.3951C215.175 88.8899 214.957 89.4162 214.546 89.7064ZM200.924 93.6466L209.884 114.072C210.465 115.397 212.011 115.999 213.335 115.418L233.761 106.459C235.086 105.878 235.69 104.333 235.108 103.008L226.148 82.5821C225.567 81.2567 224.022 80.6538 222.697 81.2354L202.271 90.1947C200.947 90.7764 200.343 92.3212 200.924 93.6466Z" fill="#573D9F"/>
<path d="M224.799 98.8868C224.266 97.6733 223.71 97.4861 223.311 97.6611C222.913 97.8355 222.674 98.372 223.206 99.5855C223.738 100.798 224.295 100.986 224.694 100.811C225.091 100.636 225.331 100.1 224.799 98.8868ZM220.636 100.713C219.651 98.4679 220.535 96.5474 222.454 95.7058C224.373 94.8642 226.384 95.5147 227.369 97.7595C228.362 100.022 227.47 101.924 225.551 102.766C223.631 103.608 221.628 102.976 220.636 100.713ZM212.892 96.9862C212.36 95.774 211.803 95.5855 211.406 95.7605C211.007 95.9349 210.767 96.4727 211.299 97.6849C211.831 98.8983 212.389 99.0849 212.787 98.9099C213.185 98.7356 213.424 98.199 212.892 96.9862ZM218.066 90.7233L221.126 89.3812L218.032 105.848L214.972 107.19L218.066 90.7233ZM208.728 98.8128C207.743 96.5686 208.629 94.6474 210.548 93.8059C212.467 92.9643 214.478 93.6141 215.462 95.8583C216.455 98.1218 215.563 100.024 213.645 100.865C211.725 101.707 209.721 101.076 208.728 98.8128Z" fill="white"/>
<path d="M205.684 84.4456C198.824 75.9566 189.167 50.9793 187.521 46.6435L187.485 46.5495C187.63 46.5804 187.774 46.6106 187.918 46.6435H190.355C189.286 46.2838 188.176 45.9949 187.027 45.7922C186.909 45.771 186.791 45.8141 186.715 45.9055C186.639 45.9962 186.618 46.1204 186.66 46.2311C186.686 46.2993 186.738 46.4389 186.814 46.6435C188.261 50.4826 198.489 77.2447 205.684 85.4647C206.355 86.2316 206.999 86.8364 207.608 87.2463C207.797 87.3743 207.983 87.4946 208.165 87.6072L208.907 87.2836C208.606 87.1112 208.296 86.9156 207.977 86.7007C207.263 86.2201 206.493 85.4474 205.684 84.4456ZM215.351 78.444C213.976 71.965 210.469 64.5878 205.967 58.7097C205.875 58.5881 205.78 58.4672 205.684 58.3443V59.4927C210.357 65.7118 213.514 72.9597 214.705 78.581C215.197 80.8992 215.359 82.922 215.207 84.5196C215.088 85.744 214.785 86.7181 214.302 87.382C214.116 87.6381 213.905 87.8479 213.667 88.0087C213.312 88.2468 212.896 88.3787 212.423 88.405C212.389 88.6225 212.407 88.8503 212.487 89.0703C213.065 89.0324 213.581 88.8599 214.036 88.5537C214.332 88.3549 214.593 88.0981 214.82 87.788C215.43 86.9593 215.79 85.7465 215.892 84.2191C216 82.6164 215.822 80.6656 215.351 78.444Z" fill="#16161E"/>
<path d="M236.036 259.115L235.364 265.134C235.364 265.134 233.398 266.262 230.297 265.644L230.949 258.608L236.036 259.115Z" fill="#F68A85"/>
<path d="M231.76 264.96C231.76 264.96 230.772 263.534 229.948 263.565C229.123 263.596 222.604 268.42 220.415 268.761C218.227 269.102 218.594 270.717 218.964 271.549C219.335 272.381 236.314 271.842 236.314 271.842C236.314 271.842 236.954 266.815 236.455 265.253C235.955 263.693 233.447 265.385 231.76 264.96Z" fill="#F03F33"/>
<path d="M228.136 268.359C228.212 268.385 228.298 268.38 228.375 268.34C228.524 268.261 228.581 268.078 228.503 267.929C228.477 267.879 227.853 266.703 226.976 266.222C225.807 265.58 224.857 266.22 224.817 266.247C224.679 266.343 224.644 266.533 224.74 266.671C224.835 266.81 225.025 266.845 225.163 266.749C225.189 266.731 225.85 266.3 226.683 266.756C227.398 267.148 227.958 268.201 227.964 268.212C228.001 268.284 228.064 268.335 228.136 268.359Z" fill="white"/>
<path d="M229.067 267.531C229.144 267.556 229.23 267.552 229.307 267.512C229.455 267.434 229.513 267.25 229.435 267.101C229.409 267.051 228.785 265.875 227.907 265.394C226.738 264.752 225.789 265.392 225.749 265.42C225.61 265.515 225.576 265.705 225.672 265.843C225.767 265.982 225.957 266.017 226.095 265.921C226.121 265.903 226.783 265.472 227.614 265.928C228.333 266.322 228.889 267.373 228.895 267.384C228.933 267.456 228.996 267.507 229.067 267.531Z" fill="white"/>
<path d="M226.878 269.011C226.954 269.037 227.041 269.033 227.117 268.993C227.266 268.914 227.324 268.73 227.246 268.581C227.219 268.531 226.596 267.355 225.718 266.874C224.549 266.232 223.6 266.872 223.56 266.9C223.421 266.995 223.386 267.185 223.482 267.323C223.577 267.461 223.767 267.497 223.906 267.4C223.932 267.384 224.593 266.952 225.424 267.408C226.144 267.802 226.7 268.853 226.706 268.864C226.743 268.936 226.807 268.987 226.878 269.011Z" fill="white"/>
<path d="M225.585 148.593C225.184 149.974 224.771 151.384 224.355 152.773C223.823 154.563 223.292 156.318 222.786 157.935C222.074 160.212 221.416 162.212 220.887 163.642C219.103 168.46 213.171 179.262 210.648 183.545L206.492 182.176C208.402 178.57 212.95 163.156 215.141 159.62L216.461 154.887L217.49 151.196L218.217 148.593H225.585Z" fill="#F68A85"/>
<path d="M202.863 189.846C202.473 190.166 201.901 190.222 201.447 189.921C200.973 189.606 200.788 189.002 201.003 188.475L202.631 184.508L202.634 184.508C202.258 183.577 202.802 182.525 203.787 182.303L207.611 181.438C207.611 181.438 210.441 181.699 210.994 182.772C211.345 183.452 210.413 185.274 209.686 186.515C209.915 187.02 209.93 187.623 209.696 188.162L208.702 190.456C208.407 191.136 207.569 191.385 206.95 190.974C206.824 190.89 206.72 190.784 206.636 190.666L206.621 190.7C206.327 191.38 205.488 191.629 204.87 191.219C204.791 191.167 204.724 191.104 204.662 191.038C204.282 191.271 203.783 191.287 203.378 191.018C202.985 190.757 202.795 190.296 202.863 189.846Z" fill="#F68A85"/>
<path d="M207.167 182.852C207.167 182.852 206.008 183.955 205.316 183.858C205.316 183.858 205.994 184.57 205.791 185.223C205.791 185.223 206.428 184.956 206.952 185.501C206.952 185.501 207.764 185.416 208.039 185.993C208.039 185.993 209.006 185.743 209.398 186.271C209.398 186.271 209.533 185.277 208.166 185.158C206.799 185.039 206.275 184.494 206.638 183.946C207.001 183.399 207.167 182.852 207.167 182.852Z" fill="#F3665C"/>
<path d="M224.355 152.773C223.823 154.563 223.292 156.318 222.786 157.935C219.779 157.614 217.699 156.122 216.461 154.887L217.49 151.196L224.355 152.773Z" fill="#F3665C"/>
<path d="M225.938 126.938C225.938 126.938 218.24 145.26 214.93 151.196C214.93 151.196 219.559 155.138 224.071 155.249C224.071 155.249 226.686 135.128 225.938 126.938Z" fill="#4C3499"/>
<path d="M261.671 251.204L265.57 255.837C265.57 255.837 265.034 258.04 262.45 259.862L257.799 254.541L261.671 251.204Z" fill="#F68A85"/>
<path d="M262.959 258.329C262.959 258.329 261.245 258.061 260.7 258.681C260.154 259.3 259.159 267.348 257.899 269.169C256.639 270.99 258.062 271.838 258.92 272.142C259.778 272.447 271.085 259.768 271.085 259.768C271.085 259.768 267.883 255.842 266.407 255.128C264.931 254.415 264.43 257.398 262.959 258.329Z" fill="#F03F33"/>
<path d="M262.926 263.299C262.997 263.261 263.053 263.196 263.077 263.112C263.123 262.951 263.029 262.783 262.867 262.736C262.813 262.721 261.531 262.363 260.577 262.668C259.308 263.072 259.117 264.202 259.109 264.25C259.083 264.416 259.197 264.572 259.363 264.598C259.529 264.624 259.686 264.51 259.711 264.344C259.716 264.313 259.86 263.537 260.763 263.248C261.54 263 262.69 263.32 262.701 263.323C262.779 263.345 262.859 263.334 262.926 263.299Z" fill="white"/>
<path d="M262.971 262.052C263.042 262.014 263.098 261.95 263.122 261.866C263.168 261.704 263.074 261.536 262.912 261.49C262.858 261.474 261.576 261.116 260.623 261.42C259.352 261.826 259.162 262.954 259.154 263.003C259.128 263.169 259.242 263.325 259.408 263.351C259.574 263.377 259.731 263.264 259.756 263.097C259.762 263.066 259.905 262.291 260.808 262.002C261.589 261.752 262.734 262.072 262.746 262.075C262.824 262.098 262.904 262.088 262.971 262.052Z" fill="white"/>
<path d="M262.529 264.659C262.601 264.621 262.657 264.555 262.681 264.473C262.726 264.311 262.632 264.142 262.471 264.096C262.417 264.08 261.135 263.723 260.181 264.027C258.91 264.432 258.72 265.561 258.713 265.609C258.686 265.775 258.8 265.931 258.966 265.957C259.132 265.984 259.289 265.87 259.314 265.704C259.32 265.673 259.464 264.897 260.366 264.607C261.147 264.358 262.293 264.679 262.304 264.682C262.383 264.705 262.463 264.693 262.529 264.659Z" fill="white"/>
<path d="M239.749 187.281L242.756 219.801C242.756 219.801 247.254 224.839 250.638 231.002C253.477 236.174 262.309 251.429 262.309 251.429L258.327 254.511L230.84 227.897L224.729 186.962L239.749 187.281Z" fill="#16161E"/>
<path d="M256.852 254.933C257.263 255.966 258.031 256.669 258.929 257.259L264.244 252.77C263.798 251.828 263.188 251.014 262.432 250.312L256.852 254.933Z" fill="#263445"/>
<path d="M259.997 188.633C259.997 188.633 252.937 205.988 243.763 219.522C243.763 219.522 242.393 232.693 240.051 239.703C239.025 242.773 237.141 257.003 237.141 257.003H230.078L231.874 216.561L239.236 187.269L259.997 188.633Z" fill="#263445"/>
<path d="M229.428 256.764C228.986 257.974 229.108 259.173 229.428 260.375L237.483 260.601C237.825 259.442 237.926 258.268 237.815 257.079L229.428 256.764Z" fill="#3A505B"/>
<path d="M260.233 179.463C260.235 179.71 260.233 179.956 260.233 180.196C260.227 184.603 260.206 188.017 260.184 189.694C255.929 190.847 251.672 191.591 247.415 191.936C247.221 191.95 247.031 191.965 246.837 191.98C246.734 191.986 246.63 191.994 246.527 191.999C246.298 192.015 246.068 192.03 245.842 192.041C245.588 192.058 245.336 192.07 245.08 192.083C242.184 192.217 239.287 192.165 236.389 191.927C235.804 191.878 235.222 191.822 234.637 191.759L234.524 191.747C234.376 191.731 234.227 191.713 234.077 191.695C233.986 191.684 233.895 191.673 233.807 191.662C230.437 191.26 227.068 190.602 223.696 189.694C223.687 188.932 223.684 187.803 223.684 186.381C223.684 186.116 223.684 185.845 223.686 185.56V185.558C223.687 183.523 223.7 180.989 223.722 178.125C223.723 177.88 223.725 177.634 223.727 177.383C223.743 175.476 223.763 173.434 223.788 171.305C223.792 171.058 223.794 170.811 223.798 170.563C223.825 168.379 223.858 166.11 223.895 163.806C223.92 162.399 223.945 160.981 223.974 159.559C224.003 158.121 224.034 156.679 224.068 155.247C224.075 154.935 224.083 154.624 224.092 154.312C224.422 140.771 224.993 128.324 225.937 126.936C226.591 125.975 228.09 124.846 229.855 123.708C230.071 123.57 230.291 123.431 230.513 123.291C231.266 122.821 237.401 120.737 238.181 120.279L244.665 119.826L250.946 121.962C251.212 122.115 251.482 122.269 251.749 122.423C254.045 123.748 256.31 125.143 257.616 126.345C257.806 126.519 257.976 126.689 258.121 126.856C258.237 126.989 258.341 127.117 258.424 127.244C258.502 127.359 258.578 127.55 258.651 127.813C259.436 130.664 259.846 141.869 260.052 154.06C260.066 154.934 260.079 155.813 260.091 156.694C260.097 157.08 260.102 157.468 260.108 157.856C260.113 158.122 260.117 158.39 260.118 158.657C260.12 158.791 260.122 158.923 260.124 159.057C260.133 159.721 260.14 160.382 260.146 161.04C260.151 161.528 260.157 162.013 260.162 162.499C260.22 168.64 260.239 174.603 260.233 179.463Z" fill="#573D9F"/>
<path d="M271.828 196.874C271.988 198.606 269.88 197.667 270.476 194.159C271.071 190.652 269.382 187.477 268.653 187.578C267.922 187.681 269.257 191.408 268.608 192.751C267.961 194.094 267.123 191.484 266.289 189.902C265.424 188.258 265.475 184.671 265.869 182.112C266.262 179.55 261.622 164.001 261.599 159.495L261.033 157.585L258.963 150.591L255.723 139.638C255.723 139.638 257.664 131.347 260.937 132.059C260.937 132.059 262.67 137.834 264.522 144.347C264.836 145.452 265.153 146.579 265.467 147.703C266.786 152.425 268.026 157.086 268.602 159.853C270.124 167.155 270.243 182.334 270.243 182.334C270.243 182.334 272.928 187.911 272.992 190.393C273.059 193.039 271.671 195.144 271.828 196.874Z" fill="#F68A85"/>
<path d="M265.469 147.702L261.035 157.584L258.965 150.59L264.524 144.345C264.838 145.451 265.155 146.578 265.469 147.702Z" fill="#F3665C"/>
<path d="M265.693 144.758C263.747 148.093 261.77 151.411 259.799 154.732C259.151 152.56 258.478 150.473 257.848 148.555L257.842 148.541C257.59 147.775 257.344 147.035 257.108 146.328L257.095 146.292C257.014 146.043 256.934 145.799 256.852 145.56V145.558C255.912 142.714 255.183 140.454 254.974 139.136C254.413 135.589 255.945 128.639 258.101 127.27C258.158 127.395 258.328 127.008 258.429 127.244C258.808 128.12 260.49 130.282 261.323 132.388C261.429 132.656 261.538 132.935 261.65 133.22C262.855 136.317 264.329 140.347 265.693 144.758Z" fill="#573D9F"/>
<path d="M241.709 126.311C238.901 126.311 236.921 123.748 236.838 123.639C236.72 123.483 236.741 123.256 236.887 123.129C237.032 123.003 237.245 123.027 237.364 123.182C237.389 123.215 239.233 125.585 241.709 125.585C244.156 125.585 245.648 122.903 245.662 122.875C245.757 122.703 245.964 122.644 246.126 122.745C246.287 122.846 246.343 123.067 246.249 123.24C246.181 123.366 244.55 126.311 241.709 126.311Z" fill="#4C3499"/>
<path d="M229.838 150.861L229.684 150.822C229.515 150.731 229.448 150.511 229.533 150.331L230.758 147.743C230.843 147.563 231.049 147.491 231.217 147.582C231.386 147.673 231.453 147.893 231.368 148.073L230.143 150.661C230.083 150.789 229.963 150.861 229.838 150.861Z" fill="#4C3499"/>
<path d="M227.284 148.741L227.134 148.795C226.946 148.813 226.78 148.664 226.763 148.464L226.523 145.574C226.506 145.373 226.645 145.196 226.834 145.178C227.021 145.16 227.187 145.308 227.204 145.51L227.444 148.399C227.456 148.541 227.39 148.671 227.284 148.741Z" fill="#4C3499"/>
<path d="M233.864 144.261C233.699 144.261 233.554 144.134 233.527 143.955L233.085 141.093C233.054 140.894 233.179 140.706 233.366 140.673C233.553 140.64 233.728 140.775 233.759 140.974L234.201 143.836C234.232 144.035 234.106 144.223 233.92 144.256L233.864 144.261Z" fill="#4C3499"/>
<path d="M244.865 145.326C244.806 145.326 244.746 145.309 244.692 145.275C244.529 145.172 244.475 144.948 244.571 144.775L245.953 142.278C246.049 142.105 246.258 142.047 246.42 142.15C246.583 142.253 246.637 142.477 246.541 142.651L245.159 145.147C245.096 145.262 244.982 145.326 244.865 145.326Z" fill="#4C3499"/>
<path d="M231.351 134.139C231.288 134.139 231.223 134.119 231.166 134.08L228.889 132.504C228.73 132.395 228.685 132.169 228.787 131.999C228.89 131.83 229.101 131.781 229.259 131.891L231.537 133.466C231.696 133.576 231.741 133.802 231.639 133.971C231.573 134.079 231.463 134.139 231.351 134.139Z" fill="#4C3499"/>
<path d="M241.494 157.393L241.34 157.353C241.171 157.262 241.104 157.042 241.189 156.862L242.414 154.273C242.499 154.094 242.704 154.022 242.874 154.113C243.041 154.204 243.109 154.424 243.023 154.604L241.799 157.192C241.739 157.319 241.618 157.393 241.494 157.393Z" fill="#4C3499"/>
<path d="M236.118 136.086C236.004 136.086 235.892 136.025 235.828 135.915C235.727 135.743 235.776 135.518 235.935 135.41L238.235 133.871C238.395 133.765 238.606 133.816 238.706 133.987C238.806 134.158 238.757 134.384 238.597 134.491L236.298 136.031C236.242 136.068 236.179 136.086 236.118 136.086Z" fill="#4C3499"/>
<path d="M230.646 125.324C230.651 125.395 230.637 125.464 230.606 125.522C230.554 125.629 230.451 125.705 230.328 125.714C230.14 125.728 229.978 125.576 229.964 125.375L229.855 123.709C230.071 123.571 230.29 123.432 230.514 123.292L230.646 125.324Z" fill="#4C3499"/>
<path d="M227.582 141.205C227.468 141.205 227.357 141.145 227.292 141.034C227.192 140.862 227.241 140.637 227.401 140.53L229.699 138.991C229.859 138.884 230.07 138.935 230.17 139.106C230.271 139.277 230.222 139.503 230.062 139.61L227.763 141.149C227.706 141.187 227.645 141.205 227.582 141.205Z" fill="#4C3499"/>
<path d="M245.918 128.575C245.853 128.575 245.788 128.556 245.73 128.515C245.572 128.404 245.529 128.178 245.633 128.008L246.944 125.881C247.047 125.713 247.259 125.665 247.417 125.777C247.574 125.888 247.618 126.115 247.514 126.283L246.203 128.41C246.138 128.517 246.029 128.575 245.918 128.575Z" fill="#4C3499"/>
<path d="M247.093 165.329C247.004 165.329 246.914 165.291 246.847 165.217L244.969 163.124C244.837 162.978 244.842 162.747 244.978 162.607C245.115 162.467 245.331 162.472 245.462 162.618L247.34 164.71C247.471 164.856 247.466 165.087 247.33 165.227C247.264 165.295 247.179 165.329 247.093 165.329Z" fill="#4C3499"/>
<path d="M240.191 164.895C240.101 164.895 240.011 164.857 239.944 164.782L238.066 162.69C237.935 162.544 237.94 162.313 238.076 162.174C238.212 162.033 238.428 162.039 238.559 162.183L240.437 164.276C240.568 164.422 240.563 164.653 240.427 164.793C240.361 164.861 240.276 164.895 240.191 164.895Z" fill="#4C3499"/>
<path d="M235.227 179.038C235.195 178.949 235.197 178.846 235.239 178.753L236.412 176.137C236.493 175.954 236.697 175.878 236.867 175.965C237.038 176.053 237.11 176.271 237.028 176.453L235.855 179.069C235.773 179.251 235.569 179.328 235.399 179.24C235.316 179.198 235.257 179.124 235.227 179.038Z" fill="#4C3499"/>
<path d="M255.037 187.668C255.006 187.578 255.007 187.475 255.05 187.381L256.222 184.766C256.304 184.584 256.508 184.507 256.678 184.594C256.847 184.682 256.919 184.9 256.838 185.082L255.665 187.697C255.584 187.88 255.38 187.957 255.21 187.869C255.127 187.827 255.067 187.753 255.037 187.668Z" fill="#4C3499"/>
<path d="M246.531 192C246.302 192.015 246.073 192.031 245.847 192.041L245.607 190.411C245.579 190.212 245.706 190.026 245.892 189.995C246.078 189.964 246.253 190.1 246.282 190.299L246.531 192Z" fill="#4C3499"/>
<path d="M249.258 187.076C249.184 187.021 249.13 186.935 249.116 186.833L248.695 183.967C248.667 183.768 248.794 183.58 248.981 183.549C249.168 183.518 249.341 183.654 249.371 183.854L249.791 186.719C249.821 186.919 249.693 187.105 249.506 187.137C249.415 187.152 249.327 187.128 249.258 187.076Z" fill="#4C3499"/>
<path d="M232.762 163.114C232.703 163.114 232.644 163.099 232.591 163.065C232.427 162.964 232.371 162.74 232.466 162.566L233.825 160.056C233.919 159.881 234.128 159.821 234.292 159.922C234.454 160.023 234.51 160.247 234.416 160.422L233.058 162.932C232.994 163.049 232.879 163.114 232.762 163.114Z" fill="#4C3499"/>
<path d="M236.757 156.838C236.633 156.838 236.514 156.766 236.453 156.64L235.21 154.062C235.123 153.883 235.19 153.663 235.357 153.57C235.525 153.477 235.731 153.548 235.817 153.728L237.061 156.305C237.147 156.485 237.082 156.705 236.914 156.797L236.757 156.838Z" fill="#4C3499"/>
<path d="M225.95 156.462L225.821 156.564C225.706 156.615 225.57 156.597 225.468 156.506L224.07 155.249C224.077 154.937 224.083 154.626 224.092 154.315L225.909 155.946C226.053 156.076 226.071 156.306 225.95 156.462Z" fill="#4C3499"/>
<path d="M236.737 129.49C236.612 129.49 236.493 129.418 236.432 129.292L235.189 126.715C235.102 126.535 235.168 126.314 235.336 126.222C235.503 126.13 235.71 126.2 235.797 126.379L237.04 128.957C237.127 129.136 237.06 129.357 236.893 129.45L236.737 129.49Z" fill="#4C3499"/>
<path d="M244.707 138.934L244.642 138.927C244.457 138.889 244.336 138.697 244.372 138.499L244.886 135.651C244.921 135.453 245.101 135.323 245.286 135.361C245.471 135.4 245.592 135.592 245.557 135.79L245.043 138.638C245.011 138.813 244.868 138.934 244.707 138.934Z" fill="#4C3499"/>
<path d="M240.268 141.434L240.203 141.427C240.017 141.389 239.897 141.197 239.932 140.999L240.446 138.151C240.482 137.952 240.662 137.823 240.846 137.861C241.031 137.899 241.153 138.091 241.117 138.289L240.603 141.138C240.571 141.313 240.429 141.434 240.268 141.434Z" fill="#4C3499"/>
<path d="M243.45 132.038C243.337 132.038 243.227 131.978 243.162 131.868L241.708 129.419C241.607 129.249 241.653 129.023 241.813 128.915C241.973 128.806 242.184 128.857 242.285 129.027L243.738 131.476C243.84 131.647 243.792 131.873 243.633 131.981C243.576 132.019 243.513 132.038 243.45 132.038Z" fill="#4C3499"/>
<path d="M230.116 157.292C230.022 157.185 229.995 157.025 230.057 156.884L231.225 154.266C231.306 154.084 231.51 154.007 231.68 154.094C231.851 154.181 231.923 154.399 231.842 154.582L230.674 157.199C230.593 157.381 230.388 157.458 230.218 157.372L230.116 157.292Z" fill="#4C3499"/>
<path d="M238.909 149.697C238.772 149.697 238.642 149.609 238.59 149.465L237.601 146.763C237.533 146.575 237.62 146.364 237.796 146.29C237.971 146.216 238.169 146.309 238.238 146.498L239.227 149.199C239.295 149.387 239.209 149.599 239.033 149.672L238.909 149.697Z" fill="#4C3499"/>
<path d="M249.767 166.38L249.613 166.34C249.445 166.249 249.377 166.029 249.463 165.848L250.687 163.261C250.772 163.081 250.978 163.008 251.147 163.1C251.315 163.191 251.382 163.411 251.297 163.591L250.072 166.179C250.012 166.306 249.892 166.38 249.767 166.38Z" fill="#4C3499"/>
<path d="M231.77 184.982L231.731 185.146C231.644 185.326 231.438 185.395 231.27 185.303L228.862 183.969C228.695 183.876 228.629 183.655 228.716 183.476C228.802 183.297 229.01 183.226 229.177 183.32L231.585 184.654C231.703 184.719 231.77 184.848 231.77 184.982Z" fill="#4C3499"/>
<path d="M225.235 186.641L225.198 186.806C225.111 186.986 224.904 187.054 224.736 186.962L223.689 186.382C223.689 186.117 223.689 185.846 223.691 185.561L225.05 186.313C225.169 186.379 225.237 186.509 225.235 186.641Z" fill="#4C3499"/>
<path d="M235.352 189.866L234.529 191.748C234.38 191.731 234.23 191.714 234.079 191.695C233.989 191.685 233.9 191.673 233.811 191.662L234.734 189.557C234.813 189.374 235.017 189.294 235.187 189.381C235.359 189.466 235.433 189.683 235.352 189.866Z" fill="#4C3499"/>
<path d="M254.213 159.781C254.049 159.781 253.904 159.655 253.876 159.475L253.434 156.613C253.403 156.414 253.53 156.226 253.716 156.193C253.903 156.16 254.078 156.295 254.109 156.494L254.551 159.356C254.582 159.555 254.456 159.743 254.27 159.776L254.213 159.781Z" fill="#4C3499"/>
<path d="M254.496 138.664C254.436 138.664 254.377 138.648 254.322 138.613C254.16 138.51 254.106 138.286 254.202 138.113L255.584 135.616C255.679 135.443 255.889 135.385 256.052 135.488C256.214 135.591 256.268 135.815 256.172 135.989L254.79 138.485C254.727 138.6 254.613 138.664 254.496 138.664Z" fill="#4C3499"/>
<path d="M250.053 148.81C249.989 148.81 249.925 148.79 249.867 148.751L247.59 147.175C247.432 147.066 247.386 146.839 247.488 146.67C247.592 146.5 247.803 146.452 247.961 146.562L250.239 148.137C250.397 148.247 250.442 148.472 250.34 148.642C250.275 148.75 250.165 148.81 250.053 148.81Z" fill="#4C3499"/>
<path d="M225.942 165.824L225.789 165.786C225.62 165.694 225.553 165.474 225.639 165.294L226.863 162.706C226.949 162.526 227.153 162.453 227.323 162.545C227.491 162.636 227.558 162.856 227.472 163.036L226.248 165.624C226.188 165.752 226.068 165.824 225.942 165.824Z" fill="#4C3499"/>
<path d="M253.936 152.74C253.822 152.74 253.711 152.68 253.646 152.569C253.546 152.397 253.594 152.172 253.754 152.065L256.053 150.526C256.213 150.419 256.424 150.47 256.524 150.642C256.625 150.813 256.576 151.038 256.416 151.145L254.117 152.684C254.06 152.722 253.998 152.74 253.936 152.74Z" fill="#4C3499"/>
<path d="M248.422 156.402C248.339 156.484 248.218 156.52 248.1 156.486C247.917 156.433 247.81 156.232 247.86 156.037L248.572 153.238C248.621 153.043 248.808 152.928 248.99 152.981C249.173 153.034 249.281 153.235 249.231 153.43L248.519 156.229C248.502 156.298 248.467 156.356 248.422 156.402Z" fill="#4C3499"/>
<path d="M258.122 126.857L257.528 127.822C257.461 127.927 257.353 127.985 257.242 127.985C257.177 127.985 257.112 127.967 257.055 127.926C256.897 127.815 256.853 127.588 256.957 127.42L257.617 126.347C257.808 126.52 257.976 126.691 258.122 126.857Z" fill="#4C3499"/>
<path d="M260.725 133.22L260.092 134.246C260.026 134.353 259.918 134.411 259.806 134.411C259.741 134.411 259.677 134.391 259.618 134.351C259.46 134.239 259.418 134.012 259.521 133.844L260.418 132.388C260.517 132.657 260.619 132.936 260.725 133.22Z" fill="#4C3499"/>
<path d="M231.165 174.861C231.076 174.861 230.986 174.824 230.919 174.749L229.041 172.656C228.91 172.511 228.914 172.28 229.05 172.14C229.186 172 229.403 172.005 229.534 172.15L231.412 174.242C231.543 174.388 231.538 174.619 231.403 174.76C231.336 174.828 231.25 174.861 231.165 174.861Z" fill="#4C3499"/>
<path d="M243.662 182.177C243.572 182.177 243.482 182.139 243.415 182.065L241.537 179.972C241.406 179.826 241.41 179.595 241.547 179.455C241.682 179.315 241.899 179.32 242.03 179.465L243.908 181.558C244.039 181.704 244.034 181.935 243.898 182.074C243.832 182.143 243.746 182.177 243.662 182.177Z" fill="#4C3499"/>
<path d="M247.133 179.27C247.077 179.195 247.048 179.097 247.059 178.994L247.399 176.116C247.422 175.916 247.593 175.774 247.78 175.799C247.968 175.824 248.1 176.007 248.076 176.207L247.737 179.086C247.714 179.286 247.543 179.427 247.356 179.402C247.265 179.39 247.187 179.341 247.133 179.27Z" fill="#4C3499"/>
<path d="M240.011 187.384C239.922 187.384 239.832 187.346 239.765 187.271L237.886 185.178C237.755 185.033 237.76 184.801 237.896 184.662C238.032 184.522 238.249 184.526 238.38 184.673L240.258 186.765C240.388 186.911 240.384 187.142 240.247 187.281C240.182 187.35 240.096 187.384 240.011 187.384Z" fill="#4C3499"/>
<path d="M260.235 179.464C260.237 179.712 260.235 179.957 260.235 180.198L258.115 180.388C257.927 180.406 257.76 180.256 257.746 180.055C257.728 179.854 257.869 179.678 258.057 179.66L260.235 179.464Z" fill="#4C3499"/>
<path d="M235.403 170.461C235.314 170.461 235.225 170.424 235.157 170.349L233.279 168.257C233.148 168.111 233.153 167.88 233.289 167.739C233.425 167.599 233.641 167.604 233.772 167.75L235.651 169.842C235.781 169.988 235.777 170.219 235.64 170.359C235.574 170.427 235.489 170.461 235.403 170.461Z" fill="#4C3499"/>
<path d="M244.444 169.552C244.438 169.648 244.397 169.741 244.323 169.809L242.247 171.674C242.102 171.805 241.887 171.785 241.766 171.631C241.645 171.476 241.663 171.245 241.807 171.115L243.883 169.249C244.028 169.118 244.243 169.139 244.364 169.293C244.424 169.368 244.45 169.462 244.444 169.552Z" fill="#4C3499"/>
<path d="M254.331 179.82L254.161 179.771C253.997 179.67 253.942 179.446 254.036 179.272L255.395 176.761C255.489 176.587 255.698 176.527 255.862 176.628C256.025 176.729 256.081 176.953 255.986 177.128L254.627 179.638C254.564 179.755 254.45 179.82 254.331 179.82Z" fill="#4C3499"/>
<path d="M256.683 172.358C256.56 172.358 256.44 172.286 256.38 172.16L255.136 169.582C255.049 169.403 255.115 169.182 255.283 169.09C255.45 168.997 255.657 169.067 255.743 169.247L256.987 171.824C257.073 172.005 257.007 172.225 256.84 172.317L256.683 172.358Z" fill="#4C3499"/>
<path d="M252.973 143.09C252.848 143.09 252.729 143.018 252.668 142.892L251.425 140.314C251.338 140.135 251.404 139.914 251.572 139.821C251.739 139.729 251.945 139.8 252.033 139.979L253.275 142.556C253.362 142.736 253.296 142.957 253.128 143.049L252.973 143.09Z" fill="#4C3499"/>
<path d="M254.332 132.271L254.267 132.264C254.082 132.225 253.961 132.034 253.997 131.836L254.51 128.988C254.546 128.789 254.726 128.66 254.912 128.698C255.097 128.736 255.217 128.928 255.182 129.126L254.668 131.974C254.636 132.149 254.493 132.271 254.332 132.271Z" fill="#4C3499"/>
<path d="M260.58 142.1L260.515 142.093C260.33 142.055 260.209 141.863 260.245 141.665L260.759 138.817C260.794 138.618 260.974 138.489 261.16 138.527C261.345 138.565 261.465 138.757 261.43 138.955L260.916 141.803C260.884 141.978 260.741 142.1 260.58 142.1Z" fill="#4C3499"/>
<path d="M249.899 134.772L249.834 134.765C249.648 134.727 249.527 134.535 249.563 134.338L250.077 131.49C250.113 131.291 250.292 131.162 250.477 131.2C250.663 131.238 250.784 131.43 250.748 131.628L250.234 134.476C250.202 134.651 250.059 134.772 249.899 134.772Z" fill="#4C3499"/>
<path d="M251.93 124.85C251.863 124.866 251.8 124.861 251.741 124.839C251.634 124.799 251.547 124.703 251.52 124.578L250.945 121.962C251.211 122.115 251.481 122.269 251.748 122.423L252.184 124.41C252.228 124.607 252.115 124.802 251.93 124.85Z" fill="#4C3499"/>
<path d="M259.753 146.502C259.639 146.502 259.529 146.442 259.464 146.332L258.01 143.883C257.909 143.713 257.956 143.487 258.116 143.379C258.275 143.271 258.486 143.322 258.587 143.492L260.041 145.94C260.142 146.111 260.095 146.337 259.935 146.445C259.878 146.483 259.816 146.502 259.753 146.502Z" fill="#4C3499"/>
<path d="M250.042 172.812C249.948 172.706 249.92 172.545 249.983 172.405L251.151 169.787C251.232 169.605 251.436 169.527 251.606 169.615C251.777 169.702 251.849 169.92 251.767 170.102L250.6 172.72C250.518 172.902 250.315 172.979 250.143 172.892L250.042 172.812Z" fill="#4C3499"/>
<path d="M226.009 177.73L223.727 178.125C223.728 177.881 223.73 177.634 223.734 177.384L225.899 177.007C226.085 176.976 226.262 177.11 226.29 177.31C226.321 177.509 226.196 177.697 226.009 177.73Z" fill="#4C3499"/>
<path d="M225.307 171.043L223.787 171.306C223.79 171.059 223.792 170.812 223.795 170.564L225.197 170.322C225.383 170.289 225.558 170.425 225.589 170.624C225.619 170.824 225.494 171.01 225.307 171.043Z" fill="#4C3499"/>
<path d="M258.84 165.216C258.703 165.216 258.575 165.128 258.522 164.984L257.534 162.282C257.464 162.094 257.551 161.882 257.727 161.808C257.903 161.735 258.102 161.828 258.17 162.016L259.158 164.717C259.227 164.905 259.14 165.117 258.964 165.191L258.84 165.216Z" fill="#4C3499"/>
<path d="M260.094 156.693C259.453 154.042 258.646 151.095 257.847 148.555L257.841 148.541C257.595 147.756 257.349 147.011 257.108 146.328L257.095 146.292C257.02 146.075 256.944 145.868 256.87 145.664L256.852 145.559V145.557C256.852 145.436 256.927 145.322 257.05 145.276C257.207 145.22 257.381 145.3 257.437 145.458C258.257 147.691 259.224 150.907 260.054 154.06C260.069 154.934 260.082 155.813 260.094 156.693Z" fill="#4C3499"/>
<path d="M233.058 102.256C233.058 102.256 229.431 100.99 229.793 98.1696C230.101 95.7691 232.765 97.3255 232.531 95.4493C232.296 93.5738 231.777 91.8682 234.068 91.3992C236.074 90.9887 236.107 92.444 238.741 90.3331C241.851 87.8399 244.241 93.6131 247.017 93.7868C251.112 94.0422 251.629 96.4942 252.032 98.4553C252.434 100.417 250.454 102.72 250.454 102.72L233.058 102.256Z" fill="#263445"/>
<path d="M233.665 106.378C233.665 106.378 232.143 104.349 231.011 106.027C229.88 107.705 231.48 112.66 234.25 111.451L233.665 106.378Z" fill="#F3665C"/>
<path d="M233.645 109.919C233.543 109.919 233.448 109.851 233.419 109.748C232.99 108.218 231.405 107.598 231.389 107.592C231.268 107.545 231.208 107.41 231.254 107.289C231.299 107.169 231.434 107.108 231.555 107.154C231.629 107.182 233.376 107.859 233.87 109.622C233.905 109.746 233.833 109.875 233.707 109.91L233.645 109.919Z" fill="#CE4045"/>
<path d="M232.044 109.147L231.918 109.11C231.809 109.04 231.778 108.895 231.848 108.787C231.859 108.768 232.14 108.341 232.727 108.078C232.845 108.025 232.983 108.078 233.036 108.197C233.089 108.314 233.036 108.453 232.918 108.505C232.464 108.709 232.244 109.037 232.242 109.04C232.197 109.109 232.122 109.147 232.044 109.147Z" fill="#CE4045"/>
<path d="M249.347 106.378C249.347 106.378 250.868 104.349 252 106.027C253.132 107.705 251.532 112.66 248.762 111.451L249.347 106.378Z" fill="#F3665C"/>
<path d="M249.367 109.919C249.469 109.919 249.564 109.851 249.593 109.748C250.022 108.218 251.607 107.598 251.623 107.592C251.744 107.545 251.804 107.41 251.758 107.289C251.713 107.169 251.578 107.108 251.457 107.154C251.383 107.182 249.636 107.859 249.142 109.622C249.107 109.746 249.179 109.875 249.304 109.91L249.367 109.919Z" fill="#CE4045"/>
<path d="M250.973 109.147L251.099 109.11C251.208 109.04 251.239 108.895 251.169 108.787C251.158 108.768 250.877 108.341 250.29 108.078C250.173 108.025 250.034 108.078 249.981 108.197C249.929 108.314 249.981 108.453 250.099 108.505C250.553 108.709 250.773 109.037 250.775 109.04C250.82 109.109 250.896 109.147 250.973 109.147Z" fill="#CE4045"/>
<path d="M245.25 115.652V120.581C245.25 120.581 243.781 123.091 241.793 123.261C239.808 123.435 238.043 121.101 238.043 121.101V115.999L245.25 115.652Z" fill="#F68A85"/>
<path d="M245.25 115.654V117.841C243.917 119.32 241.548 119.69 238.043 119.172V116L245.25 115.654Z" fill="#F3665C"/>
<path d="M250.453 102.997C250.363 104.912 250.18 107.308 249.814 109.221V109.227L249.81 109.245L249.809 109.249C249.718 109.716 249.617 110.156 249.507 110.551C249.441 110.783 249.369 111.026 249.288 111.275C248.12 114.939 245.414 120.244 238.612 117.817C235.748 116.796 234.255 113.837 233.496 110.629C233.451 110.437 233.409 110.248 233.372 110.066C233.347 109.944 233.323 109.826 233.301 109.71L233.267 109.539L233.256 109.477L233.255 109.466C232.806 106.999 232.738 104.504 232.771 102.721C232.806 100.904 233.799 99.2405 235.381 98.3442C239.666 95.9141 244.19 96.8213 247.169 97.9652C249.237 98.7586 250.559 100.788 250.453 102.997Z" fill="#F68A85"/>
<path d="M245.319 114.249V114.251H245.317C244.988 114.566 244.651 114.831 244.318 115.009C242.434 116.028 242.23 115.875 241.484 115.907C240.729 115.944 239.685 115.719 238.626 115.128C238.294 114.943 237.801 114.584 237.262 114.093C237.262 114.093 236.498 111.479 241.354 112.133C246.222 111.296 245.399 113.737 245.319 114.249ZM249.808 109.221L248.763 109.147C248.763 109.147 248.166 110.382 247.288 111.744C246.408 109.81 242.166 111.215 242.166 111.215C241.897 111.302 241.621 111.346 241.343 111.346C241.073 111.346 240.804 111.304 240.542 111.223L240.522 111.215C240.522 111.215 236.228 109.869 235.382 111.896C234.863 111.103 234.44 110.211 234.249 109.263L233.248 109.466L233.249 109.477L233.261 109.539L233.294 109.71C233.316 109.826 233.34 109.944 233.366 110.066C233.402 110.248 233.445 110.437 233.489 110.629C234.249 113.837 235.741 116.796 238.606 117.817C245.407 120.243 248.113 114.939 249.281 111.275C249.519 110.286 249.758 109.409 249.802 109.249L249.804 109.245L249.808 109.227L249.81 109.221H249.808Z" fill="#263445"/>
<path d="M245.403 106.561C245.403 107.087 245.131 107.514 244.797 107.514C244.463 107.514 244.191 107.087 244.191 106.561C244.191 106.035 244.463 105.609 244.797 105.609C245.131 105.609 245.403 106.035 245.403 106.561Z" fill="#263445"/>
<path d="M238.043 106.561C238.043 107.087 237.772 107.514 237.437 107.514C237.103 107.514 236.832 107.087 236.832 106.561C236.832 106.035 237.103 105.609 237.437 105.609C237.772 105.609 238.043 106.035 238.043 106.561Z" fill="#263445"/>
<path d="M247.302 103.349C247.302 103.349 244.801 102.36 242.873 103.193L243.066 104.264C243.066 104.264 245.894 104.025 247.319 104.603C247.446 104.189 247.465 103.773 247.302 103.349Z" fill="#263445"/>
<path d="M235.409 103.355C235.409 103.355 237.93 102.358 239.871 103.197L239.677 104.276C239.677 104.276 236.828 104.036 235.392 104.617C235.264 104.202 235.245 103.781 235.409 103.355Z" fill="#263445"/>
<path d="M241.544 110.818C241.939 110.818 242.331 110.665 242.391 110.639C242.511 110.591 242.569 110.454 242.52 110.335C242.472 110.215 242.335 110.158 242.215 110.206C242.003 110.292 241.496 110.427 241.276 110.295C241.233 110.27 241.175 110.219 241.16 110.077C241.076 109.259 241.299 106.519 241.302 106.492C241.313 106.362 241.216 106.25 241.088 106.239C240.958 106.228 240.846 106.324 240.835 106.453C240.826 106.567 240.606 109.265 240.695 110.125C240.729 110.449 240.898 110.615 241.035 110.697C241.185 110.786 241.365 110.818 241.544 110.818Z" fill="#F3665C"/>
<path d="M238.604 112.601C238.781 113.495 239.372 115.141 241.362 115.141C243.358 115.141 243.917 113.637 244.108 112.601H238.604Z" fill="white"/>
<path d="M250.454 102.995C250.362 104.911 250.18 107.306 249.814 109.221L248.768 109.147C248.768 109.147 249.021 107.53 249.139 106.476C249.256 105.423 249.454 103.454 248.555 103.208C247.658 102.965 248.185 100.718 246.937 99.7438C245.69 98.7677 242.898 98.5001 241.058 99.6331C239.218 100.764 237.143 99.5475 236.296 99.7438C235.447 99.9381 234.295 101.109 234.606 102.202C234.919 103.293 233.983 103.958 233.756 105.089C233.529 106.22 234.254 109.263 234.254 109.263L233.255 109.465C232.806 106.997 232.738 104.504 232.771 102.722C232.806 100.903 233.798 99.2406 235.381 98.3437C239.667 95.9136 244.191 96.8195 247.169 97.9648C249.236 98.7581 250.559 100.788 250.454 102.995Z" fill="#263445"/>
<path d="M154.56 243.096H110.33V209.5H154.56V243.096Z" fill="#F03F33"/>
<path d="M156.024 213.407H108.865V207.821H156.024V213.407Z" fill="#F36346"/>
<path d="M154.56 216.482H110.33V213.407H154.56V216.482Z" fill="#E82B2A"/>
<path d="M134.382 243.124H130.506V207.821H134.382V243.124Z" fill="white"/>
<path d="M130.506 216.279H134.382V243.124H130.506V216.279Z" fill="#ECE9E9"/>
<path d="M130.506 213.408H134.382V216.482H130.506V213.408Z" fill="#CFCDCB"/>
<path d="M173.947 216.373L133.682 198.072L147.582 167.488L187.847 185.789L173.947 216.373Z" fill="#573D9F"/>
<path d="M187.564 189.952L144.631 170.439L146.943 165.354L189.876 184.866L187.564 189.952Z" fill="#6454AF"/>
<path d="M184.961 192.146L144.695 173.846L145.967 171.048L186.233 189.348L184.961 192.146Z" fill="#4C3499"/>
<path d="M155.567 208.053L152.039 206.449L166.646 174.309L170.175 175.913L155.567 208.053Z" fill="white"/>
<path d="M163.147 182.009L166.676 183.612L155.567 208.052L152.039 206.448L163.147 182.009Z" fill="#ECE9E9"/>
<path d="M164.334 179.394L167.863 180.998L166.591 183.797L163.062 182.193L164.334 179.394Z" fill="#CFCDCB"/>
<path d="M131.676 267.586C131.676 270.842 129.036 273.481 125.78 273.481C122.524 273.481 119.885 270.842 119.885 267.586C119.885 264.33 122.524 261.69 125.78 261.69C129.036 261.69 131.676 264.33 131.676 267.586Z" fill="#263445"/>
<path d="M125.783 271.273C123.75 271.273 122.096 269.62 122.096 267.586C122.096 265.553 123.75 263.899 125.783 263.899C127.816 263.899 129.47 265.553 129.47 267.586C129.47 269.62 127.816 271.273 125.783 271.273Z" fill="#384F64"/>
<path d="M163.857 267.586C163.857 270.842 161.218 273.481 157.962 273.481C154.706 273.481 152.066 270.842 152.066 267.586C152.066 264.33 154.706 261.69 157.962 261.69C161.218 261.69 163.857 264.33 163.857 267.586Z" fill="#263445"/>
<path d="M157.959 271.273C155.926 271.273 154.271 269.62 154.271 267.586C154.271 265.553 155.926 263.899 157.959 263.899C159.992 263.899 161.645 265.553 161.645 267.586C161.645 269.62 159.992 271.273 157.959 271.273Z" fill="#384F64"/>
<path d="M185.163 201.496H103.908L102.852 193.916H187.274L185.163 201.496ZM181.014 216.394H105.981L104.327 204.492H184.328L181.014 216.394ZM176.864 231.296H108.059L106.4 219.392H180.177L176.864 231.296ZM175.678 235.55V235.555C175.651 235.62 175.626 235.683 175.606 235.752L173.553 243.124H109.706L108.477 234.294H176.028L175.678 235.55ZM203.625 185.675C203.413 185.376 203.211 185.067 203.027 184.746H190.902C190.22 184.746 189.621 185.203 189.442 185.861L188.061 190.918H101.131C100.698 190.918 100.285 191.107 100 191.433C99.7171 191.759 99.5865 192.194 99.6476 192.625L101.039 202.618C101.006 202.737 100.99 202.864 100.99 202.994C100.99 203.271 101.065 203.53 101.195 203.753L102.957 216.394L103.373 219.392L105.032 231.296L105.449 234.294L106.917 244.829C107.018 245.57 107.653 246.122 108.4 246.122H172.719L170.623 253.65C169.641 257.173 166.403 259.633 162.747 259.633H116.894C116.065 259.633 115.395 260.303 115.395 261.131C115.395 261.959 116.065 262.629 116.894 262.629H162.747C167.742 262.629 172.169 259.268 173.51 254.454L176.082 245.217V245.215L176.084 245.213C176.111 245.153 176.134 245.091 176.149 245.025L179.139 234.294L179.972 231.296L183.289 219.392L184.123 216.394L187.55 204.089L187.97 202.582V202.58L190.688 192.817L190.719 192.682L192.059 187.775H201.937C202.541 187.106 203.116 186.416 203.625 185.675Z" fill="#263445"/>
<path d="M203.026 184.745C203.212 185.067 203.413 185.375 203.625 185.675C203.115 186.416 202.541 187.106 201.936 187.773H197.527V184.745H203.026Z" fill="#573D9F"/>
<path d="M213.572 186.26C213.572 187.095 212.893 187.774 212.057 187.774H209.823C209.915 187.347 209.865 186.901 209.688 186.513C208.726 185.56 206.574 185.151 206.574 184.746H212.057C212.893 184.746 213.572 185.424 213.572 186.26Z" fill="#263445"/>
<path d="M213.571 186.26C213.571 187.095 212.892 187.773 212.057 187.773H209.823C209.915 187.346 209.865 186.9 209.688 186.512C208.726 185.56 206.574 185.15 206.574 184.745H212.057C212.892 184.745 213.571 185.423 213.571 186.26Z" fill="#573D9F"/>
<path d="M71.5546 185.522H56.707C54.919 185.522 53.4688 184.073 53.4688 182.284V167.436C53.4688 165.648 54.919 164.198 56.707 164.198H71.5546C73.3433 164.198 74.7928 165.648 74.7928 167.436V182.284C74.7928 184.073 73.3433 185.522 71.5546 185.522Z" fill="white"/>
<path d="M70.3575 173.359C70.3575 174.312 69.9966 175.265 69.2727 175.989L64.334 180.927L59.396 175.989C58.6721 175.265 58.3105 174.312 58.3105 173.359C58.3105 172.407 58.6721 171.453 59.394 170.731C60.7432 169.383 62.7982 169.626 64.334 171.906C65.8698 169.626 67.9248 169.383 69.274 170.731C69.9966 171.453 70.3575 172.407 70.3575 173.359Z" fill="#F03F33"/>
<path d="M114.644 89.6992H51.5986C50.3092 89.6992 49.2637 88.6537 49.2637 87.3643V78.037C49.2637 76.7476 50.3092 75.7021 51.5986 75.7021H114.644C115.934 75.7021 116.979 76.7476 116.979 78.037V87.3643C116.979 88.6537 115.934 89.6992 114.644 89.6992Z" fill="#573D9F"/>
<path d="M112.881 86.3896H106.332C105.947 86.3896 105.635 86.0776 105.635 85.6928V79.1444C105.635 78.7596 105.947 78.4476 106.332 78.4476H112.881C113.265 78.4476 113.577 78.7596 113.577 79.1444V85.6928C113.577 86.0776 113.265 86.3896 112.881 86.3896Z" fill="#7855B0"/>
<path d="M99.0397 79.9502H54.2793C53.9158 79.9502 53.6211 79.6555 53.6211 79.2914V79.1067C53.6211 78.7425 53.9158 78.4479 54.2793 78.4479H99.0397C99.4039 78.4479 99.6986 78.7425 99.6986 79.1067V79.2914C99.6986 79.6555 99.4039 79.9502 99.0397 79.9502Z" fill="#7855B0"/>
<path d="M99.0397 83.1709H54.2793C53.9158 83.1709 53.6211 82.8756 53.6211 82.5121V82.3268C53.6211 81.9632 53.9158 81.6679 54.2793 81.6679H99.0397C99.4039 81.6679 99.6986 81.9632 99.6986 82.3268V82.5121C99.6986 82.8756 99.4039 83.1709 99.0397 83.1709Z" fill="#7855B0"/>
<path d="M99.0397 86.3896H54.2793C53.9158 86.3896 53.6211 86.0943 53.6211 85.7308V85.5455C53.6211 85.182 53.9158 84.8867 54.2793 84.8867H99.0397C99.4039 84.8867 99.6986 85.182 99.6986 85.5455V85.7308C99.6986 86.0943 99.4039 86.3896 99.0397 86.3896Z" fill="#7855B0"/>
<path d="M114.982 110.242H51.9364C50.6471 110.242 49.6016 109.197 49.6016 107.907V98.5793C49.6016 97.29 50.6471 96.2451 51.9364 96.2451H114.982C116.272 96.2451 117.317 97.29 117.317 98.5793V107.907C117.317 109.197 116.272 110.242 114.982 110.242Z" fill="#F03F33"/>
<path d="M112.881 107.209H106.332C105.947 107.209 105.635 106.897 105.635 106.512V99.9637C105.635 99.5783 105.947 99.2669 106.332 99.2669H112.881C113.265 99.2669 113.577 99.5783 113.577 99.9637V106.512C113.577 106.897 113.265 107.209 112.881 107.209Z" fill="#F36346"/>
<path d="M99.0397 100.775H54.2793C53.9158 100.775 53.6211 100.481 53.6211 100.117V99.9319C53.6211 99.5677 53.9158 99.2731 54.2793 99.2731H99.0397C99.4039 99.2731 99.6986 99.5677 99.6986 99.9319V100.117C99.6986 100.481 99.4039 100.775 99.0397 100.775Z" fill="#F36346"/>
<path d="M99.0397 103.996H54.2793C53.9158 103.996 53.6211 103.701 53.6211 103.337V103.152C53.6211 102.788 53.9158 102.494 54.2793 102.494H99.0397C99.4039 102.494 99.6986 102.788 99.6986 103.152V103.337C99.6986 103.701 99.4039 103.996 99.0397 103.996Z" fill="#F36346"/>
<path d="M99.0397 107.216H54.2793C53.9158 107.216 53.6211 106.921 53.6211 106.557V106.372C53.6211 106.008 53.9158 105.713 54.2793 105.713H99.0397C99.4039 105.713 99.6986 106.008 99.6986 106.372V106.557C99.6986 106.921 99.4039 107.216 99.0397 107.216Z" fill="#F36346"/>
<path d="M249.857 42.6819C247.282 42.6819 245.187 44.7773 245.187 47.3527C245.187 49.9269 247.282 52.0222 249.857 52.0222C252.432 52.0222 254.528 49.9269 254.528 47.3527C254.528 44.7773 252.432 42.6819 249.857 42.6819ZM249.857 54.1572C246.106 54.1572 243.053 51.1042 243.053 47.3527C243.053 43.6 246.106 40.5481 249.857 40.5481C253.61 40.5481 256.662 43.6 256.662 47.3527C256.662 51.1042 253.61 54.1572 249.857 54.1572Z" fill="#573D9F"/>
<path d="M238.633 12.134C236.057 12.134 233.963 14.2294 233.963 16.8036C233.963 19.379 236.057 21.4744 238.633 21.4744C241.208 21.4744 243.302 19.379 243.302 16.8036C243.302 14.2294 241.208 12.134 238.633 12.134ZM238.633 23.6094C234.881 23.6094 231.828 20.5563 231.828 16.8036C231.828 13.0521 234.881 9.99905 238.633 9.99905C242.384 9.99905 245.437 13.0521 245.437 16.8036C245.437 20.5563 242.384 23.6094 238.633 23.6094Z" fill="#573D9F"/>
<path d="M265.32 72.7588C264.731 72.7588 264.252 72.2799 264.252 71.6907V66.9839C264.252 66.3934 264.731 65.9158 265.32 65.9158C265.908 65.9158 266.386 66.3934 266.386 66.9839V71.6907C266.386 72.2799 265.908 72.7588 265.32 72.7588Z" fill="#F03F33"/>
<path d="M265.32 81C264.731 81 264.252 80.5224 264.252 79.9319V75.2251C264.252 74.6358 264.731 74.157 265.32 74.157C265.908 74.157 266.386 74.6358 266.386 75.2251V79.9319C266.386 80.5224 265.908 81 265.32 81Z" fill="#F03F33"/>
<path d="M271.93 74.5283H267.7C267.111 74.5283 266.635 74.0507 266.635 73.4602C266.635 72.871 267.111 72.3933 267.7 72.3933H271.93C272.519 72.3933 272.997 72.871 272.997 73.4602C272.997 74.0507 272.519 74.5283 271.93 74.5283Z" fill="#F03F33"/>
<path d="M262.941 74.5283H258.713C258.123 74.5283 257.645 74.0507 257.645 73.4602C257.645 72.871 258.123 72.3933 258.713 72.3933H262.941C263.531 72.3933 264.009 72.871 264.009 73.4602C264.009 74.0507 263.531 74.5283 262.941 74.5283Z" fill="#F03F33"/>
<path d="M216.324 39.0273C215.733 39.0273 215.256 38.5485 215.256 37.9593V33.2513C215.256 32.662 215.733 32.1844 216.324 32.1844C216.913 32.1844 217.39 32.662 217.39 33.2513V37.9593C217.39 38.5485 216.913 39.0273 216.324 39.0273Z" fill="#F03F33"/>
<path d="M216.324 47.2637C215.733 47.2637 215.256 46.7848 215.256 46.1955V41.4888C215.256 40.8983 215.733 40.4207 216.324 40.4207C216.913 40.4207 217.39 40.8983 217.39 41.4888V46.1955C217.39 46.7848 216.913 47.2637 216.324 47.2637Z" fill="#F03F33"/>
<path d="M222.923 40.791H218.694C218.105 40.791 217.627 40.3134 217.627 39.7241C217.627 39.1349 218.105 38.656 218.694 38.656H222.923C223.512 38.656 223.99 39.1349 223.99 39.7241C223.99 40.3134 223.512 40.791 222.923 40.791Z" fill="#F03F33"/>
<path d="M213.95 40.791H209.722C209.133 40.791 208.654 40.3134 208.654 39.7241C208.654 39.1349 209.133 38.656 209.722 38.656H213.95C214.54 38.656 215.018 39.1349 215.018 39.7241C215.018 40.3134 214.54 40.791 213.95 40.791Z" fill="#F03F33"/>
<path d="M25.8338 153.027C24.453 153.027 23.3298 154.151 23.3298 155.531C23.3298 156.911 24.453 158.035 25.8338 158.035C27.2141 158.035 28.3373 156.911 28.3373 155.531C28.3373 154.151 27.2141 153.027 25.8338 153.027ZM25.8338 159.179C23.8222 159.179 22.1855 157.542 22.1855 155.531C22.1855 153.519 23.8222 151.882 25.8338 151.882C27.8449 151.882 29.4818 153.519 29.4818 155.531C29.4818 157.542 27.8449 159.179 25.8338 159.179Z" fill="#573D9F"/>
<path d="M34.6187 168.54C33.2382 168.54 32.115 169.664 32.115 171.044C32.115 172.424 33.2382 173.548 34.6187 173.548C35.9992 173.548 37.1224 172.424 37.1224 171.044C37.1224 169.664 35.9992 168.54 34.6187 168.54ZM34.6187 174.692C32.6071 174.692 30.9707 173.056 30.9707 171.044C30.9707 169.033 32.6071 167.396 34.6187 167.396C36.6301 167.396 38.2669 169.033 38.2669 171.044C38.2669 173.056 36.6301 174.692 34.6187 174.692Z" fill="#F03F33"/>
<path d="M41.627 186.213C41.311 186.213 41.0547 185.957 41.0547 185.641V183.117C41.0547 182.801 41.311 182.545 41.627 182.545C41.9429 182.545 42.1992 182.801 42.1992 183.117V185.641C42.1992 185.957 41.9429 186.213 41.627 186.213Z" fill="#573D9F"/>
<path d="M41.627 190.629C41.311 190.629 41.0547 190.373 41.0547 190.056V187.534C41.0547 187.217 41.311 186.961 41.627 186.961C41.9429 186.961 42.1992 187.217 42.1992 187.534V190.056C42.1992 190.373 41.9429 190.629 41.627 190.629Z" fill="#573D9F"/>
<path d="M45.1676 187.159H42.9007C42.5845 187.159 42.3281 186.903 42.3281 186.587C42.3281 186.271 42.5845 186.015 42.9007 186.015H45.1676C45.4835 186.015 45.7397 186.271 45.7397 186.587C45.7397 186.903 45.4835 187.159 45.1676 187.159Z" fill="#573D9F"/>
<path d="M40.3531 187.159H38.0862C37.7703 187.159 37.5137 186.903 37.5137 186.587C37.5137 186.271 37.7703 186.015 38.0862 186.015H40.3531C40.669 186.015 40.9252 186.271 40.9252 186.587C40.9252 186.903 40.669 187.159 40.3531 187.159Z" fill="#573D9F"/>
<path d="M15.361 168.127C15.0451 168.127 14.7891 167.872 14.7891 167.556V165.032C14.7891 164.716 15.0451 164.459 15.361 164.459C15.677 164.459 15.9333 164.716 15.9333 165.032V167.556C15.9333 167.872 15.677 168.127 15.361 168.127Z" fill="#F03F33"/>
<path d="M15.361 172.545C15.0451 172.545 14.7891 172.289 14.7891 171.973V169.449C14.7891 169.133 15.0451 168.876 15.361 168.876C15.677 168.876 15.9333 169.133 15.9333 169.449V171.973C15.9333 172.289 15.677 172.545 15.361 172.545Z" fill="#F03F33"/>
<path d="M18.902 169.075H16.6351C16.3189 169.075 16.0625 168.819 16.0625 168.503C16.0625 168.187 16.3189 167.931 16.6351 167.931H18.902C19.2179 167.931 19.474 168.187 19.474 168.503C19.474 168.819 19.2179 169.075 18.902 169.075Z" fill="#F03F33"/>
<path d="M14.0817 169.075H11.8147C11.4988 169.075 11.2422 168.819 11.2422 168.503C11.2422 168.187 11.4988 167.931 11.8147 167.931H14.0817C14.3976 167.931 14.6537 168.187 14.6537 168.503C14.6537 168.819 14.3976 169.075 14.0817 169.075Z" fill="#F03F33"/>
<path d="M125.991 65.1293C126.102 65.1293 126.157 65.1832 126.269 65.237C125.602 65.5064 124.936 66.2068 124.602 67.7152L123.38 68.0385C123.769 66.961 124.547 65.1293 125.991 65.1293ZM126.602 65.668C126.713 65.9913 126.824 66.3684 126.824 66.961C126.824 67.0149 126.824 67.0149 126.824 67.0687L125.213 67.4997C125.547 66.3684 126.102 65.8835 126.602 65.668ZM128.046 66.6378L127.324 66.8533C127.324 66.7994 127.324 66.7455 127.324 66.6916C127.324 66.2068 127.268 65.8297 127.157 65.5064C127.546 65.6142 127.879 66.099 128.046 66.6378ZM131.656 67.4997C131.656 67.4459 131.6 67.392 131.545 67.392C131.434 67.392 130.267 67.2842 130.267 67.2842C130.267 67.2842 129.434 66.4761 129.323 66.4223C129.212 66.3145 129.046 66.3684 128.99 66.3684C128.99 66.3684 128.823 66.4223 128.546 66.53C128.268 65.7758 127.768 65.0754 126.935 65.0754H126.879C126.657 64.7522 126.324 64.6444 126.046 64.6444C124.047 64.5906 123.103 67.0149 122.77 68.254C122.325 68.3617 121.881 68.5233 121.381 68.685C120.937 68.7927 120.937 68.8466 120.881 69.2237C120.826 69.4931 119.715 78.0051 119.715 78.0051L128.546 79.6213L133.322 78.5977C133.322 78.5977 131.656 67.6075 131.656 67.4997Z" fill="#8DB849"/>
<path d="M131.49 67.3908C131.435 67.3908 130.269 67.283 130.269 67.283C130.269 67.283 129.436 66.4749 129.324 66.4211C129.269 66.3672 129.269 66.3672 129.213 66.3672L128.547 79.6201L133.323 78.5965C133.323 78.5965 131.657 67.6063 131.657 67.4985C131.657 67.4447 131.546 67.3908 131.49 67.3908Z" fill="#5A863E"/>
<path d="M126.933 69.9775L126.322 71.7015C126.322 71.7015 125.822 71.4321 125.156 71.4321C124.211 71.4321 124.156 71.9708 124.156 72.1324C124.156 72.8867 126.266 73.2099 126.266 75.0416C126.266 76.4962 125.322 77.412 124.045 77.412C122.545 77.412 121.768 76.4962 121.768 76.4962L122.156 75.2032C122.156 75.2032 122.934 75.8497 123.6 75.8497C124.045 75.8497 124.211 75.5265 124.211 75.2571C124.211 74.2335 122.49 74.1796 122.49 72.5096C122.49 71.1088 123.545 69.762 125.6 69.762C126.544 69.7081 126.933 69.9775 126.933 69.9775Z" fill="#FFFFFE"/>
<path d="M138.933 73.1575C138.433 72.8882 138.211 72.6727 138.211 72.4033C138.211 72.0262 138.544 71.8107 139.099 71.8107C139.71 71.8107 140.266 72.0801 140.266 72.0801L140.71 70.7871C140.71 70.7871 140.321 70.4639 139.155 70.4639C137.489 70.4639 136.378 71.3797 136.378 72.6727C136.378 73.4269 136.933 73.9656 137.6 74.3428C138.155 74.666 138.377 74.8815 138.377 75.2047C138.377 75.528 138.1 75.8512 137.544 75.8512C136.767 75.8512 135.989 75.4741 135.989 75.4741L135.545 76.7671C135.545 76.7671 136.211 77.198 137.378 77.198C139.044 77.198 140.266 76.3899 140.266 74.9354C140.266 74.1273 139.655 73.5347 138.933 73.1575ZM145.653 70.41C144.82 70.41 144.154 70.7871 143.654 71.3797L144.376 67.7163H142.487L140.655 77.0364H142.543L143.154 73.8579C143.376 72.6727 144.043 71.9184 144.653 71.9184C145.098 71.9184 145.264 72.1878 145.264 72.6188C145.264 72.8882 145.264 73.1575 145.209 73.4269L144.487 77.0903H146.375L147.097 73.3192C147.153 72.942 147.208 72.4572 147.208 72.1339C147.208 71.0565 146.653 70.41 145.653 70.41ZM150.485 75.7435C149.819 75.7435 149.597 75.2047 149.597 74.5582C149.597 73.5346 150.152 71.8107 151.152 71.8107C151.818 71.8107 152.04 72.3494 152.04 72.8882C152.04 74.0734 151.485 75.7435 150.485 75.7435ZM151.429 70.41C149.152 70.41 147.653 72.4033 147.653 74.6121C147.653 76.0128 148.541 77.1442 150.263 77.1442C152.485 77.1442 153.984 75.2047 153.984 72.942C153.984 71.6491 153.207 70.41 151.429 70.41ZM156.983 75.7973C156.483 75.7973 156.206 75.528 156.206 75.528L156.539 73.804C156.761 72.6727 157.372 71.9184 158.039 71.9184C158.594 71.9184 158.816 72.4572 158.816 72.942C158.761 74.1273 158.039 75.7973 156.983 75.7973ZM158.816 70.41C157.539 70.41 156.817 71.4875 156.817 71.4875L156.928 70.5177H155.262C155.206 71.1642 155.039 72.1878 154.873 72.942L153.54 79.6224H155.428L155.928 76.9287H155.984C155.984 76.9287 156.372 77.1442 157.094 77.1442C159.316 77.1442 160.76 74.9354 160.76 72.7265C160.76 71.5413 160.205 70.41 158.816 70.41ZM163.426 67.8241C162.815 67.8241 162.371 68.3089 162.371 68.9015C162.371 69.4403 162.704 69.8174 163.259 69.8174C163.87 69.8174 164.37 69.4403 164.37 68.7399C164.37 68.2012 163.981 67.8241 163.426 67.8241ZM160.816 77.0364H162.704L163.981 70.5716H162.093L160.816 77.0364ZM168.758 70.5716H167.425L167.48 70.2484C167.591 69.6019 167.98 69.0631 168.591 69.0631C168.924 69.0631 169.202 69.1709 169.202 69.1709L169.591 67.7163C169.591 67.7163 169.258 67.5547 168.591 67.5547C167.925 67.5547 167.258 67.7163 166.758 68.1473C166.092 68.686 165.814 69.4403 165.648 70.1945L165.592 70.5177H164.703L164.426 71.9184H165.314L164.315 77.0364H166.203L167.203 71.9184H168.48L168.758 70.5716ZM173.257 70.5716C173.257 70.5716 172.09 73.4269 171.535 74.9892C171.479 74.5044 171.09 70.5716 171.09 70.5716H169.091L170.202 76.4977C170.202 76.6054 170.202 76.7132 170.146 76.8209C169.924 77.2519 169.535 77.629 169.147 77.8984C168.813 78.1678 168.369 78.3294 168.091 78.4371L168.591 79.9995C168.98 79.9456 169.758 79.6224 170.424 79.0297C171.257 78.2755 172.09 77.0364 172.868 75.4202L175.145 70.6255L173.257 70.5716Z" fill="#1A1919"/>
</svg>
