<svg width="285" height="285" viewBox="0 0 285 285" fill="none" xmlns="http://www.w3.org/2000/svg">
<rect width="285" height="285" fill="#DAEAFE"/>
<path d="M273.847 245.311H252.219V245.474H273.847V245.311Z" fill="white"/>
<path d="M196.347 247.087H190.672V247.25H196.347V247.087Z" fill="white"/>
<path d="M251.563 239.25H239.031V239.414H251.563V239.25Z" fill="white"/>
<path d="M42.5092 240.348H14.3047V240.511H42.5092V240.348Z" fill="white"/>
<path d="M52.4618 240.348H48.3281V240.511H52.4618V240.348Z" fill="white"/>
<path d="M127.075 243.103H65.8984V243.267H127.075V243.103Z" fill="white"/>
<path d="M82.2626 176.109L73.2181 183.671L86.1025 202.4L96.3943 196.653C101.911 201.952 108.378 206.161 115.456 209.061L114.411 220.77L136.778 224.89L139.984 213.58C147.62 213.405 155.153 211.788 162.187 208.813L169.75 217.857L188.479 204.973L182.745 194.707C188.045 189.194 192.254 182.729 195.153 175.652L206.855 176.696L210.989 154.343L199.678 151.13C199.499 143.495 197.882 135.963 194.911 128.927L203.955 121.365L191.071 102.642L180.773 108.383C175.258 103.085 168.793 98.8752 161.717 95.975L162.762 84.2661L140.409 80.1389L137.202 91.4429C129.568 91.6245 122.035 93.2417 114.999 96.2101L107.391 87.1264L88.6754 100.017L94.4156 110.309C89.1177 115.826 84.9082 122.293 82.0079 129.371L70.299 128.326L66.1719 150.68L77.4759 153.886C77.6573 161.529 79.2814 169.069 82.2626 176.109ZM108.325 146.899C109.431 140.914 112.287 135.392 116.532 131.031C120.777 126.669 126.219 123.664 132.172 122.396C138.124 121.128 144.319 121.654 149.972 123.906C155.626 126.159 160.485 130.037 163.934 135.051C167.384 140.065 169.269 145.989 169.352 152.074C169.434 158.16 167.71 164.133 164.398 169.239C161.086 174.344 156.334 178.353 150.744 180.758C145.153 183.163 138.975 183.856 132.99 182.75C124.965 181.267 117.858 176.656 113.233 169.933C108.607 163.209 106.842 154.924 108.325 146.899Z" fill="white"/>
<path d="M233.015 164.557L240.081 165.863L241.093 162.291C243.509 162.232 245.893 161.721 248.12 160.782L250.51 163.642L256.433 159.567L254.618 156.302C256.293 154.561 257.622 152.518 258.536 150.281L262.238 150.608L263.545 143.549L259.966 142.53C259.913 140.113 259.401 137.729 258.457 135.503L261.318 133.113L257.243 127.197L253.978 129.012C252.233 127.341 250.191 126.012 247.957 125.094L248.283 121.398L241.217 120.092L240.205 123.664C237.789 123.723 235.406 124.234 233.178 125.172L230.808 122.312L224.885 126.387L226.7 129.652C225.025 131.393 223.696 133.436 222.782 135.673L219.08 135.346L217.773 142.406L221.346 143.424C221.402 145.841 221.914 148.225 222.854 150.451L219.994 152.841L224.069 158.758L227.334 156.942C229.077 158.617 231.123 159.947 233.361 160.86L233.015 164.557ZM231.089 141.211C231.437 139.318 232.34 137.571 233.682 136.19C235.023 134.81 236.744 133.859 238.627 133.457C240.509 133.056 242.469 133.221 244.257 133.933C246.045 134.645 247.582 135.871 248.674 137.457C249.765 139.043 250.361 140.916 250.387 142.841C250.413 144.766 249.868 146.655 248.82 148.27C247.773 149.884 246.269 151.152 244.501 151.912C242.733 152.673 240.779 152.891 238.886 152.541C236.351 152.07 234.106 150.612 232.645 148.488C231.183 146.364 230.623 143.747 231.089 141.211Z" fill="white"/>
<path d="M34.7085 184.677L40.0895 185.676L40.8666 182.953C42.7054 182.906 44.5193 182.516 46.215 181.803L48.037 183.978L52.5494 180.876L51.165 178.381C52.4385 177.059 53.4511 175.508 54.1493 173.81L56.9705 174.058L57.9631 168.677L55.2399 167.933C55.1994 166.091 54.8094 164.274 54.0906 162.578L56.2717 160.756L53.1633 156.25L50.6883 157.634C49.3645 156.361 47.814 155.347 46.117 154.644L46.3717 151.829L40.9842 150.83L40.2136 153.553C38.3727 153.6 36.5567 153.99 34.8587 154.702L33.0433 152.528L28.5308 155.63L29.9153 158.111C28.6411 159.433 27.6285 160.984 26.9309 162.682L24.1098 162.434L23.1172 167.815L25.8207 168.586C25.8613 170.427 26.2513 172.245 26.9701 173.941L24.789 175.769L27.8909 180.275L30.3724 178.897C31.697 180.168 33.2473 181.18 34.9436 181.882L34.7085 184.677ZM33.2457 166.894C33.5129 165.455 34.2009 164.126 35.2228 163.077C36.2448 162.029 37.5547 161.306 38.9871 161.002C40.4195 160.697 41.91 160.824 43.2702 161.367C44.6304 161.909 45.7993 162.843 46.629 164.05C47.4587 165.256 47.912 166.682 47.9316 168.146C47.9512 169.61 47.5363 171.048 46.7392 172.276C45.9422 173.505 44.7988 174.469 43.4536 175.048C42.1084 175.627 40.6219 175.794 39.1818 175.528C37.2503 175.169 35.5401 174.058 34.427 172.44C33.314 170.821 32.8891 168.826 33.2457 166.894Z" fill="white"/>
<path d="M130.801 64.7535L134.876 65.5044L135.471 63.4474C136.866 63.4195 138.242 63.1246 139.526 62.5789L140.904 64.231L144.313 61.8801L143.268 60.0059C144.232 58.9999 144.999 57.8214 145.527 56.5318L147.656 56.7211L148.407 52.6527L146.35 52.065C146.316 50.673 146.021 49.2998 145.482 48.0162L147.127 46.6383L144.783 43.2295L142.909 44.2743C141.903 43.3098 140.724 42.5432 139.435 42.0148L139.624 39.8859L135.549 39.1284L134.968 41.192C133.575 41.2193 132.2 41.5142 130.919 42.0605L129.541 40.4084L126.126 42.7593L127.177 44.6335C126.211 45.638 125.444 46.8169 124.918 48.1076L122.782 47.9183L122.031 51.9866L124.088 52.5744C124.121 53.9665 124.416 55.34 124.957 56.6232L123.311 58.0011L125.662 61.4099L127.536 60.3651C128.539 61.3305 129.716 62.0972 131.004 62.6246L130.801 64.7535ZM129.698 51.2944C129.9 50.2049 130.42 49.1997 131.193 48.4059C131.966 47.6121 132.957 47.0652 134.041 46.8345C135.124 46.6038 136.252 46.6996 137.281 47.1097C138.311 47.5199 139.195 48.226 139.823 49.1389C140.451 50.0517 140.795 51.1302 140.81 52.2382C140.825 53.3461 140.511 54.4336 139.908 55.3632C139.305 56.2929 138.441 57.0229 137.423 57.4611C136.405 57.8992 135.28 58.0258 134.191 57.8248C132.731 57.5549 131.439 56.7171 130.596 55.4953C129.754 54.2735 129.431 52.7674 129.698 51.3075V51.2944Z" fill="white"/>
<path d="M198.483 97.5293L201.199 98.0256L201.585 96.6542C202.514 96.6321 203.432 96.4349 204.288 96.073L205.209 97.1766L207.482 95.6094L206.783 94.3555C207.427 93.6868 207.938 92.9025 208.291 92.0438L209.715 92.1679L210.218 89.4513L208.84 89.0594C208.819 88.1323 208.624 87.2174 208.265 86.3624L209.362 85.4416L207.795 83.1691L206.548 83.8678C205.875 83.2252 205.089 82.7136 204.229 82.3593L204.353 80.9357L201.637 80.4329L201.252 81.8108C200.322 81.8306 199.405 82.0256 198.548 82.3854L197.627 81.2883L195.355 82.8556L196.053 84.1029C195.411 84.7751 194.899 85.5613 194.545 86.4212L193.121 86.2971L192.625 89.0072L193.996 89.399C194.015 90.3291 194.213 91.2469 194.578 92.1026L193.474 93.0168L195.041 95.2959L196.295 94.5972C196.964 95.2411 197.748 95.7529 198.607 96.1057L198.483 97.5293ZM197.745 88.5501C197.879 87.8219 198.226 87.1499 198.741 86.619C199.257 86.088 199.919 85.7221 200.643 85.5674C201.367 85.4128 202.121 85.4764 202.809 85.7501C203.497 86.0239 204.088 86.4956 204.508 87.1055C204.927 87.7154 205.157 88.436 205.167 89.1763C205.176 89.9166 204.967 90.6432 204.564 91.2642C204.16 91.8851 203.582 92.3726 202.902 92.6648C202.222 92.957 201.47 93.0409 200.742 92.9058C199.768 92.7249 198.904 92.1646 198.342 91.348C197.78 90.5313 197.566 89.5251 197.745 88.5501Z" fill="white"/>
<path d="M73.2691 64.7991L75.9857 65.302L76.371 63.9306C77.3003 63.9053 78.2169 63.7082 79.0746 63.3494L79.9953 64.4465L82.2679 62.8792L81.5691 61.6319C82.2131 60.9607 82.7249 60.1743 83.0777 59.3136L84.5013 59.4442L85.0041 56.7276L83.6262 56.3358C83.6057 55.4066 83.4108 54.4895 83.0515 53.6322L84.1486 52.718L82.5813 50.4389L81.3275 51.1377C80.6602 50.4936 79.8754 49.9837 79.0158 49.6357L79.1399 48.2121L76.4232 47.7092L76.0445 49.0806C75.1148 49.1027 74.1976 49.2999 73.3409 49.6618L72.4201 48.5647L70.1672 50.1255L70.8659 51.3793C70.222 52.0504 69.7102 52.8369 69.3574 53.6975L67.9338 53.5669L67.4375 56.2836L68.8089 56.6754C68.8278 57.6033 69.0251 58.519 69.3901 59.3724L68.2864 60.2932L69.8537 62.5723L71.1075 61.8735C71.7766 62.5153 72.561 63.0249 73.4193 63.3755L73.2691 64.7991ZM72.5312 55.8264C72.665 55.0983 73.0119 54.4262 73.5279 53.8953C74.0438 53.3644 74.7057 52.9984 75.4297 52.8438C76.1537 52.6891 76.9073 52.7527 77.5951 53.0265C78.283 53.3003 78.8742 53.772 79.2939 54.3818C79.7136 54.9917 79.9429 55.7124 79.9529 56.4527C79.9629 57.1929 79.753 57.9195 79.3499 58.5405C78.9468 59.1615 78.3686 59.6489 77.6883 59.9412C77.0081 60.2334 76.2565 60.3173 75.5286 60.1822C74.5539 60.0013 73.6908 59.441 73.1288 58.6244C72.5668 57.8077 72.3519 56.8014 72.5312 55.8264Z" fill="white"/>
<path d="M193.989 209.57C194.024 211.192 194.367 212.792 195.001 214.285L193.081 215.892L195.817 219.856L197.999 218.641C199.17 219.757 200.542 220.644 202.041 221.253L201.819 223.735L206.56 224.61L207.213 222.213C208.832 222.171 210.428 221.828 211.921 221.201L213.528 223.114L217.498 220.385L216.31 218.216C217.427 217.046 218.313 215.674 218.922 214.174L221.403 214.396L222.318 209.662L219.921 209.009C219.886 207.387 219.543 205.787 218.909 204.294L220.829 202.694L218.099 198.723L215.885 199.932C214.718 198.813 213.348 197.926 211.849 197.319L212.065 194.831L207.33 193.956L206.677 196.353C205.057 196.395 203.458 196.738 201.963 197.365L200.356 195.452L196.386 198.181L197.607 200.363C196.49 201.534 195.603 202.905 194.995 204.405L192.513 204.183L191.625 208.891L193.989 209.57ZM200.519 208.094C200.752 206.823 201.357 205.649 202.257 204.722C203.157 203.794 204.313 203.155 205.577 202.884C206.841 202.614 208.157 202.725 209.358 203.202C210.559 203.68 211.591 204.504 212.323 205.569C213.056 206.634 213.456 207.892 213.473 209.185C213.49 210.477 213.122 211.746 212.418 212.83C211.713 213.913 210.703 214.763 209.515 215.273C208.327 215.782 207.014 215.927 205.744 215.689C204.046 215.37 202.545 214.392 201.567 212.969C200.589 211.546 200.215 209.793 200.526 208.094H200.519Z" fill="white"/>
<path d="M235.011 181.451L227.717 184.121L235.011 186.773V189.483L224.562 185.519V182.672L235.011 178.708V181.451Z" fill="white"/>
<path d="M242.862 173.34H245.912L238.682 193.982H235.633L242.862 173.34Z" fill="white"/>
<path d="M256.738 182.698V185.565L246.289 189.529V186.793L253.583 184.141L246.289 181.47V178.754L256.738 182.698Z" fill="white"/>
<path d="M53.7302 216.309C54.7751 216.623 55.2583 217.282 55.2583 218.856V222.494C55.2278 222.72 55.2495 222.95 55.3217 223.166C55.3938 223.383 55.5146 223.58 55.6747 223.743C55.8348 223.905 56.03 224.029 56.2453 224.105C56.4607 224.18 56.6904 224.205 56.917 224.178H57.3284V226.954H56.0224C53.1751 226.954 51.7189 225.498 51.7189 222.879V218.765C51.7189 218.033 51.3336 217.694 50.7197 217.694H49.9688V214.951H50.7197C51.3336 214.951 51.7189 214.612 51.7189 213.88V209.727C51.7189 207.115 53.1751 205.658 56.0224 205.658H57.3284V208.421H56.917C56.6904 208.394 56.4607 208.419 56.2453 208.495C56.03 208.57 55.8348 208.694 55.6747 208.857C55.5146 209.019 55.3938 209.216 55.3217 209.433C55.2495 209.649 55.2278 209.879 55.2583 210.106V213.743C55.2583 215.33 54.7751 215.989 53.7302 216.309Z" fill="white"/>
<path d="M71.8415 214.951V217.727H71.0905C70.9496 217.714 70.8076 217.734 70.6754 217.784C70.5432 217.835 70.4241 217.914 70.3272 218.018C70.2304 218.121 70.1582 218.245 70.1162 218.38C70.0742 218.515 70.0635 218.658 70.0848 218.798V222.912C70.0848 225.524 68.6286 226.987 65.7879 226.987H64.4818V224.211H64.8932C65.1198 224.238 65.3496 224.213 65.5649 224.137C65.7803 224.062 65.9755 223.938 66.1356 223.775C66.2957 223.613 66.4164 223.416 66.4886 223.199C66.5608 222.983 66.5824 222.753 66.5519 222.526V218.869C66.5519 217.296 67.0286 216.636 68.0735 216.323C67.0286 216.003 66.5519 215.343 66.5519 213.769V210.119C66.5851 209.89 66.5649 209.657 66.493 209.438C66.4211 209.219 66.2995 209.019 66.1376 208.855C65.9757 208.69 65.7779 208.566 65.5598 208.49C65.3416 208.415 65.109 208.391 64.8802 208.421H64.4688V205.646H65.7748C68.6155 205.646 70.0718 207.102 70.0718 209.714V213.835C70.0504 213.974 70.0612 214.117 70.1032 214.252C70.1452 214.388 70.2173 214.511 70.3142 214.615C70.4111 214.718 70.5301 214.798 70.6623 214.848C70.7945 214.898 70.9365 214.918 71.0774 214.906L71.8415 214.951Z" fill="white"/>
<path d="M98.9375 158.549L101.079 155.976C101.987 157.19 102.993 157.811 104.181 157.811C105.736 157.811 106.545 156.877 106.545 155.042V147.101H100.668V143.999H110.379V154.826C110.379 158.953 108.302 160.984 104.364 160.984C103.333 161.023 102.307 160.824 101.366 160.401C100.425 159.979 99.5938 159.345 98.9375 158.549Z" fill="#407BFF" fill-opacity="0.2"/>
<path d="M112.703 159.502L113.918 156.831C115.267 157.635 116.807 158.063 118.378 158.072C120.095 158.072 120.742 157.621 120.742 156.903C120.742 154.807 112.99 156.949 112.99 151.822C112.99 149.387 115.185 147.669 118.927 147.669C120.641 147.636 122.338 148.022 123.87 148.792L122.629 151.444C121.501 150.804 120.224 150.473 118.927 150.484C117.261 150.484 116.543 151.013 116.543 151.679C116.543 153.873 124.294 151.751 124.294 156.805C124.294 159.195 122.081 160.887 118.234 160.887C116.301 160.919 114.393 160.442 112.703 159.502Z" fill="#407BFF" fill-opacity="0.2"/>
<path d="M143.304 264.294C213.233 264.294 269.921 260.985 269.921 256.902C269.921 252.819 213.233 249.51 143.304 249.51C73.3757 249.51 16.6875 252.819 16.6875 256.902C16.6875 260.985 73.3757 264.294 143.304 264.294Z" fill="white"/>
<path d="M192.892 45.8218H173.412C172.593 45.8218 171.93 46.4855 171.93 47.3042V66.7842C171.93 67.6029 172.593 68.2665 173.412 68.2665H192.892C193.711 68.2665 194.374 67.6029 194.374 66.7842V47.3042C194.374 46.4855 193.711 45.8218 192.892 45.8218Z" fill="#407BFF"/>
<g opacity="0.4">
<path d="M192.9 45.8218H173.42C172.601 45.8218 171.938 46.4855 171.938 47.3042V66.7842C171.938 67.6029 172.601 68.2665 173.42 68.2665H192.9C193.719 68.2665 194.382 67.6029 194.382 66.7842V47.3042C194.382 46.4855 193.719 45.8218 192.9 45.8218Z" fill="white"/>
</g>
<path d="M180.142 55.859L176.224 57.2892L180.142 58.7063V60.1821L174.578 58.0598V56.5447L180.142 54.4224V55.859Z" fill="white"/>
<path d="M184.327 51.5359H185.953L182.087 62.5526H180.461L184.327 51.5359Z" fill="white"/>
<path d="M191.728 56.5317V58.0467L186.164 60.1821V58.7193L190.082 57.3022L186.164 55.8721V54.4224L191.728 56.5317Z" fill="white"/>
<path d="M176.877 72.3676V77.8139H175.617V75.574H173.135V77.8139H171.875V72.3611H173.135V74.5488H175.617V72.4003L176.877 72.3676Z" fill="#407BFF"/>
<path d="M179.305 73.3929H177.555V72.3677H182.309V73.3929H180.565V77.814H179.305V73.3929Z" fill="#407BFF"/>
<path d="M187.959 77.8139V74.5488L186.353 77.2458H185.758L184.159 74.6336V77.8139H182.977V72.3611H184.021L186.059 75.7503L188.07 72.3611H189.109V77.8139H187.959Z" fill="#407BFF"/>
<path d="M190.438 72.3677H191.698V76.7887H194.434V77.814H190.438V72.3677Z" fill="#407BFF"/>
<path d="M240.9 57.7854H221.42C220.601 57.7854 219.938 58.4491 219.938 59.2678V78.7478C219.938 79.5665 220.601 80.2302 221.42 80.2302H240.9C241.719 80.2302 242.382 79.5665 242.382 78.7478V59.2678C242.382 58.4491 241.719 57.7854 240.9 57.7854Z" fill="#407BFF"/>
<g opacity="0.4">
<path d="M240.892 57.7854H221.412C220.593 57.7854 219.93 58.4491 219.93 59.2678V78.7478C219.93 79.5665 220.593 80.2302 221.412 80.2302H240.892C241.711 80.2302 242.374 79.5665 242.374 78.7478V59.2678C242.374 58.4491 241.711 57.7854 240.892 57.7854Z" fill="white"/>
</g>
<path d="M227.476 69.0046C228.011 69.1678 228.26 69.5074 228.26 70.3106V72.1849C228.245 72.301 228.257 72.419 228.294 72.5298C228.332 72.6406 228.395 72.7414 228.477 72.8245C228.56 72.9076 228.66 72.9708 228.77 73.0093C228.881 73.0478 228.999 73.0607 229.115 73.0469H229.324V74.477H228.671C227.208 74.477 226.464 73.726 226.464 72.3808V70.2649C226.474 70.1934 226.467 70.1205 226.446 70.0517C226.424 69.9828 226.387 69.9198 226.337 69.8671C226.288 69.8145 226.227 69.7736 226.16 69.7476C226.092 69.7215 226.02 69.7108 225.948 69.7164H225.562V68.2863H225.948C226.02 68.2918 226.092 68.2812 226.16 68.2551C226.227 68.229 226.288 68.1881 226.337 68.1355C226.387 68.0829 226.424 68.0198 226.446 67.951C226.467 67.8821 226.474 67.8093 226.464 67.7377V65.6219C226.464 64.2766 227.208 63.5256 228.671 63.5256H229.324V64.9558H229.115C228.999 64.942 228.881 64.9548 228.77 64.9933C228.66 65.0319 228.56 65.0951 228.477 65.1782C228.395 65.2612 228.332 65.362 228.294 65.4729C228.257 65.5837 228.245 65.7016 228.26 65.8178V67.692C228.26 68.5017 228.011 68.8413 227.476 69.0046Z" fill="white"/>
<path d="M236.777 68.2927V69.7228H236.392C236.32 69.7172 236.247 69.7279 236.18 69.754C236.113 69.78 236.052 69.8209 236.003 69.8735C235.953 69.9262 235.916 69.9892 235.894 70.0581C235.872 70.1269 235.866 70.1998 235.876 70.2713V72.3872C235.876 73.7324 235.125 74.4834 233.669 74.4834H233.016V73.0533H233.225C233.341 73.0671 233.459 73.0543 233.569 73.0157C233.68 72.9772 233.78 72.914 233.863 72.8309C233.945 72.7478 234.007 72.647 234.045 72.5362C234.083 72.4254 234.095 72.3074 234.08 72.1913V70.3171C234.08 69.5073 234.322 69.1677 234.864 69.011C234.322 68.8477 234.08 68.5082 234.08 67.7049V65.8307C234.095 65.7146 234.083 65.5966 234.045 65.4858C234.007 65.375 233.945 65.2742 233.863 65.1911C233.78 65.108 233.68 65.0448 233.569 65.0063C233.459 64.9677 233.341 64.9549 233.225 64.9687H233.016V63.5386H233.669C235.125 63.5386 235.876 64.2896 235.876 65.6348V67.7506C235.866 67.8222 235.872 67.8951 235.894 67.9639C235.916 68.0328 235.953 68.0958 236.003 68.1485C236.052 68.2011 236.113 68.2419 236.18 68.268C236.247 68.2941 236.32 68.3048 236.392 68.2992L236.777 68.2927Z" fill="white"/>
<path d="M223.633 87.1395C223.665 86.5477 223.872 85.9788 224.227 85.5042C224.582 85.0297 225.069 84.6707 225.627 84.4724C226.186 84.2742 226.79 84.2455 227.365 84.3901C227.94 84.5346 228.459 84.846 228.857 85.2848L228.047 86.0358C227.882 85.8309 227.674 85.6658 227.436 85.5528C227.199 85.4397 226.939 85.3816 226.676 85.3828C226.438 85.3682 226.199 85.4026 225.974 85.4838C225.75 85.565 225.544 85.6913 225.37 85.8549C225.196 86.0186 225.057 86.2161 224.963 86.4353C224.868 86.6545 224.819 86.8908 224.819 87.1297C224.819 87.3685 224.868 87.6048 224.963 87.824C225.057 88.0433 225.196 88.2408 225.37 88.4044C225.544 88.5681 225.75 88.6944 225.974 88.7755C226.199 88.8567 226.438 88.8911 226.676 88.8765C226.939 88.8772 227.199 88.8189 227.436 88.7059C227.673 88.5929 227.882 88.428 228.047 88.2235L228.857 88.968C228.461 89.4097 227.942 89.7237 227.367 89.8704C226.792 90.0171 226.186 89.9897 225.627 89.7918C225.067 89.5938 224.579 89.2342 224.224 88.7586C223.869 88.2829 223.663 87.7126 223.633 87.1199V87.1395Z" fill="#407BFF"/>
<path d="M229.195 89.3337L229.62 88.3803C230.151 88.7432 230.779 88.9408 231.422 88.9484C232.167 88.9484 232.474 88.7002 232.474 88.3672C232.474 87.3419 229.3 88.0472 229.3 86.0228C229.3 85.0955 230.051 84.3184 231.598 84.3184C232.262 84.3073 232.916 84.4741 233.492 84.8016L233.107 85.7616C232.647 85.4922 232.125 85.3461 231.592 85.3371C230.847 85.3371 230.554 85.6114 230.554 85.9575C230.554 86.9632 233.727 86.271 233.727 88.2692C233.727 89.1835 232.97 89.9606 231.416 89.9606C230.629 89.9792 229.856 89.7608 229.195 89.3337Z" fill="#407BFF"/>
<path d="M234.172 89.3336L234.603 88.3802C235.133 88.746 235.761 88.9439 236.405 88.9483C237.15 88.9483 237.457 88.7002 237.457 88.3671C237.457 87.3419 234.283 88.0471 234.283 86.0227C234.283 85.0954 235.034 84.3183 236.582 84.3183C237.245 84.3081 237.898 84.4749 238.475 84.8015L238.084 85.7615C237.626 85.4916 237.106 85.3453 236.575 85.337C235.824 85.337 235.537 85.6113 235.537 85.9574C235.537 86.9631 238.71 86.2709 238.71 88.2692C238.71 89.1834 237.953 89.9605 236.392 89.9605C235.606 89.9791 234.832 89.7607 234.172 89.3336Z" fill="#407BFF"/>
<path d="M157.05 55.5977H77.0469V113.509H157.05V55.5977Z" fill="black"/>
<path opacity="0.9" d="M157.05 55.5977H77.0469V113.509H157.05V55.5977Z" fill="white"/>
<path opacity="0.1" d="M88.1876 55.5977H77.0469V113.509H88.1876V55.5977Z" fill="black"/>
<path d="M157.05 55.5977H77.0469V61.0113H157.05V55.5977Z" fill="#407BFF"/>
<g opacity="0.2">
<path d="M109.152 69.1808H94.5827C94.4095 69.1808 94.2434 69.112 94.121 68.9896C93.9985 68.8671 93.9297 68.701 93.9297 68.5278C93.9297 68.3546 93.9985 68.1885 94.121 68.066C94.2434 67.9436 94.4095 67.8748 94.5827 67.8748H109.152C109.325 67.8748 109.491 67.9436 109.614 68.066C109.736 68.1885 109.805 68.3546 109.805 68.5278C109.805 68.701 109.736 68.8671 109.614 68.9896C109.491 69.112 109.325 69.1808 109.152 69.1808Z" fill="black"/>
<path d="M141.345 69.1808H113.036C112.863 69.1808 112.697 69.112 112.574 68.9896C112.452 68.8671 112.383 68.701 112.383 68.5278C112.383 68.3546 112.452 68.1885 112.574 68.066C112.697 67.9436 112.863 67.8748 113.036 67.8748H141.345C141.518 67.8748 141.684 67.9436 141.807 68.066C141.929 68.1885 141.998 68.3546 141.998 68.5278C141.998 68.701 141.929 68.8671 141.807 68.9896C141.684 69.112 141.518 69.1808 141.345 69.1808Z" fill="black"/>
<path d="M134.602 73.4452H96.5437C96.3705 73.4452 96.2044 73.3764 96.0819 73.254C95.9594 73.1315 95.8906 72.9654 95.8906 72.7922C95.8906 72.619 95.9594 72.4529 96.0819 72.3304C96.2044 72.208 96.3705 72.1392 96.5437 72.1392H134.602C134.776 72.1392 134.942 72.208 135.064 72.3304C135.187 72.4529 135.255 72.619 135.255 72.7922C135.255 72.9654 135.187 73.1315 135.064 73.254C134.942 73.3764 134.776 73.4452 134.602 73.4452Z" fill="black"/>
<path d="M119.098 77.703H94.5827C94.4095 77.703 94.2434 77.6342 94.121 77.5118C93.9985 77.3893 93.9297 77.2232 93.9297 77.05C93.9297 76.8768 93.9985 76.7107 94.121 76.5882C94.2434 76.4658 94.4095 76.397 94.5827 76.397H119.098C119.271 76.397 119.437 76.4658 119.559 76.5882C119.682 76.7107 119.751 76.8768 119.751 77.05C119.751 77.2232 119.682 77.3893 119.559 77.5118C119.437 77.6342 119.271 77.703 119.098 77.703Z" fill="black"/>
<path d="M141.345 77.703H123.778C123.605 77.703 123.439 77.6342 123.316 77.5118C123.194 77.3893 123.125 77.2232 123.125 77.05C123.125 76.8768 123.194 76.7107 123.316 76.5882C123.439 76.4658 123.605 76.397 123.778 76.397H141.345C141.518 76.397 141.684 76.4658 141.806 76.5882C141.929 76.7107 141.998 76.8768 141.998 77.05C141.998 77.2232 141.929 77.3893 141.806 77.5118C141.684 77.6342 141.518 77.703 141.345 77.703Z" fill="black"/>
<path d="M108.12 81.9672H94.5827C94.4095 81.9672 94.2434 81.8984 94.121 81.7759C93.9985 81.6535 93.9297 81.4874 93.9297 81.3142C93.9297 81.141 93.9985 80.9749 94.121 80.8524C94.2434 80.7299 94.4095 80.6611 94.5827 80.6611H108.12C108.293 80.6611 108.459 80.7299 108.582 80.8524C108.704 80.9749 108.773 81.141 108.773 81.3142C108.773 81.4874 108.704 81.6535 108.582 81.7759C108.459 81.8984 108.293 81.9672 108.12 81.9672Z" fill="black"/>
<path d="M133.827 81.9672H112.512C112.339 81.9672 112.173 81.8984 112.051 81.7759C111.928 81.6535 111.859 81.4874 111.859 81.3142C111.859 81.141 111.928 80.9749 112.051 80.8524C112.173 80.7299 112.339 80.6611 112.512 80.6611H133.827C134.001 80.6611 134.167 80.7299 134.289 80.8524C134.412 80.9749 134.48 81.141 134.48 81.3142C134.48 81.4874 134.412 81.6535 134.289 81.7759C134.167 81.8984 134.001 81.9672 133.827 81.9672Z" fill="black"/>
<path d="M114.757 86.2316H96.5437C96.3705 86.2316 96.2044 86.1628 96.0819 86.0403C95.9594 85.9179 95.8906 85.7518 95.8906 85.5786C95.8906 85.4054 95.9594 85.2393 96.0819 85.1168C96.2044 84.9943 96.3705 84.9255 96.5437 84.9255H114.757C114.93 84.9255 115.096 84.9943 115.219 85.1168C115.341 85.2393 115.41 85.4054 115.41 85.5786C115.41 85.7518 115.341 85.9179 115.219 86.0403C115.096 86.1628 114.93 86.2316 114.757 86.2316Z" fill="black"/>
<path d="M117.036 90.4958H96.5437C96.3705 90.4958 96.2044 90.427 96.0819 90.3045C95.9594 90.182 95.8906 90.0159 95.8906 89.8427C95.8906 89.6695 95.9594 89.5034 96.0819 89.381C96.2044 89.2585 96.3705 89.1897 96.5437 89.1897H117.036C117.209 89.1897 117.375 89.2585 117.498 89.381C117.62 89.5034 117.689 89.6695 117.689 89.8427C117.689 90.0159 117.62 90.182 117.498 90.3045C117.375 90.427 117.209 90.4958 117.036 90.4958Z" fill="black"/>
<path d="M141.339 90.4958H120.442C120.269 90.4958 120.103 90.427 119.98 90.3045C119.858 90.182 119.789 90.0159 119.789 89.8427C119.789 89.6695 119.858 89.5034 119.98 89.381C120.103 89.2585 120.269 89.1897 120.442 89.1897H141.339C141.512 89.1897 141.678 89.2585 141.801 89.381C141.923 89.5034 141.992 89.6695 141.992 89.8427C141.992 90.0159 141.923 90.182 141.801 90.3045C141.678 90.427 141.512 90.4958 141.339 90.4958Z" fill="black"/>
<path d="M106.314 94.7536H94.5593C94.3861 94.7536 94.22 94.6848 94.0975 94.5623C93.9751 94.4398 93.9062 94.2737 93.9062 94.1005C93.9062 93.9273 93.9751 93.7612 94.0975 93.6388C94.22 93.5163 94.3861 93.4475 94.5593 93.4475H106.314C106.487 93.4475 106.653 93.5163 106.776 93.6388C106.898 93.7612 106.967 93.9273 106.967 94.1005C106.967 94.2737 106.898 94.4398 106.776 94.5623C106.653 94.6848 106.487 94.7536 106.314 94.7536Z" fill="black"/>
<path d="M141.343 94.7536H110.317C110.144 94.7536 109.978 94.6848 109.855 94.5623C109.733 94.4398 109.664 94.2737 109.664 94.1005C109.664 93.9273 109.733 93.7612 109.855 93.6388C109.978 93.5163 110.144 93.4475 110.317 93.4475H141.343C141.516 93.4475 141.682 93.5163 141.804 93.6388C141.927 93.7612 141.996 93.9273 141.996 94.1005C141.996 94.2737 141.927 94.4398 141.804 94.5623C141.682 94.6848 141.516 94.7536 141.343 94.7536Z" fill="black"/>
<path d="M116.905 99.018H96.5437C96.3705 99.018 96.2044 98.9492 96.0819 98.8267C95.9594 98.7042 95.8906 98.5381 95.8906 98.3649C95.8906 98.1918 95.9594 98.0257 96.0819 97.9032C96.2044 97.7807 96.3705 97.7119 96.5437 97.7119H116.905C117.078 97.7119 117.245 97.7807 117.367 97.9032C117.489 98.0257 117.558 98.1918 117.558 98.3649C117.558 98.5381 117.489 98.7042 117.367 98.8267C117.245 98.9492 117.078 99.018 116.905 99.018Z" fill="black"/>
<path d="M132.925 99.018H119.747C119.574 99.018 119.407 98.9492 119.285 98.8267C119.163 98.7042 119.094 98.5381 119.094 98.3649C119.094 98.1918 119.163 98.0257 119.285 97.9032C119.407 97.7807 119.574 97.7119 119.747 97.7119H132.925C133.098 97.7119 133.264 97.7807 133.387 97.9032C133.509 98.0257 133.578 98.1918 133.578 98.3649C133.578 98.5381 133.509 98.7042 133.387 98.8267C133.264 98.9492 133.098 99.018 132.925 99.018Z" fill="black"/>
<path d="M119.981 103.282H96.5437C96.3705 103.282 96.2044 103.213 96.0819 103.091C95.9594 102.968 95.8906 102.802 95.8906 102.629C95.8906 102.456 95.9594 102.29 96.0819 102.167C96.2044 102.045 96.3705 101.976 96.5437 101.976H119.981C120.154 101.976 120.32 102.045 120.443 102.167C120.565 102.29 120.634 102.456 120.634 102.629C120.634 102.802 120.565 102.968 120.443 103.091C120.32 103.213 120.154 103.282 119.981 103.282Z" fill="black"/>
</g>
<path opacity="0.4" d="M153.609 59.457C154.226 59.457 154.726 58.957 154.726 58.3403C154.726 57.7236 154.226 57.2236 153.609 57.2236C152.992 57.2236 152.492 57.7236 152.492 58.3403C152.492 58.957 152.992 59.457 153.609 59.457Z" fill="white"/>
<path opacity="0.4" d="M149.687 59.457C150.304 59.457 150.804 58.957 150.804 58.3403C150.804 57.7236 150.304 57.2236 149.687 57.2236C149.07 57.2236 148.57 57.7236 148.57 58.3403C148.57 58.957 149.07 59.457 149.687 59.457Z" fill="white"/>
<path opacity="0.4" d="M145.765 59.457C146.382 59.457 146.882 58.957 146.882 58.3403C146.882 57.7236 146.382 57.2236 145.765 57.2236C145.148 57.2236 144.648 57.7236 144.648 58.3403C144.648 58.957 145.148 59.457 145.765 59.457Z" fill="white"/>
<g opacity="0.2">
<path d="M82.8093 69.1808C82.6361 69.1808 82.47 69.112 82.3475 68.9896C82.2251 68.8671 82.1562 68.701 82.1562 68.5278C82.1562 68.3546 82.2251 68.1885 82.3475 68.066C82.47 67.9436 82.6361 67.8748 82.8093 67.8748C82.9825 67.8748 83.1486 67.9436 83.271 68.066C83.3935 68.1885 83.4623 68.3546 83.4623 68.5278C83.4623 68.701 83.3935 68.8671 83.271 68.9896C83.1486 69.112 82.9825 69.1808 82.8093 69.1808Z" fill="black"/>
<path d="M82.8093 73.4452C82.6361 73.4452 82.47 73.3764 82.3475 73.254C82.2251 73.1315 82.1562 72.9654 82.1562 72.7922C82.1562 72.619 82.2251 72.4529 82.3475 72.3304C82.47 72.208 82.6361 72.1392 82.8093 72.1392C82.9825 72.1392 83.1486 72.208 83.271 72.3304C83.3935 72.4529 83.4623 72.619 83.4623 72.7922C83.4623 72.9654 83.3935 73.1315 83.271 73.254C83.1486 73.3764 82.9825 73.4452 82.8093 73.4452Z" fill="black"/>
<path d="M82.8093 77.703C82.6361 77.703 82.47 77.6342 82.3475 77.5118C82.2251 77.3893 82.1562 77.2232 82.1562 77.05C82.1562 76.8768 82.2251 76.7107 82.3475 76.5882C82.47 76.4658 82.6361 76.397 82.8093 76.397C82.9825 76.397 83.1486 76.4658 83.271 76.5882C83.3935 76.7107 83.4623 76.8768 83.4623 77.05C83.4623 77.2232 83.3935 77.3893 83.271 77.5118C83.1486 77.6342 82.9825 77.703 82.8093 77.703Z" fill="black"/>
<path d="M82.8093 81.9672C82.6361 81.9672 82.47 81.8984 82.3475 81.7759C82.2251 81.6535 82.1562 81.4874 82.1562 81.3142C82.1562 81.141 82.2251 80.9749 82.3475 80.8524C82.47 80.7299 82.6361 80.6611 82.8093 80.6611C82.9825 80.6611 83.1486 80.7299 83.271 80.8524C83.3935 80.9749 83.4623 81.141 83.4623 81.3142C83.4623 81.4874 83.3935 81.6535 83.271 81.7759C83.1486 81.8984 82.9825 81.9672 82.8093 81.9672Z" fill="black"/>
<path d="M82.8093 86.2316C82.6361 86.2316 82.47 86.1628 82.3475 86.0403C82.2251 85.9179 82.1562 85.7518 82.1562 85.5786C82.1562 85.4054 82.2251 85.2393 82.3475 85.1168C82.47 84.9943 82.6361 84.9255 82.8093 84.9255C82.9825 84.9255 83.1486 84.9943 83.271 85.1168C83.3935 85.2393 83.4623 85.4054 83.4623 85.5786C83.4623 85.7518 83.3935 85.9179 83.271 86.0403C83.1486 86.1628 82.9825 86.2316 82.8093 86.2316Z" fill="black"/>
<path d="M82.8093 90.4958C82.6361 90.4958 82.47 90.427 82.3475 90.3045C82.2251 90.182 82.1562 90.0159 82.1562 89.8427C82.1562 89.6695 82.2251 89.5034 82.3475 89.381C82.47 89.2585 82.6361 89.1897 82.8093 89.1897C82.9825 89.1897 83.1486 89.2585 83.271 89.381C83.3935 89.5034 83.4623 89.6695 83.4623 89.8427C83.4623 90.0159 83.3935 90.182 83.271 90.3045C83.1486 90.427 82.9825 90.4958 82.8093 90.4958Z" fill="black"/>
<path d="M82.8093 94.7536C82.6361 94.7536 82.47 94.6848 82.3475 94.5623C82.2251 94.4398 82.1562 94.2737 82.1562 94.1005C82.1562 93.9273 82.2251 93.7612 82.3475 93.6388C82.47 93.5163 82.6361 93.4475 82.8093 93.4475C82.9825 93.4475 83.1486 93.5163 83.271 93.6388C83.3935 93.7612 83.4623 93.9273 83.4623 94.1005C83.4623 94.2737 83.3935 94.4398 83.271 94.5623C83.1486 94.6848 82.9825 94.7536 82.8093 94.7536Z" fill="black"/>
<path d="M82.8093 99.018C82.6361 99.018 82.47 98.9492 82.3475 98.8267C82.2251 98.7042 82.1562 98.5381 82.1562 98.3649C82.1562 98.1918 82.2251 98.0257 82.3475 97.9032C82.47 97.7807 82.6361 97.7119 82.8093 97.7119C82.9825 97.7119 83.1486 97.7807 83.271 97.9032C83.3935 98.0257 83.4623 98.1918 83.4623 98.3649C83.4623 98.5381 83.3935 98.7042 83.271 98.8267C83.1486 98.9492 82.9825 99.018 82.8093 99.018Z" fill="black"/>
<path d="M82.8093 103.282C82.6361 103.282 82.47 103.213 82.3475 103.091C82.2251 102.968 82.1562 102.802 82.1562 102.629C82.1562 102.456 82.2251 102.29 82.3475 102.167C82.47 102.045 82.6361 101.976 82.8093 101.976C82.9825 101.976 83.1486 102.045 83.271 102.167C83.3935 102.29 83.4623 102.456 83.4623 102.629C83.4623 102.802 83.3935 102.968 83.271 103.091C83.1486 103.213 82.9825 103.282 82.8093 103.282Z" fill="black"/>
</g>
<path d="M229.511 102.851H124.68V169.977H229.511V102.851Z" fill="#263238"/>
<path opacity="0.9" d="M229.511 102.851H124.68V169.977H229.511V102.851Z" fill="white"/>
<path opacity="0.1" d="M141.032 102.851H124.68V169.977H141.032V102.851Z" fill="black"/>
<path d="M229.511 102.851H124.68V108.265H229.511V102.851Z" fill="#407BFF"/>
<path d="M132.083 114.201L130.346 114.854L132.083 115.507V116.16L129.602 115.213V114.56L132.083 113.62V114.201Z" fill="white"/>
<path d="M133.958 112.268H134.683L132.959 117.185H132.234L133.958 112.268Z" fill="white"/>
<path d="M137.263 114.495V115.148L134.781 116.095V115.442L136.518 114.788L134.781 114.135V113.482L137.263 114.495Z" fill="white"/>
<g opacity="0.2">
<path d="M136.899 121.665H129.794C129.62 121.665 129.454 121.596 129.332 121.474C129.209 121.351 129.141 121.185 129.141 121.012C129.141 120.839 129.209 120.673 129.332 120.55C129.454 120.428 129.62 120.359 129.794 120.359H136.899C137.072 120.359 137.238 120.428 137.36 120.55C137.483 120.673 137.552 120.839 137.552 121.012C137.552 121.185 137.483 121.351 137.36 121.474C137.238 121.596 137.072 121.665 136.899 121.665Z" fill="black"/>
<path d="M136.899 125.923H129.794C129.62 125.923 129.454 125.854 129.332 125.731C129.209 125.609 129.141 125.443 129.141 125.27C129.141 125.097 129.209 124.93 129.332 124.808C129.454 124.686 129.62 124.617 129.794 124.617H136.899C137.072 124.617 137.238 124.686 137.36 124.808C137.483 124.93 137.552 125.097 137.552 125.27C137.552 125.443 137.483 125.609 137.36 125.731C137.238 125.854 137.072 125.923 136.899 125.923Z" fill="black"/>
<path d="M136.899 130.187H129.794C129.62 130.187 129.454 130.118 129.332 129.996C129.209 129.873 129.141 129.707 129.141 129.534C129.141 129.361 129.209 129.195 129.332 129.072C129.454 128.95 129.62 128.881 129.794 128.881H136.899C137.072 128.881 137.238 128.95 137.36 129.072C137.483 129.195 137.552 129.361 137.552 129.534C137.552 129.707 137.483 129.873 137.36 129.996C137.238 130.118 137.072 130.187 136.899 130.187Z" fill="black"/>
<path d="M136.899 134.451H129.794C129.62 134.451 129.454 134.383 129.332 134.26C129.209 134.138 129.141 133.971 129.141 133.798C129.141 133.625 129.209 133.459 129.332 133.337C129.454 133.214 129.62 133.145 129.794 133.145H136.899C137.072 133.145 137.238 133.214 137.36 133.337C137.483 133.459 137.552 133.625 137.552 133.798C137.552 133.971 137.483 134.138 137.36 134.26C137.238 134.383 137.072 134.451 136.899 134.451Z" fill="black"/>
<path d="M136.899 138.716H129.794C129.62 138.716 129.454 138.647 129.332 138.524C129.209 138.402 129.141 138.236 129.141 138.063C129.141 137.89 129.209 137.723 129.332 137.601C129.454 137.478 129.62 137.41 129.794 137.41H136.899C137.072 137.41 137.238 137.478 137.36 137.601C137.483 137.723 137.552 137.89 137.552 138.063C137.552 138.236 137.483 138.402 137.36 138.524C137.238 138.647 137.072 138.716 136.899 138.716Z" fill="black"/>
<path d="M136.899 142.973H129.794C129.62 142.973 129.454 142.905 129.332 142.782C129.209 142.66 129.141 142.493 129.141 142.32C129.141 142.147 129.209 141.981 129.332 141.859C129.454 141.736 129.62 141.667 129.794 141.667H136.899C137.072 141.667 137.238 141.736 137.36 141.859C137.483 141.981 137.552 142.147 137.552 142.32C137.552 142.493 137.483 142.66 137.36 142.782C137.238 142.905 137.072 142.973 136.899 142.973Z" fill="black"/>
<path d="M136.899 147.238H129.794C129.62 147.238 129.454 147.169 129.332 147.046C129.209 146.924 129.141 146.758 129.141 146.585C129.141 146.411 129.209 146.245 129.332 146.123C129.454 146 129.62 145.932 129.794 145.932H136.899C137.072 145.932 137.238 146 137.36 146.123C137.483 146.245 137.552 146.411 137.552 146.585C137.552 146.758 137.483 146.924 137.36 147.046C137.238 147.169 137.072 147.238 136.899 147.238Z" fill="black"/>
<path d="M136.899 151.502H129.794C129.62 151.502 129.454 151.433 129.332 151.311C129.209 151.188 129.141 151.022 129.141 150.849C129.141 150.676 129.209 150.51 129.332 150.387C129.454 150.265 129.62 150.196 129.794 150.196H136.899C137.072 150.196 137.238 150.265 137.36 150.387C137.483 150.51 137.552 150.676 137.552 150.849C137.552 151.022 137.483 151.188 137.36 151.311C137.238 151.433 137.072 151.502 136.899 151.502Z" fill="black"/>
<path d="M136.899 155.766H129.794C129.62 155.766 129.454 155.697 129.332 155.575C129.209 155.453 129.141 155.286 129.141 155.113C129.141 154.94 129.209 154.774 129.332 154.651C129.454 154.529 129.62 154.46 129.794 154.46H136.899C137.072 154.46 137.238 154.529 137.36 154.651C137.483 154.774 137.552 154.94 137.552 155.113C137.552 155.286 137.483 155.453 137.36 155.575C137.238 155.697 137.072 155.766 136.899 155.766Z" fill="black"/>
</g>
<path d="M157.433 121.665H142.864C142.691 121.665 142.525 121.596 142.402 121.474C142.28 121.351 142.211 121.185 142.211 121.012C142.211 120.839 142.28 120.673 142.402 120.55C142.525 120.428 142.691 120.359 142.864 120.359H157.433C157.606 120.359 157.772 120.428 157.895 120.55C158.017 120.673 158.086 120.839 158.086 121.012C158.086 121.185 158.017 121.351 157.895 121.474C157.772 121.596 157.606 121.665 157.433 121.665Z" fill="#407BFF"/>
<path d="M199.291 121.665H161.317C161.144 121.665 160.978 121.596 160.855 121.474C160.733 121.351 160.664 121.185 160.664 121.012C160.664 120.839 160.733 120.673 160.855 120.55C160.978 120.428 161.144 120.359 161.317 120.359H199.291C199.464 120.359 199.63 120.428 199.753 120.55C199.875 120.673 199.944 120.839 199.944 121.012C199.944 121.185 199.875 121.351 199.753 121.474C199.63 121.596 199.464 121.665 199.291 121.665Z" fill="#263238"/>
<g opacity="0.2">
<path d="M216.625 121.665H205.622C205.449 121.665 205.282 121.596 205.16 121.474C205.038 121.351 204.969 121.185 204.969 121.012C204.969 120.839 205.038 120.673 205.16 120.55C205.282 120.428 205.449 120.359 205.622 120.359H216.625C216.799 120.359 216.965 120.428 217.087 120.55C217.21 120.673 217.278 120.839 217.278 121.012C217.278 121.185 217.21 121.351 217.087 121.474C216.965 121.596 216.799 121.665 216.625 121.665Z" fill="#263238"/>
</g>
<g opacity="0.2">
<path d="M182.884 125.923H144.825C144.652 125.923 144.486 125.854 144.363 125.731C144.241 125.609 144.172 125.443 144.172 125.27C144.172 125.097 144.241 124.93 144.363 124.808C144.486 124.686 144.652 124.617 144.825 124.617H182.884C183.057 124.617 183.223 124.686 183.345 124.808C183.468 124.93 183.537 125.097 183.537 125.27C183.537 125.443 183.468 125.609 183.345 125.731C183.223 125.854 183.057 125.923 182.884 125.923Z" fill="#263238"/>
</g>
<path d="M221.85 125.923H186.403C186.23 125.923 186.064 125.854 185.941 125.731C185.819 125.609 185.75 125.443 185.75 125.27C185.75 125.097 185.819 124.93 185.941 124.808C186.064 124.686 186.23 124.617 186.403 124.617H221.876C222.049 124.617 222.215 124.686 222.338 124.808C222.46 124.93 222.529 125.097 222.529 125.27C222.529 125.443 222.46 125.609 222.338 125.731C222.215 125.854 222.049 125.923 221.876 125.923H221.85Z" fill="#407BFF"/>
<path d="M167.381 130.187H144.825C144.652 130.187 144.486 130.118 144.363 129.996C144.241 129.873 144.172 129.707 144.172 129.534C144.172 129.361 144.241 129.195 144.363 129.072C144.486 128.95 144.652 128.881 144.825 128.881H167.381C167.554 128.881 167.72 128.95 167.842 129.072C167.965 129.195 168.034 129.361 168.034 129.534C168.034 129.707 167.965 129.873 167.842 129.996C167.72 130.118 167.554 130.187 167.381 130.187Z" fill="#263238"/>
<path d="M194.239 130.187H172.036C171.863 130.187 171.697 130.118 171.574 129.996C171.452 129.873 171.383 129.707 171.383 129.534C171.383 129.361 171.452 129.195 171.574 129.072C171.697 128.95 171.863 128.881 172.036 128.881H194.239C194.412 128.881 194.578 128.95 194.701 129.072C194.823 129.195 194.892 129.361 194.892 129.534C194.892 129.707 194.823 129.873 194.701 129.996C194.578 130.118 194.412 130.187 194.239 130.187Z" fill="#407BFF"/>
<path d="M221.843 130.187H197.864C197.691 130.187 197.525 130.118 197.402 129.996C197.28 129.873 197.211 129.707 197.211 129.534C197.211 129.361 197.28 129.195 197.402 129.072C197.525 128.95 197.691 128.881 197.864 128.881H221.843C222.017 128.881 222.183 128.95 222.305 129.072C222.428 129.195 222.496 129.361 222.496 129.534C222.496 129.707 222.428 129.873 222.305 129.996C222.183 130.118 222.017 130.187 221.843 130.187Z" fill="#263238"/>
<path d="M169.472 134.452H155.934C155.761 134.452 155.595 134.383 155.473 134.26C155.35 134.138 155.281 133.972 155.281 133.799C155.281 133.625 155.35 133.459 155.473 133.337C155.595 133.214 155.761 133.146 155.934 133.146H169.472C169.645 133.146 169.811 133.214 169.933 133.337C170.056 133.459 170.125 133.625 170.125 133.799C170.125 133.972 170.056 134.138 169.933 134.26C169.811 134.383 169.645 134.452 169.472 134.452Z" fill="#263238"/>
<path d="M188.642 134.452H173.864C173.691 134.452 173.525 134.383 173.402 134.26C173.28 134.138 173.211 133.972 173.211 133.799C173.211 133.625 173.28 133.459 173.402 133.337C173.525 133.214 173.691 133.146 173.864 133.146H188.642C188.815 133.146 188.981 133.214 189.104 133.337C189.226 133.459 189.295 133.625 189.295 133.799C189.295 133.972 189.226 134.138 189.104 134.26C188.981 134.383 188.815 134.452 188.642 134.452Z" fill="#263238"/>
<g opacity="0.2">
<path d="M215.971 134.452H192.005C191.831 134.452 191.665 134.383 191.543 134.26C191.42 134.138 191.352 133.972 191.352 133.799C191.352 133.625 191.42 133.459 191.543 133.337C191.665 133.214 191.831 133.146 192.005 133.146H215.971C216.144 133.146 216.31 133.214 216.433 133.337C216.555 133.459 216.624 133.625 216.624 133.799C216.624 133.972 216.555 134.138 216.433 134.26C216.31 134.383 216.144 134.452 215.971 134.452Z" fill="#263238"/>
</g>
<g opacity="0.2">
<path d="M163.038 138.716H144.825C144.652 138.716 144.486 138.647 144.363 138.524C144.241 138.402 144.172 138.236 144.172 138.063C144.172 137.89 144.241 137.723 144.363 137.601C144.486 137.478 144.652 137.41 144.825 137.41H163.038C163.211 137.41 163.377 137.478 163.5 137.601C163.622 137.723 163.691 137.89 163.691 138.063C163.691 138.236 163.622 138.402 163.5 138.524C163.377 138.647 163.211 138.716 163.038 138.716Z" fill="#263238"/>
</g>
<path d="M165.317 142.974H144.825C144.652 142.974 144.486 142.905 144.363 142.782C144.241 142.66 144.172 142.494 144.172 142.321C144.172 142.147 144.241 141.981 144.363 141.859C144.486 141.736 144.652 141.667 144.825 141.667H165.317C165.49 141.667 165.656 141.736 165.779 141.859C165.901 141.981 165.97 142.147 165.97 142.321C165.97 142.494 165.901 142.66 165.779 142.782C165.656 142.905 165.49 142.974 165.317 142.974Z" fill="#407BFF"/>
<path d="M199.552 142.974H168.676C168.503 142.974 168.337 142.905 168.215 142.782C168.092 142.66 168.023 142.494 168.023 142.321C168.023 142.147 168.092 141.981 168.215 141.859C168.337 141.736 168.503 141.667 168.676 141.667H199.552C199.725 141.667 199.891 141.736 200.014 141.859C200.136 141.981 200.205 142.147 200.205 142.321C200.205 142.494 200.136 142.66 200.014 142.782C199.891 142.905 199.725 142.974 199.552 142.974Z" fill="#263238"/>
<path d="M221.846 142.974H203.294C203.12 142.974 202.954 142.905 202.832 142.782C202.709 142.66 202.641 142.494 202.641 142.321C202.641 142.147 202.709 141.981 202.832 141.859C202.954 141.736 203.12 141.667 203.294 141.667H221.846C222.02 141.667 222.186 141.736 222.308 141.859C222.431 141.981 222.499 142.147 222.499 142.321C222.499 142.494 222.431 142.66 222.308 142.782C222.186 142.905 222.02 142.974 221.846 142.974Z" fill="#263238"/>
<g opacity="0.2">
<path d="M163.087 147.238H151.333C151.16 147.238 150.993 147.169 150.871 147.047C150.748 146.924 150.68 146.758 150.68 146.585C150.68 146.412 150.748 146.246 150.871 146.123C150.993 146.001 151.16 145.932 151.333 145.932H163.087C163.261 145.932 163.427 146.001 163.549 146.123C163.672 146.246 163.74 146.412 163.74 146.585C163.74 146.758 163.672 146.924 163.549 147.047C163.427 147.169 163.261 147.238 163.087 147.238Z" fill="#263238"/>
</g>
<g opacity="0.2">
<path d="M189.602 147.238H167.098C166.925 147.238 166.759 147.169 166.637 147.047C166.514 146.924 166.445 146.758 166.445 146.585C166.445 146.412 166.514 146.246 166.637 146.123C166.759 146.001 166.925 145.932 167.098 145.932H189.602C189.775 145.932 189.941 146.001 190.064 146.123C190.186 146.246 190.255 146.412 190.255 146.585C190.255 146.758 190.186 146.924 190.064 147.047C189.941 147.169 189.775 147.238 189.602 147.238Z" fill="#263238"/>
</g>
<path d="M215.964 147.238H193.989C193.816 147.238 193.65 147.169 193.527 147.047C193.405 146.924 193.336 146.758 193.336 146.585C193.336 146.412 193.405 146.246 193.527 146.123C193.65 146.001 193.816 145.932 193.989 145.932H215.964C216.137 145.932 216.303 146.001 216.425 146.123C216.548 146.246 216.617 146.412 216.617 146.585C216.617 146.758 216.548 146.924 216.425 147.047C216.303 147.169 216.137 147.238 215.964 147.238Z" fill="#263238"/>
<path d="M171.719 151.502H157.887C157.714 151.502 157.548 151.433 157.426 151.311C157.303 151.188 157.234 151.022 157.234 150.849C157.234 150.676 157.303 150.51 157.426 150.387C157.548 150.265 157.714 150.196 157.887 150.196H171.719C171.892 150.196 172.058 150.265 172.18 150.387C172.303 150.51 172.372 150.676 172.372 150.849C172.372 151.022 172.303 151.188 172.18 151.311C172.058 151.433 171.892 151.502 171.719 151.502Z" fill="#263238"/>
<g opacity="0.2">
<path d="M187.739 151.502H174.567C174.394 151.502 174.228 151.433 174.105 151.311C173.983 151.188 173.914 151.022 173.914 150.849C173.914 150.676 173.983 150.51 174.105 150.387C174.228 150.265 174.394 150.196 174.567 150.196H187.739C187.912 150.196 188.078 150.265 188.201 150.387C188.323 150.51 188.392 150.676 188.392 150.849C188.392 151.022 188.323 151.188 188.201 151.311C188.078 151.433 187.912 151.502 187.739 151.502Z" fill="#263238"/>
</g>
<path d="M215.969 151.502H191.872C191.699 151.502 191.532 151.433 191.41 151.311C191.288 151.188 191.219 151.022 191.219 150.849C191.219 150.676 191.288 150.51 191.41 150.387C191.532 150.265 191.699 150.196 191.872 150.196H215.969C216.142 150.196 216.308 150.265 216.43 150.387C216.553 150.51 216.622 150.676 216.622 150.849C216.622 151.022 216.553 151.188 216.43 151.311C216.308 151.433 216.142 151.502 215.969 151.502Z" fill="#407BFF"/>
<g opacity="0.2">
<path d="M174.802 155.767H157.895C157.722 155.767 157.556 155.698 157.433 155.575C157.311 155.453 157.242 155.287 157.242 155.113C157.242 154.94 157.311 154.774 157.433 154.652C157.556 154.529 157.722 154.46 157.895 154.46H174.802C174.975 154.46 175.142 154.529 175.264 154.652C175.386 154.774 175.455 154.94 175.455 155.113C175.455 155.287 175.386 155.453 175.264 155.575C175.142 155.698 174.975 155.767 174.802 155.767Z" fill="#263238"/>
</g>
<path opacity="0.4" d="M224.93 105.6C224.93 105.823 224.996 106.04 225.119 106.225C225.243 106.41 225.419 106.554 225.625 106.639C225.83 106.723 226.056 106.745 226.274 106.701C226.493 106.658 226.693 106.55 226.849 106.392C227.006 106.234 227.113 106.034 227.155 105.815C227.198 105.597 227.175 105.371 227.089 105.166C227.003 104.961 226.858 104.786 226.672 104.663C226.487 104.541 226.269 104.476 226.046 104.477C225.899 104.477 225.753 104.506 225.618 104.563C225.482 104.619 225.358 104.702 225.254 104.806C225.151 104.911 225.069 105.035 225.013 105.171C224.957 105.307 224.929 105.453 224.93 105.6Z" fill="white"/>
<path opacity="0.4" d="M222.156 106.717C222.772 106.717 223.272 106.217 223.272 105.601C223.272 104.984 222.772 104.484 222.156 104.484C221.539 104.484 221.039 104.984 221.039 105.601C221.039 106.217 221.539 106.717 222.156 106.717Z" fill="white"/>
<path opacity="0.4" d="M218.226 106.717C218.843 106.717 219.343 106.217 219.343 105.601C219.343 104.984 218.843 104.484 218.226 104.484C217.609 104.484 217.109 104.984 217.109 105.601C217.109 106.217 217.609 106.717 218.226 106.717Z" fill="white"/>
<path d="M54.0032 106.822H35.2481C34.4895 106.821 33.7381 106.97 33.0369 107.259C32.3358 107.549 31.6986 107.974 31.1619 108.51C30.6251 109.046 30.1993 109.683 29.9088 110.384C29.6183 111.085 29.4688 111.836 29.4688 112.595V128.92C29.4679 129.679 29.6166 130.43 29.9063 131.132C30.196 131.833 30.6211 132.47 31.1573 133.007C31.6934 133.543 32.3301 133.969 33.0309 134.26C33.7317 134.55 34.4829 134.7 35.2416 134.7H48.5439L52.4621 139.852V134.7H53.9967C55.5295 134.7 56.9995 134.091 58.0833 133.007C59.1671 131.923 59.776 130.453 59.776 128.92V112.595C59.776 111.064 59.1678 109.595 58.0852 108.513C57.0026 107.43 55.5343 106.822 54.0032 106.822Z" fill="#407BFF"/>
<path opacity="0.7" d="M54.0032 106.822H35.2481C34.4895 106.821 33.7381 106.97 33.0369 107.259C32.3358 107.549 31.6986 107.974 31.1619 108.51C30.6251 109.046 30.1993 109.683 29.9088 110.384C29.6183 111.085 29.4688 111.836 29.4688 112.595V128.92C29.4679 129.679 29.6166 130.43 29.9063 131.132C30.196 131.833 30.6211 132.47 31.1573 133.007C31.6934 133.543 32.3301 133.969 33.0309 134.26C33.7317 134.55 34.4829 134.7 35.2416 134.7H48.5439L52.4621 139.852V134.7H53.9967C55.5295 134.7 56.9995 134.091 58.0833 133.007C59.1671 131.923 59.776 130.453 59.776 128.92V112.595C59.776 111.064 59.1678 109.595 58.0852 108.513C57.0026 107.43 55.5343 106.822 54.0032 106.822Z" fill="white"/>
<path d="M43.6403 124.832C43.5164 124.832 43.3939 124.805 43.2813 124.753C43.1686 124.701 43.0684 124.626 42.9873 124.532L39.3368 120.261C39.264 120.175 39.2087 120.076 39.1741 119.969C39.1396 119.862 39.1265 119.749 39.1356 119.637C39.1447 119.525 39.1758 119.415 39.2272 119.315C39.2785 119.215 39.349 119.126 39.4348 119.053C39.5206 118.98 39.6198 118.925 39.727 118.89C39.8341 118.856 39.947 118.843 40.0591 118.852C40.1713 118.861 40.2806 118.892 40.3808 118.943C40.4809 118.995 40.57 119.065 40.6429 119.151L43.6403 122.69L48.5969 116.852C48.7458 116.688 48.9527 116.588 49.1739 116.573C49.3952 116.558 49.6135 116.63 49.7828 116.773C49.9522 116.916 50.0594 117.12 50.0818 117.34C50.1042 117.561 50.0401 117.782 49.9029 117.956L44.2934 124.545C44.2116 124.637 44.1109 124.71 43.9982 124.76C43.8855 124.81 43.7635 124.834 43.6403 124.832Z" fill="white"/>
<path d="M44.9998 129.743C50.1428 129.743 54.312 125.574 54.312 120.431C54.312 115.288 50.1428 111.119 44.9998 111.119C39.8567 111.119 35.6875 115.288 35.6875 120.431C35.6875 125.574 39.8567 129.743 44.9998 129.743Z" fill="white"/>
<g clip-path="url(#clip0_940_5518)">
<path d="M43.0461 125.486C44.0074 125.486 44.7875 124.706 44.7875 123.744V122.003H43.0461C42.0848 122.003 41.3047 122.783 41.3047 123.744C41.3047 124.706 42.0848 125.486 43.0461 125.486Z" fill="#0ACF83"/>
<path d="M41.3047 120.261C41.3047 119.3 42.0848 118.52 43.0461 118.52H44.7875V122.003H43.0461C42.0848 122.003 41.3047 121.222 41.3047 120.261Z" fill="#A259FF"/>
<path d="M41.3047 116.779C41.3047 115.817 42.0848 115.037 43.0461 115.037H44.7875V118.52H43.0461C42.0848 118.52 41.3047 117.74 41.3047 116.779Z" fill="#F24E1E"/>
<path d="M44.7891 115.037H46.5305C47.4917 115.037 48.2719 115.817 48.2719 116.779C48.2719 117.74 47.4917 118.52 46.5305 118.52H44.7891V115.037Z" fill="#FF7262"/>
<path d="M48.2719 120.261C48.2719 121.222 47.4917 122.003 46.5305 122.003C45.5692 122.003 44.7891 121.222 44.7891 120.261C44.7891 119.3 45.5692 118.52 46.5305 118.52C47.4917 118.52 48.2719 119.3 48.2719 120.261Z" fill="#1ABCFE"/>
</g>
<path d="M113.73 222.448L127.75 221.762L126.385 233.954C126.385 233.954 116.655 235.809 112.312 228.887L113.73 222.448Z" fill="#EBB376"/>
<path d="M136.793 226.013L133.6 234.856L126.391 233.954L127.755 221.762L136.793 226.013Z" fill="#EBB376"/>
<path d="M100.266 242.235C105.604 239.447 110.47 235.835 114.685 231.532L113.725 222.448C100.475 224.407 92.8276 227.209 92.8276 227.209C92.8276 227.209 97.7384 209.609 93.2455 203.197L80.9097 205.43C80.9097 205.43 67.8033 232.674 76.6193 242.235H100.266Z" fill="#407BFF"/>
<path opacity="0.7" d="M100.25 242.235C105.592 239.448 110.462 235.838 114.682 231.538L113.729 222.441C100.903 224.322 93.3216 227.013 92.8319 227.189C92.9951 226.536 97.6382 209.485 93.2367 203.19L80.9009 205.423C78.3648 210.894 76.351 216.592 74.8865 222.441C73.1233 229.879 72.6074 237.892 76.617 242.235H100.25Z" fill="white"/>
<path opacity="0.2" d="M90.1099 242.235C94.4656 214.638 90.6062 207.624 90.6062 207.624L74.9334 222.428C73.1702 229.866 72.6543 237.879 76.6639 242.222L90.1099 242.235Z" fill="black"/>
<path d="M87.3815 242.235C90.3202 228.286 93.618 206.449 93.2588 203.196C92.7364 198.469 67.0199 178.211 44.6993 192.957C40.128 195.967 37.7967 228.443 37 242.235H87.3815Z" fill="#407BFF"/>
<path opacity="0.7" d="M87.3815 242.235C90.3202 228.286 93.618 206.442 93.2588 203.19C92.7364 198.468 67.0134 178.211 44.6927 192.963C43.0406 194.067 41.6822 199.05 40.559 205.632C39.0701 214.592 38.0383 226.49 37.4245 235.463C37.2547 238.003 37.111 240.302 37 242.235H87.3815Z" fill="white"/>
<path d="M76.3724 133.028C68.634 129.9 50.3882 141.126 48.7883 161.141C47.1883 181.157 57.3365 175.612 57.3365 175.612C57.3365 175.612 59.1454 183.246 66.5377 180.889C66.5377 180.889 72.6436 187.804 78.325 184.99C78.325 184.99 85.3973 192.356 89.1915 188.471C89.1915 188.471 93.3186 193.179 97.0866 189.613C100.855 186.048 111.623 149.648 94.7292 141.23C77.8352 132.812 76.3724 133.028 76.3724 133.028Z" fill="#263238"/>
<path d="M76.3865 214.951L75.642 214.886C76.504 205.247 74.3816 200.982 74.3359 200.943L74.989 200.597C75.113 200.747 77.2681 205.038 76.3865 214.951Z" fill="#263238"/>
<path d="M79.8794 215.036C74.7531 202.961 80.5325 200.147 80.7676 200.016L81.0745 200.669L80.9178 200.33L81.0745 200.669C81.0222 200.669 75.7457 203.34 80.5651 214.703L79.8794 215.036Z" fill="#263238"/>
<path d="M74.8773 202.896C74.8773 202.896 64.9839 195.06 49.6245 190.645L44.6941 192.957C44.6941 192.957 36.4267 182.724 50.2057 179.374C63.9847 176.024 82.7268 185.251 87.4286 193.153C92.1305 201.055 79.2526 203.601 79.2526 203.601C79.2526 203.601 78.0706 201.995 74.8773 202.896Z" fill="#407BFF"/>
<path opacity="0.6" d="M74.8773 202.896C74.8773 202.896 64.9839 195.06 49.6245 190.645L44.6941 192.957C44.6941 192.957 36.4267 182.724 50.2057 179.374C63.9847 176.024 82.7268 185.251 87.4286 193.153C92.1305 201.055 79.2526 203.601 79.2526 203.601C79.2526 203.601 78.0706 201.995 74.8773 202.896Z" fill="white"/>
<path d="M80.8451 214.892C80.8451 215.021 80.8068 215.148 80.7351 215.255C80.6633 215.362 80.5613 215.446 80.442 215.496C80.3227 215.545 80.1914 215.558 80.0647 215.533C79.938 215.508 79.8217 215.445 79.7303 215.354C79.639 215.263 79.5768 215.146 79.5516 215.02C79.5264 214.893 79.5394 214.762 79.5888 214.642C79.6382 214.523 79.7219 214.421 79.8293 214.349C79.9367 214.278 80.0629 214.239 80.1921 214.239C80.3653 214.239 80.5314 214.308 80.6539 214.431C80.7763 214.553 80.8451 214.719 80.8451 214.892Z" fill="white"/>
<path d="M76.6029 214.892C76.6029 215.021 76.5646 215.148 76.4929 215.255C76.4211 215.362 76.3191 215.446 76.1998 215.496C76.0805 215.545 75.9492 215.558 75.8225 215.533C75.6958 215.508 75.5795 215.445 75.4881 215.354C75.3968 215.263 75.3346 215.146 75.3094 215.02C75.2842 214.893 75.2972 214.762 75.3466 214.642C75.396 214.523 75.4797 214.421 75.5871 214.349C75.6945 214.278 75.8207 214.239 75.9499 214.239C76.1231 214.239 76.2892 214.308 76.4117 214.431C76.5341 214.553 76.6029 214.719 76.6029 214.892Z" fill="white"/>
<path d="M69.6143 165.974C69.0135 172.981 66.865 185.454 61.1641 188.177C61.1641 188.177 67.5377 189.483 77.4899 202.093C83.1517 198.122 81.0097 195.412 81.0097 195.412C74.388 191.07 76.1055 185.715 78.7829 181.046L69.6143 165.974Z" fill="#EBB376"/>
<path opacity="0.2" d="M73.3424 172.119L78.7691 181.065C78.121 182.145 77.5724 183.282 77.1299 184.461C74.5178 183.063 71.6575 178.636 72.1995 175.606C72.3685 174.384 72.7556 173.203 73.3424 172.119Z" fill="black"/>
<path d="M68.8535 151.156C67.0315 162.166 66.0258 166.777 70.1073 173.862C76.2393 184.526 89.8289 185.029 94.8246 174.946C99.3175 165.869 101.544 149.386 92.1668 142.112C82.9133 134.941 70.6624 140.14 68.8535 151.156Z" fill="#EBB376"/>
<path d="M91.4049 135.98C98.5426 139.937 105.341 152.305 95.186 149.217C93.6514 152.188 88.1855 149.465 85.0052 145.899C84.4697 148.374 78.6185 150.856 74.3085 147.022C76.3917 150.026 72.8457 157.608 69.1561 156.302C65.4664 154.996 57.186 153.279 64.5195 141.589C71.8531 129.9 83.784 131.741 91.4049 135.98Z" fill="#263238"/>
<path d="M88.8011 161.546C88.8011 161.546 89.4541 165.915 90.6949 168.285C89.3039 169.088 87.4297 168.017 87.4297 168.017L88.8011 161.546Z" fill="#D58745"/>
<path d="M81.6858 169.977C82.1492 170.203 82.6323 170.387 83.129 170.525C83.1625 170.535 83.1977 170.537 83.2322 170.533C83.2668 170.528 83.2999 170.516 83.3295 170.497C83.3591 170.479 83.3844 170.454 83.4039 170.425C83.4234 170.396 83.4365 170.364 83.4425 170.329C83.4603 170.257 83.4491 170.181 83.4111 170.118C83.3732 170.054 83.3117 170.008 83.24 169.99C82.1164 169.675 81.0778 169.112 80.2007 168.342C79.3237 167.572 78.6306 166.616 78.1725 165.543C78.1628 165.508 78.1462 165.476 78.1237 165.447C78.1012 165.419 78.0733 165.396 78.0416 165.379C78.0099 165.362 77.9751 165.351 77.9392 165.348C77.9034 165.345 77.8672 165.349 77.8329 165.36C77.7668 165.387 77.7141 165.44 77.686 165.505C77.6579 165.571 77.6568 165.646 77.6827 165.712C78.4472 167.578 79.8724 169.096 81.6858 169.977Z" fill="#263238"/>
<path d="M63.2971 159.071C63.9128 161.36 65.4111 163.312 67.4635 164.498C70.1213 165.954 72.0347 163.459 71.8388 160.357C71.6364 157.556 70.0038 153.429 67.0913 153.266C64.1787 153.102 62.507 156.178 63.2971 159.071Z" fill="#EBB376"/>
<path d="M80.9356 151.457C81.0011 151.487 81.0724 151.503 81.1446 151.503C81.2168 151.503 81.2881 151.487 81.3536 151.457C81.9332 151.135 82.583 150.961 83.2458 150.949C83.9085 150.938 84.5639 151.09 85.1542 151.391C85.2129 151.429 85.2787 151.454 85.3476 151.464C85.4164 151.475 85.4867 151.47 85.5538 151.452C85.6209 151.433 85.6834 151.401 85.7372 151.357C85.791 151.313 85.8349 151.258 85.8661 151.195C85.9306 151.064 85.9444 150.913 85.9046 150.772C85.8648 150.631 85.7743 150.51 85.6505 150.431C84.9138 150.028 84.0874 149.816 83.2474 149.816C82.4074 149.816 81.5809 150.028 80.8442 150.431C80.7207 150.505 80.6301 150.623 80.5912 150.762C80.5523 150.9 80.5681 151.048 80.6352 151.176C80.6988 151.302 80.8053 151.402 80.9356 151.457Z" fill="#263238"/>
<path d="M98.4795 155.754C98.5384 155.787 98.6037 155.808 98.6712 155.815C98.7387 155.822 98.8069 155.814 98.8713 155.793C98.9392 155.77 99.0019 155.734 99.0556 155.687C99.1094 155.639 99.1531 155.582 99.1841 155.517C99.2152 155.452 99.233 155.382 99.2364 155.311C99.2399 155.239 99.229 155.168 99.2043 155.1C98.9659 154.252 98.5349 153.47 97.9447 152.815C97.3546 152.161 96.6214 151.651 95.802 151.326C95.7348 151.302 95.6632 151.293 95.5922 151.299C95.5211 151.306 95.4522 151.327 95.3903 151.362C95.3283 151.398 95.2747 151.446 95.233 151.504C95.1914 151.562 95.1627 151.628 95.149 151.698C95.115 151.84 95.1349 151.989 95.2049 152.117C95.2749 152.245 95.39 152.343 95.5278 152.39C96.1734 152.657 96.7492 153.069 97.2111 153.593C97.673 154.117 98.0086 154.74 98.1921 155.414C98.2151 155.487 98.2523 155.554 98.3016 155.613C98.351 155.671 98.4114 155.719 98.4795 155.754Z" fill="#263238"/>
<path d="M84.4479 158.659C84.1279 159.534 83.3965 160.063 82.8153 159.848C82.2341 159.632 82.0252 158.757 82.3451 157.889C82.6651 157.02 83.3965 156.485 83.9712 156.7C84.5459 156.916 84.7614 157.791 84.4479 158.659Z" fill="#263238"/>
<path d="M83.7188 156.655L85.8868 156.609C85.8868 156.609 84.3587 157.85 83.7188 156.655Z" fill="#263238"/>
<path d="M95.4138 162.14C95.0938 163.009 94.3624 163.538 93.7877 163.329C93.2131 163.12 92.991 162.231 93.311 161.369C93.631 160.507 94.3624 159.972 94.9436 160.181C95.5248 160.39 95.7338 161.265 95.4138 162.14Z" fill="#263238"/>
<path d="M94.6875 160.129L96.849 160.083C96.849 160.083 95.3209 161.331 94.6875 160.129Z" fill="#263238"/>
<path d="M83.4196 164.831C82.7449 164.833 82.0774 164.693 81.4605 164.419C80.8078 164.12 80.228 163.682 79.7612 163.136C79.2944 162.591 78.9517 161.95 78.757 161.259C78.336 159.768 78.4511 158.178 79.0824 156.764C79.7137 155.35 80.821 154.202 82.2115 153.52C82.8557 153.198 83.5632 153.023 84.2832 153.007C85.0032 152.992 85.7177 153.136 86.3754 153.429C87.033 153.723 87.6174 154.158 88.0864 154.705C88.5555 155.251 88.8975 155.895 89.0879 156.589C89.5222 158.078 89.4039 159.674 88.7549 161.082C88.1422 162.514 87.0307 163.674 85.6269 164.348C84.9352 164.668 84.1818 164.833 83.4196 164.831ZM84.4449 153.762C83.7947 153.779 83.1558 153.935 82.5707 154.219C81.3443 154.826 80.368 155.841 79.8101 157.09C79.2522 158.34 79.1476 159.745 79.5145 161.063C79.6717 161.656 79.9597 162.207 80.3573 162.674C80.755 163.142 81.2523 163.515 81.8127 163.765C82.3731 164.016 82.9825 164.138 83.5962 164.122C84.2098 164.106 84.8122 163.954 85.3591 163.675C86.5952 163.083 87.5761 162.065 88.1215 160.808L88.461 160.958L88.1215 160.808C88.6956 159.561 88.7999 158.149 88.4153 156.831C88.2515 156.241 87.961 155.694 87.5639 155.229C87.1669 154.763 86.673 154.389 86.1166 154.134C85.5937 153.888 85.0228 153.761 84.4449 153.762Z" fill="#263238"/>
<path d="M94.2823 168.161C93.6072 168.167 92.9389 168.027 92.3232 167.75C91.6702 167.45 91.09 167.012 90.6222 166.466C90.1544 165.921 89.8102 165.28 89.6131 164.589C89.1952 163.098 89.3126 161.508 89.9448 160.094C90.577 158.681 91.6842 157.533 93.0742 156.851C93.7177 156.527 94.425 156.351 95.1449 156.335C95.8649 156.319 96.5794 156.463 97.2369 156.756C97.8944 157.05 98.4784 157.486 98.9466 158.033C99.4148 158.581 99.7555 159.225 99.9441 159.92C100.384 161.408 100.268 163.004 99.6176 164.413C99.1767 165.48 98.4406 166.4 97.4956 167.064C96.5506 167.728 95.436 168.108 94.2823 168.161ZM95.3206 157.06C94.6613 157.064 94.0108 157.211 93.4137 157.491C92.1786 158.087 91.1985 159.106 90.6514 160.364C90.0737 161.608 89.9692 163.019 90.3575 164.334C90.5213 164.925 90.8118 165.473 91.2088 165.94C91.6058 166.407 92.0997 166.781 92.6562 167.038C94.9418 168.063 97.776 166.731 98.9645 164.08C99.5358 162.832 99.64 161.421 99.2584 160.103C99.0934 159.514 98.8024 158.967 98.4055 158.502C98.0086 158.036 97.5153 157.662 96.9597 157.406C96.4408 157.19 95.8827 157.083 95.3206 157.092V157.06Z" fill="#263238"/>
<path d="M89.6161 161.35C89.6018 161.303 89.5774 161.26 89.5446 161.224C89.5119 161.188 89.4717 161.16 89.4267 161.141C89.1399 161.091 88.8446 161.134 88.5843 161.265L88.2578 160.612C88.7014 160.385 89.2136 160.332 89.6945 160.462C89.8452 160.515 89.982 160.601 90.095 160.714C90.208 160.827 90.2943 160.964 90.3475 161.115L89.6161 161.35Z" fill="#263238"/>
<path d="M71.7624 154.362L71.5391 155.077L80.3785 157.839L80.6019 157.124L71.7624 154.362Z" fill="#263238"/>
<path opacity="0.2" d="M69.6895 223.088C69.6895 223.088 52.5082 236.253 37.4297 235.496C38.0435 226.523 39.0753 214.598 40.5643 205.665C42.1054 203.967 43.1176 202.935 43.1176 202.935L52.2601 209.773L50.0332 212.568C50.0332 212.568 63.871 211.862 68.6904 212.568L69.6895 223.088Z" fill="black"/>
<path d="M71.4623 212.535L85.2151 209.727L85.7049 221.991C85.7049 221.991 76.3731 225.295 71.0312 219.111L71.4623 212.535Z" fill="#EBB376"/>
<path d="M94.7922 212.574L92.9768 221.795L85.7085 221.997L85.2188 209.733L94.7922 212.574Z" fill="#EBB376"/>
<path d="M71.4621 212.535L72.1347 221.997L68.7128 223.532L67.25 212.535H71.4621Z" fill="#407BFF"/>
<path opacity="0.6" d="M71.4621 212.535L72.1347 221.997L68.7128 223.532L67.25 212.535H71.4621Z" fill="white"/>
<path d="M49.6218 190.645C45.9315 191.297 42.5897 193.23 40.1855 196.104C36.0387 200.976 21.4238 215.447 24.6694 227.261C27.915 239.074 59.1692 230.284 68.7165 223.532L67.2537 212.535L45.6057 214.122L52.2797 209.727C56.8574 196.993 49.6218 190.645 49.6218 190.645Z" fill="#407BFF"/>
<path opacity="0.7" d="M49.6218 190.645C45.9315 191.297 42.5897 193.23 40.1855 196.104C36.0387 200.976 21.4238 215.447 24.6694 227.261C27.915 239.074 59.1692 230.284 68.7165 223.532L67.2537 212.535L45.6057 214.122L52.2797 209.727C56.8574 196.993 49.6218 190.645 49.6218 190.645Z" fill="white"/>
<path d="M112.32 222.657L116.258 221.997V232.55L113.137 233.06L112.32 222.657Z" fill="#407BFF"/>
<path opacity="0.6" d="M112.32 222.657L116.258 221.997V232.55L113.137 233.06L112.32 222.657Z" fill="white"/>
<path d="M104.358 232.446C104.347 231.868 104.375 231.289 104.443 230.715L104.56 229.847L103.718 230.343L103.215 230.643C103.05 230.718 102.879 230.781 102.706 230.833C102.408 230.927 102.089 230.927 101.791 230.833C101.504 230.727 101.251 230.544 101.06 230.304C100.839 230.039 100.665 229.739 100.544 229.416L99.8061 227.359L99.2837 229.54C99.2314 229.755 99.1988 229.977 99.1596 230.193C99.1204 230.408 99.029 230.598 98.9702 230.8C98.8452 231.126 98.6355 231.412 98.3629 231.629C98.0581 231.786 97.7039 231.817 97.3768 231.714C96.9651 231.606 96.5728 231.435 96.2144 231.205L95.0781 230.493L95.5352 231.649C95.733 232.14 95.8903 232.647 96.0054 233.164C96.0627 233.422 96.0976 233.684 96.1099 233.948C96.1387 234.216 96.0791 234.487 95.9401 234.718C96.1693 234.534 96.3265 234.275 96.3842 233.987C96.4589 233.706 96.4984 233.416 96.5017 233.125C96.5149 232.897 96.5149 232.668 96.5017 232.439C96.6917 232.547 96.888 232.643 97.0895 232.727C97.386 232.848 97.7045 232.907 98.0248 232.899C98.3452 232.891 98.6604 232.817 98.9506 232.681C99.5027 232.371 99.9333 231.883 100.172 231.296V231.212C100.525 231.614 100.998 231.891 101.522 232.003C102.046 232.115 102.591 232.055 103.078 231.832C103.27 231.745 103.455 231.645 103.633 231.532C103.633 231.532 103.633 231.577 103.633 231.603C103.68 231.911 103.743 232.216 103.822 232.518C103.902 232.822 104.011 233.117 104.149 233.399C104.279 233.684 104.474 233.934 104.717 234.131C104.57 233.875 104.475 233.593 104.436 233.301C104.391 233.018 104.365 232.732 104.358 232.446Z" fill="#407BFF"/>
<path d="M127.719 217.713C127.21 217.763 126.697 217.707 126.21 217.55C125.709 217.401 125.232 217.181 124.793 216.897C124.377 216.588 124.02 216.205 123.742 215.767C123.447 215.333 123.212 214.86 123.043 214.363L122.612 213.057L121.881 214.213C121.568 214.698 121.19 215.137 120.758 215.519C120.406 215.867 119.944 216.079 119.452 216.12H119.295L119.099 216.081C118.962 216.081 118.831 216.015 118.694 215.983C118.421 215.893 118.157 215.779 117.904 215.643C117.393 215.357 116.921 215.006 116.5 214.598L115.364 213.508L115.599 215.003C115.73 215.801 115.78 216.611 115.749 217.419C115.736 217.8 115.659 218.175 115.52 218.53C115.459 218.685 115.346 218.814 115.202 218.897C115.057 218.98 114.888 219.012 114.724 218.987H114.43L114.521 219.228C114.713 219.72 114.909 220.21 115.109 220.698C115.05 220.26 114.978 219.823 114.9 219.392H115.024C115.154 219.382 115.283 219.36 115.409 219.326C115.529 219.264 115.645 219.195 115.755 219.117C115.84 219.026 115.932 218.928 116.01 218.83C116.261 218.433 116.427 217.988 116.5 217.524C116.582 217.093 116.63 216.656 116.643 216.218C116.852 216.391 117.07 216.552 117.297 216.701C117.603 216.89 117.927 217.049 118.263 217.178C118.622 217.327 119.004 217.413 119.393 217.432C120.201 217.421 120.976 217.114 121.574 216.57C121.83 216.355 122.068 216.12 122.286 215.865C122.414 216.09 122.553 216.308 122.704 216.518C123.094 217.058 123.581 217.52 124.14 217.883C124.698 218.222 125.31 218.46 125.949 218.588C126.36 218.668 126.779 218.699 127.196 218.68C127.144 218.81 127.085 218.941 127.04 219.078C126.925 219.455 126.836 219.839 126.772 220.227C126.703 220.617 126.685 221.015 126.72 221.409C126.74 221.803 126.859 222.185 127.066 222.52C126.954 222.163 126.924 221.785 126.981 221.416C127.03 221.049 127.115 220.688 127.236 220.338C127.486 219.656 127.804 219 128.183 218.379L128.594 217.681L127.719 217.713Z" fill="#407BFF"/>
<path d="M258.374 256.308H29.3551C28.5861 256.308 27.8486 256.002 27.3049 255.458C26.7611 254.915 26.4556 254.177 26.4556 253.408V246.355L261.273 246.355V253.408C261.273 254.177 260.968 254.915 260.424 255.458C259.88 256.002 259.143 256.308 258.374 256.308Z" fill="#407BFF"/>
<path opacity="0.2" d="M26.4491 251.325L261.273 251.325V246.349L26.4491 246.349V251.325Z" fill="black"/>
<path d="M21.5268 247.648H266.192C266.936 247.648 267.649 247.353 268.176 246.828C268.702 246.303 268.999 245.59 269 244.847C269 244.102 268.705 243.388 268.178 242.861C267.651 242.335 266.937 242.039 266.192 242.039H21.5268C20.7821 242.039 20.0678 242.335 19.5412 242.861C19.0146 243.388 18.7188 244.102 18.7188 244.847C18.7205 245.59 19.0171 246.303 19.5435 246.828C20.0699 247.353 20.7832 247.648 21.5268 247.648Z" fill="#407BFF"/>
<path d="M249.606 207.768L242.462 240.171C242.332 240.69 242.034 241.152 241.615 241.485C241.196 241.818 240.679 242.003 240.144 242.013H201.119C200.876 242.007 200.638 241.944 200.423 241.83C200.208 241.717 200.023 241.555 199.881 241.358C199.74 241.16 199.646 240.933 199.606 240.693C199.567 240.453 199.584 240.208 199.656 239.975L206.787 207.82C206.933 207.33 207.244 206.905 207.665 206.616C208.087 206.328 208.596 206.192 209.105 206.233H248.131C249.175 206.259 249.835 206.736 249.606 207.768Z" fill="#263238"/>
<path opacity="0.4" d="M249.608 207.768L242.463 240.171C242.333 240.69 242.035 241.152 241.616 241.485C241.197 241.818 240.68 242.003 240.145 242.013H202.446C202.202 242.008 201.963 241.946 201.748 241.833C201.532 241.719 201.346 241.558 201.204 241.36C201.061 241.163 200.966 240.935 200.927 240.695C200.888 240.454 200.904 240.208 200.976 239.976L208.12 207.82C208.264 207.328 208.573 206.901 208.996 206.612C209.418 206.322 209.928 206.189 210.439 206.233H248.132C249.177 206.259 249.836 206.736 249.608 207.768Z" fill="white"/>
<path d="M243.387 241.014L250.492 208.78C250.727 207.722 250.068 207.245 249.016 207.245H211.323C210.813 207.203 210.305 207.338 209.882 207.627C209.46 207.916 209.15 208.342 209.005 208.832L201.789 241.438L243.387 241.014Z" fill="#407BFF"/>
<path opacity="0.4" d="M250.486 208.773L246.737 225.805L243.374 241.014L221.106 241.242L201.789 241.432L208.972 208.832C209.115 208.342 209.424 207.915 209.845 207.626C210.266 207.337 210.775 207.202 211.284 207.245H249.023C250.068 207.245 250.721 207.729 250.486 208.773Z" fill="white"/>
<path opacity="0.2" d="M246.743 225.805L243.38 241.014L221.111 241.242H202.617L205.641 227.333C205.738 226.902 205.978 226.516 206.322 226.239C206.665 225.962 207.093 225.809 207.535 225.805H246.743Z" fill="black"/>
<path d="M247.384 227.92C247.239 227.43 246.93 227.004 246.507 226.716C246.084 226.428 245.575 226.295 245.066 226.34H207.372C206.328 226.34 205.668 226.81 205.897 227.868L208.757 240.837H202.39C202.231 240.837 202.078 240.901 201.965 241.013C201.852 241.126 201.789 241.279 201.789 241.438C201.789 241.598 201.852 241.75 201.965 241.863C202.078 241.976 202.231 242.039 202.39 242.039H248.821C249.023 242.035 249.222 241.986 249.404 241.896C249.585 241.806 249.744 241.676 249.869 241.517C249.994 241.357 250.082 241.172 250.127 240.974C250.171 240.777 250.171 240.571 250.127 240.374L247.384 227.92Z" fill="#407BFF"/>
<path opacity="0.4" d="M247.384 227.92C247.239 227.43 246.93 227.004 246.507 226.716C246.084 226.428 245.575 226.295 245.066 226.34H207.372C206.328 226.34 205.668 226.81 205.897 227.868L208.757 240.837H202.39C202.231 240.837 202.078 240.901 201.965 241.013C201.852 241.126 201.789 241.279 201.789 241.438C201.789 241.598 201.852 241.75 201.965 241.863C202.078 241.976 202.231 242.039 202.39 242.039H248.821C249.023 242.035 249.222 241.986 249.404 241.896C249.585 241.806 249.744 241.676 249.869 241.517C249.994 241.357 250.082 241.172 250.127 240.974C250.171 240.777 250.171 240.571 250.127 240.374L247.384 227.92Z" fill="white"/>
<path d="M201.251 235.79H199.063L198.789 236.972H200.918L201.251 235.79Z" fill="black"/>
<path d="M187.432 242.189H181.13C181.081 242.19 181.032 242.181 180.987 242.163C180.941 242.144 180.9 242.117 180.865 242.082C180.83 242.047 180.803 242.006 180.784 241.96C180.766 241.915 180.757 241.866 180.758 241.817C180.758 241.718 180.797 241.624 180.867 241.554C180.937 241.484 181.031 241.445 181.13 241.445H187.432C188.466 241.447 189.487 241.216 190.42 240.769C191.352 240.323 192.173 239.672 192.819 238.865C193.536 237.97 194.446 237.248 195.48 236.753C196.515 236.257 197.648 236.002 198.795 236.005H199.905C200.003 236.007 200.097 236.046 200.166 236.116C200.236 236.185 200.275 236.279 200.277 236.377C200.277 236.476 200.238 236.571 200.168 236.64C200.098 236.71 200.004 236.749 199.905 236.749H198.808C197.774 236.747 196.753 236.978 195.82 237.425C194.887 237.871 194.067 238.522 193.42 239.329C192.702 240.226 191.79 240.949 190.753 241.444C189.716 241.939 188.581 242.194 187.432 242.189Z" fill="black"/>
<defs>
<clipPath id="clip0_940_5518">
<rect width="10.4485" height="10.4485" fill="white" transform="translate(39.6094 115.037)"/>
</clipPath>
</defs>
</svg>
