<svg width="285" height="285" viewBox="0 0 285 285" fill="none" xmlns="http://www.w3.org/2000/svg">
<rect width="285" height="285" fill="#F7F6BD"/>
<path d="M241.383 214.906C239.938 208.226 238.628 202.176 237.442 196.694L241.204 196.463L258.137 195.422C259.886 195.314 261.261 193.886 261.303 192.134L261.81 170.764C261.81 170.745 261.81 170.725 261.81 170.706C261.809 169.722 261.167 168.845 260.221 168.564C255.627 167.197 250.596 166.449 245.327 166.449C244.186 166.449 243.035 166.484 241.874 166.556C238.189 166.782 234.64 167.361 231.287 168.241C230.185 163.147 229.312 159.117 228.623 155.931L248.142 147.65C250.681 146.573 252.186 144.114 252.186 141.544C252.186 141.086 252.138 140.624 252.04 140.166C252.039 140.165 252.039 140.164 252.039 140.163C252.038 140.157 252.037 140.152 252.036 140.147C252.036 140.146 252.035 140.144 252.035 140.143C252.034 140.137 252.033 140.133 252.032 140.128C252.031 140.126 252.03 140.123 252.03 140.12C252.029 140.117 252.028 140.113 252.028 140.109C252.026 140.106 252.026 140.103 252.025 140.1C252.025 140.098 252.025 140.098 252.025 140.096C251.908 139.582 251.728 139.074 251.481 138.58C251.462 138.543 251.443 138.505 251.424 138.466C251.406 138.43 251.388 138.393 251.369 138.357C251.362 138.343 251.355 138.329 251.349 138.316C247.414 130.471 240.987 117.765 238.043 112.557C238.038 112.549 238.033 112.539 238.028 112.531C238.027 112.528 238.025 112.526 238.023 112.523C238.02 112.517 238.017 112.511 238.014 112.506C238.012 112.502 238.01 112.499 238.008 112.496C238.005 112.489 238.001 112.484 237.998 112.478C237.997 112.476 237.995 112.473 237.994 112.47C237.989 112.462 237.985 112.455 237.981 112.448C237.98 112.447 237.979 112.445 237.979 112.444C237.974 112.436 237.969 112.427 237.964 112.419C237.962 112.416 237.961 112.413 237.96 112.41C237.956 112.404 237.953 112.399 237.949 112.393C237.947 112.39 237.945 112.386 237.944 112.383C237.941 112.378 237.938 112.372 237.934 112.367C237.932 112.364 237.931 112.36 237.929 112.357C237.925 112.351 237.922 112.345 237.919 112.339C237.917 112.336 237.916 112.334 237.914 112.332C237.91 112.324 237.905 112.315 237.901 112.307C237.899 112.304 237.897 112.301 237.895 112.298C237.892 112.293 237.889 112.287 237.886 112.282C237.884 112.278 237.882 112.275 237.879 112.271C237.877 112.266 237.874 112.261 237.871 112.256C237.869 112.253 237.867 112.249 237.865 112.245C237.862 112.24 237.859 112.235 237.856 112.23C237.854 112.227 237.852 112.223 237.851 112.22C237.846 112.212 237.842 112.205 237.836 112.197C237.834 112.193 237.833 112.19 237.831 112.186C237.828 112.181 237.825 112.177 237.823 112.172C237.82 112.167 237.818 112.164 237.816 112.16C237.813 112.156 237.81 112.151 237.808 112.147C237.805 112.143 237.803 112.139 237.801 112.134C237.799 112.13 237.796 112.126 237.794 112.123C237.791 112.118 237.789 112.114 237.786 112.11C237.784 112.106 237.781 112.101 237.779 112.097C237.775 112.09 237.77 112.082 237.766 112.074C237.763 112.07 237.761 112.067 237.759 112.063C237.757 112.058 237.754 112.054 237.751 112.049C237.749 112.046 237.747 112.042 237.745 112.038C237.742 112.034 237.74 112.029 237.737 112.025C237.735 112.021 237.733 112.018 237.731 112.014C237.728 112.01 237.725 112.005 237.722 112C237.722 111.999 237.721 111.997 237.72 111.996C237.714 111.985 237.707 111.973 237.7 111.962C237.699 111.959 237.697 111.957 237.696 111.955C237.693 111.95 237.69 111.945 237.687 111.94C237.685 111.937 237.684 111.934 237.682 111.931C237.679 111.926 237.675 111.92 237.673 111.916C237.672 111.913 237.67 111.91 237.669 111.908C237.665 111.903 237.662 111.897 237.659 111.892C237.659 111.891 237.658 111.89 237.657 111.89C237.65 111.877 237.644 111.866 237.636 111.854C237.635 111.851 237.634 111.849 237.633 111.847C237.629 111.842 237.626 111.836 237.623 111.832C237.622 111.829 237.62 111.827 237.619 111.824C237.616 111.819 237.612 111.813 237.609 111.808C237.608 111.806 237.607 111.803 237.605 111.801C237.602 111.796 237.599 111.79 237.595 111.784V111.783C237.583 111.763 237.57 111.742 237.559 111.722C237.558 111.721 237.557 111.72 237.556 111.719C237.553 111.712 237.549 111.706 237.545 111.7C237.545 111.699 237.544 111.697 237.543 111.697C237.539 111.69 237.535 111.684 237.532 111.677H237.531C237.519 111.657 237.507 111.635 237.494 111.614V111.614C237.49 111.607 237.486 111.601 237.482 111.594C237.481 111.594 237.481 111.592 237.48 111.592C237.476 111.585 237.472 111.579 237.468 111.572C237.19 111.109 236.916 110.676 236.648 110.269C237.37 106.723 237.647 101.742 235.221 97.3295C233.793 94.7334 232.882 92.358 232.302 90.3371L232.417 90.2968C232.399 90.2475 232.38 90.2014 232.359 90.1566C232.638 89.2854 232.842 88.4369 232.938 87.6501C232.966 87.4183 232.99 87.1956 233.01 86.982C233.415 82.6727 232.209 81.8917 232.113 81.8365C232.109 81.8346 232.107 81.8333 232.107 81.8333C232.107 81.8333 230.97 79.5351 227.88 78.1511C226.548 77.5545 224.854 77.1279 222.732 77.1279C222.153 77.1279 221.545 77.1591 220.902 77.2279C220.198 77.3032 219.512 77.4487 218.846 77.6583C218.839 77.6609 218.831 77.6635 218.824 77.6655C218.823 77.6661 218.821 77.6668 218.819 77.6668C218.814 77.6687 218.809 77.6707 218.804 77.672C218.801 77.6726 218.799 77.6739 218.796 77.6746C218.791 77.6765 218.786 77.6778 218.781 77.6797C218.775 77.681 218.771 77.6824 218.766 77.6843C218.764 77.685 218.762 77.6856 218.76 77.6862C218.755 77.6882 218.75 77.6895 218.746 77.6908C218.745 77.6908 218.745 77.6908 218.745 77.6915C211.447 80.0733 206.606 90.2228 207.003 100.124C207.056 101.445 207.204 102.743 207.424 104.006C204.879 105.05 201.627 106.912 198.795 110.187C193.348 116.487 183.659 126.859 182.937 127.632L182.894 127.677L172.413 116.587V72.731C172.413 65.8976 166.873 60.358 160.04 60.358H147.263H65.193C58.3596 60.358 52.8199 65.8976 52.8199 72.731V109.772C50.2543 106.638 47.2071 103.723 43.5889 101.219C41.2893 99.6283 39.6222 98.9116 38.4854 98.9116C33.4724 98.9116 38.7623 112.837 45.4837 127.081C38.9768 120.878 30.3684 115.223 19.6205 113.33C18.3008 113.097 17.1969 112.987 16.2916 112.987C16.2327 112.987 16.1747 112.987 16.1174 112.988C16.4103 107.592 17.1446 102.273 18.3477 97.1283C23.751 74.0202 40.5027 55.3014 63.9601 48.1941C74.3144 45.0565 85.0982 44.6469 95.9462 44.6469C97.8639 44.6469 99.7816 44.6592 101.701 44.6722C103.62 44.6852 105.539 44.6975 107.456 44.6975C120.416 44.6975 133.287 44.1139 145.456 38.9963C156.615 34.3033 168.621 32.0973 180.682 32.0973C209.457 32.0973 238.547 44.6547 257.206 65.9566C280.682 92.7592 286.365 135.978 278.995 169.465C275.271 186.389 265.473 202.688 249.878 211.209C247.159 212.694 244.315 213.919 241.383 214.906ZM185.265 212.233C181.992 211.268 178.713 210.281 175.392 209.354C174.38 209.072 173.388 208.839 172.413 208.651V143.933V133.272L176.124 137.382C177.788 139.464 180.472 140.529 183.166 140.529C185.534 140.529 187.908 139.708 189.61 138.031L206.881 121.022L209.502 111.28C211.621 116.679 214.308 120.345 214.308 120.345L224.721 117.682L223.905 119.668L228.072 118.483L240.752 140.155C240.752 140.155 233.212 143.925 226.713 147.103C226.016 143.879 226.016 143.879 226.016 143.879L210.199 144.726L204.858 143.879L185.265 212.233ZM35.1938 179.679C34.3435 178.605 33.5305 177.507 32.7565 176.382C35.4225 177.447 37.0389 178.448 36.338 179.162C36.1072 179.397 35.7151 179.566 35.1938 179.679ZM52.8199 169.835C50.6798 168.214 51.1911 152.37 51.1911 152.37L42.3103 148.386C42.3103 148.386 47.3435 168.725 44.838 168.725C44.7554 168.725 44.6644 168.703 44.5647 168.657C41.4491 167.224 37.611 149.285 37.611 149.285L21.5556 152.357L21.4636 152.531C18.1192 142.274 16.2246 131.405 15.9941 120.665C23.4745 129.833 42.8411 144.867 52.8199 152.366V169.835Z" fill="#E8E8E8"/>
<path d="M203 25.1816H277.829L266.955 21.5118C266.955 21.5118 265.555 14.381 261.894 14.381C258.233 14.381 255.757 18.7851 255.757 18.7851C255.757 18.7851 255.865 3.99977 246.498 3.99977C237.131 3.99977 235.085 18.4703 235.085 18.4703C235.085 18.4703 232.824 11.235 227.763 11.235C222.703 11.235 220.765 20.4627 220.765 20.4627L203 25.1816Z" fill="#FAB719"/>
<path d="M54 26H99L92.4603 23.7477C92.4603 23.7477 91.6186 19.3713 89.4171 19.3713C87.2156 19.3713 85.7266 22.0743 85.7266 22.0743C85.7266 22.0743 85.7914 13 80.1583 13C74.5251 13 73.295 21.881 73.295 21.881C73.295 21.881 71.9352 17.4405 68.892 17.4405C65.8488 17.4405 64.6834 23.1038 64.6834 23.1038L54 26Z" fill="#FAB719"/>
<path d="M47.8262 274.19C47.8262 276.847 96.5909 279 156.745 279C216.9 279 265.665 276.847 265.665 274.19C265.665 271.534 216.9 269.381 156.745 269.381C96.5909 269.381 47.8262 271.534 47.8262 274.19Z" fill="#505266"/>
<path d="M150.664 260.292C150.664 260.292 193.919 257.403 190.018 245.076C186.119 232.748 166.755 245.453 166.755 245.453C166.755 245.453 181.951 234.483 182.471 221.939C182.991 209.395 154.252 242.321 154.252 242.321C154.252 242.321 162.897 231.483 162.235 218.405C161.572 205.327 142.006 225.678 150.664 260.292Z" fill="#F2A71E"/>
<path d="M172.414 231.726V229.276C174.888 226.379 176.681 224.424 177.01 224.424C177.208 224.424 176.877 225.13 175.847 226.765C174.825 228.388 173.662 230.055 172.414 231.726Z" fill="#D2931F"/>
<path d="M172.414 250.614V248.987L184.04 245.922C182.666 247.749 177.812 249.346 172.414 250.614Z" fill="#D2931F"/>
<path d="M60.7317 147.898C60.7317 147.898 47.2368 118.193 19.6228 113.33C-7.99095 108.466 58.9662 156.915 58.9662 156.915L60.7317 147.898Z" fill="#FAB818"/>
<path d="M52.8176 146.368C44.9007 137.805 32.0214 124.406 25.4044 120.4C30.9984 123.358 43.4345 130.737 52.7646 141.723C52.7821 141.756 52.8004 141.791 52.8176 141.825V146.368ZM25.4044 120.4C24.6726 120.014 24.0581 119.702 23.5826 119.468C23.6972 119.519 23.8207 119.573 23.9539 119.632C24.3943 119.824 24.8797 120.083 25.4044 120.4ZM23.5826 119.468C22.7917 119.118 22.4405 118.946 22.4597 118.946C22.4792 118.946 22.8781 119.122 23.5826 119.468Z" fill="#DD9E15"/>
<path d="M66.497 149.8C66.497 149.8 66.645 117.173 43.5875 101.219C20.5303 85.2646 61.1261 157.255 61.1261 157.255L66.497 149.8Z" fill="#FAB818"/>
<path d="M52.823 124.863C50.4184 118.669 47.9553 113.102 45.8923 110.058C47.5964 112.284 50.1589 115.86 52.823 120.36V124.863ZM45.8923 110.058C45.3917 109.405 44.9652 108.868 44.632 108.458C44.7138 108.551 44.8026 108.651 44.8979 108.758C45.217 109.116 45.549 109.552 45.8923 110.058ZM44.632 108.458C44.0642 107.815 43.8157 107.51 43.8265 107.51C43.8374 107.51 44.1283 107.839 44.632 108.458Z" fill="#DD9E15"/>
<path d="M63.7076 198.687C63.7076 198.687 51.2484 220.555 30.8136 204.98C43.8859 203.291 46.2116 196.351 46.2116 196.351C46.2116 196.351 29.9215 208.804 18.4761 193.539C32.0153 192.166 35.4987 187.035 35.4987 187.035C35.4987 187.035 22.1435 185.125 17.2774 187.273C12.4115 189.422 13.2214 176.683 13.2214 176.683C13.2214 176.683 33.8878 181.66 36.3396 179.161C38.7913 176.662 12.8809 170.659 12.8809 170.659L13.7152 164.411C13.7152 164.411 31.552 172.77 26.4371 167.254C21.3224 161.737 16.79 161.387 16.79 161.387L21.5573 152.357L37.6126 149.285C37.6126 149.285 41.4507 167.223 44.5663 168.656C47.6822 170.09 42.3119 148.385 42.3119 148.385L51.1927 152.369C51.1927 152.369 50.6652 168.708 52.9229 169.9C55.1806 171.091 55.3914 155.219 55.3914 155.219C55.3914 155.219 61.456 159.337 60.2545 172.15C62.5119 173.342 67.337 166.735 65.8218 160.937C74.8834 180.717 70.8656 193.664 63.7076 198.687Z" fill="#C5C6C8"/>
<path d="M52.823 186.089C40.3925 172.611 28.1309 161.248 28.1309 161.248C28.1309 161.248 42.4025 170.401 52.823 182.201V186.089Z" fill="#858896"/>
<path d="M40.6039 184.486C36.7331 184.486 32.4238 183.688 32.4238 183.688L46.5427 182.568C46.0468 184.057 43.4436 184.486 40.6039 184.486Z" fill="#858896"/>
<path d="M38.0977 193.54L52.0989 188.884C52.1248 192.49 38.0977 193.54 38.0977 193.54Z" fill="#858896"/>
<path d="M49.0395 204.841C48.9335 204.686 48.827 204.532 48.7207 204.382C50.3351 203.287 51.6989 202.096 52.8206 200.959V202.686C51.6573 203.522 50.3513 204.26 49.0395 204.841Z" fill="#858896"/>
<path d="M49.2064 173.757C47.7348 173.643 48.2412 170.779 48.494 161.769C51.2658 167.301 49.2064 173.757 49.2064 173.757Z" fill="#858896"/>
<path d="M38.4423 164.351C34.5122 163.202 35.966 156.917 35.966 156.917L38.4423 164.351Z" fill="#858896"/>
<path d="M58.5868 257.624C58.5868 257.624 -0.229798 260.37 3.13941 243.135C6.50837 225.899 34.5916 240.069 34.5916 240.069C34.5916 240.069 12.3995 227.601 9.77083 210.752C7.14184 193.903 50.9842 233.922 50.9842 233.922C50.9842 233.922 37.6519 220.624 36.5369 202.874C35.4218 185.123 64.9533 209.58 58.5868 257.624Z" fill="#F2A71E"/>
<path d="M52.8205 247.27C47.043 242.793 29.5011 228.791 19.4505 216.249C17.7803 214.165 17.2343 213.268 17.5361 213.268C19.1644 213.268 45.4534 239.45 52.8205 246.818V247.27Z" fill="#D2931F"/>
<path d="M52.6682 249.371C52.6682 249.371 16.7927 249.121 11.3359 243.361L52.6682 249.371Z" fill="#D2931F"/>
<path d="M52.821 228.22L42.8535 206.291C46.5998 208.64 50.1958 216.667 52.821 223.971V228.22Z" fill="#D2931F"/>
<path d="M65.1935 273.282H147.263C154.097 273.282 159.636 267.743 159.636 260.909V72.7308C159.636 65.8974 154.097 60.3578 147.263 60.3578H65.1935C58.36 60.3578 52.8203 65.8974 52.8203 72.7308V260.909C52.8203 267.743 58.36 273.282 65.1935 273.282Z" fill="#25252D"/>
<path d="M70.3735 272.346V272.648H152.443C155.942 272.649 159.112 271.238 161.406 268.96C163.7 266.681 165.119 263.529 165.119 260.05V73.0579C165.119 69.5796 163.7 66.4277 161.406 64.1491C159.112 61.8698 155.942 60.4597 152.443 60.4597H70.3735C66.8744 60.4597 63.7038 61.8698 61.4106 64.1491C59.1171 66.4277 57.697 69.5796 57.6973 73.0579V260.05C57.697 263.529 59.1171 266.681 61.4106 268.96C63.7038 271.238 66.8744 272.649 70.3735 272.648V272.346V272.043C67.0388 272.043 64.0225 270.701 61.8376 268.53C59.6532 266.358 58.3031 263.362 58.3031 260.05V73.0579C58.3031 69.7458 59.6532 66.7497 61.8376 64.5782C64.0228 62.4079 67.0388 61.0654 70.3735 61.0654H152.443C155.778 61.0654 158.794 62.4079 160.979 64.5782C163.163 66.7497 164.513 69.7458 164.514 73.0579V260.05C164.513 263.362 163.163 266.358 160.979 268.53C158.794 270.701 155.778 272.043 152.443 272.043H70.3735V272.346Z" fill="#8586A3"/>
<path d="M77.9709 273.282H160.041C166.874 273.282 172.414 267.743 172.414 260.909V72.7308C172.414 65.8974 166.874 60.3578 160.041 60.3578H77.9709C71.1375 60.3578 65.5977 65.8974 65.5977 72.7308V260.909C65.5977 267.743 71.1375 273.282 77.9709 273.282Z" fill="#505266"/>
<path d="M74.3867 261.048H163.626C166.795 261.048 169.363 258.48 169.363 255.312V71.5342C169.363 68.3661 166.795 65.7979 163.626 65.7979H74.3867C71.2186 65.7979 68.6504 68.3661 68.6504 71.5342V255.312C68.6504 258.48 71.2186 261.048 74.3867 261.048Z" fill="#FFFFFD"/>
<path d="M114.926 266.994C114.926 269.249 116.753 271.076 119.007 271.076C121.262 271.076 123.089 269.249 123.089 266.994C123.089 264.74 121.262 262.913 119.007 262.913C116.753 262.913 114.926 264.74 114.926 266.994Z" fill="white"/>
<path d="M59.3821 91.22C60.9046 91.22 62.1391 92.4548 62.1391 93.9772V110.175C62.1391 111.697 60.9046 112.932 59.3821 112.932H56.625V110.175V93.9772V91.22H59.3821Z" fill="#505266"/>
<path d="M53.8633 110.175C53.8633 111.697 55.0975 112.932 56.6201 112.932C58.1426 112.932 59.3771 111.697 59.3771 110.175V93.9772C59.3771 92.4548 58.1426 91.22 56.6201 91.22C55.0975 91.22 53.8633 92.4548 53.8633 93.9772V110.175Z" fill="#9E9DA6"/>
<path d="M59.3821 117.067C60.9046 117.067 62.1391 118.301 62.1391 119.824V136.022C62.1391 137.544 60.9046 138.778 59.3821 138.778H56.625V136.022V119.824V117.067H59.3821Z" fill="#505266"/>
<path d="M53.8633 136.022C53.8633 137.544 55.0975 138.778 56.6201 138.778C58.1426 138.778 59.3771 137.544 59.3771 136.022V119.824C59.3771 118.301 58.1426 117.067 56.6201 117.067C55.0975 117.067 53.8633 118.301 53.8633 119.824V136.022Z" fill="#9E9DA6"/>
<path d="M79.8167 192.191H156.979C160.076 192.191 162.587 189.681 162.587 186.584V84.7714C162.587 81.674 160.076 79.1636 156.979 79.1636H79.8167C76.7194 79.1636 74.209 81.674 74.209 84.7714V186.584C74.209 189.681 76.7194 192.191 79.8167 192.191Z" fill="#E8E8E8"/>
<path d="M77.9399 255.149H158.856C160.917 255.149 162.587 253.479 162.587 251.419V199.368C162.587 197.308 160.917 195.637 158.856 195.637H77.9399C75.8794 195.637 74.209 197.308 74.209 199.368V251.419C74.209 253.479 75.8794 255.149 77.9399 255.149Z" fill="#E8E8E8"/>
<path d="M148.956 66.9054C148.956 69.7112 146.682 71.9854 143.876 71.9854H94.4335C91.6283 71.9854 89.3535 69.7112 89.3535 66.9054C89.3535 64.1003 91.6283 61.8261 94.4335 61.8261H143.876C146.682 61.8261 148.956 64.1003 148.956 66.9054Z" fill="#505266"/>
<path d="M82.6895 87.1816H92.7961V86.1361H82.6895V87.1816Z" fill="#505266"/>
<path d="M82.6895 90.8252H92.7961V89.7796H82.6895V90.8252Z" fill="#505266"/>
<path d="M82.6895 94.4688H92.7961V93.4232H82.6895V94.4688Z" fill="#505266"/>
<path d="M131.68 87.5805C131.68 85.4888 126.689 84.317 126.689 87.5805C126.689 92.7682 131.68 95.0547 131.68 95.0547C131.68 95.0547 136.672 92.7682 136.672 87.5805C136.672 84.317 131.68 85.4888 131.68 87.5805Z" fill="#505266"/>
<path d="M152.53 92.8271H144.504L143.789 86.6592H153.247L152.53 92.8271Z" fill="#505266"/>
<path d="M147.631 94.0605C147.631 94.7421 147.079 95.2939 146.398 95.2939C145.717 95.2939 145.164 94.7421 145.164 94.0605C145.164 93.3788 145.717 92.827 146.398 92.827C147.079 92.827 147.631 93.3788 147.631 94.0605Z" fill="#505266"/>
<path d="M151.88 94.0605C151.88 94.7421 151.327 95.2939 150.646 95.2939C149.965 95.2939 149.412 94.7421 149.412 94.0605C149.412 93.3788 149.965 92.827 150.646 92.827C151.327 92.827 151.88 93.3788 151.88 94.0605Z" fill="#505266"/>
<path d="M155.855 88.001H151.881V86.6578H155.855V88.001Z" fill="#505266"/>
<path d="M157.238 213.936H78.8633V200.607H157.238V213.936Z" fill="#FAB818"/>
<path d="M78.8633 236.403H97.2925V217.975H78.8633V236.403Z" fill="#9396A3"/>
<path d="M102.195 236.403H120.625V217.975H102.195V236.403Z" fill="#B9BAC2"/>
<path d="M125.381 236.403H143.809V217.975H125.381V236.403Z" fill="#D1D2D6"/>
<path d="M149.43 222.045V231.82L157.234 226.933L149.43 222.045Z" fill="#505266"/>
<path d="M78.8633 242.917H157.238V242.306H78.8633V242.917Z" fill="#505266"/>
<path d="M78.8633 248.167H157.238V247.556H78.8633V248.167Z" fill="#505266"/>
<path d="M89.803 207.878H144.002C144.336 207.878 144.608 207.607 144.608 207.272C144.608 206.937 144.336 206.667 144.002 206.667H89.803C89.4686 206.667 89.1973 206.937 89.1973 207.272C89.1973 207.607 89.4686 207.878 89.803 207.878Z" fill="#25252D"/>
<path d="M97.2899 66.6819C97.2899 67.9225 96.2837 68.9287 95.0424 68.9287C93.8012 68.9287 92.7949 67.9225 92.7949 66.6819C92.7949 65.4406 93.8012 64.4343 95.0424 64.4343C96.2837 64.4343 97.2899 65.4406 97.2899 66.6819Z" fill="white"/>
<path d="M134.912 114.996H157.882V104.321H134.912V114.996Z" fill="#FAB818"/>
<path d="M139.306 109.964H153.09C153.259 109.964 153.396 109.828 153.396 109.659C153.396 109.49 153.259 109.353 153.09 109.353H139.306C139.137 109.353 139 109.49 139 109.659C139 109.828 139.137 109.964 139.306 109.964Z" fill="#505266"/>
<path d="M172.413 143.933C172.413 143.933 172.413 143.932 169.361 139.786V129.891L172.413 133.272V143.933Z" fill="#18171F"/>
<path d="M169.364 139.786C167.909 137.809 165.76 134.889 162.586 130.577V122.383L169.364 129.891V139.786Z" fill="#505265"/>
<path d="M162.587 130.577C161.219 128.718 159.66 126.6 157.883 124.186C155.297 123.026 151.896 120.735 149.836 114.996H152.854C153.303 116.675 154.019 118.373 155.137 118.894C157.563 120.022 161.067 120.699 161.067 120.699L162.587 122.383V130.577Z" fill="#494B5D"/>
<path d="M152.851 114.996H149.833C149.685 114.585 149.544 114.155 149.411 113.707C147.191 113.619 145.329 110.844 144.793 109.964H145.192C145.339 110.606 146.013 111.09 146.821 111.09H152.169C152.169 111.09 152.326 113.031 152.851 114.996Z" fill="#503D17"/>
<path d="M145.194 109.964H144.796C144.695 109.798 144.641 109.7 144.641 109.7H145.165C145.165 109.79 145.175 109.879 145.194 109.964Z" fill="#18171F"/>
<path d="M118.359 182.271C101.892 182.271 88.543 180.166 88.543 177.57C88.543 174.974 101.892 172.87 118.359 172.87C134.826 172.87 148.175 174.974 148.175 177.57C148.175 180.166 134.826 182.271 118.359 182.271Z" fill="#B1B3BB"/>
<path d="M228.785 219.673L230.56 274.189H210.199C210.199 274.189 210.283 270.166 215.484 267.822C214.464 219.744 214.464 219.744 214.464 219.744L228.785 219.673Z" fill="#F36068"/>
<path d="M210.2 219.673L206.091 274.189H184.881C184.881 274.189 186.707 268.61 192.497 267.822C196.109 214.144 196.109 214.144 196.109 214.144L210.2 219.673Z" fill="#F36068"/>
<path d="M228.782 219.673L214.461 219.745C214.461 219.745 214.462 219.751 214.719 231.916C218.98 232.938 223.803 233.725 229.254 234.158L228.782 219.673Z" fill="#0A0805"/>
<path d="M195.447 223.957C198.967 226.257 203.534 228.563 209.388 230.433L210.199 219.673L196.108 214.144C196.108 214.144 196.107 214.149 195.447 223.957Z" fill="#0A0805"/>
<path d="M204.859 143.878L184.881 213.577C184.881 213.577 207.907 236.152 242.22 218.769C226.017 143.878 226.017 143.878 226.017 143.878L210.2 144.725L204.859 143.878Z" fill="#505266"/>
<path d="M232.107 81.8326C232.107 81.8326 229.384 76.3242 220.902 77.2273C212.421 78.1303 206.568 89.2763 207.003 100.123C207.438 110.97 214.308 120.345 214.308 120.345L235.221 114.995C235.221 114.995 239.575 105.245 235.221 97.3289C230.868 89.4126 231.317 83.5485 231.317 83.5485L232.107 81.8326Z" fill="#14262E"/>
<path d="M211.803 102.736C211.803 102.736 204.459 103.639 198.798 110.186C193.139 116.732 182.897 127.677 182.897 127.677L166.913 110.762C165.433 109.195 163.179 108.281 160.793 108.281H146.823C145.907 108.281 145.164 108.904 145.164 109.671V109.699C145.164 110.467 145.907 111.089 146.823 111.089H152.171C152.171 111.089 152.711 117.764 155.136 118.893C157.562 120.021 161.066 120.698 161.066 120.698L176.127 137.381C179.253 141.291 185.974 141.615 189.614 138.03L206.884 121.022L211.803 102.736Z" fill="#F36068"/>
<path d="M219.304 90.8421L217.824 103.62L223.511 104.321L223.979 96.3641L221.33 90.3377L219.304 90.8421Z" fill="#F36068"/>
<path d="M220.102 90.6442L220.197 91.3823C220.197 91.3823 220.438 98.0813 223.659 101.843L223.98 96.3642L221.332 90.3378L220.102 90.6442Z" fill="#0A0805"/>
<path d="M219.957 88.7919C219.957 88.7919 219.957 97.9326 225.878 100.114C227.228 100.425 232.318 92.739 232.941 87.6494C233.564 82.5597 232.11 81.8326 232.11 81.8326C232.11 81.8326 223.385 79.4436 219.957 88.7919Z" fill="#F36068"/>
<path d="M220.879 89.7085C220.934 90.8998 220.013 91.9099 218.823 91.9644C217.631 92.0196 216.621 91.0991 216.567 89.9085C216.512 88.7172 217.432 87.707 218.623 87.6525C219.814 87.5973 220.824 88.5179 220.879 89.7085Z" fill="#F36068"/>
<path d="M227.122 91.5219C227.111 91.4946 226.977 91.1694 226.61 90.8013C226.244 90.4339 225.639 90.0288 224.722 89.8561C224.558 89.8249 224.4 89.9333 224.369 90.0976C224.337 90.2618 224.445 90.4202 224.61 90.4514C225.405 90.6026 225.888 90.9383 226.181 91.2298C226.327 91.3758 226.425 91.5115 226.484 91.6076L226.546 91.7186L226.558 91.7446L226.56 91.7485L226.663 91.7056L226.56 91.7472L226.56 91.7485L226.663 91.7056L226.56 91.7472C226.622 91.9023 226.798 91.9776 226.953 91.916C227.109 91.8536 227.184 91.6771 227.122 91.5219Z" fill="#761519"/>
<path d="M229.844 92.7217L229.832 92.6315L229.843 92.7217H229.844L229.832 92.6315L229.843 92.7217C229.847 92.721 229.897 92.7158 229.979 92.7158C230.21 92.7152 230.689 92.7606 231.154 93.0645C231.294 93.1553 231.481 93.1158 231.573 92.9755C231.664 92.8353 231.624 92.6477 231.484 92.5568C230.882 92.1653 230.284 92.1101 229.979 92.1095C229.853 92.1095 229.776 92.1192 229.765 92.1212C229.599 92.1426 229.483 92.2952 229.505 92.4607C229.526 92.6263 229.679 92.7431 229.844 92.7217Z" fill="#761519"/>
<path d="M228.664 93.6859L228.379 94.8259L227.317 94.254L227.199 94.4734L228.544 95.1973L228.907 93.7463L228.664 93.6859Z" fill="#761519"/>
<path d="M224.482 94.3649L228.022 96.1235C228.022 96.1235 225.778 97.3265 224.482 94.3649Z" fill="white"/>
<path d="M206.883 121.023L208.054 116.67L208.594 108.721C208.594 108.721 203.152 114.178 203.107 124.741L206.883 121.023Z" fill="#0A0805"/>
<path d="M227.924 88.6615C227.917 88.6413 227.412 87.7033 225.958 87.7045C225.69 87.7045 225.39 87.7364 225.057 87.8104L225.111 88.0538C225.428 87.9837 225.709 87.9538 225.958 87.9538C226.628 87.9545 227.062 88.1661 227.333 88.3732C227.468 88.4764 227.562 88.5803 227.622 88.6563L227.686 88.7471L227.7 88.7705L227.703 88.7764L227.924 88.6615Z" fill="#761519"/>
<path d="M230.867 89.5379C230.867 89.5379 230.929 89.5379 231.031 89.5515C231.185 89.5716 231.422 89.6236 231.644 89.7489C231.866 89.8742 232.07 90.0657 232.181 90.3799L232.417 90.2968C232.239 89.7904 231.843 89.5346 231.507 89.4126C231.168 89.2892 230.879 89.2892 230.867 89.2886V89.5379Z" fill="#761519"/>
<path d="M233.055 86.4237C233.316 82.4494 232.11 81.8326 232.11 81.8326C232.11 81.8326 223.385 79.4436 219.957 88.792C224.318 83.8906 230.832 85.6304 233.055 86.4237Z" fill="white"/>
<path d="M221.801 101.567L230.238 104.26C230.238 104.26 226.183 129.318 226.019 143.879C215.359 148.111 210.449 147.434 204.861 143.879C206.724 127.286 206.724 127.286 206.724 127.286C206.724 127.286 202.999 119.837 206.385 113.065C209.771 106.292 211.803 102.737 211.803 102.737L221.801 101.567Z" fill="#FAB719"/>
<path d="M230.232 104.26C230.232 104.26 233.639 104.769 238.042 112.556C241.019 117.824 247.558 130.758 251.48 138.579C253.195 142 251.664 146.155 248.141 147.649L223.904 157.932V160.471C223.904 160.471 228.082 160.132 226.374 162.333C224.767 164.404 219.995 166.025 216.49 163.532C216.077 163.238 215.799 162.786 215.703 162.288C214.337 155.228 214.38 152.798 218.19 151.159C222.127 149.466 240.751 140.154 240.751 140.154L228.071 118.482L223.904 119.668L230.232 104.26Z" fill="#F36068"/>
<path d="M182.895 127.677L172.414 116.586L182.895 127.677L182.937 127.631C182.909 127.661 182.895 127.677 182.895 127.677Z" fill="#F4F4F4"/>
<path d="M172.413 116.587L169.361 113.357L172.413 116.587Z" fill="#7C7D9A"/>
<path d="M169.365 113.355L166.914 110.762L169.365 113.355Z" fill="#FFFFFE"/>
<path d="M184.032 131.725C181.622 131.725 178.674 129.88 175.334 126.251C170.791 121.315 165.885 113.741 159.693 112.485C155.551 111.644 153.923 109.568 153.295 108.282H160.792C163.178 108.282 165.432 109.195 166.912 110.762L169.364 113.356L172.416 116.586L182.896 127.677C182.896 127.677 182.91 127.661 182.939 127.631C183.707 128.386 184.834 129.482 186.419 131.005C185.697 131.486 184.9 131.725 184.032 131.725Z" fill="#F89F95"/>
<path d="M221.798 101.569L214.527 102.419C213.39 105.202 210.165 113.933 214.001 114.928C217.66 115.877 224.086 106.753 226.507 103.072L221.798 101.569Z" fill="#F36068"/>
<path d="M213.662 136.429C210.614 133.72 206.72 127.287 206.72 127.287C206.72 127.287 206.72 127.294 206.09 132.905C209.335 137.09 216.483 138.938 213.662 136.429Z" fill="#D09318"/>
<path d="M226.019 143.879C226.031 142.831 226.065 141.725 226.114 140.582C223.049 142.201 215.064 145.378 205.144 141.365C205.054 142.16 204.961 142.991 204.861 143.879C210.449 147.434 215.359 148.111 226.019 143.879Z" fill="#F36068"/>
<path d="M252.045 140.166C252.044 140.165 252.044 140.164 252.044 140.163C252.044 140.164 252.044 140.165 252.045 140.166ZM252.04 140.147C252.04 140.146 252.04 140.144 252.04 140.143C252.04 140.144 252.04 140.146 252.04 140.147ZM252.036 140.128C252.036 140.126 252.035 140.124 252.035 140.121C252.035 140.123 252.036 140.126 252.036 140.128ZM252.033 140.11C252.031 140.106 252.031 140.103 252.03 140.1C252.031 140.103 252.031 140.106 252.033 140.11ZM252.029 140.097C251.913 139.582 251.733 139.074 251.486 138.58C251.467 138.542 251.448 138.504 251.429 138.466C251.448 138.505 251.467 138.543 251.486 138.58C251.733 139.074 251.913 139.582 252.029 140.097ZM251.374 138.357C251.367 138.343 251.36 138.329 251.354 138.316C251.354 138.316 251.354 138.316 251.354 138.316C251.36 138.329 251.367 138.343 251.374 138.357Z" fill="#EC7383"/>
<path d="M248.51 146.899C248.098 146.046 247.863 145.091 247.863 144.081C247.863 143.298 248.002 142.548 248.255 141.853C248.828 143.865 248.975 145.597 248.51 146.899Z" fill="#F1444D"/>
<path d="M183.172 140.521C180.904 140.521 178.642 139.765 176.99 138.28C178.37 136.961 180.389 136.125 182.647 136.125C185.165 136.125 187.388 137.165 188.754 138.756C187.157 139.94 185.162 140.521 183.172 140.521Z" fill="#F1444D"/>
<path d="M182.806 127.774L186.075 130.857L186.263 130.852L186.258 130.664L182.988 127.58L182.801 127.586L182.806 127.774Z" fill="#7F2E33"/>
<path d="M240.811 140.272L245.89 137.685C245.955 137.651 245.982 137.571 245.948 137.506C245.915 137.441 245.835 137.414 245.769 137.448L240.69 140.035C240.624 140.069 240.598 140.149 240.632 140.215C240.665 140.28 240.745 140.306 240.811 140.272Z" fill="#7F2E33"/>
<path d="M230.235 104.261L228.22 103.619C225.995 107.226 218.323 121.2 226.879 130.132C228.114 117.368 230.235 104.261 230.235 104.261Z" fill="#F36068"/>
<path d="M214.127 114.974L215.012 112.531C215.037 112.462 215.002 112.386 214.932 112.361C214.863 112.337 214.787 112.372 214.762 112.441L213.877 114.883C213.852 114.952 213.888 115.029 213.957 115.053C214.026 115.079 214.102 115.043 214.127 114.974Z" fill="#7F2E33"/>
<path d="M217.7 88.8319L218.695 92.0046C218.717 92.074 218.791 92.1136 218.862 92.0915C218.932 92.0695 218.971 91.9948 218.949 91.9247L217.953 88.7527C217.931 88.6826 217.857 88.6437 217.787 88.6657C217.716 88.6878 217.677 88.7618 217.7 88.8319Z" fill="#7F2E33"/>
<path d="M238.029 112.53C238.027 112.528 238.026 112.525 238.024 112.522C238.026 112.525 238.027 112.528 238.029 112.53ZM238.014 112.505C238.012 112.501 238.01 112.498 238.008 112.495C238.01 112.498 238.012 112.502 238.014 112.505ZM237.999 112.478C237.997 112.475 237.996 112.472 237.994 112.469C237.996 112.472 237.997 112.475 237.999 112.478ZM237.981 112.447C237.981 112.446 237.98 112.445 237.979 112.443C237.98 112.445 237.981 112.446 237.981 112.447ZM237.965 112.418C237.964 112.415 237.962 112.412 237.96 112.41C237.962 112.412 237.963 112.415 237.965 112.418ZM237.95 112.392C237.948 112.389 237.947 112.386 237.945 112.382C237.946 112.386 237.948 112.389 237.95 112.392ZM237.935 112.366C237.934 112.363 237.931 112.36 237.93 112.356C237.932 112.36 237.933 112.363 237.935 112.366ZM237.92 112.338C237.918 112.336 237.917 112.334 237.915 112.331C237.916 112.333 237.918 112.336 237.92 112.338ZM237.901 112.306C237.899 112.303 237.897 112.3 237.896 112.297C237.897 112.3 237.899 112.304 237.901 112.306ZM237.886 112.281C237.884 112.278 237.883 112.274 237.88 112.27C237.883 112.274 237.884 112.277 237.886 112.281ZM237.872 112.256C237.87 112.252 237.868 112.249 237.866 112.245C237.868 112.249 237.87 112.252 237.872 112.256ZM237.857 112.229C237.855 112.226 237.853 112.223 237.851 112.219C237.853 112.223 237.855 112.226 237.857 112.229ZM237.837 112.196C237.836 112.193 237.833 112.188 237.831 112.185C237.833 112.189 237.835 112.193 237.837 112.196ZM237.823 112.171C237.821 112.167 237.818 112.163 237.816 112.159C237.818 112.163 237.821 112.167 237.823 112.171ZM237.809 112.147C237.806 112.142 237.804 112.138 237.801 112.134C237.804 112.138 237.806 112.142 237.809 112.147ZM237.794 112.122C237.792 112.117 237.79 112.113 237.787 112.109C237.79 112.113 237.792 112.117 237.794 112.122ZM237.78 112.097C237.775 112.089 237.771 112.081 237.766 112.073C237.771 112.081 237.775 112.089 237.78 112.097ZM237.76 112.062C237.757 112.058 237.755 112.053 237.752 112.049C237.755 112.053 237.757 112.058 237.76 112.062ZM237.746 112.038C237.743 112.034 237.74 112.028 237.738 112.024C237.74 112.028 237.743 112.033 237.746 112.038ZM237.731 112.014C237.729 112.008 237.726 112.004 237.723 111.999C237.726 112.004 237.729 112.009 237.731 112.014ZM237.721 111.995C237.714 111.984 237.707 111.973 237.701 111.961C237.707 111.972 237.714 111.984 237.721 111.995ZM237.697 111.954C237.694 111.949 237.691 111.944 237.688 111.94C237.691 111.944 237.694 111.949 237.697 111.954ZM237.683 111.93C237.679 111.925 237.676 111.919 237.674 111.915C237.676 111.919 237.679 111.925 237.683 111.93ZM237.67 111.908C237.666 111.902 237.662 111.897 237.659 111.891C237.662 111.897 237.666 111.902 237.67 111.908ZM237.658 111.889C237.651 111.877 237.644 111.865 237.637 111.853C237.644 111.865 237.651 111.877 237.658 111.889ZM237.633 111.847C237.63 111.841 237.627 111.836 237.624 111.831C237.627 111.836 237.63 111.841 237.633 111.847ZM237.62 111.823C237.616 111.817 237.613 111.813 237.61 111.807C237.613 111.812 237.616 111.818 237.62 111.823ZM237.606 111.801C237.603 111.795 237.599 111.789 237.596 111.783C237.599 111.789 237.603 111.795 237.606 111.801ZM237.596 111.782C237.583 111.762 237.571 111.742 237.559 111.721C237.571 111.742 237.583 111.762 237.596 111.782ZM237.557 111.718C237.553 111.712 237.55 111.706 237.546 111.699C237.55 111.705 237.553 111.712 237.557 111.718ZM237.544 111.696C237.54 111.69 237.537 111.683 237.533 111.677C237.536 111.683 237.54 111.69 237.544 111.696ZM237.532 111.677C237.52 111.655 237.507 111.635 237.494 111.614C237.507 111.634 237.52 111.656 237.532 111.677ZM237.494 111.613C237.49 111.606 237.487 111.6 237.483 111.593C237.487 111.6 237.49 111.606 237.494 111.613ZM237.481 111.591C237.477 111.584 237.473 111.578 237.469 111.571C237.473 111.578 237.477 111.584 237.481 111.591ZM237.469 111.571C237.191 111.109 236.917 110.675 236.648 110.268C236.917 110.675 237.191 111.109 237.469 111.571Z" fill="#F4F4F4"/>
<path d="M236.65 110.27C236.233 109.639 235.828 109.073 235.438 108.567C235.828 109.073 236.232 109.639 236.65 110.27ZM235.438 108.567C235.42 108.543 235.401 108.519 235.383 108.496C235.401 108.519 235.42 108.543 235.438 108.567ZM235.38 108.491C235.377 108.488 235.374 108.484 235.372 108.481C235.374 108.484 235.377 108.488 235.38 108.491ZM235.366 108.475C235.364 108.471 235.362 108.468 235.359 108.465C235.362 108.468 235.364 108.471 235.366 108.475ZM235.353 108.458C235.349 108.452 235.346 108.448 235.342 108.443C235.346 108.448 235.349 108.452 235.353 108.458ZM235.335 108.434C235.333 108.432 235.331 108.429 235.33 108.428C235.332 108.43 235.333 108.432 235.335 108.434ZM235.321 108.416C235.32 108.414 235.319 108.413 235.318 108.412C235.319 108.413 235.32 108.414 235.321 108.416ZM235.306 108.397C235.306 108.396 235.305 108.396 235.305 108.395C235.305 108.396 235.305 108.396 235.306 108.397Z" fill="#20404E"/>
<path d="M248.144 147.649C248.294 147.419 248.416 147.168 248.511 146.9C248.586 147.054 248.666 147.205 248.753 147.353C251.343 145.932 252.645 142.98 252.042 140.166C252.14 140.623 252.188 141.085 252.188 141.544C252.187 144.114 250.683 146.572 248.144 147.649ZM248.256 141.853C246.116 134.346 238.03 122.942 233.538 115.427C229.922 109.378 230.541 106.321 231.579 104.853C232.474 105.397 233.767 106.434 235.304 108.395C235.305 108.395 235.305 108.395 235.305 108.396C235.309 108.401 235.313 108.406 235.317 108.411C235.318 108.412 235.319 108.413 235.32 108.415C235.323 108.419 235.326 108.423 235.329 108.427C235.33 108.428 235.332 108.431 235.334 108.433C235.336 108.436 235.339 108.439 235.342 108.442C235.345 108.447 235.349 108.452 235.353 108.457C235.355 108.46 235.356 108.462 235.358 108.464C235.361 108.467 235.364 108.471 235.366 108.474C235.367 108.476 235.369 108.478 235.371 108.48C235.373 108.484 235.376 108.487 235.379 108.491C235.38 108.492 235.381 108.493 235.382 108.495C235.401 108.519 235.419 108.542 235.437 108.566H235.438C235.827 109.072 236.232 109.638 236.65 110.269C236.918 110.675 237.192 111.109 237.47 111.572C237.474 111.578 237.478 111.585 237.482 111.591C237.483 111.592 237.483 111.593 237.484 111.594C237.488 111.6 237.492 111.607 237.496 111.613C237.496 111.614 237.496 111.614 237.496 111.614C237.509 111.635 237.521 111.656 237.533 111.677H237.534C237.538 111.683 237.541 111.69 237.545 111.696C237.546 111.698 237.546 111.698 237.547 111.7C237.551 111.706 237.555 111.712 237.558 111.719C237.559 111.72 237.56 111.72 237.56 111.722C237.572 111.743 237.584 111.763 237.597 111.783C237.597 111.783 237.597 111.783 237.597 111.783C237.601 111.789 237.604 111.795 237.607 111.801C237.609 111.803 237.61 111.806 237.611 111.807C237.614 111.813 237.618 111.818 237.621 111.824C237.622 111.826 237.623 111.828 237.625 111.831C237.628 111.836 237.631 111.842 237.634 111.847C237.636 111.849 237.637 111.851 237.638 111.854C237.646 111.865 237.652 111.877 237.659 111.889C237.66 111.889 237.66 111.891 237.66 111.891C237.664 111.897 237.667 111.902 237.671 111.908C237.672 111.91 237.673 111.913 237.675 111.915C237.677 111.92 237.681 111.926 237.684 111.93C237.686 111.933 237.687 111.937 237.689 111.94C237.692 111.944 237.695 111.95 237.698 111.955C237.699 111.957 237.701 111.959 237.702 111.961C237.708 111.973 237.715 111.984 237.722 111.996C237.723 111.997 237.723 111.998 237.724 112C237.727 112.005 237.73 112.009 237.733 112.014C237.735 112.018 237.737 112.021 237.739 112.024C237.742 112.029 237.744 112.034 237.747 112.038C237.749 112.042 237.751 112.046 237.753 112.049C237.756 112.054 237.758 112.058 237.761 112.063C237.763 112.066 237.766 112.07 237.768 112.074C237.772 112.081 237.777 112.089 237.781 112.097C237.784 112.102 237.786 112.105 237.788 112.109C237.791 112.114 237.793 112.118 237.795 112.122C237.798 112.126 237.8 112.13 237.803 112.134C237.805 112.139 237.807 112.142 237.81 112.147C237.812 112.151 237.815 112.155 237.818 112.159C237.82 112.163 237.822 112.168 237.825 112.172C237.827 112.176 237.83 112.181 237.832 112.185C237.834 112.189 237.837 112.193 237.838 112.196C237.844 112.204 237.847 112.212 237.853 112.22C237.854 112.223 237.856 112.227 237.858 112.229C237.861 112.235 237.864 112.24 237.867 112.245C237.869 112.249 237.871 112.253 237.873 112.256C237.876 112.261 237.879 112.266 237.881 112.27C237.884 112.274 237.886 112.278 237.888 112.281C237.891 112.287 237.894 112.292 237.897 112.298C237.899 112.301 237.901 112.303 237.903 112.307C237.907 112.315 237.912 112.323 237.916 112.331C237.918 112.334 237.919 112.336 237.921 112.339C237.924 112.344 237.927 112.351 237.931 112.357C237.932 112.36 237.935 112.363 237.936 112.366C237.94 112.372 237.943 112.377 237.946 112.383C237.948 112.386 237.949 112.389 237.951 112.392C237.955 112.398 237.958 112.404 237.962 112.41C237.963 112.413 237.965 112.416 237.966 112.418C237.971 112.427 237.976 112.435 237.981 112.444C237.981 112.445 237.982 112.446 237.982 112.448C237.987 112.455 237.991 112.463 237.995 112.47C237.997 112.472 237.999 112.475 238 112.478C238.003 112.484 238.006 112.489 238.01 112.496C238.012 112.499 238.014 112.501 238.016 112.505C238.019 112.511 238.022 112.517 238.025 112.523C238.027 112.525 238.029 112.528 238.03 112.531C238.035 112.539 238.04 112.548 238.045 112.557C240.989 117.765 247.416 130.47 251.351 138.316C249.926 139.065 248.813 140.326 248.256 141.853ZM252.041 140.162C252.04 140.157 252.039 140.152 252.037 140.147C252.039 140.152 252.04 140.157 252.041 140.162ZM252.037 140.142C252.036 140.137 252.035 140.133 252.034 140.128C252.035 140.132 252.036 140.137 252.037 140.142ZM252.032 140.12C252.031 140.117 252.03 140.113 252.03 140.109C252.03 140.113 252.031 140.117 252.032 140.12ZM252.027 140.099C252.027 140.098 252.026 140.097 252.026 140.096C252.026 140.097 252.027 140.098 252.027 140.099ZM251.426 138.466C251.408 138.429 251.389 138.393 251.371 138.356C251.39 138.393 251.408 138.43 251.426 138.466Z" fill="#F89F95"/>
<path d="M248.752 147.354C248.666 147.206 248.586 147.055 248.511 146.9C248.976 145.598 248.829 143.866 248.256 141.854C248.813 140.327 249.926 139.066 251.351 138.316C251.357 138.33 251.364 138.343 251.371 138.357C251.389 138.393 251.408 138.43 251.426 138.467C251.445 138.504 251.464 138.543 251.483 138.58C251.73 139.074 251.91 139.583 252.026 140.097C252.026 140.098 252.027 140.099 252.027 140.1C252.028 140.103 252.028 140.107 252.03 140.11C252.03 140.114 252.031 140.118 252.032 140.121C252.032 140.124 252.033 140.126 252.034 140.129C252.035 140.134 252.035 140.138 252.037 140.143C252.037 140.144 252.037 140.146 252.037 140.147C252.039 140.153 252.04 140.158 252.041 140.163C252.041 140.164 252.041 140.165 252.042 140.166C252.645 142.981 251.343 145.932 248.752 147.354Z" fill="#F3656B"/>
<path d="M228.178 118.667L226.109 115.656C226.109 115.656 226.303 119.116 227.808 121.634L228.178 118.667Z" fill="#0A0805"/>
<path d="M212.347 269.928C210.252 272.012 210.199 274.189 210.199 274.189H230.56L230.38 268.653C220.734 272.663 214.651 270.941 212.347 269.928Z" fill="#FAB719"/>
<path d="M188.096 269.708C185.73 271.607 184.881 274.189 184.881 274.189H206.091L206.487 268.934C196.126 272.87 190.491 271.083 188.096 269.708Z" fill="#FAB719"/>
<path d="M200.49 263.273C200.491 263.285 200.49 263.989 200.901 264.707C201.309 265.426 202.155 266.145 203.765 266.141C204.148 266.141 204.575 266.101 205.05 266.013C205.122 266 205.17 265.93 205.157 265.858C205.143 265.786 205.074 265.738 205.001 265.752C204.541 265.837 204.13 265.875 203.765 265.875C202.233 265.871 201.508 265.222 201.131 264.574C200.944 264.249 200.849 263.921 200.802 263.675C200.779 263.552 200.767 263.45 200.762 263.38C200.756 263.309 200.756 263.273 200.756 263.273C200.756 263.2 200.696 263.14 200.623 263.14C200.549 263.14 200.49 263.2 200.49 263.273Z" fill="#7F2E33"/>
<path d="M223.932 263.273C223.932 263.285 223.931 263.989 224.342 264.707C224.75 265.426 225.596 266.145 227.207 266.141C227.59 266.141 228.016 266.101 228.492 266.013C228.564 266 228.612 265.93 228.598 265.858C228.585 265.786 228.516 265.738 228.444 265.752C227.982 265.837 227.572 265.875 227.207 265.875C225.675 265.871 224.95 265.222 224.572 264.574C224.385 264.249 224.291 263.921 224.244 263.675C224.221 263.552 224.209 263.45 224.203 263.38C224.197 263.309 224.198 263.273 224.197 263.273C224.197 263.2 224.138 263.14 224.065 263.14C223.991 263.14 223.932 263.2 223.932 263.273Z" fill="#7F2E33"/>
<path d="M241.872 166.555C235.824 166.927 230.145 168.246 225.092 170.295C224.14 170.682 223.583 171.678 223.733 172.695L226.913 194.247C227.169 195.981 228.709 197.23 230.458 197.123L258.135 195.422C259.884 195.314 261.259 193.886 261.301 192.133L261.808 170.764C261.832 169.757 261.184 168.851 260.219 168.563C254.63 166.901 248.397 166.154 241.872 166.555Z" fill="#FAB818"/>
<path d="M223.837 173.396C223.974 172.667 224.466 172.033 225.181 171.743C230.234 169.693 235.913 168.374 241.961 168.003C248.486 167.602 254.719 168.348 260.307 170.011C261.028 170.225 261.571 170.785 261.791 171.474L261.808 170.763C261.832 169.756 261.184 168.85 260.219 168.563C254.63 166.901 248.397 166.153 241.872 166.555C235.824 166.927 230.145 168.245 225.092 170.295C224.14 170.681 223.583 171.677 223.733 172.694L223.837 173.396Z" fill="#25252D"/>
<path d="M226.126 174.976L225.661 175.004L225.664 175.112C225.664 176.015 224.96 176.776 224.045 176.831L223.937 176.835C223.034 176.835 222.273 176.13 222.217 175.216L222.214 175.108C222.214 174.205 222.919 173.444 223.833 173.389L223.941 173.386C224.844 173.385 225.605 174.09 225.661 175.005L226.126 174.976L226.59 174.947C226.503 173.539 225.335 172.455 223.941 172.455L223.776 172.46C222.367 172.547 221.284 173.715 221.283 175.108L221.288 175.273C221.376 176.681 222.543 177.766 223.937 177.766L224.102 177.761C225.511 177.673 226.595 176.506 226.595 175.112L226.59 174.947L226.126 174.976Z" fill="#25252D"/>
<path d="M257.778 179.01L229.085 180.773L229.035 179.954L257.728 178.19L257.778 179.01Z" fill="#25252D"/>
<path d="M230.363 181.788L229.898 181.816L229.899 181.855C229.899 182.182 229.644 182.458 229.313 182.479L229.274 182.479C228.947 182.48 228.67 182.224 228.651 181.893L228.65 181.853C228.649 181.527 228.905 181.25 229.236 181.231L229.276 181.23C229.602 181.23 229.879 181.485 229.898 181.816L230.363 181.788L230.827 181.759C230.776 180.934 230.092 180.299 229.276 180.299L229.179 180.302C228.354 180.353 227.719 181.037 227.719 181.853L227.722 181.95C227.773 182.775 228.456 183.41 229.274 183.41L229.37 183.408C230.195 183.356 230.83 182.673 230.83 181.855L230.827 181.759L230.363 181.788Z" fill="#25252D"/>
<path d="M233.601 174.828C233.663 175.836 232.896 176.703 231.888 176.765C230.88 176.827 230.013 176.06 229.95 175.052L229.798 172.575C229.736 171.567 230.503 170.7 231.511 170.637C232.519 170.576 233.387 171.342 233.449 172.35L233.601 174.828Z" fill="#25252D"/>
<path d="M251.103 173.752C251.165 174.76 252.032 175.527 253.041 175.465C254.048 175.403 254.815 174.536 254.753 173.528L254.601 171.051C254.539 170.043 253.672 169.275 252.663 169.338C251.656 169.399 250.888 170.267 250.951 171.275L251.103 173.752Z" fill="#25252D"/>
<path d="M241.872 166.555C235.824 166.927 230.145 168.246 225.092 170.295C224.14 170.682 223.583 171.678 223.733 172.695L226.913 194.247C227.169 195.981 228.709 197.23 230.458 197.123L258.135 195.422C259.884 195.314 261.259 193.886 261.301 192.133L261.808 170.764C261.832 169.757 261.184 168.851 260.219 168.563C254.63 166.901 248.397 166.154 241.872 166.555Z" fill="#FAB818"/>
<path d="M223.837 173.396C223.974 172.667 224.466 172.033 225.181 171.743C230.234 169.693 235.913 168.374 241.961 168.003C248.486 167.602 254.719 168.348 260.307 170.011C261.028 170.225 261.571 170.785 261.791 171.474L261.808 170.763C261.832 169.756 261.184 168.85 260.219 168.563C254.63 166.901 248.397 166.153 241.872 166.555C235.824 166.927 230.145 168.245 225.092 170.295C224.14 170.681 223.583 171.677 223.733 172.694L223.837 173.396Z" fill="#25252D"/>
<path d="M226.126 174.976L225.661 175.004L225.664 175.112C225.664 176.015 224.96 176.776 224.045 176.831L223.937 176.835C223.034 176.835 222.273 176.13 222.217 175.216L222.214 175.108C222.214 174.205 222.919 173.444 223.833 173.389L223.941 173.386C224.844 173.385 225.605 174.09 225.661 175.005L226.126 174.976L226.59 174.947C226.503 173.539 225.335 172.455 223.941 172.455L223.776 172.46C222.367 172.547 221.284 173.715 221.283 175.108L221.288 175.273C221.376 176.681 222.543 177.766 223.937 177.766L224.102 177.761C225.511 177.673 226.595 176.506 226.595 175.112L226.59 174.947L226.126 174.976Z" fill="#25252D"/>
<path d="M257.778 179.01L229.085 180.773L229.035 179.954L257.728 178.19L257.778 179.01Z" fill="#25252D"/>
<path d="M230.363 181.788L229.898 181.816L229.899 181.855C229.899 182.182 229.644 182.458 229.313 182.479L229.274 182.479C228.947 182.48 228.67 182.224 228.651 181.893L228.65 181.853C228.649 181.527 228.905 181.25 229.236 181.231L229.276 181.23C229.602 181.23 229.879 181.485 229.898 181.816L230.363 181.788L230.827 181.759C230.776 180.934 230.092 180.299 229.276 180.299L229.179 180.302C228.354 180.353 227.719 181.037 227.719 181.853L227.722 181.95C227.773 182.775 228.456 183.41 229.274 183.41L229.37 183.408C230.195 183.356 230.83 182.673 230.83 181.855L230.827 181.759L230.363 181.788Z" fill="#25252D"/>
<path d="M233.601 174.828C233.663 175.836 232.896 176.703 231.888 176.765C230.88 176.827 230.013 176.06 229.95 175.052L229.798 172.575C229.736 171.567 230.503 170.7 231.511 170.637C232.519 170.576 233.387 171.342 233.449 172.35L233.601 174.828Z" fill="#25252D"/>
<path d="M251.103 173.752C251.165 174.76 252.032 175.527 253.041 175.465C254.048 175.403 254.815 174.536 254.753 173.528L254.601 171.051C254.539 170.043 253.672 169.275 252.663 169.338C251.656 169.399 250.888 170.267 250.951 171.275L251.103 173.752Z" fill="#25252D"/>
<path d="M232.594 173.114C232.594 173.114 232.591 173.072 232.585 172.985C232.543 172.378 232.372 169.675 232.372 166.063C232.37 161.258 232.681 154.831 233.973 149.639C234.615 147.045 235.509 144.767 236.661 143.18C237.236 142.384 237.87 141.763 238.559 141.33C239.251 140.898 239.997 140.645 240.861 140.59C240.967 140.583 241.071 140.581 241.175 140.581C242.358 140.585 243.365 140.986 244.326 141.758C245.162 142.434 245.94 143.404 246.636 144.601C247.857 146.693 248.824 149.464 249.555 152.428C250.656 156.877 251.244 161.758 251.552 165.515C251.706 167.394 251.79 168.993 251.836 170.121C251.86 170.684 251.873 171.13 251.881 171.434C251.884 171.586 251.887 171.702 251.888 171.78C251.89 171.858 251.89 171.896 251.89 171.896C251.896 172.41 252.317 172.822 252.832 172.816C253.346 172.81 253.758 172.389 253.752 171.874C253.75 171.845 253.66 163.755 252.14 155.597C251.377 151.514 250.266 147.416 248.57 144.247C247.72 142.663 246.719 141.303 245.497 140.311C244.28 139.32 242.81 138.714 241.175 138.719C241.033 138.719 240.89 138.723 240.747 138.732C239.576 138.803 238.503 139.165 237.57 139.753C235.931 140.786 234.722 142.454 233.787 144.448C232.389 147.446 231.587 151.235 231.113 155.089C230.642 158.942 230.51 162.856 230.51 166.063C230.51 170.258 230.737 173.239 230.738 173.256C230.777 173.768 231.225 174.152 231.737 174.113C232.25 174.074 232.634 173.627 232.594 173.114Z" fill="#FAB818"/>
<path d="M228.182 146.383L239.106 140.975L242.128 150.2L229.272 155.654L228.182 146.383Z" fill="#F36068"/>
<path d="M262.332 160.707L265.955 153.772C266.192 153.318 266.8 153.222 267.165 153.582L269.403 155.79C269.737 156.12 269.697 156.669 269.319 156.947L263.193 161.446C262.695 161.81 262.046 161.253 262.332 160.707Z" fill="#9E9DA6"/>
<path d="M268.599 172.307L276.062 168.397C276.441 168.198 276.905 168.423 276.984 168.845L277.622 172.243C277.694 172.629 277.404 172.988 277.011 172.998L268.835 173.216C268.325 173.229 268.147 172.544 268.599 172.307Z" fill="#9E9DA6"/>
<path d="M268.546 183.219L277.57 184.748C277.943 184.811 278.149 185.217 277.979 185.555L276.344 188.814C276.188 189.124 275.793 189.221 275.512 189.019L268.294 183.824C268.004 183.616 268.195 183.16 268.546 183.219Z" fill="#9E9DA6"/>
<path d="M221.746 149.509C221.746 149.509 227.884 149.278 227.106 156.573C228.255 156.086 228.621 155.931 228.621 155.931C228.621 155.931 229.198 148.412 223.709 148.315C221.746 148.748 221.746 149.509 221.746 149.509Z" fill="#FAB818"/>
<path d="M216.506 163.543C216.501 163.54 216.497 163.536 216.492 163.533C216.475 163.521 216.46 163.509 216.443 163.498C216.46 163.509 216.475 163.521 216.492 163.533C216.496 163.536 216.501 163.54 216.506 163.543ZM215.699 162.265C215.699 162.262 215.699 162.259 215.698 162.256C215.699 162.259 215.699 162.262 215.699 162.265ZM215.696 162.245C215.695 162.241 215.694 162.235 215.693 162.23C215.694 162.235 215.695 162.24 215.696 162.245ZM215.692 162.223C215.681 162.17 215.671 162.117 215.661 162.065C215.672 162.117 215.681 162.17 215.692 162.223ZM215.661 162.063C215.64 161.956 215.62 161.849 215.6 161.743C215.62 161.849 215.64 161.956 215.661 162.063ZM215.599 161.738C215.59 161.693 215.582 161.647 215.574 161.602C215.582 161.647 215.59 161.693 215.599 161.738ZM215.57 161.582C215.569 161.58 215.569 161.579 215.568 161.577C215.569 161.579 215.569 161.58 215.57 161.582ZM215.565 161.557C215.564 161.556 215.564 161.556 215.564 161.555C215.564 161.556 215.564 161.556 215.565 161.557Z" fill="#993647"/>
<path d="M220.567 164.795C219.188 164.795 217.765 164.435 216.505 163.543C216.499 163.539 216.494 163.535 216.49 163.532C216.473 163.521 216.458 163.509 216.442 163.497C216.055 163.203 215.795 162.767 215.703 162.289C215.701 162.281 215.7 162.273 215.698 162.265C215.698 162.262 215.697 162.259 215.696 162.255C215.696 162.252 215.695 162.248 215.694 162.245C215.693 162.24 215.692 162.235 215.691 162.23C215.69 162.227 215.69 162.225 215.69 162.223C215.679 162.17 215.67 162.117 215.659 162.064C215.659 162.064 215.659 162.063 215.659 162.063C215.639 161.955 215.618 161.849 215.598 161.743C215.598 161.742 215.598 161.74 215.597 161.738C215.589 161.692 215.58 161.647 215.572 161.602C215.57 161.594 215.569 161.588 215.568 161.581C215.567 161.58 215.567 161.578 215.566 161.577C215.565 161.57 215.564 161.563 215.563 161.557C215.563 161.555 215.563 161.555 215.563 161.555C214.817 157.578 214.592 155.168 215.372 153.533C217.311 153.817 220.154 154.479 220.559 155.949C221.169 158.16 222.338 163.243 223.411 163.243C223.434 163.243 223.458 163.241 223.481 163.236C223.559 163.219 223.637 163.211 223.714 163.211C224.105 163.211 224.482 163.41 224.795 163.654C223.64 164.332 222.131 164.796 220.567 164.795Z" fill="#F1444D"/>
<path d="M241.207 196.463L258.14 195.422C259.889 195.314 261.265 193.886 261.306 192.134C261.265 193.886 259.889 195.314 258.14 195.422L241.207 196.463Z" fill="#F4F4F4"/>
<path d="M241.207 196.463C243.076 193.799 250.666 183.936 261.537 182.41L261.306 192.134C261.265 193.886 259.889 195.314 258.14 195.422L241.207 196.463Z" fill="#F5DC14"/>
<path d="M184.881 274.189C184.889 274.165 186.72 268.608 192.497 267.822C193.609 251.296 194.378 239.863 194.911 231.947C197.12 240.389 201.017 257.598 199.394 268.653C197.467 269.502 195.876 270.398 194.576 271.322C191.421 271.234 189.329 270.416 188.096 269.708C185.738 271.601 184.886 274.173 184.881 274.189Z" fill="#F89F95"/>
<path d="M191.492 274.189H184.881C184.886 274.173 185.738 271.601 188.096 269.708C189.329 270.416 191.421 271.234 194.576 271.322C193.268 272.253 192.256 273.214 191.492 274.189Z" fill="#F5DC14"/>
<path d="M212.219 270.051C212.924 269.321 213.874 268.597 215.156 267.977C213.874 268.597 212.924 269.321 212.219 270.051Z" fill="white"/>
<path d="M210.199 274.189C210.199 274.178 210.248 272.09 212.219 270.05C210.355 271.98 210.21 273.951 210.2 274.17C210.199 274.182 210.199 274.189 210.199 274.189Z" fill="#4A0D10"/>
<path d="M210.199 274.17C210.21 273.951 210.354 271.98 212.218 270.05C212.923 269.32 213.874 268.596 215.156 267.975C215.263 267.923 215.372 267.873 215.484 267.822C215.158 252.462 214.936 242.015 214.785 234.902C216.257 238.408 222.231 253.814 220.379 268.934C219.394 269.347 218.538 270.156 217.806 271.143C215.219 270.995 213.393 270.388 212.347 269.928C210.369 271.896 210.211 273.947 210.199 274.17Z" fill="#F89F95"/>
<path d="M216.085 274.189H210.199C210.199 274.189 210.199 274.182 210.2 274.17C210.212 273.947 210.369 271.896 212.347 269.928C213.394 270.388 215.22 270.995 217.807 271.143C217.127 272.063 216.554 273.137 216.085 274.189Z" fill="#F5DC14"/>
<path d="M189.977 217.474C192.499 219.11 195.908 220.976 200.092 222.482C201.506 215.393 203.433 205.088 205.025 194.246C207.92 174.518 208.727 156.905 204.858 166.448C201.737 174.147 193.171 205.601 189.977 217.474Z" fill="#25252D"/>
<path d="M227.881 78.1504C226.549 77.5538 224.855 77.1273 222.733 77.1273C222.155 77.1273 221.546 77.1591 220.903 77.2272C220.199 77.3025 219.513 77.448 218.847 77.6577C219.513 77.448 220.199 77.3025 220.903 77.2272C221.546 77.1584 222.154 77.1273 222.733 77.1273C224.855 77.1273 226.549 77.5538 227.881 78.1504ZM218.746 77.6908C218.746 77.6901 218.746 77.6901 218.747 77.6901L218.746 77.6908ZM218.761 77.6856C218.763 77.6849 218.765 77.6843 218.767 77.6836C218.765 77.6843 218.763 77.6849 218.761 77.6856ZM218.782 77.6791C218.787 77.6771 218.792 77.6758 218.797 77.6739C218.792 77.6758 218.787 77.6771 218.782 77.6791ZM218.805 77.6713C218.81 77.67 218.816 77.668 218.82 77.6661C218.815 77.668 218.81 77.67 218.805 77.6713ZM218.825 77.6648C218.832 77.6628 218.84 77.6603 218.847 77.6577C218.84 77.6603 218.832 77.6628 218.825 77.6648Z" fill="#F4F4F4"/>
<path d="M208.285 90.333C210.154 84.2631 213.91 79.2695 218.748 77.6906L218.748 77.69C218.753 77.6887 218.758 77.6867 218.762 77.6854C218.764 77.6848 218.766 77.6841 218.768 77.6835C218.774 77.6815 218.779 77.6802 218.783 77.6789C218.788 77.677 218.794 77.6757 218.799 77.6737C218.801 77.6731 218.803 77.6718 218.807 77.6711C218.812 77.6698 218.816 77.6679 218.822 77.6659C218.824 77.6659 218.825 77.6653 218.827 77.6646C218.834 77.6627 218.842 77.6601 218.849 77.6575C218.849 77.6575 218.849 77.6582 218.849 77.6575C219.515 77.4478 220.2 77.3024 220.904 77.2271C221.548 77.1589 222.156 77.1271 222.734 77.1271C224.856 77.1271 226.551 77.5536 227.882 78.1502C230.973 79.5343 232.109 81.8325 232.109 81.8325C232.109 81.8325 231.111 81.5592 229.657 81.5592C228.742 81.5592 227.645 81.6676 226.503 82.0214C226.392 81.9902 224.718 81.5306 222.349 81.5306C218.235 81.5306 212.029 82.9166 208.285 90.333Z" fill="#20404E"/>
<path d="M228.786 83.6885L226.508 82.0233C226.508 82.0233 226.506 82.0227 226.502 82.022C227.643 81.6682 228.74 81.5598 229.656 81.5598C231.109 81.5598 232.108 81.8331 232.108 81.8331L231.547 83.0503L228.786 83.6885Z" fill="white"/>
<path d="M233.057 86.3814C233.057 86.3814 227.296 87.724 221.354 87.4903C223.393 85.8244 226.811 84.5702 233.057 86.3814Z" fill="#14262E"/>
<path d="M232.359 90.1562C232.639 89.285 232.842 88.4365 232.938 87.6497C232.966 87.4179 232.99 87.1953 233.011 86.9817C232.99 87.1953 232.966 87.4179 232.938 87.6497C232.842 88.4365 232.639 89.285 232.359 90.1562Z" fill="#F4F4F4"/>
<path d="M225.961 100.123C225.932 100.123 225.904 100.12 225.877 100.114C225.904 100.12 225.932 100.123 225.961 100.123C226.94 100.123 229.45 96.7875 231.193 93.0845C229.45 96.7875 226.94 100.123 225.961 100.123ZM231.446 92.5314C231.771 91.8004 232.062 91.0623 232.303 90.3371C232.062 91.0623 231.771 91.8004 231.446 92.5314Z" fill="#20404E"/>
<path d="M225.961 100.123C225.932 100.123 225.903 100.12 225.877 100.114C225.161 99.8504 224.534 99.4836 223.981 99.0447C222.504 94.105 222.861 89.9515 223.345 87.5131C228.124 87.4443 232.36 86.5374 232.982 86.3985C233.006 86.4069 233.03 86.4154 233.054 86.4238C233.054 86.4095 233.056 86.3959 233.056 86.3816C233.059 86.3809 233.06 86.3809 233.06 86.3809C233.059 86.3803 233.058 86.3796 233.056 86.3796C233.13 85.215 233.078 84.3412 232.967 83.6887L232.969 83.6881C233.099 84.4489 233.151 85.5058 233.013 86.9814C232.993 87.195 232.969 87.4177 232.94 87.6495C232.844 88.4363 232.641 89.2848 232.362 90.156C232.166 89.7418 231.813 89.5224 231.509 89.412C231.17 89.2887 230.881 89.2887 230.87 89.288V89.5373C230.87 89.5373 230.87 89.5373 230.87 89.5373C230.879 89.5373 230.939 89.5386 231.034 89.5509C231.187 89.5711 231.425 89.623 231.646 89.7483C231.868 89.8736 232.073 90.0651 232.184 90.3793L232.303 90.3371C232.062 91.0623 231.771 91.8004 231.446 92.5314C230.857 92.162 230.278 92.1094 229.98 92.1088C229.854 92.1088 229.777 92.1185 229.765 92.1205C229.6 92.1419 229.483 92.2944 229.505 92.46C229.525 92.6125 229.655 92.7229 229.805 92.7229C229.818 92.7229 229.831 92.7223 229.845 92.721C229.852 92.7197 229.901 92.7151 229.978 92.7151C229.978 92.7151 229.979 92.7151 229.98 92.7151C229.98 92.7151 229.982 92.7151 229.983 92.7151C230.215 92.7151 230.691 92.7612 231.154 93.0637C231.166 93.0715 231.179 93.0787 231.192 93.0845C229.45 96.7875 226.94 100.123 225.961 100.123ZM224.484 94.3634C225.199 95.9974 226.203 96.3636 226.959 96.3636C227.573 96.3636 228.024 96.1221 228.024 96.1221L224.484 94.3634ZM227.319 94.2537L227.201 94.4731L228.546 95.197L228.909 93.746L228.666 93.6857L228.381 94.8256L227.319 94.2537ZM226.564 91.7478C226.612 91.8653 226.725 91.9367 226.844 91.9367C226.882 91.9367 226.92 91.9296 226.956 91.9153C227.112 91.853 227.188 91.6764 227.125 91.5212C227.114 91.494 226.98 91.1687 226.613 90.8006C226.247 90.4332 225.642 90.0281 224.726 89.8554C224.707 89.8522 224.688 89.8502 224.669 89.8502C224.526 89.8502 224.399 89.9515 224.372 90.0969C224.341 90.2612 224.449 90.4196 224.613 90.4507C225.409 90.602 225.892 90.9376 226.185 91.2291C226.331 91.3752 226.428 91.5109 226.488 91.6069L226.549 91.7179L226.562 91.7439L226.564 91.7478ZM225.96 87.9539C226.631 87.9546 227.064 88.1662 227.335 88.3733C227.47 88.4765 227.564 88.5804 227.624 88.6564L227.688 88.7472L227.702 88.7706L227.705 88.7765L227.926 88.6616C227.919 88.6414 227.415 87.7046 225.963 87.7046C225.962 87.7046 225.961 87.7046 225.96 87.7046C225.692 87.7046 225.392 87.7365 225.059 87.8105L225.113 88.0539C225.43 87.9838 225.711 87.9539 225.96 87.9539ZM232.203 86.1466C230.402 85.6857 228.85 85.4915 227.51 85.4915C227.048 85.4915 226.611 85.5149 226.198 85.5578C226.716 85.4935 227.228 85.4656 227.726 85.4656C229.489 85.4656 231.085 85.8148 232.203 86.1466Z" fill="#F89F95"/>
<path d="M226.841 91.9375C226.721 91.9375 226.608 91.8661 226.56 91.7486L226.558 91.7447L226.546 91.7187L226.484 91.6077C226.425 91.5116 226.327 91.3759 226.181 91.2299C225.888 90.9384 225.405 90.6028 224.61 90.4515C224.445 90.4203 224.337 90.2619 224.369 90.0977C224.396 89.9523 224.523 89.851 224.666 89.851C224.685 89.851 224.704 89.8529 224.722 89.8562C225.639 90.0289 226.244 90.434 226.61 90.8014C226.977 91.1695 227.111 91.4947 227.122 91.522C227.184 91.6772 227.109 91.8537 226.953 91.9161C226.917 91.9304 226.878 91.9375 226.841 91.9375Z" fill="#BA2123"/>
<path d="M231.192 93.084C231.179 93.0781 231.166 93.071 231.154 93.0632C230.691 92.7607 230.215 92.7146 229.982 92.7146C229.981 92.7146 229.98 92.7146 229.979 92.7146C229.979 92.7146 229.978 92.7146 229.977 92.7146C229.9 92.7146 229.852 92.7191 229.844 92.7204C229.831 92.7217 229.818 92.7224 229.805 92.7224C229.655 92.7224 229.525 92.612 229.505 92.4595C229.483 92.2939 229.599 92.1414 229.765 92.1199C229.776 92.118 229.853 92.1082 229.979 92.1082C230.277 92.1089 230.856 92.1615 231.446 92.5309C231.363 92.7159 231.278 92.9003 231.192 93.084Z" fill="#BA2123"/>
<path d="M228.544 95.1973L227.199 94.4734L227.317 94.254L228.379 94.8259L228.664 93.6859L228.907 93.7463L228.544 95.1973Z" fill="#BA2123"/>
<path d="M226.957 96.3652C226.201 96.3652 225.197 95.9991 224.482 94.3651L228.022 96.1237C228.022 96.1237 227.571 96.3652 226.957 96.3652Z" fill="white"/>
<path d="M227.703 88.7764L227.7 88.7705L227.686 88.7471L227.622 88.6563C227.562 88.5803 227.468 88.4764 227.333 88.3732C227.062 88.1661 226.628 87.9545 225.958 87.9538C225.709 87.9538 225.428 87.9837 225.111 88.0538L225.057 87.8104C225.39 87.7364 225.69 87.7045 225.958 87.7045C225.959 87.7045 225.96 87.7045 225.96 87.7045C227.413 87.7045 227.917 88.6413 227.924 88.6615L227.703 88.7764Z" fill="#BA2123"/>
<path d="M232.181 90.3799C232.07 90.0657 231.866 89.8742 231.644 89.7489C231.422 89.6236 231.185 89.5716 231.031 89.5515C230.936 89.5392 230.876 89.5379 230.868 89.5379C230.867 89.5379 230.867 89.5379 230.867 89.5379V89.2886C230.879 89.2892 231.168 89.2892 231.507 89.4126C231.81 89.5229 232.163 89.7424 232.359 90.1566C232.34 90.2169 232.32 90.2773 232.3 90.3377L232.181 90.3799Z" fill="#BA2123"/>
<path d="M233.052 86.4248C233.029 86.4164 233.005 86.4079 232.981 86.3995C233.02 86.3904 233.046 86.3845 233.055 86.3826C233.054 86.3969 233.053 86.4105 233.052 86.4248ZM233.055 86.3806C232.764 86.2963 232.479 86.2184 232.201 86.1476C231.084 85.8159 229.487 85.4666 227.725 85.4666C227.226 85.4666 226.714 85.4945 226.196 85.5588C225.233 85.6594 224.396 85.8684 223.666 86.1495C223.842 85.5185 223.98 85.177 223.98 85.177L232.965 83.6897C233.076 84.3422 233.129 85.216 233.055 86.3806Z" fill="white"/>
<path d="M223.344 87.5137C223.452 86.9703 223.565 86.512 223.666 86.1491C224.397 85.868 225.233 85.6589 226.196 85.5583C226.61 85.5155 227.047 85.4921 227.508 85.4921C228.849 85.4921 230.4 85.6862 232.201 86.1471C232.48 86.2179 232.764 86.2958 233.055 86.3802C233.056 86.3802 233.058 86.3808 233.059 86.3815C233.059 86.3815 233.058 86.3815 233.055 86.3821C233.046 86.3841 233.021 86.3899 232.981 86.399C232.359 86.5379 228.123 87.4449 223.344 87.5137Z" fill="#20404E"/>
<path d="M136.705 129.049C136.685 128.928 136.626 128.817 136.536 128.733C136.446 128.65 136.33 128.599 136.208 128.588L131.64 128.248L128.278 124.907C127.944 124.573 127.297 124.675 127.044 124.748L125.348 125.271C124.336 122.36 122.551 119.683 119.409 119.683C119.321 119.683 119.234 119.686 119.144 119.693C118.252 118.513 117.146 118 116.188 118C108.87 118 105.373 127.148 104.278 131.799C101.434 132.679 99.4148 133.305 99.1571 133.388C97.5681 133.884 97.5185 133.934 97.3104 135.431C97.152 136.563 93 168.682 93 168.682L125.365 174.747L142.902 170.954L136.705 129.049ZM123.561 125.826L120.823 126.673L120.825 126.082C120.825 124.273 120.574 122.814 120.17 121.66C121.79 121.866 122.868 123.708 123.561 125.826ZM118.163 122.022C118.612 123.15 118.905 124.767 118.905 126.952L118.903 127.269L113.247 129.021C114.337 124.817 116.377 122.788 118.163 122.022ZM115.987 119.963C116.304 119.963 116.621 120.069 116.926 120.279C114.58 121.384 112.067 124.162 111.005 129.714L106.534 131.099C107.778 126.864 110.731 119.963 115.987 119.963Z" fill="#95BF46"/>
<path d="M136.213 128.588L131.645 128.248L128.283 124.907C128.152 124.788 127.989 124.713 127.814 124.691L125.367 174.747L142.902 170.954C142.902 170.954 136.745 129.335 136.707 129.049C136.688 128.928 136.629 128.817 136.539 128.733C136.45 128.65 136.335 128.599 136.213 128.588Z" fill="#5E8E3E"/>
<path d="M119.415 138.277L117.254 144.708C117.254 144.708 115.36 143.696 113.038 143.696C109.633 143.696 109.463 145.833 109.463 146.37C109.463 149.307 117.121 150.432 117.121 157.315C117.121 162.73 113.688 166.215 109.058 166.215C103.502 166.215 100.662 162.758 100.662 162.758L102.149 157.842C102.149 157.842 105.069 160.349 107.533 160.349C109.143 160.349 109.798 159.081 109.798 158.155C109.798 154.322 103.516 154.152 103.516 147.855C103.516 142.556 107.32 137.428 114.998 137.428C117.953 137.43 119.415 138.277 119.415 138.277Z" fill="white"/>
</svg>
