<svg width="155" height="45" viewBox="0 0 155 45" fill="none" xmlns="http://www.w3.org/2000/svg">
<path d="M19.2125 27.5592C18.2359 27.9554 17.332 28.1692 16.6748 28.1338C15.8236 28.0863 15.4601 27.7109 15.4588 27.5697C15.4581 27.4692 15.7755 27.1542 16.7552 27.083C16.9088 27.0721 17.071 27.0651 17.238 27.0651C17.9074 27.0651 18.6524 27.1752 19.2125 27.5592ZM21.0396 36.1915C17.4583 37.1794 13.6737 36.2682 11.3967 33.8684C9.78536 32.1703 9.24511 30.0452 9.91408 28.038C11.2599 23.9998 17.7096 21.5759 21.8316 21.5759C21.8759 21.5759 21.9201 21.5761 21.9638 21.5767C23.4997 21.5964 24.5634 21.9677 24.7398 22.5462C24.8386 22.8699 24.6049 23.4366 24.1147 24.0616C23.2497 25.1646 21.9354 26.1642 20.5985 26.8975C19.751 25.9675 18.3915 25.5444 16.6527 25.6697C14.7171 25.8102 14.0348 26.7495 14.0417 27.5817C14.0494 28.4891 14.9293 29.4562 16.5961 29.5488C17.6049 29.6039 18.8106 29.2931 20.0214 28.7634C20.199 29.4606 20.144 30.3752 19.8533 31.4657C19.7526 31.8436 19.9772 32.2321 20.3553 32.3329C20.733 32.4336 21.1215 32.209 21.2225 31.8307C21.6176 30.3489 21.6469 29.1061 21.3117 28.1187C22.8924 27.2316 24.3536 26.0532 25.2297 24.9362C26.0519 23.8879 26.343 22.9446 26.0954 22.1325C25.9155 21.5429 25.492 21.0752 24.8538 20.7434C24.9026 15.4188 25.8465 11.7409 26.6962 11.7359H26.7014C26.8262 11.7359 26.9952 11.7638 27.2021 11.9695C27.8925 12.6557 28.7151 14.9085 28.7151 21.7444C28.7151 28.4893 28.1377 34.2321 21.0396 36.1915ZM14.2787 20.4598C14.2778 20.4421 14.28 20.4246 14.2778 20.4067C14.2747 20.3811 14.2717 20.354 14.2684 20.3278C14.1665 18.8738 14.3409 17.7279 14.7844 17.1134C15.0047 16.8083 15.2809 16.6448 15.654 16.5989C16.1741 16.5362 16.5972 16.6704 16.9526 17.0118C17.6408 17.6733 18.0424 19.1037 18.0042 20.6685C16.8243 20.9596 15.6162 21.3742 14.4684 21.9078C14.3779 21.3999 14.3154 20.9161 14.2787 20.4598ZM20.3828 17.9909C20.6438 17.707 20.9766 17.5688 21.4013 17.5688C22.0761 17.5688 22.3694 17.7896 22.5316 17.9557C22.9193 18.3528 23.1282 19.1229 23.1568 20.2445C22.7938 20.1942 22.4024 20.1649 21.9819 20.1597C21.9341 20.159 21.8864 20.1588 21.8381 20.1588C21.1985 20.1588 20.5013 20.2143 19.7735 20.3201C19.7421 19.2923 19.9569 18.4548 20.3828 17.9909ZM28.2013 10.9644C27.7762 10.5417 27.2574 10.3186 26.7001 10.3186H26.6877C24.8206 10.3297 24.1766 13.1153 23.8542 15.2096C23.7598 15.8242 23.6868 16.4514 23.63 17.0585C23.6022 17.0275 23.5749 16.9954 23.5459 16.9657C23.0187 16.4256 22.2971 16.1518 21.4013 16.1518C20.5811 16.1518 19.868 16.456 19.3391 17.0321C19.1883 17.1964 19.0587 17.3868 18.9415 17.5909C18.7079 16.9761 18.3812 16.4195 17.9347 15.9901C17.2712 15.3526 16.4235 15.0765 15.4811 15.1924C14.7216 15.2857 14.0833 15.6629 13.635 16.284C13.6333 16.2869 13.6318 16.2899 13.6298 16.2923C12.8533 12.4197 11.377 7.74347 8.80125 8.01097C8.16747 8.07763 7.60733 8.41878 7.18183 8.99705C5.19481 11.6983 6.12713 19.7307 6.99104 24.0509C7.05857 24.3877 7.35426 24.6209 7.68514 24.6209C7.73125 24.6209 7.77802 24.6163 7.82501 24.6069C8.20855 24.5302 8.45748 24.1569 8.38077 23.7731C6.934 16.5393 7.25679 11.2868 8.32351 9.83692C8.57418 9.49621 8.80081 9.43589 8.94964 9.42037C10.3715 9.27242 12.1231 14.2404 12.8625 20.5107C12.9217 21.2872 13.0393 22.0143 13.1527 22.5794C13.1531 22.5821 13.1545 22.5845 13.1549 22.5871C11.0256 23.8144 9.2685 25.4926 8.56959 27.59C7.7295 30.1096 8.38536 32.7538 10.3687 34.844C12.305 36.8843 15.1618 38 18.1607 38C19.2396 38 20.3374 37.8553 21.4166 37.5574C29.4658 35.3357 30.1324 28.8097 30.1324 21.7444C30.1324 15.6994 29.5187 12.2741 28.2013 10.9644Z" fill="#0F1031"/>
<path d="M43.4514 18.7827H37.139C37.0636 18.7827 37.0024 18.8439 37.0024 18.9193V20.0022C37.0024 20.0776 37.0636 20.1388 37.139 20.1388H39.5495V27.127C39.5495 27.2022 39.6109 27.2636 39.6861 27.2636H40.9165C40.9919 27.2636 41.0531 27.2022 41.0531 27.127V20.1388H43.4514C43.5268 20.1388 43.588 20.0776 43.588 20.0022V18.9193C43.588 18.8439 43.5268 18.7827 43.4514 18.7827Z" fill="#0F1031"/>
<path d="M47.8232 20.8993C47.1247 20.8993 46.3937 21.1904 45.8554 21.6808V18.9193C45.8554 18.8441 45.7942 18.7827 45.7188 18.7827H44.6114C44.536 18.7827 44.4749 18.8441 44.4749 18.9193V27.127C44.4749 27.2024 44.536 27.2636 44.6114 27.2636H45.7188C45.7942 27.2636 45.8554 27.2024 45.8554 27.127V22.927C46.1496 22.5426 46.7252 22.1571 47.3555 22.1571C48.1482 22.1571 48.4863 22.4989 48.4863 23.3V27.127C48.4863 27.2024 48.5474 27.2636 48.6228 27.2636H49.7304C49.8056 27.2636 49.867 27.2024 49.867 27.127V22.9309C49.867 21.602 49.1602 20.8993 47.8232 20.8993Z" fill="#0F1031"/>
<path d="M54.0159 22.0828C55.0567 22.0828 55.598 22.8306 55.6786 23.5814H52.3478C52.4621 22.8304 53.0181 22.0828 54.0159 22.0828ZM54.0159 20.8989C52.2405 20.8989 50.9017 22.2961 50.9017 24.1487C50.9017 26.0695 52.2228 27.4109 54.1145 27.4109C55.1207 27.4109 55.9789 27.091 56.5972 26.486C56.6455 26.4388 56.6523 26.3643 56.6129 26.3092L56.0961 25.5832C56.0725 25.55 56.0357 25.5292 55.9953 25.526C55.9553 25.524 55.9149 25.5386 55.8869 25.5671C55.4907 25.9742 54.8541 26.2271 54.2253 26.2271C53.0321 26.2271 52.478 25.3872 52.3616 24.6546H56.9077C56.9831 24.6546 57.0443 24.5932 57.0443 24.518V24.247C57.0443 22.2758 55.7991 20.8989 54.0159 20.8989Z" fill="#0F1031"/>
<path d="M65.8451 18.7827H60.3323C60.2571 18.7827 60.1957 18.8439 60.1957 18.9193V27.127C60.1957 27.2022 60.2571 27.2636 60.3323 27.2636H65.8451C65.9205 27.2636 65.9817 27.2022 65.9817 27.127V26.0441C65.9817 25.9687 65.9205 25.9075 65.8451 25.9075H61.6993V23.6213H65.7588C65.8342 23.6213 65.8953 23.5599 65.8953 23.4847V22.4018C65.8953 22.3264 65.8342 22.2652 65.7588 22.2652H61.6993V20.1388H65.8451C65.9205 20.1388 65.9817 20.0776 65.9817 20.0022V18.9193C65.9817 18.8439 65.9205 18.7827 65.8451 18.7827Z" fill="#0F1031"/>
<path d="M72.6996 21.0474H71.5059C71.4498 21.0474 71.3999 21.081 71.379 21.1335L69.6479 25.4786L67.9168 21.1333C67.896 21.081 67.8459 21.0474 67.7898 21.0474H66.6085C66.5629 21.0474 66.5207 21.0701 66.4951 21.1079C66.4698 21.1459 66.465 21.1938 66.4824 21.236L68.931 27.1795C68.9522 27.2307 69.0016 27.2639 69.0571 27.2639H70.2508C70.3063 27.2639 70.3557 27.2307 70.3769 27.1795L72.8257 21.236C72.8432 21.1938 72.8384 21.1459 72.813 21.1079C72.7875 21.0701 72.7453 21.0474 72.6996 21.0474Z" fill="#0F1031"/>
<path d="M76.111 22.0828C77.1517 22.0828 77.693 22.8306 77.7737 23.5814H74.4428C74.5571 22.8304 75.1131 22.0828 76.111 22.0828ZM76.111 20.8989C74.3355 20.8989 72.9967 22.2961 72.9967 24.1487C72.9967 26.0695 74.3178 27.4109 76.2095 27.4109C77.2157 27.4109 78.074 27.091 78.6922 26.486C78.7405 26.4388 78.7473 26.3643 78.708 26.3092L78.1911 25.5832C78.1675 25.55 78.1308 25.5292 78.0903 25.526C78.0506 25.524 78.0099 25.5386 77.9819 25.5671C77.5857 25.9742 76.9491 26.2271 76.3203 26.2271C75.1269 26.2271 74.5729 25.3872 74.4564 24.6546H79.0028C79.0782 24.6546 79.1394 24.5932 79.1394 24.518V24.247C79.1394 22.2758 77.8941 20.8989 76.111 20.8989Z" fill="#0F1031"/>
<path d="M83.5099 20.8989C82.5256 20.8989 81.8332 21.414 81.5421 21.6796V21.1833C81.5421 21.1079 81.4809 21.0467 81.4055 21.0467H80.2981C80.2227 21.0467 80.1616 21.1079 80.1616 21.1833V27.1266C80.1616 27.202 80.2227 27.2632 80.2981 27.2632H81.4055C81.4809 27.2632 81.5421 27.202 81.5421 27.1266V22.9266C81.8363 22.5422 82.4119 22.1567 83.0422 22.1567C83.8242 22.1567 84.173 22.5166 84.173 23.3243V27.1266C84.173 27.202 84.2341 27.2632 84.3095 27.2632H85.4171C85.4923 27.2632 85.5537 27.202 85.5537 27.1266V22.9552C85.5537 21.6101 84.847 20.8989 83.5099 20.8989Z" fill="#0F1031"/>
<path d="M89.9397 26.0124C89.9244 25.9665 89.8853 25.932 89.8387 25.9226C89.795 25.9132 89.7414 25.9285 89.7089 25.9645C89.6269 26.0554 89.435 26.1533 89.2073 26.1533C88.7973 26.1533 88.7656 25.7023 88.7656 25.5639V22.2921H89.835C89.9102 22.2921 89.9716 22.2307 89.9716 22.1555V21.1832C89.9716 21.108 89.9102 21.0466 89.835 21.0466H88.7656V19.559C88.7656 19.4836 88.7044 19.4224 88.629 19.4224H87.5217C87.4463 19.4224 87.3851 19.4836 87.3851 19.559V21.0466H86.5373C86.462 21.0466 86.4008 21.108 86.4008 21.1832V22.1555C86.4008 22.2307 86.462 22.2921 86.5373 22.2921H87.3851V25.81C87.3851 26.8424 87.936 27.4109 88.9368 27.4109C89.4807 27.4109 89.8896 27.2738 90.1873 26.9921C90.226 26.9554 90.2397 26.8995 90.2227 26.8492L89.9397 26.0124Z" fill="#0F1031"/>
<path d="M93.644 23.4371C92.8989 23.2634 92.3714 23.1093 92.3714 22.7089C92.3714 22.3149 92.7857 22.0703 93.4529 22.0703C94.1197 22.0703 94.7688 22.3359 95.1071 22.7465C95.1329 22.7782 95.1714 22.7963 95.2127 22.7963C95.2133 22.7963 95.2203 22.7961 95.221 22.7961C95.2645 22.7935 95.3047 22.7699 95.3278 22.733L95.82 21.9576C95.8548 21.9027 95.846 21.8304 95.7988 21.7853C95.1889 21.2055 94.3737 20.8989 93.4407 20.8989C91.7911 20.8989 91.04 21.8819 91.04 22.795C91.04 24.1806 92.3134 24.4756 93.3369 24.7125C94.0662 24.8773 94.6698 25.0533 94.6698 25.5391C94.6698 25.9854 94.2426 26.2518 93.5268 26.2518C92.7335 26.2518 91.9896 25.8346 91.634 25.4469C91.6084 25.4187 91.5717 25.4025 91.5335 25.4025C91.5297 25.4025 91.5263 25.4027 91.5223 25.4029C91.4804 25.4066 91.4417 25.4296 91.4189 25.4646L90.8898 26.2769C90.8551 26.3302 90.8621 26.4017 90.9069 26.4469C91.5249 27.0774 92.4138 27.4109 93.4776 27.4109C95.0184 27.4109 96.0139 26.6423 96.0139 25.4532C96.0139 23.9739 94.7 23.6764 93.644 23.4371Z" fill="#0F1031"/>
<path d="M103.396 20.0158C104.256 20.0158 105.06 20.4485 105.495 21.145C105.532 21.2042 105.612 21.2263 105.675 21.1937L106.721 20.6399C106.755 20.6216 106.78 20.5899 106.789 20.553C106.799 20.5154 106.792 20.4756 106.771 20.4435C105.976 19.2517 104.841 18.6475 103.396 18.6475C100.919 18.6475 99.0512 20.5311 99.0512 23.0293C99.0512 25.5275 100.919 27.4114 103.396 27.4114C104.826 27.4114 105.961 26.8073 106.77 25.6162C106.792 25.5841 106.799 25.5441 106.79 25.5065C106.781 25.4691 106.756 25.4374 106.721 25.4189L105.675 24.8649C105.612 24.8327 105.532 24.8546 105.495 24.9136C105.06 25.6103 104.256 26.0428 103.396 26.0428C101.85 26.0428 100.81 24.8319 100.81 23.0293C100.81 21.1985 101.826 20.0158 103.396 20.0158Z" fill="#0F1031"/>
<path d="M111.517 24.8603V25.7753C111.22 26.1431 110.701 26.3626 110.127 26.3626C109.404 26.3626 108.898 25.9329 108.898 25.3179C108.898 24.7027 109.404 24.273 110.127 24.273C110.702 24.273 111.22 24.4925 111.517 24.8603ZM110.374 20.8989C109.377 20.8989 108.525 21.2392 107.841 21.9104C107.796 21.9549 107.788 22.0266 107.822 22.0804L108.301 22.8435C108.324 22.8787 108.36 22.9017 108.402 22.9065C108.443 22.9122 108.485 22.896 108.514 22.8671C109.016 22.3643 109.568 22.1197 110.201 22.1197C111 22.1197 111.517 22.5297 111.517 23.1644V23.8202C111.06 23.4303 110.436 23.2247 109.709 23.2247C108.648 23.2247 107.505 23.8757 107.505 25.3055C107.505 26.6731 108.641 27.4109 109.709 27.4109C110.417 27.4109 111.041 27.1985 111.517 26.7962V27.1266C111.517 27.202 111.578 27.2632 111.653 27.2632H112.761C112.836 27.2632 112.897 27.202 112.897 27.1266V23.1152C112.897 21.7067 111.977 20.8989 110.374 20.8989Z" fill="#0F1031"/>
<path d="M115.763 18.7827H114.656C114.581 18.7827 114.519 18.8439 114.519 18.9193V27.127C114.519 27.2022 114.581 27.2636 114.656 27.2636H115.763C115.839 27.2636 115.9 27.2022 115.9 27.127V18.9193C115.9 18.8439 115.839 18.7827 115.763 18.7827Z" fill="#0F1031"/>
<path d="M120.255 22.0828C121.295 22.0828 121.837 22.8306 121.917 23.5814H118.587C118.701 22.8304 119.257 22.0828 120.255 22.0828ZM120.255 20.8989C118.479 20.8989 117.141 22.2961 117.141 24.1487C117.141 26.0695 118.462 27.4109 120.353 27.4109C121.36 27.4109 122.218 27.091 122.836 26.486C122.884 26.4388 122.891 26.3643 122.852 26.3092L122.335 25.5832C122.311 25.55 122.275 25.5292 122.234 25.526C122.196 25.524 122.154 25.5386 122.126 25.5671C121.73 25.9742 121.093 26.2271 120.464 26.2271C119.271 26.2271 118.717 25.3872 118.6 24.6546H123.147C123.222 24.6546 123.283 24.5932 123.283 24.518V24.247C123.283 22.2758 122.038 20.8989 120.255 20.8989Z" fill="#0F1031"/>
<path d="M127.654 20.8989C126.669 20.8989 125.977 21.414 125.686 21.6796V21.1833C125.686 21.1079 125.625 21.0467 125.549 21.0467H124.442C124.366 21.0467 124.305 21.1079 124.305 21.1833V27.1266C124.305 27.202 124.366 27.2632 124.442 27.2632H125.549C125.625 27.2632 125.686 27.202 125.686 27.1266V22.9266C125.98 22.5422 126.556 22.1567 127.186 22.1567C127.968 22.1567 128.317 22.5166 128.317 23.3243V27.1266C128.317 27.202 128.378 27.2632 128.453 27.2632H129.561C129.636 27.2632 129.697 27.202 129.697 27.1266V22.9552C129.697 21.6101 128.991 20.8989 127.654 20.8989Z" fill="#0F1031"/>
<path d="M135.322 22.9349V25.3878C135.013 25.8389 134.393 26.1536 133.809 26.1536C132.816 26.1536 132.149 25.3528 132.149 24.1613C132.149 22.9624 132.816 22.1568 133.809 22.1568C134.379 22.1568 135.013 22.4838 135.322 22.9349ZM136.566 18.7827H135.458C135.383 18.7827 135.322 18.8439 135.322 18.9193V21.6763C134.829 21.1745 134.19 20.8993 133.514 20.8993C131.843 20.8993 130.719 22.2104 130.719 24.1613C130.719 26.1053 131.843 27.4111 133.514 27.4111C134.179 27.4111 134.834 27.1322 135.322 26.6438V27.127C135.322 27.2022 135.383 27.2636 135.458 27.2636H136.566C136.641 27.2636 136.702 27.2022 136.702 27.127V18.9193C136.702 18.8439 136.641 18.7827 136.566 18.7827Z" fill="#0F1031"/>
<path d="M141.991 24.8603V25.7753C141.695 26.1431 141.176 26.3626 140.602 26.3626C139.878 26.3626 139.373 25.9329 139.373 25.3179C139.373 24.7027 139.878 24.273 140.602 24.273C141.176 24.273 141.695 24.4925 141.991 24.8603ZM140.848 20.8989C139.852 20.8989 139 21.2392 138.316 21.9104C138.271 21.9549 138.262 22.0266 138.296 22.0804L138.776 22.8435C138.798 22.8787 138.835 22.9017 138.877 22.9065C138.918 22.9122 138.959 22.896 138.988 22.8671C139.491 22.3643 140.043 22.1197 140.676 22.1197C141.475 22.1197 141.991 22.5297 141.991 23.1644V23.8202C141.534 23.4303 140.911 23.2247 140.184 23.2247C139.122 23.2247 137.98 23.8757 137.98 25.3055C137.98 26.6731 139.115 27.4109 140.184 27.4109C140.892 27.4109 141.515 27.1985 141.991 26.7962V27.1266C141.991 27.202 142.053 27.2632 142.128 27.2632H143.235C143.311 27.2632 143.372 27.202 143.372 27.1266V23.1152C143.372 21.7067 142.452 20.8989 140.848 20.8989Z" fill="#0F1031"/>
<path d="M148.182 20.9121C147.541 20.9121 146.886 21.2093 146.375 21.7299V21.184C146.375 21.1086 146.313 21.0474 146.238 21.0474H145.131C145.055 21.0474 144.994 21.1086 144.994 21.184V27.1273C144.994 27.2027 145.055 27.2639 145.131 27.2639H146.238C146.313 27.2639 146.375 27.2027 146.375 27.1273V23.0311C146.631 22.631 147.309 22.2682 147.801 22.2682C147.936 22.2682 148.051 22.2793 148.153 22.3018C148.192 22.3101 148.235 22.3007 148.268 22.275C148.3 22.2487 148.319 22.2098 148.319 22.1685V21.0487C148.319 20.9733 148.258 20.9121 148.182 20.9121Z" fill="#0F1031"/>
</svg>
