<svg width="70" height="70" viewBox="0 0 70 70" fill="none" xmlns="http://www.w3.org/2000/svg">
<path d="M10.03 16H59.16C60.83 16 62.19 17.36 62.19 19.03V51.36C62.19 53.03 60.83 54.39 59.16 54.39H10.03C8.36 54.4 7 53.04 7 51.37V19.03C7 17.36 8.36 16 10.03 16Z" fill="#B22234"/>
<path d="M7.02 18.73H62.19C62.2 18.83 62.21 18.93 62.21 19.04V21.98H7V19.03C7 18.93 7.01 18.83 7.02 18.73ZM62.2 24.67V27.91H7V24.67H62.2ZM62.2 30.61V33.85H7V30.61H62.2V30.61ZM62.2 36.55V39.79H7V36.55H62.2V36.55ZM62.2 42.49V45.73H7V42.49H62.2V42.49ZM62.2 48.43V51.36C62.2 51.46 62.19 51.57 62.18 51.67H7.02C7.01 51.58 7 51.47 7 51.37V48.44H62.2V48.43Z" fill="white"/>
<path d="M27.8 16V36.68H7V19.03C7 17.36 8.36 16 10.03 16H27.8Z" fill="#3C3B6E"/>
<path d="M8.22961 18.8599L8.91961 21.0099L7.09961 19.6799H9.35961L7.52961 21.0099L8.22961 18.8599Z" fill="white"/>
<path d="M8.22961 23.02L8.91961 25.17L7.09961 23.84H9.35961L7.52961 25.17L8.22961 23.02Z" fill="white"/>
<path d="M8.22961 27.1802L8.91961 29.3302L7.09961 28.0002H9.35961L7.52961 29.3302L8.22961 27.1802Z" fill="white"/>
<path d="M8.22961 31.3398L8.91961 33.4898L7.09961 32.1598H9.35961L7.52961 33.4898L8.22961 31.3398Z" fill="white"/>
<path d="M10.6691 16.7798L11.3691 18.9298L9.53906 17.5998H11.8091L9.96906 18.9298L10.6691 16.7798Z" fill="white"/>
<path d="M10.6691 20.9399L11.3691 23.0899L9.53906 21.7599H11.8091L9.96906 23.0899L10.6691 20.9399Z" fill="white"/>
<path d="M10.6691 25.1001L11.3691 27.2501L9.53906 25.9201H11.8091L9.96906 27.2501L10.6691 25.1001Z" fill="white"/>
<path d="M10.6691 29.2598L11.3691 31.4098L9.53906 30.0798H11.8091L9.96906 31.4098L10.6691 29.2598Z" fill="white"/>
<path d="M10.6691 33.4199L11.3691 35.5699L9.53906 34.2399H11.8091L9.96906 35.5699L10.6691 33.4199Z" fill="white"/>
<path d="M13.1202 18.8599L13.8202 21.0099L11.9902 19.6799H14.2502L12.4202 21.0099L13.1202 18.8599Z" fill="white"/>
<path d="M13.1202 23.02L13.8202 25.17L11.9902 23.84H14.2502L12.4202 25.17L13.1202 23.02Z" fill="white"/>
<path d="M13.1202 27.1802L13.8202 29.3302L11.9902 28.0002H14.2502L12.4202 29.3302L13.1202 27.1802Z" fill="white"/>
<path d="M13.1202 31.3398L13.8202 33.4898L11.9902 32.1598H14.2502L12.4202 33.4898L13.1202 31.3398Z" fill="white"/>
<path d="M15.5695 16.7798L16.2595 18.9298L14.4395 17.5998H16.6995L14.8695 18.9298L15.5695 16.7798Z" fill="white"/>
<path d="M15.5695 20.9399L16.2595 23.0899L14.4395 21.7599H16.6995L14.8695 23.0899L15.5695 20.9399Z" fill="white"/>
<path d="M15.5695 25.1001L16.2595 27.2501L14.4395 25.9201H16.6995L14.8695 27.2501L15.5695 25.1001Z" fill="white"/>
<path d="M15.5695 29.2598L16.2595 31.4098L14.4395 30.0798H16.6995L14.8695 31.4098L15.5695 29.2598Z" fill="white"/>
<path d="M15.5695 33.4199L16.2595 35.5699L14.4395 34.2399H16.6995L14.8695 35.5699L15.5695 33.4199Z" fill="white"/>
<path d="M18.0109 18.8599L18.7109 21.0099L16.8809 19.6799H19.1409L17.3109 21.0099L18.0109 18.8599Z" fill="white"/>
<path d="M18.0109 23.02L18.7109 25.17L16.8809 23.84H19.1409L17.3109 25.17L18.0109 23.02Z" fill="white"/>
<path d="M18.0109 27.1802L18.7109 29.3302L16.8809 28.0002H19.1409L17.3109 29.3302L18.0109 27.1802Z" fill="white"/>
<path d="M18.0109 31.3398L18.7109 33.4898L16.8809 32.1598H19.1409L17.3109 33.4898L18.0109 31.3398Z" fill="white"/>
<path d="M20.4601 16.7798L21.1601 18.9298L19.3301 17.5998H21.5901L19.7601 18.9298L20.4601 16.7798Z" fill="white"/>
<path d="M20.4601 20.9399L21.1601 23.0899L19.3301 21.7599H21.5901L19.7601 23.0899L20.4601 20.9399Z" fill="white"/>
<path d="M20.4601 25.1001L21.1601 27.2501L19.3301 25.9201H21.5901L19.7601 27.2501L20.4601 25.1001Z" fill="white"/>
<path d="M20.4601 29.2598L21.1601 31.4098L19.3301 30.0798H21.5901L19.7601 31.4098L20.4601 29.2598Z" fill="white"/>
<path d="M20.4601 33.4199L21.1601 35.5699L19.3301 34.2399H21.5901L19.7601 35.5699L20.4601 33.4199Z" fill="white"/>
<path d="M22.8995 18.8599L23.5995 21.0099L21.7695 19.6799H24.0295L22.2095 21.0099L22.8995 18.8599Z" fill="white"/>
<path d="M22.8995 23.02L23.5995 25.17L21.7695 23.84H24.0295L22.2095 25.17L22.8995 23.02Z" fill="white"/>
<path d="M22.8995 27.1802L23.5995 29.3302L21.7695 28.0002H24.0295L22.2095 29.3302L22.8995 27.1802Z" fill="white"/>
<path d="M22.8995 31.3398L23.5995 33.4898L21.7695 32.1598H24.0295L22.2095 33.4898L22.8995 31.3398Z" fill="white"/>
<path d="M25.3507 16.7798L26.0507 18.9298L24.2207 17.5998H26.4807L24.6507 18.9298L25.3507 16.7798Z" fill="white"/>
<path d="M25.3507 20.9399L26.0507 23.0899L24.2207 21.7599H26.4807L24.6507 23.0899L25.3507 20.9399Z" fill="white"/>
<path d="M25.3507 25.1001L26.0507 27.2501L24.2207 25.9201H26.4807L24.6507 27.2501L25.3507 25.1001Z" fill="white"/>
<path d="M25.3507 29.2598L26.0507 31.4098L24.2207 30.0798H26.4807L24.6507 31.4098L25.3507 29.2598Z" fill="white"/>
<path d="M25.3507 33.4199L26.0507 35.5699L24.2207 34.2399H26.4807L24.6507 35.5699L25.3507 33.4199Z" fill="white"/>
</svg>
