<svg width="155" height="45" viewBox="0 0 155 45" fill="none" xmlns="http://www.w3.org/2000/svg">
<path d="M75.8464 15.2441H87.7201V20.2095H80.8118V25.1749H87.7201V30.1402H75.8464V15.2441Z" fill="black"/>
<path d="M90.0949 15.2441H101.969V19.5618H95.0603V20.4254H101.969V30.3561H90.0949V25.8225H97.0032V24.959H90.0949V15.2441Z" fill="black"/>
<path d="M104.343 15.2441H116.217V19.5618H109.309V20.4254H116.217V30.3561H104.343V25.8225H111.252V24.959H104.343V15.2441Z" fill="black"/>
<path d="M63.0426 34.9969L52.21 38L41.4073 35.0011L39 8H65.4525L63.0426 34.9969Z" fill="#264DE4"/>
<path d="M52.2262 35.7043L60.9795 33.2776L63.0389 10.2075H52.2262V35.7043Z" fill="#2965F1"/>
<path d="M52.2262 20.2222H44.5188L44.8156 23.5337H52.2262V20.2222Z" fill="#EBEBEB"/>
<path d="M52.2148 13.519H43.9224L44.2234 16.8307H52.2262V13.519H52.2148Z" fill="#EBEBEB"/>
<path d="M52.2117 28.8265L48.5236 27.8306L48.2878 25.1895H46.4957H44.9635L45.4275 30.3891L52.211 32.2722L52.2262 32.268V28.8226L52.2117 28.8265Z" fill="#EBEBEB"/>
<path d="M56.8811 16.8307L56.5798 20.2218H52.2148V23.5333H56.2926L55.9082 27.8282L52.2148 28.825V32.2703L59.0037 30.3888L59.0535 29.8293L59.8317 21.111L59.9125 20.2218L60.5103 13.519H52.2148V16.8307H56.8811Z" fill="white"/>
</svg>
