<svg width="155" height="45" viewBox="0 0 155 45" fill="none" xmlns="http://www.w3.org/2000/svg">
<path d="M66.139 18.8963C66.139 19.5137 66.2057 20.0143 66.3225 20.3814C66.4559 20.7485 66.6228 21.149 66.8564 21.5828C66.9398 21.7163 66.9732 21.8498 66.9732 21.9666C66.9732 22.1335 66.8731 22.3003 66.6561 22.4672L65.605 23.168C65.4548 23.2681 65.3046 23.3182 65.1711 23.3182C65.0042 23.3182 64.8373 23.2347 64.6705 23.0846C64.4369 22.8343 64.2366 22.5673 64.0698 22.3003C63.9029 22.0167 63.7361 21.6996 63.5525 21.3158C62.2509 22.8509 60.6157 23.6185 58.6467 23.6185C57.245 23.6185 56.127 23.2181 55.3094 22.4171C54.4917 21.6161 54.0746 20.5482 54.0746 19.2133C54.0746 17.795 54.5752 16.6435 55.593 15.7759C56.6109 14.9082 57.9625 14.4743 59.6813 14.4743C60.2486 14.4743 60.8326 14.5244 61.45 14.6079C62.0674 14.6913 62.7015 14.8247 63.369 14.975V13.7568C63.369 12.4886 63.1019 11.6043 62.5847 11.087C62.0508 10.5697 61.1497 10.3194 59.8648 10.3194C59.2808 10.3194 58.6801 10.3861 58.0626 10.5364C57.4452 10.6865 56.8445 10.87 56.2605 11.1037C55.9935 11.2205 55.7933 11.2872 55.6765 11.3206C55.5597 11.354 55.4763 11.3706 55.4095 11.3706C55.1759 11.3706 55.0591 11.2038 55.0591 10.8534V10.0358C55.0591 9.76876 55.0925 9.5685 55.1759 9.45177C55.2593 9.33496 55.4095 9.21816 55.6431 9.10128C56.2271 8.80096 56.928 8.55068 57.7456 8.35042C58.5632 8.13348 59.4309 8.03335 60.3487 8.03335C62.3344 8.03335 63.7861 8.4839 64.7205 9.38499C65.6383 10.2861 66.1055 11.6543 66.1055 13.4899V18.8963H66.139ZM59.3642 21.4326C59.9148 21.4326 60.4822 21.3325 61.0829 21.1322C61.6837 20.932 62.2176 20.5649 62.6681 20.0643C62.9351 19.7473 63.1354 19.3968 63.2355 18.9964C63.3355 18.5959 63.4023 18.112 63.4023 17.5446V16.8438C62.9184 16.727 62.4011 16.6269 61.8672 16.5602C61.3332 16.4935 60.8159 16.46 60.2987 16.46C59.1807 16.46 58.363 16.677 57.8124 17.1275C57.2617 17.578 56.9947 18.2121 56.9947 19.0464C56.9947 19.8307 57.195 20.4147 57.6121 20.8152C58.0126 21.2324 58.5966 21.4326 59.3642 21.4326ZM72.7634 23.2347C72.4631 23.2347 72.2628 23.1847 72.1293 23.0679C71.9958 22.9678 71.879 22.7342 71.779 22.4171L67.8576 9.51847C67.7575 9.18473 67.7075 8.96787 67.7075 8.85099C67.7075 8.58403 67.8409 8.43387 68.1079 8.43387H69.7432C70.0602 8.43387 70.2772 8.4839 70.394 8.6007C70.5275 8.70083 70.6275 8.93444 70.7277 9.25151L73.531 20.2979L76.1341 9.25151C76.2175 8.91769 76.3176 8.70083 76.4511 8.6007C76.5846 8.50057 76.8183 8.43387 77.1186 8.43387H78.4535C78.7706 8.43387 78.9875 8.4839 79.121 8.6007C79.2545 8.70083 79.3713 8.93444 79.438 9.25151L82.0745 20.4314L84.9612 9.25151C85.0614 8.91769 85.1781 8.70083 85.2949 8.6007C85.4285 8.50057 85.6454 8.43387 85.9457 8.43387H87.4975C87.7646 8.43387 87.9147 8.56735 87.9147 8.85099C87.9147 8.93444 87.8981 9.0179 87.8814 9.11795C87.8647 9.21816 87.8313 9.35156 87.7646 9.53515L83.7431 22.4338C83.643 22.7675 83.5262 22.9845 83.3927 23.0846C83.2592 23.1847 83.0423 23.2514 82.7586 23.2514H81.3236C81.0065 23.2514 80.7896 23.2014 80.6561 23.0846C80.5226 22.9678 80.4058 22.7508 80.3391 22.4171L77.7527 11.6543L75.183 22.4004C75.0996 22.7342 74.9994 22.9511 74.8659 23.0679C74.7325 23.1847 74.4988 23.2347 74.1985 23.2347H72.7634ZM94.2056 23.6853C93.3378 23.6853 92.4702 23.5852 91.6358 23.3849C90.8015 23.1847 90.1507 22.9678 89.7168 22.7175C89.4499 22.5673 89.2663 22.4004 89.1996 22.2503C89.1328 22.1 89.0995 21.9332 89.0995 21.783V20.932C89.0995 20.5816 89.233 20.4147 89.4833 20.4147C89.5834 20.4147 89.6836 20.4314 89.7836 20.4648C89.8838 20.4982 90.0339 20.5649 90.2007 20.6317C90.7681 20.882 91.3855 21.0822 92.0363 21.2156C92.7038 21.3492 93.3545 21.4159 94.022 21.4159C95.0732 21.4159 95.8909 21.2324 96.4582 20.8653C97.0256 20.4982 97.326 19.9642 97.326 19.28C97.326 18.8128 97.1757 18.429 96.8754 18.112C96.575 17.795 96.0077 17.5113 95.19 17.2443L92.7705 16.4935C91.5524 16.1096 90.6513 15.5423 90.1007 14.7914C89.55 14.0572 89.2663 13.2396 89.2663 12.3718C89.2663 11.6711 89.4165 11.0536 89.7168 10.5197C90.0172 9.98569 90.4178 9.51847 90.9183 9.15138C91.4189 8.76761 91.9863 8.4839 92.6537 8.28364C93.3212 8.08345 94.022 8 94.7562 8C95.1233 8 95.5071 8.01668 95.8742 8.06678C96.258 8.11681 96.6084 8.18351 96.9589 8.25029C97.2925 8.33374 97.6096 8.41712 97.9099 8.51732C98.2103 8.61738 98.4439 8.71751 98.6107 8.81764C98.8444 8.95112 99.0113 9.0846 99.1113 9.23476C99.2115 9.36824 99.2615 9.55182 99.2615 9.78551V10.5697C99.2615 10.9201 99.1281 11.1037 98.8778 11.1037C98.7442 11.1037 98.5274 11.0369 98.2437 10.9035C97.2925 10.4696 96.2246 10.2527 95.0399 10.2527C94.0887 10.2527 93.3378 10.4029 92.8206 10.72C92.3033 11.0369 92.0363 11.5208 92.0363 12.205C92.0363 12.6722 92.2031 13.0727 92.5369 13.3897C92.8707 13.7068 93.4881 14.0238 94.3724 14.3075L96.7419 15.0584C97.9433 15.4421 98.811 15.9761 99.3283 16.6603C99.8456 17.3444 100.096 18.1287 100.096 18.9964C100.096 19.7139 99.9457 20.3647 99.6621 20.932C99.3616 21.4993 98.9612 21.9999 98.4439 22.4004C97.9266 22.8176 97.3092 23.1179 96.5917 23.3349C95.8408 23.5685 95.0566 23.6853 94.2056 23.6853Z" fill="#252F3E"/>
<path fill-rule="evenodd" clip-rule="evenodd" d="M97.3592 31.7926C91.8693 35.8473 83.8932 37.9999 77.0351 37.9999C67.4236 37.9999 58.7634 34.4457 52.2223 28.5387C51.705 28.0715 52.1722 27.4373 52.7896 27.8045C59.8647 31.9094 68.5917 34.3956 77.6191 34.3956C83.7097 34.3956 90.4009 33.1274 96.5582 30.5244C97.476 30.1072 98.2602 31.1251 97.3592 31.7926Z" fill="#FF9900"/>
<path fill-rule="evenodd" clip-rule="evenodd" d="M99.6458 29.1912C98.945 28.2901 95.0069 28.7573 93.2214 28.9743C92.6875 29.041 92.604 28.5738 93.0879 28.2234C96.225 26.0207 101.381 26.6549 101.982 27.3891C102.583 28.1399 101.815 33.296 98.8782 35.7656C98.4276 36.1494 97.9938 35.9492 98.194 35.4486C98.8615 33.7967 100.347 30.0755 99.6458 29.1912Z" fill="#FF9900"/>
</svg>
