<svg width="652" height="650" viewBox="0 0 652 650" fill="none" xmlns="http://www.w3.org/2000/svg">
<rect width="650" height="650" transform="translate(2)" fill="white"/>
<g clip-path="url(#clip0_511_6)">
<path d="M166.698 272.663C166.698 272.663 160.766 267.815 151.452 282.21C142.136 296.605 138.299 305.063 138.299 305.063C138.299 305.063 135.923 308.035 133.945 305.731C131.969 303.428 129.574 297.22 125.742 297.904C121.767 298.61 120.054 302.781 120.142 309.175C120.23 315.57 119.908 329.586 119.874 330.853C119.841 332.097 118.946 333.844 117.347 332.49C115.748 331.136 106.983 319.131 101.524 323.622C96.0646 328.113 99.2424 345.887 99.553 347.837C99.8628 349.785 99.4073 350.559 98.4553 350.935C97.504 351.314 94.9391 347.001 92.3062 343.689C89.6729 340.376 86.0379 336.996 83.1056 339.85C80.1737 342.705 78.0084 355.575 88.2053 377.883L93.6086 387.912L105.056 388.443C129.623 388.094 140.353 380.633 141.685 376.767C143.015 372.9 138.398 371.069 134.271 370.112C130.143 369.154 125.141 368.687 125.075 367.667C125.009 366.647 125.515 365.905 127.414 365.351C129.311 364.796 146.769 360.055 148.5 353.211C150.231 346.364 135.607 343.596 133.697 342.734C131.787 341.872 132.986 340.317 134.098 339.754C135.231 339.182 147.788 332.893 153.616 330.235C159.446 327.578 162.489 324.249 161.429 320.362C160.406 316.613 153.761 317.11 150.828 316.312C147.895 315.516 149.571 312.1 149.571 312.1C149.571 312.1 155.589 305.019 164.64 290.457C173.691 275.896 166.571 272.573 166.571 272.573L166.698 272.663Z" fill="#E7E8E5"/>
<path d="M91.5845 389.764C98.274 379.096 110.483 360.335 120.88 344.173C131.274 328.017 140.671 313.38 147.414 302.748C150.774 297.436 153.496 293.135 155.386 290.146C156.323 288.669 157.052 287.517 157.557 286.722C157.802 286.342 157.993 286.047 158.128 285.835C158.259 285.637 158.334 285.54 158.334 285.54C158.334 285.54 158.28 285.65 158.16 285.854C158.031 286.07 157.849 286.372 157.617 286.759C157.126 287.563 156.415 288.727 155.503 290.219C153.664 293.223 150.973 297.548 147.626 302.881C140.936 313.549 131.572 328.208 121.178 344.363C110.781 360.526 98.5394 379.265 91.7969 389.897" fill="#DADBD8"/>
<path d="M128.742 306.72C128.765 306.717 128.838 307.001 128.949 307.518C129.062 308.035 129.203 308.789 129.369 309.719C129.698 311.582 130.085 314.168 130.461 317.028C130.822 319.85 131.148 322.402 131.397 324.353C131.515 325.232 131.615 325.974 131.694 326.571C131.767 327.094 131.797 327.386 131.773 327.391C131.748 327.395 131.673 327.111 131.559 326.594C131.447 326.077 131.306 325.323 131.149 324.39C130.84 322.523 130.486 319.935 130.11 317.074C129.729 314.257 129.385 311.708 129.121 309.759C128.999 308.879 128.896 308.138 128.813 307.541C128.744 307.017 128.717 306.725 128.742 306.72Z" fill="#DADBD8"/>
<path d="M132.793 327.698C132.777 327.602 138.082 326.57 144.642 325.392C151.206 324.216 156.538 323.339 156.555 323.435C156.573 323.531 151.268 324.564 144.705 325.74C138.145 326.918 132.812 327.794 132.793 327.698Z" fill="#DADBD8"/>
<path d="M115.708 351.795C115.711 351.77 116.011 351.789 116.55 351.842C117.159 351.907 117.922 351.987 118.827 352.082C120.749 352.283 123.404 352.549 126.345 352.735C129.287 352.927 131.955 353.008 133.888 353.051C134.797 353.074 135.563 353.092 136.177 353.106C136.717 353.122 137.016 353.141 137.016 353.167C137.017 353.191 136.718 353.217 136.178 353.244C135.637 353.269 134.854 353.295 133.886 353.302C131.95 353.322 129.273 353.28 126.323 353.087C123.374 352.901 120.714 352.595 118.796 352.331C117.838 352.196 117.064 352.077 116.531 351.979C115.997 351.883 115.705 351.819 115.708 351.795Z" fill="#DADBD8"/>
<path d="M107.858 333.626C107.88 333.615 108.014 333.858 108.236 334.305C108.485 334.823 108.791 335.459 109.151 336.21C109.909 337.826 110.933 340.067 112.044 342.551C113.156 345.036 114.145 347.295 114.844 348.936C115.164 349.705 115.434 350.356 115.655 350.888C115.839 351.351 115.932 351.612 115.908 351.623C115.886 351.632 115.752 351.39 115.53 350.943C115.281 350.425 114.975 349.788 114.616 349.037C113.858 347.422 112.833 345.181 111.721 342.695C110.61 340.211 109.622 337.954 108.922 336.312C108.602 335.544 108.332 334.891 108.111 334.361C107.926 333.897 107.836 333.635 107.858 333.626Z" fill="#DADBD8"/>
<path d="M90.065 352.986C90.0873 352.976 90.2563 353.287 90.5416 353.859C90.8497 354.495 91.2464 355.314 91.7227 356.298C92.7053 358.363 94.0412 361.224 95.496 364.395C96.9515 367.566 98.251 370.446 99.1753 372.537C99.6101 373.54 99.9724 374.375 100.254 375.022C100.501 375.612 100.628 375.943 100.605 375.953C100.583 375.963 100.414 375.652 100.129 375.08C99.8204 374.444 99.4237 373.625 98.9475 372.642C97.9649 370.577 96.6294 367.714 95.1737 364.543C93.7186 361.372 92.4191 358.493 91.4948 356.401C91.0601 355.4 90.6977 354.564 90.4165 353.917C90.169 353.327 90.043 352.996 90.065 352.986Z" fill="#DADBD8"/>
<path d="M100.508 375.334C100.51 375.308 100.89 375.322 101.575 375.365C102.322 375.418 103.298 375.485 104.473 375.567C106.919 375.734 110.3 375.952 114.038 376.088C117.776 376.23 121.164 376.268 123.616 376.278C124.795 376.283 125.771 376.289 126.521 376.293C127.207 376.299 127.587 376.315 127.587 376.339C127.588 376.364 127.209 376.395 126.524 376.431C125.838 376.467 124.846 376.504 123.618 376.528C121.164 376.582 117.77 376.583 114.024 376.441C110.28 376.306 106.896 376.048 104.453 375.816C103.231 375.697 102.243 375.592 101.562 375.503C100.881 375.416 100.505 375.357 100.508 375.334Z" fill="#DADBD8"/>
<path d="M73.2846 313.011C73.2846 313.011 73.4093 314.83 72.9877 318.225C72.533 321.59 71.4464 326.621 68.2239 332.224L68.1129 332.032H68.1228L68.3431 332.031L68.2346 332.223C61.324 344.452 50.9539 362.805 38.5412 384.773L38.3548 385.102L38.1531 384.782C28.7048 369.741 18.028 352.744 6.76473 334.815C6.2355 333.972 5.70835 333.132 5.22094 332.355L4.982 331.974L5.43296 331.976H5.43421L5.21887 332.349C2.81208 328.234 1.22897 323.722 0.488955 319.15C0.134895 316.862 -0.0638763 314.56 0.0185308 312.282C0.0806467 311.144 0.141934 310.01 0.203637 308.883C0.373005 307.764 0.541547 306.653 0.70926 305.545C2.43194 296.723 7.23557 288.986 13.523 283.68C16.6896 281.043 20.2198 279.032 23.8495 277.624L25.2152 277.116L25.894 276.863L26.5909 276.678C27.5206 276.437 28.4428 276.196 29.358 275.959C31.2256 275.677 33.0555 275.297 34.8895 275.29C36.7166 275.122 38.5105 275.293 40.2717 275.385C41.1492 275.455 42.0064 275.645 42.8627 275.766C43.2893 275.835 43.7141 275.904 44.1374 275.971C44.556 276.059 44.964 276.186 45.3748 276.291C46.1925 276.512 47.0034 276.731 47.8046 276.948C48.5808 277.243 49.3489 277.535 50.1079 277.825C50.4856 277.973 50.8695 278.103 51.236 278.266C51.595 278.445 51.9523 278.624 52.3073 278.801C53.0166 279.159 53.7169 279.513 54.4097 279.862C59.7856 282.983 63.8214 287.059 66.6026 291.094C69.4041 295.144 70.9574 299.135 71.9147 302.437C72.3185 304.114 72.7276 305.593 72.8506 306.918C73.035 308.232 73.2159 309.341 73.206 310.251C73.237 311.145 73.2606 311.831 73.2772 312.31C73.2909 312.774 73.2846 313.011 73.2846 313.011C73.2846 313.011 73.2564 312.774 73.2271 312.31C73.1989 311.833 73.1587 311.15 73.1069 310.257C73.1008 309.35 72.9045 308.247 72.7057 306.94C72.5682 305.622 72.1463 304.153 71.7305 302.489C70.749 299.21 69.1788 295.256 66.3757 291.251C63.5941 287.259 59.5736 283.237 54.2378 280.165C53.5509 279.821 52.8555 279.474 52.1528 279.123C51.8004 278.948 51.4459 278.772 51.0902 278.595C50.7266 278.435 50.346 278.308 49.9721 278.162C49.2193 277.879 48.4581 277.591 47.6895 277.301C46.8957 277.09 46.0932 276.876 45.2832 276.659C44.8761 276.558 44.4728 276.433 44.0586 276.347C43.6396 276.281 43.2193 276.215 42.7965 276.148C41.9497 276.031 41.102 275.845 40.2332 275.778C38.491 275.693 36.717 275.527 34.9107 275.697C33.0977 275.708 31.2893 276.091 29.4449 276.371C28.5413 276.608 27.6303 276.847 26.7126 277.089L26.0239 277.273L25.3539 277.523L24.0064 278.028C20.424 279.428 16.9402 281.419 13.8161 284.028C7.6153 289.28 2.88083 296.925 1.18672 305.636C1.0215 306.73 0.855853 307.829 0.689796 308.932C0.629751 310.047 0.569706 311.167 0.509246 312.29C0.42891 314.54 0.626439 316.813 0.977186 319.07C1.71015 323.584 3.2734 328.038 5.64872 332.098L5.86819 332.473L5.43338 332.472H5.43172L5.64333 332.092C6.13073 332.868 6.65789 333.708 7.18629 334.55C18.4354 352.489 29.0987 369.494 38.5354 384.542L38.1482 384.551C50.6317 362.623 61.0614 344.304 68.0114 332.097L68.1232 332.288H68.1133H67.89L68.0027 332.095C71.2356 326.551 72.3587 321.554 72.8539 318.207C73.0974 316.521 73.1675 315.216 73.2242 314.34C73.2399 313.912 73.2519 313.583 73.2606 313.347C73.2709 313.124 73.2846 313.011 73.2846 313.011Z" fill="#DADBD8"/>
<path d="M59.9636 312.593C59.9549 312.593 59.9403 312.466 59.9201 312.219C59.901 311.947 59.8754 311.583 59.8426 311.12C59.8277 310.876 59.8103 310.606 59.7917 310.312C59.7598 310.016 59.6956 309.695 59.6426 309.345C59.5317 308.648 59.4257 307.84 59.1581 306.961C58.7494 305.176 57.912 303.067 56.594 300.831C55.265 298.605 53.3486 296.279 50.7389 294.305C48.1371 292.348 44.8544 290.682 41.0625 290.004C37.2966 289.35 33.0437 289.458 28.9901 290.983C27.9589 291.31 26.9891 291.817 25.992 292.291C25.0473 292.858 24.0519 293.381 23.1723 294.091C22.2373 294.728 21.4198 295.526 20.5626 296.295C19.7886 297.146 18.9749 297.979 18.3069 298.945C16.9359 300.836 15.7374 302.937 15.0103 305.249C14.2561 307.547 13.847 309.987 13.8081 312.472C13.8342 314.96 14.2301 317.403 14.9721 319.705C15.6873 322.022 16.8755 324.129 18.2365 326.027C18.9 326.997 19.7096 327.835 20.4798 328.691C21.3324 329.463 22.1465 330.266 23.0783 330.908C23.9546 331.624 24.9471 332.15 25.8888 332.723C26.884 333.202 27.8517 333.714 28.8812 334.046C32.9273 335.592 37.1803 335.722 40.9494 335.086C44.7447 334.427 48.0369 332.777 50.6478 330.833C53.2675 328.871 55.1951 326.555 56.5356 324.336C57.8649 322.107 58.7121 320.003 59.1296 318.22C59.402 317.342 59.5113 316.534 59.6269 315.838C59.6812 315.488 59.747 315.168 59.7805 314.873C59.8 314.578 59.8187 314.308 59.8352 314.065C59.8704 313.601 59.8982 313.238 59.918 312.968C59.9399 312.72 59.9549 312.593 59.9636 312.593C59.9727 312.593 59.9739 312.72 59.9693 312.969C59.961 313.24 59.9499 313.605 59.9349 314.071C59.9258 314.316 59.9155 314.588 59.9039 314.885C59.8782 315.184 59.8202 315.506 59.7731 315.859C59.6729 316.562 59.5767 317.378 59.3175 318.268C58.9254 320.072 58.0971 322.209 56.7741 324.478C55.4411 326.738 53.5064 329.103 50.8607 331.114C48.2237 333.105 44.8851 334.801 41.0244 335.491C37.1902 336.157 32.8566 336.04 28.7234 334.476C27.672 334.139 26.6835 333.622 25.6673 333.133C24.7041 332.553 23.6908 332.016 22.7943 331.289C21.8422 330.634 21.0086 329.818 20.1377 329.03C19.3489 328.159 18.5219 327.304 17.8428 326.315C16.4501 324.379 15.2352 322.226 14.5018 319.86C13.741 317.509 13.3365 315.01 13.3096 312.471C13.3493 309.933 13.768 307.439 14.5403 305.091C15.286 302.73 16.5114 300.585 17.9144 298.656C18.5985 297.67 19.43 296.821 20.2227 295.953C21.0977 295.171 21.9345 294.358 22.8903 293.709C23.7897 292.987 24.8068 292.454 25.7724 291.879C26.7908 291.397 27.7817 290.884 28.8348 290.553C32.9755 289.008 37.3091 288.914 41.1395 289.599C44.9961 290.307 48.3263 292.021 50.9535 294.026C53.5892 296.05 55.5115 298.424 56.8333 300.69C58.1452 302.966 58.9626 305.107 59.3462 306.914C59.6012 307.804 59.6931 308.622 59.7896 309.325C59.8348 309.677 59.8911 310.001 59.9155 310.299C59.9258 310.598 59.9345 310.869 59.9428 311.114C59.9549 311.58 59.9644 311.945 59.971 312.217C59.9743 312.466 59.9727 312.593 59.9636 312.593Z" fill="#DADBD8"/>
<path d="M36.3004 323.372L22.8125 313.981L26.0968 309.285L35.1404 315.582L46.8402 300.747L51.3498 304.289L36.3004 323.372Z" fill="#DADBD8"/>
<path fill-rule="evenodd" clip-rule="evenodd" d="M408.352 174.311C395.945 174.753 387.122 186.318 389.999 198.371C392.127 207.286 400.446 213.601 409.624 213.267C422.023 212.815 430.833 201.261 427.965 189.217C425.841 180.303 417.527 173.984 408.352 174.311ZM413.761 149.491C417.748 149.99 421.602 151.019 425.233 152.514L433.665 145.462L448.148 156.463L443.586 166.453C445.997 169.546 448.019 172.978 449.563 176.682L460.519 177.646L462.964 195.645L452.664 199.487C452.166 203.468 451.132 207.313 449.633 210.936L456.7 219.352L445.677 233.804L435.666 229.251C432.566 231.657 429.128 233.673 425.414 235.214L424.451 246.147L406.412 248.59L402.562 238.31C398.572 237.812 394.722 236.781 391.09 235.285L382.656 242.338L368.172 231.337L372.736 221.346C370.325 218.253 368.307 214.821 366.759 211.117L355.806 210.154L353.358 192.154L363.659 188.313C364.158 184.333 365.19 180.486 366.69 176.864L359.623 168.448L370.646 153.995L380.656 158.549C383.757 156.144 387.195 154.126 390.909 152.584L391.873 141.654L409.909 139.211L413.761 149.491Z" fill="#F3F2F1"/>
<path fill-rule="evenodd" clip-rule="evenodd" d="M245.997 223.149C237.944 223.436 232.217 230.943 234.084 238.767C235.466 244.553 240.867 248.654 246.823 248.437C254.872 248.143 260.591 240.643 258.729 232.824C257.351 227.039 251.953 222.936 245.997 223.149ZM249.51 207.037C252.097 207.361 254.599 208.029 256.956 209L262.429 204.422L271.831 211.563L268.869 218.048C270.434 220.056 271.747 222.284 272.749 224.688L279.861 225.313L281.449 236.997L274.763 239.491C274.439 242.076 273.768 244.571 272.794 246.923L277.382 252.386L270.227 261.767L263.729 258.812C261.716 260.374 259.483 261.682 257.072 262.684L256.448 269.78L244.738 271.366L242.239 264.691C239.65 264.369 237.15 263.7 234.792 262.729L229.318 267.308L219.916 260.166L222.88 253.681C221.314 251.673 220.004 249.445 218.999 247.04L211.888 246.415L210.299 234.732L216.986 232.238C217.31 229.654 217.98 227.157 218.954 224.806L214.366 219.343L221.521 209.961L228.02 212.917C230.032 211.355 232.265 210.047 234.674 209.045L235.301 201.95L247.009 200.364L249.51 207.037Z" fill="#E7E8E5"/>
<path d="M347.751 292.437C347.751 292.437 349.49 293.072 351.983 295.23C354.421 297.352 357.584 301.358 358.546 307.268C358.999 310.182 358.92 313.529 357.82 316.858C356.713 320.157 354.772 323.516 351.768 326.101C350.309 327.43 348.59 328.543 346.711 329.404C344.844 330.294 342.793 330.906 340.657 331.17C336.392 331.794 331.791 330.953 327.768 328.795C323.78 326.569 320.595 323.149 318.83 319.223C317.905 317.283 317.321 315.227 317.068 313.178C316.786 311.135 316.803 309.089 317.141 307.147C317.712 303.229 319.508 299.789 321.701 297.085C323.924 294.37 326.71 292.505 329.418 291.321C334.929 288.955 340.013 289.464 343.115 290.376C346.28 291.315 347.751 292.437 347.751 292.437C347.69 292.569 346.129 291.6 343.001 290.818C339.93 290.058 335.003 289.71 329.755 292.079C327.175 293.264 324.541 295.086 322.455 297.701C320.397 300.307 318.72 303.595 318.212 307.312C317.904 309.156 317.902 311.094 318.18 313.027C318.429 314.965 318.991 316.908 319.874 318.738C321.558 322.445 324.568 325.66 328.333 327.766C332.138 329.802 336.469 330.607 340.505 330.031C342.526 329.79 344.47 329.22 346.242 328.387C348.024 327.582 349.66 326.539 351.052 325.29C353.921 322.864 355.798 319.686 356.895 316.555C357.983 313.395 358.107 310.198 357.724 307.391C356.906 301.7 353.965 297.741 351.671 295.565C349.331 293.352 347.672 292.56 347.751 292.437Z" fill="#E7E8E5"/>
<path d="M369.614 275.964C369.598 275.969 369.651 275.734 369.772 275.264C369.908 274.747 370.09 274.053 370.327 273.155C370.857 271.228 371.62 268.45 372.608 264.846L372.698 265.062C368.398 262.739 362.744 259.686 355.905 255.994L356.271 255.931C353.966 258.552 351.403 261.465 348.662 264.581L348.525 264.738L348.32 264.688C344.551 263.774 340.405 263.272 336.038 263.391L335.805 263.397L335.69 263.192C333.936 260.059 332.038 256.665 330.062 253.137L330.547 253.335C324.778 255.027 318.658 256.824 312.23 258.71L312.562 258.238C312.787 261.797 313.034 265.715 313.287 269.733L313.306 270.025L313.054 270.177C309.774 272.155 306.422 274.76 303.459 277.883L303.248 278.106L302.951 278.022C299.512 277.043 295.719 275.966 291.857 274.868L292.46 274.616C289.582 279.868 286.479 285.531 283.299 291.334L283.181 290.663C285.874 293.035 288.83 295.642 291.826 298.283L292.078 298.506L291.998 298.835C291.074 302.569 290.561 306.779 290.675 311.036L290.683 311.378L290.381 311.546C287.221 313.297 283.773 315.208 280.292 317.139L280.565 316.475C282.259 322.266 284.076 328.473 285.916 334.765L285.319 334.346C288.958 334.124 292.885 333.885 296.84 333.643L297.196 333.622L297.379 333.925C299.394 337.266 302.002 340.585 305.062 343.486L305.066 343.489L305.068 343.492C305.14 343.753 304.91 342.908 305.229 344.08L305.226 344.091L305.22 344.113L305.208 344.156L305.182 344.243L305.133 344.418L305.033 344.766L304.833 345.463L304.433 346.854L303.636 349.63C303.106 351.476 302.578 353.316 302.052 355.147L301.77 354.472C307.427 357.57 313.008 360.628 318.51 363.64L317.795 363.764C320.369 360.863 322.918 357.99 325.442 355.147L325.674 354.885L326.014 354.969C330.052 355.968 334.175 356.407 338.236 356.309L338.581 356.301L338.748 356.601C340.639 360.009 342.5 363.363 344.339 366.676L343.693 366.41C349.952 364.596 356.066 362.825 362.027 361.097L361.639 361.648C361.404 357.747 361.175 353.916 360.95 350.151L360.932 349.832L361.204 349.669C364.809 347.507 368.039 344.902 370.819 341.998L371.032 341.775L371.327 341.86C375.129 342.953 378.814 344.012 382.412 345.047L381.849 345.282C385.093 339.413 388.153 333.871 391.067 328.596L391.164 329.148C388.132 326.458 385.287 323.932 382.543 321.497L382.352 321.328L382.413 321.08C383.477 316.814 383.866 312.721 383.786 308.842L383.781 308.607L383.986 308.496C387.66 306.477 390.969 304.66 394.096 302.943L393.931 303.343C391.892 296.247 390.155 290.201 388.668 285.026L388.938 285.214C384.335 285.465 380.558 285.671 377.413 285.843L377.298 285.848L377.239 285.751C375.089 282.157 373.07 279.767 371.704 278.227C371.027 277.498 370.51 276.941 370.129 276.532C369.762 276.151 369.598 275.968 369.614 275.964C369.63 275.961 369.831 276.131 370.2 276.462C370.572 276.813 371.136 277.345 371.848 278.097C373.265 279.6 375.345 281.965 377.564 285.556L377.391 285.465C380.533 285.254 384.305 285 388.904 284.69L389.114 284.676L389.174 284.879C390.707 290.042 392.496 296.072 394.597 303.149L394.677 303.413L394.432 303.549C391.319 305.287 388.021 307.127 384.36 309.169L384.559 308.822C384.664 312.765 384.294 316.932 383.233 321.282L383.103 320.867C385.858 323.288 388.716 325.8 391.761 328.475L392.03 328.712L391.857 329.027C388.964 334.315 385.926 339.868 382.706 345.752L382.52 346.092L382.142 345.985C378.541 344.963 374.852 343.916 371.048 342.835L371.556 342.697C368.722 345.675 365.429 348.348 361.748 350.569L362.001 350.088C362.237 353.851 362.476 357.681 362.718 361.582L362.745 362.013L362.33 362.133C356.372 363.873 350.262 365.657 344.007 367.484L343.578 367.61L343.359 367.218C341.516 363.909 339.649 360.557 337.752 357.153L338.263 357.446C334.104 357.55 329.877 357.106 325.737 356.087L326.307 355.91C323.785 358.755 321.238 361.631 318.666 364.535L318.359 364.883L317.95 364.658C312.447 361.649 306.864 358.594 301.205 355.5L300.795 355.275L300.923 354.824C301.449 352.993 301.977 351.153 302.507 349.306L303.303 346.53L303.703 345.14L303.903 344.443L304.003 344.095L304.052 343.921L304.078 343.834L304.089 343.79L304.096 343.768L304.099 343.756C304.419 344.929 304.187 344.08 304.257 344.341L304.255 344.339L304.251 344.335C301.113 341.36 298.438 337.955 296.374 334.53L296.911 334.812C292.957 335.052 289.03 335.289 285.391 335.51L284.925 335.539L284.793 335.092C282.958 328.798 281.148 322.589 279.459 316.797L279.331 316.355L279.732 316.133C283.218 314.207 286.667 312.301 289.83 310.553L289.537 311.062C289.428 306.701 289.96 302.39 290.913 298.567L291.085 299.117C288.095 296.472 285.143 293.859 282.456 291.48L282.128 291.191L282.338 290.809C285.534 285.012 288.651 279.358 291.542 274.114L291.743 273.747L292.145 273.862C296.005 274.972 299.794 276.062 303.23 277.049L302.723 277.186C305.763 274.003 309.196 271.353 312.551 269.347L312.318 269.791C312.081 265.773 311.848 261.853 311.639 258.294L311.616 257.925L311.97 257.822C318.406 255.967 324.536 254.199 330.311 252.533L330.635 252.44L330.795 252.731C332.751 256.271 334.63 259.675 336.366 262.819L336.019 262.62C340.459 262.526 344.666 263.063 348.486 264.019L348.146 264.125C350.912 261.031 353.498 258.139 355.825 255.536L355.985 255.357L356.192 255.473C362.987 259.244 368.606 262.361 372.878 264.732L373.01 264.807L372.968 264.948C371.906 268.499 371.087 271.233 370.519 273.131C370.24 274.029 370.026 274.723 369.865 275.242C369.715 275.717 369.63 275.96 369.614 275.964Z" fill="#E7E8E5"/>
<path d="M414.5 295.094L397.865 229.078L465.55 227.962L414.5 295.094Z" fill="#E7E8E5"/>
<path d="M569.043 334.614L545.794 365.189L421.89 271.362L445.139 240.787L569.043 334.614Z" fill="#E7E8E5"/>
<path d="M535.586 463.852L544.186 483.304C544.186 483.304 527.258 498.558 528.496 502.309L566.892 487.027L554.742 456.168L535.586 463.852Z" fill="#FEE13E"/>
<path d="M528.496 502.309C528.452 502.178 528.431 502.031 528.431 501.872C528.427 497.505 544.185 483.304 544.185 483.304L535.586 463.852L554.742 456.168L566.892 487.027L528.496 502.309Z" fill="#33535F"/>
<path d="M566.892 487.027L565.546 483.965L529.235 499.761C529.235 499.761 527.823 501.184 528.496 502.309L566.892 487.027Z" fill="#17282F"/>
<path d="M603.202 491.408L613.964 509.756C613.964 509.756 598.888 526.836 600.547 530.42L636.95 510.874L621.355 481.596L603.202 491.408Z" fill="#FEE13E"/>
<path d="M600.547 530.42C600.461 530.235 600.42 530.014 600.42 529.76C600.408 525.114 613.964 509.756 613.964 509.756L607.446 498.644L626.38 491.031L636.949 510.874L600.547 530.42Z" fill="#33535F"/>
<path d="M636.949 510.874L635.262 507.984L600.992 527.806C600.992 527.806 599.75 529.38 600.547 530.421L636.949 510.874Z" fill="#17282F"/>
<path d="M556.232 234.025L532.637 235.859L531.853 222.677C531.853 222.677 522.337 222.538 520.912 213.262C519.487 203.985 518.095 182.42 518.095 182.42C528.222 176.284 540.887 176.099 551.19 181.936L552.719 182.803L556.232 234.025Z" fill="#F8A58D"/>
<path d="M531.819 222.544C531.819 222.544 537.772 222.197 543.474 217.398C543.474 217.398 541.411 224.694 532.002 225.161L531.819 222.544Z" fill="#F68260"/>
<path d="M552.928 192.589C553.078 192.498 559.061 189.803 559.752 196.185C560.444 202.566 553.88 201.943 553.85 201.761C553.82 201.579 552.928 192.589 552.928 192.589Z" fill="#F8A58D"/>
<path d="M555.541 199.132C555.567 199.109 555.661 199.198 555.859 199.264C556.051 199.328 556.374 199.352 556.694 199.191C557.342 198.871 557.795 197.739 557.702 196.586C557.655 196.003 557.473 195.463 557.217 195.028C556.97 194.581 556.633 194.288 556.287 194.265C555.94 194.224 555.722 194.452 555.662 194.639C555.596 194.828 555.649 194.951 555.618 194.965C555.601 194.983 555.468 194.873 555.492 194.604C555.504 194.474 555.563 194.317 555.699 194.177C555.84 194.036 556.059 193.948 556.298 193.948C556.794 193.929 557.287 194.334 557.569 194.812C557.878 195.29 558.096 195.895 558.148 196.55C558.248 197.839 557.718 199.114 556.822 199.48C556.385 199.646 555.995 199.551 555.784 199.422C555.569 199.286 555.52 199.147 555.541 199.132Z" fill="#F68260"/>
<path d="M522.114 197.023C522.187 197.726 522.845 198.245 523.584 198.181C524.321 198.118 524.86 197.497 524.786 196.792C524.712 196.088 524.054 195.569 523.316 195.633C522.578 195.695 522.039 196.317 522.114 197.023Z" fill="#17282F"/>
<path d="M521.7 195.244C521.888 195.396 522.791 194.51 524.223 194.312C525.651 194.096 526.803 194.683 526.933 194.486C526.999 194.398 526.788 194.109 526.284 193.841C525.786 193.573 524.973 193.359 524.083 193.488C523.191 193.618 522.488 194.05 522.105 194.447C521.712 194.846 521.608 195.18 521.7 195.244Z" fill="#17282F"/>
<path d="M536.031 195.416C536.105 196.119 536.764 196.638 537.502 196.574C538.239 196.511 538.778 195.89 538.704 195.185C538.631 194.481 537.972 193.961 537.234 194.026C536.497 194.089 535.957 194.711 536.031 195.416Z" fill="#17282F"/>
<path d="M535.803 193.538C535.992 193.687 536.897 192.802 538.327 192.605C539.754 192.388 540.908 192.976 541.039 192.779C541.104 192.691 540.894 192.402 540.388 192.135C539.891 191.867 539.079 191.653 538.187 191.781C537.297 191.91 536.593 192.344 536.208 192.74C535.817 193.138 535.712 193.472 535.803 193.538Z" fill="#17282F"/>
<path d="M532.101 204.857C532.098 204.775 531.185 204.747 529.718 204.766C529.348 204.778 528.992 204.755 528.895 204.515C528.773 204.263 528.87 203.849 528.987 203.4C529.206 202.469 529.435 201.494 529.676 200.471C530.62 196.307 531.249 192.904 531.08 192.868C530.911 192.831 530.01 196.177 529.066 200.341C528.842 201.367 528.627 202.344 528.425 203.279C528.345 203.713 528.172 204.217 528.436 204.737C528.573 204.995 528.87 205.156 529.113 205.186C529.358 205.225 529.563 205.199 529.746 205.185C531.208 205.059 532.108 204.939 532.101 204.857Z" fill="#17282F"/>
<path d="M536.453 205.254C536.218 205.273 536.433 206.824 535.26 208.111C534.087 209.4 532.408 209.458 532.426 209.677C532.417 209.778 532.837 209.927 533.538 209.847C534.227 209.775 535.197 209.415 535.916 208.627C536.632 207.839 536.854 206.89 536.818 206.247C536.785 205.59 536.558 205.23 536.453 205.254Z" fill="#17282F"/>
<path d="M534.645 187.993C534.841 188.362 536.244 187.977 537.951 187.943C539.658 187.877 541.08 188.176 541.254 187.797C541.332 187.616 541.043 187.284 540.443 186.986C539.847 186.686 538.932 186.45 537.907 186.48C536.883 186.512 535.984 186.801 535.408 187.135C534.826 187.469 534.559 187.818 534.645 187.993Z" fill="#17282F"/>
<path d="M521.642 191.038C521.94 191.327 522.878 190.852 524.061 190.67C525.239 190.447 526.281 190.581 526.465 190.209C526.543 190.03 526.339 189.728 525.857 189.482C525.382 189.237 524.624 189.089 523.812 189.227C523.001 189.367 522.338 189.76 521.972 190.151C521.6 190.542 521.509 190.896 521.642 191.038Z" fill="#17282F"/>
<path d="M512.731 177.189C512.469 176.052 512.725 174.755 513.569 173.947C514.412 173.137 515.875 172.977 516.762 173.739C516.105 172.249 517.125 170.28 518.722 169.952C520.227 169.643 521.684 170.606 523.208 170.802C524.696 170.993 526.185 170.438 527.486 169.691C528.785 168.944 529.966 167.998 531.289 167.295C534.05 165.825 537.397 165.491 540.395 166.386C543.392 167.282 546.005 169.394 547.504 172.135C549.45 171.214 551.91 171.921 553.409 173.466C554.907 175.012 555.548 177.227 555.596 179.377C555.628 180.829 555.409 182.268 555.118 183.696C555.136 183.816 555.163 183.931 555.179 184.052C555.802 189.175 556.069 195.257 553.889 195.598C550.089 196.189 549.989 188.903 549.989 188.903C545.061 187.758 545.817 180.526 544.499 179.631C543.183 178.734 540.39 176.614 531.31 182.977C527.784 185.448 522.725 186.096 519.878 185.859L519.629 185.844L519.57 185.84L519.485 185.818C518.574 185.714 517.679 185.494 516.826 185.11C515.861 184.674 514.949 184.029 514.435 183.105C513.922 182.18 513.891 180.942 514.56 180.121C513.71 179.318 512.993 178.328 512.731 177.189Z" fill="#17282F"/>
<path d="M531.819 230.754L532.872 267.646L555.873 218.232L555.298 213.656L531.819 230.754Z" fill="#E7E8E5"/>
<path d="M547.08 341.04C546.236 341.315 498.345 389.648 499.421 398.33C500.497 407.011 534.589 471.308 534.589 471.308L558.912 459.34L536.096 402.973L536.394 399.476L564.28 376.674L562.79 340.002L547.08 341.04Z" fill="#17282F"/>
<path d="M557.405 350.565C557.963 351.407 566.256 427.34 568.479 431.27C570.702 435.2 604.014 500.023 604.014 500.023L628.746 490.079L598.553 418.833L601.993 351.403L600.131 332.362L562.791 340.002L557.405 350.565Z" fill="#17282F"/>
<path d="M568.045 429.933C568.026 429.936 567.971 429.673 567.883 429.173C567.792 428.622 567.673 427.893 567.524 426.981C567.225 425.017 566.809 422.271 566.297 418.903C565.306 412.026 563.95 402.619 562.452 392.227C561.014 381.823 559.712 372.406 558.76 365.524C558.319 362.146 557.959 359.393 557.702 357.423C557.593 356.506 557.506 355.773 557.441 355.216C557.387 354.712 557.367 354.445 557.386 354.443C557.404 354.44 557.458 354.701 557.546 355.203C557.637 355.753 557.757 356.483 557.906 357.395C558.205 359.358 558.621 362.103 559.133 365.472C560.124 372.349 561.48 381.756 562.978 392.153C564.417 402.554 565.718 411.969 566.67 418.852C567.111 422.23 567.472 424.984 567.728 426.952C567.837 427.871 567.923 428.604 567.99 429.159C568.044 429.664 568.062 429.93 568.045 429.933Z" fill="#33535F"/>
<path d="M597.925 416.655C598.067 416.695 597.424 419.389 596.489 422.673C595.552 425.956 594.68 428.585 594.538 428.545C594.397 428.506 595.041 425.811 595.975 422.527C596.912 419.245 597.784 416.615 597.925 416.655Z" fill="#33535F"/>
<path d="M601.667 433.852C601.618 433.888 601.033 433.22 600.316 431.98C599.599 430.744 598.8 428.908 598.339 426.765C597.884 424.62 597.863 422.618 598.013 421.199C598.16 419.775 598.421 418.926 598.48 418.939C598.658 418.952 597.934 422.453 598.86 426.655C599.731 430.865 601.823 433.769 601.667 433.852Z" fill="#33535F"/>
<path d="M528.12 394.793C528.168 394.67 530.168 395.499 532.112 397.281C534.068 399.048 535.079 400.961 534.96 401.02C534.827 401.108 533.647 399.382 531.754 397.672C529.875 395.949 528.042 394.935 528.12 394.793Z" fill="#33535F"/>
<path d="M531.873 392.551C531.969 392.451 533.19 393.527 534.231 395.221C535.282 396.908 535.7 398.479 535.568 398.521C535.423 398.573 534.795 397.13 533.779 395.499C532.772 393.863 531.76 392.657 531.873 392.551Z" fill="#33535F"/>
<path d="M535.18 281.778L541.302 312.087L546.285 354.384C546.285 354.384 566.825 351.523 575.58 348.757C585.734 345.55 607.827 342.818 607.827 342.818L604.103 346.496C612.007 344.287 617.041 336.759 617.041 336.759C603.416 324.149 591.794 298.208 591.794 298.208L581.434 246.875C581.434 246.875 579.861 239.634 578.912 236.414C577.962 233.194 562.23 222.806 560.05 221.493L558.681 220.847L558.244 216.733L556.623 215.766L539.598 231.2C536.289 234.205 534.177 238.299 533.673 242.735C533.14 247.413 532.663 254.121 532.931 262.045C533.133 268.059 535.18 281.778 535.18 281.778Z" fill="#0693E3"/>
<path d="M546.868 229.271C546.868 229.271 537.873 234.082 536.313 238.167C534.754 242.25 539.391 287.025 539.391 287.025L507.092 287.63L506.991 306.836C506.991 306.836 558.295 310.881 560.292 308.113C562.991 304.371 566.128 269.385 566.128 269.385L567.293 244.212C567.293 244.212 564.318 225.015 546.868 229.271Z" fill="#0693E3"/>
<path d="M550.366 313.483C547.307 313.483 544.384 313.081 541.302 312.087L540.697 309.005C540.697 309.005 546.57 309.426 551.159 309.426C552.541 309.426 553.806 309.388 554.76 309.289C555.712 309.189 556.717 309.121 557.62 308.834C559.105 308.678 560.052 308.445 560.292 308.112C561.059 307.049 561.862 303.462 562.618 298.871C563.903 292.612 564.675 284.807 565.067 279.972C565.23 278.468 565.377 277.055 565.508 275.78C566.499 278.725 567.919 283.928 567.48 286.81C567.021 289.808 566.27 292.769 566.096 295.796C565.897 299.282 566.446 302.928 565.129 306.163C563.41 310.386 558.779 312.871 554.231 313.293C552.905 313.416 551.624 313.483 550.366 313.483Z" fill="#0679E3"/>
<path d="M557.62 308.834C558.113 308.677 558.575 308.455 558.982 308.128C559.973 307.333 560.535 306.131 560.979 304.942C561.599 303.28 562.143 301.181 562.617 298.871C561.862 303.462 561.059 307.049 560.292 308.112C560.052 308.445 559.104 308.678 557.62 308.834ZM565.066 279.972C565.289 277.222 565.389 275.432 565.389 275.432C565.427 275.544 565.467 275.66 565.507 275.78C565.377 277.055 565.23 278.468 565.066 279.972Z" fill="#0679E3"/>
<path d="M567.238 246.931C567.247 246.931 567.247 247.086 567.239 247.388C567.226 247.713 567.21 248.157 567.188 248.726C567.128 249.927 567.046 251.655 566.94 253.868C566.821 256.109 566.679 258.838 566.511 262.002C566.318 265.172 566.212 268.789 565.823 272.768C565.476 276.75 565.057 281.109 564.558 285.783C564.037 290.455 563.482 295.448 562.591 300.67C562.338 301.975 562.136 303.291 561.704 304.619C561.26 305.927 560.488 307.183 559.375 308.1C558.277 308.996 556.823 309.634 555.356 309.532C553.931 309.564 552.504 309.527 551.06 309.51C545.295 309.369 539.336 309.073 533.234 308.743C524.066 308.238 515.23 307.667 506.972 307.089L506.735 307.072L506.737 306.834C506.777 300.014 506.817 293.587 506.851 287.659L506.854 287.437L507.074 287.433C519.971 287.156 530.709 286.926 538.25 286.764C541.989 286.7 544.934 286.648 546.972 286.613C547.958 286.604 548.724 286.596 549.269 286.591C549.788 286.59 550.057 286.608 550.057 286.608C550.057 286.608 549.789 286.639 549.271 286.663C548.726 286.684 547.96 286.714 546.976 286.753C544.938 286.817 541.994 286.91 538.257 287.029C530.717 287.237 519.981 287.532 507.086 287.888L507.308 287.662C507.288 293.589 507.267 300.016 507.244 306.837L507.008 306.583C515.263 307.146 524.099 307.709 533.263 308.213C539.362 308.543 545.319 308.842 551.073 308.991C552.509 309.01 553.937 309.048 555.34 309.018C556.721 309.12 558.021 308.535 559.051 307.709C560.081 306.863 560.807 305.7 561.232 304.456C561.642 303.208 561.856 301.869 562.108 300.584C563.009 295.391 563.58 290.399 564.119 285.735C564.638 281.067 565.077 276.712 565.449 272.735C565.861 268.76 565.993 265.146 566.216 261.98C566.417 258.82 566.59 256.094 566.732 253.854C566.882 251.645 566.999 249.92 567.081 248.719C567.125 248.152 567.159 247.709 567.185 247.385C567.211 247.085 567.228 246.93 567.238 246.931Z" fill="#17282F"/>
<path d="M513.33 306.553C513.184 306.552 513.087 302.382 513.114 297.239C513.141 292.095 513.282 287.927 513.429 287.928C513.576 287.928 513.673 292.098 513.646 297.243C513.618 302.384 513.477 306.553 513.33 306.553Z" fill="#17282F"/>
<path d="M509.906 290.846C509.843 290.811 510.167 290.452 510.779 290.655C511.062 290.744 511.406 291.06 511.435 291.508C511.472 291.932 511.261 292.43 510.778 292.659C510.291 292.87 509.782 292.708 509.48 292.42C509.155 292.122 509.098 291.689 509.165 291.405C509.309 290.797 509.734 290.668 509.749 290.729C509.799 290.79 509.546 291.014 509.537 291.451C509.534 291.664 509.607 291.903 509.805 292.055C509.998 292.215 510.319 292.286 510.559 292.176C510.797 292.07 510.95 291.778 510.945 291.536C510.95 291.291 510.803 291.104 510.622 290.996C510.25 290.775 509.939 290.915 509.906 290.846Z" fill="#17282F"/>
<path d="M581.576 251.274C581.576 251.274 598.381 273.199 600.428 279.174C602.475 285.15 600.893 293.729 597.471 297.83C594.048 301.933 591.288 300.265 591.288 300.265L581.576 251.274Z" fill="#0693E3"/>
<path d="M590.687 298.505C590.712 298.65 588.826 299.093 586.475 299.495C584.125 299.898 582.199 300.107 582.175 299.962C582.149 299.818 584.035 299.375 586.386 298.972C588.736 298.57 590.663 298.36 590.687 298.505Z" fill="#17282F"/>
<path d="M593.917 314.67C593.952 314.661 594.113 315.073 594.374 315.828C594.629 316.583 595.015 317.672 595.513 319.005C596.504 321.675 598.032 325.304 600.027 329.166C602.027 333.024 604.099 336.376 605.672 338.753C606.456 339.944 607.104 340.9 607.557 341.557C608.006 342.216 608.243 342.593 608.212 342.614C608.183 342.636 607.893 342.302 607.39 341.679C606.886 341.058 606.188 340.132 605.361 338.965C603.702 336.632 601.567 333.292 599.553 329.409C597.547 325.524 596.063 321.845 595.159 319.13C594.703 317.774 594.37 316.665 594.175 315.888C593.976 315.114 593.882 314.681 593.917 314.67Z" fill="#17282F"/>
<path d="M607.746 340.771C607.663 340.771 607.579 340.761 607.495 340.742C607.047 340.637 606.72 340.266 606.435 339.902C606.199 339.549 605.943 339.165 605.672 338.754C604.099 336.376 602.027 333.024 600.027 329.166C598.148 325.531 596.684 322.1 595.692 319.483C595.535 318.988 595.385 318.492 595.24 317.992L595.059 317.269C597.722 322.005 600.459 326.833 604.516 330.453C605.949 331.731 607.55 332.865 608.643 334.443C609.735 336.02 610.207 338.226 609.17 339.839C608.85 340.335 608.316 340.771 607.746 340.771Z" fill="#0679E3"/>
<path d="M606.435 339.902C606.422 339.886 606.41 339.871 606.397 339.855C601.658 333.768 598.017 326.833 595.692 319.483C596.684 322.1 598.148 325.531 600.027 329.166C602.027 333.024 604.099 336.376 605.672 338.753C605.943 339.165 606.199 339.549 606.435 339.902Z" fill="#0F191D"/>
<path d="M592.84 300.183L591.301 297.975L582.988 254.58L584.631 260.662C586.766 269.391 589.205 276.621 592.815 284.617C593.98 287.193 595.264 289.782 595.606 292.589C595.947 295.396 595.142 298.534 592.84 300.183Z" fill="#0679E3"/>
<path d="M551.242 227.322C551.147 227.201 552.657 225.919 554.373 224.2C556.097 222.485 557.38 220.981 557.501 221.074C557.615 221.157 556.502 222.831 554.749 224.576C553.002 226.325 551.323 227.435 551.242 227.322Z" fill="#17282F"/>
<path d="M549.543 231.038C549.57 231.126 548.573 231.426 547.086 232.16C545.6 232.888 543.653 234.13 541.872 235.92C540.1 237.717 538.877 239.675 538.166 241.167C537.447 242.66 537.161 243.657 537.071 243.632C537.036 243.622 537.078 243.366 537.187 242.906C537.287 242.446 537.5 241.794 537.823 241.014C538.46 239.45 539.669 237.397 541.495 235.546C543.326 233.705 545.37 232.474 546.928 231.819C547.706 231.488 548.356 231.267 548.817 231.162C549.277 231.048 549.533 231.003 549.543 231.038Z" fill="#17282F"/>
<path d="M594.673 304.545C594.657 304.553 594.567 304.408 594.409 304.124C594.229 303.786 594.006 303.371 593.736 302.866C593.135 301.692 592.32 300.101 591.318 298.144L591.308 298.125L591.303 298.102C590.253 293.296 588.766 286.288 587.15 278.494C585.657 271.149 584.307 264.502 583.311 259.599C582.856 257.232 582.483 255.29 582.208 253.861C582.098 253.229 582.008 252.712 581.934 252.295C581.878 251.935 581.856 251.745 581.875 251.742C581.892 251.737 581.949 251.921 582.04 252.273C582.138 252.684 582.261 253.195 582.412 253.818C582.727 255.24 583.157 257.171 583.68 259.523C584.716 264.417 586.119 271.053 587.67 278.387C589.287 286.181 590.708 293.202 591.654 298.029L591.64 297.986C592.582 299.972 593.348 301.588 593.912 302.779C594.148 303.302 594.342 303.73 594.5 304.079C594.629 304.377 594.689 304.537 594.673 304.545Z" fill="#17282F"/>
<path d="M538.833 287.008C538.797 287.011 538.711 286.445 538.588 285.419C538.465 284.297 538.306 282.833 538.113 281.068C537.737 277.392 537.253 272.31 536.751 266.694C536.249 261.077 535.823 255.989 535.543 252.305C535.418 250.534 535.317 249.065 535.237 247.94C535.178 246.908 535.161 246.337 535.198 246.334C535.235 246.332 535.321 246.898 535.444 247.924C535.566 249.045 535.725 250.51 535.918 252.275C536.295 255.951 536.78 261.032 537.281 266.649C537.782 272.263 538.207 277.349 538.488 281.033C538.612 282.805 538.715 284.274 538.794 285.4C538.854 286.431 538.87 287.004 538.833 287.008Z" fill="#17282F"/>
<path d="M507.496 289.876C507.496 289.876 500.53 284.603 498.831 284.284C497.529 284.041 489.754 284.17 486.178 284.244C484.803 284.273 483.597 285.351 483.613 286.723L483.637 286.975C483.917 288.423 485.337 288.737 485.337 288.737C485.337 288.737 483.484 289.268 483.454 291.282C483.424 293.298 485.868 293.721 485.868 293.721C485.868 293.721 485.721 293.829 485.519 294.031C484.183 295.362 484.862 297.647 486.701 298.065L487.802 298.314C487.802 298.314 486.313 298.933 486.334 300.316C486.374 302.968 492.349 303.476 492.349 303.476C492.349 303.476 507.118 305.808 507.437 305.703C507.756 305.596 507.496 289.876 507.496 289.876Z" fill="#F8A58D"/>
<path d="M487.552 281.109C487.618 281.983 487.824 283.842 489.313 284.686L497.544 284.364C497.544 284.364 491.415 282.253 490.543 281.21C490.237 280.844 489.817 280.392 489.368 280.064C488.588 279.493 487.481 280.146 487.552 281.109Z" fill="#F8A58D"/>
<path d="M493.671 284.284C493.675 284.427 491.992 284.587 489.914 284.548C487.845 284.511 486.167 284.434 486.163 284.284C486.16 284.141 487.843 283.98 489.922 284.018C491.99 284.056 493.668 284.132 493.671 284.284Z" fill="#F68260"/>
<path d="M491.823 288.869C491.838 289.009 490.386 289.265 488.579 289.199C486.77 289.137 485.34 288.78 485.366 288.639C485.39 288.49 486.827 288.608 488.597 288.669C490.366 288.734 491.81 288.717 491.823 288.869Z" fill="#F68260"/>
<path d="M496.01 288.283C496.132 288.358 495.974 288.805 495.509 289.104C495.044 289.406 494.571 289.367 494.553 289.224C494.527 289.077 494.859 288.898 495.219 288.659C495.586 288.427 495.885 288.199 496.01 288.283Z" fill="#F68260"/>
<path d="M492.729 294.071C492.717 294.217 491.129 294.285 489.182 294.221C487.234 294.157 485.655 293.986 485.654 293.84C485.652 293.693 487.24 293.626 489.2 293.691C491.159 293.754 492.74 293.926 492.729 294.071Z" fill="#F68260"/>
<path d="M497.431 291.876C497.497 291.857 497.625 292.022 497.665 292.346C497.706 292.661 497.629 293.139 497.31 293.545C496.989 293.95 496.542 294.138 496.225 294.173C495.901 294.21 495.71 294.125 495.712 294.056C495.708 293.912 496.421 293.82 496.892 293.217C497.369 292.62 497.29 291.907 497.431 291.876Z" fill="#F68260"/>
<path d="M493.972 299.166C493.954 299.312 492.521 299.255 490.772 299.039C489.023 298.823 487.619 298.53 487.637 298.384C487.655 298.239 489.088 298.297 490.838 298.512C492.586 298.728 493.989 299.021 493.972 299.166Z" fill="#F68260"/>
<path d="M498.564 296.576C498.631 296.567 498.733 296.747 498.724 297.065C498.717 297.38 498.573 297.81 498.283 298.181C497.681 298.908 497.004 299.171 496.929 299.073C496.823 298.947 497.366 298.465 497.863 297.855C498.369 297.243 498.427 296.601 498.564 296.576Z" fill="#F68260"/>
<path d="M601.309 346.938C604.216 346.68 606.957 344.958 608.445 342.452C608.614 342.167 608.759 341.78 608.539 341.535C608.39 341.368 608.14 341.351 607.916 341.347C605.617 341.326 603.314 341.72 601.154 342.505C600.909 342.595 600.639 342.713 600.547 342.958C600.481 343.134 600.527 343.331 600.575 343.514C600.865 344.627 601.154 345.738 601.444 346.851L601.309 346.938Z" fill="#FEE13E"/>
<path d="M601.309 346.938L601.444 346.851C601.179 345.833 600.914 344.817 600.65 343.8C600.625 343.704 600.6 343.609 600.575 343.514C600.544 343.397 600.515 343.274 600.515 343.154C600.515 343.088 600.523 343.021 600.548 342.958C600.639 342.713 600.909 342.595 601.154 342.505C603.26 341.74 605.502 341.346 607.745 341.346C607.802 341.346 607.859 341.346 607.916 341.347C608.14 341.351 608.39 341.368 608.539 341.535C608.619 341.625 608.651 341.734 608.651 341.85C608.65 342.051 608.552 342.272 608.445 342.452C607.547 343.964 606.194 345.19 604.624 345.982C603.59 346.503 602.462 346.836 601.309 346.938Z" fill="#0679E3"/>
<path d="M531.819 230.754C531.819 230.754 528.431 242.104 529.364 241.459C530.298 240.815 532.323 239.023 532.323 239.023L531.819 230.754Z" fill="#E7E8E5"/>
<path d="M532.015 235.987L530.162 240.405C529.983 240.866 529.865 241.342 529.803 241.833C529.651 243.071 529.474 245.34 530.211 245.498C531.231 245.716 532.193 244.681 532.193 244.681L532.015 235.987Z" fill="#17282F"/>
<path d="M589.474 236.684C589.474 236.684 571.35 229.627 561.314 235.859C551.279 242.09 549.451 252.033 543.474 252.033C531.819 252.033 532.193 243.826 532.193 243.826L529.715 244.575C529.667 246.254 527.014 258.311 539.296 259.805C551.579 261.3 556.74 244.591 567.79 244.575C578.838 244.559 587.227 250.539 587.227 250.539L595.165 245.528L589.474 236.684Z" fill="#17282F"/>
<path d="M542.969 259.606C542.969 259.606 547.488 257.295 549.96 251.601C552.775 245.119 558.821 237.718 563.866 235.86C568.913 234 580.59 232.702 588.654 237.947L593.819 244.91L587.114 249.25C587.114 249.25 581.813 246.344 575.298 244.529C566.962 242.207 561.897 244.829 557.051 249.406C556.749 249.69 556.473 249.972 556.232 250.245C555.009 251.631 551.629 254.839 548.561 257.023C546.19 258.71 544.048 259.625 542.969 259.606Z" fill="#33535F"/>
<path d="M167.698 161.136C156.948 162.788 149.067 153.778 146.554 145.755C144.234 138.35 143.131 130.645 139.872 123.6C135.318 113.757 123.252 109.207 112.426 110.118C101.597 111.026 90.6864 116.442 81.1069 121.559L83.7494 180.819C83.7494 180.819 104.611 158.651 114.636 158.247C131.361 157.573 130.45 185.008 146.692 189.059C146.692 189.059 169.461 195.219 184.854 175.377C194.624 162.784 195.49 147.486 195.49 147.486C195.49 147.486 188.006 158.014 167.698 161.136Z" fill="#FEE13E"/>
<path d="M80.6683 111.727C80.815 111.72 83.7407 174.649 87.2017 252.263C90.6636 329.905 93.3508 392.83 93.2042 392.837C93.0577 392.844 90.1328 329.928 86.6705 252.287C83.2089 174.673 80.5214 111.733 80.6683 111.727Z" fill="#17282F"/>
<path d="M152.699 178.581C151.586 178.581 150.608 178.274 149.705 177.29C148.447 175.917 146.773 174.264 145.818 172.642C140.911 164.297 138.483 152.363 138.084 142.922V141.656C139.568 147.201 142.894 154.605 145.99 159.443C149.086 164.281 153.782 168.355 159.413 169.525C160.432 169.738 161.486 169.858 162.426 170.307C163.364 170.754 164.19 171.626 164.219 172.664C164.263 174.217 162.655 175.231 161.26 175.918C159.273 176.894 157.257 177.881 155.08 178.288C154.218 178.448 153.43 178.581 152.699 178.581Z" fill="#FED43E"/>
<path d="M152.621 179.71C152.61 179.725 152.445 179.631 152.137 179.435C151.831 179.239 151.394 178.926 150.855 178.494C149.785 177.62 148.325 176.217 146.889 174.196C145.442 172.185 144.055 169.554 142.92 166.491C141.775 163.428 140.837 159.966 139.98 156.308C138.269 148.981 137.515 142.192 137.241 137.279C137.103 134.822 137.081 132.83 137.083 131.454C137.096 130.815 137.108 130.292 137.118 129.87C137.132 129.508 137.148 129.319 137.166 129.319C137.185 129.319 137.205 129.508 137.225 129.87C137.242 130.291 137.263 130.813 137.289 131.45C137.351 132.823 137.431 134.808 137.616 137.255C137.985 142.146 138.796 148.895 140.498 156.189C141.352 159.83 142.272 163.283 143.379 166.322C144.478 169.363 145.809 171.971 147.197 173.981C148.574 176.002 149.971 177.423 150.989 178.337C152.016 179.243 152.647 179.672 152.621 179.71Z" fill="#17282F"/>
<path d="M15.8496 405.348L157.875 428.551V405.348H15.8496Z" fill="#DADBD8"/>
<path d="M181.319 457.763L323.345 480.964V457.763H181.319Z" fill="#DADBD8"/>
<path d="M345.65 507.9L487.674 531.103V507.9H345.65Z" fill="#DADBD8"/>
<path d="M509.763 547.798L651.787 571.001V547.798H509.763Z" fill="#DADBD8"/>
<path d="M15.8496 405.348H157.875V387.97H15.8496V405.348Z" fill="#FEE13E"/>
<path d="M113.555 405.348H157.875V387.97H113.555V405.348Z" fill="#FED43E"/>
<path d="M181.319 457.763H323.345V440.383H181.319V457.763Z" fill="#FEE13E"/>
<path d="M279.025 457.763H323.345V440.383H279.025V457.763Z" fill="#FED43E"/>
<path d="M345.65 507.9H487.674V490.523H345.65V507.9Z" fill="#FEE13E"/>
<path d="M443.355 507.9H487.674V490.523H443.355V507.9Z" fill="#FED43E"/>
<path d="M509.979 547.798H652.004V530.42H509.979V547.798Z" fill="#FEE13E"/>
<path d="M652.004 547.798H607.685V530.42H652.004V547.798Z" fill="#FED43E"/>
<path d="M564.478 467.166C564.478 469.294 566.207 471.021 568.34 471.021C570.474 471.021 572.203 469.294 572.203 467.166C572.203 465.038 570.474 463.311 568.34 463.311C566.207 463.311 564.478 465.038 564.478 467.166Z" fill="#E7E8E5"/>
</g>
<path d="M33.5316 556.977C33.9362 557.35 34.1488 557.757 34.2682 558.358C34.4763 559.397 34.2005 561.019 33.5925 562.85C32.6981 565.609 31.1643 568.8 30.2376 571.785C29.7783 573.283 29.4577 574.741 29.5051 576.159C29.5307 576.867 29.6531 577.568 29.9239 578.235C30.1919 578.9 30.6144 579.522 31.1795 580.032C32.0406 580.819 33.1207 581.224 34.1897 581.309C36.0735 581.455 37.961 580.817 39.8934 579.979C42.7813 578.705 45.8018 576.87 48.4163 575.775C49.7154 575.225 50.9053 574.872 51.8305 574.818C52.2935 574.79 52.6863 574.829 53.0149 574.927C53.3464 575.025 53.6209 575.175 53.8916 575.419C54.2971 575.793 54.5098 576.2 54.6282 576.8C54.8372 577.84 54.5616 579.462 53.9545 581.294C53.0591 584.052 51.5252 587.243 50.5996 590.229C50.1403 591.727 49.8207 593.186 49.8681 594.603C49.8927 595.311 50.0161 596.013 50.2869 596.679C50.5548 597.345 50.9773 597.967 51.5425 598.477C52.4036 599.264 53.4836 599.668 54.5536 599.754C56.4375 599.901 58.3251 599.265 60.2593 598.426C63.1463 597.154 66.1678 595.317 68.7832 594.223C70.0833 593.674 71.2732 593.322 72.1984 593.267C72.6614 593.239 73.0533 593.279 73.3828 593.376C73.7143 593.475 73.9888 593.624 74.2605 593.869C74.666 594.243 74.8787 594.65 74.9981 595.251C75.2072 596.291 74.9314 597.912 74.3234 599.744C73.429 602.503 71.8951 605.694 70.9685 608.679C70.5102 610.178 70.1896 611.636 70.237 613.053C70.2626 613.762 70.386 614.464 70.6558 615.129C70.9237 615.795 71.3462 616.417 71.9124 616.928C72.7735 617.715 73.8535 618.119 74.9235 618.205C76.8083 618.353 78.695 617.716 80.6302 616.878C83.5172 615.605 86.5387 613.771 89.1542 612.677C90.4551 612.127 91.645 611.774 92.5703 611.72C93.0333 611.692 93.4251 611.732 93.7556 611.83C94.0871 611.928 94.3627 612.079 94.6343 612.323C95.0399 612.698 95.2535 613.105 95.3719 613.706C95.582 614.747 95.3062 616.368 94.6992 618.2C93.8058 620.96 92.2719 624.151 91.3463 627.137C90.8871 628.637 90.5683 630.095 90.6148 631.513C90.6413 632.221 90.7647 632.923 91.0355 633.589C91.3045 634.256 91.727 634.877 92.2921 635.388L94.0824 633.411C93.6777 633.036 93.464 632.628 93.3456 632.028C93.1356 630.987 93.4114 629.366 94.0184 627.533C94.9118 624.774 96.4457 621.583 97.3713 618.596C97.8296 617.097 98.1493 615.638 98.1019 614.221C98.0763 613.512 97.9529 612.811 97.682 612.144C97.4141 611.479 96.9906 610.856 96.4246 610.347C95.5644 609.559 94.4843 609.154 93.4143 609.068C91.5295 608.921 89.6419 609.557 87.7076 610.395C84.8188 611.668 81.7982 613.503 79.1827 614.597C77.8827 615.147 76.6928 615.499 75.7676 615.553C75.3045 615.582 74.9108 615.542 74.5822 615.444C74.2507 615.345 73.9751 615.195 73.7026 614.951C73.2979 614.576 73.0853 614.169 72.9669 613.569C72.7578 612.529 73.0335 610.907 73.6406 609.075C74.535 606.316 76.0689 603.125 76.9946 600.141C77.4548 598.642 77.7744 597.183 77.727 595.766C77.7024 595.058 77.579 594.356 77.3082 593.69C77.0403 593.024 76.6178 592.402 76.0507 591.892C75.1915 591.105 74.1114 590.701 73.0415 590.615C71.1566 590.467 69.2691 591.105 67.3358 591.943C64.4479 593.216 61.4273 595.051 58.8119 596.145C57.5109 596.696 56.3219 597.047 55.3967 597.102C54.9328 597.131 54.5409 597.091 54.2114 596.994C53.8808 596.894 53.6053 596.744 53.3327 596.5C52.9291 596.126 52.7164 595.719 52.597 595.118C52.3879 594.078 52.6637 592.456 53.2717 590.625C54.1661 587.866 55.6991 584.676 56.6257 581.691C57.0859 580.192 57.4055 578.733 57.3581 577.315C57.3325 576.607 57.2091 575.905 56.9393 575.24C56.6714 574.574 56.2489 573.952 55.6818 573.442C54.8226 572.655 53.7425 572.25 52.6726 572.165C50.7897 572.019 48.9022 572.657 46.9679 573.495C44.081 574.768 41.0614 576.604 38.4469 577.699C37.146 578.249 35.9561 578.602 35.0327 578.656C34.5688 578.686 34.1769 578.645 33.8474 578.548C33.5168 578.449 33.2423 578.299 32.9697 578.056C32.5661 577.681 32.3534 577.274 32.235 576.674C32.026 575.634 32.3017 574.013 32.9088 572.182C33.8032 569.423 35.3381 566.233 36.2647 563.248C36.7249 561.749 37.0445 560.29 36.9971 558.873C36.9725 558.165 36.8491 557.463 36.5783 556.797C36.3104 556.131 35.8879 555.509 35.3218 555L33.5316 556.977Z" fill="#0693E3"/>
<path d="M593.449 60.9736H569.761C569.098 60.9736 568.684 60.2687 569.016 59.7053L580.86 39.564L592.703 19.4228C593.035 18.8593 593.863 18.8593 594.195 19.4228L606.039 39.564L617.883 59.7053C618.214 60.2687 617.8 60.9736 617.138 60.9736H593.449Z" fill="#0693E3"/>
<path d="M580.55 67.0869H556.863C556.2 67.0869 555.785 66.3826 556.117 65.8192L567.961 45.6779L579.805 25.5359C580.136 24.9725 580.965 24.9725 581.296 25.5359L593.141 45.6779L604.984 65.8192C605.316 66.3826 604.901 67.0869 604.238 67.0869H580.55Z" stroke="#100F0D" stroke-width="1.90235" stroke-miterlimit="10"/>
<path d="M634 638.001H603.648V607.649H634V638.001Z" fill="#FEE13E"/>
<path d="M603.65 607.65H591V595H603.65V607.65Z" fill="#FEE13E"/>
<defs>
<clipPath id="clip0_511_6">
<rect width="652" height="461" fill="white" transform="translate(0 110)"/>
</clipPath>
</defs>
</svg>
