<svg width="119" height="120" viewBox="0 0 119 120" fill="none" xmlns="http://www.w3.org/2000/svg">
<g clip-path="url(#clip0_1204_230)">
<path d="M72.9851 67.9042H84.271C88.5221 67.9113 92.6591 69.2802 96.0754 71.8104C99.4916 74.3405 102.007 77.8986 103.254 81.963L109.35 101.846C109.569 102.556 109.618 103.308 109.494 104.041C109.369 104.773 109.075 105.466 108.634 106.064C108.193 106.663 107.617 107.149 106.954 107.484C106.291 107.819 105.558 107.994 104.815 107.994H52.4022C51.6591 107.994 50.9264 107.819 50.2632 107.484C49.5999 107.149 49.0246 106.663 48.5834 106.064C48.1423 105.466 47.8477 104.773 47.7233 104.041C47.5989 103.308 47.6481 102.556 47.8671 101.846L53.9636 81.963C55.2118 77.8923 57.7334 74.3295 61.1574 71.7988C64.5815 69.2681 68.7273 67.9029 72.9851 67.9042Z" fill="#21759B"/>
<path d="M104.832 108.642H52.4194C51.5732 108.645 50.7383 108.449 49.9818 108.069C49.2254 107.69 48.5686 107.139 48.0643 106.459C47.56 105.78 47.2224 104.991 47.0786 104.157C46.9348 103.323 46.9889 102.467 47.2364 101.658L53.3653 81.7751C54.6386 77.5644 57.2368 73.8771 60.7736 71.2613C64.3103 68.6455 68.5968 67.2409 72.9958 67.2563H84.2687C88.6677 67.2409 92.9541 68.6455 96.4909 71.2613C100.028 73.8771 102.626 77.5644 103.899 81.7751L109.996 101.658C110.243 102.467 110.297 103.323 110.153 104.157C110.01 104.991 109.672 105.78 109.168 106.459C108.664 107.139 108.007 107.69 107.25 108.069C106.494 108.449 105.659 108.645 104.813 108.642H104.832ZM72.9828 68.552C68.8609 68.5375 64.8444 69.8538 61.5305 72.305C58.2166 74.7563 55.7824 78.2117 54.5898 82.1573L48.4933 102.04C48.3063 102.655 48.2655 103.304 48.3744 103.937C48.4833 104.569 48.7387 105.168 49.1203 105.684C49.5018 106.2 49.9989 106.62 50.5718 106.91C51.1447 107.2 51.7774 107.352 52.4194 107.353H104.832C105.474 107.352 106.107 107.2 106.68 106.91C107.253 106.62 107.75 106.2 108.131 105.684C108.513 105.168 108.768 104.569 108.877 103.937C108.986 103.304 108.945 102.655 108.758 102.04L102.662 82.1573C101.469 78.2117 99.0349 74.7563 95.721 72.305C92.4072 69.8538 88.3906 68.5375 84.2687 68.552H72.9828Z" fill="black"/>
<path d="M75.1784 65.6625H82.0717V69.6275C82.0717 70.0121 81.996 70.3929 81.8488 70.7481C81.7016 71.1034 81.4859 71.4263 81.214 71.6982C80.9421 71.9701 80.6192 72.1858 80.264 72.333C79.9087 72.4801 79.5279 72.5559 79.1433 72.5559H78.1002C77.3236 72.5559 76.5787 72.2474 76.0296 71.6982C75.4804 71.149 75.1719 70.4042 75.1719 69.6275V65.6625H75.1784Z" fill="#FFC9B0"/>
<path d="M79.1441 73.1972H78.1075C77.1601 73.1972 76.2515 72.8214 75.581 72.1521C74.9105 71.4828 74.533 70.5748 74.5312 69.6275V65.6625C74.5312 65.4907 74.5995 65.3259 74.721 65.2044C74.8425 65.0829 75.0073 65.0146 75.1791 65.0146H82.0725C82.2443 65.0146 82.4091 65.0829 82.5306 65.2044C82.6521 65.3259 82.7203 65.4907 82.7203 65.6625V69.6275C82.7186 70.5748 82.3411 71.4828 81.6706 72.1521C81.0001 72.8214 80.0914 73.1972 79.1441 73.1972ZM75.827 66.3104V69.6275C75.8287 70.2312 76.0697 70.8096 76.4972 71.2359C76.9247 71.6621 77.5038 71.9015 78.1075 71.9015H79.1441C79.7478 71.9015 80.3269 71.6621 80.7544 71.2359C81.1819 70.8096 81.4229 70.2312 81.4246 69.6275V66.3104H75.827Z" fill="black"/>
<path d="M54.8396 46.5439C51.6391 45.3323 51.8335 42.8834 51.354 39.7477C50.8739 36.6408 50.5775 33.5083 50.4665 30.3665C50.3434 26.7968 50.4665 23.1298 51.827 19.8192C53.5698 15.5627 57.01 12.8157 61.6034 13.1915C61.4673 6.9201 65.2314 1.03743 71.898 0.681099C82.5814 0.110973 88.7427 11.5848 94.7095 10.7296C100.676 9.87438 102.277 7.21811 102.277 7.21811C103.279 9.13691 103.691 11.3096 103.461 13.4622C103.23 15.6148 102.367 17.651 100.981 19.3139C100.981 19.3139 105.691 17.9404 106.261 24.2053C106.831 30.4702 103.08 47.1205 103.08 47.1205L98.8235 46.3949C97.0289 46.0774 94.7873 46.518 92.9927 46.5763L79.6401 46.9909C72.9411 47.1788 62.1087 49.2908 54.8396 46.5439Z" fill="black"/>
<path d="M64.4669 48.5847C60.9555 48.5847 57.5023 48.2413 54.6063 47.1464C51.503 45.9673 51.218 43.7256 50.8876 41.1277C50.8357 40.6958 50.7774 40.2639 50.7126 39.8319C50.2298 36.6992 49.9312 33.5408 49.8186 30.373C49.702 27.0235 49.7797 23.1104 51.2309 19.5665C53.0774 15.0314 56.524 12.4983 60.7546 12.4983H60.9555C61.098 6.4666 64.7974 0.396046 71.8656 0.0202813C78.0787 -0.303654 82.8794 3.31794 86.7148 6.22688C89.6821 8.475 92.2476 10.4121 94.6124 10.0752C100.152 9.28483 101.739 6.89419 101.739 6.86827C101.798 6.77397 101.88 6.69642 101.978 6.64309C102.075 6.58976 102.185 6.56244 102.296 6.56377C102.409 6.56379 102.519 6.59308 102.617 6.64874C102.714 6.7044 102.796 6.78452 102.853 6.88123C102.886 6.93954 106.132 12.6602 102.361 18.5429C103.166 18.5793 103.945 18.8347 104.615 19.2815C105.911 20.1885 106.721 21.8211 106.928 24.147C107.505 30.4443 103.896 46.5763 103.741 47.263C103.704 47.425 103.605 47.5664 103.467 47.6581C103.328 47.7497 103.159 47.7846 102.996 47.7554L98.7199 47.0427C97.4549 46.9023 96.1775 46.9197 94.9169 47.0946C94.269 47.1594 93.6211 47.2177 92.9733 47.2371L79.6206 47.6517C77.9556 47.7036 75.999 47.8785 73.9323 48.0599C71.0104 48.2931 67.7128 48.5847 64.4669 48.5847ZM55.0663 45.9349C60.3659 47.9433 67.8359 47.276 73.8546 46.7382C75.9407 46.5504 77.9167 46.3754 79.6206 46.3236L92.9733 45.909C93.5369 45.909 94.1524 45.8312 94.8002 45.7729C96.175 45.5824 97.5685 45.5693 98.9466 45.734C99.1734 45.734 99.9119 45.896 102.607 46.3819C103.255 43.3499 106.132 29.6992 105.639 24.2701C105.464 22.3265 104.881 21.0307 103.896 20.3829C103.496 20.135 103.05 19.9695 102.585 19.896C102.12 19.8226 101.645 19.8427 101.188 19.9553C101.056 19.9933 100.915 19.988 100.785 19.9402C100.656 19.8925 100.545 19.8047 100.469 19.6896C100.394 19.5746 100.357 19.4385 100.364 19.301C100.371 19.1636 100.421 19.0319 100.508 18.9251C101.722 17.4914 102.516 15.7498 102.802 13.8929C103.088 12.036 102.854 10.1362 102.128 8.40373C101.136 9.33666 98.979 10.7944 94.8132 11.3904C91.9107 11.7986 89.1443 9.71243 85.9439 7.29587C82.0566 4.36102 77.6835 1.04392 71.9498 1.34842C65.4323 1.69179 62.1411 7.57446 62.2642 13.198C62.2657 13.289 62.248 13.3793 62.2123 13.463C62.1766 13.5467 62.1236 13.622 62.0569 13.6839C61.9907 13.7465 61.912 13.7944 61.8261 13.8245C61.7401 13.8547 61.6488 13.8664 61.558 13.8588C57.5153 13.5219 54.1917 15.8024 52.4425 20.0848C51.0884 23.4084 51.0171 27.1466 51.1467 30.3601C51.256 33.4756 51.5481 36.5821 52.0213 39.6635C52.0926 40.1235 52.1509 40.5576 52.2027 40.9592C52.5137 43.4082 52.721 45.0279 55.0987 45.9284L55.0663 45.9349Z" fill="black"/>
<path d="M58.9347 53.5279C62.6309 53.5279 65.6272 50.9464 65.6272 47.7619C65.6272 44.5774 62.6309 41.9958 58.9347 41.9958C55.2385 41.9958 52.2422 44.5774 52.2422 47.7619C52.2422 50.9464 55.2385 53.5279 58.9347 53.5279Z" fill="#FFC9B0"/>
<path d="M58.9341 54.1693C54.8849 54.1693 51.5938 51.2928 51.5938 47.7554C51.5938 44.218 54.8849 41.335 58.9341 41.335C62.9833 41.335 66.281 44.218 66.281 47.7554C66.281 51.2928 62.9833 54.1693 58.9341 54.1693ZM58.9341 42.6308C55.6041 42.6308 52.8895 44.9307 52.8895 47.7554C52.8895 50.5801 55.6041 52.8736 58.9341 52.8736C62.2642 52.8736 64.9852 50.5801 64.9852 47.7554C64.9852 44.9307 62.2707 42.6372 58.9341 42.6372V42.6308Z" fill="black"/>
<path d="M97.9659 53.5279C101.662 53.5279 104.658 50.9464 104.658 47.7619C104.658 44.5774 101.662 41.9958 97.9659 41.9958C94.2698 41.9958 91.2734 44.5774 91.2734 47.7619C91.2734 50.9464 94.2698 53.5279 97.9659 53.5279Z" fill="#FFC9B0"/>
<path d="M97.964 54.1693C93.9148 54.1693 90.6172 51.2928 90.6172 47.7554C90.6172 44.218 93.9148 41.335 97.964 41.335C102.013 41.335 105.304 44.218 105.304 47.7554C105.304 51.2928 102.013 54.1693 97.964 54.1693ZM97.964 42.6308C94.6275 42.6308 91.9129 44.9307 91.9129 47.7554C91.9129 50.5801 94.6275 52.8736 97.964 52.8736C101.301 52.8736 104.009 50.5801 104.009 47.7554C104.009 44.9307 101.307 42.6372 97.964 42.6372V42.6308Z" fill="black"/>
<path d="M78.6303 66.5631C73.2778 66.5648 68.1436 64.4415 64.3559 60.6598C60.5681 56.8781 58.4366 51.7473 58.4297 46.3949V31.7141C59.6088 33.6577 63.5284 32.8803 69.275 23.0262C90.7843 33.9234 98.8179 27.6779 98.8179 27.6779V46.3949C98.8111 51.7451 96.6813 56.8739 92.8964 60.6553C89.1114 64.4366 83.9805 66.5614 78.6303 66.5631Z" fill="#FFC9B0"/>
<path d="M78.6376 67.211C73.1149 67.2076 67.8189 65.0144 63.9107 61.1123C60.0025 57.2102 57.8011 51.9176 57.7891 46.3949V31.7141C57.7877 31.5716 57.8333 31.4327 57.9189 31.3187C58.0045 31.2048 58.1252 31.1222 58.2625 31.0839C58.3997 31.0455 58.5458 31.0534 58.6781 31.1065C58.8103 31.1595 58.9214 31.2547 58.9941 31.3772C59.0934 31.5499 59.2386 31.6915 59.4136 31.7865C59.5886 31.8814 59.7866 31.9259 59.9854 31.915C60.7758 31.915 63.743 31.2218 68.7122 22.6958C68.792 22.5488 68.9256 22.4384 69.085 22.3877C69.2444 22.337 69.4173 22.3499 69.5674 22.4237C90.3511 32.9516 98.3458 27.1985 98.4235 27.1402C98.5198 27.0661 98.6349 27.0206 98.7557 27.0087C98.8766 26.9969 98.9983 27.0193 99.107 27.0733C99.2158 27.1274 99.3072 27.2109 99.3707 27.3143C99.4343 27.4178 99.4675 27.537 99.4666 27.6585V46.3949C99.4546 51.9142 97.2559 57.2039 93.3519 61.1054C89.4479 65.007 84.1569 67.2024 78.6376 67.211ZM59.0913 33.0552V46.3949C59.0913 51.5789 61.1506 56.5505 64.8163 60.2162C68.4819 63.8818 73.4536 65.9412 78.6376 65.9412C83.8216 65.9412 88.7932 63.8818 92.4589 60.2162C96.1245 56.5505 98.1838 51.5789 98.1838 46.3949V28.7922C95.385 30.088 86.7878 32.4721 69.5415 23.8749C65.9652 29.8807 62.5898 33.1913 60.0178 33.2107C59.6992 33.2262 59.3811 33.1732 59.0848 33.0552H59.0913Z" fill="black"/>
<path d="M91.5932 103.226C91.4214 103.226 91.2566 103.158 91.1351 103.036C91.0136 102.915 90.9453 102.75 90.9453 102.578V78.8791C90.9453 78.7072 91.0136 78.5425 91.1351 78.421C91.2566 78.2995 91.4214 78.2312 91.5932 78.2312C91.765 78.2312 91.9298 78.2995 92.0513 78.421C92.1728 78.5425 92.2411 78.7072 92.2411 78.8791V102.578C92.2411 102.75 92.1728 102.915 92.0513 103.036C91.9298 103.158 91.765 103.226 91.5932 103.226Z" fill="black"/>
<path d="M65.6791 103.226C65.5073 103.226 65.3425 103.158 65.221 103.036C65.0995 102.915 65.0312 102.75 65.0312 102.578V78.8791C65.0312 78.7072 65.0995 78.5425 65.221 78.421C65.3425 78.2995 65.5073 78.2312 65.6791 78.2312C65.8509 78.2312 66.0157 78.2995 66.1372 78.421C66.2587 78.5425 66.327 78.7072 66.327 78.8791V102.578C66.327 102.75 66.2587 102.915 66.1372 103.036C66.0157 103.158 65.8509 103.226 65.6791 103.226Z" fill="black"/>
<path d="M78.58 50.0813C77.9008 50.0764 77.2229 50.0201 76.5522 49.9128C76.3803 49.8827 76.2275 49.7857 76.1273 49.6429C76.027 49.5001 75.9876 49.3234 76.0177 49.1516C76.0477 48.9798 76.1448 48.8269 76.2876 48.7267C76.4304 48.6264 76.6071 48.587 76.7789 48.6171C77.7984 48.7775 78.8368 48.7775 79.8563 48.6171C79.9859 48.021 79.2084 45.7988 78.107 43.7062C78.069 43.629 78.0467 43.5449 78.0415 43.459C78.0363 43.3731 78.0483 43.2869 78.0768 43.2057C78.1053 43.1244 78.1496 43.0497 78.2073 42.9858C78.265 42.9218 78.3349 42.8701 78.4128 42.8335C78.4908 42.7969 78.5752 42.7762 78.6612 42.7726C78.7473 42.769 78.8331 42.7826 78.9138 42.8126C78.9946 42.8426 79.0685 42.8883 79.1313 42.9472C79.1941 43.0061 79.2446 43.0769 79.2797 43.1555C80.0053 44.5485 81.6315 47.9303 81.0354 49.2585C80.9687 49.4172 80.8661 49.5583 80.7357 49.6707C80.6054 49.7831 80.4507 49.8637 80.2839 49.9063C79.7253 50.0346 79.153 50.0934 78.58 50.0813Z" fill="black"/>
<path d="M74.1015 34.5583H64.202C63.8583 34.5583 63.5288 34.4218 63.2858 34.1788C63.0428 33.9358 62.9062 33.6062 62.9062 33.2625C62.9062 32.9189 63.0428 32.5893 63.2858 32.3463C63.5288 32.1033 63.8583 31.9668 64.202 31.9668H74.1079C74.4516 31.9668 74.7812 32.1033 75.0242 32.3463C75.2672 32.5893 75.4037 32.9189 75.4037 33.2625C75.4037 33.6062 75.2672 33.9358 75.0242 34.1788C74.7812 34.4218 74.4516 34.5583 74.1079 34.5583H74.1015Z" fill="black"/>
<path d="M69.6768 42.3848C70.8876 42.3848 71.8692 41.4032 71.8692 40.1924C71.8692 38.9816 70.8876 38 69.6768 38C68.4659 38 67.4844 38.9816 67.4844 40.1924C67.4844 41.4032 68.4659 42.3848 69.6768 42.3848Z" fill="black"/>
<path d="M87.6768 42.3848C88.8876 42.3848 89.8692 41.4032 89.8692 40.1924C89.8692 38.9816 88.8876 38 87.6768 38C86.4659 38 85.4844 38.9816 85.4844 40.1924C85.4844 41.4032 86.4659 42.3848 87.6768 42.3848Z" fill="black"/>
<path d="M92.3983 34.5583H82.4989C82.1552 34.5583 81.8256 34.4218 81.5826 34.1788C81.3396 33.9358 81.2031 33.6062 81.2031 33.2625C81.2031 32.9189 81.3396 32.5893 81.5826 32.3463C81.8256 32.1033 82.1552 31.9668 82.4989 31.9668H92.3983C92.742 31.9668 93.0716 32.1033 93.3146 32.3463C93.5576 32.5893 93.6941 32.9189 93.6941 33.2625C93.6941 33.6062 93.5576 33.9358 93.3146 34.1788C93.0716 34.4218 92.742 34.5583 92.3983 34.5583Z" fill="black"/>
<path d="M78.2031 56.3267C75.8914 56.3358 73.5981 55.9162 71.4393 55.0893C71.2787 55.0274 71.1491 54.9043 71.0793 54.7469C71.0094 54.5896 71.0049 54.411 71.0668 54.2503C71.1286 54.0896 71.2518 53.9601 71.4091 53.8903C71.5665 53.8204 71.7451 53.8159 71.9058 53.8778C76.0457 55.3655 80.5743 55.3655 84.7142 53.8778C84.7929 53.845 84.8773 53.8281 84.9625 53.8279C85.0477 53.8278 85.1322 53.8444 85.211 53.8769C85.2898 53.9094 85.3614 53.9571 85.4218 54.0173C85.4822 54.0774 85.5301 54.1489 85.5629 54.2276C85.5957 54.3063 85.6126 54.3907 85.6127 54.4759C85.6129 54.5612 85.5962 54.6456 85.5637 54.7244C85.5313 54.8032 85.4836 54.8749 85.4234 54.9353C85.3632 54.9956 85.2917 55.0436 85.213 55.0763C82.9712 55.9133 80.5961 56.337 78.2031 56.3267Z" fill="black"/>
<path d="M96.3954 97.784C96.2438 97.787 96.0959 97.7368 95.9776 97.6421C95.8592 97.5474 95.7778 97.4142 95.7475 97.2657C95.7305 97.1823 95.73 97.0964 95.7462 97.0128C95.7624 96.9293 95.7948 96.8497 95.8418 96.7787C95.8887 96.7078 95.9492 96.6467 96.0197 96.5991C96.0902 96.5515 96.1694 96.5182 96.2528 96.5012L103.418 95.037C103.59 95.0026 103.769 95.0379 103.914 95.1351C104.06 95.2323 104.161 95.3835 104.196 95.5553C104.23 95.7271 104.195 95.9056 104.098 96.0514C104 96.1972 103.849 96.2984 103.677 96.3327L96.512 97.7905C96.473 97.7938 96.4337 97.7916 96.3954 97.784Z" fill="black"/>
<path d="M60.8652 97.784C60.8223 97.7908 60.7786 97.7908 60.7356 97.784L53.5702 96.2809C53.4851 96.2639 53.4042 96.2303 53.3321 96.182C53.26 96.1337 53.1982 96.0717 53.15 95.9995C53.1019 95.9274 53.0685 95.8464 53.0516 95.7613C53.0348 95.6762 53.0349 95.5886 53.0519 95.5035C53.0689 95.4184 53.1025 95.3375 53.1508 95.2654C53.1991 95.1933 53.2611 95.1314 53.3333 95.0833C53.4055 95.0352 53.4864 95.0018 53.5715 94.9849C53.6567 94.9681 53.7443 94.9682 53.8293 94.9852L60.9948 96.4494C61.0782 96.4664 61.1574 96.4996 61.2279 96.5473C61.2985 96.5949 61.3589 96.6559 61.4058 96.7269C61.4528 96.7979 61.4852 96.8775 61.5014 96.961C61.5176 97.0446 61.5172 97.1305 61.5001 97.2139C61.4813 97.3697 61.4066 97.5134 61.2898 97.6182C61.173 97.7231 61.0222 97.782 60.8652 97.784Z" fill="black"/>
<path d="M60.3417 84.2046H96.8427C97.664 84.2046 98.4517 84.5309 99.0325 85.1116C99.6133 85.6924 99.9395 86.4801 99.9395 87.3014V108.59H57.2578V87.3014C57.2578 86.4823 57.5823 85.6966 58.1603 85.1162C58.7382 84.5358 59.5226 84.208 60.3417 84.2046Z" fill="#8993BE"/>
<path fill-rule="evenodd" clip-rule="evenodd" d="M73.4844 101C73.4844 101 73.5047 96.3144 73.5047 96H73.4993C73.4993 95.011 73.7921 94.0443 74.3409 93.222C74.8896 92.3997 75.6695 91.7589 76.5819 91.3805C77.4944 91.0021 78.4984 90.9031 79.467 91.0962C80.4356 91.2892 81.3253 91.7656 82.0236 92.4649C82.7218 93.1643 83.1973 94.0554 83.3898 95.0254C83.3934 95.0436 83.3969 95.0619 83.4003 95.0801L79.487 95.0972L79.4915 96.127L83.4844 96.1096C83.4709 96.7264 83.3434 97.3386 83.1051 97.9144C82.727 98.828 82.0868 99.6088 81.2655 100.158C80.4442 100.707 79.4787 101 78.4911 101H73.4844Z" fill="#FEE600"/>
<path d="M99.939 109.238H57.2572C57.0854 109.238 56.9206 109.17 56.7991 109.049C56.6776 108.927 56.6094 108.762 56.6094 108.59V87.3014C56.6094 86.3082 57.0039 85.3558 57.7062 84.6535C58.4084 83.9512 59.3609 83.5567 60.3541 83.5567H96.8422C97.8353 83.5567 98.7878 83.9512 99.49 84.6535C100.192 85.3558 100.587 86.3082 100.587 87.3014V108.59C100.587 108.762 100.519 108.927 100.397 109.049C100.276 109.17 100.111 109.238 99.939 109.238ZM57.9051 107.943H99.3041V87.3014C99.3023 86.6524 99.0438 86.0305 98.5849 85.5716C98.126 85.1127 97.5041 84.8542 96.8551 84.8524H60.3411C59.6921 84.8542 59.0702 85.1127 58.6113 85.5716C58.1524 86.0305 57.8939 86.6524 57.8922 87.3014L57.9051 107.943Z" fill="black"/>
<path d="M55.1719 108.59H102.019C102.019 109.419 101.69 110.213 101.105 110.799C100.519 111.384 99.7249 111.713 98.8967 111.713H58.2946C57.4664 111.713 56.6721 111.384 56.0865 110.799C55.5009 110.213 55.1719 109.419 55.1719 108.59Z" fill="#8993BE"/>
<path d="M98.8896 112.374H58.294C57.2945 112.372 56.3365 111.975 55.6297 111.268C54.923 110.561 54.5252 109.603 54.5234 108.603C54.5234 108.432 54.5917 108.267 54.7132 108.145C54.8347 108.024 54.9995 107.956 55.1713 107.956H102.012C102.184 107.956 102.349 108.024 102.47 108.145C102.592 108.267 102.66 108.432 102.66 108.603C102.659 109.603 102.261 110.561 101.554 111.268C100.847 111.975 99.8891 112.372 98.8896 112.374ZM55.9034 109.238C56.0468 109.763 56.3583 110.225 56.7902 110.556C57.2221 110.886 57.7505 111.065 58.294 111.065H98.8896C99.4388 111.072 99.9745 110.896 100.413 110.565C100.851 110.235 101.168 109.768 101.313 109.238H55.9034Z" fill="black"/>
<path d="M78.1088 84.8525C77.937 84.8525 77.7722 84.7842 77.6507 84.6627C77.5292 84.5412 77.4609 84.3764 77.4609 84.2046V72.543C77.4609 72.3711 77.5292 72.2063 77.6507 72.0848C77.7722 71.9633 77.937 71.8951 78.1088 71.8951C78.2806 71.8951 78.4454 71.9633 78.5669 72.0848C78.6884 72.2063 78.7567 72.3711 78.7567 72.543V84.2046C78.7567 84.3764 78.6884 84.5412 78.5669 84.6627C78.4454 84.7842 78.2806 84.8525 78.1088 84.8525Z" fill="black"/>
<path d="M113.529 111.726H5.19229C3.08837 111.726 1.38281 113.43 1.38281 115.532C1.38281 117.635 3.08837 119.339 5.19229 119.339H113.529C115.633 119.339 117.339 117.635 117.339 115.532C117.339 113.43 115.633 111.726 113.529 111.726Z" fill="#E27525" stroke="black" stroke-width="1.5"/>
<path d="M16.1875 92.9833H34.3279V105.772C34.3279 107.351 33.7006 108.866 32.584 109.982C31.4674 111.099 29.953 111.726 28.3739 111.726H22.1414C20.5624 111.726 19.0479 111.099 17.9314 109.982C16.8148 108.866 16.1875 107.351 16.1875 105.772V92.9833Z" fill="#0ACF83"/>
<path d="M28.3734 112.374H22.1409C20.3905 112.372 18.7123 111.676 17.4746 110.439C16.2369 109.201 15.5408 107.523 15.5391 105.772V92.9833C15.5391 92.8114 15.6073 92.6466 15.7288 92.5251C15.8503 92.4036 16.0151 92.3354 16.1869 92.3354H34.3273C34.4991 92.3354 34.6639 92.4036 34.7854 92.5251C34.9069 92.6466 34.9752 92.8114 34.9752 92.9833V105.772C34.9735 107.523 34.2774 109.201 33.0397 110.439C31.802 111.676 30.1238 112.372 28.3734 112.374ZM16.8348 93.6311V105.772C16.8348 107.179 17.3938 108.529 18.3889 109.524C19.384 110.519 20.7336 111.078 22.1409 111.078H28.3734C29.7801 111.077 31.1287 110.517 32.1234 109.522C33.1181 108.528 33.6777 107.179 33.6794 105.772V93.6311H16.8348Z" fill="black"/>
<path d="M35.3914 105.999H34.3354C34.1635 105.999 33.9988 105.931 33.8773 105.809C33.7558 105.688 33.6875 105.523 33.6875 105.351V95.0694C33.6875 94.8976 33.7558 94.7328 33.8773 94.6113C33.9988 94.4898 34.1635 94.4215 34.3354 94.4215H35.3914C36.2102 94.3226 37.0407 94.3984 37.828 94.6442C38.6153 94.8899 39.3415 95.2998 39.9587 95.8469C40.5759 96.394 41.07 97.0658 41.4084 97.8179C41.7468 98.5701 41.9218 99.3855 41.9218 100.21C41.9218 101.035 41.7468 101.85 41.4084 102.603C41.07 103.355 40.5759 104.026 39.9587 104.574C39.3415 105.121 38.6153 105.531 37.828 105.776C37.0407 106.022 36.2102 106.098 35.3914 105.999ZM34.9832 104.703H35.3914C36.0262 104.776 36.6691 104.713 37.278 104.519C37.8868 104.326 38.448 104.006 38.9246 103.581C39.4013 103.155 39.7827 102.634 40.0438 102.051C40.3049 101.468 40.4399 100.836 40.4399 100.197C40.4399 99.5584 40.3049 98.9267 40.0438 98.3436C39.7827 97.7606 39.4013 97.2392 38.9246 96.8138C38.448 96.3884 37.8868 96.0685 37.278 95.8751C36.6691 95.6816 36.0262 95.619 35.3914 95.6913H34.9832V104.703Z" fill="black"/>
<path d="M43.1661 36.016H4.7603C3.86578 36.016 3.14062 36.7411 3.14062 37.6357V69.4267C3.14062 70.3212 3.86578 71.0464 4.7603 71.0464H43.1661C44.0606 71.0464 44.7858 70.3212 44.7858 69.4267V37.6357C44.7858 36.7411 44.0606 36.016 43.1661 36.016Z" fill="white"/>
<path d="M43.1655 71.6942H4.75325C4.15299 71.6925 3.57789 71.4528 3.15404 71.0278C2.73019 70.6027 2.49219 70.0269 2.49219 69.4267V37.6292C2.49219 37.0295 2.7304 36.4544 3.15444 36.0304C3.57847 35.6063 4.15358 35.3681 4.75325 35.3681H43.1655C43.7658 35.3681 44.3416 35.6061 44.7666 36.03C45.1917 36.4538 45.4313 37.0289 45.4331 37.6292V69.4267C45.4331 70.0281 45.1942 70.6048 44.7689 71.0301C44.3437 71.4553 43.7669 71.6942 43.1655 71.6942ZM4.75325 36.6768C4.49723 36.6768 4.2517 36.7785 4.07067 36.9595C3.88963 37.1406 3.78793 37.3861 3.78793 37.6421V69.4396C3.78792 69.6962 3.88942 69.9424 4.07027 70.1245C4.25112 70.3066 4.49664 70.4097 4.75325 70.4114H43.1655C43.4232 70.4114 43.6704 70.309 43.8527 70.1268C44.0349 69.9445 44.1373 69.6974 44.1373 69.4396V37.6292C44.1322 37.3748 44.0276 37.1326 43.8459 36.9545C43.6642 36.7765 43.4199 36.6767 43.1655 36.6768H4.75325Z" fill="#093F68"/>
<path d="M4.75382 36.0289H43.1661C43.5956 36.0289 44.0076 36.1996 44.3114 36.5033C44.6151 36.8071 44.7858 37.219 44.7858 37.6486V40.4539H3.14063V37.6486C3.14062 37.2202 3.31037 36.8092 3.61272 36.5056C3.91507 36.202 4.32538 36.0306 4.75382 36.0289Z" fill="#68E1FD"/>
<path d="M44.7852 41.0888H3.14006C2.96823 41.0888 2.80344 41.0205 2.68194 40.899C2.56044 40.7775 2.49219 40.6128 2.49219 40.4409V37.6292C2.49219 37.0295 2.7304 36.4544 3.15444 36.0304C3.57847 35.6063 4.15358 35.3681 4.75325 35.3681H43.1655C43.7658 35.3681 44.3416 35.6061 44.7666 36.03C45.1917 36.4538 45.4313 37.0289 45.4331 37.6292V40.4409C45.4331 40.6128 45.3648 40.7775 45.2433 40.899C45.1218 41.0205 44.957 41.0888 44.7852 41.0888ZM3.78793 39.7931H44.1373V37.6292C44.1322 37.3748 44.0276 37.1326 43.8459 36.9545C43.6642 36.7765 43.4199 36.6767 43.1655 36.6768H4.75325C4.49723 36.6768 4.2517 36.7785 4.07067 36.9595C3.88963 37.1406 3.78793 37.3861 3.78793 37.6421V39.7931Z" fill="#093F68"/>
<path d="M6.37596 39.0933C6.85542 39.0933 7.24411 38.7047 7.24411 38.2252C7.24411 37.7457 6.85542 37.3571 6.37596 37.3571C5.89649 37.3571 5.50781 37.7457 5.50781 38.2252C5.50781 38.7047 5.89649 39.0933 6.37596 39.0933Z" fill="#093F68"/>
<path d="M8.79783 39.0933C9.2773 39.0933 9.66598 38.7047 9.66598 38.2252C9.66598 37.7457 9.2773 37.3571 8.79783 37.3571C8.31837 37.3571 7.92969 37.7457 7.92969 38.2252C7.92969 38.7047 8.31837 39.0933 8.79783 39.0933Z" fill="#093F68"/>
<path d="M11.2353 39.0933C11.7148 39.0933 12.1035 38.7047 12.1035 38.2252C12.1035 37.7457 11.7148 37.3571 11.2353 37.3571C10.7559 37.3571 10.3672 37.7457 10.3672 38.2252C10.3672 38.7047 10.7559 39.0933 11.2353 39.0933Z" fill="#093F68"/>
<path d="M16.0002 56C12.6751 56 9.9751 53.3499 10.0002 50C10.0253 46.6501 12.5502 44 16.0002 44C19.4504 44 22.0002 46.7 22.0002 50C22.0002 53.3 19.3253 56 16.0002 56ZM17.7751 55.0749L16.0752 50.4999L14.4751 55.175C15.6503 55.4502 16.4502 55.5249 17.7751 55.0749ZM13.6253 54.8251L11.0753 47.8501C10.7251 48.6001 10.6503 49.2252 10.6002 50C10.6253 52.0498 11.7751 53.9248 13.6253 54.8251ZM21.4002 50C21.425 48.6751 20.8004 47.6251 20.7503 47.4751C20.8004 48.5002 20.6502 49.025 20.4753 49.6002L18.7253 54.6252C20.9253 53.3 21.35 51.3249 21.4002 50ZM15.8253 49.775L14.9753 47.45L14.3502 47.4001C14.1003 47.225 14.2501 46.9501 14.4252 46.9501C15.5502 47.0251 16.175 47.0251 17.3003 46.9501C17.5754 46.9501 17.6502 47.3502 17.3251 47.4001L16.7251 47.45L18.6749 53.1999L19.5997 50.0499C19.6499 48.6751 19.2746 48.5251 18.7747 47.525C18.3746 46.7499 18.7998 45.9999 19.5749 45.9751C18.9496 45.3751 17.6748 44.6251 15.9997 44.6C14.3246 44.5749 12.5497 45.425 11.4997 47.0251L13.3499 46.9752C13.5749 47.0752 13.4748 47.4001 13.3499 47.4252L12.6999 47.4751L14.6499 53.3251L15.8253 49.775Z" fill="#21759B"/>
<path d="M30.8774 44.3892C30.9637 44.3892 31.0069 44.4323 31.0932 44.4755C30.5753 44.6913 30.0573 45.2524 29.7983 46.461L28.8488 46.72C29.1509 45.8567 29.7552 44.3892 30.8774 44.3892ZM31.3522 44.8208C31.4385 45.0798 31.5249 45.3819 31.5249 45.8567C31.5249 45.8999 31.5249 45.8999 31.5249 45.943L30.2731 46.2883C30.5321 45.3819 30.9637 44.9935 31.3522 44.8208ZM32.4744 45.5977L31.9133 45.7704C31.9133 45.7272 31.9133 45.6841 31.9133 45.6409C31.9133 45.2524 31.8702 44.9503 31.7838 44.6913C32.086 44.7776 32.3449 45.1661 32.4744 45.5977ZM35.28 46.2883C35.28 46.2452 35.2369 46.202 35.1937 46.202C35.1074 46.202 34.201 46.1157 34.201 46.1157C34.201 46.1157 33.5535 45.4682 33.4672 45.4251C33.3809 45.3388 33.2514 45.3819 33.2082 45.3819C33.2082 45.3819 33.0787 45.4251 32.8629 45.5114C32.6471 44.9071 32.2586 44.346 31.6112 44.346H31.568C31.3954 44.087 31.1364 44.0007 30.9206 44.0007C29.3667 43.9575 28.6329 45.8999 28.374 46.8926C28.0287 46.9789 27.6834 47.1084 27.2949 47.2379C26.9496 47.3243 26.9496 47.3674 26.9064 47.6696C26.8633 47.8854 26 54.7051 26 54.7051L32.8629 56L36.5749 55.1799C36.5749 55.1799 35.28 46.3747 35.28 46.2883Z" fill="#8DB849"/>
<path d="M35.1548 46.2016C35.1117 46.2016 34.2052 46.1153 34.2052 46.1153C34.2052 46.1153 33.5578 45.4679 33.4715 45.4247C33.4283 45.3815 33.4283 45.3815 33.3851 45.3815L32.8672 55.9996L36.5792 55.1795C36.5792 55.1795 35.2843 46.3743 35.2843 46.288C35.2843 46.2448 35.198 46.2016 35.1548 46.2016Z" fill="#5A863E"/>
<path d="M31.6157 48.2733L31.1409 49.6545C31.1409 49.6545 30.7525 49.4387 30.2345 49.4387C29.5007 49.4387 29.4576 49.8704 29.4576 49.9998C29.4576 50.6041 31.0978 50.8631 31.0978 52.3306C31.0978 53.496 30.364 54.2298 29.3712 54.2298C28.2058 54.2298 27.6016 53.496 27.6016 53.496L27.9037 52.4601C27.9037 52.4601 28.508 52.9781 29.0259 52.9781C29.3712 52.9781 29.5007 52.7191 29.5007 52.5033C29.5007 51.6832 28.1627 51.64 28.1627 50.302C28.1627 49.1798 28.9828 48.1007 30.5798 48.1007C31.3136 48.0575 31.6157 48.2733 31.6157 48.2733Z" fill="#FFFFFE"/>
<g clip-path="url(#clip1_1204_230)">
<path d="M24.5 66.7671C28.0899 66.7671 31 65.2522 31 63.3836C31 61.5149 28.0899 60 24.5 60C20.9101 60 18 61.5149 18 63.3836C18 65.2522 20.9101 66.7671 24.5 66.7671Z" fill="#8993BE"/>
<path fill-rule="evenodd" clip-rule="evenodd" d="M19.8281 65.3869L20.5405 61.7807H22.1877C22.9 61.8252 23.2562 62.1814 23.2562 62.8047C23.2562 63.8732 22.4103 64.4965 21.6534 64.4519H20.8521L20.674 65.3869H19.8281ZM21.0302 63.7842L21.2528 62.4485H21.8316C22.1432 62.4485 22.3658 62.5821 22.3658 62.8492C22.3213 63.6061 21.9651 63.7396 21.5644 63.7842H21.0302H21.0302ZM23.0907 64.4519L23.803 60.8458H24.6489L24.4708 61.7807H25.2721C25.9845 61.8252 26.2516 62.1814 26.1626 62.6266L25.8509 64.4519H24.9605L25.2722 62.8047C25.3167 62.5821 25.3167 62.4485 25.0051 62.4485H24.3373L23.9366 64.4519H23.0907ZM25.7939 65.3869L26.5062 61.7807H28.1535C28.8658 61.8252 29.222 62.1814 29.222 62.8047C29.222 63.8732 28.3761 64.4965 27.6192 64.4519H26.8179L26.6398 65.3869H25.7939ZM26.9959 63.7842L27.2185 62.4485H27.7973C28.109 62.4485 28.3316 62.5821 28.3316 62.8492C28.2871 63.6061 27.9309 63.7396 27.5302 63.7842H26.996H26.9959Z" fill="#232531"/>
</g>
</g>
<defs>
<clipPath id="clip0_1204_230">
<rect width="118.723" height="120" fill="white"/>
</clipPath>
<clipPath id="clip1_1204_230">
<rect width="13" height="7" fill="white" transform="translate(18 60)"/>
</clipPath>
</defs>
</svg>
