<svg width="285" height="285" viewBox="0 0 285 285" fill="none" xmlns="http://www.w3.org/2000/svg">
<g clip-path="url(#clip0_941_5907)">
<rect x="0.015625" width="285" height="285" fill="#CBF4D7"/>
<path d="M20.1323 168.948C28.4662 165.555 38.2826 166.02 45.7122 160.89C55.0022 154.474 57.3048 141.832 59.5561 130.626C61.8072 119.42 66.1781 106.745 76.7812 103.005C85.9394 99.7754 95.9664 104.811 103.32 111.244C110.674 117.676 116.862 125.729 125.438 130.327C138.484 137.323 154.432 134.953 168.485 130.419C182.535 125.885 196.229 119.321 210.936 118.313C225.642 117.305 242.254 123.703 247.563 137.721C251.534 148.203 248.448 160.666 253.439 170.683C258.246 180.327 269.117 184.986 276.234 193.009C288.621 206.973 287.243 230.064 276.121 245.095C265.002 260.125 246.316 267.794 227.917 269.407C209.518 271.021 191.111 267.297 173.051 263.363C154.992 259.43 136.741 255.243 118.285 255.918C102.959 256.478 87.9557 260.379 72.7363 262.307C50.6448 265.105 25.7863 262.76 12.013 242.642C1.65253 227.509 -4.04891 214.224 0.998133 195.991C4.11565 184.733 8.6983 173.602 20.1323 168.948Z" fill="#F0F8FF" fill-opacity="0.5"/>
<path d="M198.403 177.864C192.087 177.864 186.967 172.884 186.967 166.74C186.967 160.596 192.087 155.616 198.403 155.616C204.716 155.616 209.835 160.596 209.835 166.74C209.835 172.884 204.716 177.864 198.403 177.864ZM166.669 176.628L157.381 183.037L160.384 188.096L163.384 193.155L173.742 188.531C175.76 190.693 178.077 192.588 180.625 194.156L177.745 204.878L183.388 206.876L189.03 208.874L193.907 198.858C195.375 199.051 196.878 199.151 198.403 199.151C199.925 199.151 201.428 199.051 202.898 198.858L207.776 208.874L213.418 206.876L219.06 204.878L216.178 194.156C218.725 192.587 221.043 190.693 223.06 188.53L233.419 193.155L236.422 188.096L239.422 183.037L230.136 176.627C231.035 173.895 231.569 171.005 231.688 168.01L242.678 165.075L241.635 159.323L240.593 153.57L229.245 154.468C228.093 151.737 226.573 149.193 224.741 146.895L231.22 137.775L226.62 134.02L222.021 130.265L213.92 138.052C211.291 136.704 208.454 135.687 205.468 135.059L204.406 124.027H198.403H192.397L191.335 135.059C188.349 135.687 185.512 136.704 182.885 138.052L174.782 130.265L170.182 134.02L165.582 137.775L172.061 146.895C170.229 149.193 168.709 151.737 167.561 154.468L156.21 153.57L155.167 159.323L154.125 165.076L165.115 168.01C165.233 171.005 165.771 173.895 166.669 176.628Z" fill="#C1DEF4"/>
<path d="M146.259 141.79C143.799 141.79 141.805 139.851 141.805 137.458C141.805 135.064 143.799 133.125 146.259 133.125C148.718 133.125 150.712 135.064 150.712 137.458C150.712 139.851 148.718 141.79 146.259 141.79ZM133.901 141.308L130.283 143.805L131.451 145.776L132.621 147.746L136.655 145.945C137.441 146.787 138.343 147.525 139.335 148.135L138.213 152.312L140.412 153.09L142.609 153.868L144.507 149.967C145.08 150.042 145.666 150.081 146.259 150.081C146.854 150.081 147.439 150.042 148.01 149.967L149.91 153.868L152.107 153.09L154.304 152.312L153.182 148.135C154.175 147.525 155.078 146.786 155.864 145.945L159.898 147.746L161.066 145.776L162.236 143.805L158.618 141.308C158.968 140.245 159.177 139.119 159.225 137.952L163.503 136.809L163.097 134.568L162.692 132.328L158.272 132.678C157.824 131.615 157.231 130.623 156.519 129.728L159.04 126.176L157.251 124.714L155.458 123.251L152.302 126.284C151.279 125.759 150.175 125.363 149.011 125.119L148.599 120.822H146.259H143.92L143.506 125.119C142.344 125.363 141.24 125.759 140.215 126.284L137.059 123.251L135.268 124.714L133.477 126.176L136 129.728C135.288 130.623 134.695 131.615 134.247 132.678L129.826 132.328L129.422 134.569L129.016 136.809L133.294 137.952C133.342 139.119 133.551 140.245 133.901 141.308Z" fill="#C1DEF4"/>
<path d="M180.049 119.928C178.379 119.928 177.027 118.611 177.027 116.987C177.027 115.363 178.379 114.046 180.049 114.046C181.717 114.046 183.071 115.363 183.071 116.987C183.071 118.611 181.717 119.928 180.049 119.928ZM171.66 119.601L169.205 121.295L169.999 122.632L170.793 123.969L173.529 122.747C174.063 123.319 174.676 123.82 175.348 124.234L174.587 127.068L176.08 127.597L177.57 128.125L178.859 125.477C179.249 125.528 179.645 125.554 180.049 125.554C180.451 125.554 180.847 125.528 181.237 125.477L182.526 128.125L184.017 127.597L185.509 127.068L184.748 124.234C185.421 123.819 186.033 123.319 186.567 122.747L189.304 123.969L190.097 122.632L190.891 121.295L188.436 119.601C188.674 118.878 188.817 118.114 188.847 117.323L191.752 116.547L191.475 115.026L191.201 113.506L188.2 113.743C187.897 113.021 187.495 112.349 187.01 111.741L188.724 109.33L187.508 108.338L186.292 107.345L184.151 109.404C183.454 109.047 182.706 108.778 181.916 108.613L181.635 105.696H180.049H178.461L178.18 108.613C177.39 108.778 176.642 109.047 175.945 109.404L173.804 107.345L172.588 108.338L171.372 109.33L173.086 111.741C172.601 112.349 172.199 113.021 171.896 113.743L168.895 113.506L168.621 115.026L168.344 116.547L171.249 117.323C171.279 118.114 171.422 118.878 171.66 119.601Z" fill="#C1DEF4"/>
<path d="M245.153 193.64C245.116 195.301 245.108 196.972 244.946 198.614C244.834 199.75 244.433 200.702 243.781 201.641C243.407 202.176 242.665 203.459 241.922 203.993C241.843 203.875 241.711 203.789 241.571 203.764C241.424 201.87 241.472 199.887 242.03 198.073C242.543 196.402 243.903 194.976 245.153 193.64Z" fill="#027369"/>
<path d="M247.61 205.8C246.768 206.933 245.851 208.041 244.615 208.778C243.936 209.18 243.087 209.547 242.277 209.536C241.693 209.528 240.009 208.911 239.719 208.022C240.851 207.118 242.072 206.135 243.515 205.748C244.858 205.387 246.242 205.678 247.61 205.8Z" fill="#027369"/>
<path d="M262.579 230.828C259.92 235.581 256.019 239.563 253.009 244.113C250.985 247.177 248.936 251.186 248.823 255.032C248.821 255.097 248.821 255.16 248.821 255.223C248.71 255.078 248.597 254.934 248.481 254.794C248.407 254.203 248.36 253.604 248.339 253.007C248.326 252.628 248.326 252.249 248.334 251.867C248.357 250.56 248.502 249.248 248.726 247.952C248.984 246.454 249.352 244.976 249.774 243.546C251.388 238.086 253.828 232.795 254.378 227.14C254.805 222.776 254.083 218.373 254.349 213.999C254.7 208.274 256.782 202.661 260.27 198.044C267.324 207.352 268.261 220.671 262.579 230.828Z" fill="#027369"/>
<path d="M271.18 221.653C266.678 222.74 262.454 224.612 258.667 227.201C259.013 225.573 259.301 223.932 259.56 222.291C259.744 221.127 259.933 219.959 260.108 218.788C260.142 218.769 260.179 218.745 260.21 218.711C263.101 215.766 267.071 214.434 270.999 213.34C271.505 213.199 271.29 212.431 270.782 212.572C267.008 213.623 263.206 214.908 260.289 217.525C260.653 214.914 260.923 212.289 260.923 209.662C260.955 209.637 260.983 209.609 261.01 209.572C263.672 205.747 267.543 203.05 271.377 200.43C271.804 200.137 271.398 199.448 270.965 199.743C267.289 202.255 263.607 204.839 260.9 208.358C260.737 203.583 259.846 198.593 261.864 194.062C262.071 193.597 261.366 193.191 261.159 193.66C259.45 197.495 259.689 201.613 259.943 205.693C260.095 208.163 260.056 210.587 259.885 213.003C258.2 211.678 256.531 210.319 254.778 209.086C253.892 208.464 252.962 207.892 251.945 207.498C251.607 207.366 248.748 206.933 248.708 206.699C248.622 206.195 247.836 206.409 247.92 206.911C248.03 207.552 248.467 207.721 249.094 207.769C250.637 207.889 251.892 208.23 253.226 209.025C255.569 210.424 257.668 212.283 259.809 213.959C259.631 216.083 259.359 218.206 259.036 220.355C258.952 220.926 258.863 221.497 258.774 222.067C255.745 220.578 252.702 218.823 249.44 217.916C248.934 217.776 248.716 218.543 249.222 218.684C252.508 219.595 255.588 221.406 258.641 222.89C258.153 225.864 257.558 228.828 256.683 231.713C256.256 231.363 255.947 230.894 255.491 230.561C254.877 230.112 254.138 229.877 253.483 229.5C251.971 228.633 250.784 227.62 249.075 227.095C248.572 226.94 248.357 227.708 248.858 227.861C250.624 228.405 251.817 229.533 253.405 230.365C254.044 230.7 254.738 230.934 255.281 231.425C255.695 231.8 255.975 232.217 256.426 232.524C256.222 233.149 256.009 233.772 255.776 234.39C254.898 236.707 253.766 238.913 252.634 241.12C251.675 238.831 250.113 236.922 248.022 235.492C247.592 235.197 247.183 235.886 247.61 236.179C249.628 237.56 251.138 239.461 252 241.71C252.042 241.824 252.123 241.898 252.215 241.939C251.4 243.536 250.601 245.14 249.914 246.794C248.093 251.196 247.173 256.172 249.005 260.716C249.193 261.188 249.985 260.982 249.793 260.505C246.63 252.662 251.596 245.261 254.993 238.217L255.006 238.212C258.8 236.488 263.153 237.604 267.144 236.734C267.658 236.622 267.441 235.855 266.927 235.967C263.145 236.792 259.152 235.908 255.485 237.173C255.737 236.623 255.978 236.075 256.201 235.529C257.149 233.201 257.852 230.796 258.413 228.357C262.315 225.562 266.691 223.556 271.395 222.42C271.906 222.297 271.691 221.529 271.18 221.653Z" fill="#A0D9CA"/>
<path d="M241.039 230.639C240.839 230.734 240.645 230.844 240.44 230.928C239.286 231.396 238.285 231.168 237.363 230.4C236.724 229.865 236.374 229.019 235.844 228.388C237.577 228.263 239.791 228.624 241.017 229.775C241.024 230.061 241.029 230.351 241.039 230.639Z" fill="#027369"/>
<path d="M243.17 234.935C242.977 235.043 242.791 235.165 242.59 235.261C241.47 235.801 240.458 235.635 239.487 234.926C238.813 234.433 238.409 233.609 237.836 233.013C239.559 232.78 241.792 233.003 243.091 234.074C243.118 234.36 243.141 234.648 243.17 234.935Z" fill="#027369"/>
<path d="M245.639 240.388C245.445 240.497 245.258 240.619 245.061 240.715C243.938 241.255 242.926 241.089 241.956 240.379C241.282 239.886 240.876 239.063 240.305 238.466C242.028 238.233 244.263 238.456 245.559 239.528C245.587 239.814 245.612 240.102 245.639 240.388Z" fill="#027369"/>
<path d="M239.404 225.093C239.009 225.239 238.464 225.434 238.26 225.489C237.324 225.747 236.253 225.835 235.426 225.242C234.451 224.541 233.847 223.176 233.422 222.01C234.389 222.069 235.337 221.998 236.285 222.387C237.607 222.926 238.577 223.922 239.424 225.012C239.417 225.039 239.412 225.066 239.404 225.093Z" fill="#027369"/>
<path d="M238.637 218.626L238.635 218.628C237.767 218.604 237.052 218.363 236.216 218C235.395 217.642 234.427 217.469 233.696 216.968C232.696 216.287 232.292 215.051 231.711 213.985C234.62 214.569 237.684 215.789 238.637 218.626Z" fill="#027369"/>
<path d="M238.737 211.296C237.3 210.933 235.741 209.353 234.871 208.372C233.689 207.03 233.069 205.524 232.961 203.814C234.385 204.567 235.954 205.301 237.097 206.383C238.426 207.648 238.568 209.554 238.737 211.296Z" fill="#027369"/>
<path d="M245.193 211.296C244.403 214.223 241.82 216.493 238.604 215.676C238.608 215.643 238.613 215.606 238.623 215.571C238.663 215.322 238.536 215.128 238.359 215.019C239.615 212.89 242.806 212.076 245.193 211.296Z" fill="#027369"/>
<path d="M243.71 218.033C243.4 218.94 243.167 219.881 242.7 220.716C241.901 222.15 240.25 222.649 238.82 221.927C238.833 221.896 238.84 221.861 238.845 221.824C238.979 220.835 240.511 219.725 241.283 219.203C242.035 218.694 242.849 218.312 243.71 218.033Z" fill="#027369"/>
<path d="M244.523 222.667C244.469 223.743 244.155 224.778 243.536 225.7C243.198 226.212 242.78 226.678 242.297 227.065C242.036 227.275 239.957 228.295 239.937 227.834C239.937 227.813 239.935 227.795 239.93 227.776C240.442 226.84 240.77 225.843 241.479 224.989C242.305 223.989 243.342 223.208 244.523 222.667Z" fill="#027369"/>
<path d="M246.544 227.564C246.424 228.62 246.231 229.704 245.611 230.589C245.324 231.003 242.58 233.237 242.142 232.498C242.09 232.405 242.012 232.35 241.93 232.326C242.507 231.255 243.072 230.07 243.914 229.216C244.644 228.476 245.589 227.991 246.544 227.564Z" fill="#027369"/>
<path d="M248.855 231.973C248.734 233.028 248.541 234.112 247.922 234.998C247.633 235.412 244.891 237.646 244.453 236.907C244.398 236.814 244.323 236.758 244.242 236.734C244.815 235.663 245.383 234.478 246.225 233.625C246.954 232.885 247.902 232.399 248.855 231.973Z" fill="#027369"/>
<path d="M248.821 255.032C248.818 255.096 248.818 255.16 248.818 255.223C248.708 255.078 248.595 254.934 248.476 254.794C246.136 251.923 242.766 249.961 239.368 248.325C235.68 246.554 231.814 245.051 228.514 242.662C223.799 239.245 220.479 234.049 219.415 228.42C218.355 222.792 219.561 216.787 222.723 211.962C222.019 219.655 224.827 227.591 230.254 233.227C233.35 236.445 237.186 238.89 240.627 241.753C242.884 243.63 245 245.743 246.521 248.237C247.187 249.335 247.697 250.526 248.248 251.682C248.268 251.721 248.285 251.764 248.306 251.804C248.316 251.825 248.326 251.845 248.331 251.867C248.482 252.206 248.549 252.62 248.59 253.052C248.655 253.736 248.657 254.471 248.821 255.032Z" fill="#027369"/>
<path d="M247.115 251.513C246.534 250.818 245.916 250.163 245.267 249.538C245.245 249.449 245.182 249.367 245.064 249.314C245.026 249.297 244.993 249.27 244.961 249.246C244.91 249.201 244.863 249.157 244.812 249.112C244.126 248.323 244.038 245.864 243.97 245.159C243.845 243.871 243.852 242.583 243.95 241.294C243.99 240.783 243.171 240.786 243.133 241.294C243.003 243.025 243.05 244.748 243.317 246.464C243.382 246.874 243.427 247.433 243.528 247.992C241.726 246.498 239.763 245.173 237.795 243.893C236.953 240.713 236.829 237.461 237.443 234.226C237.538 233.726 236.749 233.512 236.653 234.015C236.068 237.101 236.113 240.202 236.797 243.246L236.761 243.223C236.264 242.902 235.764 242.58 235.263 242.256C235.241 242.076 235.113 241.907 234.874 241.897C234.816 241.894 234.761 241.894 234.705 241.892C233.645 241.201 232.589 240.497 231.566 239.756C231.571 239.69 231.564 239.621 231.533 239.55C230.196 236.473 230.126 233.116 231.267 229.973C231.443 229.49 230.654 229.281 230.478 229.762C229.389 232.766 229.392 235.926 230.422 238.903C228.799 237.651 227.28 236.285 225.971 234.71C225.948 234.682 225.928 234.654 225.906 234.627C225.302 230.654 226.107 226.656 228.175 223.183C228.439 222.739 227.733 222.338 227.469 222.781C225.539 226.022 224.686 229.662 224.948 233.353C223.93 231.862 223.146 230.245 222.588 228.556C222.633 228.495 222.661 228.416 222.656 228.318C222.459 223.822 224.121 219.492 227.313 216.233C227.678 215.863 227.099 215.3 226.735 215.671C223.97 218.493 222.286 222.1 221.909 225.931C221.532 223.957 221.429 221.926 221.587 219.911C222.072 213.719 224.983 207.993 228.701 203.047C229.012 202.633 228.303 202.237 227.994 202.645C221.987 210.639 218.252 221.261 222.575 230.801C222.286 230.699 221.999 230.593 221.726 230.457C220.939 230.065 220.363 229.378 219.762 228.76C218.684 227.649 216.779 226.249 217.091 224.524C217.181 224.024 216.394 223.809 216.304 224.312C216.005 225.953 217 227.069 218.093 228.198C218.86 228.989 219.594 229.847 220.436 230.563C221.218 231.227 222.09 231.401 223.017 231.81C223.038 231.819 223.058 231.824 223.075 231.83C223.666 232.953 224.362 233.982 225.131 234.939C225.131 234.949 225.134 234.958 225.134 234.967C225.159 235.128 225.257 235.215 225.375 235.244C225.888 235.858 226.436 236.441 227.006 237.001C226.036 236.734 225.003 236.607 224.053 236.365C222.075 235.861 220.147 235.205 218.267 234.418C217.789 234.217 217.372 234.903 217.855 235.104C219.494 235.791 221.16 236.394 222.874 236.875C224.578 237.353 226.73 237.433 228.236 238.372C228.349 238.445 228.464 238.45 228.56 238.415C230.01 239.647 231.581 240.766 233.192 241.845C231.398 241.805 229.603 241.823 227.808 241.909C225.883 242.002 224.128 242.226 222.387 243.083C221.919 243.314 222.331 244.001 222.799 243.769C224.724 242.822 226.74 242.734 228.854 242.662C230.721 242.597 232.589 242.611 234.457 242.679C235.331 243.249 236.211 243.813 237.086 244.381C237.151 244.547 237.297 244.619 237.448 244.617C238.441 245.264 239.421 245.92 240.376 246.598C237.513 246.858 234.728 247.561 232.576 249.555C232.194 249.909 232.775 250.471 233.155 250.118C235.389 248.046 238.39 247.494 241.369 247.319C242.073 247.842 242.759 248.383 243.417 248.947C243.664 249.157 243.902 249.373 244.139 249.591C244.232 249.708 244.337 249.81 244.458 249.892C248.623 253.886 251.151 259.095 251.363 264.867C251.383 265.377 252.2 265.38 252.182 264.867C252.001 260.011 250.267 255.3 247.115 251.513Z" fill="#A0D9CA"/>
<path d="M256.656 252.268H248.331H240.006C238.889 252.268 238.071 253.288 238.341 254.343L241.725 267.528C241.915 268.272 242.603 268.794 243.393 268.794H248.331H253.272C254.059 268.794 254.747 268.272 254.937 267.528L258.324 254.343C258.594 253.288 257.773 252.268 256.656 252.268Z" fill="#D8E5ED"/>
<path d="M253.266 268.794H248.325H243.386C242.597 268.794 241.91 268.272 241.719 267.528C241.91 268.272 242.597 268.794 243.386 268.794H248.325H253.266C254.055 268.794 254.742 268.272 254.931 267.528L255.181 266.559L254.931 267.528C254.742 268.272 254.055 268.794 253.266 268.794Z" fill="#D6D6D6"/>
<path d="M238.308 254.188C238.154 253.19 238.945 252.268 240.008 252.268C238.945 252.268 238.154 253.19 238.308 254.188Z" fill="#C9D0D6"/>
<path d="M253.274 268.794H248.332H243.393C242.604 268.794 241.918 268.272 241.726 267.528L238.342 254.343C238.329 254.291 238.319 254.239 238.309 254.188C238.153 253.19 238.947 252.268 240.009 252.268H241.507C242.313 259.479 247.942 265.279 255.188 266.559L254.938 267.528C254.749 268.272 254.063 268.794 253.274 268.794Z" fill="#B5C0C7"/>
<path d="M248.506 252.019C247.82 247.404 247.132 242.629 245.318 238.285C243.58 234.119 241.04 230.26 239.96 225.848C239.385 223.497 239.194 221.079 239.116 218.67C239.036 216.244 238.913 213.738 239.179 211.321C239.443 208.932 240.503 206.953 241.626 204.861C242.52 203.198 243.266 201.508 243.198 199.594C243.18 199.084 242.364 199.081 242.382 199.594C242.462 201.967 241.178 203.936 240.098 205.964C239.104 207.826 238.486 209.703 238.317 211.806C237.958 216.281 238.081 221.187 239.061 225.583C240.028 229.916 242.409 233.709 244.203 237.736C246.099 242.005 246.883 246.668 247.571 251.254C247.388 251.351 247.272 251.564 247.413 251.787C247.529 251.966 247.644 252.146 247.757 252.325C248.018 252.733 248.569 252.447 248.506 252.019Z" fill="#027369"/>
<path d="M172.147 178.242C172.147 178.242 171.833 181.06 173.606 183.038C175.385 185.021 174.336 186.58 174.062 186.79C173.784 186.999 165.737 187.177 165.737 187.177L165.33 186.239L164.782 184.988L165.8 183.878C165.8 183.878 166.024 183.635 166.191 182.894C166.322 182.329 166.413 181.475 166.34 180.211L166.336 180.22C166.288 180.258 165.479 180.948 164.274 181.975C163.191 182.898 161.402 178.919 161.483 177.043C161.565 175.162 161.689 174.439 161.689 174.439C161.689 174.439 160.95 174.682 160.041 174.23C159.781 174.103 159.656 173.814 159.767 173.553C160.12 172.676 161.287 171.145 160.76 169.097C160.696 168.854 160.611 168.603 160.495 168.341C159.767 166.694 166.379 164.884 170.892 165.537C173.255 165.882 175.042 166.9 174.892 168.971C174.46 174.999 172.147 178.242 172.147 178.242Z" fill="#EBC4A1"/>
<path d="M166.188 182.894C166.287 182.467 166.363 181.872 166.363 181.06C166.363 180.8 166.354 180.517 166.338 180.211L168.178 178.723C168.178 178.723 167.642 181.345 166.188 182.894Z" fill="#AB8F75"/>
<path d="M171.887 178.238C171.867 178.135 171.28 175.257 171.704 175.042C172.135 174.821 173.222 172.882 172.566 172.422C172.514 172.386 172.449 172.369 172.37 172.369C171.946 172.369 171.167 172.858 170.45 173.386C169.866 174.076 168.855 174.673 168.855 174.673L168.923 174.547C169.27 173.874 170.177 171.905 170.06 170.142C169.999 169.227 169.672 168.937 168.821 168.937C167.914 168.937 166.416 169.264 164.016 169.513C163.682 169.547 163.371 169.564 163.08 169.564C162.085 169.564 161.332 169.375 160.766 169.098C160.736 168.985 160.702 168.871 160.664 168.755C160.768 168.761 160.876 168.765 160.987 168.766C161.032 168.766 161.077 168.766 161.12 168.766C163.243 168.766 164.876 168.454 166.173 168.141C167.47 167.828 168.433 167.514 169.218 167.514C169.818 167.514 170.315 167.697 170.779 168.201C172.318 169.886 171.027 172.433 170.797 172.862C170.973 172.586 171.738 171.486 172.683 171.486C172.852 171.486 173.026 171.522 173.204 171.603C174.519 172.2 173.78 175.083 172.381 175.601L172.318 175.937L171.887 178.238Z" fill="#AB8F75"/>
<path d="M177.676 168.524C177.758 174.603 171.879 178.242 171.879 178.242L172.309 175.937L172.373 175.601C173.773 175.084 174.51 172.2 173.197 171.603C172.023 171.067 170.996 172.537 170.789 172.863C171.019 172.433 172.309 169.886 170.771 168.201C169.701 167.038 168.454 167.589 166.165 168.141C164.84 168.461 163.168 168.78 160.978 168.767C155.007 168.734 158.644 159.365 158.644 159.365C160 161.446 163.002 160.363 163.002 160.363C161.645 159.164 161.768 156.523 161.768 156.523C161.768 156.523 161.889 156.728 162.128 157.046C162.977 158.193 165.327 160.816 169.082 160.844C173.893 160.885 177.594 162.444 177.676 168.524Z" fill="#1A1A1A"/>
<path d="M171.882 178.242L172.315 175.937C172.54 175.816 172.761 175.686 172.972 175.55C175.191 174.094 176.208 171.216 175.671 168.664C175.138 166.107 173.202 163.942 170.804 162.78C168.934 161.875 166.795 161.52 165.034 160.419C164.08 159.803 163.275 159.019 162.67 158.072C162.458 157.741 162.288 157.396 162.133 157.046C162.981 158.193 165.332 160.816 169.086 160.844C173.896 160.885 177.6 162.444 177.68 168.523C177.682 168.565 177.682 168.606 177.682 168.648C177.682 174.653 171.882 178.242 171.882 178.242Z" fill="#131313"/>
<path d="M156.231 236.409L145.907 255.135L145.382 256.089L137.916 269.63H136.492L143.959 256.089L144.484 255.135L154.805 236.409H156.231Z" fill="#364F6B"/>
<path d="M175.966 269.63H174.542L167.713 257.243L167.075 256.089L167 255.951L166.549 255.135L156.227 236.409H157.651L167.713 254.657L167.976 255.135L168.425 255.95L168.499 256.089L175.966 269.63Z" fill="#364F6B"/>
<path d="M179.192 236.409L168.868 255.135L168.42 255.95L168.342 256.089L167.707 257.243L160.876 269.63H159.453L166.919 256.089L166.994 255.951L167.445 255.135L167.707 254.657L177.766 236.409H179.192Z" fill="#364F6B"/>
<path d="M198.936 269.63H197.51L190.045 256.089L189.52 255.135L179.195 236.409H180.622L190.945 255.135L191.471 256.089L198.936 269.63Z" fill="#364F6B"/>
<path d="M191.477 256.089H143.961L144.485 255.135H190.951L191.477 256.089Z" fill="#364F6B"/>
<path d="M193.452 192.683C193.452 192.683 181.388 193.146 181.388 228.213C181.388 229.834 180.038 231.147 178.371 231.147H139.767C137.722 231.147 136.534 233.384 137.703 235.014C138.785 236.518 140.697 238.13 144.077 239.182C152.014 241.652 182.64 239.182 182.64 239.182C182.64 239.182 188.215 238.562 189.804 231.147C191.391 223.733 180.747 210.447 193.452 192.683Z" fill="#364F6B"/>
<path d="M93.442 216.414L104.117 241.676H70.9297V243.202H104.763L115.554 268.742H117.267L95.1543 216.414H93.442Z" fill="#364F6B"/>
<path d="M206.273 241.676H173.047L183.722 216.415H182.011L159.898 268.742H161.609L172.402 243.203H206.273V241.676Z" fill="#364F6B"/>
<path d="M163.5 204.399L162.916 218.565L148.359 221.108C148.874 220.429 149.348 219.758 149.786 219.105C154.309 212.34 154.887 207.092 154.887 207.092L158.069 206.098L163.5 204.399Z" fill="#194866"/>
<path d="M149.688 219.25C149.72 219.201 149.752 219.152 149.785 219.105C152.74 217.556 154.987 215.885 155.928 214.168C156.054 213.94 156.19 213.601 156.33 213.18C157.031 213.285 158.1 213.44 159.398 213.61C158.307 216.39 157.265 217.853 157.265 217.853C155.567 218.118 152.88 218.574 149.688 219.25Z" fill="#153B54"/>
<path d="M140.844 259.139C140.844 259.139 144.839 262.99 155.824 260.11L150.706 255.252L142.306 257.438L140.844 259.139Z" fill="#1A1A1A"/>
<path d="M111.836 253.378C111.836 253.378 116.062 260.509 126.922 260.561L124.247 250.724H117.185L111.836 253.378Z" fill="#1A1A1A"/>
<path d="M124.022 256.398C120.758 258.479 119.635 261.551 119.635 261.551L116.452 262.621L115.917 262.8L114.445 259.417C115.632 258.216 116.345 256.615 116.771 255.206C117.306 253.439 117.388 251.973 117.388 251.973L124.022 256.398Z" fill="#F9E0AE"/>
<path d="M172.11 215.209L168.116 221.801C168.116 221.801 160.02 225.773 152.29 229.396C150.096 230.424 147.932 231.425 145.991 232.299C142.573 233.836 139.848 234.982 138.869 235.196C135.373 235.959 133.663 237.242 133.663 237.242C127.778 242.969 126.922 260.561 126.922 260.561C119.218 252.442 111.836 253.379 111.836 253.379C111.836 253.379 113.669 249.114 116.222 243.953C119.832 236.649 124.881 227.55 128.206 226.208C138.365 221.05 152.902 218.519 157.662 217.794C158.666 217.64 159.235 217.568 159.235 217.568L172.11 215.209Z" fill="#1A1A1A"/>
<path d="M126.923 260.561C125.6 259.167 124.285 258.039 123.016 257.128C123.329 256.876 123.668 256.631 124.034 256.398L117.4 251.973C117.4 251.973 117.349 252.866 117.074 254.098C115.041 253.458 113.439 253.345 112.567 253.345C112.105 253.345 111.847 253.377 111.836 253.379C111.836 253.379 113.671 249.114 116.223 243.953C116.201 244.056 115.43 248.048 116.223 250.36C117.025 252.702 124.461 252.754 124.461 252.754C124.461 252.754 127.102 241.65 128.743 237.208C130.381 232.767 133.128 232.351 133.128 232.351C132.648 228.551 134.947 225.896 136.802 225.271C138.656 224.647 147.039 222.981 150.195 222.356C153.351 221.731 156.935 220.535 158.327 219.854C159.633 219.214 157.869 218.08 157.653 217.945C158.452 218.137 160.408 218.559 162.113 218.559C162.188 218.559 162.265 218.558 162.338 218.557C162.399 218.555 162.459 218.554 162.523 218.554C163.624 218.554 164.868 218.774 165.84 218.994C161.501 220.397 152.759 223.253 150.14 224.335C146.609 225.792 136.766 227.145 136.231 230.997C136.044 232.349 136.211 234.099 136.509 235.863C134.601 236.538 133.663 237.243 133.663 237.243C129.853 240.951 128.15 249.639 127.423 255.3C127.029 258.378 126.923 260.561 126.923 260.561Z" fill="#151515"/>
<path d="M149.019 257.229C148.412 259.935 148.341 263.892 148.341 263.892H143.991L143.468 259.912L143.117 257.229H149.019Z" fill="#F9E0AE"/>
<path d="M178.913 232.662C169.923 236.514 150.343 234.641 150.343 234.641C147.456 244.946 155.835 260.11 155.835 260.11C146.848 256.709 140.856 259.138 140.856 259.138C140.856 259.138 140.108 255.338 139.383 251.455C139.376 251.432 139.376 251.42 139.376 251.42C138.696 247.785 138.039 244.089 138.039 243.384C138.039 241.927 135.684 234.848 136.22 230.997C136.755 227.145 146.598 225.792 150.131 224.335C153.376 222.995 166.024 218.928 168.046 218.28C168.224 218.223 168.32 218.193 168.32 218.193L184.935 225.411C184.935 225.411 187.9 228.811 178.913 232.662Z" fill="#1A1A1A"/>
<path d="M133.183 201.207C133.183 201.207 131.614 202.646 131.328 206.013C131.043 209.379 130.899 212.446 132.148 213.238C133.397 214.028 136.784 204.347 136.784 204.347L133.183 201.207Z" fill="#16405A"/>
<path d="M125.203 212.263C125.469 212.839 125.757 213.324 125.757 213.324C125.757 213.324 125.667 214.261 125.184 214.154C124.7 214.047 124.188 213.148 124.188 213.148L124.145 213.056L123.023 210.704L123.02 209.588L123.016 208.542L125.07 208.769C125.07 208.769 124.681 210.107 124.767 210.953C124.779 211.069 124.806 211.197 124.845 211.332C124.927 211.629 125.062 211.958 125.203 212.263Z" fill="#FFD7B6"/>
<path d="M123.965 212.439C123.836 211.963 123.745 211.436 123.782 210.948C123.829 210.326 123.836 209.85 123.832 209.515C123.832 209.499 123.831 209.484 123.831 209.468C123.842 209.463 123.854 209.459 123.866 209.456C123.942 209.616 124.006 209.754 124.028 209.809C124.09 209.971 124.155 210.433 124.123 211.062C124.102 211.496 124.139 211.639 124.276 211.639C124.336 211.639 124.416 211.611 124.52 211.567C124.645 211.516 124.76 211.425 124.851 211.332C124.89 211.471 124.941 211.617 124.998 211.765C124.615 211.989 124.262 212.173 124.141 212.232C124.076 212.265 124.016 212.341 123.965 212.439Z" fill="#D1B095"/>
<path d="M123.793 208.923C123.793 208.923 123.818 209.119 123.824 209.516C123.828 209.85 123.822 210.327 123.774 210.949C123.67 212.307 124.561 213.962 124.516 213.995C124.469 214.027 124.557 215.165 123.986 214.902C123.698 214.77 123.364 214.219 123.105 213.705C122.848 213.197 122.662 212.724 122.662 212.724L121.805 210.349L123.793 208.923Z" fill="#FFD7B6"/>
<path d="M123.064 213.59C122.987 213.433 122.903 213.273 122.833 213.131C122.726 212.889 122.66 212.723 122.66 212.723L122.656 212.707C122.423 211.985 122.072 210.087 123.823 209.468C123.823 209.483 123.823 209.499 123.823 209.515C122.528 211.076 122.784 212.723 123.064 213.59Z" fill="#D1B095"/>
<path d="M134.894 209.67C134.676 209.714 133.59 209.638 132.435 209.563C131.114 209.477 129.704 209.39 129.401 209.483C128.833 209.656 128.061 211.201 127.013 212.2C125.965 213.2 124.142 213.345 123.919 213.268C123.695 213.191 123.874 212.36 124.132 212.232C124.39 212.105 125.711 211.41 126.118 210.971C126.384 210.683 126.223 209.831 125.505 209.466C125.164 209.291 124.697 209.227 124.09 209.386C124.021 209.404 123.953 209.424 123.88 209.447C121.83 210.123 122.548 212.498 122.735 212.925C122.923 213.353 123.405 214.151 123.326 214.369C123.247 214.588 123.074 215.441 122.983 215.469C122.893 215.496 122.554 215.447 122.554 215.447C121.857 215.143 121.143 211.158 120.98 210.577C120.819 209.997 122.455 208.429 123.324 207.8C124.193 207.17 128.065 206.35 128.065 206.35C128.065 206.35 129.317 206.211 129.859 206.118C130.401 206.023 134.146 204.807 134.146 204.807C135.027 205.605 135.361 209.576 134.894 209.67Z" fill="#FFD7B6"/>
<path d="M164.514 192.687L164.835 207.97C164.835 207.97 153.654 209.708 147.181 210.629C140.709 211.551 132.148 213.237 132.148 213.237C135.306 206.304 133.183 201.207 133.183 201.207C133.183 201.207 138.725 201.123 142.927 201.047C145.093 201.008 146.903 200.97 147.414 200.947C148.911 200.877 151.336 196.887 152.3 196.296C153.262 195.707 162.107 186.06 163.499 185.158C164.888 184.256 165.718 184.209 165.718 184.209L164.514 192.687Z" fill="#0494EF"/>
<path d="M132.148 213.237C133.492 210.285 133.879 207.665 133.881 205.631C133.881 202.887 133.183 201.207 133.183 201.207C133.183 201.207 138.725 201.123 142.927 201.047C142.356 201.344 141.669 201.616 140.848 201.814C137.563 202.603 137.499 207.089 138.569 208.332C138.809 208.613 139.201 208.725 139.688 208.725C141.352 208.725 144.133 207.411 145.844 207.092C148.055 206.679 151.1 206.461 155.057 205.405C157.265 204.815 157.833 201.207 157.833 201.207C160.619 186.025 165.718 184.209 165.718 184.209L165.157 184.88C163.177 187.014 162.321 192.063 161.786 202.161C161.751 202.838 161.7 203.495 161.634 204.13C159.745 203.501 158.234 202.903 158.203 202.89L158.201 202.889C158.201 202.889 157.221 203.063 155.938 206.047C155.79 206.388 155.667 206.739 155.561 207.093C153.76 207.099 151.807 207.143 151.087 207.296C149.625 207.608 146.844 209.239 145.736 209.76C145.197 210.015 144.023 210.644 142.891 211.268C142.891 211.268 142.808 211.291 142.662 211.332C138.294 212.057 134.04 212.87 132.633 213.143C132.322 213.203 132.151 213.236 132.148 213.237Z" fill="#0379C4"/>
<path d="M155.83 260.11C153.205 259.116 150.835 258.621 148.793 258.416C148.858 258.005 148.932 257.605 149.017 257.229H143.116L143.287 258.539C141.745 258.782 140.883 259.125 140.85 259.138C140.85 259.138 140.101 255.338 139.375 251.455C139.444 251.764 139.995 253.994 142.064 255.252C142.494 255.515 143.049 255.62 143.664 255.62C146.21 255.62 149.767 253.794 149.767 253.794C145.764 247.836 146.129 239.054 146.786 233.99C147.057 231.916 148.869 230.38 150.985 230.38C151.089 230.38 151.193 230.384 151.3 230.391C154 230.586 157.672 230.744 161.342 230.744C168.785 230.744 176.222 230.093 175.517 227.769C174.233 223.536 166.173 219.854 166.173 219.854C166.173 219.854 166.235 219.801 166.346 219.706C166.445 219.74 166.586 219.788 166.769 219.854C168.825 220.592 175.912 223.426 183.718 229.833C182.733 230.713 181.214 231.673 178.904 232.662C178.171 232.977 177.366 233.253 176.509 233.495C175.896 233.668 175.258 233.823 174.599 233.962C170.429 234.844 165.398 235.096 161.002 235.096C155.096 235.096 150.338 234.641 150.338 234.641C149.91 236.16 149.73 237.785 149.732 239.452C149.739 249.089 155.83 260.11 155.83 260.11Z" fill="#151515"/>
<path d="M165.888 184.787C165.888 184.787 166.269 186.268 167.482 186.546C168.692 186.823 173.521 182.972 173.521 182.972L174.251 185.088L167.511 219.441C167.511 219.441 164.567 218.505 162.322 218.557C160.074 218.609 157.266 217.853 157.266 217.853C157.266 217.853 161.251 212.259 161.788 202.161C162.322 192.063 163.176 187.014 165.155 184.88L165.719 184.21L165.888 184.787Z" fill="white"/>
<path d="M186.609 232.351C177.724 224.151 169.075 220.682 166.768 219.854C166.379 219.715 166.172 219.65 166.172 219.65C166.172 219.65 170.594 195.776 171.165 192.722C171.736 189.668 173.519 182.972 173.519 182.972C178.512 184.759 182.079 191.057 182.079 191.057C182.079 191.057 182.79 199.355 183.459 207.214C183.738 210.489 184.008 213.688 184.221 216.179C184.933 224.647 186.609 232.351 186.609 232.351Z" fill="#194866"/>
<path d="M158.193 202.89C158.193 202.89 157.212 203.063 155.929 206.047C154.644 209.032 155.037 212.78 155.41 213.04C155.786 213.3 160.6 208.858 160.6 208.858L158.193 202.89Z" fill="#16405A"/>
<path d="M166.768 219.854C166.38 219.715 166.172 219.65 166.172 219.65C166.172 219.65 166.567 217.516 167.135 214.442C169.093 214.597 171.057 214.699 172.822 214.699C176.166 214.699 178.795 214.331 179.297 213.247C180.489 210.682 181.802 204.072 182.717 198.509C182.941 201.151 183.202 204.214 183.458 207.214C183.045 209.548 182.698 211.631 182.506 213.05C181.762 218.517 181.145 219.799 178.47 219.799C178.324 219.799 178.172 219.795 178.012 219.789C175.905 219.693 173.779 218.418 171.251 218.418C170.098 218.418 168.864 218.682 167.507 219.441C167.256 219.583 167.008 219.721 166.768 219.854ZM168.801 205.458C169.867 199.711 170.907 194.099 171.165 192.723C171.736 189.668 173.518 182.972 173.518 182.972C175.064 183.524 176.471 184.509 177.679 185.605C177.659 185.606 177.64 185.607 177.619 185.609C176.914 185.663 176.39 185.873 176.006 186.126C175.281 186.6 175.052 187.222 175.052 187.222C172.804 191.022 170.504 204.087 169.007 205.335C168.949 205.383 168.88 205.424 168.801 205.458Z" fill="#153B54"/>
<path d="M183.455 193.676C182.653 199.454 180.873 209.864 179.303 213.248C177.733 216.631 155.422 213.04 155.422 213.04C155.422 213.04 158.312 208.563 158.203 202.89C158.203 202.89 161.931 204.371 165.05 205.139C166.859 205.587 168.461 205.795 169.01 205.336C170.508 204.087 172.81 191.023 175.056 187.222C175.056 187.222 175.285 186.6 176.01 186.126C176.394 185.873 176.92 185.663 177.624 185.609C179.657 185.453 184.258 187.9 183.455 193.676Z" fill="#0494EF"/>
<path d="M172.826 214.699C166.047 214.699 156.333 213.185 155.482 213.05C155.445 213.044 155.426 213.041 155.422 213.04C155.422 213.04 155.806 212.444 156.289 211.413C156.765 211.504 157.079 211.565 157.079 211.565C157.079 211.565 159.088 209.008 159.111 207.123C159.111 207.123 158.57 207.112 157.763 207.103C158.029 205.909 158.207 204.588 158.205 203.188C158.205 203.089 158.205 202.989 158.202 202.89C158.202 202.89 161.93 204.37 165.048 205.139C164.498 205.233 163.874 205.32 163.178 205.388C160.021 205.7 160.717 209.708 160.985 211.032C161.11 211.645 161.993 211.785 163.125 211.785C163.601 211.785 164.121 211.761 164.646 211.736C165.171 211.712 165.7 211.686 166.197 211.686C166.569 211.686 166.923 211.701 167.244 211.738C167.741 211.798 168.469 211.827 169.308 211.827C172.162 211.827 176.302 211.485 177.088 210.801C178.105 209.916 181.743 193.52 180.619 189.721C179.605 186.29 176.662 186.124 176.101 186.124C176.041 186.124 176.008 186.126 176.008 186.126C176.394 185.873 176.917 185.663 177.622 185.609C177.684 185.604 177.746 185.602 177.811 185.602C179.753 185.602 183.541 187.683 183.548 192.36C183.548 192.778 183.518 193.217 183.453 193.676C182.651 199.454 180.874 209.864 179.3 213.248C178.798 214.331 176.168 214.699 172.826 214.699Z" fill="#0379C4"/>
<path d="M142.891 211.268L142.512 211.718L141.951 212.385L141.541 212.872C141.541 212.872 141.427 212.897 141.25 212.933C140.846 213.017 140.108 213.161 139.613 213.216C139.446 213.234 139.308 213.242 139.219 213.234C139.184 213.232 139.157 213.226 139.139 213.219C138.854 213.103 138.805 212.894 138.805 212.894C139.234 212.271 142.891 211.268 142.891 211.268Z" fill="#F9E0AE"/>
<path d="M139.293 213.237C139.262 213.237 139.236 213.236 139.211 213.234C139.698 212.901 140.963 212.099 141.927 211.8C141.133 212.245 140.473 212.625 140.237 212.779C139.811 213.056 139.659 213.149 139.608 213.215C139.484 213.229 139.375 213.237 139.293 213.237Z" fill="#CCB88F"/>
<path d="M159.112 207.124C159.088 209.009 157.08 211.565 157.08 211.565C157.08 211.565 152.621 210.697 151.677 210.63C150.732 210.563 148.804 211.219 147.825 211.583C146.844 211.948 145.435 214.098 144.827 214.081C144.494 214.071 144.497 213.775 144.566 213.513C144.618 213.309 144.713 213.126 144.721 213.11V213.109C144.721 213.109 142.992 214.168 142.385 214.168C142.063 214.168 141.816 214.01 141.657 213.863C141.514 213.734 141.44 213.613 141.44 213.613L140.941 213.769C140.593 213.862 140.314 213.836 140.1 213.761C139.757 213.64 139.586 213.392 139.586 213.318C139.586 213.277 139.588 213.25 139.614 213.216C139.668 213.15 139.817 213.057 140.245 212.78C140.481 212.626 141.14 212.246 141.935 211.801C142.238 211.63 142.564 211.449 142.893 211.268C144.023 210.644 145.197 210.016 145.737 209.761C146.844 209.24 149.625 207.609 151.086 207.297C152.55 206.984 159.112 207.124 159.112 207.124Z" fill="#FFD7B6"/>
<path d="M141.653 213.864C141.51 213.734 141.438 213.613 141.438 213.613L143.805 212.485C143.805 212.485 142.556 213.445 141.653 213.864Z" fill="#D1B095"/>
<path d="M144.57 213.513C144.624 213.309 144.72 213.126 144.726 213.11V213.108L145.574 212.606L144.57 213.513Z" fill="#D1B095"/>
<path d="M148.336 263.892H146.739C147.177 262.265 147.721 259.722 147.06 259.486C146.418 259.221 145.866 259.114 145.39 259.114C144.5 259.114 143.879 259.489 143.462 259.912L143.281 258.538C144.139 258.402 145.205 258.298 146.454 258.298C147.173 258.298 147.954 258.332 148.789 258.416C148.388 260.959 148.336 263.892 148.336 263.892Z" fill="#CCB88F"/>
<path d="M143.289 258.539L143.117 257.229H149.019C148.935 257.605 148.859 258.005 148.796 258.416C147.961 258.332 147.18 258.298 146.462 258.298C145.212 258.298 144.146 258.403 143.289 258.539Z" fill="#111111"/>
<path d="M149.012 269.549C148.254 269.683 137.844 270.818 134.353 268.874C134.225 268.803 134.105 268.727 133.996 268.647C133.996 268.647 133.034 267.849 133.318 267.467C133.604 267.086 135.422 266.322 138.633 265.42C141.842 264.517 142.855 264.208 143.829 262.715C143.829 262.715 145.632 264.2 148.391 262.433C148.391 262.433 148.147 264.195 149.104 266.185C149.279 266.55 149.496 266.922 149.761 267.294C149.761 267.294 149.796 269.41 149.012 269.549Z" fill="#1A1A1A"/>
<path d="M149.018 269.549C148.26 269.683 137.85 270.818 134.359 268.874C136.96 268.801 143.725 268.395 149.11 266.185C149.285 266.55 149.502 266.922 149.767 267.294C149.767 267.294 149.802 269.41 149.018 269.549Z" fill="#FEE2B3"/>
<path d="M116.445 262.62C117.778 259.616 120.979 257.386 120.979 257.386C119.623 255.846 117.912 255.353 116.763 255.206C116.88 254.817 116.977 254.444 117.054 254.098C118.783 254.642 120.823 255.567 122.998 257.128C121.96 257.964 121.202 258.873 120.67 259.649C119.927 260.73 119.629 261.55 119.629 261.55L116.445 262.62Z" fill="#CCB88F"/>
<path d="M122.998 257.128C120.824 255.567 118.783 254.642 117.055 254.098C117.331 252.866 117.382 251.973 117.382 251.973L124.016 256.398C123.65 256.631 123.311 256.876 122.998 257.128Z" fill="#111111"/>
<path d="M120.817 265.593C119.936 265.902 108.479 270.15 106.817 269.57C106.798 269.563 106.782 269.556 106.765 269.549C105.303 268.855 105.268 268.786 105.196 268.369C105.124 267.952 110.404 264.83 114.451 259.416C114.451 259.416 116.028 261.374 120.044 260.69C120.044 260.69 120.277 261.608 120.873 262.556C121.038 262.821 121.233 263.087 121.46 263.337C122.494 264.482 121.71 265.28 120.817 265.593Z" fill="#1A1A1A"/>
<path d="M120.813 265.593C119.931 265.902 108.474 270.15 106.812 269.57C109.77 268.555 117.038 265.849 120.869 262.556C121.033 262.821 121.229 263.087 121.455 263.337C122.49 264.482 121.705 265.28 120.813 265.593Z" fill="#FEE2B3"/>
<path d="M60.712 268.742H59L81.1125 216.414H82.8246L60.712 268.742Z" fill="#364F6B"/>
<path d="M216.424 268.742H218.137L196.026 216.414H194.312L216.424 268.742Z" fill="#364F6B"/>
<path d="M211.484 215.478H65.8427C65.1457 215.478 64.5781 216.029 64.5781 216.709V218.087C64.5781 220.31 66.4302 222.113 68.7155 222.113H208.452C210.737 222.113 212.589 220.31 212.589 218.087V216.553C212.589 215.959 212.094 215.478 211.484 215.478Z" fill="white"/>
<path d="M148.781 213.704H137.541C137.265 213.704 137.039 213.922 137.039 214.191V215.477H150.603C150.603 214.498 149.787 213.704 148.781 213.704Z" fill="#364F6B"/>
<path d="M128.968 215.477H121.11H119.867C119.867 214.293 120.982 213.334 122.355 213.334H126.48C127.854 213.334 128.968 214.293 128.968 215.477Z" fill="#364F6B"/>
<path d="M124.664 213.653H122.219V213.29C122.219 213.191 122.301 213.11 122.404 213.11H124.479C124.58 213.11 124.664 213.191 124.664 213.29V213.653Z" fill="#364F6B"/>
<path d="M123.782 166.791H67.2652C64.6986 166.791 63.2745 168.845 64.0885 171.378L72.7474 198.363C73.5594 200.896 76.2995 202.95 78.8681 202.95H135.383C137.952 202.95 139.374 200.896 138.562 198.363L129.903 171.378C129.089 168.845 126.349 166.791 123.782 166.791Z" fill="#E1E1E1"/>
<path d="M123.782 166.791H67.2652C64.6986 166.791 63.2745 168.845 64.0885 171.378L72.7474 198.363C73.5594 200.896 76.2995 202.95 78.8681 202.95H135.383C137.952 202.95 139.374 200.896 138.562 198.363L129.903 171.378C129.089 168.845 126.349 166.791 123.782 166.791Z" fill="#C7C7C7"/>
<path d="M78.7371 202.546C76.4024 202.546 73.9027 200.669 73.1632 198.363L64.5048 171.379C63.7653 169.073 65.061 167.196 67.3957 167.196H123.911C126.246 167.196 128.748 169.073 129.485 171.379L138.146 198.363C138.885 200.669 137.587 202.546 135.255 202.546H78.7371Z" fill="#364F6B"/>
<path d="M114.25 197H111.628L111.328 196.063H113.95L114.25 197Z" fill="#243B4F"/>
<path d="M118.188 197H115.567L115.266 196.062H117.888L118.188 197Z" fill="#243B4F"/>
<path d="M122.118 197H119.497L119.195 196.063H121.816L122.118 197Z" fill="#243B4F"/>
<path d="M92.1047 213.57L92.0294 213.704H105.276V215.478H72.3906V213.704H85.4593L85.5364 213.57L87.0546 210.863L91.4952 202.951L91.7247 202.546L97.4137 192.481H95.2732L95.8019 191.083H106.044L105.513 192.481H103.984L98.2949 202.546L98.0654 202.951L93.6247 210.863L92.1047 213.57Z" fill="#364F6B"/>
<path d="M92.0216 213.704H85.4531L85.5288 213.57L87.0473 210.862H93.6175L92.099 213.57L92.0216 213.704Z" fill="#2C4158"/>
<path d="M104.161 182.669C105.184 185.428 103.716 187.666 100.879 187.666C98.0416 187.666 94.9133 185.428 93.8882 182.669C92.8649 179.909 94.333 177.672 97.1703 177.672C100.006 177.672 103.136 179.909 104.161 182.669Z" fill="#243B4F"/>
<path d="M85.3052 168.33H84.5078V167.555H85.3052V168.33Z" fill="#243B4F"/>
<path d="M85.3052 162.906H84.5078V161.833H85.3052V162.906ZM85.3052 165.767H84.5078V164.694H85.3052V165.767Z" fill="#243B4F"/>
<path d="M85.3052 154.324H84.5078V153.252H85.3052V154.324ZM85.3052 157.185H84.5078V156.113H85.3052V157.185ZM85.3052 160.046H84.5078V158.973H85.3052V160.046Z" fill="#243B4F"/>
<path d="M85.3118 151.463H84.5144V151.075H84.1172V150.301H85.3118V151.463Z" fill="#243B4F"/>
<path d="M77.8385 151.076H76.3906V150.301H77.8385V151.076ZM81.7016 151.076H80.2537V150.301H81.7016V151.076Z" fill="#243B4F"/>
<path d="M191.484 92.6738C192.002 85.8675 197.841 80.5019 204.97 80.5019C210.626 80.5019 215.474 83.8841 217.489 88.6832H200.339C200.068 88.6832 199.783 88.7508 199.512 88.8787L191.484 92.6738Z" fill="#C0C6CC"/>
<path d="M189.994 93.1831C189.159 93.1831 188.57 92.5327 188.813 91.629L189.599 88.6828L190.188 86.4773L194.338 70.9326C194.567 70.0759 195.468 69.3814 196.346 69.3814H223.485C224.363 69.3814 224.893 70.0759 224.663 70.9326L220.339 87.1325C220.109 87.9886 219.212 88.6828 218.33 88.6828H217.482C215.468 83.8836 210.62 80.5018 204.963 80.5018C197.836 80.5018 191.997 85.8672 191.479 92.6734L190.818 92.9848C190.532 93.121 190.251 93.1831 189.994 93.1831Z" fill="#9AB2C3"/>
<path d="M220.187 66.2049H193.05C192.169 66.2049 191.27 66.8992 191.043 67.7551L186.891 83.3008L186.303 85.5061L185.515 88.4526C185.201 89.6355 186.306 90.3828 187.522 89.8084L196.208 85.7016C196.478 85.5738 196.763 85.5061 197.036 85.5061H215.033C215.913 85.5061 216.813 84.8118 217.04 83.9549L221.368 67.7551C221.596 66.8992 221.067 66.2049 220.187 66.2049Z" fill="#16405A"/>
<path d="M214.723 61.9999H187.588C186.708 61.9999 185.809 62.6943 185.579 63.5513L181.43 79.0961L180.839 81.3013L180.055 84.2475C179.737 85.4309 180.844 86.178 182.061 85.6034L190.747 81.4968C191.017 81.369 191.303 81.3013 191.573 81.3013H209.572C210.452 81.3013 211.351 80.607 211.578 79.7511L215.906 63.5513C216.133 62.6943 215.606 61.9999 214.723 61.9999Z" fill="#0494EF"/>
<path d="M201.033 68.8416H187.844L188.141 67.7343H201.327L201.033 68.8416Z" fill="white"/>
<path d="M209.896 72.2834H186.938L187.233 71.1753H210.192L209.896 72.2834Z" fill="white"/>
<path d="M205.707 75.7239H186.016L186.311 74.6156H206.002L205.707 75.7239Z" fill="white"/>
<path d="M77.9423 77.2166H77V76.0001H77.9423V77.2166ZM77.9423 82.1039H77V80.2703H77.9423V82.1039ZM77.9423 86.993H77V85.1611H77.9423V86.993ZM77.9423 91.8821H77V90.0484H77.9423V91.8821ZM77.9423 96.7712H77V94.9375H77.9423V96.7712ZM77.9423 101.66H77V99.8266H77.9423V101.66ZM77.9423 106.549H77V104.716H77.9423V106.549ZM77.9423 111.438H77V109.605H77.9423V111.438ZM77.9423 116.327H77V114.493H77.9423V116.327ZM77.9423 121.215H77V119.382H77.9423V121.215Z" fill="#243B4F"/>
<path d="M76.9988 110.942L76.9988 110L78.2153 110L78.2153 110.942L76.9988 110.942ZM72.1115 110.942L72.1115 110L73.9451 110L73.9451 110.942L72.1115 110.942ZM67.2224 110.942L67.2224 110L69.0542 110L69.0542 110.942L67.2224 110.942ZM62.3333 110.942L62.3333 110L64.1669 110L64.1669 110.942L62.3333 110.942ZM57.4442 110.942L57.4442 110L59.2778 110L59.2778 110.942L57.4442 110.942ZM52.5551 110.942L52.5551 110L54.3887 110L54.3887 110.942L52.5551 110.942ZM47.6667 110.942L47.6667 110L49.4996 110L49.4996 110.942L47.6667 110.942ZM42.7771 110.942L42.7771 110L44.6107 110L44.6107 110.942L42.7771 110.942ZM37.8886 110.942L37.8886 110L39.7222 110L39.7222 110.942L37.8886 110.942ZM33 110.942L33 110L34.8336 110L34.8336 110.942L33 110.942Z" fill="#243B4F"/>
<path d="M66.9988 110.942L66.9988 110L68.2153 110L68.2153 110.942L66.9988 110.942ZM62.1115 110.942L62.1115 110L63.9451 110L63.9451 110.942L62.1115 110.942ZM57.2224 110.942L57.2224 110L59.0542 110L59.0542 110.942L57.2224 110.942ZM52.3333 110.942L52.3333 110L54.1669 110L54.1669 110.942L52.3333 110.942ZM47.4442 110.942L47.4442 110L49.2778 110L49.2778 110.942L47.4442 110.942ZM42.5551 110.942L42.5551 110L44.3887 110L44.3887 110.942L42.5551 110.942ZM37.6667 110.942L37.6667 110L39.4996 110L39.4996 110.942L37.6667 110.942ZM32.7771 110.942L32.7771 110L34.6107 110L34.6107 110.942L32.7771 110.942ZM27.8886 110.942L27.8886 110L29.7222 110L29.7222 110.942L27.8886 110.942ZM23 110.942L23 110L24.8336 110L24.8336 110.942L23 110.942Z" fill="#243B4F"/>
<path d="M23.003 106.999L23.9453 106.999L23.9453 108.215L23.003 108.215L23.003 106.999ZM23.003 102.111L23.9453 102.111L23.9453 103.945L23.003 103.945L23.003 102.111ZM23.003 97.2224L23.9453 97.2224L23.9453 99.0542L23.003 99.0542L23.003 97.2224ZM23.003 92.3333L23.9453 92.3333L23.9453 94.1669L23.003 94.1669L23.003 92.3333ZM23.003 87.4442L23.9453 87.4442L23.9453 89.2778L23.003 89.2778L23.003 87.4442ZM23.003 82.5551L23.9453 82.5551L23.9453 84.3887L23.003 84.3887L23.003 82.5551ZM23.003 77.6667L23.9453 77.6667L23.9453 79.4996L23.003 79.4996L23.003 77.6667ZM23.003 72.7771L23.9453 72.7771L23.9453 74.6107L23.003 74.6107L23.003 72.7771ZM23.003 67.8886L23.9453 67.8886L23.9453 69.7222L23.003 69.7222L23.003 67.8886ZM23.003 63L23.9453 63L23.9453 64.8336L23.003 64.8336L23.003 63Z" fill="#243B4F"/>
<path d="M78 34.0762H77V33H78V34.0762ZM78 38.3998H77V36.7777H78V38.3998ZM78 42.725H77V41.1044H78V42.725ZM78 47.0501H77V45.428H78V47.0501ZM78 51.3753H77V49.7531H78V51.3753ZM78 55.7004H77V54.0783H78V55.7004ZM78 60.025H77V58.4035H78V60.025ZM78 64.3506H77V62.7285H78V64.3506ZM78 68.6753H77V67.0532H78V68.6753ZM78 73H77V71.3779H78V73Z" fill="#243B4F"/>
<path d="M43.8361 128.917H41.953V128H43.8361V128.917ZM48.8607 128.917H46.9776V128H48.8607V128.917ZM53.8853 128.917H52.0021V128H53.8853V128.917ZM58.9098 128.917H57.0267V128H58.9098V128.917ZM63.9344 128.917H62.0513V128H63.9344V128.917ZM68.9607 128.917H67.0759V128H68.9607V128.917ZM73.9853 128.917H72.1004V128H73.9853V128.917ZM79.0099 128.917H77.125V128H79.0099V128.917ZM38.9424 129.96H38V128H38.8115V128.459H38.9424V129.96ZM38.9424 134.849H38V133.016H38.9424V134.849ZM38.9424 139.738H38V137.905H38.9424V139.738ZM38.9424 144.626H38V142.794H38.9424V144.626ZM38.9424 149.516H38V147.682H38.9424V149.516ZM38.9424 154.404H38V152.571H38.9424V154.404Z" fill="#243B4F"/>
<path d="M107.154 107.916H105.271V107H107.154V107.916ZM112.18 107.916H110.295V107H112.18V107.916ZM117.204 107.916H115.321V107H117.204V107.916ZM122.23 107.916H120.345V107H122.23V107.916ZM127.253 107.916H125.371V107H127.253V107.916ZM132.279 107.916H130.394V107H132.279V107.916ZM137.303 107.916H135.418V107H137.303V107.916ZM142.329 107.916H140.444V107H142.329V107.916ZM147.353 107.916H145.47V107H147.353V107.916ZM101.944 108.651H101V107H102.13V107.916H101.944V108.651ZM101.944 113.539H101V111.707H101.944V113.539ZM101.944 118.429H101V116.595H101.944V118.429ZM101.944 123.318H101V121.484H101.944V123.318ZM101.944 128.206H101V126.373H101.944V128.206Z" fill="#243B4F"/>
<path d="M103.66 66.9173H101.779V65.9999H103.66V66.9173ZM108.687 66.9173H106.801V65.9999H108.687V66.9173ZM113.712 66.9173H111.826V65.9999H113.712V66.9173ZM118.736 66.9173H116.851V65.9999H118.736V66.9173ZM123.761 66.9173H121.877V65.9999H123.761V66.9173ZM128.786 66.9173H126.902V65.9999H128.786V66.9173ZM133.811 66.9173H131.927V65.9999H133.811V66.9173ZM101.943 71.0504H101V69.2176H101.943V71.0504ZM101.943 75.9399H101V74.1063H101.943V75.9399ZM101.943 80.8284H101V78.9949H101.943V80.8284ZM101.943 85.7171H101V83.8836H101.943V85.7171ZM101.943 90.6057H101V88.7731H101.943V90.6057ZM101.943 95.4952H101V93.6616H101.943V95.4952ZM101.943 100.384H101V98.5502H101.943V100.384ZM101.943 105.272H101V103.439H101.943V105.272Z" fill="#243B4F"/>
<rect x="129" y="52" width="25" height="25" rx="2" fill="white"/>
<path d="M136.034 70.4286L134.938 57.0249L148.036 57.0518L146.876 70.4286L141.536 71.9748L136.034 70.4286Z" fill="#E34F26"/>
<path d="M141.539 70.6804V58.3015L146.933 58.3195L145.971 69.3948L141.539 70.6804Z" fill="#EF652A"/>
<path d="M145.449 61.3943L145.602 59.7581H137.305L137.763 64.7744H143.49L143.265 66.9139L141.431 67.4082L139.57 66.8689L139.471 65.5924H137.826L138.051 68.1994L141.431 69.1433L144.838 68.1994L145.296 63.1113H139.282L139.112 61.3943H145.449Z" fill="white"/>
<rect x="67" y="18" width="25" height="25" rx="2" fill="white"/>
<path d="M74.6563 23.189H84.3437C85.8125 23.189 87 24.3765 87 25.8452V35.1577C87 36.6265 85.8125 37.814 84.3437 37.814H74.6563C73.1875 37.814 72 36.6265 72 35.1577V25.8452C72 24.3765 73.1875 23.189 74.6563 23.189Z" fill="#001E36"/>
<path d="M75.375 33.4455V27.0142C75.375 26.9705 75.3937 26.9455 75.4375 26.9455C75.5437 26.9455 75.6437 26.9455 75.7875 26.9392C75.9375 26.933 76.0937 26.933 76.2625 26.9267C76.4312 26.9205 76.6125 26.9205 76.8062 26.9142C77 26.908 77.1875 26.908 77.375 26.908C77.8875 26.908 78.3125 26.9705 78.6625 27.1017C78.975 27.208 79.2625 27.383 79.5 27.6142C79.7 27.8142 79.8562 28.058 79.9562 28.3267C80.05 28.5892 80.1 28.858 80.1 29.1392C80.1 29.6767 79.975 30.1205 79.725 30.4705C79.475 30.8205 79.125 31.083 78.7187 31.233C78.2938 31.3892 77.825 31.4455 77.3125 31.4455C77.1625 31.4455 77.0625 31.4455 77 31.4392C76.9375 31.433 76.85 31.433 76.7312 31.433V33.4392C76.7375 33.483 76.7062 33.5205 76.6625 33.5267H75.45C75.4 33.5267 75.375 33.5017 75.375 33.4455ZM76.7375 28.1517V30.2517C76.825 30.258 76.9063 30.2642 76.9813 30.2642H77.3125C77.5562 30.2642 77.8 30.2267 78.0313 30.1517C78.2312 30.0955 78.4063 29.9767 78.5438 29.8205C78.675 29.6642 78.7375 29.4517 78.7375 29.1767C78.7438 28.983 78.6937 28.7892 78.5938 28.6205C78.4875 28.458 78.3375 28.333 78.1562 28.2642C77.925 28.1705 77.675 28.133 77.4187 28.1392C77.2562 28.1392 77.1125 28.1392 76.9937 28.1455C76.8688 28.1392 76.7813 28.1455 76.7375 28.1517ZM84 29.8705C83.8125 29.7705 83.6125 29.7017 83.4 29.658C83.1688 29.608 82.9375 29.5767 82.7 29.5767C82.575 29.5705 82.4437 29.5892 82.325 29.6205C82.2437 29.6392 82.175 29.683 82.1312 29.7455C82.1 29.7955 82.0813 29.858 82.0813 29.9142C82.0813 29.9705 82.1062 30.0267 82.1437 30.0767C82.2 30.1455 82.275 30.2017 82.3562 30.2455C82.5 30.3205 82.65 30.3892 82.8 30.4517C83.1375 30.5642 83.4625 30.7205 83.7625 30.908C83.9687 31.0392 84.1375 31.2142 84.2563 31.4267C84.3562 31.6267 84.4063 31.8455 84.4 32.0705C84.4063 32.3642 84.3187 32.658 84.1562 32.9017C83.9812 33.1517 83.7375 33.3455 83.4562 33.458C83.15 33.5892 82.775 33.658 82.325 33.658C82.0375 33.658 81.7562 33.633 81.475 33.5767C81.2563 33.5392 81.0375 33.4705 80.8375 33.3767C80.7938 33.3517 80.7625 33.308 80.7688 33.258V32.1705C80.7688 32.1517 80.775 32.1267 80.7938 32.1142C80.8125 32.1017 80.8313 32.108 80.85 32.1205C81.0938 32.2642 81.35 32.3642 81.625 32.4267C81.8625 32.4892 82.1125 32.5205 82.3625 32.5205C82.6 32.5205 82.7687 32.4892 82.8812 32.433C82.9813 32.3892 83.05 32.283 83.05 32.1705C83.05 32.083 83 32.0017 82.9 31.9205C82.8 31.8392 82.5938 31.7455 82.2875 31.6267C81.9688 31.5142 81.675 31.3642 81.4 31.1767C81.2063 31.0392 81.0437 30.858 80.925 30.6455C80.825 30.4455 80.775 30.2267 80.7812 30.008C80.7812 29.7392 80.8562 29.483 80.9938 29.2517C81.15 29.0017 81.3812 28.8017 81.65 28.6767C81.9437 28.5267 82.3125 28.458 82.7563 28.458C83.0125 28.458 83.275 28.4767 83.5312 28.5142C83.7188 28.5392 83.9 28.5892 84.0688 28.658C84.0938 28.6642 84.1187 28.6892 84.1312 28.7142C84.1375 28.7392 84.1438 28.7642 84.1438 28.7892V29.808C84.1438 29.833 84.1312 29.858 84.1125 29.8705C84.0562 29.883 84.025 29.883 84 29.8705Z" fill="#31A8FF"/>
<rect x="142" y="93" width="25" height="25" rx="2" fill="white"/>
<path d="M149.656 98.189H159.344C160.813 98.189 162 99.3765 162 100.845V110.158C162 111.626 160.813 112.814 159.344 112.814H149.656C148.187 112.814 147 111.626 147 110.158V100.845C147 99.3765 148.187 98.189 149.656 98.189Z" fill="#470137"/>
<path d="M154.89 102.033L153.015 105.127L155.015 108.408C155.027 108.433 155.034 108.458 155.027 108.483C155.021 108.508 154.996 108.489 154.959 108.496H153.527C153.427 108.496 153.359 108.489 153.315 108.427C153.184 108.164 153.046 107.908 152.915 107.645C152.784 107.389 152.64 107.127 152.49 106.858C152.34 106.589 152.19 106.321 152.04 106.046H152.027C151.896 106.314 151.752 106.583 151.609 106.852C151.465 107.12 151.321 107.389 151.184 107.652C151.04 107.914 150.896 108.183 150.752 108.439C150.727 108.502 150.677 108.508 150.609 108.508H149.234C149.209 108.508 149.19 108.521 149.19 108.489C149.184 108.464 149.19 108.439 149.202 108.421L151.146 105.233L149.252 102.027C149.234 102.002 149.227 101.977 149.24 101.964C149.252 101.945 149.277 101.939 149.302 101.939H150.721C150.752 101.939 150.784 101.945 150.809 101.952C150.834 101.964 150.852 101.983 150.871 102.008C150.99 102.277 151.127 102.545 151.271 102.814C151.421 103.083 151.565 103.346 151.721 103.608C151.871 103.871 152.009 104.133 152.14 104.402H152.152C152.284 104.127 152.421 103.858 152.559 103.595C152.696 103.333 152.84 103.07 152.984 102.808C153.127 102.545 153.265 102.277 153.402 102.02C153.409 101.996 153.421 101.971 153.44 101.958C153.465 101.945 153.49 101.939 153.521 101.945H154.84C154.871 101.939 154.902 101.958 154.909 101.989C154.915 101.996 154.902 102.02 154.89 102.033ZM157.777 108.627C157.315 108.633 156.852 108.539 156.434 108.346C156.04 108.164 155.715 107.864 155.49 107.495C155.259 107.114 155.146 106.639 155.146 106.07C155.14 105.608 155.259 105.152 155.49 104.752C155.727 104.345 156.071 104.008 156.484 103.783C156.921 103.539 157.446 103.421 158.065 103.421C158.096 103.421 158.14 103.421 158.196 103.427C158.252 103.433 158.315 103.433 158.39 103.439V101.464C158.39 101.42 158.409 101.396 158.452 101.396H159.721C159.752 101.389 159.777 101.414 159.784 101.439V107.402C159.784 107.514 159.79 107.639 159.796 107.777C159.809 107.908 159.815 108.033 159.821 108.139C159.821 108.183 159.802 108.221 159.759 108.239C159.434 108.377 159.09 108.477 158.74 108.539C158.421 108.596 158.102 108.627 157.777 108.627ZM158.39 107.377V104.627C158.334 104.614 158.277 104.602 158.221 104.596C158.152 104.589 158.084 104.583 158.015 104.583C157.771 104.583 157.527 104.633 157.309 104.746C157.096 104.852 156.915 105.008 156.777 105.208C156.64 105.408 156.571 105.677 156.571 106.002C156.565 106.22 156.602 106.439 156.677 106.646C156.74 106.814 156.834 106.964 156.959 107.089C157.077 107.202 157.221 107.289 157.384 107.339C157.552 107.396 157.727 107.42 157.902 107.42C157.996 107.42 158.084 107.414 158.165 107.408C158.246 107.414 158.315 107.402 158.39 107.377Z" fill="#FF61F6"/>
<rect x="12" y="39" width="25" height="25" rx="2" fill="white"/>
<g clip-path="url(#clip1_941_5907)">
<path d="M21.9375 59.0002C23.3175 59.0002 24.4375 57.8802 24.4375 56.5002V54.0002H21.9375C20.5575 54.0002 19.4375 55.1202 19.4375 56.5002C19.4375 57.8802 20.5575 59.0002 21.9375 59.0002Z" fill="#0ACF83"/>
<path d="M19.4375 51.4997C19.4375 50.1197 20.5575 48.9998 21.9375 48.9998H24.4375V53.9998H21.9375C20.5575 53.9998 19.4375 52.8797 19.4375 51.4997Z" fill="#A259FF"/>
<path d="M19.4375 46.5C19.4375 45.12 20.5575 44 21.9375 44H24.4375V49H21.9375C20.5575 49 19.4375 47.88 19.4375 46.5Z" fill="#F24E1E"/>
<path d="M24.4375 44H26.9375C28.3175 44 29.4375 45.12 29.4375 46.5C29.4375 47.88 28.3175 49 26.9375 49H24.4375V44Z" fill="#FF7262"/>
<path d="M29.4375 51.4997C29.4375 52.8797 28.3175 53.9998 26.9375 53.9998C25.5575 53.9998 24.4375 52.8797 24.4375 51.4997C24.4375 50.1197 25.5575 48.9998 26.9375 48.9998C28.3175 48.9998 29.4375 50.1197 29.4375 51.4997Z" fill="#1ABCFE"/>
</g>
<rect x="27" y="154" width="25" height="25" rx="2" fill="white"/>
<path d="M34.0342 172.404L32.9375 159L46.0355 159.027L44.8758 172.404L39.5359 173.95L34.0342 172.404Z" fill="#E9CA32"/>
<path d="M39.5391 172.68V160.302L44.9329 160.319L43.971 171.395L39.5391 172.68Z" fill="#FFDE25"/>
<path d="M38.957 161.771H37.531V170.011L36.4219 169.799V168.69L35.1016 168.479V170.961L38.957 171.965V161.771ZM40.0267 161.771H43.9744L43.7103 163.351H41.5337V165.942H43.7103L43.4462 171.172L40.0267 171.965V170.327L42.3371 169.535L42.4706 167.37L40.0267 167.724V161.771Z" fill="white"/>
<path d="M128.231 118H78.9373C76.211 118 74 120.151 74 122.804V159.22C74 161.872 76.211 164.024 78.9373 164.024H128.231C130.957 164.024 133.168 161.872 133.168 159.22V122.804C133.168 120.151 130.957 118 128.231 118Z" fill="white"/>
<path d="M128.231 118H78.9373C76.211 118 74 120.151 74 122.804V124.507H133.168V122.804C133.168 120.151 130.957 118 128.231 118Z" fill="#364F6B"/>
<path d="M125.191 141.693H78.9453V128.47H125.191V141.693Z" fill="#0494EF"/>
<path d="M85.5396 150.025H78.9453V143.61H85.5396V150.025Z" fill="#FF3E0D"/>
<path d="M85.5396 158.358H78.9453V151.942H85.5396V158.358Z" fill="#FDD45B"/>
<path d="M102.054 144.447H88.9219V143.611H102.054V144.447Z" fill="#4E99FF"/>
<path d="M108.381 144.447H103.578V143.611H108.381V144.447Z" fill="#4E99FF"/>
<path d="M114.661 144.447H109.859V143.611H114.661V144.447Z" fill="#FDD45B"/>
<path d="M106.463 146.296H88.9219V145.46H106.463V146.296Z" fill="#FDD45B"/>
<path d="M125.174 146.296H107.633V145.46H125.174V146.296Z" fill="#FF3E0D"/>
<path d="M106.463 148.146H88.9219V147.31H106.463V148.146Z" fill="#4E99FF"/>
<path d="M125.174 148.146H107.633V147.31H125.174V148.146Z" fill="#FDD45B"/>
<path d="M102.054 153.719H88.9219V152.883H102.054V153.719Z" fill="#FF3E0D"/>
<path d="M108.381 153.719H103.578V152.883H108.381V153.719Z" fill="#4E99FF"/>
<path d="M114.661 153.719H109.859V152.883H114.661V153.719Z" fill="#4E99FF"/>
<path d="M106.463 155.569H88.9219V154.733H106.463V155.569Z" fill="#FDD45B"/>
<path d="M125.174 155.569H107.633V154.733H125.174V155.569Z" fill="#4E99FF"/>
<path d="M106.463 157.418H88.9219V156.582H106.463V157.418Z" fill="#FF3E0D"/>
<path d="M125.174 157.418H107.633V156.582H125.174V157.418Z" fill="#FDD45B"/>
<path d="M80.2825 121.253C80.2825 121.95 79.7012 122.516 78.985 122.516C78.2688 122.516 77.6875 121.95 77.6875 121.253C77.6875 120.556 78.2688 119.992 78.985 119.992C79.7012 119.992 80.2825 120.556 80.2825 121.253Z" fill="#FF3E0D"/>
<path d="M84.4396 121.253C84.4396 121.951 83.8579 122.517 83.1425 122.517C82.4255 122.517 81.8438 121.951 81.8438 121.253C81.8438 120.557 82.4255 119.993 83.1425 119.993C83.8579 119.993 84.4396 120.557 84.4396 121.253Z" fill="#FDD45B"/>
<path d="M88.6017 121.253C88.6017 121.95 88.0215 122.516 87.3056 122.516C86.588 122.516 86.0078 121.95 86.0078 121.253C86.0078 120.555 86.588 119.991 87.3056 119.991C88.0215 119.991 88.6017 120.555 88.6017 121.253Z" fill="#4E99FF"/>
<path d="M273.109 114H218.838C216.088 114 213.859 116.169 213.859 118.844V165.369C213.859 168.044 216.088 170.214 218.838 170.214H273.109C275.858 170.214 278.087 168.044 278.087 165.369V118.844C278.087 116.169 275.858 114 273.109 114Z" fill="white"/>
<path d="M273.109 114H218.838C216.088 114 213.859 116.169 213.859 118.844V121.423H278.087V118.844C278.087 116.169 275.858 114 273.109 114Z" fill="#16405A"/>
<path d="M221.405 117.711C221.405 118.597 220.668 119.314 219.759 119.314C218.847 119.314 218.109 118.597 218.109 117.711C218.109 116.827 218.847 116.109 219.759 116.109C220.668 116.109 221.405 116.827 221.405 117.711Z" fill="#FF3E0D"/>
<path d="M227.083 117.711C227.083 118.597 226.347 119.313 225.434 119.313C224.525 119.313 223.789 118.597 223.789 117.711C223.789 116.826 224.525 116.109 225.434 116.109C226.347 116.109 227.083 116.826 227.083 117.711Z" fill="#FDD45B"/>
<path d="M232.757 117.711C232.757 118.597 232.022 119.314 231.109 119.314C230.2 119.314 229.461 118.597 229.461 117.711C229.461 116.827 230.2 116.109 231.109 116.109C232.022 116.109 232.757 116.827 232.757 117.711Z" fill="#4E99FF"/>
<path d="M218.633 129.893H225.446V131.389H218.633V129.893Z" fill="#4E99FF"/>
<path d="M243.153 129.892V131.389H227.062V129.892H243.153Z" fill="#FDD45B"/>
<path d="M244.812 129.893H252.037V131.389H244.812V129.893Z" fill="#4E99FF"/>
<path d="M272.483 129.893V131.389H253.68V129.893H272.483Z" fill="#FF3E0D"/>
<path d="M234.315 134.476V135.973H218.633V134.476H234.315Z" fill="#FF3E0D"/>
<path d="M235.945 134.475H243.169V135.972H235.945V134.475Z" fill="#4E99FF"/>
<path d="M272.485 134.476V135.973H244.812V134.476H272.485Z" fill="#FDD45B"/>
<path d="M234.315 139.059V140.557H218.633V139.059H234.315Z" fill="#FF3E0D"/>
<path d="M252.038 139.059V140.557H235.945V139.059H252.038Z" fill="#FDD45B"/>
<path d="M272.483 139.059V140.557H253.68V139.059H272.483Z" fill="#FF3E0D"/>
<path d="M252.055 143.643V145.14H218.633V143.643H252.055Z" fill="#4E99FF"/>
<path d="M253.68 143.644H260.901V145.141H253.68V143.644Z" fill="#FDD45B"/>
<path d="M272.489 143.644V145.141H262.555V143.644H272.489Z" fill="#FF3E0D"/>
<path d="M234.315 148.227V149.723H218.633V148.227H234.315Z" fill="#FF3E0D"/>
<path d="M252.038 148.227V149.723H235.945V148.227H252.038Z" fill="#4E99FF"/>
<path d="M272.483 148.227V149.723H253.68V148.227H272.483Z" fill="#4E99FF"/>
<path d="M218.633 152.811H225.446V154.307H218.633V152.811Z" fill="#FDD45B"/>
<path d="M234.283 152.811V154.307H227.062V152.811H234.283Z" fill="#4E99FF"/>
<path d="M260.906 152.811V154.308H235.945V152.811H260.906Z" fill="#4E99FF"/>
<path d="M272.489 152.811V154.307H262.555V152.811H272.489Z" fill="#FF3E0D"/>
<path d="M218.633 157.394H225.446V158.89H218.633V157.394Z" fill="#FF3E0D"/>
<path d="M243.153 157.393V158.89H227.062V157.393H243.153Z" fill="#4E99FF"/>
<path d="M252.037 157.394V158.891H244.812V157.394H252.037Z" fill="#FDD45B"/>
<path d="M272.483 157.394V158.891H253.68V157.394H272.483Z" fill="#FF3E0D"/>
<path d="M254.519 25H234.669C232.643 25 231 26.5983 231 28.5702V47.883C231 49.8546 232.643 51.4524 234.669 51.4524H254.519C256.544 51.4524 258.187 49.8546 258.187 47.883V28.5702C258.187 26.5983 256.544 25 254.519 25Z" fill="#0494EF"/>
<path d="M244.572 40.5651C243.278 40.5651 242.23 39.5445 242.23 38.2854C242.23 37.0263 243.278 36.0059 244.572 36.0059C245.867 36.0059 246.914 37.0263 246.914 38.2854C246.914 39.5445 245.867 40.5651 244.572 40.5651ZM238.069 40.311L236.166 41.6248L236.78 42.6616L237.397 43.6976L239.518 42.7504C239.931 43.1933 240.408 43.5817 240.93 43.9031L240.339 46.1005L241.496 46.5099L242.652 46.9189L243.651 44.8662C243.952 44.9065 244.259 44.9266 244.572 44.9266C244.885 44.9266 245.192 44.9065 245.494 44.8662L246.492 46.9189L247.649 46.5099L248.806 46.1005L248.214 43.9031C248.737 43.5817 249.21 43.1933 249.624 42.7504L251.748 43.6976L252.362 42.6616L252.976 41.6248L251.076 40.311C251.26 39.7511 251.369 39.1591 251.392 38.5456L253.645 37.9444L253.429 36.7655L253.217 35.5868L250.892 35.7708C250.657 35.2112 250.344 34.6899 249.968 34.2188L251.297 32.3501L250.356 31.5808L249.411 30.8112L247.752 32.4071C247.213 32.1306 246.63 31.9223 246.019 31.7936L245.801 29.5331H244.572H243.341L243.123 31.7936C242.512 31.9223 241.932 32.1306 241.392 32.4071L239.733 30.8112L238.789 31.5808L237.848 32.3501L239.174 34.2188C238.798 34.6899 238.488 35.2112 238.252 35.7708L235.928 35.5868L235.712 36.7655L235.5 37.9444L237.75 38.5456C237.776 39.1591 237.885 39.752 238.069 40.311Z" fill="white"/>
</g>
<defs>
<clipPath id="clip0_941_5907">
<rect width="285" height="285" fill="white" transform="translate(0.015625)"/>
</clipPath>
<clipPath id="clip1_941_5907">
<rect width="15" height="15" fill="white" transform="translate(17 44)"/>
</clipPath>
</defs>
</svg>
