<svg width="90" height="70" viewBox="0 0 90 70" fill="none" xmlns="http://www.w3.org/2000/svg">
<g clip-path="url(#clip0_563_337)">
<path d="M5.7734 15.2426L4.33289 13.5874C4.33289 13.5874 4.51637 12.2991 4.26262 11.9283C4.00887 11.5574 3.19687 11.0694 3.029 11.1475C2.86114 11.2256 2.75964 11.6628 2.75964 11.6628C2.75964 11.6628 1.73683 10.7181 1.48698 10.9953C1.23714 11.2724 0.35877 13.6069 0.96777 14.6141C1.57677 15.6213 4.68423 18.1276 4.68423 18.1276L5.7734 15.2426Z" fill="#FFC9B0"/>
<path d="M4.68463 18.522C4.59524 18.5223 4.50842 18.492 4.43869 18.4361C4.11467 18.1745 1.26096 15.8556 0.632439 14.8172C-0.0936761 13.6109 0.897903 11.0695 1.1985 10.7338C1.24777 10.6787 1.30785 10.6343 1.37501 10.6034C1.44217 10.5725 1.51497 10.5557 1.58888 10.5542C1.97189 10.597 2.33072 10.7628 2.61169 11.0266C2.67633 10.9303 2.76342 10.8513 2.86544 10.7962C3.34171 10.5698 4.33329 11.3272 4.59094 11.7097C4.84859 12.0923 4.80565 12.9668 4.74709 13.4626L6.0705 14.989C6.11602 15.0418 6.14655 15.1059 6.15891 15.1746C6.17127 15.2432 6.165 15.3139 6.14077 15.3794L5.0555 18.2682C5.03335 18.3261 4.99771 18.3779 4.95155 18.4194C4.90538 18.4608 4.85002 18.4906 4.79004 18.5063C4.75615 18.5179 4.72043 18.5232 4.68463 18.522ZM1.7099 11.3701C1.44834 11.8932 0.866671 13.689 1.31952 14.4151C1.77236 15.1412 3.50177 16.6325 4.52848 17.4835L5.34048 15.3247L4.05611 13.8412C4.01944 13.7995 3.99211 13.7503 3.97595 13.6972C3.95979 13.644 3.95518 13.5879 3.96242 13.5328C4.05279 13.0753 4.05279 12.6045 3.96242 12.147C3.74807 11.9077 3.48788 11.7139 3.19727 11.577C3.17321 11.6336 3.1549 11.6924 3.14261 11.7527C3.12658 11.8185 3.09367 11.8791 3.04712 11.9284C3.00058 11.9777 2.94199 12.014 2.87715 12.0338C2.81038 12.056 2.73885 12.0597 2.67013 12.0446C2.60141 12.0295 2.53806 11.996 2.48677 11.9479C2.25147 11.7254 1.99071 11.5314 1.7099 11.3701Z" fill="#093F68"/>
<path d="M3.22882 15.1798C3.17243 15.1798 3.11671 15.1676 3.06549 15.144C3.01428 15.1205 2.96878 15.086 2.93212 15.0432C2.74476 14.7971 2.6347 14.5009 2.61591 14.1922C2.50699 14.2637 2.38489 14.3128 2.25676 14.3366C2.15829 14.3512 2.05783 14.3444 1.96219 14.3168C1.86655 14.2892 1.77795 14.2414 1.70241 14.1765C1.25737 13.7862 1.50332 12.8727 2.43634 11.4439C2.49622 11.3658 2.58339 11.3132 2.68039 11.2966C2.7774 11.28 2.87709 11.3007 2.9595 11.3545C3.04191 11.4083 3.10097 11.4912 3.12485 11.5867C3.14872 11.6822 3.13566 11.7831 3.08828 11.8694C2.75333 12.3652 2.48308 12.9018 2.28409 13.466C2.44696 13.3186 2.58999 13.1506 2.7096 12.9664C2.75773 12.8903 2.83065 12.8333 2.91601 12.8048C3.00137 12.7763 3.09395 12.7783 3.17807 12.8102C3.26237 12.8423 3.33293 12.9027 3.37777 12.981C3.42261 13.0592 3.43895 13.1507 3.42401 13.2396C3.35764 13.63 3.34593 14.3171 3.52551 14.5279C3.57651 14.5844 3.60989 14.6545 3.62154 14.7298C3.63319 14.805 3.6226 14.8819 3.59108 14.9512C3.55955 15.0205 3.50847 15.079 3.44411 15.1197C3.37974 15.1603 3.30491 15.1812 3.22882 15.1798Z" fill="#093F68"/>
<path d="M69.0977 14.3679C71.2021 13.7349 73.3478 13.2483 75.5195 12.9118C76.2261 12.8064 75.9645 13.3685 75.8786 13.8604C75.7732 14.4616 75.6483 15.0628 75.4883 15.6601C75.3282 16.2574 75.1955 17.7135 74.6567 18.0024C74.0439 18.2294 73.3932 18.3368 72.7399 18.3186C72.1856 18.3186 71.5336 18.2835 71.1276 17.858C70.8075 17.5027 69.2265 14.3289 69.0977 14.3679Z" fill="#70CC40"/>
<path d="M72.5762 18.709C72.2658 18.732 71.9539 18.692 71.6594 18.5914C71.3649 18.4908 71.0938 18.3316 70.8624 18.1234C70.4301 17.5033 70.0464 16.8507 69.7146 16.1715C69.414 15.6172 69.0041 14.8676 68.8675 14.6802C68.7985 14.6302 68.7477 14.5589 68.7231 14.4772C68.708 14.428 68.7029 14.3763 68.7079 14.3251C68.713 14.2739 68.7281 14.2242 68.7524 14.1789C68.7767 14.1335 68.8097 14.0934 68.8496 14.0609C68.8894 14.0283 68.9353 14.004 68.9846 13.9893C71.1032 13.3536 73.2633 12.8657 75.4494 12.5292C75.5808 12.4971 75.718 12.4974 75.8492 12.5301C75.9804 12.5627 76.1018 12.6267 76.2028 12.7166C76.3002 12.86 76.3602 13.0255 76.3773 13.198C76.3943 13.3705 76.3679 13.5446 76.3004 13.7043C76.3004 13.7784 76.2653 13.8526 76.2536 13.9268C76.1443 14.5358 76.0193 15.1487 75.8632 15.7499C75.8359 15.8631 75.8085 16.0154 75.7773 16.1793C75.5899 17.1904 75.3869 18.0532 74.8365 18.3459C74.1736 18.6075 73.464 18.7297 72.7518 18.7051L72.5762 18.709ZM69.7263 14.5904C69.8903 14.8676 70.1167 15.258 70.4017 15.8045C70.7531 16.4526 71.2918 17.4364 71.4284 17.5847C71.6744 17.8384 72.0882 17.9478 72.7479 17.9243C73.3409 17.9385 73.9318 17.8473 74.4929 17.655C74.7545 17.5144 74.9497 16.4838 75.0356 16.0349C75.0668 15.8553 75.098 15.6952 75.1293 15.5664C75.2698 14.9808 75.3908 14.3953 75.4962 13.7902C75.4962 13.7043 75.5314 13.6184 75.5509 13.5325C75.5704 13.4466 75.586 13.3724 75.5977 13.2983H75.5782C73.6021 13.6041 71.6475 14.0357 69.7263 14.5904Z" fill="#093F68"/>
<path d="M67.7472 30.7059C65.9007 30.2491 63.695 29.1912 64.3899 26.9543C65.0575 24.8032 65.9905 22.66 67.552 21.0555C68.566 19.9984 69.863 19.2556 71.288 18.9162C72.4162 18.6547 74.1339 18.479 75.2621 18.7991C77.5654 19.455 79.3651 21.3093 80.4308 23.3979C81.3404 25.1741 82.4257 28.4729 80.7978 30.1437C79.4509 31.5296 76.7144 31.268 74.942 31.2875C72.5489 31.3188 70.1012 31.2875 67.7472 30.7059Z" fill="#70CC40"/>
<path d="M76.4372 31.6896H75.7579C75.4769 31.6896 75.2114 31.6896 74.9772 31.6896C72.6114 31.717 70.1013 31.6896 67.6692 31.0962C66.459 30.7996 64.8779 30.1945 64.2064 29.0038C64.0278 28.6769 63.9199 28.3162 63.8896 27.945C63.8594 27.5738 63.9075 27.2003 64.0308 26.8489C64.8701 24.1513 65.9046 22.2306 67.2866 20.794C68.3515 19.6822 69.7155 18.9026 71.2138 18.5493C72.385 18.2799 74.1612 18.0886 75.3832 18.4361C77.581 19.0607 79.5564 20.8096 80.7939 23.2339C81.2155 24.0537 83.2026 28.2581 81.0945 30.4248C79.9624 31.5686 78.0963 31.6896 76.4372 31.6896ZM75.1841 30.9089H75.7657C77.421 30.9089 79.4783 30.9479 80.5167 29.8782C81.8635 28.4924 81.1257 25.6231 80.0834 23.5852C78.9435 21.3522 77.1477 19.7478 75.1567 19.1817C74.1417 18.8967 72.5255 19.0373 71.3739 19.3066C70.0228 19.626 68.793 20.3297 67.8331 21.3327C66.537 22.6756 65.5611 24.5026 64.7608 27.0753C64.6688 27.3254 64.6309 27.5922 64.6498 27.858C64.6686 28.1239 64.7437 28.3827 64.8701 28.6173C65.2878 29.3551 66.3419 29.9641 67.8409 30.335C70.1832 30.9089 72.6388 30.9323 74.9537 30.905L75.1841 30.9089Z" fill="#093F68"/>
<path d="M29.8844 69.8497H5.96167C5.85814 69.8497 5.75884 69.8086 5.68563 69.7354C5.61242 69.6622 5.57129 69.5629 5.57129 69.4593C5.57129 69.3558 5.61242 69.2565 5.68563 69.1833C5.75884 69.1101 5.85814 69.069 5.96167 69.069H29.4862V60.7225C29.4862 60.619 29.5274 60.5197 29.6006 60.4465C29.6738 60.3733 29.7731 60.3321 29.8766 60.3321H44.235V52.4971C44.235 52.3936 44.2761 52.2943 44.3493 52.2211C44.4225 52.1479 44.5218 52.1067 44.6254 52.1067H57.3441V43.4558C57.3441 43.3523 57.3852 43.253 57.4584 43.1798C57.5316 43.1066 57.6309 43.0654 57.7345 43.0654H89.2346C89.3382 43.0654 89.4375 43.1066 89.5107 43.1798C89.5839 43.253 89.625 43.3523 89.625 43.4558C89.625 43.5594 89.5839 43.6586 89.5107 43.7319C89.4375 43.8051 89.3382 43.8462 89.2346 43.8462H58.1327V52.4971C58.1327 52.6007 58.0915 52.7 58.0183 52.7732C57.9451 52.8464 57.8458 52.8875 57.7423 52.8875H45.0236V60.7225C45.0236 60.8261 44.9824 60.9254 44.9092 60.9986C44.836 61.0718 44.7367 61.1129 44.6332 61.1129H30.2748V69.4593C30.2748 69.5629 30.2337 69.6622 30.1605 69.7354C30.0873 69.8086 29.988 69.8497 29.8844 69.8497Z" fill="#093F68"/>
<path d="M38.3633 14.6997L39.8038 13.0444C39.8038 13.0444 39.6242 11.7562 39.8741 11.3853C40.1239 11.0144 40.9398 10.5265 41.1077 10.6045C41.2755 10.6826 41.3771 11.1198 41.3771 11.1198C41.3771 11.1198 42.4038 10.1751 42.6497 10.4523C42.8956 10.7295 43.7779 13.064 43.1689 14.0712C42.5599 15.0783 39.4525 17.5846 39.4525 17.5846L38.3633 14.6997Z" fill="#FFC9B0"/>
<path d="M39.4365 17.9751C39.4028 17.9788 39.3687 17.9788 39.335 17.9751C39.2757 17.9588 39.2211 17.9287 39.1757 17.8873C39.1302 17.846 39.0952 17.7944 39.0734 17.7369L37.9726 14.8325C37.9483 14.7671 37.9421 14.6964 37.9544 14.6277C37.9668 14.559 37.9973 14.495 38.0428 14.4421L39.3662 12.9196C39.3077 12.4238 39.2569 11.5611 39.5224 11.1668C39.7449 10.8388 40.7521 9.99562 41.2479 10.2533C41.3496 10.307 41.4367 10.3847 41.5016 10.4797C41.7882 10.225 42.1444 10.0618 42.5244 10.0112C42.5981 10.0139 42.6706 10.0311 42.7376 10.062C42.8046 10.0928 42.8648 10.1366 42.9148 10.1908C43.2115 10.5265 44.2031 13.064 43.477 14.2742C42.8524 15.3088 39.9948 17.6315 39.6707 17.8892C39.6042 17.9427 39.5219 17.9728 39.4365 17.9751ZM38.7963 14.7739L39.6122 16.9367C40.635 16.0856 42.4151 14.5397 42.8211 13.8682C43.2271 13.1968 42.6767 11.3542 42.4307 10.8232C42.1475 10.9842 41.8852 11.1795 41.65 11.4049C41.5987 11.4531 41.5353 11.4865 41.4666 11.5016C41.3979 11.5167 41.3264 11.513 41.2596 11.4908C41.1943 11.4707 41.1354 11.4338 41.0888 11.3838C41.0422 11.3338 41.0096 11.2724 40.9941 11.2058C40.9813 11.147 40.963 11.0895 40.9395 11.034C40.6576 11.1724 40.4056 11.3647 40.1977 11.6001C40.1074 12.0576 40.1074 12.5284 40.1977 12.986C40.205 13.0411 40.2004 13.0971 40.1842 13.1503C40.1681 13.2035 40.1407 13.2526 40.1041 13.2944L38.7963 14.7739Z" fill="#093F68"/>
<path d="M39.6787 56.6974L34.6857 57.3064C34.0962 50.6308 33.1241 47.8552 32.1833 46.766C31.4221 45.8798 22.2012 43.0807 22.2012 43.0807L24.6411 37.0376C27.0107 37.6778 34.6427 41.4646 36.7781 43.9435C38.8081 46.278 39.3391 53.7929 39.6787 56.6974Z" fill="#093F68"/>
<path d="M34.6856 57.6971C34.5962 57.6974 34.5094 57.6671 34.4397 57.6112C34.3995 57.5779 34.3663 57.537 34.3421 57.4907C34.318 57.4445 34.3034 57.3938 34.2992 57.3418C33.8073 51.7671 32.9953 48.2888 31.8866 47.0044C31.4572 46.5047 26.5695 44.7987 22.0879 43.4402C22.0364 43.4242 21.9887 43.3976 21.9479 43.3622C21.9072 43.3268 21.8742 43.2834 21.8511 43.2346C21.8279 43.1858 21.8152 43.1327 21.8136 43.0787C21.8121 43.0248 21.8217 42.971 21.842 42.921L24.278 36.8739C24.3138 36.7853 24.3809 36.713 24.4665 36.6705C24.5521 36.6281 24.6503 36.6185 24.7425 36.6436C27.2957 37.3346 34.9316 41.1877 37.0748 43.6705C38.9291 45.8216 39.5537 51.7944 39.9285 55.3626C39.9793 55.8544 40.0261 56.2878 40.0651 56.6508C40.0773 56.7533 40.0484 56.8564 39.9847 56.9376C39.9211 57.0188 39.8279 57.0715 39.7255 57.0842L34.7325 57.6932L34.6856 57.6971ZM22.7243 42.8078C24.9182 43.4832 31.7382 45.6264 32.4839 46.4852C33.6863 47.8828 34.5256 51.2791 35.0448 56.8616L39.2531 56.3502C39.2219 56.0731 39.1907 55.7686 39.1555 55.4367C38.8159 52.1887 38.1796 46.1378 36.4892 44.1741C34.4865 41.8552 27.4401 38.3184 24.8714 37.4908L22.7243 42.8078Z" fill="#093F68"/>
<path d="M34.6855 57.3065V60.7223L43.0671 59.0671C43.1026 59.06 43.1349 59.0419 43.1595 59.0153C43.184 58.9888 43.1996 58.9551 43.2039 58.9192C43.2082 58.8833 43.2011 58.8469 43.1836 58.8153C43.166 58.7837 43.1389 58.7584 43.1061 58.7431L39.2921 56.2173L34.6855 57.3065Z" fill="#68E1FD"/>
<path d="M34.6854 61.1125C34.5819 61.1125 34.4826 61.0713 34.4094 60.9981C34.3362 60.9249 34.2951 60.8256 34.2951 60.7221V57.3062C34.2927 57.2165 34.3212 57.1287 34.376 57.0576C34.4307 56.9865 34.5083 56.9364 34.5957 56.9158L39.2022 55.8228C39.254 55.8106 39.3077 55.8092 39.3601 55.8186C39.4125 55.828 39.4623 55.848 39.5067 55.8774L43.3051 58.3954C43.402 58.4494 43.4808 58.5308 43.5315 58.6295C43.5822 58.7281 43.6026 58.8395 43.5901 58.9497C43.5763 59.0662 43.5269 59.1755 43.4486 59.2628C43.3704 59.3502 43.2671 59.4112 43.1529 59.4377L34.7635 61.0969L34.6854 61.1125ZM35.0758 57.599V60.2341L42.4658 58.7741L39.2178 56.6192L35.0758 57.599Z" fill="#093F68"/>
<path d="M29.3838 30.5419L29.7742 38.7049L17.0554 39.876L16.2981 31.5374L2.41992 17.7529L5.80846 15.0476L17.5395 24.3934C19.7335 24.3231 26.0148 24.0811 27.7949 23.5072L38.3626 14.583L41.3452 16.8316C41.3452 16.8316 33.6351 25.5958 29.3838 30.5419Z" fill="#68E1FD"/>
<path d="M17.0835 40.2508C16.9923 40.251 16.9039 40.2192 16.8337 40.161C16.7548 40.0941 16.7056 39.9986 16.6971 39.8955L15.9514 31.6975L2.14743 18.034C2.10842 17.9952 2.07804 17.9487 2.05828 17.8973C2.03853 17.846 2.02984 17.7911 2.03279 17.7362C2.03574 17.6813 2.05025 17.6276 2.07539 17.5787C2.10053 17.5298 2.13572 17.4867 2.17866 17.4523L5.5711 14.7431C5.64034 14.6876 5.72639 14.6574 5.81509 14.6574C5.90379 14.6574 5.98984 14.6876 6.05908 14.7431L17.673 23.9991C22.6817 23.8351 26.3708 23.5228 27.6044 23.1598L38.0979 14.2863C38.1672 14.2309 38.2532 14.2007 38.3419 14.2007C38.4306 14.2007 38.5167 14.2309 38.5859 14.2863L41.5685 16.5349C41.6113 16.5675 41.647 16.6086 41.6732 16.6557C41.6994 16.7027 41.7155 16.7546 41.7207 16.8082C41.7263 16.8614 41.7208 16.9153 41.7047 16.9663C41.6886 17.0173 41.6621 17.0645 41.627 17.1049C41.5489 17.1947 34.0067 25.7871 29.7906 30.6942L30.1809 38.701C30.1864 38.802 30.1524 38.9012 30.0861 38.9777C30.0199 39.0542 29.9265 39.1019 29.8257 39.1109L17.107 40.282L17.0835 40.2508ZM3.01018 17.7842L16.6034 31.2446C16.6671 31.3104 16.7069 31.3956 16.7166 31.4867L17.4388 39.4388L29.3846 38.3496L28.9942 30.5419C28.9893 30.4422 29.0228 30.3444 29.0879 30.2687C32.8278 25.9081 39.3316 18.4869 40.7487 16.8707L38.3634 15.0905L28.0494 23.8156C28.0098 23.8478 27.9649 23.8729 27.9167 23.8898C26.1366 24.4636 20.0778 24.7135 17.5559 24.7916C17.463 24.7958 17.3716 24.7667 17.2982 24.7096L5.80923 15.5473L3.01018 17.7842Z" fill="#093F68"/>
<path d="M12.2695 62.1435C12.2695 62.1435 16.3569 55.9598 17.4655 52.7079C18.5742 49.456 17.6451 39.8252 17.6451 39.8252H23.5712C23.5712 39.8252 25.2693 47.5548 23.0324 53.2583C20.7955 58.9619 16.1695 64.0798 16.1695 64.0798L12.2695 62.1435Z" fill="#093F68"/>
<path d="M16.17 64.4817C16.109 64.4806 16.049 64.4659 15.9943 64.4388L12.0905 62.4869C12.0416 62.4616 11.9985 62.4263 11.9642 62.3833C11.9299 62.3402 11.9051 62.2904 11.8914 62.237C11.877 62.1837 11.8741 62.128 11.8829 62.0735C11.8916 62.019 11.9118 61.9669 11.9422 61.9208C11.9812 61.8584 16.01 55.741 17.0913 52.575C18.1727 49.409 17.2631 39.9656 17.2514 39.868C17.2459 39.8135 17.2519 39.7586 17.2691 39.7066C17.2863 39.6546 17.3141 39.6068 17.351 39.5664C17.3878 39.5259 17.4327 39.4936 17.4828 39.4716C17.5329 39.4495 17.587 39.4383 17.6418 39.4386H23.5678C23.6586 39.4366 23.7472 39.4662 23.8185 39.5225C23.8897 39.5788 23.9391 39.6582 23.9582 39.747C24.0285 40.0671 25.6525 47.6562 23.3999 53.4104C21.1474 59.1647 16.5097 64.3022 16.4628 64.3412C16.427 64.3843 16.3822 64.4191 16.3317 64.4434C16.2812 64.4676 16.2261 64.4807 16.17 64.4817ZM12.8361 61.9911L16.0763 63.6073C16.9742 62.5689 20.7609 58.0326 22.6699 53.1255C24.5789 48.2183 23.5288 41.7106 23.2516 40.2428H18.0634C18.2313 42.1947 18.8442 49.9126 17.8292 52.8483C16.8649 55.6903 13.7418 60.5974 12.8361 61.9911Z" fill="#093F68"/>
<path d="M12.2703 62.1436L10.2793 65.3564L17.1344 69.4398C17.1823 69.4582 17.2348 69.4609 17.2843 69.4476C17.3337 69.4343 17.3777 69.4055 17.4099 69.3656C17.442 69.3257 17.4606 69.2765 17.463 69.2253C17.4654 69.1741 17.4516 69.1235 17.4233 69.0807L16.1702 64.0916L12.2703 62.1436Z" fill="#68E1FD"/>
<path d="M17.2278 69.8494C17.1434 69.8476 17.06 69.8304 16.9818 69.7986L16.935 69.7752L10.0759 65.6918C10.0315 65.6654 9.99269 65.6304 9.96186 65.5888C9.93103 65.5473 9.90877 65.5 9.89637 65.4498C9.88423 65.3988 9.88247 65.346 9.89119 65.2943C9.89991 65.2427 9.91893 65.1933 9.94712 65.1492L11.9381 61.9363C11.9899 61.8538 12.0707 61.7936 12.1646 61.7676C12.2585 61.7416 12.3587 61.7516 12.4456 61.7958L16.3494 63.7477C16.3999 63.7733 16.4442 63.8097 16.4793 63.8542C16.5144 63.8987 16.5393 63.9502 16.5524 64.0053L17.7899 68.9398C17.8464 69.0474 17.8699 69.1692 17.8574 69.2901C17.8449 69.4109 17.797 69.5254 17.7197 69.6191C17.6598 69.6914 17.5846 69.7495 17.4995 69.7894C17.4145 69.8292 17.3217 69.8497 17.2278 69.8494ZM10.8177 65.2233L16.9701 68.8852L15.8341 64.3606L12.4143 62.6507L10.8177 65.2233Z" fill="#093F68"/>
<path d="M25.6292 23.9756L24.2043 36.3195L19.832 24.4362L25.6292 23.9756Z" fill="white"/>
<path d="M24.2038 36.7099C24.124 36.7101 24.0461 36.6859 23.9805 36.6406C23.9148 36.5952 23.8647 36.5308 23.8368 36.4561L19.4645 24.5689C19.4442 24.5125 19.4371 24.4521 19.4439 24.3926C19.4507 24.333 19.4711 24.2758 19.5035 24.2254C19.5358 24.1746 19.5794 24.132 19.6308 24.1008C19.6823 24.0697 19.7403 24.0508 19.8002 24.0458L25.5974 23.5851C25.6548 23.5807 25.7124 23.5891 25.7661 23.6095C25.8198 23.63 25.8684 23.662 25.9083 23.7034C25.9482 23.7448 25.9785 23.7945 25.997 23.849C26.0154 23.9035 26.0216 23.9613 26.0151 24.0185L24.5902 36.3663C24.5804 36.4534 24.5416 36.5346 24.4799 36.5969C24.4183 36.6592 24.3376 36.699 24.2506 36.7099H24.2038ZM20.3741 24.7836L24.0047 34.6447L25.1758 24.401L20.3741 24.7836Z" fill="#093F68"/>
<path d="M21.4365 22.7285L24.088 22.4877L24.2265 24.0117C24.2535 24.3097 24.1611 24.6062 23.9695 24.8361C23.778 25.0659 23.5029 25.2103 23.2049 25.2374L22.8161 25.2727C22.5182 25.2997 22.2216 25.2073 21.9918 25.0157C21.7619 24.8242 21.6176 24.5491 21.5905 24.2511L21.4521 22.7271L21.4365 22.7285Z" fill="#FFC9B0"/>
<path d="M22.697 25.6696C22.3432 25.6692 22.0006 25.5449 21.7289 25.3183C21.4192 25.0597 21.2242 24.6893 21.1862 24.2877L21.0496 22.7612C21.0398 22.6582 21.0713 22.5556 21.1372 22.4758C21.2031 22.396 21.298 22.3456 21.401 22.3357L24.0517 22.0976C24.1543 22.0875 24.2567 22.1183 24.3366 22.1835C24.4156 22.2504 24.4647 22.3458 24.4733 22.4489L24.6138 23.9753C24.6486 24.3767 24.5232 24.7756 24.265 25.0849C24.0069 25.3943 23.6369 25.589 23.2358 25.6267L22.8454 25.6618L22.697 25.6696ZM21.8616 23.0814L21.9631 24.2174C21.9825 24.4124 22.0779 24.5919 22.2286 24.7171C22.3025 24.7798 22.3883 24.827 22.4809 24.8558C22.5734 24.8846 22.6708 24.8945 22.7673 24.8849L23.1577 24.8498C23.3533 24.832 23.5338 24.7373 23.6597 24.5865C23.7855 24.4358 23.8465 24.2412 23.8291 24.0456L23.7237 22.9096L21.8616 23.0814Z" fill="#093F68"/>
<path d="M13.7021 17.8932C13.5181 17.7122 13.3593 17.5073 13.2297 17.2842C11.8676 15.1651 10.8504 12.8434 10.2159 10.4056C9.99501 9.71949 9.91923 8.99494 9.99342 8.27798C10.1964 6.978 11.2192 5.98642 12.1874 5.09634C12.7066 4.61617 13.0033 4.63569 13.3585 4.00717C13.753 3.40375 14.2513 2.87506 14.8303 2.44563C17.0321 0.67719 20.0732 0.462478 22.8956 0.532748C24.1019 0.563978 25.3473 0.642055 26.4091 1.18859C27.4709 1.73513 28.361 2.85554 28.2439 4.05402C29.6454 3.92129 30.4105 3.99546 30.8673 5.49844C31.5739 7.84075 31.4568 14.4109 31.4568 14.4109L29.7859 14.4617L17.3444 17.4442C16.5363 17.6355 14.5492 18.4865 13.8309 18.022C13.7846 17.9826 13.7415 17.9395 13.7021 17.8932Z" fill="#725858"/>
<path d="M14.4794 18.5647C14.1963 18.58 13.915 18.5107 13.6713 18.3656C13.5861 18.311 13.5063 18.2483 13.4332 18.1782C13.2285 17.9749 13.0501 17.7467 12.9023 17.4989C11.5196 15.3467 10.4854 12.9897 9.83776 10.515C9.60263 9.77675 9.52418 8.99759 9.60743 8.22731C9.82604 6.84926 10.8254 5.82645 11.9263 4.81535C12.0947 4.66061 12.2763 4.52085 12.4689 4.39764C12.7098 4.25982 12.9083 4.05865 13.0428 3.81597C13.4635 3.17795 13.9919 2.61787 14.6044 2.16074C16.9467 0.275181 20.1322 0.0917004 22.9234 0.16197C24.161 0.1932 25.4609 0.275182 26.6204 0.856855C27.6198 1.36045 28.5723 2.39497 28.6738 3.65201C29.884 3.57783 30.7858 3.78084 31.2777 5.40484C31.9921 7.74714 31.8906 14.1651 31.8828 14.4383C31.8828 14.5419 31.8416 14.6412 31.7684 14.7144C31.6952 14.7876 31.5959 14.8287 31.4924 14.8287L29.8567 14.8795L17.4581 17.8503C17.2785 17.8932 17.0325 17.9713 16.7476 18.0611C16.019 18.3351 15.2554 18.5046 14.4794 18.5647ZM22.0138 0.931028C19.6013 0.931028 17.013 1.23163 15.0923 2.76974C14.5552 3.17044 14.0893 3.65874 13.7143 4.21416C13.5189 4.55468 13.241 4.84061 12.9062 5.04568C12.7454 5.14664 12.5939 5.2616 12.4533 5.38922C11.4618 6.30272 10.5561 7.21622 10.3804 8.34834C10.3196 9.00653 10.3913 9.67022 10.5912 10.3003C11.2162 12.6956 12.2177 14.9765 13.5581 17.0578C13.6724 17.2521 13.8101 17.4318 13.968 17.5926C14.0096 17.6311 14.0539 17.6663 14.1008 17.698C14.4911 17.9518 15.8106 17.5263 16.525 17.3077C16.8256 17.2101 17.0872 17.1281 17.3058 17.0773L29.7435 14.0987H29.8215L31.1254 14.0597C31.1254 12.6426 31.1254 7.56757 30.5438 5.63907C30.1534 4.40936 29.6693 4.34689 28.3303 4.46791C28.2731 4.47317 28.2155 4.46575 28.1615 4.44618C28.1075 4.42661 28.0585 4.39538 28.018 4.3547C27.9773 4.31417 27.9461 4.26517 27.9265 4.21119C27.9069 4.15721 27.8995 4.09957 27.9048 4.04239C28.0102 2.94932 27.124 1.98897 26.2847 1.55955C25.2697 1.04814 24.0673 0.977874 22.9195 0.946644C22.6176 0.936233 22.3157 0.931028 22.0138 0.931028Z" fill="#093F68"/>
<path d="M30.059 17.2508C31.4567 16.9616 32.3876 15.7498 32.1381 14.5443C31.8887 13.3387 30.5534 12.5959 29.1557 12.8851C27.7581 13.1743 26.8272 14.386 27.0767 15.5916C27.3261 16.7971 28.6614 17.54 30.059 17.2508Z" fill="#FFC9B0"/>
<path d="M29.4541 17.71C28.1112 17.71 26.9401 16.8902 26.6902 15.6761C26.6206 15.3251 26.629 14.9631 26.7146 14.6157C26.8003 14.2683 26.9612 13.944 27.186 13.6656C27.6545 13.0607 28.3253 12.6449 29.0755 12.4944C30.6799 12.1626 32.2259 13.041 32.5186 14.4463C32.8114 15.8517 31.7379 17.2766 30.1334 17.6124C29.9109 17.6679 29.6833 17.7006 29.4541 17.71ZM29.7586 13.2205C29.5816 13.2216 29.4051 13.2399 29.2316 13.2752C28.6741 13.3883 28.1748 13.6954 27.8223 14.1418C27.6662 14.3317 27.5538 14.5536 27.4931 14.7917C27.4324 15.0299 27.4248 15.2785 27.471 15.5199C27.6779 16.5115 28.81 17.1166 29.9929 16.8745C31.1757 16.6325 31.976 15.6214 31.7691 14.6298C31.6465 14.203 31.382 13.8308 31.0193 13.5746C30.6567 13.3184 30.2175 13.1935 29.7742 13.2205H29.7586Z" fill="#093F68"/>
<path d="M23.7631 23.6789C22.2892 23.9757 20.7611 23.8436 19.36 23.2984C17.9589 22.7531 16.7435 21.8176 15.8578 20.6027C13.9371 17.9364 14.1518 14.013 16.8455 11.8815C17.4193 11.4247 18.0791 11.1007 18.6647 10.644C19.9256 9.69534 20.4839 8.50076 21.0773 7.10319C21.2295 6.74794 21.1319 6.77136 21.413 6.97826C21.6941 7.18517 21.9673 7.4272 22.2289 7.64191C22.8322 8.13646 23.3267 8.75053 23.6811 9.44549C24.7279 8.85882 25.5894 7.99058 26.1679 6.93922C26.1982 6.8735 26.2421 6.81495 26.2967 6.76745C26.3629 6.73258 26.4366 6.71436 26.5114 6.71436C26.5862 6.71436 26.6599 6.73258 26.7261 6.76745C28.6 7.37645 28.7913 9.50015 29.127 11.1359L29.8219 14.4815C30.2326 16.504 29.8259 18.607 28.6905 20.3305C27.5552 22.054 25.7836 23.2579 23.7631 23.6789Z" fill="#FFC9B0"/>
<path d="M22.2399 24.2411C20.9357 24.2391 19.6502 23.9312 18.4867 23.342C17.3232 22.7528 16.3142 21.8988 15.5409 20.8486C13.4094 17.8934 13.8856 13.7397 16.6027 11.5926C16.9247 11.3447 17.2596 11.1141 17.606 10.9016C17.8949 10.7142 18.1682 10.5425 18.4297 10.3473C19.6009 9.4728 20.1123 8.39534 20.7174 6.96654C20.7447 6.90407 20.7603 6.85332 20.7759 6.81819C20.7945 6.73804 20.8333 6.664 20.8886 6.60316C20.944 6.54232 21.0141 6.49672 21.0921 6.47075C21.1711 6.45179 21.2537 6.45371 21.3317 6.47629C21.4097 6.49888 21.4805 6.54136 21.5372 6.59957L21.6426 6.67765C21.8456 6.826 22.033 6.99776 22.2477 7.16563L22.478 7.35692C23.0118 7.79779 23.4671 8.32575 23.8248 8.91846C24.6572 8.37594 25.3435 7.6373 25.8236 6.76744C25.8798 6.65419 25.9597 6.55434 26.0578 6.47465C26.1709 6.39706 26.3017 6.34924 26.4382 6.33559C26.5747 6.32195 26.7124 6.34292 26.8386 6.39658C28.7281 7.00948 29.0989 8.94969 29.3956 10.5112C29.4307 10.6986 29.4659 10.8782 29.501 11.0578L30.1959 14.4034C30.63 16.5269 30.2055 18.7359 29.0152 20.5473C27.8249 22.3587 25.9658 23.625 23.8443 24.0693C23.3167 24.1807 22.7791 24.2383 22.2399 24.2411ZM21.3615 7.44671C20.7564 8.8599 20.163 10.0193 18.8982 10.9602C18.6132 11.1749 18.3165 11.3506 18.0276 11.5457C17.7387 11.7409 17.3796 11.9674 17.0868 12.2016C14.6937 14.0989 14.2838 17.7685 16.1733 20.3997C17.0194 21.5486 18.1749 22.4332 19.5048 22.9503C20.8347 23.4673 22.2843 23.5955 23.6843 23.3197C25.6066 22.9196 27.2918 21.7735 28.3704 20.1329C29.4491 18.4922 29.8332 16.4908 29.4386 14.5673L28.7437 11.2217C28.7085 11.0421 28.6734 10.8548 28.6344 10.6674C28.3494 9.1683 28.0527 7.61457 26.6044 7.15392L26.5224 7.1305V7.15392C25.9078 8.26985 24.9938 9.19196 23.8834 9.81634C23.8374 9.84179 23.7866 9.85768 23.7343 9.86305C23.682 9.86841 23.6291 9.86315 23.5789 9.84757C23.5287 9.83242 23.4822 9.80732 23.4419 9.77379C23.4017 9.74026 23.3686 9.69897 23.3447 9.65238C23.0078 8.99926 22.5385 8.42355 21.9666 7.96202L21.7285 7.76292C21.6192 7.67313 21.4903 7.54821 21.3615 7.44671Z" fill="#093F68"/>
<path d="M21.94 15.6016C22.3388 15.6016 22.6622 15.2783 22.6622 14.8794C22.6622 14.4806 22.3388 14.1572 21.94 14.1572C21.5411 14.1572 21.2178 14.4806 21.2178 14.8794C21.2178 15.2783 21.5411 15.6016 21.94 15.6016Z" fill="#093F68"/>
<path d="M27.6861 14.6099C28.0849 14.6099 28.4083 14.2866 28.4083 13.8877C28.4083 13.4889 28.0849 13.1655 27.6861 13.1655C27.2872 13.1655 26.9639 13.4889 26.9639 13.8877C26.9639 14.2866 27.2872 14.6099 27.6861 14.6099Z" fill="#093F68"/>
<path d="M23.408 17.6941C23.3044 17.6941 23.2051 17.653 23.1319 17.5797C23.0587 17.5065 23.0176 17.4072 23.0176 17.3037C23.0176 17.2002 23.0587 17.1009 23.1319 17.0277C23.2051 16.9544 23.3044 16.9133 23.408 16.9133C23.7002 16.8989 23.9897 16.8504 24.2707 16.7689C24.0381 16.2855 23.7442 15.8342 23.3963 15.4259C23.337 15.3452 23.3111 15.2447 23.3238 15.1453C23.3366 15.046 23.3871 14.9553 23.4648 14.8922C23.5425 14.829 23.6416 14.7981 23.7414 14.8059C23.8413 14.8137 23.9344 14.8596 24.0013 14.9341C24.5479 15.6055 25.1725 16.4956 25.0632 17.0265C25.0466 17.1104 25.0108 17.1892 24.9586 17.2569C24.9065 17.3247 24.8394 17.3794 24.7626 17.4169C24.339 17.5888 23.8883 17.684 23.4314 17.698L23.408 17.6941Z" fill="#093F68"/>
<path d="M17.7708 13.24C17.5637 13.2493 17.3614 13.176 17.2084 13.0361C17.0554 12.8963 16.9642 12.7014 16.9549 12.4943C16.9456 12.2873 17.0189 12.085 17.1587 11.932C17.2986 11.7789 17.4935 11.6878 17.7005 11.6784L21.1281 11.3622C21.3352 11.3431 21.5414 11.407 21.7013 11.5398C21.8613 11.6727 21.9619 11.8637 21.9811 12.0708C22.0002 12.2778 21.9364 12.484 21.8035 12.644C21.6706 12.804 21.4796 12.9046 21.2725 12.9238L17.845 13.24H17.7708Z" fill="#093F68"/>
<path d="M24.2737 12.291C24.1712 12.3023 24.0674 12.2933 23.9684 12.2645C23.8693 12.2357 23.7769 12.1876 23.6965 12.1231C23.616 12.0586 23.549 11.9788 23.4994 11.8884C23.4497 11.798 23.4183 11.6987 23.4071 11.5962C23.3958 11.4936 23.4048 11.3899 23.4336 11.2908C23.4624 11.1918 23.5105 11.0994 23.575 11.0189C23.6395 10.9384 23.7193 10.8715 23.8097 10.8218C23.9001 10.7721 23.9994 10.7408 24.1019 10.7295L27.4631 9.97215C27.5644 9.94596 27.6699 9.94037 27.7733 9.95573C27.8768 9.97108 27.9761 10.0071 28.0654 10.0615C28.1546 10.116 28.2321 10.1879 28.293 10.2728C28.354 10.3578 28.3973 10.4542 28.4203 10.5562C28.4433 10.6582 28.4456 10.7638 28.4271 10.8667C28.4085 10.9696 28.3694 11.0678 28.3122 11.1553C28.2549 11.2429 28.1807 11.318 28.0939 11.3763C28.007 11.4346 27.9094 11.4748 27.8067 11.4947L24.4455 12.252C24.3903 12.273 24.3325 12.2862 24.2737 12.291Z" fill="#093F68"/>
<path d="M18.899 17.4636C18.6326 17.4616 18.3749 17.3688 18.1684 17.2006C17.9619 17.0324 17.8189 16.7988 17.7629 16.5384L17.3296 14.4342C17.3084 14.3333 17.3281 14.228 17.3843 14.1414C17.4408 14.0552 17.5293 13.9948 17.6302 13.9736L22.5373 12.9586C22.5876 12.9483 22.6394 12.9481 22.6897 12.9578C22.74 12.9676 22.788 12.9871 22.8308 13.0154C22.8735 13.0437 22.9103 13.0801 22.939 13.1226C22.9677 13.1651 22.9878 13.2128 22.998 13.2631L23.4352 15.3673C23.4943 15.6683 23.4329 15.9804 23.2643 16.2366C23.0957 16.4929 22.8333 16.6727 22.5334 16.7375L19.1332 17.4402C19.0561 17.4557 18.9776 17.4636 18.899 17.4636ZM18.1728 14.6607L18.5281 16.3823C18.5379 16.431 18.5574 16.4772 18.5856 16.5182C18.6138 16.5591 18.65 16.5939 18.6921 16.6204C18.733 16.649 18.7796 16.6687 18.8287 16.6781C18.8778 16.6876 18.9284 16.6865 18.977 16.675L22.3734 15.9724C22.4702 15.9499 22.5548 15.8913 22.6099 15.8086C22.665 15.7259 22.6866 15.6253 22.6701 15.5273L22.3109 13.8018L18.1728 14.6607Z" fill="#093F68"/>
<path d="M24.9889 16.2068C24.7226 16.2036 24.4654 16.1099 24.2597 15.941C24.0539 15.7721 23.9117 15.5381 23.8567 15.2777L23.4195 13.1735C23.3995 13.072 23.4205 12.9667 23.4781 12.8807C23.5346 12.7944 23.6231 12.7341 23.724 12.7128L28.6311 11.6978C28.7326 11.6778 28.838 11.6988 28.9239 11.7564C29.0102 11.813 29.0705 11.9014 29.0918 12.0023L29.5251 14.1065C29.5842 14.4075 29.5228 14.7197 29.3542 14.9759C29.1856 15.2321 28.9231 15.4119 28.6233 15.4768L25.227 16.1794C25.1491 16.1984 25.0691 16.2076 24.9889 16.2068ZM24.2666 13.3999L24.6219 15.1215C24.6431 15.2204 24.7019 15.3071 24.7859 15.3635C24.8273 15.3911 24.874 15.4098 24.9231 15.4185C24.9721 15.4273 25.0224 15.4258 25.0708 15.4143L28.4672 14.7155C28.5641 14.6922 28.6484 14.6327 28.7028 14.5492C28.7572 14.4658 28.7777 14.3646 28.76 14.2666L28.4047 12.5411L24.2666 13.3999Z" fill="#093F68"/>
<path d="M13.6599 16.7652C13.6086 16.7703 13.5568 16.7653 13.5075 16.7504C13.4582 16.7355 13.4123 16.7111 13.3724 16.6784C13.3325 16.6458 13.2995 16.6057 13.2751 16.5602C13.2508 16.5148 13.2356 16.4651 13.2305 16.4138C13.2253 16.3626 13.2304 16.3108 13.2452 16.2615C13.2601 16.2121 13.2846 16.1662 13.3172 16.1263C13.3831 16.0458 13.4783 15.9948 13.5818 15.9844L17.876 15.0982C17.9263 15.088 17.9781 15.0877 18.0284 15.0975C18.0787 15.1072 18.1267 15.1268 18.1694 15.155C18.2122 15.1833 18.249 15.2198 18.2777 15.2623C18.3064 15.3048 18.3264 15.3525 18.3367 15.4027C18.3575 15.5036 18.3376 15.6087 18.2813 15.695C18.225 15.7813 18.1368 15.8418 18.0361 15.8634L13.7419 16.7496L13.6599 16.7652Z" fill="#093F68"/>
<path d="M16.0019 20.1651C15.3981 20.3149 14.7598 20.2234 14.2225 19.9099C13.6852 19.5964 13.2914 19.0858 13.1247 18.4865C12.0785 15.5118 15.3811 16.5346 15.3811 16.5346" fill="#FFC9B0"/>
<path d="M15.4282 20.6222C14.8234 20.6299 14.2331 20.4367 13.7499 20.0728C13.2666 19.709 12.9178 19.1951 12.758 18.6117C12.4105 17.6319 12.4613 16.9019 12.9063 16.4451C13.6871 15.637 15.315 16.1172 15.4985 16.1757C15.5973 16.2068 15.6798 16.2759 15.7278 16.3678C15.7757 16.4596 15.7852 16.5668 15.7542 16.6657C15.7231 16.7646 15.654 16.847 15.5622 16.895C15.4703 16.943 15.3631 16.9524 15.2642 16.9214C14.9168 16.8121 13.8471 16.5935 13.4685 16.9877C13.1913 17.2727 13.3279 17.8856 13.4919 18.3541C14.1555 20.2318 15.8342 19.8063 15.9006 19.7868C15.9999 19.7605 16.1057 19.7744 16.1949 19.8256C16.284 19.8767 16.3494 19.961 16.3768 20.0601C16.393 20.11 16.3989 20.1627 16.3942 20.215C16.3895 20.2673 16.3743 20.3181 16.3495 20.3644C16.3247 20.4107 16.2909 20.4515 16.25 20.4844C16.209 20.5173 16.1619 20.5416 16.1114 20.5559C15.8875 20.6079 15.6578 20.6302 15.4282 20.6222Z" fill="#093F68"/>
<path d="M25.0899 18.8927L21.9278 18.2993C21.9278 18.2993 21.2134 20.4777 22.4509 21.3443C24.0866 22.4842 25.0899 18.8927 25.0899 18.8927Z" fill="#093F68"/>
<path d="M23.6126 25.3545L22.7922 25.429C22.4766 25.4577 22.2439 25.7368 22.2726 26.0525L22.309 26.4529C22.3377 26.7686 22.6168 27.0012 22.9324 26.9725L23.7527 26.898C24.0684 26.8693 24.301 26.5902 24.2723 26.2746L24.236 25.8741C24.2073 25.5585 23.9282 25.3259 23.6126 25.3545Z" fill="#F56132"/>
<path d="M22.8841 27.3642C22.644 27.3651 22.4124 27.2757 22.2352 27.1137C22.058 26.9517 21.9482 26.7289 21.9276 26.4897L21.8886 26.0994C21.8658 25.8447 21.9452 25.5914 22.1092 25.3952C22.2732 25.199 22.5084 25.0759 22.7631 25.0531L23.5829 24.979C23.8369 24.9562 24.0897 25.035 24.2858 25.1981C24.4819 25.3613 24.6053 25.5955 24.6291 25.8495L24.6681 26.2399C24.6909 26.4946 24.6116 26.7479 24.4476 26.9441C24.2836 27.1403 24.0484 27.2633 23.7937 27.2861L22.9739 27.3603L22.8841 27.3642ZM23.6648 25.7402H23.6453L22.8255 25.8144C22.7768 25.8193 22.732 25.8432 22.7006 25.8807C22.6694 25.9176 22.6539 25.9653 22.6577 26.0135L22.6967 26.4039C22.6981 26.4273 22.7043 26.4501 22.7151 26.471C22.7259 26.4918 22.7409 26.5102 22.7592 26.5249C22.7772 26.5407 22.7982 26.5527 22.8211 26.5601C22.8439 26.5675 22.868 26.5701 22.8919 26.5678L23.7156 26.4937C23.7396 26.4917 23.7629 26.485 23.7842 26.4738C23.8056 26.4627 23.8244 26.4474 23.8397 26.4288C23.855 26.4102 23.8664 26.3888 23.8733 26.3657C23.8801 26.3427 23.8822 26.3185 23.8796 26.2946L23.8444 25.9042C23.8399 25.8609 23.8201 25.8207 23.7886 25.7907C23.7572 25.7606 23.7161 25.7427 23.6726 25.7402H23.6648Z" fill="#093F68"/>
<path d="M24.6375 31.4552L24.2042 36.3194L22.752 32.0993L22.7871 26.9853L23.9114 26.8838L24.6375 31.4552Z" fill="#F56132"/>
<path d="M24.2042 36.7097C24.1228 36.7102 24.0433 36.6853 23.9769 36.6384C23.9104 36.5915 23.8602 36.525 23.8333 36.4482L22.385 32.2242C22.3756 32.1818 22.3756 32.1378 22.385 32.0954L22.4162 26.9852C22.4158 26.8875 22.4521 26.7932 22.5179 26.7209C22.5837 26.6486 22.6742 26.6037 22.7715 26.5949L23.8958 26.4895C23.9946 26.4803 24.0931 26.5091 24.1715 26.57C24.2498 26.6309 24.302 26.7194 24.3174 26.8174L25.0435 31.3927C25.0493 31.4236 25.0493 31.4554 25.0435 31.4864L24.6063 36.3506C24.599 36.4397 24.5612 36.5237 24.4994 36.5884C24.4376 36.653 24.3554 36.6945 24.2667 36.7058L24.2042 36.7097ZM23.1463 32.0251L23.9778 34.4533L24.2471 31.463L23.5835 27.2976L23.1931 27.3366L23.1463 32.0251Z" fill="#093F68"/>
<path d="M40.8924 14.6337C40.7988 14.6327 40.7088 14.598 40.6386 14.5361C40.5997 14.5028 40.5676 14.4621 40.5444 14.4165C40.5211 14.3708 40.5071 14.3209 40.5031 14.2698C40.4991 14.2187 40.5053 14.1673 40.5211 14.1186C40.537 14.0698 40.5623 14.0247 40.5957 13.9857C40.7792 13.7788 40.7635 13.0956 40.7011 12.7013C40.6851 12.6122 40.7006 12.5203 40.745 12.4413C40.7893 12.3624 40.8597 12.3013 40.9441 12.2686C41.0286 12.2358 41.1217 12.2334 41.2077 12.2618C41.2937 12.2902 41.3672 12.3476 41.4155 12.4242C41.5306 12.6106 41.6726 12.779 41.8371 12.9238C41.6388 12.3605 41.3685 11.8252 41.0329 11.3311C41.0045 11.2881 40.9849 11.2399 40.9752 11.1893C40.9655 11.1387 40.966 11.0866 40.9765 11.0362C40.987 10.9857 41.0074 10.9379 41.0365 10.8954C41.0656 10.8528 41.1029 10.8165 41.1461 10.7884C41.2327 10.7323 41.3379 10.7127 41.4388 10.7339C41.5398 10.7551 41.6282 10.8154 41.6848 10.9017C42.6179 12.3266 42.856 13.244 42.4188 13.6343C42.3438 13.7001 42.2552 13.7485 42.1594 13.7762C42.0636 13.8038 41.9629 13.8101 41.8644 13.7944C41.7365 13.772 41.6144 13.7242 41.5053 13.6539C41.4865 13.9626 41.3764 14.2588 41.1891 14.5049C41.1517 14.5463 41.1059 14.5793 41.0547 14.6015C41.0035 14.6237 40.9482 14.6347 40.8924 14.6337Z" fill="#093F68"/>
<path d="M71.1239 40.4419H62.3012C61.8291 40.4419 61.4463 40.8247 61.4463 41.2968V42.6007C61.4463 43.0729 61.8291 43.4557 62.3012 43.4557H71.1239C71.5961 43.4557 71.9789 43.0729 71.9789 42.6007V41.2968C71.9789 40.8247 71.5961 40.4419 71.1239 40.4419Z" fill="#FFBC0E"/>
<path d="M71.1247 43.8458H62.302C61.9717 43.8458 61.6549 43.7146 61.4214 43.4811C61.1878 43.2475 61.0566 42.9308 61.0566 42.6005V41.2966C61.0566 40.9663 61.1878 40.6496 61.4214 40.416C61.6549 40.1825 61.9717 40.0513 62.302 40.0513H71.1247C71.4549 40.0513 71.7717 40.1825 72.0052 40.416C72.2388 40.6496 72.37 40.9663 72.37 41.2966V42.6005C72.37 42.9308 72.2388 43.2475 72.0052 43.4811C71.7717 43.7146 71.4549 43.8458 71.1247 43.8458ZM62.302 40.832C62.1788 40.832 62.0606 40.881 61.9735 40.9681C61.8864 41.0552 61.8374 41.1734 61.8374 41.2966V42.6005C61.8384 42.7234 61.8877 42.8409 61.9746 42.9278C62.0615 43.0147 62.1791 43.064 62.302 43.065H71.1247C71.2479 43.065 71.366 43.0161 71.4531 42.929C71.5403 42.8419 71.5892 42.7237 71.5892 42.6005V41.2966C71.5892 41.1734 71.5403 41.0552 71.4531 40.9681C71.366 40.881 71.2479 40.832 71.1247 40.832H62.302Z" fill="#093F68"/>
<path d="M70.3905 37.4282H61.5678C61.0957 37.4282 60.7129 37.811 60.7129 38.2832V39.587C60.7129 40.0592 61.0957 40.442 61.5678 40.442H70.3905C70.8627 40.442 71.2455 40.0592 71.2455 39.587V38.2832C71.2455 37.811 70.8627 37.4282 70.3905 37.4282Z" fill="#FFBC0E"/>
<path d="M70.3942 40.8321H61.5715C61.2409 40.8321 60.9237 40.7011 60.6895 40.4676C60.4554 40.2342 60.3233 39.9174 60.3223 39.5868V38.2829C60.3233 37.9523 60.4554 37.6355 60.6895 37.4021C60.9237 37.1687 61.2409 37.0376 61.5715 37.0376H70.3942C70.7245 37.0376 71.0412 37.1688 71.2748 37.4023C71.5083 37.6359 71.6395 37.9526 71.6395 38.2829V39.5868C71.6395 39.9171 71.5083 40.2338 71.2748 40.4674C71.0412 40.7009 70.7245 40.8321 70.3942 40.8321ZM61.5715 37.8184C61.5102 37.8179 61.4493 37.8295 61.3925 37.8526C61.3357 37.8757 61.284 37.9099 61.2405 37.953C61.1969 37.9962 61.1624 38.0476 61.1388 38.1042C61.1152 38.1609 61.103 38.2216 61.103 38.2829V39.5868C61.1041 39.7104 61.1539 39.8285 61.2416 39.9155C61.3294 40.0026 61.4479 40.0514 61.5715 40.0514H70.3942C70.5171 40.0503 70.6347 40.0011 70.7216 39.9142C70.8085 39.8273 70.8577 39.7097 70.8587 39.5868V38.2829C70.8587 38.1597 70.8098 38.0416 70.7227 37.9544C70.6356 37.8673 70.5174 37.8184 70.3942 37.8184H61.5715Z" fill="#093F68"/>
<path d="M72.3964 34.4146H63.5737C63.1015 34.4146 62.7188 34.7973 62.7188 35.2695V36.5734C62.7188 37.0455 63.1015 37.4283 63.5737 37.4283H72.3964C72.8686 37.4283 73.2513 37.0455 73.2513 36.5734V35.2695C73.2513 34.7973 72.8686 34.4146 72.3964 34.4146Z" fill="#FFBC0E"/>
<path d="M72.3971 37.8185H63.5744C63.2441 37.8185 62.9274 37.6873 62.6938 37.4537C62.4603 37.2202 62.3291 36.9034 62.3291 36.5731V35.2693C62.3291 34.939 62.4603 34.6222 62.6938 34.3887C62.9274 34.1551 63.2441 34.0239 63.5744 34.0239H72.3971C72.7274 34.0239 73.0442 34.1551 73.2777 34.3887C73.5112 34.6222 73.6424 34.939 73.6424 35.2693V36.5614C73.644 36.7259 73.6129 36.8891 73.551 37.0416C73.4891 37.194 73.3977 37.3327 73.2819 37.4496C73.1661 37.5665 73.0283 37.6592 72.8764 37.7226C72.7245 37.7859 72.5616 37.8185 72.3971 37.8185ZM63.5744 34.8047C63.4512 34.8047 63.3331 34.8536 63.2459 34.9408C63.1588 35.0279 63.1099 35.146 63.1099 35.2693V36.5614C63.1099 36.6846 63.1588 36.8028 63.2459 36.8899C63.3331 36.977 63.4512 37.026 63.5744 37.026H72.3971C72.5203 37.026 72.6385 36.977 72.7256 36.8899C72.8127 36.8028 72.8617 36.6846 72.8617 36.5614V35.2575C72.8617 35.1343 72.8127 35.0162 72.7256 34.929C72.6385 34.8419 72.5203 34.793 72.3971 34.793L63.5744 34.8047Z" fill="#093F68"/>
<path d="M70.3905 31.4004H61.5678C61.0957 31.4004 60.7129 31.7832 60.7129 32.2553V33.5592C60.7129 34.0314 61.0957 34.4142 61.5678 34.4142H70.3905C70.8627 34.4142 71.2455 34.0314 71.2455 33.5592V32.2553C71.2455 31.7832 70.8627 31.4004 70.3905 31.4004Z" fill="#FFBC0E"/>
<path d="M70.3942 34.8048H61.5715C61.2409 34.8048 60.9237 34.6737 60.6895 34.4403C60.4554 34.2069 60.3233 33.8901 60.3223 33.5595V32.2673C60.3233 31.9367 60.4554 31.6199 60.6895 31.3865C60.9237 31.153 61.2409 31.022 61.5715 31.022H70.3942C70.7245 31.022 71.0412 31.1532 71.2748 31.3867C71.5083 31.6203 71.6395 31.937 71.6395 32.2673V33.5712C71.6364 33.8994 71.5039 34.2132 71.2707 34.4442C71.0374 34.6752 70.7224 34.8048 70.3942 34.8048ZM61.5715 31.791C61.4479 31.791 61.3294 31.8398 61.2416 31.9269C61.1539 32.0139 61.1041 32.132 61.103 32.2556V33.5595C61.103 33.6208 61.1152 33.6815 61.1388 33.7382C61.1624 33.7948 61.1969 33.8462 61.2405 33.8894C61.284 33.9325 61.3357 33.9667 61.3925 33.9898C61.4493 34.0129 61.5102 34.0245 61.5715 34.024H70.3942C70.5174 34.024 70.6356 33.9751 70.7227 33.888C70.8098 33.8008 70.8587 33.6827 70.8587 33.5595V32.2673C70.8577 32.1444 70.8085 32.0268 70.7216 31.9399C70.6347 31.853 70.5171 31.8038 70.3942 31.8027L61.5715 31.791Z" fill="#093F68"/>
<path d="M85.0565 40.4419H76.2338C75.7617 40.4419 75.3789 40.8247 75.3789 41.2968V42.6007C75.3789 43.0729 75.7617 43.4557 76.2338 43.4557H85.0565C85.5287 43.4557 85.9115 43.0729 85.9115 42.6007V41.2968C85.9115 40.8247 85.5287 40.4419 85.0565 40.4419Z" fill="#FFBC0E"/>
<path d="M85.0573 43.8458H76.2307C75.9004 43.8458 75.5836 43.7146 75.3501 43.4811C75.1166 43.2475 74.9854 42.9308 74.9854 42.6005V41.2966C74.9854 40.9663 75.1166 40.6496 75.3501 40.416C75.5836 40.1825 75.9004 40.0513 76.2307 40.0513H85.0534C85.3837 40.0513 85.7004 40.1825 85.934 40.416C86.1675 40.6496 86.2987 40.9663 86.2987 41.2966V42.6005C86.2987 42.9301 86.168 43.2462 85.9353 43.4797C85.7026 43.7131 85.3869 43.8448 85.0573 43.8458ZM76.2307 40.832C76.1075 40.832 75.9893 40.881 75.9022 40.9681C75.8151 41.0552 75.7661 41.1734 75.7661 41.2966V42.6005C75.7661 42.7237 75.8151 42.8419 75.9022 42.929C75.9893 43.0161 76.1075 43.065 76.2307 43.065H85.0534C85.1766 43.065 85.2947 43.0161 85.3819 42.929C85.469 42.8419 85.5179 42.7237 85.5179 42.6005V41.2966C85.5179 41.1734 85.469 41.0552 85.3819 40.9681C85.2947 40.881 85.1766 40.832 85.0534 40.832H76.2307Z" fill="#093F68"/>
<path d="M84.3231 37.4282H75.5005C75.0283 37.4282 74.6455 37.811 74.6455 38.2832V39.587C74.6455 40.0592 75.0283 40.442 75.5005 40.442H84.3231C84.7953 40.442 85.1781 40.0592 85.1781 39.587V38.2832C85.1781 37.811 84.7953 37.4282 84.3231 37.4282Z" fill="#FFBC0E"/>
<path d="M84.3229 40.8321H75.5002C75.1699 40.8321 74.8532 40.7009 74.6196 40.4674C74.3861 40.2338 74.2549 39.9171 74.2549 39.5868V38.2829C74.2549 37.9526 74.3861 37.6359 74.6196 37.4023C74.8532 37.1688 75.1699 37.0376 75.5002 37.0376H84.3229C84.6532 37.0376 84.9699 37.1688 85.2035 37.4023C85.437 37.6359 85.5682 37.9526 85.5682 38.2829V39.5868C85.5682 39.9171 85.437 40.2338 85.2035 40.4674C84.9699 40.7009 84.6532 40.8321 84.3229 40.8321ZM75.5002 37.8184C75.377 37.8184 75.2588 37.8673 75.1717 37.9544C75.0846 38.0416 75.0357 38.1597 75.0357 38.2829V39.5868C75.0367 39.7097 75.0859 39.8273 75.1728 39.9142C75.2598 40.0011 75.3773 40.0503 75.5002 40.0514H84.3229C84.4461 40.0514 84.5643 40.0024 84.6514 39.9153C84.7385 39.8282 84.7875 39.71 84.7875 39.5868V38.2829C84.7875 38.1597 84.7385 38.0416 84.6514 37.9544C84.5643 37.8673 84.4461 37.8184 84.3229 37.8184H75.5002Z" fill="#093F68"/>
<path d="M84.3778 34.4146H75.5551C75.083 34.4146 74.7002 34.7973 74.7002 35.2695V36.5734C74.7002 37.0455 75.083 37.4283 75.5551 37.4283H84.3778C84.85 37.4283 85.2328 37.0455 85.2328 36.5734V35.2695C85.2328 34.7973 84.85 34.4146 84.3778 34.4146Z" fill="#FFBC0E"/>
<path d="M84.3776 37.8185H75.5549C75.2246 37.8185 74.9079 37.6873 74.6743 37.4537C74.4408 37.2202 74.3096 36.9034 74.3096 36.5731V35.2693C74.3096 34.939 74.4408 34.6222 74.6743 34.3887C74.9079 34.1551 75.2246 34.0239 75.5549 34.0239H84.3776C84.7079 34.0239 85.0246 34.1551 85.2582 34.3887C85.4917 34.6222 85.6229 34.939 85.6229 35.2693V36.5614C85.6245 36.7259 85.5934 36.8891 85.5315 37.0416C85.4696 37.194 85.3781 37.3327 85.2623 37.4496C85.1465 37.5665 85.0087 37.6592 84.8569 37.7226C84.705 37.7859 84.5421 37.8185 84.3776 37.8185ZM75.5549 34.8047C75.4317 34.8047 75.3135 34.8536 75.2264 34.9408C75.1393 35.0279 75.0903 35.146 75.0903 35.2693V36.5614C75.0903 36.6846 75.1393 36.8028 75.2264 36.8899C75.3135 36.977 75.4317 37.026 75.5549 37.026H84.3776C84.5008 37.026 84.619 36.977 84.7061 36.8899C84.7932 36.8028 84.8422 36.6846 84.8422 36.5614V35.2575C84.8422 35.1343 84.7932 35.0162 84.7061 34.929C84.619 34.8419 84.5008 34.793 84.3776 34.793L75.5549 34.8047Z" fill="#093F68"/>
<path d="M84.3231 31.4004H75.5005C75.0283 31.4004 74.6455 31.7832 74.6455 32.2553V33.5592C74.6455 34.0314 75.0283 34.4142 75.5005 34.4142H84.3231C84.7953 34.4142 85.1781 34.0314 85.1781 33.5592V32.2553C85.1781 31.7832 84.7953 31.4004 84.3231 31.4004Z" fill="#FFBC0E"/>
<path d="M84.3229 34.8048H75.5002C75.1699 34.8048 74.8532 34.6736 74.6196 34.4401C74.3861 34.2065 74.2549 33.8898 74.2549 33.5595V32.2673C74.2549 31.937 74.3861 31.6203 74.6196 31.3867C74.8532 31.1532 75.1699 31.022 75.5002 31.022H84.3229C84.6532 31.022 84.9699 31.1532 85.2035 31.3867C85.437 31.6203 85.5682 31.937 85.5682 32.2673V33.5712C85.5651 33.8994 85.4326 34.2132 85.1994 34.4442C84.9662 34.6752 84.6512 34.8048 84.3229 34.8048ZM75.5002 31.791C75.3773 31.7921 75.2598 31.8413 75.1728 31.9282C75.0859 32.0151 75.0367 32.1327 75.0357 32.2556V33.5595C75.0357 33.6827 75.0846 33.8008 75.1717 33.888C75.2588 33.9751 75.377 34.024 75.5002 34.024H84.3229C84.4461 34.024 84.5643 33.9751 84.6514 33.888C84.7385 33.8008 84.7875 33.6827 84.7875 33.5595V32.2673C84.7875 32.1441 84.7385 32.0259 84.6514 31.9388C84.5643 31.8517 84.4461 31.8027 84.3229 31.8027L75.5002 31.791Z" fill="#093F68"/>
<path d="M73.8491 17.1789C74.3335 17.1015 74.8293 17.1375 75.2974 17.2843C75.5289 17.366 75.7255 17.5244 75.8547 17.7331C75.9839 17.9418 76.038 18.1884 76.0079 18.432C75.9858 18.544 75.9216 18.6432 75.8284 18.7092C75.7589 18.7495 75.6818 18.7747 75.6019 18.7834C74.6396 18.9699 73.6672 19.1002 72.6897 19.1737C71.9909 19.2206 70.2224 19.4782 70.1444 18.3305C70.0741 17.3155 71.011 17.4482 71.6825 17.3506C72.3539 17.253 73.1269 17.2413 73.8491 17.1789Z" fill="#093F68"/>
<path d="M71.7016 19.603C71.1561 19.6446 70.613 19.4971 70.1635 19.1853C70.0447 19.0777 69.949 18.9471 69.8819 18.8016C69.8148 18.656 69.7778 18.4984 69.7731 18.3382C69.6911 17.1124 70.7412 17.0265 71.3073 16.9757C71.4244 16.9757 71.5376 16.9757 71.6469 16.9445C72.1014 16.8835 72.5588 16.847 73.0172 16.8352C73.2905 16.8352 73.5637 16.8118 73.837 16.7884C74.3828 16.704 74.9408 16.7509 75.4649 16.925C75.7836 17.0392 76.0522 17.2615 76.2241 17.5532C76.396 17.8448 76.4603 18.1875 76.4057 18.5217C76.3607 18.7308 76.2379 18.915 76.0622 19.037C75.9479 19.1038 75.8221 19.1488 75.6913 19.1697C74.7133 19.3567 73.7253 19.487 72.7322 19.5601H72.5292C72.2794 19.5796 71.9983 19.603 71.7016 19.603ZM73.8838 17.5691C73.5989 17.5925 73.3139 17.6043 73.0289 17.616C72.5981 17.6263 72.1681 17.6588 71.7406 17.7136C71.6157 17.7136 71.4869 17.7448 71.3502 17.7565C70.6085 17.819 70.4992 17.8853 70.5304 18.2835C70.5292 18.3422 70.5412 18.4004 70.5655 18.4538C70.5898 18.5072 70.6259 18.5544 70.671 18.5919C71.0262 18.8964 71.9475 18.8223 72.4433 18.7793H72.658C73.6208 18.7151 74.5789 18.5939 75.5274 18.4163H75.6132C75.6132 18.4163 75.6132 18.4163 75.6132 18.3733C75.6796 18.104 75.422 17.7995 75.137 17.6823C74.7265 17.5618 74.2943 17.5352 73.8721 17.6043L73.8838 17.5691Z" fill="#093F68"/>
<path d="M72.8384 28.3827V27.8635C72.651 27.8127 72.4676 27.7737 72.2919 27.7112C71.9701 27.6145 71.6891 27.4145 71.4922 27.1422C71.2954 26.8698 71.1936 26.5403 71.2027 26.2044H72.2177C72.2242 26.3796 72.2881 26.5479 72.3995 26.6833C72.5109 26.8187 72.6638 26.9138 72.8345 26.9539V25.5797C72.6315 25.5212 72.4441 25.4665 72.2294 25.4002C72.0088 25.3401 71.8072 25.2245 71.6438 25.0644C71.469 24.893 71.3541 24.6699 71.3159 24.4281C71.2544 24.1352 71.2761 23.831 71.3784 23.5497C71.4522 23.346 71.5703 23.1611 71.7242 23.0085C71.8782 22.856 72.064 22.7395 72.2685 22.6675C72.436 22.6127 72.6068 22.5684 72.7799 22.5347H72.8384V21.8477H73.7871V21.914C73.7871 22.1131 73.7871 22.3044 73.7871 22.5035C73.7871 22.5503 73.7871 22.566 73.8495 22.5777C74.1716 22.6319 74.475 22.7662 74.7318 22.9681C75.0018 23.1908 75.1809 23.5046 75.2354 23.8503C75.2354 23.944 75.2588 24.0377 75.2705 24.1353H74.2399C74.238 23.9949 74.1948 23.8582 74.1156 23.7423C74.0365 23.6263 73.9249 23.5363 73.7949 23.4834V24.7638L73.9042 24.7912C74.1827 24.845 74.454 24.9315 74.7123 25.0488C74.906 25.1333 75.0732 25.2686 75.1962 25.4405C75.3192 25.6123 75.3935 25.8142 75.4111 26.0248C75.472 26.4173 75.3767 26.8182 75.1456 27.1413C74.9516 27.4076 74.6783 27.6058 74.3648 27.7073C74.1774 27.7737 73.9744 27.8166 73.7753 27.8713V28.3749L72.8384 28.3827ZM73.791 25.7749V26.9695C73.9445 26.9456 74.0888 26.8809 74.2087 26.7821C74.2698 26.7314 74.3186 26.6675 74.3513 26.5951C74.3841 26.5228 74.3999 26.4439 74.3977 26.3646C74.3954 26.2852 74.3751 26.2073 74.3383 26.137C74.3015 26.0666 74.2492 26.0055 74.1853 25.9584C74.0576 25.8895 73.9259 25.8282 73.791 25.7749ZM72.8345 24.553V23.4014C72.7117 23.4562 72.5918 23.5175 72.4754 23.5849C72.4086 23.633 72.3547 23.6969 72.3185 23.7709C72.2824 23.8449 72.2651 23.9267 72.2682 24.009C72.2713 24.0913 72.2947 24.1715 72.3363 24.2426C72.3779 24.3137 72.4364 24.3734 72.5066 24.4164C72.6081 24.4593 72.7174 24.5062 72.8345 24.553Z" fill="#093F68"/>
<path d="M60.8217 21.3091C60.7309 21.3111 60.6423 21.2814 60.571 21.2251C60.4998 21.1688 60.4504 21.0895 60.4313 21.0007C59.9746 18.8184 58.5692 18.7872 58.5106 18.7872C58.4147 18.7879 58.3219 18.7533 58.2499 18.6899C58.1779 18.6265 58.1318 18.5389 58.1202 18.4437C58.1085 18.3503 58.1308 18.2558 58.1832 18.1777C58.2356 18.0995 58.3144 18.0428 58.4052 18.0182C60.3962 17.4872 60.3572 15.9725 60.3572 15.9062C60.3518 15.8549 60.3565 15.8031 60.3712 15.7537C60.3858 15.7042 60.4101 15.6582 60.4425 15.6181C60.475 15.5781 60.515 15.5448 60.5603 15.5202C60.6056 15.4956 60.6553 15.4802 60.7065 15.4748C60.7578 15.4694 60.8096 15.4742 60.8591 15.4888C60.9085 15.5035 60.9545 15.5277 60.9946 15.5602C61.0347 15.5926 61.0679 15.6326 61.0925 15.6779C61.1171 15.7232 61.1325 15.7729 61.1379 15.8242C61.4697 17.8698 62.9337 17.823 63.0898 17.8113C63.1934 17.8009 63.2968 17.8321 63.3773 17.898C63.4579 17.9639 63.5089 18.0591 63.5193 18.1626C63.5296 18.2661 63.4984 18.3695 63.4325 18.4501C63.3666 18.5306 63.2715 18.5817 63.1679 18.592C61.4112 18.7989 61.216 20.868 61.216 20.9578C61.2077 21.0512 61.1661 21.1385 61.0987 21.2037C61.0313 21.2689 60.9427 21.3077 60.849 21.313L60.8217 21.3091ZM59.6506 18.35C60.1386 18.6496 60.5303 19.0832 60.7788 19.5992C61.0062 19.0722 61.3701 18.6154 61.8328 18.2758C61.3891 18.0353 61.0255 17.6702 60.7866 17.2257C60.5149 17.695 60.1227 18.0832 59.6506 18.35Z" fill="#DFEAEF"/>
<path d="M65.3777 11.1085C65.2869 11.1106 65.1982 11.0809 65.127 11.0246C65.0557 10.9683 65.0063 10.8889 64.9873 10.8001C64.6359 9.12929 63.578 9.09806 63.535 9.09806C63.4391 9.09875 63.3463 9.06411 63.2743 9.00075C63.2023 8.93739 63.1562 8.84974 63.1447 8.75452C63.1329 8.66116 63.1553 8.56669 63.2076 8.4885C63.26 8.41031 63.3388 8.35367 63.4296 8.329C64.9482 7.93862 64.9209 6.76746 64.9209 6.72843C64.9204 6.63131 64.9562 6.5375 65.0211 6.46531C65.0861 6.39313 65.1756 6.34775 65.2723 6.33804C65.3711 6.32774 65.4702 6.35553 65.5492 6.41573C65.6283 6.47594 65.6814 6.56404 65.6978 6.66206C65.9476 8.2236 67.0485 8.18456 67.1734 8.17675C67.2758 8.16918 67.377 8.2022 67.4552 8.26869C67.5333 8.33517 67.5822 8.42977 67.5911 8.532C67.6 8.63315 67.569 8.73376 67.5049 8.81247C67.4407 8.89119 67.3485 8.94182 67.2476 8.95362C65.9164 9.10977 65.7602 10.6986 65.7563 10.7689C65.748 10.8623 65.7064 10.9496 65.639 11.0149C65.5716 11.0801 65.483 11.1189 65.3894 11.1242L65.3777 11.1085ZM64.5969 8.67254C64.9048 8.88532 65.1598 9.16575 65.3425 9.49235C65.5096 9.15717 65.7466 8.86167 66.0374 8.62569C65.7595 8.44773 65.5259 8.20874 65.3542 7.92691C65.1568 8.22707 64.8972 8.48134 64.593 8.67254H64.5969Z" fill="#DFEAEF"/>
<path d="M85.1779 20.1964C85.0872 20.1984 84.9985 20.1687 84.9273 20.1124C84.856 20.0561 84.8066 19.9768 84.7876 19.888C84.1747 16.9835 82.2852 16.9484 82.2032 16.9484C82.1519 16.955 82.0999 16.9515 82.0499 16.9381C82 16.9246 81.9533 16.9015 81.9123 16.8699C81.8296 16.8062 81.7755 16.7123 81.7621 16.6087C81.7486 16.5052 81.7768 16.4006 81.8405 16.3178C81.9042 16.2351 81.9982 16.1811 82.1017 16.1676C84.7563 15.4571 84.6939 13.4349 84.69 13.3373C84.6894 13.2408 84.7245 13.1475 84.7887 13.0754C84.8529 13.0033 84.9415 12.9575 85.0374 12.9469C85.1362 12.9366 85.2353 12.9644 85.3144 13.0246C85.3934 13.0848 85.4466 13.1729 85.4629 13.2709C85.9158 16.0544 88.0121 15.9256 88.1019 15.9178C88.2036 15.9101 88.3043 15.9426 88.3824 16.0083C88.4604 16.074 88.5097 16.1676 88.5196 16.2691C88.5296 16.3703 88.4997 16.4714 88.4362 16.5508C88.3728 16.6303 88.2809 16.6819 88.18 16.6946C85.8377 16.9718 85.5683 19.724 85.5566 19.8411C85.5484 19.9339 85.5073 20.0207 85.4408 20.0859C85.3742 20.151 85.2865 20.1902 85.1935 20.1964H85.1779ZM83.4798 16.4838C84.2106 16.9511 84.7792 17.6329 85.1077 18.4357C85.4048 17.6023 85.9653 16.8883 86.7043 16.4018C86.012 16.074 85.4586 15.5109 85.1428 14.813C84.7847 15.5358 84.2009 16.1223 83.4798 16.4838Z" fill="#DFEAEF"/>
</g>
<defs>
<clipPath id="clip0_563_337">
<rect width="90" height="70" fill="white"/>
</clipPath>
</defs>
</svg>
