<svg width="96" height="70" viewBox="0 0 96 70" fill="none" xmlns="http://www.w3.org/2000/svg">
<g clip-path="url(#clip0_563_584)">
<path d="M75.6855 1.78868C74.6745 1.25504 73.5783 0.901553 72.446 0.744071C70.9194 0.550848 69.3689 0.708712 67.9126 1.20563C66.4563 1.70254 65.1327 2.52539 64.0426 3.61145C61.5051 6.18278 60.266 10.4458 59.8135 13.9391C59.2103 18.6071 58.856 23.3039 58.752 28.0095C58.787 28.481 58.8779 28.9466 59.0226 29.3967C59.0226 29.3967 64.7658 34.8142 77.2461 33.279C81.1539 32.7969 85.1039 32.6235 89.0286 32.1583C88.5464 28.8892 88.7875 25.5481 88.3477 22.3086C87.9755 19.5892 87.5314 16.8783 87.2777 14.1082C87.0239 11.3381 86.8209 7.66722 84.1904 6.07282C83.536 5.68365 82.8008 5.45033 82.0418 5.39093C81.2827 5.33152 80.5202 5.44763 79.8132 5.73026C78.8457 4.04627 77.4123 2.67756 75.6855 1.78868Z" fill="#725858"/>
<path d="M72.839 33.9809C63.3657 33.9809 58.9208 29.9082 58.7136 29.7094C58.6605 29.6597 58.6212 29.597 58.5994 29.5276C58.4348 29.0339 58.3366 28.5205 58.3076 28.0009C58.4117 23.281 58.7674 18.5701 59.3734 13.8881C59.7328 11.228 60.7732 6.3137 63.7379 3.31522C64.8756 2.18397 66.2558 1.32648 67.774 0.807707C69.2923 0.288934 70.9086 0.122484 72.5007 0.320965C73.683 0.481622 74.8281 0.848042 75.884 1.40363C77.5654 2.28374 78.9804 3.598 79.9821 5.20988C80.7108 4.97659 81.4808 4.90044 82.2411 4.98646C83.0014 5.07248 83.7349 5.31871 84.3931 5.70892C87.0786 7.33715 87.4085 10.9996 87.6453 13.6682L87.6834 14.0911C87.8695 16.1169 88.1613 18.1469 88.4404 20.1092C88.5462 20.8324 88.6477 21.5514 88.7492 22.2703C88.9648 23.8647 89.0198 25.5057 89.0748 27.0916C89.0984 28.7717 89.217 30.4491 89.4301 32.1158C89.4384 32.1718 89.4354 32.2288 89.4213 32.2836C89.4072 32.3383 89.3822 32.3897 89.3479 32.4346C89.3136 32.4796 89.2707 32.5172 89.2216 32.5453C89.1725 32.5733 89.1183 32.5912 89.0621 32.598C87.1548 32.8263 85.2136 32.9828 83.3401 33.1393C81.3481 33.3 79.2885 33.4692 77.2839 33.7187C75.809 33.8964 74.3246 33.984 72.839 33.9809ZM59.3734 29.1639C60.1008 29.7813 65.8355 34.2389 77.1739 32.8602C79.1997 32.6107 81.2678 32.4373 83.2639 32.2766C84.9937 32.137 86.7741 31.989 88.5292 31.7902C88.3305 30.2254 88.2755 28.6395 88.2247 27.1001C88.1994 25.5182 88.0935 23.9387 87.9076 22.3676C87.8061 21.6487 87.7045 20.9297 87.5988 20.215C87.3155 18.2399 87.0237 16.2015 86.8376 14.1503L86.7995 13.7274C86.5627 11.0969 86.2709 7.80659 83.9491 6.4152C83.3512 6.06075 82.68 5.84821 81.9872 5.79395C81.2943 5.7397 80.5982 5.84516 79.9525 6.10223C79.8573 6.14143 79.7512 6.14459 79.6538 6.11111C79.5565 6.07764 79.4747 6.00982 79.4238 5.92038C78.4992 4.31011 77.1329 2.99815 75.4865 2.13951C74.5177 1.6371 73.4686 1.30791 72.3865 1.1668C70.9268 0.987046 69.4453 1.14065 68.0535 1.61606C66.6617 2.09147 65.3958 2.87631 64.3511 3.91153C61.5641 6.73661 60.5702 11.4437 60.2234 13.9981C59.6225 18.6521 59.2695 23.3347 59.1661 28.0262C59.189 28.4124 59.2585 28.7944 59.3734 29.1639Z" fill="#093F68"/>
<path d="M67.4344 31.8242H76.6752C77.5378 31.8226 78.3924 31.991 79.1899 32.3198C79.9874 32.6487 80.7123 33.1315 81.3231 33.7407C81.9339 34.3499 82.4186 35.0735 82.7495 35.8702C83.0804 36.6669 83.251 37.521 83.2515 38.3837V49.5571H60.875V38.3837C60.8761 36.6443 61.5676 34.9766 62.7975 33.7467C64.0273 32.5168 65.6951 31.8254 67.4344 31.8242Z" fill="#FFBC0E"/>
<path d="M83.2516 49.9842H60.8751C60.7629 49.9842 60.6553 49.9396 60.576 49.8603C60.4967 49.781 60.4521 49.6734 60.4521 49.5612V38.3836C60.4544 36.532 61.1906 34.7569 62.4994 33.4473C63.8083 32.1376 65.583 31.4003 67.4345 31.397H76.6752C78.5297 31.3959 80.3087 32.1312 81.6212 33.4413C82.9337 34.7514 83.6723 36.5291 83.6745 38.3836V49.557C83.6751 49.6129 83.6645 49.6684 83.6435 49.7202C83.6225 49.772 83.5915 49.8191 83.5521 49.8588C83.5128 49.8985 83.466 49.9301 83.4144 49.9516C83.3628 49.9731 83.3075 49.9842 83.2516 49.9842ZM61.298 49.1383H82.8287V38.3836C82.8253 36.7542 82.1754 35.1927 81.0216 34.0421C79.8679 32.8915 78.3046 32.2459 76.6752 32.247H67.4345C65.808 32.2504 64.2491 32.898 63.099 34.0481C61.9489 35.1982 61.3013 36.7571 61.298 38.3836V49.1383Z" fill="#093F68"/>
<path d="M73.7226 32.4375L70.8172 44.6513L70.001 32.6955L73.7226 32.4375Z" fill="white"/>
<path d="M70.8181 45.0738H70.78C70.6795 45.065 70.5855 45.0205 70.5149 44.9483C70.4443 44.8762 70.4018 44.7812 70.3952 44.6805L69.5789 32.7247C69.572 32.6131 69.6094 32.5034 69.6831 32.4194C69.7568 32.3354 69.8608 32.284 69.9723 32.2764L73.6939 32.0142C73.7599 32.0097 73.8261 32.0207 73.8871 32.0464C73.948 32.0721 74.0021 32.1118 74.0449 32.1622C74.088 32.2129 74.1184 32.273 74.1338 32.3377C74.1493 32.4023 74.1492 32.4697 74.1338 32.5344L71.2283 44.7482C71.2065 44.8407 71.1541 44.9231 71.0797 44.9822C71.0053 45.0412 70.9131 45.0735 70.8181 45.0738ZM70.4502 33.0884L71.0507 41.847L73.1653 32.8981L70.4502 33.0884Z" fill="#093F68"/>
<path d="M71.9482 34.2821L71.433 34.2556C71.0364 34.2351 70.6643 34.058 70.3983 33.7632C70.1324 33.4683 69.9944 33.0799 70.0149 32.6834L70.1191 30.6603L73.6374 30.8416L73.5331 32.8647C73.5229 33.0621 73.4738 33.2555 73.3885 33.4339C73.3031 33.6122 73.1834 33.7718 73.036 33.9036C72.8887 34.0354 72.7167 34.1367 72.53 34.2016C72.3433 34.2666 72.1456 34.294 71.9482 34.2821Z" fill="#FFC9B0"/>
<path d="M72.0233 34.7209H71.9218L71.3932 34.6956C70.8849 34.6682 70.4081 34.4406 70.0673 34.0625C69.7264 33.6844 69.5493 33.1867 69.5747 32.6783L69.6804 30.6567C69.6831 30.6012 69.6967 30.5467 69.7205 30.4964C69.7443 30.4461 69.7778 30.401 69.8191 30.3637C69.8603 30.3264 69.9085 30.2976 69.9609 30.2789C70.0133 30.2602 70.0689 30.2521 70.1244 30.2549L73.6389 30.4368C73.6944 30.4395 73.7489 30.4532 73.7992 30.477C73.8495 30.5007 73.8946 30.5342 73.9319 30.5755C73.9692 30.6167 73.998 30.6649 74.0167 30.7173C74.0354 30.7697 74.0435 30.8253 74.0406 30.8809L73.9349 32.9024C73.91 33.3931 73.698 33.8556 73.3424 34.1947C72.9868 34.5338 72.5147 34.7236 72.0233 34.7252V34.7209ZM71.4355 33.8455L71.9641 33.8709C72.1051 33.8807 72.2466 33.8614 72.3798 33.8141C72.5129 33.7668 72.6349 33.6926 72.7381 33.596C72.8436 33.5025 72.9294 33.3889 72.9905 33.2618C73.0515 33.1347 73.0864 32.9967 73.0933 32.8559L73.1737 31.253L70.5008 31.1177L70.4205 32.7206C70.4131 32.8611 70.4335 33.0017 70.4805 33.1344C70.5275 33.2671 70.6003 33.3891 70.6946 33.4936C70.7888 33.5981 70.9028 33.683 71.03 33.7434C71.1571 33.8038 71.2949 33.8385 71.4355 33.8455Z" fill="#093F68"/>
<path d="M65.8436 21.6628C65.9274 20.0369 64.8154 18.6581 63.3598 18.5831C61.9043 18.5081 60.6564 19.7653 60.5726 21.3911C60.4888 23.017 61.6009 24.3958 63.0564 24.4708C64.5119 24.5458 65.7598 23.2886 65.8436 21.6628Z" fill="#FFC9B0"/>
<path d="M63.1802 24.8923H63.0322C62.6207 24.8666 62.2194 24.7537 61.8549 24.5613C61.4903 24.3688 61.1708 24.101 60.9176 23.7758C60.384 23.0895 60.1151 22.2341 60.1601 21.366C60.2052 20.4978 60.5611 19.6749 61.1629 19.0475C61.4479 18.7464 61.7949 18.5107 62.1798 18.3567C62.5647 18.2026 62.9785 18.1338 63.3926 18.1552C63.8066 18.1765 64.2112 18.2873 64.5783 18.4801C64.9454 18.6728 65.2663 18.9429 65.5189 19.2717C66.0523 19.9599 66.3195 20.8175 66.2713 21.6869C66.2231 22.5562 65.8629 23.3791 65.2567 24.0041C64.9868 24.2825 64.6642 24.5044 64.3077 24.6569C63.9512 24.8094 63.5679 24.8894 63.1802 24.8923ZM63.2352 18.9968C62.9571 19.0002 62.6825 19.0592 62.4276 19.1703C62.1726 19.2814 61.9425 19.4425 61.7507 19.6439C61.2894 20.1182 61.0198 20.7463 60.9937 21.4074C60.9526 22.0685 61.1558 22.7217 61.5646 23.2429C61.7455 23.4767 61.974 23.6692 62.2351 23.8078C62.4961 23.9463 62.7837 24.0277 63.0787 24.0464C63.3737 24.0595 63.6681 24.0088 63.9417 23.8979C64.2154 23.787 64.462 23.6184 64.6646 23.4036C65.1265 22.928 65.3962 22.2983 65.4216 21.6358C65.4615 20.9748 65.2585 20.3221 64.8507 19.8003C64.6697 19.5671 64.441 19.3752 64.1799 19.2374C63.9188 19.0995 63.6313 19.019 63.3367 19.001L63.2352 18.9968Z" fill="#093F68"/>
<path d="M71.9297 31.6168C77.7152 31.9171 83.2597 25.0447 83.5515 19.3522L82.1474 19.7752L82.4054 15.749C82.4054 15.749 75.2538 13.461 76.383 10.1411C76.383 10.1411 74.1289 12.556 71.0754 12.391C65.4591 12.0865 63.336 10.4879 63.336 10.4879L62.8074 20.7817C62.5156 26.4826 66.1442 31.2996 71.9297 31.6168Z" fill="#FFC9B0"/>
<path d="M72.2852 32.0395C72.1583 32.0395 72.0314 32.0395 71.9088 32.0395C70.5353 31.9886 69.1882 31.6472 67.9562 31.0378C66.7242 30.4283 65.6354 29.5648 64.7615 28.5039C63.0379 26.3174 62.1905 23.5673 62.3847 20.7899L62.9134 10.4708C62.9171 10.394 62.9417 10.3198 62.9845 10.256C63.0273 10.1922 63.0867 10.1412 63.1563 10.1086C63.2258 10.076 63.303 10.0629 63.3794 10.0709C63.4558 10.0788 63.5286 10.1074 63.59 10.1536C63.6112 10.1536 65.7046 11.6845 71.0968 11.9721C73.9134 12.1201 76.0534 9.85754 76.0745 9.85754C76.1404 9.78674 76.2285 9.74065 76.3242 9.72693C76.4199 9.71322 76.5174 9.73271 76.6005 9.78216C76.6836 9.83162 76.7472 9.90804 76.7808 9.99871C76.8144 10.0894 76.8159 10.1888 76.785 10.2805C76.7039 10.5161 76.6729 10.7661 76.694 11.0145C76.7151 11.2628 76.7879 11.504 76.9077 11.7226C77.9903 13.871 82.4902 15.3343 82.5325 15.347C82.6216 15.3749 82.6989 15.4315 82.7525 15.508C82.806 15.5845 82.8328 15.6766 82.8285 15.7699L82.6128 19.1532L83.4417 18.9291C83.5066 18.9086 83.5754 18.904 83.6424 18.9158C83.7094 18.9276 83.7726 18.9554 83.8266 18.9968C83.8807 19.0383 83.9239 19.0923 83.9527 19.1541C83.9814 19.216 83.9947 19.2839 83.9915 19.352C83.8435 22.2321 82.4014 25.4632 80.1303 27.9922C77.8592 30.5212 74.9834 32.0395 72.2852 32.0395ZM63.7254 11.2109L63.2305 20.8153C63.0476 23.3826 63.827 25.926 65.417 27.9499C66.2144 28.9224 67.2092 29.7144 68.3356 30.2736C69.4621 30.8328 70.6944 31.1464 71.9511 31.1937C74.4886 31.329 77.2333 29.9588 79.4875 27.4466C81.4667 25.239 82.782 22.4816 83.078 19.9483L82.2787 20.2063C82.2138 20.2268 82.1448 20.2313 82.0778 20.2195C82.0107 20.2076 81.9475 20.1798 81.8935 20.1382C81.8395 20.0967 81.7964 20.0428 81.7677 19.981C81.7391 19.9192 81.7258 19.8514 81.7289 19.7834L81.9615 16.0829C80.8577 15.6896 77.2249 14.2643 76.1506 12.1371C75.9996 11.8449 75.9008 11.5286 75.8588 11.2024C74.501 12.3027 72.7976 12.887 71.0503 12.8518C67.0156 12.5854 64.7361 11.7395 63.7254 11.2109Z" fill="#093F68"/>
<path d="M76.0869 20.1842C76.114 19.6594 75.7085 19.2119 75.1814 19.1847C74.6542 19.1576 74.2049 19.561 74.1779 20.0858C74.1508 20.6107 74.5563 21.0582 75.0834 21.0853C75.6106 21.1125 76.0599 20.709 76.0869 20.1842Z" fill="#093F68"/>
<path d="M65.946 20.6167C66.4739 20.6167 66.9018 20.1887 66.9018 19.6609C66.9018 19.133 66.4739 18.7051 65.946 18.7051C65.4182 18.7051 64.9902 19.133 64.9902 19.6609C64.9902 20.1887 65.4182 20.6167 65.946 20.6167Z" fill="#093F68"/>
<path d="M70.1956 22.6255C69.8303 22.6337 69.4658 22.5895 69.113 22.4944C69.0171 22.4682 68.9288 22.4196 68.8553 22.3527C68.7818 22.2859 68.7252 22.2025 68.6901 22.1096C68.4363 21.4583 69.1806 20.0288 69.6501 19.2337C69.7117 19.1491 69.8025 19.0902 69.9049 19.0687C70.0073 19.0471 70.1142 19.0643 70.2047 19.1169C70.2952 19.1695 70.363 19.2538 70.3949 19.3535C70.4268 19.4532 70.4206 19.5613 70.3775 19.6567C69.9771 20.2919 69.6735 20.9832 69.4767 21.7078C69.896 21.7776 70.323 21.789 70.7454 21.7416C70.8576 21.7282 70.9705 21.7598 71.0593 21.8296C71.1482 21.8994 71.2056 22.0016 71.2191 22.1138C71.2326 22.226 71.2009 22.3389 71.1311 22.4277C71.0613 22.5165 70.9591 22.574 70.8469 22.5875C70.8469 22.5917 70.5636 22.6255 70.1956 22.6255Z" fill="#093F68"/>
<path d="M78.8571 18.2738H78.7894L74.2473 17.8847C74.0242 17.8653 73.8179 17.7583 73.6736 17.5871C73.5293 17.4158 73.4588 17.1944 73.4776 16.9712C73.4866 16.8604 73.5175 16.7524 73.5683 16.6535C73.6191 16.5546 73.689 16.4667 73.7738 16.3948C73.8587 16.3229 73.9569 16.2685 74.0628 16.2346C74.1687 16.2007 74.2803 16.188 74.3911 16.1973L78.9332 16.5864C79.0443 16.5911 79.1533 16.6176 79.2542 16.6645C79.355 16.7114 79.4456 16.7776 79.5208 16.8595C79.596 16.9414 79.6543 17.0373 79.6925 17.1417C79.7306 17.2461 79.7478 17.3571 79.7431 17.4681C79.7384 17.5792 79.7118 17.6883 79.6649 17.7891C79.6181 17.8899 79.5518 17.9805 79.4699 18.0557C79.388 18.1309 79.2922 18.1893 79.1877 18.2274C79.0833 18.2655 78.9724 18.2827 78.8613 18.278L78.8571 18.2738Z" fill="#093F68"/>
<path d="M69.6888 17.3308H69.5958L65.0664 16.8487C64.842 16.8251 64.6363 16.7134 64.4943 16.5381C64.3523 16.3628 64.2858 16.1383 64.3093 15.914C64.3329 15.6897 64.4446 15.4839 64.6199 15.3419C64.7952 15.2 65.0197 15.1334 65.244 15.157L69.7777 15.6434C70.002 15.6551 70.2124 15.7555 70.3627 15.9225C70.513 16.0894 70.5909 16.3093 70.5791 16.5336C70.5673 16.7579 70.4669 16.9684 70.2999 17.1187C70.133 17.269 69.9132 17.3468 69.6888 17.335V17.3308Z" fill="#093F68"/>
<path d="M81.4411 19.953C81.4411 19.953 84.0505 18.3374 85.2896 20.6508C86.5288 22.9641 85.0274 26.7238 80.9209 25.3959" fill="#FFC9B0"/>
<path d="M82.5198 26.0892C81.9316 26.0821 81.3481 25.9836 80.7901 25.7974C80.7371 25.7805 80.6879 25.7533 80.6454 25.7173C80.6029 25.6814 80.5678 25.6374 80.5423 25.5879C80.5168 25.5384 80.5012 25.4844 80.4966 25.4289C80.492 25.3735 80.4983 25.3176 80.5152 25.2646C80.5321 25.2115 80.5594 25.1623 80.5953 25.1198C80.6313 25.0773 80.6752 25.0423 80.7247 25.0167C80.7742 24.9912 80.8282 24.9757 80.8837 24.971C80.9392 24.9664 80.995 24.9727 81.0481 24.9897C82.5833 25.4887 83.852 25.2561 84.6175 24.3384C84.9961 23.8465 85.2257 23.2563 85.2789 22.6378C85.3322 22.0194 85.2068 21.3987 84.9178 20.8493C84.8114 20.6194 84.6571 20.4148 84.4653 20.2492C84.2735 20.0837 84.0485 19.961 83.8055 19.8893C82.8116 19.6186 81.6909 20.3122 81.6655 20.3122C81.6181 20.3415 81.5653 20.3612 81.5103 20.3701C81.4552 20.379 81.3989 20.3768 81.3447 20.3639C81.2904 20.3509 81.2393 20.3273 81.1942 20.2945C81.1491 20.2617 81.111 20.2203 81.0819 20.1726C81.024 20.0772 81.0062 19.9627 81.0323 19.8542C81.0584 19.7456 81.1265 19.6518 81.2215 19.5932C81.2765 19.5552 82.6679 18.7093 84.0212 19.0731C84.3767 19.1736 84.7069 19.3485 84.9897 19.5862C85.2726 19.8238 85.5018 20.1189 85.6621 20.4518C86.0341 21.1484 86.1947 21.9385 86.1241 22.7251C86.0535 23.5116 85.7547 24.2605 85.2646 24.8797C84.9278 25.2751 84.506 25.5892 84.0307 25.7987C83.5554 26.0081 83.0389 26.1075 82.5198 26.0892Z" fill="#093F68"/>
<path d="M71.0798 27.1213C69.8374 27.0775 68.6362 26.6653 67.6288 25.9371C67.5451 25.8674 67.4915 25.768 67.4793 25.6598C67.467 25.5515 67.497 25.4428 67.5629 25.3561C67.6289 25.2694 67.7258 25.2115 67.8334 25.1945C67.941 25.1774 68.051 25.2026 68.1405 25.2647C68.1405 25.2647 69.8702 26.5334 71.731 26.2162C72.8306 26.0174 73.7822 25.29 74.5604 24.0551C74.6204 23.9603 74.7156 23.8933 74.825 23.8687C74.9345 23.8441 75.0492 23.864 75.144 23.924C75.2388 23.984 75.3058 24.0792 75.3304 24.1887C75.355 24.2981 75.3351 24.4129 75.2751 24.5076C74.3616 25.954 73.2197 26.8083 71.8918 27.0451C71.6241 27.0961 71.3522 27.1216 71.0798 27.1213Z" fill="#093F68"/>
<path d="M65.7383 49.9841C65.6344 49.9848 65.5339 49.9473 65.4559 49.8787C65.3779 49.81 65.3278 49.7151 65.3154 49.6119L64.7783 45.1036C64.3274 44.1663 64.0127 43.1695 63.8436 42.1432C63.7518 41.4115 63.8463 40.6685 64.1184 39.9832C64.3905 39.2978 64.8313 38.6922 65.4 38.2228C65.4897 38.1555 65.6025 38.1266 65.7135 38.1424C65.8246 38.1583 65.9248 38.2176 65.9921 38.3074C66.0593 38.3971 66.0882 38.5099 66.0724 38.6209C66.0565 38.7319 65.9972 38.8321 65.9075 38.8994C65.4566 39.2806 65.1085 39.7687 64.895 40.3191C64.6815 40.8695 64.6093 41.4647 64.6852 42.0502C64.8473 43.008 65.1449 43.9379 65.5691 44.8118C65.5895 44.8547 65.6038 44.9003 65.6114 44.9471L66.157 49.5273C66.1635 49.5826 66.159 49.6386 66.1438 49.6922C66.1285 49.7457 66.1029 49.7957 66.0683 49.8393C66.0338 49.8829 65.9909 49.9193 65.9423 49.9463C65.8936 49.9733 65.8401 49.9905 65.7848 49.9968L65.7383 49.9841Z" fill="#093F68"/>
<path d="M78.168 49.9839C78.0559 49.9839 77.9483 49.9393 77.869 49.86C77.7897 49.7807 77.7451 49.6731 77.7451 49.561V38.544C77.7451 38.4318 77.7897 38.3243 77.869 38.245C77.9483 38.1657 78.0559 38.1211 78.168 38.1211C78.2802 38.1211 78.3878 38.1657 78.4671 38.245C78.5464 38.3243 78.591 38.4318 78.591 38.544V49.561C78.591 49.6731 78.5464 49.7807 78.4671 49.86C78.3878 49.9393 78.2802 49.9839 78.168 49.9839Z" fill="#093F68"/>
<path d="M80.3963 63.5134H17.7666V48.4702H95.0462L80.3963 63.5134Z" fill="#68E1FD"/>
<path d="M80.3964 63.9359H17.7667C17.6545 63.9359 17.5469 63.8913 17.4676 63.812C17.3883 63.7327 17.3438 63.6251 17.3438 63.5129V48.4698C17.3438 48.3576 17.3883 48.2501 17.4676 48.1707C17.5469 48.0914 17.6545 48.0469 17.7667 48.0469H95.0462C95.1285 48.048 95.2087 48.0731 95.2769 48.1191C95.3451 48.1651 95.3985 48.2301 95.4303 48.3059C95.4622 48.3818 95.4712 48.4653 95.4564 48.5463C95.4415 48.6272 95.4033 48.702 95.3465 48.7616L80.7009 63.809C80.6612 63.8494 80.6138 63.8815 80.5615 63.9033C80.5092 63.9251 80.4531 63.9362 80.3964 63.9359ZM18.1896 63.09H80.2188L94.0439 48.8927H18.1896V63.09Z" fill="#093F68"/>
<path d="M29.5837 33.0293C29.5837 33.0293 31.9647 36.142 31.0808 37.3811C30.1969 38.6203 28.0654 37.6349 28.0654 37.6349" fill="#FFC9B0"/>
<path d="M29.7016 38.4343C29.075 38.4135 28.4586 38.2698 27.8873 38.0114C27.7933 37.9598 27.7225 37.8745 27.689 37.7726C27.6556 37.6707 27.6621 37.5599 27.7073 37.4627C27.7524 37.3654 27.8328 37.289 27.9322 37.2487C28.0315 37.2085 28.1425 37.2075 28.2426 37.2459C28.2637 37.2459 30.0696 38.0706 30.7378 37.1275C31.2199 36.4509 30.1584 34.4674 29.2491 33.2748C29.187 33.1852 29.1619 33.0752 29.1789 32.9676C29.1959 32.86 29.2538 32.7632 29.3405 32.6972C29.4272 32.6312 29.536 32.6013 29.6442 32.6135C29.7525 32.6258 29.8518 32.6793 29.9215 32.763C30.3445 33.3255 32.459 36.1929 31.4271 37.6181C31.23 37.8869 30.969 38.1023 30.6678 38.2448C30.3665 38.3873 30.0344 38.4525 29.7016 38.4343Z" fill="#093F68"/>
<path d="M34.971 56.6451C34.9602 56.631 34.9517 56.6153 34.9457 56.5986C34.1717 54.9408 35.8972 52.3694 36.5866 50.8808C36.7388 50.5551 36.9714 50.1829 37.3309 50.1956C37.6904 50.2083 37.8765 50.572 37.9822 50.8977C38.0942 51.2817 38.179 51.6732 38.2359 52.0692C39.547 51.6209 40.8919 51.3206 42.2156 50.8004C42.6069 50.6194 43.032 50.5228 43.4632 50.517C43.6791 50.5188 43.8892 50.5872 44.0648 50.7129C44.2404 50.8385 44.373 51.0153 44.4444 51.2191C44.4683 51.4038 44.4524 51.5914 44.3977 51.7695C44.343 51.9475 44.2507 52.1117 44.1272 52.251C43.0445 53.7143 40.858 54.3191 40.3209 56.1884C39.9741 57.4106 39.9699 58.5398 39.4413 59.7916C39.4582 59.8043 35.432 57.3387 34.971 56.6451Z" fill="#FFC9B0"/>
<path d="M39.4587 60.2311C39.4033 60.2317 39.3484 60.2201 39.298 60.1973C39.2691 60.1875 39.242 60.1732 39.2176 60.155L39.0696 60.062C35.4917 57.8205 34.8404 57.1734 34.6248 56.8774C34.6029 56.8464 34.5831 56.8139 34.5655 56.7801C33.8508 55.2407 34.9462 53.1473 35.7455 51.6206C35.9189 51.2865 36.0838 50.9735 36.2107 50.7028C36.5025 50.0642 36.8831 49.747 37.3526 49.7724C37.822 49.7978 38.1984 50.1446 38.3887 50.7663C38.4666 51.0116 38.5288 51.2616 38.5748 51.5148C38.9977 51.3795 39.4206 51.2611 39.8139 51.1427C40.5583 50.927 41.328 50.7197 42.0681 50.4237C42.515 50.2179 43.0012 50.1111 43.4933 50.1107C43.7995 50.117 44.0959 50.2191 44.341 50.4027C44.5861 50.5863 44.7674 50.8421 44.8593 51.1342C44.9033 51.3798 44.8912 51.6322 44.8238 51.8724C44.7564 52.1126 44.6356 52.3345 44.4702 52.5214C43.9691 53.1309 43.3788 53.6612 42.7194 54.0946C41.8439 54.7374 41.0277 55.3422 40.7443 56.3192C40.624 56.7693 40.5266 57.2252 40.4525 57.6852C40.3412 58.4689 40.1382 59.2368 39.8478 59.9732C39.8154 60.0496 39.7612 60.1148 39.692 60.1607C39.6229 60.2066 39.5417 60.2311 39.4587 60.2311ZM35.3268 56.4249C35.4114 56.5475 35.9358 57.1016 39.2472 59.1865C39.4107 58.6507 39.5351 58.1037 39.6194 57.5499C39.704 57.0846 39.7886 56.6025 39.9281 56.1035C40.2834 54.8347 41.2688 54.1242 42.2203 53.4264C42.8097 53.0401 43.3397 52.5699 43.7936 52.0308C43.8767 51.9388 43.9408 51.8313 43.9822 51.7144C44.0236 51.5976 44.0414 51.4737 44.0346 51.3499C43.9841 51.2354 43.901 51.1383 43.7958 51.0706C43.6905 51.003 43.5677 50.9677 43.4426 50.9693C43.0707 50.9818 42.7053 51.0696 42.3684 51.2272C41.5944 51.5191 40.8078 51.7474 40.0508 51.9673C39.4967 52.1281 38.9258 52.293 38.3591 52.4791C38.3007 52.499 38.2386 52.506 38.1773 52.4994C38.1159 52.4928 38.0567 52.4729 38.0039 52.441C37.9517 52.4096 37.9069 52.3672 37.8726 52.3168C37.8382 52.2665 37.8152 52.2093 37.8051 52.1492V52.0984C37.7552 51.7409 37.6789 51.3875 37.5767 51.0412C37.4837 50.762 37.3652 50.6182 37.306 50.6182C37.2468 50.6182 37.1749 50.6182 36.9677 51.0412C36.8366 51.3245 36.6674 51.6459 36.4856 51.997C35.7751 53.3799 34.8066 55.2534 35.3226 56.4122L35.3268 56.4249Z" fill="#093F68"/>
<path d="M7.86033 40.1115C9.96903 39.9341 11.5545 38.3166 11.4015 36.4989C11.2485 34.6811 9.41511 33.3514 7.30641 33.5288C5.19772 33.7063 3.61228 35.3237 3.76524 37.1414C3.9182 38.9592 5.75164 40.2889 7.86033 40.1115Z" fill="#FFC9B0"/>
<path d="M7.48155 40.5486C6.5307 40.5526 5.60282 40.2566 4.82986 39.7028C4.41171 39.414 4.06179 39.0372 3.80463 38.5989C3.54747 38.1605 3.38929 37.6712 3.34119 37.1653C3.30438 36.658 3.37879 36.1488 3.55922 35.6733C3.73965 35.1977 4.02175 34.7673 4.3858 34.4121C5.16647 33.6528 6.18645 33.188 7.27165 33.097C8.35685 33.006 9.44 33.2944 10.3362 33.9131C10.7567 34.2 11.1077 34.5774 11.3632 35.0177C11.6188 35.4579 11.7725 35.9498 11.813 36.4573C11.8536 36.9647 11.78 37.4748 11.5976 37.9501C11.4153 38.4253 11.1288 38.8537 10.7592 39.2038C9.98642 39.9743 8.96314 40.4425 7.87486 40.5233C7.73953 40.5444 7.61688 40.5486 7.48155 40.5486ZM7.68455 33.9342H7.34198C6.45482 33.9973 5.61939 34.3752 4.98634 35C4.70503 35.2714 4.48743 35.6018 4.34922 35.9675C4.211 36.3332 4.15561 36.7249 4.18703 37.1146C4.22424 37.4996 4.34539 37.8718 4.54194 38.205C4.73849 38.5382 5.00567 38.8242 5.32467 39.0431C6.05343 39.5517 6.93953 39.7841 7.82411 39.6986C8.71192 39.6381 9.54822 39.2598 10.1798 38.6328C10.4625 38.3678 10.6816 38.0423 10.8205 37.6805C10.9595 37.3188 11.0148 36.9303 10.9823 36.5442C10.9497 36.158 10.8302 35.7843 10.6326 35.4509C10.435 35.1176 10.1645 34.8333 9.84142 34.6194C9.21295 34.1687 8.45785 33.9289 7.68455 33.9342Z" fill="#093F68"/>
<path d="M22.7614 21.3271C26.5126 26.6728 28.4792 23.3022 29.0586 22.1391L30.0693 34.1288C30.3115 37.0098 29.4652 39.8768 27.6974 42.1644C25.9296 44.4521 23.3687 45.9942 20.5199 46.4865L20.7229 48.9436C20.7672 49.4646 20.6027 49.9819 20.2656 50.3816C19.9286 50.7813 19.4465 51.0308 18.9255 51.0751C18.4045 51.1194 17.8872 50.9549 17.4875 50.6179C17.0878 50.2808 16.8383 49.7987 16.794 49.2777L16.6206 46.9686C9.61287 47.2942 5.69666 41.5679 5.24414 36.218L6.15341 25.3998C6.15341 25.3998 11.0127 28.5759 22.7614 21.3271Z" fill="#FFC9B0"/>
<path d="M18.757 51.4938C18.1568 51.4928 17.5789 51.2668 17.1373 50.8604C16.6957 50.4541 16.4225 49.8969 16.3717 49.2989L16.211 47.3915C14.7015 47.4432 13.1988 47.1675 11.8059 46.5835C10.413 45.9995 9.16302 45.1209 8.14175 44.0082C6.2136 41.8624 5.04155 39.144 4.80493 36.2688C4.8007 36.2465 4.8007 36.2235 4.80493 36.2012L5.70997 25.383C5.7158 25.31 5.74047 25.2398 5.78156 25.1792C5.82264 25.1186 5.87875 25.0698 5.94439 25.0374C6.01002 25.005 6.08294 24.9902 6.15602 24.9944C6.22909 24.9987 6.29981 25.0218 6.36127 25.0615C6.40779 25.0911 11.2248 27.967 22.5378 20.9846C22.63 20.9273 22.7407 20.9077 22.847 20.9297C22.9532 20.9518 23.047 21.0138 23.1088 21.103C24.4198 22.9766 25.6463 23.9197 26.6444 23.852C27.4014 23.7928 28.0865 23.1584 28.6828 21.9658C28.7243 21.8834 28.7916 21.8168 28.8745 21.7762C28.9574 21.7356 29.0512 21.7232 29.1418 21.7409C29.2324 21.7587 29.3146 21.8055 29.3761 21.8744C29.4375 21.9432 29.4748 22.0303 29.4821 22.1223L30.4929 34.1077C30.7207 37.0239 29.8806 39.9234 28.1292 42.2661C26.3778 44.6089 23.8345 46.2351 20.973 46.8418L21.1464 48.9225C21.1991 49.5555 20.9985 50.1836 20.5886 50.6689C20.1786 51.1542 19.5929 51.4569 18.96 51.5107L18.757 51.4938ZM16.6212 46.5457C16.7271 46.5453 16.8293 46.5846 16.9076 46.6558C16.9859 46.7271 17.0346 46.8251 17.0441 46.9306L17.2387 49.2397C17.2729 49.6491 17.4683 50.0281 17.782 50.2934C18.0957 50.5587 18.5019 50.6886 18.9113 50.6543C19.3207 50.6201 19.6998 50.4247 19.9651 50.111C20.2304 49.7973 20.3602 49.3911 20.326 48.9817L20.1187 46.5203C20.1098 46.4146 20.141 46.3094 20.206 46.2256C20.271 46.1418 20.3652 46.0855 20.4698 46.0678C23.2051 45.5749 25.6595 44.0825 27.3556 41.8806C29.0517 39.6787 29.8685 36.9248 29.6471 34.1543L28.7462 23.4375C28.5151 23.7773 28.2133 24.0632 27.8615 24.2756C27.5096 24.488 27.1161 24.6219 26.7078 24.6682C25.439 24.7613 24.0772 23.8224 22.6478 21.8854C13.1702 27.6371 8.14175 26.6559 6.50083 26.0343L5.655 36.2096C6.1202 41.5807 10.028 46.846 16.5832 46.5373L16.6212 46.5457Z" fill="#093F68"/>
<path d="M23.2816 26.1187C24.009 26.1187 29.4435 26.9984 29.9383 26.4105C30.3859 25.8303 30.6548 25.1323 30.7122 24.4017C30.8065 23.4343 30.696 22.4579 30.3877 21.5361C30.0795 20.6143 29.5805 19.7678 28.9233 19.0518C27.8706 17.8759 26.4809 17.0533 24.9436 16.6961C24.4784 16.6073 20.7145 16.8991 20.8244 17.0683C19.9786 15.4654 18.3081 14.4674 16.5953 13.9345C9.9174 11.8707 3.74705 15.2032 1.66207 21.7965C0.676673 24.8923 0.6513 28.2164 1.00655 31.4432C1.37449 34.7885 2.19494 38.1803 4.15305 40.9166C7.90432 46.1607 15.6902 46.9135 20.6087 43.1749C25.2354 39.6521 23.032 28.6858 23.2816 26.1187Z" fill="#725858"/>
<path d="M13.4786 45.9238C12.8331 45.9242 12.1884 45.8761 11.5501 45.78C10.0127 45.5717 8.53329 45.0544 7.20104 44.2592C5.86879 43.4641 4.71123 42.4076 3.79804 41.1533C2.06408 38.73 1.04062 35.6554 0.575414 31.4812C0.152497 27.6369 0.372415 24.4227 1.24785 21.6611C3.40896 14.8395 9.91342 11.4181 16.7139 13.5242C18.6805 14.1332 20.1987 15.2159 21.0277 16.5607C22.3501 16.359 23.6865 16.2628 25.0242 16.2731C26.6596 16.6388 28.1388 17.5086 29.2534 18.7599C29.9454 19.5206 30.4701 20.418 30.7935 21.3942C31.117 22.3704 31.232 23.4036 31.1311 24.427C31.0689 25.2393 30.7672 26.0149 30.2642 26.6557C29.8412 27.1379 28.5725 27.1336 24.4956 26.6557L23.6836 26.5585C23.6836 27.1506 23.7386 28.0049 23.8062 28.9606C24.1107 33.3294 24.614 40.6374 20.8458 43.4963C18.7198 45.0859 16.1331 45.9382 13.4786 45.9238ZM12.6539 13.7356C7.79037 13.7356 3.68808 16.7637 2.05562 21.9149C1.20979 24.5665 1.00679 27.6623 1.41702 31.3882C1.83994 35.4101 2.83802 38.3578 4.48739 40.6627C5.33542 41.8239 6.40947 42.8016 7.64499 43.5371C8.8805 44.2726 10.252 44.7507 11.677 44.9427C13.1894 45.1846 14.735 45.1222 16.223 44.7591C17.711 44.396 19.1116 43.7395 20.3425 42.8281C23.7259 40.2441 23.2522 33.2194 22.9646 29.0241C22.8623 28.0408 22.8284 27.0516 22.8631 26.0637C22.8736 25.959 22.9228 25.862 23.001 25.7916C23.0792 25.7212 23.1808 25.6825 23.286 25.683C23.489 25.683 23.95 25.7422 24.5886 25.8184C25.8278 25.9664 29.0885 26.3597 29.634 26.0975C30.0148 25.5866 30.2422 24.9778 30.2895 24.3424C30.3757 23.4344 30.2696 22.5185 29.9782 21.6542C29.6867 20.79 29.2164 19.9969 28.5979 19.3266C27.6056 18.2187 26.298 17.4409 24.8508 17.0978C23.5765 17.0966 22.3039 17.1942 21.0446 17.3896C21.0276 17.4062 21.0075 17.4191 20.9854 17.4277C20.8861 17.4798 20.7702 17.4904 20.6631 17.4571C20.5561 17.4238 20.4666 17.3493 20.4144 17.2501C19.7378 15.9517 18.2999 14.9114 16.4263 14.3277C15.2053 13.9439 13.9338 13.7443 12.6539 13.7356Z" fill="#093F68"/>
<path d="M34.3833 55.4186L33.0891 59.3771C31.7274 53.6804 28.3017 47.6538 24.7873 47.6538H10.4546C9.87613 47.6533 9.30319 47.7667 8.76856 47.9877C8.23393 48.2087 7.74809 48.5329 7.33883 48.9418C6.92956 49.3507 6.6049 49.8362 6.38338 50.3706C6.16187 50.905 6.04785 51.4779 6.04785 52.0564V69.3368H37.6989L40.93 57.364L34.3833 55.4186Z" fill="#F56132"/>
<path d="M37.7032 69.7597H6.04792C5.93575 69.7597 5.82818 69.7152 5.74887 69.6359C5.66956 69.5565 5.625 69.449 5.625 69.3368V52.0564C5.62612 50.777 6.13488 49.5503 7.03959 48.6455C7.9443 47.7408 9.17103 47.2321 10.4505 47.231H24.7831C28.268 47.231 31.5498 52.4963 33.1273 57.8927L33.9731 55.2875C34.0072 55.1831 34.0805 55.0961 34.1776 55.0448C34.2746 54.9935 34.3879 54.982 34.4933 55.0126L41.0485 56.958C41.1543 56.9895 41.2436 57.0611 41.2973 57.1575C41.351 57.2539 41.3649 57.3675 41.3361 57.474L38.1092 69.4468C38.0852 69.5362 38.0324 69.6152 37.959 69.6718C37.8857 69.7283 37.7958 69.7592 37.7032 69.7597ZM6.47506 68.9139H37.3776L40.4184 57.6516L34.654 55.96L33.491 59.5294C33.4623 59.6177 33.4054 59.6941 33.3289 59.7469C33.2525 59.7996 33.1608 59.8257 33.0681 59.8212C32.9758 59.8183 32.887 59.7854 32.8152 59.7273C32.7435 59.6693 32.6926 59.5894 32.6705 59.4998C31.3299 53.8961 28.0184 48.081 24.7789 48.081H10.4547C9.39958 48.0821 8.388 48.5018 7.64191 49.2479C6.89583 49.994 6.47618 51.0055 6.47506 52.0607V68.9139Z" fill="#093F68"/>
<path d="M26.3099 69.7594C26.2092 69.7609 26.1112 69.7264 26.0337 69.662C25.9561 69.5976 25.9041 69.5077 25.887 69.4084L24.153 59.3007C24.1433 59.246 24.1444 59.1899 24.1564 59.1357C24.1683 59.0814 24.1908 59.03 24.2227 58.9844C24.2545 58.9389 24.2949 58.9 24.3418 58.8701C24.3886 58.8402 24.4409 58.8198 24.4956 58.8101C24.5506 58.8004 24.607 58.8017 24.6615 58.8139C24.716 58.8262 24.7676 58.849 24.8132 58.8813C24.8588 58.9135 24.8976 58.9545 24.9273 59.0018C24.9569 59.0491 24.977 59.1018 24.9862 59.1569L26.7201 69.2646C26.7385 69.3751 26.7123 69.4883 26.6473 69.5795C26.5823 69.6707 26.4838 69.7323 26.3733 69.751L26.3099 69.7594Z" fill="#093F68"/>
<path d="M24.754 31.4011C23.1258 30.957 20.6094 31.4518 20.9012 34.814C21.0577 36.6283 22.2926 38.1001 23.9631 38.0832" fill="#FFC9B0"/>
<path d="M23.933 38.5063C22.1145 38.5063 20.6639 36.9753 20.4778 34.848C20.3171 33.0083 20.9726 32.0441 21.552 31.562C22.5289 30.7457 23.9034 30.7161 24.8634 30.991C24.917 31.0058 24.9672 31.0309 25.0111 31.065C25.055 31.0991 25.0917 31.1415 25.1192 31.1898C25.1467 31.2381 25.1644 31.2914 25.1713 31.3465C25.1782 31.4017 25.1742 31.4576 25.1595 31.5112C25.1448 31.5648 25.1196 31.615 25.0855 31.6589C25.0514 31.7028 25.009 31.7395 24.9607 31.767C24.9124 31.7945 24.8591 31.8122 24.804 31.8191C24.7488 31.826 24.6929 31.822 24.6393 31.8073C24.2123 31.6776 23.7612 31.6483 23.321 31.7216C22.8809 31.795 22.4636 31.969 22.1018 32.2302C21.4886 32.7461 21.2263 33.6089 21.3321 34.7973C21.4759 36.489 22.5755 37.6816 23.9457 37.6816H23.9711C24.0832 37.6816 24.1908 37.7261 24.2701 37.8054C24.3494 37.8848 24.394 37.9923 24.394 38.1045C24.394 38.2167 24.3494 38.3242 24.2701 38.4035C24.1908 38.4829 24.0832 38.5274 23.9711 38.5274L23.933 38.5063Z" fill="#093F68"/>
<path d="M28.0823 32.3994C28.4513 32.3994 28.7505 32.1002 28.7505 31.7312C28.7505 31.3622 28.4513 31.063 28.0823 31.063C27.7132 31.063 27.4141 31.3622 27.4141 31.7312C27.4141 32.1002 27.7132 32.3994 28.0823 32.3994Z" fill="#093F68"/>
<path d="M29.3085 30.4286C29.1593 30.4287 29.013 30.3877 28.8856 30.3101C28.856 30.3101 27.7353 29.6715 26.9571 30.2129C26.7731 30.3413 26.5457 30.3914 26.3248 30.3521C26.1039 30.3129 25.9077 30.1875 25.7793 30.0035C25.6508 29.8196 25.6008 29.5921 25.64 29.3713C25.6793 29.1504 25.8047 28.9541 25.9886 28.8257C27.6803 27.6542 29.6595 28.8046 29.7399 28.8511C29.9007 28.9444 30.0263 29.088 30.0973 29.2599C30.1682 29.4317 30.1806 29.6222 30.1325 29.8017C30.0843 29.9813 29.9783 30.14 29.8309 30.2533C29.6835 30.3666 29.5029 30.4282 29.317 30.4286H29.3085Z" fill="#093F68"/>
<path d="M35.2588 67.0194C35.165 67.0234 35.0725 66.996 34.9959 66.9417C34.9193 66.8873 34.8631 66.809 34.8359 66.7191L32.6917 59.4999C32.6698 59.396 32.6878 59.2877 32.742 59.1965C32.7963 59.1053 32.8829 59.0378 32.9846 59.0074C33.0863 58.9771 33.1957 58.9861 33.2911 59.0326C33.3865 59.0792 33.4609 59.16 33.4995 59.2588L35.6521 66.478C35.6837 66.5851 35.6716 66.7004 35.6185 66.7986C35.5655 66.8969 35.4757 66.9701 35.3688 67.0024C35.333 67.0129 35.2961 67.0186 35.2588 67.0194Z" fill="#093F68"/>
<path d="M10.2767 69.7595C10.1715 69.7601 10.0699 69.7213 9.99168 69.651C9.91348 69.5806 9.86431 69.4836 9.8538 69.3789L8.80073 58.5353C8.79008 58.4231 8.82441 58.3113 8.89619 58.2245C8.96797 58.1377 9.07131 58.0829 9.18347 58.0722C9.29564 58.0616 9.40744 58.0959 9.49429 58.1677C9.58113 58.2395 9.63591 58.3428 9.64657 58.455L10.6996 69.2943C10.7103 69.4052 10.6767 69.5159 10.6062 69.6022C10.5358 69.6885 10.4341 69.7435 10.3232 69.7553L10.2767 69.7595Z" fill="#093F68"/>
<path d="M28.0865 40.5743H28.0611C27.1543 40.5234 26.2516 40.4146 25.3587 40.2487C25.2465 40.2257 25.1481 40.1591 25.085 40.0635C25.022 39.9679 24.9995 39.8512 25.0225 39.7391C25.0455 39.6269 25.1121 39.5285 25.2076 39.4654C25.3032 39.4024 25.4199 39.3798 25.5321 39.4028C26.3831 39.5607 27.2434 39.6638 28.1076 39.7116C28.2198 39.7116 28.3274 39.7561 28.4067 39.8354C28.486 39.9147 28.5306 40.0223 28.5306 40.1345C28.5306 40.2466 28.486 40.3542 28.4067 40.4335C28.3274 40.5128 28.2198 40.5574 28.1076 40.5574L28.0865 40.5743Z" fill="#093F68"/>
<path d="M64.7654 50.8639L54.958 58.9797H66.2203L75.7613 50.6313L64.7654 50.8639Z" fill="white"/>
<path d="M66.2209 59.4023H54.9586C54.8719 59.4016 54.7875 59.3743 54.7168 59.324C54.6461 59.2737 54.5926 59.2029 54.5635 59.1212C54.5345 59.0395 54.5312 58.9508 54.5542 58.8672C54.5772 58.7836 54.6254 58.7091 54.6922 58.6537L64.4954 50.538C64.5707 50.4794 64.6623 50.4454 64.7576 50.4407L75.7534 50.2081C75.8428 50.2064 75.9306 50.2312 76.0058 50.2794C76.0811 50.3276 76.1404 50.3969 76.1763 50.4788C76.207 50.5597 76.2121 50.6481 76.1909 50.7321C76.1698 50.816 76.1233 50.8915 76.0579 50.9482L66.5169 59.2966C66.4355 59.3685 66.3295 59.4064 66.2209 59.4023ZM56.1343 58.5565H66.0602L74.6115 51.0708L64.9225 51.2738L56.1343 58.5565Z" fill="#093F68"/>
<path d="M65.3074 57.5245H59.0567C58.9445 57.5245 58.837 57.48 58.7577 57.4007C58.6783 57.3214 58.6338 57.2138 58.6338 57.1016C58.6338 56.9895 58.6783 56.8819 58.7577 56.8026C58.837 56.7233 58.9445 56.6787 59.0567 56.6787H65.3074C65.4196 56.6787 65.5271 56.7233 65.6065 56.8026C65.6858 56.8819 65.7303 56.9895 65.7303 57.1016C65.7303 57.2138 65.6858 57.3214 65.6065 57.4007C65.5271 57.48 65.4196 57.5245 65.3074 57.5245Z" fill="#DFEAEF"/>
<path d="M67.5701 56.1754H61.3194C61.2072 56.1754 61.0997 56.1309 61.0204 56.0515C60.941 55.9722 60.8965 55.8647 60.8965 55.7525C60.8965 55.6403 60.941 55.5328 61.0204 55.4535C61.0997 55.3741 61.2072 55.3296 61.3194 55.3296H67.5701C67.6823 55.3296 67.7898 55.3741 67.8692 55.4535C67.9485 55.5328 67.993 55.6403 67.993 55.7525C67.993 55.8647 67.9485 55.9722 67.8692 56.0515C67.7898 56.1309 67.6823 56.1754 67.5701 56.1754Z" fill="#DFEAEF"/>
<path d="M69.0333 54.5475H62.7784C62.6662 54.5475 62.5587 54.5029 62.4793 54.4236C62.4 54.3443 62.3555 54.2367 62.3555 54.1246C62.3555 54.0124 62.4 53.9048 62.4793 53.8255C62.5587 53.7462 62.6662 53.7017 62.7784 53.7017H69.0333C69.1455 53.7017 69.2531 53.7462 69.3324 53.8255C69.4117 53.9048 69.4562 54.0124 69.4562 54.1246C69.4562 54.2367 69.4117 54.3443 69.3324 54.4236C69.2531 54.5029 69.1455 54.5475 69.0333 54.5475Z" fill="#DFEAEF"/>
<path d="M70.9363 52.9996H64.6856C64.5734 52.9996 64.4659 52.9551 64.3866 52.8758C64.3073 52.7965 64.2627 52.6889 64.2627 52.5767C64.2627 52.4646 64.3073 52.357 64.3866 52.2777C64.4659 52.1984 64.5734 52.1538 64.6856 52.1538H70.9363C71.0485 52.1538 71.1561 52.1984 71.2354 52.2777C71.3147 52.357 71.3592 52.4646 71.3592 52.5767C71.3592 52.6889 71.3147 52.7965 71.2354 52.8758C71.1561 52.9551 71.0485 52.9996 70.9363 52.9996Z" fill="#DFEAEF"/>
<path d="M51.4059 2.38477H35.7876C34.5919 2.38477 33.4452 2.85975 32.5998 3.70522C31.7543 4.55069 31.2793 5.69739 31.2793 6.89306V16.1042C31.2782 16.6969 31.394 17.2841 31.62 17.832C31.8461 18.38 32.178 18.878 32.5968 19.2975C33.0155 19.717 33.5129 20.0499 34.0604 20.277C34.6079 20.504 35.1948 20.6209 35.7876 20.6209L34.7388 24.7613L38.545 20.6209H51.4144C52.61 20.6209 53.7567 20.146 54.6022 19.3005C55.4477 18.455 55.9227 17.3083 55.9227 16.1126V6.89306C55.9221 6.30047 55.8048 5.71379 55.5775 5.16651C55.3503 4.61924 55.0174 4.1221 54.598 3.70347C54.1786 3.28483 53.6808 2.95291 53.1331 2.72665C52.5854 2.50038 51.9985 2.38421 51.4059 2.38477Z" fill="white"/>
<path d="M34.7473 25.1758C34.6816 25.1779 34.6163 25.1647 34.5567 25.1372C34.497 25.1096 34.4446 25.0686 34.4035 25.0173C34.3625 24.966 34.334 24.9058 34.3202 24.8416C34.3065 24.7773 34.3079 24.7108 34.3244 24.6472L35.2463 21.0101C34.0376 20.8769 32.9203 20.303 32.1081 19.3979C31.2959 18.4929 30.8458 17.3203 30.8438 16.1042V6.89312C30.8449 5.58563 31.3648 4.33201 32.2893 3.40747C33.2138 2.48293 34.4675 1.96303 35.775 1.96191H51.3933C52.7008 1.96303 53.9544 2.48293 54.8789 3.40747C55.8035 4.33201 56.3234 5.58563 56.3245 6.89312V16.1042C56.3245 17.4107 55.807 18.6639 54.8852 19.5897C53.9634 20.5154 52.7124 21.0383 51.406 21.0439H38.7185L35.0518 25.0405C35.0128 25.0825 34.9657 25.1161 34.9134 25.1394C34.8611 25.1627 34.8045 25.175 34.7473 25.1758ZM35.7876 2.80775C34.7045 2.80887 33.666 3.23965 32.9001 4.00556C32.1342 4.77148 31.7034 5.80996 31.7023 6.89312V16.1042C31.7034 17.1878 32.134 18.2267 32.8998 18.9933C33.6656 19.7599 34.7041 20.1916 35.7876 20.1939C35.8526 20.1929 35.9169 20.2068 35.9756 20.2347C36.0342 20.2626 36.0857 20.3036 36.126 20.3546C36.1655 20.4054 36.1929 20.4646 36.2061 20.5276C36.2193 20.5906 36.2179 20.6559 36.2021 20.7183L35.5677 23.2304L38.2279 20.3292C38.2673 20.2867 38.3151 20.2527 38.3682 20.2294C38.4213 20.2062 38.4786 20.194 38.5366 20.1939H51.406C52.4895 20.1916 53.528 19.7599 54.2938 18.9933C55.0596 18.2267 55.4902 17.1878 55.4913 16.1042V6.89312C55.4891 5.8103 55.058 4.77247 54.2923 4.0068C53.5266 3.24112 52.4888 2.80998 51.406 2.80775H35.7876Z" fill="#093F68"/>
<path d="M58.7308 31.8238C58.7308 31.8238 56.5444 32.5428 54.9584 33.0545V31.1514C54.9584 29.9564 54.484 28.8104 53.6395 27.965C52.7949 27.1197 51.6493 26.6442 50.4544 26.6431H40.6004C40.0071 26.6414 39.4193 26.7568 38.8706 26.9825C38.3219 27.2083 37.8232 27.54 37.4029 27.9588C36.9825 28.3775 36.6489 28.875 36.4211 29.4229C36.1933 29.9707 36.0757 30.5581 36.0752 31.1514V36.0953C36.0752 37.2921 36.5506 38.4398 37.3969 39.2861C38.2431 40.1324 39.3909 40.6078 40.5877 40.6078H50.4544C51.6504 40.6067 52.7971 40.1308 53.6425 39.2846C54.4878 38.4385 54.9627 37.2913 54.9627 36.0953V35.3763L58.7308 31.8238Z" fill="white"/>
<path d="M50.4544 41.0265H40.6005C39.9518 41.0276 39.3092 40.901 38.7095 40.6538C38.1098 40.4065 37.5646 40.0436 37.1051 39.5857C36.6456 39.1278 36.2809 38.5839 36.0316 37.985C35.7823 37.3861 35.6535 36.744 35.6523 36.0953V31.1514C35.6546 29.8435 36.1754 28.5899 37.1006 27.6655C38.0258 26.7411 39.2799 26.2213 40.5878 26.2202H50.4544C51.7619 26.2213 53.0155 26.7412 53.9401 27.6658C54.8646 28.5903 55.3845 29.8439 55.3856 31.1514V32.4625L58.5998 31.4094C58.6917 31.3785 58.7914 31.3801 58.8823 31.414C58.9731 31.4479 59.0496 31.512 59.0988 31.5955C59.1478 31.6785 59.1669 31.7757 59.1531 31.8711C59.1393 31.9665 59.0933 32.0542 59.0227 32.1199L55.3856 35.5498V36.0826C55.3867 36.7311 55.2601 37.3735 55.0128 37.973C54.7655 38.5725 54.4025 39.1173 53.9446 39.5765C53.4866 40.0356 52.9427 40.4 52.3438 40.6488C51.7449 40.8976 51.1029 41.026 50.4544 41.0265ZM40.6047 27.0703C40.0671 27.0686 39.5344 27.1728 39.0371 27.377C38.5398 27.5812 38.0875 27.8814 37.7062 28.2604C37.3249 28.6393 37.0219 29.0897 36.8147 29.5857C36.6074 30.0818 36.4998 30.6138 36.4982 31.1514V36.0953C36.5004 37.1789 36.9321 38.2173 37.6987 38.9831C38.4653 39.7489 39.5042 40.1796 40.5878 40.1807H50.4544C51.5376 40.1796 52.5761 39.7488 53.342 38.9829C54.1079 38.217 54.5387 37.1785 54.5398 36.0953V35.3764C54.5406 35.3191 54.5529 35.2626 54.5762 35.2102C54.5995 35.1579 54.6331 35.1108 54.6751 35.0719L57.0646 32.8177L55.1065 33.4563C55.0429 33.4773 54.9752 33.4829 54.9091 33.4726C54.8429 33.4623 54.7801 33.4364 54.7259 33.3971C54.672 33.3577 54.6282 33.3062 54.5981 33.2466C54.5679 33.1871 54.5523 33.1213 54.5525 33.0545V31.1514C54.5514 30.0683 54.1206 29.0298 53.3547 28.2639C52.5888 27.4979 51.5503 27.0672 50.4671 27.066L40.6047 27.0703Z" fill="#093F68"/>
<path d="M50.5092 7.4723H45.7217C45.6096 7.4723 45.502 7.42774 45.4227 7.34843C45.3434 7.26911 45.2988 7.16155 45.2988 7.04938C45.2988 6.93722 45.3434 6.82965 45.4227 6.75033C45.502 6.67102 45.6096 6.62646 45.7217 6.62646H50.5092C50.6213 6.62646 50.7289 6.67102 50.8082 6.75033C50.8875 6.82965 50.9321 6.93722 50.9321 7.04938C50.9321 7.16155 50.8875 7.26911 50.8082 7.34843C50.7289 7.42774 50.6213 7.4723 50.5092 7.4723Z" fill="#DFEAEF"/>
<path d="M41.9362 7.4723H37.0938C36.9817 7.4723 36.8741 7.42774 36.7948 7.34843C36.7155 7.26911 36.6709 7.16155 36.6709 7.04938C36.6709 6.93722 36.7155 6.82965 36.7948 6.75033C36.8741 6.67102 36.9817 6.62646 37.0938 6.62646H41.9362C42.0484 6.62646 42.1559 6.67102 42.2353 6.75033C42.3146 6.82965 42.3591 6.93722 42.3591 7.04938C42.3591 7.16155 42.3146 7.26911 42.2353 7.34843C42.1559 7.42774 42.0484 7.4723 41.9362 7.4723Z" fill="#DFEAEF"/>
<path d="M50.5087 11.7399H37.0938C36.9817 11.7399 36.8741 11.6953 36.7948 11.616C36.7155 11.5367 36.6709 11.4291 36.6709 11.317C36.6709 11.2048 36.7155 11.0972 36.7948 11.0179C36.8741 10.9386 36.9817 10.894 37.0938 10.894H50.5087C50.6209 10.894 50.7285 10.9386 50.8078 11.0179C50.8871 11.0972 50.9316 11.2048 50.9316 11.317C50.9316 11.4291 50.8871 11.5367 50.8078 11.616C50.7285 11.6953 50.6209 11.7399 50.5087 11.7399Z" fill="#DFEAEF"/>
<path d="M45.827 16.0451H37.0938C36.9817 16.0451 36.8741 16.0005 36.7948 15.9212C36.7155 15.8419 36.6709 15.7343 36.6709 15.6221C36.6709 15.51 36.7155 15.4024 36.7948 15.3231C36.8741 15.2438 36.9817 15.1992 37.0938 15.1992H45.827C45.9392 15.1992 46.0468 15.2438 46.1261 15.3231C46.2054 15.4024 46.25 15.51 46.25 15.6221C46.25 15.7343 46.2054 15.8419 46.1261 15.9212C46.0468 16.0005 45.9392 16.0451 45.827 16.0451Z" fill="#DFEAEF"/>
<path d="M50.5095 32.0397H40.9346C40.8225 32.0397 40.7149 31.9951 40.6356 31.9158C40.5563 31.8365 40.5117 31.7289 40.5117 31.6168C40.5117 31.5046 40.5563 31.397 40.6356 31.3177C40.7149 31.2384 40.8225 31.1938 40.9346 31.1938H50.5095C50.6216 31.1938 50.7292 31.2384 50.8085 31.3177C50.8878 31.397 50.9324 31.5046 50.9324 31.6168C50.9324 31.7289 50.8878 31.8365 50.8085 31.9158C50.7292 31.9951 50.6216 32.0397 50.5095 32.0397Z" fill="#DFEAEF"/>
<path d="M46.5806 36.6285H40.9346C40.8225 36.6285 40.7149 36.584 40.6356 36.5047C40.5563 36.4254 40.5117 36.3178 40.5117 36.2056C40.5117 36.0935 40.5563 35.9859 40.6356 35.9066C40.7149 35.8273 40.8225 35.7827 40.9346 35.7827H46.5806C46.6927 35.7827 46.8003 35.8273 46.8796 35.9066C46.9589 35.9859 47.0035 36.0935 47.0035 36.2056C47.0035 36.3178 46.9589 36.4254 46.8796 36.5047C46.8003 36.584 46.6927 36.6285 46.5806 36.6285Z" fill="#DFEAEF"/>
</g>
<defs>
<clipPath id="clip0_563_584">
<rect width="95.8333" height="70" fill="white"/>
</clipPath>
</defs>
</svg>
