<svg width="285" height="285" viewBox="0 0 285 285" fill="none" xmlns="http://www.w3.org/2000/svg">
<rect width="285" height="285" fill="#95D4E3"/>
<path fill-rule="evenodd" clip-rule="evenodd" d="M142.697 262.3C203.063 262.3 251.999 213.364 251.999 152.999C251.999 92.6333 203.063 43.6974 142.697 43.6974C82.3316 43.6974 33.3957 92.6333 33.3957 152.999C33.3957 213.364 82.3316 262.3 142.697 262.3ZM142.697 270.549C207.619 270.549 260.248 217.92 260.248 152.999C260.248 88.0774 207.619 35.4482 142.697 35.4482C77.7757 35.4482 25.1465 88.0774 25.1465 152.999C25.1465 217.92 77.7757 270.549 142.697 270.549Z" fill="#297789"/>
<circle cx="145.586" cy="153.411" r="57.7694" fill="#CAECF4" stroke="white" stroke-width="5"/>
<circle cx="249.526" cy="104.74" r="31.3721" fill="#CAECF4" stroke="#B2DAE3" stroke-width="5"/>
<circle cx="138.985" cy="42.8721" r="31.3721" fill="#CAECF4" stroke="#B2DAE3" stroke-width="5"/>
<circle cx="35.8721" cy="119.589" r="31.3721" fill="#CAECF4" stroke="#B2DAE3" stroke-width="5"/>
<circle cx="75.4678" cy="241.677" r="31.3721" fill="#CAECF4" stroke="#B2DAE3" stroke-width="5"/>
<circle cx="220.653" cy="234.253" r="31.3721" fill="#CAECF4" stroke="#B2DAE3" stroke-width="5"/>
<path d="M142.765 93.4994C143.401 93.4994 143.72 93.808 144.356 94.1167C140.538 95.6598 136.72 99.6718 134.811 108.313L127.811 110.165C130.039 103.992 134.493 93.4994 142.765 93.4994ZM146.265 96.5856C146.901 98.4373 147.538 100.598 147.538 103.992C147.538 104.301 147.538 104.301 147.538 104.61L138.311 107.079C140.22 100.598 143.401 97.8201 146.265 96.5856ZM154.537 102.141L150.401 103.375C150.401 103.067 150.401 102.758 150.401 102.449C150.401 99.6718 150.083 97.5115 149.447 95.6598C151.674 96.277 153.583 99.0545 154.537 102.141ZM175.218 107.079C175.218 106.77 174.9 106.461 174.582 106.461C173.945 106.461 167.264 105.844 167.264 105.844C167.264 105.844 162.491 101.215 161.855 100.906C161.219 100.289 160.264 100.598 159.946 100.598C159.946 100.598 158.991 100.906 157.401 101.523C155.81 97.2028 152.946 93.1908 148.174 93.1908H147.856C146.583 91.3391 144.674 90.7219 143.083 90.7219C131.629 90.4132 126.221 104.301 124.312 111.399C121.766 112.017 119.221 112.942 116.357 113.868C113.812 114.485 113.812 114.794 113.494 116.954C113.176 118.497 106.812 167.259 106.812 167.259L157.401 176.518L184.763 170.654C184.763 170.654 175.218 107.696 175.218 107.079Z" fill="#8DB849"/>
<path d="M174.275 106.456C173.957 106.456 167.275 105.838 167.275 105.838C167.275 105.838 162.503 101.209 161.866 100.9C161.548 100.592 161.548 100.592 161.23 100.592L157.412 176.512L184.774 170.648C184.774 170.648 175.229 107.69 175.229 107.073C175.229 106.764 174.593 106.456 174.275 106.456Z" fill="#5A863E"/>
<path d="M148.169 121.272L144.67 131.148C144.67 131.148 141.806 129.605 137.988 129.605C132.579 129.605 132.261 132.691 132.261 133.617C132.261 137.938 144.351 139.789 144.351 150.282C144.351 158.615 138.943 163.862 131.625 163.862C123.034 163.862 118.58 158.615 118.58 158.615L120.807 151.208C120.807 151.208 125.262 154.912 129.08 154.912C131.625 154.912 132.579 153.06 132.579 151.517C132.579 145.653 122.716 145.345 122.716 135.777C122.716 127.753 128.761 120.038 140.533 120.038C145.942 119.729 148.169 121.272 148.169 121.272Z" fill="#FFFFFE"/>
<path d="M111.538 192.518C110.476 191.947 110.004 191.49 110.004 190.918C110.004 190.119 110.712 189.661 111.893 189.661C113.191 189.661 114.371 190.233 114.371 190.233L115.315 187.49C115.315 187.49 114.489 186.805 112.011 186.805C108.47 186.805 106.11 188.747 106.11 191.49C106.11 193.09 107.29 194.232 108.706 195.032C109.886 195.718 110.358 196.175 110.358 196.861C110.358 197.546 109.768 198.232 108.588 198.232C106.936 198.232 105.284 197.432 105.284 197.432L104.34 200.175C104.34 200.175 105.756 201.089 108.234 201.089C111.775 201.089 114.371 199.375 114.371 196.289C114.371 194.575 113.073 193.318 111.538 192.518ZM125.818 186.69C124.048 186.69 122.631 187.49 121.569 188.747L123.104 180.977H119.091L115.197 200.746H119.209L120.507 194.004C120.979 191.49 122.395 189.89 123.694 189.89C124.638 189.89 124.992 190.461 124.992 191.376C124.992 191.947 124.992 192.518 124.874 193.09L123.34 200.86H127.352L128.886 192.861C129.004 192.061 129.122 191.033 129.122 190.347C129.122 188.062 127.942 186.69 125.818 186.69ZM136.085 198.003C134.669 198.003 134.197 196.861 134.197 195.489C134.197 193.318 135.377 189.661 137.501 189.661C138.917 189.661 139.389 190.804 139.389 191.947C139.389 194.461 138.209 198.003 136.085 198.003ZM138.091 186.69C133.252 186.69 130.066 190.918 130.066 195.604C130.066 198.575 131.954 200.975 135.613 200.975C140.333 200.975 143.519 196.861 143.519 192.061C143.519 189.319 141.867 186.69 138.091 186.69ZM149.892 198.118C148.83 198.118 148.24 197.546 148.24 197.546L148.948 193.89C149.42 191.49 150.718 189.89 152.134 189.89C153.314 189.89 153.786 191.033 153.786 192.061C153.668 194.575 152.134 198.118 149.892 198.118ZM153.786 186.69C151.072 186.69 149.538 188.976 149.538 188.976L149.774 186.919H146.234C146.116 188.29 145.762 190.461 145.408 192.061L142.575 206.231H146.588L147.65 200.517H147.768C147.768 200.517 148.594 200.975 150.128 200.975C154.848 200.975 157.917 196.289 157.917 191.604C157.917 189.09 156.737 186.69 153.786 186.69ZM163.581 181.205C162.283 181.205 161.339 182.234 161.339 183.491C161.339 184.633 162.047 185.433 163.227 185.433C164.525 185.433 165.587 184.633 165.587 183.148C165.587 182.005 164.761 181.205 163.581 181.205ZM158.035 200.746H162.047L164.761 187.033H160.749L158.035 200.746ZM174.91 187.033H172.078L172.196 186.347C172.432 184.976 173.258 183.833 174.556 183.833C175.264 183.833 175.854 184.062 175.854 184.062L176.68 180.977C176.68 180.977 175.972 180.634 174.556 180.634C173.14 180.634 171.724 180.977 170.662 181.891C169.246 183.034 168.656 184.633 168.302 186.233L168.184 186.919H166.295L165.705 189.89H167.593L165.469 200.746H169.482L171.606 189.89H174.32L174.91 187.033ZM184.469 187.033C184.469 187.033 181.991 193.09 180.811 196.404C180.693 195.375 179.867 187.033 179.867 187.033H175.618L177.978 199.603C177.978 199.832 177.978 200.06 177.86 200.289C177.388 201.203 176.562 202.003 175.736 202.574C175.028 203.146 174.084 203.489 173.494 203.717L174.556 207.031C175.382 206.917 177.034 206.231 178.45 204.974C180.221 203.374 181.991 200.746 183.643 197.318L188.481 187.147L184.469 187.033Z" fill="#1A1919"/>
<path d="M234.129 100.617C234.276 100.618 234.416 100.561 234.52 100.458L236.72 98.2582C236.935 98.0425 236.935 97.6928 236.72 97.4772C236.504 97.2615 236.154 97.2615 235.939 97.4772L233.739 99.677C233.635 99.7803 233.576 99.9208 233.576 100.067C233.576 100.214 233.635 100.355 233.739 100.458C233.843 100.561 233.983 100.618 234.129 100.617Z" fill="#297789"/>
<path d="M234.129 103.917C234.276 103.918 234.416 103.861 234.52 103.758L240.019 98.2582C240.235 98.0425 240.235 97.6928 240.019 97.4772C239.804 97.2615 239.454 97.2615 239.238 97.4772L233.739 102.977C233.635 103.08 233.576 103.221 233.576 103.367C233.576 103.514 233.635 103.654 233.739 103.758C233.843 103.861 233.983 103.918 234.129 103.917Z" fill="#297789"/>
<path d="M262.724 87.4189H248.425C247.514 87.4189 246.775 88.1576 246.775 89.0687V95.1182H234.127C232.608 95.1182 231.377 96.3493 231.377 97.8679V112.166C231.377 113.685 232.608 114.916 234.127 114.916H240.176V117.116H238.526C237.615 117.116 236.876 117.855 236.876 118.766C236.876 119.677 237.615 120.416 238.526 120.416H262.724C263.635 120.416 264.374 119.677 264.374 118.766V89.0687C264.374 88.1576 263.635 87.4189 262.724 87.4189ZM234.127 96.218H253.925C254.836 96.218 255.575 96.9567 255.575 97.8679V111.067H232.477V97.8679C232.477 96.9567 233.216 96.218 234.127 96.218ZM232.477 112.166H255.575C255.575 113.078 254.836 113.816 253.925 113.816H234.127C233.216 113.816 232.477 113.078 232.477 112.166ZM241.276 114.916H246.775V117.116H241.276V114.916ZM248.425 119.316H238.526C238.222 119.316 237.976 119.07 237.976 118.766C237.976 118.462 238.222 118.216 238.526 118.216H249.525C249.829 118.216 250.075 118.462 250.075 118.766C250.075 119.07 249.829 119.316 249.525 119.316H248.425ZM263.274 118.766C263.274 119.07 263.028 119.316 262.724 119.316H251.076C251.254 118.812 251.177 118.252 250.869 117.815C250.561 117.378 250.06 117.117 249.525 117.116H247.875V114.916H253.925C255.443 114.916 256.674 113.685 256.674 112.166V97.8679C256.674 96.3493 255.443 95.1182 253.925 95.1182H247.875V89.0687C247.875 88.765 248.122 88.5188 248.425 88.5188H262.724C263.028 88.5188 263.274 88.765 263.274 89.0687V118.766Z" fill="#297789"/>
<path d="M261.075 90.168H250.076C249.469 90.168 248.977 90.6604 248.977 91.2679V92.3678C248.977 92.9752 249.469 93.4676 250.076 93.4676H261.075C261.683 93.4676 262.175 92.9752 262.175 92.3678V91.2679C262.175 90.6604 261.683 90.168 261.075 90.168ZM250.076 92.3678V91.2679H261.075V92.3678H250.076Z" fill="#297789"/>
<path d="M259.974 98.4178C260.885 98.4178 261.624 97.6792 261.624 96.768C261.624 95.8568 260.885 95.1182 259.974 95.1182C259.063 95.1182 258.324 95.8568 258.324 96.768C258.324 97.6792 259.063 98.4178 259.974 98.4178ZM259.974 96.2181C260.278 96.2181 260.524 96.4643 260.524 96.768C260.524 97.0718 260.278 97.318 259.974 97.318C259.67 97.318 259.424 97.0718 259.424 96.768C259.424 96.4643 259.67 96.2181 259.974 96.2181Z" fill="#297789"/>
<path d="M261.624 101.168C261.624 100.257 260.885 99.5186 259.974 99.5186C259.063 99.5186 258.324 100.257 258.324 101.168C258.324 102.08 259.063 102.818 259.974 102.818C260.885 102.818 261.624 102.08 261.624 101.168ZM259.974 101.718C259.67 101.718 259.424 101.472 259.424 101.168C259.424 100.865 259.67 100.618 259.974 100.618C260.278 100.618 260.524 100.865 260.524 101.168C260.524 101.472 260.278 101.718 259.974 101.718Z" fill="#297789"/>
<path d="M252.825 116.018C252.522 116.018 252.275 116.264 252.275 116.568V117.667C252.275 117.971 252.522 118.217 252.825 118.217C253.129 118.217 253.375 117.971 253.375 117.667V116.568C253.375 116.264 253.129 116.018 252.825 116.018Z" fill="#297789"/>
<path d="M255.025 116.018C254.721 116.018 254.475 116.264 254.475 116.568V117.667C254.475 117.971 254.721 118.217 255.025 118.217C255.328 118.217 255.575 117.971 255.575 117.667V116.568C255.575 116.264 255.328 116.018 255.025 116.018Z" fill="#297789"/>
<path d="M257.224 116.018C256.92 116.018 256.674 116.264 256.674 116.568V117.667C256.674 117.971 256.92 118.217 257.224 118.217C257.527 118.217 257.774 117.971 257.774 117.667V116.568C257.774 116.264 257.527 116.018 257.224 116.018Z" fill="#297789"/>
<path d="M259.427 116.018C259.123 116.018 258.877 116.264 258.877 116.568V117.667C258.877 117.971 259.123 118.217 259.427 118.217C259.731 118.217 259.977 117.971 259.977 117.667V116.568C259.977 116.264 259.731 116.018 259.427 116.018Z" fill="#297789"/>
<path d="M261.624 116.018C261.32 116.018 261.074 116.264 261.074 116.568V117.667C261.074 117.971 261.32 118.217 261.624 118.217C261.928 118.217 262.174 117.971 262.174 117.667V116.568C262.174 116.264 261.928 116.018 261.624 116.018Z" fill="#297789"/>
<path d="M203.678 246.845V236.922C203.678 235.338 204.962 234.054 206.546 234.054V234.054C208.131 234.054 209.415 235.338 209.415 236.922V246.845" stroke="#297789" stroke-width="2"/>
<path d="M222.301 246.845V236.922C222.301 235.338 223.585 234.054 225.17 234.054V234.054C226.754 234.054 228.038 235.338 228.038 236.922V246.845" stroke="#297789" stroke-width="2"/>
<path d="M213.086 246.939V230.385C213.086 228.827 214.349 227.563 215.908 227.563V227.563C217.466 227.563 218.729 228.827 218.729 230.385V246.939" stroke="#297789" stroke-width="2"/>
<path d="M231.709 246.939V230.385C231.709 228.827 232.972 227.563 234.531 227.563V227.563C236.089 227.563 237.352 228.827 237.352 230.385V246.939" stroke="#297789" stroke-width="2"/>
<rect x="200.857" y="247.88" width="39.8802" height="0.752456" fill="#297789"/>
<circle cx="206.594" cy="229.163" r="2.41086" stroke="#297789" stroke-width="2"/>
<circle cx="225.217" cy="229.163" r="2.41086" stroke="#297789" stroke-width="2"/>
<circle cx="216.001" cy="222.391" r="2.16331" fill="#297789"/>
<circle cx="234.437" cy="222.391" r="2.16331" fill="#297789"/>
<rect x="209.02" y="227.021" width="5.4034" height="0.564342" rx="0.282171" transform="rotate(-36.5944 209.02 227.021)" fill="#297789"/>
<rect x="227.945" y="227.021" width="5.4034" height="0.564342" rx="0.282171" transform="rotate(-36.5944 227.945 227.021)" fill="#297789"/>
<rect x="222.592" y="227.544" width="5.4034" height="0.564342" rx="0.282171" transform="rotate(-144.59 222.592 227.544)" fill="#297789"/>
<path d="M67.8257 255.421C66.9094 255.73 65.8124 255.381 65.2374 254.605C65.0678 254.375 64.9398 254.111 64.8927 253.83C64.8459 253.548 64.8806 253.258 64.9494 252.981C65.1173 252.305 65.5031 251.667 66.086 251.284C66.6689 250.9 67.4572 250.805 68.0779 251.124C68.848 251.521 69.3252 252.363 69.361 253.198C69.4023 254.162 68.7424 255.111 67.8257 255.421ZM72.516 252.471C72.2961 251.458 72.7294 250.334 73.5734 249.729C72.8574 248.718 72.0529 247.784 71.1868 246.909C70.7794 247.406 69.5111 248.547 67.6141 247.578C66.7821 247.153 66.1651 246.108 66.2515 245.799C64.9546 246.188 63.6398 246.53 62.9385 246.865C63.2297 247.535 63.4671 248.758 62.5762 249.816C61.9469 250.564 60.458 250.532 59.8648 250.321C59.4522 251.359 59.1501 252.416 58.9688 253.494C59.4753 253.573 59.9642 253.719 60.4184 253.938C60.82 254.131 61.2198 254.412 61.3557 254.836C61.4307 255.071 61.4156 255.325 61.3712 255.568C61.237 256.302 60.8365 256.984 60.2601 257.46C60.8733 258.253 61.6155 258.925 62.4093 259.529C62.7256 259.047 63.2272 258.807 63.7035 258.625C64.0197 258.504 64.3531 258.393 64.6903 258.425C65.0447 258.46 65.3675 258.652 65.6276 258.895C66.1121 259.346 66.4132 259.987 66.4504 260.647C67.5528 260.618 68.6206 260.481 69.6724 260.266C69.7488 259.638 69.785 259.043 69.9914 258.496C70.1982 257.949 70.6022 257.448 71.1569 257.258C71.8667 257.015 72.6365 257.316 73.3257 257.613C73.8697 256.707 74.3222 255.672 74.6422 254.597C73.5972 254.327 72.7362 253.483 72.516 252.471Z" fill="#297789"/>
<path d="M85.3047 247.512C87.0668 249.241 88.8288 250.971 90.5914 252.701C91.522 253.615 92.455 254.53 93.4695 255.323C94.0166 255.75 94.6251 256.154 95.2903 256.154C95.9561 256.155 96.663 255.595 96.658 254.844C96.654 254.259 96.249 253.789 95.8697 253.389C93.0635 250.436 90.1312 247.637 87.0854 245.004C86.5271 245.82 85.9689 246.636 85.3047 247.512Z" fill="#297789"/>
<path d="M85.9503 248.531L91.0793 253.566C91.9903 254.46 92.9319 255.384 93.9363 256.169C94.4533 256.573 95.013 256.947 95.6018 256.947H95.6024C95.8908 256.947 96.1937 256.816 96.4138 256.595C96.6108 256.397 96.7183 256.147 96.7168 255.891C96.7133 255.401 96.3595 254.988 95.9973 254.607C93.274 251.741 90.3975 248.989 87.4451 246.424C86.9793 247.104 86.4975 247.801 85.9503 248.531ZM95.6018 257.451H95.6014C94.8597 257.451 94.2131 257.025 93.6247 256.566C92.5982 255.763 91.6461 254.829 90.7256 253.925L85.4388 248.736C85.3484 248.647 85.3378 248.505 85.4142 248.405C86.0739 247.535 86.6387 246.709 87.1853 245.911C87.2255 245.851 87.2914 245.81 87.3627 245.801C87.4346 245.792 87.5074 245.811 87.5617 245.858C90.6015 248.486 93.5634 251.314 96.3641 254.261C96.7761 254.695 97.2167 255.215 97.2218 255.888C97.2243 256.279 97.0645 256.656 96.7721 256.95C96.4595 257.264 96.0219 257.451 95.6018 257.451Z" fill="#297789"/>
<path d="M95.6018 257.451H95.6014C94.8597 257.451 94.2131 257.025 93.6247 256.566C92.5982 255.763 91.6461 254.829 90.7256 253.925L85.4388 248.736C85.3484 248.647 85.3378 248.505 85.4142 248.405C86.0739 247.535 86.6387 246.709 87.1853 245.911C87.2255 245.851 87.2914 245.81 87.3627 245.801C87.4346 245.792 87.5074 245.811 87.5617 245.858C90.6015 248.486 93.5634 251.314 96.3641 254.261C96.7761 254.695 97.2167 255.215 97.2218 255.888C97.2243 256.279 97.0645 256.656 96.7721 256.95C96.4595 257.264 96.0219 257.451 95.6018 257.451M85.9503 248.531L91.0793 253.566C91.9903 254.46 92.9319 255.384 93.9363 256.169C94.4533 256.573 95.013 256.947 95.6018 256.947H95.6024C95.8908 256.947 96.1937 256.816 96.4138 256.595C96.6108 256.397 96.7183 256.147 96.7168 255.891C96.7133 255.401 96.3595 254.988 95.9973 254.607C93.274 251.741 90.3975 248.989 87.4451 246.424C86.9793 247.104 86.4975 247.801 85.9503 248.531V248.531Z" stroke="white"/>
<path d="M67.4375 239.347C67.4375 233.291 72.358 228.382 78.4276 228.382C84.4971 228.382 89.4176 233.291 89.4176 239.347C89.4176 245.403 84.4971 250.312 78.4276 250.312C72.358 250.312 67.4375 245.403 67.4375 239.347Z" fill="#297789"/>
<path d="M73.2773 239.234C73.2773 238.759 73.6632 238.374 74.1396 238.374C74.6159 238.374 75.0023 238.759 75.0023 239.234C75.0023 239.71 74.6159 240.095 74.1396 240.095C73.6632 240.095 73.2773 239.71 73.2773 239.234Z" fill="#297789"/>
<path d="M74.1398 238.626C73.8037 238.626 73.5299 238.899 73.5299 239.235C73.5299 239.57 73.8037 239.843 74.1398 239.843C74.4765 239.843 74.7498 239.57 74.7498 239.235C74.7498 238.899 74.4765 238.626 74.1398 238.626ZM74.1398 240.347C73.5253 240.347 73.0254 239.848 73.0254 239.235C73.0254 238.622 73.5253 238.122 74.1398 238.122C74.7548 238.122 75.2548 238.622 75.2548 239.235C75.2548 239.848 74.7548 240.347 74.1398 240.347Z" fill="#297789"/>
<path d="M77.4551 239.234C77.4551 238.759 77.841 238.374 78.3173 238.374C78.7936 238.374 79.1795 238.759 79.1795 239.234C79.1795 239.71 78.7936 240.095 78.3173 240.095C77.841 240.095 77.4551 239.71 77.4551 239.234Z" fill="#297789"/>
<path d="M78.3161 238.626C77.9795 238.626 77.7061 238.899 77.7061 239.235C77.7061 239.57 77.9795 239.843 78.3161 239.843C78.6522 239.843 78.9261 239.57 78.9261 239.235C78.9261 238.899 78.6522 238.626 78.3161 238.626ZM78.3161 240.347C77.7011 240.347 77.2012 239.848 77.2012 239.235C77.2012 238.622 77.7011 238.122 78.3161 238.122C78.9306 238.122 79.431 238.622 79.431 239.235C79.431 239.848 78.9306 240.347 78.3161 240.347Z" fill="#297789"/>
<path d="M81.627 239.234C81.627 238.759 82.0133 238.374 82.4897 238.374C82.966 238.374 83.3519 238.759 83.3519 239.234C83.3519 239.71 82.966 240.095 82.4897 240.095C82.0133 240.095 81.627 239.71 81.627 239.234Z" fill="#297789"/>
<path d="M82.4977 238.626C82.1611 238.626 81.8878 238.899 81.8878 239.235C81.8878 239.57 82.1611 239.843 82.4977 239.843C82.8339 239.843 83.1077 239.57 83.1077 239.235C83.1077 238.899 82.8339 238.626 82.4977 238.626ZM82.4977 240.347C81.8827 240.347 81.3828 239.848 81.3828 239.235C81.3828 238.622 81.8827 238.122 82.4977 238.122C83.1122 238.122 83.6127 238.622 83.6127 239.235C83.6127 239.848 83.1122 240.347 82.4977 240.347Z" fill="#297789"/>
<path d="M86.7274 247.825L86.7043 247.822L86.6465 247.718L86.8399 247.043C86.853 246.999 86.8987 246.973 86.9444 246.986L87.0017 247.09L86.8083 247.764L86.7274 247.825Z" fill="#297789"/>
<path d="M87.647 249.007L87.636 249.006C87.5898 249 87.5576 248.958 87.5631 248.912C87.6666 248.123 87.7917 247.326 87.9339 246.543C87.942 246.497 87.9867 246.467 88.0319 246.476C88.0776 246.484 88.1078 246.528 88.0997 246.573C87.9575 247.353 87.8334 248.148 87.7304 248.934L87.647 249.007Z" fill="#297789"/>
<path d="M88.8476 250.155C88.8008 250.155 88.7637 250.118 88.7637 250.071C88.7637 249.677 88.8245 249.015 88.8777 248.432C88.9109 248.075 88.939 247.766 88.9486 247.572C88.9511 247.526 88.9923 247.489 89.0365 247.493C89.0832 247.495 89.1189 247.534 89.1164 247.581C89.1068 247.778 89.0782 248.088 89.0455 248.447C88.9923 249.027 88.9315 249.684 88.9315 250.071C88.9315 250.118 88.8943 250.155 88.8476 250.155Z" fill="#297789"/>
<path d="M90.075 251.285C90.0293 251.285 89.9921 251.249 89.9911 251.203L89.9278 248.403C89.9267 248.356 89.9634 248.318 90.0096 248.317C90.0529 248.316 90.0951 248.352 90.0956 248.399L90.1594 251.199C90.1604 251.246 90.1232 251.284 90.077 251.285H90.075Z" fill="#297789"/>
<path d="M91.2448 252.523C91.2 252.523 91.1629 252.488 91.1609 252.443L91.0508 249.51C91.0493 249.463 91.0855 249.425 91.1317 249.423C91.1815 249.42 91.2171 249.457 91.2192 249.504L91.3292 252.437C91.3307 252.483 91.2945 252.522 91.2483 252.523H91.2448Z" fill="#297789"/>
<path d="M92.4378 253.568L92.3534 253.489L92.2052 250.749C92.2027 250.703 92.2379 250.664 92.2846 250.661C92.3394 250.66 92.3705 250.694 92.373 250.74L92.5217 253.48C92.5242 253.526 92.4886 253.566 92.4423 253.568H92.4378Z" fill="#297789"/>
<path d="M93.6144 254.533L93.531 254.456L93.3245 251.789C93.3209 251.742 93.3556 251.702 93.4018 251.699C93.446 251.695 93.4888 251.729 93.4923 251.776L93.6983 254.443C93.7018 254.489 93.6671 254.53 93.6209 254.533H93.6144Z" fill="#297789"/>
<path d="M94.7313 255.4L94.6474 255.325L94.4067 252.986C94.4017 252.94 94.4354 252.898 94.4816 252.894C94.5238 252.889 94.569 252.922 94.5741 252.968L94.8147 255.308C94.8198 255.354 94.7861 255.395 94.7399 255.4L94.7313 255.4Z" fill="#297789"/>
<path d="M95.8217 255.276L95.7388 255.206L95.5695 254.16C95.5619 254.115 95.5936 254.072 95.6393 254.064C95.685 254.057 95.7283 254.088 95.7358 254.134L95.9051 255.179C95.9126 255.225 95.881 255.268 95.8353 255.275L95.8217 255.276Z" fill="#297789"/>
<path d="M85.8015 248.354C85.7409 248.308 85.6862 248.255 85.6406 248.195L85.8015 248.354Z" fill="#297789"/>
<path d="M86.7274 247.825L86.7043 247.822L86.6465 247.718L86.8399 247.043C86.8505 247.006 86.8836 246.983 86.9208 246.983C86.9284 246.983 86.9364 246.984 86.9444 246.986L87.0017 247.09L86.8083 247.764L86.7274 247.825Z" fill="#297789"/>
<path d="M87.791 247.368C87.8362 247.092 87.884 246.817 87.9337 246.544C87.9407 246.503 87.9769 246.475 88.0161 246.475C88.0211 246.475 88.0267 246.475 88.0317 246.476C88.0774 246.484 88.1076 246.528 88.0995 246.573C88.0659 246.757 88.0337 246.941 88.002 247.126C87.9437 247.193 87.884 247.26 87.8237 247.325C87.8131 247.34 87.8021 247.354 87.791 247.368Z" fill="#297789"/>
<path d="M61.1063 233.64C61.1219 233.709 61.0636 233.84 61.0385 233.9C61.0169 233.953 60.9942 234.004 60.9636 234.052C60.9068 234.141 60.8325 234.228 60.7556 234.3C60.5938 234.453 60.4134 234.564 60.2074 234.642C60.1235 234.674 60.0346 234.694 59.9471 234.709C59.8693 234.722 59.7989 234.729 59.721 234.721C59.6733 234.716 59.6241 234.7 59.5758 234.7C59.7105 234.7 59.5633 234.701 59.511 234.687C59.2784 234.62 59.0508 234.426 58.9377 234.21C58.8694 234.08 58.8081 233.935 58.8021 233.786C58.7965 233.651 58.8317 233.512 58.8824 233.389C58.9558 233.211 59.0392 233.034 59.1472 232.876C59.2683 232.698 59.4196 232.513 59.6135 232.415C59.8095 232.315 60.0205 232.299 60.2099 232.374C60.2888 232.337 60.3787 232.325 60.4546 232.354C60.5963 232.408 60.7149 232.476 60.8134 232.596C60.9098 232.714 60.9737 232.828 61.0289 232.971C61.0465 233.015 61.0611 233.06 61.0721 233.107L61.0877 233.188L61.1043 233.316L61.1023 233.287L61.1053 233.283L61.1224 233.412L61.1254 233.478C61.1234 233.531 61.1209 233.589 61.1063 233.64ZM63.7125 232.92L63.2914 231.505L64.1772 230.23L61.9956 228.689C61.7148 229.157 61.4334 229.625 61.152 230.093L61.0972 230.159L60.9852 230.181C60.4993 230.174 60.0135 230.165 59.5276 230.153C59.2884 229.69 59.0558 229.249 58.7945 228.827L58.7106 228.748L58.6016 228.781C58.0243 229.134 57.447 229.488 56.8696 229.842L56.8289 229.876L56.8475 230.002C57.0656 230.395 57.3254 230.763 57.6208 231.099C57.36 231.589 57.0857 232.044 56.7857 232.481C56.7134 232.586 56.631 232.697 56.5104 232.733C56.4099 232.763 56.3029 232.735 56.2019 232.706C55.7954 232.589 55.393 232.456 54.9965 232.308C54.6579 233.124 54.593 234.056 54.8156 234.912C54.8478 234.977 56.3556 234.758 56.3556 234.758L57.2545 236.347L56.533 237.556L58.1861 238.784L59.0442 237.505L60.5601 237.536L61.145 238.886L63.4045 238.089L62.8578 236.706L63.6703 235.363L65.2028 235.238L65.2505 233.333L63.7125 232.92Z" fill="#297789"/>
<path d="M60.4751 237.264C60.5605 237.264 60.6404 237.307 60.6876 237.38C60.9519 237.789 61.1273 238.198 61.2871 238.595C61.9005 238.507 62.5145 238.309 63.118 238.005C62.9331 237.592 62.7306 237.235 62.5186 236.86C62.4668 236.769 62.4758 236.654 62.5422 236.573C62.9346 236.099 63.1888 235.689 63.3426 235.283C63.3762 235.193 63.4587 235.131 63.5546 235.122C64.037 235.075 64.4741 235.092 64.8967 235.109C65.0695 234.588 65.1454 234.045 65.1268 233.461C64.5937 233.264 64.0983 233.201 63.7174 233.169C63.6184 233.16 63.534 233.095 63.5008 233.002C63.3451 232.564 63.1667 232.119 62.9944 231.688C62.9642 231.612 62.9688 231.518 63.0135 231.449C63.2115 231.143 63.4004 230.871 63.5827 230.608C63.6687 230.485 63.7526 230.364 63.8355 230.242C63.7023 230.123 63.5802 230.014 63.4551 229.908C63.0271 229.546 62.5638 229.226 62.0754 228.955C61.8166 229.384 61.6001 229.801 61.3901 230.206C61.3423 230.298 61.2403 230.352 61.1403 230.34C60.5836 230.283 60.0219 230.305 59.4702 230.403C59.3542 230.424 59.2366 230.36 59.1919 230.249C59.021 229.826 58.8251 229.408 58.6095 229.006C58.0056 229.29 57.481 229.62 57.0459 229.989C57.2745 230.38 57.5247 230.721 57.7463 231.015C57.8091 231.098 57.8136 231.212 57.7584 231.3C57.4378 231.811 57.1348 232.294 56.9082 232.806C56.8585 232.918 56.7369 232.978 56.6173 232.949C56.1159 232.827 55.6405 232.707 55.1687 232.588C54.9381 233.356 54.8849 234.066 55.0105 234.703C55.3079 234.654 55.5923 234.593 55.8697 234.534C56.0244 234.501 56.1787 234.468 56.3329 234.438C56.451 234.415 56.5691 234.478 56.6148 234.589C56.87 235.207 57.1479 235.699 57.4644 236.095C57.5308 236.177 57.5378 236.293 57.482 236.384C57.2192 236.81 56.9756 237.16 56.7404 237.492C57.1057 237.909 57.5634 238.248 58.0814 238.485C58.1257 238.401 58.1689 238.319 58.2116 238.238C58.3673 237.94 58.5151 237.658 58.6718 237.379C58.7216 237.292 58.8195 237.243 58.918 237.253C59.4094 237.304 59.9335 237.341 60.4384 237.267L60.4751 237.264ZM61.1243 239.121C61.0218 239.121 60.9278 239.059 60.8896 238.962C60.7294 238.557 60.5766 238.172 60.346 237.787C59.8998 237.834 59.4551 237.811 59.0321 237.77C58.907 237.997 58.7859 238.228 58.6587 238.471C58.5814 238.618 58.502 238.769 58.4191 238.925C58.3588 239.039 58.2236 239.088 58.1035 239.042C57.3574 238.748 56.7072 238.27 56.2244 237.66C56.1546 237.572 56.1515 237.449 56.2163 237.358C56.454 237.024 56.6987 236.68 56.9605 236.267C56.6922 235.905 56.4515 235.479 56.2299 234.973C56.145 234.991 56.0601 235.009 55.9747 235.027C55.6194 235.102 55.2516 235.181 54.8527 235.236C54.7261 235.254 54.607 235.175 54.5738 235.052C54.3452 234.203 54.4086 233.245 54.7618 232.205C54.804 232.08 54.9351 232.009 55.0627 232.041C55.5521 232.165 56.032 232.287 56.5354 232.41C56.7384 231.989 56.9816 231.591 57.2388 231.179C57.0007 230.858 56.7389 230.486 56.5038 230.055C56.4485 229.953 56.4696 229.827 56.5555 229.749C57.1062 229.247 57.7991 228.809 58.6161 228.45C58.7346 228.397 58.8748 228.444 58.9381 228.557C59.1763 228.981 59.3928 229.424 59.5833 229.875C60.0591 229.805 60.5409 229.788 61.0198 229.824C61.2434 229.394 61.4795 228.95 61.7719 228.486C61.8423 228.375 61.9855 228.336 62.1025 228.397C62.6999 228.708 63.2642 229.087 63.7807 229.523C63.9154 229.636 64.046 229.754 64.1771 229.871L64.1902 229.883C64.2611 229.946 64.3575 230.033 64.3922 230.17C64.4098 230.238 64.3972 230.311 64.3575 230.371C64.2405 230.546 64.1209 230.718 63.9978 230.895C63.8395 231.123 63.6767 231.358 63.5084 231.614C63.6501 231.968 63.7918 232.325 63.9219 232.682C64.3515 232.726 64.8901 232.815 65.4679 233.053C65.5574 233.09 65.6177 233.174 65.6237 233.271C65.6704 234.053 65.5674 234.769 65.3092 235.456C65.271 235.558 65.1795 235.624 65.063 235.62L64.8941 235.613C64.5284 235.598 64.152 235.583 63.7541 235.61C63.5958 235.979 63.3652 236.35 63.0406 236.759C63.2592 237.147 63.4797 237.551 63.6757 238.024C63.7244 238.143 63.6762 238.279 63.5632 238.341C62.7743 238.771 61.9629 239.033 61.1514 239.12L61.1243 239.121Z" fill="#297789"/>
<path d="M59.9572 232.511C59.7351 232.511 59.4959 232.63 59.3382 232.831C59.1457 233.078 59.0568 233.433 59.0869 233.83C59.0935 233.921 59.108 234.032 59.1573 234.104C59.1919 234.153 59.2538 234.197 59.3462 234.238C59.6622 234.378 60.0325 234.356 60.3124 234.18C60.5968 234.001 60.7762 233.66 60.7576 233.331C60.7395 233.001 60.5134 232.69 60.2199 232.591L60.1848 232.58C60.132 232.564 60.0873 232.544 60.0516 232.518L59.9572 232.511ZM59.7783 234.832C59.5617 234.832 59.3437 234.788 59.1412 234.698C58.9618 234.618 58.8317 234.518 58.7433 234.391C58.6242 234.221 58.5955 234.022 58.5835 233.869C58.5433 233.346 58.6699 232.867 58.9402 232.522C59.2749 232.093 59.8351 231.904 60.3009 232.063L60.3913 232.117C60.8746 232.285 61.2324 232.771 61.262 233.303C61.2907 233.817 61.0234 234.329 60.5812 234.606C60.3425 234.756 60.0617 234.832 59.7783 234.832Z" fill="#297789"/>
<path d="M61.1063 233.64C61.1219 233.709 61.0636 233.84 61.0385 233.9C61.0169 233.953 60.9942 234.004 60.9636 234.052C60.9068 234.141 60.8325 234.228 60.7556 234.3C60.5938 234.453 60.4134 234.564 60.2074 234.642C60.1235 234.674 60.0346 234.694 59.9471 234.709C59.8693 234.722 59.7989 234.729 59.721 234.721C59.6733 234.716 59.6241 234.7 59.5758 234.7C59.7105 234.7 59.5633 234.701 59.511 234.687C59.2784 234.62 59.0508 234.426 58.9377 234.21C58.8694 234.08 58.8081 233.935 58.8021 233.786C58.7965 233.651 58.8317 233.512 58.8824 233.389C58.9558 233.211 59.0392 233.034 59.1472 232.876C59.2683 232.698 59.4196 232.513 59.6135 232.415C59.8095 232.315 60.0205 232.299 60.2099 232.374C60.2888 232.337 60.3787 232.325 60.4546 232.354C60.5963 232.408 60.7149 232.476 60.8134 232.596C60.9098 232.714 60.9737 232.828 61.0289 232.971C61.0465 233.015 61.0611 233.06 61.0721 233.107L61.0877 233.188L61.1043 233.316L61.1023 233.287L61.1053 233.283L61.1224 233.412L61.1254 233.478C61.1234 233.531 61.1209 233.589 61.1063 233.64ZM63.7125 232.92L63.2914 231.505L64.1772 230.23L61.9956 228.689C61.7148 229.157 61.4334 229.625 61.152 230.093L61.0972 230.159L60.9852 230.181C60.4993 230.174 60.0135 230.165 59.5276 230.153C59.2884 229.69 59.0558 229.249 58.7945 228.827L58.7106 228.748L58.6016 228.781C58.0243 229.134 57.447 229.488 56.8696 229.842L56.8289 229.876L56.8475 230.002C57.0656 230.395 57.3254 230.763 57.6208 231.099C57.36 231.589 57.0857 232.044 56.7857 232.481C56.7134 232.586 56.631 232.697 56.5104 232.733C56.4099 232.763 56.3029 232.735 56.2019 232.706C55.7954 232.589 55.393 232.456 54.9965 232.308C54.6579 233.124 54.593 234.056 54.8156 234.912C54.8478 234.977 56.3556 234.758 56.3556 234.758L57.2545 236.347L56.533 237.556L58.1861 238.784L59.0442 237.505L60.5601 237.536L61.145 238.886L63.4045 238.089L62.8578 236.706L63.6703 235.363L65.2028 235.238L65.2505 233.333L63.7125 232.92Z" fill="#297789"/>
<path d="M60.4751 237.264C60.5605 237.264 60.6404 237.307 60.6876 237.38C60.9519 237.789 61.1273 238.198 61.2871 238.595C61.9005 238.507 62.5145 238.309 63.118 238.005C62.9331 237.592 62.7306 237.235 62.5186 236.86C62.4668 236.769 62.4758 236.654 62.5422 236.573C62.9346 236.099 63.1888 235.689 63.3426 235.283C63.3762 235.193 63.4587 235.131 63.5546 235.122C64.037 235.075 64.4741 235.092 64.8967 235.109C65.0695 234.588 65.1454 234.045 65.1268 233.461C64.5937 233.264 64.0983 233.201 63.7174 233.169C63.6184 233.16 63.534 233.095 63.5008 233.002C63.3451 232.564 63.1667 232.119 62.9944 231.688C62.9642 231.612 62.9688 231.518 63.0135 231.449C63.2115 231.143 63.4004 230.871 63.5827 230.608C63.6687 230.485 63.7526 230.364 63.8355 230.242C63.7023 230.123 63.5802 230.014 63.4551 229.908C63.0271 229.546 62.5638 229.226 62.0754 228.955C61.8166 229.384 61.6001 229.801 61.3901 230.206C61.3423 230.298 61.2403 230.352 61.1403 230.34C60.5836 230.283 60.0219 230.305 59.4702 230.403C59.3542 230.424 59.2366 230.36 59.1919 230.249C59.021 229.826 58.8251 229.408 58.6095 229.006C58.0056 229.29 57.481 229.62 57.0459 229.989C57.2745 230.38 57.5247 230.721 57.7463 231.015C57.8091 231.098 57.8136 231.212 57.7584 231.3C57.4378 231.811 57.1348 232.294 56.9082 232.806C56.8585 232.918 56.7369 232.978 56.6173 232.949C56.1159 232.827 55.6405 232.707 55.1687 232.588C54.9381 233.356 54.8849 234.066 55.0105 234.703C55.3079 234.654 55.5923 234.593 55.8697 234.534C56.0244 234.501 56.1787 234.468 56.3329 234.438C56.451 234.415 56.5691 234.478 56.6148 234.589C56.87 235.207 57.1479 235.699 57.4644 236.095C57.5308 236.177 57.5378 236.293 57.482 236.384C57.2192 236.81 56.9756 237.16 56.7404 237.492C57.1057 237.909 57.5634 238.248 58.0814 238.485C58.1257 238.401 58.1689 238.319 58.2116 238.238C58.3673 237.94 58.5151 237.658 58.6718 237.379C58.7216 237.292 58.8195 237.243 58.918 237.253C59.4094 237.304 59.9335 237.341 60.4384 237.267L60.4751 237.264ZM61.1243 239.121C61.0218 239.121 60.9278 239.059 60.8896 238.962C60.7294 238.557 60.5766 238.172 60.346 237.787C59.8998 237.834 59.4551 237.811 59.0321 237.77C58.907 237.997 58.7859 238.228 58.6587 238.471C58.5814 238.618 58.502 238.769 58.4191 238.925C58.3588 239.039 58.2236 239.088 58.1035 239.042C57.3574 238.748 56.7072 238.27 56.2244 237.66C56.1546 237.572 56.1515 237.449 56.2163 237.358C56.454 237.024 56.6987 236.68 56.9605 236.267C56.6922 235.905 56.4515 235.479 56.2299 234.973C56.145 234.991 56.0601 235.009 55.9747 235.027C55.6194 235.102 55.2516 235.181 54.8527 235.236C54.7261 235.254 54.607 235.175 54.5738 235.052C54.3452 234.203 54.4086 233.245 54.7618 232.205C54.804 232.08 54.9351 232.009 55.0627 232.041C55.5521 232.165 56.032 232.287 56.5354 232.41C56.7384 231.989 56.9816 231.591 57.2388 231.179C57.0007 230.858 56.7389 230.486 56.5038 230.055C56.4485 229.953 56.4696 229.827 56.5555 229.749C57.1062 229.247 57.7991 228.809 58.6161 228.45C58.7346 228.397 58.8748 228.444 58.9381 228.557C59.1763 228.981 59.3928 229.424 59.5833 229.875C60.0591 229.805 60.5409 229.788 61.0198 229.824C61.2434 229.394 61.4795 228.95 61.7719 228.486C61.8423 228.375 61.9855 228.336 62.1025 228.397C62.6999 228.708 63.2642 229.087 63.7807 229.523C63.9154 229.636 64.046 229.754 64.1771 229.871L64.1902 229.883C64.2611 229.946 64.3575 230.033 64.3922 230.17C64.4098 230.238 64.3972 230.311 64.3575 230.371C64.2405 230.546 64.1209 230.718 63.9978 230.895C63.8395 231.123 63.6767 231.358 63.5084 231.614C63.6501 231.968 63.7918 232.325 63.9219 232.682C64.3515 232.726 64.8901 232.815 65.4679 233.053C65.5574 233.09 65.6177 233.174 65.6237 233.271C65.6704 234.053 65.5674 234.769 65.3092 235.456C65.271 235.558 65.1795 235.624 65.063 235.62L64.8941 235.613C64.5284 235.598 64.152 235.583 63.7541 235.61C63.5958 235.979 63.3652 236.35 63.0406 236.759C63.2592 237.147 63.4797 237.551 63.6757 238.024C63.7244 238.143 63.6762 238.279 63.5632 238.341C62.7743 238.771 61.9629 239.033 61.1514 239.12L61.1243 239.121Z" fill="#297789"/>
<path d="M59.9572 232.511C59.7351 232.511 59.4959 232.63 59.3382 232.831C59.1457 233.078 59.0568 233.433 59.0869 233.83C59.0935 233.921 59.108 234.032 59.1573 234.104C59.1919 234.153 59.2538 234.197 59.3462 234.238C59.6622 234.378 60.0325 234.356 60.3124 234.18C60.5968 234.001 60.7762 233.66 60.7576 233.331C60.7395 233.001 60.5134 232.69 60.2199 232.591L60.1848 232.58C60.132 232.564 60.0873 232.544 60.0516 232.518L59.9572 232.511ZM59.7783 234.832C59.5617 234.832 59.3437 234.788 59.1412 234.698C58.9618 234.618 58.8317 234.518 58.7433 234.391C58.6242 234.221 58.5955 234.022 58.5835 233.869C58.5433 233.346 58.6699 232.867 58.9402 232.522C59.2749 232.093 59.8351 231.904 60.3009 232.063L60.3913 232.117C60.8746 232.285 61.2324 232.771 61.262 233.303C61.2907 233.817 61.0234 234.329 60.5812 234.606C60.3425 234.756 60.0617 234.832 59.7783 234.832Z" fill="#297789"/>
<path d="M61.1063 233.64C61.1219 233.709 61.0636 233.84 61.0385 233.9C61.0169 233.953 60.9942 234.004 60.9636 234.052C60.9068 234.141 60.8325 234.228 60.7556 234.3C60.5938 234.453 60.4134 234.564 60.2074 234.642C60.1235 234.674 60.0346 234.694 59.9471 234.709C59.8693 234.722 59.7989 234.729 59.721 234.721C59.6733 234.716 59.6241 234.7 59.5758 234.7C59.7105 234.7 59.5633 234.701 59.511 234.687C59.2784 234.62 59.0508 234.426 58.9377 234.21C58.8694 234.08 58.8081 233.935 58.8021 233.786C58.7965 233.651 58.8317 233.512 58.8824 233.389C58.9558 233.211 59.0392 233.034 59.1472 232.876C59.2683 232.698 59.4196 232.513 59.6135 232.415C59.8095 232.315 60.0205 232.299 60.2099 232.374C60.2888 232.337 60.3787 232.325 60.4546 232.354C60.5963 232.408 60.7149 232.476 60.8134 232.596C60.9098 232.714 60.9737 232.828 61.0289 232.971C61.0465 233.015 61.0611 233.06 61.0721 233.107L61.0877 233.188L61.1043 233.316L61.1023 233.287L61.1053 233.283L61.1224 233.412L61.1254 233.478C61.1234 233.531 61.1209 233.589 61.1063 233.64ZM63.7125 232.92L63.2914 231.505L64.1772 230.23L61.9956 228.689C61.7148 229.157 61.4334 229.625 61.152 230.093L61.0972 230.159L60.9852 230.181C60.4993 230.174 60.0135 230.165 59.5276 230.153C59.2884 229.69 59.0558 229.249 58.7945 228.827L58.7106 228.748L58.6016 228.781C58.0243 229.134 57.447 229.488 56.8696 229.842L56.8289 229.876L56.8475 230.002C57.0656 230.395 57.3254 230.763 57.6208 231.099C57.36 231.589 57.0857 232.044 56.7857 232.481C56.7134 232.586 56.631 232.697 56.5104 232.733C56.4099 232.763 56.3029 232.735 56.2019 232.706C55.7954 232.589 55.393 232.456 54.9965 232.308C54.6579 233.124 54.593 234.056 54.8156 234.912C54.8478 234.977 56.3556 234.758 56.3556 234.758L57.2545 236.347L56.533 237.556L58.1861 238.784L59.0442 237.505L60.5601 237.536L61.145 238.886L63.4045 238.089L62.8578 236.706L63.6703 235.363L65.2028 235.238L65.2505 233.333L63.7125 232.92Z" fill="#297789"/>
<path d="M59.7843 234.725C59.7622 234.725 59.7401 234.724 59.7169 234.721C59.6692 234.716 59.62 234.701 59.5718 234.7C59.6014 234.7 59.6175 234.701 59.6235 234.701C59.6466 234.701 59.5476 234.699 59.5069 234.687C59.305 234.629 59.1075 234.475 58.9844 234.295C59.0808 234.325 59.1623 234.401 59.2517 234.447C59.512 234.594 59.4693 234.567 59.6054 234.619L59.719 234.648C59.8049 234.648 59.8516 234.651 59.8848 234.651C59.9607 234.651 59.9662 234.639 60.1958 234.569C60.5505 234.437 60.4681 234.493 60.6957 234.307C60.9324 234.075 60.9037 234.115 60.9751 233.891C60.9917 233.82 61.0364 233.774 61.0907 233.75C61.0751 233.806 61.049 233.865 61.0344 233.9C61.0128 233.953 60.9902 234.004 60.9595 234.052C60.9027 234.142 60.8284 234.228 60.7515 234.3C60.5897 234.453 60.4093 234.564 60.2033 234.642C60.1194 234.674 60.0305 234.694 59.9431 234.709C59.8883 234.719 59.8371 234.725 59.7843 234.725Z" fill="#297789"/>
<path d="M61.5491 238.8C61.5099 238.8 61.4727 238.793 61.4375 238.782L63.1901 238.164C63.1725 238.205 63.1473 238.245 63.1132 238.284C62.7273 238.656 62.1575 238.678 61.6621 238.783C61.6234 238.794 61.5852 238.8 61.5491 238.8Z" fill="#297789"/>
<path d="M64.7606 235.439C64.636 235.439 64.5109 235.392 64.4199 235.303L65.1389 235.243C65.0485 235.376 64.9048 235.439 64.7606 235.439ZM65.2017 235.114L65.2269 234.112C65.263 234.144 65.2952 234.183 65.3198 234.229C65.3615 234.302 65.3806 234.386 65.3786 234.47L65.3801 234.458L65.3786 234.471L65.3685 234.553C65.3439 234.74 65.2841 234.917 65.2088 235.09C65.2068 235.098 65.2042 235.106 65.2017 235.114Z" fill="#297789"/>
<path d="M60.4756 237.264C60.5605 237.264 60.6404 237.307 60.6876 237.38C60.9524 237.789 61.1273 238.198 61.2871 238.595C61.9005 238.507 62.5145 238.309 63.118 238.005C62.9331 237.592 62.7306 237.235 62.5186 236.86C62.4668 236.769 62.4753 236.654 62.5422 236.573C62.9346 236.099 63.1893 235.689 63.3426 235.283C63.3762 235.193 63.4587 235.131 63.5546 235.122C64.037 235.075 64.4741 235.092 64.8967 235.109C65.0695 234.588 65.1454 234.045 65.1268 233.461C64.5937 233.264 64.0983 233.201 63.7174 233.169C63.6184 233.16 63.534 233.095 63.5008 233.002C63.3451 232.564 63.1667 232.119 62.9944 231.688C62.9642 231.612 62.9688 231.518 63.0135 231.449C63.2115 231.143 63.4004 230.871 63.5827 230.609C63.6687 230.485 63.7531 230.364 63.8355 230.242C63.7023 230.123 63.5802 230.014 63.4551 229.908C63.0271 229.546 62.5638 229.226 62.0759 228.955C61.8166 229.384 61.6001 229.801 61.3901 230.206C61.3423 230.298 61.2403 230.352 61.1403 230.34C60.5836 230.284 60.0219 230.305 59.4702 230.403C59.3542 230.424 59.2366 230.36 59.1919 230.249C59.021 229.826 58.8251 229.408 58.6095 229.006C58.0056 229.29 57.481 229.62 57.0459 229.989C57.2745 230.38 57.5247 230.721 57.7463 231.015C57.8091 231.099 57.8136 231.212 57.7584 231.3C57.4378 231.811 57.1348 232.294 56.9082 232.806C56.8585 232.918 56.7369 232.978 56.6173 232.949C56.1159 232.827 55.6405 232.707 55.1687 232.588C54.9381 233.356 54.8849 234.066 55.0105 234.703C55.3079 234.654 55.5923 234.593 55.8697 234.534C56.0244 234.501 56.1787 234.468 56.3329 234.438C56.451 234.415 56.5691 234.478 56.6148 234.589C56.87 235.207 57.1479 235.699 57.4644 236.095C57.5308 236.177 57.5378 236.293 57.482 236.384C57.2192 236.81 56.9756 237.16 56.7404 237.492C57.1057 237.909 57.5634 238.248 58.0814 238.485C58.1257 238.401 58.1689 238.319 58.2116 238.238C58.3673 237.94 58.5151 237.658 58.6718 237.379C58.7216 237.292 58.8195 237.243 58.9185 237.253C59.4094 237.304 59.9335 237.341 60.4384 237.267L60.4756 237.264ZM61.1243 239.121C61.0218 239.121 60.9283 239.059 60.8896 238.962C60.7294 238.557 60.5766 238.172 60.346 237.787C59.8998 237.834 59.4551 237.811 59.0321 237.77C58.9075 237.997 58.7859 238.228 58.6587 238.471C58.5814 238.618 58.502 238.769 58.4191 238.925C58.3588 239.039 58.2236 239.088 58.1035 239.042C57.3574 238.748 56.7072 238.27 56.2244 237.66C56.1546 237.572 56.1515 237.449 56.2163 237.358C56.454 237.024 56.6987 236.68 56.9605 236.267C56.6922 235.905 56.4515 235.479 56.2299 234.973C56.145 234.991 56.0601 235.008 55.9747 235.027C55.6194 235.102 55.2516 235.181 54.8527 235.236C54.7261 235.254 54.607 235.175 54.5738 235.052C54.3452 234.203 54.4086 233.245 54.7618 232.205C54.804 232.08 54.9346 232.009 55.0627 232.041C55.5521 232.165 56.032 232.287 56.5354 232.41C56.7384 231.989 56.9816 231.591 57.2388 231.179C57.0007 230.858 56.7389 230.486 56.5038 230.055C56.4485 229.953 56.4696 229.827 56.5555 229.749C57.1062 229.247 57.7991 228.809 58.6161 228.45C58.7346 228.397 58.8748 228.444 58.9381 228.557C59.1763 228.981 59.3928 229.424 59.5833 229.875C60.0591 229.805 60.5409 229.788 61.0198 229.824C61.2434 229.394 61.4795 228.95 61.7719 228.486C61.8418 228.375 61.9855 228.336 62.1025 228.397C62.6999 228.708 63.2647 229.087 63.7807 229.523C63.9154 229.637 64.046 229.754 64.1771 229.871L64.1902 229.883C64.2611 229.946 64.3575 230.033 64.3922 230.17C64.4098 230.238 64.3972 230.312 64.3575 230.371C64.2405 230.546 64.1209 230.718 63.9978 230.895C63.8395 231.123 63.6767 231.358 63.5084 231.614C63.6496 231.968 63.7918 232.325 63.9219 232.682C64.3515 232.726 64.8901 232.815 65.4679 233.053C65.5574 233.09 65.6177 233.174 65.6237 233.271C65.6704 234.053 65.5674 234.769 65.3092 235.456C65.271 235.558 65.1795 235.624 65.063 235.62L64.8941 235.613C64.5284 235.598 64.1525 235.583 63.7546 235.61C63.5958 235.979 63.3652 236.35 63.0406 236.759C63.2592 237.147 63.4797 237.551 63.6757 238.024C63.7244 238.143 63.6762 238.279 63.5632 238.341C62.7743 238.771 61.9634 239.033 61.1514 239.12L61.1243 239.121Z" fill="#297789"/>
<path d="M61.1243 239.121C61.0218 239.121 60.9283 239.059 60.8896 238.962C60.7294 238.557 60.5766 238.172 60.346 237.787C59.8998 237.834 59.4551 237.811 59.0321 237.77C58.9075 237.997 58.7859 238.228 58.6587 238.471C58.5814 238.618 58.502 238.769 58.4191 238.925C58.3588 239.039 58.2236 239.088 58.1035 239.042C57.3574 238.748 56.7072 238.27 56.2244 237.66C56.1546 237.572 56.1515 237.449 56.2163 237.358C56.454 237.024 56.6987 236.68 56.9605 236.267C56.6922 235.905 56.4515 235.479 56.2299 234.973C56.145 234.991 56.0601 235.008 55.9747 235.027C55.6194 235.102 55.2516 235.181 54.8527 235.236C54.7261 235.254 54.607 235.175 54.5738 235.052C54.3452 234.203 54.4086 233.245 54.7618 232.205C54.804 232.08 54.9346 232.009 55.0627 232.041C55.5521 232.165 56.032 232.287 56.5354 232.41C56.7384 231.989 56.9816 231.591 57.2388 231.179C57.0007 230.858 56.7389 230.486 56.5038 230.055C56.4485 229.953 56.4696 229.827 56.5555 229.749C57.1062 229.247 57.7991 228.809 58.6161 228.45C58.7346 228.397 58.8748 228.444 58.9381 228.557C59.1763 228.981 59.3928 229.424 59.5833 229.875C60.0591 229.805 60.5409 229.788 61.0198 229.824C61.2434 229.394 61.4795 228.95 61.7719 228.486C61.8418 228.375 61.9855 228.336 62.1025 228.397C62.6999 228.708 63.2647 229.087 63.7807 229.523C63.9154 229.637 64.046 229.754 64.1771 229.871L64.1902 229.883C64.2611 229.946 64.3575 230.033 64.3922 230.17C64.4098 230.238 64.3972 230.312 64.3575 230.371C64.2405 230.546 64.1209 230.718 63.9978 230.895C63.8395 231.123 63.6767 231.358 63.5084 231.614C63.6496 231.968 63.7918 232.325 63.9219 232.682C64.3515 232.726 64.8901 232.815 65.4679 233.053C65.5574 233.09 65.6177 233.174 65.6237 233.271C65.6704 234.053 65.5674 234.769 65.3092 235.456C65.271 235.558 65.1795 235.624 65.063 235.62L64.8941 235.613C64.5284 235.598 64.1525 235.583 63.7546 235.61C63.5958 235.979 63.3652 236.35 63.0406 236.759C63.2592 237.147 63.4797 237.551 63.6757 238.024C63.7244 238.143 63.6762 238.279 63.5632 238.341C62.7743 238.771 61.9634 239.033 61.1514 239.12L61.1243 239.121M60.4756 237.264C60.5605 237.264 60.6404 237.307 60.6876 237.38C60.9524 237.789 61.1273 238.198 61.2871 238.595C61.9005 238.507 62.5145 238.309 63.118 238.005C62.9331 237.592 62.7306 237.235 62.5186 236.86C62.4668 236.769 62.4753 236.654 62.5422 236.573C62.9346 236.099 63.1893 235.689 63.3426 235.283C63.3762 235.193 63.4587 235.131 63.5546 235.122C64.037 235.075 64.4741 235.092 64.8967 235.109C65.0695 234.588 65.1454 234.045 65.1268 233.461C64.5937 233.264 64.0983 233.201 63.7174 233.169C63.6184 233.16 63.534 233.095 63.5008 233.002C63.3451 232.564 63.1667 232.119 62.9944 231.688C62.9642 231.612 62.9688 231.518 63.0135 231.449C63.2115 231.143 63.4004 230.871 63.5827 230.609C63.6687 230.485 63.7531 230.364 63.8355 230.242C63.7023 230.123 63.5802 230.014 63.4551 229.908C63.0271 229.546 62.5638 229.226 62.0759 228.955C61.8166 229.384 61.6001 229.801 61.3901 230.206C61.3423 230.298 61.2403 230.352 61.1403 230.34C60.5836 230.284 60.0219 230.305 59.4702 230.403C59.3542 230.424 59.2366 230.36 59.1919 230.249C59.021 229.826 58.8251 229.408 58.6095 229.006C58.0056 229.29 57.481 229.62 57.0459 229.989C57.2745 230.38 57.5247 230.721 57.7463 231.015C57.8091 231.099 57.8136 231.212 57.7584 231.3C57.4378 231.811 57.1348 232.294 56.9082 232.806C56.8585 232.918 56.7369 232.978 56.6173 232.949C56.1159 232.827 55.6405 232.707 55.1687 232.588C54.9381 233.356 54.8849 234.066 55.0105 234.703C55.3079 234.654 55.5923 234.593 55.8697 234.534C56.0244 234.501 56.1787 234.468 56.3329 234.438C56.451 234.415 56.5691 234.478 56.6148 234.589C56.87 235.207 57.1479 235.699 57.4644 236.095C57.5308 236.177 57.5378 236.293 57.482 236.384C57.2192 236.81 56.9756 237.16 56.7404 237.492C57.1057 237.909 57.5634 238.248 58.0814 238.485C58.1257 238.401 58.1689 238.319 58.2116 238.238C58.3673 237.94 58.5151 237.658 58.6718 237.379C58.7216 237.292 58.8195 237.243 58.9185 237.253C59.4094 237.304 59.9335 237.341 60.4384 237.267L60.4756 237.264Z" stroke="white"/>
<path d="M59.9571 232.511C59.7351 232.511 59.4959 232.63 59.3381 232.831C59.1457 233.078 59.0563 233.433 59.0869 233.83C59.0934 233.921 59.108 234.032 59.1572 234.103C59.1919 234.153 59.2537 234.197 59.3462 234.238C59.6622 234.378 60.0325 234.356 60.3124 234.18C60.5968 234.001 60.7761 233.66 60.7576 233.331C60.7395 233.001 60.5134 232.69 60.2199 232.591L60.1853 232.58C60.132 232.564 60.0873 232.544 60.0516 232.518L59.9571 232.511ZM59.7783 234.832C59.5617 234.832 59.3437 234.788 59.1412 234.698C58.9618 234.618 58.8317 234.518 58.7432 234.391C58.6242 234.221 58.595 234.022 58.5835 233.869C58.5433 233.346 58.6704 232.867 58.9402 232.522C59.2748 232.093 59.8351 231.904 60.3008 232.063L60.3913 232.117C60.8746 232.285 61.2319 232.771 61.262 233.303C61.2907 233.817 61.0233 234.329 60.5812 234.606C60.3425 234.756 60.0617 234.832 59.7783 234.832Z" fill="#297789"/>
<path d="M70.3314 239.348C70.3314 243.801 73.9631 247.424 78.4264 247.424C82.8896 247.424 86.5208 243.801 86.5208 239.348C86.5208 234.894 82.8896 231.271 78.4264 231.271C73.9631 231.271 70.3314 234.894 70.3314 239.348ZM78.4264 247.928C73.6848 247.928 69.827 244.078 69.827 239.348C69.827 234.617 73.6848 230.768 78.4264 230.768C83.168 230.768 87.0258 234.617 87.0258 239.348C87.0258 244.078 83.168 247.928 78.4264 247.928ZM78.4264 228.634C72.5055 228.634 67.6885 233.44 67.6885 239.348C67.6885 245.255 72.5055 250.061 78.4264 250.061C84.3472 250.061 89.1642 245.255 89.1642 239.348C89.1642 233.44 84.3472 228.634 78.4264 228.634ZM78.4264 250.564C72.2272 250.564 67.1836 245.533 67.1836 239.348C67.1836 233.162 72.2272 228.13 78.4264 228.13C84.6256 228.13 89.6687 233.162 89.6687 239.348C89.6687 245.533 84.6256 250.564 78.4264 250.564Z" fill="#297789" stroke="white"/>
<path d="M27.1523 137.591V132.361H31.1509V137.591H27.1523Z" fill="#297789"/>
<path d="M27.3504 137.396H30.9599V132.555H27.3504V137.396ZM31.1544 137.785H27.1559C27.0481 137.785 26.9609 137.698 26.9609 137.59V132.36C26.9609 132.253 27.0481 132.166 27.1559 132.166H31.1544C31.2621 132.166 31.3493 132.253 31.3493 132.36V137.59C31.3493 137.698 31.2621 137.785 31.1544 137.785Z" fill="#297789"/>
<path d="M35.062 137.785H23.2164C23.1087 137.785 23.0215 137.698 23.0215 137.59C23.0215 137.483 23.1087 137.396 23.2164 137.396H35.062C35.1697 137.396 35.2569 137.483 35.2569 137.59C35.2569 137.698 35.1697 137.785 35.062 137.785Z" fill="#297789"/>
<path d="M43.09 132.611H15.1953V113.3H43.09V132.611Z" fill="#297789"/>
<path d="M15.3895 132.414H42.8943V113.492H15.3895V132.414ZM43.0893 132.804H15.1945C15.0872 132.804 15 132.717 15 132.609V113.297C15 113.19 15.0872 113.103 15.1945 113.103H43.0893C43.1966 113.103 43.2838 113.19 43.2838 113.297V132.609C43.2838 132.717 43.1966 132.804 43.0893 132.804Z" fill="#297789"/>
<path d="M43.0893 132.804H15.1945C15.0872 132.804 15 132.717 15 132.609V113.297C15 113.19 15.0872 113.103 15.1945 113.103H43.0893C43.1966 113.103 43.2838 113.19 43.2838 113.297V132.609C43.2838 132.717 43.1966 132.804 43.0893 132.804M15.3895 132.414H42.8943V113.492H15.3895V132.414Z" stroke="white"/>
<path d="M15.1953 133.433V130.885H43.09V133.433H15.1953Z" fill="#297789"/>
<path d="M15.3895 133.238H42.8943V131.08H15.3895V133.238ZM43.0893 133.628H15.1945C15.0872 133.628 15 133.541 15 133.433V130.885C15 130.778 15.0872 130.69 15.1945 130.69H43.0893C43.1966 130.69 43.2838 130.778 43.2838 130.885V133.433C43.2838 133.541 43.1966 133.628 43.0893 133.628Z" fill="#297789" stroke="white"/>
<path d="M29.0645 127.386C29.0645 127.006 29.3721 126.698 29.7519 126.698C30.1313 126.698 30.439 127.006 30.439 127.386C30.439 127.765 30.1313 128.073 29.7519 128.073C29.3721 128.073 29.0645 127.765 29.0645 127.386Z" fill="#297789"/>
<path d="M29.7492 126.892C29.4775 126.892 29.2563 127.113 29.2563 127.385C29.2563 127.656 29.4775 127.877 29.7492 127.877C30.0205 127.877 30.2417 127.656 30.2417 127.385C30.2417 127.113 30.0205 126.892 29.7492 126.892ZM29.7492 128.267C29.2628 128.267 28.8672 127.871 28.8672 127.385C28.8672 126.898 29.2628 126.503 29.7492 126.503C30.2352 126.503 30.6308 126.898 30.6308 127.385C30.6308 127.871 30.2352 128.267 29.7492 128.267Z" fill="#297789"/>
<path d="M32.3926 127.386C32.3926 127.006 32.7003 126.698 33.0801 126.698C33.4595 126.698 33.7672 127.006 33.7672 127.386C33.7672 127.765 33.4595 128.073 33.0801 128.073C32.7003 128.073 32.3926 127.765 32.3926 127.386Z" fill="#297789"/>
<path d="M33.0793 126.892C32.8076 126.892 32.5863 127.113 32.5863 127.385C32.5863 127.656 32.8076 127.877 33.0793 127.877C33.3506 127.877 33.5718 127.656 33.5718 127.385C33.5718 127.113 33.3506 126.892 33.0793 126.892ZM33.0793 128.267C32.5929 128.267 32.1973 127.871 32.1973 127.385C32.1973 126.898 32.5929 126.503 33.0793 126.503C33.5653 126.503 33.9609 126.898 33.9609 127.385C33.9609 127.871 33.5653 128.267 33.0793 128.267Z" fill="#297789"/>
<path d="M35.7227 127.386C35.7227 127.006 36.0304 126.698 36.4101 126.698C36.7895 126.698 37.0972 127.006 37.0972 127.386C37.0972 127.765 36.7895 128.073 36.4101 128.073C36.0304 128.073 35.7227 127.765 35.7227 127.386Z" fill="#297789"/>
<path d="M36.4094 126.892C36.1377 126.892 35.9168 127.113 35.9168 127.385C35.9168 127.656 36.1377 127.877 36.4094 127.877C36.681 127.877 36.9019 127.656 36.9019 127.385C36.9019 127.113 36.681 126.892 36.4094 126.892ZM36.4094 128.267C35.923 128.267 35.5273 127.871 35.5273 127.385C35.5273 126.898 35.923 126.503 36.4094 126.503C36.8957 126.503 37.2914 126.898 37.2914 127.385C37.2914 127.871 36.8957 128.267 36.4094 128.267Z" fill="#297789"/>
<path d="M49.9636 114.393L52.8215 117.204C53.3288 117.703 53.8531 118.219 54.4133 118.658C54.7014 118.884 55.0133 119.092 55.3414 119.093H55.3417C55.5024 119.093 55.6715 119.019 55.7941 118.896C55.9039 118.785 55.9638 118.646 55.9627 118.503C55.9607 118.229 55.7636 117.999 55.562 117.786C54.0444 116.185 52.4416 114.648 50.7965 113.216C50.5367 113.596 50.2682 113.985 49.9636 114.393ZM55.3417 119.374H55.3411C54.9279 119.374 54.5676 119.136 54.24 118.879C53.6672 118.431 53.137 117.909 52.6244 117.405L49.6787 114.507C49.6283 114.457 49.6227 114.378 49.6652 114.322C50.0322 113.837 50.3469 113.376 50.651 112.93C50.6736 112.897 50.7103 112.874 50.7503 112.868C50.7895 112.863 50.8312 112.873 50.8618 112.9C52.5552 114.367 54.2056 115.946 55.7661 117.592C55.996 117.835 56.2415 118.125 56.244 118.501C56.2454 118.719 56.1564 118.93 55.9935 119.094C55.8193 119.269 55.5757 119.374 55.3417 119.374Z" fill="#297789"/>
<path d="M55.3417 119.374H55.3411C54.9279 119.374 54.5676 119.136 54.24 118.879C53.6672 118.431 53.137 117.909 52.6244 117.405L49.6787 114.507C49.6283 114.457 49.6227 114.378 49.6652 114.322C50.0322 113.837 50.3469 113.376 50.651 112.93C50.6736 112.897 50.7103 112.874 50.7503 112.868C50.7895 112.863 50.8312 112.873 50.8618 112.9C52.5552 114.367 54.2056 115.946 55.7661 117.592C55.996 117.835 56.2415 118.125 56.244 118.501C56.2454 118.719 56.1564 118.93 55.9935 119.094C55.8193 119.269 55.5757 119.374 55.3417 119.374M49.9636 114.393L52.8215 117.204C53.3288 117.703 53.8531 118.219 54.4133 118.658C54.7014 118.884 55.0133 119.092 55.3414 119.093H55.3417C55.5024 119.093 55.6715 119.019 55.7941 118.896C55.9039 118.785 55.9638 118.646 55.9627 118.503C55.9607 118.229 55.7636 117.999 55.562 117.786C54.0444 116.185 52.4416 114.648 50.7965 113.216C50.5367 113.596 50.2682 113.985 49.9636 114.393V114.393Z" stroke="white"/>
<path d="M41.2247 109.264C41.2247 111.751 43.2479 113.774 45.7348 113.774C48.2217 113.774 50.2453 111.751 50.2453 109.264C50.2453 106.777 48.2217 104.754 45.7348 104.754C43.2479 104.754 41.2247 106.777 41.2247 109.264ZM45.7348 114.056C43.0928 114.056 40.9433 111.906 40.9433 109.264C40.9433 106.622 43.0928 104.473 45.7348 104.473C48.3771 104.473 50.5263 106.622 50.5263 109.264C50.5263 111.906 48.3771 114.056 45.7348 114.056ZM45.7348 103.281C42.4358 103.281 39.7518 105.965 39.7518 109.264C39.7518 112.563 42.4358 115.247 45.7348 115.247C49.0339 115.247 51.7179 112.563 51.7179 109.264C51.7179 105.965 49.0339 103.281 45.7348 103.281ZM45.7348 115.528C42.2807 115.528 39.4707 112.718 39.4707 109.264C39.4707 105.81 42.2807 103 45.7348 103C49.189 103 51.9992 105.81 51.9992 109.264C51.9992 112.718 49.189 115.528 45.7348 115.528Z" fill="#297789" stroke="white"/>
<path d="M30.2613 122.585C30.2535 122.575 30.2461 122.565 30.2383 122.555L30.2613 122.585Z" fill="#297789"/>
<path d="M18.1536 127.062C18.1184 127.062 18.0827 127.053 18.0505 127.033C17.9595 126.976 17.9316 126.856 17.9885 126.765L21.0485 121.869C21.076 121.825 21.1209 121.793 21.1721 121.782C21.2232 121.771 21.2771 121.781 21.3209 121.81L24.4924 123.906L27.004 120.814C27.0714 120.73 27.1939 120.717 27.2776 120.785C27.3613 120.853 27.3737 120.975 27.3059 121.059L24.6835 124.289C24.6203 124.367 24.5087 124.384 24.425 124.329L21.2725 122.245L18.3187 126.971C18.2819 127.03 18.2183 127.062 18.1536 127.062Z" fill="#297789"/>
<path d="M18.1536 127.062C18.1184 127.062 18.0827 127.053 18.0505 127.033C17.9595 126.976 17.9316 126.856 17.9885 126.765L21.0485 121.869C21.076 121.825 21.1209 121.793 21.1721 121.782C21.2232 121.771 21.2771 121.781 21.3209 121.81L24.4924 123.906L27.004 120.814C27.0714 120.73 27.1939 120.717 27.2776 120.785C27.3613 120.853 27.3737 120.975 27.3059 121.059L24.6835 124.289C24.6203 124.367 24.5087 124.384 24.425 124.329L21.2725 122.245L18.3187 126.971C18.2819 127.03 18.2183 127.062 18.1536 127.062" stroke="white"/>
<path d="M40.8923 118.931C40.8408 118.931 40.7888 118.91 40.7505 118.869L35.7913 113.59L31.4909 118.611C31.4211 118.693 31.2979 118.703 31.2165 118.633C31.1347 118.563 31.1254 118.44 31.1952 118.358L35.6366 113.172C35.6727 113.13 35.7246 113.105 35.78 113.104C35.8316 113.101 35.8885 113.125 35.9265 113.165L41.0345 118.603C41.1078 118.681 41.1039 118.804 41.0256 118.878C40.988 118.913 40.9404 118.931 40.8923 118.931Z" fill="#297789"/>
<path d="M40.8923 118.931C40.8408 118.931 40.7888 118.91 40.7505 118.869L35.7913 113.59L31.4909 118.611C31.4211 118.693 31.2979 118.703 31.2165 118.633C31.1347 118.563 31.1254 118.44 31.1952 118.358L35.6366 113.172C35.6727 113.13 35.7246 113.105 35.78 113.104C35.8316 113.101 35.8885 113.125 35.9265 113.165L41.0345 118.603C41.1078 118.681 41.1039 118.804 41.0256 118.878C40.988 118.913 40.9404 118.931 40.8923 118.931" stroke="white"/>
<path d="M154.818 56.2188C154.818 56.6795 154.444 57.0536 153.984 57.0536H123.498C123.039 57.0536 122.665 56.6795 122.665 56.2188V54.0516H134.471L135.261 55.2357C135.602 55.7474 136.172 56.0519 136.787 56.0519H140.695C141.31 56.0519 141.881 55.7474 142.222 55.2357L143.011 54.0516H154.818V56.2188ZM141.809 54.0516L141.389 54.6808C141.234 54.9126 140.975 55.0518 140.695 55.0518H136.787C136.507 55.0518 136.248 54.9126 136.093 54.6808L135.673 54.0516H141.809ZM155.318 53.0499H154.584V37.5408C154.584 36.5299 153.761 35.7059 152.75 35.7059H146.079C145.803 35.7059 145.579 35.9301 145.579 36.2068C145.579 36.4835 145.803 36.7076 146.079 36.7076H152.75C153.209 36.7076 153.583 37.0817 153.583 37.5408V53.0499H152.456C151.858 51.3001 150.304 50.1098 148.558 50.1098C148.193 50.1098 147.833 50.1608 147.484 50.2628C147.004 49.8563 146.416 49.6368 145.797 49.6368C145.489 49.6368 145.19 49.6909 144.903 49.7975C144.281 49.5208 143.622 49.3817 142.942 49.3817C142.499 49.3817 142.059 49.442 141.634 49.561C141.386 49.6321 141.124 49.5811 140.916 49.4235C140.7 49.2596 140.576 49.0107 140.576 48.7402V47.72C140.576 47.4433 140.352 47.2191 140.075 47.2191C139.799 47.2191 139.575 47.4433 139.575 47.72V48.7402C139.575 49.3261 139.843 49.8656 140.312 50.2211C140.772 50.5689 141.353 50.6802 141.905 50.5256C142.242 50.4298 142.59 50.3819 142.942 50.3819C143.543 50.3819 144.125 50.5194 144.669 50.7931C144.807 50.8611 144.971 50.8626 145.11 50.7961C145.328 50.6895 145.559 50.6369 145.797 50.6369C146.244 50.6369 146.668 50.8271 146.992 51.1733C147.131 51.3217 147.345 51.3712 147.535 51.2985C147.864 51.1733 148.208 51.1099 148.558 51.1099C149.765 51.1099 150.854 51.8828 151.381 53.0499H126.102C126.629 51.8828 127.718 51.1099 128.925 51.1099C129.274 51.1099 129.618 51.1733 129.947 51.2985C130.137 51.3712 130.351 51.3217 130.49 51.1733C130.814 50.8271 131.239 50.6369 131.685 50.6369C131.924 50.6369 132.155 50.6895 132.372 50.7961C132.512 50.8626 132.675 50.8611 132.814 50.7931C133.358 50.5194 133.939 50.3819 134.541 50.3819C134.892 50.3819 135.24 50.4298 135.577 50.5256C136.129 50.6802 136.71 50.5689 137.171 50.2211C137.639 49.8656 137.907 49.3261 137.907 48.7402V47.72C137.907 47.4433 137.683 47.2191 137.407 47.2191C137.131 47.2191 136.907 47.4433 136.907 47.72V48.7402C136.907 49.0107 136.783 49.2596 136.566 49.4235C136.358 49.5811 136.096 49.6321 135.848 49.561C135.423 49.442 134.983 49.3817 134.541 49.3817C133.86 49.3817 133.202 49.5208 132.579 49.7975C132.293 49.6909 131.993 49.6368 131.685 49.6368C131.066 49.6368 130.478 49.8563 129.999 50.2628C129.649 50.1608 129.289 50.1098 128.925 50.1098C127.178 50.1098 125.624 51.3001 125.027 53.0499H123.899V37.5408C123.899 37.0817 124.273 36.7076 124.733 36.7076H131.403C131.68 36.7076 131.904 36.4835 131.904 36.2068C131.904 35.9301 131.68 35.7059 131.403 35.7059H124.733C123.721 35.7059 122.898 36.5299 122.898 37.5408V53.0499H122.164C121.888 53.0499 121.664 53.2741 121.664 53.5508V56.2188C121.664 57.2314 122.487 58.0537 123.498 58.0537H153.984C154.995 58.0537 155.818 57.2314 155.818 56.2188V53.5508C155.818 53.2741 155.594 53.0499 155.318 53.0499Z" fill="#297789"/>
<path d="M144.913 42.7674L147.335 43.1569C147.361 43.16 147.388 43.1631 147.414 43.1631C147.532 43.1631 147.647 43.1213 147.738 43.0441C147.85 42.9482 147.914 42.8091 147.914 42.6623V40.999C147.914 39.8612 147.168 38.8565 146.054 38.4963L146.03 38.4901C145.766 38.4066 145.486 38.5535 145.403 38.8163C145.32 39.0806 145.467 39.3619 145.731 39.4439L145.75 39.45C146.446 39.6742 146.914 40.2972 146.914 40.999V42.0748L145.072 41.7796C144.799 41.7348 144.543 41.9203 144.499 42.1939C144.455 42.4659 144.64 42.7225 144.913 42.7674Z" fill="#297789"/>
<path d="M131.453 38.4901L131.425 38.4978C130.315 38.8565 129.568 39.8612 129.568 40.999V42.6623C129.568 42.8091 129.633 42.9482 129.744 43.0441C129.835 43.1213 129.951 43.1631 130.069 43.1631C130.095 43.1631 130.122 43.16 130.148 43.1569L132.57 42.7674C132.842 42.7225 133.028 42.4659 132.984 42.1939C132.94 41.9203 132.683 41.7348 132.411 41.7796L130.569 42.0748V40.999C130.569 40.2972 131.037 39.6742 131.729 39.4516L131.752 39.4439C132.016 39.3619 132.162 39.0806 132.08 38.8163C131.997 38.5535 131.716 38.4066 131.453 38.4901Z" fill="#297789"/>
<path d="M137.219 35.7371C137.415 35.5424 137.732 35.5424 137.927 35.7371L138.429 36.2395L139.554 35.1142C139.749 34.9179 140.066 34.9179 140.262 35.1142C140.457 35.3089 140.457 35.6258 140.262 35.8206L138.782 37.3015C138.689 37.3942 138.561 37.4468 138.429 37.4468C138.296 37.4468 138.169 37.3942 138.075 37.3015L137.219 36.4451C137.024 36.2504 137.024 35.9335 137.219 35.7371ZM140.509 37.9755C141.485 37.0001 141.485 35.4141 140.509 34.4387C140.022 33.9502 139.381 33.7075 138.741 33.7075C138.1 33.7075 137.459 33.9502 136.972 34.4387C135.996 35.4141 135.996 37.0001 136.972 37.9755C137.947 38.9509 139.534 38.9509 140.509 37.9755Z" fill="#297789"/>
<path d="M143.246 42.5506H134.23C134.377 42.8799 134.536 43.2122 134.71 43.5508H142.767C142.94 43.2122 143.1 42.8799 143.246 42.5506Z" fill="#297789"/>
<path d="M136.265 33.7301C137.63 32.3652 139.852 32.3652 141.218 33.7301C142.583 35.0951 142.583 37.3179 141.218 38.6829C140.535 39.3661 139.638 39.7078 138.741 39.7078C137.844 39.7078 136.948 39.3661 136.265 38.6829C134.899 37.3179 134.899 35.0951 136.265 33.7301ZM143.658 41.5488C144.299 39.8206 144.578 38.1419 144.578 36.2111C144.578 33.6698 144.072 31.3125 143.073 29.2071C143.025 29.1051 142.974 29.003 142.923 28.9025H134.559C134.508 29.003 134.458 29.1051 134.409 29.2071C133.411 31.3125 132.904 33.6698 132.904 36.2111C132.904 38.1419 133.183 39.8206 133.825 41.5488H143.658Z" fill="#297789"/>
<path d="M139.068 24.0198C138.88 23.8575 138.602 23.8575 138.414 24.0198C137.077 25.173 135.971 26.4746 135.111 27.9014H142.371C141.511 26.4746 140.405 25.173 139.068 24.0198Z" fill="#297789"/>
<path d="M141.249 46.2188L141.64 44.5508H135.844L136.235 46.2188H141.249Z" fill="#297789"/>
</svg>
