<svg width="155" height="45" viewBox="0 0 155 45" fill="none" xmlns="http://www.w3.org/2000/svg">
<path fill-rule="evenodd" clip-rule="evenodd" d="M38.0325 37.8801C30.5751 36.8641 25 30.4999 25 23.0031C25 14.7568 31.7311 8.01378 39.9765 8.00002C45.0664 7.99152 49.8182 10.584 52.6259 14.9014C55.0903 18.6909 55.6819 23.5136 54.2121 27.8324C52.6004 32.5681 48.6127 36.2719 43.7857 37.5165C41.9461 37.9908 39.8277 38.1247 38.0325 37.8801ZM41.1588 37.2591C44.7035 36.9534 47.8456 35.4555 50.3145 32.8943C51.9465 31.2014 53.0273 29.3492 53.7225 27.0539C54.1305 25.707 54.2931 24.5527 54.2931 23.0031C54.2931 22.1282 54.2432 21.3725 54.1456 20.771C53.2025 14.9593 48.8323 10.3211 43.0951 9.04272C39.3639 8.21134 35.4041 8.92575 32.2348 11.0021C27.2517 14.2668 24.8163 20.0775 25.9951 25.8899C26.2436 27.1154 26.5821 28.0695 27.2292 29.3687C29.6261 34.1807 34.3407 37.1595 39.8361 37.3342C40.018 37.34 40.6132 37.3062 41.1588 37.2591ZM38.0174 35.7326C36.5285 35.4921 34.7953 34.8722 33.508 34.1197L32.8918 33.7595L33.6726 33.6059C35.1169 33.3217 36.3999 32.6654 37.4913 31.6524C37.8526 31.3171 38.156 31.0567 38.1655 31.0738C38.1749 31.0908 38.2757 31.2903 38.3894 31.5171C38.6649 32.0668 39.393 32.781 40.0025 33.0994C40.9409 33.5897 41.2945 33.6678 42.5642 33.6652C43.9137 33.6625 44.3908 33.5571 45.5707 33.0007C48.2392 31.7423 49.8792 29.3056 49.9069 26.5579C49.9209 25.1771 49.5746 24.2153 48.7768 23.4185C48.2717 22.9141 47.6525 22.5931 46.8616 22.4255C45.472 22.1312 44.1539 22.4191 42.7347 23.3269C42.4719 23.495 42.2482 23.6212 42.2377 23.6072C42.2271 23.5932 42.6569 21.5729 43.1927 19.1176C43.7285 16.6623 44.169 14.5556 44.1716 14.4361C44.18 14.0485 44.0591 14.031 42.8115 14.2393C42.1753 14.3454 41.1166 14.4929 40.4588 14.567C39.1398 14.7156 38.9681 14.7922 38.9681 15.2321C38.9681 15.5986 39.1691 15.7389 39.7907 15.8063C40.4727 15.8802 40.5947 15.9504 40.71 16.3349C40.836 16.7555 40.7743 17.1247 39.9452 20.9143L39.2628 24.0338L38.9113 23.6321C38.4912 23.1518 37.9326 22.7792 37.2666 22.535C36.8672 22.3885 36.5951 22.3553 35.7853 22.354C34.8687 22.3525 34.7397 22.3725 34.0905 22.6169C33.704 22.7624 33.1274 23.0463 32.8091 23.2478C32.4908 23.4492 32.2197 23.5839 32.2066 23.5471C32.1935 23.5102 32.612 21.492 33.1366 19.062C33.6613 16.632 34.0905 14.5291 34.0905 14.3888C34.0905 14.2485 34.0406 14.1145 33.9795 14.0911C33.9185 14.0677 33.3511 14.1354 32.7188 14.2417C32.0864 14.3479 31.2951 14.4614 30.9602 14.4937L30.3513 14.5526L30.5033 14.3207C30.73 13.9746 32.0469 12.8492 32.8829 12.2871C34.1865 11.4105 35.8043 10.7307 37.4231 10.3795C38.5682 10.131 41.259 10.1098 42.3959 10.3402C46.9669 11.2669 50.6494 14.4345 52.1425 18.7241C52.7012 20.3292 52.8153 21.0549 52.8153 23.0031C52.8153 24.9512 52.7012 25.6769 52.1425 27.282C50.6701 31.5122 47.0728 34.6524 42.5875 35.6228C41.5567 35.8458 39.0861 35.9052 38.0174 35.7326ZM31.9411 32.3841C31.1558 32.0178 30.7845 31.3937 30.7865 30.4434C30.7882 29.6296 31.517 26.1993 31.8118 25.6176C32.4636 24.3312 33.9392 23.4526 35.2683 23.5592C36.7651 23.6794 37.5028 24.8137 37.3708 26.7918C37.2085 29.2233 35.9935 31.436 34.3883 32.2237C33.8903 32.4681 33.7225 32.507 33.0655 32.5306C32.4371 32.5532 32.2518 32.529 31.9411 32.3841ZM41.9855 32.3545C41.289 32.0252 40.9536 31.5477 40.8336 30.7144C40.7506 30.1382 41.5302 26.3432 41.8777 25.632C42.1578 25.0587 42.9409 24.2466 43.4778 23.9728C44.4015 23.5015 45.5261 23.4227 46.2268 23.7802C47.2358 24.2949 47.6467 25.5891 47.3711 27.3846C46.9797 29.935 45.6361 31.9372 43.9876 32.4268C43.3369 32.62 42.4819 32.5891 41.9855 32.3545ZM27.9863 27.6131C27.3499 25.9628 27.1037 24.4199 27.1718 22.5071C27.2236 21.0489 27.3992 20.0488 27.8131 18.8531C28.1129 17.9873 28.7884 16.5851 29.1388 16.1015L29.3895 15.7554L29.8179 15.8116C30.0535 15.8425 30.3283 15.9198 30.4285 15.9833C30.6775 16.1413 30.7451 16.5862 30.6312 17.3188C30.5564 17.7995 28.3732 27.888 28.274 28.211C28.26 28.2563 28.1306 27.9873 27.9863 27.6131ZM106.846 29.8987C104.377 29.4143 102.714 27.5048 102.568 24.9872C102.478 23.4348 102.96 22.2074 104.109 21.0567C104.672 20.4934 104.958 20.2797 105.523 20.0015C106.321 19.6083 107.123 19.4099 107.915 19.4096C109.745 19.4087 111.39 20.5048 111.854 22.0325C111.979 22.4467 112.015 23.3559 111.921 23.7306L111.865 23.9538H108.369H104.872L104.839 24.4291C104.731 26.0082 105.225 27.3571 106.165 28.0489C106.864 28.563 107.332 28.6969 108.452 28.7024C109.342 28.7068 109.51 28.6833 110.076 28.4749C110.424 28.3471 110.96 28.0767 111.269 27.874L111.83 27.5056L112.063 27.7292C112.192 27.8522 112.297 27.9944 112.297 28.0452C112.297 28.1686 111.852 28.58 111.361 28.9095C110.079 29.7719 108.246 30.1734 106.846 29.8987ZM109.929 22.6282C109.956 22.4902 109.938 22.1874 109.888 21.9553C109.585 20.5406 107.471 20.0927 106.168 21.1672C105.738 21.5226 105.238 22.2442 105.141 22.6517L105.086 22.8791H107.482H109.879L109.929 22.6282ZM113.454 27.8806V25.7725H113.774H114.094L114.133 26.1742C114.189 26.7621 114.615 27.603 115.104 28.0917C115.64 28.6281 116.283 28.9256 117.019 28.9782C117.508 29.0132 117.641 28.9899 118.019 28.8032C119.046 28.2966 119.17 27.2221 118.29 26.4532C118.096 26.2834 117.459 25.8876 116.874 25.5736C114.876 24.5012 114.391 24.0886 113.932 23.0733C113.671 22.4929 113.677 21.5782 113.946 21.0254C114.384 20.1258 115.378 19.4951 116.469 19.4252C117.182 19.3794 117.743 19.4894 118.508 19.8252C118.822 19.963 119.114 20.0542 119.157 20.0278C119.2 20.0014 119.259 19.8509 119.288 19.6934C119.337 19.4335 119.368 19.4069 119.622 19.4069H119.902V21.1017V22.7964H119.62C119.353 22.7964 119.335 22.7785 119.281 22.445C119.141 21.5917 118.567 20.8117 117.851 20.5027C117.394 20.3054 116.459 20.3163 116.108 20.523C115.673 20.7795 115.489 21.0815 115.489 21.5416C115.489 22.2641 115.873 22.5972 118.038 23.754C119.253 24.4031 120.059 25.1057 120.402 25.8139C120.695 26.419 120.688 27.4477 120.386 28.0873C119.834 29.2552 118.621 29.9927 117.26 29.9867C116.601 29.9838 116.16 29.8626 115.292 29.4467C114.871 29.2446 114.472 29.0793 114.406 29.0793C114.24 29.0793 114.115 29.3434 114.115 29.6939C114.115 29.9827 114.109 29.9887 113.785 29.9887H113.454L113.454 27.8806ZM121.969 27.8806V25.7725H122.247C122.52 25.7725 122.526 25.7793 122.576 26.2058C122.69 27.1676 123.482 28.2583 124.387 28.7008C124.941 28.9716 125.718 29.0631 126.248 28.9199C126.685 28.8017 127.138 28.3618 127.267 27.9307C127.533 27.0448 127.043 26.4908 125.069 25.4419C123.964 24.8548 123.65 24.6439 123.16 24.1605C122.454 23.4638 122.195 22.9005 122.19 22.0524C122.182 20.6761 123.345 19.5479 124.891 19.4309C125.6 19.3773 126.167 19.4856 126.932 19.8214C127.241 19.9572 127.534 20.0683 127.583 20.0683C127.632 20.0683 127.695 19.9195 127.724 19.7376C127.774 19.4276 127.795 19.4069 128.056 19.4069H128.335V21.1017V22.7964H128.055C127.789 22.7964 127.772 22.7789 127.722 22.4445C127.648 21.951 127.335 21.317 127.004 20.9879C126.257 20.2468 124.942 20.1179 124.268 20.7198C124.053 20.912 124.004 21.0248 123.973 21.4049C123.903 22.2429 124.154 22.4872 126.258 23.633C127.742 24.4415 128.417 25.0037 128.792 25.7424C129.007 26.1673 129.037 26.3143 129.037 26.9317C129.037 27.561 129.008 27.695 128.766 28.188C128.173 29.3917 126.902 30.0666 125.42 29.9654C124.87 29.9278 124.651 29.8614 123.887 29.5004C123.397 29.2688 122.934 29.0793 122.857 29.0793C122.674 29.0793 122.548 29.3302 122.548 29.6939C122.548 29.9757 122.535 29.9887 122.258 29.9887H121.969V27.8806ZM58.4783 22.999C58.4783 17.4676 58.4604 16.4706 58.3576 16.2718C58.232 16.0291 58.0315 15.9386 57.6102 15.9348C57.1168 15.9303 56.9902 15.8542 56.9902 15.5625V15.2923L58.5816 14.9894C59.4569 14.8228 60.2381 14.6673 60.3177 14.6437C60.4537 14.6035 60.4624 14.7908 60.4624 17.7736V20.9463L60.8863 20.5545C63.1275 18.4833 66.7363 19.3427 68.0751 22.2664C68.4092 22.996 68.5966 24.015 68.5375 24.781C68.2158 28.9534 63.529 31.0128 60.749 28.2033L60.2503 27.6993L59.6533 28.596C59.0836 29.4516 59.043 29.4927 58.7673 29.4927H58.4783V22.999ZM64.1972 28.2517C64.6821 28.1142 65.269 27.6693 65.6084 27.1818C66.0445 26.5556 66.2549 25.8298 66.3096 24.7637C66.4311 22.3964 65.4942 20.8553 63.7555 20.562C62.491 20.3487 61.2916 20.9892 60.6742 22.2075C60.4659 22.6186 60.4624 22.6559 60.4624 24.4498C60.4624 26.2437 60.4659 26.281 60.6742 26.6921C60.9172 27.1717 61.4356 27.7631 61.8225 28.0022C62.4454 28.3872 63.3749 28.4849 64.1972 28.2517ZM69.9502 22.9132L69.9281 16.3338L69.6962 16.1343C69.5517 16.01 69.3607 15.9348 69.1898 15.9348C69.0389 15.9348 68.7972 15.9111 68.6527 15.8822C68.4173 15.8351 68.3925 15.8028 68.415 15.5722L68.44 15.3147L70.1348 14.9742L71.8295 14.6337L71.8512 17.7643C71.8631 19.4862 71.8948 20.895 71.9217 20.895C71.9486 20.895 72.1567 20.7277 72.3841 20.5232C72.8982 20.061 73.8212 19.6003 74.475 19.4797C75.5125 19.2883 76.8088 19.5531 77.731 20.1449C78.3344 20.5321 79.1042 21.395 79.4387 22.0592C79.846 22.8682 79.9992 23.523 79.9978 24.4498C79.9956 25.9189 79.5283 27.0475 78.4881 28.0958C77.555 29.0363 76.4913 29.4927 75.2323 29.4927C74.1377 29.4927 73.0414 29.0251 72.2274 28.2111L71.7103 27.694L71.1314 28.5934C70.5758 29.4565 70.5409 29.4927 70.2624 29.4927H69.9724L69.9502 22.9132ZM75.8628 28.1695C76.9955 27.7457 77.6862 26.5345 77.7964 24.7788C77.9111 22.9514 77.229 21.3851 76.0753 20.8266C74.9464 20.2801 73.7625 20.4474 72.8628 21.2804C72.5569 21.5636 72.2803 21.9208 72.1226 22.2364L71.8709 22.7401L71.8716 24.4423C71.8724 26.0722 71.881 26.163 72.074 26.5775C72.3006 27.0641 72.9031 27.7485 73.346 28.0222C74.0338 28.4473 74.9733 28.5023 75.8628 28.1695ZM80.9646 29.2153V28.9379L81.5116 28.8868C82.1806 28.8244 82.5989 28.6295 82.8395 28.2682C83.2055 27.7185 83.238 27.3019 83.238 23.1684C83.238 19.719 83.2217 19.2226 83.0926 18.7456C82.8607 17.8888 82.3264 17.5071 81.3573 17.506L80.9646 17.5051V17.2158V16.9264H84.4411C87.3304 16.9264 88.0181 16.9489 88.5126 17.0591C89.8245 17.3517 90.8288 18.0682 91.3171 19.0598C91.5709 19.5753 91.5877 19.6638 91.5877 20.4794C91.5877 21.2802 91.5675 21.392 91.3326 21.8867C91.0059 22.5747 90.4307 23.1399 89.6889 23.5019C88.799 23.9362 88.2733 24.0416 86.7309 24.095L85.3461 24.143L85.347 25.4743C85.3482 28.1882 85.6444 28.7685 87.0898 28.8897L87.6611 28.9376V29.215V29.4923H84.313H80.9648V29.2149L80.9646 29.2153ZM87.8355 22.8837C89.1948 22.4796 89.7955 20.5128 89.0048 19.0552C88.5676 18.2492 87.9993 18.0018 86.4415 17.9393L85.3461 17.8954V20.4816V23.0679L86.4415 23.0202C87.044 22.9939 87.6713 22.9325 87.8355 22.8837ZM92.6211 29.216V28.9393L93.2541 28.8505C94.2076 28.7167 94.598 28.3409 94.762 27.399C94.8798 26.7223 94.8806 22.8922 94.7631 22.2562C94.5718 21.2218 94.1939 20.8679 93.1683 20.7629L92.6212 20.7068V20.408V20.1091L94.3366 19.7922C95.28 19.6179 96.1512 19.4561 96.2724 19.4328C96.492 19.3904 96.4937 19.3941 96.7265 20.3971C96.9489 21.3554 96.966 21.3946 97.0836 21.2114C97.1515 21.1056 97.4099 20.8036 97.6579 20.5404C98.5404 19.6035 99.7651 19.2129 100.84 19.5254C101.433 19.6977 102.063 20.2749 102.213 20.7834C102.456 21.6042 102.029 22.4283 101.31 22.5246C100.647 22.6136 100.217 22.2306 100.1 21.4454C100.018 20.8981 99.7809 20.6405 99.3147 20.5935C98.3513 20.4965 97.2415 21.755 97.0076 23.2098C96.9 23.8796 96.8982 25.7939 97.0043 26.8851C97.1427 28.3085 97.5127 28.7427 98.6949 28.8693L99.2348 28.9272V29.2099V29.4927H95.928H92.6212L92.6211 29.216Z" fill="#4F4D4B"/>
</svg>
