<svg width="155" height="45" viewBox="0 0 155 45" fill="none" xmlns="http://www.w3.org/2000/svg">
<path d="M27.3765 22.9717C27.192 22.9624 27.0071 22.975 26.8255 23.009C26.5226 23.0579 26.2325 23.1665 25.972 23.3286C25.7115 23.4908 25.4859 23.7031 25.3083 23.9533C25.1307 24.2035 25.0047 24.4865 24.9375 24.7859C24.8704 25.0852 24.8636 25.395 24.9173 25.697C25.0493 26.9428 26.3775 27.9932 27.6069 28.0245C27.7331 28.0277 27.8593 28.0193 27.984 27.9995C29.3145 27.7841 29.6628 26.4131 29.4435 25.0664C29.1958 23.5459 28.1121 23.0099 27.3765 22.9717ZM28.6801 26.5742C28.624 26.6582 28.546 26.7255 28.4546 26.7687C28.3632 26.8119 28.2617 26.8295 28.1611 26.8195C27.9842 26.8055 27.8193 26.7248 27.6997 26.5937C27.5801 26.4626 27.5148 26.291 27.517 26.1136C27.5139 25.8772 27.5595 25.6426 27.6509 25.4246C27.708 25.286 27.7135 25.1316 27.6664 24.9894C27.6193 24.8472 27.5227 24.7265 27.3942 24.6495C27.2363 24.5516 27.0469 24.5181 26.865 24.5558C26.6888 24.5896 26.5332 24.6917 26.4319 24.8397C26.3635 24.9502 26.3102 25.0693 26.2732 25.1939C26.266 25.2158 26.2603 25.2328 26.2559 25.244C26.1956 25.3977 26.0994 25.4427 26.0344 25.4343C26.0104 25.4299 25.9883 25.4188 25.9705 25.4021C25.9527 25.3855 25.9401 25.364 25.9342 25.3404C25.9004 25.1352 25.9162 24.9249 25.9803 24.727C26.0443 24.5291 26.1547 24.3494 26.3023 24.2029C26.4309 24.0746 26.587 23.9773 26.7588 23.9185C26.9306 23.8597 27.1136 23.8409 27.2938 23.8635C27.483 23.8863 27.6638 23.9547 27.8206 24.063C27.9775 24.1712 28.1056 24.316 28.194 24.4849C28.279 24.6881 28.3134 24.9089 28.2942 25.1284C28.275 25.3478 28.2028 25.5593 28.0838 25.7447C28.0687 25.7768 28.055 25.8061 28.0432 25.8324C28.0004 25.905 27.9768 25.9873 27.9746 26.0716C27.9723 26.1559 27.9916 26.2393 28.0305 26.3141C28.0647 26.3597 28.1094 26.3964 28.1608 26.4211C28.2122 26.4458 28.2688 26.4579 28.3258 26.4562C28.3802 26.4555 28.4343 26.4482 28.487 26.4346C28.5553 26.4196 28.626 26.404 28.669 26.4551C28.6833 26.4712 28.6921 26.4914 28.6941 26.5128C28.6961 26.5343 28.6912 26.5557 28.6801 26.5742V26.5742Z" fill="white"/>
<path d="M44.3784 29.129C44.656 28.4246 44.8164 27.6795 44.8535 26.9233C44.8535 25.9936 44.3271 25.6082 43.9919 25.6082C43.9816 25.5723 43.9153 25.3299 43.824 25.038C43.7718 24.8688 43.7098 24.7027 43.6384 24.5406C43.9128 24.1617 44.0289 23.6908 43.9621 23.2278C43.9073 22.8708 43.7375 22.5413 43.4786 22.2895C42.9871 21.8723 42.4007 21.5822 41.7708 21.4448C41.676 21.4183 41.3632 21.3326 41.3357 21.3242C41.3336 21.3063 41.3129 20.3 41.294 19.868C41.2859 19.4348 41.2213 19.0045 41.102 18.588C40.9536 17.9902 40.6469 17.4435 40.2141 17.0054C41.2977 15.8838 41.9741 14.6483 41.9725 13.5884C41.9694 11.55 39.4625 10.9332 36.3732 12.2106C36.3698 12.2121 35.7232 12.4858 35.7186 12.4881C35.7157 12.4853 34.5352 11.3288 34.5175 11.3132C30.9953 8.24543 19.9825 20.4688 23.5035 23.4375L24.273 24.0884C24.0653 24.6448 23.992 25.2424 24.059 25.8325C24.1633 26.691 24.5877 27.4785 25.2473 28.0378C25.8876 28.6189 26.7148 28.9514 27.5791 28.9753C28.9493 32.1283 32.0799 34.0624 35.7506 34.1713C39.6882 34.2881 42.9935 32.4432 44.3784 29.129ZM45.1866 25.3976C45.5239 25.8329 45.6975 26.373 45.6769 26.9233C45.6415 27.7817 45.462 28.6281 45.1459 29.427L45.1385 29.4457C44.424 31.1638 43.1765 32.6071 41.5799 33.5627C39.918 34.5293 38.0246 35.0258 36.1023 34.999H36.1019C35.9775 34.999 35.8511 34.997 35.7262 34.9933C33.829 34.9537 31.9769 34.407 30.3623 33.41C28.941 32.5194 27.7909 31.2564 27.0367 29.7583C26.1678 29.6233 25.3566 29.2396 24.7012 28.6534C23.8864 27.9572 23.3644 26.979 23.2396 25.9146C23.1841 25.3974 23.214 24.8745 23.3284 24.3671L22.9712 24.065C22.682 23.8153 22.447 23.509 22.2807 23.1651C22.1143 22.8211 22.0201 22.4467 22.0039 22.065C21.9746 21.2727 22.1115 20.4829 22.4059 19.7467C23.1392 17.7447 24.8261 15.3608 26.9188 13.3696C27.8526 12.4634 28.8885 11.6687 30.0057 11.0015C30.9375 10.4056 32.0076 10.0609 33.1121 10.001C33.8244 9.9824 34.5182 10.2292 35.0588 10.6935C35.0896 10.7204 35.5521 11.1727 35.9029 11.5163C35.9909 11.4792 36.0542 11.4525 36.0561 11.4518C37.0938 10.9998 38.209 10.7523 39.3405 10.7229C41.437 10.7229 42.7933 11.8471 42.796 13.5871C42.7976 14.6607 42.2705 15.8643 41.2988 17.0294C41.5631 17.4382 41.7632 17.8852 41.8918 18.3547C42.0298 18.8354 42.1054 19.3319 42.1167 19.8318C42.1261 20.0469 42.1358 20.3921 42.1436 20.6967C42.8605 20.8782 43.523 21.23 44.0749 21.7223C44.449 22.0935 44.6944 22.5748 44.775 23.0957C44.856 23.6098 44.7766 24.1364 44.5475 24.6037C44.5679 24.6622 44.5891 24.7258 44.6102 24.7931C44.6286 24.8518 44.6459 24.9084 44.6621 24.9621C44.8639 25.0714 45.0421 25.2194 45.1866 25.3976H45.1866Z" fill="white"/>
<path d="M42.6906 24.3794C42.8241 24.2539 42.9283 24.1005 42.9956 23.93C43.0629 23.7596 43.0917 23.5763 43.08 23.3935C43.0533 23.2091 42.9672 23.0385 42.835 22.9074C42.4468 22.5852 41.985 22.3641 41.4907 22.2637C41.2649 22.1996 41.1117 22.1586 40.9467 22.1037C40.6531 22.006 40.5081 21.9273 40.4752 21.3694C40.4609 21.1254 40.4188 20.2753 40.4036 19.924C40.3769 19.3085 40.3036 18.4671 39.7873 18.1198C39.656 18.0327 39.5033 17.9833 39.3458 17.9771C39.2576 17.9717 39.1692 17.9805 39.0838 18.0031C38.8218 18.0643 38.5833 18.2006 38.3975 18.3953C38.157 18.6149 37.8734 18.7821 37.5649 18.8862C37.2563 18.9904 36.9294 19.0292 36.605 19.0003C36.2436 18.985 35.8607 18.9281 35.4218 18.9018C35.3363 18.8967 35.2507 18.8914 35.1651 18.8869C34.5979 18.9036 34.0556 19.1237 33.6371 19.507C33.2186 19.8903 32.9519 20.4112 32.8855 20.9748C32.6342 22.7229 33.8863 23.6262 34.2477 24.1563C34.3036 24.224 34.3382 24.3066 34.3472 24.3939C34.3379 24.4908 34.2918 24.5803 34.2186 24.6443L34.2187 24.6448C33.7181 25.2083 33.3667 25.8882 33.1964 26.6225C33.0262 27.3567 33.0426 28.1219 33.2442 28.8482C33.292 29.0226 33.3532 29.1931 33.4274 29.358C34.341 31.5166 37.1753 32.5218 39.9443 31.6076C40.307 31.4878 40.6589 31.3375 40.9962 31.1582C41.6033 30.8548 42.1494 30.4422 42.6071 29.9411C43.3213 29.2167 43.7904 28.2866 43.9483 27.2817C44.0317 26.7254 43.9096 26.5101 43.7433 26.4066C43.6259 26.3405 43.4898 26.3154 43.3565 26.3352C43.286 25.8985 43.1623 25.472 42.9881 25.0654L42.6906 24.3794Z" fill="white"/>
<path d="M38.1528 16.0428C38.1975 16.0531 38.2259 15.9759 38.1859 15.9535C37.5244 15.6107 36.7948 15.4198 36.0501 15.3946C36.043 15.3945 36.036 15.3924 36.0299 15.3886C36.0239 15.3847 36.019 15.3793 36.0159 15.3729C36.0127 15.3664 36.0114 15.3593 36.012 15.3521C36.0127 15.345 36.0153 15.3382 36.0196 15.3325C36.1353 15.1812 36.2705 15.0458 36.4215 14.9297C36.4283 14.9245 36.4332 14.9172 36.4355 14.9089C36.4378 14.9007 36.4375 14.8919 36.4345 14.8839C36.4315 14.8759 36.426 14.8691 36.4188 14.8644C36.4116 14.8597 36.4031 14.8575 36.3946 14.858C35.4828 14.9475 34.6063 15.2565 33.84 15.7586C33.8335 15.763 33.8258 15.7653 33.8179 15.7653C33.81 15.7653 33.8023 15.7629 33.7958 15.7585C33.7893 15.754 33.7842 15.7477 33.7813 15.7404C33.7784 15.7331 33.7778 15.725 33.7795 15.7173C33.8413 15.4871 33.9321 15.2658 34.0499 15.0586C34.0538 15.0514 34.0552 15.0433 34.0541 15.0352C34.053 15.0272 34.0494 15.0198 34.0437 15.014C34.038 15.0082 34.0306 15.0044 34.0226 15.0031C34.0146 15.0018 34.0064 15.0031 33.9992 15.0069C32.8926 15.6147 31.9064 16.4195 31.089 17.3817C31.0826 17.389 31.0791 17.3984 31.0792 17.4081C31.0793 17.4179 31.083 17.4272 31.0895 17.4344C31.0961 17.4416 31.105 17.4461 31.1147 17.4471C31.1244 17.4481 31.1341 17.4456 31.142 17.4399C32.0892 16.778 33.1563 16.307 34.2837 16.0532C35.5563 15.7596 36.8786 15.7561 38.1528 16.0428" fill="white"/>
<path d="M34.8936 12.9205C34.8936 12.9205 33.935 11.8106 33.6456 11.7288C31.8652 11.2483 28.0193 13.8969 25.5638 17.396C24.5702 18.8118 23.1478 21.3191 23.8279 22.6086C24.0697 22.8981 24.3422 23.1605 24.6407 23.3911C25.0964 22.7524 25.7822 22.3155 26.5537 22.1724C27.5219 19.4656 29.2214 17.0801 31.4636 15.2809C32.5395 14.4004 33.6868 13.6108 34.8936 12.9205" fill="white"/>
<path d="M28.6157 26.5264C28.6295 26.5432 28.6379 26.5637 28.6398 26.5853C28.6418 26.6069 28.6371 26.6286 28.6265 26.6475C28.5748 26.7313 28.5007 26.7991 28.4126 26.8431C28.3245 26.8871 28.2258 26.9057 28.1277 26.8966C27.9529 26.8778 27.7917 26.7933 27.6768 26.6602C27.5619 26.5271 27.5018 26.3554 27.5086 26.1797C27.5057 25.9402 27.5494 25.7025 27.6374 25.4798C27.6929 25.3402 27.6987 25.1858 27.6538 25.0425C27.6089 24.8991 27.516 24.7756 27.3908 24.6927C27.3166 24.6437 27.2335 24.61 27.1461 24.5936C27.0588 24.5773 26.969 24.5786 26.8822 24.5975C26.7971 24.6154 26.7165 24.6501 26.645 24.6996C26.5736 24.7492 26.5127 24.8125 26.4661 24.8858C26.4001 24.9988 26.3488 25.1196 26.3135 25.2455C26.3067 25.2677 26.3012 25.2851 26.297 25.2964C26.239 25.4527 26.1466 25.4982 26.0841 25.4899C26.0545 25.4858 26.0138 25.466 25.9877 25.3944C25.955 25.1876 25.9698 24.9761 26.0311 24.7759C26.0924 24.5756 26.1986 24.392 26.3416 24.239C26.4616 24.1101 26.6106 24.0116 26.7763 23.9517C26.9419 23.8918 27.1195 23.8722 27.2942 23.8945C27.4793 23.92 27.6552 23.9909 27.8062 24.101C27.9571 24.2112 28.0784 24.357 28.1592 24.5255C28.241 24.7326 28.274 24.9557 28.2556 25.1776C28.2373 25.3995 28.1681 25.6142 28.0534 25.805C28.0389 25.8375 28.0256 25.8672 28.0144 25.8942C27.9732 25.9687 27.9506 26.0521 27.9484 26.1373C27.9463 26.2224 27.9648 26.3068 28.0022 26.3833C28.0339 26.429 28.0764 26.466 28.1259 26.4912C28.1754 26.5164 28.2304 26.5289 28.2859 26.5276C28.3382 26.5268 28.3903 26.5195 28.4408 26.5057C28.5065 26.4903 28.5744 26.4745 28.6157 26.5264M44.818 26.9309C44.7813 27.6854 44.6219 28.4289 44.346 29.1321C42.9701 32.4392 39.6865 34.2804 35.7747 34.1638C32.1281 34.0552 29.0179 32.125 27.6567 28.9786C26.7974 28.9546 25.9753 28.6226 25.3403 28.0431C24.6843 27.4839 24.2628 26.6982 24.1597 25.8424C24.0932 25.2537 24.166 24.6575 24.3723 24.1021L23.6078 23.4525C20.1099 20.49 31.0505 8.29229 34.5497 11.3537C34.5673 11.3691 35.74 12.5233 35.743 12.5261C35.7476 12.5238 36.39 12.2505 36.3932 12.2492C39.4624 10.9744 41.9528 11.5899 41.956 13.6239C41.9576 14.6817 41.2856 15.9146 40.2092 17.0338C40.6394 17.4716 40.944 18.0171 41.0911 18.613C41.2097 19.0288 41.2739 19.4582 41.2819 19.8905C41.3006 20.3215 41.3212 21.3258 41.3233 21.3437C41.3506 21.3519 41.6614 21.4375 41.7555 21.464C42.3817 21.6013 42.9644 21.8908 43.4521 22.3069C43.7096 22.5586 43.8782 22.8872 43.9325 23.2432C43.9989 23.705 43.8837 24.1746 43.611 24.5533C43.682 24.7151 43.7435 24.8808 43.7954 25.0497C43.886 25.341 43.9519 25.5827 43.962 25.6186C44.295 25.6186 44.818 26.0031 44.818 26.931L44.818 26.9309ZM29.3598 25.1162C29.122 23.5719 28.0805 23.0276 27.3738 22.9888C27.1964 22.9794 27.0185 22.9921 26.8442 23.0266C25.5829 23.2818 24.8705 24.358 25.0107 25.7565C25.1128 26.3838 25.4234 26.9584 25.8924 27.3873C26.3613 27.8162 26.9612 28.0745 27.5951 28.1204C27.7164 28.1236 27.8378 28.1151 27.9574 28.0949C29.2359 27.8762 29.5706 26.4838 29.3598 25.1162ZM31.5158 15.3129C32.5842 14.4345 33.724 13.6466 34.9233 12.9574C34.9233 12.9574 33.9711 11.8499 33.6835 11.7683C31.9148 11.2887 28.094 13.9317 25.6546 17.4235C24.6675 18.8364 23.2545 21.3384 23.9301 22.6252C24.1701 22.914 24.4408 23.1758 24.7375 23.4061C25.1892 22.7694 25.8707 22.3333 26.6381 22.19C27.598 19.4913 29.2863 17.1111 31.5158 15.3129V15.3129ZM35.3599 27.5337C35.4067 27.739 35.5082 27.9277 35.6535 28.0801C35.7988 28.2324 35.9825 28.3427 36.1853 28.3993C36.3963 28.4779 36.6139 28.5372 36.8356 28.5764C39.6334 29.0591 42.2489 27.4546 42.8378 27.0504C42.882 27.0201 42.9113 27.0497 42.8758 27.1032C42.8581 27.1318 42.8388 27.1593 42.8181 27.1857C42.0974 28.1182 40.1598 29.1981 37.6389 29.1977C36.5394 29.1975 35.4405 28.809 35.0371 28.212C34.4111 27.2857 35.006 25.9337 36.0491 26.0746C36.0503 26.0748 36.406 26.1152 36.506 26.1263C38.1273 26.2822 39.7616 26.0199 41.2528 25.3644C42.6758 24.7018 43.2134 23.9726 43.1328 23.3823C43.1058 23.199 43.0196 23.0295 42.8874 22.8997C42.4982 22.5793 42.0362 22.3598 41.542 22.2605C41.316 22.1968 41.1626 22.1562 40.9974 22.1016C40.7037 22.0046 40.5585 21.9265 40.5256 21.3724C40.5112 21.1301 40.4691 20.286 40.4539 19.9371C40.427 19.3259 40.3538 18.4904 39.8369 18.1454C39.7053 18.0588 39.5525 18.0098 39.3951 18.0038C39.3068 17.9984 39.2183 18.0071 39.1327 18.0296C38.8709 18.0902 38.6323 18.2255 38.4459 18.419C38.2043 18.6374 37.9202 18.8034 37.6115 18.9068C37.3027 19.0102 36.9759 19.0487 36.6516 19.0198C36.2899 19.0047 35.9067 18.9482 35.4673 18.922C35.3819 18.917 35.296 18.9116 35.2104 18.9073C34.6447 18.9221 34.1032 19.1396 33.6844 19.5201C33.2656 19.9007 32.9974 20.4189 32.9286 20.9806C32.6771 22.7165 33.9304 23.6135 34.2922 24.1399C34.3481 24.207 34.3828 24.2891 34.3918 24.3759C34.3822 24.4722 34.3361 24.5612 34.263 24.6245V24.6251C33.7625 25.1827 33.4107 25.8575 33.2403 26.5871C33.0698 27.3167 33.0861 28.0775 33.2877 28.7991C33.3355 28.9724 33.3968 29.1417 33.471 29.3054C34.3855 31.449 37.2225 32.4471 39.994 31.5392C40.3569 31.4203 40.7092 31.2711 41.047 31.0932C41.6539 30.7923 42.2005 30.3826 42.6595 29.8844C43.3733 29.167 43.843 28.243 44.0019 27.2436C44.0854 26.691 43.9632 26.4774 43.7967 26.3745C43.679 26.3089 43.5429 26.284 43.4095 26.3036C43.3389 25.8697 43.2151 25.4461 43.0409 25.0426C42.2493 25.6398 41.3545 26.0862 40.4012 26.3594C39.2543 26.6835 38.0611 26.8129 36.8714 26.7422C36.106 26.6802 35.5996 26.4561 35.4091 27.0769C36.5669 27.4641 37.7962 27.5895 39.0083 27.4441C39.0168 27.4433 39.0255 27.4441 39.0337 27.4466C39.0419 27.449 39.0495 27.4531 39.0562 27.4585C39.0628 27.4639 39.0683 27.4706 39.0723 27.4782C39.0764 27.4857 39.0789 27.494 39.0797 27.5026C39.081 27.5169 39.0778 27.5313 39.0706 27.5437C39.0633 27.5562 39.0524 27.566 39.0393 27.572C39.0393 27.572 37.6177 28.2341 35.3599 27.5337V27.5337ZM31.1962 17.4673C32.1366 16.8072 33.1968 16.3371 34.3174 16.0836C35.5816 15.7906 36.8955 15.7871 38.1612 16.0732C38.2055 16.0834 38.2338 16.0064 38.1942 15.9842C37.5374 15.6422 36.8123 15.4516 36.0723 15.4263C36.0651 15.4262 36.0582 15.4241 36.0522 15.4203C36.0461 15.4164 36.0413 15.411 36.0382 15.4046C36.035 15.3982 36.0337 15.3911 36.0344 15.384C36.035 15.3769 36.0376 15.3701 36.0419 15.3644C36.1569 15.2135 36.2912 15.0784 36.4413 14.9624C36.448 14.9572 36.4529 14.9499 36.4552 14.9417C36.4575 14.9335 36.4572 14.9248 36.4542 14.9168C36.4512 14.9088 36.4457 14.9019 36.4386 14.8973C36.4314 14.8926 36.423 14.8903 36.4145 14.8908C35.5082 14.9804 34.6373 15.2888 33.8766 15.7896C33.8701 15.794 33.8624 15.7963 33.8546 15.7963C33.8467 15.7963 33.839 15.7939 33.8326 15.7894C33.8261 15.785 33.8211 15.7787 33.8182 15.7714C33.8154 15.7641 33.8148 15.7561 33.8165 15.7485C33.8778 15.5188 33.968 15.2979 34.0851 15.0911C34.0889 15.084 34.0904 15.0759 34.0894 15.0679C34.0883 15.0599 34.0846 15.0524 34.079 15.0467C34.0734 15.0409 34.0661 15.0371 34.0581 15.0358C34.0501 15.0345 34.042 15.0357 34.0348 15.0394C32.9347 15.6466 31.9549 16.4498 31.1436 17.4094C31.1372 17.4167 31.1338 17.426 31.1339 17.4357C31.134 17.4454 31.1376 17.4547 31.1441 17.4618C31.1506 17.469 31.1595 17.4735 31.1691 17.4745C31.1787 17.4755 31.1884 17.4729 31.1962 17.4673V17.4673ZM38.5638 23.3598C38.6404 23.4083 38.7321 23.4269 38.8215 23.412C38.9109 23.3972 38.9917 23.3499 39.0485 23.2792C39.1191 23.1427 39.0166 22.9574 38.8195 22.8654C38.743 22.8169 38.6512 22.7984 38.5618 22.8133C38.4724 22.8281 38.3916 22.8755 38.3348 22.9461C38.2642 23.0826 38.3667 23.2679 38.5638 23.3598ZM39.1682 21.1449C39.2155 21.3908 39.3175 21.6229 39.4667 21.8241C39.6208 21.8051 39.7766 21.8051 39.9308 21.8241C40.0209 21.5542 40.0288 21.2635 39.9534 20.9891C39.8421 20.4828 39.6913 20.1763 39.3798 20.224C39.0684 20.2717 39.0569 20.6386 39.1682 21.1449ZM39.8309 22.3081C39.7523 22.2855 39.6687 22.2882 39.5917 22.3156C39.5147 22.343 39.4483 22.3939 39.4017 22.4611C39.3551 22.5282 39.3308 22.6083 39.332 22.69C39.3333 22.7717 39.3601 22.851 39.4088 22.9166C39.4574 22.9823 39.5254 23.0311 39.6032 23.0561C39.681 23.0812 39.7646 23.0812 39.8425 23.0563C39.9203 23.0313 39.9883 22.9826 40.037 22.917C40.0857 22.8513 40.1126 22.7721 40.114 22.6904C40.1253 22.6024 40.1021 22.5135 40.0493 22.4423C39.9966 22.371 39.9183 22.3229 39.8309 22.3081V22.3081Z" fill="black"/>
<path d="M34.6597 22.2624C34.61 22.2555 34.5889 22.2342 34.5826 22.206C34.5633 22.1187 34.6977 21.9749 34.8393 21.8712C35.046 21.72 35.288 21.6247 35.5422 21.5941C35.7964 21.5636 36.0542 21.599 36.2908 21.6969C36.5118 21.7881 36.7019 21.9411 36.8382 22.1375C36.8889 22.2201 36.8987 22.2842 36.8659 22.3177C36.8149 22.3715 36.6849 22.3099 36.4732 22.217C36.2188 22.0922 35.9377 22.0317 35.6546 22.0407C35.3191 22.0959 34.9869 22.17 34.6597 22.2624V22.2624ZM36.77 22.6969C36.6785 22.6007 36.5646 22.5288 36.4385 22.4874C36.3123 22.4461 36.1779 22.4366 36.0473 22.46C35.8546 22.4805 35.672 22.5566 35.5218 22.679C35.4518 22.7292 35.4037 22.8044 35.3874 22.889C35.387 22.8984 35.3887 22.9077 35.3923 22.9164C35.396 22.9251 35.4015 22.9329 35.4084 22.9392C35.4209 22.9505 35.4371 22.9567 35.4539 22.9565C35.5232 22.9463 35.5909 22.9275 35.6556 22.9005C35.9387 22.7938 36.2445 22.7621 36.5434 22.8083C36.682 22.8239 36.7474 22.8326 36.7778 22.785C36.7856 22.7713 36.7891 22.7555 36.7877 22.7397C36.7863 22.724 36.7801 22.7091 36.77 22.6969V22.6969Z" fill="black"/>
<path d="M36.3777 22.8243C36.4651 22.5131 36.4701 22.1846 36.3922 21.871C36.2795 21.3639 36.1091 21.0741 35.7933 21.1218C35.4774 21.1695 35.4693 21.5782 35.5711 22.0875C35.6179 22.3208 35.7091 22.543 35.8396 22.742C36.0909 23.0928 36.2614 23.002 36.3772 22.8243L36.3777 22.8243Z" fill="black"/>
<path d="M60.3452 17.666C58.8238 17.666 58.0727 18.8679 57.7258 19.6435C57.5346 20.0751 57.48 20.4165 57.3243 20.4165C57.1003 20.4165 57.2615 20.1215 57.0812 19.4605C56.8436 18.5919 56.1279 17.6715 54.6092 17.6715C53.0142 17.6715 52.3286 19.0262 52.0062 19.7719C51.7822 20.2799 51.7822 20.422 51.6129 20.422C51.3671 20.422 51.5719 20.0177 51.6812 19.5425C51.815 18.9989 51.8341 18.4336 51.7358 17.8818H49.2038V27.4473H52.6535V22.6947C52.6535 21.7551 53.0469 20.5669 53.716 20.5669C54.4945 20.5669 54.6447 21.1651 54.6447 22.2713V27.4582H58.1135V22.6947C58.1135 21.8589 58.4522 20.5669 59.1787 20.5669C59.9654 20.5669 60.1019 21.4082 60.1019 22.2713V27.4555H63.5107V21.8261C63.5134 19.3296 62.6367 17.6662 60.3451 17.6662L60.3452 17.666Z" fill="black"/>
<path d="M118.99 17.666C117.471 17.666 116.718 18.8679 116.373 19.6435C116.179 20.0751 116.128 20.4165 115.969 20.4165C115.748 20.4165 115.898 20.0396 115.729 19.4605C115.475 18.5974 114.844 17.6715 113.257 17.6715C111.667 17.6715 110.976 19.0262 110.651 19.7719C110.43 20.2799 110.43 20.422 110.261 20.422C110.012 20.422 110.217 20.0177 110.329 19.5425C110.463 18.9989 110.479 18.4336 110.381 17.8818H107.849V27.4473H111.301V22.6947C111.301 21.7551 111.692 20.5669 112.361 20.5669C113.134 20.5669 113.292 21.1651 113.292 22.2713V27.4582H116.758V22.6947C116.758 21.8589 117.1 20.5669 117.826 20.5669C118.605 20.5669 118.75 21.4082 118.75 22.2713V27.4555H122.156V21.8261C122.158 19.3296 121.284 17.6662 118.99 17.6662L118.99 17.666Z" fill="black"/>
<path d="M69.4129 17.6691C67.845 17.6609 66.2936 17.9941 64.8651 18.6442V21.5203C64.8651 21.5203 66.9628 20.3076 68.6645 20.3076C70.022 20.3076 70.1886 21.0451 70.1285 21.6514C70.1285 21.6514 69.7379 21.5477 68.5416 21.5477C65.7256 21.5477 64.3025 22.8341 64.3025 24.8964C64.3025 26.8521 65.9004 27.6687 67.2469 27.6687C69.2108 27.6687 70.0739 26.344 70.3416 25.713C70.5246 25.276 70.5574 24.9837 70.724 24.9837C70.9124 24.9837 70.8469 25.194 70.836 25.6283C70.8196 26.3903 70.8551 26.964 70.9725 27.4502H73.581V22.7467C73.581 19.8077 72.5485 17.6691 69.413 17.6691L69.4129 17.6691ZM68.5689 25.2159C67.7413 25.4071 67.3151 25.1504 67.3151 24.6014C67.3151 23.8475 68.0936 23.5443 69.1971 23.5443C69.686 23.5443 70.1449 23.588 70.1449 23.588C70.1476 23.9103 69.4511 25.0111 68.5689 25.2159V25.2159Z" fill="black"/>
<path d="M79.2735 14.9897H82.7314V27.4529H79.2735V14.9897Z" fill="black"/>
<path d="M86.5337 22.6701C86.5337 21.8097 87.3285 21.0285 88.7871 21.0285C90.3794 21.0285 91.6578 21.7988 91.9445 21.9709V18.644C91.9445 18.644 90.9339 17.6689 88.4511 17.6689C85.8317 17.6689 83.652 19.2094 83.652 22.5226C83.652 25.8358 85.6295 27.6686 88.4402 27.6686C90.6362 27.6686 91.9473 26.4558 91.9473 26.4558V23.3011C91.5321 23.5332 90.3795 24.339 88.8007 24.339C87.1346 24.339 86.5337 23.566 86.5337 22.6702V22.6701Z" fill="black"/>
<path d="M98.943 17.6682C96.9382 17.6682 96.1816 19.5693 96.0286 19.9052C95.8729 20.2411 95.7964 20.4269 95.6708 20.4214C95.4495 20.4159 95.6052 20.0172 95.6926 19.7577C96.0259 18.676 96.1925 17.5508 96.1925 16.4172C96.1925 15.3493 96.0477 14.9941 96.0477 14.9941H93.0651V27.4517H96.5175V22.6936C96.5175 21.9179 96.8262 20.5659 97.6975 20.5659C98.4185 20.5659 98.6426 21.1039 98.6426 22.1856V27.4544H102.095V22.3904C102.103 19.9322 101.696 17.6679 98.943 17.6679L98.943 17.6682Z" fill="black"/>
<path d="M103.229 17.8984V27.4528H106.682V17.8984C106.682 17.8984 106.1 18.2344 104.956 18.2344C103.814 18.2344 103.229 17.8984 103.229 17.8984H103.229Z" fill="black"/>
<path d="M107.061 16.2816C107.061 15.5141 106.113 14.894 104.944 14.894C103.778 14.894 102.83 15.5141 102.83 16.2816C102.83 17.0464 103.778 17.6692 104.944 17.6692C106.113 17.6692 107.061 17.0464 107.061 16.2816Z" fill="black"/>
<path d="M74.7012 17.8984V27.4528H78.1537V17.8984C78.1537 17.8984 77.5719 18.2344 76.4302 18.2344C75.2885 18.2344 74.7012 17.8984 74.7012 17.8984Z" fill="black"/>
<path d="M78.533 16.2816C78.533 15.5141 77.5852 14.894 76.4189 14.894C75.2499 14.894 74.3049 15.5141 74.3049 16.2816C74.3049 17.0464 75.25 17.6692 76.4189 17.6692C77.5853 17.6692 78.533 17.0464 78.533 16.2816Z" fill="black"/>
<path d="M129.024 17.666C127.249 17.666 126.435 19.0099 126.082 19.7664C125.848 20.269 125.858 20.4165 125.689 20.4165C125.443 20.4165 125.648 20.0123 125.757 19.537C125.891 18.9962 125.908 18.4308 125.809 17.8818H123.28V30.0939H126.733V26.2208C127.142 26.92 127.899 27.6657 129.071 27.6657C131.57 27.6657 132.826 25.5379 132.826 22.67C132.824 19.417 131.319 17.6661 129.024 17.6661L129.024 17.666ZM128.076 25.3989C127.284 25.3989 126.702 24.391 126.702 22.9816C126.702 21.6132 127.301 20.5643 128.049 20.5643C129.01 20.5643 129.42 21.452 129.42 22.9816C129.42 24.574 129.043 25.3989 128.076 25.3989V25.3989Z" fill="black"/>
</svg>
