<svg width="155" height="45" viewBox="0 0 155 45" fill="none" xmlns="http://www.w3.org/2000/svg">
<path d="M79.7961 20.6652C79.7961 19.1369 78.3099 17.5136 75.738 17.5136C72.8501 17.5136 69.6773 19.6322 69.1925 23.8589C68.6972 28.1278 71.3533 30.025 74.0305 30.025C76.7078 30.025 78.1097 28.9816 79.5432 27.5902C78.3099 26.0408 76.7183 26.7576 76.4127 26.9157C76.0754 27.0844 75.6432 27.3162 74.7578 27.3162C73.7248 27.3162 72.6708 26.8524 72.6708 24.9235C79.2902 24.27 79.7961 22.1935 79.7961 20.6652ZM76.5181 20.9182C76.4758 21.3926 76.2862 22.2041 72.9343 22.6574C73.6406 20.1488 74.9898 19.959 75.6116 19.959C76.1913 19.959 76.5602 20.4123 76.5181 20.9182ZM65.3031 21.3293C65.3031 21.3293 63.8802 25.7984 63.7642 26.1673C63.7221 25.7879 62.6786 17.7667 62.6786 17.7667C60.2543 17.7667 58.9578 19.4952 58.2727 21.3187C58.2727 21.3187 56.5441 25.7984 56.3965 26.1779C56.386 25.83 56.133 21.3714 56.133 21.3714C55.9854 19.1369 53.9406 17.7771 52.2858 17.7771L54.2884 29.9302C56.8287 29.9196 58.1989 28.2016 58.9157 26.3781C58.9157 26.3781 60.444 22.4255 60.5073 22.2462C60.5178 22.4149 61.6034 29.9302 61.6034 29.9302C64.1542 29.9302 65.5245 28.3175 66.2623 26.5572L69.8355 17.7771C67.3164 17.7771 65.9882 19.4952 65.3031 21.3293ZM89.1559 17.4926C87.5854 17.4926 86.3839 18.3464 85.3719 19.6006V19.5901L86.2785 12.2856C84.1915 12.2856 82.4945 14.0985 82.1677 16.7969L80.5866 29.8354C81.7883 29.8354 83.0636 29.4876 83.7488 28.6021C84.36 29.3926 85.2771 30.025 86.6368 30.025C90.1573 30.025 92.571 25.9354 92.571 22.0987C92.55 18.5993 90.853 17.4926 89.1559 17.4926ZM88.8292 23.7641C88.4602 25.9038 87.2692 27.3583 86.1204 27.3583C84.9609 27.3583 84.4654 26.8419 84.4654 26.8419C84.6868 24.9657 84.8239 23.8168 85.2455 22.8261C85.6671 21.8352 86.6684 20.2542 87.712 20.2542C88.7343 20.2542 89.1982 21.6138 88.8292 23.7641ZM101.362 17.7771H98.9057L98.9163 17.6507C99.085 16.0486 99.4644 15.2054 100.719 15.0683C101.573 14.984 101.952 14.5413 102.047 14.0564C102.121 13.6769 102.352 12.3594 102.352 12.3594C97.4196 12.3278 95.8701 14.457 95.4696 17.7034L95.4591 17.7771H95.4064C94.6053 17.7771 93.72 18.6836 93.5724 19.8326L93.5197 20.2542H95.164L93.7832 31.6589L93.3616 33.7036C93.4143 33.7036 93.4775 33.7142 93.5302 33.7142C95.8385 33.6299 97.3142 31.8064 97.6409 29.1608L98.7161 20.2542H99.4856C100.244 20.2542 101.13 19.4952 101.288 18.2304L101.362 17.7771ZM114.137 17.5663C111.301 17.5663 108.624 19.6533 107.802 22.9315C106.98 26.2095 108.223 30.0883 112.397 30.0883C116.561 30.0883 118.964 26.0514 118.964 22.689C118.964 19.3477 116.698 17.5663 114.137 17.5663ZM115.285 23.6587C115.138 25.1449 114.484 27.4006 112.693 27.4006C110.89 27.4006 111.143 24.7654 111.322 23.5112C111.512 22.1725 112.26 20.2647 113.873 20.2647C115.317 20.2647 115.454 21.9827 115.285 23.6587ZM132.972 21.3293C132.972 21.3293 131.549 25.7984 131.433 26.1673C131.391 25.7879 130.348 17.7667 130.348 17.7667C127.923 17.7667 126.627 19.4952 125.942 21.3187C125.942 21.3187 124.213 25.7984 124.066 26.1779C124.055 25.83 123.802 21.3714 123.802 21.3714C123.655 19.1369 121.61 17.7771 119.955 17.7771L121.947 29.9302C124.487 29.9196 125.858 28.2016 126.574 26.3781C126.574 26.3781 128.103 22.4255 128.155 22.2462C128.166 22.4149 129.251 29.9302 129.251 29.9302C131.802 29.9302 133.173 28.3175 133.91 26.5572L137.484 17.7771C134.975 17.7771 133.647 19.4952 132.972 21.3293ZM103.681 12.3594L101.615 29.0237L101.193 31.0791C101.246 31.0791 101.309 31.0896 101.362 31.0896C103.586 31.058 105.167 29.1081 105.462 26.6522L106.653 17.092C107.011 14.1724 105.272 12.3594 103.681 12.3594Z" fill="#0D0D0D"/>
<path d="M33 9.2002C25.3782 9.2002 19.2 15.3784 19.2 23.0002C19.2 30.622 25.3782 36.8002 33 36.8002C40.6218 36.8002 46.8 30.622 46.8 23.0002C46.8 15.3784 40.6218 9.2002 33 9.2002ZM38.0436 25.6192C37.4196 27.1018 36.2628 28.4596 34.122 28.4596C34.122 28.4596 33.2142 22.1338 33.2004 21.9886C33.1446 22.141 31.863 25.4668 31.863 25.4668C31.26 27.0046 30.1098 28.4524 27.969 28.4596L26.2926 18.2332C27.6852 18.2332 29.4036 19.3762 29.5284 21.2608C29.5284 21.2608 29.7432 25.009 29.7504 25.3072C29.868 24.9886 31.323 21.2194 31.323 21.2194C31.8984 19.6744 32.9862 18.2266 35.0298 18.2266C35.0298 18.2266 35.9028 24.9748 35.9376 25.2934C36.0276 24.9748 37.2264 21.2194 37.2264 21.2194C37.8012 19.6744 38.9166 18.2266 41.0364 18.2266L38.0436 25.6192Z" fill="black"/>
</svg>
