<svg width="98" height="70" viewBox="0 0 98 70" fill="none" xmlns="http://www.w3.org/2000/svg">
<g clip-path="url(#clip0_563_2)">
<path d="M50.2877 68.9937L95.7544 42.1219C97.2019 41.308 98.4426 39.9745 97.0322 39.0997L51.4038 12.8032C50.7198 12.379 49.6806 12.1007 48.9833 12.5063L1.26318 40.2052C-0.184333 41.0456 -0.444142 43.3865 0.998067 44.2349L44.2962 68.946C45.2046 69.474 46.2349 69.7561 47.2856 69.7645C48.3363 69.7728 49.371 69.5072 50.2877 68.9937Z" fill="#FFB3A6"/>
<path style="mix-blend-mode:multiply" d="M30.5131 51.7007L23.2861 55.7118C23.2861 55.7118 30.0385 61.0353 33.0688 62.3184L40.3037 58.0103" fill="url(#paint0_linear_563_2)"/>
<path style="mix-blend-mode:multiply" d="M30.2191 35.6641L22.9922 39.6752C22.9922 39.6752 24.7234 42.4138 27.7642 43.6863L35.5744 39.3783" fill="url(#paint1_linear_563_2)"/>
<path style="mix-blend-mode:multiply" d="M69.3097 51.4807C69.3097 51.4807 78.0452 46.5894 78.0982 46.5072L64.5271 39.6753L56.8945 44.0815L69.3097 51.4807Z" fill="url(#paint2_linear_563_2)"/>
<path d="M79.3304 31.507L90.4121 38.3761C90.5137 38.4388 90.5972 38.527 90.6543 38.6319C90.7114 38.7367 90.7401 38.8547 90.7377 38.9741C90.7353 39.0935 90.7018 39.2102 90.6405 39.3126C90.5792 39.4151 90.4923 39.4999 90.3882 39.5585L73.5695 49.0627C73.3357 49.1974 73.0706 49.2683 72.8007 49.2683C72.5309 49.2683 72.2657 49.1974 72.0319 49.0627L61.0006 42.5781C60.2053 41.9206 60.4226 40.945 61.0006 40.6269L77.7212 31.4858C77.9662 31.3432 78.2453 31.2698 78.5287 31.2736C78.8122 31.2773 79.0893 31.358 79.3304 31.507Z" fill="#68E1FD"/>
<path d="M79.3305 31.035L90.4122 37.904C90.5138 37.9668 90.5972 38.055 90.6543 38.1598C90.7114 38.2647 90.7402 38.3827 90.7378 38.502C90.7354 38.6214 90.7019 38.7381 90.6406 38.8406C90.5793 38.9431 90.4924 39.0278 90.3883 39.0864L73.5723 48.5987C73.3384 48.7333 73.0733 48.8042 72.8034 48.8042C72.5336 48.8042 72.2685 48.7333 72.0346 48.5987L61.0033 42.114C60.874 42.039 60.7666 41.9313 60.692 41.8017C60.6174 41.6721 60.5781 41.5252 60.5781 41.3757C60.5781 41.2262 60.6174 41.0792 60.692 40.9497C60.7666 40.8201 60.874 40.7124 61.0033 40.6373L77.7239 31.0244C77.9676 30.8807 78.2458 30.8058 78.5287 30.8077C78.8116 30.8095 79.0887 30.8881 79.3305 31.035Z" fill="white"/>
<path d="M78.5933 31.4062L89.7306 38.4158L73.0737 47.9466L61.5811 41.1889L78.5933 31.4062Z" fill="#606060"/>
<path d="M66.5972 45.0333C66.8153 45.0333 66.9922 44.9502 66.9922 44.8477C66.9922 44.7452 66.8153 44.6621 66.5972 44.6621C66.379 44.6621 66.2021 44.7452 66.2021 44.8477C66.2021 44.9502 66.379 45.0333 66.5972 45.0333Z" fill="#383097"/>
<path style="mix-blend-mode:multiply" d="M79.0045 43.0235C79.0045 43.0235 80.4547 40.3273 80.4626 40.3141L80.2134 40.1895L77.1328 41.9684L79.0045 43.0235Z" fill="url(#paint3_linear_563_2)"/>
<path d="M92.0299 33.0789C92.0261 33.0597 92.0261 33.0399 92.0299 33.0206C91.8786 32.9415 91.7158 32.8869 91.5474 32.8589L81.208 39.0307C81.208 39.0307 80.5877 39.5158 81.7382 40.1707L92.234 33.9326C92.2239 33.6372 92.1545 33.3469 92.0299 33.0789Z" fill="#CCCCCC"/>
<path d="M81.1869 39.0283C81.1869 39.0283 79.9833 40.3751 79.9621 40.4626C79.9409 40.5501 81.7039 40.1683 81.7039 40.1683" fill="#CCCCCC"/>
<path d="M92.1958 33.9348C92.386 33.8249 92.3983 33.4902 92.2234 33.1872C92.0484 32.8841 91.7524 32.7275 91.5622 32.8373C91.372 32.9471 91.3596 33.2818 91.5346 33.5849C91.7096 33.8879 92.0056 34.0446 92.1958 33.9348Z" fill="#F2F2F2"/>
<path d="M39.7787 30.4199L44.1212 32.5117C44.2844 32.5905 44.4231 32.7123 44.5224 32.8639C44.6217 33.0156 44.6779 33.1913 44.685 33.3725C44.6921 33.5536 44.6498 33.7332 44.5626 33.8921C44.4754 34.051 44.3467 34.1833 44.1902 34.2747L33.8959 40.2794C33.6733 40.4091 33.4093 40.4479 33.1589 40.3876C32.9085 40.3273 32.691 40.1727 32.5518 39.956L30.0518 36.0721" fill="#56403D"/>
<path d="M16.1489 20.3617L50.7884 0.406748C51.026 0.269263 51.2956 0.19684 51.5701 0.196777C51.8446 0.196715 52.1143 0.269016 52.352 0.406393C52.5896 0.543769 52.7869 0.741367 52.9238 0.979268C53.0608 1.21717 53.1326 1.48697 53.132 1.76147V22.5197C53.1318 22.7476 53.0717 22.9714 52.9577 23.1687C52.8437 23.366 52.6798 23.5299 52.4825 23.6438L15.5603 44.9562C15.4329 45.0297 15.2884 45.0684 15.1412 45.0684C14.9941 45.0684 14.8496 45.0296 14.7222 44.9559C14.5948 44.8823 14.4891 44.7764 14.4156 44.6489C14.3421 44.5215 14.3036 44.3769 14.3037 44.2298V23.551C14.3046 22.9043 14.4756 22.2692 14.7994 21.7094C15.1233 21.1496 15.5887 20.6849 16.1489 20.3617Z" fill="#68E1FD"/>
<path d="M50.7837 1.97603L17.1993 21.3C16.8405 21.5065 16.5426 21.804 16.3354 22.1624C16.1283 22.5208 16.0193 22.9275 16.0195 23.3414V38.9035C16.0199 39.0523 16.0593 39.1984 16.1338 39.3272C16.2083 39.456 16.3153 39.563 16.444 39.6376C16.5728 39.7122 16.7189 39.7517 16.8677 39.7522C17.0165 39.7527 17.1628 39.7142 17.2921 39.6405L51.5445 19.9851C51.6725 19.9118 51.7789 19.8061 51.8529 19.6785C51.9269 19.551 51.9659 19.4061 51.9661 19.2587V2.66797C51.9656 2.52964 51.929 2.39382 51.86 2.27394C51.7909 2.15406 51.6918 2.05426 51.5724 1.98439C51.453 1.91452 51.3175 1.877 51.1791 1.87553C51.0408 1.87407 50.9045 1.90871 50.7837 1.97603Z" fill="white"/>
<path d="M37.5233 30.6393C37.6105 30.1864 37.3607 29.7575 36.9653 29.6814C36.5699 29.6052 36.1787 29.9107 36.0915 30.3636C36.0043 30.8165 36.2541 31.2453 36.6495 31.3215C37.0449 31.3976 37.4361 31.0922 37.5233 30.6393Z" fill="#AB643C"/>
<path d="M52.491 39.394L61.5525 44.5716C61.6472 44.6263 61.7258 44.705 61.7805 44.7997C61.8352 44.8944 61.864 45.0018 61.864 45.1111C61.864 45.2205 61.8352 45.3279 61.7805 45.4226C61.7258 45.5173 61.6472 45.5959 61.5525 45.6506L36.3828 60.131C36.0776 60.3069 35.7316 60.3995 35.3793 60.3995C35.0271 60.3995 34.6811 60.3069 34.3759 60.131L25.8923 55.2344C25.7938 55.1774 25.712 55.0954 25.6551 54.9967C25.5983 54.8981 25.5684 54.7862 25.5684 54.6724C25.5684 54.5585 25.5983 54.4467 25.6551 54.348C25.712 54.2494 25.7938 54.1674 25.8923 54.1104L51.359 39.3993C51.5304 39.2986 51.7254 39.2451 51.9243 39.2442C52.1231 39.2432 52.3186 39.2949 52.491 39.394Z" fill="#974C26"/>
<path d="M38.7975 47.6499L41.385 49.1822L39.4656 50.2984C38.9353 49.9829 37.3712 49.0656 36.8701 48.7713L38.7975 47.6499Z" fill="white"/>
<path d="M41.6314 46.0034L44.2189 47.5358L41.7878 48.9488C41.3636 48.7023 39.7968 47.777 39.1924 47.4218L41.6314 46.0034Z" fill="white"/>
<path d="M51.9285 40.0249L54.5558 41.5334L52.2175 42.8908C51.8464 42.676 50.261 41.7402 49.6221 41.3637L51.9285 40.0249Z" fill="white"/>
<path d="M46.3932 43.2305L48.9807 44.7628L47.0613 45.8763C46.6079 45.6112 45.0464 44.6912 44.4658 44.3492L46.3932 43.2305Z" fill="white"/>
<path d="M49.227 41.5918L51.8145 43.1241L49.3728 44.5372C49.0865 44.3728 47.4587 43.4131 46.7773 43.0101L49.227 41.5918Z" fill="white"/>
<path d="M36.4751 48.999L39.0626 50.5314L37.2253 51.5918C36.6739 51.2684 35.1203 50.3537 34.6299 50.0648L36.4751 48.999Z" fill="white"/>
<path d="M44.0707 44.5879L46.6581 46.1202L44.6247 47.3C44.1475 47.0349 42.5913 46.1043 42.0293 45.7729L44.0707 44.5879Z" fill="white"/>
<path d="M34.2349 50.3008L36.8224 51.8331L34.3913 53.2462C33.8823 52.9492 32.3314 52.0346 31.7959 51.7191L34.2349 50.3008Z" fill="white"/>
<path d="M31.3986 51.9473L33.9861 53.4796L29.625 56.0114L26.9951 54.5029L31.3986 51.9473Z" fill="white"/>
<path d="M54.8926 41.9814L57.5198 43.4899L54.1238 45.4624C53.6784 45.1973 52.1169 44.2826 51.5283 43.9353L54.8926 41.9814Z" fill="white"/>
<path d="M48.2965 45.8101L50.884 47.3424L48.9646 48.4585C48.4503 48.159 46.8994 47.2443 46.3691 46.9315L48.2965 45.8101Z" fill="white"/>
<path d="M43.5406 48.5747L46.1281 50.1071L43.697 51.5201C43.2092 51.2364 41.6556 50.3191 41.1016 49.9931L43.5406 48.5747Z" fill="white"/>
<path d="M45.974 47.1592L48.5615 48.6915L46.5281 49.8713C45.9978 49.5611 44.4416 48.6438 43.9326 48.3442L45.974 47.1592Z" fill="white"/>
<path d="M40.7008 50.2212L43.2883 51.7535L41.3689 52.8697C40.775 52.5224 39.2135 51.5998 38.7734 51.3426L40.7008 50.2212Z" fill="white"/>
<path d="M38.3784 51.5708L40.9659 53.1031L39.1286 54.1636C38.5242 53.811 36.96 52.8858 36.5332 52.6365L38.3784 51.5708Z" fill="white"/>
<path d="M51.1304 44.1636L53.7179 45.6959L51.2869 47.1063C50.9024 46.8836 49.3197 45.9504 48.6914 45.5793L51.1304 44.1636Z" fill="white"/>
<path d="M36.1382 52.8726L38.7257 54.4049L36.2947 55.818C35.7326 55.4892 34.1738 54.5719 33.6992 54.2909L36.1382 52.8726Z" fill="white"/>
<path d="M35.8895 56.0511L32.5862 57.9679L29.959 56.4594L33.302 54.5161L35.8895 56.0511Z" fill="white"/>
<path d="M37.8249 55.7886L39.7496 56.9312L37.5174 58.2223L35.5635 57.1009L37.8249 55.7886Z" fill="white"/>
<path d="M37.0559 58.4901L35.1577 59.5903L33.2012 58.4715L35.1338 57.3501L37.0559 58.4901Z" fill="white"/>
<path d="M58.1319 43.9937L60.1468 45.1098L57.8615 46.4353L55.8838 45.298L58.1319 43.9937Z" fill="white"/>
<path d="M55.4572 45.5474L57.4004 46.7006L54.9614 48.1163L52.9863 46.9816L55.4572 45.5474Z" fill="white"/>
<path d="M52.5567 47.231L54.4973 48.3842L40.2131 56.661L38.2539 55.5369L52.5567 47.231Z" fill="white"/>
<path style="mix-blend-mode:multiply" d="M58.9332 22.8169L55.2217 25.0094C55.2217 25.0094 56.367 27.0189 59.1984 28.2066L63.5091 25.8895" fill="url(#paint4_linear_563_2)"/>
<path d="M61.942 26.0695C63.8381 26.0695 65.3752 24.987 65.3752 23.6517C65.3752 22.3164 63.8381 21.2339 61.942 21.2339C60.0459 21.2339 58.5088 22.3164 58.5088 23.6517C58.5088 24.987 60.0459 26.0695 61.942 26.0695Z" fill="#68E1FD"/>
<path d="M61.9446 23.2754C63.3649 23.2754 64.5162 22.8042 64.5162 22.2229C64.5162 21.6416 63.3649 21.1704 61.9446 21.1704C60.5244 21.1704 59.373 21.6416 59.373 22.2229C59.373 22.8042 60.5244 23.2754 61.9446 23.2754Z" fill="#974C26"/>
<path d="M62.1142 22.2468C62.3157 21.9632 62.5199 21.6662 62.732 21.3322C62.9971 20.9054 63.2622 20.4706 63.4928 20.0199C63.7097 19.6215 63.895 19.2066 64.0469 18.7792C64.2159 18.3149 64.3514 17.8391 64.4525 17.3555C64.479 17.2283 64.5003 17.0904 64.5241 16.9737C64.5241 16.9154 64.5241 16.9207 64.5241 16.9287C64.5241 16.9366 64.5241 16.8889 64.5241 16.8173C64.548 16.5522 64.5639 16.2871 64.5665 16.0379C64.5783 15.1363 64.4041 14.2419 64.0549 13.4106C63.1266 14.7569 62.5008 16.288 62.2203 17.899C62.2026 17.9944 62.1858 18.0908 62.1699 18.188C62.1699 18.188 62.1434 18.3629 62.1328 18.4345L62.1063 18.6758C62.0939 18.7977 62.0824 18.9206 62.0718 19.0443C62.0347 19.5188 62.0162 19.9934 62.0188 20.4679C62.04 21.0618 62.0665 21.6556 62.1142 22.2468ZM63.2065 15.1524C63.2684 15.0817 63.3329 15.0128 63.4 14.9456C63.3864 15.0068 63.3864 15.0701 63.4 15.1312C63.3357 15.1278 63.2712 15.135 63.2092 15.1524H63.2065Z" fill="#999A1C"/>
<path d="M62.181 22.2867C62.1996 21.9394 62.2076 21.5788 62.2049 21.1838C62.2049 20.6774 62.181 20.1737 62.136 19.67C62.1033 19.2173 62.035 18.7679 61.9318 18.3259C61.8235 17.8435 61.6809 17.3696 61.505 16.9075C61.4573 16.7856 61.4096 16.6663 61.3565 16.547C61.3327 16.4913 61.338 16.4966 61.3433 16.5046L61.2903 16.4065C61.1683 16.1758 61.0437 15.9478 60.9059 15.7278C60.4271 14.9618 59.7953 14.303 59.0501 13.7925C58.9963 15.4282 59.2974 17.0562 59.9329 18.5645C59.97 18.6546 60.008 18.743 60.0469 18.8296L60.1503 19.0576L60.259 19.2776C60.3138 19.3872 60.3703 19.4968 60.4287 19.6064C60.654 20.0253 60.8953 20.4335 61.1524 20.8339C61.4758 21.3349 61.8205 21.8174 62.181 22.2867ZM59.2648 15.7278C59.279 15.6341 59.2957 15.5458 59.3152 15.4627C59.333 15.5225 59.3638 15.5777 59.4053 15.6244C59.3534 15.6525 59.3061 15.6883 59.2648 15.7304V15.7278Z" fill="#999A1C"/>
<path d="M62.1966 22.4718C62.0932 22.2783 61.9819 22.0821 61.8546 21.8673C61.6903 21.6022 61.5153 21.3371 61.3244 21.072C61.1582 20.8387 60.9738 20.6189 60.773 20.4145C60.5585 20.1889 60.3281 19.9789 60.0837 19.7862L59.8981 19.6351C59.8663 19.6139 59.8716 19.6139 59.8769 19.6165L59.8159 19.5794C59.6754 19.4946 59.5349 19.4124 59.3891 19.3382C58.8848 19.079 58.3325 18.9265 57.7666 18.8901C58.2653 19.7892 58.9527 20.5697 59.7815 21.1781L59.9299 21.2867L60.0572 21.3769L60.1871 21.4591L60.3859 21.581C60.6422 21.7348 60.9073 21.8779 61.1812 22.0105C61.5073 22.1828 61.8493 22.3339 62.1966 22.4718ZM58.5063 19.8737C58.4833 19.8189 58.4621 19.7632 58.4426 19.7067C58.4715 19.7333 58.5059 19.7533 58.5434 19.765C58.5254 19.7991 58.5129 19.8358 58.5063 19.8737Z" fill="#999A1C"/>
<path d="M62.1142 22.2468C62.3157 21.9632 62.5199 21.6662 62.732 21.3322C62.9971 20.9054 63.2622 20.4706 63.4928 20.0199C63.7097 19.6215 63.895 19.2066 64.0469 18.7792C64.2159 18.3149 64.3514 17.8391 64.4525 17.3555C64.479 17.2283 64.5003 17.0904 64.5241 16.9737C64.5241 16.9154 64.5241 16.9207 64.5241 16.9287C64.5241 16.9366 64.5241 16.8889 64.5241 16.8173C64.548 16.5522 64.5639 16.2871 64.5665 16.0379C64.5783 15.1363 64.4041 14.2419 64.0549 13.4106C63.1266 14.7569 62.5008 16.288 62.2203 17.899C62.2026 17.9944 62.1858 18.0908 62.1699 18.188C62.1699 18.188 62.1434 18.3629 62.1328 18.4345L62.1063 18.6758C62.0939 18.7977 62.0824 18.9206 62.0718 19.0443C62.0347 19.5188 62.0162 19.9934 62.0188 20.4679C62.04 21.0618 62.0665 21.6556 62.1142 22.2468ZM63.2065 15.1524C63.2684 15.0817 63.3329 15.0128 63.4 14.9456C63.3864 15.0068 63.3864 15.0701 63.4 15.1312C63.3357 15.1278 63.2712 15.135 63.2092 15.1524H63.2065Z" fill="#999A1C"/>
<path d="M62.181 22.2867C62.1996 21.9394 62.2076 21.5788 62.2049 21.1838C62.2049 20.6774 62.181 20.1737 62.136 19.67C62.1033 19.2173 62.035 18.7679 61.9318 18.3259C61.8235 17.8435 61.6809 17.3696 61.505 16.9075C61.4573 16.7856 61.4096 16.6663 61.3565 16.547C61.3327 16.4913 61.338 16.4966 61.3433 16.5046L61.2903 16.4065C61.1683 16.1758 61.0437 15.9478 60.9059 15.7278C60.4271 14.9618 59.7953 14.303 59.0501 13.7925C58.9963 15.4282 59.2974 17.0562 59.9329 18.5645C59.97 18.6546 60.008 18.743 60.0469 18.8296L60.1503 19.0576L60.259 19.2776C60.3138 19.3872 60.3703 19.4968 60.4287 19.6064C60.654 20.0253 60.8953 20.4335 61.1524 20.8339C61.4758 21.3349 61.8205 21.8174 62.181 22.2867ZM59.2648 15.7278C59.279 15.6341 59.2957 15.5458 59.3152 15.4627C59.333 15.5225 59.3638 15.5777 59.4053 15.6244C59.3534 15.6525 59.3061 15.6883 59.2648 15.7304V15.7278Z" fill="#999A1C"/>
<path d="M62.1966 22.4718C62.0932 22.2783 61.9819 22.0821 61.8546 21.8673C61.6903 21.6022 61.5153 21.3371 61.3244 21.072C61.1582 20.8387 60.9738 20.6189 60.773 20.4145C60.5585 20.1889 60.3281 19.9789 60.0837 19.7862L59.8981 19.6351C59.8663 19.6139 59.8716 19.6139 59.8769 19.6165L59.8159 19.5794C59.6754 19.4946 59.5349 19.4124 59.3891 19.3382C58.8848 19.079 58.3325 18.9265 57.7666 18.8901C58.2653 19.7892 58.9527 20.5697 59.7815 21.1781L59.9299 21.2867L60.0572 21.3769L60.1871 21.4591L60.3859 21.581C60.6422 21.7348 60.9073 21.8779 61.1812 22.0105C61.5073 22.1828 61.8493 22.3339 62.1966 22.4718ZM58.5063 19.8737C58.4833 19.8189 58.4621 19.7632 58.4426 19.7067C58.4715 19.7333 58.5059 19.7533 58.5434 19.765C58.5254 19.7991 58.5129 19.8358 58.5063 19.8737Z" fill="#999A1C"/>
<path d="M23.3174 32.8326L35.5629 26.3188L28.214 19.3013L23.3174 32.8326Z" fill="#E88831"/>
<path d="M45.105 17.44C47.679 17.44 49.7657 15.3533 49.7657 12.7793C49.7657 10.2053 47.679 8.11865 45.105 8.11865C42.531 8.11865 40.4443 10.2053 40.4443 12.7793C40.4443 15.3533 42.531 17.44 45.105 17.44Z" fill="#7ACC92"/>
<path d="M20.7413 23.6728C19.999 23.2486 19.3309 24.3939 20.0732 24.818C22.3771 26.1436 20.5319 29.028 18.8166 29.8552C18.0478 30.2237 18.7185 31.369 19.4847 31.0005C22.1623 29.7094 23.9227 25.4676 20.7413 23.6728Z" fill="#56403D"/>
<path d="M41.95 20.4309C41.2448 17.1355 36.8095 19.1584 37.581 22.1462C37.915 23.4399 39.3254 24.1928 40.5449 23.5513C41.078 23.2455 41.501 22.7792 41.7533 22.2188C42.0056 21.6585 42.0745 21.0327 41.95 20.4309ZM40.6722 21.258C40.6441 21.5028 40.5548 21.7364 40.4126 21.9375C40.2703 22.1386 40.0797 22.3007 39.8583 22.4086C38.8456 22.7957 38.8694 21.5099 39.1186 20.8948C39.564 19.7549 40.8896 19.9007 40.6669 21.2686L40.6722 21.258Z" fill="#56403D"/>
<path d="M39.8975 62.7772C39.9246 62.6057 39.9934 62.4435 40.0979 62.3048C40.2024 62.1662 40.3393 62.0553 40.4966 61.9819L42.4187 60.8737L45.3879 59.1531L48.9351 57.0985L52.7103 54.914L56.3609 52.7931L59.5423 50.9559L61.8885 49.5985L63.1213 48.8853C63.1213 48.9118 63.1637 48.9118 63.1902 48.9039C63.3366 48.8682 63.4897 48.8708 63.6348 48.9114C63.7799 48.9521 63.9121 49.0294 64.0186 49.1359C64.1252 49.2425 64.2025 49.3747 64.2431 49.5198C64.2838 49.6648 64.2863 49.818 64.2506 49.9643C64.1075 50.5211 63.6329 51.0115 63.1902 51.3509C61.7548 52.3814 60.2566 53.3217 58.7045 54.1664V53.6123C59.749 53.0396 62.0025 51.7565 62.9463 50.7756L62.4956 51.0407L61.2549 51.7671L59.3858 52.8594L57.0529 54.222L54.4097 55.7782L51.6366 57.3981L48.8901 59.002L46.3344 60.4972L44.1419 61.7883L42.4531 62.7745C41.9388 63.0768 41.3794 63.485 40.7803 63.6017C40.6672 63.6097 40.5537 63.5943 40.4468 63.5565C40.34 63.5187 40.242 63.4592 40.1592 63.3818C40.0763 63.3045 40.0103 63.2108 39.9653 63.1068C39.9203 63.0028 39.8972 62.8906 39.8975 62.7772Z" fill="#68E1FD"/>
<path style="mix-blend-mode:multiply" d="M54.9246 34.5083L50.9639 36.8678C50.9639 36.8678 53.5646 39.3598 56.5948 40.635L60.2773 38.2305" fill="url(#paint5_linear_563_2)"/>
<path d="M54.5449 32.8246V34.6778L60.2687 38.2223L67.1404 34.0229V32.4429" fill="#E54C3C"/>
<path d="M67.1404 32.4427L61.3053 28.9512L54.5449 32.8245L60.38 36.369L67.1404 32.4427Z" fill="#F5604B"/>
</g>
<defs>
<linearGradient id="paint0_linear_563_2" x1="39.0152" y1="50.9796" x2="28.8164" y2="59.2802" gradientUnits="userSpaceOnUse">
<stop stop-color="#D4A397"/>
<stop offset="1" stop-color="white"/>
</linearGradient>
<linearGradient id="paint1_linear_563_2" x1="35.3968" y1="34.5479" x2="26.7329" y2="41.5999" gradientUnits="userSpaceOnUse">
<stop stop-color="#D4A397"/>
<stop offset="1" stop-color="white"/>
</linearGradient>
<linearGradient id="paint2_linear_563_2" x1="70.5478" y1="40.7994" x2="65.3702" y2="48.4266" gradientUnits="userSpaceOnUse">
<stop offset="0.01" stop-color="#4D4D4D"/>
<stop offset="1" stop-color="white"/>
</linearGradient>
<linearGradient id="paint3_linear_563_2" x1="79.9244" y1="39.7626" x2="78.233" y2="42.2547" gradientUnits="userSpaceOnUse">
<stop offset="0.01" stop-color="#4D4D4D"/>
<stop offset="1" stop-color="white"/>
</linearGradient>
<linearGradient id="paint4_linear_563_2" x1="61.4465" y1="23.1827" x2="57.7323" y2="27.2522" gradientUnits="userSpaceOnUse">
<stop stop-color="#78B46A"/>
<stop offset="0.03" stop-color="#7F3500"/>
<stop offset="1" stop-color="white"/>
</linearGradient>
<linearGradient id="paint5_linear_563_2" x1="59.5243" y1="34.3572" x2="54.0021" y2="38.8535" gradientUnits="userSpaceOnUse">
<stop stop-color="#D4A397"/>
<stop offset="1" stop-color="white"/>
</linearGradient>
<clipPath id="clip0_563_2">
<rect width="97.6866" height="70" fill="white"/>
</clipPath>
</defs>
</svg>
