<svg width="155" height="45" viewBox="0 0 155 45" fill="none" xmlns="http://www.w3.org/2000/svg">
<path d="M69.3558 19.7667L68.6469 22.2778L69.3558 19.7658V19.7667ZM73.0023 25.2211L72.2213 25.2163L73.0023 25.2211ZM72.8102 28.9733L68.1301 28.9906L72.8102 28.9733ZM73.79 25.2269L73.0081 25.2221L73.79 25.2269ZM73.2213 28.6563L74.0378 25.5468L73.2213 28.6563ZM90.4547 14.3431L88.937 21.4834L90.4547 14.3431ZM86.5508 14.3335L85.3981 19.6678L86.5508 14.3335Z" fill="#131B28"/>
<path d="M90.1839 14.0136H86.937C86.7564 14.0136 86.5777 14.1577 86.5393 14.3345L84.2338 25.004C84.1954 25.1798 84.0167 25.3239 83.8371 25.3239H81.5383C79.2636 25.3239 79.5268 23.7514 80.0013 21.5967L80.0157 21.5314L80.2914 20.0616L80.4106 19.4565L81.4596 14.3345C81.4961 14.1577 81.3779 14.0126 81.1973 14.0126H77.864C77.7721 14.0158 77.6837 14.0488 77.6123 14.1067C77.5409 14.1646 77.4903 14.2442 77.4682 14.3335L75.9475 21.4555C75.1214 25.2249 75.3404 28.8196 79.8284 28.932H87.0013C87.1819 28.932 87.3596 28.7879 87.3981 28.6111L90.4355 14.3306C90.474 14.1539 90.3558 14.0098 90.1762 14.0098L90.1839 14.0136ZM103.133 25.3614C103.314 25.3614 103.421 25.5054 103.395 25.6822L103.08 27.224M102.773 28.7658L103.088 27.223L102.773 28.7658ZM102.388 29.0905L96.4038 29.1193L102.388 29.0905Z" fill="#131B28"/>
<path d="M94.4557 23.3756C94.4528 23.2065 94.645 22.9164 94.8255 22.9164L94.4202 22.9097C94.228 24.7483 94.4557 23.3756 94.4557 23.3756V23.3756ZM96.6891 29.1172H96.6267H96.6891ZM103.133 25.3708C103.314 25.3708 103.421 25.5149 103.395 25.6916L103.037 27.4745M98.2261 29.1143H98.2127H98.2261ZM97.4288 29.1172H97.3827H97.4288ZM97.1867 29.1172H97.1099H97.1867ZM96.9389 29.1172H96.8717H96.9389ZM97.3827 29.1172H97.1858H97.3827Z" fill="#131B28"/>
<path d="M98.2146 29.1143L97.4307 29.1172L98.2146 29.1143ZM102.381 29.0884L98.2261 29.1133L102.381 29.0884ZM102.765 28.7665L103.029 27.4755L102.765 28.7675V28.7665ZM97.1012 29.1172H96.9302H97.1012ZM96.6161 29.1191H96.3856H96.6161ZM96.8601 29.1172H96.668H96.8601ZM49.35 23.414L49.8544 21.1777L49.278 23.7329L49.2107 24.0538L49.351 23.4121L49.35 23.414ZM55.3904 13.976H51.8236C51.7315 13.9796 51.6429 14.0126 51.5708 14.0701C51.4987 14.1277 51.4469 14.2068 51.423 14.2958L50.7468 17.2738C50.7354 17.3123 50.7335 17.353 50.7412 17.3924C50.749 17.4319 50.7661 17.4689 50.7912 17.5003C50.8163 17.5317 50.8486 17.5565 50.8853 17.5728C50.9221 17.5891 50.9622 17.5962 51.0023 17.5936H54.5969C54.7775 17.5936 54.9562 17.4495 54.9946 17.2738L55.6478 14.2891C55.6862 14.1133 55.571 13.9692 55.3885 13.9692L55.3904 13.976ZM54.6219 18.9423L53.5652 23.7819L54.6219 18.9423ZM44.2607 34.9769L47.2021 35C46.3337 35 44.8995 34.9836 44.2597 34.976L44.2607 34.9769Z" fill="#131B28"/>
<path d="M50.3692 18.942L49.864 21.1783L50.3692 18.942ZM54.3654 18.6211H50.7794C50.6873 18.6248 50.5987 18.6577 50.5266 18.7153C50.4545 18.7729 50.4028 18.852 50.3789 18.941L49.3702 23.4137L49.23 24.0553L48.2693 28.6211C48.2218 28.8341 48.1641 29.0448 48.0964 29.2523C48.0964 29.2523 47.424 31.2503 46.2962 31.2283L45.1771 31.2071C45.0853 31.2097 44.9967 31.2414 44.9242 31.2977C44.8517 31.3541 44.7989 31.432 44.7737 31.5203L44.0282 34.6538C44.0165 34.6921 44.0141 34.7327 44.0213 34.7721C44.0286 34.8116 44.0452 34.8487 44.0698 34.8803C44.0943 34.912 44.1262 34.9372 44.1626 34.954C44.199 34.9707 44.2389 34.9785 44.279 34.9766L47.2213 35.0006C50.0417 35.0006 51.5278 33.4377 52.4816 28.942L54.643 18.9516C54.6814 18.7758 54.5643 18.6317 54.3837 18.6317L54.3654 18.6211ZM105.432 28.9353C105.251 28.9353 105.144 28.7912 105.172 28.6144L107.878 15.9478M109.191 28.6144L110.286 23.2081L109.191 28.6144Z" fill="#131B28"/>
<path d="M105.213 28.7757C105.191 28.6874 105.203 28.4712 105.241 28.2954L106.525 22.282L105.172 28.6153C105.134 28.7921 105.251 28.9362 105.432 28.9362H105.76C105.58 28.9362 105.234 28.8641 105.213 28.7757V28.7757ZM108.978 28.8641C108.88 28.9025 108.652 28.9362 108.471 28.9362H108.8C108.891 28.9325 108.979 28.8992 109.05 28.8411C109.121 28.7831 109.172 28.7035 109.193 28.6144L109.259 28.2935C109.223 28.4703 109.067 28.8247 108.971 28.8641H108.978ZM109.739 25.9112L110.222 23.525L109.739 25.9112ZM120.41 16.7969L120.558 17.4117C120.6 17.5875 120.485 17.7306 120.306 17.7316" fill="#131B28"/>
<path d="M109.257 28.2931L109.737 25.9107L109.257 28.2931ZM120.261 16.1653L120.408 16.7955L120.261 16.1653ZM110.222 23.5265L110.355 22.8886L110.871 20.4727L110.287 23.2085L110.222 23.5255V23.5265ZM107.922 15.7397L107.809 16.2681L106.526 22.2815L107.878 15.9482L107.922 15.7407V15.7397Z" fill="#131B28"/>
<path d="M120.558 17.4111L120.41 16.7963L120.189 15.8357C119.897 14.7022 119.04 14.0461 117.178 14.0461L108.609 14.0403C108.518 14.0435 108.429 14.0765 108.358 14.1344C108.286 14.1923 108.236 14.2719 108.214 14.3612L108.081 14.9885L107.889 15.9366L105.253 28.2834C105.215 28.4601 105.202 28.6676 105.224 28.7637C105.246 28.8597 105.592 28.9241 105.772 28.9241H108.481C108.661 28.9241 108.889 28.8914 108.988 28.8521C109.087 28.8127 109.232 28.4678 109.276 28.2815L110.304 23.196L111.404 18.0432C111.442 17.8674 111.62 17.7243 111.8 17.7233L120.323 17.7195C120.503 17.7195 120.617 17.5754 120.576 17.3996L120.558 17.4111ZM131.531 11.8453L130.875 11.8482H128.146C128.047 11.8542 127.949 11.8814 127.861 11.9281C127.772 11.9749 127.695 12.04 127.633 12.1191L121.601 20.9568C121.499 21.1057 121.383 21.0836 121.341 20.9087L120.898 18.9616C120.874 18.8725 120.822 18.7934 120.75 18.7358C120.678 18.6783 120.589 18.6453 120.497 18.6417H116.619C116.438 18.6417 116.331 18.7829 116.381 18.9568L118.11 25.0451C118.16 25.2181 118.163 25.5034 118.119 25.6792L117.351 28.6254C117.338 28.6631 117.334 28.7036 117.341 28.743C117.347 28.7825 117.364 28.8197 117.388 28.8513C117.413 28.8829 117.445 28.9078 117.481 28.9239C117.518 28.94 117.558 28.9466 117.598 28.9433H121.44C121.621 28.9433 121.805 28.7992 121.85 28.6263L122.618 25.6801C122.678 25.4727 122.772 25.2766 122.897 25.0999L132.691 12.1009C132.8 11.9568 132.741 11.8396 132.56 11.8415L131.533 11.8482L131.531 11.8453ZM100.718 19.4707C100.695 19.6628 100.514 19.8069 100.334 19.8069H95.4154C95.2453 19.8069 95.1589 19.6916 95.1848 19.5475L95.1886 19.5216L95.2107 19.438C95.6911 18.1892 96.6373 17.3698 98.4346 17.3698C100.459 17.3698 100.853 18.3593 100.716 19.4707H100.718ZM99.277 13.7954C92.9658 13.7954 91.4701 17.6263 90.6315 21.4928C89.7919 25.4342 89.8649 29.1201 96.3952 29.1201H97.4307L98.228 29.1172L102.384 29.0922C102.475 29.088 102.562 29.0543 102.633 28.9963C102.703 28.9383 102.753 28.8591 102.775 28.7704L103.406 25.6849C103.442 25.5082 103.324 25.3641 103.143 25.3641H97.2732C94.9389 25.3641 94.2444 24.7435 94.4999 22.9193H103.885C104.039 22.9164 104.178 22.8232 104.233 22.6772C104.242 22.6513 104.252 22.6234 104.256 22.5956C105.649 17.341 105.249 13.7992 99.2799 13.7992L99.277 13.7954ZM69.4442 19.4505L69.3558 19.7646C69.3558 19.7656 68.6469 22.2776 68.6469 22.2776L67.9379 24.7887C67.9085 24.8772 67.8529 24.9547 67.7784 25.011C67.704 25.0672 67.6142 25.0996 67.521 25.1037H63.7698C60.9245 25.1037 60.2319 22.878 60.9245 19.5956C61.6161 16.2382 62.9754 14.1508 65.7756 13.9395C69.6027 13.6513 70.3673 16.3429 69.4451 19.4496L69.4442 19.4505ZM72.0167 24.9116C72.0167 24.9116 73.7842 20.6177 74.1877 18.1364C74.7352 14.8156 73.0734 10 66.6517 10C60.2665 10 57.4941 14.5975 56.4365 19.6061C55.3798 24.6398 56.765 29.0548 63.1128 29.0202L72.8015 28.9846C72.8944 28.9802 72.9837 28.9472 73.0571 28.8901C73.1305 28.833 73.1845 28.7546 73.2117 28.6657L74.0282 25.5552C74.0414 25.5176 74.045 25.4772 74.0387 25.4378C74.0324 25.3984 74.0164 25.3611 73.9921 25.3295C73.9677 25.2978 73.9359 25.2727 73.8995 25.2565C73.863 25.2402 73.8231 25.2333 73.7833 25.2363H72.2203C72.0667 25.2353 71.9802 25.1364 71.9975 25.0058C72.0004 24.9817 72.0071 24.9577 72.0167 24.9328V24.9116Z" fill="#131B28"/>
<path d="M103.623 22.0374C103.623 22.1566 103.527 22.2526 103.408 22.2526C103.289 22.2526 103.193 22.1566 103.193 22.0374C103.193 21.9183 103.289 21.8223 103.408 21.8223C103.527 21.8223 103.623 21.9183 103.623 22.0374Z" fill="#131B28"/>
<path d="M23.2645 16.4539C21.5018 18.988 21.7208 22.2848 23.0676 24.9764L23.1666 25.1686L23.23 25.2896L23.2684 25.3597L23.3385 25.4846L23.4672 25.7056L23.5402 25.8266L23.6891 26.06L23.7525 26.158L23.9687 26.4702L24.0109 26.5278L24.2079 26.7901L24.2818 26.8842L24.474 27.108L24.5431 27.1916L24.7967 27.4817L24.8121 27.4981L25.0695 27.7699L25.1522 27.8535L25.3577 28.0456L25.4423 28.1253L25.7237 28.3818L25.7775 28.427L26.034 28.6431L26.1301 28.7276L26.3433 28.8948L26.4586 28.9909L26.6987 29.1638L26.8102 29.2425L27.0426 29.3962L27.1435 29.4635L27.5085 29.6863L27.6094 29.744L27.8832 29.8977L28.035 29.9745L28.2309 30.0763L28.2761 30.0984L28.3558 30.1369L28.6661 30.281L28.7314 30.3098L29.0936 30.4596L29.1819 30.4942L29.5229 30.621L29.5662 30.6364L29.9466 30.7613L30.0388 30.7882L30.423 30.8996C38.9485 32.4558 41.425 25.7757 41.425 25.7757C39.3452 28.4846 35.6613 29.2003 32.155 28.4049C32.0225 28.3761 31.8937 28.3338 31.765 28.2954L31.669 28.2665C31.5434 28.2279 31.4185 28.1872 31.2943 28.1446L31.2424 28.1253C31.131 28.0869 31.0215 28.0446 30.911 28.0024L30.8179 27.9659C30.6975 27.9184 30.5781 27.8688 30.4595 27.817L30.3885 27.7853L30.0868 27.645L29.9908 27.6028C29.912 27.5643 29.8351 27.524 29.7573 27.4836L29.6017 27.402C29.5076 27.3515 29.4144 27.2993 29.3222 27.2454L29.228 27.1926C29.1053 27.1201 28.9836 27.0458 28.863 26.9697C28.8294 26.9486 28.7977 26.9255 28.765 26.9044L28.5057 26.7315C28.4768 26.7123 28.4499 26.6931 28.4221 26.6739L28.1771 26.4961L28.0686 26.4145L27.8476 26.2416L27.7487 26.1628L27.473 25.9303C27.4634 25.9207 27.4538 25.914 27.4442 25.9054C27.3462 25.8093 27.2501 25.7305 27.1541 25.6422L27.0724 25.5634L26.864 25.3597L26.7823 25.2781C26.6956 25.1896 26.6104 25.0996 26.5268 25.0081C26.4345 24.9072 26.3438 24.8047 26.2549 24.7007L26.1877 24.6201L26.0013 24.3895L25.9341 24.2934L25.7189 24.0072C23.7862 21.3636 23.0878 17.7094 24.6507 14.7084M28.7458 14.3194C27.4711 16.1446 27.5402 18.6104 28.5345 20.5499C28.701 20.8761 28.8894 21.1906 29.0984 21.4913C29.2905 21.7651 29.5018 22.0908 29.7545 22.3107L30.0407 22.5989L30.1156 22.6729L30.4077 22.9447L30.4221 22.9572L30.7631 23.2397L30.84 23.3002L31.1973 23.5595L31.4471 23.7257L31.7112 23.889L31.7497 23.9111L31.984 24.0418L32.0676 24.085L32.2309 24.1695L32.2559 24.1811L32.5969 24.3405L32.6718 24.3713L32.96 24.4846L33.0801 24.5288L33.3366 24.6181L33.4519 24.6566C33.5748 24.695 33.6959 24.7526 33.8236 24.7641C40.4067 25.8544 41.9264 20.7872 41.9264 20.7872C40.5566 22.7603 37.9034 23.7017 35.0724 22.9678L34.6997 22.8602L34.5873 22.8237L34.3279 22.7334L34.2098 22.6892L33.9293 22.5759L33.8524 22.5442L33.5095 22.3847L33.3366 22.2886L33.2376 22.2377L32.9687 22.084L32.7045 21.9227L32.4547 21.7565L32.0993 21.4971L32.0196 21.4337C30.7708 20.4558 29.7977 19.1282 29.3299 17.6028C28.8496 16.0302 28.9456 14.2656 29.7938 12.8333M33.3385 12.7248C32.5873 13.8295 32.5124 15.2031 33.035 16.426C33.5844 17.7228 34.7122 18.7315 36.0273 19.2118L36.1906 19.2694L36.2626 19.2925L36.497 19.3597C40.132 20.061 41.108 17.4942 41.3798 17.1167C40.5153 18.3597 39.0743 18.6585 37.2838 18.2262C37.138 18.1877 36.9938 18.1435 36.8515 18.0936C36.6772 18.0319 36.5063 17.9611 36.3395 17.8813C36.023 17.729 35.7224 17.5456 35.4423 17.3338C33.8476 16.1234 32.8486 13.8179 33.8985 11.9399" fill="#0868AC"/>
</svg>
