<svg width="155" height="45" viewBox="0 0 155 45" fill="none" xmlns="http://www.w3.org/2000/svg">
<path d="M42.6423 14.7387H45.1968V23.7495C45.1968 25.6317 46.4251 26.7011 48.3058 26.7011C50.1866 26.7011 51.4347 25.6317 51.4347 23.7296V14.7387H53.9892V23.7495C53.9892 26.8983 51.7113 29.0371 48.3243 29.0371C44.9174 29.0371 42.6409 26.8983 42.6409 23.7495V14.7387H42.6423ZM55.7139 18.7001H58.0117V19.4334C58.0117 19.8093 57.9719 20.127 57.9719 20.127H58.0117C58.0117 20.127 58.8825 18.4633 61.2597 18.4633C63.9929 18.4633 65.736 20.622 65.736 23.7509C65.736 26.9592 63.7759 29.0386 61.1221 29.0386C59.1222 29.0386 58.2301 27.6528 58.2301 27.6528H58.1904C58.1904 27.6528 58.2301 28.0088 58.2301 28.5237V32.7617H55.7153V18.7001H55.7139ZM60.6654 26.9195C62.0511 26.9195 63.2 25.7905 63.2 23.7906C63.2 21.8702 62.1703 20.622 60.6853 20.622C59.3775 20.622 58.1507 21.5723 58.1507 23.8105C58.1492 25.3749 59.0017 26.9195 60.6654 26.9195ZM71.3003 18.4633C73.5186 18.4633 74.2122 19.7511 74.2122 19.7511H74.2519C74.2519 19.7511 74.232 19.4944 74.232 19.1767V14.7387H76.7468V28.8003H74.3696V27.9691C74.3696 27.5932 74.4093 27.3152 74.4093 27.3152H74.3696C74.3696 27.3152 73.5186 29.0386 71.201 29.0386C68.4678 29.0386 66.7246 26.8798 66.7246 23.7509C66.7261 20.5426 68.6267 18.4633 71.3003 18.4633ZM71.7754 26.9195C73.0831 26.9195 74.31 25.9692 74.31 23.7311C74.31 22.1666 73.4789 20.622 71.7953 20.622C70.4095 20.622 69.2607 21.751 69.2607 23.7509C69.2607 25.6714 70.2904 26.9195 71.7754 26.9195ZM78.7268 18.7001H81.1437V20.4433C81.1437 20.8192 81.104 21.1567 81.104 21.1567H81.1437C81.599 19.7114 82.8074 18.5626 84.352 18.5626C84.5903 18.5626 84.8073 18.6023 84.8073 18.6023V21.0773C84.8073 21.0773 84.5492 21.0376 84.213 21.0376C83.1436 21.0376 81.9351 21.6517 81.46 23.1566C81.3011 23.6516 81.2415 24.2062 81.2415 24.8005V28.8017H78.7268V18.7001V18.7001ZM91.2438 22.463H91.58V22.324C91.58 20.9965 90.7474 20.5412 89.6397 20.5412C88.1943 20.5412 86.8668 21.5113 86.8668 21.5113L85.9165 19.7086C85.9165 19.7086 87.4809 18.4604 89.8779 18.4604C92.5317 18.4604 94.0763 19.9256 94.0763 22.4815V28.7989H91.7587V27.9677C91.7587 27.572 91.7984 27.2543 91.7984 27.2543H91.7587C91.7785 27.2543 90.9857 29.0371 88.6894 29.0371C86.8866 29.0371 85.2626 27.9081 85.2626 25.8884C85.264 22.6815 89.5999 22.463 91.2438 22.463ZM89.3234 27.0784C90.6509 27.0784 91.6012 25.6529 91.6012 24.4246V24.1878H91.1658C89.8779 24.1878 87.7986 24.3665 87.7986 25.7721C87.7986 26.4444 88.2936 27.0784 89.3234 27.0784ZM96.3542 20.8589H95.106V18.859H96.3542V18.4037C96.3542 15.0961 99.0675 14.6606 100.473 14.6606C100.988 14.6606 101.324 14.7202 101.324 14.7202V16.8591C101.324 16.8591 101.106 16.8194 100.809 16.8194C100.096 16.8194 98.8689 16.9981 98.8689 18.4633V18.859H101.028V20.8589H98.8703V28.8003H96.3556V20.8589H96.3542ZM102.355 20.8589H101.048V18.859H102.413V15.9471H104.869V18.859H107.166V20.8589H104.869V24.7806C104.869 26.4444 106.176 26.6827 106.868 26.6827C107.146 26.6827 107.324 26.6429 107.324 26.6429V28.8414C107.324 28.8414 107.027 28.901 106.551 28.901C105.145 28.901 102.352 28.4854 102.352 25.0984V20.8589H102.355ZM109.346 14.9372H113.902C116.319 14.9372 118.12 16.462 118.12 18.9781C118.12 21.4929 116.318 23.0573 113.902 23.0573H110.199V28.8003H109.348V14.9372H109.346ZM113.862 22.2645C115.882 22.2645 117.23 21.056 117.23 18.9767C117.23 16.8974 115.882 15.7287 113.862 15.7287H110.199V22.2645H113.862V22.2645ZM120.18 14.9372H121.011V26.5437C121.011 27.9294 121.724 28.0883 122.18 28.0883C122.339 28.0883 122.476 28.0684 122.476 28.0684V28.8414C122.476 28.8414 122.297 28.8811 122.12 28.8811C121.546 28.8811 120.18 28.6627 120.18 26.8018V14.9372V14.9372ZM124.3 18.8987H125.131V24.8799C125.131 26.6032 125.35 28.2273 127.567 28.2273C130.042 28.2273 131.626 26.0487 131.626 23.7311V18.8987H132.457V28.8017H131.626V27.0585C131.626 26.6032 131.705 26.2472 131.705 26.2472H131.666C131.329 27.1777 129.962 29.04 127.567 29.04C125.131 29.04 124.299 27.6925 124.299 25.1778V18.8987H124.3ZM135.231 26.9791C135.231 26.9791 136.341 28.2273 138.301 28.2273C139.509 28.2273 140.579 27.5932 140.579 26.3664C140.579 23.8516 135.132 24.5636 135.132 21.3354C135.132 19.5724 136.617 18.6618 138.301 18.6618C140.32 18.6618 141.232 19.7313 141.232 19.7313L140.737 20.405C140.737 20.405 139.925 19.4746 138.243 19.4746C137.114 19.4746 136.004 19.9894 136.004 21.2773C136.004 23.8516 141.451 23.08 141.451 26.3678C141.451 27.9521 140.103 29.0414 138.282 29.0414C135.885 29.0414 134.698 27.6159 134.698 27.6159L135.231 26.9791Z" fill="#DB6939"/>
<path d="M20.0081 11.2737C19.9982 11.2794 19.9883 11.2836 19.9769 11.2879C19.9769 11.2879 20.0039 11.2751 20.0081 11.2737ZM25.5 10C23.9795 10 22.5229 10.2737 21.1754 10.7716L21.174 10.7688C20.7669 10.9191 20.3911 11.0808 20.0067 11.2723C20.4067 11.085 20.7159 11.4964 20.7372 12.207V22.4986C20.7372 25.1282 22.8689 27.26 25.4986 27.26C28.1282 27.26 30.26 25.1282 30.26 22.4986V17.4875H28.792L32.0911 13.5175L32.1535 13.4438L32.189 13.3998L35.586 17.4875H34.1165V22.0419C34.1236 22.1936 34.1293 22.3468 34.1293 22.5014C34.1293 27.2685 30.2643 31.1321 25.4986 31.1321C20.7315 31.1321 16.8679 27.2685 16.8679 22.5014C16.8679 22.3624 16.8721 22.2248 16.8792 22.0873V15.0962C16.8792 14.082 16.3814 13.9955 16.2168 14.1388L16.2112 14.143C14.217 16.3571 13 19.2846 13 22.5C13 29.4032 18.5968 35 25.5 35C32.4032 35 38 29.4032 38 22.5C38 15.5968 32.4032 10 25.5 10Z" fill="#DB6939"/>
</svg>
