<svg width="155" height="45" viewBox="0 0 155 45" fill="none" xmlns="http://www.w3.org/2000/svg">
<path fill-rule="evenodd" clip-rule="evenodd" d="M36.0672 22.9999C35.7966 22.9975 35.5319 22.9202 35.3025 22.7767C35.073 22.6331 34.8878 22.4289 34.7672 22.1866L34.3406 21.2266H30.0739L29.6472 22.1866C29.5267 22.4289 29.3414 22.6331 29.112 22.7767C28.8826 22.9202 28.6179 22.9975 28.3472 22.9999H28.1206L29.9406 36.8666C30.0339 37.1266 30.2072 37.1266 30.3072 36.8666L32.1072 32.4332L33.6806 36.8532C33.7739 37.1132 33.9472 37.1132 34.0472 36.8532L36.1472 23.0132L36.0672 22.9999Z" fill="url(#paint0_linear_957_542)"/>
<path fill-rule="evenodd" clip-rule="evenodd" d="M34.1671 20.8398H30.2604L29.6604 22.1865C29.56 22.3861 29.4153 22.5602 29.2374 22.6954C29.0595 22.8306 28.853 22.9233 28.6338 22.9665L30.0071 31.5198C30.1004 31.6732 30.2738 31.6732 30.3738 31.5198L32.1338 28.8398L33.7471 31.5065C33.8538 31.6665 34.0138 31.6665 34.1138 31.5065L35.6738 22.9398C35.4788 22.8838 35.2975 22.7879 35.1414 22.6583C34.9854 22.5286 34.8579 22.368 34.7671 22.1865L34.1671 20.8398Z" fill="url(#paint1_linear_957_542)"/>
<path fill-rule="evenodd" clip-rule="evenodd" d="M34.7673 22.1865L32.2006 16.4531L29.6473 22.1865C29.5618 22.3509 29.4491 22.4997 29.314 22.6265L30.374 28.3131C30.4273 28.3865 30.574 28.4131 30.6806 28.3131L32.1006 26.4265L33.5273 28.2931C33.614 28.4131 33.774 28.3865 33.834 28.2931L35.0073 22.5465C34.9145 22.4355 34.834 22.3148 34.7673 22.1865Z" fill="url(#paint2_linear_957_542)"/>
<path fill-rule="evenodd" clip-rule="evenodd" d="M24.0206 8.66635C23.9406 8.39301 24.1006 8.19968 24.374 8.19968H26.6206C26.7806 8.19968 26.9273 8.33301 26.974 8.46635L28.6206 14.9663H28.7006L31.674 8.21968C31.7028 8.15698 31.7488 8.1037 31.8066 8.06596C31.8644 8.02822 31.9316 8.00756 32.0006 8.00635H32.3473C32.5206 8.00635 32.634 8.09968 32.6806 8.21968L35.6473 14.9663H35.7273L37.3806 8.47301C37.4044 8.398 37.4502 8.33185 37.512 8.28313C37.5738 8.2344 37.6488 8.20533 37.7273 8.19968H39.974C40.2473 8.19968 40.394 8.39301 40.3273 8.66635L36.7006 21.533C36.6811 21.6117 36.6356 21.6815 36.5715 21.7311C36.5074 21.7807 36.4284 21.8072 36.3473 21.8063H36.0473C35.9773 21.8056 35.909 21.7852 35.85 21.7475C35.7911 21.7098 35.7439 21.6562 35.714 21.593L32.2006 13.7597H32.1473L28.654 21.5997C28.6217 21.6611 28.574 21.7131 28.5155 21.7505C28.4571 21.7879 28.3899 21.8094 28.3206 21.813H28.0206C27.9421 21.8107 27.8664 21.7836 27.8042 21.7358C27.7419 21.6879 27.6964 21.6216 27.674 21.5463L24.0206 8.65968V8.66635ZM42.3273 8.55968C42.3273 8.36635 42.4873 8.19968 42.6873 8.19968H47.3073C48.4362 8.19784 49.5202 8.64136 50.324 9.43396C51.1278 10.2266 51.5866 11.3042 51.6006 12.433C51.6006 14.8063 49.6673 16.753 47.334 16.753H45.3206V21.2597C45.3173 21.3541 45.2783 21.4438 45.2115 21.5106C45.1447 21.5774 45.055 21.6164 44.9606 21.6197H42.694C42.5996 21.6179 42.5098 21.5792 42.4437 21.5119C42.3776 21.4446 42.3406 21.354 42.3406 21.2597V8.55968H42.3273ZM47.1406 13.9463C47.3396 13.9472 47.5368 13.9087 47.7208 13.8329C47.9048 13.7572 48.072 13.6458 48.2127 13.5051C48.3534 13.3644 48.4648 13.1972 48.5406 13.0132C48.6163 12.8292 48.6548 12.632 48.654 12.433C48.654 11.633 47.9673 11.013 47.1406 11.013H45.3206V13.9463H47.1406Z" fill="#F56F46"/>
<path fill-rule="evenodd" clip-rule="evenodd" d="M57.854 8.56C57.854 8.36667 58.014 8.19333 58.214 8.19333H63.9473C66.2473 8.19333 68.1273 10.06 68.1273 12.34C68.1273 14.1067 66.9606 15.5267 65.2873 16.1933L67.9073 21.0667C68.0406 21.3133 67.9073 21.62 67.5806 21.62H65.0273C64.8673 21.62 64.7606 21.5333 64.7206 21.4533L62.1673 16.3667H60.854V21.26C60.8507 21.3544 60.8117 21.4441 60.7449 21.5109C60.678 21.5777 60.5884 21.6167 60.494 21.62H58.2073C58.1118 21.62 58.0203 21.5821 57.9527 21.5146C57.8852 21.447 57.8473 21.3555 57.8473 21.26L57.8606 8.56H57.854ZM63.7073 13.9267C64.494 13.9267 65.1606 13.2 65.1606 12.3933C65.1606 11.5867 64.494 10.9267 63.7073 10.9267H60.8673V13.9267H63.7073ZM76.6073 8C80.4406 8 83.5206 11.0867 83.5206 14.9333C83.5206 18.7733 80.454 21.8133 76.614 21.8133C75.7087 21.8186 74.8113 21.6443 73.9738 21.3006C73.1364 20.9568 72.3754 20.4503 71.7349 19.8105C71.0944 19.1706 70.5872 18.4101 70.2426 17.573C69.898 16.7358 69.7229 15.8386 69.7273 14.9333C69.7273 11.1 72.7873 8 76.6073 8ZM76.6073 18.7333C77.5849 18.6757 78.5035 18.2467 79.1752 17.5341C79.847 16.8216 80.2211 15.8793 80.2211 14.9C80.2211 13.9207 79.847 12.9784 79.1752 12.2659C78.5035 11.5533 77.5849 11.1243 76.6073 11.0667C75.6458 11.1469 74.7496 11.5856 74.0964 12.2956C73.4432 13.0056 73.0806 13.9352 73.0806 14.9C73.0806 15.8648 73.4432 16.7944 74.0964 17.5044C74.7496 18.2144 75.6458 18.6531 76.6073 18.7333ZM91.774 8.00667C93.694 8.00667 95.1073 8.60667 96.4206 9.79333C96.5873 9.94667 96.5873 10.1733 96.4406 10.3267L94.9473 11.8733C94.885 11.9344 94.8012 11.9686 94.714 11.9686C94.6267 11.9686 94.5429 11.9344 94.4806 11.8733C93.7651 11.2398 92.843 10.889 91.8873 10.8867C89.7206 10.8867 88.1273 12.6933 88.1273 14.84C88.1149 15.3449 88.2031 15.8472 88.3867 16.3177C88.5704 16.7882 88.8458 17.2174 89.197 17.5804C89.5482 17.9434 89.9681 18.2328 90.4323 18.4319C90.8964 18.631 91.3956 18.7357 91.9006 18.74C92.8335 18.7382 93.7373 18.4157 94.4606 17.8267C94.594 17.7133 94.8473 17.7133 94.9606 17.8467L96.454 19.4467C96.5873 19.58 96.5673 19.8267 96.4273 19.96C95.1837 21.1726 93.5108 21.8437 91.774 21.8267C90.8671 21.8319 89.9682 21.6579 89.1288 21.3145C88.2895 20.9711 87.5263 20.4652 86.8832 19.8258C86.2401 19.1864 85.7297 18.4261 85.3815 17.5888C85.0332 16.7515 84.8539 15.8535 84.854 14.9467C84.8522 14.035 85.0302 13.132 85.3779 12.2893C85.7255 11.4466 86.236 10.6807 86.88 10.0354C87.524 9.39021 88.2889 8.87831 89.1309 8.52904C89.973 8.17978 90.8757 8 91.7873 8L91.774 8.00667ZM98.734 8.66C98.734 8.41333 98.9273 8.19333 99.2006 8.19333H101.447C101.571 8.19506 101.688 8.24478 101.775 8.33192C101.863 8.41907 101.912 8.53677 101.914 8.66V13.7L106.167 8.38667C106.247 8.3 106.421 8.2 106.527 8.2H108.947C109.307 8.2 109.501 8.61333 109.301 8.90667L104.814 14.5267L109.707 20.8867C109.921 21.1667 109.707 21.6 109.341 21.6H106.701C106.571 21.5978 106.446 21.5507 106.347 21.4667L101.901 15.44V21.16C101.899 21.2832 101.849 21.4009 101.762 21.4881C101.675 21.5752 101.557 21.6249 101.434 21.6267H99.1873C99.1258 21.6276 99.0647 21.6161 99.0076 21.593C98.9506 21.5698 98.8988 21.5355 98.8553 21.492C98.8118 21.4485 98.7774 21.3967 98.7543 21.3396C98.7312 21.2826 98.7197 21.2215 98.7206 21.16L98.734 8.66ZM111.641 8.56C111.641 8.36667 111.794 8.2 112.001 8.2H119.941C120.161 8.2 120.307 8.36667 120.307 8.56V10.6467C120.307 10.7439 120.269 10.8372 120.2 10.9059C120.131 10.9747 120.038 11.0133 119.941 11.0133H114.634V13.3867H119.007C119.194 13.3867 119.367 13.5533 119.367 13.7467V15.8333C119.368 15.8812 119.36 15.9287 119.342 15.9731C119.324 16.0176 119.298 16.0581 119.264 16.0922C119.231 16.1264 119.191 16.1535 119.147 16.172C119.102 16.1905 119.055 16.2 119.007 16.2H114.634V18.8H119.941C120.161 18.8 120.307 18.9667 120.307 19.16V21.2467C120.306 21.3428 120.266 21.4343 120.198 21.5016C120.129 21.569 120.037 21.6067 119.941 21.6067H112.001C111.905 21.6067 111.814 21.5687 111.746 21.5012C111.679 21.4337 111.641 21.3421 111.641 21.2467V8.56ZM124.601 11.0133H121.854C121.806 11.0142 121.757 11.0054 121.713 10.9873C121.668 10.9692 121.627 10.9422 121.593 10.908C121.558 10.8737 121.531 10.8329 121.513 10.788C121.495 10.7432 121.486 10.6951 121.487 10.6467V8.56C121.487 8.36667 121.647 8.19333 121.854 8.19333H130.361C130.574 8.19333 130.721 8.36667 130.721 8.56V10.6467C130.721 10.7428 130.683 10.835 130.616 10.9036C130.548 10.9722 130.457 11.0116 130.361 11.0133H127.614V21.2467C127.611 21.3411 127.572 21.4307 127.505 21.4975C127.438 21.5644 127.348 21.6033 127.254 21.6067H124.947C124.853 21.6033 124.763 21.5644 124.696 21.4975C124.63 21.4307 124.591 21.3411 124.587 21.2467L124.601 11.0133ZM39.8673 31.48C40.6873 31.48 41.2673 31.04 41.2673 30.3133V30.3C41.2673 29.6533 40.8406 29.3533 40.014 29.1533C39.2606 28.98 39.0806 28.8467 39.0806 28.54V28.5333C39.0806 28.2733 39.3206 28.0667 39.7206 28.0667C40.0273 28.0667 40.3206 28.1667 40.6206 28.3667C40.6731 28.3978 40.733 28.4139 40.794 28.4133C40.974 28.4133 41.1206 28.28 41.1206 28.0933C41.1202 28.0395 41.1058 27.9866 41.079 27.9399C41.0521 27.8932 41.0136 27.8542 40.9673 27.8267C40.6034 27.5812 40.1729 27.4532 39.734 27.46C38.954 27.46 38.4006 27.9267 38.4006 28.5933V28.6067C38.4006 29.3267 38.8673 29.5667 39.7006 29.7667C40.4206 29.9333 40.5806 30.0867 40.5806 30.3667V30.38C40.5806 30.6667 40.314 30.8667 39.8873 30.8667C39.4606 30.8667 39.1206 30.72 38.794 30.4667C38.7368 30.4225 38.6663 30.399 38.594 30.4C38.5238 30.3962 38.4543 30.4157 38.3963 30.4553C38.3383 30.495 38.2949 30.5526 38.2729 30.6194C38.2509 30.6861 38.2515 30.7583 38.2746 30.8246C38.2977 30.891 38.342 30.948 38.4006 30.9867C38.8237 31.3039 39.3385 31.4748 39.8673 31.4733V31.48ZM44.6073 28.78C44.6056 28.6921 44.5699 28.6083 44.5078 28.5462C44.4456 28.484 44.3618 28.4484 44.274 28.4467C44.2291 28.4449 44.1843 28.4522 44.1423 28.4681C44.1003 28.4841 44.062 28.5083 44.0296 28.5395C43.9972 28.5706 43.9715 28.6079 43.9539 28.6493C43.9363 28.6906 43.9273 28.7351 43.9273 28.78V30.14C43.9273 30.5933 43.6606 30.86 43.2606 30.86C42.8606 30.86 42.634 30.6067 42.634 30.1467V28.78C42.634 28.6916 42.5989 28.6068 42.5363 28.5443C42.4738 28.4818 42.389 28.4467 42.3006 28.4467C42.2122 28.4467 42.1275 28.4818 42.0649 28.5443C42.0024 28.6068 41.9673 28.6916 41.9673 28.78V30.3533C41.9673 31.0333 42.3473 31.4867 43.0073 31.4867C43.4673 31.4867 43.7406 31.24 43.9273 30.9667V31.1133C43.9273 31.3067 44.0873 31.4467 44.2673 31.4467C44.3116 31.4476 44.3557 31.4396 44.3969 31.4232C44.4381 31.4069 44.4757 31.3825 44.5073 31.3514C44.539 31.3204 44.5641 31.2833 44.5813 31.2425C44.5985 31.2016 44.6073 31.1577 44.6073 31.1133V28.78ZM45.454 32.0067V28.7867C45.454 28.7425 45.4627 28.6987 45.4796 28.6578C45.4965 28.617 45.5213 28.5799 45.5526 28.5486C45.5838 28.5173 45.621 28.4925 45.6618 28.4756C45.7026 28.4587 45.7464 28.45 45.7906 28.45C45.8349 28.45 45.8786 28.4587 45.9195 28.4756C45.9603 28.4925 45.9974 28.5173 46.0287 28.5486C46.06 28.5799 46.0848 28.617 46.1017 28.6578C46.1186 28.6987 46.1273 28.7425 46.1273 28.7867V28.9667C46.3473 28.66 46.654 28.4133 47.1273 28.4133C47.8206 28.4133 48.494 28.96 48.494 29.9467V29.9533C48.494 30.9333 47.8273 31.4867 47.1273 31.4867C46.9308 31.4885 46.7368 31.442 46.5625 31.3514C46.3881 31.2607 46.2387 31.1286 46.1273 30.9667V32.0067C46.1273 32.051 46.1185 32.0949 46.1013 32.1358C46.0841 32.1767 46.059 32.2137 46.0273 32.2448C45.9957 32.2758 45.9581 32.3002 45.9169 32.3166C45.8757 32.3329 45.8316 32.3409 45.7873 32.34C45.6989 32.34 45.6141 32.3049 45.5516 32.2424C45.4891 32.1799 45.454 32.0951 45.454 32.0067ZM46.9673 30.8933C47.434 30.8933 47.814 30.5333 47.814 29.96V29.94C47.814 29.3733 47.4273 29.0067 46.9673 29.0067C46.5073 29.0067 46.1073 29.38 46.1073 29.94V29.9533C46.1073 30.52 46.5073 30.8933 46.974 30.8933H46.9673ZM49.7006 29.74H51.214C51.1673 29.3067 50.914 28.9667 50.4673 28.9667C50.054 28.9667 49.7606 29.2867 49.7006 29.74ZM51.6006 31.1C51.334 31.34 51.0006 31.4867 50.5406 31.4867C50.3395 31.4923 50.1394 31.4565 49.9527 31.3816C49.7661 31.3066 49.5968 31.194 49.4555 31.0508C49.3142 30.9076 49.2038 30.7369 49.1313 30.5492C49.0588 30.3616 49.0257 30.161 49.034 29.96V29.9467C49.034 29.1067 49.634 28.4133 50.474 28.4133C51.4073 28.4133 51.874 29.1867 51.874 29.8667C51.8749 29.9089 51.8672 29.951 51.8515 29.9902C51.8357 30.0294 51.8122 30.0651 51.7823 30.095C51.7524 30.1249 51.7167 30.1484 51.6775 30.1642C51.6383 30.1799 51.5962 30.1876 51.554 30.1867H49.7073C49.774 30.6667 50.1206 30.9333 50.554 30.9333C50.8406 30.9333 51.0606 30.8333 51.254 30.68C51.3012 30.6366 51.3632 30.6128 51.4273 30.6133C51.574 30.6133 51.694 30.7333 51.694 30.8933C51.6901 30.9696 51.6566 31.0414 51.6006 31.0933V31.1ZM52.5606 31.1133C52.5606 31.3067 52.714 31.4467 52.894 31.4467C52.9383 31.4476 52.9824 31.4396 53.0236 31.4232C53.0648 31.4069 53.1023 31.3825 53.134 31.3514C53.1657 31.3204 53.1908 31.2833 53.208 31.2425C53.2251 31.2016 53.234 31.1577 53.234 31.1133V30.2467C53.234 29.5467 53.5673 29.18 54.0473 29.0933C54.1232 29.0819 54.1924 29.0431 54.2415 28.9841C54.2907 28.9251 54.3165 28.8501 54.314 28.7733C54.314 28.5733 54.1873 28.44 53.9806 28.44C53.6806 28.44 53.394 28.7133 53.234 29.0867V28.78C53.234 28.6916 53.1989 28.6068 53.1363 28.5443C53.0738 28.4818 52.989 28.4467 52.9006 28.4467C52.8122 28.4467 52.7274 28.4818 52.6649 28.5443C52.6024 28.6068 52.5673 28.6916 52.5673 28.78V31.1133H52.5606ZM54.854 27.7133C54.854 27.9133 55.0206 28.0467 55.2406 28.0467C55.454 28.0467 55.6206 27.9133 55.6206 27.7133V27.6867C55.6206 27.4867 55.454 27.3533 55.2406 27.3533C55.0206 27.3533 54.854 27.4867 54.854 27.6867V27.72V27.7133ZM54.9073 31.1133C54.9073 31.3067 55.054 31.4467 55.2406 31.4467C55.329 31.4467 55.4138 31.4115 55.4763 31.349C55.5389 31.2865 55.574 31.2017 55.574 31.1133V28.78C55.574 28.6916 55.5389 28.6068 55.4763 28.5443C55.4138 28.4818 55.329 28.4467 55.2406 28.4467C55.1522 28.4467 55.0674 28.4818 55.0049 28.5443C54.9424 28.6068 54.9073 28.6916 54.9073 28.78V31.1133ZM57.8606 31.4867C57.6577 31.492 57.4557 31.4566 57.2667 31.3826C57.0776 31.3087 56.9053 31.1975 56.7599 31.0559C56.6145 30.9142 56.4989 30.7448 56.42 30.5577C56.3412 30.3707 56.3006 30.1697 56.3006 29.9667V29.9533C56.3006 29.1133 56.9673 28.42 57.874 28.42C58.0772 28.4147 58.2795 28.45 58.4689 28.5239C58.6584 28.5978 58.8311 28.7088 58.9771 28.8504C59.123 28.992 59.2392 29.1613 59.3188 29.3484C59.3984 29.5355 59.4398 29.7367 59.4406 29.94V29.9533C59.4406 30.7933 58.774 31.4867 57.8606 31.4867ZM57.874 30.8933C58.4206 30.8933 58.7673 30.4733 58.7673 29.96C58.7673 29.4333 58.394 29.0067 57.8606 29.0067C57.3206 29.0067 56.974 29.4267 56.974 29.94V29.9533C56.974 30.4667 57.3473 30.8933 57.874 30.8933ZM60.1273 31.1133C60.1273 31.3067 60.274 31.4467 60.4606 31.4467C60.549 31.4467 60.6338 31.4115 60.6963 31.349C60.7589 31.2865 60.794 31.2017 60.794 31.1133V30.2467C60.794 29.5467 61.1273 29.18 61.6073 29.0933C61.6832 29.0819 61.7523 29.0431 61.8015 28.9841C61.8507 28.9251 61.8765 28.8501 61.874 28.7733C61.874 28.5733 61.754 28.44 61.5406 28.44C61.2473 28.44 60.954 28.7133 60.8006 29.0867V28.78C60.8006 28.6907 60.7652 28.6051 60.702 28.5419C60.6389 28.4788 60.5533 28.4433 60.464 28.4433C60.3747 28.4433 60.289 28.4788 60.2259 28.5419C60.1628 28.6051 60.1273 28.6907 60.1273 28.78V31.1133ZM65.094 31.1933C65.1606 31.3733 65.2873 31.4733 65.454 31.4733H65.5206C65.6873 31.4733 65.814 31.3733 65.874 31.1933L66.7406 28.64L67.614 31.1933C67.6806 31.3733 67.8006 31.4733 67.9673 31.4733H68.034C68.2006 31.4733 68.3273 31.3667 68.3873 31.1933L69.5473 27.96C69.5669 27.9158 69.5782 27.8683 69.5806 27.82C69.5806 27.7757 69.5718 27.7318 69.5546 27.6909C69.5375 27.65 69.5123 27.6129 69.4807 27.5819C69.449 27.5509 69.4115 27.5265 69.3702 27.5101C69.329 27.4937 69.285 27.4858 69.2406 27.4867C69.1662 27.4874 69.0938 27.5117 69.034 27.556C68.9741 27.6003 68.9298 27.6623 68.9073 27.7333L68.0073 30.42L67.1273 27.7533C67.074 27.5867 66.954 27.48 66.7806 27.48H66.7273C66.554 27.48 66.4406 27.5867 66.3806 27.7467L65.5006 30.42L64.6006 27.74C64.5793 27.6678 64.5355 27.6042 64.4755 27.5586C64.4156 27.5131 64.3426 27.4879 64.2673 27.4867C64.2221 27.4849 64.177 27.4921 64.1346 27.508C64.0923 27.5239 64.0535 27.548 64.0206 27.5791C63.9877 27.6101 63.9613 27.6474 63.943 27.6888C63.9247 27.7302 63.9148 27.7748 63.914 27.82C63.9143 27.8657 63.9234 27.911 63.9406 27.9533L65.094 31.1933ZM71.3473 31.4867C71.1443 31.492 70.9424 31.4566 70.7533 31.3826C70.5643 31.3087 70.392 31.1975 70.2465 31.0559C70.1011 30.9142 69.9856 30.7448 69.9067 30.5577C69.8278 30.3707 69.7872 30.1697 69.7873 29.9667V29.9533C69.7873 29.1133 70.454 28.42 71.3606 28.42C71.5639 28.4147 71.7662 28.45 71.9556 28.5239C72.145 28.5978 72.3178 28.7088 72.4637 28.8504C72.6097 28.992 72.7258 29.1613 72.8054 29.3484C72.885 29.5355 72.9265 29.7367 72.9273 29.94V29.9533C72.9273 30.7933 72.2606 31.4867 71.3473 31.4867ZM71.3606 30.8933C71.9073 30.8933 72.2473 30.4733 72.2473 29.96C72.2473 29.4333 71.874 29.0067 71.3473 29.0067C70.8073 29.0067 70.4606 29.4267 70.4606 29.94V29.9533C70.4606 30.4667 70.834 30.8933 71.3606 30.8933ZM73.614 31.1133C73.614 31.3067 73.7606 31.4467 73.9473 31.4467C74.0357 31.4467 74.1205 31.4115 74.183 31.349C74.2455 31.2865 74.2806 31.2017 74.2806 31.1133V30.2467C74.2806 29.5467 74.614 29.18 75.094 29.0933C75.1699 29.0819 75.239 29.0431 75.2882 28.9841C75.3373 28.9251 75.3631 28.8501 75.3606 28.7733C75.3606 28.5733 75.2406 28.44 75.0273 28.44C74.734 28.44 74.4406 28.7133 74.2873 29.0867V28.78C74.2873 28.6907 74.2518 28.6051 74.1887 28.5419C74.1256 28.4788 74.0399 28.4433 73.9506 28.4433C73.8613 28.4433 73.7757 28.4788 73.7126 28.5419C73.6494 28.6051 73.614 28.6907 73.614 28.78V31.1133ZM78.7273 27.6533V31.12C78.7273 31.2084 78.6922 31.2932 78.6297 31.3557C78.5672 31.4182 78.4824 31.4533 78.394 31.4533C78.3496 31.4542 78.3056 31.4463 78.2644 31.4299C78.2231 31.4135 78.1856 31.3891 78.1539 31.3581C78.1223 31.327 78.0971 31.29 78.08 31.2491C78.0628 31.2082 78.0539 31.1643 78.054 31.12V30.9267C77.834 31.2333 77.5206 31.48 77.0473 31.48C76.354 31.48 75.6806 30.9267 75.6806 29.9533V29.94C75.6806 28.9667 76.3473 28.4133 77.0473 28.4133C77.534 28.4133 77.8406 28.6533 78.0473 28.9333V27.6533C78.0473 27.4667 78.2006 27.32 78.3806 27.32C78.4255 27.3182 78.4703 27.3255 78.5123 27.3414C78.5543 27.3574 78.5926 27.3817 78.625 27.4128C78.6574 27.4439 78.6831 27.4813 78.7007 27.5226C78.7183 27.564 78.7273 27.6084 78.7273 27.6533ZM77.2073 29C76.7406 29 76.3606 29.36 76.3606 29.94V29.9533C76.3606 30.52 76.7473 30.8933 77.2073 30.8933C77.6606 30.8933 78.0606 30.52 78.0606 29.96V29.94C78.0606 29.3733 77.6606 29.0067 77.2073 29.0067V29ZM79.6473 31.1067V27.8667C79.6473 27.8215 79.6563 27.7767 79.6738 27.735C79.6913 27.6933 79.7169 27.6555 79.7492 27.6239C79.7815 27.5922 79.8198 27.5673 79.8618 27.5506C79.9038 27.5339 79.9488 27.5258 79.994 27.5267H81.194C82.1073 27.5267 82.674 28.04 82.674 28.8267V28.84C82.674 29.7133 81.974 30.1733 81.114 30.1733H80.334V31.1133C80.3348 31.1577 80.3269 31.2017 80.3105 31.2429C80.2942 31.2842 80.2698 31.3217 80.2387 31.3534C80.2077 31.385 80.1706 31.4102 80.1297 31.4273C80.0889 31.4445 80.045 31.4533 80.0006 31.4533C79.9557 31.4551 79.911 31.4478 79.869 31.4319C79.827 31.4159 79.7886 31.3917 79.7563 31.3605C79.7239 31.3294 79.6981 31.2921 79.6805 31.2507C79.663 31.2094 79.6539 31.1649 79.654 31.12L79.6473 31.1067ZM80.334 29.5467H81.134C81.654 29.5467 81.974 29.26 81.974 28.8467V28.84C81.974 28.38 81.6473 28.14 81.134 28.14H80.334V29.5467ZM83.3006 31.1133C83.3006 31.3067 83.4473 31.4467 83.634 31.4467C83.7224 31.4467 83.8071 31.4115 83.8697 31.349C83.9322 31.2865 83.9673 31.2017 83.9673 31.1133V30.2467C83.9673 29.5467 84.3006 29.18 84.7806 29.0933C84.8566 29.0819 84.9257 29.0431 84.9748 28.9841C85.024 28.9251 85.0498 28.8501 85.0473 28.7733C85.0473 28.5733 84.9273 28.44 84.714 28.44C84.4206 28.44 84.1273 28.7133 83.974 29.0867V28.78C83.974 28.6907 83.9385 28.6051 83.8754 28.5419C83.8122 28.4788 83.7266 28.4433 83.6373 28.4433C83.548 28.4433 83.4624 28.4788 83.3992 28.5419C83.3361 28.6051 83.3006 28.6907 83.3006 28.78V31.1133ZM86.0073 29.74H87.5206C87.474 29.3067 87.2206 28.9667 86.774 28.9667C86.3606 28.9667 86.074 29.2867 86.0073 29.74ZM87.9206 31.1C87.654 31.34 87.3206 31.4867 86.854 31.4867C86.6529 31.4923 86.4527 31.4565 86.2661 31.3816C86.0794 31.3066 85.9101 31.194 85.7688 31.0508C85.6275 30.9076 85.5171 30.7369 85.4446 30.5492C85.3721 30.3616 85.339 30.161 85.3473 29.96V29.9467C85.3473 29.1067 85.9473 28.4133 86.7873 28.4133C87.7206 28.4133 88.1873 29.1867 88.1873 29.8667C88.1882 29.9089 88.1805 29.951 88.1648 29.9902C88.149 30.0294 88.1255 30.0651 88.0956 30.095C88.0657 30.1249 88.0301 30.1484 87.9908 30.1642C87.9516 30.1799 87.9096 30.1876 87.8673 30.1867H86.0206C86.094 30.6667 86.434 30.9333 86.8673 30.9333C87.154 30.9333 87.374 30.8333 87.5673 30.68C87.6145 30.6366 87.6765 30.6128 87.7406 30.6133C87.8873 30.6133 88.0073 30.7333 88.0073 30.8933C88.0052 30.9687 87.9741 31.0403 87.9206 31.0933V31.1ZM89.8873 31.4733C90.5006 31.4733 90.9806 31.1667 90.9806 30.5533V30.54C90.9806 30.0067 90.494 29.8133 90.0673 29.68C89.7206 29.5667 89.4006 29.48 89.4006 29.26V29.2533C89.4006 29.0867 89.554 28.96 89.814 28.96C90.014 28.96 90.2673 29.04 90.5073 29.16C90.5481 29.1826 90.594 29.1941 90.6406 29.1933C90.6767 29.1951 90.7129 29.1896 90.7468 29.177C90.7807 29.1644 90.8117 29.145 90.8379 29.1201C90.8641 29.0952 90.8849 29.0651 90.8991 29.0319C90.9134 28.9986 90.9207 28.9628 90.9206 28.9267C90.9218 28.8708 90.9067 28.8158 90.8771 28.7684C90.8475 28.7211 90.8047 28.6834 90.754 28.66C90.4681 28.5095 90.1504 28.4295 89.8273 28.4267C89.2473 28.4267 88.7806 28.76 88.7806 29.3267V29.3333C88.7806 29.9 89.2673 30.08 89.7006 30.2C90.0473 30.3067 90.3606 30.3867 90.3606 30.6133V30.6267C90.3606 30.82 90.194 30.94 89.9006 30.94C89.634 30.94 89.3406 30.8467 89.054 30.66C89.0094 30.634 88.9588 30.6202 88.9073 30.62C88.8366 30.62 88.7687 30.6481 88.7187 30.6981C88.6687 30.7481 88.6406 30.8159 88.6406 30.8867C88.6406 31 88.694 31.0867 88.7673 31.1267C89.0978 31.3511 89.4878 31.4718 89.8873 31.4733ZM92.6206 31.4733C93.234 31.4733 93.714 31.1667 93.714 30.5533V30.54C93.714 30.0067 93.234 29.8133 92.8006 29.68C92.454 29.5667 92.134 29.48 92.134 29.26V29.2533C92.134 29.0867 92.2873 28.96 92.554 28.96C92.754 28.96 93.0006 29.04 93.2406 29.16C93.2814 29.1826 93.3274 29.1941 93.374 29.1933C93.4101 29.1951 93.4462 29.1896 93.4801 29.177C93.514 29.1644 93.545 29.145 93.5712 29.1201C93.5974 29.0952 93.6182 29.0651 93.6325 29.0319C93.6467 28.9986 93.654 28.9628 93.654 28.9267C93.6558 28.8715 93.6416 28.8171 93.6133 28.7697C93.5849 28.7224 93.5435 28.6843 93.494 28.66C93.2081 28.5095 92.8904 28.4295 92.5673 28.4267C91.9806 28.4267 91.5206 28.76 91.5206 29.3267V29.3333C91.5206 29.9 92.0073 30.08 92.4406 30.2C92.7873 30.3067 93.1006 30.3867 93.1006 30.6133V30.6267C93.1006 30.82 92.9273 30.94 92.6406 30.94C92.374 30.94 92.0806 30.8467 91.794 30.66C91.7494 30.634 91.6988 30.6202 91.6473 30.62C91.5766 30.62 91.5087 30.6481 91.4587 30.6981C91.4087 30.7481 91.3806 30.8159 91.3806 30.8867C91.3769 30.9338 91.3861 30.9811 91.4073 31.0233C91.4284 31.0656 91.4607 31.1014 91.5006 31.1267C91.8406 31.36 92.2473 31.4733 92.6206 31.4733ZM96.154 31.1067V27.8667C96.1539 27.8209 96.1631 27.7755 96.181 27.7334C96.199 27.6913 96.2252 27.6532 96.2582 27.6214C96.2912 27.5897 96.3303 27.5649 96.3731 27.5486C96.4159 27.5323 96.4615 27.5249 96.5073 27.5267H97.7006C98.614 27.5267 99.1806 28.04 99.1806 28.8267V28.84C99.1806 29.7133 98.4806 30.1733 97.6206 30.1733H96.8473V31.1133C96.8482 31.1582 96.84 31.2028 96.8233 31.2445C96.8065 31.2862 96.7815 31.324 96.7497 31.3558C96.718 31.3875 96.6801 31.4125 96.6385 31.4293C96.5968 31.4461 96.5522 31.4542 96.5073 31.4533C96.4624 31.4551 96.4176 31.4478 96.3756 31.4319C96.3336 31.4159 96.2953 31.3917 96.2629 31.3605C96.2305 31.3294 96.2048 31.2921 96.1872 31.2507C96.1696 31.2094 96.1606 31.1649 96.1606 31.12L96.154 31.1067ZM96.8473 29.5467H97.6473C98.1606 29.5467 98.4873 29.26 98.4873 28.8533V28.84C98.4873 28.38 98.154 28.14 97.6406 28.14H96.8406V29.5467H96.8473ZM100.287 29.7467H101.801C101.754 29.3067 101.494 28.9667 101.047 28.9667C100.641 28.9667 100.347 29.2867 100.287 29.74V29.7467ZM102.187 31.1C101.921 31.34 101.587 31.4867 101.127 31.4867C100.926 31.4933 100.725 31.4582 100.537 31.3836C100.35 31.309 100.18 31.1966 100.038 31.0533C99.8957 30.91 99.7847 30.739 99.7118 30.5508C99.6389 30.3627 99.6056 30.1616 99.614 29.96V29.9467C99.614 29.1067 100.214 28.4133 101.054 28.4133C101.987 28.4133 102.454 29.1867 102.454 29.8667C102.455 29.9084 102.447 29.9498 102.432 29.9886C102.417 30.0274 102.394 30.0627 102.365 30.0925C102.335 30.1224 102.301 30.146 102.262 30.1622C102.224 30.1784 102.182 30.1867 102.141 30.1867H100.294C100.361 30.6667 100.707 30.9333 101.141 30.9333C101.427 30.9333 101.647 30.8333 101.834 30.68C101.881 30.6366 101.943 30.6128 102.007 30.6133C102.161 30.6133 102.274 30.7333 102.274 30.8933C102.272 30.9687 102.241 31.0403 102.187 31.0933V31.1ZM103.147 31.1133C103.147 31.3067 103.301 31.4467 103.481 31.4467C103.525 31.4476 103.569 31.4396 103.61 31.4232C103.651 31.4069 103.689 31.3825 103.721 31.3514C103.752 31.3204 103.777 31.2833 103.795 31.2425C103.812 31.2016 103.821 31.1577 103.821 31.1133V30.2467C103.821 29.5467 104.154 29.18 104.627 29.0933C104.703 29.0819 104.772 29.0431 104.821 28.9841C104.871 28.9251 104.896 28.8501 104.894 28.7733C104.894 28.5733 104.774 28.44 104.561 28.44C104.267 28.44 103.981 28.7133 103.827 29.0867V28.7867C103.827 28.6965 103.791 28.61 103.728 28.5462C103.664 28.4825 103.577 28.4467 103.487 28.4467C103.397 28.4467 103.311 28.4825 103.247 28.5462C103.183 28.61 103.147 28.6965 103.147 28.7867V31.12V31.1133ZM105.601 31.1133C105.601 31.2026 105.636 31.2883 105.699 31.3514C105.762 31.4145 105.848 31.45 105.937 31.45C106.027 31.45 106.112 31.4145 106.175 31.3514C106.238 31.2883 106.274 31.2026 106.274 31.1133V29.0533H106.787C106.824 29.0542 106.861 29.0479 106.895 29.0346C106.929 29.0213 106.961 29.0014 106.987 28.9761C107.014 28.9507 107.035 28.9203 107.05 28.8867C107.065 28.853 107.073 28.8168 107.074 28.78C107.074 28.7427 107.067 28.7057 107.052 28.6713C107.038 28.6369 107.016 28.6057 106.99 28.5796C106.963 28.5535 106.931 28.533 106.896 28.5194C106.862 28.5057 106.825 28.4991 106.787 28.5H106.267V28.34C106.267 28.0333 106.401 27.8933 106.654 27.8933L106.794 27.9C106.831 27.9009 106.868 27.8943 106.903 27.8806C106.938 27.867 106.97 27.8465 106.996 27.8204C107.023 27.7943 107.044 27.7631 107.059 27.7287C107.073 27.6943 107.081 27.6573 107.081 27.62C107.08 27.5543 107.056 27.4909 107.014 27.441C106.971 27.391 106.912 27.3576 106.847 27.3467C106.735 27.3256 106.621 27.3144 106.507 27.3133C106.214 27.3133 105.994 27.3933 105.841 27.5533C105.687 27.7067 105.601 27.9533 105.601 28.2733V28.4933H105.487C105.411 28.4933 105.338 28.5235 105.285 28.5773C105.231 28.6311 105.201 28.704 105.201 28.78C105.201 28.9333 105.334 29.0533 105.487 29.0533H105.601V31.12V31.1133ZM108.894 31.4867C108.69 31.4929 108.488 31.4582 108.298 31.3846C108.108 31.3111 107.935 31.2001 107.789 31.0583C107.643 30.9165 107.527 30.7469 107.447 30.5593C107.368 30.3718 107.327 30.1703 107.327 29.9667V29.9533C107.327 29.1133 107.994 28.42 108.901 28.42C109.807 28.42 110.467 29.1 110.467 29.94V29.9533C110.467 30.7933 109.801 31.4867 108.894 31.4867ZM108.901 30.8933C109.447 30.8933 109.794 30.4733 109.794 29.96C109.794 29.4333 109.421 29.0067 108.894 29.0067C108.354 29.0067 108.007 29.4333 108.007 29.94V29.9533C108.007 30.4667 108.381 30.9 108.901 30.9V30.8933ZM111.154 31.1133C111.154 31.3067 111.307 31.4467 111.487 31.4467C111.532 31.4476 111.576 31.4396 111.617 31.4232C111.658 31.4069 111.696 31.3825 111.727 31.3514C111.759 31.3204 111.784 31.2833 111.801 31.2425C111.818 31.2016 111.827 31.1577 111.827 31.1133V30.2467C111.827 29.5467 112.161 29.18 112.641 29.0933C112.717 29.0819 112.786 29.0431 112.835 28.9841C112.884 28.9251 112.91 28.8501 112.907 28.7733C112.907 28.5733 112.787 28.44 112.574 28.44C112.274 28.44 111.987 28.7133 111.827 29.0867V28.7867C111.827 28.6983 111.792 28.6135 111.73 28.551C111.667 28.4885 111.582 28.4533 111.494 28.4533C111.406 28.4533 111.321 28.4885 111.258 28.551C111.196 28.6135 111.161 28.6983 111.161 28.7867V31.12L111.154 31.1133ZM113.461 31.1133C113.461 31.3067 113.607 31.4467 113.794 31.4467C113.838 31.4476 113.882 31.4396 113.924 31.4232C113.965 31.4069 114.002 31.3825 114.034 31.3514C114.066 31.3204 114.091 31.2833 114.108 31.2425C114.125 31.2016 114.134 31.1577 114.134 31.1133V29.76C114.134 29.3067 114.394 29.0267 114.767 29.0267C115.141 29.0267 115.367 29.2867 115.367 29.74V31.1133C115.367 31.2017 115.402 31.2865 115.465 31.349C115.527 31.4115 115.612 31.4467 115.701 31.4467C115.789 31.4467 115.874 31.4115 115.936 31.349C115.999 31.2865 116.034 31.2017 116.034 31.1133V29.76C116.034 29.2867 116.301 29.0267 116.667 29.0267C117.047 29.0267 117.267 29.28 117.267 29.7467V31.1133C117.267 31.2017 117.302 31.2865 117.365 31.349C117.427 31.4115 117.512 31.4467 117.601 31.4467C117.689 31.4467 117.774 31.4115 117.836 31.349C117.899 31.2865 117.934 31.2017 117.934 31.1133V29.54C117.934 28.82 117.547 28.4133 116.907 28.4133C116.461 28.4133 116.147 28.62 115.907 28.9333C115.828 28.7715 115.703 28.6363 115.548 28.544C115.393 28.4517 115.214 28.4063 115.034 28.4133C114.581 28.4133 114.321 28.66 114.134 28.92V28.7867C114.134 28.6974 114.098 28.6117 114.035 28.5486C113.972 28.4855 113.887 28.45 113.797 28.45C113.708 28.45 113.622 28.4855 113.559 28.5486C113.496 28.6117 113.461 28.6974 113.461 28.7867V31.12V31.1133ZM119.607 31.48C119.054 31.48 118.561 31.1667 118.561 30.5733V30.56C118.561 29.9267 119.061 29.6133 119.781 29.6133C120.107 29.6133 120.341 29.6667 120.567 29.74V29.6667C120.567 29.2467 120.314 29.02 119.834 29.02C119.581 29.02 119.367 29.0667 119.187 29.14C119.153 29.1517 119.117 29.1585 119.081 29.16C119.043 29.1609 119.006 29.1543 118.971 29.1406C118.937 29.127 118.905 29.1065 118.878 29.0804C118.852 29.0543 118.83 29.0231 118.816 28.9887C118.801 28.9543 118.794 28.9173 118.794 28.88C118.795 28.8221 118.814 28.7659 118.847 28.7184C118.88 28.6709 118.927 28.6344 118.981 28.6133C119.261 28.5067 119.541 28.44 119.927 28.44C120.367 28.44 120.701 28.5533 120.907 28.7667C121.121 28.98 121.221 29.2933 121.221 29.6733V31.1267C121.221 31.1698 121.212 31.2126 121.195 31.2523C121.178 31.292 121.153 31.3279 121.122 31.3578C121.091 31.3877 121.054 31.411 121.014 31.4262C120.973 31.4415 120.93 31.4485 120.887 31.4467C120.701 31.4467 120.567 31.3133 120.567 31.1667V31.0533C120.367 31.2933 120.061 31.48 119.607 31.48ZM119.794 30.9933C120.241 30.9933 120.581 30.7333 120.581 30.36V30.16C120.367 30.08 120.142 30.0393 119.914 30.04C119.474 30.04 119.221 30.2267 119.221 30.5333V30.5467C119.221 30.8267 119.474 30.9933 119.794 30.9933ZM122.034 31.1133C122.034 31.3067 122.181 31.4467 122.367 31.4467C122.456 31.4467 122.54 31.4115 122.603 31.349C122.665 31.2865 122.701 31.2017 122.701 31.1133V29.76C122.701 29.3 122.981 29.0267 123.367 29.0267C123.767 29.0267 124.001 29.2933 124.001 29.7467V31.1133C124.001 31.2017 124.036 31.2865 124.098 31.349C124.161 31.4115 124.246 31.4467 124.334 31.4467C124.378 31.4476 124.422 31.4396 124.464 31.4232C124.505 31.4069 124.542 31.3825 124.574 31.3514C124.606 31.3204 124.631 31.2833 124.648 31.2425C124.665 31.2016 124.674 31.1577 124.674 31.1133V29.54C124.674 28.86 124.287 28.4133 123.627 28.4133C123.167 28.4133 122.894 28.6533 122.707 28.9267V28.78C122.707 28.6898 122.671 28.6033 122.608 28.5396C122.544 28.4758 122.457 28.44 122.367 28.44C122.277 28.44 122.191 28.4758 122.127 28.5396C122.063 28.6033 122.027 28.6898 122.027 28.78V31.1133H122.034ZM126.847 31.4867C127.341 31.4867 127.661 31.32 127.914 31.0667C127.945 31.0418 127.97 31.0104 127.987 30.9746C128.005 30.9389 128.014 30.8997 128.014 30.86C128.015 30.8215 128.008 30.7832 127.994 30.7472C127.98 30.7113 127.959 30.6785 127.933 30.6506C127.906 30.6227 127.874 30.6004 127.839 30.5849C127.804 30.5693 127.766 30.5609 127.727 30.56C127.658 30.5618 127.592 30.5877 127.541 30.6333C127.354 30.7933 127.147 30.9 126.881 30.9C126.361 30.9 126.001 30.48 126.001 29.9533V29.94C126.001 29.4267 126.361 29.0067 126.854 29.0067C127.121 29.0067 127.314 29.1133 127.487 29.26C127.527 29.2933 127.601 29.3267 127.687 29.3267C127.752 29.3286 127.815 29.3102 127.868 29.2741C127.922 29.238 127.962 29.186 127.985 29.1255C128.007 29.065 128.009 28.9991 127.992 28.937C127.974 28.875 127.938 28.8201 127.887 28.78C127.604 28.5322 127.237 28.4011 126.861 28.4133C126.658 28.4115 126.457 28.4502 126.27 28.527C126.083 28.6039 125.913 28.7174 125.77 28.8608C125.627 29.0043 125.514 29.1748 125.438 29.3624C125.362 29.55 125.325 29.7509 125.327 29.9533V29.9667C125.327 30.8 125.974 31.4867 126.847 31.4867ZM129.094 29.74H130.607C130.561 29.3067 130.307 28.9667 129.861 28.9667C129.447 28.9667 129.161 29.2867 129.094 29.74ZM131.001 31.1C130.734 31.34 130.401 31.4867 129.934 31.4867C129.733 31.4923 129.533 31.4565 129.346 31.3816C129.159 31.3066 128.99 31.194 128.849 31.0508C128.707 30.9076 128.597 30.7369 128.525 30.5492C128.452 30.3616 128.419 30.161 128.427 29.96V29.9467C128.427 29.1067 129.027 28.4133 129.867 28.4133C130.801 28.4133 131.267 29.1867 131.267 29.8667C131.268 29.9089 131.261 29.951 131.245 29.9902C131.229 30.0294 131.205 30.0651 131.176 30.095C131.146 30.1249 131.11 30.1484 131.071 30.1642C131.032 30.1799 130.99 30.1876 130.947 30.1867H129.101C129.174 30.6667 129.514 30.9333 129.947 30.9333C130.234 30.9333 130.454 30.8333 130.647 30.68C130.695 30.6366 130.756 30.6128 130.821 30.6133C130.967 30.6133 131.087 30.7333 131.087 30.8933C131.085 30.9687 131.054 31.0403 131.001 31.0933V31.1Z" fill="#000000"/>
<defs>
<linearGradient id="paint0_linear_957_542" x1="27.9939" y1="37.1399" x2="28.1072" y2="21.2266" gradientUnits="userSpaceOnUse">
<stop stop-color="#DD5F29"/>
<stop offset="0.26" stop-color="#F26B32"/>
<stop offset="1" stop-color="#FAC932"/>
</linearGradient>
<linearGradient id="paint1_linear_957_542" x1="28.5138" y1="31.6932" x2="28.5804" y2="20.8398" gradientUnits="userSpaceOnUse">
<stop stop-color="#DD5F29"/>
<stop offset="0.26" stop-color="#F26B32"/>
<stop offset="1" stop-color="#FAC932"/>
</linearGradient>
<linearGradient id="paint2_linear_957_542" x1="29.2206" y1="28.4398" x2="29.314" y2="16.4598" gradientUnits="userSpaceOnUse">
<stop stop-color="#DD5F29"/>
<stop offset="0.26" stop-color="#F26B32"/>
<stop offset="1" stop-color="#FAC932"/>
</linearGradient>
</defs>
</svg>
