<svg width="155" height="45" viewBox="0 0 155 45" fill="none" xmlns="http://www.w3.org/2000/svg">
<g clip-path="url(#clip0_336_31)">
<path d="M87.6852 19.8086H82.4804V20.3607C84.1084 20.3607 84.3701 20.7096 84.3701 22.7742V26.4962C84.3701 28.5606 84.1086 28.9386 82.4804 28.9386C81.2304 28.7643 80.3869 28.0954 79.2238 26.816L77.8865 25.3623C79.6891 25.0421 80.6484 23.9084 80.6484 22.6288C80.6484 21.0299 79.2821 19.8086 76.7232 19.8086H71.6058V20.3607C73.2338 20.3607 73.4955 20.7096 73.4955 22.7742V26.4962C73.4955 28.5606 73.2338 28.9386 71.6058 28.9386V29.491H77.3919V28.9386C75.7638 28.9386 75.5021 28.5606 75.5021 26.4962V25.4497H75.9962L79.2238 29.491H87.6852C91.843 29.491 93.6459 27.2815 93.6459 24.6351C93.6459 21.9892 91.8433 19.8086 87.6852 19.8086ZM75.5023 24.5477V20.681H76.6943C78.0025 20.681 78.5843 21.5823 78.5843 22.629C78.5843 23.6469 78.0025 24.5479 76.6943 24.5479H75.5023V24.5477ZM87.7726 28.5897H87.5689C86.5224 28.5897 86.3769 28.3282 86.3769 26.9906V20.681C86.3769 20.681 87.6563 20.681 87.7726 20.681C90.7965 20.681 91.3487 22.8905 91.3487 24.6062C91.3487 26.3797 90.7963 28.5897 87.7726 28.5897Z" fill="#00749A"/>
<path d="M55.4108 25.6237L57.4171 19.6917C57.9989 17.9763 57.7371 17.4822 55.8762 17.4822V16.9004H61.3426V17.4822C59.5108 17.4822 59.0747 17.9182 58.3478 20.0409L55.0327 29.985H54.6549L51.6888 20.8839L48.6651 29.985H48.287L45.0596 20.0409C44.3618 17.9182 43.8966 17.4822 42.2101 17.4822V16.9004H48.6651V17.4822C46.9494 17.4822 46.484 17.8891 47.0949 19.6917L49.0429 25.6237L51.9797 16.9004H52.5323L55.4108 25.6237Z" fill="#00749A"/>
<path d="M65.2964 29.869C62.0982 29.869 59.4812 27.514 59.4812 24.635C59.4812 21.7857 62.0984 19.4302 65.2964 19.4302C68.4949 19.4302 71.1117 21.7857 71.1117 24.635C71.1117 27.514 68.4949 29.869 65.2964 29.869ZM65.2964 20.3322C62.6217 20.3322 61.691 22.7452 61.691 24.6352C61.691 26.5546 62.6217 28.9388 65.2964 28.9388C68.0008 28.9388 68.9312 26.5546 68.9312 24.6352C68.9312 22.7452 68.0008 20.3322 65.2964 20.3322Z" fill="#00749A"/>
<path d="M100.827 28.9094V29.4909H94.1689V28.9094C96.1172 28.9094 96.4661 28.4153 96.4661 25.5072V20.8552C96.4661 17.9471 96.1172 17.4822 94.1689 17.4822V16.9004H100.188C103.182 16.9004 104.84 18.4415 104.84 20.5063C104.84 22.5126 103.182 24.0826 100.188 24.0826H98.5302V25.5069C98.5302 28.4153 98.8791 28.9094 100.827 28.9094ZM100.188 17.9471H98.5302V23.0068H100.188C101.816 23.0068 102.572 21.8728 102.572 20.5063C102.572 19.1107 101.816 17.9471 100.188 17.9471Z" fill="#464342"/>
<path d="M124.815 26.758L124.67 27.2812C124.408 28.2408 124.088 28.5897 122.024 28.5897H121.617C120.105 28.5897 119.843 28.2408 119.843 26.1765V24.8391C122.111 24.8391 122.286 25.0423 122.286 26.5545H122.838V22.2219H122.286C122.286 23.7338 122.111 23.9373 119.843 23.9373V20.681H121.442C123.507 20.681 123.826 21.0299 124.088 21.9895L124.234 22.5416H124.699L124.496 19.8086H115.947V20.3607C117.575 20.3607 117.837 20.7096 117.837 22.7742V26.4962C117.837 28.3848 117.614 28.8605 116.331 28.9284C115.111 28.742 114.273 28.0765 113.127 26.816L111.789 25.3623C113.592 25.0421 114.552 23.9084 114.552 22.6288C114.552 21.0299 113.185 19.8086 110.626 19.8086H105.509V20.3607C107.137 20.3607 107.399 20.7096 107.399 22.7742V26.4962C107.399 28.5606 107.137 28.9386 105.509 28.9386V29.491H111.295V28.9386C109.667 28.9386 109.405 28.5606 109.405 26.4962V25.4497H109.9L113.127 29.491H125.077L125.252 26.7582H124.815V26.758ZM109.405 24.5477V20.681H110.597C111.905 20.681 112.487 21.5823 112.487 22.629C112.487 23.6469 111.905 24.5479 110.597 24.5479H109.405V24.5477Z" fill="#464342"/>
<path d="M130.718 29.8687C129.555 29.8687 128.537 29.2583 128.101 28.88C127.955 29.0257 127.694 29.4618 127.636 29.8687H127.083V25.8566H127.665C127.897 27.7755 129.235 28.9094 130.95 28.9094C131.881 28.9094 132.637 28.3861 132.637 27.514C132.637 26.7581 131.968 26.1763 130.776 25.624L129.119 24.839C127.955 24.2861 127.083 23.3265 127.083 22.0474C127.083 20.6517 128.392 19.4598 130.194 19.4598C131.154 19.4598 131.968 19.8087 132.463 20.2157C132.608 20.0994 132.753 19.7793 132.841 19.4302H133.393V22.8615H132.782C132.579 21.4948 131.823 20.3609 130.282 20.3609C129.468 20.3609 128.711 20.8261 128.711 21.5533C128.711 22.3091 129.322 22.7161 130.718 23.3559L132.317 24.1409C133.713 24.8096 134.265 25.8859 134.265 26.7581C134.265 28.5896 132.666 29.8687 130.718 29.8687Z" fill="#464342"/>
<path d="M139.673 29.8687C138.51 29.8687 137.492 29.2583 137.056 28.88C136.911 29.0257 136.649 29.4618 136.591 29.8687H136.039V25.8566H136.62C136.853 27.7755 138.19 28.9094 139.906 28.9094C140.836 28.9094 141.592 28.3861 141.592 27.514C141.592 26.7581 140.924 26.1763 139.731 25.624L138.074 24.839C136.911 24.2861 136.038 23.3265 136.038 22.0474C136.038 20.6517 137.347 19.4598 139.15 19.4598C140.109 19.4598 140.923 19.8087 141.418 20.2157C141.563 20.0994 141.708 19.7793 141.795 19.4302H142.348V22.8615H141.737C141.534 21.4948 140.778 20.3609 139.237 20.3609C138.423 20.3609 137.667 20.8261 137.667 21.5533C137.667 22.3091 138.277 22.7161 139.673 23.3559L141.272 24.1409C142.668 24.8096 143.22 25.8859 143.22 26.7581C143.22 28.5896 141.621 29.8687 139.673 29.8687Z" fill="#464342"/>
<path d="M13.1322 22.9996C13.1322 28.093 16.0922 32.4947 20.3844 34.5806L14.2462 17.7627C13.5323 19.363 13.1322 21.1341 13.1322 22.9996Z" fill="#464342"/>
<path d="M34.687 22.3504C34.687 20.7601 34.1157 19.6588 33.6258 18.8016C32.9735 17.7416 32.3621 16.844 32.3621 15.784C32.3621 14.6011 33.2593 13.5 34.5229 13.5C34.58 13.5 34.6341 13.5071 34.6897 13.5103C32.4003 11.4129 29.3502 10.1323 26.0001 10.1323C21.5046 10.1323 17.5495 12.4388 15.2487 15.9324C15.5506 15.9414 15.8351 15.9478 16.0768 15.9478C17.4227 15.9478 19.5062 15.7845 19.5062 15.7845C20.1998 15.7436 20.2816 16.7624 19.5887 16.8445C19.5887 16.8445 18.8916 16.9265 18.1159 16.9671L22.8019 30.9053L25.6179 22.4596L23.6131 16.9666C22.9201 16.926 22.2637 16.844 22.2637 16.844C21.5703 16.8033 21.6516 15.7431 22.345 15.784C22.345 15.784 24.47 15.9473 25.7345 15.9473C27.0802 15.9473 29.1639 15.784 29.1639 15.784C29.858 15.7431 29.9395 16.7619 29.2464 16.844C29.2464 16.844 28.5478 16.926 27.7736 16.9666L32.4238 30.7993L33.7073 26.5102C34.2636 24.7304 34.687 23.452 34.687 22.3504Z" fill="#464342"/>
<path d="M26.2259 24.125L22.3651 35.3439C23.5178 35.6827 24.7369 35.8681 26.0001 35.8681C27.4986 35.8681 28.9357 35.609 30.2733 35.1387C30.2388 35.0836 30.2074 35.0251 30.1817 34.9614L26.2259 24.125Z" fill="#464342"/>
<path d="M37.2912 16.8262C37.3466 17.2361 37.3779 17.6761 37.3779 18.1494C37.3779 19.4551 37.134 20.923 36.3995 22.7584L32.4689 34.1228C36.2944 31.8919 38.8676 27.7473 38.8676 23.0001C38.8678 20.7629 38.2963 18.6591 37.2912 16.8262Z" fill="#464342"/>
<path d="M26.0001 8C17.7293 8 11 14.7288 11 22.9996C11 31.2715 17.7293 38 26.0001 38C34.2707 38 41.001 31.2715 41.001 22.9996C41.0007 14.7288 34.2707 8 26.0001 8ZM26.0001 37.3125C18.1085 37.3125 11.6878 30.8917 11.6878 22.9996C11.6878 15.1081 18.1083 8.68779 26.0001 8.68779C33.8915 8.68779 40.3117 15.1081 40.3117 22.9996C40.3117 30.8917 33.8915 37.3125 26.0001 37.3125Z" fill="#464342"/>
</g>
<defs>
<clipPath id="clip0_336_31">
<rect width="132.22" height="30" fill="white" transform="translate(11 8)"/>
</clipPath>
</defs>
</svg>
