<svg width="285" height="285" viewBox="0 0 285 285" fill="none" xmlns="http://www.w3.org/2000/svg">
<rect width="285" height="285" fill="#A8DBD2"/>
<path d="M121.909 105.646H242.61C246.801 105.646 250.232 102.216 250.232 98.0232C250.232 93.8304 246.801 90.3994 242.61 90.3994H121.909C117.718 90.3994 114.287 93.8304 114.287 98.0232C114.287 102.216 117.718 105.646 121.909 105.646Z" fill="#DFFFFB" fill-opacity="0.5"/>
<path d="M9.19657 105.646H88.8109C93.0037 105.646 96.4347 102.216 96.4347 98.0232C96.4347 93.8304 93.0037 90.3994 88.8109 90.3994H9.19657C5.00376 90.3994 1.57422 93.8304 1.57422 98.0232C1.57422 102.216 5.00376 105.646 9.19657 105.646Z" fill="#DFFFFB" fill-opacity="0.5"/>
<path d="M198.538 73.2207H262.13C266.322 73.2207 269.753 69.7897 269.753 65.5969C269.753 61.4041 266.322 57.9745 262.13 57.9745H198.538C194.345 57.9745 190.914 61.4041 190.914 65.5969C190.914 69.7897 194.345 73.2207 198.538 73.2207Z" fill="#DFFFFB" fill-opacity="0.5"/>
<path d="M81.6023 73.2207H132.423C136.616 73.2207 140.045 69.7897 140.045 65.5969C140.045 61.4041 136.616 57.9745 132.423 57.9745H81.6023C77.4095 57.9745 73.9785 61.4041 73.9785 65.5969C73.9785 69.7897 77.4095 73.2207 81.6023 73.2207Z" fill="#DFFFFB" fill-opacity="0.5"/>
<path d="M160.199 73.2207H170.474C174.667 73.2207 178.096 69.7897 178.096 65.5969C178.096 61.4041 174.667 57.9745 170.474 57.9745H160.199C156.006 57.9745 152.576 61.4041 152.576 65.5969C152.576 69.7897 156.006 73.2207 160.199 73.2207Z" fill="#DFFFFB" fill-opacity="0.5"/>
<path d="M235.296 183.148H251.264C255.455 183.148 258.886 179.717 258.886 175.525C258.886 171.332 255.455 167.902 251.264 167.902H235.296C231.103 167.902 227.672 171.332 227.672 175.525C227.672 179.717 231.103 183.148 235.296 183.148Z" fill="#DFFFFB" fill-opacity="0.5"/>
<path d="M97.7962 239.344H170.946C175.138 239.344 178.57 235.914 178.57 231.721C178.57 227.529 175.138 224.098 170.946 224.098H97.7962C93.6049 224.098 90.1738 227.529 90.1738 231.721C90.1738 235.914 93.6049 239.344 97.7962 239.344Z" fill="#DFFFFB" fill-opacity="0.5"/>
<path d="M59.0496 239.344H72.495C76.6878 239.344 80.1174 235.914 80.1174 231.721C80.1174 227.529 76.6878 224.098 72.495 224.098H59.0496C54.8568 224.098 51.4258 227.529 51.4258 231.721C51.4258 235.914 54.8568 239.344 59.0496 239.344Z" fill="#DFFFFB" fill-opacity="0.5"/>
<path d="M57.9617 130.632H217.078C221.271 130.632 224.7 127.202 224.7 123.01C224.7 118.817 221.271 115.386 217.078 115.386H57.9617C53.7689 115.386 50.3379 118.817 50.3379 123.01C50.3379 127.202 53.7689 130.632 57.9617 130.632Z" fill="#DFFFFB" fill-opacity="0.5"/>
<path d="M86.759 156.89H276.367C280.56 156.89 283.99 153.459 283.99 149.267C283.99 145.075 280.56 141.643 276.367 141.643H86.759C82.5662 141.643 79.1367 145.075 79.1367 149.267C79.1367 153.459 82.5662 156.89 86.759 156.89Z" fill="#DFFFFB" fill-opacity="0.5"/>
<path d="M19.4852 183.148H209.094C213.286 183.148 216.716 179.717 216.716 175.525C216.716 171.332 213.286 167.902 209.094 167.902H19.4852C15.2923 167.902 11.8613 171.332 11.8613 175.525C11.8613 179.717 15.2923 183.148 19.4852 183.148Z" fill="#DFFFFB" fill-opacity="0.5"/>
<path d="M48.2215 209.404H242.611C246.802 209.404 250.233 205.975 250.233 201.782C250.233 197.589 246.802 194.158 242.611 194.158H48.2215C44.0287 194.158 40.5977 197.589 40.5977 201.782C40.5977 205.975 44.0287 209.404 48.2215 209.404Z" fill="#DFFFFB" fill-opacity="0.5"/>
<path d="M210.438 105.644C208.664 106.628 207.563 108.504 207.569 110.53C207.575 112.544 208.674 114.406 210.438 115.384C185.735 115.384 161.031 115.384 136.328 115.384C138.379 114.585 139.719 112.589 139.676 110.41C139.633 108.305 138.308 106.416 136.328 105.644C161.031 105.644 185.735 105.644 210.438 105.644Z" fill="#DFFFFB" fill-opacity="0.5"/>
<path d="M153.94 183.148C151.804 184.259 150.476 186.38 150.483 188.672C150.489 190.948 151.816 193.053 153.94 194.158C124.17 194.158 94.4014 194.158 64.6309 194.158C67.1015 193.254 68.7169 190.998 68.6651 188.535C68.6147 186.156 67.017 184.019 64.6309 183.148C94.4014 183.148 124.17 183.148 153.94 183.148Z" fill="#DFFFFB" fill-opacity="0.5"/>
<path d="M168.095 130.632C166.322 131.744 165.221 133.865 165.227 136.154C165.231 138.432 166.333 140.535 168.095 141.643C143.391 141.643 118.69 141.643 93.9863 141.643C96.036 140.739 97.3758 138.483 97.3328 136.02C97.2913 133.641 95.9664 131.504 93.9863 130.632C118.69 130.632 143.391 130.632 168.095 130.632Z" fill="#DFFFFB" fill-opacity="0.5"/>
<path d="M205.15 156.889C203.377 158.002 202.274 160.122 202.28 162.412C202.286 164.69 203.386 166.793 205.15 167.9C180.446 167.9 143.139 167.9 118.438 167.9C120.487 166.995 121.827 164.739 121.784 162.277C121.743 159.897 120.418 157.761 118.438 156.889C143.139 156.889 180.446 156.889 205.15 156.889Z" fill="#DFFFFB" fill-opacity="0.5"/>
<path d="M109.641 65C109.549 65 109.457 64.964 109.387 64.8937L101.105 56.6132C100.965 56.4727 100.965 56.2458 101.105 56.1054C101.246 55.9649 101.473 55.9649 101.613 56.1054L109.895 64.3841C110.035 64.5246 110.035 64.7533 109.895 64.8937C109.824 64.964 109.733 65 109.641 65Z" fill="#FE665E"/>
<path d="M101.359 65C101.267 65 101.176 64.964 101.105 64.8937C100.965 64.7533 100.965 64.5246 101.105 64.3841L109.387 56.1054C109.527 55.9649 109.754 55.9649 109.895 56.1054C110.035 56.2458 110.035 56.4727 109.895 56.6132L101.613 64.8937C101.543 64.964 101.451 65 101.359 65Z" fill="#FE665E"/>
<path d="M29.4989 160C29.2229 160 29 159.81 29 159.577V147.423C29 147.188 29.2229 147 29.4989 147C29.777 147 30 147.188 30 147.423V159.577C30 159.81 29.777 160 29.4989 160Z" fill="#FE665E"/>
<path d="M34.6109 154H23.3892C23.1739 154 23 153.777 23 153.501C23 153.225 23.1739 153 23.3892 153H34.6109C34.8261 153 35 153.225 35 153.501C35 153.777 34.8261 154 34.6109 154Z" fill="#FE665E"/>
<path d="M175.102 66C174.985 66 174.871 65.9598 174.789 65.8895L171.131 62.7555C170.956 62.6081 170.956 62.3668 171.131 62.2194C171.303 62.0704 171.584 62.0704 171.756 62.2194L175.102 65.0838L183.243 58.1106C183.417 57.9632 183.697 57.9632 183.871 58.1106C184.043 58.258 184.043 58.4992 183.871 58.6466L175.415 65.8895C175.333 65.9598 175.22 66 175.102 66Z" fill="#FE665E"/>
<path d="M267.35 147C267.098 147 266.85 146.983 266.603 146.949C265.403 146.785 264.534 146.255 263.768 145.787C262.939 145.282 262.225 144.846 261.203 144.863C260.048 144.884 258.868 145.475 257.692 146.617C257.525 146.779 257.265 146.77 257.11 146.594C256.956 146.421 256.965 146.147 257.132 145.985C258.461 144.694 259.825 144.025 261.19 144.001C262.438 143.978 263.327 144.519 264.183 145.042C264.916 145.488 265.674 145.951 266.71 146.094C268.14 146.29 269.705 145.816 271.363 144.688C271.554 144.559 271.809 144.616 271.932 144.816C272.058 145.014 272.003 145.282 271.812 145.412C270.26 146.467 268.763 147 267.35 147Z" fill="#FE665E"/>
<path d="M148.351 230C148.098 230 147.851 229.985 147.604 229.95C146.404 229.785 145.534 229.255 144.769 228.788C143.94 228.283 143.225 227.847 142.203 227.864C141.049 227.885 139.867 228.476 138.692 229.619C138.525 229.781 138.265 229.771 138.11 229.596C137.956 229.421 137.965 229.148 138.132 228.986C139.461 227.692 140.825 227.025 142.19 227.001C143.438 226.978 144.327 227.519 145.183 228.041C145.916 228.489 146.674 228.952 147.711 229.095C149.14 229.291 150.704 228.817 152.364 227.689C152.555 227.559 152.81 227.614 152.933 227.814C153.057 228.014 153.004 228.283 152.813 228.413C151.26 229.468 149.764 230 148.351 230Z" fill="#FE665E"/>
<path d="M75.8653 117C75.7598 117 75.6544 116.96 75.5744 116.881L72.207 113.553L68.9379 116.786C68.8597 116.862 68.7561 116.905 68.647 116.905C68.5379 116.905 68.4324 116.862 68.356 116.786L64.5105 112.983L60.7032 116.748C60.5432 116.907 60.2814 116.907 60.1214 116.748C59.9595 116.588 59.9595 116.331 60.1214 116.171L64.2178 112.119C64.3796 111.96 64.6396 111.96 64.8014 112.119L68.647 115.921L71.9161 112.689C71.9943 112.613 72.0979 112.57 72.207 112.57C72.3161 112.57 72.4216 112.613 72.498 112.689L75.8653 116.018L79.4781 112.444C79.6399 112.286 79.8999 112.286 80.0617 112.444L83.88 116.22C84.04 116.38 84.04 116.637 83.88 116.797C83.72 116.955 83.4582 116.955 83.2982 116.797L79.7708 113.309L76.1562 116.881C76.0762 116.96 75.9707 117 75.8653 117Z" fill="#FE665E"/>
<path d="M83.9333 30.4991L87.9992 34.9734L92.0667 30.4991L87.9992 26.0266L83.9333 30.4991ZM87.9992 36C87.9002 36 87.8012 35.9587 87.7262 35.8761L83.1126 30.7994C82.9625 30.6342 82.9625 30.3658 83.1126 30.1988L87.7262 25.1239C87.878 24.9587 88.122 24.9587 88.2738 25.1239L92.8874 30.1988C93.0375 30.3658 93.0375 30.6342 92.8874 30.7994L88.2738 35.8761C88.1971 35.9587 88.0981 36 87.9992 36Z" fill="#FE665E"/>
<path d="M32.9991 73.806C29.585 73.806 26.806 76.5836 26.806 80C26.806 83.4146 29.585 86.194 32.9991 86.194C36.415 86.194 39.1941 83.4146 39.1941 80C39.1941 76.5836 36.415 73.806 32.9991 73.806ZM32.9991 87C29.1402 87 26 83.8594 26 80C26 76.1388 29.1402 73 32.9991 73C36.8598 73 40 76.1388 40 80C40 83.8594 36.8598 87 32.9991 87Z" fill="#FE665E"/>
<path d="M36 80.001C36 81.6567 34.6568 83 32.999 83C31.3433 83 30 81.6567 30 80.001C30 78.3432 31.3433 77 32.999 77C34.6568 77 36 78.3432 36 80.001Z" fill="#FE665E"/>
<path d="M237.637 69H233.364C233.242 69 233.128 68.9295 233.06 68.8155C232.993 68.6998 232.981 68.5551 233.03 68.4285L237.301 57.2482C237.381 57.0402 237.595 56.9444 237.779 57.033C237.964 57.1216 238.049 57.364 237.971 57.5719L233.916 68.1807H237.637C237.837 68.1807 238 68.3634 238 68.5895C238 68.8155 237.837 69 237.637 69Z" fill="#FE665E"/>
<path d="M243.491 69H237.511C237.228 69 237.001 68.8155 237.001 68.5895C237.001 68.3634 237.228 68.1807 237.511 68.1807H242.717L237.041 57.5719C236.931 57.364 237.05 57.1216 237.309 57.033C237.567 56.9444 237.866 57.0402 237.979 57.2482L243.959 68.4285C244.026 68.5551 244.01 68.6998 243.916 68.8155C243.824 68.9295 243.662 69 243.491 69Z" fill="#FE665E"/>
<path d="M161.365 270C161.316 270 161.267 269.989 161.22 269.966C161.035 269.877 160.95 269.635 161.031 269.428L165.083 258.819H161.365C161.164 258.819 161 258.635 161 258.409C161 258.183 161.164 258 161.365 258H165.636C165.759 258 165.873 258.069 165.941 258.184C166.007 258.298 166.019 258.445 165.97 258.572L161.699 269.752C161.639 269.906 161.504 270 161.365 270Z" fill="#FE665E"/>
<path d="M161.564 270C161.394 270 161.232 269.906 161.163 269.752L156.035 258.572C155.978 258.445 155.991 258.298 156.072 258.184C156.153 258.069 156.29 258 156.436 258H161.564C161.805 258 162 258.183 162 258.409C162 258.635 161.805 258.819 161.564 258.819H157.099L161.965 269.428C162.059 269.635 161.957 269.877 161.735 269.966C161.68 269.989 161.622 270 161.564 270Z" fill="#FE665E"/>
<path d="M73.1023 174H72.3145C71.8264 172.964 71.3598 171.917 70.9184 170.862C69.5061 167.485 68.3432 164.032 67.4352 160.517H68.1602C69.3876 165.206 71.0494 169.712 73.1023 174ZM65.6909 141.849H65.0036C65.0018 141.64 65 141.431 65 141.221C65 136.885 65.3589 132.59 66.0677 128.365H66.7568C66.048 132.572 65.6891 136.865 65.6891 141.221C65.6891 141.429 65.6891 141.64 65.6909 141.849ZM72.4724 109.697H71.7349C74.0749 104.498 76.9946 99.5749 80.4545 95L81 95.4228C77.6101 99.9052 74.7586 104.687 72.4724 109.697Z" fill="#BEBEBE"/>
<path d="M66.6456 129H66C66.6405 124.865 67.587 120.796 68.8327 116.821C68.8764 116.684 68.9185 116.549 68.9622 116.413C69.0563 116.407 69.1454 116.365 69.2127 116.291L69.9221 115.511C68.4578 119.876 67.3617 124.384 66.6456 129ZM69.4984 114.795C70.0532 113.173 70.6568 111.574 71.3091 110H72C71.5024 111.186 71.035 112.379 70.5946 113.589L69.4984 114.795Z" fill="#A4B6B4"/>
<path d="M68 161H67.311C65.8221 154.835 65.0478 148.477 65 142H65.6532C65.7027 148.561 66.5162 154.925 68 161Z" fill="#A4B6B4"/>
<path d="M85 194H84.0497C81.6152 191.02 79.3714 187.835 77.3599 184.497C75.3467 181.155 73.5502 177.636 72 174H72.7612C75.938 181.353 80.0806 188.09 85 194Z" fill="#A4B6B4"/>
<path d="M140.851 218C130.559 218 120.577 216.026 111.177 212.134C107.669 210.68 104.257 208.96 101 207C101.467 207 101.934 207 102.401 207C113.671 213.553 126.821 217.317 140.851 217.317C152.363 217.317 163.414 214.848 173.698 209.978L174 210.591C168.939 212.989 163.596 214.834 158.122 216.075C152.494 217.353 146.682 218 140.851 218Z" fill="#A4B6B4"/>
<path d="M102 207C101.527 207 101.053 207 100.58 207C99.6296 206.445 98.6921 205.873 97.7693 205.28C93.6768 202.653 89.8293 199.636 86.3317 196.313C85.5379 195.559 84.7588 194.787 84 194C84.3352 194 84.6741 194 85.0093 194C89.9804 199.059 95.701 203.446 102 207Z" fill="#A4B6B4"/>
<path d="M69 117C69.2122 116.425 69.4305 115.85 69.657 115.281L71 114C70.7158 114.677 70.4418 115.358 70.1761 116.043L69.3069 116.871C69.2245 116.949 69.1153 116.994 69 117Z" fill="#BD726E"/>
<path d="M186.424 204L186 203.408C188.993 201.157 191.851 198.663 194.499 196L195 196.523C192.329 199.213 189.443 201.728 186.424 204Z" fill="#BEBEBE"/>
<path d="M209.584 174H208.809C210.898 169.678 212.564 165.155 213.791 160.508H214.527C213.314 165.146 211.656 169.669 209.584 174ZM216.996 141.828H216.3C216.301 141.619 216.301 141.41 216.301 141.2C216.301 136.816 215.925 132.518 215.204 128.336H215.921C216.638 132.556 217 136.851 217 141.2C217 141.409 216.998 141.619 216.996 141.828ZM184.825 79.0422H183.553C171.354 70.6292 156.569 65.6973 140.651 65.6973C125.93 65.6973 111.658 69.921 99.3821 77.9109L99 77.328C111.39 69.2637 125.793 65 140.651 65C150.958 65 160.956 67.0156 170.37 70.9888C174.893 72.8991 179.257 75.2634 183.338 78.0144C183.837 78.3503 184.334 78.6936 184.825 79.0422Z" fill="#BEBEBE"/>
<path d="M204 98H203.1C197.895 90.5954 191.422 84.1568 184 79H185.284C188.808 81.5175 192.135 84.3433 195.192 87.4186C198.428 90.6711 201.387 94.2266 204 98Z" fill="#A4B6B4"/>
<path d="M216 129H215.342C214.304 122.336 212.488 115.964 210 110C210.242 110 210.482 110 210.726 110C210.986 110.635 211.24 111.274 211.485 111.915C213.593 117.43 215.1 123.143 216 129Z" fill="#A4B6B4"/>
<path d="M214.69 161H214C215.502 154.82 216.299 148.426 216.348 142H217C216.954 148.232 216.224 154.419 214.829 160.407C214.783 160.605 214.737 160.802 214.69 161Z" fill="#A4B6B4"/>
<path d="M208.584 178L208 177.557C208.438 176.385 208.86 175.197 209.266 174H210C209.548 175.347 209.076 176.682 208.584 178Z" fill="#A4B6B4"/>
<path d="M211 110C210.724 110 210.452 110 210.178 110C208.16 105.78 205.753 101.761 203 98C203.308 98 203.618 98 203.926 98C204.136 98.2921 204.343 98.5843 204.549 98.8783C207.013 102.402 209.177 106.136 211 110Z" fill="#A4B6B4"/>
<path d="M199.61 191L199 190.534C200.898 188.447 202.694 186.247 204.34 184L205 184.405C203.339 186.675 201.526 188.894 199.61 191Z" fill="#A4B6B4"/>
<path d="M86.5238 88L86 87.5765C88.3665 85.5943 90.9051 83.7177 93.545 82L94 82.4739C91.383 84.1758 88.8674 86.0352 86.5238 88Z" fill="#BEBEBE"/>
<path d="M112.791 237C108.444 235.804 104.14 234.328 100 232.613L100.298 232C104.408 233.703 108.681 235.169 113 236.357L112.791 237Z" fill="#BEBEBE"/>
<path d="M48 174H47.0452C45.5064 170.597 44.2132 167.129 43.1773 163.62C41.0684 156.494 40 149.14 40 141.764C40 141.509 40.0023 141.255 40.0046 141L40.8945 141.005C40.8922 141.259 40.8899 141.51 40.8899 141.764C40.8899 152.886 43.3418 163.763 48 174Z" fill="#BEBEBE"/>
<path d="M56 194H55.2348C53.626 190.957 52.1502 187.827 50.8175 184.627C49.3791 181.168 48.1026 177.618 47 174H47.7021C49.8477 180.978 52.6273 187.679 56 194Z" fill="#A4B6B4"/>
<path d="M76.5426 218C72.4018 214.638 68.5358 210.952 65 207C65.3099 207 65.6216 207 65.9314 207C69.3086 210.732 73.0031 214.238 77 217.481L76.5426 218Z" fill="#A4B6B4"/>
<path d="M66 207C65.6858 207 65.3698 207 65.0556 207C63.883 205.723 62.746 204.417 61.6464 203.085C59.2489 200.179 57.0272 197.143 55 194C55.2786 194 55.5592 194 55.8397 194C58.815 198.572 62.2093 202.923 66 207Z" fill="#A4B6B4"/>
<path d="M93.6883 230C91.0665 228.777 88.4886 227.437 86 226H87.2399C89.4396 227.24 91.704 228.403 94 229.474L93.6883 230Z" fill="#BEBEBE"/>
<path d="M87 226H85.7622C85.1696 225.555 84.5822 225.101 84 224.64L84.3794 224C85.2413 224.682 86.1154 225.348 87 226Z" fill="#A4B6B4"/>
<path d="M141.655 243C134.006 243 126.383 242.13 119 240.415L119.157 239.727C126.489 241.432 134.059 242.294 141.655 242.294C161.253 242.294 179.55 236.568 194.978 226.692H196.344C191.39 229.939 186.141 232.751 180.714 235.062C174.659 237.64 168.32 239.62 161.878 240.948C155.267 242.309 148.463 243 141.655 243ZM217.799 207.777H216.815C228.006 194.839 235.959 179 239.399 161.539H240.12C240.069 161.807 240.015 162.076 239.962 162.344C238.643 168.83 236.675 175.21 234.115 181.306C231.599 187.291 228.487 193.065 224.863 198.465C222.693 201.696 220.331 204.809 217.799 207.777ZM241.998 142.623H241.297C241.299 142.41 241.299 142.2 241.299 141.987C241.299 128.939 238.847 116.246 234.012 104.265L234.661 104C239.53 116.066 242 128.847 242 141.987C242 142.199 241.998 142.412 241.998 142.623Z" fill="#BEBEBE"/>
<path d="M239.11 161H238C239.858 154.85 240.859 148.494 240.921 142H242C241.938 148.392 240.968 154.777 239.11 161Z" fill="#A4B6B4"/>
<path d="M195.377 226H194C202.221 220.755 209.635 214.344 216.008 207H217C215.327 208.954 213.581 210.844 211.77 212.663C207.194 217.254 202.157 221.421 196.804 225.052C196.331 225.372 195.856 225.688 195.377 226Z" fill="#A4B6B4"/>
<path d="M209.511 70C207.743 68.1403 205.89 66.3257 204 64.6097L204.45 64C206.353 65.7304 208.221 67.5573 210 69.4294L209.511 70Z" fill="#BEBEBE"/>
<path d="M51.6289 99L51 98.7047C51.1885 98.2983 51.3806 97.8936 51.5746 97.489H52.3485C52.1038 97.9902 51.8646 98.4951 51.6289 99ZM64.2256 78.7663C63.9918 78.748 63.7543 78.7389 63.5151 78.7389H63.332C64.2564 77.5742 65.2061 76.4296 66.1812 75.305C72.0681 68.5245 78.8232 62.5753 86.2706 57.6121H87.6843C78.8467 63.3371 70.9045 70.4675 64.2256 78.7663ZM197.603 59.4475C189.831 54.0104 181.423 49.7745 172.595 46.8053C172.555 46.541 172.502 46.2804 172.441 46.0252C178.683 48.0958 184.695 50.7842 190.404 54.0542C191.754 55.762 193.681 56.9887 195.881 57.4316C196.594 57.9019 197.3 58.383 198 58.8734L197.603 59.4475ZM124.648 43.118C124.501 42.8938 124.345 42.6751 124.18 42.4636C129.77 41.4939 135.466 41 141.212 41C142.419 41 143.624 41.0219 144.828 41.0656C144.578 41.2789 144.337 41.5031 144.11 41.7418C143.146 41.7127 142.18 41.6999 141.212 41.6999C135.608 41.6999 130.071 42.1829 124.648 43.118Z" fill="#BEBEBE"/>
<path d="M51.7953 98H51C54.3021 91.2474 58.353 84.8771 63.0818 79H63.2699C63.5157 79 63.7597 79.0092 64 79.0277C59.2749 84.8162 55.1663 91.1661 51.7953 98Z" fill="#A4B6B4"/>
<path d="M196 58C193.991 57.6066 192.233 56.517 191 55C192.696 55.9455 194.364 56.946 196 58Z" fill="#A4B6B4"/>
<path d="M87.4367 59H86C86.2781 58.8075 86.5562 58.615 86.8381 58.4263C98.3332 50.6294 111.132 45.4161 124.525 43C124.692 43.2233 124.851 43.4543 125 43.6911C111.528 46.1072 98.7587 51.3744 87.4367 59Z" fill="#A4B6B4"/>
<path d="M172 48C163.03 44.2588 153.617 42.1693 144 41.8247C144.223 41.5335 144.46 41.2601 144.706 41C153.642 41.3979 162.44 43.3007 170.906 46.6662C171.22 46.7907 171.535 46.9197 171.849 47.0486C171.909 47.3598 171.961 47.6777 172 48Z" fill="#A4B6B4"/>
<path d="M219 79H218.156C217.135 77.7818 216.084 76.5884 215 75.4231L215.489 75C216.698 76.3008 217.87 77.6347 219 79Z" fill="#BEBEBE"/>
<path d="M227.355 92C224.605 87.4528 221.469 83.096 218 79H218.955C222.298 82.9962 225.331 87.2309 228 91.6449L227.355 92Z" fill="#A4B6B4"/>
<path d="M46.6323 110H45C45.1778 109.668 45.3555 109.332 45.5373 109L47 109.315C46.8788 109.543 46.7535 109.772 46.6323 110Z" fill="#BEBEBE"/>
<path d="M42.8839 122L42 121.861C43.0343 117.859 44.3931 113.874 46.0503 110H47C45.3122 113.916 43.9299 117.951 42.8839 122Z" fill="#A4B6B4"/>
<path d="M124.096 20L124 19.2614C129.7 18.4257 135.529 18 141.325 18C142.557 18 143.792 18.0194 145 18.0583L144.978 18.8027C143.777 18.7639 142.549 18.7464 141.325 18.7464C135.562 18.7464 129.766 19.1681 124.096 20Z" fill="#BEBEBE"/>
<path d="M140.868 266C132.135 266 123.498 265.08 115.077 263.273H118.893C126.074 264.603 133.426 265.295 140.868 265.295C145.227 265.295 149.622 265.062 153.927 264.602L154 265.303C149.671 265.766 145.251 266 140.868 266ZM71.6264 244.594C63.844 239.27 56.6834 233.067 50.2813 226.103H51.2969C57.7592 233.023 64.9709 239.157 72.7697 244.399C72.3813 244.44 72.0002 244.506 71.6264 244.594ZM35.176 205.917C32.9167 202.16 30.8544 198.283 29 194.3L29.6327 194C31.4707 197.945 33.5002 201.761 35.7121 205.441C35.5425 205.606 35.3619 205.766 35.176 205.917Z" fill="#BEBEBE"/>
<path d="M119 263H115.205C100.655 259.842 86.7535 253.995 74.1449 245.648C73.4251 245.172 72.7107 244.689 72 244.196C72.3717 244.107 72.7507 244.041 73.1369 244C86.9058 253.37 102.504 259.907 119 263Z" fill="#A4B6B4"/>
<path d="M52 226H50.9416C50.0827 225.101 49.239 224.188 48.4067 223.263C43.8157 218.163 39.6675 212.724 36 207C36.2888 207 36.5777 207 36.8665 207C41.296 213.841 46.3734 220.197 52 226Z" fill="#A4B6B4"/>
<path d="M36 207C35.8267 207 35.6534 207 35.48 207C35.3181 206.519 35.1585 206.035 35 205.549C35.1163 205.375 35.2292 205.191 35.3352 205C35.5542 205.67 35.7754 206.336 36 207Z" fill="#A4B6B4"/>
<path d="M22.2081 174H21.4759C18.5011 163.404 17 152.45 17 141.289C17 136.116 17.3256 130.976 17.9713 125.891C18.1755 126.081 18.3871 126.262 18.606 126.434C18.0081 131.326 17.7064 136.282 17.7064 141.289C17.7064 152.452 19.2168 163.408 22.2081 174ZM20.9553 110.507C21.7611 107.443 22.6864 104.406 23.735 101.406C24.1416 100.239 24.5647 99.0823 25.0081 97.9305H25.7274C24.171 101.958 22.8354 106.063 21.7279 110.238C21.4649 110.317 21.2073 110.406 20.9553 110.507ZM35.3102 78.5591C35.1667 78.3671 34.9993 78.1951 34.8116 78.0466C35.4261 77.0434 36.0553 76.051 36.6991 75.064C36.8905 75.1962 37.0763 75.3393 37.251 75.4914C36.5888 76.5055 35.9412 77.5287 35.3102 78.5591ZM37.7091 74.796C37.5307 74.6475 37.3449 74.5063 37.1517 74.3741C38.8185 71.8605 40.5827 69.3995 42.4389 67L43 67.4201C41.1364 69.8268 39.3722 72.2879 37.7091 74.796Z" fill="#BEBEBE"/>
<path d="M25.7467 98H25C26.5259 94.1915 28.2504 90.4622 30.1697 86.8247C30.3856 86.9184 30.6052 87.0048 30.8286 87.0786C28.9399 90.6441 27.244 94.2887 25.7467 98ZM31.222 86.3439C30.9948 86.2719 30.7732 86.1891 30.5593 86.0954C31.117 85.0564 31.6899 84.0246 32.28 83C32.5092 83.081 32.7498 83.1369 33 83.1621C32.3908 84.2155 31.7969 85.2761 31.222 86.3439Z" fill="#A4B6B4"/>
<path d="M18.6758 127C18.4427 126.819 18.2174 126.629 18 126.43C18.7032 120.98 19.7649 115.59 21.1773 110.283C21.4456 110.177 21.7199 110.084 22 110C20.5015 115.561 19.3888 121.237 18.6758 127Z" fill="#A4B6B4"/>
<path d="M26.3434 188C24.654 183.405 23.2062 178.735 22 174H22.7341C23.9218 178.637 25.3456 183.213 27 187.716L26.3434 188Z" fill="#A4B6B4"/>
<path d="M30.6576 87C30.4346 86.9232 30.2154 86.8333 30 86.736C30.1296 86.4832 30.2573 86.2304 30.3889 85.9777C30.6023 86.075 30.8234 86.1612 31.0503 86.2361C30.9187 86.4907 30.7891 86.7435 30.6576 87ZM37.5254 75.1553C37.3443 74.998 37.1518 74.8501 36.9535 74.7134C37.1098 74.4756 37.2662 74.2378 37.4225 74C37.6226 74.1367 37.8151 74.2827 38 74.4363C37.8399 74.6759 37.6836 74.9156 37.5254 75.1553Z" fill="#BD726E"/>
<path d="M32.6325 83C32.4127 82.9745 32.2013 82.9179 32 82.8358C32.8138 81.2044 33.6627 79.5912 34.5453 78C34.7164 78.1496 34.8691 78.323 35 78.5164C34.1812 79.9963 33.3926 81.4891 32.6325 83Z" fill="#BD726E"/>
<path d="M47.5267 63L47 62.5407C48.2871 60.9681 49.612 59.4308 50.9693 57.9287C51.203 58.0232 51.4403 58.1065 51.6812 58.1806C50.261 59.7457 48.875 61.3515 47.5267 63ZM73.0251 39.5179H71.8224C72.3438 39.153 72.8687 38.7918 73.3954 38.4362C76.8146 36.1265 80.3345 34.0002 83.9424 32.0647L84.444 32.5814C80.516 34.6762 76.7032 36.9915 73.0251 39.5179ZM85.2062 32.1776L84.7028 31.659C86.6102 30.6533 88.5427 29.7012 90.4986 28.8011L91.0145 29.3327C89.0514 30.2291 87.1153 31.1774 85.2062 32.1776ZM91.8145 28.9715L91.2968 28.438C96.0121 26.3099 100.857 24.4947 105.808 23L106 23.6816C101.146 25.1467 96.413 26.9137 91.8145 28.9715Z" fill="#BEBEBE"/>
<path d="M51.7101 58C51.4698 57.9246 51.2331 57.8397 51 57.7436C57.2437 50.693 64.2154 44.4081 71.8004 39H73C65.2752 44.4138 58.1313 50.7779 51.7101 58Z" fill="#A4B6B4"/>
<path d="M84.5097 32L84 31.5011C84.2576 31.3688 84.5152 31.2401 84.7728 31.1095L85.2843 31.6102C85.0249 31.739 84.7673 31.8695 84.5097 32ZM91.187 28.8637L90.6627 28.3505C90.9331 28.2324 91.2035 28.1162 91.4739 28L92 28.515C91.7296 28.6294 91.4574 28.7474 91.187 28.8637Z" fill="#BD726E"/>
<path d="M177.201 260L177 259.33C197.83 253.011 216.292 241.224 230.779 225.677H231.766C231.418 226.055 231.066 226.431 230.714 226.805C223.443 234.496 215.22 241.224 206.27 246.801C197.184 252.464 187.404 256.905 177.201 260ZM246.023 206.905H245.18C247.896 202.557 250.347 198.033 252.514 193.349H253.292C252.072 196.007 250.759 198.626 249.35 201.195C248.293 203.13 247.183 205.033 246.023 206.905ZM260.117 174.577H259.395C259.724 173.391 260.032 172.199 260.324 171L261 171.166C260.721 172.308 260.427 173.443 260.117 174.577Z" fill="#BEBEBE"/>
<path d="M253.716 194H253C255.561 187.592 257.688 180.902 259.336 174H260C258.376 180.851 256.274 187.541 253.716 194Z" fill="#A4B6B4"/>
<path d="M231.035 226H230C235.641 220.162 240.709 213.797 245.115 207H246C241.653 213.771 236.64 220.138 231.035 226Z" fill="#A4B6B4"/>
<path d="M264.998 142H264.292C264.292 141.79 264.292 141.578 264.292 141.368C264.292 125.851 261.335 110.843 255.894 96.9603C256.133 96.8653 256.367 96.7612 256.596 96.6479C257.12 97.985 257.619 99.3331 258.096 100.69C262.677 113.738 265 127.423 265 141.368C265 141.578 265 141.79 264.998 142ZM247.914 78.8417H247.012C244.747 75.0441 242.28 71.3707 239.624 67.838H240.575C243.224 71.3853 245.672 75.0569 247.914 78.8417ZM239.952 67.0105H238.995C237.996 65.7045 236.973 64.4203 235.922 63.1545L236.258 62.38C237.17 63.4686 238.063 64.5738 238.94 65.6953C239.279 66.1319 239.617 66.5703 239.952 67.0105ZM235.323 62.4384C233.954 60.8127 232.543 59.2235 231.091 57.669H232.107C233.319 58.9769 234.501 60.3085 235.659 61.6694L235.323 62.4384ZM210.13 38.8783H208.86C198.055 31.7379 186.001 26.205 173 22.6759L173.186 22C186.25 25.5474 198.59 31.1643 209.859 38.6974C209.949 38.7559 210.039 38.818 210.13 38.8783Z" fill="#BEBEBE"/>
<path d="M256.267 97C253.695 90.752 250.591 84.7344 247 79H247.941C251.459 84.6564 254.486 90.5651 257 96.6897C256.761 96.8022 256.517 96.9056 256.267 97Z" fill="#A4B6B4"/>
<path d="M232 59H230.995C224.455 51.474 217.081 44.7471 209 39H210.257C218.228 44.7626 225.511 51.4643 232 59Z" fill="#A4B6B4"/>
<path d="M263.728 159L263 158.902C263.649 154.449 264.05 149.92 264.201 145.387C264.429 145.513 264.669 145.639 264.923 145.757C264.762 150.199 264.362 154.638 263.728 159ZM264.952 144.83C264.73 144.715 264.513 144.595 264.301 144.475C264.276 144.46 264.253 144.447 264.228 144.434C264.249 143.623 264.261 142.811 264.266 142H265C264.994 142.942 264.979 143.886 264.952 144.83Z" fill="#A4B6B4"/>
<path d="M264.962 146C264.622 145.91 264.304 145.815 264 145.72C264.013 145.48 264.025 145.239 264.036 145C264.069 145.01 264.099 145.02 264.133 145.031C264.416 145.122 264.704 145.213 265 145.299C264.99 145.533 264.974 145.766 264.962 146Z" fill="#BD726E"/>
<path d="M235.641 64C235.43 63.6777 235.215 63.3555 235 63.0357L235.359 62C235.572 62.3173 235.787 62.6371 236 62.9569L235.641 64Z" fill="#BD726E"/>
<path d="M241 69H239.194C238.798 68.6667 238.399 68.3311 238 68H239.817C240.212 68.3311 240.604 68.6645 241 69Z" fill="#BD726E"/>
<path d="M164.863 21C160.964 20.3679 156.971 19.8858 153 19.5668L153.069 19C157.062 19.322 161.077 19.8071 165 20.4421L164.863 21Z" fill="#BEBEBE"/>
<path d="M80.2417 250.9H82.7602C82.5449 250.429 82.0605 250.1 81.5 250.1C80.9395 250.1 80.4569 250.429 80.2417 250.9ZM83.4395 252H79.5624C79.2524 252 79 251.753 79 251.449C79 250.1 80.1228 249 81.5 249C82.879 249 84 250.1 84 251.449C84 251.753 83.7494 252 83.4395 252Z" fill="#FE665E"/>
<path d="M80.2417 250.9H82.7602C82.5449 250.429 82.0605 250.1 81.5 250.1C80.9395 250.1 80.4569 250.429 80.2417 250.9ZM83.4395 252H79.5624C79.2524 252 79 251.753 79 251.449C79 250.1 80.1228 249 81.5 249C82.879 249 84 250.1 84 251.449C84 251.753 83.7494 252 83.4395 252Z" fill="#FE665E"/>
<path d="M77.0889 250.856H84.9129C84.6551 248.763 82.9983 247.144 81 247.144C79.0017 247.144 77.3467 248.763 77.0889 250.856ZM85.4739 252H76.5279C76.2369 252 76 251.743 76 251.427C76 248.436 78.2439 246 81 246C83.7578 246 86 248.436 86 251.427C86 251.743 85.7648 252 85.4739 252Z" fill="#FE665E"/>
<path d="M74.1283 250.834H87.8698C87.5878 247.107 84.6149 244.164 80.9991 244.164C77.3851 244.164 74.4122 247.107 74.1283 250.834ZM88.4468 252H73.5532C73.2473 252 73 251.738 73 251.416C73 246.775 76.5883 243 80.9991 243C85.4117 243 89 246.775 89 251.416C89 251.738 88.7509 252 88.4468 252Z" fill="#FE665E"/>
<path d="M72.1025 250.719H90.8975C90.6151 244.907 86.509 240.279 81.5 240.279C76.4928 240.279 72.3867 244.907 72.1025 250.719ZM91.4568 252H71.5449C71.2446 252 71 251.712 71 251.358C71 244.543 75.7104 239 81.5 239C87.2896 239 92 244.543 92 251.358C92 251.712 91.7572 252 91.4568 252Z" fill="#FE665E"/>
<path d="M204.242 186.099C204.457 186.57 204.939 186.899 205.5 186.899C206.061 186.899 206.543 186.57 206.758 186.099H204.242ZM205.5 188C204.121 188 203 186.899 203 185.549C203 185.246 203.252 185 203.56 185H207.44C207.749 185 208 185.246 208 185.549C208 186.899 206.879 188 205.5 188Z" fill="#FE665E"/>
<path d="M204.242 186.099C204.457 186.57 204.939 186.899 205.5 186.899C206.061 186.899 206.543 186.57 206.758 186.099H204.242ZM205.5 188C204.121 188 203 186.899 203 185.549C203 185.246 203.252 185 203.56 185H207.44C207.749 185 208 185.246 208 185.549C208 186.899 206.879 188 205.5 188Z" fill="#FE665E"/>
<path d="M201.198 185.952C201.481 187.697 203.302 189.046 205.5 189.046C207.698 189.046 209.521 187.697 209.804 185.952H201.198ZM205.5 190C202.468 190 200 187.97 200 185.476C200 185.213 200.259 185 200.579 185H210.421C210.741 185 211 185.213 211 185.476C211 187.97 208.534 190 205.5 190Z" fill="#FE665E"/>
<path d="M199.058 186.035C199.322 189.349 202.111 191.965 205.499 191.965C208.887 191.965 211.676 189.349 211.94 186.035H199.058ZM205.499 193C201.364 193 198 189.643 198 185.517C198 185.231 198.232 185 198.519 185H212.48C212.766 185 213 185.231 213 185.517C213 189.643 209.634 193 205.499 193Z" fill="#FE665E"/>
<path d="M196.103 186.082C196.385 191.002 200.493 194.916 205.5 194.916C210.507 194.916 214.615 191.002 214.897 186.082H196.103ZM205.5 196C199.71 196 195 191.308 195 185.541C195 185.242 195.245 185 195.543 185H215.457C215.757 185 216 185.242 216 185.541C216 191.308 211.29 196 205.5 196Z" fill="#FE665E"/>
<path d="M63 217H33V179H63V217Z" fill="white"/>
<path d="M32.4927 216.533H62.5073V179.466H32.4927V216.533ZM62.7527 217H32.2473C32.1105 217 32 216.896 32 216.766V179.234C32 179.104 32.1105 179 32.2473 179H62.7527C62.8895 179 63 179.104 63 179.234V216.766C63 216.896 62.8895 217 62.7527 217Z" fill="#664D49"/>
<path d="M57 199.407L53.1638 204L50 198.914C50.9165 198.334 52.0015 198 53.1638 198C54.6245 198 55.9624 198.529 57 199.407Z" fill="#FE665E"/>
<path d="M50.5917 199.135L53.6679 203.418L57.4011 199.552C56.3281 198.828 55.0027 198.431 53.6397 198.431C52.5647 198.431 51.5161 198.674 50.5917 199.135ZM53.6397 204L53.6208 203.998C53.5418 203.993 53.4703 203.957 53.4288 203.898L50.0383 199.178C49.9648 199.078 50.0006 198.945 50.1154 198.881C51.1697 198.305 52.3877 198 53.6397 198C55.2004 198 56.7177 198.482 57.9113 199.358C58.0167 199.434 58.0299 199.57 57.9414 199.662L53.8279 203.923C53.7809 203.972 53.7112 204 53.6397 204Z" fill="#664D49"/>
<path d="M60 205H54L57.8616 200C59.1694 201.197 60 202.993 60 205Z" fill="#FEDADA"/>
<path d="M54.6803 204.54H59.5653C59.5079 203.016 58.8829 201.586 57.8232 200.557L54.6803 204.54ZM59.7851 205H54.216C54.1324 205 54.0553 204.949 54.0208 204.867C53.9847 204.787 53.9962 204.691 54.0503 204.622L57.6346 200.081C57.6723 200.034 57.7248 200.006 57.7822 200.001C57.838 199.996 57.8954 200.015 57.9397 200.053C59.2487 201.228 60 202.948 60 204.771C60 204.897 59.9032 205 59.7851 205Z" fill="#664D49"/>
<path d="M49.8656 200.579C48.3477 201.699 47.4475 203.53 47.4475 205.526C47.4475 208.829 49.9388 211.517 53 211.517C55.9864 211.517 58.43 208.959 58.5474 205.766H53C52.9234 205.766 52.8503 205.724 52.8094 205.654L49.8656 200.579ZM53 212C49.692 212 47 209.095 47 205.526C47 203.282 48.0516 201.231 49.8162 200.038C49.8656 200.003 49.9268 199.992 49.9847 200.006C50.0425 200.021 50.0919 200.06 50.1242 200.115L53.1242 205.283H58.7771C58.8996 205.283 59 205.392 59 205.526C59 209.095 56.308 212 53 212Z" fill="#664D49"/>
<path d="M43.7638 200H36.2344C36.1056 200 36 199.776 36 199.502C36 199.224 36.1056 199 36.2344 199H43.7638C43.8944 199 44 199.224 44 199.502C44 199.776 43.8944 200 43.7638 200Z" fill="#664D49"/>
<path d="M43.7638 202H36.2344C36.1056 202 36 201.776 36 201.502C36 201.224 36.1056 201 36.2344 201H43.7638C43.8944 201 44 201.224 44 201.502C44 201.776 43.8944 202 43.7638 202Z" fill="#664D49"/>
<path d="M43.7638 204H36.2344C36.1056 204 36 203.776 36 203.502C36 203.224 36.1056 203 36.2344 203H43.7638C43.8944 203 44 203.224 44 203.502C44 203.776 43.8944 204 43.7638 204Z" fill="#664D49"/>
<path d="M43.7638 206H36.2344C36.1056 206 36 205.777 36 205.5C36 205.223 36.1056 205 36.2344 205H43.7638C43.8944 205 44 205.223 44 205.5C44 205.777 43.8944 206 43.7638 206Z" fill="#664D49"/>
<path d="M43.7638 208H36.2344C36.1056 208 36 207.776 36 207.498C36 207.221 36.1056 207 36.2344 207H43.7638C43.8944 207 44 207.221 44 207.498C44 207.776 43.8944 208 43.7638 208Z" fill="#664D49"/>
<path d="M38 194H36V188H38V194Z" fill="#FEDADA"/>
<path d="M40 194H38V186H40V194Z" fill="#FE665E"/>
<path d="M42 194H40V187H42V194Z" fill="#FEDADA"/>
<path d="M44 194H42V189H44V194Z" fill="#FE665E"/>
<path d="M47 194H44V188H47V194Z" fill="#FEDADA"/>
<path d="M49 194H47V186H49V194Z" fill="#FE665E"/>
<path d="M52 194H49V184H52V194Z" fill="#FEDADA"/>
<path d="M54 194H52V183H54V194Z" fill="#FE665E"/>
<path d="M56 194H54V187H56V194Z" fill="#FEDADA"/>
<path d="M58 194H56V185H58V194Z" fill="#FE665E"/>
<path d="M60 194H58V188H60V194Z" fill="#FEDADA"/>
<path d="M113 216.001C113 224.838 105.836 232 97 232C88.1638 232 81 224.838 81 216.001C81 207.164 88.1638 200 97 200C105.836 200 113 207.164 113 216.001Z" fill="#FE665E"/>
<path d="M97 200.396C88.3968 200.396 81.3961 207.397 81.3961 216.001C81.3961 224.605 88.3968 231.604 97 231.604C105.603 231.604 112.604 224.605 112.604 216.001C112.604 207.397 105.603 200.396 97 200.396ZM97 232C88.1787 232 81 224.823 81 216.001C81 207.177 88.1787 200 97 200C105.821 200 113 207.177 113 216.001C113 224.823 105.821 232 97 232Z" fill="#664D49"/>
<path d="M93.7975 221C93.5963 221 93.3951 220.922 93.2397 220.768C92.9251 220.455 92.9196 219.942 93.2268 219.62C94.2328 218.575 95.579 218 97.0166 218C98.4341 218 99.7656 218.562 100.766 219.579C101.079 219.897 101.077 220.41 100.766 220.727C100.455 221.043 99.9503 221.043 99.6376 220.727C98.9389 220.014 98.0079 219.622 97.0166 219.622C96.0125 219.622 95.0705 220.025 94.3682 220.754C94.2109 220.918 94.0042 221 93.7975 221Z" fill="#FEDADA"/>
<path d="M89.8186 217C89.6102 217 89.4018 216.915 89.2422 216.745C88.9211 216.403 88.9193 215.843 89.2366 215.497C91.3093 213.242 94.0729 212 97.0167 212C99.9417 212 102.692 213.226 104.759 215.456C105.08 215.8 105.08 216.359 104.759 216.705C104.44 217.049 103.922 217.049 103.603 216.705C101.844 214.809 99.5043 213.764 97.0167 213.764C94.5141 213.764 92.1635 214.821 90.4006 216.739C90.241 216.913 90.0289 217 89.8186 217Z" fill="#FEDADA"/>
<path d="M86.7697 213C86.5737 213 86.3777 212.922 86.2276 212.768C85.9256 212.458 85.9238 211.954 86.224 211.642C89.1025 208.648 92.9346 207 97.0156 207C101.081 207 104.9 208.636 107.774 211.605C108.075 211.918 108.075 212.421 107.774 212.732C107.473 213.042 106.986 213.042 106.684 212.732C104.102 210.063 100.669 208.592 97.0156 208.592C93.3478 208.592 89.9025 210.074 87.3172 212.765C87.1653 212.922 86.9675 213 86.7697 213Z" fill="#FEDADA"/>
<path d="M99 224.501C99 225.328 98.1046 226 96.9989 226C95.8954 226 95 225.328 95 224.501C95 223.672 95.8954 223 96.9989 223C98.1046 223 99 223.672 99 224.501Z" fill="#FEDADA"/>
<path d="M47 116C47 124.837 39.6123 132 30.4991 132C21.3878 132 14 124.837 14 116C14 107.163 21.3878 100 30.4991 100C39.6123 100 47 107.163 47 116Z" fill="#FEDADA"/>
<path d="M30.4991 100.406C21.6244 100.406 14.4056 107.626 14.4056 116.5C14.4056 125.374 21.6244 132.594 30.4991 132.594C39.3737 132.594 46.5944 125.374 46.5944 116.5C46.5944 107.626 39.3737 100.406 30.4991 100.406ZM30.4991 133C21.4011 133 14 125.597 14 116.5C14 107.403 21.4011 100 30.4991 100C39.5989 100 47 107.403 47 116.5C47 125.597 39.5989 133 30.4991 133Z" fill="#664D49"/>
<path d="M29.9991 100.406C25.257 100.406 21.399 107.626 21.399 116.5C21.399 125.374 25.257 132.594 29.9991 132.594C34.7429 132.594 38.601 125.374 38.601 116.5C38.601 107.626 34.7429 100.406 29.9991 100.406ZM29.9991 133C27.5741 133 25.301 131.266 23.6025 128.12C21.9242 125.013 21 120.887 21 116.5C21 112.113 21.9242 107.987 23.6025 104.878C25.301 101.732 27.5741 100 29.9991 100C32.4259 100 34.699 101.732 36.3974 104.878C38.0757 107.987 39 112.113 39 116.5C39 120.887 38.0757 125.013 36.3974 128.12C34.699 131.266 32.4259 133 29.9991 133Z" fill="#664D49"/>
<path d="M30.0009 109C25.8659 109 21.9787 107.343 19.0563 104.334C18.9812 104.257 18.9812 104.133 19.0563 104.058C19.1295 103.981 19.2499 103.981 19.3249 104.058C22.1758 106.993 25.9671 108.609 30.0009 108.609C34.0329 108.609 37.8242 106.993 40.675 104.058C40.7501 103.981 40.8705 103.981 40.9437 104.058C41.0188 104.133 41.0188 104.257 40.9437 104.334C38.0213 107.343 34.1341 109 30.0009 109Z" fill="#664D49"/>
<path d="M40.8094 128C40.7605 128 40.7117 127.98 40.675 127.942C37.8242 125.008 34.0329 123.393 30.0009 123.393C25.9671 123.393 22.1758 125.008 19.3249 127.942C19.2499 128.019 19.1295 128.019 19.0563 127.942C18.9812 127.865 18.9812 127.741 19.0563 127.666C21.9787 124.658 25.8659 123 30.0009 123C34.1341 123 38.0213 124.658 40.9437 127.666C41.0188 127.741 41.0188 127.865 40.9437 127.942C40.9071 127.98 40.8582 128 40.8094 128Z" fill="#664D49"/>
<path d="M46.7972 117H14.2028C14.0912 117 14 116.775 14 116.5C14 116.225 14.0912 116 14.2028 116H46.7972C46.9088 116 47 116.225 47 116.5C47 116.775 46.9088 117 46.7972 117Z" fill="#664D49"/>
<path d="M245 217H235V208H245V217Z" fill="#FE665E"/>
<path d="M235.437 216.602H245.563V207.398H235.437V216.602ZM245.781 217H235.219C235.098 217 235 216.911 235 216.801V207.199C235 207.089 235.098 207 235.219 207H245.781C245.902 207 246 207.089 246 207.199V216.801C246 216.911 245.902 217 245.781 217Z" fill="#664D49"/>
<path d="M244 215H237V209H244V215Z" fill="white"/>
<path d="M236.471 215.588H243.529V209.412H236.471V215.588ZM243.765 216H236.235C236.106 216 236 215.907 236 215.794V209.206C236 209.093 236.106 209 236.235 209H243.765C243.894 209 244 209.093 244 209.206V215.794C244 215.907 243.894 216 243.765 216Z" fill="#664D49"/>
<path d="M227 211C227 211.552 226.552 212 226.001 212C225.448 212 225 211.552 225 211C225 210.447 225.448 210 226.001 210C226.552 210 227 210.447 227 211Z" fill="#FEDADA"/>
<path d="M226.001 210.418C225.602 210.418 225.278 210.902 225.278 211.5C225.278 212.096 225.602 212.582 226.001 212.582C226.398 212.582 226.722 212.096 226.722 211.5C226.722 210.902 226.398 210.418 226.001 210.418ZM226.001 213C225.449 213 225 212.328 225 211.5C225 210.672 225.449 210 226.001 210C226.551 210 227 210.672 227 211.5C227 212.328 226.551 213 226.001 213Z" fill="#664D49"/>
<path d="M235 199.5C235 200.33 234.552 201 234 201C233.448 201 233 200.33 233 199.5C233 198.672 233.448 198 234 198C234.552 198 235 198.672 235 199.5Z" fill="#FEDADA"/>
<path d="M234.5 198.418C233.902 198.418 233.418 198.904 233.418 199.5C233.418 200.098 233.902 200.582 234.5 200.582C235.096 200.582 235.582 200.098 235.582 199.5C235.582 198.904 235.096 198.418 234.5 198.418ZM234.5 201C233.672 201 233 200.328 233 199.5C233 198.672 233.672 198 234.5 198C235.328 198 236 198.672 236 199.5C236 200.328 235.328 201 234.5 201Z" fill="#664D49"/>
<path d="M228 205C228 205.552 227.552 206 227.001 206C226.448 206 226 205.552 226 205C226 204.448 226.448 204 227.001 204C227.552 204 228 204.448 228 205Z" fill="#FE665E"/>
<path d="M227.001 204.378C226.657 204.378 226.379 204.658 226.379 205C226.379 205.342 226.657 205.622 227.001 205.622C227.343 205.622 227.621 205.342 227.621 205C227.621 204.658 227.343 204.378 227.001 204.378ZM227.001 206C226.448 206 226 205.552 226 205C226 204.45 226.448 204 227.001 204C227.552 204 228 204.45 228 205C228 205.552 227.552 206 227.001 206Z" fill="#664D49"/>
<path d="M244.001 196.378C243.657 196.378 243.379 196.658 243.379 197C243.379 197.342 243.657 197.622 244.001 197.622C244.343 197.622 244.621 197.342 244.621 197C244.621 196.658 244.343 196.378 244.001 196.378ZM244.001 198C243.448 198 243 197.55 243 197C243 196.448 243.448 196 244.001 196C244.552 196 245 196.448 245 197C245 197.55 244.552 198 244.001 198Z" fill="#664D49"/>
<path d="M229 213.378C228.658 213.378 228.378 213.658 228.378 214C228.378 214.342 228.658 214.622 229 214.622C229.342 214.622 229.622 214.342 229.622 214C229.622 213.658 229.342 213.378 229 213.378ZM229 215C228.448 215 228 214.55 228 214C228 213.45 228.448 213 229 213C229.55 213 230 213.45 230 214C230 214.55 229.55 215 229 215Z" fill="#664D49"/>
<path d="M234.809 214H230.191C230.086 214 230 213.775 230 213.5C230 213.225 230.086 213 230.191 213H234.809C234.914 213 235 213.225 235 213.5C235 213.775 234.914 214 234.809 214Z" fill="#664D49"/>
<path d="M243.001 204C242.448 204 242 203.554 242 203.001C242 202.448 242.448 202 243.001 202C243.554 202 244 202.448 244 203.001C244 203.554 243.554 204 243.001 204Z" fill="#FE665E"/>
<path d="M243 202.379C242.658 202.379 242.378 202.659 242.378 203.001C242.378 203.343 242.658 203.621 243 203.621C243.342 203.621 243.62 203.343 243.62 203.001C243.62 202.659 243.342 202.379 243 202.379ZM243 204C242.448 204 242 203.552 242 203.001C242 202.448 242.448 202 243 202C243.55 202 244 202.448 244 203.001C244 203.552 243.55 204 243 204Z" fill="#664D49"/>
<path d="M242.5 208C242.225 208 242 207.909 242 207.797V204.203C242 204.091 242.225 204 242.5 204C242.775 204 243 204.091 243 204.203V207.797C243 207.909 242.775 208 242.5 208Z" fill="#664D49"/>
<path d="M234.82 209H231.173C231.125 209 231.079 208.982 231.046 208.953L228.052 206.274C227.983 206.212 227.983 206.11 228.052 206.047C228.123 205.984 228.237 205.984 228.308 206.047L231.247 208.677H234.82C234.919 208.677 235 208.75 235 208.839C235 208.927 234.919 209 234.82 209Z" fill="#664D49"/>
<path d="M229 218.5C229 217.671 228.552 217 227.999 217C227.446 217 227 217.671 227 218.5C227 219.329 227.446 220 227.999 220C228.552 220 229 219.329 229 218.5Z" fill="#FE665E"/>
<path d="M227.499 217.466C226.929 217.466 226.467 217.931 226.467 218.5C226.467 219.069 226.929 219.534 227.499 219.534C228.069 219.534 228.533 219.069 228.533 218.5C228.533 217.931 228.069 217.466 227.499 217.466ZM227.499 220C226.672 220 226 219.326 226 218.5C226 217.674 226.672 217 227.499 217C228.328 217 229 217.674 229 218.5C229 219.326 228.328 220 227.499 220Z" fill="#664D49"/>
<path d="M229.179 218C229.133 218 229.087 217.979 229.052 217.933C228.983 217.845 228.983 217.701 229.052 217.611L231.059 215.067C231.092 215.025 231.138 215 231.186 215H234.82C234.919 215 235 215.102 235 215.228C235 215.353 234.919 215.455 234.82 215.455H231.26L229.306 217.933C229.271 217.979 229.225 218 229.179 218Z" fill="#664D49"/>
<path d="M239.999 225.278C239.205 225.278 238.556 225.602 238.556 225.999C238.556 226.398 239.205 226.722 239.999 226.722C240.795 226.722 241.444 226.398 241.444 225.999C241.444 225.602 240.795 225.278 239.999 225.278ZM239.999 227C238.898 227 238 226.551 238 225.999C238 225.448 238.898 225 239.999 225C241.101 225 242 225.448 242 225.999C242 226.551 241.101 227 239.999 227Z" fill="#664D49"/>
<path d="M233.5 224C233.776 224 234 224.448 234 224.999C234 225.552 233.776 226 233.5 226C233.224 226 233 225.552 233 224.999C233 224.448 233.224 224 233.5 224Z" fill="#FEDADA"/>
<path d="M234 224.379C233.658 224.379 233.378 224.657 233.378 224.999C233.378 225.343 233.658 225.621 234 225.621C234.342 225.621 234.62 225.343 234.62 224.999C234.62 224.657 234.342 224.379 234 224.379ZM234 226C233.448 226 233 225.552 233 224.999C233 224.448 233.448 224 234 224C234.55 224 235 224.448 235 224.999C235 225.552 234.55 226 234 226Z" fill="#664D49"/>
<path d="M234.215 224C234.16 224 234.105 223.983 234.064 223.947C233.979 223.878 233.979 223.763 234.064 223.692L237.57 220.753V217.18C237.57 217.081 237.665 217 237.785 217C237.903 217 238 217.081 238 217.18V220.828C238 220.875 237.976 220.92 237.937 220.955L234.367 223.947C234.326 223.983 234.271 224 234.215 224Z" fill="#664D49"/>
<path d="M246.001 223C245.448 223 245 223.448 245 224.001C245 224.552 245.448 225 246.001 225C246.552 225 247 224.552 247 224.001C247 223.448 246.552 223 246.001 223Z" fill="#FE665E"/>
<path d="M246.001 223.467C245.621 223.467 245.311 223.931 245.311 224.501C245.311 225.071 245.621 225.533 246.001 225.533C246.38 225.533 246.689 225.071 246.689 224.501C246.689 223.931 246.38 223.467 246.001 223.467ZM246.001 226C245.448 226 245 225.328 245 224.501C245 223.672 245.448 223 246.001 223C246.552 223 247 223.672 247 224.501C247 225.328 246.552 226 246.001 226Z" fill="#664D49"/>
<path d="M244.848 223C244.809 223 244.77 222.982 244.741 222.947L243.045 220.94C243.015 220.906 243 220.861 243 220.813V217.18C243 217.081 243.068 217 243.152 217C243.235 217 243.304 217.081 243.304 217.18V220.739L244.955 222.693C245.015 222.763 245.015 222.876 244.955 222.947C244.926 222.982 244.887 223 244.848 223Z" fill="#664D49"/>
<path d="M241.137 208C241.062 208 241 207.913 241 207.807V200.611C241 200.56 241.014 200.51 241.04 200.475L242.765 198.057C242.819 197.981 242.906 197.981 242.959 198.057C243.014 198.131 243.014 198.253 242.959 198.329L241.275 200.69V207.807C241.275 207.913 241.213 208 241.137 208Z" fill="#664D49"/>
<path d="M250.999 206C250.448 206 250 206.448 250 207C250 207.552 250.448 208 250.999 208C251.552 208 252 207.552 252 207C252 206.448 251.552 206 250.999 206Z" fill="#FEDADA"/>
<path d="M250.999 206.378C250.657 206.378 250.379 206.658 250.379 207C250.379 207.342 250.657 207.622 250.999 207.622C251.343 207.622 251.621 207.342 251.621 207C251.621 206.658 251.343 206.378 250.999 206.378ZM250.999 208C250.448 208 250 207.55 250 207C250 206.448 250.448 206 250.999 206C251.552 206 252 206.448 252 207C252 207.55 251.552 208 250.999 208Z" fill="#664D49"/>
<path d="M249.447 209H245.218C245.098 209 245 208.946 245 208.878C245 208.811 245.098 208.756 245.218 208.756H249.357L250.626 208.036C250.712 207.988 250.85 207.988 250.936 208.035C251.02 208.083 251.022 208.161 250.936 208.209L249.603 208.964C249.561 208.988 249.505 209 249.447 209Z" fill="#664D49"/>
<path d="M237.807 208C237.7 208 237.614 207.913 237.614 207.806V203.903L235.057 201.333C234.981 201.256 234.981 201.133 235.057 201.056C235.133 200.981 235.256 200.981 235.33 201.056L237.943 203.685C237.979 203.721 238 203.771 238 203.823V207.806C238 207.913 237.913 208 237.807 208Z" fill="#664D49"/>
<path d="M255 207C254.448 207 254 206.552 254 206C254 205.448 254.448 205 255 205C255.552 205 256 205.448 256 206C256 206.552 255.552 207 255 207Z" fill="#FE665E"/>
<path d="M254.5 204.418C253.902 204.418 253.418 204.902 253.418 205.5C253.418 206.096 253.902 206.582 254.5 206.582C255.098 206.582 255.582 206.096 255.582 205.5C255.582 204.902 255.098 204.418 254.5 204.418ZM254.5 207C253.672 207 253 206.328 253 205.5C253 204.672 253.672 204 254.5 204C255.328 204 256 204.672 256 205.5C256 206.328 255.328 207 254.5 207Z" fill="#664D49"/>
<path d="M256 217C255.448 217 255 216.776 255 216.501C255 216.224 255.448 216 256 216C256.552 216 257 216.224 257 216.501C257 216.776 256.552 217 256 217Z" fill="#FEDADA"/>
<path d="M256 216.379C255.658 216.379 255.378 216.657 255.378 217.001C255.378 217.343 255.658 217.621 256 217.621C256.342 217.621 256.622 217.343 256.622 217.001C256.622 216.657 256.342 216.379 256 216.379ZM256 218C255.45 218 255 217.552 255 217.001C255 216.448 255.45 216 256 216C256.55 216 257 216.448 257 217.001C257 217.552 256.55 218 256 218Z" fill="#664D49"/>
<path d="M249 215.001C249 214.448 249.448 214 250 214C250.552 214 251 214.448 251 215.001C251 215.552 250.552 216 250 216C249.448 216 249 215.552 249 215.001Z" fill="#FE665E"/>
<path d="M250 214.379C249.658 214.379 249.38 214.657 249.38 215.001C249.38 215.343 249.658 215.621 250 215.621C250.342 215.621 250.622 215.343 250.622 215.001C250.622 214.657 250.342 214.379 250 214.379ZM250 216C249.45 216 249 215.552 249 215.001C249 214.448 249.45 214 250 214C250.552 214 251 214.448 251 215.001C251 215.552 250.552 216 250 216Z" fill="#664D49"/>
<path d="M254.807 216C254.757 216 254.708 215.979 254.671 215.939L252.31 213.412H245.193C245.087 213.412 245 213.32 245 213.206C245 213.093 245.087 213 245.193 213H252.389C252.44 213 252.49 213.021 252.525 213.061L254.943 215.648C255.019 215.728 255.019 215.858 254.943 215.939C254.906 215.979 254.856 216 254.807 216Z" fill="#664D49"/>
<path d="M249.448 211H245.207C245.093 211 245 210.922 245 210.826C245 210.73 245.093 210.652 245.207 210.652H249.362L253.646 207.05C253.726 206.983 253.859 206.983 253.939 207.05C254.02 207.119 254.02 207.229 253.939 207.298L249.594 210.949C249.554 210.981 249.503 211 249.448 211Z" fill="#664D49"/>
<path d="M107.718 20.3096C109.126 19.2187 110 17.6903 110 16C110 12.6863 106.642 10 102.501 10C98.3579 10 95 12.6863 95 16C95 19.3137 98.3579 22 102.501 22C103.336 22 104.14 21.8901 104.891 21.6891L107.718 20.3096Z" fill="white"/>
<path d="M103.501 22C98.8135 22 95 19.3079 95 16C95 12.6921 98.8135 10 103.501 10C108.186 10 112 12.6921 112 16C112 17.6495 111.073 19.1873 109.391 20.3272C109.299 20.392 109.17 20.3704 109.104 20.2821C109.038 20.1939 109.059 20.0714 109.151 20.0084C110.723 18.9424 111.588 17.5198 111.588 16C111.588 12.9082 107.959 10.3925 103.501 10.3925C99.0405 10.3925 95.4124 12.9082 95.4124 16C95.4124 19.0918 99.0405 21.6075 103.501 21.6075C104.388 21.6075 105.262 21.5084 106.094 21.3121C106.206 21.2851 106.318 21.35 106.344 21.4562C106.371 21.5606 106.304 21.6669 106.193 21.6939C105.328 21.8974 104.422 22 103.501 22Z" fill="#664D49"/>
<path d="M105 21.2731L110 23L108.138 20L105 21.2731Z" fill="white"/>
<path d="M109.809 24C109.786 24 109.763 23.9959 109.742 23.9857L105.124 21.94C105.024 21.8949 104.975 21.7677 105.012 21.6507C105.049 21.5358 105.159 21.4784 105.259 21.5215L109.382 23.3476L107.923 20.3335C107.87 20.2268 107.902 20.0893 107.994 20.0298C108.085 19.9682 108.202 20.0052 108.253 20.1119L109.975 23.6656C110.015 23.7477 110.006 23.8502 109.954 23.9221C109.917 23.9734 109.865 24 109.809 24Z" fill="#664D49"/>
<path d="M101 16.5005C101 16.7759 100.552 17 99.9989 17C99.4481 17 99 16.7759 99 16.5005C99 16.224 99.4481 16 99.9989 16C100.552 16 101 16.224 101 16.5005Z" fill="#FE665E"/>
<path d="M103 16.5005C103 16.7759 102.776 17 102.501 17C102.224 17 102 16.7759 102 16.5005C102 16.224 102.224 16 102.501 16C102.776 16 103 16.224 103 16.5005Z" fill="#FE665E"/>
<path d="M106 16.5005C106 16.7759 105.776 17 105.5 17C105.224 17 105 16.7759 105 16.5005C105 16.224 105.224 16 105.5 16C105.776 16 106 16.224 106 16.5005Z" fill="#FE665E"/>
<path d="M117.45 25.6891C118.251 25.8901 119.109 26 120.001 26C124.418 26 128 23.3137 128 20C128 16.6863 124.418 14 120.001 14C115.582 14 112 16.6863 112 20C112 21.6922 112.932 23.2187 114.434 24.3096L117.45 25.6891Z" fill="white"/>
<path d="M120.001 26C119.134 26 118.279 25.8974 117.466 25.6939C117.362 25.6669 117.298 25.5606 117.323 25.4562C117.35 25.35 117.455 25.2869 117.558 25.3121C118.343 25.5084 119.164 25.6075 120.001 25.6075C124.197 25.6075 127.612 23.0918 127.612 20C127.612 16.9082 124.197 14.3925 120.001 14.3925C115.803 14.3925 112.388 16.9082 112.388 20C112.388 21.5198 113.204 22.9442 114.681 24.0084C114.768 24.0714 114.79 24.1939 114.728 24.2821C114.665 24.3704 114.544 24.392 114.457 24.3289C112.872 23.1873 112 21.6513 112 20C112 16.6921 115.589 14 120.001 14C124.411 14 128 16.6921 128 20C128 23.3079 124.411 26 120.001 26Z" fill="#664D49"/>
<path d="M118 25.2731L113 27L114.864 24L118 25.2731Z" fill="white"/>
<path d="M113.191 28C113.137 28 113.083 27.9734 113.046 27.9221C112.994 27.8502 112.985 27.7476 113.025 27.6656L114.747 24.1139C114.799 24.0051 114.915 23.9682 115.007 24.0297C115.098 24.0892 115.13 24.2267 115.077 24.3334L113.618 27.3475L117.743 25.5214C117.841 25.4783 117.951 25.5358 117.988 25.6507C118.025 25.7676 117.976 25.8969 117.878 25.94L113.258 27.9857C113.237 27.9959 113.214 28 113.191 28Z" fill="#664D49"/>
<path d="M122 20.5C122 20.7762 122.448 21 123 21C123.552 21 124 20.7762 124 20.5C124 20.2238 123.552 20 123 20C122.448 20 122 20.2238 122 20.5Z" fill="#FE665E"/>
<path d="M119 20.5C119 20.7762 119.448 21 120.001 21C120.552 21 121 20.7762 121 20.5C121 20.2238 120.552 20 120.001 20C119.448 20 119 20.2238 119 20.5Z" fill="#FE665E"/>
<path d="M117 20.5C117 20.7762 117.224 21 117.499 21C117.776 21 118 20.7762 118 20.5C118 20.2238 117.776 20 117.499 20C117.224 20 117 20.2238 117 20.5Z" fill="#FE665E"/>
<path d="M207.571 83.2719C207.427 83.9079 207.175 84.5042 206.838 85.0393C206.382 85.7654 205.766 86.3815 205.04 86.8391C204.505 87.176 203.909 87.4264 203.271 87.5724C202.862 87.6642 202.437 87.7129 201.999 87.7129C201.563 87.7129 201.136 87.6642 200.727 87.5706C200.091 87.4264 199.495 87.176 198.96 86.8391C198.234 86.3815 197.618 85.7654 197.162 85.0393C196.823 84.5042 196.573 83.9079 196.427 83.2719C196.335 82.863 196.287 82.436 196.287 82C196.287 81.5622 196.335 81.137 196.427 80.7281C196.573 80.0903 196.823 79.4958 197.162 78.9589C197.618 78.2329 198.234 77.6167 198.96 77.1609C199.495 76.824 200.091 76.5718 200.727 76.4277C201.136 76.334 201.563 76.2853 201.999 76.2853C202.437 76.2853 202.862 76.334 203.271 76.4277C203.909 76.5718 204.505 76.824 205.04 77.1609C205.766 77.6167 206.382 78.2329 206.838 78.9589C207.175 79.4958 207.427 80.0903 207.571 80.7281C207.665 81.137 207.713 81.5622 207.713 82C207.713 82.436 207.665 82.863 207.571 83.2719ZM216.148 78.9589H212.28C212.066 78.2311 211.774 77.5356 211.417 76.8799L214.154 74.145C214.876 73.4208 214.876 72.2498 214.154 71.5273L212.471 69.8446C211.749 69.1222 210.578 69.1222 209.854 69.8446L207.119 72.5813C206.465 72.2245 205.768 71.9327 205.04 71.7183V67.8502C205.04 66.8269 204.211 66 203.19 66H200.81C199.789 66 198.96 66.8269 198.96 67.8502V71.7183C198.232 71.9327 197.535 72.2245 196.881 72.5813L194.145 69.8446C193.422 69.1222 192.251 69.1222 191.527 69.8446L189.846 71.5273C189.122 72.2498 189.122 73.4208 189.846 74.145L192.581 76.8799C192.224 77.5338 191.934 78.2311 191.72 78.9589H187.852C186.829 78.9589 186 79.7876 186 80.811V83.1891C186 84.2106 186.829 85.0393 187.852 85.0393H191.72C191.934 85.769 192.224 86.4644 192.581 87.1202L189.846 89.855C189.122 90.5774 189.122 91.7503 189.846 92.4727L191.527 94.1554C192.251 94.8778 193.422 94.8778 194.145 94.1554L196.881 91.4188C197.535 91.7755 198.232 92.0655 198.96 92.2799V96.1498C198.96 97.1713 199.789 98 200.81 98H203.19C204.211 98 205.04 97.1713 205.04 96.1498V92.2799C205.768 92.0655 206.465 91.7755 207.119 91.4188L209.854 94.1554C210.578 94.8778 211.749 94.8778 212.471 94.1554L214.154 92.4727C214.876 91.7503 214.876 90.5774 214.154 89.855L211.417 87.1183C211.774 86.4644 212.066 85.769 212.28 85.0393H216.148C217.169 85.0393 218 84.2106 218 83.1891V80.811C218 79.7876 217.169 78.9589 216.148 78.9589Z" fill="#FE665E"/>
<path d="M202.499 76.5498C202.075 76.5498 201.655 76.5961 201.249 76.6868C200.631 76.8221 200.047 77.057 199.509 77.3845C198.799 77.8187 198.186 78.4113 197.74 79.1001C197.403 79.6215 197.158 80.1892 197.019 80.7872C196.925 81.1822 196.879 81.5898 196.879 82.0009C196.879 82.4102 196.925 82.8178 197.019 83.2146C197.158 83.8126 197.403 84.3803 197.74 84.8999C198.186 85.5887 198.799 86.1831 199.509 86.6155C200.047 86.9448 200.631 87.1797 201.247 87.3149C202.06 87.4947 202.934 87.4947 203.751 87.3149C204.367 87.1797 204.953 86.9448 205.491 86.6155C206.201 86.1813 206.814 85.5887 207.26 84.8999C207.597 84.3785 207.84 83.8126 207.979 83.2146V83.2128C208.073 82.8195 208.12 82.412 208.12 82.0009C208.12 81.5898 208.073 81.1805 207.979 80.7872C207.84 80.1892 207.597 79.6215 207.26 79.1001C206.814 78.4113 206.201 77.8187 205.491 77.3845C204.953 77.057 204.367 76.8221 203.751 76.6851C203.343 76.5961 202.923 76.5498 202.499 76.5498ZM202.499 87.8382C202.046 87.8382 201.594 87.7901 201.159 87.6922C200.499 87.5481 199.871 87.2971 199.297 86.9448C198.535 86.4803 197.88 85.845 197.401 85.1064C197.039 84.5494 196.779 83.9407 196.628 83.3C196.529 82.8765 196.479 82.4387 196.479 82.0009C196.479 81.5613 196.529 81.1253 196.628 80.7017C196.779 80.0593 197.039 79.4524 197.401 78.8936C197.88 78.155 198.535 77.5215 199.297 77.057C199.871 76.7046 200.499 76.4519 201.159 76.3078C202.029 76.1156 202.965 76.1138 203.841 76.3078C204.501 76.4537 205.129 76.7046 205.703 77.057C206.465 77.5215 207.12 78.1568 207.597 78.8936C207.961 79.4524 208.221 80.0611 208.37 80.7017C208.469 81.1235 208.521 81.5595 208.521 82.0009C208.521 82.4405 208.469 82.8783 208.37 83.3C208.221 83.9407 207.961 84.5494 207.597 85.1064C207.12 85.845 206.465 86.4803 205.703 86.9448C205.129 87.2954 204.501 87.5481 203.841 87.694C203.404 87.7901 202.952 87.8382 202.499 87.8382ZM197.285 91.1109C197.316 91.1109 197.349 91.1181 197.381 91.1341C198.043 91.4847 198.742 91.7641 199.46 91.9705C199.544 91.9937 199.603 92.0702 199.603 92.1556V95.9783C199.603 96.8788 200.359 97.612 201.288 97.612H203.712C204.641 97.612 205.397 96.8788 205.397 95.9783V92.1556C205.397 92.0702 205.456 91.9937 205.54 91.9705C206.258 91.7641 206.957 91.4847 207.619 91.1341C207.697 91.0932 207.794 91.1074 207.856 91.1679L210.642 93.8694C210.962 94.1791 211.385 94.3499 211.835 94.3499C212.285 94.3499 212.709 94.1791 213.026 93.8694L214.74 92.209C215.397 91.5719 215.397 90.5343 214.74 89.8972L211.953 87.1939C211.89 87.1334 211.877 87.0391 211.92 86.9643C212.279 86.3237 212.569 85.6456 212.78 84.9498C212.806 84.8661 212.883 84.8092 212.973 84.8092H216.913C217.844 84.8092 218.6 84.076 218.6 83.1755V80.8263C218.6 79.924 217.844 79.1908 216.913 79.1908H212.973C212.883 79.1908 212.806 79.1339 212.78 79.052C212.569 78.3562 212.279 77.6781 211.92 77.0374C211.877 76.9609 211.89 76.8684 211.953 76.8061L214.74 74.1046C215.397 73.4674 215.397 72.4299 214.74 71.7928L213.026 70.1306C212.709 69.8209 212.285 69.6519 211.835 69.6519C211.385 69.6519 210.962 69.8209 210.642 70.1306L207.856 72.8339C207.794 72.8944 207.697 72.9086 207.619 72.8659C206.957 72.5171 206.258 72.2359 205.54 72.0313C205.456 72.0063 205.397 71.9316 205.397 71.8444V68.0235C205.397 67.1212 204.641 66.388 203.712 66.388H201.288C200.359 66.388 199.603 67.1212 199.603 68.0235V71.8444C199.603 71.9316 199.544 72.0063 199.46 72.0313C198.74 72.2359 198.041 72.5171 197.381 72.8659C197.302 72.9069 197.206 72.8944 197.142 72.8339L194.356 70.1306C194.037 69.8209 193.615 69.6519 193.165 69.6519C192.713 69.6519 192.291 69.8209 191.972 70.1306L190.26 71.7928C189.94 72.1007 189.766 72.5118 189.766 72.9478C189.766 73.3838 189.94 73.7949 190.26 74.1046L193.046 76.8061C193.108 76.8666 193.123 76.9609 193.08 77.0357C192.719 77.6763 192.429 78.3562 192.218 79.052C192.194 79.1339 192.115 79.1908 192.027 79.1908H188.087C187.156 79.1908 186.4 79.924 186.4 80.8263V83.1755C186.4 84.076 187.156 84.8092 188.087 84.8092H192.027C192.115 84.8092 192.194 84.8661 192.218 84.9498C192.429 85.6456 192.719 86.3237 193.08 86.9643C193.123 87.0409 193.108 87.1352 193.046 87.1957L190.26 89.8972C189.94 90.2051 189.766 90.6162 189.766 91.0522C189.766 91.49 189.94 91.8993 190.26 92.209L191.972 93.8694C192.291 94.1791 192.713 94.3499 193.165 94.3499C193.615 94.3499 194.037 94.1791 194.356 93.8694L197.142 91.1679C197.18 91.1305 197.232 91.1109 197.285 91.1109ZM203.712 98H201.288C200.137 98 199.203 97.0924 199.203 95.9783V92.2998C198.555 92.1058 197.924 91.8513 197.32 91.5434L194.639 94.1453C194.246 94.5261 193.721 94.7379 193.165 94.7379C192.607 94.7379 192.084 94.5261 191.689 94.1453L189.975 92.4831C189.582 92.1004 189.364 91.5932 189.364 91.0522C189.364 90.513 189.582 90.004 189.975 89.6232L192.657 87.0231C192.339 86.4376 192.078 85.8254 191.878 85.1971H188.087C186.936 85.1971 186 84.2913 186 83.1755V80.8263C186 79.7105 186.936 78.8029 188.087 78.8029H191.878C192.078 78.1746 192.339 77.5624 192.657 76.9787L189.975 74.3786C189.582 73.996 189.364 73.4888 189.364 72.9478C189.364 72.4085 189.582 71.8996 189.975 71.5169L191.689 69.8565C192.084 69.4739 192.607 69.2639 193.165 69.2639C193.721 69.2639 194.246 69.4739 194.639 69.8565L197.32 72.4566C197.924 72.1487 198.555 71.896 199.203 71.7003V68.0235C199.203 66.9076 200.137 66 201.288 66H203.712C204.861 66 205.797 66.9076 205.797 68.0235V71.7003C206.445 71.896 207.076 72.1487 207.678 72.4566L210.36 69.8565C210.754 69.4739 211.277 69.2639 211.835 69.2639C212.391 69.2639 212.916 69.4739 213.309 69.8565L215.023 71.5169C215.836 72.3071 215.836 73.5902 215.023 74.3786L212.342 76.9787C212.659 77.5624 212.92 78.1746 213.122 78.8029H216.913C218.064 78.8029 219 79.7105 219 80.8263V83.1755C219 84.2913 218.064 85.1971 216.913 85.1971H213.122C212.92 85.8254 212.659 86.4376 212.342 87.0213L215.023 89.6232C215.836 90.4115 215.836 91.6947 215.023 92.4831L213.309 94.1453C212.916 94.5261 212.391 94.7379 211.835 94.7379C211.277 94.7379 210.754 94.5261 210.36 94.1453L207.678 91.5434C207.076 91.8513 206.443 92.1058 205.797 92.2998V95.9783C205.797 97.0924 204.861 98 203.712 98Z" fill="#664D49"/>
<path d="M123.046 128.9C117.774 134.367 109.226 134.367 103.954 128.9C98.6821 123.433 98.6821 114.569 103.954 109.102C109.226 103.633 117.774 103.633 123.046 109.102C128.318 114.569 128.318 123.433 123.046 128.9Z" fill="white"/>
<path d="M163.845 178H153.773C153.534 178 153.34 177.814 153.34 177.587C153.34 177.357 153.534 177.173 153.773 177.173H163.23L159.638 167.616C159.556 167.4 159.674 167.164 159.898 167.086C160.124 167.009 160.371 167.12 160.452 167.336L164.252 177.445C164.301 177.572 164.28 177.714 164.2 177.825C164.119 177.933 163.986 178 163.845 178Z" fill="#664D49"/>
<path d="M189.799 160.985V162.117C189.799 164.838 187.431 167.062 184.533 167.062H123.358C120.462 167.062 118.092 164.838 118.092 162.117V160.985H189.799Z" fill="#FE665E"/>
<path d="M117.797 160.647V161.403C117.797 164.04 120.042 166.183 122.803 166.183H186.305C189.066 166.183 191.311 164.04 191.311 161.403V160.647H117.797ZM186.305 167.062H122.803C119.535 167.062 116.877 164.524 116.877 161.403V160.208C116.877 159.966 117.083 159.769 117.337 159.769H191.771C192.027 159.769 192.231 159.966 192.231 160.208V161.403C192.231 164.524 189.573 167.062 186.305 167.062Z" fill="#664D49"/>
<path d="M117.797 160.088H191.311V125.752C191.311 123.557 189.481 121.773 187.229 121.773H121.879C119.627 121.773 117.797 123.557 117.797 125.752V160.088ZM191.771 160.984H117.337C117.083 160.984 116.877 160.783 116.877 160.536V125.752C116.877 123.063 119.12 120.877 121.879 120.877H187.229C189.988 120.877 192.231 123.063 192.231 125.752V160.536C192.231 160.783 192.027 160.984 191.771 160.984Z" fill="#664D49"/>
<path d="M154.121 178H144.047C143.908 178 143.775 177.933 143.694 177.825C143.612 177.714 143.593 177.572 143.642 177.445L147.441 167.336C147.521 167.12 147.771 167.009 147.995 167.086C148.221 167.164 148.339 167.4 148.257 167.616L144.664 177.173H154.121C154.361 177.173 154.554 177.357 154.554 177.587C154.554 177.814 154.361 178 154.121 178Z" fill="#664D49"/>
<path d="M143.605 134.962V136.972C141.944 136.314 140.466 135.983 139.174 135.983C137.131 135.983 136.108 136.689 136.108 138.097C136.108 138.67 136.3 139.13 136.683 139.478C137.065 139.828 137.773 140.187 138.805 140.555L140.251 141.071L141.629 141.553C143.765 142.32 144.831 143.621 144.831 145.453C144.831 146.847 144.286 147.961 143.197 148.795C142.107 149.629 140.645 150.046 138.816 150.046C137.547 150.046 135.906 149.768 133.893 149.212V146.922C135.897 147.846 137.563 148.307 138.887 148.307C140.002 148.307 140.896 148.082 141.561 147.633C142.227 147.181 142.559 146.576 142.559 145.817C142.559 145.238 142.362 144.779 141.969 144.443C141.575 144.105 140.76 143.707 139.529 143.244L138.013 142.681C136.506 142.109 135.461 141.521 134.875 140.918C134.289 140.316 133.997 139.513 133.997 138.51C133.997 137.155 134.447 136.106 135.345 135.362C136.244 134.616 137.509 134.246 139.138 134.246C140.462 134.246 141.95 134.484 143.605 134.962Z" fill="#FE665E"/>
<path d="M148.477 148.831V135.462H157.708V137.005H150.574V141.058H156.623V142.6H150.574V147.288H158.2V148.831H148.477Z" fill="#FE665E"/>
<path d="M162.928 142.139C162.928 144.115 163.254 145.634 163.907 146.704C164.561 147.774 165.492 148.307 166.702 148.307C167.912 148.307 168.846 147.774 169.504 146.704C170.16 145.634 170.488 144.115 170.488 142.139C170.488 140.175 170.16 138.656 169.504 137.588C168.846 136.518 167.912 135.983 166.702 135.983C165.492 135.983 164.561 136.518 163.907 137.588C163.254 138.656 162.928 140.175 162.928 142.139ZM160.631 142.139C160.631 139.735 161.181 137.82 162.279 136.388C163.376 134.959 164.854 134.246 166.709 134.246C168.562 134.246 170.039 134.959 171.137 136.388C172.237 137.82 172.785 139.735 172.785 142.139C172.785 144.552 172.237 146.472 171.137 147.901C170.039 149.333 168.562 150.046 166.709 150.046C164.854 150.046 163.376 149.333 162.279 147.901C161.181 146.472 160.631 144.552 160.631 142.139Z" fill="#FE665E"/>
<path d="M116.266 99.711C111.753 99.711 107.513 101.409 104.322 104.489C97.7389 110.845 97.7389 121.191 104.322 127.549C110.908 133.908 121.622 133.908 128.208 127.549C131.399 124.469 133.154 120.375 133.154 116.019C133.154 111.664 131.399 107.567 128.208 104.489C125.018 101.409 120.777 99.711 116.266 99.711ZM116.266 133.031C111.751 133.031 107.238 131.372 103.801 128.053C96.9285 121.418 96.9285 110.621 103.801 103.985C107.131 100.77 111.558 99.0005 116.266 99.0005C120.973 99.0005 125.4 100.77 128.73 103.985C132.06 107.198 133.893 111.473 133.893 116.019C133.893 120.566 132.06 124.838 128.73 128.053C125.293 131.372 120.779 133.031 116.266 133.031Z" fill="#664D49"/>
<path d="M125.292 125.648C120.31 130.63 112.229 130.63 107.246 125.648C102.262 120.663 102.262 112.583 107.246 107.6C112.229 102.616 120.31 102.616 125.292 107.6C130.277 112.583 130.277 120.663 125.292 125.648Z" fill="#FEDADA"/>
<path d="M115.663 103.374C112.426 103.374 109.188 104.607 106.724 107.072C101.795 112.003 101.795 120.026 106.724 124.959C111.652 129.89 119.672 129.89 124.601 124.959C126.989 122.569 128.304 119.392 128.304 116.016C128.304 112.636 126.989 109.462 124.601 107.072C122.136 104.607 118.901 103.374 115.663 103.374ZM115.663 129.385C112.24 129.385 108.814 128.081 106.21 125.473C103.683 122.946 102.293 119.587 102.293 116.016C102.293 112.441 103.683 109.083 106.21 106.558C111.421 101.342 119.904 101.342 125.115 106.558C127.641 109.083 129.031 112.441 129.031 116.016C129.031 119.587 127.641 122.946 125.115 125.473L124.858 125.216L125.115 125.473C122.51 128.081 119.087 129.385 115.663 129.385Z" fill="#664D49"/>
<path d="M79.8439 154.412L77.2911 151.987C76.5957 151.326 76.5957 150.244 77.2911 149.583L95.4748 132.31C96.1702 131.65 97.3075 131.65 98.0029 132.31L100.556 134.735C101.251 135.396 101.251 136.478 100.556 137.139L82.372 154.412C81.6766 155.072 80.5393 155.072 79.8439 154.412Z" fill="#FE665E"/>
<path d="M96.5164 132.506C96.159 132.506 95.8016 132.641 95.5314 132.912L77.8658 150.577C77.6042 150.838 77.4604 151.189 77.4604 151.562C77.4604 151.934 77.6042 152.285 77.8658 152.547L80.3458 155.027C80.8885 155.57 81.7711 155.57 82.3138 155.027L99.9794 137.362C100.522 136.817 100.522 135.934 99.9794 135.392L97.4993 132.912C97.2291 132.641 96.8716 132.506 96.5164 132.506ZM81.3287 156.123C80.797 156.123 80.263 155.92 79.8577 155.515L77.3776 153.035C76.9853 152.643 76.7695 152.12 76.7695 151.562C76.7695 151.004 76.9853 150.481 77.3776 150.089L95.0432 132.423C95.8539 131.613 97.1768 131.613 97.9875 132.423L100.468 134.903C101.28 135.716 101.28 137.037 100.468 137.85L82.8019 155.515C82.3966 155.92 81.8626 156.123 81.3287 156.123Z" fill="#664D49"/>
<path d="M97.7792 133.031C97.6895 133.031 97.5997 132.998 97.5318 132.931C97.3982 132.795 97.3982 132.576 97.5318 132.44L102.916 127.055C103.052 126.921 103.271 126.921 103.407 127.055C103.543 127.19 103.543 127.411 103.407 127.545L98.0245 132.931C97.9566 132.998 97.8668 133.031 97.7792 133.031Z" fill="#664D49"/>
<path d="M100.207 135.462C100.119 135.462 100.029 135.429 99.9615 135.361C99.8279 135.225 99.8279 135.007 99.9615 134.871L105.346 129.487C105.482 129.351 105.701 129.351 105.836 129.487C105.972 129.623 105.972 129.844 105.836 129.977L100.452 135.361C100.384 135.429 100.297 135.462 100.207 135.462Z" fill="#664D49"/>
<path d="M136 249C136 250.656 132.418 252 128 252C123.582 252 120 250.656 120 249C120 247.342 123.582 246 128 246C132.418 246 136 247.342 136 249Z" fill="#FEDADA"/>
<path d="M127.5 246.394C123.106 246.394 119.394 247.816 119.394 249.5C119.394 251.182 123.106 252.606 127.5 252.606C131.894 252.606 135.606 251.182 135.606 249.5C135.606 247.816 131.894 246.394 127.5 246.394ZM127.5 253C122.734 253 119 251.463 119 249.5C119 247.536 122.734 246 127.5 246C132.266 246 136 247.536 136 249.5C136 251.463 132.266 253 127.5 253Z" fill="#664D49"/>
<path d="M136 249V257.554C136 259.458 132.418 261 128 261C123.582 261 120 259.458 120 257.554V249C120 250.902 123.582 252.446 128 252.446C132.418 252.446 136 250.902 136 249Z" fill="#FEDADA"/>
<path d="M119.394 250.284V257.47C119.394 259.168 123.106 260.602 127.5 260.602C131.894 260.602 135.606 259.168 135.606 257.47V250.284C134.528 251.717 131.351 252.729 127.5 252.729C123.649 252.729 120.472 251.717 119.394 250.284ZM127.5 261C122.734 261 119 259.449 119 257.47V249.199C119 249.088 119.089 249 119.197 249C119.306 249 119.394 249.088 119.394 249.199C119.394 250.896 123.106 252.332 127.5 252.332C131.894 252.332 135.606 250.896 135.606 249.199C135.606 249.088 135.694 249 135.803 249C135.911 249 136 249.088 136 249.199V257.47C136 259.449 132.266 261 127.5 261Z" fill="#664D49"/>
<path d="M136 257V265.555C136 267.457 132.418 269 128 269C123.582 269 120 267.457 120 265.555V257C120 258.904 123.582 260.445 128 260.445C132.418 260.445 136 258.904 136 257Z" fill="#FEDADA"/>
<path d="M119.394 258.284V265.47C119.394 267.167 123.106 268.602 127.5 268.602C131.894 268.602 135.606 267.167 135.606 265.47V258.284C134.528 259.718 131.351 260.729 127.5 260.729C123.649 260.729 120.472 259.718 119.394 258.284ZM127.5 269C122.734 269 119 267.449 119 265.47V257.199C119 257.089 119.089 257 119.197 257C119.306 257 119.394 257.089 119.394 257.199C119.394 258.897 123.106 260.331 127.5 260.331C131.894 260.331 135.606 258.897 135.606 257.199C135.606 257.089 135.694 257 135.803 257C135.911 257 136 257.089 136 257.199V265.47C136 267.449 132.266 269 127.5 269Z" fill="#664D49"/>
<path d="M136 265V273.554C136 275.458 132.418 277 128 277C123.582 277 120 275.458 120 273.554V265C120 266.902 123.582 268.446 128 268.446C132.418 268.446 136 266.902 136 265Z" fill="#FEDADA"/>
<path d="M119.394 266.284V273.47C119.394 275.168 123.106 276.602 127.5 276.602C131.894 276.602 135.606 275.168 135.606 273.47V266.284C134.528 267.717 131.351 268.729 127.5 268.729C123.649 268.729 120.472 267.717 119.394 266.284ZM127.5 277C122.734 277 119 275.449 119 273.47V265.199C119 265.089 119.089 265 119.197 265C119.306 265 119.394 265.089 119.394 265.199C119.394 266.896 123.106 268.332 127.5 268.332C131.894 268.332 135.606 266.896 135.606 265.199C135.606 265.089 135.694 265 135.803 265C135.911 265 136 265.089 136 265.199V273.47C136 275.449 132.266 277 127.5 277Z" fill="#664D49"/>
<path d="M238.999 126C237.35 126 236 124.854 236 123.456V98.546C236 97.1455 237.35 96 238.999 96C240.65 96 242 97.1455 242 98.546V123.456C242 124.854 240.65 126 238.999 126Z" fill="white"/>
<path d="M238.999 96.4092C237.595 96.4092 236.452 97.4433 236.452 98.7158V123.284C236.452 124.557 237.595 125.591 238.999 125.591C240.403 125.591 241.548 124.557 241.548 123.284V98.7158C241.548 97.4433 240.403 96.4092 238.999 96.4092ZM238.999 126C237.346 126 236 124.782 236 123.284V98.7158C236 97.2181 237.346 96 238.999 96C240.654 96 242 97.2181 242 98.7158V123.284C242 124.782 240.654 126 238.999 126Z" fill="#664D49"/>
<path d="M244 107.999C244 110.208 241.986 112 239.5 112C237.014 112 235 110.208 235 107.999C235 105.792 237.014 104 239.5 104C241.986 104 244 105.792 244 107.999Z" fill="#FE665E"/>
<path d="M239.5 104.454C237.269 104.454 235.455 106.268 235.455 108.499C235.455 110.73 237.269 112.546 239.5 112.546C241.731 112.546 243.545 110.73 243.545 108.499C243.545 106.268 241.731 104.454 239.5 104.454ZM239.5 113C237.019 113 235 110.98 235 108.499C235 106.018 237.019 104 239.5 104C241.981 104 244 106.018 244 108.499C244 110.98 241.981 113 239.5 113Z" fill="#664D49"/>
<path d="M263.501 126C262.125 126 261 124.854 261 123.456V98.546C261 97.1455 262.125 96 263.501 96C264.875 96 266 97.1455 266 98.546V123.456C266 124.854 264.875 126 263.501 126Z" fill="white"/>
<path d="M263.501 96.4092C262.329 96.4092 261.378 97.4433 261.378 98.7158V123.284C261.378 124.557 262.329 125.591 263.501 125.591C264.671 125.591 265.623 124.557 265.623 123.284V98.7158C265.623 97.4433 264.671 96.4092 263.501 96.4092ZM263.501 126C262.122 126 261 124.782 261 123.284V98.7158C261 97.2181 262.122 96 263.501 96C264.878 96 266 97.2181 266 98.7158V123.284C266 124.782 264.878 126 263.501 126Z" fill="#664D49"/>
<path d="M267 110.499C267 112.984 265.434 115 263.5 115C261.566 115 260 112.984 260 110.499C260 108.016 261.566 106 263.5 106C265.434 106 267 108.016 267 110.499Z" fill="#FE665E"/>
<path d="M263 106.454C261.017 106.454 259.404 108.27 259.404 110.499C259.404 112.73 261.017 114.546 263 114.546C264.983 114.546 266.596 112.73 266.596 110.499C266.596 108.27 264.983 106.454 263 106.454ZM263 115C260.794 115 259 112.98 259 110.499C259 108.018 260.794 106 263 106C265.206 106 267 108.018 267 110.499C267 112.98 265.206 115 263 115Z" fill="#664D49"/>
<path d="M251.5 126C250.124 126 249 124.854 249 123.456V98.546C249 97.1455 250.124 96 251.5 96C252.876 96 254 97.1455 254 98.546V123.456C254 124.854 252.876 126 251.5 126Z" fill="white"/>
<path d="M251.5 96.4092C250.329 96.4092 249.377 97.4433 249.377 98.7158V123.284C249.377 124.557 250.329 125.591 251.5 125.591C252.67 125.591 253.623 124.557 253.623 123.284V98.7158C253.623 97.4433 252.67 96.4092 251.5 96.4092ZM251.5 126C250.122 126 249 124.782 249 123.284V98.7158C249 97.2181 250.122 96 251.5 96C252.88 96 254 97.2181 254 98.7158V123.284C254 124.782 252.88 126 251.5 126Z" fill="#664D49"/>
<path d="M255 114.499C255 116.984 253.434 119 251.5 119C249.566 119 248 116.984 248 114.499C248 112.016 249.566 110 251.5 110C253.434 110 255 112.016 255 114.499Z" fill="#FE665E"/>
<path d="M251.5 110.454C249.765 110.454 248.354 112.27 248.354 114.499C248.354 116.73 249.765 118.546 251.5 118.546C253.235 118.546 254.646 116.73 254.646 114.499C254.646 112.27 253.235 110.454 251.5 110.454ZM251.5 119C249.57 119 248 116.98 248 114.499C248 112.018 249.57 110 251.5 110C253.43 110 255 112.018 255 114.499C255 116.98 253.43 119 251.5 119Z" fill="#664D49"/>
<path d="M190.414 31H207.75L211 19H187L190.414 31Z" fill="#FEDADA"/>
<path d="M190.7 30.6209H207.46L210.555 19.3791H187.449L190.7 30.6209ZM207.609 31H190.553C190.467 31 190.391 30.9443 190.366 30.8626L187.007 19.2417C186.991 19.1843 187.002 19.1235 187.039 19.0748C187.075 19.0278 187.133 19 187.194 19H210.807C210.867 19 210.924 19.0278 210.961 19.0748C210.997 19.1217 211.009 19.1826 210.993 19.24L207.795 30.8609C207.772 30.9426 207.696 31 207.609 31Z" fill="#664D49"/>
<path d="M189.818 31C189.74 31 189.666 30.9445 189.643 30.8585L185.045 13.3905H180.181C180.082 13.3905 180 13.3027 180 13.1952C180 13.0877 180.082 13 180.181 13H185.182C185.264 13 185.335 13.0591 185.357 13.1415L189.993 30.7528C190.021 30.8549 189.964 30.9642 189.868 30.9928C189.851 30.9982 189.835 31 189.818 31Z" fill="#664D49"/>
<path d="M209.724 37H191.942C191.853 37 191.775 36.9391 191.754 36.8514L190.364 31.2107C190.35 31.1516 190.364 31.0907 190.4 31.0424C190.437 30.9958 190.494 30.9672 190.553 30.9672H207.46L210.555 19.3904H187.193C187.087 19.3904 187 19.3026 187 19.1952C187 19.0877 187.087 19 187.193 19H210.807C210.867 19 210.924 19.0287 210.961 19.077C210.997 19.1254 211.009 19.188 210.993 19.2471L207.795 31.2143C207.772 31.2985 207.696 31.3575 207.609 31.3575H190.801L192.093 36.6097H209.724C209.831 36.6097 209.918 36.6956 209.918 36.8048C209.918 36.9123 209.831 37 209.724 37Z" fill="#664D49"/>
<path d="M195.832 31C195.752 31 195.679 30.9339 195.667 30.8418L194.002 19.22C193.988 19.1157 194.05 19.0183 194.142 19.0027C194.233 18.9853 194.319 19.0548 194.334 19.1592L195.998 30.7809C196.013 30.8835 195.95 30.9809 195.859 30.9983L195.832 31Z" fill="#664D49"/>
<path d="M201.253 31L201.211 30.9983C201.075 30.9809 200.98 30.8835 201.003 30.7809L203.499 19.1596C203.522 19.0553 203.651 18.984 203.787 19.0031C203.926 19.0188 204.018 19.1161 203.997 19.2205L201.5 30.8418C201.481 30.9339 201.373 31 201.253 31Z" fill="#664D49"/>
<path d="M196 41.9991C196 43.1035 195.103 44 193.999 44C192.895 44 192 43.1035 192 41.9991C192 40.8948 192.895 40 193.999 40C195.103 40 196 40.8948 196 41.9991Z" fill="#FEDADA"/>
<path d="M193.999 39.4379C193.091 39.4379 192.35 40.364 192.35 41.499C192.35 42.636 193.091 43.5621 193.999 43.5621C194.909 43.5621 195.648 42.636 195.648 41.499C195.648 40.364 194.909 39.4379 193.999 39.4379ZM193.999 44C192.897 44 192 42.8771 192 41.499C192 40.1209 192.897 39 193.999 39C195.102 39 196 40.1209 196 41.499C196 42.8771 195.102 44 193.999 44Z" fill="#664D49"/>
<path d="M210 41.9991C210 43.1035 209.105 44 208 44C206.895 44 206 43.1035 206 41.9991C206 40.8948 206.895 40 208 40C209.105 40 210 40.8948 210 41.9991Z" fill="#FEDADA"/>
<path d="M207.5 39.4379C206.363 39.4379 205.438 40.364 205.438 41.499C205.438 42.636 206.363 43.5621 207.5 43.5621C208.637 43.5621 209.562 42.636 209.562 41.499C209.562 40.364 208.637 39.4379 207.5 39.4379ZM207.5 44C206.121 44 205 42.8771 205 41.499C205 40.1209 206.121 39 207.5 39C208.879 39 210 40.1209 210 41.499C210 42.8771 208.879 44 207.5 44Z" fill="#664D49"/>
<path d="M73.2303 43.431C72.9425 43.431 72.7081 43.253 72.7081 43.0343C72.7081 42.8143 72.9425 42.6363 73.2303 42.6363C73.5182 42.6363 73.7544 42.8143 73.7544 43.0343C73.7544 43.253 73.5182 43.431 73.2303 43.431ZM71.2816 43.431C70.9938 43.431 70.7576 43.253 70.7576 43.0343C70.7576 42.8143 70.9938 42.6363 71.2816 42.6363C71.5695 42.6363 71.8039 42.8143 71.8039 43.0343C71.8039 43.253 71.5695 43.431 71.2816 43.431ZM69.333 43.431C69.0433 43.431 68.8089 43.253 68.8089 43.0343C68.8089 42.8143 69.0433 42.6363 69.333 42.6363C69.6208 42.6363 69.8552 42.8143 69.8552 43.0343C69.8552 43.253 69.6208 43.431 69.333 43.431ZM74.0589 42H43.943C43.4244 42 43 42.3224 43 42.7148V44H75V42.7148C75 42.3224 74.5756 42 74.0589 42Z" fill="#FE665E"/>
<path d="M70.0236 42.2255C69.8432 42.2255 69.6947 42.3696 69.6947 42.5447C69.6947 42.7198 69.8432 42.862 70.0236 42.862C70.204 42.862 70.3506 42.7198 70.3506 42.5447C70.3506 42.3696 70.204 42.2255 70.0236 42.2255ZM70.0236 43.2596C69.6158 43.2596 69.285 42.9386 69.285 42.5447C69.285 42.1489 69.6158 41.828 70.0236 41.828C70.4295 41.828 70.7603 42.1489 70.7603 42.5447C70.7603 42.9386 70.4295 43.2596 70.0236 43.2596ZM72.0082 42.2255C71.8278 42.2255 71.6793 42.3696 71.6793 42.5447C71.6793 42.7198 71.8278 42.862 72.0082 42.862C72.1886 42.862 72.3352 42.7198 72.3352 42.5447C72.3352 42.3696 72.1886 42.2255 72.0082 42.2255ZM72.0082 43.2596C71.6004 43.2596 71.2696 42.9386 71.2696 42.5447C71.2696 42.1489 71.6004 41.828 72.0082 41.828C72.4141 41.828 72.7449 42.1489 72.7449 42.5447C72.7449 42.9386 72.4141 43.2596 72.0082 43.2596ZM73.9928 42.2255C73.8124 42.2255 73.6658 42.3696 73.6658 42.5447C73.6658 42.7198 73.8124 42.862 73.9928 42.862C74.1733 42.862 74.3217 42.7198 74.3217 42.5447C74.3217 42.3696 74.1733 42.2255 73.9928 42.2255ZM73.9928 43.2596C73.5869 43.2596 73.2561 42.9386 73.2561 42.5447C73.2561 42.1489 73.5869 41.828 73.9928 41.828C74.3988 41.828 74.7314 42.1489 74.7314 42.5447C74.7314 42.9386 74.3988 43.2596 73.9928 43.2596ZM43.4097 43.6024H75.5903V42.1289C75.5903 41.7258 75.252 41.3976 74.8367 41.3976H44.1652C43.748 41.3976 43.4097 41.7258 43.4097 42.1289V43.6024ZM75.7951 44H43.2049C43.0921 44 43 43.9106 43 43.8012V42.1289C43 41.507 43.5225 41 44.1652 41H74.8367C75.4775 41 76 41.507 76 42.1289V43.8012C76 43.9106 75.9079 44 75.7951 44Z" fill="#664D49"/>
<path d="M70.0012 42.5554C69.7567 42.5554 69.5554 42.7567 69.5554 43.0013C69.5554 43.2459 69.7567 43.4446 70.0012 43.4446C70.2458 43.4446 70.4446 43.2459 70.4446 43.0013C70.4446 42.7567 70.2458 42.5554 70.0012 42.5554ZM70.0012 44C69.4484 44 69 43.5516 69 43.0013C69 42.4484 69.4484 42 70.0012 42C70.5516 42 71 42.4484 71 43.0013C71 43.5516 70.5516 44 70.0012 44Z" fill="#664D49"/>
<path d="M72.0012 42.5554C71.7567 42.5554 71.5554 42.7567 71.5554 43.0013C71.5554 43.2459 71.7567 43.4446 72.0012 43.4446C72.2458 43.4446 72.4446 43.2459 72.4446 43.0013C72.4446 42.7567 72.2458 42.5554 72.0012 42.5554ZM72.0012 44C71.4484 44 71 43.5516 71 43.0013C71 42.4484 71.4484 42 72.0012 42C72.5516 42 73 42.4484 73 43.0013C73 43.5516 72.5516 44 72.0012 44Z" fill="#664D49"/>
<path d="M73.4994 42.5554C73.3771 42.5554 73.2777 42.7567 73.2777 43.0013C73.2777 43.2459 73.3771 43.4446 73.4994 43.4446C73.6217 43.4446 73.7223 43.2459 73.7223 43.0013C73.7223 42.7567 73.6217 42.5554 73.4994 42.5554ZM73.4994 44C73.2242 44 73 43.5516 73 43.0013C73 42.4484 73.2242 42 73.4994 42C73.7745 42 74 42.4484 74 43.0013C74 43.5516 73.7745 44 73.4994 44Z" fill="#664D49"/>
<path d="M43.4097 44.4014V61.8603C43.4097 62.2672 43.748 62.5986 44.1652 62.5986H74.8367C75.252 62.5986 75.5903 62.2672 75.5903 61.8603V44.4014H43.4097ZM74.8367 63H44.1652C43.5225 63 43 62.4881 43 61.8603V44.2007C43 44.0902 43.0921 44 43.2049 44H75.7951C75.9079 44 76 44.0902 76 44.2007V61.8603C76 62.4881 75.4775 63 74.8367 63Z" fill="#664D49"/>
<path d="M70 42.5009C70 42.776 69.776 43 69.5009 43C69.224 43 69 42.776 69 42.5009C69 42.224 69.224 42 69.5009 42C69.776 42 70 42.224 70 42.5009Z" fill="#FEDADA"/>
<path d="M72 42.5009C72 42.776 71.776 43 71.5009 43C71.2257 43 71 42.776 71 42.5009C71 42.224 71.2257 42 71.5009 42C71.776 42 72 42.224 72 42.5009Z" fill="#FEDADA"/>
<path d="M74 42.5009C74 42.776 73.7743 43 73.4991 43C73.224 43 73 42.776 73 42.5009C73 42.224 73.224 42 73.4991 42C73.7743 42 74 42.224 74 42.5009Z" fill="#FEDADA"/>
<path d="M51.5206 51.3994C50.3527 51.3994 49.4028 52.3411 49.4028 53.4991C49.4028 54.6588 50.3527 55.6006 51.5206 55.6006H68.4775C69.6454 55.6006 70.5971 54.6588 70.5971 53.4991C70.5971 52.3411 69.6454 51.3994 68.4775 51.3994H51.5206ZM68.4775 56H51.5206C50.1309 56 49 54.8787 49 53.4991C49 52.1213 50.1309 51 51.5206 51H68.4775C69.869 51 71 52.1213 71 53.4991C71 54.8787 69.869 56 68.4775 56Z" fill="#664D49"/>
<path d="M65.5 56C65.2247 56 65 55.9102 65 55.8003V51.1997C65 51.0898 65.2247 51 65.5 51C65.7752 51 66 51.0898 66 51.1997V55.8003C66 55.9102 65.7752 56 65.5 56Z" fill="#664D49"/>
<path d="M68 52.4137C67.6774 52.4137 67.4136 52.6774 67.4136 53C67.4136 53.3245 67.6774 53.5863 68 53.5863C68.3226 53.5863 68.5864 53.3245 68.5864 53C68.5864 52.6774 68.3226 52.4137 68 52.4137ZM68 54C67.4497 54 67 53.5522 67 53C67 52.4497 67.4497 52 68 52C68.5522 52 69 52.4497 69 53C69 53.5522 68.5522 54 68 54Z" fill="#FE665E"/>
<path d="M67.1606 55C67.1194 55 67.0782 54.9838 67.0474 54.953C66.9842 54.8898 66.9842 54.7884 67.0474 54.7252L67.7263 54.0463C67.7895 53.9846 67.8909 53.9846 67.9526 54.0463C68.0158 54.1095 68.0158 54.2109 67.9526 54.2741L67.2737 54.953C67.2428 54.9838 67.2017 55 67.1606 55Z" fill="#FE665E"/>
<path d="M160.204 36.4313C159.961 36.4313 159.761 36.2552 159.761 36.0355C159.761 35.8158 159.961 35.6365 160.204 35.6365C160.45 35.6365 160.648 35.8158 160.648 36.0355C160.648 36.2552 160.45 36.4313 160.204 36.4313ZM158.553 36.4313C158.308 36.4313 158.109 36.2552 158.109 36.0355C158.109 35.8158 158.308 35.6365 158.553 35.6365C158.798 35.6365 158.996 35.8158 158.996 36.0355C158.996 36.2552 158.798 36.4313 158.553 36.4313ZM156.902 36.4313C156.656 36.4313 156.458 36.2552 156.458 36.0355C156.458 35.8158 156.656 35.6365 156.902 35.6365C157.147 35.6365 157.345 35.8158 157.345 36.0355C157.345 36.2552 157.147 36.4313 156.902 36.4313ZM161.203 35H131.799C131.359 35 131 35.3231 131 35.7157V37H162V35.7157C162 35.3231 161.641 35 161.203 35Z" fill="#FE665E"/>
<path d="M156.771 35.8407C156.636 35.8407 156.527 35.9258 156.527 36.0302C156.527 36.1332 156.636 36.217 156.771 36.217C156.905 36.217 157.015 36.1332 157.015 36.0302C157.015 35.9258 156.905 35.8407 156.771 35.8407ZM156.771 36.5165C156.422 36.5165 156.139 36.2981 156.139 36.0302C156.139 35.761 156.422 35.5412 156.771 35.5412C157.12 35.5412 157.403 35.761 157.403 36.0302C157.403 36.2981 157.12 36.5165 156.771 36.5165ZM158.402 35.8407C158.269 35.8407 158.158 35.9258 158.158 36.0302C158.158 36.1332 158.269 36.217 158.402 36.217C158.537 36.217 158.646 36.1332 158.646 36.0302C158.646 35.9258 158.537 35.8407 158.402 35.8407ZM158.402 36.5165C158.053 36.5165 157.77 36.2981 157.77 36.0302C157.77 35.761 158.053 35.5412 158.402 35.5412C158.751 35.5412 159.034 35.761 159.034 36.0302C159.034 36.2981 158.751 36.5165 158.402 36.5165ZM160.033 35.8407C159.899 35.8407 159.789 35.9258 159.789 36.0302C159.789 36.1332 159.899 36.217 160.033 36.217C160.168 36.217 160.277 36.1332 160.277 36.0302C160.277 35.9258 160.168 35.8407 160.033 35.8407ZM160.033 36.5165C159.684 36.5165 159.401 36.2981 159.401 36.0302C159.401 35.761 159.684 35.5412 160.033 35.5412C160.382 35.5412 160.665 35.761 160.665 36.0302C160.665 36.2981 160.382 36.5165 160.033 36.5165ZM131.388 36.7005H161.612V35.7582C161.612 35.5055 161.347 35.2995 161.019 35.2995H131.983C131.655 35.2995 131.388 35.5055 131.388 35.7582V36.7005ZM161.806 37H131.194C131.087 37 131 36.9327 131 36.8503V35.7582C131 35.3407 131.442 35 131.983 35H161.019C161.56 35 162 35.3407 162 35.7582V36.8503C162 36.9327 161.913 37 161.806 37Z" fill="#664D49"/>
<path d="M156.5 35.6141C156.393 35.6141 156.307 35.7887 156.307 36.0028C156.307 36.2141 156.393 36.3859 156.5 36.3859C156.606 36.3859 156.693 36.2141 156.693 36.0028C156.693 35.7887 156.606 35.6141 156.5 35.6141ZM156.5 37C156.224 37 156 36.5521 156 36.0028C156 35.4507 156.224 35 156.5 35C156.776 35 157 35.4507 157 36.0028C157 36.5521 156.776 37 156.5 37Z" fill="#664D49"/>
<path d="M158.5 35.6141C158.394 35.6141 158.307 35.7887 158.307 36.0028C158.307 36.2141 158.394 36.3859 158.5 36.3859C158.607 36.3859 158.693 36.2141 158.693 36.0028C158.693 35.7887 158.607 35.6141 158.5 35.6141ZM158.5 37C158.224 37 158 36.5521 158 36.0028C158 35.4507 158.224 35 158.5 35C158.776 35 159 35.4507 159 36.0028C159 36.5521 158.776 37 158.5 37Z" fill="#664D49"/>
<path d="M160 35.6141C159.789 35.6141 159.614 35.7887 159.614 36.0028C159.614 36.2141 159.789 36.3859 160 36.3859C160.214 36.3859 160.386 36.2141 160.386 36.0028C160.386 35.7887 160.214 35.6141 160 35.6141ZM160 37C159.448 37 159 36.5521 159 36.0028C159 35.4507 159.448 35 160 35C160.552 35 161 35.4507 161 36.0028C161 36.5521 160.552 37 160 37Z" fill="#664D49"/>
<path d="M131.388 37.4042V58.9766C131.388 59.3178 131.655 59.5958 131.983 59.5958H161.019C161.347 59.5958 161.612 59.3178 161.612 58.9766V37.4042H131.388ZM161.019 60H131.983C131.442 60 131 59.5402 131 58.9766V37.2021C131 37.0908 131.087 37 131.194 37H161.806C161.913 37 162 37.0908 162 37.2021V58.9766C162 59.5402 161.56 60 161.019 60Z" fill="#664D49"/>
<path d="M157 36.502C157 36.7785 156.776 37 156.5 37C156.224 37 156 36.7785 156 36.502C156 36.2256 156.224 36 156.5 36C156.776 36 157 36.2256 157 36.502Z" fill="#FEDADA"/>
<path d="M159 36.502C159 36.7785 158.776 37 158.5 37C158.224 37 158 36.7785 158 36.502C158 36.2256 158.224 36 158.5 36C158.776 36 159 36.2256 159 36.502Z" fill="#FEDADA"/>
<path d="M161 36.502C161 36.7785 160.776 37 160.5 37C160.226 37 160 36.7785 160 36.502C160 36.2256 160.226 36 160.5 36C160.776 36 161 36.2256 161 36.502Z" fill="#FEDADA"/>
<path d="M139.198 42.5459C138.207 42.5459 137.4 43.6452 137.4 45C137.4 46.3523 138.207 47.4541 139.198 47.4541H153.802C154.795 47.4541 155.6 46.3523 155.6 45C155.6 43.6452 154.795 42.5459 153.802 42.5459H139.198ZM153.802 48H139.198C137.987 48 137 46.6528 137 45C137 43.3447 137.987 42 139.198 42H153.802C155.015 42 156 43.3447 156 45C156 46.6528 155.015 48 153.802 48Z" fill="#664D49"/>
<path d="M139.198 49.4549C138.207 49.4549 137.4 50.371 137.4 51.5C137.4 52.6269 138.207 53.5451 139.198 53.5451H153.802C154.795 53.5451 155.6 52.6269 155.6 51.5C155.6 50.371 154.795 49.4549 153.802 49.4549H139.198ZM153.802 54H139.198C137.987 54 137 52.8773 137 51.5C137 50.1206 137.987 49 139.198 49H153.802C155.015 49 156 50.1206 156 51.5C156 52.8773 155.015 54 153.802 54Z" fill="#664D49"/>
<path d="M141 44.5C141 44.7762 140.552 45 140 45C139.448 45 139 44.7762 139 44.5C139 44.2239 139.448 44 140 44C140.552 44 141 44.2239 141 44.5Z" fill="#664D49"/>
<path d="M143 44.5C143 44.7762 142.776 45 142.5 45C142.224 45 142 44.7762 142 44.5C142 44.2239 142.224 44 142.5 44C142.776 44 143 44.2239 143 44.5Z" fill="#664D49"/>
<path d="M146 44.5C146 44.7762 145.553 45 145.001 45C144.447 45 144 44.7762 144 44.5C144 44.2239 144.447 44 145.001 44C145.553 44 146 44.2239 146 44.5Z" fill="#664D49"/>
<path d="M148 44.5C148 44.7762 147.776 45 147.5 45C147.224 45 147 44.7762 147 44.5C147 44.2239 147.224 44 147.5 44C147.776 44 148 44.2239 148 44.5Z" fill="#664D49"/>
<path d="M150 44.5C150 44.7762 149.776 45 149.5 45C149.224 45 149 44.7762 149 44.5C149 44.2239 149.224 44 149.5 44C149.776 44 150 44.2239 150 44.5Z" fill="#664D49"/>
<path d="M141 51.5006C141 51.7764 140.552 52 140 52C139.448 52 139 51.7764 139 51.5006C139 51.2248 139.448 51 140 51C140.552 51 141 51.2248 141 51.5006Z" fill="#664D49"/>
<path d="M143 51.5006C143 51.7764 142.776 52 142.5 52C142.224 52 142 51.7764 142 51.5006C142 51.2248 142.224 51 142.5 51C142.776 51 143 51.2248 143 51.5006Z" fill="#664D49"/>
<path d="M146 51.5006C146 51.7764 145.553 52 145.001 52C144.447 52 144 51.7764 144 51.5006C144 51.2248 144.447 51 145.001 51C145.553 51 146 51.2248 146 51.5006Z" fill="#664D49"/>
<path d="M148 51.5006C148 51.7764 147.776 52 147.5 52C147.224 52 147 51.7764 147 51.5006C147 51.2248 147.224 51 147.5 51C147.776 51 148 51.2248 148 51.5006Z" fill="#664D49"/>
<path d="M150 51.5006C150 51.7764 149.776 52 149.5 52C149.224 52 149 51.7764 149 51.5006C149 51.2248 149.224 51 149.5 51C149.776 51 150 51.2248 150 51.5006Z" fill="#664D49"/>
<path d="M202 236.755L192.682 249L185 235.437C187.226 233.893 189.86 233 192.682 233C196.23 233 199.48 234.411 202 236.755Z" fill="#FE665E"/>
<path d="M185.454 235.65L192.724 248.434L201.541 236.893C199.053 234.651 195.923 233.42 192.701 233.42C190.135 233.42 187.633 234.191 185.454 235.65ZM192.701 249L192.687 248.998C192.626 248.994 192.572 248.958 192.538 248.9L185.029 235.694C184.973 235.596 185.001 235.467 185.09 235.406C187.368 233.831 189.998 233 192.701 233C196.075 233 199.354 234.316 201.932 236.707C202.013 236.78 202.023 236.912 201.955 237.001L192.846 248.925C192.809 248.971 192.757 249 192.701 249Z" fill="#664D49"/>
<path d="M208 250H194L203.011 238C206.061 240.877 208 245.185 208 250Z" fill="#FEDADA"/>
<path d="M194.619 249.592H208.607C208.551 245.317 206.743 241.292 203.621 238.493L194.619 249.592ZM208.803 250H194.197C194.12 250 194.051 249.953 194.019 249.882C193.986 249.811 193.997 249.725 194.046 249.665L203.448 238.072C203.482 238.03 203.529 238.004 203.582 238.001C203.634 237.997 203.684 238.014 203.726 238.047C207.078 240.974 209 245.257 209 249.796C209 249.908 208.913 250 208.803 250Z" fill="#664D49"/>
<path d="M207 250.846C207 259.216 200.509 266 192.501 266C184.493 266 178 259.216 178 250.846C178 245.432 180.719 240.679 184.806 238L192.501 250.846H207Z" fill="white"/>
<path d="M184.848 238.48C180.798 241.211 178.385 245.824 178.385 250.863C178.385 258.989 184.718 265.598 192.501 265.598C200.219 265.598 206.51 259.097 206.615 251.064H192.501C192.434 251.064 192.372 251.029 192.337 250.97L184.848 238.48ZM192.501 266C184.506 266 178 259.21 178 250.863C178 245.617 180.545 240.821 184.806 238.03C184.848 238.002 184.901 237.993 184.951 238.006C185 238.017 185.045 238.048 185.071 238.094L192.607 250.661H206.807C206.915 250.661 207 250.752 207 250.863C207 259.21 200.496 266 192.501 266Z" fill="#664D49"/>
<path d="M99.8031 95H70.1969C70.0885 95 70 94.9142 70 94.8052V79.1948C70 79.0858 70.0885 79 70.1969 79C70.3052 79 70.3937 79.0858 70.3937 79.1948V94.6104H99.8031C99.9115 94.6104 100 94.698 100 94.8052C100 94.9142 99.9115 95 99.8031 95Z" fill="#664D49"/>
<path d="M71.7852 80C71.7321 80 71.677 79.9748 71.6337 79.9266L70.499 78.6036L69.3663 79.9266C69.2817 80.0229 69.146 80.0229 69.0634 79.9266C68.9789 79.828 68.9789 79.6698 69.0634 79.5735L70.3476 78.0739C70.4322 77.9754 70.5679 77.9754 70.6524 78.0739L71.9366 79.5735C72.0211 79.6698 72.0211 79.828 71.9366 79.9266C71.8953 79.9748 71.8402 80 71.7852 80Z" fill="#664D49"/>
<path d="M99.1256 96C99.0935 96 99.0614 95.9803 99.0361 95.9371C98.988 95.8545 98.988 95.7188 99.0361 95.6342L99.6978 94.4995L99.0361 93.3668C98.988 93.2822 98.988 93.1465 99.0361 93.0619C99.0854 92.9794 99.1646 92.9794 99.2139 93.0619L99.9639 94.3481C100.012 94.4326 100.012 94.5683 99.9639 94.6529L99.2139 95.9371C99.1887 95.9803 99.1565 96 99.1256 96Z" fill="#664D49"/>
<path d="M70.2001 95C70.1578 95 70.1137 94.9871 70.077 94.9595C69.9906 94.8914 69.974 94.7644 70.042 94.6779L77.4873 85.0547C77.5387 84.9884 77.6251 84.9608 77.7041 84.9847L86.1822 87.582L94.6769 81.042C94.7651 80.9739 94.8901 80.9904 94.9581 81.0788C95.0261 81.1671 95.0096 81.2923 94.9213 81.3604L86.344 87.963C86.2925 88.0035 86.2264 88.0164 86.1639 87.9961L77.7188 85.41L70.3581 94.9227C70.3195 94.9742 70.2607 95 70.2001 95Z" fill="#664D49"/>
<path d="M79 84.9991C79 85.5524 78.5524 86 77.9991 86C77.4476 86 77 85.5524 77 84.9991C77 84.4476 77.4476 84 77.9991 84C78.5524 84 79 84.4476 79 84.9991Z" fill="#FE665E"/>
<path d="M77.4989 84.4834C76.9401 84.4834 76.4834 84.9401 76.4834 85.4989C76.4834 86.0599 76.9401 86.5166 77.4989 86.5166C78.0598 86.5166 78.5166 86.0599 78.5166 85.4989C78.5166 84.9401 78.0598 84.4834 77.4989 84.4834ZM77.4989 87C76.6718 87 76 86.3259 76 85.4989C76 84.6718 76.6718 84 77.4989 84C78.3259 84 79 84.6718 79 85.4989C79 86.3259 78.3259 87 77.4989 87Z" fill="#664D49"/>
<path d="M87 88C87 88.552 86.5524 89 86.0009 89C85.4494 89 85 88.552 85 88C85 87.448 85.4494 87 86.0009 87C86.5524 87 87 87.448 87 88Z" fill="#FE665E"/>
<path d="M86.0008 87.3225C85.6268 87.3225 85.3237 87.6257 85.3237 88C85.3237 88.3743 85.6268 88.6775 86.0008 88.6775C86.3747 88.6775 86.6777 88.3743 86.6777 88C86.6777 87.6257 86.3747 87.3225 86.0008 87.3225ZM86.0008 89C85.4494 89 85 88.5518 85 88C85 87.4482 85.4494 87 86.0008 87C86.5521 87 87 87.4482 87 88C87 88.5518 86.5521 89 86.0008 89Z" fill="#664D49"/>
<path d="M95 80.9991C95 81.5524 94.5524 82 93.9991 82C93.4476 82 93 81.5524 93 80.9991C93 80.4476 93.4476 80 93.9991 80C94.5524 80 95 80.4476 95 80.9991Z" fill="#FE665E"/>
<path d="M94.4989 80.4834C93.9401 80.4834 93.4833 80.9401 93.4833 81.4989C93.4833 82.0599 93.9401 82.5166 94.4989 82.5166C95.0599 82.5166 95.5167 82.0599 95.5167 81.4989C95.5167 80.9401 95.0599 80.4834 94.4989 80.4834ZM94.4989 83C93.6718 83 93 82.3259 93 81.4989C93 80.6718 93.6718 80 94.4989 80C95.326 80 96 80.6718 96 81.4989C96 82.3259 95.326 83 94.4989 83Z" fill="#664D49"/>
<path d="M77.5 88C77.2248 88 77 87.9371 77 87.8571V87.1428C77 87.0642 77.2248 87 77.5 87C77.7798 87 78 87.0642 78 87.1428V87.8571C78 87.9371 77.7798 88 77.5 88Z" fill="#664D49"/>
<path d="M77.5 91C77.2248 91 77 90.9361 77 90.8579V90.1421C77 90.0626 77.2248 90 77.5 90C77.7798 90 78 90.0626 78 90.1421V90.8579C78 90.9361 77.7798 91 77.5 91Z" fill="#664D49"/>
<path d="M77.5 94C77.2248 94 77 93.9358 77 93.8572V93.1429C77 93.0642 77.2248 93 77.5 93C77.7798 93 78 93.0642 78 93.1429V93.8572C78 93.9358 77.7798 94 77.5 94Z" fill="#664D49"/>
<path d="M94.5 84C94.2248 84 94 83.9371 94 83.8571V83.1428C94 83.0642 94.2248 83 94.5 83C94.7798 83 95 83.0642 95 83.1428V83.8571C95 83.9371 94.7798 84 94.5 84Z" fill="#664D49"/>
<path d="M94.5 90C94.2248 90 94 89.918 94 89.8176V88.1824C94 88.082 94.2248 88 94.5 88C94.7798 88 95 88.082 95 88.1824V89.8176C95 89.918 94.7798 90 94.5 90Z" fill="#664D49"/>
<path d="M94.5 94C94.2248 94 94 93.9358 94 93.8572V93.1429C94 93.0642 94.2248 93 94.5 93C94.7798 93 95 93.0642 95 93.1429V93.8572C95 93.9358 94.7798 94 94.5 94Z" fill="#664D49"/>
<path d="M222 140.453L217 133L212 140.453H214.841V157H219.159V140.453H222Z" fill="#FE665E"/>
<path d="M215.111 156.609H218.889V140.523C218.889 140.415 218.972 140.327 219.078 140.327H221.455L217 133.538L212.545 140.327H214.922C215.028 140.327 215.111 140.415 215.111 140.523V156.609ZM219.078 157H214.922C214.819 157 214.734 156.912 214.734 156.804V140.718H212.189C212.118 140.718 212.054 140.679 212.021 140.614C211.99 140.55 211.993 140.473 212.033 140.413L216.844 133.081C216.913 132.973 217.087 132.973 217.156 133.081L221.967 140.413C222.007 140.473 222.01 140.55 221.979 140.614C221.946 140.679 221.882 140.718 221.811 140.718H219.266V156.804C219.266 156.912 219.181 157 219.078 157Z" fill="#664D49"/>
<path d="M212 146.437L207.001 139L202 146.437H204.842V157H209.158V146.437H212Z" fill="#FEDADA"/>
<path d="M205.112 156.612H208.888V146.468C208.888 146.361 208.973 146.274 209.076 146.274H211.455L207.001 139.534L202.545 146.274H204.924C205.027 146.274 205.112 146.361 205.112 146.468V156.612ZM209.076 157H204.924C204.82 157 204.735 156.913 204.735 156.806V146.662H202.188C202.119 146.662 202.055 146.623 202.022 146.559C201.989 146.495 201.993 146.418 202.033 146.359L206.843 139.08C206.914 138.973 207.086 138.973 207.157 139.08L211.967 146.359C212.007 146.418 212.011 146.495 211.978 146.559C211.945 146.623 211.881 146.662 211.812 146.662H209.265V156.806C209.265 156.913 209.18 157 209.076 157Z" fill="#664D49"/>
<path d="M232 146.437L226.999 139L222 146.437H224.842V157H229.158V146.437H232Z" fill="#FEDADA"/>
<path d="M225.112 156.612H228.888V146.468C228.888 146.361 228.973 146.274 229.076 146.274H231.455L226.999 139.534L222.545 146.274H224.924C225.027 146.274 225.112 146.361 225.112 146.468V156.612ZM229.076 157H224.924C224.82 157 224.735 156.913 224.735 156.806V146.662H222.188C222.119 146.662 222.055 146.623 222.022 146.559C221.989 146.495 221.993 146.418 222.033 146.359L226.843 139.08C226.914 138.973 227.086 138.973 227.157 139.08L231.967 146.359C232.007 146.418 232.011 146.495 231.978 146.559C231.945 146.623 231.881 146.662 231.812 146.662H229.265V156.806C229.265 156.913 229.18 157 229.076 157Z" fill="#664D49"/>
</svg>
