<svg width="111" height="70" viewBox="0 0 111 70" fill="none" xmlns="http://www.w3.org/2000/svg">
<g clip-path="url(#clip0_566_1186)">
<path d="M68.1534 33.9172H27.9417C27.8282 33.9172 27.7193 33.8721 27.639 33.7918C27.5588 33.7115 27.5137 33.6027 27.5137 33.4891V0.759067C27.5137 0.645551 27.5588 0.536684 27.639 0.456416C27.7193 0.376148 27.8282 0.331055 27.9417 0.331055H68.1534C68.2669 0.331055 68.3758 0.376148 68.4561 0.456416C68.5363 0.536684 68.5814 0.645551 68.5814 0.759067V7.24773C68.5814 7.36125 68.5363 7.47011 68.4561 7.55038C68.3758 7.63065 68.2669 7.67574 68.1534 7.67574C68.0399 7.67574 67.931 7.63065 67.8508 7.55038C67.7705 7.47011 67.7254 7.36125 67.7254 7.24773V1.18708H28.3697V33.044H67.7254V14.1601C67.7254 14.0466 67.7705 13.9377 67.8508 13.8575C67.931 13.7772 68.0399 13.7321 68.1534 13.7321C68.2669 13.7321 68.3758 13.7772 68.4561 13.8575C68.5363 13.9377 68.5814 14.0466 68.5814 14.1601V33.4891C68.5814 33.5454 68.5704 33.601 68.5488 33.6529C68.5273 33.7049 68.4958 33.7521 68.4561 33.7918C68.4163 33.8315 68.3691 33.8631 68.3172 33.8846C68.2653 33.9061 68.2096 33.9172 68.1534 33.9172Z" fill="#DFEAEF"/>
<path d="M31.7209 48.1402C31.7209 48.1402 32.6626 47.6651 33.403 49.8908C34.1435 52.1164 33.1034 65.9712 33.1034 65.9712L28.4937 65.8L26.8887 50.9693L31.7209 48.1402Z" fill="#FFC9B0"/>
<path d="M33.1041 66.3988L28.4944 66.2276C28.3917 66.2229 28.294 66.1814 28.2194 66.1107C28.1447 66.04 28.098 65.9447 28.0878 65.8424L26.4785 51.016C26.4671 50.9319 26.4809 50.8463 26.5183 50.7701C26.5556 50.6939 26.6148 50.6305 26.6882 50.588L31.5205 47.7546H31.5462C31.6813 47.6962 31.827 47.666 31.9742 47.666C32.1214 47.666 32.2671 47.6962 32.4022 47.7546C32.9757 47.9943 33.4508 48.6662 33.8146 49.7491C34.5722 52.0304 33.5749 65.4315 33.5321 66.0136C33.5215 66.1195 33.4717 66.2177 33.3926 66.2889C33.3135 66.3601 33.2106 66.3993 33.1041 66.3988ZM28.8796 65.3887L32.7061 65.5342C33.0057 61.4253 33.5621 51.7265 32.9971 50.0273C32.6462 48.9701 32.2823 48.662 32.0983 48.5678C32.0395 48.5357 31.9723 48.5222 31.9057 48.5293L27.3431 51.2044L28.8796 65.3887Z" fill="#093F68"/>
<path d="M14.6162 29.707L17.2641 29.882L17.1543 31.5433C17.1339 31.8525 16.9915 32.141 16.7584 32.3452C16.5253 32.5494 16.2206 32.6526 15.9114 32.6322L15.5953 32.6113C15.2861 32.5909 14.9977 32.4485 14.7935 32.2154C14.5893 31.9823 14.486 31.6776 14.5064 31.3684L14.6162 29.707Z" fill="#FFC9B0"/>
<path d="M15.9919 33.057H15.8892H15.5724C15.1479 33.0274 14.7525 32.8304 14.4732 32.5094C14.1939 32.1883 14.0535 31.7695 14.0829 31.345L14.1942 29.68C14.2025 29.5676 14.2548 29.463 14.3398 29.3889C14.4243 29.314 14.5351 29.2755 14.6479 29.2819L17.2973 29.4574C17.4097 29.4657 17.5143 29.518 17.5884 29.6029C17.6633 29.6875 17.7018 29.7983 17.6954 29.9111L17.5755 31.5761C17.5464 31.977 17.3672 32.3521 17.0737 32.6266C16.7801 32.9011 16.3938 33.0548 15.9919 33.057ZM15.9448 32.201C16.042 32.2085 16.1397 32.1966 16.2322 32.1659C16.3247 32.1352 16.4102 32.0863 16.4835 32.0221C16.5569 31.9579 16.6167 31.8797 16.6594 31.7921C16.7021 31.7045 16.7269 31.6092 16.7323 31.5119L16.8137 30.2749L15.0203 30.1551L14.939 31.392C14.926 31.5878 14.9914 31.7807 15.1206 31.9284C15.2498 32.0761 15.4323 32.1664 15.6281 32.1796L15.9448 32.201Z" fill="#093F68"/>
<path d="M18.5174 30.4674C16.9209 31.0025 15.1789 30.613 13.7151 29.8768C12.9533 29.4916 11.7848 29.1064 11.7891 28.0962C11.8126 27.661 11.945 27.2386 12.1743 26.8679C12.7071 25.994 13.0918 25.0381 13.3128 24.0387C13.5011 22.806 12.8848 21.6161 13.2614 20.3621C13.8949 18.222 16.7455 17.6827 18.6201 17.2847C19.0754 17.1593 19.5493 17.1158 20.0197 17.1563C21.2182 17.3403 21.2567 18.7399 21.5734 19.6901L22.3695 22.0613C23.568 25.5838 22.1084 29.2647 18.5174 30.4674Z" fill="#FFC9B0"/>
<path d="M16.9459 31.148C15.7513 31.1259 14.5785 30.8239 13.5218 30.2663L13.1965 30.1122C12.4218 29.7441 11.3561 29.2562 11.3604 28.1049C11.3795 27.5984 11.5267 27.1051 11.7884 26.671C12.2962 25.839 12.6649 24.9296 12.8798 23.9788C12.931 23.4746 12.908 22.9655 12.8113 22.4679C12.6547 21.7346 12.665 20.9754 12.8413 20.2466C13.5261 17.9353 16.428 17.319 18.3455 16.9123L18.521 16.8738C19.0278 16.7345 19.5562 16.6909 20.079 16.7454C21.3031 16.9337 21.5898 18.0979 21.791 18.9497C21.8424 19.1637 21.8937 19.3777 21.9579 19.5617L22.7498 21.9329C23.3727 23.6745 23.3285 25.5851 22.6256 27.2959C22.2526 28.1368 21.7059 28.8892 21.0213 29.5037C20.3367 30.1182 19.5298 30.5809 18.6537 30.8613C18.1037 31.0487 17.527 31.1456 16.9459 31.148ZM19.6852 17.5715C19.3561 17.584 19.0292 17.6299 18.7093 17.7084L18.5338 17.747C16.7105 18.1365 14.2109 18.6672 13.6673 20.4905C13.5346 21.1026 13.5346 21.736 13.6673 22.3481C13.7765 22.9294 13.7995 23.5235 13.7358 24.1115C13.5072 25.161 13.1051 26.1649 12.546 27.0819C12.3572 27.3923 12.2443 27.7427 12.2164 28.1049C12.2164 28.6613 12.7728 28.9609 13.5603 29.3375L13.907 29.5045C15.495 30.3048 17.0829 30.506 18.3798 30.0694C19.145 29.8329 19.8501 29.434 20.4469 28.8999C21.0438 28.3659 21.5183 27.7092 21.8381 26.9749C22.4695 25.456 22.5138 23.7566 21.9622 22.2069L21.1661 19.8357C21.0976 19.6217 21.0377 19.4077 20.9778 19.1551C20.7552 18.2435 20.5498 17.6828 19.9548 17.5886C19.8657 17.5736 19.7756 17.5651 19.6852 17.5629V17.5715Z" fill="#093F68"/>
<path d="M21.4277 21.7017C21.4277 21.7017 23.8332 23.8417 23.4608 24.0857C23.0119 24.3019 22.5413 24.4697 22.0569 24.5865" fill="#FFC9B0"/>
<path d="M22.0609 25.0146C21.9631 25.0175 21.8673 24.9868 21.7895 24.9276C21.7116 24.8684 21.6563 24.7843 21.6329 24.6894C21.6056 24.5798 21.6227 24.464 21.6804 24.367C21.7381 24.27 21.8318 24.1997 21.9411 24.1715C22.2107 24.103 22.6387 23.9746 22.9426 23.859C22.389 23.1998 21.7852 22.5844 21.1364 22.0186C21.0586 21.9414 21.0133 21.8372 21.01 21.7277C21.0066 21.6181 21.0455 21.5114 21.1185 21.4296C21.1915 21.3478 21.2931 21.2972 21.4023 21.2881C21.5116 21.279 21.6202 21.3122 21.7057 21.3808C23.9698 23.4053 23.9313 23.8761 23.9185 24.0516C23.9135 24.1313 23.8895 24.2085 23.8485 24.277C23.8076 24.3455 23.7509 24.4033 23.6831 24.4454C23.196 24.6894 22.6816 24.8747 22.1508 24.9975C22.1219 25.008 22.0916 25.0138 22.0609 25.0146Z" fill="#093F68"/>
<path d="M13.7539 22.4806C13.7539 22.4806 11.8278 21.9199 11.4512 23.5977C11.0745 25.2755 12.6838 27.3728 15.0379 25.8148" fill="#FFC9B0"/>
<path d="M13.4412 26.7864C12.9702 26.7907 12.5096 26.6486 12.1229 26.3798C11.6812 26.0584 11.343 25.615 11.1498 25.104C10.9567 24.593 10.917 24.0368 11.0358 23.5035C11.0808 23.2456 11.1804 23.0002 11.3281 22.7839C11.4757 22.5676 11.6679 22.3854 11.8918 22.2495C12.5066 21.9492 13.2103 21.8852 13.8692 22.0697C13.9782 22.1015 14.0701 22.1753 14.1246 22.2748C14.1792 22.3743 14.192 22.4915 14.1602 22.6004C14.1285 22.7094 14.0547 22.8013 13.9552 22.8559C13.8556 22.9105 13.7385 22.9233 13.6295 22.8915C13.1965 22.7713 12.7353 22.8046 12.3241 22.9857C12.2018 23.0639 12.0977 23.1674 12.0187 23.2892C11.9397 23.411 11.8877 23.5483 11.8661 23.6919C11.7861 24.058 11.8129 24.4394 11.9434 24.7907C12.0739 25.1421 12.3026 25.4485 12.6023 25.6736C13.1929 26.0802 13.9719 26.0031 14.798 25.4596C14.8928 25.3994 15.0074 25.3788 15.1172 25.4024C15.227 25.4259 15.3231 25.4916 15.3849 25.5854C15.4467 25.6792 15.4691 25.7935 15.4474 25.9036C15.4257 26.0138 15.3615 26.111 15.2688 26.1743C14.7323 26.5522 14.097 26.765 13.4412 26.7864Z" fill="#093F68"/>
<path d="M17.1944 21.2566C16.9879 21.2542 16.7892 21.1771 16.635 21.0396C16.4808 20.9022 16.3815 20.7136 16.3555 20.5087C16.3294 20.3038 16.3783 20.0964 16.4932 19.9247C16.608 19.753 16.7811 19.6287 16.9804 19.5746L19.6811 18.8812C19.7915 18.8481 19.9073 18.8377 20.0218 18.8505C20.1362 18.8633 20.2469 18.8991 20.3472 18.9556C20.4475 19.0122 20.5353 19.0884 20.6055 19.1797C20.6756 19.2711 20.7266 19.3756 20.7554 19.4871C20.7843 19.5986 20.7903 19.7147 20.7731 19.8286C20.756 19.9425 20.7161 20.0517 20.6557 20.1498C20.5954 20.2479 20.5159 20.3328 20.422 20.3994C20.3281 20.466 20.2217 20.513 20.1092 20.5376L17.4084 21.231C17.3387 21.2498 17.2666 21.2584 17.1944 21.2566Z" fill="#093F68"/>
<path d="M19.7281 21.9074C20.0898 21.9074 20.383 21.6142 20.383 21.2525C20.383 20.8908 20.0898 20.5977 19.7281 20.5977C19.3664 20.5977 19.0732 20.8908 19.0732 21.2525C19.0732 21.6142 19.3664 21.9074 19.7281 21.9074Z" fill="#093F68"/>
<path d="M21.0976 26.8677C20.9637 26.9692 20.8054 27.0337 20.6386 27.0547C20.4718 27.0758 20.3024 27.0526 20.1475 26.9875" fill="#FFC9B0"/>
<path d="M20.5457 27.4715C20.3683 27.4693 20.1923 27.4404 20.0235 27.3859C19.9183 27.3498 19.8313 27.2741 19.7809 27.175C19.7304 27.0758 19.7206 26.961 19.7534 26.8547C19.7863 26.7484 19.8592 26.6591 19.9567 26.6056C20.0543 26.5522 20.1688 26.5388 20.276 26.5684C20.3608 26.6072 20.4536 26.6252 20.5467 26.6207C20.6398 26.6162 20.7305 26.5895 20.8111 26.5427C20.8958 26.4705 21.0053 26.4341 21.1163 26.4413C21.2274 26.4485 21.3313 26.4987 21.406 26.5812C21.4794 26.6604 21.5202 26.7643 21.5202 26.8722C21.5202 26.9802 21.4794 27.0842 21.406 27.1633C21.1695 27.3728 20.8614 27.4832 20.5457 27.4715Z" fill="#093F68"/>
<path d="M21.2434 47.3223L10.1151 48.1398L9.33187 36.2839C9.26897 34.9705 9.72916 33.6858 10.6116 32.7111C11.4941 31.7363 12.7269 31.1511 14.04 31.0835L15.2256 31.0279C16.5392 30.9638 17.8246 31.4236 18.7996 32.3063C19.7746 33.189 20.3595 34.4225 20.4259 35.736L21.2434 47.3223Z" fill="#FFBC0E"/>
<path d="M10.1158 48.5679C10.0117 48.5677 9.91131 48.5297 9.83328 48.4609C9.79073 48.4237 9.75596 48.3784 9.73098 48.3278C9.70601 48.2771 9.69131 48.2219 9.68775 48.1655L8.90449 36.2839C8.86823 35.5749 8.97253 34.8657 9.2114 34.1972C9.45028 33.5286 9.819 32.9139 10.2964 32.3884C10.7737 31.863 11.3503 31.4371 11.9929 31.1352C12.6355 30.8334 13.3314 30.6617 14.0406 30.6299L15.2262 30.57C16.6564 30.5025 18.0548 31.0056 19.1142 31.9687C20.1735 32.9318 20.8072 34.276 20.876 35.7061L21.6849 47.2967C21.692 47.4089 21.6547 47.5193 21.581 47.6042C21.5073 47.6891 21.4032 47.7416 21.2912 47.7504L10.1628 48.5636L10.1158 48.5679ZM15.4788 31.4474H15.2562L14.0706 31.503C12.8691 31.5618 11.7402 32.0952 10.9319 32.9862C10.1237 33.8771 9.70234 35.0525 9.76052 36.254L10.5138 47.6862L20.7861 46.9372L20.0028 35.766C19.948 34.6017 19.4479 33.5029 18.6059 32.6967C17.7639 31.8906 16.6444 31.4388 15.4788 31.4346V31.4474Z" fill="#093F68"/>
<path d="M10.6807 48.7394C10.6807 48.7394 11.1087 52.63 14.2888 52.9681C16.8569 53.2421 24.1844 53.2335 26.8938 53.2207C27.4716 53.2207 32.9972 48.0503 32.9972 48.0503C31.9871 46.869 21.6249 46.5522 21.6249 46.5522L10.6807 48.7394Z" fill="#093F68"/>
<path d="M24.7746 53.6529C21.3505 53.6529 16.3214 53.6143 14.2412 53.3918C11.4378 53.0965 10.4105 50.2502 10.2565 48.7864C10.2448 48.6799 10.2735 48.5728 10.3369 48.4865C10.4003 48.4001 10.4938 48.3406 10.5989 48.3198L21.5389 46.1284H21.6373C24.1112 46.2055 32.2691 46.5564 33.322 47.7763C33.3935 47.8602 33.4298 47.9684 33.4234 48.0785C33.417 48.1885 33.3684 48.2918 33.2878 48.3669C27.6423 53.6486 27.0816 53.6529 26.8976 53.6529H24.7746ZM11.1553 49.0774C11.3436 50.0105 12.037 52.3004 14.3183 52.5443C16.8393 52.8097 23.8672 52.8054 26.8291 52.7926C27.3427 52.5657 29.9151 50.3187 32.2905 48.1101C30.8695 47.5623 26.0672 47.1214 21.6459 46.9844L11.1553 49.0774Z" fill="#093F68"/>
<path d="M28.4941 65.7998V69.2239H36.3952L33.1038 65.971L28.4941 65.7998Z" fill="#FFBC0E"/>
<path d="M36.4084 69.6691H28.4944C28.3809 69.6691 28.272 69.624 28.1918 69.5437C28.1115 69.4634 28.0664 69.3546 28.0664 69.241V65.817C28.0666 65.7593 28.0785 65.7023 28.1013 65.6493C28.1241 65.5964 28.1574 65.5486 28.1991 65.5088C28.2405 65.4688 28.2894 65.4377 28.3431 65.4171C28.3968 65.3965 28.4541 65.3869 28.5115 65.3889L33.1212 65.5644C33.227 65.5681 33.3276 65.6108 33.4037 65.6843L36.6951 68.9329C36.756 68.9915 36.7981 69.0668 36.8163 69.1493C36.8344 69.2318 36.8277 69.3178 36.797 69.3965C36.7664 69.4752 36.7131 69.5431 36.644 69.5916C36.5748 69.6401 36.4928 69.6671 36.4084 69.6691ZM28.9353 68.813H35.3555L32.9243 66.4119L28.9267 66.2621L28.9353 68.813Z" fill="#093F68"/>
<path d="M19.2874 32.7871C19.2874 32.7871 23.9955 39.2758 25.3951 39.2629C26.7947 39.2501 30.6211 39.5711 30.6211 39.5711L31.7126 42.5372C31.7126 42.5372 26.7134 43.3248 23.3492 42.5372C19.985 41.7497 14.7119 36.117 14.7119 36.117" fill="#FFBC0E"/>
<path d="M27.0178 43.3162C25.75 43.335 24.4841 43.2145 23.2427 42.9567C19.7929 42.1477 14.6097 36.6478 14.3914 36.4167C14.3136 36.3338 14.272 36.2234 14.2756 36.1099C14.2792 35.9963 14.3278 35.8888 14.4107 35.811C14.4935 35.7333 14.6039 35.6916 14.7175 35.6952C14.8311 35.6988 14.9385 35.7474 15.0163 35.8303C15.0677 35.8859 20.2381 41.373 23.4396 42.1221C26.059 42.7341 29.7656 42.3575 31.1181 42.1863L30.3049 39.9734C29.4146 39.9007 26.5598 39.6738 25.3913 39.691C23.8676 39.691 20.0711 34.6019 18.9412 33.0396C18.8748 32.9471 18.8478 32.832 18.8663 32.7196C18.8848 32.6073 18.9471 32.5068 19.0396 32.4404C19.1321 32.374 19.2472 32.3471 19.3596 32.3655C19.472 32.384 19.5724 32.4464 19.6388 32.5389C21.826 35.5692 24.6466 38.8349 25.387 38.8349H25.4983C26.9878 38.8349 30.5061 39.1303 30.6602 39.1431C30.7414 39.1506 30.8188 39.1812 30.8833 39.2312C30.9478 39.2813 30.9966 39.3487 31.024 39.4256L32.1154 42.3917C32.1369 42.4511 32.145 42.5145 32.139 42.5774C32.1331 42.6403 32.1134 42.7012 32.0811 42.7555C32.0489 42.8101 32.0049 42.8569 31.9523 42.8924C31.8998 42.928 31.84 42.9514 31.7773 42.961C30.201 43.1906 28.6106 43.3093 27.0178 43.3162Z" fill="#093F68"/>
<path d="M14.6952 14.2542C12.2855 14.3098 9.69173 14.9518 8.00537 16.7837C6.22484 18.7183 6.19916 21.8728 6.84973 24.2911C7.48319 26.6451 8.91703 29.2132 10.8474 30.7412C12.7777 32.2692 15.6582 32.4104 18.1236 31.8754L15.8637 23.2467C15.5855 22.1981 15.1318 21.1066 15.5341 20.0965C16.0006 18.9452 16.5913 17.9222 16.8995 16.6981C18.3981 17.3658 19.9575 17.8875 21.5562 18.2561C20.7986 16.9164 20.0582 15.7479 18.65 15.0631C17.4144 14.4843 16.0589 14.207 14.6952 14.2542Z" fill="#725858"/>
<path d="M15.4873 32.5946C13.7274 32.6581 11.9981 32.1224 10.5823 31.0751C8.74183 29.6199 7.15818 27.0604 6.43484 24.4067C5.77571 21.9542 5.75859 18.59 7.6932 16.4928C9.62781 14.3955 12.5725 13.8733 14.6869 13.8263C16.122 13.7763 17.5484 14.0698 18.8472 14.6823C20.3624 15.4185 21.1456 16.6426 21.9417 18.0507C21.9831 18.1226 22.0027 18.205 21.9982 18.2878C21.9936 18.3706 21.9651 18.4504 21.916 18.5173C21.8669 18.5814 21.8006 18.6302 21.7249 18.6583C21.6492 18.6863 21.567 18.6923 21.488 18.6756C20.0239 18.3397 18.5918 17.8772 17.2079 17.2932C16.9923 17.9336 16.7364 18.5597 16.4418 19.1679C16.2791 19.5274 16.1122 19.8869 15.9624 20.2593C15.6799 20.9612 15.911 21.7616 16.155 22.6048C16.2064 22.7846 16.2577 22.9643 16.3048 23.1441L18.5733 31.7685C18.5884 31.8245 18.5921 31.8829 18.584 31.9403C18.5759 31.9977 18.5562 32.0528 18.5262 32.1024C18.4958 32.1512 18.4559 32.1935 18.4088 32.2266C18.3618 32.2597 18.3085 32.2829 18.2523 32.295C17.3436 32.4914 16.4169 32.5919 15.4873 32.5946ZM14.704 14.6823C12.7566 14.7251 10.0687 15.1745 8.32237 17.0749C6.57609 18.9752 6.66169 21.9542 7.26091 24.1799C7.93289 26.6709 9.40097 29.0549 11.113 30.4074C13.129 32.0039 15.8982 31.8541 17.6145 31.5417L15.4745 23.3538C15.4274 23.1826 15.3803 23.0114 15.3289 22.8402C15.0678 21.9371 14.7725 20.9099 15.1663 19.934C15.3204 19.5488 15.4916 19.1764 15.6585 18.8083C16.0127 18.0992 16.2993 17.3583 16.5145 16.5955C16.5298 16.5353 16.558 16.4792 16.5972 16.431C16.6364 16.3828 16.6855 16.3437 16.7413 16.3164C16.7971 16.2891 16.8582 16.2743 16.9203 16.2729C16.9824 16.2716 17.044 16.2838 17.1009 16.3087C18.2656 16.826 19.4674 17.2552 20.6962 17.5928C20.1855 16.68 19.4194 15.9362 18.4919 15.4527C17.3144 14.8994 16.0213 14.6366 14.7212 14.6866L14.704 14.6823Z" fill="#093F68"/>
<path d="M27.3942 45.8032L72.5537 45.8032V42.9141L27.3942 42.9141V45.8032Z" fill="#68E1FD"/>
<path d="M72.5495 46.2353H27.3899C27.2764 46.2353 27.1675 46.1902 27.0873 46.11C27.007 46.0297 26.9619 45.9208 26.9619 45.8073V42.9182C26.9619 42.8047 27.007 42.6959 27.0873 42.6156C27.1675 42.5353 27.2764 42.4902 27.3899 42.4902H72.5495C72.663 42.4902 72.7719 42.5353 72.8521 42.6156C72.9324 42.6959 72.9775 42.8047 72.9775 42.9182V45.8073C72.9775 45.9208 72.9324 46.0297 72.8521 46.11C72.7719 46.1902 72.663 46.2353 72.5495 46.2353ZM27.8179 45.3793H72.1215V43.3463H27.8179V45.3793Z" fill="#093F68"/>
<path d="M34.7129 69.2065H64.5068V45.8071H34.7129V69.2065Z" fill="#68E1FD"/>
<path d="M64.5066 69.6348H34.6956C34.5821 69.6348 34.4732 69.5897 34.3929 69.5095C34.3127 69.4292 34.2676 69.3203 34.2676 69.2068V45.8074C34.2676 45.6939 34.3127 45.585 34.3929 45.5048C34.4732 45.4245 34.5821 45.3794 34.6956 45.3794H64.4895C64.603 45.3794 64.7119 45.4245 64.7922 45.5048C64.8724 45.585 64.9175 45.6939 64.9175 45.8074V69.2068C64.9176 69.3174 64.8749 69.4238 64.7983 69.5036C64.7217 69.5834 64.6171 69.6304 64.5066 69.6348ZM35.1407 68.7788H64.0786V46.2354H35.1236L35.1407 68.7788Z" fill="#093F68"/>
<path d="M47.9219 30.1763L50.4899 30.356L50.3773 31.9654C50.3563 32.265 50.2171 32.5441 49.9904 32.7412C49.7637 32.9383 49.4679 33.0372 49.1682 33.0162L48.8601 32.9946C48.5604 32.9737 48.2813 32.8345 48.0842 32.6078C47.8872 32.381 47.7882 32.0853 47.8092 31.7856L47.9219 30.1763Z" fill="#FFC9B0"/>
<path d="M49.3254 32.9841H49.2184L48.9145 32.9627C48.7103 32.9497 48.5107 32.8964 48.3272 32.806C48.1436 32.7156 47.9798 32.5899 47.8449 32.436C47.7101 32.282 47.607 32.103 47.5416 31.9092C47.4761 31.7153 47.4496 31.5104 47.4636 31.3063L47.5706 29.7013C47.5741 29.6449 47.5888 29.5897 47.6138 29.5391C47.6388 29.4884 47.6735 29.4431 47.7161 29.4059C47.8013 29.3325 47.912 29.2956 48.0243 29.3032L50.5923 29.4701C50.7052 29.4778 50.8104 29.5299 50.8849 29.6149C50.9595 29.6999 50.9974 29.811 50.9904 29.9238L50.8834 31.5332C50.8564 31.9265 50.6817 32.295 50.3943 32.5649C50.107 32.8348 49.7282 32.9861 49.334 32.9884L49.3254 32.9841ZM48.3924 30.1806L48.3153 31.3577C48.3085 31.4497 48.3202 31.5421 48.3496 31.6296C48.379 31.7171 48.4255 31.7978 48.4865 31.867C48.5461 31.9369 48.6194 31.9939 48.7018 32.0344C48.7843 32.0749 48.8741 32.098 48.9659 32.1024L49.2698 32.1238C49.3612 32.1313 49.4532 32.1199 49.54 32.0905C49.6269 32.061 49.7068 32.0141 49.7748 31.9526C49.915 31.8308 50.0012 31.6584 50.0145 31.4732L50.1044 30.2919L48.3924 30.1806Z" fill="#093F68"/>
<path d="M50.96 16.6214C51.118 16.4535 51.322 16.3359 51.5464 16.2832C51.9445 16.172 52.4024 16.0607 52.5779 15.684C52.6281 15.5046 52.6283 15.3149 52.5785 15.1354C52.5287 14.9559 52.4308 14.7933 52.2954 14.6654C52.0424 14.3817 51.7295 14.1578 51.3794 14.0098C51.0293 13.8618 50.6507 13.7933 50.2709 13.8093C50.527 13.6881 50.7579 13.5197 50.9515 13.3128C51.0466 13.2063 51.11 13.0752 51.1342 12.9344C51.1584 12.7937 51.1425 12.6489 51.0885 12.5167C51.0182 12.4081 50.9272 12.3144 50.8207 12.241C50.7142 12.1675 50.5943 12.1158 50.4678 12.0887C49.9461 11.9316 49.3967 11.8886 48.8569 11.9624C48.3171 12.0363 47.7994 12.2253 47.3391 12.5167C47.5715 12.2567 47.74 11.946 47.8313 11.6094C47.8701 11.4417 47.8511 11.2659 47.7773 11.1104C47.7034 10.955 47.5792 10.8291 47.4247 10.7533C47.2751 10.7225 47.1205 10.7258 46.9723 10.7628C46.8241 10.7999 46.6862 10.8698 46.5686 10.9673C45.5095 11.6672 44.7472 12.7346 44.4286 13.9634C41.6165 14.4214 39.8275 16.3817 38.6376 18.8171C37.5676 21.0171 38.3337 23.3497 39.4123 25.3913C40.4576 27.2561 42.006 28.7897 43.8807 29.817C43.8807 29.817 48.0068 28.961 49.2651 25.8065C49.885 24.0601 50.2819 22.2423 50.4464 20.3964C50.5492 19.5804 50.6319 18.76 50.6947 17.9354C50.7032 17.4089 50.6647 16.9424 50.96 16.6214Z" fill="#725858"/>
<path d="M43.847 30.2578C43.78 30.2574 43.7141 30.2413 43.6544 30.2108C41.6935 29.1445 40.079 27.5389 39.0019 25.5839C38.0689 23.8248 36.9732 21.184 38.2187 18.6288C39.6054 15.7782 41.57 14.0833 44.0568 13.5825C44.4404 12.3522 45.2391 11.2933 46.3167 10.5864C46.4897 10.4555 46.6896 10.3645 46.902 10.3201C47.1144 10.2757 47.3341 10.279 47.5451 10.3296C47.7887 10.4338 47.9899 10.6175 48.1158 10.8506C48.2417 11.0838 48.2849 11.3527 48.2384 11.6136C49.0055 11.4057 49.8156 11.4191 50.5754 11.6522C50.9338 11.7433 51.2415 11.9726 51.4314 12.2899C51.5213 12.4841 51.5553 12.6995 51.5296 12.9119C51.5039 13.1244 51.4195 13.3255 51.2859 13.4926C51.7828 13.6578 52.2263 13.9534 52.5699 14.3486C52.7625 14.5352 52.8979 14.7728 52.9601 15.0336C53.0222 15.2945 53.0086 15.5676 52.9209 15.821C52.6855 16.3646 52.1034 16.5272 51.6797 16.6471H51.6155C51.4731 16.6764 51.3423 16.7462 51.2388 16.8482C51.1168 17.0827 51.062 17.3464 51.0804 17.6101C51.0804 17.7128 51.0804 17.8198 51.0804 17.9311C51.012 18.7871 50.9264 19.6431 50.8279 20.4136C50.6577 22.2948 50.2507 24.147 49.6166 25.9264C48.2941 29.2349 44.1038 30.1594 43.9284 30.2065L43.847 30.2578ZM47.2069 11.1428C47.0505 11.1594 46.902 11.2202 46.7789 11.3183C45.7993 11.9605 45.0943 12.9448 44.8015 14.079C44.7809 14.1598 44.7371 14.2329 44.6755 14.2891C44.6139 14.3454 44.5372 14.3825 44.4548 14.3957C42.1008 14.7809 40.3074 16.2961 38.9805 19.0182C38.163 20.7003 38.407 22.6649 39.751 25.203C40.7301 26.9439 42.1636 28.3863 43.8984 29.3761C44.6217 29.1835 47.7976 28.2162 48.8248 25.6567C49.4322 23.9463 49.8205 22.1659 49.9805 20.3579C50.0746 19.5789 50.1602 18.7572 50.2287 17.914C50.2287 17.8113 50.2287 17.7128 50.2287 17.6186C50.1973 17.162 50.3243 16.7085 50.5882 16.3346C50.7976 16.0972 51.076 15.9311 51.3843 15.8595H51.4485C51.7353 15.7782 52.0606 15.6883 52.1376 15.5171C52.2147 15.3459 52.0777 15.1233 51.9236 14.9521C51.7135 14.7175 51.4541 14.5322 51.1641 14.4094C50.8741 14.2866 50.5605 14.2293 50.2458 14.2416C50.1495 14.2464 50.0545 14.2184 49.976 14.1624C49.8976 14.1064 49.8403 14.0255 49.8136 13.9329C49.7869 13.8403 49.7922 13.7413 49.8287 13.6521C49.8652 13.5629 49.9307 13.4886 50.0147 13.4412C50.2224 13.3446 50.4109 13.2112 50.5711 13.0475C50.6126 13.0045 50.6426 12.9518 50.6583 12.8942C50.674 12.8366 50.6749 12.776 50.661 12.7179C50.6353 12.6665 50.5497 12.5852 50.2972 12.5082C49.8347 12.3666 49.347 12.3266 48.8676 12.3909C48.3882 12.4552 47.9283 12.6222 47.5194 12.8806C47.4346 12.934 47.3337 12.956 47.2344 12.9427C47.1351 12.9294 47.0436 12.8816 46.9758 12.8078C46.907 12.7336 46.8666 12.6375 46.8619 12.5364C46.8572 12.4353 46.8885 12.3359 46.9501 12.2557C47.146 12.0519 47.2924 11.8059 47.3781 11.5366C47.4081 11.3782 47.3439 11.1899 47.2497 11.1557L47.2069 11.1428Z" fill="#093F68"/>
<path d="M49.9714 30.8312C48.4648 31.4389 46.7613 31.1693 45.306 30.5401C44.5484 30.2148 43.4014 29.9109 43.3457 28.9351C43.3439 28.5146 43.4453 28.1002 43.6411 27.7281C44.0986 26.6174 44.4358 25.4609 44.6469 24.2783C44.9979 22.8273 45.9095 24.411 46.2048 24.8818C46.2442 24.9586 46.3033 25.0236 46.376 25.0701C46.4556 25.0938 46.5404 25.0938 46.62 25.0701C46.8569 25.0374 47.0851 24.9589 47.292 24.839C47.3567 24.8064 47.4092 24.7539 47.4418 24.6892C47.4579 24.6119 47.4458 24.5314 47.4076 24.4624C46.9239 23.281 46.2862 22.1297 46.1578 20.8585C45.9609 18.864 47.4932 18.8511 48.85 18.0208C49.0297 17.9095 50.883 16.771 50.7589 16.4414L53.1943 22.4807C54.5425 25.8363 53.3655 29.4615 49.9714 30.8312Z" fill="#FFC9B0"/>
<path d="M48.1355 31.5972C47.1022 31.581 46.0829 31.3553 45.1394 30.9338L44.8184 30.8011C44.0437 30.493 42.9865 30.0735 42.9223 28.9607C42.9142 28.4689 43.0305 27.9831 43.2604 27.5482C43.6234 26.7104 43.8919 25.8347 44.0608 24.9374C44.1164 24.6891 44.1721 24.4366 44.2363 24.1798C44.3689 23.6277 44.6172 23.3238 44.9767 23.2596C45.5931 23.1654 46.0767 23.8545 46.5219 24.5736L46.5732 24.6549C46.7111 24.6325 46.8451 24.5907 46.9713 24.5308C46.8728 24.3039 46.7744 24.0728 46.6717 23.8459C46.204 22.9237 45.8875 21.9324 45.7343 20.9098C45.5545 19.0993 46.6802 18.59 47.6732 18.1448C48.0009 18.0048 48.3197 17.8447 48.6277 17.6654C49.2501 17.3248 49.8256 16.9047 50.3397 16.4157C50.3466 16.3186 50.3864 16.2269 50.4524 16.1555C50.5185 16.0841 50.6069 16.0373 50.703 16.0228C50.7992 16.0084 50.8975 16.0271 50.9816 16.0759C51.0657 16.1248 51.1307 16.2008 51.1658 16.2915L53.6012 22.3308C55.0821 26.0031 53.6012 29.8253 50.1428 31.2163C49.5046 31.4718 48.8229 31.6012 48.1355 31.5972ZM45.1351 24.1541C45.1032 24.2271 45.0788 24.3031 45.0623 24.381C45.0024 24.6335 44.9468 24.8817 44.8911 25.1257C44.7113 26.0837 44.4241 27.0184 44.0351 27.9121C43.8696 28.2186 43.7814 28.561 43.7783 28.9093C43.8083 29.4401 44.3604 29.6969 45.1351 30.005L45.4775 30.1463C47.0526 30.8268 48.5934 30.9253 49.8175 30.433C52.8693 29.2004 54.1233 25.9304 52.8136 22.6603L50.6736 17.3102C50.1822 17.7131 49.6599 18.0766 49.1113 18.3973C48.7709 18.5985 48.4178 18.7772 48.0541 18.9324C47.0483 19.3861 46.4962 19.6343 46.616 20.8327C46.7564 21.7645 47.0455 22.6676 47.472 23.5078C47.5919 23.776 47.7074 24.0457 47.8187 24.3168C47.9 24.4818 47.9153 24.6716 47.8615 24.8475C47.8007 25.0114 47.6798 25.146 47.5234 25.2241C47.27 25.3706 46.9912 25.4679 46.7016 25.5109C46.5356 25.5413 46.3644 25.5219 46.2094 25.4553C46.0622 25.3749 45.9406 25.2548 45.8584 25.1086L45.8071 25.023C45.6292 24.7005 45.4025 24.4074 45.1351 24.1541Z" fill="#093F68"/>
<path d="M50.5029 22.1298C50.8362 22.1298 51.1064 21.8596 51.1064 21.5263C51.1064 21.193 50.8362 20.9229 50.5029 20.9229C50.1696 20.9229 49.8994 21.193 49.8994 21.5263C49.8994 21.8596 50.1696 22.1298 50.5029 22.1298Z" fill="#093F68"/>
<path d="M52.082 21.1797C52.082 21.1797 54.526 23.11 54.1793 23.3625C53.7586 23.5969 53.3137 23.7849 52.8525 23.9232" fill="#FFC9B0"/>
<path d="M52.8522 24.3511C52.7387 24.3681 52.6231 24.3393 52.5308 24.2711C52.4385 24.2029 52.377 24.1008 52.36 23.9873C52.343 23.8737 52.3718 23.7581 52.44 23.6658C52.5082 23.5735 52.6103 23.5121 52.7238 23.4951C53.0391 23.3938 53.3491 23.2767 53.6526 23.1441C53.0825 22.5484 52.4688 21.9962 51.8164 21.492C51.7276 21.422 51.6701 21.3196 51.6564 21.2074C51.6428 21.0951 51.6742 20.982 51.7437 20.8927C51.7784 20.8481 51.8216 20.8108 51.8708 20.783C51.9199 20.7552 51.9742 20.7374 52.0303 20.7306C52.0864 20.7239 52.1433 20.7283 52.1977 20.7436C52.252 20.7589 52.3029 20.7849 52.3472 20.82C54.6542 22.6476 54.6456 23.1098 54.6413 23.281C54.6432 23.364 54.6251 23.4461 54.5886 23.5206C54.5521 23.5951 54.4983 23.6597 54.4316 23.7091C53.9758 23.974 53.4902 24.1838 52.9849 24.334C52.9417 24.3459 52.897 24.3517 52.8522 24.3511Z" fill="#093F68"/>
<path d="M44.9128 23.4054C44.9128 23.4054 43.021 22.9773 42.7727 24.6166C42.5245 26.2559 44.1809 28.1862 46.3595 26.547" fill="#FFC9B0"/>
<path d="M44.7202 27.5954C44.3114 27.597 43.9101 27.4859 43.5603 27.2744C43.1125 26.9889 42.7581 26.5786 42.5406 26.0942C42.3231 25.6098 42.252 25.0723 42.3361 24.548C42.3645 24.2921 42.4472 24.0452 42.5785 23.8238C42.7099 23.6023 42.887 23.4115 43.098 23.2639C43.6775 22.9373 44.3564 22.8338 45.0069 22.9729C45.0617 22.9855 45.1135 23.0088 45.1594 23.0414C45.2052 23.0741 45.2441 23.1154 45.2739 23.1632C45.3037 23.2109 45.3238 23.264 45.3331 23.3194C45.3424 23.3749 45.3406 23.4317 45.3279 23.4865C45.3024 23.5963 45.2346 23.6916 45.1393 23.7517C45.0439 23.8118 44.9287 23.8319 44.8186 23.8075C44.398 23.7178 43.9593 23.7768 43.5774 23.9744C43.4651 24.0556 43.3715 24.1599 43.3029 24.2802C43.2342 24.4005 43.1921 24.5341 43.1793 24.6721C43.1242 25.0273 43.1724 25.3908 43.3181 25.7194C43.4638 26.048 43.7009 26.3278 44.0011 26.5254C44.5875 26.8806 45.3279 26.7608 46.0855 26.1915C46.1763 26.1229 46.2907 26.0931 46.4035 26.1087C46.5163 26.1244 46.6182 26.1842 46.6869 26.275C46.7556 26.3658 46.7853 26.4802 46.7697 26.593C46.754 26.7057 46.6942 26.8077 46.6034 26.8764C46.0711 27.3153 45.4096 27.5678 44.7202 27.5954Z" fill="#093F68"/>
<path d="M48.0462 21.7316C47.8431 21.7301 47.6472 21.6565 47.4934 21.524C47.3396 21.3914 47.238 21.2085 47.2066 21.0079C47.1752 20.8072 47.2162 20.602 47.3221 20.4288C47.4281 20.2556 47.5922 20.1257 47.7851 20.0623L50.3532 19.2363C50.5694 19.1664 50.8045 19.1854 51.0068 19.2889C51.2091 19.3925 51.3619 19.5721 51.4318 19.7884C51.5016 20.0046 51.4826 20.2398 51.3791 20.442C51.2755 20.6443 51.0959 20.7972 50.8796 20.867L48.3115 21.6931C48.2254 21.7184 48.136 21.7314 48.0462 21.7316Z" fill="#093F68"/>
<path d="M52.5223 26.0801C52.5223 26.0801 51.5208 26.8933 50.8916 26.8548L52.5223 26.0801Z" fill="#FFC9B0"/>
<path d="M50.9303 27.2959H50.8661C50.7525 27.2897 50.6462 27.2386 50.5703 27.1539C50.4944 27.0692 50.4553 26.9579 50.4616 26.8443C50.4678 26.7308 50.5189 26.6244 50.6036 26.5486C50.6883 26.4727 50.7996 26.4336 50.9131 26.4399C51.2341 26.4399 51.9018 26.0461 52.2528 25.7593C52.2966 25.7238 52.347 25.6972 52.401 25.6812C52.4551 25.6652 52.5118 25.66 52.5679 25.666C52.624 25.6719 52.6783 25.6889 52.7278 25.716C52.7773 25.743 52.821 25.7796 52.8563 25.8235C52.9268 25.9117 52.9596 26.0241 52.9475 26.1364C52.9355 26.2486 52.8797 26.3515 52.7921 26.4228C52.6081 26.5597 51.6793 27.2959 50.9303 27.2959Z" fill="#093F68"/>
<path d="M54.3843 46.7532L43.6412 47.5408L42.8836 36.07C42.8219 34.7993 43.2675 33.5561 44.1223 32.6138C44.9771 31.6715 46.1712 31.1072 47.4419 31.0452L48.589 30.9895C49.8597 30.9279 51.103 31.3734 52.0453 32.2282C52.9876 33.083 53.5518 34.2771 53.6138 35.5479L54.3843 46.7532Z" fill="#70CC40"/>
<path d="M43.6416 47.9689C43.5391 47.9677 43.4404 47.9298 43.3634 47.8619C43.3209 47.8247 43.2861 47.7795 43.2611 47.7288C43.2362 47.6781 43.2215 47.623 43.2179 47.5666L42.4603 36.1001C42.3928 34.7157 42.8771 33.3609 43.8071 32.3331C44.737 31.3052 46.0367 30.6882 47.421 30.6173L48.5681 30.5617C49.9521 30.4953 51.3059 30.9809 52.3322 31.9118C53.3586 32.8426 53.9736 34.1427 54.0423 35.5266L54.8128 46.7234C54.8168 46.7796 54.8098 46.8361 54.7919 46.8896C54.7741 46.9431 54.7459 46.9926 54.7089 47.0351C54.6719 47.0777 54.6269 47.1125 54.5764 47.1376C54.5259 47.1627 54.471 47.1776 54.4147 47.1814L43.6844 47.9646L43.6416 47.9689ZM48.8206 31.4134H48.6066L47.4595 31.4691C46.3027 31.5267 45.216 32.0407 44.4377 32.8985C43.6595 33.7562 43.2531 34.8876 43.3078 36.0445L44.0397 47.0786L53.9567 46.3596L53.2034 35.578C53.1494 34.4531 52.6637 33.3924 51.8473 32.6166C51.0309 31.8409 49.9468 31.4099 48.8206 31.4134Z" fill="#093F68"/>
<path d="M53.571 35.2099L55.6811 43.3893L54.29 44.9943L52.7363 35.0815L53.571 35.2099Z" fill="white"/>
<path d="M54.2901 45.4223C54.2504 45.4289 54.21 45.4289 54.1703 45.4223C54.0918 45.3996 54.0215 45.3548 53.9677 45.2934C53.9138 45.232 53.8787 45.1564 53.8664 45.0756L52.3127 35.1672C52.3024 35.1007 52.3078 35.0327 52.3286 34.9688C52.3495 34.9048 52.3851 34.8467 52.4326 34.7991C52.4798 34.7508 52.5377 34.7144 52.6017 34.6928C52.6657 34.6713 52.7339 34.6651 52.8006 34.675L53.6353 34.8033C53.7184 34.8158 53.796 34.8525 53.8585 34.9089C53.9209 34.9652 53.9653 35.0387 53.9862 35.1201L56.0963 43.2823C56.1135 43.349 56.1142 43.4188 56.0986 43.4859C56.0829 43.5529 56.0513 43.6152 56.0065 43.6675L54.6111 45.2725C54.5714 45.319 54.5222 45.3564 54.4669 45.3822C54.4115 45.408 54.3512 45.4217 54.2901 45.4223ZM53.28 35.7921L54.5641 44.0185L55.2061 43.278L53.28 35.7921Z" fill="#093F68"/>
<path d="M53.3106 35.0557C53.3875 35.0327 53.459 34.9947 53.521 34.9438C53.583 34.8929 53.6342 34.8301 53.6717 34.7592C53.7091 34.6882 53.7321 34.6105 53.7392 34.5306C53.7462 34.4507 53.7373 34.3702 53.7129 34.2938L53.4818 33.5405C53.4341 33.3831 53.327 33.2504 53.1832 33.1705C53.0394 33.0907 52.8702 33.0698 52.7114 33.1125C52.6342 33.1349 52.5623 33.1726 52.5 33.2234C52.4376 33.2742 52.3862 33.337 52.3486 33.4081C52.3111 33.4792 52.2883 33.5571 52.2814 33.6372C52.2746 33.7173 52.284 33.7979 52.309 33.8743L52.5402 34.6276C52.5869 34.7857 52.6939 34.919 52.8379 34.9991C52.982 35.0791 53.1517 35.0994 53.3106 35.0557Z" fill="white"/>
<path d="M53.1477 35.5092C52.92 35.5078 52.6986 35.4341 52.5155 35.2987C52.3324 35.1633 52.1971 34.9732 52.129 34.7559L51.8979 34.0026C51.8559 33.8702 51.8411 33.7307 51.8543 33.5924C51.8675 33.4542 51.9086 33.32 51.9749 33.1979C52.0396 33.0777 52.128 32.9717 52.2346 32.8864C52.3412 32.8011 52.464 32.7382 52.5956 32.7015C52.8604 32.6341 53.1409 32.6707 53.3797 32.8036C53.6184 32.9365 53.7973 33.1557 53.8796 33.4162L54.1107 34.1695C54.1516 34.3014 54.1659 34.4401 54.1527 34.5775C54.1394 34.7149 54.099 34.8483 54.0337 34.9699C53.9684 35.0897 53.8799 35.1954 53.7733 35.2806C53.6668 35.3659 53.5443 35.429 53.4131 35.4664C53.3272 35.4937 53.2378 35.5081 53.1477 35.5092ZM52.8823 33.519H52.831C52.7875 33.5318 52.7507 33.5609 52.7282 33.6003C52.7186 33.6233 52.7136 33.6481 52.7136 33.673C52.7136 33.698 52.7186 33.7228 52.7282 33.7458L52.9594 34.4991C52.9752 34.5488 53.009 34.5907 53.0541 34.6168C53.0992 34.6429 53.1524 34.6513 53.2033 34.6404C53.2257 34.6347 53.2468 34.6246 53.2651 34.6106C53.2835 34.5967 53.2989 34.5791 53.3103 34.559C53.3199 34.5367 53.3248 34.5127 53.3248 34.4884C53.3248 34.4641 53.3199 34.4401 53.3103 34.4178L53.0792 33.6602C53.0645 33.6195 53.0378 33.5842 53.0027 33.559C52.9675 33.5338 52.9256 33.5198 52.8823 33.519Z" fill="#093F68"/>
<path d="M44.1895 48.1227C44.1895 48.1227 44.5832 51.8806 47.6735 52.2059C50.1731 52.4713 56.5076 52.4627 59.1271 52.4499C59.3957 52.4473 59.6549 52.5489 59.8504 52.7332C60.0459 52.9175 60.1625 53.1703 60.1757 53.4386L60.3084 66.1505L65.8426 66.0649C65.8426 66.0649 66.7328 48.5935 65.7527 47.455C64.7726 46.3165 54.7656 46.0083 54.7656 46.0083L44.1895 48.1227Z" fill="#093F68"/>
<path d="M60.3083 66.5786C60.1966 66.5792 60.0891 66.5362 60.0087 66.4587C59.9683 66.4191 59.9361 66.3718 59.914 66.3197C59.892 66.2675 59.8805 66.2115 59.8803 66.1548L59.7476 53.4429C59.7357 53.2881 59.6654 53.1437 59.5509 53.0388C59.4365 52.9339 59.2865 52.8764 59.1313 52.8779C55.857 52.8779 50.0103 52.8779 47.6306 52.6339C44.9127 52.3472 43.9112 49.5865 43.7785 48.1655C43.7679 48.0597 43.7972 47.9537 43.8604 47.8683C43.9237 47.7828 44.0166 47.724 44.1209 47.7032L54.6928 45.5889H54.7912C57.1838 45.6616 65.0635 45.9912 66.0907 47.1854C66.3476 47.4807 67.118 49.7277 66.2834 66.0949C66.2834 66.2084 66.2383 66.3173 66.158 66.3976C66.0777 66.4778 65.9689 66.5229 65.8553 66.5229L60.3211 66.6085L60.3083 66.5786ZM59.1313 52.0262C59.5085 52.0267 59.8712 52.1715 60.145 52.431C60.4187 52.6905 60.5829 53.0449 60.6036 53.4215L60.732 65.7225L65.4402 65.6498C65.8425 57.5176 65.9752 48.5636 65.4402 47.7289C64.918 47.1212 59.5293 46.5861 54.8169 46.4449L44.6944 48.4694C44.8828 49.3725 45.5504 51.5596 47.7376 51.7908C50.0788 52.0347 55.8698 52.0476 59.1441 52.0304L59.1313 52.0262Z" fill="#093F68"/>
<path d="M60.2959 65.8984V69.207H69.0231L65.8429 66.0654L60.2959 65.8984Z" fill="#F56132"/>
<path d="M69.0224 69.6348H60.2952C60.1817 69.6348 60.0728 69.5897 59.9925 69.5094C59.9123 69.4291 59.8672 69.3203 59.8672 69.2068V65.8982C59.8672 65.7847 59.9123 65.6758 59.9925 65.5956C60.0728 65.5153 60.1817 65.4702 60.2952 65.4702L65.8594 65.6371C65.9667 65.6429 66.0685 65.6869 66.1461 65.7613L69.3263 68.9029C69.3864 68.9626 69.4274 69.0388 69.4442 69.1218C69.4609 69.2049 69.4527 69.2911 69.4204 69.3694C69.388 69.4482 69.3328 69.5156 69.2619 69.5629C69.191 69.6102 69.1076 69.6352 69.0224 69.6348ZM60.7232 68.7787H67.978L65.6625 66.4889L60.7232 66.3391V68.7787Z" fill="#093F68"/>
<path d="M59.251 44.3736C59.251 44.3736 61.7805 44.2452 63.1031 44.8017C64.4256 45.3581 65.8552 47.3355 65.149 47.4125C64.4428 47.4896 62.7521 47.2927 62.1187 47.3312C61.7506 47.3569 59.6576 47.1728 59.6576 47.1728L59.251 44.3736Z" fill="#FFC9B0"/>
<path d="M64.7423 47.8659C64.3528 47.8659 63.8863 47.836 63.4198 47.8103C62.9532 47.7846 62.4268 47.7504 62.17 47.7675C61.789 47.7932 59.9957 47.6391 59.6404 47.6091C59.5447 47.6005 59.4546 47.56 59.3847 47.494C59.3149 47.428 59.2692 47.3404 59.2552 47.2453L58.8272 44.4375C58.8181 44.3783 58.8216 44.3178 58.8374 44.26C58.8532 44.2022 58.881 44.1484 58.9189 44.102C58.9568 44.0556 59.0041 44.0176 59.0576 43.9907C59.1111 43.9637 59.1697 43.9482 59.2295 43.9453C59.3365 43.9453 61.8703 43.8212 63.2913 44.4161C64.5197 44.934 65.8937 46.5305 65.7781 47.3138C65.7606 47.4535 65.6951 47.5828 65.5928 47.6796C65.4906 47.7764 65.3579 47.8347 65.2174 47.8445C65.0596 47.8613 64.901 47.8684 64.7423 47.8659ZM62.3497 46.9072C62.6536 46.9072 63.0517 46.9329 63.4711 46.9543C63.9548 46.9842 64.4898 47.0185 64.8664 47.0099C64.4225 46.2325 63.7582 45.604 62.9575 45.2037C62.0544 44.827 60.5221 44.7757 59.7474 44.7757L60.0513 46.7702C60.8474 46.8387 61.896 46.9157 62.1143 46.8986L62.3497 46.9072Z" fill="#093F68"/>
<path d="M57.779 52.707H44.4849C43.4874 52.707 42.6787 53.5147 42.6787 54.5111C42.6787 55.5075 43.4874 56.3152 44.4849 56.3152H57.779C58.7765 56.3152 59.5852 55.5075 59.5852 54.5111C59.5852 53.5147 58.7765 52.707 57.779 52.707Z" fill="white"/>
<path d="M57.7784 56.7432H44.4843C44.183 56.7564 43.8821 56.7084 43.5998 56.6022C43.3175 56.496 43.0596 56.3337 42.8417 56.1251C42.6238 55.9165 42.4504 55.666 42.3319 55.3886C42.2134 55.1112 42.1523 54.8127 42.1523 54.5111C42.1523 54.2094 42.2134 53.9109 42.3319 53.6335C42.4504 53.3562 42.6238 53.1056 42.8417 52.8971C43.0596 52.6885 43.3175 52.5262 43.5998 52.42C43.8821 52.3138 44.183 52.2658 44.4843 52.279H57.7784C58.0797 52.2658 58.3806 52.3138 58.6629 52.42C58.9452 52.5262 59.2031 52.6885 59.421 52.8971C59.6389 53.1056 59.8124 53.3562 59.9308 53.6335C60.0493 53.9109 60.1104 54.2094 60.1104 54.5111C60.1104 54.8127 60.0493 55.1112 59.9308 55.3886C59.8124 55.666 59.6389 55.9165 59.421 56.1251C59.2031 56.3337 58.9452 56.496 58.6629 56.6022C58.3806 56.7084 58.0797 56.7564 57.7784 56.7432ZM44.4843 53.135C44.2972 53.1246 44.1098 53.1524 43.9338 53.2169C43.7578 53.2813 43.5967 53.381 43.4606 53.5098C43.3244 53.6386 43.2159 53.7938 43.1417 53.966C43.0676 54.1381 43.0294 54.3236 43.0294 54.5111C43.0294 54.6985 43.0676 54.884 43.1417 55.0562C43.2159 55.2283 43.3244 55.3836 43.4606 55.5124C43.5967 55.6412 43.7578 55.7409 43.9338 55.8053C44.1098 55.8697 44.2972 55.8976 44.4843 55.8871H57.7784C57.9655 55.8976 58.1529 55.8697 58.3289 55.8053C58.5049 55.7409 58.666 55.6412 58.8022 55.5124C58.9384 55.3836 59.0468 55.2283 59.121 55.0562C59.1951 54.884 59.2334 54.6985 59.2334 54.5111C59.2334 54.3236 59.1951 54.1381 59.121 53.966C59.0468 53.7938 58.9384 53.6386 58.8022 53.5098C58.666 53.381 58.5049 53.2813 58.3289 53.2169C58.1529 53.1524 57.9655 53.1246 57.7784 53.135H44.4843Z" fill="#093F68"/>
<path d="M39.417 32.9886V45.5336C39.417 46.5312 40.2247 47.3398 41.2211 47.3398C42.2174 47.3398 43.0251 46.5312 43.0251 45.5336V32.9886C43.0251 31.9911 42.2174 31.1824 41.2211 31.1824C40.2247 31.1824 39.417 31.9911 39.417 32.9886Z" fill="white"/>
<path d="M41.2237 47.7675C40.6319 47.7675 40.0642 47.5327 39.6453 47.1146C39.2265 46.6966 38.9906 46.1294 38.9894 45.5375V32.9882C38.9762 32.6869 39.0242 32.386 39.1304 32.1037C39.2366 31.8214 39.3989 31.5635 39.6075 31.3456C39.8161 31.1277 40.0666 30.9543 40.344 30.8358C40.6214 30.7173 40.9199 30.6562 41.2215 30.6562C41.5232 30.6562 41.8217 30.7173 42.0991 30.8358C42.3765 30.9543 42.627 31.1277 42.8356 31.3456C43.0441 31.5635 43.2064 31.8214 43.3126 32.1037C43.4189 32.386 43.4668 32.6869 43.4536 32.9882V45.5375C43.4525 46.1286 43.2172 46.6952 42.7992 47.1131C42.3813 47.5311 41.8147 47.7664 41.2237 47.7675ZM41.2237 31.61C41.0416 31.6083 40.861 31.6427 40.6923 31.7112C40.5236 31.7797 40.3702 31.881 40.2408 32.0091C40.1115 32.1373 40.0088 32.2898 39.9388 32.4578C39.8687 32.6259 39.8326 32.8062 39.8326 32.9882V45.5375C39.8523 45.8892 40.0058 46.2201 40.2617 46.4621C40.5176 46.7041 40.8565 46.839 41.2087 46.839C41.5609 46.839 41.8998 46.7041 42.1557 46.4621C42.4116 46.2201 42.5651 45.8892 42.5847 45.5375V32.9882C42.5848 32.6257 42.4419 32.2777 42.1872 32.0197C41.9324 31.7617 41.5862 31.6145 41.2237 31.61Z" fill="#093F68"/>
<path d="M50.6051 35.231C50.6051 35.231 51.153 42.0791 53.0062 42.9352C54.8595 43.7912 61.5665 44.0394 61.5665 44.0394L61.3354 47.0355C61.3354 47.0355 52.5397 48.6491 49.6249 46.2266C46.7102 43.804 46.5176 38.5224 46.5176 38.5224" fill="#70CC40"/>
<path d="M55.5105 47.9686C53.165 47.9686 50.7125 47.6519 49.3685 46.5348C46.3467 44.0223 46.1199 38.7321 46.1113 38.5053C46.1113 38.3917 46.1564 38.2829 46.2367 38.2026C46.317 38.1223 46.4258 38.0772 46.5393 38.0772C46.6529 38.0772 46.7617 38.1223 46.842 38.2026C46.9223 38.2829 46.9674 38.3917 46.9674 38.5053C46.9674 38.5566 47.1942 43.6414 49.9206 45.9056C52.3432 47.9215 59.3626 46.9328 60.9548 46.676L61.126 44.4589C59.5723 44.3904 54.479 44.1036 52.8311 43.3375C50.8066 42.4002 50.2374 36.0185 50.1817 35.2952C50.1772 35.239 50.1838 35.1824 50.2012 35.1288C50.2186 35.0751 50.2463 35.0254 50.2829 34.9825C50.3194 34.9396 50.3641 34.9043 50.4143 34.8786C50.4645 34.8529 50.5193 34.8374 50.5755 34.8329C50.6317 34.8284 50.6882 34.835 50.7419 34.8524C50.7955 34.8697 50.8452 34.8975 50.8882 34.9341C50.9311 34.9706 50.9664 35.0153 50.9921 35.0655C51.0177 35.1157 51.0332 35.1705 51.0377 35.2267C51.2432 37.7691 52.0093 42.0107 53.1778 42.5628C54.9327 43.376 61.524 43.62 61.5925 43.6243C61.6501 43.6262 61.7066 43.6397 61.7589 43.6639C61.8111 43.6882 61.8579 43.7227 61.8964 43.7655C61.9346 43.8084 61.9637 43.8586 61.9821 43.913C62.0005 43.9674 62.0077 44.025 62.0034 44.0823L61.768 47.0783C61.7612 47.1724 61.7235 47.2615 61.6608 47.332C61.5981 47.4024 61.5139 47.4502 61.4213 47.4678C59.4678 47.7945 57.4911 47.962 55.5105 47.9686Z" fill="#093F68"/>
<path d="M44.4764 56.7433H44.4464C40.7741 56.4779 38.9893 54.8129 38.9893 51.6499V41.9041C38.9893 41.7906 39.0344 41.6817 39.1146 41.6014C39.1949 41.5212 39.3038 41.4761 39.4173 41.4761C39.5308 41.4761 39.6397 41.5212 39.7199 41.6014C39.8002 41.6817 39.8453 41.7906 39.8453 41.9041V51.6499C39.8453 54.3849 41.2406 55.6518 44.5063 55.8872C44.5625 55.8892 44.6178 55.9022 44.669 55.9255C44.7202 55.9489 44.7662 55.9821 44.8046 56.0232C44.8429 56.0643 44.8728 56.1126 44.8925 56.1653C44.9122 56.218 44.9213 56.274 44.9194 56.3302C44.9174 56.3864 44.9044 56.4417 44.8811 56.4929C44.8577 56.5441 44.8245 56.5901 44.7834 56.6285C44.7423 56.6668 44.694 56.6967 44.6413 56.7164C44.5886 56.7361 44.5326 56.7452 44.4764 56.7433Z" fill="#093F68"/>
<path d="M51.9405 56.3149H50.3184V67.0067H51.9405V56.3149Z" fill="#093F68"/>
<path d="M51.9451 67.4347H50.3186C50.2051 67.4347 50.0963 67.3896 50.016 67.3094C49.9357 67.2291 49.8906 67.1202 49.8906 67.0067V56.3064C49.8906 56.1929 49.9357 56.084 50.016 56.0038C50.0963 55.9235 50.2051 55.8784 50.3186 55.8784H51.9451C52.0586 55.8784 52.1675 55.9235 52.2477 56.0038C52.328 56.084 52.3731 56.1929 52.3731 56.3064V67.0067C52.3731 67.1202 52.328 67.2291 52.2477 67.3094C52.1675 67.3896 52.0586 67.4347 51.9451 67.4347ZM50.7466 66.5787H51.5171V56.7344H50.7466V66.5787Z" fill="#093F68"/>
<path d="M54.774 66.3735H47.4893V67.3494H54.774V66.3735Z" fill="#093F68"/>
<path d="M54.7745 67.7772H47.4983C47.3848 67.7772 47.2759 67.7321 47.1957 67.6518C47.1154 67.5716 47.0703 67.4627 47.0703 67.3492V66.3733C47.0703 66.2598 47.1154 66.1509 47.1957 66.0707C47.2759 65.9904 47.3848 65.9453 47.4983 65.9453H54.7745C54.888 65.9453 54.9969 65.9904 55.0772 66.0707C55.1574 66.1509 55.2025 66.2598 55.2025 66.3733V67.3492C55.2025 67.4627 55.1574 67.5716 55.0772 67.6518C54.9969 67.7321 54.888 67.7772 54.7745 67.7772ZM47.9263 66.9212H54.3465V66.8013H47.9263V66.9212Z" fill="#093F68"/>
<path d="M47.4126 68.9243C47.8972 68.9243 48.29 68.5314 48.29 68.0469C48.29 67.5623 47.8972 67.1694 47.4126 67.1694C46.928 67.1694 46.5352 67.5623 46.5352 68.0469C46.5352 68.5314 46.928 68.9243 47.4126 68.9243Z" fill="#093F68"/>
<path d="M47.4126 69.3524C47.1526 69.3566 46.8973 69.2831 46.6794 69.1413C46.4615 68.9995 46.2909 68.7959 46.1894 68.5565C46.088 68.3171 46.0603 68.0529 46.11 67.7977C46.1597 67.5425 46.2844 67.3079 46.4683 67.1241C46.6521 66.9402 46.8867 66.8154 47.1419 66.7658C47.3971 66.7161 47.6613 66.7437 47.9007 66.8452C48.1401 66.9466 48.3438 67.1172 48.4856 67.3352C48.6274 67.5531 48.7009 67.8084 48.6966 68.0684C48.6901 68.4069 48.5527 68.7296 48.3133 68.969C48.0739 69.2084 47.7511 69.3458 47.4126 69.3524ZM47.4126 67.5976C47.3289 67.5977 47.247 67.6223 47.1772 67.6685C47.1073 67.7146 47.0526 67.7802 47.0196 67.8572C46.9867 67.9342 46.9771 68.0191 46.9919 68.1015C47.0068 68.1839 47.0455 68.2601 47.1032 68.3207C47.1609 68.3814 47.2352 68.4237 47.3168 68.4426C47.3983 68.4614 47.4836 68.456 47.5621 68.4268C47.6406 68.3977 47.7088 68.3462 47.7583 68.2786C47.8078 68.2111 47.8364 68.1306 47.8406 68.047C47.8435 67.989 47.8346 67.931 47.8144 67.8766C47.7942 67.8222 47.7631 67.7724 47.7231 67.7304C47.683 67.6883 47.6349 67.6549 47.5815 67.632C47.5281 67.6092 47.4707 67.5975 47.4126 67.5976Z" fill="#093F68"/>
<path d="M54.8511 68.9243C55.3356 68.9243 55.7285 68.5314 55.7285 68.0469C55.7285 67.5623 55.3356 67.1694 54.8511 67.1694C54.3665 67.1694 53.9736 67.5623 53.9736 68.0469C53.9736 68.5314 54.3665 68.9243 54.8511 68.9243Z" fill="#093F68"/>
<path d="M54.8511 69.3524C54.5911 69.3566 54.3358 69.2831 54.1179 69.1413C53.9 68.9995 53.7293 68.7959 53.6279 68.5565C53.5264 68.3171 53.4988 68.0529 53.5485 67.7977C53.5982 67.5425 53.7229 67.3079 53.9068 67.1241C54.0906 66.9402 54.3252 66.8154 54.5804 66.7658C54.8356 66.7161 55.0998 66.7437 55.3392 66.8452C55.5786 66.9466 55.7822 67.1172 55.924 67.3352C56.0658 67.5531 56.1393 67.8084 56.1351 68.0684C56.1285 68.4069 55.9911 68.7296 55.7518 68.969C55.5124 69.2084 55.1896 69.3458 54.8511 69.3524ZM54.8511 67.5976C54.7674 67.5977 54.6855 67.6223 54.6157 67.6685C54.5458 67.7146 54.491 67.7802 54.4581 67.8572C54.4252 67.9342 54.4155 68.0191 54.4304 68.1015C54.4452 68.1839 54.4839 68.2601 54.5417 68.3207C54.5994 68.3814 54.6737 68.4237 54.7552 68.4426C54.8368 68.4614 54.9221 68.456 55.0006 68.4268C55.0791 68.3977 55.1473 68.3462 55.1968 68.2786C55.2463 68.2111 55.2749 68.1306 55.2791 68.047C55.282 67.989 55.2731 67.931 55.2529 67.8766C55.2327 67.8222 55.2016 67.7724 55.1616 67.7304C55.1215 67.6883 55.0733 67.6549 55.02 67.632C54.9666 67.6092 54.9091 67.5975 54.8511 67.5976Z" fill="#093F68"/>
<path d="M24.2009 52.707H10.9068C9.90925 52.707 9.10059 53.5147 9.10059 54.5111C9.10059 55.5075 9.90925 56.3152 10.9068 56.3152H24.2009C25.1984 56.3152 26.0071 55.5075 26.0071 54.5111C26.0071 53.5147 25.1984 52.707 24.2009 52.707Z" fill="white"/>
<path d="M24.2014 56.743H10.9031C10.328 56.7178 9.78482 56.4716 9.38679 56.0558C8.98877 55.6399 8.7666 55.0865 8.7666 54.5109C8.7666 53.9353 8.98877 53.3819 9.38679 52.966C9.78482 52.5502 10.328 52.304 10.9031 52.2788H24.2014C24.7765 52.304 25.3196 52.5502 25.7177 52.966C26.1157 53.3819 26.3379 53.9353 26.3379 54.5109C26.3379 55.0865 26.1157 55.6399 25.7177 56.0558C25.3196 56.4716 24.7765 56.7178 24.2014 56.743ZM10.9031 53.1348C10.5514 53.1545 10.2206 53.308 9.97852 53.5639C9.73649 53.8198 9.60164 54.1587 9.60164 54.5109C9.60164 54.8631 9.73649 55.202 9.97852 55.4579C10.2206 55.7138 10.5514 55.8673 10.9031 55.887H24.2014C24.5531 55.8673 24.8839 55.7138 25.1259 55.4579C25.368 55.202 25.5028 54.8631 25.5028 54.5109C25.5028 54.1587 25.368 53.8198 25.1259 53.5639C24.8839 53.308 24.5531 53.1545 24.2014 53.1348H10.9031Z" fill="#093F68"/>
<path d="M5.83496 32.9925L5.83496 45.5375C5.83496 46.5351 6.64267 47.3438 7.63903 47.3438C8.63539 47.3438 9.4431 46.5351 9.4431 45.5375V32.9925C9.4431 31.995 8.63539 31.1863 7.63903 31.1863C6.64267 31.1863 5.83496 31.995 5.83496 32.9925Z" fill="white"/>
<path d="M7.64145 47.7679C7.04964 47.7679 6.482 47.5331 6.06313 47.115C5.64425 46.6969 5.40836 46.1297 5.40723 45.5379V32.9886C5.40723 32.3961 5.64262 31.8278 6.06161 31.4088C6.48061 30.9898 7.0489 30.7544 7.64145 30.7544C8.234 30.7544 8.80228 30.9898 9.22128 31.4088C9.64028 31.8278 9.87567 32.3961 9.87567 32.9886V45.5379C9.87454 46.1297 9.63865 46.6969 9.21977 47.115C8.8009 47.5331 8.23326 47.7679 7.64145 47.7679ZM7.64145 31.6104C7.27593 31.6104 6.92538 31.7556 6.66692 32.0141C6.40845 32.2725 6.26325 32.6231 6.26325 32.9886V45.5379C6.26325 45.9034 6.40845 46.254 6.66692 46.5125C6.92538 46.7709 7.27593 46.9161 7.64145 46.9161C8.00697 46.9161 8.35752 46.7709 8.61598 46.5125C8.87445 46.254 9.01965 45.9034 9.01965 45.5379V32.9886C9.01965 32.6231 8.87445 32.2725 8.61598 32.0141C8.35752 31.7556 8.00697 31.6104 7.64145 31.6104Z" fill="#093F68"/>
<path d="M10.8986 56.7433H10.8644C7.19204 56.4779 5.40723 54.8129 5.40723 51.6499V41.9041C5.40723 41.7906 5.45232 41.6817 5.53259 41.6014C5.61286 41.5212 5.72172 41.4761 5.83524 41.4761C5.94875 41.4761 6.05762 41.5212 6.13789 41.6014C6.21816 41.6817 6.26325 41.7906 6.26325 41.9041V51.6499C6.26325 54.3849 7.65857 55.6518 10.9286 55.8872C10.9848 55.8892 11.0401 55.9022 11.0912 55.9255C11.1424 55.9489 11.1885 55.9821 11.2268 56.0232C11.2652 56.0643 11.2951 56.1126 11.3148 56.1653C11.3345 56.218 11.3436 56.274 11.3416 56.3302C11.3396 56.3864 11.3266 56.4417 11.3033 56.4929C11.28 56.5441 11.2468 56.5901 11.2057 56.6285C11.1645 56.6668 11.1162 56.6967 11.0636 56.7164C11.0109 56.7361 10.9548 56.7452 10.8986 56.7433Z" fill="#093F68"/>
<path d="M18.3634 56.3149H16.7412V67.0067H18.3634V56.3149Z" fill="#093F68"/>
<path d="M18.3627 67.4347H16.7405C16.627 67.4347 16.5181 67.3896 16.4379 67.3094C16.3576 67.2291 16.3125 67.1202 16.3125 67.0067V56.3064C16.3125 56.1929 16.3576 56.084 16.4379 56.0038C16.5181 55.9235 16.627 55.8784 16.7405 55.8784H18.3627C18.4762 55.8784 18.5851 55.9235 18.6653 56.0038C18.7456 56.084 18.7907 56.1929 18.7907 56.3064V67.0067C18.7907 67.1202 18.7456 67.2291 18.6653 67.3094C18.5851 67.3896 18.4762 67.4347 18.3627 67.4347ZM17.1685 66.5787H17.9347V56.7344H17.1685V66.5787Z" fill="#093F68"/>
<path d="M21.1969 66.3735H13.9121V67.3494H21.1969V66.3735Z" fill="#093F68"/>
<path d="M21.1925 67.7772H13.9163C13.8028 67.7772 13.6939 67.7321 13.6136 67.6518C13.5334 67.5716 13.4883 67.4627 13.4883 67.3492V66.3733C13.4883 66.2598 13.5334 66.1509 13.6136 66.0707C13.6939 65.9904 13.8028 65.9453 13.9163 65.9453H21.1925C21.306 65.9453 21.4149 65.9904 21.4951 66.0707C21.5754 66.1509 21.6205 66.2598 21.6205 66.3733V67.3492C21.6205 67.4627 21.5754 67.5716 21.4951 67.6518C21.4149 67.7321 21.306 67.7772 21.1925 67.7772ZM14.3443 66.9212H20.7645V66.8013H14.3443V66.9212Z" fill="#093F68"/>
<path d="M13.8345 68.9243C14.319 68.9243 14.7119 68.5314 14.7119 68.0469C14.7119 67.5623 14.319 67.1694 13.8345 67.1694C13.3499 67.1694 12.957 67.5623 12.957 68.0469C12.957 68.5314 13.3499 68.9243 13.8345 68.9243Z" fill="#093F68"/>
<path d="M13.8345 69.3524C13.5745 69.3566 13.3192 69.2831 13.1013 69.1413C12.8834 68.9995 12.7127 68.7959 12.6113 68.5565C12.5098 68.3171 12.4822 68.0529 12.5319 67.7977C12.5816 67.5425 12.7063 67.3079 12.8902 67.1241C13.074 66.9402 13.3086 66.8154 13.5638 66.7658C13.819 66.7161 14.0832 66.7437 14.3226 66.8452C14.562 66.9466 14.7656 67.1172 14.9074 67.3352C15.0492 67.5531 15.1227 67.8084 15.1185 68.0684C15.1119 68.4069 14.9745 68.7296 14.7352 68.969C14.4958 69.2084 14.173 69.3458 13.8345 69.3524ZM13.8345 67.5976C13.7508 67.5977 13.6689 67.6223 13.5991 67.6685C13.5292 67.7146 13.4744 67.7802 13.4415 67.8572C13.4086 67.9342 13.3989 68.0191 13.4138 68.1015C13.4286 68.1839 13.4673 68.2601 13.5251 68.3207C13.5828 68.3814 13.6571 68.4237 13.7386 68.4426C13.8202 68.4614 13.9055 68.456 13.984 68.4268C14.0625 68.3977 14.1307 68.3462 14.1802 68.2786C14.2297 68.2111 14.2583 68.1306 14.2625 68.047C14.2616 67.9317 14.2168 67.8211 14.1373 67.7376C14.0579 67.6542 13.9496 67.6041 13.8345 67.5976Z" fill="#093F68"/>
<path d="M21.269 68.9243C21.7536 68.9243 22.1465 68.5314 22.1465 68.0469C22.1465 67.5623 21.7536 67.1694 21.269 67.1694C20.7844 67.1694 20.3916 67.5623 20.3916 68.0469C20.3916 68.5314 20.7844 68.9243 21.269 68.9243Z" fill="#093F68"/>
<path d="M21.2697 69.3521C21.0108 69.3512 20.758 69.2733 20.5435 69.1284C20.3289 68.9835 20.1623 68.778 20.0648 68.5382C19.9673 68.2983 19.9434 68.0349 19.996 67.7814C20.0486 67.5279 20.1754 67.2957 20.3603 67.1145C20.5452 66.9332 20.7798 66.811 21.0343 66.7634C21.2888 66.7159 21.5517 66.745 21.7896 66.8473C22.0274 66.9495 22.2296 67.1201 22.3702 67.3375C22.5109 67.5549 22.5837 67.8092 22.5794 68.068C22.5727 68.4109 22.4318 68.7375 22.1869 68.9776C21.942 69.2177 21.6127 69.3521 21.2697 69.3521ZM21.2697 67.5972C21.181 67.5981 21.0946 67.6251 21.0212 67.675C20.9479 67.7249 20.891 67.7954 20.8576 67.8776C20.8242 67.9598 20.8159 68.05 20.8338 68.1369C20.8516 68.2238 20.8947 68.3035 20.9577 68.3659C21.0208 68.4283 21.1008 68.4707 21.1879 68.4877C21.275 68.5047 21.3651 68.4956 21.447 68.4614C21.5288 68.4273 21.5988 68.3697 21.648 68.2959C21.6972 68.2221 21.7234 68.1353 21.7234 68.0466C21.7266 67.9864 21.7169 67.9262 21.6952 67.87C21.6734 67.8138 21.64 67.7628 21.5972 67.7204C21.5544 67.6779 21.5031 67.645 21.4466 67.6238C21.3902 67.6026 21.3299 67.5935 21.2697 67.5972Z" fill="#093F68"/>
<path d="M30.6133 39.5711C30.6133 39.5711 33.8705 38.4454 35.1802 39.5711C36.4899 40.6968 37.9366 42.4901 36.9222 42.5372C35.9078 42.5843 32.5136 42.1606 31.7047 42.5372L30.6133 39.5711Z" fill="#FFC9B0"/>
<path d="M36.7336 42.9696C36.3655 42.9696 35.839 42.9397 35.2484 42.9012C34.1526 42.8327 32.3207 42.7214 31.8842 42.9268C31.8302 42.9504 31.7719 42.9626 31.713 42.9626C31.6541 42.9626 31.5958 42.9504 31.5418 42.9268C31.4868 42.9044 31.4371 42.8707 31.3958 42.8279C31.3545 42.7852 31.3226 42.7343 31.3021 42.6786L30.2107 39.7082C30.1883 39.6554 30.1768 39.5986 30.1768 39.5413C30.1768 39.4839 30.1883 39.4271 30.2107 39.3743C30.2355 39.3233 30.2702 39.2777 30.3128 39.2403C30.3555 39.2028 30.4051 39.1742 30.4589 39.1561C30.8142 39.0319 33.99 37.9833 35.441 39.2331C35.702 39.4599 37.9834 41.4673 37.6324 42.4817C37.5804 42.6253 37.4838 42.7486 37.3567 42.8333C37.2296 42.918 37.0787 42.9598 36.9262 42.9525L36.7336 42.9696ZM33.0569 41.951C33.6775 41.951 34.4351 41.9938 35.2997 42.0451C35.8989 42.0837 36.4639 42.1222 36.802 42.1136C36.3138 41.2603 35.6673 40.5078 34.8974 39.8965C34.1056 39.2117 32.2095 39.5541 31.1694 39.8452L31.9698 42.0237C32.3295 41.969 32.6931 41.9446 33.0569 41.951Z" fill="#093F68"/>
<path d="M87.5512 65.8H82.3809L86.6653 37.731L92.696 40.5002L87.5512 65.8Z" fill="#093F68"/>
<path d="M87.5512 66.2451H82.3808C82.3183 66.2459 82.2565 66.233 82.1995 66.2073C82.1425 66.1817 82.0919 66.1439 82.0511 66.0966C82.0103 66.0492 81.9804 65.9936 81.9634 65.9335C81.9464 65.8733 81.9428 65.8102 81.9528 65.7486L86.2329 37.6838C86.2427 37.6184 86.2675 37.5562 86.3053 37.502C86.3432 37.4477 86.3931 37.403 86.4512 37.3714C86.5104 37.342 86.5756 37.3267 86.6417 37.3267C86.7077 37.3267 86.7729 37.342 86.8321 37.3714L92.8628 40.1406C92.9505 40.1811 93.0219 40.2501 93.0655 40.3364C93.109 40.4226 93.122 40.5211 93.1025 40.6157L87.9663 65.9112C87.9451 66.0056 87.8924 66.09 87.817 66.1506C87.7416 66.2112 87.6479 66.2445 87.5512 66.2451ZM82.8773 65.389H87.2002L92.2079 40.7612L87.0033 38.3729L82.8773 65.389Z" fill="#093F68"/>
<path d="M98.9064 65.7998H94.8874L93.4707 40.8467L99.3345 40.5L98.9064 65.7998Z" fill="#093F68"/>
<path d="M98.8981 66.245H94.8791C94.7656 66.245 94.6567 66.1999 94.5765 66.1196C94.4962 66.0394 94.4511 65.9305 94.4511 65.817L93.0387 40.8639C93.0328 40.751 93.0718 40.6405 93.1472 40.5563C93.2226 40.4721 93.3282 40.4211 93.441 40.4145L99.3005 40.0678C99.359 40.064 99.4178 40.0723 99.473 40.0922C99.5282 40.1121 99.5788 40.1431 99.6215 40.1833C99.6643 40.2241 99.6981 40.2733 99.721 40.3278C99.7438 40.3823 99.7551 40.441 99.7542 40.5001L99.3262 65.817C99.3262 65.9305 99.2811 66.0394 99.2008 66.1196C99.1205 66.1999 99.0117 66.245 98.8981 66.245ZM95.2857 65.389H98.4701L98.8981 40.9709L93.9246 41.2619L95.2857 65.389Z" fill="#093F68"/>
<path d="M99.3342 45.1784H87.7479L86.665 37.731L98.8035 37.7695L99.3342 45.1784Z" fill="#093F68"/>
<path d="M99.3255 45.6062H87.7692C87.6653 45.6072 87.5646 45.5704 87.4859 45.5027C87.4071 45.435 87.3557 45.3409 87.3412 45.2381L86.2626 37.7949C86.2534 37.7341 86.2575 37.6721 86.2745 37.613C86.2915 37.5539 86.321 37.4992 86.361 37.4525C86.4007 37.4061 86.4499 37.3687 86.5053 37.3429C86.5607 37.317 86.6209 37.3033 86.682 37.3027L98.8162 37.3413C98.9247 37.341 99.0292 37.3819 99.1087 37.4558C99.1882 37.5297 99.2366 37.6311 99.2442 37.7393L99.7535 45.1482C99.7573 45.2068 99.749 45.2655 99.7291 45.3207C99.7092 45.3759 99.6782 45.4265 99.638 45.4692C99.598 45.5122 99.5497 45.5466 99.496 45.5702C99.4422 45.5937 99.3842 45.606 99.3255 45.6062ZM88.1073 44.7501H98.8975L98.4267 38.1973L87.1828 38.163L88.1073 44.7501Z" fill="#093F68"/>
<path d="M87.5509 65.7998L86.8618 69.2068H79.0078L83.2922 65.7998H87.5509Z" fill="#68E1FD"/>
<path d="M86.8626 69.6348H79.0086C78.9201 69.6342 78.834 69.6064 78.7621 69.5549C78.6902 69.5035 78.6359 69.431 78.6068 69.3475C78.5777 69.264 78.5752 69.1736 78.5996 69.0886C78.6241 69.0036 78.6742 68.9282 78.7432 68.8729L83.0233 65.4488C83.0992 65.3899 83.1926 65.3583 83.2887 65.3589H87.5474C87.611 65.3582 87.674 65.3716 87.7317 65.3983C87.7895 65.4249 87.8405 65.4641 87.8813 65.513C87.9209 65.5622 87.9491 65.6196 87.9639 65.681C87.9787 65.7425 87.9797 65.8064 87.9668 65.8683L87.2778 69.2923C87.2582 69.3883 87.2063 69.4746 87.1307 69.537C87.0552 69.5993 86.9605 69.6338 86.8626 69.6348ZM80.2327 68.7787H86.5116L87.0295 66.2107H83.4428L80.2327 68.7787Z" fill="#093F68"/>
<path d="M95.1357 65.7998V69.2068H102.343L98.2773 65.7998H95.1357Z" fill="#68E1FD"/>
<path d="M102.344 69.6346H95.136C95.0225 69.6346 94.9136 69.5895 94.8334 69.5093C94.7531 69.429 94.708 69.3201 94.708 69.2066V65.7825C94.708 65.669 94.7531 65.5602 94.8334 65.4799C94.9136 65.3996 95.0225 65.3545 95.136 65.3545H98.2776C98.3791 65.3533 98.4777 65.3882 98.5558 65.453L102.618 68.8771C102.685 68.9334 102.734 69.0093 102.757 69.0943C102.78 69.1793 102.776 69.2694 102.746 69.3522C102.716 69.4349 102.662 69.5064 102.59 69.5569C102.518 69.6075 102.432 69.6346 102.344 69.6346ZM95.564 68.7786H101.167L98.1235 66.2105H95.5555L95.564 68.7786Z" fill="#093F68"/>
<path d="M77.9251 23.6793C77.9251 23.6793 81.7772 26.2474 82.5006 26.6283C82.5006 26.6283 86.6095 21.6206 90.941 21.6206H95.6876C98.4355 21.6206 100.661 24.0774 100.661 27.1034V37.731H86.6651V30.0738C84.722 31.1781 83.622 31.8244 82.7317 32.0299C81.4776 32.3209 79.9967 31.3493 75.9092 27.1462L77.9251 23.6793Z" fill="white"/>
<path d="M100.674 38.1588H86.6652C86.5517 38.1588 86.4428 38.1137 86.3626 38.0334C86.2823 37.9532 86.2372 37.8443 86.2372 37.7308V30.8098C84.6621 31.7044 83.6691 32.2522 82.8131 32.4491C81.3194 32.7915 79.7015 31.6701 75.5926 27.4414C75.5272 27.3745 75.4856 27.2881 75.474 27.1954C75.4624 27.1026 75.4815 27.0086 75.5283 26.9277L77.5528 23.4608C77.6156 23.3617 77.7134 23.2899 77.8268 23.2597C77.8839 23.247 77.9429 23.2462 78.0003 23.2572C78.0578 23.2683 78.1123 23.2909 78.1606 23.3239C79.1065 23.9573 81.4734 25.5281 82.4022 26.0846C83.3567 25.006 87.0076 21.1924 90.9411 21.1924H95.6877C98.6838 21.1924 101.089 23.8461 101.089 27.1032V37.7308C101.089 37.8421 101.046 37.9491 100.968 38.029C100.891 38.1089 100.785 38.1554 100.674 38.1588ZM87.0932 37.3028H100.246V27.1032C100.246 24.3169 98.2087 22.0484 95.7006 22.0484H90.9539C86.8792 22.0484 82.8816 26.8507 82.8431 26.9021C82.7815 26.977 82.6963 27.0289 82.6015 27.0491C82.5066 27.0693 82.4077 27.0567 82.3209 27.0133C81.7174 26.7095 79.0766 24.9546 78.075 24.2869L76.4443 27.0818C80.0353 30.7585 81.5548 31.8627 82.6333 31.6145C83.4081 31.4347 84.4267 30.8569 86.1131 29.9024L86.4555 29.7055C86.5206 29.668 86.5944 29.6482 86.6695 29.6482C86.7446 29.6482 86.8184 29.668 86.8835 29.7055C86.948 29.7438 87.0014 29.7983 87.0382 29.8637C87.075 29.929 87.094 30.0029 87.0932 30.0779V37.3028Z" fill="#093F68"/>
<path d="M92.6088 23.1926L92.2448 23.114C91.9741 23.0555 91.7377 22.8919 91.5876 22.6591C91.4375 22.4263 91.3861 22.1434 91.4445 21.8727L91.7437 20.4879L94.1535 21.0085L93.8543 22.3933C93.7958 22.664 93.6322 22.9004 93.3994 23.0505C93.1666 23.2006 92.8837 23.252 92.613 23.1935L92.6088 23.1926Z" fill="#FFC9B0"/>
<path d="M92.8375 23.6408C92.7324 23.64 92.6278 23.6285 92.525 23.6066L92.1612 23.5253C91.972 23.4846 91.7927 23.4071 91.6335 23.2971C91.4743 23.1871 91.3383 23.0468 91.2334 22.8842C91.1284 22.7216 91.0566 22.5399 91.0219 22.3496C90.9872 22.1592 90.9904 21.9638 91.0313 21.7747L91.3309 20.3879C91.3555 20.2773 91.4229 20.181 91.5183 20.12C91.6138 20.0591 91.7296 20.0384 91.8402 20.0626L94.2456 20.5805C94.3008 20.5922 94.3531 20.6147 94.3995 20.6466C94.446 20.6786 94.4856 20.7194 94.5163 20.7667C94.5469 20.814 94.5678 20.867 94.578 20.9224C94.5881 20.9779 94.5871 21.0348 94.5752 21.0899L94.2756 22.4766C94.2051 22.8059 94.024 23.101 93.7623 23.3128C93.5006 23.5247 93.1742 23.6404 92.8375 23.6408ZM92.341 22.6906L92.7048 22.7677C92.784 22.7865 92.8662 22.789 92.9464 22.7751C93.0267 22.7611 93.1032 22.7309 93.1713 22.6863C93.3085 22.5966 93.4053 22.4569 93.441 22.2969L93.6464 21.3295L92.0756 20.9871L91.8702 21.9544C91.8525 22.0337 91.8507 22.1157 91.8649 22.1956C91.879 22.2756 91.9088 22.352 91.9526 22.4204C91.9963 22.4888 92.0532 22.5479 92.1198 22.5943C92.1865 22.6406 92.2616 22.6734 92.341 22.6906Z" fill="#093F68"/>
<path d="M89.911 13.3109C90.1516 12.1972 89.5394 11.12 88.5435 10.9049C87.5477 10.6897 86.5453 11.4182 86.3048 12.5318C86.0642 13.6455 86.6764 14.7227 87.6723 14.9379C88.6681 15.153 89.6704 14.4246 89.911 13.3109Z" fill="#FFC9B0"/>
<path d="M88.0309 15.4101C87.8871 15.4084 87.7437 15.3926 87.6029 15.363C86.9903 15.202 86.4664 14.805 86.1456 14.2588C85.8248 13.7126 85.7332 13.0617 85.8909 12.4482C85.9273 12.1313 86.0296 11.8255 86.1913 11.5505C86.353 11.2755 86.5704 11.0374 86.8297 10.8515C87.0889 10.6656 87.3842 10.536 87.6966 10.4711C88.0089 10.4062 88.3314 10.4074 88.6432 10.4747C88.9551 10.5419 89.2494 10.6737 89.5073 10.8615C89.7651 11.0493 89.9808 11.2891 90.1404 11.5653C90.3001 11.8415 90.4001 12.148 90.4341 12.4652C90.4681 12.7824 90.4354 13.1032 90.3379 13.407C90.2367 13.9526 89.9535 14.4478 89.5345 14.8116C89.1154 15.1755 88.5854 15.3865 88.0309 15.4101ZM86.7469 12.628C86.7235 12.9036 86.7803 13.1802 86.9104 13.4242C87.0406 13.6683 87.2386 13.8695 87.4805 14.0036C87.7225 14.1377 87.9981 14.199 88.274 14.18C88.55 14.161 88.8146 14.0626 89.0359 13.8966C89.2572 13.7306 89.4258 13.5042 89.5213 13.2446C89.6168 12.9849 89.6351 12.7032 89.5742 12.4334C89.5132 12.1636 89.3754 11.9172 89.1776 11.7239C88.9797 11.5306 88.7301 11.3986 88.459 11.344C88.0627 11.2934 87.6623 11.3992 87.3426 11.6389C87.023 11.8786 86.8094 12.2334 86.7469 12.628Z" fill="#093F68"/>
<path d="M100.417 17.8798C98.5122 20.221 95.5632 21.8903 92.901 21.3039C91.6706 21.0612 90.5372 20.4665 89.6384 19.5919C88.7395 18.7174 88.114 17.6007 87.8376 16.3775C87.5697 15.2084 87.5697 13.994 87.8376 12.825C87.8376 12.825 87.8034 11.9689 88.668 8.75885C89.5326 5.54876 90.0205 3.91375 96.4193 4.25616C101.359 4.52153 103.584 7.29504 103.267 9.33238C103.079 10.5223 102.788 12.2429 102.373 13.8008C102.613 13.8761 102.831 14.0103 103.006 14.1912C103.18 14.3722 103.307 14.5941 103.374 14.8366C103.905 16.4545 102.707 18.6331 100.417 17.8798Z" fill="#FFC9B0"/>
<path d="M93.976 21.8646C93.5847 21.8643 93.1945 21.8227 92.8119 21.7405C91.5029 21.4794 90.2976 20.845 89.3413 19.9138C88.3851 18.9827 87.7189 17.7946 87.4232 16.493C87.139 15.2778 87.1287 14.0146 87.3932 12.795C87.3932 12.5339 87.4745 11.4853 88.2492 8.66469C89.1994 5.16355 89.9399 3.50286 96.4328 3.84527C100.221 4.05072 102.031 5.61296 102.772 6.52891C103.117 6.91904 103.377 7.37745 103.534 7.87442C103.691 8.37139 103.742 8.89582 103.683 9.41371C103.512 10.5094 103.255 12.0888 102.87 13.574C103.303 13.8283 103.624 14.2363 103.769 14.7168C103.939 15.2292 103.968 15.7782 103.852 16.3056C103.736 16.833 103.479 17.3192 103.11 17.7129C102.783 18.0361 102.376 18.2667 101.931 18.381C101.486 18.4953 101.018 18.4892 100.576 18.3634C98.6842 20.5805 96.2231 21.8646 93.976 21.8646ZM94.8064 4.65421C90.2138 4.65421 89.8286 6.07949 89.0667 8.89153C88.245 11.9133 88.2492 12.8207 88.2492 12.8292C88.2514 12.8635 88.2514 12.8978 88.2492 12.932C87.9964 14.0377 87.9964 15.1862 88.2492 16.2919C88.5097 17.436 89.0957 18.4805 89.9364 19.2991C90.7771 20.1178 91.8366 20.6758 92.9873 20.9058C95.2686 21.398 98.055 20.1097 100.08 17.6187C100.134 17.5512 100.208 17.502 100.291 17.4775C100.375 17.4531 100.464 17.4545 100.546 17.4817C100.868 17.6235 101.224 17.6654 101.57 17.6021C101.916 17.5387 102.234 17.373 102.485 17.1265C102.748 16.8444 102.929 16.4967 103.01 16.12C103.092 15.7434 103.07 15.3517 102.947 14.9864C102.901 14.8091 102.811 14.6464 102.685 14.5132C102.56 14.38 102.402 14.2807 102.228 14.2246C102.121 14.1927 102.031 14.1203 101.976 14.0227C101.922 13.9251 101.908 13.8102 101.937 13.7024C102.307 12.2432 102.603 10.7661 102.823 9.27674C102.863 8.87757 102.818 8.47455 102.693 8.0935C102.568 7.71245 102.364 7.36177 102.095 7.06392C100.987 5.69428 98.9025 4.83398 96.3729 4.69701C95.8037 4.67133 95.2815 4.65421 94.8064 4.65421Z" fill="#093F68"/>
<path d="M95.6758 13.3183C95.7536 12.9579 95.5246 12.6025 95.1641 12.5247C94.8037 12.4468 94.4483 12.6759 94.3705 13.0363C94.2926 13.3968 94.5217 13.7521 94.8821 13.83C95.2426 13.9078 95.5979 13.6787 95.6758 13.3183Z" fill="#093F68"/>
<path d="M89.8279 12.4438C90.1966 12.4438 90.4956 12.1449 90.4956 11.7761C90.4956 11.4073 90.1966 11.1084 89.8279 11.1084C89.4591 11.1084 89.1602 11.4073 89.1602 11.7761C89.1602 12.1449 89.4591 12.4438 89.8279 12.4438Z" fill="#093F68"/>
<path d="M92.7044 15.0163H92.6616C92.0908 14.9649 91.5286 14.8427 90.9881 14.6525C90.8858 14.614 90.7953 14.5496 90.7255 14.4655C90.6557 14.3815 90.609 14.2807 90.59 14.1731C90.4958 13.6039 91.2534 12.8078 91.9083 12.2428C91.9504 12.2054 91.9995 12.1767 92.0528 12.1583C92.106 12.1399 92.1624 12.1322 92.2186 12.1355C92.2749 12.1389 92.3299 12.1533 92.3806 12.178C92.4312 12.2026 92.4765 12.237 92.5139 12.2792C92.5513 12.3213 92.58 12.3704 92.5984 12.4237C92.6168 12.4769 92.6245 12.5333 92.6212 12.5895C92.6178 12.6458 92.6034 12.7008 92.5787 12.7514C92.5541 12.8021 92.5197 12.8474 92.4775 12.8848C92.1158 13.1914 91.7924 13.5406 91.5145 13.9249C91.9187 14.0412 92.3328 14.12 92.7515 14.1603C92.865 14.1654 92.9718 14.2154 93.0485 14.2993C93.1251 14.3831 93.1653 14.494 93.1602 14.6075C93.1551 14.7211 93.1051 14.8279 93.0212 14.9046C92.9374 14.9812 92.8265 15.0214 92.7129 15.0163H92.7044Z" fill="#093F68"/>
<path d="M92.9917 16.4545L90.5649 15.9023C90.5649 15.9023 90.3551 17.9354 91.331 18.2778C92.3069 18.6202 92.9917 16.4545 92.9917 16.4545Z" fill="white"/>
<path d="M91.5408 18.7354C91.4209 18.7349 91.3021 18.7132 91.1898 18.6712C89.9315 18.2432 90.1155 16.1031 90.1412 15.8463C90.1476 15.7865 90.1666 15.7286 90.1968 15.6766C90.2271 15.6246 90.268 15.5795 90.3169 15.5444C90.3658 15.5092 90.4215 15.4848 90.4805 15.4727C90.5395 15.4605 90.6003 15.461 90.6591 15.4739L93.0859 16.0304C93.1432 16.0436 93.1972 16.0685 93.2445 16.1036C93.2917 16.1386 93.3313 16.1831 93.3606 16.2341C93.3899 16.2851 93.4084 16.3416 93.4149 16.4001C93.4214 16.4585 93.4158 16.5177 93.3984 16.5739C93.347 16.7409 92.8676 18.1961 92.0373 18.6113C91.8837 18.6908 91.7137 18.7333 91.5408 18.7354ZM90.9758 16.4241C90.9758 17.0019 91.1042 17.7338 91.4723 17.8665C91.5008 17.8785 91.5313 17.8847 91.5622 17.8847C91.5931 17.8847 91.6236 17.8785 91.6521 17.8665C92.0052 17.5804 92.2707 17.2007 92.4182 16.7708L90.9758 16.4241Z" fill="#093F68"/>
<path d="M86.6653 30.5018C86.5518 30.5018 86.4429 30.4567 86.3627 30.3764C86.2824 30.2962 86.2373 30.1873 86.2373 30.0738V25.2972C86.2373 25.1836 86.2824 25.0748 86.3627 24.9945C86.4429 24.9142 86.5518 24.8691 86.6653 24.8691C86.7788 24.8691 86.8877 24.9142 86.968 24.9945C87.0482 25.0748 87.0933 25.1836 87.0933 25.2972V30.0738C87.0933 30.1873 87.0482 30.2962 86.968 30.3764C86.8877 30.4567 86.7788 30.5018 86.6653 30.5018Z" fill="#093F68"/>
<path d="M96.2574 5.94249C96.0569 6.43926 95.9632 6.97266 95.9824 7.50802C96.0016 8.04338 96.1332 8.56871 96.3687 9.04986C95.3597 8.81556 94.4343 8.30898 93.6932 7.58525C92.9521 6.86153 92.4238 5.94839 92.1656 4.94522C91.5824 5.73588 91.1793 6.64453 90.9843 7.60746C89.7003 7.41057 88.2579 6.63159 88.1252 5.32615C88.1112 4.8702 88.2238 4.41928 88.4504 4.0234C88.6771 3.62752 89.0089 3.30215 89.4092 3.08337C90.213 2.65492 91.1053 2.41902 92.0158 2.39427C95.1231 2.15119 98.2438 2.64541 101.124 3.83667C102.198 4.28609 103.307 4.89814 103.808 5.95105C104.385 7.17517 103.953 8.51912 103.91 9.77748C103.802 11.0709 103.393 12.3211 102.716 13.4284C102.476 13.8564 102.108 14.2844 101.625 14.2844C101.424 14.2563 101.235 14.1724 101.079 14.0423C100.923 13.9122 100.807 13.7411 100.743 13.5483C100.621 13.1605 100.535 12.7621 100.486 12.3584C100.152 10.809 98.6757 10.0557 97.7854 8.82301C97.4558 8.39072 96.0306 6.49891 96.2574 5.94249Z" fill="#725858"/>
<path d="M101.638 14.721H101.599C101.314 14.6924 101.044 14.5824 100.82 14.404C100.596 14.2256 100.428 13.9865 100.336 13.7152C100.232 13.4302 100.161 13.1344 100.122 12.8335C100.122 12.7094 100.084 12.581 100.058 12.4568C99.8699 11.6008 99.2365 10.9716 98.5688 10.3168C98.1547 9.93768 97.7738 9.52385 97.4303 9.07982L97.3575 8.98138C96.968 8.44636 96.6556 7.98839 96.4159 7.5989C96.4443 8.03658 96.5592 8.46428 96.754 8.85725C96.7897 8.92951 96.8043 9.01039 96.7961 9.09057C96.7878 9.17075 96.7571 9.24698 96.7075 9.31048C96.6579 9.37399 96.5913 9.42218 96.5155 9.44952C96.4396 9.47687 96.3576 9.48224 96.2789 9.46503C95.3454 9.25035 94.4759 8.81824 93.741 8.20388C93.0062 7.58952 92.4268 6.8103 92.0501 5.92965C91.7458 6.48206 91.5293 7.07841 91.4081 7.69734C91.3863 7.805 91.3239 7.90014 91.2339 7.96308C91.1439 8.02602 91.0331 8.05194 90.9245 8.03547C89.435 7.81718 87.8599 6.90552 87.7015 5.37752C87.6758 4.84158 87.801 4.30918 88.0628 3.84083C88.3245 3.37248 88.7125 2.98697 89.1825 2.72812C90.0442 2.26257 91.0027 2.00462 91.9817 1.97482C95.1549 1.7283 98.3415 2.23423 101.282 3.45146C102.327 3.87947 103.602 4.54289 104.189 5.77557C104.659 6.76856 104.544 7.78294 104.428 8.77165C104.385 9.13118 104.347 9.46931 104.334 9.80744C104.222 11.1711 103.794 12.49 103.084 13.6595C102.579 14.5284 102.027 14.721 101.638 14.721ZM96.6598 6.08801C96.6598 6.20358 96.7497 6.70007 98.0509 8.4806L98.1236 8.57904C98.4356 8.98625 98.7837 9.36444 99.1637 9.709C99.8956 10.4152 100.653 11.1514 100.876 12.2771C100.906 12.414 100.931 12.5553 100.953 12.7051C100.98 12.9427 101.033 13.1767 101.111 13.4027C101.201 13.6253 101.394 13.865 101.612 13.8736C101.903 13.8736 102.173 13.4755 102.31 13.2358C102.955 12.1881 103.345 11.0035 103.448 9.77748C103.448 9.40511 103.504 9.03274 103.547 8.67321C103.654 7.77438 103.752 6.92264 103.384 6.15222C102.926 5.18063 101.83 4.62422 100.927 4.25185C98.1207 3.08801 95.0797 2.60121 92.0501 2.83084C91.207 2.85214 90.3798 3.06589 89.6319 3.45574C89.3034 3.63554 89.0302 3.90153 88.8416 4.22508C88.6531 4.54863 88.5563 4.91748 88.5618 5.29191C88.656 6.23782 89.6576 6.867 90.6677 7.11524C90.8995 6.24023 91.2945 5.41687 91.8319 4.68842C91.8805 4.62372 91.9464 4.57413 92.0221 4.54541C92.0978 4.51668 92.18 4.51 92.2593 4.52613C92.3386 4.54226 92.4117 4.58054 92.4702 4.63654C92.5286 4.69254 92.57 4.76395 92.5894 4.8425C92.7914 5.63493 93.1766 6.36886 93.7141 6.98516C94.2516 7.60147 94.9263 8.08291 95.684 8.39072C95.4725 7.52212 95.5384 6.60912 95.8723 5.77985C95.9186 5.68228 96.0002 5.60585 96.1005 5.56589C96.2009 5.52593 96.3127 5.52539 96.4134 5.56438C96.5141 5.60338 96.5964 5.67902 96.6437 5.77614C96.691 5.87326 96.6998 5.98466 96.6684 6.08801H96.6598Z" fill="#093F68"/>
<path d="M92.0421 24.9013L92.7504 24.9566C93.0474 24.9798 93.3069 24.7578 93.33 24.4609L93.3636 24.0299C93.3868 23.7329 93.1649 23.4734 92.8679 23.4503L92.1596 23.395C91.8626 23.3719 91.6031 23.5938 91.58 23.8908L91.5464 24.3217C91.5232 24.6187 91.7451 24.8782 92.0421 24.9013Z" fill="#68E1FD"/>
<path d="M92.7905 25.3911H92.7135L92.003 25.3354C91.7481 25.3146 91.5118 25.1943 91.3451 25.0004C91.1785 24.8065 91.095 24.5547 91.1127 24.2996L91.1469 23.8716C91.1688 23.6164 91.2901 23.3801 91.4847 23.2135C91.6792 23.047 91.9315 22.9636 92.187 22.9814L92.9061 23.0156C93.1613 23.0375 93.3976 23.1588 93.5642 23.3533C93.7307 23.5479 93.8141 23.8002 93.7963 24.0557L93.7621 24.4837C93.7468 24.7304 93.6376 24.962 93.4569 25.1307C93.2762 25.2995 93.0377 25.3926 92.7905 25.3911ZM92.05 24.4794L92.7648 24.5308C92.7794 24.5329 92.7943 24.5316 92.8084 24.5272C92.8225 24.5227 92.8354 24.5152 92.8461 24.5051C92.8566 24.4961 92.8651 24.4849 92.871 24.4724C92.8769 24.4598 92.8801 24.4462 92.8804 24.4323L92.9146 24.0043C92.9161 23.9904 92.9145 23.9763 92.9101 23.963C92.9057 23.9497 92.8985 23.9375 92.8889 23.9273C92.881 23.9152 92.8702 23.9054 92.8575 23.8987C92.8448 23.892 92.8306 23.8885 92.8162 23.8887L92.1014 23.8331C92.0733 23.8318 92.0457 23.8413 92.0242 23.8596C92.0028 23.8778 91.9891 23.9036 91.9858 23.9315L91.9516 24.3596C91.9492 24.3884 91.9581 24.4171 91.9765 24.4395C91.9949 24.4618 92.0213 24.4762 92.05 24.4794Z" fill="#093F68"/>
<path d="M92.7476 24.959L93.471 34.4822L91.5192 35.8433L90.1924 34.2254L92.0328 24.9033L92.7476 24.959Z" fill="#68E1FD"/>
<path d="M91.5194 36.284C91.4565 36.2841 91.3944 36.2703 91.3374 36.2437C91.2804 36.217 91.2301 36.1782 91.1898 36.1299L89.8587 34.512C89.8184 34.4631 89.7894 34.4059 89.7738 34.3445C89.7583 34.283 89.7566 34.2189 89.7688 34.1567L91.6221 24.8218C91.6427 24.7191 91.7003 24.6275 91.7839 24.5644C91.8675 24.5013 91.9714 24.4711 92.0758 24.4794L92.7906 24.5307C92.8931 24.5387 92.9893 24.5834 93.0616 24.6565C93.1339 24.7295 93.1775 24.8262 93.1843 24.9288L93.9077 34.4478C93.9139 34.5221 93.9005 34.5967 93.869 34.6643C93.8375 34.7318 93.7889 34.79 93.7279 34.833L91.7719 36.1941C91.6995 36.2503 91.611 36.2818 91.5194 36.284ZM90.6634 34.1225L91.6136 35.2781L93.0431 34.2809L92.3711 25.4895L90.6634 34.1225Z" fill="#093F68"/>
<path d="M77.9255 23.6792L75.8967 22.3952C75.8967 22.3952 75.6314 19.536 75.2676 19.3049C74.9038 19.0738 74.4672 21.6847 74.4672 21.6847C74.4672 21.6847 72.6481 18.008 71.8435 19.3049C71.0388 20.6018 70.6065 21.873 70.8976 22.3952C71.1886 22.9173 75.8967 27.1461 75.8967 27.1461L77.9255 23.6792Z" fill="#FFC9B0"/>
<path d="M75.9091 27.5742C75.8045 27.5728 75.704 27.5333 75.6266 27.4629C74.5095 26.4656 70.8371 23.1571 70.5332 22.6007C70.0196 21.6548 71.034 19.8229 71.492 19.0781C71.5703 18.9284 71.6895 18.8038 71.8357 18.719C71.9819 18.6341 72.1491 18.5925 72.318 18.5988C73.02 18.633 73.769 19.6089 74.2869 20.4521C74.6079 19.091 74.8904 18.9669 75.0231 18.9069C75.1008 18.8707 75.1866 18.8551 75.2721 18.8619C75.3576 18.8686 75.4399 18.8974 75.511 18.9455C75.6565 19.0353 76.0332 19.2793 76.3157 22.147L78.1647 23.3155C78.2585 23.3747 78.3257 23.468 78.3521 23.5758C78.3784 23.6836 78.3619 23.7974 78.3059 23.8933L76.2814 27.3602C76.2496 27.4156 76.2058 27.4632 76.1533 27.4995C76.1007 27.5358 76.0406 27.5598 75.9775 27.5699L75.9091 27.5742ZM72.2838 19.442C72.2838 19.442 72.2624 19.442 72.2282 19.5147C71.3721 20.9314 71.1581 21.9244 71.2951 22.1769C71.5134 22.5279 73.9488 24.7835 75.8149 26.4571L77.3686 23.8034L75.6908 22.7419C75.6351 22.7065 75.5884 22.6588 75.5542 22.6023C75.5201 22.5459 75.4994 22.4824 75.4939 22.4166C75.4254 21.7104 75.3184 20.91 75.2071 20.3365C75.1001 20.7645 74.9888 21.2696 74.9118 21.7404C74.8965 21.8293 74.8535 21.9111 74.7889 21.9742C74.7244 22.0372 74.6415 22.0782 74.5523 22.0913C74.4654 22.1004 74.3779 22.0828 74.3014 22.0407C74.2249 21.9986 74.1631 21.9341 74.1242 21.8559C73.418 20.5034 72.5663 19.4548 72.2838 19.4548V19.442Z" fill="#093F68"/>
<path d="M100.674 27.146V39.8794H96.4541V27.146" fill="white"/>
<path d="M100.675 40.3072H96.4544C96.3409 40.3072 96.232 40.2621 96.1517 40.1818C96.0715 40.1015 96.0264 39.9927 96.0264 39.8791V27.1458C96.0264 27.0323 96.0715 26.9234 96.1517 26.8431C96.232 26.7629 96.3409 26.7178 96.4544 26.7178C96.5679 26.7178 96.6768 26.7629 96.757 26.8431C96.8373 26.9234 96.8824 27.0323 96.8824 27.1458V39.4511H100.247V27.1458C100.247 27.0323 100.292 26.9234 100.372 26.8431C100.452 26.7629 100.561 26.7178 100.675 26.7178C100.788 26.7178 100.897 26.7629 100.977 26.8431C101.057 26.9234 101.103 27.0323 101.103 27.1458V39.8791C101.103 39.9927 101.057 40.1015 100.977 40.1818C100.897 40.2621 100.788 40.3072 100.675 40.3072Z" fill="#093F68"/>
<path d="M102.519 42.3745H92.1953V49.2013H102.519V42.3745Z" fill="white"/>
<path d="M102.514 49.6295H92.1907C92.0772 49.6295 91.9683 49.5844 91.8881 49.5041C91.8078 49.4239 91.7627 49.315 91.7627 49.2015V42.3533C91.7627 42.2398 91.8078 42.1309 91.8881 42.0507C91.9683 41.9704 92.0772 41.9253 92.1907 41.9253H102.514C102.628 41.9253 102.737 41.9704 102.817 42.0507C102.897 42.1309 102.942 42.2398 102.942 42.3533V49.2015C102.942 49.315 102.897 49.4239 102.817 49.5041C102.737 49.5844 102.628 49.6295 102.514 49.6295ZM92.6187 48.7735H102.086V42.7813H92.6187V48.7735Z" fill="#093F68"/>
<path d="M96.4535 39.8794V41.7198C96.1829 42.2735 95.9871 42.8608 95.8714 43.4661C95.6874 44.4506 95.85 46.0342 96.4535 45.8716C97.057 45.7089 98.722 45.4436 99.334 44.4506C99.9461 43.4576 99.8391 41.7712 99.8391 41.7712V39.8794H96.4535Z" fill="#FFC9B0"/>
<path d="M96.3685 46.3079C96.1834 46.3069 96.0057 46.2349 95.872 46.1068C95.3327 45.6103 95.3028 44.1893 95.444 43.3889C95.5585 42.7775 95.7512 42.1833 96.0175 41.6212V39.8792C96.0175 39.7657 96.0626 39.6568 96.1429 39.5765C96.2232 39.4963 96.332 39.4512 96.4456 39.4512H99.8397C99.8963 39.4514 99.9523 39.4629 100.005 39.4849C100.057 39.507 100.104 39.5391 100.144 39.5796C100.183 39.6196 100.215 39.667 100.236 39.7191C100.257 39.7713 100.268 39.8271 100.268 39.8835V41.7753C100.268 41.8224 100.379 43.5901 99.6985 44.6772C99.0736 45.6787 97.6226 46.0254 96.8393 46.2138L96.5654 46.2822C96.5011 46.2992 96.435 46.3078 96.3685 46.3079ZM96.8779 40.3072V41.7196C96.8768 41.7884 96.8592 41.856 96.8265 41.9165C96.58 42.4338 96.4002 42.9803 96.2915 43.543C96.1606 44.1729 96.202 44.8264 96.4113 45.4348L96.6382 45.3791C97.2973 45.2208 98.5257 44.9297 98.9666 44.2235C99.5016 43.3675 99.3946 41.8138 99.3946 41.801V40.3072H96.8779Z" fill="#093F68"/>
<path d="M91.4377 10.1366C91.3595 10.1354 91.2818 10.1239 91.2066 10.1024L89.3575 9.58448C89.2467 9.55651 89.1426 9.50663 89.0513 9.43777C88.9601 9.36892 88.8836 9.28248 88.8263 9.18357C88.769 9.08466 88.732 8.97527 88.7177 8.86186C88.7034 8.74845 88.7119 8.63332 88.7428 8.52326C88.7736 8.41319 88.8262 8.31043 88.8975 8.22102C88.9687 8.13162 89.0571 8.05739 89.1575 8.00271C89.2579 7.94804 89.3682 7.91402 89.482 7.90267C89.5957 7.89132 89.7106 7.90286 89.8198 7.93663L91.6688 8.46308C91.8695 8.51761 92.0435 8.64336 92.1583 8.81683C92.2731 8.9903 92.3208 9.19963 92.2925 9.4057C92.2642 9.61177 92.1618 9.80048 92.0045 9.93657C91.8472 10.0727 91.6457 10.1468 91.4377 10.1452V10.1366Z" fill="#093F68"/>
<path d="M97.2543 11.8016C97.1822 11.8017 97.1103 11.7931 97.0403 11.7759L94.3952 11.0825C94.2827 11.058 94.1763 11.011 94.0824 10.9443C93.9885 10.8777 93.9089 10.7928 93.8486 10.6947C93.7883 10.5966 93.7483 10.4874 93.7312 10.3735C93.7141 10.2596 93.7201 10.1435 93.7489 10.032C93.7777 9.92051 93.8287 9.81598 93.8989 9.72466C93.969 9.63334 94.0569 9.55712 94.1572 9.50055C94.2575 9.44398 94.3682 9.40823 94.4826 9.39544C94.597 9.38264 94.7129 9.39307 94.8232 9.4261L97.4683 10.1195C97.668 10.1737 97.8412 10.2984 97.956 10.4706C98.0709 10.6427 98.1194 10.8505 98.0928 11.0557C98.0662 11.2609 97.9662 11.4495 97.8112 11.5866C97.6563 11.7237 97.4569 11.8001 97.25 11.8016H97.2543Z" fill="#093F68"/>
<path d="M109.941 69.6348H0.53641C0.422895 69.6348 0.314028 69.5897 0.23376 69.5095C0.153492 69.4292 0.108398 69.3203 0.108398 69.2068C0.108398 69.0933 0.153492 68.9844 0.23376 68.9042C0.314028 68.8239 0.422895 68.7788 0.53641 68.7788H109.941C110.054 68.7788 110.163 68.8239 110.243 68.9042C110.323 68.9844 110.369 69.0933 110.369 69.2068C110.369 69.3203 110.323 69.4292 110.243 69.5095C110.163 69.5897 110.054 69.6348 109.941 69.6348Z" fill="#093F68"/>
<path d="M41.9462 4.65827H32.9837C32.8702 4.65827 32.7613 4.61318 32.681 4.53291C32.6008 4.45264 32.5557 4.34377 32.5557 4.23026C32.5557 4.11674 32.6008 4.00788 32.681 3.92761C32.7613 3.84734 32.8702 3.80225 32.9837 3.80225H41.9334C42.0469 3.80225 42.1558 3.84734 42.2361 3.92761C42.3163 4.00788 42.3614 4.11674 42.3614 4.23026C42.3614 4.34377 42.3163 4.45264 42.2361 4.53291C42.1558 4.61318 42.0469 4.65827 41.9334 4.65827H41.9462Z" fill="#DFEAEF"/>
<path d="M50.8921 4.65827H47.4124C47.2989 4.65827 47.19 4.61318 47.1097 4.53291C47.0295 4.45264 46.9844 4.34377 46.9844 4.23026C46.9844 4.11674 47.0295 4.00788 47.1097 3.92761C47.19 3.84734 47.2989 3.80225 47.4124 3.80225H50.8921C51.0056 3.80225 51.1145 3.84734 51.1948 3.92761C51.275 4.00788 51.3201 4.11674 51.3201 4.23026C51.3201 4.34377 51.275 4.45264 51.1948 4.53291C51.1145 4.61318 51.0056 4.65827 50.8921 4.65827Z" fill="#DFEAEF"/>
<path d="M72.2711 14.5882H65.3587C65.2452 14.5882 65.1363 14.5431 65.056 14.4629C64.9758 14.3826 64.9307 14.2737 64.9307 14.1602V7.24784C64.9307 7.13432 64.9758 7.02545 65.056 6.94519C65.1363 6.86492 65.2452 6.81982 65.3587 6.81982H72.2711C72.3846 6.81982 72.4935 6.86492 72.5737 6.94519C72.654 7.02545 72.6991 7.13432 72.6991 7.24784V14.1602C72.6991 14.2737 72.654 14.3826 72.5737 14.4629C72.4935 14.5431 72.3846 14.5882 72.2711 14.5882ZM65.7867 13.7322H71.8431V7.67585H65.7867V13.7322Z" fill="#DFEAEF"/>
</g>
<defs>
<clipPath id="clip0_566_1186">
<rect width="110.482" height="70" fill="white"/>
</clipPath>
</defs>
</svg>
