<svg width="155" height="45" viewBox="0 0 155 45" fill="none" xmlns="http://www.w3.org/2000/svg">
<path d="M103.253 21.0616C103.253 18.8463 101.868 17.2539 99.307 17.2539H90.8607V28.7462H93.63V24.8001H96.8839L100.068 28.7462H103.184V28.4693L100.068 24.7308C102.076 24.3155 103.253 22.8616 103.253 21.0616ZM98.9608 22.4463H93.63V19.6078H98.9608C99.93 19.6078 100.553 20.1616 100.553 21.0616C100.622 21.9616 99.9992 22.4463 98.9608 22.4463Z" fill="black"/>
<path d="M145.069 17.1841H142.508V21.5457H135.516V17.1841H132.747V28.6764H135.516V24.1763H142.508V28.6764H145.069V17.1841Z" fill="black"/>
<path d="M83.4537 17.1841L80.4076 26.8071H80.2692L77.1538 17.1841H72.2383V28.6764H74.8691V19.261H75.0076L78.0538 28.6764H82.2769L85.3922 19.261H85.5308V28.6764H88.2307V17.1841H83.4537Z" fill="black"/>
<path d="M53.339 21.8918C52.3698 21.8226 50.5698 21.6149 49.5313 21.5457C48.5621 21.4765 48.0082 21.1303 48.0082 20.5072C48.0082 19.8841 48.6313 19.3996 50.9852 19.3996C53.0621 19.3996 55.0006 19.8841 56.7313 20.6457V18.0841C55.0698 17.2533 53.2005 16.9072 50.8466 16.9072C47.5928 16.9072 45.3082 18.2919 45.3082 20.5765C45.3082 22.5149 46.6236 23.6226 49.3236 23.8995C50.2929 24.0379 51.9544 24.1765 53.0621 24.2457C54.3082 24.3149 54.6543 24.7303 54.6543 25.2842C54.6543 26.0456 53.7544 26.5303 51.6082 26.5303C49.3929 26.5303 47.1082 25.7687 45.4467 24.7995V27.4303C46.7621 28.3303 48.9774 29.0226 51.539 29.0226C55.0698 29.0226 57.3544 27.638 57.3544 25.2149C57.3544 23.3457 56.1775 22.1687 53.339 21.8918Z" fill="black"/>
<path d="M59.2239 17.1841V28.6764H69.8856V26.3225H61.8547V23.9687H69.7471V21.6149H61.8547V19.5379H69.8856V17.1841H59.2239Z" fill="black"/>
<path d="M126.997 21.8918C126.028 21.8226 124.229 21.6149 123.191 21.5457C122.221 21.4765 121.667 21.1303 121.667 20.5072C121.667 19.8841 122.29 19.3996 124.644 19.3996C126.721 19.3996 128.66 19.8149 130.39 20.6457V18.0841C128.729 17.2533 126.859 16.9072 124.505 16.9072C121.252 16.9072 118.967 18.2919 118.967 20.5765C118.967 22.5149 120.282 23.6226 122.983 23.8995C123.952 24.0379 125.613 24.1765 126.721 24.2457C127.968 24.3149 128.313 24.7303 128.313 25.2842C128.313 26.0456 127.413 26.5303 125.267 26.5303C123.051 26.5303 120.767 25.7687 119.106 24.7995V27.4303C120.421 28.3303 122.636 29.0226 125.198 29.0226C128.729 29.0226 131.013 27.638 131.013 25.2149C131.013 23.3457 129.767 22.1687 126.997 21.8918Z" fill="black"/>
<path d="M114.333 17.1841V23.0687C114.333 25.284 112.948 26.5303 110.94 26.5303C108.863 26.5303 107.548 25.3532 107.548 23.0687V17.1841H104.779V22.7918C104.779 26.9456 107.41 29.0225 110.94 29.0225C114.402 29.0225 117.033 27.0148 117.033 22.9302V17.1841H114.333Z" fill="black"/>
<path d="M35.8924 22.8615C35.8924 23.4154 35.6155 23.4846 34.9232 23.4846C34.1616 23.4846 34.0231 23.3462 33.9539 22.7923C33.8155 21.3385 32.8463 20.0923 31.1847 20.023C30.7 19.9538 30.5616 19.8154 30.5616 19.123C30.5616 18.5 30.6308 18.223 31.1155 18.223C33.8847 18.2922 35.8924 20.5769 35.8924 22.8615ZM39.977 22.8615C39.977 18.5692 37.0693 14 30.2847 14H16.9231C16.6462 14 16.4385 14.1384 16.4385 14.4153C16.4385 14.5539 16.5077 14.6923 16.6462 14.7616C17.1308 15.1769 17.8231 15.5923 18.7923 16.0769C19.6923 16.5616 20.4539 16.8385 21.1462 17.1154C21.4231 17.2538 21.5615 17.3922 21.5615 17.5308C21.5615 17.7385 21.4231 17.9461 21.077 17.9461H10.4846C10.1385 17.8769 10 18.0846 10 18.2922C10 18.5 10.0692 18.6385 10.2077 18.7769C11.0385 19.6769 12.4231 20.7846 14.4308 22.0307C16.1616 23.1384 18.377 24.3154 20.1077 25.1461C20.3846 25.2846 20.5231 25.4231 20.5231 25.6307C20.5231 25.8384 20.3846 25.9769 20.0385 25.9769H15.1231C14.8462 25.9769 14.7077 26.1153 14.7077 26.3231C14.7077 26.4615 14.7769 26.6 14.9154 26.7384C16.0231 27.7769 17.8231 28.8153 20.177 29.8538C23.3615 31.1692 26.5462 32 30.1462 32C37.0001 32 39.977 26.8769 39.977 22.8615ZM31.0462 29.023C27.7231 29.023 24.8846 26.3231 24.8846 22.8615C24.8846 19.5385 27.6539 16.8385 31.0462 16.8385C34.5077 16.8385 37.2077 19.5385 37.2077 22.8615C37.2077 26.2539 34.5077 29.023 31.0462 29.023Z" fill="#FF642D"/>
</svg>
