<svg width="650" height="650" viewBox="0 0 650 650" fill="none" xmlns="http://www.w3.org/2000/svg">
<rect width="650" height="650" fill="white"/>
<g clip-path="url(#clip0_511_5)">
<path d="M52.1536 283.515L95.2626 298.782L84.386 305.087L54.2646 322.294L44.5703 327.854L52.1536 283.515Z" fill="#E7E8E5"/>
<path d="M239.857 520.151L266.707 507.98L208.26 408.381L181.92 431.804L135.583 350.555L110.09 367.823L68.6083 293.039L53.375 299.468L104.021 400.305L132.78 375.403L176.437 466.088L202.525 437.793L239.857 520.151Z" fill="#E7E8E5"/>
<path d="M626.92 406.11C623.865 426.436 604.873 440.434 584.5 437.374C564.126 434.312 550.086 415.354 553.14 395.027C556.193 374.7 575.185 360.703 595.558 363.764C615.932 366.824 629.973 385.784 626.92 406.11Z" fill="#F3F2F1"/>
<path d="M618.141 404.792C615.815 420.281 601.343 430.948 585.816 428.615C570.291 426.283 559.591 411.835 561.917 396.345C564.245 380.855 578.717 370.188 594.243 372.521C609.768 374.853 620.468 389.301 618.141 404.792Z" fill="#E7E8E5"/>
<path d="M618.268 403.91C618.096 403.891 618.161 402.639 618.032 400.418C617.89 398.207 617.505 394.984 616.084 391.314C615.373 389.486 614.41 387.556 613.129 385.647C611.833 383.751 610.241 381.862 608.294 380.174C607.324 379.327 606.278 378.516 605.144 377.792C604.014 377.062 602.817 376.378 601.54 375.81C600.265 375.238 598.934 374.724 597.541 374.342C596.149 373.958 594.71 373.668 593.238 373.483C591.764 373.319 590.296 373.264 588.854 373.314C587.409 373.36 585.996 373.548 584.622 373.807C583.246 374.063 581.922 374.448 580.654 374.894C579.381 375.334 578.176 375.88 577.036 376.476C574.748 377.663 572.758 379.13 571.057 380.671C569.368 382.228 567.981 383.88 566.862 385.492C564.626 388.73 563.501 391.774 562.848 393.89C562.205 396.019 561.977 397.252 561.806 397.23C561.678 397.218 561.62 395.947 562.025 393.688C562.441 391.448 563.381 388.183 565.573 384.652C566.668 382.895 568.066 381.082 569.812 379.364C571.569 377.663 573.654 376.038 576.082 374.712C577.293 374.047 578.577 373.439 579.94 372.944C581.298 372.442 582.72 372.011 584.2 371.719C585.678 371.424 587.204 371.211 588.762 371.152C590.32 371.091 591.904 371.147 593.493 371.326C595.081 371.523 596.633 371.839 598.133 372.262C599.634 372.683 601.068 373.246 602.437 373.878C603.809 374.504 605.09 375.258 606.293 376.062C607.502 376.86 608.61 377.752 609.632 378.682C611.684 380.536 613.333 382.602 614.645 384.667C615.941 386.743 616.88 388.834 617.536 390.798C618.844 394.743 618.997 398.138 618.881 400.414C618.748 402.704 618.394 403.926 618.268 403.91Z" fill="#DADBD8"/>
<path d="M595.04 409.436C595.246 407.902 594.089 406.898 592.294 405.984L591.474 412.031C593.73 411.846 594.849 410.838 595.04 409.436ZM588.934 397.855L589.776 391.635C587.384 391.846 586.292 392.992 586.094 394.438C585.888 395.971 587.089 396.982 588.934 397.855ZM590.69 417.814L590.026 422.722L585.645 422.127L586.292 417.352C581.99 416.5 578.012 414.58 575.858 412.37L578.992 407.35C580.962 409.268 583.956 410.878 587.07 411.612L588.061 404.295C583.357 402.455 578.145 400.098 578.994 393.832C579.624 389.187 583.537 385.658 590.565 385.808L591.225 380.944L595.606 381.538L594.958 386.314C598.209 387.022 601.288 388.331 603.49 390.191L600.57 395.283C598.508 393.711 596.33 392.656 594.176 392.096L593.166 399.544C597.874 401.342 603 403.688 602.164 409.864C601.546 414.422 597.682 417.914 590.69 417.814Z" fill="#DADBD8"/>
<path d="M599.859 113.098C597.197 130.804 580.655 142.995 562.909 140.33C545.161 137.664 532.932 121.15 535.592 103.444C538.252 85.7376 554.795 73.5469 572.541 76.2123C590.288 78.8776 602.517 95.3923 599.859 113.098Z" fill="#F3F2F1"/>
<path d="M592.212 111.95C590.186 125.442 577.579 134.734 564.055 132.702C550.531 130.671 541.211 118.086 543.238 104.592C545.266 91.1003 557.872 81.8083 571.395 83.8403C584.919 85.8723 594.239 98.4563 592.212 111.95Z" fill="#E7E8E5"/>
<path d="M592.321 111.181C592.172 111.164 592.229 110.073 592.117 108.14C591.993 106.215 591.657 103.407 590.42 100.209C589.801 98.6175 588.963 96.9362 587.847 95.2735C586.717 93.6215 585.331 91.9762 583.635 90.5068C582.789 89.7682 581.879 89.0628 580.891 88.4308C579.907 87.7948 578.864 87.1988 577.751 86.7041C576.641 86.2068 575.481 85.7588 574.268 85.4255C573.056 85.0908 571.803 84.8388 570.52 84.6788C569.235 84.5348 567.957 84.4882 566.701 84.5295C565.443 84.5708 564.211 84.7348 563.015 84.9602C561.816 85.1828 560.664 85.5188 559.557 85.9068C558.449 86.2908 557.4 86.7655 556.407 87.2855C554.413 88.3188 552.681 89.5961 551.2 90.9388C549.727 92.2961 548.519 93.7348 547.545 95.1402C545.597 97.9588 544.617 100.611 544.048 102.453C543.488 104.308 543.289 105.383 543.14 105.363C543.029 105.352 542.979 104.245 543.331 102.277C543.693 100.327 544.513 97.4828 546.421 94.4068C547.376 92.8762 548.593 91.2961 550.115 89.8001C551.644 88.3188 553.461 86.9028 555.576 85.7495C556.631 85.1695 557.749 84.6402 558.936 84.2082C560.119 83.7708 561.357 83.3948 562.647 83.1415C563.935 82.8855 565.264 82.6988 566.621 82.6482C567.977 82.5948 569.357 82.6428 570.743 82.7988C572.125 82.9708 573.477 83.2455 574.784 83.6135C576.092 83.9802 577.34 84.4722 578.532 85.0215C579.728 85.5682 580.844 86.2228 581.892 86.9242C582.945 87.6202 583.911 88.3962 584.8 89.2068C586.587 90.8215 588.024 92.6215 589.167 94.4202C590.295 96.2282 591.113 98.0495 591.684 99.7602C592.824 103.196 592.957 106.153 592.856 108.136C592.74 110.132 592.432 111.196 592.321 111.181Z" fill="#DADBD8"/>
<path d="M572.089 115.995C572.269 114.659 571.261 113.784 569.697 112.988L568.983 118.255C570.949 118.095 571.922 117.216 572.089 115.995ZM566.77 105.908L567.503 100.49C565.419 100.674 564.469 101.671 564.297 102.931C564.117 104.266 565.162 105.147 566.77 105.908ZM568.301 123.292L567.722 127.568L563.906 127.05L564.469 122.891C560.722 122.15 557.257 120.476 555.381 118.551L558.11 114.178C559.826 115.85 562.434 117.252 565.146 117.891L566.01 111.518C561.913 109.914 557.373 107.862 558.113 102.403C558.661 98.3577 562.069 95.283 568.192 95.4137L568.765 91.1777L572.582 91.6937L572.018 95.855C574.85 96.471 577.532 97.611 579.449 99.231L576.906 103.668C575.109 102.298 573.213 101.38 571.336 100.891L570.457 107.38C574.558 108.944 579.022 110.99 578.294 116.368C577.756 120.339 574.39 123.38 568.301 123.292Z" fill="#DADBD8"/>
<path d="M218.517 71.9108C226.359 100.755 209.28 130.507 180.372 138.368C151.463 146.228 121.671 129.219 113.83 100.375C105.987 71.5334 123.066 41.7801 151.975 33.9201C180.883 26.0601 210.676 43.0708 218.517 71.9108Z" fill="#F3F2F1"/>
<path d="M206.063 75.2987C212.039 97.2774 199.024 119.951 176.992 125.941C154.964 131.931 132.259 118.968 126.284 96.9894C120.309 75.0094 133.324 52.3361 155.353 46.3467C177.383 40.3574 200.087 53.3187 206.063 75.2987Z" fill="#E7E8E5"/>
<path d="M205.713 74.0506C205.475 74.1253 204.828 72.4213 203.355 69.54C201.872 66.6827 199.471 62.6187 195.429 58.5653C193.413 56.5493 191.001 54.5439 188.177 52.7533C185.343 50.9893 182.117 49.4067 178.537 48.3013C176.751 47.7427 174.884 47.276 172.949 46.976C171.017 46.6653 169.024 46.4573 166.991 46.4493C164.96 46.4333 162.887 46.5293 160.809 46.8373C158.732 47.1413 156.648 47.5986 154.58 48.216C152.52 48.8613 150.535 49.648 148.644 50.5573C146.749 51.4653 144.977 52.5439 143.301 53.6919C141.62 54.8386 140.084 56.1266 138.656 57.464C137.22 58.7946 135.935 60.2279 134.767 61.6893C132.418 64.6079 130.629 67.7253 129.268 70.7733C127.93 73.836 127.053 76.848 126.509 79.648C125.43 85.2666 125.713 89.9773 126.084 93.176C126.476 96.3866 126.895 98.1613 126.653 98.232C126.477 98.2893 125.655 96.632 124.87 93.3893C124.111 90.164 123.451 85.268 124.299 79.2853C124.728 76.304 125.527 73.072 126.845 69.7627C128.186 66.4707 130.01 63.0866 132.465 59.9C133.686 58.3053 135.04 56.7439 136.563 55.2866C138.077 53.8226 139.717 52.416 141.517 51.1613C143.312 49.9026 145.218 48.7253 147.257 47.7347C149.294 46.74 151.435 45.8867 153.655 45.1933C155.884 44.5253 158.135 44.0373 160.379 43.7213C162.623 43.4026 164.861 43.3133 167.053 43.352C169.247 43.3826 171.393 43.6333 173.465 44C175.543 44.356 177.54 44.8933 179.444 45.5306C183.26 46.7986 186.667 48.5813 189.621 50.5613C192.563 52.5653 195.036 54.7986 197.06 57.028C201.111 61.5133 203.304 65.94 204.483 69.0386C205.648 72.1653 205.892 73.9986 205.713 74.0506Z" fill="#DADBD8"/>
<path d="M178.035 95.011C177.412 92.8483 175.284 92.191 172.36 92.0257L174.811 100.552C177.706 98.9856 178.603 96.9896 178.035 95.011ZM163.127 83.175L160.603 74.4016C157.542 76.0843 156.76 78.2496 157.346 80.2896C157.968 82.4496 160.159 83.0936 163.127 83.175ZM177.155 108.71L179.146 115.63L172.966 117.404L171.031 110.671C164.807 112.058 158.387 111.831 154.226 110.151L155.455 101.635C159.203 103.035 164.13 103.423 168.704 102.576L165.736 92.2563C158.399 92.563 150.081 92.4776 147.54 83.6416C145.658 77.091 148.799 70.1016 158.242 66.1843L156.27 59.3243L162.45 57.5483L164.386 64.2843C169.126 63.3229 173.991 63.2616 178.01 64.447L177.107 72.9363C173.44 72.051 169.926 71.923 166.728 72.439L169.75 82.9443C177.068 82.5776 185.264 82.699 187.768 91.4096C189.616 97.8363 186.518 104.747 177.155 108.71Z" fill="#DADBD8"/>
<path d="M97.8381 163.363C94.3569 181.728 76.6137 193.788 58.2064 190.3C39.798 186.812 27.697 169.096 31.1772 150.731C34.6569 132.366 52.4006 120.306 70.8085 123.794C89.2162 127.282 101.318 144.998 97.8381 163.363Z" fill="#F3F2F1"/>
<path d="M89.9074 161.86C87.2553 175.855 73.7334 185.046 59.7048 182.387C45.6782 179.73 36.4553 166.228 39.1074 152.233C41.76 138.239 55.2818 129.047 69.3094 131.706C83.3365 134.364 92.5589 147.864 89.9074 161.86Z" fill="#E7E8E5"/>
<path d="M90.0523 161.063C89.8971 161.039 90.0002 159.904 89.9595 157.881C89.9075 155.868 89.669 152.925 88.5049 149.541C87.9226 147.855 87.1147 146.068 86.0169 144.288C84.9043 142.52 83.5242 140.748 81.8127 139.147C80.9606 138.344 80.0387 137.571 79.033 136.873C78.0314 136.171 76.9679 135.508 75.8257 134.947C74.6882 134.383 73.4961 133.871 72.2434 133.475C70.9919 133.077 69.695 132.764 68.3638 132.545C67.0289 132.344 65.6971 132.244 64.3851 132.239C63.0705 132.231 61.7794 132.353 60.5226 132.54C59.2633 132.724 58.0471 133.028 56.8783 133.391C55.7065 133.747 54.5923 134.2 53.5357 134.703C51.4158 135.701 49.557 136.965 47.9581 138.307C46.3674 139.663 45.0502 141.117 43.9783 142.543C41.8346 145.407 40.7054 148.135 40.0387 150.035C39.3809 151.947 39.1309 153.06 38.9757 153.033C38.8606 153.019 38.8513 151.861 39.2975 149.823C39.7533 147.801 40.7215 144.867 42.8351 141.735C43.8914 140.175 45.2253 138.576 46.8715 137.076C48.5267 135.591 50.4778 134.187 52.7305 133.067C53.8533 132.504 55.0419 131.996 56.2966 131.593C57.5486 131.185 58.8554 130.841 60.2111 130.628C61.5647 130.412 62.9586 130.271 64.3767 130.272C65.7939 130.269 67.2319 130.375 68.6699 130.592C70.1065 130.828 71.5054 131.168 72.8533 131.604C74.2033 132.039 75.4866 132.601 76.7086 133.221C77.933 133.84 79.0721 134.568 80.1371 135.341C81.2086 136.109 82.1846 136.957 83.0805 137.837C84.8805 139.595 86.3081 141.528 87.4283 143.451C88.5335 145.383 89.3142 147.315 89.8419 149.123C90.8934 152.752 90.9158 155.841 90.7309 157.907C90.5309 159.984 90.1663 161.083 90.0523 161.063Z" fill="#DADBD8"/>
<path d="M68.7521 165.279C68.9937 163.891 67.977 162.94 66.377 162.047L65.4229 167.512C67.4797 167.423 68.5306 166.546 68.7521 165.279ZM63.6062 154.543L64.5863 148.919C62.4051 149.028 61.3729 150.032 61.1442 151.339C60.903 152.724 61.9593 153.686 63.6062 154.543ZM64.5098 172.742L63.7359 177.178L59.7754 176.486L60.5291 172.168C56.6494 171.246 53.101 169.363 51.2202 167.279L54.2417 162.827C55.9661 164.639 58.6306 166.204 61.4349 166.98L62.589 160.364C58.3791 158.53 53.7239 156.207 54.713 150.542C55.4463 146.344 59.125 143.272 65.5067 143.652L66.2745 139.255L70.2354 139.947L69.4811 144.264C72.4103 145.02 75.163 146.316 77.0994 148.083L74.2693 152.61C72.4494 151.108 70.5073 150.075 68.5687 149.491L67.3931 156.226C71.6098 158.022 76.1859 160.332 75.2114 165.916C74.4921 170.035 70.8593 173.075 64.5098 172.742Z" fill="#DADBD8"/>
<path d="M627.624 462.313L595.236 461.137L600.76 468.128L616.126 487.319L621.064 493.509L627.624 462.313Z" fill="#F3F2F1"/>
<path d="M442.244 569.331L427.723 554.313L492.201 503.911L503.453 526.212L555.168 484.747L567.468 502.771L614.297 464.3L622.66 472.509L563 525.76L550.539 501.852L498.131 550.235L488.313 524.788L442.244 569.331Z" fill="#F3F2F1"/>
<path d="M566.052 173.98L522.792 197.02L535.323 201.974L569.985 215.418L581.145 219.767L566.052 173.98Z" fill="#DADBD8"/>
<path d="M404.761 454.654L374.369 446.027L420.466 331.164L452.11 351.798L488.294 258.311L518.061 272.556L550.126 186.694L567.296 191.085L529.662 306.018L495.218 284.2L463.377 387.263L431.224 361.426L404.761 454.654Z" fill="#DADBD8"/>
<path d="M629.239 617.932C629.239 618.124 492.173 618.28 323.133 618.28C154.036 618.28 17 618.124 17 617.932C17 617.742 154.036 617.585 323.133 617.585C492.173 617.585 629.239 617.742 629.239 617.932Z" fill="#17282F"/>
<path d="M373.209 617.611H406.097V563.783H373.209V617.611Z" fill="#FEE13E"/>
<path d="M505.839 617.611H538.728V526.292H505.839V617.611Z" fill="#FEE13E"/>
<path d="M572.153 617.611H605.043V584.433H572.153V617.611Z" fill="#FEE13E"/>
<path d="M439.524 617.611H472.414V538.204H439.524V617.611Z" fill="#FEE13E"/>
<path d="M306.895 617.611H339.783V518.678H306.895V617.611Z" fill="#FEE13E"/>
<path d="M240.58 617.611H273.468V490.347H240.58V617.611Z" fill="#FEE13E"/>
<path d="M174.264 617.611H207.153V458.798H174.264V617.611Z" fill="#FEE13E"/>
<path d="M107.949 617.611H140.838V416.007H107.949V617.611Z" fill="#FEE13E"/>
<path d="M41.6348 617.611H74.5233V352.603H41.6348V617.611Z" fill="#FEE13E"/>
<path d="M547.545 581.942C537.074 561.48 514.898 547.549 491.92 547.001C505.864 531.575 508.609 507.712 500.568 488.535C492.528 469.357 474.826 455.064 454.968 448.895C435.11 442.725 413.374 444.177 393.582 450.557C395.878 435.563 380.884 420.599 365.893 422.927C371.754 418.873 373.754 410.143 370.242 403.943C366.73 397.743 358.214 394.968 351.725 397.909L352.602 288.008H330.946H308.925H287.269L288.146 397.909C281.656 394.968 273.14 397.743 269.628 403.943C266.117 410.143 268.117 418.873 273.977 422.927C258.988 420.599 243.992 435.563 246.288 450.557C226.496 444.177 204.76 442.725 184.902 448.895C165.044 455.064 147.344 469.357 139.302 488.535C131.261 507.712 134.008 531.575 147.951 547.001C124.973 547.549 102.796 561.48 92.3258 581.942C86.243 593.83 85.6837 611.392 97.5014 617.611H308.925H330.946H542.369C554.186 611.392 553.628 593.83 547.545 581.942Z" fill="#E7E8E5"/>
<path d="M97.5016 617.611C97.5016 617.611 96.963 617.297 95.9156 616.654C94.8844 615.996 93.4546 614.807 91.964 612.903C90.5177 610.968 89.203 608.192 88.5136 604.697C87.7978 601.208 87.8161 597.019 88.6526 592.445C89.4598 587.864 91.3478 582.925 94.3333 578.068C97.2812 573.189 101.22 568.291 106.213 563.806C111.213 559.354 117.206 555.177 124.277 552.164C125.16 551.791 126.051 551.415 126.948 551.035C127.868 550.715 128.795 550.391 129.728 550.066C130.655 549.716 131.612 549.442 132.583 549.187C133.553 548.931 134.518 548.627 135.512 548.406C139.482 547.494 143.648 546.963 147.946 546.791L147.795 547.143C143.729 542.604 140.404 537.089 138.093 530.939C135.827 524.773 134.615 517.971 134.601 510.945C134.652 503.924 135.843 496.649 138.592 489.692C139.954 486.219 141.63 482.803 143.694 479.565C145.716 476.307 148.051 473.173 150.708 470.267C161.24 458.565 176.277 449.799 193.252 446.48C201.716 444.745 210.597 444.313 219.549 444.939C228.501 445.632 237.527 447.428 246.384 450.261L245.98 450.604C245.447 447.063 245.863 443.335 247.121 439.865C248.373 436.389 250.427 433.16 253.055 430.431C255.683 427.704 258.899 425.459 262.504 424.023C266.099 422.587 270.115 421.999 274.027 422.605L273.792 423.193C268.131 419.273 265.773 410.821 269.113 404.237C272.479 397.687 281.313 394.5 288.284 397.605L287.812 397.912C287.529 362.909 287.231 326.011 286.923 288.011L286.92 287.661H287.269C297.629 287.661 308.729 287.661 319.911 287.661C330.895 287.661 341.801 287.661 352.603 287.661H352.952L352.949 288.011C352.641 325.92 352.344 362.708 352.059 397.912L351.587 397.605C358.432 394.555 367.117 397.548 370.629 403.979C374.099 410.439 371.963 419.097 366.079 423.195L365.844 422.605C369.711 422.003 373.675 422.567 377.239 423.967C380.812 425.365 384.016 427.561 386.657 430.255C389.297 432.949 391.389 436.16 392.685 439.659C393.987 443.152 394.449 446.951 393.892 450.605L393.488 450.26C402.344 447.429 411.364 445.633 420.309 444.939C429.253 444.313 438.127 444.741 446.583 446.473C463.541 449.777 478.565 458.521 489.103 470.199C491.764 473.099 494.093 476.231 496.125 479.481C498.196 482.711 499.867 486.128 501.243 489.595C502.673 493.049 503.552 496.644 504.276 500.191C504.92 503.76 505.241 507.33 505.268 510.847C505.277 517.879 504.056 524.691 501.803 530.877C499.492 537.044 496.161 542.583 492.076 547.143L491.925 546.792C496.231 546.963 500.401 547.496 504.377 548.409C505.371 548.632 506.339 548.936 507.309 549.192C508.281 549.447 509.239 549.724 510.167 550.073C511.101 550.4 512.029 550.723 512.949 551.044C513.848 551.425 514.739 551.803 515.623 552.177C522.7 555.195 528.692 559.381 533.693 563.836C538.685 568.325 542.62 573.228 545.564 578.108C548.544 582.968 550.425 587.906 551.225 592.485C552.06 597.056 552.069 601.242 551.351 604.725C550.66 608.214 549.341 610.983 547.899 612.916C546.407 614.813 544.981 616 543.952 616.656C542.907 617.297 542.369 617.611 542.369 617.611C542.369 617.611 542.888 617.263 543.919 616.608C544.935 615.939 546.34 614.743 547.805 612.848C549.223 610.916 550.513 608.163 551.183 604.692C551.879 601.23 551.851 597.068 551.004 592.527C550.188 587.972 548.309 583.085 545.327 578.252C542.381 573.403 538.452 568.535 533.473 564.08C528.487 559.659 522.516 555.507 515.473 552.521C514.593 552.149 513.707 551.776 512.813 551.4C511.897 551.083 510.973 550.763 510.044 550.44C509.121 550.095 508.169 549.82 507.203 549.569C506.236 549.318 505.275 549.016 504.287 548.797C500.335 547.897 496.189 547.375 491.915 547.211L491.467 547.195L491.764 546.86C495.804 542.333 499.096 536.84 501.379 530.721C503.603 524.584 504.805 517.824 504.787 510.848C504.755 507.359 504.432 503.82 503.789 500.282C503.065 496.766 502.191 493.203 500.768 489.782C499.401 486.347 497.74 482.96 495.681 479.76C493.663 476.537 491.349 473.432 488.704 470.559C478.233 458.981 463.312 450.312 446.467 447.047C438.067 445.332 429.248 444.915 420.355 445.543C411.46 446.24 402.488 448.032 393.679 450.855L393.199 451.008L393.275 450.511C393.812 446.968 393.363 443.28 392.093 439.879C390.829 436.469 388.784 433.333 386.203 430.701C383.62 428.071 380.485 425.927 377.004 424.567C373.532 423.204 369.687 422.663 365.944 423.248L364.543 423.467L365.709 422.66C371.307 418.784 373.365 410.417 370.049 404.293C366.735 398.183 358.347 395.297 351.863 398.213L351.387 398.428L351.391 397.907C351.668 362.703 351.957 325.913 352.256 288.005L352.603 288.355C341.801 288.355 330.895 288.355 319.911 288.355C308.729 288.355 297.629 288.355 287.269 288.355L287.615 288.005C287.915 326.005 288.205 362.904 288.48 397.907L288.484 398.428L288.008 398.213C281.404 395.244 272.872 398.316 269.699 404.54C266.505 410.785 268.777 418.951 274.161 422.66L275.333 423.467L273.927 423.248C270.14 422.657 266.244 423.224 262.741 424.621C259.228 426.017 256.083 428.209 253.513 430.873C248.356 436.164 245.521 443.597 246.596 450.511L246.673 451.008L246.192 450.855C237.381 448.031 228.404 446.239 219.504 445.541C210.604 444.913 201.776 445.336 193.367 447.052C176.507 450.333 161.571 459.024 151.107 470.625C148.466 473.507 146.146 476.612 144.137 479.843C142.086 483.051 140.42 486.437 139.066 489.877C136.334 496.768 135.142 503.982 135.082 510.947C135.086 517.916 136.28 524.666 138.517 530.783C140.799 536.884 144.085 542.356 148.107 546.86L148.405 547.195L147.956 547.212C143.688 547.375 139.549 547.895 135.602 548.794C134.615 549.011 133.654 549.312 132.69 549.564C131.724 549.816 130.772 550.087 129.851 550.432C128.922 550.755 128 551.073 127.085 551.391C126.192 551.767 125.306 552.139 124.427 552.509C117.39 555.491 111.418 559.631 106.432 564.049C101.453 568.5 97.5197 573.364 94.5708 578.212C91.5828 583.044 89.6964 587.931 88.874 592.487C88.0254 597.031 87.989 601.196 88.6822 604.666C89.3494 608.139 90.6364 610.901 92.0578 612.835C93.5229 614.735 94.9317 615.933 95.9484 616.606C96.9812 617.263 97.5016 617.611 97.5016 617.611Z" fill="#17282F"/>
<path d="M235.179 137.344L317.461 41.5616L396.529 137.344H365.673V293.552H269.891V137.508L235.179 137.344Z" fill="#FEE13E"/>
<path d="M625.974 292.983L567.726 310.883L581.868 319.811L621.052 344.193L633.662 352.071L625.974 292.983Z" fill="#FEE13E"/>
<path d="M363.094 596.139L327.995 578.598L411.259 449.899L445.067 482.308L511.206 377.251L544.22 401.468L603.539 304.708L623.479 314.032L550.536 444.784L513.587 410.287L450.504 527.978L417.296 489.135L363.094 596.139Z" fill="#FEE13E"/>
<path d="M204.931 591.176C208.165 576.814 220.696 565.012 235.225 562.645C238.744 562.074 242.548 561.93 245.416 559.814C245.416 559.814 249.32 553.273 251.479 550.059C259.001 538.856 267.857 532.85 276.431 528.556C286.308 523.611 295.409 521.467 305.284 521.467C309.771 521.467 314.419 521.91 319.368 522.733C332.06 524.844 344.251 531.9 351.425 542.381L327.995 578.598L348.496 588.844L204.931 591.176ZM366.94 588.544L382.357 558.109C387.743 558.511 392.971 559.997 397.456 562.969C405.441 568.263 410.127 579.102 406.345 587.904L366.94 588.544Z" fill="#979999"/>
<path d="M348.496 588.844L327.995 578.597L351.426 542.381C353.208 544.985 354.682 547.803 355.776 550.807C356.851 553.761 357.775 557.132 360.471 558.747C361.66 559.459 362.988 559.704 364.366 559.704C366.136 559.704 367.99 559.299 369.736 558.954C372.84 558.342 376.044 557.994 379.234 557.994C380.278 557.994 381.322 558.031 382.358 558.108L366.94 588.544L348.496 588.844Z" fill="#FEE13E"/>
<path d="M193.894 604.32C200.188 582.024 225.012 566.719 247.76 571.109C252.558 546.845 275.822 527.578 300.555 527.384C325.288 527.191 348.852 546.094 354.028 570.279C367.696 567.132 382.396 564.79 395.446 569.931C408.495 575.073 418.49 590.367 413.09 603.312" fill="#E7E8E5"/>
<path d="M413.091 603.312C413.083 603.308 413.118 603.18 413.194 602.93C413.28 602.657 413.395 602.293 413.544 601.821C413.708 601.336 413.918 600.736 414.023 599.985C414.147 599.243 414.376 598.395 414.384 597.403C414.724 593.521 413.796 587.454 409.531 581.431C407.424 578.444 404.551 575.5 400.891 573.069C397.264 570.573 392.7 568.969 387.736 568.011C382.748 567.111 377.318 566.987 371.671 567.524C366.018 568.039 360.152 569.19 354.098 570.583L353.794 570.652L353.724 570.344C351.562 560.761 346.376 551.069 338.323 543.418C330.343 535.78 319.676 529.968 307.848 528.276C300.486 527.244 293.01 527.819 286.196 530.015C279.366 532.145 273.14 535.563 267.824 539.767C262.508 543.975 258.074 548.966 254.756 554.354C251.428 559.739 249.19 565.49 248.047 571.167L247.99 571.451L247.704 571.396C242.622 570.439 237.607 570.499 232.966 571.209C230.626 571.494 228.419 572.143 226.268 572.709C225.216 573.076 224.18 573.439 223.159 573.795C222.126 574.12 221.19 574.643 220.223 575.045C218.274 575.831 216.564 576.944 214.836 577.86C214.023 578.406 213.224 578.939 212.442 579.464C212.05 579.727 211.663 579.987 211.279 580.245C210.908 580.521 210.559 580.818 210.203 581.099C209.498 581.667 208.806 582.223 208.128 582.767C207.458 583.318 206.875 583.94 206.266 584.504C205.674 585.085 205.059 585.62 204.526 586.203C204.004 586.799 203.496 587.379 203.002 587.943C199.088 592.518 196.904 596.764 195.623 599.703C194.976 601.173 194.65 602.368 194.342 603.14C194.06 603.923 193.894 604.32 193.894 604.32C193.894 604.32 194.328 602.656 195.459 599.635C196.694 596.661 198.842 592.364 202.744 587.724C203.239 587.152 203.746 586.563 204.267 585.96C204.799 585.368 205.414 584.826 206.006 584.235C206.615 583.663 207.199 583.031 207.871 582.471C208.55 581.918 209.243 581.352 209.952 580.776C210.308 580.491 210.659 580.19 211.031 579.909C211.416 579.647 211.804 579.381 212.198 579.114C212.986 578.58 213.787 578.036 214.604 577.483C216.342 576.548 218.062 575.418 220.024 574.614C220.998 574.202 221.942 573.672 222.983 573.338C224.014 572.972 225.058 572.603 226.119 572.227C228.29 571.644 230.519 570.979 232.884 570.683C237.576 569.945 242.655 569.867 247.815 570.823L247.474 571.054C248.614 565.303 250.864 559.478 254.219 554.023C257.564 548.564 262.04 543.509 267.411 539.245C272.78 534.987 279.076 531.521 285.995 529.359C292.894 527.13 300.48 526.542 307.947 527.588C319.939 529.306 330.727 535.196 338.792 542.931C346.928 550.68 352.166 560.5 354.332 570.215L353.959 569.976C360.03 568.595 365.924 567.454 371.619 566.952C377.306 566.43 382.79 566.572 387.831 567.504C392.842 568.492 397.468 570.143 401.139 572.697C404.838 575.183 407.726 578.181 409.835 581.219C414.107 587.344 414.986 593.506 414.58 597.419C414.556 598.419 414.31 599.272 414.168 600.018C414.046 600.769 413.82 601.369 413.64 601.852C413.47 602.319 413.339 602.68 413.24 602.948C413.148 603.192 413.098 603.315 413.091 603.312Z" fill="#17282F"/>
<path d="M144.776 263.408C145.185 289.013 166.256 309.513 191.744 309.101C217.233 308.691 237.637 287.523 237.228 261.916C236.819 236.309 215.748 215.812 190.26 216.223C164.771 216.633 144.367 237.801 144.776 263.408ZM287.681 261.101C288.539 314.656 245.864 358.927 192.555 359.788C139.246 360.648 95.178 317.777 94.3222 264.223C93.4654 210.667 136.141 166.396 189.449 165.536C242.758 164.676 286.825 207.547 287.681 261.101Z" fill="#DADBD8"/>
<path d="M287.681 261.102C288.537 314.656 245.864 358.927 192.555 359.787L191.744 309.102C217.233 308.69 237.637 287.522 237.228 261.915C236.819 236.31 215.748 215.812 190.26 216.223L189.449 165.538C242.759 164.678 286.825 207.547 287.681 261.102Z" fill="#33535F"/>
<path d="M192.421 309.754L193.211 359.107C245.84 357.896 287.861 314.076 287.015 261.112C286.603 235.388 276.217 211.338 257.771 193.392C239.483 175.602 215.481 165.963 190.125 166.195L190.916 215.551C203.137 215.535 214.764 220.227 223.613 228.835C232.621 237.599 237.693 249.343 237.895 261.904C238.307 287.655 217.967 308.98 192.421 309.754ZM191.899 360.464L191.067 308.447L191.733 308.435C216.856 308.03 236.965 287.166 236.561 261.926C236.365 249.719 231.437 238.307 222.684 229.791C213.931 221.276 202.437 216.71 190.269 216.89L189.603 216.9L188.772 164.882L189.437 164.871C215.417 164.452 239.997 174.242 258.7 192.436C277.401 210.63 287.931 235.011 288.348 261.091C289.209 315.014 246.243 359.588 192.565 360.454L191.899 360.464Z" fill="#33535F"/>
<path d="M201.236 367.583C138.868 368.589 89.1154 320.187 88.1138 257.532L147.14 256.58C147.619 286.537 170.414 305.399 200.233 304.917L201.236 367.583Z" fill="#FEE13E"/>
<path d="M122.024 258.553C122.399 258.811 116.819 267.56 109.562 278.092C102.303 288.627 96.1164 296.955 95.7414 296.697C95.3669 296.439 100.946 287.692 108.205 277.156C115.461 266.625 121.649 258.295 122.024 258.553Z" fill="#17282F"/>
<path d="M147.684 263.492C148.059 263.751 139.806 276.379 129.252 291.696C118.695 307.018 109.836 319.224 109.462 318.966C109.086 318.708 117.338 306.082 127.895 290.76C138.448 275.444 147.309 263.235 147.684 263.492Z" fill="#17282F"/>
<path d="M160.17 289.738C160.545 289.995 153.116 301.428 143.578 315.271C134.037 329.118 126.001 340.13 125.626 339.871C125.252 339.614 132.68 328.183 142.221 314.335C151.758 300.494 159.796 289.479 160.17 289.738Z" fill="#17282F"/>
<path d="M181.901 304.253C182.276 304.512 174.847 315.945 165.309 329.787C155.768 343.633 147.733 354.647 147.358 354.388C146.983 354.129 154.411 342.699 163.952 328.852C173.489 315.011 181.527 303.996 181.901 304.253Z" fill="#17282F"/>
<path d="M200.517 322.679C200.892 322.937 194.821 332.397 186.96 343.807C179.096 355.22 172.42 364.26 172.044 364.001C171.669 363.744 177.738 354.285 185.602 342.872C193.464 331.463 200.142 322.421 200.517 322.679Z" fill="#17282F"/>
<path d="M508.358 76.1631C508.358 76.1631 514.179 62.7471 514.464 60.6471C514.75 58.5484 514.162 53.8857 512.654 52.6111C511.147 51.3377 509.198 51.0724 507.855 51.9591C507.855 51.9591 507.642 49.0284 504.663 48.4711C501.683 47.9138 501.767 50.6738 501.767 50.6738C501.767 50.6738 501.903 48.6284 499.738 48.0817C498.68 47.8137 497.472 48.4204 497.472 48.4204C497.472 48.4204 494.627 45.8858 492.732 47.4604C490.838 49.0364 493.02 73.4684 493.02 73.4684L508.358 76.1631Z" fill="#F9A78D"/>
<path d="M492.634 70.6655C492.634 70.6655 487.434 61.7109 487.461 59.2709C487.486 56.8295 490.41 51.2962 492.033 50.6002C493.656 49.9042 500.081 48.4588 500.081 48.4588C500.081 48.4588 502.702 50.9229 498.824 53.3629L494.346 55.8841C494.346 55.8841 501.497 58.2749 501.269 65.5762" fill="#F9A78D"/>
<path d="M501.269 65.576C501.151 65.5867 501.307 64.276 500.605 62.1987C500.223 61.18 499.569 60.0013 498.507 58.9107C497.453 57.8293 495.985 56.8133 494.253 56.1613L493.661 55.94L494.203 55.6294C495.615 54.8187 497.136 53.9453 498.743 53.0227C499.484 52.552 500.192 51.9027 500.488 51.0987C500.788 50.304 500.469 49.3427 499.845 48.7094L500.156 48.7947C499.056 49.056 497.897 49.332 496.721 49.6133C495.805 49.84 494.901 50.072 494.02 50.3187C493.581 50.444 493.144 50.5693 492.725 50.7107C492.516 50.78 492.304 50.8547 492.128 50.94C491.973 51.0174 491.817 51.1334 491.665 51.2707C490.469 52.4454 489.631 54.004 488.936 55.44C488.596 56.172 488.292 56.9013 488.073 57.6253C487.868 58.3453 487.677 59.076 487.795 59.7133C488.076 61.072 488.645 62.3333 489.131 63.456C490.143 65.708 491.072 67.488 491.699 68.7227C492.329 69.956 492.676 70.6414 492.635 70.6654C492.593 70.6894 492.167 70.0493 491.461 68.8533C490.76 67.6533 489.764 65.908 488.685 63.6613C488.164 62.5267 487.565 61.3054 487.227 59.8094C487.075 58.9947 487.285 58.2147 487.488 57.452C487.708 56.6854 488.012 55.9307 488.355 55.172C489.072 53.6707 489.863 52.112 491.211 50.7654C491.389 50.6027 491.588 50.4467 491.837 50.32C492.065 50.2107 492.284 50.136 492.504 50.0613C492.944 49.9107 493.387 49.7827 493.832 49.6533C494.725 49.4013 495.633 49.168 496.553 48.9387C497.736 48.6587 498.9 48.384 500.005 48.1227L500.188 48.08L500.317 48.208C501.121 49.012 501.521 50.24 501.125 51.32C500.72 52.3707 499.904 53.06 499.087 53.5773C497.46 54.484 495.92 55.3413 494.489 56.1387L494.439 55.6067C496.299 56.34 497.767 57.416 498.851 58.5827C499.935 59.7533 500.577 61.0147 500.927 62.0893C501.077 62.636 501.217 63.12 501.248 63.5587C501.309 63.992 501.352 64.36 501.329 64.6613C501.32 65.2613 501.3 65.5774 501.269 65.576Z" fill="#F57F62"/>
<path d="M501.236 50.7896C500.513 53.3856 500.252 56.1097 500.468 58.7963C500.541 59.7083 500.7 60.6817 501.333 61.3417C501.935 61.971 502.885 62.1897 503.74 62.0297C504.596 61.8697 505.359 61.371 505.972 60.7536" fill="#F9A78D"/>
<path d="M505.972 60.7524C506.021 60.7738 505.541 61.6698 504.057 62.2071C503.327 62.4431 502.275 62.4617 501.372 61.8057C500.441 61.1164 500.187 59.8538 500.117 58.7604C499.751 54.2284 501.085 50.7084 501.236 50.7897C501.447 50.8351 500.451 54.3324 500.809 58.7071C500.876 59.7804 501.107 60.7871 501.764 61.3018C502.419 61.8218 503.289 61.8844 503.929 61.7337C505.256 61.3897 505.895 60.6458 505.972 60.7524Z" fill="#F57F62"/>
<path d="M495.513 55.6205C495.061 56.7859 495.224 57.2952 495.293 58.5419C495.364 59.7899 496.118 61.0899 497.333 61.3805C498.346 61.6245 499.657 60.2685 500.253 58.8619" fill="#F9A78D"/>
<path d="M500.253 58.8616C500.329 58.887 500.22 59.5243 499.629 60.367C499.326 60.775 498.928 61.2656 498.245 61.587C497.924 61.7483 497.404 61.795 497.025 61.6443C496.636 61.519 496.277 61.2803 495.981 60.983C495.388 60.379 495.106 59.615 495.014 58.923C494.964 58.2203 494.948 57.6976 494.962 57.1643C495.03 56.107 495.453 55.5856 495.513 55.6203C495.626 55.6576 495.388 56.2443 495.453 57.1603C495.521 57.7403 495.584 58.291 495.646 58.827C495.754 59.4017 496.014 60.031 496.476 60.495C496.705 60.7243 496.966 60.903 497.246 61.0003C497.53 61.107 497.73 61.0883 498.002 60.995C498.513 60.795 498.933 60.3936 499.248 60.059C499.882 59.3656 500.153 58.8176 500.253 58.8616Z" fill="#F57F62"/>
<path d="M508.334 52.1122C506.874 53.6949 505.799 55.6308 505.23 57.7082C504.93 58.7962 504.834 60.1309 505.67 60.8909C506.544 61.6882 507.967 61.3908 508.971 60.7642C510.496 59.8135 511.595 58.2055 511.926 56.4402" fill="#F9A78D"/>
<path d="M511.925 56.4403C511.993 56.4323 512.012 57.5829 511.065 59.0923C510.588 59.8309 509.867 60.6296 508.819 61.2176C508.289 61.4976 507.672 61.711 506.98 61.711C506.3 61.7256 505.497 61.399 505.084 60.7323C504.663 60.0723 504.632 59.3243 504.697 58.6856C504.767 58.0336 504.953 57.447 505.139 56.9083C505.519 55.823 506.008 54.9056 506.48 54.1816C507.433 52.7323 508.28 52.0563 508.333 52.1123C508.417 52.187 507.712 52.9736 506.9 54.435C506.499 55.1643 506.076 56.0656 505.745 57.111C505.583 57.6376 505.424 58.187 505.375 58.7523C505.321 59.315 505.376 59.9083 505.665 60.3523C506.263 61.2936 507.636 61.115 508.525 60.6496C509.459 60.1643 510.175 59.4617 510.663 58.8123C511.644 57.4857 511.808 56.407 511.925 56.4403Z" fill="#F57F62"/>
<path d="M435.967 162.071C435.967 162.071 443.193 154.276 446.04 152.528C448.887 150.78 467.697 128.369 469.684 122.472C471.672 116.575 490.115 69.2281 489.736 69.8668C489.419 70.4001 513.151 74.8788 513.151 74.8788C513.151 74.8788 495.48 129.479 493.329 135.727C489.435 147.044 470.143 169.968 459.147 183.713C454.464 189.567 447.984 208.308 447.984 208.308L435.967 162.071Z" fill="#0693E3"/>
<path d="M453.195 191.472C453.107 191.483 452.811 189.853 452.511 187.195C452.21 184.536 451.928 180.845 451.856 176.761C451.788 172.676 451.941 168.977 452.151 166.309C452.36 163.641 452.599 162.004 452.688 162.011C452.791 162.02 452.724 163.671 452.642 166.336C452.558 169.001 452.483 172.683 452.551 176.749C452.623 180.813 452.824 184.489 452.999 187.151C453.174 189.812 453.296 191.46 453.195 191.472Z" fill="#33535F"/>
<path d="M334.046 469.764L323.889 490.466L322.593 495.537C322.593 495.537 329.373 526.306 325.136 529.339L294.898 480.529L302.69 475.62L312.373 454.931L334.046 469.764Z" fill="#33535F"/>
<path d="M294.898 480.529L298.726 478.333L326.285 525.951C326.285 525.951 326.737 528.682 325.136 529.339L294.898 480.529Z" fill="#17282F"/>
<path d="M323.319 496.182C323.088 496.315 322.248 495.187 320.796 494.466C319.36 493.707 318.008 493.711 317.963 493.435C317.87 493.188 319.439 492.704 321.184 493.609C322.935 494.497 323.559 496.106 323.319 496.182Z" fill="#17282F"/>
<path d="M324.485 502.55C324.301 502.74 323.277 501.947 321.821 501.731C320.37 501.473 319.212 501.91 319.074 501.667C318.9 501.464 320.12 500.478 321.926 500.78C323.734 501.067 324.697 502.41 324.485 502.55Z" fill="#17282F"/>
<path d="M320.485 509.068C320.304 508.881 321.226 507.847 322.84 507.691C324.455 507.521 325.638 508.342 325.512 508.56C325.411 508.809 324.299 508.499 322.976 508.648C321.65 508.767 320.655 509.291 320.485 509.068Z" fill="#17282F"/>
<path d="M437.636 317.427C436.639 319.785 385.627 397.877 375.161 406.555C364.697 415.233 328.976 486.464 328.976 486.464C328.976 486.464 299.793 472.307 299.143 473.845C298.492 475.385 319.609 423.563 332.205 402.285C344.801 381.008 350.681 372.773 350.681 372.773L375.749 305.945C375.749 305.945 376.268 283.928 379.491 275.363C382.713 266.799 392.144 259.357 392.144 259.357L437.636 317.427Z" fill="#17282F"/>
<path d="M391.681 411.8L364.558 413.747C364.558 413.747 357.586 443.476 352.612 444.351L346.646 389.024L388.772 384.16L391.681 411.8Z" fill="#33535F"/>
<path d="M364.986 396.39C364.594 395.348 363.372 394.735 362.374 395.096C361.375 395.456 360.783 396.754 361.159 397.802C361.534 398.848 362.979 399.634 363.932 399.156C364.884 398.679 365.5 397.115 364.898 396.191" fill="#DADBD8"/>
<path d="M346.646 389.024L350.912 388.708L355.037 441.873C355.037 441.873 354.287 444.448 352.612 444.351L346.646 389.024Z" fill="#17282F"/>
<path d="M364.921 414.615C364.664 414.633 364.403 413.296 363.436 412.057C362.5 410.792 361.316 410.228 361.392 409.968C361.415 409.715 362.988 409.948 364.135 411.471C365.292 412.98 365.163 414.647 364.921 414.615Z" fill="#17282F"/>
<path d="M363.272 420.668C363.031 420.758 362.469 419.635 361.288 418.836C360.128 418.002 358.931 417.899 358.913 417.628C358.845 417.379 360.325 417.027 361.777 418.05C363.237 419.058 363.516 420.635 363.272 420.668Z" fill="#17282F"/>
<path d="M357.046 424.688C356.964 424.448 358.203 423.931 359.68 424.471C361.162 425 361.852 426.212 361.651 426.351C361.456 426.527 360.615 425.789 359.396 425.365C358.187 424.912 357.099 424.953 357.046 424.688Z" fill="#17282F"/>
<path d="M371.049 413.447C370.804 413.36 371.024 412.081 370.761 410.565C370.526 409.044 369.913 407.909 370.117 407.744C370.285 407.567 371.358 408.623 371.644 410.413C371.944 412.201 371.265 413.557 371.049 413.447Z" fill="#17282F"/>
<path d="M367.93 296.959C367.93 296.959 367.856 322.976 379.666 331.77C391.475 340.563 432.443 373.615 432.443 373.615L367.05 384.795L371.936 415.118C371.936 415.118 460.216 406.21 471.02 402.592C481.826 398.976 489.598 380.702 481.139 367.998C476.89 361.618 432.943 299.143 432.943 299.143L431.626 282.375L376.223 285.878L367.93 296.959Z" fill="#17282F"/>
<path d="M371.936 415.118C371.924 415.119 371.881 414.939 371.812 414.587C371.74 414.198 371.644 413.679 371.523 413.02C371.276 411.598 370.927 409.574 370.48 406.99C369.601 401.708 368.343 394.146 366.795 384.836L366.752 384.583L367.007 384.54C382.721 381.83 403.709 378.21 426.713 374.243C428.656 373.911 430.584 373.582 432.385 373.274L432.223 373.882C423.009 366.268 414.24 359.104 406.256 352.66C402.248 349.462 398.447 346.428 394.892 343.591C391.336 340.774 387.917 338.256 385.088 335.611C379.411 330.348 375.687 325.279 373.439 321.63C372.311 319.802 371.559 318.312 371.08 317.292C370.837 316.783 370.676 316.384 370.569 316.116C370.464 315.847 370.421 315.706 370.432 315.702C370.443 315.698 370.507 315.83 370.632 316.09C370.759 316.347 370.94 316.735 371.201 317.232C371.717 318.23 372.503 319.692 373.66 321.491C375.965 325.082 379.727 330.076 385.411 335.26C388.236 337.863 391.653 340.342 395.237 343.15C398.827 345.943 402.644 348.963 406.649 352.171C414.66 358.59 423.444 365.736 432.664 373.348L433.247 373.83L432.501 373.956C430.701 374.266 428.773 374.595 426.831 374.927C403.815 378.827 382.816 382.386 367.093 385.05L367.305 384.754C368.759 394.079 369.94 401.654 370.765 406.944C371.153 409.538 371.457 411.57 371.671 412.996C371.761 413.66 371.833 414.183 371.887 414.575C371.932 414.931 371.949 415.115 371.936 415.118Z" fill="#33535F"/>
<path d="M450.089 375.494C450.028 375.698 446.205 374.567 441.348 374.066C436.493 373.535 432.517 373.835 432.501 373.623C432.493 373.535 433.478 373.346 435.096 373.234C436.71 373.12 438.958 373.115 441.421 373.375C443.884 373.639 446.08 374.116 447.634 374.567C449.192 375.016 450.116 375.408 450.089 375.494Z" fill="#33535F"/>
<path d="M409.708 78.6524C410.445 76.2404 412.856 74.4564 415.368 74.4631C417.808 71.6724 422.277 70.9484 425.474 72.8257C427.394 71.1524 430.208 70.5857 432.625 71.3843C435.042 72.183 436.976 74.3204 437.538 76.815C439.968 75.9604 442.9 76.835 444.477 78.8857C446.053 80.9364 446.157 84.0084 444.721 86.155C447.605 86.5497 449.962 89.355 449.868 92.2804C449.773 95.2044 447.24 97.8404 444.336 98.0337L412.046 85.3284C409.966 83.9084 408.97 81.0657 409.708 78.6524Z" fill="#17282F"/>
<path d="M445.334 98.703C441.944 85.9363 429.376 77.911 416.454 80.259L415.17 80.4923C401.474 83.8217 399.436 97.435 403.15 111.116L413.754 162.556L439.221 177.682L442.282 166.452L442.25 148.126C442.25 148.126 455.182 143.627 452.916 130.214C451.821 123.735 448.488 110.576 445.334 98.703Z" fill="#F9A78D"/>
<path d="M442.357 148.087C442.357 148.087 433.953 150.146 423.99 146.122C423.99 146.122 429.2 155.748 442.258 152.131L442.357 148.087Z" fill="#F57F62"/>
<path d="M443.691 111.308C443.909 112.311 443.245 113.323 442.208 113.57C441.173 113.816 440.155 113.207 439.937 112.203C439.719 111.199 440.381 110.187 441.416 109.94C442.453 109.694 443.472 110.307 443.691 111.308Z" fill="#17282F"/>
<path d="M443.934 106.423C443.745 106.716 442.11 105.905 440.066 106.283C438.02 106.629 436.71 107.96 436.444 107.749C436.314 107.656 436.473 107.163 437.04 106.565C437.596 105.972 438.609 105.309 439.884 105.084C441.158 104.86 442.316 105.136 443.02 105.507C443.737 105.879 444.03 106.291 443.934 106.423Z" fill="#17282F"/>
<path d="M425.833 115.343C426.052 116.346 425.388 117.356 424.35 117.604C423.316 117.85 422.298 117.24 422.078 116.236C421.861 115.234 422.525 114.22 423.56 113.974C424.596 113.727 425.614 114.34 425.833 115.343Z" fill="#17282F"/>
<path d="M424.322 109.691C424.131 109.983 422.495 109.174 420.452 109.551C418.406 109.898 417.098 111.228 416.83 111.016C416.7 110.926 416.856 110.432 417.426 109.835C417.982 109.24 418.995 108.578 420.27 108.352C421.544 108.128 422.702 108.404 423.406 108.775C424.12 109.147 424.416 109.559 424.322 109.691Z" fill="#17282F"/>
<path d="M433.824 123.711C433.793 123.596 435.024 123.144 437.036 122.504C437.548 122.356 438.022 122.161 438.045 121.787C438.1 121.385 437.778 120.859 437.414 120.293C436.693 119.112 435.937 117.873 435.144 116.575C431.965 111.271 429.564 106.871 429.777 106.744C429.99 106.619 432.739 110.815 435.917 116.119C436.689 117.429 437.426 118.679 438.128 119.873C438.433 120.435 438.896 121.049 438.773 121.885C438.704 122.304 438.371 122.659 438.053 122.809C437.737 122.973 437.445 123.032 437.189 123.095C435.137 123.583 433.853 123.825 433.824 123.711Z" fill="#17282F"/>
<path d="M428.064 126.227C428.394 126.147 428.803 128.379 430.991 129.619C433.176 130.863 435.496 130.183 435.571 130.492C435.627 130.627 435.123 131.021 434.128 131.229C433.155 131.441 431.667 131.385 430.328 130.628C428.994 129.865 428.259 128.66 428.018 127.757C427.763 126.839 427.911 126.241 428.064 126.227Z" fill="#17282F"/>
<path d="M423.28 103.811C423.133 104.39 421.285 104.231 419.152 104.655C417.009 105.03 415.319 105.851 415.001 105.359C414.86 105.123 415.129 104.571 415.797 103.98C416.46 103.39 417.537 102.802 418.819 102.562C420.101 102.323 421.299 102.486 422.104 102.802C422.916 103.116 423.341 103.538 423.28 103.811Z" fill="#17282F"/>
<path d="M442.447 100.867C442.218 101.42 440.707 101.316 439.039 101.74C437.355 102.105 436.05 102.872 435.598 102.48C435.394 102.285 435.492 101.765 435.991 101.167C436.482 100.571 437.402 99.9455 438.554 99.6735C439.706 99.4028 440.807 99.5535 441.511 99.8668C442.224 100.181 442.544 100.601 442.447 100.867Z" fill="#17282F"/>
<path d="M442.94 92.7962C442.94 92.7962 437.908 85.0522 433.534 83.8269C428.24 82.3429 427.121 88.0935 422.249 87.6322C417.376 87.1709 412.32 85.7429 408.237 90.2082C403.768 95.0949 406.7 97.4215 407.458 103.419C410.532 127.732 407.397 135.335 404.093 124.219C403.732 123.002 400.124 122.636 398.664 117.48C396.768 110.792 395.008 102.574 395.64 97.4695C396.174 93.1655 397.972 89.9335 401.546 86.0802C407.19 79.9975 416.146 78.2629 422.352 77.7722C428.558 77.2815 441.589 82.2016 442.94 92.7962Z" fill="#17282F"/>
<path d="M406.563 123.396C406.104 121.346 404.039 120.036 402.027 120.604C399.59 121.292 397.086 123.211 398.186 128.339C400.138 137.436 408.815 133.607 408.775 133.343C408.747 133.163 407.414 127.196 406.563 123.396Z" fill="#F9A78D"/>
<path d="M406.072 130.344C406.026 130.323 405.938 130.488 405.698 130.668C405.464 130.844 405.035 131.023 404.525 130.946C403.494 130.799 402.362 129.447 401.966 127.816C401.766 126.994 401.769 126.167 401.921 125.452C402.054 124.727 402.382 124.17 402.845 123.98C403.3 123.767 403.702 123.983 403.868 124.215C404.044 124.443 404.025 124.638 404.077 124.643C404.106 124.66 404.238 124.448 404.085 124.088C404.007 123.916 403.856 123.724 403.606 123.595C403.352 123.464 403.013 123.442 402.685 123.551C401.998 123.75 401.509 124.53 401.342 125.315C401.138 126.112 401.114 127.044 401.34 127.968C401.792 129.789 403.093 131.304 404.481 131.403C405.153 131.432 405.642 131.126 405.87 130.852C406.102 130.567 406.106 130.354 406.072 130.344Z" fill="#F57F62"/>
<path d="M401.835 105.94C403.163 106.538 404.564 107.147 406.012 107.03C407.462 106.914 408.94 105.795 408.923 104.332C408.915 103.676 408.627 102.966 408.954 102.398C409.343 101.72 410.294 101.738 411.071 101.68C413.767 101.482 416.134 99.1082 416.338 96.3975C417.196 97.2909 418.763 96.9616 419.663 96.1136C420.564 95.2656 421.024 94.0629 421.656 92.9975C422.288 91.9322 423.259 90.9056 424.494 90.8589C425.183 90.8336 425.886 91.1216 426.551 90.9389C427.727 90.6149 428.055 89.1016 428.019 87.8762C427.983 86.6509 427.871 85.2335 428.766 84.4016C429.594 83.6295 430.872 83.7562 432.002 83.7202C433.13 83.6829 434.503 83.1655 434.588 82.0322C434.634 81.4389 434.283 80.8856 433.88 80.4469C432.056 78.4616 428.786 78.0255 426.518 79.4669C425.079 76.6042 421.84 74.7629 418.662 74.9975C415.484 75.2335 412.558 77.5322 411.563 80.5749C409.322 79.1709 406.394 78.9416 403.968 79.9829C401.542 81.0229 399.684 83.3042 399.147 85.9016C396.828 85.7189 394.462 87.0376 393.391 89.1109C392.319 91.1842 392.604 93.8922 394.086 95.6989C392.62 96.9362 391.516 98.8256 391.827 100.726C392.138 102.626 394.314 104.179 396.04 103.351C395.575 104.959 396.535 106.852 398.106 107.418C399.675 107.983 401.61 107.134 402.26 105.592" fill="#17282F"/>
<path d="M395.37 103.452C395.334 103.433 395.342 104.252 396.256 105.108C396.704 105.511 397.415 105.887 398.278 105.869C399.122 105.859 400.09 105.475 400.734 104.64L400.338 104.652C400.931 105.359 401.671 106.053 402.568 106.604C403.146 106.955 403.766 107.229 404.415 107.34C405.055 107.471 405.739 107.369 406.276 107.179C407.407 106.841 408.299 106.036 408.627 105.187C408.976 104.352 409.003 103.629 409.018 103.149C409.024 102.664 408.986 102.399 408.954 102.397C408.912 102.396 408.882 102.661 408.811 103.132C408.736 103.597 408.646 104.292 408.287 105.025C407.663 106.493 404.975 107.675 402.843 106.147C402.01 105.635 401.298 104.981 400.723 104.323L400.514 104.083L400.328 104.335C399.811 105.035 398.988 105.399 398.262 105.436C397.526 105.481 396.892 105.196 396.456 104.863C395.575 104.161 395.444 103.413 395.37 103.452Z" fill="#33535F"/>
<path d="M408.764 79.4296C408.765 79.463 409.013 79.451 409.45 79.551C409.878 79.6536 410.526 79.8909 411.082 80.5016L411.224 80.6563L411.318 80.4643C411.96 79.1629 413.118 77.4283 415.066 76.083C416.036 75.4203 417.201 74.8749 418.505 74.6416C419.8 74.3989 421.224 74.5296 422.558 75.0496C423.594 75.4523 424.518 76.071 425.249 76.819C425.969 77.579 426.486 78.4736 426.75 79.3963L426.832 79.6803L427.093 79.5536C428.392 78.9283 429.833 78.9416 430.958 79.3296C432.1 79.7163 432.917 80.471 433.432 81.1843C434.457 82.6603 434.4 83.8203 434.49 83.791C434.512 83.791 434.541 83.5203 434.465 83.023C434.385 82.531 434.189 81.8003 433.677 81.0136C433.172 80.2376 432.321 79.3909 431.094 78.9403C429.888 78.4896 428.326 78.4363 426.881 79.1083L427.224 79.2669C426.952 78.2589 426.396 77.2803 425.625 76.4563C424.842 75.6443 423.856 74.9803 422.749 74.5496C421.328 73.995 419.793 73.8616 418.41 74.1323C417.026 74.3936 415.802 74.9869 414.801 75.6976C412.788 77.1429 411.649 78.9749 411.057 80.3416L411.292 80.3029C410.646 79.6616 409.934 79.4603 409.477 79.3989C409.008 79.3443 408.761 79.4096 408.764 79.4296Z" fill="#33535F"/>
<path d="M423.959 301.693C425.232 301.812 429.559 303.335 435.187 292.929C440.815 282.524 446.218 244.012 446.218 244.012L423.959 301.693Z" fill="#DADBD8"/>
<path d="M448.245 229.094L448.883 191.822L441.395 163.294C441.395 163.294 436.148 155.091 430.431 150.915C423.633 145.948 418.015 144.839 418.015 144.839L409.437 142.76L408.515 149.874L433.427 178.463L448.245 229.094Z" fill="#DADBD8"/>
<path d="M408.628 145.235C408.628 145.235 429.141 146.998 439.062 171.775C444.389 185.079 447.632 220.782 448.253 226.351C448.874 231.922 446.796 244.718 442.988 261.936C442.246 265.286 439.569 274.091 432.254 295.434C424.432 318.26 418.193 335.114 418.193 335.114L352.625 309.746L385.232 252.538C385.232 252.538 383.509 234.919 383.59 233.227C384.216 220.128 381.669 212.747 386.002 187.564C387.293 180.058 389.898 172.824 393.809 166.24C397.933 159.295 400.993 157.223 408.001 151.992L408.628 145.235Z" fill="#0693E3"/>
<path d="M415.689 301.531L417.419 287.697L386.156 275.017L380.449 288.232L415.689 301.531Z" fill="#17282F"/>
<path d="M415.688 301.532C415.678 301.513 415.434 301.408 414.976 301.221C414.46 301.015 413.8 300.752 412.979 300.424C411.184 299.723 408.695 298.748 405.608 297.541C399.311 295.119 390.592 291.764 380.571 287.909L380.767 288.369C382.3 284.828 383.932 281.057 385.614 277.173C385.908 276.493 386.2 275.816 386.484 275.159L386.023 275.348C398.312 280.285 409.338 284.716 417.326 287.925L417.174 287.667C416.707 291.877 416.328 295.293 416.056 297.74C415.936 298.893 415.842 299.817 415.768 300.52C415.706 301.163 415.676 301.511 415.688 301.532C415.702 301.552 415.755 301.244 415.847 300.636C415.948 299.952 416.08 299.055 416.246 297.933C416.59 295.455 417.071 291.993 417.663 287.728L417.69 287.541L417.511 287.468C409.544 284.207 398.548 279.705 386.291 274.688L385.968 274.556L385.83 274.877C385.546 275.533 385.254 276.211 384.959 276.891C383.286 280.777 381.659 284.552 380.132 288.095L379.988 288.429L380.327 288.556C390.496 292.32 399.347 295.596 405.738 297.963C408.816 299.081 411.299 299.984 413.09 300.635C413.89 300.919 414.535 301.148 415.038 301.327C415.476 301.479 415.7 301.549 415.688 301.532Z" fill="#33535F"/>
<path d="M441.601 266.56C441.612 266.564 441.582 266.687 441.514 266.922C441.432 267.192 441.328 267.532 441.198 267.956C440.889 268.91 440.46 270.234 439.916 271.912C438.756 275.391 437.108 280.335 435.077 286.423C430.914 298.698 425.19 315.572 418.868 334.212C418.749 334.559 418.63 334.906 418.521 335.226L418.404 335.568L418.068 335.438C399.942 328.382 383.585 322.014 371.7 317.387C365.828 315.066 361.064 313.183 357.713 311.858C356.106 311.207 354.841 310.694 353.928 310.324C353.528 310.155 353.206 310.018 352.949 309.908C352.73 309.812 352.621 309.756 352.625 309.746C352.629 309.735 352.748 309.768 352.974 309.843C353.238 309.935 353.568 310.051 353.977 310.195C354.902 310.536 356.184 311.008 357.81 311.608C361.18 312.883 365.97 314.698 371.876 316.932C383.78 321.51 400.164 327.81 418.318 334.79L417.864 335.002C417.973 334.682 418.092 334.335 418.21 333.988C424.608 315.374 430.4 298.523 434.613 286.264C436.73 280.206 438.45 275.286 439.66 271.826C440.257 270.164 440.726 268.855 441.065 267.911C441.222 267.496 441.348 267.163 441.448 266.898C441.538 266.671 441.589 266.558 441.601 266.56Z" fill="#33535F"/>
<path d="M345.218 339.636C345.218 339.636 352.971 314.387 359.559 312.678C366.148 310.968 374.879 310.692 376.423 314.99C377.966 319.287 379.227 325.559 378.955 331.903C378.683 338.248 376.354 347.576 376.354 347.576L369.62 345.49C369.62 345.49 374.886 319.854 373.524 315.654C372.162 311.454 360.979 312.474 358.94 316.828C356.903 321.183 350.419 341.236 350.419 341.236L345.218 339.636Z" fill="#33535F"/>
<path d="M314.276 371.395C316.639 360.818 322.153 337.564 324.585 327.338C325.249 324.55 327.997 322.784 330.809 323.342L393.989 335.85C396.809 336.407 398.679 339.099 398.217 341.936L391.079 385.856C390.597 388.814 387.777 390.795 384.832 390.243L318.497 377.8C315.532 377.244 313.619 374.34 314.276 371.395Z" fill="#33535F"/>
<path d="M391.724 352.032C391.724 352.032 391.706 352.187 391.647 352.503C391.583 352.839 391.495 353.307 391.38 353.911C391.134 355.178 390.776 357.011 390.318 359.363C389.372 364.142 388.01 371.023 386.328 379.519C386.222 380.052 386.114 380.591 386.004 381.136C385.922 381.682 385.711 382.288 385.312 382.74C384.92 383.196 384.383 383.544 383.78 383.686C383.179 383.855 382.524 383.727 381.968 383.606C379.648 383.159 377.235 382.692 374.738 382.211C369.74 381.243 364.402 380.21 358.784 379.123C353.167 378.032 347.271 376.887 341.159 375.7C338.103 375.106 334.992 374.5 331.836 373.887C330.259 373.579 328.668 373.27 327.068 372.958L325.867 372.723C325.48 372.64 325.048 372.598 324.628 372.404C323.81 372.043 323.168 371.295 322.956 370.419C322.862 370.046 322.842 369.654 322.896 369.272C322.956 368.891 323.04 368.571 323.111 368.219C323.258 367.528 323.406 366.84 323.552 366.155C323.846 364.783 324.136 363.419 324.427 362.064C325.007 359.354 325.579 356.679 326.143 354.048C327.271 348.786 328.362 343.695 329.404 338.834L329.454 338.603L329.682 338.662C347.643 343.254 363.175 346.546 374.199 348.71C379.711 349.794 384.096 350.604 387.102 351.156C388.596 351.434 389.755 351.65 390.56 351.799C390.935 351.871 391.224 351.927 391.439 351.968C391.634 352.007 391.73 352.028 391.724 352.032C391.719 352.036 391.612 352.022 391.408 351.992C391.188 351.959 390.892 351.914 390.51 351.856C389.71 351.727 388.559 351.543 387.075 351.304C384.062 350.799 379.667 350.031 374.146 348.986C363.103 346.899 347.55 343.664 329.57 339.102L329.848 338.928C328.812 343.791 327.728 348.883 326.607 354.147C326.046 356.779 325.475 359.454 324.896 362.164C324.607 363.519 324.316 364.883 324.023 366.255C323.876 366.942 323.73 367.63 323.583 368.319C323.435 369.027 323.236 369.671 323.424 370.3C323.6 371.035 324.14 371.662 324.823 371.963C325.152 372.12 325.548 372.164 325.959 372.251L327.162 372.484C328.76 372.798 330.351 373.107 331.928 373.415C335.084 374.032 338.194 374.64 341.25 375.236C347.359 376.432 353.254 377.587 358.87 378.687C364.484 379.79 369.819 380.838 374.814 381.818C377.31 382.31 379.722 382.784 382.039 383.242C382.63 383.368 383.16 383.475 383.694 383.331C384.222 383.211 384.695 382.907 385.04 382.51C385.395 382.099 385.572 381.616 385.662 381.07C385.772 380.53 385.882 379.995 385.991 379.467C387.742 371.026 389.16 364.187 390.146 359.438C390.642 357.075 391.03 355.234 391.298 353.963C391.43 353.348 391.532 352.871 391.606 352.53C391.678 352.206 391.724 352.032 391.724 352.032Z" fill="#17282F"/>
<path d="M368.167 376.611C368.172 376.579 368.559 376.677 369.302 376.672C370.032 376.645 371.167 376.477 372.332 375.681C373.5 374.901 374.542 373.403 374.755 371.379C375.144 369.391 375.586 367.135 376.074 364.643C376.32 363.395 376.578 362.088 376.846 360.727C377.191 359.393 377.142 357.94 376.462 356.644C375.812 355.356 374.575 354.315 373.087 353.928C371.559 353.588 369.927 353.289 368.286 352.955C361.688 351.633 354.442 350.181 346.834 348.657C345.008 348.287 343.043 348.939 341.842 350.304C341.224 350.967 340.812 351.796 340.606 352.661C340.419 353.571 340.234 354.472 340.051 355.365C339.687 357.159 339.331 358.921 338.982 360.647C338.807 361.509 338.634 362.363 338.463 363.207C338.308 364.048 338.076 364.893 338.027 365.685C337.928 367.304 338.627 368.884 339.767 369.907C340.332 370.424 341 370.809 341.708 371.039C342.408 371.251 343.19 371.365 343.911 371.525C346.839 372.125 349.567 372.685 352.062 373.196C357.018 374.225 361.039 375.061 363.856 375.647C365.222 375.941 366.294 376.173 367.058 376.337C367.402 376.417 367.675 376.48 367.888 376.529C368.074 376.575 368.168 376.603 368.167 376.611C368.166 376.619 368.068 376.608 367.878 376.577C367.663 376.54 367.386 376.493 367.038 376.433C366.27 376.289 365.192 376.088 363.819 375.832C360.994 375.281 356.963 374.497 351.994 373.531C349.496 373.037 346.764 372.497 343.832 371.917C343.095 371.757 342.364 371.661 341.582 371.431C340.819 371.188 340.095 370.776 339.482 370.221C338.247 369.123 337.483 367.419 337.583 365.663C337.639 364.775 337.867 363.968 338.019 363.117C338.187 362.272 338.358 361.419 338.53 360.556C338.875 358.829 339.228 357.067 339.587 355.272C339.771 354.373 339.955 353.467 340.142 352.553C340.364 351.611 340.814 350.705 341.487 349.981C342.794 348.493 344.939 347.779 346.93 348.184C354.535 349.721 361.779 351.185 368.374 352.519C370.026 352.863 371.618 353.159 373.198 353.519C374.802 353.944 376.13 355.075 376.818 356.461C377.544 357.839 377.574 359.459 377.211 360.8C376.932 362.159 376.664 363.464 376.408 364.709C375.895 367.196 375.43 369.448 375.019 371.432C374.918 371.925 374.823 372.404 374.686 372.869C374.526 373.32 374.346 373.748 374.102 374.117C373.635 374.869 373.039 375.439 372.438 375.837C371.216 376.635 370.046 376.773 369.303 376.769C368.546 376.743 368.167 376.611 368.167 376.611Z" fill="#17282F"/>
<path d="M372.145 383.89C355.939 383.888 339.729 380.015 325.307 372.615C325.499 372.655 325.688 372.684 325.867 372.723L327.068 372.958C328.668 373.27 330.259 373.579 331.836 373.887C334.992 374.5 338.103 375.106 341.159 375.7C347.271 376.887 353.167 378.032 358.784 379.123C364.401 380.21 369.74 381.243 374.737 382.211C376.992 382.646 379.177 383.067 381.288 383.475C378.248 383.752 375.196 383.89 372.145 383.89Z" fill="#20353D"/>
<path d="M381.288 383.475C379.178 383.067 376.992 382.646 374.738 382.211C369.74 381.243 364.402 380.21 358.784 379.123C353.167 378.032 347.271 376.887 341.159 375.7C338.103 375.106 334.992 374.5 331.836 373.887C330.259 373.579 328.668 373.27 327.068 372.958L325.867 372.723C325.688 372.684 325.499 372.655 325.307 372.615C325 372.458 324.695 372.299 324.39 372.139L382.279 383.379C381.948 383.414 381.619 383.444 381.288 383.475Z" fill="#0F191D"/>
<path d="M364.08 358.967L356.626 357.467C355.458 357.232 354.704 356.095 354.938 354.928C355.173 353.76 356.31 353.004 357.478 353.239L364.93 354.739C366.097 354.974 366.854 356.111 366.618 357.278C366.384 358.446 365.246 359.202 364.08 358.967Z" fill="#DADBD8"/>
<path d="M375.918 307.006C375.918 307.006 377.838 309.966 378.298 311.771C378.758 313.578 378.464 320.794 378.464 320.794C378.464 320.794 376.898 321.584 375.634 317.387C374.372 313.19 374.209 311.211 374.209 311.211L375.918 307.006Z" fill="#F9A78D"/>
<path d="M375.72 320.406L376.021 307.187L370.932 297.422L354.771 297.114L354.193 313.122C354.193 313.122 356.565 319.991 357.697 321.288C358.831 322.587 361.095 321.626 361.095 321.626C362.319 323.538 365.667 322.835 365.667 322.835C367.315 324.79 369.868 322.948 369.868 322.948C369.868 322.948 372.111 325.004 373.143 324.872C373.507 324.827 373.881 324.548 374.227 324.182C375.184 323.166 375.688 321.802 375.72 320.406Z" fill="#F9A78D"/>
<path d="M359.856 318.189C360.01 318.137 360.388 318.844 360.701 319.767C361.014 320.691 361.145 321.481 360.992 321.533C360.838 321.585 360.46 320.879 360.146 319.955C359.833 319.032 359.704 318.241 359.856 318.189Z" fill="#F57F62"/>
<path d="M364.048 317.998C364.213 317.976 364.485 319.099 364.888 320.452C365.284 321.807 365.664 322.898 365.514 322.97C365.373 323.039 364.737 322.023 364.325 320.618C363.909 319.214 363.892 318.015 364.048 317.998Z" fill="#F57F62"/>
<path d="M368.821 318.426C368.988 318.426 369.118 319.432 369.347 320.647C369.571 321.863 369.813 322.848 369.657 322.907C369.512 322.967 369.007 322.03 368.771 320.754C368.531 319.479 368.664 318.423 368.821 318.426Z" fill="#F57F62"/>
<path d="M375.828 311.338C375.991 311.342 376.092 313.592 376.055 316.362C376.018 319.132 375.858 321.374 375.695 321.371C375.534 321.367 375.432 319.118 375.47 316.346C375.506 313.575 375.667 311.332 375.828 311.338Z" fill="#F57F62"/>
<path d="M359.623 315.536C359.669 315.596 359.564 315.786 359.277 315.959C358.997 316.132 358.519 316.264 358 316.156C357.481 316.047 357.096 315.732 356.909 315.462C356.717 315.187 356.697 314.972 356.764 314.936C356.904 314.855 357.351 315.428 358.12 315.583C358.887 315.751 359.528 315.406 359.623 315.536Z" fill="#F57F62"/>
<path d="M364.504 316.333C364.543 316.397 364.405 316.581 364.08 316.736C363.76 316.893 363.249 316.987 362.708 316.877C362.167 316.767 361.733 316.483 361.499 316.215C361.26 315.945 361.204 315.721 361.265 315.679C361.4 315.583 361.94 316.14 362.824 316.303C363.703 316.497 364.417 316.192 364.504 316.333Z" fill="#F57F62"/>
<path d="M373.843 315.36C373.9 315.287 374.218 315.719 373.839 316.283C373.46 316.787 372.73 317.145 371.864 317.232C370.998 317.311 370.224 317.048 369.759 316.747C369.286 316.443 369.103 316.137 369.154 316.087C369.247 315.959 370.302 316.797 371.812 316.649C372.534 316.588 373.206 316.304 373.52 316.019C373.842 315.717 373.771 315.387 373.843 315.36Z" fill="#F57F62"/>
<path d="M424.155 191.083C417.804 197.692 378.395 236.384 378.395 236.384C378.395 236.384 376.107 298.907 374.967 299.18C373.826 299.453 351.166 297.589 351.166 297.589C351.166 297.589 347.991 231.304 350.631 223.744C353.27 216.184 386.985 171.977 387.715 171.06C388.447 170.143 392.31 163.375 405.208 160.064C420.316 156.187 426.654 163.427 429.191 170.859C431.375 177.255 427.205 187.2 425.179 189.879C424.859 190.303 424.522 190.7 424.155 191.083Z" fill="#0693E3"/>
<path d="M424.155 191.083C424.155 191.083 424.343 190.826 424.732 190.348C425.151 189.894 425.657 189.128 426.207 188.059C427.276 185.924 428.711 182.612 429.415 178.103C429.739 175.868 429.855 173.256 428.937 170.654C428.008 168.062 426.547 165.34 424.173 163.158C422.997 162.06 421.563 161.187 419.996 160.507C418.424 159.81 416.661 159.496 414.857 159.287C411.209 159.016 407.333 159.667 403.439 160.823C399.556 162.002 395.6 163.79 392.167 166.59C390.439 167.994 388.981 169.675 387.648 171.604C386.247 173.455 384.821 175.339 383.369 177.256C377.591 184.95 371.455 193.2 365.159 201.996C362.015 206.395 358.811 210.92 355.705 215.647C354.179 218.015 352.579 220.42 351.357 222.972C351.217 223.295 351.043 223.606 350.932 223.938L350.721 224.97C350.551 225.646 350.477 226.363 350.423 227.088L350.227 229.258L350.128 231.452C349.705 243.198 350.048 255.398 350.381 267.872C350.68 278.006 351.068 287.942 351.507 297.572L351.193 297.248C355.3 297.57 359.36 297.888 363.364 298.202C365.368 298.343 367.357 298.483 369.333 298.622C370.32 298.68 371.304 298.74 372.284 298.798L373.748 298.86L374.471 298.875L374.783 298.862C374.796 298.884 374.992 298.803 374.76 298.916V298.879C375.124 297.07 375.219 295.068 375.385 293.178C375.515 291.262 375.641 289.362 375.768 287.476C375.976 283.703 376.18 279.995 376.381 276.356C377.108 261.796 377.659 248.351 378.129 236.375L378.133 236.27L378.209 236.196C392.303 222.312 403.765 211.019 411.723 203.182C415.693 199.294 418.787 196.264 420.907 194.19C421.952 193.178 422.755 192.4 423.315 191.859C423.86 191.336 424.155 191.083 424.155 191.083C424.155 191.083 423.899 191.374 423.371 191.914C422.824 192.467 422.04 193.262 421.017 194.296C418.921 196.395 415.863 199.458 411.935 203.39C404.016 211.267 392.607 222.618 378.58 236.574L378.659 236.395C378.228 248.375 377.711 261.822 377.009 276.387C376.815 280.028 376.617 283.74 376.415 287.516C376.291 289.403 376.165 291.307 376.04 293.227C375.867 295.16 375.801 297.05 375.395 299.07C375.344 299.174 375.384 299.179 375.248 299.364L375.001 299.507L374.895 299.515L374.475 299.539L373.729 299.526L372.251 299.464C371.267 299.406 370.28 299.348 369.289 299.29C367.312 299.154 365.32 299.015 363.315 298.876C359.308 298.564 355.247 298.25 351.137 297.931L350.837 297.907L350.823 297.606C350.377 287.97 349.987 278.031 349.687 267.892C349.353 255.408 349.015 243.215 349.448 231.422L349.549 229.215L349.749 227.016C349.805 226.286 349.88 225.555 350.064 224.819L350.293 223.72C350.412 223.37 350.593 223.043 350.74 222.703C352.019 220.044 353.611 217.67 355.152 215.283C358.272 210.544 361.484 206.022 364.639 201.623C370.955 192.831 377.109 184.591 382.911 176.91C384.368 174.995 385.801 173.111 387.208 171.263C387.896 170.367 388.56 169.374 389.347 168.534C390.115 167.671 390.963 166.903 391.827 166.176C395.344 163.327 399.367 161.53 403.297 160.354C407.236 159.2 411.169 158.554 414.895 158.847C416.74 159.07 418.543 159.399 420.157 160.123C421.764 160.83 423.236 161.738 424.436 162.871C426.859 165.127 428.325 167.91 429.249 170.543C430.175 173.235 430.028 175.888 429.683 178.143C428.928 182.691 427.447 185.995 426.329 188.124C425.759 189.188 425.224 189.954 424.787 190.394C424.376 190.858 424.155 191.083 424.155 191.083Z" fill="#33535F"/>
<path d="M446.51 219.704C446.489 219.709 446.397 219.453 446.24 218.959C446.07 218.396 445.854 217.675 445.585 216.783C445.021 214.8 444.24 212.063 443.28 208.696C441.364 201.749 438.737 192.224 435.786 181.523L435.745 181.375L435.829 181.244C436.569 180.095 437.356 178.875 438.15 177.641L438.756 176.701L439.016 177.235C437.504 177.093 436.02 176.955 434.598 176.823L434.372 176.801L434.301 176.581C433.478 174.019 432.564 171.551 431.56 169.243C430.556 166.939 429.47 164.759 428.132 162.932C426.808 161.12 424.862 160.024 423.138 158.992C421.376 157.992 419.682 157.156 418.134 156.413C415.022 154.953 412.47 153.889 410.713 153.156C409.885 152.811 409.217 152.533 408.692 152.316C408.232 152.121 407.994 152.012 408.001 151.991C408.009 151.971 408.262 152.04 408.737 152.195C409.213 152.351 409.909 152.593 410.805 152.923C412.593 153.585 415.177 154.585 418.326 155.996C419.896 156.713 421.61 157.528 423.406 158.517C425.156 159.54 427.169 160.628 428.62 162.563C430.028 164.452 431.136 166.652 432.165 168.977C433.193 171.309 434.12 173.78 434.958 176.377L434.662 176.137C436.084 176.268 437.568 176.404 439.08 176.544L439.65 176.596L439.34 177.077L438.734 178.017C437.938 179.251 437.15 180.471 436.41 181.619L436.453 181.341C439.32 192.067 441.87 201.612 443.73 208.573C444.605 211.964 445.317 214.72 445.832 216.715C446.052 217.621 446.229 218.353 446.368 218.924C446.482 219.431 446.533 219.697 446.51 219.704Z" fill="#33535F"/>
<path d="M441.914 179.863C434.182 184.426 427.906 184.394 414.996 183.299C406.051 182.54 398.208 179.976 389.236 179.702C376.302 179.307 366.615 183.254 354.827 188.592L346.142 198.864L362.451 203.796C362.451 203.796 378.096 194.9 398.152 195.992C418.208 197.084 436.93 191.628 443.564 186.559L445.84 180.227L444.975 176.93L442.228 176.675L441.914 179.863Z" fill="#FEE13E"/>
<path d="M441.913 179.863C441.913 179.863 441.916 179.575 441.954 179.036C442 178.471 442.064 177.684 442.145 176.667L442.152 176.586L442.236 176.592C443.013 176.656 443.934 176.732 444.985 176.818L445.062 176.824L445.082 176.902C445.344 177.864 445.644 178.972 445.974 180.192L445.986 180.232L445.972 180.275C445.318 182.126 444.569 184.248 443.733 186.62L443.716 186.67L443.673 186.702C441.908 188.056 439.741 189.163 437.353 190.186C434.956 191.194 432.322 192.138 429.464 192.92C423.756 194.514 417.205 195.7 410.026 196.195C406.438 196.414 402.693 196.527 398.829 196.328C394.986 196.172 391.025 196.208 386.978 196.696C382.934 197.166 378.824 198.018 374.729 199.243C370.646 200.474 366.516 202.016 362.621 204.096L362.486 204.168L362.35 204.127C359.308 203.207 356.072 202.23 352.801 201.24C350.529 200.554 348.274 199.871 346.041 199.196L345.537 199.043L345.877 198.64C348.834 195.146 351.737 191.715 354.565 188.371L354.616 188.312L354.685 188.28C360.496 185.652 366.206 183.178 371.96 181.562C377.701 179.926 383.456 179.232 388.877 179.399C394.312 179.532 399.356 180.532 404.018 181.399C408.685 182.302 413.021 182.97 417.016 183.24C421.002 183.566 424.601 183.802 427.745 183.698C430.892 183.624 433.565 183.164 435.666 182.531C437.774 181.906 439.313 181.16 440.348 180.66C440.833 180.408 441.214 180.21 441.5 180.06C441.764 179.926 441.904 179.858 441.913 179.863C441.921 179.868 441.798 179.948 441.548 180.102C441.296 180.251 440.917 180.487 440.406 180.771C439.385 181.308 437.854 182.094 435.737 182.762C433.626 183.438 430.926 183.939 427.758 184.046C424.59 184.184 420.976 183.98 416.981 183.684C412.977 183.444 408.59 182.796 403.922 181.919C399.252 181.076 394.234 180.108 388.862 179.996C383.494 179.852 377.818 180.554 372.137 182.187C366.445 183.799 360.769 186.268 354.966 188.903L355.086 188.812C352.26 192.158 349.361 195.591 346.406 199.088L346.242 198.532C348.474 199.208 350.73 199.89 353.002 200.576C356.273 201.566 359.509 202.544 362.55 203.464L362.28 203.495C366.268 201.368 370.405 199.834 374.536 198.592C378.669 197.362 382.818 196.51 386.901 196.044C390.984 195.56 395.001 195.535 398.86 195.703C402.697 195.911 406.42 195.812 409.988 195.61C417.128 195.146 423.649 193.999 429.333 192.451C432.18 191.691 434.802 190.774 437.186 189.794C439.561 188.799 441.716 187.722 443.454 186.416L443.394 186.498C444.258 184.138 445.033 182.023 445.708 180.18L445.704 180.263C445.393 179.038 445.11 177.926 444.865 176.959L444.964 177.042C443.916 176.934 442.996 176.839 442.22 176.758L442.31 176.684C442.19 177.71 442.097 178.503 442.03 179.074C441.964 179.606 441.913 179.863 441.913 179.863Z" fill="#17282F"/>
<path d="M411.363 263.068C411.299 263.248 405.41 261.304 398.21 258.725C391.008 256.147 385.224 253.911 385.29 253.729C385.355 253.549 391.243 255.493 398.444 258.072C405.643 260.651 411.428 262.887 411.363 263.068Z" fill="#33535F"/>
</g>
<defs>
<clipPath id="clip0_511_5">
<rect width="616.667" height="586.28" fill="white" transform="translate(17 32)"/>
</clipPath>
</defs>
</svg>
