<svg width="155" height="45" viewBox="0 0 155 45" fill="none" xmlns="http://www.w3.org/2000/svg">
<path fill-rule="evenodd" clip-rule="evenodd" d="M54.0839 10H19.8978C17.7343 10 15.983 11.7685 16.0001 13.9148V26.9643C16.0001 29.1277 17.7515 30.8791 19.915 30.8791H36.1066L43.5071 35L41.8243 30.8791H54.0839C56.2475 30.8791 57.9988 29.1277 57.9988 26.9643V13.9148C57.9988 11.7514 56.2475 10 54.0839 10ZM19.1767 13.022C18.6959 13.0563 18.3354 13.228 18.095 13.5543C17.8546 13.8633 17.7687 14.2582 17.8203 14.7047C18.8333 21.1436 19.7777 25.4877 20.6534 27.737C20.9968 28.5611 21.3917 28.9561 21.8553 28.9218C22.5764 28.8702 23.435 27.8744 24.448 25.9341C24.9803 24.8351 25.8045 23.1869 26.9205 20.989C27.8477 24.2342 29.1183 26.6724 30.7152 28.3036C31.1617 28.7672 31.6252 28.9732 32.0716 28.9389C32.4666 28.9045 32.7756 28.6985 32.9816 28.3207C33.1534 27.9945 33.222 27.6167 33.1877 27.1875C33.0847 25.625 33.2393 23.4444 33.6685 20.6456C34.1149 17.761 34.6644 15.6834 35.334 14.4471C35.4714 14.1896 35.5228 13.932 35.5057 13.6229C35.4714 13.228 35.2997 12.9018 34.9735 12.6442C34.6472 12.3867 34.2866 12.2665 33.8917 12.3008C33.3938 12.3352 33.016 12.5755 32.7585 13.0563C31.6939 14.9966 30.9384 18.1387 30.492 22.5C29.8395 20.8517 29.29 18.9114 28.8608 16.6277C28.6719 15.6147 28.2084 15.1339 27.4528 15.1854C26.9377 15.2198 26.5085 15.5632 26.165 16.2157L22.4047 23.3757C21.7866 20.886 21.2028 17.8468 20.6705 14.2582C20.5503 13.3654 20.0524 12.9533 19.1767 13.022ZM52.264 14.2583C53.4831 14.5159 54.3931 15.1683 55.0112 16.2501C55.5607 17.1773 55.8353 18.2933 55.8353 19.6326C55.8353 21.4011 55.389 23.0152 54.4961 24.4918C53.4659 26.2089 52.1266 27.0673 50.4611 27.0673C50.1692 27.0673 49.8601 27.033 49.5338 26.9643C48.3148 26.7068 47.4048 26.0544 46.7866 24.9726C46.2372 24.0282 45.9625 22.895 45.9625 21.5728C45.9625 19.8043 46.4089 18.1903 47.3017 16.7308C48.3491 15.0138 49.6884 14.1553 51.3368 14.1553C51.6287 14.1553 51.9378 14.1896 52.264 14.2583ZM51.5429 23.5474C52.1782 22.9808 52.6074 22.1394 52.8478 21.0062C52.9165 20.6113 52.9679 20.1821 52.9679 19.7356C52.9679 19.2377 52.8649 18.7054 52.6589 18.1731C52.4013 17.5035 52.0579 17.1429 51.6458 17.0571C51.0277 16.9369 50.4268 17.2803 49.8601 18.1216C49.3966 18.7741 49.1046 19.4609 48.9501 20.1649C48.8642 20.5598 48.8298 20.9891 48.8298 21.4183C48.8298 21.9163 48.9329 22.4485 49.1389 22.9808C49.3966 23.6504 49.7399 24.011 50.152 24.0969C50.5812 24.1827 51.0448 23.9939 51.5429 23.5474ZM44.2454 16.2501C43.6272 15.1683 42.7 14.5159 41.4981 14.2583C41.1718 14.1896 40.8628 14.1553 40.5709 14.1553C38.9226 14.1553 37.5833 15.0138 36.5359 16.7308C35.643 18.1903 35.1966 19.8043 35.1966 21.5728C35.1966 22.895 35.4714 24.0282 36.0208 24.9726C36.6389 26.0544 37.549 26.7068 38.768 26.9643C39.0942 27.033 39.4033 27.0673 39.6953 27.0673C41.3608 27.0673 42.7 26.2089 43.7302 24.4918C44.6232 23.0152 45.0695 21.4011 45.0695 19.6326C45.0695 18.2933 44.7948 17.1773 44.2454 16.2501ZM42.0819 21.0062C41.8416 22.1394 41.4122 22.9808 40.7769 23.5474C40.279 23.9939 39.8154 24.1827 39.3862 24.0969C38.9741 24.011 38.6306 23.6504 38.3731 22.9808C38.1671 22.4485 38.064 21.9163 38.064 21.4183C38.064 20.9891 38.0984 20.5598 38.1843 20.1649C38.3388 19.4609 38.6306 18.7741 39.0942 18.1216C39.6609 17.2803 40.2619 16.9369 40.88 17.0571C41.2921 17.1429 41.6355 17.5035 41.893 18.1731C42.0991 18.7054 42.2021 19.2377 42.2021 19.7356C42.2021 20.1821 42.1678 20.6113 42.0819 21.0062Z" fill="#7F54B3"/>
<path d="M62.3429 16.0949C61.1925 17.2281 60.6259 18.6704 60.6259 20.4218C60.6259 22.2934 61.1925 23.8215 62.3258 24.972C63.459 26.1224 64.9357 26.7061 66.7729 26.7061C67.3051 26.7061 67.9061 26.6203 68.5586 26.4314V23.6498C67.9577 23.8215 67.4425 23.9074 66.9961 23.9074C66.086 23.9074 65.3649 23.5983 64.8154 22.9974C64.266 22.3792 63.9913 21.5551 63.9913 20.5077C63.9913 19.529 64.266 18.722 64.7983 18.1038C65.3477 17.4685 66.0173 17.1595 66.8416 17.1595C67.3738 17.1595 67.9404 17.2453 68.5586 17.417V14.6354C67.992 14.4809 67.3567 14.4122 66.687 14.4122C64.9357 14.395 63.4934 14.9617 62.3429 16.0949ZM74.2592 14.395C72.6795 14.395 71.4432 14.9273 70.5503 15.9747C69.6575 17.0221 69.2283 18.4987 69.2283 20.3875C69.2283 22.4308 69.6746 23.9932 70.5503 25.075C71.426 26.1568 72.7138 26.7061 74.3966 26.7061C76.0277 26.7061 77.2811 26.1568 78.1568 25.075C79.0325 23.9932 79.4789 22.4651 79.4789 20.5077C79.4789 18.5502 79.0325 17.0393 78.1397 15.9747C77.2296 14.9273 75.9418 14.395 74.2592 14.395ZM75.6156 23.3236C75.3065 23.8044 74.8429 24.0448 74.2592 24.0448C73.7097 24.0448 73.2976 23.8044 73.0057 23.3236C72.7138 22.8428 72.5765 21.8813 72.5765 20.4218C72.5765 18.1725 73.1431 17.0564 74.2935 17.0564C75.4954 17.0564 76.1135 18.1897 76.1135 20.4733C76.0964 21.8813 75.9247 22.8428 75.6156 23.3236ZM87.9611 14.7213L87.3429 17.3483C87.1884 18.018 87.0339 18.7048 86.8966 19.4088L86.5531 21.2289C86.2269 19.4088 85.7805 17.2453 85.2138 14.7213H81.2303L79.7365 26.4143H82.7241L83.5311 18.3614L85.5744 26.4143H87.7036L89.6609 18.3785L90.5023 26.4143H93.6273L92.0476 14.7213H87.9611ZM102.264 14.7213L101.646 17.3483C101.491 18.018 101.337 18.7048 101.199 19.4088L100.856 21.2289C100.53 19.4088 100.083 17.2453 99.5167 14.7213H95.5332L94.0394 26.4143H97.027L97.834 18.3614L99.8773 26.4143H102.006L103.947 18.3785L104.788 26.4143H107.913L106.333 14.7213H102.264ZM111.982 21.7955H114.781V19.3744H111.982V17.2281H115.21V14.7384H108.823V26.4314H115.228V23.9418H111.982V21.7955ZM124.122 19.941C124.448 19.4088 124.62 18.8593 124.62 18.2927C124.62 17.1938 124.19 16.3181 123.332 15.6828C122.473 15.0475 121.289 14.7213 119.812 14.7213H116.138V26.4143H119.297V21.0915H119.349L121.907 26.4143H125.238L122.714 21.143C123.315 20.8683 123.796 20.4733 124.122 19.941ZM119.28 19.7522V16.9706C120.035 16.9877 120.568 17.1079 120.894 17.3483C121.22 17.5887 121.375 17.9665 121.375 18.5159C121.375 19.3229 120.671 19.735 119.28 19.7522ZM126.474 16.0949C125.324 17.2281 124.757 18.6704 124.757 20.4218C124.757 22.2934 125.324 23.8215 126.457 24.972C127.591 26.1224 129.066 26.7061 130.904 26.7061C131.437 26.7061 132.038 26.6203 132.69 26.4314V23.6498C132.089 23.8215 131.574 23.9074 131.127 23.9074C130.217 23.9074 129.497 23.5983 128.947 22.9974C128.397 22.3792 128.123 21.5551 128.123 20.5077C128.123 19.529 128.397 18.722 128.929 18.1038C129.479 17.4685 130.148 17.1595 130.972 17.1595C131.505 17.1595 132.072 17.2453 132.69 17.417V14.6354C132.123 14.4809 131.488 14.4122 130.819 14.4122C129.084 14.395 127.625 14.9617 126.474 16.0949ZM136.725 23.9074V21.7783H139.523V19.3573H136.725V17.211H139.97V14.7213H133.583V26.4143H139.987V23.9245H136.725V23.9074Z" fill="black"/>
</svg>
