<svg width="586" height="608" viewBox="0 0 586 608" fill="none" xmlns="http://www.w3.org/2000/svg">
<g filter="url(#filter0_d_1119_27)">
<path d="M288.321 390.413C291.496 388.5 295.469 388.5 298.644 390.413L368.168 432.311C371.17 434.121 373.006 437.371 373.006 440.876V525.427C373.006 528.932 371.17 532.182 368.168 533.992L298.644 575.889C295.469 577.803 291.496 577.803 288.321 575.889L218.797 533.992C215.794 532.182 213.959 528.932 213.959 525.427V440.876C213.959 437.371 215.794 434.121 218.797 432.311L288.321 390.413Z" fill="white"/>
</g>
<path d="M281.139 454.338C276.241 461.734 276.507 471.636 280.328 479.459C280.968 480.774 281.692 482.042 282.495 483.254C283.229 484.358 284.042 485.671 285.017 486.559C285.37 486.967 285.739 487.365 286.116 487.756C286.211 487.858 286.309 487.955 286.406 488.056C286.771 488.428 287.144 488.795 287.529 489.151C287.545 489.164 287.559 489.18 287.574 489.193C287.579 489.197 287.583 489.199 287.586 489.204C288.011 489.595 288.45 489.972 288.897 490.342C288.996 490.421 289.094 490.504 289.195 490.586C289.642 490.946 290.098 491.3 290.567 491.637C290.581 491.648 290.593 491.658 290.606 491.669C290.813 491.819 291.023 491.958 291.233 492.102C291.333 492.17 291.428 492.244 291.53 492.308C291.864 492.533 292.202 492.752 292.546 492.962C292.596 492.993 292.642 493.02 292.69 493.049C292.987 493.229 293.287 493.405 293.589 493.575C293.695 493.638 293.801 493.693 293.909 493.75C294.117 493.866 294.326 493.981 294.537 494.091C294.569 494.109 294.602 494.123 294.632 494.138C295.064 494.361 295.499 494.576 295.943 494.779C296.038 494.823 296.137 494.863 296.233 494.903C296.589 495.062 296.947 495.216 297.308 495.361C297.461 495.422 297.616 495.481 297.768 495.539C298.095 495.666 298.424 495.782 298.755 495.9C298.906 495.95 299.052 496.001 299.202 496.049C299.673 496.203 300.138 496.397 300.629 496.483C325.922 500.879 331.762 480.445 331.762 480.445C326.498 488.401 316.304 492.195 305.427 489.233C304.801 489.059 304.18 488.866 303.565 488.652C303.075 488.486 302.59 488.306 302.11 488.112C301.748 487.967 301.388 487.815 301.032 487.656C300.935 487.613 300.836 487.572 300.741 487.527C300.297 487.324 299.857 487.109 299.422 486.884C299.199 486.77 298.979 486.649 298.761 486.53L298.379 486.324C298.097 486.163 297.818 485.999 297.542 485.828C297.476 485.789 297.408 485.751 297.341 485.71C296.999 485.5 296.662 485.284 296.328 485.061C296.224 484.991 296.125 484.917 296.022 484.846C295.802 484.697 295.582 484.545 295.365 484.39C294.901 484.052 294.446 483.702 293.998 483.341C293.894 483.256 293.791 483.173 293.69 483.087C288.928 479.142 285.154 473.752 283.36 467.64C281.479 461.301 281.885 454.185 285.143 448.41" fill="#0868AC"/>
<path d="M260.266 463.943C253.545 474.122 253.91 487.749 259.153 498.515C260.031 500.325 261.024 502.069 262.126 503.738C263.133 505.256 264.249 507.064 265.586 508.286C266.071 508.848 266.578 509.395 267.095 509.934C267.225 510.074 267.359 510.208 267.492 510.346C267.994 510.859 268.505 511.364 269.033 511.853C269.055 511.871 269.074 511.893 269.096 511.911L269.111 511.926C269.694 512.464 270.298 512.983 270.911 513.493C271.047 513.602 271.181 513.715 271.319 513.828C271.932 514.323 272.559 514.811 273.201 515.275C273.221 515.289 273.237 515.303 273.256 515.319C273.539 515.525 273.828 515.717 274.116 515.915C274.253 516.009 274.383 516.109 274.523 516.198C274.981 516.507 275.445 516.809 275.918 517.098C275.986 517.141 276.049 517.178 276.115 517.218C276.522 517.465 276.935 517.708 277.348 517.942C277.493 518.028 277.639 518.104 277.788 518.183C278.073 518.342 278.36 518.501 278.65 518.652C278.693 518.676 278.738 518.696 278.78 518.716C279.372 519.024 279.969 519.319 280.579 519.598C280.709 519.659 280.844 519.714 280.976 519.77C281.464 519.988 281.956 520.2 282.451 520.4C282.661 520.483 282.874 520.564 283.082 520.644C283.532 520.819 283.983 520.979 284.437 521.141C284.643 521.21 284.844 521.28 285.05 521.347C285.696 521.558 286.335 521.825 287.009 521.943C321.714 527.994 329.727 499.872 329.727 499.872C322.504 510.82 308.517 516.042 293.592 511.966C292.733 511.727 291.88 511.461 291.036 511.166C290.365 510.938 289.699 510.691 289.04 510.424C288.544 510.223 288.05 510.014 287.561 509.796C287.428 509.736 287.293 509.681 287.163 509.618C286.553 509.339 285.949 509.044 285.353 508.734C285.046 508.576 284.745 508.41 284.445 508.247L283.921 507.963C283.535 507.742 283.152 507.515 282.772 507.281C282.682 507.227 282.588 507.175 282.497 507.118C282.027 506.828 281.565 506.531 281.106 506.224C280.965 506.129 280.829 506.026 280.687 505.929C280.384 505.723 280.084 505.514 279.785 505.301C279.149 504.835 278.524 504.354 277.909 503.858C277.768 503.74 277.626 503.626 277.487 503.508C270.953 498.079 265.775 490.662 263.313 482.249C260.732 473.525 261.289 463.732 265.759 455.785" fill="#0868AC"/>
<path d="M298.632 446.583C295.752 451.672 295.908 458.486 298.155 463.869C298.531 464.774 298.957 465.646 299.429 466.48C299.861 467.239 300.339 468.143 300.912 468.754C301.12 469.035 301.337 469.309 301.559 469.578C301.614 469.648 301.672 469.715 301.729 469.784C301.944 470.041 302.163 470.293 302.389 470.538C302.399 470.547 302.407 470.558 302.416 470.567L302.423 470.574C302.673 470.843 302.931 471.103 303.194 471.357C303.252 471.412 303.31 471.469 303.369 471.525C303.632 471.773 303.9 472.016 304.176 472.249L304.199 472.27C304.32 472.374 304.444 472.469 304.567 472.569C304.626 472.615 304.682 472.666 304.742 472.71C304.938 472.865 305.137 473.016 305.34 473.16C305.369 473.182 305.396 473.2 305.424 473.22C305.599 473.344 305.776 473.465 305.953 473.582C306.015 473.625 306.078 473.663 306.141 473.703C306.264 473.782 306.386 473.862 306.511 473.937C306.529 473.949 306.548 473.959 306.567 473.969C306.82 474.123 307.076 474.271 307.337 474.41C307.393 474.441 307.451 474.468 307.508 474.496C307.717 474.605 307.928 474.711 308.14 474.811C308.23 474.853 308.321 474.893 308.41 474.933C308.603 475.021 308.796 475.101 308.991 475.182C309.079 475.216 309.165 475.251 309.254 475.285C309.53 475.39 309.804 475.524 310.093 475.583C324.967 478.608 328.401 464.547 328.401 464.547C325.305 470.021 319.311 472.632 312.915 470.594C312.546 470.475 312.181 470.342 311.819 470.194C311.531 470.08 311.246 469.956 310.964 469.823C310.751 469.723 310.539 469.618 310.33 469.509C310.273 469.479 310.215 469.452 310.159 469.42C309.898 469.281 309.639 469.133 309.383 468.978C309.252 468.899 309.123 468.816 308.994 468.735L308.77 468.593C308.604 468.482 308.44 468.369 308.277 468.252C308.239 468.225 308.199 468.198 308.159 468.17C307.958 468.025 307.76 467.877 307.563 467.723C307.503 467.676 307.444 467.624 307.384 467.576C307.254 467.473 307.125 467.368 306.997 467.262C306.725 467.029 306.457 466.788 306.193 466.54C306.133 466.481 306.072 466.424 306.012 466.365C303.212 463.651 300.993 459.942 299.938 455.736C298.832 451.374 299.07 446.477 300.986 442.504" fill="#0868AC"/>
<g filter="url(#filter1_d_1119_27)">
<path d="M471.471 390.442C474.656 388.512 478.649 388.512 481.834 390.442L550.943 432.308C553.935 434.12 555.762 437.364 555.762 440.861V525.442C555.762 528.939 553.935 532.183 550.943 533.995L481.834 575.861C478.649 577.791 474.656 577.791 471.471 575.861L402.362 533.995C399.37 532.183 397.543 528.939 397.543 525.442V440.861C397.543 437.364 399.37 434.12 402.362 432.308L471.471 390.442Z" fill="white"/>
</g>
<path d="M520.013 482.659C520.013 476.686 512.885 471.026 501.955 467.516C504.478 455.828 503.357 446.528 498.417 443.551C497.279 442.853 495.948 442.522 494.494 442.522V446.62C495.3 446.62 495.948 446.786 496.491 447.098C498.873 448.532 499.906 453.99 499.101 461.01C498.908 462.737 498.593 464.557 498.207 466.413C494.774 465.531 491.026 464.851 487.085 464.41C484.721 461.01 482.269 457.923 479.799 455.221C485.509 449.653 490.869 446.602 494.512 446.602V442.504C489.695 442.504 483.39 446.106 477.014 452.354C470.639 446.142 464.334 442.577 459.517 442.577V446.675C463.143 446.675 468.52 449.708 474.23 455.239C471.778 457.941 469.326 461.01 466.996 464.41C463.038 464.851 459.29 465.531 455.857 466.431C455.454 464.594 455.156 462.811 454.946 461.102C454.123 454.082 455.139 448.623 457.503 447.172C458.029 446.841 458.712 446.694 459.517 446.694V442.596C458.046 442.596 456.715 442.926 455.559 443.625C450.637 446.602 449.534 455.883 452.073 467.534C441.179 471.063 434.086 476.704 434.086 482.659C434.086 488.632 441.214 494.292 452.144 497.802C449.621 509.49 450.742 518.789 455.682 521.766C456.82 522.465 458.151 522.796 459.622 522.796C464.439 522.796 470.744 519.194 477.12 512.945C483.495 519.157 489.8 522.722 494.617 522.722C496.088 522.722 497.419 522.391 498.575 521.693C503.497 518.716 504.6 509.435 502.061 497.784C512.92 494.274 520.013 488.613 520.013 482.659ZM497.209 470.401C496.561 472.772 495.755 475.216 494.844 477.66C494.126 476.19 493.373 474.72 492.55 473.249C491.744 471.779 490.886 470.346 490.028 468.949C492.515 469.335 494.914 469.813 497.209 470.401ZM489.187 489.973C487.821 492.454 486.42 494.806 484.966 496.993C482.356 497.232 479.712 497.361 477.049 497.361C474.405 497.361 471.76 497.232 469.168 497.012C467.714 494.825 466.295 492.491 464.929 490.028C463.598 487.621 462.39 485.177 461.286 482.714C462.372 480.251 463.598 477.789 464.912 475.381C466.278 472.9 467.679 470.548 469.133 468.361C471.743 468.122 474.387 467.993 477.049 467.993C479.694 467.993 482.339 468.122 484.931 468.343C486.385 470.53 487.803 472.863 489.17 475.326C490.501 477.734 491.709 480.178 492.813 482.64C491.709 485.103 490.501 487.566 489.187 489.973ZM494.844 487.584C495.79 490.047 496.596 492.509 497.261 494.898C494.967 495.486 492.55 495.983 490.045 496.369C490.904 494.953 491.762 493.502 492.567 492.013C493.373 490.543 494.126 489.054 494.844 487.584ZM477.085 507.193C475.456 505.429 473.827 503.462 472.215 501.312C473.792 501.386 475.403 501.441 477.032 501.441C478.678 501.441 480.307 501.404 481.901 501.312C480.325 503.462 478.696 505.429 477.085 507.193ZM464.054 496.369C461.566 495.983 459.167 495.505 456.873 494.917C457.521 492.546 458.326 490.102 459.237 487.658C459.955 489.128 460.708 490.598 461.531 492.068C462.355 493.538 463.195 494.972 464.054 496.369ZM476.997 458.125C478.626 459.889 480.255 461.855 481.866 464.006C480.29 463.932 478.678 463.877 477.049 463.877C475.403 463.877 473.774 463.914 472.18 464.006C473.757 461.855 475.386 459.889 476.997 458.125ZM464.036 468.949C463.178 470.364 462.32 471.816 461.514 473.305C460.708 474.775 459.955 476.245 459.237 477.715C458.291 475.253 457.486 472.79 456.82 470.401C459.114 469.831 461.531 469.335 464.036 468.949ZM448.185 491.958C441.985 489.183 437.974 485.544 437.974 482.659C437.974 479.774 441.985 476.116 448.185 473.36C449.692 472.68 451.338 472.073 453.037 471.504C454.035 475.106 455.349 478.855 456.978 482.696C455.366 486.518 454.07 490.249 453.089 493.832C451.355 493.263 449.709 492.638 448.185 491.958ZM457.608 518.22C455.226 516.786 454.193 511.328 454.998 504.308C455.191 502.58 455.506 500.761 455.892 498.905C459.325 499.787 463.073 500.467 467.014 500.908C469.378 504.308 471.83 507.395 474.3 510.097C468.59 515.665 463.23 518.716 459.587 518.716C458.799 518.697 458.134 518.532 457.608 518.22ZM499.153 504.216C499.976 511.236 498.96 516.694 496.596 518.146C496.07 518.477 495.387 518.624 494.582 518.624C490.956 518.624 485.579 515.592 479.869 510.06C482.321 507.358 484.773 504.289 487.103 500.89C491.061 500.448 494.809 499.768 498.242 498.868C498.645 500.724 498.96 502.507 499.153 504.216ZM505.896 491.958C504.39 492.638 502.744 493.244 501.045 493.814C500.046 490.212 498.733 486.463 497.104 482.622C498.715 478.8 500.011 475.069 500.992 471.485C502.726 472.055 504.372 472.68 505.914 473.36C512.114 476.135 516.125 479.774 516.125 482.659C516.107 485.544 512.096 489.201 505.896 491.958Z" fill="#61DAFB"/>
<path d="M477.032 491.057C481.453 491.057 485.036 487.297 485.036 482.659C485.036 478.02 481.453 474.26 477.032 474.26C472.611 474.26 469.028 478.02 469.028 482.659C469.028 487.297 472.611 491.057 477.032 491.057Z" fill="#61DAFB"/>
<g filter="url(#filter2_d_1119_27)">
<path d="M471.471 32.1388C474.656 30.2095 478.649 30.2095 481.834 32.1389L550.943 74.0052C553.935 75.8173 555.762 79.0607 555.762 82.5581V167.139C555.762 170.636 553.935 173.88 550.943 175.692L481.834 217.558C478.649 219.488 474.656 219.488 471.471 217.558L402.362 175.692C399.37 173.88 397.543 170.636 397.543 167.139V82.5581C397.543 79.0606 399.37 75.8173 402.362 74.0052L471.471 32.1388Z" fill="white"/>
</g>
<g clip-path="url(#clip0_1119_27)">
<path d="M452.418 85.2122H501.838C509.331 85.2122 515.389 91.5687 515.389 99.4306V149.278C515.389 157.14 509.331 163.497 501.838 163.497H452.418C444.925 163.497 438.867 157.14 438.867 149.278V99.4306C438.867 91.5687 444.925 85.2122 452.418 85.2122Z" fill="#001E36"/>
<path d="M456.086 140.113V105.687C456.086 105.453 456.182 105.319 456.405 105.319C456.947 105.319 457.457 105.319 458.19 105.286C458.956 105.252 459.753 105.252 460.613 105.219C461.474 105.186 462.399 105.186 463.387 105.152C464.376 105.119 465.332 105.119 466.289 105.119C468.903 105.119 471.071 105.453 472.857 106.156C474.451 106.724 475.918 107.661 477.129 108.899C478.15 109.97 478.947 111.274 479.457 112.713C479.935 114.118 480.19 115.557 480.19 117.062C480.19 119.939 479.553 122.314 478.277 124.188C477.002 126.061 475.216 127.467 473.144 128.269C470.976 129.106 468.585 129.407 465.97 129.407C465.205 129.407 464.695 129.407 464.376 129.373C464.057 129.34 463.611 129.34 463.005 129.34V140.079C463.037 140.313 462.877 140.514 462.654 140.547H456.469C456.213 140.547 456.086 140.414 456.086 140.113ZM463.037 111.776V123.017C463.483 123.05 463.898 123.084 464.28 123.084H465.97C467.213 123.084 468.457 122.883 469.637 122.482C470.657 122.181 471.55 121.545 472.251 120.709C472.921 119.872 473.24 118.735 473.24 117.263C473.271 116.226 473.016 115.189 472.506 114.285C471.964 113.415 471.199 112.746 470.274 112.378C469.095 111.876 467.819 111.676 466.512 111.709C465.683 111.709 464.95 111.709 464.344 111.743C463.706 111.709 463.26 111.743 463.037 111.776ZM500.086 120.976C499.129 120.441 498.109 120.073 497.025 119.839C495.845 119.571 494.666 119.404 493.454 119.404C492.816 119.37 492.147 119.471 491.541 119.638C491.126 119.738 490.776 119.973 490.553 120.307C490.393 120.575 490.298 120.909 490.298 121.21C490.298 121.511 490.425 121.813 490.616 122.08C490.903 122.448 491.286 122.749 491.7 122.984C492.434 123.385 493.199 123.753 493.964 124.088C495.686 124.69 497.344 125.526 498.874 126.53C499.926 127.232 500.787 128.169 501.393 129.307C501.903 130.377 502.158 131.548 502.126 132.752C502.158 134.325 501.712 135.897 500.883 137.202C499.99 138.54 498.747 139.577 497.312 140.179C495.75 140.882 493.837 141.25 491.541 141.25C490.074 141.25 488.64 141.116 487.205 140.815C486.089 140.614 484.973 140.246 483.953 139.745C483.729 139.611 483.57 139.376 483.602 139.109V133.288C483.602 133.187 483.634 133.053 483.729 132.987C483.825 132.92 483.921 132.953 484.016 133.02C485.26 133.79 486.567 134.325 487.97 134.659C489.182 134.994 490.457 135.161 491.732 135.161C492.944 135.161 493.805 134.994 494.379 134.693C494.889 134.459 495.24 133.89 495.24 133.288C495.24 132.819 494.985 132.384 494.474 131.949C493.964 131.515 492.912 131.013 491.35 130.377C489.724 129.775 488.225 128.972 486.822 127.968C485.834 127.232 485.005 126.262 484.399 125.125C483.889 124.054 483.634 122.883 483.666 121.712C483.666 120.274 484.048 118.902 484.75 117.664C485.547 116.326 486.726 115.255 488.098 114.586C489.596 113.783 491.477 113.415 493.741 113.415C495.048 113.415 496.387 113.516 497.695 113.717C498.651 113.85 499.576 114.118 500.437 114.486C500.564 114.519 500.692 114.653 500.755 114.787C500.787 114.921 500.819 115.055 500.819 115.189V120.642C500.819 120.776 500.756 120.909 500.66 120.976C500.373 121.043 500.213 121.043 500.086 120.976Z" fill="#31A8FF"/>
</g>
<g filter="url(#filter3_d_1119_27)">
<path d="M104.166 32.1388C107.351 30.2095 111.344 30.2095 114.529 32.1389L183.639 74.0052C186.63 75.8173 188.457 79.0607 188.457 82.5581V167.139C188.457 170.636 186.63 173.88 183.639 175.692L114.529 217.558C111.344 219.488 107.351 219.488 104.166 217.558L35.0569 175.692C32.0655 173.88 30.2383 170.636 30.2383 167.139V82.5581C30.2383 79.0606 32.0655 75.8173 35.0569 74.0052L104.166 32.1388Z" fill="white"/>
</g>
<g clip-path="url(#clip1_1119_27)">
<path d="M96.7536 164.493C103.794 164.493 109.507 158.498 109.507 151.111V137.729H96.7536C89.7136 137.729 84 143.724 84 151.111C84 158.498 89.7136 164.493 96.7536 164.493Z" fill="#0ACF83"/>
<path d="M84 124.346C84 116.959 89.7136 110.964 96.7536 110.964H109.507V137.728H96.7536C89.7136 137.728 84 131.733 84 124.346Z" fill="#A259FF"/>
<path d="M84 97.5827C84 90.1959 89.7136 84.2007 96.7536 84.2007H109.507V110.965H96.7536C89.7136 110.965 84 104.97 84 97.5827Z" fill="#F24E1E"/>
<path d="M109.508 84.2007H122.261C129.301 84.2007 135.015 90.1959 135.015 97.5827C135.015 104.97 129.301 110.965 122.261 110.965H109.508V84.2007Z" fill="#FF7262"/>
<path d="M135.015 124.346C135.015 131.733 129.301 137.728 122.261 137.728C115.221 137.728 109.508 131.733 109.508 124.346C109.508 116.959 115.221 110.964 122.261 110.964C129.301 110.964 135.015 116.959 135.015 124.346Z" fill="#1ABCFE"/>
</g>
<g filter="url(#filter4_d_1119_27)">
<path d="M287.36 32.1106C290.535 30.1972 294.508 30.1972 297.683 32.1106L367.207 74.0084C370.209 75.8179 372.045 79.0677 372.045 82.5734V167.124C372.045 170.629 370.209 173.879 367.207 175.689L297.683 217.587C294.508 219.5 290.535 219.5 287.36 217.587L217.836 175.689C214.833 173.879 212.998 170.629 212.998 167.124V82.5734C212.998 79.0676 214.833 75.8179 217.836 74.0084L287.36 32.1106Z" fill="white"/>
</g>
<path d="M267.816 84.2007H317.237C324.729 84.2007 330.787 90.7202 330.787 98.7837V149.91C330.787 157.973 324.729 164.493 317.237 164.493H267.816C260.324 164.493 254.266 157.973 254.266 149.91V98.7837C254.266 90.7202 260.324 84.2007 267.816 84.2007Z" fill="#470137"/>
<path d="M294.833 108.494L285.268 125.054L295.471 142.618C295.534 142.752 295.566 142.886 295.534 143.02C295.503 143.154 295.375 143.053 295.184 143.087H287.882C287.372 143.087 287.021 143.053 286.798 142.719C286.129 141.314 285.427 139.942 284.758 138.537C284.088 137.165 283.355 135.76 282.589 134.321C281.824 132.883 281.059 131.444 280.294 129.972H280.23C279.561 131.411 278.827 132.85 278.094 134.288C277.361 135.727 276.627 137.165 275.926 138.57C275.192 139.975 274.459 141.414 273.726 142.786C273.598 143.12 273.343 143.154 272.992 143.154H265.978C265.85 143.154 265.755 143.221 265.755 143.053C265.723 142.919 265.755 142.786 265.818 142.685L275.734 125.623L266.074 108.461C265.978 108.327 265.946 108.193 266.01 108.126C266.074 108.026 266.201 107.992 266.329 107.992H273.566C273.726 107.992 273.885 108.026 274.013 108.059C274.14 108.126 274.236 108.227 274.332 108.36C274.937 109.799 275.639 111.238 276.372 112.676C277.137 114.115 277.871 115.52 278.668 116.925C279.433 118.33 280.134 119.735 280.804 121.174H280.868C281.537 119.702 282.239 118.263 282.94 116.858C283.642 115.453 284.375 114.048 285.108 112.643C285.842 111.238 286.543 109.799 287.245 108.427C287.276 108.294 287.34 108.16 287.436 108.093C287.563 108.026 287.691 107.992 287.85 108.026H294.578C294.737 107.992 294.897 108.093 294.929 108.26C294.961 108.294 294.897 108.427 294.833 108.494ZM309.563 143.789C307.204 143.823 304.845 143.321 302.708 142.284C300.7 141.314 299.042 139.708 297.894 137.734C296.714 135.693 296.14 133.151 296.14 130.106C296.108 127.631 296.714 125.188 297.894 123.047C299.105 120.873 300.859 119.066 302.963 117.862C305.195 116.557 307.874 115.921 311.03 115.921C311.189 115.921 311.413 115.921 311.7 115.955C311.987 115.988 312.305 115.988 312.688 116.022V105.45C312.688 105.216 312.784 105.082 313.007 105.082H319.479C319.639 105.048 319.766 105.182 319.798 105.316V137.232C319.798 137.834 319.83 138.503 319.862 139.239C319.926 139.942 319.958 140.611 319.989 141.18C319.989 141.414 319.894 141.615 319.671 141.715C318.013 142.451 316.259 142.986 314.474 143.321C312.847 143.622 311.221 143.789 309.563 143.789ZM312.688 137.098V122.378C312.401 122.311 312.114 122.244 311.827 122.211C311.476 122.177 311.126 122.144 310.775 122.144C309.532 122.144 308.288 122.412 307.172 123.014C306.088 123.582 305.163 124.419 304.462 125.489C303.761 126.56 303.41 127.998 303.41 129.738C303.378 130.909 303.569 132.08 303.952 133.184C304.271 134.087 304.749 134.89 305.387 135.559C305.992 136.162 306.726 136.63 307.555 136.898C308.416 137.199 309.308 137.332 310.201 137.332C310.679 137.332 311.126 137.299 311.54 137.266C311.955 137.299 312.305 137.232 312.688 137.098Z" fill="#FF61F6"/>
<g filter="url(#filter5_d_1119_27)">
<path d="M105.127 390.442C108.312 388.512 112.305 388.512 115.49 390.442L184.6 432.308C187.591 434.12 189.418 437.364 189.418 440.861V525.442C189.418 528.939 187.591 532.183 184.6 533.995L115.49 575.861C112.305 577.791 108.312 577.791 105.127 575.861L36.0179 533.995C33.0265 532.183 31.1992 528.939 31.1992 525.442V440.861C31.1992 437.364 33.0265 434.12 36.0179 432.308L105.127 390.442Z" fill="white"/>
</g>
<g clip-path="url(#clip2_1119_27)">
<path d="M54.7197 506.451L50.5234 452.641L100.638 452.749L96.2004 506.451L75.7696 512.659L54.7197 506.451Z" fill="#E9CA32"/>
<path d="M75.7734 507.462V457.766L96.4107 457.838L92.7306 502.301L75.7734 507.462Z" fill="#FFDE25"/>
<path d="M73.556 463.666H68.1V496.743L63.8565 495.895V491.442L58.8047 490.594V500.559L73.556 504.588V463.666ZM77.6488 463.666H92.753L91.7426 470.006H83.4148V480.409H91.7426L90.7322 501.407L77.6488 504.588V498.015L86.4887 494.835L86.9991 486.141L77.6488 487.562V463.666Z" fill="white"/>
</g>
<g clip-path="url(#clip3_1119_27)">
<path d="M124.548 506.451L120.352 452.641L170.466 452.749L166.029 506.451L145.598 512.658L124.548 506.451Z" fill="#1B73BA"/>
<path d="M145.602 507.461V457.766L166.239 457.838L162.559 502.301L145.602 507.461Z" fill="#1C88C7"/>
<path d="M161.106 464.118H129.359L130.219 470.614H145.284L130.46 477.29L131.32 483.57H153.161L152.37 492.339L144.975 493.855L138.268 492.051L137.752 487.07H131.595L132.42 497.428L145.628 501.29L158.286 497.068L159.903 476.821H146.522L161.106 470.469L161.106 464.118Z" fill="white"/>
</g>
<g filter="url(#filter6_d_1119_27)">
<path d="M381.557 210.774C384.742 208.844 388.735 208.845 391.92 210.774L461.029 252.64C464.021 254.452 465.848 257.696 465.848 261.193V345.774C465.848 349.271 464.021 352.515 461.029 354.327L391.92 396.193C388.735 398.123 384.742 398.123 381.557 396.193L312.448 354.327C309.456 352.515 307.629 349.271 307.629 345.774V261.193C307.629 257.696 309.456 254.452 312.448 252.64L381.557 210.774Z" fill="white"/>
</g>
<path d="M358.921 335.098L352.781 262.836H420.215L414.068 335.103L386.482 343.128L358.921 335.098Z" fill="#E34E26"/>
<path d="M386.5 268.741V336.988L408.807 330.501L414.063 268.741H386.5Z" fill="#EF662A"/>
<path d="M365.352 277.604L367.628 304.406H396.905L395.922 315.902L386.496 318.576L377.088 315.905L376.459 308.524H367.98L369.192 322.753L386.494 327.795L403.818 322.753L406.14 295.544H375.354L374.581 286.468H406.879H406.906L407.662 277.604H365.352Z" fill="white"/>
<g filter="url(#filter7_d_1119_27)">
<path d="M195.041 210.774C198.226 208.844 202.219 208.845 205.404 210.774L274.514 252.64C277.505 254.452 279.332 257.696 279.332 261.193V345.774C279.332 349.271 277.505 352.515 274.514 354.327L205.404 396.193C202.219 398.123 198.226 398.123 195.041 396.193L125.932 354.327C122.941 352.515 121.113 349.271 121.113 345.774V261.193C121.113 257.696 122.941 254.452 125.932 252.64L195.041 210.774Z" fill="white"/>
</g>
<g clip-path="url(#clip4_1119_27)">
<path d="M232.022 262.836H169.374C165.543 262.836 162.438 266.094 162.438 270.114V335.849C162.438 339.869 165.543 343.128 169.374 343.128H232.022C235.854 343.128 238.959 339.869 238.959 335.849V270.114C238.959 266.094 235.854 262.836 232.022 262.836Z" fill="#DC395F"/>
<path d="M188.008 288.098C190.552 288.098 192.683 286.006 192.683 283.264C192.683 280.524 190.552 278.432 188.008 278.432C185.464 278.432 183.334 280.524 183.334 283.264C183.334 286.006 185.464 288.098 188.008 288.098ZM178.315 313.98C178.041 315.206 177.903 316.53 177.903 317.61C177.903 321.867 180.103 324.692 184.777 324.692C188.654 324.692 191.797 322.277 194.06 318.376L192.678 324.195H200.377L204.777 305.678C205.877 300.99 208.008 298.556 211.239 298.556C213.783 298.556 215.364 300.216 215.364 302.956C215.364 303.75 215.295 304.614 215.02 305.552L212.751 314.064C212.407 315.29 212.27 316.517 212.27 317.67C212.27 321.711 214.538 324.666 219.282 324.666C223.338 324.666 226.568 321.927 228.356 315.362L225.331 314.137C223.819 318.535 222.513 319.33 221.481 319.33C220.45 319.33 219.9 318.609 219.9 317.167C219.9 316.518 220.038 315.798 220.244 314.93L222.444 306.638C222.994 304.691 223.2 302.965 223.2 301.378C223.2 295.175 219.625 291.938 215.295 291.938C211.239 291.938 207.114 295.776 205.052 299.816L206.564 292.565H194.81L193.16 298.952H198.659L195.273 313.179C192.613 319.382 187.728 319.482 187.115 319.338C186.108 319.1 185.464 318.699 185.464 317.326C185.464 316.534 185.602 315.397 185.946 314.025L191.102 292.565H178.041L176.391 298.952H181.821L178.316 313.98" fill="white"/>
</g>
<defs>
<filter id="filter0_d_1119_27" x="183.961" y="358.978" width="219.047" height="248.346" filterUnits="userSpaceOnUse" color-interpolation-filters="sRGB">
<feFlood flood-opacity="0" result="BackgroundImageFix"/>
<feColorMatrix in="SourceAlpha" type="matrix" values="0 0 0 0 0 0 0 0 0 0 0 0 0 0 0 0 0 0 127 0" result="hardAlpha"/>
<feOffset/>
<feGaussianBlur stdDeviation="15"/>
<feComposite in2="hardAlpha" operator="out"/>
<feColorMatrix type="matrix" values="0 0 0 0 0.0235294 0 0 0 0 0.576471 0 0 0 0 0.890196 0 0 0 0.15 0"/>
<feBlend mode="normal" in2="BackgroundImageFix" result="effect1_dropShadow_1119_27"/>
<feBlend mode="normal" in="SourceGraphic" in2="effect1_dropShadow_1119_27" result="shape"/>
</filter>
<filter id="filter1_d_1119_27" x="367.547" y="358.995" width="218.219" height="248.313" filterUnits="userSpaceOnUse" color-interpolation-filters="sRGB">
<feFlood flood-opacity="0" result="BackgroundImageFix"/>
<feColorMatrix in="SourceAlpha" type="matrix" values="0 0 0 0 0 0 0 0 0 0 0 0 0 0 0 0 0 0 127 0" result="hardAlpha"/>
<feOffset/>
<feGaussianBlur stdDeviation="15"/>
<feComposite in2="hardAlpha" operator="out"/>
<feColorMatrix type="matrix" values="0 0 0 0 0.0235294 0 0 0 0 0.576471 0 0 0 0 0.890196 0 0 0 0.15 0"/>
<feBlend mode="normal" in2="BackgroundImageFix" result="effect1_dropShadow_1119_27"/>
<feBlend mode="normal" in="SourceGraphic" in2="effect1_dropShadow_1119_27" result="shape"/>
</filter>
<filter id="filter2_d_1119_27" x="367.547" y="0.691833" width="218.219" height="248.313" filterUnits="userSpaceOnUse" color-interpolation-filters="sRGB">
<feFlood flood-opacity="0" result="BackgroundImageFix"/>
<feColorMatrix in="SourceAlpha" type="matrix" values="0 0 0 0 0 0 0 0 0 0 0 0 0 0 0 0 0 0 127 0" result="hardAlpha"/>
<feOffset/>
<feGaussianBlur stdDeviation="15"/>
<feComposite in2="hardAlpha" operator="out"/>
<feColorMatrix type="matrix" values="0 0 0 0 0.0235294 0 0 0 0 0.576471 0 0 0 0 0.890196 0 0 0 0.15 0"/>
<feBlend mode="normal" in2="BackgroundImageFix" result="effect1_dropShadow_1119_27"/>
<feBlend mode="normal" in="SourceGraphic" in2="effect1_dropShadow_1119_27" result="shape"/>
</filter>
<filter id="filter3_d_1119_27" x="0.242188" y="0.691833" width="218.219" height="248.313" filterUnits="userSpaceOnUse" color-interpolation-filters="sRGB">
<feFlood flood-opacity="0" result="BackgroundImageFix"/>
<feColorMatrix in="SourceAlpha" type="matrix" values="0 0 0 0 0 0 0 0 0 0 0 0 0 0 0 0 0 0 127 0" result="hardAlpha"/>
<feOffset/>
<feGaussianBlur stdDeviation="15"/>
<feComposite in2="hardAlpha" operator="out"/>
<feColorMatrix type="matrix" values="0 0 0 0 0.0235294 0 0 0 0 0.576471 0 0 0 0 0.890196 0 0 0 0.15 0"/>
<feBlend mode="normal" in2="BackgroundImageFix" result="effect1_dropShadow_1119_27"/>
<feBlend mode="normal" in="SourceGraphic" in2="effect1_dropShadow_1119_27" result="shape"/>
</filter>
<filter id="filter4_d_1119_27" x="183" y="0.675537" width="219.047" height="248.346" filterUnits="userSpaceOnUse" color-interpolation-filters="sRGB">
<feFlood flood-opacity="0" result="BackgroundImageFix"/>
<feColorMatrix in="SourceAlpha" type="matrix" values="0 0 0 0 0 0 0 0 0 0 0 0 0 0 0 0 0 0 127 0" result="hardAlpha"/>
<feOffset/>
<feGaussianBlur stdDeviation="15"/>
<feComposite in2="hardAlpha" operator="out"/>
<feColorMatrix type="matrix" values="0 0 0 0 0.0235294 0 0 0 0 0.576471 0 0 0 0 0.890196 0 0 0 0.15 0"/>
<feBlend mode="normal" in2="BackgroundImageFix" result="effect1_dropShadow_1119_27"/>
<feBlend mode="normal" in="SourceGraphic" in2="effect1_dropShadow_1119_27" result="shape"/>
</filter>
<filter id="filter5_d_1119_27" x="1.20312" y="358.995" width="218.219" height="248.313" filterUnits="userSpaceOnUse" color-interpolation-filters="sRGB">
<feFlood flood-opacity="0" result="BackgroundImageFix"/>
<feColorMatrix in="SourceAlpha" type="matrix" values="0 0 0 0 0 0 0 0 0 0 0 0 0 0 0 0 0 0 127 0" result="hardAlpha"/>
<feOffset/>
<feGaussianBlur stdDeviation="15"/>
<feComposite in2="hardAlpha" operator="out"/>
<feColorMatrix type="matrix" values="0 0 0 0 0.0235294 0 0 0 0 0.576471 0 0 0 0 0.890196 0 0 0 0.15 0"/>
<feBlend mode="normal" in2="BackgroundImageFix" result="effect1_dropShadow_1119_27"/>
<feBlend mode="normal" in="SourceGraphic" in2="effect1_dropShadow_1119_27" result="shape"/>
</filter>
<filter id="filter6_d_1119_27" x="277.633" y="179.327" width="218.219" height="248.313" filterUnits="userSpaceOnUse" color-interpolation-filters="sRGB">
<feFlood flood-opacity="0" result="BackgroundImageFix"/>
<feColorMatrix in="SourceAlpha" type="matrix" values="0 0 0 0 0 0 0 0 0 0 0 0 0 0 0 0 0 0 127 0" result="hardAlpha"/>
<feOffset/>
<feGaussianBlur stdDeviation="15"/>
<feComposite in2="hardAlpha" operator="out"/>
<feColorMatrix type="matrix" values="0 0 0 0 0.0235294 0 0 0 0 0.576471 0 0 0 0 0.890196 0 0 0 0.15 0"/>
<feBlend mode="normal" in2="BackgroundImageFix" result="effect1_dropShadow_1119_27"/>
<feBlend mode="normal" in="SourceGraphic" in2="effect1_dropShadow_1119_27" result="shape"/>
</filter>
<filter id="filter7_d_1119_27" x="91.1172" y="179.327" width="218.219" height="248.313" filterUnits="userSpaceOnUse" color-interpolation-filters="sRGB">
<feFlood flood-opacity="0" result="BackgroundImageFix"/>
<feColorMatrix in="SourceAlpha" type="matrix" values="0 0 0 0 0 0 0 0 0 0 0 0 0 0 0 0 0 0 127 0" result="hardAlpha"/>
<feOffset/>
<feGaussianBlur stdDeviation="15"/>
<feComposite in2="hardAlpha" operator="out"/>
<feColorMatrix type="matrix" values="0 0 0 0 0.0235294 0 0 0 0 0.576471 0 0 0 0 0.890196 0 0 0 0.15 0"/>
<feBlend mode="normal" in2="BackgroundImageFix" result="effect1_dropShadow_1119_27"/>
<feBlend mode="normal" in="SourceGraphic" in2="effect1_dropShadow_1119_27" result="shape"/>
</filter>
<clipPath id="clip0_1119_27">
<rect width="76.5217" height="80.292" fill="white" transform="translate(438.867 84.2007)"/>
</clipPath>
<clipPath id="clip1_1119_27">
<rect width="76.5217" height="80.292" fill="white" transform="translate(71.5625 84.2007)"/>
</clipPath>
<clipPath id="clip2_1119_27">
<rect width="50.1141" height="60.219" fill="white" transform="translate(50.5234 452.54)"/>
</clipPath>
<clipPath id="clip3_1119_27">
<rect width="50.1141" height="60.219" fill="white" transform="translate(120.352 452.54)"/>
</clipPath>
<clipPath id="clip4_1119_27">
<rect width="76.5217" height="80.292" fill="white" transform="translate(162.438 262.836)"/>
</clipPath>
</defs>
</svg>
