<svg width="155" height="45" viewBox="0 0 155 45" fill="none" xmlns="http://www.w3.org/2000/svg">
<path d="M107.958 26.6667L120.448 13.125H94.3021C93.8021 13.1437 93.4 13.5417 93.375 14.0437V16.8937C90.9761 12.8083 86.0521 10 80.3542 10C73.6209 10 67.9688 13.9167 66.2917 19.2322V13.125H61.7292C60.6427 13.1406 59.6906 13.6229 59 14.3511L50.148 24.0646L41.2917 14.3511C40.6042 13.6219 39.6531 13.1406 38.5656 13.125H34V32.9166H39.3302C39.8427 32.8917 40.2292 32.4792 40.25 31.9687V22.5001L50.1458 33.4375L60.0416 22.5001V31.9687C60.0593 32.4792 60.474 32.8917 60.9843 32.9166H66.2917V25.7678C67.9688 31.0833 73.6209 35 80.3542 35C88.4084 35 94.9375 29.4032 94.9375 22.5001C94.9375 21.4187 94.7605 20.3751 94.4583 19.375H105.875L93.375 32.9166H119.525C120.025 32.8979 120.433 32.4969 120.458 31.9958V26.6667H107.958ZM80.4042 28.7084C76.4833 28.7084 73.3021 25.9292 73.3021 22.5001C73.3021 19.0698 76.4823 16.2916 80.4042 16.2916C84.3291 16.2916 87.5104 19.0708 87.5104 22.5001C87.5104 25.9292 84.3303 28.7084 80.4042 28.7084Z" fill="#4DBDEB"/>
</svg>
