<svg width="155" height="45" viewBox="0 0 155 45" fill="none" xmlns="http://www.w3.org/2000/svg">
<path fill-rule="evenodd" clip-rule="evenodd" d="M14.5371 20.3436V22.326H19.4238C19.2582 23.4361 18.9269 24.2291 18.3471 24.7841C17.6017 25.4978 16.5249 26.2114 14.62 26.2114C11.6382 26.2114 9.2363 23.9119 9.2363 21.0573C9.2363 18.2027 11.5554 15.9031 14.62 15.9031C16.2765 15.9031 17.436 16.5374 18.2643 17.3304L19.6723 15.9824C18.4299 14.8723 16.8562 14 14.5371 14C10.3959 14 7 17.1718 7 21.1366C7 25.1013 10.4787 28.2731 14.5371 28.2731C16.7734 28.2731 18.4299 27.5595 19.7551 26.2907C21.0803 25.0221 21.4945 23.1982 21.4945 21.6916C21.4945 21.2159 21.4945 20.8194 21.4116 20.5022H14.5371V20.3436Z" fill="#4285F4"/>
<path fill-rule="evenodd" clip-rule="evenodd" d="M27.5407 26.1323C26.0498 26.1323 24.8075 24.9429 24.8075 23.357C24.8075 21.6917 26.0498 20.5816 27.5407 20.5816C29.0316 20.5816 30.2739 21.6917 30.2739 23.357C30.2739 25.0221 29.0316 26.1323 27.5407 26.1323ZM27.5407 18.7578C24.8903 18.7578 22.7368 20.6609 22.7368 23.357C22.7368 25.9737 24.8903 27.9561 27.5407 27.9561C30.1911 27.9561 32.3446 25.9737 32.3446 23.357C32.4274 20.6609 30.1911 18.7578 27.5407 18.7578Z" fill="#E94235"/>
<path fill-rule="evenodd" clip-rule="evenodd" d="M48.8269 26.1323C47.336 26.1323 46.2592 24.9429 46.2592 23.357C46.2592 21.7711 47.336 20.5816 48.8269 20.5816C50.2349 20.5816 51.3945 21.7711 51.3945 23.357C51.3945 24.9429 50.2349 26.1323 48.8269 26.1323ZM51.2288 19.7887C50.649 19.2336 49.738 18.7578 48.6612 18.7578C46.2592 18.7578 44.1887 20.7403 44.1887 23.357C44.1887 25.9737 46.2592 27.9561 48.6612 27.9561C49.8208 27.9561 50.7318 27.4803 51.2288 26.9252H51.3117V27.5596C51.3117 29.3041 50.3177 30.2556 48.7441 30.2556C47.4188 30.2556 46.6734 29.3834 46.3421 28.5905L44.5199 29.3041C45.0169 30.4936 46.4249 32.0002 48.7441 32.0002C51.2288 32.0002 53.2994 30.5728 53.2994 27.1632V18.9957H51.3117V19.7887H51.2288Z" fill="#4285F4"/>
<path fill-rule="evenodd" clip-rule="evenodd" d="M38.3081 26.1323C36.8172 26.1323 35.5748 24.9429 35.5748 23.357C35.5748 21.6917 36.8172 20.5816 38.3081 20.5816C39.7989 20.5816 41.0414 21.6917 41.0414 23.357C41.0414 25.0221 39.7989 26.1323 38.3081 26.1323ZM38.3081 18.7578C35.6577 18.7578 33.5042 20.6609 33.5042 23.357C33.5042 25.9737 35.6577 27.9561 38.3081 27.9561C40.9586 27.9561 43.112 25.9737 43.112 23.357C43.1948 20.6609 40.9586 18.7578 38.3081 18.7578Z" fill="#FBBC04"/>
<path fill-rule="evenodd" clip-rule="evenodd" d="M54.8731 27.956H56.9438V14H54.8731V27.956Z" fill="#34A853"/>
<path fill-rule="evenodd" clip-rule="evenodd" d="M63.2386 20.502C64.0668 20.502 64.8122 20.8984 65.0607 21.5329L60.7537 23.2773C60.7537 21.2949 62.1618 20.502 63.2386 20.502ZM63.4042 26.1319C62.3274 26.1319 61.582 25.6562 61.0851 24.7046L67.5455 22.1672L67.297 21.6121C66.8828 20.5813 65.6405 18.6782 63.1557 18.6782C60.6709 18.6782 58.6003 20.5813 58.6003 23.2773C58.6003 25.8941 60.6709 27.8765 63.4042 27.8765C65.6405 27.8765 66.8828 26.6077 67.3798 25.8147L65.7233 24.7839C65.2263 25.6562 64.4809 26.1319 63.4042 26.1319Z" fill="#E94235"/>
<path d="M76.7014 27C76.3155 27 75.9778 26.9024 75.5919 26.7561C75.2542 26.6098 74.9166 26.3659 74.6271 26.0732C74.3377 25.7805 74.1447 25.3902 74 24.9024L74.8683 24.561C74.9648 25 75.206 25.3902 75.5437 25.6829C75.8814 25.9756 76.2673 26.1219 76.7014 26.1219C76.9909 26.1219 77.2321 26.0732 77.4733 25.9756C77.7145 25.878 77.9074 25.7317 78.0521 25.5366C78.1969 25.3415 78.2934 25.0976 78.2934 24.8049C78.2934 24.4146 78.1486 24.1219 77.8592 23.9268C77.5697 23.6829 77.1838 23.4878 76.6049 23.2927L76.1226 23.0976C75.8331 23 75.5437 22.8537 75.2542 22.7073C74.9648 22.561 74.7236 22.3171 74.5306 22.0732C74.3377 21.7805 74.2412 21.439 74.2412 21.0488C74.2412 20.6585 74.3377 20.3171 74.5306 20.0244C74.7236 19.7317 75.013 19.4878 75.3507 19.2927C75.6884 19.0976 76.0743 19 76.5567 19C77.0391 19 77.425 19.0976 77.7627 19.2927C78.1004 19.4878 78.3416 19.6829 78.5346 19.9268C78.7275 20.1707 78.8722 20.3659 78.9205 20.561L78.1004 20.9024C78.0521 20.7561 77.9557 20.6098 77.8592 20.4634C77.7627 20.3171 77.5698 20.1707 77.3768 20.0732C77.1838 19.9756 76.9426 19.8781 76.6049 19.8781C76.3638 19.8781 76.1226 19.9268 75.8814 20.0244C75.6884 20.122 75.4954 20.2683 75.3507 20.4634C75.206 20.6585 75.1578 20.8537 75.1578 21.0488C75.1578 21.3902 75.3025 21.6341 75.5437 21.8293C75.7849 22.0244 76.1226 22.1707 76.5567 22.3171L77.0391 22.5122C77.2803 22.6098 77.4733 22.7073 77.7145 22.8049C77.9557 22.9024 78.1969 23.0488 78.3898 23.2439C78.5828 23.439 78.7758 23.6341 78.8722 23.9268C79.017 24.1707 79.0652 24.5122 79.0652 24.8537C79.0652 25.2439 78.9687 25.5854 78.824 25.878C78.6793 26.1707 78.4863 26.3659 78.2451 26.561C78.0039 26.7561 77.7145 26.8537 77.425 26.9512C77.2803 26.9512 76.9909 27 76.7014 27ZM82.7797 27C82.249 27 81.7666 26.8537 81.3807 26.6098C80.9948 26.3659 80.6571 26.0244 80.4159 25.5854C80.1747 25.1463 80.0782 24.6585 80.0782 24.0732C80.0782 23.5366 80.1747 23.0488 80.4159 22.6098C80.6571 22.1707 80.9465 21.8293 81.3325 21.5366C81.7184 21.2439 82.2008 21.1463 82.7314 21.1463C83.2621 21.1463 83.7445 21.2439 84.1304 21.4878C84.5163 21.7317 84.8057 22.0732 84.9987 22.4634C85.1917 22.9024 85.3364 23.3902 85.3364 23.9268C85.3364 23.9756 85.3364 24.0244 85.3364 24.0732C85.3364 24.122 85.3364 24.1707 85.3364 24.2195H81.043C81.0913 24.6585 81.1877 25 81.3325 25.2927C81.5254 25.5854 81.7666 25.7805 82.0078 25.9268C82.2973 26.0732 82.5385 26.1219 82.8279 26.1219C83.2138 26.1219 83.5515 26.0244 83.7927 25.8293C84.0339 25.6341 84.2751 25.3902 84.4198 25.0976L85.1917 25.4878C84.9987 25.9268 84.661 26.2683 84.2751 26.5122C83.8409 26.8537 83.3585 27 82.7797 27ZM82.6832 21.9756C82.249 21.9756 81.8631 22.122 81.5737 22.4146C81.2842 22.7073 81.0913 23.0488 80.9948 23.4878H84.2751C84.2751 23.2927 84.2269 23.0488 84.0821 22.8537C83.9857 22.6098 83.7927 22.4146 83.5515 22.2683C83.4068 22.0732 83.0691 21.9756 82.6832 21.9756ZM88.1343 27C87.7484 27 87.3625 26.9024 87.073 26.7561C86.7836 26.6098 86.5424 26.3659 86.3494 26.1219C86.1565 25.8293 86.1082 25.5366 86.1082 25.1951C86.1082 24.8049 86.2047 24.4634 86.3977 24.1707C86.5906 23.878 86.8801 23.6829 87.2177 23.5366C87.5554 23.3902 87.9413 23.3415 88.3755 23.3415C88.7132 23.3415 89.0508 23.3902 89.3403 23.439C89.6297 23.4878 89.8227 23.5854 89.9192 23.6829V23.3415C89.9192 22.9024 89.7744 22.6098 89.485 22.3659C89.1956 22.122 88.8579 22.0244 88.4237 22.0244C88.1343 22.0244 87.8448 22.0732 87.6036 22.2195C87.3624 22.3659 87.1695 22.5122 86.9765 22.7561L86.3012 22.2195C86.4941 21.878 86.7836 21.6341 87.1695 21.439C87.5554 21.2439 87.9413 21.1463 88.4237 21.1463C89.1473 21.1463 89.7262 21.3415 90.1604 21.7317C90.5945 22.122 90.7875 22.6585 90.7875 23.3415V26.8049H89.9192V26.0244H89.8709C89.7262 26.2683 89.485 26.5122 89.1956 26.7073C88.9061 26.9024 88.5202 27 88.1343 27ZM88.1825 26.1707C88.472 26.1707 88.7614 26.0732 89.0508 25.9268C89.292 25.7805 89.5332 25.5366 89.678 25.2927C89.8227 25.0488 89.9192 24.7561 89.9192 24.4146C89.7744 24.3171 89.5332 24.2195 89.292 24.122C89.0508 24.0732 88.8096 24.0244 88.472 24.0244C87.9413 24.0244 87.5554 24.122 87.3142 24.3659C87.073 24.561 86.9765 24.8537 86.9765 25.1463C86.9765 25.439 87.073 25.6829 87.3142 25.878C87.5554 26.0732 87.8449 26.1707 88.1825 26.1707ZM92.0417 26.8049V21.3415H92.91V22.2195H92.9583C93.0065 22.0244 93.1512 21.8293 93.296 21.6829C93.4889 21.5366 93.6336 21.3902 93.8748 21.3415C94.116 21.2439 94.309 21.1951 94.502 21.1951C94.6467 21.1951 94.7914 21.1951 94.8879 21.2439C94.9844 21.2439 95.0808 21.2927 95.1291 21.3415V22.3171C94.8879 22.2195 94.6467 22.122 94.3572 22.122C94.116 22.122 93.8748 22.2195 93.6336 22.3659C93.3924 22.5122 93.2477 22.7073 93.103 22.9512C92.9583 23.1951 92.91 23.4878 92.91 23.7805V26.8537H92.0417V26.8049ZM98.1199 27C97.5893 27 97.1069 26.8537 96.721 26.6098C96.2868 26.3659 95.9974 26.0244 95.7562 25.5854C95.515 25.1463 95.4185 24.6585 95.4185 24.0732C95.4185 23.5366 95.515 23 95.7562 22.561C95.9974 22.122 96.3351 21.7805 96.721 21.5366C97.1552 21.2927 97.5893 21.1463 98.1199 21.1463C98.7471 21.1463 99.2295 21.2927 99.6154 21.5854C100.001 21.878 100.291 22.2195 100.435 22.6585L99.6154 23C99.4707 22.6585 99.2777 22.4146 98.9883 22.2195C98.7471 22.0244 98.4094 21.9756 98.0235 21.9756C97.6858 21.9756 97.3963 22.0732 97.1551 22.2195C96.8657 22.4146 96.6728 22.6585 96.4798 22.9512C96.2868 23.2439 96.2386 23.6341 96.2386 24.0244C96.2386 24.4634 96.3351 24.8049 96.4798 25.0976C96.6728 25.3902 96.8657 25.6341 97.1551 25.8293C97.4446 26.0244 97.734 26.0732 98.0235 26.0732C98.4094 26.0732 98.7471 25.9756 98.9883 25.7805C99.2777 25.5854 99.4707 25.3415 99.6154 25L100.435 25.3415C100.242 25.7805 99.9531 26.1219 99.5671 26.4146C99.2295 26.8537 98.7471 27 98.1199 27ZM101.497 26.8049V19.0976H102.413V21.3415L102.365 22.0732H102.413C102.558 21.7805 102.799 21.5854 103.089 21.3902C103.426 21.1951 103.764 21.0976 104.15 21.0976C104.825 21.0976 105.356 21.2927 105.694 21.7317C106.031 22.122 106.176 22.6585 106.176 23.2439V26.7561H105.259V23.3902C105.259 22.8537 105.115 22.5122 104.874 22.2683C104.632 22.0244 104.295 21.9268 103.957 21.9268C103.668 21.9268 103.378 22.0244 103.185 22.1707C102.992 22.3171 102.751 22.561 102.654 22.8537C102.51 23.1463 102.462 23.3902 102.462 23.6829V26.7073H101.497V26.8049ZM113.46 27C112.881 27 112.399 26.9024 111.917 26.7073C111.434 26.5122 111.048 26.2195 110.662 25.878C110.325 25.5366 110.035 25.0976 109.842 24.6098C109.649 24.122 109.553 23.5854 109.553 23C109.553 22.4146 109.649 21.878 109.842 21.3902C110.035 20.9024 110.325 20.4634 110.662 20.122C111 19.7805 111.434 19.4878 111.917 19.2927C112.399 19.0976 112.93 19 113.46 19C114.039 19 114.57 19.0976 115.052 19.3415C115.535 19.5366 115.92 19.878 116.258 20.2683L115.631 20.9024C115.052 20.2195 114.377 19.8781 113.508 19.8781C112.978 19.8781 112.447 20.0244 112.013 20.2683C111.531 20.5122 111.193 20.9024 110.903 21.3415C110.614 21.8293 110.469 22.3659 110.469 23C110.469 23.6341 110.614 24.1707 110.903 24.6585C111.193 25.1463 111.531 25.4878 112.013 25.7317C112.495 25.9756 112.978 26.1219 113.508 26.1219C113.991 26.1219 114.425 26.0244 114.811 25.8293C115.197 25.6341 115.535 25.3415 115.824 25L116.499 25.6341C116.162 26.0244 115.727 26.3659 115.245 26.6098C114.666 26.8537 114.087 27 113.46 27ZM119.876 27C119.345 27 118.863 26.8537 118.429 26.6098C117.995 26.3659 117.705 26.0244 117.464 25.5854C117.223 25.1463 117.126 24.6585 117.126 24.122C117.126 23.5854 117.223 23.0976 117.464 22.6585C117.705 22.2195 118.043 21.878 118.429 21.5854C118.863 21.3415 119.345 21.1951 119.876 21.1951C120.407 21.1951 120.889 21.3415 121.323 21.5854C121.757 21.8293 122.047 22.1707 122.288 22.6585C122.529 23.0976 122.626 23.5854 122.626 24.122C122.626 24.6585 122.529 25.1463 122.288 25.5854C122.047 26.0244 121.709 26.3659 121.323 26.6098C120.889 26.8537 120.407 27 119.876 27ZM119.876 26.1707C120.214 26.1707 120.503 26.0732 120.793 25.9268C121.082 25.7805 121.323 25.5366 121.516 25.1951C121.709 24.9024 121.806 24.5122 121.806 24.0732C121.806 23.6341 121.709 23.2439 121.516 22.9512C121.323 22.6585 121.13 22.4146 120.793 22.2195C120.503 22.0732 120.214 21.9756 119.876 21.9756C119.538 21.9756 119.249 22.0732 118.96 22.2195C118.67 22.3659 118.429 22.6098 118.236 22.9512C118.043 23.2439 117.946 23.6341 117.946 24.0732C117.946 24.5122 118.043 24.9024 118.236 25.1951C118.429 25.4878 118.67 25.7317 118.96 25.9268C119.249 26.0732 119.538 26.1707 119.876 26.1707ZM123.591 26.8049V21.3415H124.459V22.1707H124.507C124.652 21.9268 124.893 21.6829 125.182 21.4878C125.52 21.2927 125.858 21.1951 126.244 21.1951C126.919 21.1951 127.402 21.3902 127.739 21.7805C128.077 22.1707 128.27 22.6585 128.27 23.3415V26.8537H127.353V23.4878C127.353 22.9512 127.209 22.6098 126.967 22.3659C126.726 22.122 126.389 22.0244 126.003 22.0244C125.713 22.0244 125.424 22.1219 125.231 22.2683C124.99 22.4146 124.845 22.6585 124.7 22.9024C124.555 23.1463 124.507 23.439 124.507 23.7317V26.8049H123.591ZM131.405 27C130.778 27 130.296 26.8537 129.91 26.561C129.524 26.2683 129.283 25.9268 129.138 25.5366L129.958 25.1951C130.103 25.5366 130.296 25.7805 130.585 25.9756C130.875 26.1707 131.164 26.2195 131.502 26.2195C131.84 26.2195 132.129 26.1707 132.322 26.0244C132.563 25.878 132.66 25.6829 132.66 25.439C132.66 25.1951 132.563 25 132.322 24.8537C132.129 24.7073 131.84 24.6098 131.454 24.5122L130.778 24.3171C130.537 24.2683 130.296 24.122 130.055 24.0244C129.814 23.878 129.669 23.7317 129.524 23.5366C129.379 23.3415 129.331 23.0976 129.331 22.8049C129.331 22.4634 129.428 22.1707 129.621 21.9756C129.814 21.7317 130.055 21.5366 130.392 21.439C130.682 21.2927 131.02 21.2439 131.405 21.2439C131.888 21.2439 132.274 21.3415 132.66 21.5366C133.046 21.7317 133.287 22.0244 133.48 22.4146L132.708 22.7561C132.563 22.4634 132.37 22.3171 132.177 22.1707C131.936 22.0732 131.695 22.0244 131.405 22.0244C131.116 22.0244 130.827 22.0732 130.634 22.2195C130.392 22.3659 130.296 22.5122 130.296 22.7561C130.296 23 130.392 23.1463 130.585 23.2927C130.778 23.3902 130.971 23.4878 131.261 23.5854L132.033 23.7805C133.094 24.0732 133.625 24.6098 133.625 25.3902C133.625 25.7317 133.528 26.0244 133.335 26.2683C133.142 26.5122 132.901 26.7073 132.563 26.8537C132.129 26.9024 131.791 27 131.405 27ZM137.049 27C136.519 27 136.037 26.8537 135.602 26.6098C135.168 26.3659 134.879 26.0244 134.638 25.5854C134.396 25.1463 134.3 24.6585 134.3 24.122C134.3 23.5854 134.396 23.0976 134.638 22.6585C134.879 22.2195 135.216 21.878 135.602 21.5854C136.037 21.3415 136.519 21.1951 137.049 21.1951C137.58 21.1951 138.063 21.3415 138.497 21.5854C138.931 21.8293 139.22 22.1707 139.462 22.6585C139.703 23.0976 139.799 23.5854 139.799 24.122C139.799 24.6585 139.703 25.1463 139.462 25.5854C139.22 26.0244 138.883 26.3659 138.497 26.6098C138.111 26.8537 137.628 27 137.049 27ZM137.049 26.1707C137.387 26.1707 137.677 26.0732 137.966 25.9268C138.256 25.7805 138.497 25.5366 138.69 25.1951C138.883 24.9024 138.979 24.5122 138.979 24.0732C138.979 23.6341 138.883 23.2439 138.69 22.9512C138.497 22.6585 138.256 22.4146 137.966 22.2195C137.677 22.0732 137.387 21.9756 137.049 21.9756C136.712 21.9756 136.422 22.0732 136.133 22.2195C135.844 22.3659 135.602 22.6098 135.409 22.9512C135.216 23.2439 135.168 23.6341 135.168 24.0732C135.168 24.5122 135.265 24.9024 135.409 25.1951C135.602 25.4878 135.844 25.7317 136.133 25.9268C136.422 26.0732 136.76 26.1707 137.049 26.1707ZM140.86 26.8049V19.0976H141.777V26.8049H140.86ZM145.443 27C144.913 27 144.43 26.8537 144.044 26.6098C143.658 26.3659 143.321 26.0244 143.079 25.5854C142.838 25.1463 142.742 24.6585 142.742 24.0732C142.742 23.5366 142.838 23.0488 143.079 22.6098C143.321 22.1707 143.61 21.8293 143.996 21.5366C144.382 21.2439 144.864 21.1463 145.395 21.1463C145.926 21.1463 146.408 21.2439 146.794 21.4878C147.18 21.7317 147.469 22.0732 147.662 22.4634C147.855 22.9024 148 23.3902 148 23.9268C148 23.9756 148 24.0244 148 24.0732C148 24.122 148 24.1707 148 24.2195H143.707C143.755 24.6585 143.851 25 143.996 25.2927C144.189 25.5854 144.43 25.7805 144.672 25.9268C144.961 26.0732 145.202 26.1219 145.492 26.1219C145.877 26.1219 146.215 26.0244 146.456 25.8293C146.697 25.6341 146.939 25.3902 147.083 25.0976L147.855 25.4878C147.662 25.9268 147.325 26.2683 146.939 26.5122C146.505 26.8537 146.022 27 145.443 27ZM145.347 21.9756C144.913 21.9756 144.527 22.122 144.237 22.4146C143.948 22.7073 143.755 23.0488 143.658 23.4878H146.939C146.939 23.2927 146.89 23.0488 146.746 22.8537C146.649 22.6098 146.456 22.4146 146.215 22.2683C146.07 22.0732 145.781 21.9756 145.347 21.9756Z" fill="#5E5E5E"/>
</svg>
