<svg width="155" height="45" viewBox="0 0 155 45" fill="none" xmlns="http://www.w3.org/2000/svg">
<path d="M95.6537 21.9706C95.6537 21.9706 94.4478 22.2577 93.43 22.5011L91.8801 22.8541C91.875 22.8541 91.8683 22.8541 91.8665 22.8541C91.8665 22.4368 91.8969 21.996 91.9966 21.5906C92.1249 21.0702 92.4069 20.4621 92.8948 20.1952C93.4266 19.9046 94.075 19.8709 94.6384 20.0956C95.2216 20.3269 95.4879 20.8895 95.603 21.4723C95.6348 21.6344 95.6571 21.7983 95.6717 21.9638L95.6537 21.9706ZM99.6922 22.8524C99.6922 18.81 97.1464 17.0718 93.8946 17.0718C90.217 17.0718 87.9142 19.6191 87.9142 22.8726C87.9142 26.41 89.8743 28.7141 94.0965 28.7141C96.3794 28.7141 97.6729 28.3104 99.2078 27.5418L98.622 24.893C97.4496 25.4184 96.3597 25.741 94.9038 25.741C93.3084 25.741 92.3984 25.1345 92.0557 24.0028H99.5908C99.6518 23.7004 99.6922 23.3575 99.6922 22.8524Z" fill="#92003B"/>
<path d="M62.0459 21.9706C62.0459 21.9706 60.8405 22.2577 59.8224 22.5011L58.2725 22.8541C58.2675 22.8541 58.2607 22.8541 58.259 22.8541C58.259 22.4368 58.2894 21.996 58.389 21.5906C58.5173 21.0702 58.7993 20.4621 59.2871 20.1952C59.8191 19.9046 60.4674 19.8709 61.0312 20.0956C61.6137 20.3269 61.8805 20.8895 61.9953 21.4723C62.0274 21.6344 62.0494 21.7983 62.0646 21.9638L62.0459 21.9706ZM66.0845 22.8524C66.0845 18.81 63.5384 17.0718 60.2867 17.0718C56.6095 17.0718 54.3066 19.6191 54.3066 22.8726C54.3066 26.41 56.2668 28.7141 60.4893 28.7141C62.7719 28.7141 64.0652 28.3104 65.5999 27.5418L65.0141 24.893C63.8424 25.4184 62.7517 25.741 61.2964 25.741C59.7009 25.741 58.7908 25.1345 58.4481 24.0028H65.9832C66.044 23.7004 66.0845 23.3575 66.0845 22.8524Z" fill="#92003B"/>
<path d="M52.9297 14.0991H49.1985V28.3091H52.9297V14.0991Z" fill="#92003B"/>
<path d="M100.481 17.4337H104.401L105.225 19.9457C105.742 18.7057 106.903 17.1094 108.963 17.1094C111.791 17.1094 113.327 18.5436 113.327 22.243V28.3074H109.409C109.409 27.0439 109.411 25.7803 109.412 24.5168C109.412 23.9374 109.402 23.358 109.411 22.7786C109.417 22.243 109.455 21.6907 109.17 21.2109C108.978 20.8866 108.663 20.6484 108.322 20.4862C107.629 20.1551 106.88 20.1653 106.201 20.5183C106.034 20.6044 105.226 21.0419 105.226 21.2446V28.3074H101.308V20.368L100.481 17.4337Z" fill="#92003B"/>
<path d="M116.499 20.2832H114.701V17.4335H116.499V15.6513L120.417 14.729V17.4335H124.356V20.2832H120.417V23.4776C120.417 24.7311 121.024 25.3172 121.933 25.3172C122.861 25.3172 123.387 25.1956 124.174 24.9338L124.639 27.8849C123.568 28.3495 122.235 28.5724 120.88 28.5724C118.032 28.5724 116.496 27.2176 116.496 24.5909V20.2832H116.499Z" fill="#92003B"/>
<path d="M131.897 25.4797C133.331 25.4797 134.18 24.4492 134.18 22.7904C134.18 21.1316 133.371 20.1822 131.958 20.1822C130.523 20.1822 129.696 21.1316 129.696 22.8512C129.696 24.4679 130.505 25.4797 131.897 25.4797ZM131.938 17.0098C135.616 17.0098 138.301 19.3139 138.301 22.8918C138.301 26.4899 135.616 28.6521 131.897 28.6521C128.2 28.6521 125.573 26.4291 125.573 22.8918C125.575 19.3139 128.182 17.0098 131.938 17.0098Z" fill="#92003B"/>
<path d="M84.4024 17.4014C83.7085 17.1159 82.9234 17.0095 82.1754 17.1176C81.7939 17.1734 81.4207 17.2832 81.0747 17.4538C80.1258 17.9234 79.3846 18.9927 78.9862 19.9471C78.7261 18.8491 77.9647 17.8592 76.8538 17.4014C76.1598 17.1159 75.3748 17.0095 74.6269 17.1176C74.2453 17.1734 73.8722 17.2832 73.526 17.4538C72.5788 17.9217 71.8393 18.9876 71.4409 19.9387V19.8694L70.6423 17.4352H66.7237L67.5492 20.3694V28.3106H71.4426V21.2158C71.4561 21.1634 71.63 21.0654 71.6604 21.0417C72.1162 20.7174 72.6531 20.383 73.2238 20.3407C73.8063 20.2968 74.3804 20.5941 74.7281 21.057C74.7653 21.1076 74.8007 21.1583 74.8328 21.2123C75.1182 21.6921 75.0793 22.2445 75.0726 22.78C75.0658 23.3594 75.0759 23.9388 75.0743 24.5182C75.0726 25.7818 75.0708 27.0453 75.0708 28.309H78.9913V22.2445C78.9913 22.2141 78.9913 22.1837 78.9913 22.1532V21.2174C78.9997 21.1667 79.1787 21.0637 79.2107 21.0417C79.6666 20.7174 80.2035 20.383 80.7742 20.3407C81.3566 20.2968 81.9307 20.5941 82.2784 21.057C82.3156 21.1076 82.3511 21.1583 82.3831 21.2123C82.6685 21.6921 82.6296 22.2445 82.6246 22.78C82.6178 23.3594 82.6279 23.9388 82.6263 24.5182C82.6246 25.7818 82.6229 27.0453 82.6229 28.309H86.5416V22.2445C86.5398 20.4674 86.2849 18.1768 84.4024 17.4014Z" fill="#92003B"/>
<path d="M147.573 17.1108C145.513 17.1108 144.351 18.7072 143.835 19.9471L143.009 17.4352H139.089L139.914 20.3694V28.3106H143.835V20.9725C144.393 20.8745 147.425 21.4319 148 21.6431V17.1244C147.86 17.1159 147.718 17.1108 147.573 17.1108Z" fill="#92003B"/>
<path d="M43.7844 21.6058C43.7844 21.6058 42.5789 21.893 41.5609 22.1363L40.0109 22.4894C40.0058 22.4894 39.9991 22.4894 39.9974 22.4894C39.9974 22.0721 40.0278 21.6312 40.1274 21.2258C40.2557 20.7055 40.5377 20.0973 41.0256 19.8305C41.5574 19.5399 42.2058 19.5061 42.7697 19.7308C43.3522 19.9622 43.6189 20.5247 43.7337 21.1075C43.7658 21.2697 43.7877 21.4335 43.8029 21.5991L43.7844 21.6058ZM47.8246 22.4877C47.8246 18.4453 45.2786 16.707 42.0268 16.707C38.3495 16.707 36.0467 19.2544 36.0467 22.5079C36.0467 26.0452 38.0068 28.3494 42.2294 28.3494C44.512 28.3494 45.8053 27.9456 47.34 27.1771L46.7542 24.5283C45.5825 25.0536 44.4918 25.3763 43.0364 25.3763C41.441 25.3763 40.531 24.7698 40.1882 23.6381H47.7233C47.7841 23.3374 47.8246 22.9928 47.8246 22.4877Z" fill="#92003B"/>
<path fill-rule="evenodd" clip-rule="evenodd" d="M8 22.2014C8 28.3874 13.0127 33.4029 19.1954 33.4029C25.3782 33.4029 30.391 28.3874 30.391 22.2014C30.391 16.0154 25.3782 11 19.1954 11C13.0127 11 8 16.0154 8 22.2014ZM16.3962 17.534H14.5305V26.8688H16.3962V17.534ZM18.2618 17.534H23.8587V19.4007H18.2618V17.534ZM23.8587 21.2673H18.2618V23.1339H23.8587V21.2673ZM18.2618 25.0022H23.8587V26.8688H18.2618V25.0022Z" fill="#92003B"/>
</svg>
