<svg width="155" height="45" viewBox="0 0 155 45" fill="none" xmlns="http://www.w3.org/2000/svg">
<path d="M47.9551 26.1338C49.702 26.1338 51.1182 24.7176 51.1182 22.9707C51.1182 21.2238 49.702 19.8076 47.9551 19.8076C46.2081 19.8076 44.792 21.2238 44.792 22.9707C44.792 24.7176 46.2081 26.1338 47.9551 26.1338Z" fill="#00D8FF"/>
<path fill-rule="evenodd" clip-rule="evenodd" d="M47.9551 16.5391C52.202 16.5391 56.1473 17.1485 59.122 18.1725C62.706 19.4064 64.9097 21.2767 64.9097 22.9703C64.9097 24.7351 62.5743 26.722 58.7254 27.9973C55.8156 28.9613 51.9865 29.4646 47.9551 29.4646C43.8219 29.4646 39.9079 28.9922 36.9653 27.9867C33.2424 26.7142 31 24.7015 31 22.9703C31 21.2905 33.104 19.4346 36.6377 18.2026C39.6235 17.1616 43.6662 16.5391 47.9546 16.5391H47.9551Z" stroke="#00D8FF" stroke-width="1.66272"/>
<path fill-rule="evenodd" clip-rule="evenodd" d="M42.3566 19.7732C44.4782 16.0943 46.977 12.981 49.3502 10.9157C52.2096 8.42736 54.9307 7.45284 56.3977 8.2988C57.9266 9.18044 58.481 12.1962 57.663 16.1673C57.0451 19.1697 55.5675 22.738 53.5535 26.2303C51.4886 29.8109 49.1242 32.9655 46.7833 35.0116C43.8211 37.601 40.9573 38.5381 39.4576 37.6732C38.0024 36.8346 37.4459 34.0843 38.144 30.4076C38.7339 27.3011 40.2141 23.488 42.3559 19.7731L42.3566 19.7732Z" stroke="#00D8FF" stroke-width="1.66272"/>
<path fill-rule="evenodd" clip-rule="evenodd" d="M42.3618 26.2396C40.2342 22.5648 38.7856 18.8445 38.1809 15.757C37.4531 12.037 37.9677 9.19271 39.4334 8.34429C40.9607 7.46006 43.8504 8.48578 46.8822 11.1778C49.1745 13.2131 51.5284 16.2747 53.5482 19.7637C55.6191 23.3408 57.1712 26.9648 57.7749 30.0147C58.5389 33.8743 57.9206 36.8232 56.4223 37.6906C54.9685 38.5322 52.3082 37.6411 49.4715 35.2001C47.0747 33.1376 44.5105 29.9508 42.3618 26.2395V26.2396Z" stroke="#00D8FF" stroke-width="1.66272"/>
<path fill-rule="evenodd" clip-rule="evenodd" d="M83.0662 31.0519L79.1892 25.1945C81.1486 25.0216 82.9142 23.6019 82.9142 21.0081C82.9142 18.3688 81.0412 16.6797 78.4138 16.6797H72.6438V31.041H74.4312V25.3347H77.2953L80.9557 31.041L83.0662 31.0519ZM78.1999 23.7739H74.4321V18.2833H78.1999C79.9018 18.2833 81.064 19.4027 81.064 21.0181C81.064 22.6335 79.9009 23.7757 78.1999 23.7757V23.7739ZM89.7199 31.3094C91.4217 31.3094 92.8205 30.7497 93.8544 29.7168L93.079 28.6611C92.2599 29.5011 91.055 29.9743 89.8709 29.9743C87.6321 29.9743 86.2533 28.338 86.1241 26.3795H94.5425V25.9699C94.5425 22.8483 92.6904 20.3929 89.546 20.3929C86.5746 20.3929 84.4222 22.8265 84.4222 25.8407C84.4222 29.0925 86.6401 31.3013 89.719 31.3013L89.7199 31.3094ZM92.9507 25.1936H86.125C86.2115 23.601 87.3081 21.7262 89.5269 21.7262C91.8959 21.7262 92.9289 23.6428 92.9507 25.1936ZM105.268 31.051V23.9022C105.268 21.3831 103.439 20.392 101.242 20.392C99.5398 20.392 98.2056 20.9517 97.0862 22.1148L97.8397 23.2342C98.7653 22.244 99.7782 21.7917 101.027 21.7917C102.534 21.7917 103.654 22.588 103.654 23.9877V25.8607C102.814 24.8915 101.63 24.4391 100.209 24.4391C98.4431 24.4391 96.5683 25.5376 96.5683 27.8629C96.5683 30.1236 98.4413 31.3085 100.209 31.3085C101.608 31.3085 102.793 30.8134 103.654 29.866V31.0492L105.268 31.051ZM100.79 30.1463C99.2831 30.1463 98.2274 29.1998 98.2274 27.8857C98.2274 26.5506 99.2831 25.6032 100.79 25.6032C101.932 25.6032 103.029 26.0336 103.654 26.8955V28.8549C103.03 29.7159 101.932 30.1473 100.79 30.1473V30.1463ZM113.077 31.3094C114.971 31.3094 116.091 30.534 116.888 29.5011L115.811 28.5109C115.122 29.4365 114.24 29.8669 113.172 29.8669C110.954 29.8669 109.577 28.1441 109.577 25.8407C109.577 23.5372 110.955 21.8363 113.172 21.8363C114.249 21.8363 115.132 22.2458 115.811 23.1923L116.888 22.2021C116.092 21.1683 114.971 20.3938 113.077 20.3938C109.976 20.3938 107.887 22.7628 107.887 25.8416C107.887 28.9423 109.976 31.3022 113.077 31.3022V31.3094ZM121.777 31.3094C122.724 31.3094 123.306 31.0291 123.716 30.6423L123.242 29.4365C123.027 29.6731 122.605 29.8669 122.144 29.8669C121.434 29.8669 121.088 29.3072 121.088 28.5318V22.072H123.199V20.6513H121.088V17.8091H119.473V20.6513H117.75V22.0729H119.473V28.8777C119.473 30.4285 120.248 31.3113 121.777 31.3113V31.3094Z" fill="#00D8FF"/>
</svg>
