<svg width="551" height="550" viewBox="0 0 551 550" fill="none" xmlns="http://www.w3.org/2000/svg">
<path d="M290.762 88.4085C285.961 84.6799 279.196 83.9974 273.605 87.2221C268.442 90.2004 265.666 95.714 265.919 101.284C261.471 98.23 255.498 97.787 250.515 100.661C248.485 101.832 246.857 103.43 245.657 105.263C238.311 99.7751 228.114 98.842 219.667 103.714C216.792 105.373 214.4 107.549 212.534 110.053C202.44 95.1512 182.419 90.3419 166.582 99.4763C150.145 108.957 144.437 129.867 153.666 146.38C146.559 144.294 138.65 144.983 131.726 148.977C121.543 154.85 116.444 166.134 117.935 177.102C113.808 176.33 109.398 176.955 105.475 179.217C98.0443 183.503 94.7956 192.228 97.1005 200.111C97.5013 201.48 98.0497 202.824 98.794 204.115C100.441 206.969 102.748 209.196 105.405 210.742L130.021 196.543L132.799 194.941L173.752 171.319L186.426 164.01L212.508 148.965L219.811 144.753L251.757 126.327L255.119 124.388L272.108 114.589L273.444 113.818L296.706 100.401C296.68 97.8398 296.025 95.2488 294.654 92.8717C293.626 91.0895 292.291 89.598 290.762 88.4085Z" fill="#FFF8D3"/>
<path fill-rule="evenodd" clip-rule="evenodd" d="M426.804 55.4791C412.488 44.4582 392.931 44.5762 377.246 53.5421L49.8017 240.713C34.1345 249.669 24.1091 266.445 26.2995 284.358C41.4148 407.966 146.747 503.698 274.438 503.698C412.509 503.698 524.438 391.77 524.438 253.698C524.438 172.975 486.179 101.187 426.804 55.4791Z" fill="#0693E3"/>
<circle cx="50" cy="391" r="50" fill="#FB6A1F"/>
<path d="M19.3946 373.322V381H17.8546V376.006L15.7976 381H14.6316L12.5636 376.006V381H11.0236V373.322H12.7726L15.2146 379.031L17.6566 373.322H19.3946ZM25.6252 379.537H22.5672L22.0612 381H20.4442L23.2052 373.311H24.9982L27.7592 381H26.1312L25.6252 379.537ZM25.2072 378.305L24.0962 375.093L22.9852 378.305H25.2072ZM30.3312 373.322V381H28.7912V373.322H30.3312ZM38.4198 381H36.8798L33.3928 375.731V381H31.8528V373.311H33.3928L36.8798 378.591V373.311H38.4198V381ZM45.1666 373.322V374.565H43.1206V381H41.5806V374.565H39.5346V373.322H45.1666ZM47.8303 374.565V376.49H50.4153V377.711H47.8303V379.746H50.7453V381H46.2903V373.311H50.7453V374.565H47.8303ZM58.7117 381H57.1717L53.6847 375.731V381H52.1447V373.311H53.6847L57.1717 378.591V373.311H58.7117V381ZM64.9416 379.537H61.8836L61.3776 381H59.7606L62.5216 373.311H64.3146L67.0756 381H65.4476L64.9416 379.537ZM64.5236 378.305L63.4126 375.093L62.3016 378.305H64.5236ZM74.6746 381H73.1346L69.6476 375.731V381H68.1076V373.311H69.6476L73.1346 378.591V373.311H74.6746V381ZM75.8225 377.15C75.8225 376.395 75.9912 375.72 76.3285 375.126C76.6732 374.525 77.1388 374.059 77.7255 373.729C78.3195 373.392 78.9832 373.223 79.7165 373.223C80.5745 373.223 81.3262 373.443 81.9715 373.883C82.6168 374.323 83.0678 374.932 83.3245 375.709H81.5535C81.3775 375.342 81.1282 375.067 80.8055 374.884C80.4902 374.701 80.1235 374.609 79.7055 374.609C79.2582 374.609 78.8585 374.715 78.5065 374.928C78.1618 375.133 77.8905 375.427 77.6925 375.808C77.5018 376.189 77.4065 376.637 77.4065 377.15C77.4065 377.656 77.5018 378.103 77.6925 378.492C77.8905 378.873 78.1618 379.17 78.5065 379.383C78.8585 379.588 79.2582 379.691 79.7055 379.691C80.1235 379.691 80.4902 379.599 80.8055 379.416C81.1282 379.225 81.3775 378.947 81.5535 378.58H83.3245C83.0678 379.365 82.6168 379.977 81.9715 380.417C81.3335 380.85 80.5818 381.066 79.7165 381.066C78.9832 381.066 78.3195 380.901 77.7255 380.571C77.1388 380.234 76.6732 379.768 76.3285 379.174C75.9912 378.58 75.8225 377.905 75.8225 377.15ZM86.1799 374.565V376.49H88.7649V377.711H86.1799V379.746H89.0949V381H84.6399V373.311H89.0949V374.565H86.1799ZM52.3852 395L51.5492 394.175C50.8379 394.813 49.9689 395.132 48.9422 395.132C48.3776 395.132 47.8789 395.037 47.4462 394.846C47.0209 394.648 46.6909 394.373 46.4562 394.021C46.2216 393.662 46.1042 393.247 46.1042 392.778C46.1042 392.272 46.2472 391.817 46.5332 391.414C46.8192 391.011 47.2409 390.684 47.7982 390.435C47.6002 390.193 47.4572 389.962 47.3692 389.742C47.2812 389.515 47.2372 389.273 47.2372 389.016C47.2372 388.664 47.3289 388.349 47.5122 388.07C47.6956 387.784 47.9559 387.56 48.2932 387.399C48.6379 387.238 49.0376 387.157 49.4922 387.157C49.9542 387.157 50.3502 387.245 50.6802 387.421C51.0102 387.597 51.2559 387.832 51.4172 388.125C51.5786 388.418 51.6482 388.745 51.6262 389.104H50.1302C50.1376 388.862 50.0789 388.679 49.9542 388.554C49.8296 388.422 49.6609 388.356 49.4482 388.356C49.2429 388.356 49.0706 388.418 48.9312 388.543C48.7992 388.66 48.7332 388.814 48.7332 389.005C48.7332 389.188 48.7882 389.372 48.8982 389.555C49.0082 389.731 49.1879 389.951 49.4372 390.215L51.3732 392.129C51.3879 392.114 51.3989 392.1 51.4062 392.085C51.4136 392.07 51.4209 392.056 51.4282 392.041L52.0552 390.996H53.6612L52.8912 392.349C52.7446 392.635 52.5869 392.906 52.4182 393.163L54.2772 395H52.3852ZM48.9862 393.856C49.5876 393.856 50.1192 393.643 50.5812 393.218L48.6892 391.348C47.9779 391.663 47.6222 392.111 47.6222 392.69C47.6222 393.02 47.7469 393.299 47.9962 393.526C48.2456 393.746 48.5756 393.856 48.9862 393.856ZM31.0179 409.077C30.4826 409.077 29.9986 408.985 29.5659 408.802C29.1406 408.619 28.8032 408.355 28.5539 408.01C28.3046 407.665 28.1762 407.258 28.1689 406.789H29.8189C29.8409 407.104 29.9509 407.354 30.1489 407.537C30.3542 407.72 30.6329 407.812 30.9849 407.812C31.3442 407.812 31.6266 407.728 31.8319 407.559C32.0372 407.383 32.1399 407.156 32.1399 406.877C32.1399 406.65 32.0702 406.463 31.9309 406.316C31.7916 406.169 31.6156 406.056 31.4029 405.975C31.1976 405.887 30.9116 405.792 30.5449 405.689C30.0462 405.542 29.6392 405.399 29.3239 405.26C29.0159 405.113 28.7482 404.897 28.5209 404.611C28.3009 404.318 28.1909 403.929 28.1909 403.445C28.1909 402.99 28.3046 402.594 28.5319 402.257C28.7592 401.92 29.0782 401.663 29.4889 401.487C29.8996 401.304 30.3689 401.212 30.8969 401.212C31.6889 401.212 32.3306 401.406 32.8219 401.795C33.3206 402.176 33.5956 402.712 33.6469 403.401H31.9529C31.9382 403.137 31.8246 402.921 31.6119 402.752C31.4066 402.576 31.1316 402.488 30.7869 402.488C30.4862 402.488 30.2442 402.565 30.0609 402.719C29.8849 402.873 29.7969 403.097 29.7969 403.39C29.7969 403.595 29.8629 403.768 29.9949 403.907C30.1342 404.039 30.3029 404.149 30.5009 404.237C30.7062 404.318 30.9922 404.413 31.3589 404.523C31.8576 404.67 32.2646 404.816 32.5799 404.963C32.8952 405.11 33.1666 405.33 33.3939 405.623C33.6212 405.916 33.7349 406.301 33.7349 406.778C33.7349 407.189 33.6286 407.57 33.4159 407.922C33.2032 408.274 32.8916 408.556 32.4809 408.769C32.0702 408.974 31.5826 409.077 31.0179 409.077ZM36.61 402.565V404.49H39.195V405.711H36.61V407.746H39.525V409H35.07V401.311H39.525V402.565H36.61ZM44.8845 409L43.1905 406.008H42.4645V409H40.9245V401.322H43.8065C44.4005 401.322 44.9065 401.428 45.3245 401.641C45.7425 401.846 46.0542 402.129 46.2595 402.488C46.4722 402.84 46.5785 403.236 46.5785 403.676C46.5785 404.182 46.4319 404.64 46.1385 405.051C45.8452 405.454 45.4089 405.733 44.8295 405.887L46.6665 409H44.8845ZM42.4645 404.853H43.7515C44.1695 404.853 44.4812 404.754 44.6865 404.556C44.8919 404.351 44.9945 404.068 44.9945 403.709C44.9945 403.357 44.8919 403.086 44.6865 402.895C44.4812 402.697 44.1695 402.598 43.7515 402.598H42.4645V404.853ZM54.8684 401.322L52.0524 409H50.1824L47.3664 401.322H49.0164L51.1284 407.427L53.2294 401.322H54.8684ZM57.3317 401.322V409H55.7917V401.322H57.3317ZM58.4792 405.15C58.4792 404.395 58.6479 403.72 58.9852 403.126C59.3299 402.525 59.7956 402.059 60.3822 401.729C60.9762 401.392 61.6399 401.223 62.3732 401.223C63.2312 401.223 63.9829 401.443 64.6282 401.883C65.2736 402.323 65.7246 402.932 65.9812 403.709H64.2102C64.0342 403.342 63.7849 403.067 63.4622 402.884C63.1469 402.701 62.7802 402.609 62.3622 402.609C61.9149 402.609 61.5152 402.715 61.1632 402.928C60.8186 403.133 60.5472 403.427 60.3492 403.808C60.1586 404.189 60.0632 404.637 60.0632 405.15C60.0632 405.656 60.1586 406.103 60.3492 406.492C60.5472 406.873 60.8186 407.17 61.1632 407.383C61.5152 407.588 61.9149 407.691 62.3622 407.691C62.7802 407.691 63.1469 407.599 63.4622 407.416C63.7849 407.225 64.0342 406.947 64.2102 406.58H65.9812C65.7246 407.365 65.2736 407.977 64.6282 408.417C63.9902 408.85 63.2386 409.066 62.3732 409.066C61.6399 409.066 60.9762 408.901 60.3822 408.571C59.7956 408.234 59.3299 407.768 58.9852 407.174C58.6479 406.58 58.4792 405.905 58.4792 405.15ZM68.8366 402.565V404.49H71.4216V405.711H68.8366V407.746H71.7516V409H67.2966V401.311H71.7516V402.565H68.8366Z" fill="white"/>
<circle cx="200" cy="500" r="50" fill="#FDE555"/>
<path d="M187.255 489.322V490.565H185.209V497H183.669V490.565H181.623V489.322H187.255ZM194.748 489.322V497H193.208V493.733H189.919V497H188.379V489.322H189.919V492.479H193.208V489.322H194.748ZM197.804 490.565V492.49H200.389V493.711H197.804V495.746H200.719V497H196.264V489.311H200.719V490.565H197.804ZM210.489 489.322V497H208.949V492.006L206.892 497H205.726L203.658 492.006V497H202.118V489.322H203.867L206.309 495.031L208.751 489.322H210.489ZM213.552 490.565V492.49H216.137V493.711H213.552V495.746H216.467V497H212.012V489.311H216.467V490.565H213.552ZM166.372 503.322V511H164.832V503.322H166.372ZM174.461 511H172.921L169.434 505.731V511H167.894V503.311H169.434L172.921 508.591V503.311H174.461V511ZM181.208 503.322V504.565H179.162V511H177.622V504.565H175.576V503.322H181.208ZM183.871 504.565V506.49H186.456V507.711H183.871V509.746H186.786V511H182.331V503.311H186.786V504.565H183.871ZM193.532 505.632C193.356 505.309 193.114 505.064 192.806 504.895C192.498 504.726 192.138 504.642 191.728 504.642C191.273 504.642 190.87 504.745 190.518 504.95C190.166 505.155 189.891 505.449 189.693 505.83C189.495 506.211 189.396 506.651 189.396 507.15C189.396 507.663 189.495 508.111 189.693 508.492C189.898 508.873 190.18 509.167 190.54 509.372C190.899 509.577 191.317 509.68 191.794 509.68C192.38 509.68 192.861 509.526 193.235 509.218C193.609 508.903 193.854 508.466 193.972 507.909H191.332V506.732H195.49V508.074C195.387 508.609 195.167 509.104 194.83 509.559C194.492 510.014 194.056 510.38 193.521 510.659C192.993 510.93 192.399 511.066 191.739 511.066C190.998 511.066 190.327 510.901 189.726 510.571C189.132 510.234 188.662 509.768 188.318 509.174C187.98 508.58 187.812 507.905 187.812 507.15C187.812 506.395 187.98 505.72 188.318 505.126C188.662 504.525 189.132 504.059 189.726 503.729C190.327 503.392 190.994 503.223 191.728 503.223C192.593 503.223 193.345 503.436 193.983 503.861C194.621 504.279 195.061 504.869 195.303 505.632H193.532ZM200.589 511L198.895 508.008H198.169V511H196.629V503.322H199.511C200.105 503.322 200.611 503.428 201.029 503.641C201.447 503.846 201.759 504.129 201.964 504.488C202.177 504.84 202.283 505.236 202.283 505.676C202.283 506.182 202.136 506.64 201.843 507.051C201.55 507.454 201.113 507.733 200.534 507.887L202.371 511H200.589ZM198.169 506.853H199.456C199.874 506.853 200.186 506.754 200.391 506.556C200.596 506.351 200.699 506.068 200.699 505.709C200.699 505.357 200.596 505.086 200.391 504.895C200.186 504.697 199.874 504.598 199.456 504.598H198.169V506.853ZM208.384 509.537H205.326L204.82 511H203.203L205.964 503.311H207.757L210.518 511H208.89L208.384 509.537ZM207.966 508.305L206.855 505.093L205.744 508.305H207.966ZM216.775 503.322V504.565H214.729V511H213.189V504.565H211.143V503.322H216.775ZM219.439 503.322V511H217.899V503.322H219.439ZM224.524 511.077C223.806 511.077 223.146 510.908 222.544 510.571C221.943 510.234 221.466 509.768 221.114 509.174C220.762 508.573 220.586 507.894 220.586 507.139C220.586 506.391 220.762 505.72 221.114 505.126C221.466 504.525 221.943 504.055 222.544 503.718C223.146 503.381 223.806 503.212 224.524 503.212C225.25 503.212 225.91 503.381 226.504 503.718C227.106 504.055 227.579 504.525 227.923 505.126C228.275 505.72 228.451 506.391 228.451 507.139C228.451 507.894 228.275 508.573 227.923 509.174C227.579 509.768 227.106 510.234 226.504 510.571C225.903 510.908 225.243 511.077 224.524 511.077ZM224.524 509.702C224.986 509.702 225.393 509.599 225.745 509.394C226.097 509.181 226.372 508.881 226.57 508.492C226.768 508.103 226.867 507.652 226.867 507.139C226.867 506.626 226.768 506.178 226.57 505.797C226.372 505.408 226.097 505.111 225.745 504.906C225.393 504.701 224.986 504.598 224.524 504.598C224.062 504.598 223.652 504.701 223.292 504.906C222.94 505.111 222.665 505.408 222.467 505.797C222.269 506.178 222.17 506.626 222.17 507.139C222.17 507.652 222.269 508.103 222.467 508.492C222.665 508.881 222.94 509.181 223.292 509.394C223.652 509.599 224.062 509.702 224.524 509.702ZM236.164 511H234.624L231.137 505.731V511H229.597V503.311H231.137L234.624 508.591V503.311H236.164V511Z" fill="white"/>
<circle cx="383" cy="477" r="50" fill="#29A764"/>
<path d="M353.545 469.5C353.545 468.813 353.699 468.2 354.005 467.66C354.319 467.113 354.742 466.69 355.275 466.39C355.815 466.083 356.419 465.93 357.085 465.93C357.865 465.93 358.549 466.13 359.135 466.53C359.722 466.93 360.132 467.483 360.365 468.19H358.755C358.595 467.857 358.369 467.607 358.075 467.44C357.789 467.273 357.455 467.19 357.075 467.19C356.669 467.19 356.305 467.287 355.985 467.48C355.672 467.667 355.425 467.933 355.245 468.28C355.072 468.627 354.985 469.033 354.985 469.5C354.985 469.96 355.072 470.367 355.245 470.72C355.425 471.067 355.672 471.337 355.985 471.53C356.305 471.717 356.669 471.81 357.075 471.81C357.455 471.81 357.789 471.727 358.075 471.56C358.369 471.387 358.595 471.133 358.755 470.8H360.365C360.132 471.513 359.722 472.07 359.135 472.47C358.555 472.863 357.872 473.06 357.085 473.06C356.419 473.06 355.815 472.91 355.275 472.61C354.742 472.303 354.319 471.88 354.005 471.34C353.699 470.8 353.545 470.187 353.545 469.5ZM362.941 466.02V470.34C362.941 470.813 363.064 471.177 363.311 471.43C363.558 471.677 363.904 471.8 364.351 471.8C364.804 471.8 365.154 471.677 365.401 471.43C365.648 471.177 365.771 470.813 365.771 470.34V466.02H367.181V470.33C367.181 470.923 367.051 471.427 366.791 471.84C366.538 472.247 366.194 472.553 365.761 472.76C365.334 472.967 364.858 473.07 364.331 473.07C363.811 473.07 363.338 472.967 362.911 472.76C362.491 472.553 362.158 472.247 361.911 471.84C361.664 471.427 361.541 470.923 361.541 470.33V466.02H362.941ZM370.944 473.07C370.457 473.07 370.017 472.987 369.624 472.82C369.237 472.653 368.93 472.413 368.704 472.1C368.477 471.787 368.36 471.417 368.354 470.99H369.854C369.874 471.277 369.974 471.503 370.154 471.67C370.34 471.837 370.594 471.92 370.914 471.92C371.24 471.92 371.497 471.843 371.684 471.69C371.87 471.53 371.964 471.323 371.964 471.07C371.964 470.863 371.9 470.693 371.774 470.56C371.647 470.427 371.487 470.323 371.294 470.25C371.107 470.17 370.847 470.083 370.514 469.99C370.06 469.857 369.69 469.727 369.404 469.6C369.124 469.467 368.88 469.27 368.674 469.01C368.474 468.743 368.374 468.39 368.374 467.95C368.374 467.537 368.477 467.177 368.684 466.87C368.89 466.563 369.18 466.33 369.554 466.17C369.927 466.003 370.354 465.92 370.834 465.92C371.554 465.92 372.137 466.097 372.584 466.45C373.037 466.797 373.287 467.283 373.334 467.91H371.794C371.78 467.67 371.677 467.473 371.484 467.32C371.297 467.16 371.047 467.08 370.734 467.08C370.46 467.08 370.24 467.15 370.074 467.29C369.914 467.43 369.834 467.633 369.834 467.9C369.834 468.087 369.894 468.243 370.014 468.37C370.14 468.49 370.294 468.59 370.474 468.67C370.66 468.743 370.92 468.83 371.254 468.93C371.707 469.063 372.077 469.197 372.364 469.33C372.65 469.463 372.897 469.663 373.104 469.93C373.31 470.197 373.414 470.547 373.414 470.98C373.414 471.353 373.317 471.7 373.124 472.02C372.93 472.34 372.647 472.597 372.274 472.79C371.9 472.977 371.457 473.07 370.944 473.07ZM379.378 466.02V467.15H377.518V473H376.118V467.15H374.258V466.02H379.378ZM383.639 473.07C382.986 473.07 382.386 472.917 381.839 472.61C381.292 472.303 380.859 471.88 380.539 471.34C380.219 470.793 380.059 470.177 380.059 469.49C380.059 468.81 380.219 468.2 380.539 467.66C380.859 467.113 381.292 466.687 381.839 466.38C382.386 466.073 382.986 465.92 383.639 465.92C384.299 465.92 384.899 466.073 385.439 466.38C385.986 466.687 386.416 467.113 386.729 467.66C387.049 468.2 387.209 468.81 387.209 469.49C387.209 470.177 387.049 470.793 386.729 471.34C386.416 471.88 385.986 472.303 385.439 472.61C384.892 472.917 384.292 473.07 383.639 473.07ZM383.639 471.82C384.059 471.82 384.429 471.727 384.749 471.54C385.069 471.347 385.319 471.073 385.499 470.72C385.679 470.367 385.769 469.957 385.769 469.49C385.769 469.023 385.679 468.617 385.499 468.27C385.319 467.917 385.069 467.647 384.749 467.46C384.429 467.273 384.059 467.18 383.639 467.18C383.219 467.18 382.846 467.273 382.519 467.46C382.199 467.647 381.949 467.917 381.769 468.27C381.589 468.617 381.499 469.023 381.499 469.49C381.499 469.957 381.589 470.367 381.769 470.72C381.949 471.073 382.199 471.347 382.519 471.54C382.846 471.727 383.219 471.82 383.639 471.82ZM395.861 466.02V473H394.461V468.46L392.591 473H391.531L389.651 468.46V473H388.251V466.02H389.841L392.061 471.21L394.281 466.02H395.861ZM398.645 466.02V473H397.245V466.02H398.645ZM401.458 471.82H404.598V473H399.838V471.92L402.958 467.2H399.838V466.02H404.598V467.1L401.458 471.82ZM407.19 467.15V468.9H409.54V470.01H407.19V471.86H409.84V473H405.79V466.01H409.84V467.15H407.19ZM374.379 484.42C374.772 484.493 375.095 484.69 375.349 485.01C375.602 485.33 375.729 485.697 375.729 486.11C375.729 486.483 375.635 486.813 375.449 487.1C375.269 487.38 375.005 487.6 374.659 487.76C374.312 487.92 373.902 488 373.429 488H370.419V481.02H373.299C373.772 481.02 374.179 481.097 374.519 481.25C374.865 481.403 375.125 481.617 375.299 481.89C375.479 482.163 375.569 482.473 375.569 482.82C375.569 483.227 375.459 483.567 375.239 483.84C375.025 484.113 374.739 484.307 374.379 484.42ZM371.819 483.9H373.099C373.432 483.9 373.689 483.827 373.869 483.68C374.049 483.527 374.139 483.31 374.139 483.03C374.139 482.75 374.049 482.533 373.869 482.38C373.689 482.227 373.432 482.15 373.099 482.15H371.819V483.9ZM373.229 486.86C373.569 486.86 373.832 486.78 374.019 486.62C374.212 486.46 374.309 486.233 374.309 485.94C374.309 485.64 374.209 485.407 374.009 485.24C373.809 485.067 373.539 484.98 373.199 484.98H371.819V486.86H373.229ZM378.244 486.89H380.544V488H376.844V481.02H378.244V486.89ZM384.674 488.07C384.021 488.07 383.421 487.917 382.874 487.61C382.327 487.303 381.894 486.88 381.574 486.34C381.254 485.793 381.094 485.177 381.094 484.49C381.094 483.81 381.254 483.2 381.574 482.66C381.894 482.113 382.327 481.687 382.874 481.38C383.421 481.073 384.021 480.92 384.674 480.92C385.334 480.92 385.934 481.073 386.474 481.38C387.021 481.687 387.451 482.113 387.764 482.66C388.084 483.2 388.244 483.81 388.244 484.49C388.244 485.177 388.084 485.793 387.764 486.34C387.451 486.88 387.021 487.303 386.474 487.61C385.927 487.917 385.327 488.07 384.674 488.07ZM384.674 486.82C385.094 486.82 385.464 486.727 385.784 486.54C386.104 486.347 386.354 486.073 386.534 485.72C386.714 485.367 386.804 484.957 386.804 484.49C386.804 484.023 386.714 483.617 386.534 483.27C386.354 482.917 386.104 482.647 385.784 482.46C385.464 482.273 385.094 482.18 384.674 482.18C384.254 482.18 383.881 482.273 383.554 482.46C383.234 482.647 382.984 482.917 382.804 483.27C382.624 483.617 382.534 484.023 382.534 484.49C382.534 484.957 382.624 485.367 382.804 485.72C382.984 486.073 383.234 486.347 383.554 486.54C383.881 486.727 384.254 486.82 384.674 486.82ZM394.146 483.12C393.986 482.827 393.766 482.603 393.486 482.45C393.206 482.297 392.879 482.22 392.506 482.22C392.092 482.22 391.726 482.313 391.406 482.5C391.086 482.687 390.836 482.953 390.656 483.3C390.476 483.647 390.386 484.047 390.386 484.5C390.386 484.967 390.476 485.373 390.656 485.72C390.842 486.067 391.099 486.333 391.426 486.52C391.752 486.707 392.132 486.8 392.566 486.8C393.099 486.8 393.536 486.66 393.876 486.38C394.216 486.093 394.439 485.697 394.546 485.19H392.146V484.12H395.926V485.34C395.832 485.827 395.632 486.277 395.326 486.69C395.019 487.103 394.622 487.437 394.136 487.69C393.656 487.937 393.116 488.06 392.516 488.06C391.842 488.06 391.232 487.91 390.686 487.61C390.146 487.303 389.719 486.88 389.406 486.34C389.099 485.8 388.946 485.187 388.946 484.5C388.946 483.813 389.099 483.2 389.406 482.66C389.719 482.113 390.146 481.69 390.686 481.39C391.232 481.083 391.839 480.93 392.506 480.93C393.292 480.93 393.976 481.123 394.556 481.51C395.136 481.89 395.536 482.427 395.756 483.12H394.146Z" fill="white"/>
<circle cx="501" cy="341" r="50" fill="#7762DE"/>
<path d="M469.208 330.02V337H467.808V330.02H469.208ZM478.201 330.02V337H476.801V332.46L474.931 337H473.871L471.991 332.46V337H470.591V330.02H472.181L474.401 335.21L476.621 330.02H478.201ZM484.676 332.18C484.676 332.553 484.586 332.903 484.406 333.23C484.232 333.557 483.956 333.82 483.576 334.02C483.202 334.22 482.729 334.32 482.156 334.32H480.986V337H479.586V330.02H482.156C482.696 330.02 483.156 330.113 483.536 330.3C483.916 330.487 484.199 330.743 484.386 331.07C484.579 331.397 484.676 331.767 484.676 332.18ZM482.096 333.19C482.482 333.19 482.769 333.103 482.956 332.93C483.142 332.75 483.236 332.5 483.236 332.18C483.236 331.5 482.856 331.16 482.096 331.16H480.986V333.19H482.096ZM487.069 335.89H489.369V337H485.669V330.02H487.069V335.89ZM491.659 331.15V332.9H494.009V334.01H491.659V335.86H494.309V337H490.259V330.01H494.309V331.15H491.659ZM503.192 330.02V337H501.792V332.46L499.922 337H498.862L496.982 332.46V337H495.582V330.02H497.172L499.392 335.21L501.612 330.02H503.192ZM505.976 331.15V332.9H508.326V334.01H505.976V335.86H508.626V337H504.576V330.01H508.626V331.15H505.976ZM515.868 337H514.468L511.298 332.21V337H509.898V330.01H511.298L514.468 334.81V330.01H515.868V337ZM522.002 330.02V331.15H520.142V337H518.742V331.15H516.882V330.02H522.002ZM530.776 337L530.016 336.25C529.369 336.83 528.579 337.12 527.646 337.12C527.132 337.12 526.679 337.033 526.286 336.86C525.899 336.68 525.599 336.43 525.386 336.11C525.172 335.783 525.066 335.407 525.066 334.98C525.066 334.52 525.196 334.107 525.456 333.74C525.716 333.373 526.099 333.077 526.606 332.85C526.426 332.63 526.296 332.42 526.216 332.22C526.136 332.013 526.096 331.793 526.096 331.56C526.096 331.24 526.179 330.953 526.346 330.7C526.512 330.44 526.749 330.237 527.056 330.09C527.369 329.943 527.732 329.87 528.146 329.87C528.566 329.87 528.926 329.95 529.226 330.11C529.526 330.27 529.749 330.483 529.896 330.75C530.042 331.017 530.106 331.313 530.086 331.64H528.726C528.732 331.42 528.679 331.253 528.566 331.14C528.452 331.02 528.299 330.96 528.106 330.96C527.919 330.96 527.762 331.017 527.636 331.13C527.516 331.237 527.456 331.377 527.456 331.55C527.456 331.717 527.506 331.883 527.606 332.05C527.706 332.21 527.869 332.41 528.096 332.65L529.856 334.39C529.869 334.377 529.879 334.363 529.886 334.35C529.892 334.337 529.899 334.323 529.906 334.31L530.476 333.36H531.936L531.236 334.59C531.102 334.85 530.959 335.097 530.806 335.33L532.496 337H530.776ZM527.686 335.96C528.232 335.96 528.716 335.767 529.136 335.38L527.416 333.68C526.769 333.967 526.446 334.373 526.446 334.9C526.446 335.2 526.559 335.453 526.786 335.66C527.012 335.86 527.312 335.96 527.686 335.96ZM488.978 352.07C488.491 352.07 488.051 351.987 487.658 351.82C487.271 351.653 486.965 351.413 486.738 351.1C486.511 350.787 486.395 350.417 486.388 349.99H487.888C487.908 350.277 488.008 350.503 488.188 350.67C488.375 350.837 488.628 350.92 488.948 350.92C489.275 350.92 489.531 350.843 489.718 350.69C489.905 350.53 489.998 350.323 489.998 350.07C489.998 349.863 489.935 349.693 489.808 349.56C489.681 349.427 489.521 349.323 489.328 349.25C489.141 349.17 488.881 349.083 488.548 348.99C488.095 348.857 487.725 348.727 487.438 348.6C487.158 348.467 486.915 348.27 486.708 348.01C486.508 347.743 486.408 347.39 486.408 346.95C486.408 346.537 486.511 346.177 486.718 345.87C486.925 345.563 487.215 345.33 487.588 345.17C487.961 345.003 488.388 344.92 488.868 344.92C489.588 344.92 490.171 345.097 490.618 345.45C491.071 345.797 491.321 346.283 491.368 346.91H489.828C489.815 346.67 489.711 346.473 489.518 346.32C489.331 346.16 489.081 346.08 488.768 346.08C488.495 346.08 488.275 346.15 488.108 346.29C487.948 346.43 487.868 346.633 487.868 346.9C487.868 347.087 487.928 347.243 488.048 347.37C488.175 347.49 488.328 347.59 488.508 347.67C488.695 347.743 488.955 347.83 489.288 347.93C489.741 348.063 490.111 348.197 490.398 348.33C490.685 348.463 490.931 348.663 491.138 348.93C491.345 349.197 491.448 349.547 491.448 349.98C491.448 350.353 491.351 350.7 491.158 351.02C490.965 351.34 490.681 351.597 490.308 351.79C489.935 351.977 489.491 352.07 488.978 352.07ZM494.062 346.15V347.9H496.412V349.01H494.062V350.86H496.712V352H492.662V345.01H496.712V346.15H494.062ZM502.734 345.02V346.15H500.874V352H499.474V346.15H497.614V345.02H502.734ZM505.135 345.02V349.34C505.135 349.813 505.259 350.177 505.505 350.43C505.752 350.677 506.099 350.8 506.545 350.8C506.999 350.8 507.349 350.677 507.595 350.43C507.842 350.177 507.965 349.813 507.965 349.34V345.02H509.375V349.33C509.375 349.923 509.245 350.427 508.985 350.84C508.732 351.247 508.389 351.553 507.955 351.76C507.529 351.967 507.052 352.07 506.525 352.07C506.005 352.07 505.532 351.967 505.105 351.76C504.685 351.553 504.352 351.247 504.105 350.84C503.859 350.427 503.735 349.923 503.735 349.33V345.02H505.135ZM515.818 347.18C515.818 347.553 515.728 347.903 515.548 348.23C515.375 348.557 515.098 348.82 514.718 349.02C514.345 349.22 513.871 349.32 513.298 349.32H512.128V352H510.728V345.02H513.298C513.838 345.02 514.298 345.113 514.678 345.3C515.058 345.487 515.341 345.743 515.528 346.07C515.721 346.397 515.818 346.767 515.818 347.18ZM513.238 348.19C513.625 348.19 513.911 348.103 514.098 347.93C514.285 347.75 514.378 347.5 514.378 347.18C514.378 346.5 513.998 346.16 513.238 346.16H512.128V348.19H513.238Z" fill="white"/>
<circle cx="500" cy="143" r="50" fill="#93D222"/>
<path d="M482.614 125.322C483.421 125.322 484.129 125.48 484.737 125.795C485.353 126.11 485.826 126.561 486.156 127.148C486.494 127.727 486.662 128.402 486.662 129.172C486.662 129.942 486.494 130.617 486.156 131.196C485.826 131.768 485.353 132.212 484.737 132.527C484.129 132.842 483.421 133 482.614 133H479.93V125.322H482.614ZM482.559 131.691C483.366 131.691 483.989 131.471 484.429 131.031C484.869 130.591 485.089 129.971 485.089 129.172C485.089 128.373 484.869 127.749 484.429 127.302C483.989 126.847 483.366 126.62 482.559 126.62H481.47V131.691H482.559ZM489.355 126.565V128.49H491.94V129.711H489.355V131.746H492.27V133H487.815V125.311H492.27V126.565H489.355ZM496.321 133.077C495.785 133.077 495.301 132.985 494.869 132.802C494.443 132.619 494.106 132.355 493.857 132.01C493.607 131.665 493.479 131.258 493.472 130.789H495.122C495.144 131.104 495.254 131.354 495.452 131.537C495.657 131.72 495.936 131.812 496.288 131.812C496.647 131.812 496.929 131.728 497.135 131.559C497.34 131.383 497.443 131.156 497.443 130.877C497.443 130.65 497.373 130.463 497.234 130.316C497.094 130.169 496.918 130.056 496.706 129.975C496.5 129.887 496.214 129.792 495.848 129.689C495.349 129.542 494.942 129.399 494.627 129.26C494.319 129.113 494.051 128.897 493.824 128.611C493.604 128.318 493.494 127.929 493.494 127.445C493.494 126.99 493.607 126.594 493.835 126.257C494.062 125.92 494.381 125.663 494.792 125.487C495.202 125.304 495.672 125.212 496.2 125.212C496.992 125.212 497.633 125.406 498.125 125.795C498.623 126.176 498.898 126.712 498.95 127.401H497.256C497.241 127.137 497.127 126.921 496.915 126.752C496.709 126.576 496.434 126.488 496.09 126.488C495.789 126.488 495.547 126.565 495.364 126.719C495.188 126.873 495.1 127.097 495.1 127.39C495.1 127.595 495.166 127.768 495.298 127.907C495.437 128.039 495.606 128.149 495.804 128.237C496.009 128.318 496.295 128.413 496.662 128.523C497.16 128.67 497.567 128.816 497.883 128.963C498.198 129.11 498.469 129.33 498.697 129.623C498.924 129.916 499.038 130.301 499.038 130.778C499.038 131.189 498.931 131.57 498.719 131.922C498.506 132.274 498.194 132.556 497.784 132.769C497.373 132.974 496.885 133.077 496.321 133.077ZM501.913 125.322V133H500.373V125.322H501.913ZM508.78 127.632C508.604 127.309 508.362 127.064 508.054 126.895C507.746 126.726 507.387 126.642 506.976 126.642C506.522 126.642 506.118 126.745 505.766 126.95C505.414 127.155 505.139 127.449 504.941 127.83C504.743 128.211 504.644 128.651 504.644 129.15C504.644 129.663 504.743 130.111 504.941 130.492C505.147 130.873 505.429 131.167 505.788 131.372C506.148 131.577 506.566 131.68 507.042 131.68C507.629 131.68 508.109 131.526 508.483 131.218C508.857 130.903 509.103 130.466 509.22 129.909H506.58V128.732H510.738V130.074C510.636 130.609 510.416 131.104 510.078 131.559C509.741 132.014 509.305 132.38 508.769 132.659C508.241 132.93 507.647 133.066 506.987 133.066C506.247 133.066 505.576 132.901 504.974 132.571C504.38 132.234 503.911 131.768 503.566 131.174C503.229 130.58 503.06 129.905 503.06 129.15C503.06 128.395 503.229 127.72 503.566 127.126C503.911 126.525 504.38 126.059 504.974 125.729C505.576 125.392 506.243 125.223 506.976 125.223C507.842 125.223 508.593 125.436 509.231 125.861C509.869 126.279 510.309 126.869 510.551 127.632H508.78ZM518.445 133H516.905L513.418 127.731V133H511.878V125.311H513.418L516.905 130.591V125.311H518.445V133ZM475.727 143.15C475.727 142.395 475.895 141.72 476.233 141.126C476.577 140.525 477.043 140.059 477.63 139.729C478.224 139.392 478.887 139.223 479.621 139.223C480.479 139.223 481.23 139.443 481.876 139.883C482.521 140.323 482.972 140.932 483.229 141.709H481.458C481.282 141.342 481.032 141.067 480.71 140.884C480.394 140.701 480.028 140.609 479.61 140.609C479.162 140.609 478.763 140.715 478.411 140.928C478.066 141.133 477.795 141.427 477.597 141.808C477.406 142.189 477.311 142.637 477.311 143.15C477.311 143.656 477.406 144.103 477.597 144.492C477.795 144.873 478.066 145.17 478.411 145.383C478.763 145.588 479.162 145.691 479.61 145.691C480.028 145.691 480.394 145.599 480.71 145.416C481.032 145.225 481.282 144.947 481.458 144.58H483.229C482.972 145.365 482.521 145.977 481.876 146.417C481.238 146.85 480.486 147.066 479.621 147.066C478.887 147.066 478.224 146.901 477.63 146.571C477.043 146.234 476.577 145.768 476.233 145.174C475.895 144.58 475.727 143.905 475.727 143.15ZM486.062 139.322V144.074C486.062 144.595 486.198 144.994 486.469 145.273C486.74 145.544 487.122 145.68 487.613 145.68C488.112 145.68 488.497 145.544 488.768 145.273C489.039 144.994 489.175 144.595 489.175 144.074V139.322H490.726V144.063C490.726 144.716 490.583 145.269 490.297 145.724C490.018 146.171 489.641 146.509 489.164 146.736C488.695 146.963 488.17 147.077 487.591 147.077C487.019 147.077 486.498 146.963 486.029 146.736C485.567 146.509 485.2 146.171 484.929 145.724C484.658 145.269 484.522 144.716 484.522 144.063V139.322H486.062ZM494.865 147.077C494.33 147.077 493.846 146.985 493.413 146.802C492.988 146.619 492.65 146.355 492.401 146.01C492.152 145.665 492.023 145.258 492.016 144.789H493.666C493.688 145.104 493.798 145.354 493.996 145.537C494.201 145.72 494.48 145.812 494.832 145.812C495.191 145.812 495.474 145.728 495.679 145.559C495.884 145.383 495.987 145.156 495.987 144.877C495.987 144.65 495.917 144.463 495.778 144.316C495.639 144.169 495.463 144.056 495.25 143.975C495.045 143.887 494.759 143.792 494.392 143.689C493.893 143.542 493.486 143.399 493.171 143.26C492.863 143.113 492.595 142.897 492.368 142.611C492.148 142.318 492.038 141.929 492.038 141.445C492.038 140.99 492.152 140.594 492.379 140.257C492.606 139.92 492.925 139.663 493.336 139.487C493.747 139.304 494.216 139.212 494.744 139.212C495.536 139.212 496.178 139.406 496.669 139.795C497.168 140.176 497.443 140.712 497.494 141.401H495.8C495.785 141.137 495.672 140.921 495.459 140.752C495.254 140.576 494.979 140.488 494.634 140.488C494.333 140.488 494.091 140.565 493.908 140.719C493.732 140.873 493.644 141.097 493.644 141.39C493.644 141.595 493.71 141.768 493.842 141.907C493.981 142.039 494.15 142.149 494.348 142.237C494.553 142.318 494.839 142.413 495.206 142.523C495.705 142.67 496.112 142.816 496.427 142.963C496.742 143.11 497.014 143.33 497.241 143.623C497.468 143.916 497.582 144.301 497.582 144.778C497.582 145.189 497.476 145.57 497.263 145.922C497.05 146.274 496.739 146.556 496.328 146.769C495.917 146.974 495.43 147.077 494.865 147.077ZM504.142 139.322V140.565H502.096V147H500.556V140.565H498.51V139.322H504.142ZM508.83 147.077C508.111 147.077 507.451 146.908 506.85 146.571C506.249 146.234 505.772 145.768 505.42 145.174C505.068 144.573 504.892 143.894 504.892 143.139C504.892 142.391 505.068 141.72 505.42 141.126C505.772 140.525 506.249 140.055 506.85 139.718C507.451 139.381 508.111 139.212 508.83 139.212C509.556 139.212 510.216 139.381 510.81 139.718C511.411 140.055 511.884 140.525 512.229 141.126C512.581 141.72 512.757 142.391 512.757 143.139C512.757 143.894 512.581 144.573 512.229 145.174C511.884 145.768 511.411 146.234 510.81 146.571C510.209 146.908 509.549 147.077 508.83 147.077ZM508.83 145.702C509.292 145.702 509.699 145.599 510.051 145.394C510.403 145.181 510.678 144.881 510.876 144.492C511.074 144.103 511.173 143.652 511.173 143.139C511.173 142.626 511.074 142.178 510.876 141.797C510.678 141.408 510.403 141.111 510.051 140.906C509.699 140.701 509.292 140.598 508.83 140.598C508.368 140.598 507.957 140.701 507.598 140.906C507.246 141.111 506.971 141.408 506.773 141.797C506.575 142.178 506.476 142.626 506.476 143.139C506.476 143.652 506.575 144.103 506.773 144.492C506.971 144.881 507.246 145.181 507.598 145.394C507.957 145.599 508.368 145.702 508.83 145.702ZM522.274 139.322V147H520.734V142.006L518.677 147H517.511L515.443 142.006V147H513.903V139.322H515.652L518.094 145.031L520.536 139.322H522.274ZM488.566 153.322V154.565H486.52V161H484.98V154.565H482.934V153.322H488.566ZM496.059 153.322V161H494.519V157.733H491.23V161H489.69V153.322H491.23V156.479H494.519V153.322H496.059ZM499.114 154.565V156.49H501.699V157.711H499.114V159.746H502.029V161H497.574V153.311H502.029V154.565H499.114ZM511.8 153.322V161H510.26V156.006L508.203 161H507.037L504.969 156.006V161H503.429V153.322H505.178L507.62 159.031L510.062 153.322H511.8ZM514.862 154.565V156.49H517.447V157.711H514.862V159.746H517.777V161H513.322V153.311H517.777V154.565H514.862Z" fill="white"/>
<path d="M166.887 151.429L218.017 131.007C234.418 132.449 239.428 150.124 236.252 161.337C243.779 159.324 252.418 162.677 256.63 169.245C260.84 175.816 260.291 185.086 255.335 191.11C264.315 193.58 269.805 204.663 266.343 213.326C262.879 221.989 251.271 226.202 243.076 221.775C237.668 218.85 234.026 213.021 228.217 211.016C222.767 209.136 216.845 211.085 211.106 211.608C196.851 212.907 182.685 204.734 174.798 192.762C166.909 180.79 164.803 165.623 166.887 151.429Z" fill="#FEE13E"/>
<path d="M199.626 138.756C204.485 141.331 208.806 144.904 212.291 149.161C214.57 151.943 211.941 156.03 208.461 155.144L208.368 155.12C212.932 160.093 217.171 165.364 221.046 170.892C223.523 174.422 220.272 179.125 216.112 178.018C199.805 173.681 185.086 163.311 175.762 149.193L199.626 138.756Z" fill="#212539"/>
<path d="M204.36 163.543C205.478 163.543 206.653 163.216 206.968 162.199C207.311 161.09 206.35 160.04 205.478 159.276C204.291 158.235 203.106 157.195 201.919 156.154C200.798 155.171 199.566 153.708 200.227 152.37C200.85 151.109 202.757 150.981 203.443 149.754C203.902 148.934 203.633 147.861 203.045 147.127C202.527 146.482 201.81 146.044 201.082 145.64L199.242 147.232L190.297 154.961C193.174 159.622 198.239 162.89 203.682 163.505C203.899 163.53 204.128 163.543 204.36 163.543Z" fill="#212539"/>
<path d="M119.581 124.874C119.57 124.925 119.546 125.046 119.513 125.229C115.686 145.939 121.486 167.271 135.207 183.225L143.813 193.231L151.766 162.291L119.581 124.874Z" fill="#212539"/>
<path d="M119.569 124.874L119.727 125.068C119.838 125.201 119.99 125.38 120.183 125.611C120.596 126.096 121.188 126.793 121.952 127.692C123.503 129.511 125.749 132.145 128.578 135.464C134.242 142.089 142.238 151.442 151.615 162.409L151.578 162.246C149.34 170.927 146.886 180.461 144.315 190.443C144.075 191.381 143.834 192.314 143.612 193.18L143.95 193.102C142.236 191.11 140.543 189.14 138.874 187.203C137.22 185.256 135.528 183.383 134.001 181.451C130.898 177.619 128.324 173.602 126.242 169.589C124.139 165.583 122.601 161.552 121.446 157.712C120.82 155.803 120.429 153.902 119.983 152.095C119.658 150.26 119.267 148.514 119.094 146.816C118.192 140.052 118.429 134.504 118.813 130.729C118.946 128.829 119.239 127.378 119.36 126.386C119.479 125.509 119.537 125.099 119.569 124.874C119.569 124.874 119.533 124.987 119.476 125.25C119.431 125.519 119.367 125.892 119.283 126.372C119.138 127.363 118.821 128.812 118.665 130.712C118.235 134.492 117.953 140.055 118.825 146.852C118.99 148.558 119.372 150.313 119.692 152.155C120.131 153.973 120.516 155.884 121.139 157.805C122.286 161.667 123.819 165.722 125.924 169.753C128.008 173.791 130.59 177.835 133.705 181.692C135.242 183.641 136.925 185.508 138.58 187.458C140.246 189.397 141.94 191.364 143.654 193.357L143.898 193.642L143.992 193.28C144.214 192.412 144.453 191.479 144.696 190.543C147.256 180.557 149.701 171.02 151.93 162.337L151.953 162.244L151.891 162.171C142.405 151.21 134.316 141.862 128.585 135.241C125.745 131.968 123.489 129.369 121.932 127.576C121.17 126.702 120.582 126.023 120.17 125.552C119.978 125.333 119.83 125.164 119.719 125.038L119.569 124.874Z" fill="#212539"/>
<path d="M176.196 75.9443C176.247 75.9409 176.368 75.9342 176.551 75.9291C197.265 75.1951 217.186 83.9643 230.721 99.6989L239.211 109.568L207.941 112.85L176.196 75.9443Z" fill="#212539"/>
<path d="M176.216 75.9447L176.354 76.1152C176.46 76.2417 176.604 76.4104 176.789 76.6298C177.188 77.1005 177.762 77.7755 178.501 78.6462C180.023 80.4314 182.223 83.013 184.995 86.268C190.61 92.8335 198.532 102.102 207.823 112.97L207.885 113.043L207.981 113.033C216.757 112.115 226.393 111.109 236.487 110.055C237.433 109.955 238.376 109.857 239.251 109.764L239.625 109.726L239.379 109.442C237.687 107.476 236.017 105.534 234.374 103.622C232.714 101.722 231.144 99.8056 229.47 98.017C226.169 94.4111 222.605 91.2997 218.978 88.6758C215.36 86.0334 211.636 83.9428 208.042 82.2605C206.263 81.3729 204.458 80.7182 202.752 80.0247C201.005 79.4443 199.354 78.8166 197.717 78.4049C191.228 76.5673 185.772 76.0358 182.031 75.9059C180.741 75.8215 179.649 75.8418 178.773 75.8637C178.376 75.8721 178.024 75.8823 177.716 75.8823C177.237 75.8941 176.863 75.9025 176.595 75.9093C176.331 75.9261 176.216 75.9447 176.216 75.9447C176.442 75.9464 176.848 75.9498 177.716 75.9599C178.028 75.9683 178.385 75.9666 178.785 75.9633C179.659 75.9599 180.745 75.9565 182.024 76.0561C185.755 76.2299 191.189 76.8019 197.642 78.6681C199.269 79.0849 200.914 79.7193 202.65 80.3031C204.345 81.0017 206.138 81.6615 207.906 82.5507C211.476 84.2381 215.175 86.3287 218.769 88.966C222.373 91.5848 225.908 94.6862 229.189 98.2769C230.847 100.05 232.423 101.977 234.08 103.877C235.723 105.789 237.393 107.731 239.083 109.697L239.211 109.373C238.335 109.466 237.393 109.565 236.445 109.663C226.354 110.728 216.717 111.744 207.943 112.67L208.099 112.732C198.786 101.97 190.842 92.7929 185.216 86.2916C182.398 83.0451 180.157 80.4652 178.614 78.6867C177.848 77.8076 177.257 77.1276 176.844 76.6534C176.649 76.429 176.496 76.2569 176.381 76.1252L176.216 75.9447Z" fill="#212539"/>
<path d="M63.6142 2.43105C68.0955 -1.44144 86.3255 3.05029 110.666 15.8354C134.634 28.4231 149.382 44.7635 149.382 44.7635L221.203 128.262L199.253 147.232L186.531 158.225L164.581 177.192L99.4076 101.423C93.0374 94.0191 87.3541 86.0463 82.5058 77.564C78.3359 70.2712 73.6357 61.0481 69.912 51.0539C60.3399 25.3521 59.1311 6.30353 63.6142 2.43105Z" fill="#F3F2F1"/>
<path d="M209.828 115.03L153.493 163.138L209.828 115.03Z" fill="#F3F2F1"/>
<path d="M153.493 163.139C153.562 163.222 166.232 152.519 181.787 139.236C197.345 125.948 209.899 115.112 209.828 115.031C209.757 114.948 197.093 125.649 181.532 138.937C165.977 152.22 153.422 163.056 153.493 163.139Z" fill="#212539"/>
<path d="M212.25 117.344L155.915 165.454L212.25 117.344Z" fill="#F3F2F1"/>
<path d="M155.915 165.453C155.986 165.536 168.654 154.831 184.209 141.548C199.769 128.262 212.32 117.426 212.25 117.343C212.181 117.26 199.513 127.963 183.954 141.25C168.399 154.532 155.844 165.37 155.915 165.453Z" fill="#212539"/>
<path d="M214.508 120.053L158.171 168.162L214.508 120.053Z" fill="#F3F2F1"/>
<path d="M158.171 168.162C158.242 168.246 170.91 157.542 186.465 144.259C202.025 130.971 214.578 120.136 214.508 120.054C214.437 119.971 201.771 130.672 186.211 143.96C170.657 157.243 158.102 168.081 158.171 168.162Z" fill="#212539"/>
<path d="M216.75 122.762L160.415 170.871L216.75 122.762Z" fill="#F3F2F1"/>
<path d="M160.415 170.872C160.484 170.955 173.154 160.25 188.707 146.967C204.265 133.681 216.82 122.845 216.75 122.762C216.679 122.679 204.013 133.382 188.453 146.668C172.899 159.951 160.344 170.789 160.415 170.872Z" fill="#212539"/>
<path d="M219.008 125.471L162.675 173.579L219.008 125.471Z" fill="#F3F2F1"/>
<path d="M162.674 173.58C162.745 173.663 175.413 162.96 190.966 149.677C206.526 136.389 219.078 125.553 219.008 125.472C218.938 125.389 206.272 136.09 190.714 149.378C175.159 162.661 162.604 173.497 162.674 173.58Z" fill="#212539"/>
<path d="M147.825 100.566C147.812 100.571 147.906 100.723 148.096 101.008C148.283 101.307 148.608 101.685 149.004 102.201C149.812 103.217 151.012 104.658 152.509 106.426C155.505 109.963 159.697 114.8 164.358 120.116C169.023 125.433 173.274 130.22 176.366 133.67C177.897 135.363 179.147 136.746 180.046 137.742C180.465 138.192 180.802 138.555 181.061 138.834C181.297 139.08 181.425 139.206 181.437 139.198C181.447 139.188 181.338 139.044 181.12 138.781C180.876 138.489 180.558 138.111 180.159 137.639C179.284 136.623 178.065 135.214 176.573 133.486C173.496 129.968 169.296 125.164 164.653 119.856C160.007 114.556 155.8 109.76 152.719 106.246C151.224 104.523 150.002 103.116 149.123 102.103C148.711 101.607 148.361 101.236 148.164 100.966C147.955 100.701 147.837 100.561 147.825 100.566Z" fill="#212539"/>
<path d="M119.573 124.874C119.644 124.955 132.278 114.171 147.789 100.787C163.304 87.3997 175.82 76.4842 175.75 76.4015C175.679 76.3188 163.048 87.1027 147.532 100.49C132.021 113.874 119.502 124.792 119.573 124.874Z" fill="#212539"/>
<path d="M166.982 132.026C166.982 132.005 166.776 131.975 166.423 132.078C166.076 132.178 165.58 132.446 165.191 132.994C164.8 133.516 164.554 134.418 164.953 135.257C165.319 136.07 166.216 136.784 167.297 136.747C168.374 136.679 169.201 135.881 169.485 135.038C169.8 134.162 169.468 133.288 169.031 132.807C168.59 132.299 168.069 132.08 167.714 132.014C167.352 131.946 167.152 131.997 167.154 132.017C167.154 132.051 167.351 132.056 167.674 132.162C167.995 132.265 168.448 132.507 168.815 132.982C169.182 133.443 169.428 134.186 169.143 134.916C168.887 135.632 168.155 136.305 167.276 136.354C166.398 136.391 165.605 135.79 165.28 135.105C164.926 134.405 165.1 133.642 165.42 133.148C165.741 132.64 166.169 132.355 166.477 132.221C166.79 132.083 166.985 132.059 166.982 132.026Z" fill="#212539"/>
<path d="M152.81 116.145C152.81 116.125 152.605 116.095 152.251 116.196C151.904 116.296 151.406 116.566 151.019 117.112C150.628 117.635 150.382 118.536 150.781 119.377C151.147 120.19 152.044 120.904 153.125 120.867C154.202 120.799 155.029 120.001 155.313 119.156C155.628 118.282 155.296 117.408 154.859 116.927C154.418 116.419 153.897 116.199 153.542 116.134C153.18 116.066 152.98 116.117 152.982 116.137C152.98 116.171 153.179 116.176 153.502 116.282C153.823 116.385 154.276 116.626 154.643 117.102C155.01 117.563 155.256 118.305 154.973 119.036C154.716 119.75 153.985 120.425 153.105 120.473C152.226 120.511 151.433 119.91 151.11 119.223C150.756 118.525 150.928 117.762 151.249 117.268C151.568 116.758 151.997 116.474 152.305 116.339C152.618 116.203 152.813 116.179 152.81 116.145Z" fill="#212539"/>
<path d="M207.109 111.885C207.106 111.79 207.103 111.696 207.099 111.601C198.207 101.327 190.623 92.5628 185.194 86.2909C182.376 83.0445 180.136 80.4645 178.592 78.686C177.826 77.8069 177.235 77.1269 176.822 76.6528C176.627 76.4284 176.474 76.2562 176.36 76.1246L176.198 75.9474L207.108 111.883C207.109 111.885 207.109 111.885 207.109 111.885Z" fill="#212539"/>
<path d="M207.109 111.883L176.2 75.9473L176.196 75.9439C185.662 88.0676 206.882 111.63 207.109 111.883Z" fill="#9FA1A1"/>
<path d="M220.631 188.207C222.68 187.91 224.818 189.483 225.15 191.53C225.482 193.576 223.955 195.746 221.918 196.117C219.882 196.489 217.689 194.997 217.281 192.964C216.874 190.931 218.322 188.707 220.342 188.259" fill="#212539"/>
<path d="M92.2629 61.7684C93.6501 72.8544 103.744 80.7124 114.804 79.3203C125.864 77.9299 133.706 67.8142 132.317 56.7266C130.928 45.6407 120.836 37.781 109.776 39.173C98.7139 40.5651 90.8741 50.6808 92.2629 61.7684Z" fill="white"/>
<path d="M92.2644 61.7688C92.3873 61.7621 92.0439 59.9768 92.4463 56.808C92.8469 53.6998 94.3031 49.0242 98.3939 45.0387C100.422 43.0864 103.06 41.3164 106.237 40.3411C109.392 39.3911 113.04 39.0418 116.663 39.931C118.481 40.3208 120.272 41.0278 121.959 41.9913C123.661 42.9311 125.252 44.1629 126.62 45.6478C129.435 48.5619 131.31 52.5255 131.883 56.7793C132.378 61.0449 131.539 65.351 129.533 68.8726C128.571 70.6527 127.331 72.2405 125.915 73.5719C124.518 74.9251 122.955 76.0539 121.29 76.8824C117.999 78.6423 114.378 79.2076 111.085 79.0676C107.769 78.909 104.774 77.8476 102.328 76.4589C97.3805 73.6106 94.8182 69.4395 93.6634 66.5271C92.4934 63.5574 92.3873 61.7418 92.2644 61.7688C92.2341 61.7722 92.283 62.2126 92.4008 63.0546C92.453 63.4781 92.5355 63.9978 92.7123 64.5968C92.8688 65.1992 93.0304 65.9028 93.3452 66.652C94.4209 69.6504 96.9562 73.987 102.015 76.9972C104.52 78.4635 107.606 79.5974 111.043 79.7948C114.454 79.9737 118.22 79.4135 121.659 77.6029C123.396 76.7508 125.031 75.5832 126.492 74.1793C127.975 72.7956 129.273 71.1454 130.282 69.291C132.386 65.6244 133.273 61.1225 132.753 56.6696C132.159 52.2285 130.189 48.0877 127.246 45.0572C125.809 43.5099 124.146 42.2326 122.368 41.2607C120.607 40.2635 118.735 39.5362 116.841 39.1413C113.063 38.2403 109.277 38.6301 106.015 39.6476C102.732 40.6887 100.023 42.5532 97.9579 44.5949C93.7981 48.7644 92.4109 53.5952 92.1062 56.7675C91.9884 57.5706 92.0035 58.2928 92.0018 58.9155C91.9782 59.5381 92.0254 60.0629 92.081 60.4864C92.1719 61.3318 92.2341 61.7722 92.2644 61.7688Z" fill="#212539"/>
<path d="M63.604 2.43108C68.0853 -1.4414 86.3153 3.05033 110.656 15.8354L69.9018 51.054C60.328 25.3521 59.1209 6.30357 63.604 2.43108Z" fill="#212539"/>
<path d="M63.6124 2.43137C63.6124 2.43137 63.3633 2.67941 62.8987 3.20081C62.4997 3.76944 62.03 4.70761 61.6663 6.02374C60.9626 8.66109 60.7909 12.7259 61.2741 17.8808C62.3027 28.1872 65.9053 42.965 73.3394 60.1896C77.1743 68.7377 81.8996 77.9355 88.0863 87.1737C91.1939 91.7802 94.6534 96.3901 98.4984 100.919C102.359 105.419 106.34 110.059 110.431 114.83C126.812 133.897 144.963 155.026 164.25 177.476L164.533 177.807L164.862 177.522C173.95 169.67 183.475 161.441 193.174 153.065C202.87 144.681 212.397 136.448 221.484 128.592L221.812 128.308L221.528 127.979C202.207 105.544 184.026 84.4335 167.621 65.3832C163.518 60.6232 159.525 55.9931 155.655 51.5031C153.719 49.2589 151.813 47.0484 149.94 44.8751C147.998 42.722 145.953 40.7782 143.909 38.8934C135.711 31.3948 127.324 25.3473 119.351 20.4422C111.315 15.6248 103.719 11.9261 96.9547 8.96817C90.1772 6.0423 84.1976 3.89093 79.1894 2.6001C74.1879 1.30589 70.1644 0.80983 67.4523 1.06462C66.784 1.18781 66.1797 1.22491 65.6881 1.38351C65.205 1.56575 64.7773 1.66362 64.476 1.8391C63.8935 2.22212 63.6124 2.43137 63.6124 2.43137C63.6124 2.43137 63.9289 2.26434 64.5131 1.91168C64.8144 1.75139 65.2437 1.66699 65.7201 1.50163C66.2066 1.3582 66.8059 1.33459 67.4658 1.22491C70.1526 1.02412 74.1424 1.56575 79.1102 2.90045C84.0848 4.23346 90.0307 6.42363 96.7763 9.38158C103.503 12.3716 111.069 16.1023 119.052 20.9332C126.976 25.8519 135.312 31.9078 143.45 39.3963C145.473 41.2726 147.517 43.2266 149.413 45.3408C151.281 47.5192 153.18 49.733 155.109 51.984C158.971 56.4825 162.954 61.121 167.045 65.8895C183.427 84.9583 201.581 106.089 220.873 128.546L220.919 127.935C211.828 135.786 202.301 144.017 192.601 152.398C182.905 160.78 173.383 169.011 164.296 176.865L164.909 176.909C145.591 154.481 127.413 133.375 111.011 114.328C106.911 109.568 102.921 104.938 99.0523 100.447C95.2123 95.948 91.7563 91.3685 88.6486 86.7924C82.467 77.6182 77.7213 68.4593 73.8646 59.955C66.3833 42.8233 62.7034 28.0961 61.5839 17.8488C61.0536 12.7209 61.1765 8.68471 61.8195 6.06256C62.1579 4.75822 62.5939 3.82513 62.9643 3.24806C63.4003 2.7216 63.6124 2.43137 63.6124 2.43137Z" fill="#212539"/>
<path d="M110.662 74.2912C110.779 74.2996 111.016 72.7557 111.211 70.2449C111.412 67.7341 111.555 64.2598 111.639 60.4261C111.703 56.7646 111.76 53.4523 111.809 50.6142C111.846 48.1034 111.863 46.5494 111.738 46.5392C111.62 46.5291 111.386 48.073 111.189 50.5855C110.989 53.0963 110.846 56.5705 110.764 60.4059C110.698 64.0641 110.641 67.378 110.592 70.2162C110.556 72.7253 110.538 74.281 110.662 74.2912Z" fill="#212539"/>
<path d="M115.177 70.4251C115.418 70.4453 115.837 66.4716 116.111 61.5479C116.386 56.6225 116.413 52.6286 116.17 52.6235C115.93 52.6167 115.51 56.5905 115.236 61.499C114.963 66.4058 114.936 70.4015 115.177 70.4251Z" fill="#212539"/>
<path d="M207.137 230.886C211.132 229.48 215.603 231.021 217.877 233.555C220.15 236.09 220.439 240.197 218.542 243.026C221.779 244.359 223.874 247.898 223.803 251.404C223.732 254.909 221.655 258.233 218.704 260.114C215.751 261.994 212.031 262.493 208.603 261.793C201.725 260.387 196.21 253.938 195.875 246.911C195.543 239.884 200.423 232.938 207.137 230.886Z" fill="#FEE13E"/>
<path d="M280.829 218.144C280.829 223.174 284.896 227.252 289.916 227.252C294.933 227.252 299 223.174 299 218.144C299 213.114 294.933 209.037 289.916 209.037C284.896 209.037 280.829 213.114 280.829 218.144Z" fill="#FEE13E"/>
<g filter="url(#filter0_d_1124_11)">
<circle cx="286" cy="284" r="119" fill="white"/>
</g>
<path d="M275.905 314.682H266.476V315.664C269.423 315.664 269.913 316.277 269.913 319.995V326.689C269.913 330.431 269.423 331.118 266.476 331.118C264.217 330.824 262.646 329.544 260.582 327.28L258.127 324.621C261.368 324.008 263.137 321.963 263.137 319.701C263.137 316.846 260.682 314.582 256.066 314.582H246.833V315.564C249.78 315.564 250.27 316.177 250.27 319.895V326.589C250.27 330.331 249.78 331.018 246.833 331.018V332H257.246V331.018C254.299 331.018 253.809 330.329 253.809 326.589V324.719H254.692L260.488 332H275.811C283.374 332 286.615 327.965 286.615 323.241C286.713 318.615 283.472 314.678 275.909 314.678L275.905 314.682ZM253.905 323.245V316.277H256.068C258.425 316.277 259.505 317.95 259.505 319.822C259.505 321.693 258.423 323.265 256.068 323.265L253.905 323.245ZM276.103 330.525H275.709C273.844 330.525 273.546 330.034 273.546 327.67V316.259H276.097C281.597 316.259 282.579 320.294 282.579 323.345C282.579 326.593 281.497 330.529 276.097 330.529L276.103 330.525ZM217.561 325.235L221.194 314.506C222.276 311.357 221.806 310.472 218.443 310.472V309.388H228.361V310.472C225.023 310.472 224.239 311.259 222.959 315.098L216.965 333.088H216.18L210.777 316.652L205.373 333.088H204.686L198.889 315.077C197.612 311.239 196.849 310.451 193.781 310.451V309.367H205.373V310.451C202.23 310.451 201.445 311.14 202.524 314.486L206.061 325.214L211.367 309.365H212.347L217.561 325.235ZM235.435 332.914C229.639 332.914 224.925 328.681 224.925 323.466C224.925 318.347 229.619 314.018 235.435 314.018C241.251 314.018 245.945 318.251 245.945 323.466C245.945 328.681 241.251 332.914 235.435 332.914ZM235.435 315.592C230.623 315.592 228.953 319.924 228.953 323.368C228.953 326.811 230.623 331.143 235.435 331.143C240.345 331.143 242.017 326.811 242.017 323.368C242.017 320.022 240.347 315.592 235.435 315.592ZM299.675 331.141V332.225H287.593V331.141C291.13 331.141 291.715 330.255 291.715 324.94V316.474C291.715 311.157 291.103 310.371 287.593 310.371V309.288H298.495C303.897 309.288 306.944 312.044 306.944 315.783C306.944 319.423 303.899 322.278 298.495 322.278H295.548V325.034C295.548 330.249 296.16 331.137 299.671 331.137L299.675 331.141ZM298.495 311.259H295.548V320.413H298.495C301.442 320.413 302.818 318.368 302.818 315.885C302.818 313.402 301.442 311.259 298.495 311.259ZM342.992 327.3L342.698 328.282C342.208 330.053 341.616 330.644 337.886 330.644H337.198C334.447 330.644 333.957 330.03 333.957 326.312V323.852C338.079 323.852 338.377 324.247 338.377 327.002H339.357V319.128H338.377C338.377 321.885 338.084 322.278 333.957 322.278V316.38H336.806C340.541 316.38 341.128 316.993 341.618 318.742L341.912 319.723H342.796L342.402 314.803H326.981V315.785C329.928 315.785 330.418 316.398 330.418 320.116V326.809C330.418 330.253 330.024 331.141 327.667 331.239C325.504 330.944 323.932 329.664 321.871 327.4L319.416 324.742C322.657 324.128 324.426 322.083 324.426 319.822C324.426 316.967 321.971 314.703 317.355 314.703H308.122V315.684C311.069 315.684 311.559 316.298 311.559 320.016V326.709C311.559 330.452 311.069 331.139 308.122 331.139V332.12H318.534V331.139C315.587 331.139 315.097 330.45 315.097 326.709V324.84H315.981L321.777 332.12H343.386L343.68 327.2H342.992V327.3ZM315.195 323.265V316.277H317.359C319.716 316.277 320.795 317.95 320.795 319.822C320.795 321.693 319.714 323.265 317.359 323.265H315.195Z" fill="#00749A"/>
<path d="M353.885 332.35C351.824 332.35 349.957 331.266 349.191 330.579C348.898 330.873 348.504 331.663 348.308 332.35H347.328V325.069H348.41C348.804 328.513 351.259 330.581 354.304 330.581C355.973 330.581 357.349 329.599 357.349 328.024C357.349 326.646 356.169 325.564 354.01 324.581L351.063 323.202C349.002 322.221 347.43 320.446 347.43 318.182C347.43 315.625 349.787 313.478 353.028 313.478C354.796 313.478 356.269 314.071 357.151 314.857C357.445 314.66 357.641 314.069 357.839 313.478H358.818V319.679H357.736C357.343 317.219 355.969 315.151 353.218 315.151C351.745 315.151 350.369 316.037 350.369 317.319C350.369 318.697 351.451 319.384 354.002 320.566L356.851 321.945C359.402 323.127 360.388 325.094 360.388 326.648C360.29 329.994 357.441 332.354 353.906 332.354L353.885 332.35Z" fill="#00749A"/>
<path d="M370.62 332.35C368.558 332.35 366.691 331.266 365.926 330.579C365.632 330.873 365.238 331.663 365.042 332.35H364.062V325.069H365.144C365.538 328.513 367.993 330.581 371.038 330.581C372.708 330.581 374.083 329.599 374.083 328.024C374.083 326.646 372.903 325.564 370.744 324.581L367.797 323.202C365.736 322.221 364.165 320.446 364.165 318.182C364.165 315.625 366.522 313.478 369.763 313.478C371.53 313.478 373.003 314.071 373.885 314.857C374.179 314.66 374.375 314.069 374.573 313.478H375.552V319.679H374.471C374.077 317.219 372.703 315.151 369.952 315.151C368.479 315.151 367.103 316.037 367.103 317.319C367.103 318.697 368.185 319.384 370.736 320.566L373.585 321.945C376.136 323.127 377.122 325.094 377.122 326.648C377.024 329.994 374.175 332.354 370.64 332.354L370.62 332.35Z" fill="#00749A"/>
<path d="M260.461 263.176C260.461 273.308 266.282 282.038 274.797 286.134L262.725 252.829C261.324 256.062 260.461 259.512 260.461 263.178V263.176ZM303.256 261.879C303.256 258.753 302.069 256.49 301.1 254.872C299.806 252.715 298.622 250.99 298.622 248.836C298.622 246.464 300.455 244.306 302.933 244.306H303.256C298.726 240.109 292.69 237.628 286.027 237.628C277.08 237.736 269.321 242.262 264.685 249.161H266.301C268.996 249.161 273.092 248.838 273.092 248.838C274.493 248.729 274.602 250.777 273.285 250.994C273.285 250.994 271.884 251.188 270.376 251.188L279.668 278.782L285.272 262.076L281.284 251.19L278.59 250.996C277.188 250.888 277.403 248.84 278.698 248.84C278.698 248.84 282.903 249.163 285.381 249.163C288.075 249.163 292.172 248.84 292.172 248.84C293.573 248.731 293.681 250.779 292.365 250.996C292.365 250.996 290.964 251.19 289.456 251.19L298.748 278.678L301.334 270.16C302.412 266.602 303.274 264.125 303.274 261.86L303.256 261.879ZM286.44 265.441L278.787 287.644C281.052 288.291 283.53 288.722 286.008 288.722C289.028 288.722 291.829 288.184 294.526 287.321C294.417 287.213 294.417 287.127 294.332 286.998L286.44 265.441ZM308.431 251L308.624 253.586C308.624 256.172 308.193 259.084 306.685 262.748L298.941 285.275C306.487 280.855 311.66 272.663 311.66 263.178C311.551 258.759 310.367 254.661 308.427 250.998L308.431 251ZM286.008 233.425C269.623 233.425 256.258 246.792 256.258 263.174C256.258 279.557 269.623 292.925 286.008 292.925C302.393 292.925 315.758 279.559 315.758 263.176C315.758 246.794 302.393 233.425 286.008 233.425ZM286.008 291.63C270.378 291.63 257.659 278.912 257.659 263.174C257.659 247.525 270.378 234.827 286.008 234.827C301.638 234.827 314.356 247.545 314.356 263.174C314.356 278.912 301.638 291.63 286.008 291.63Z" fill="#00749A"/>
<defs>
<filter id="filter0_d_1124_11" x="157" y="155" width="258" height="258" filterUnits="userSpaceOnUse" color-interpolation-filters="sRGB">
<feFlood flood-opacity="0" result="BackgroundImageFix"/>
<feColorMatrix in="SourceAlpha" type="matrix" values="0 0 0 0 0 0 0 0 0 0 0 0 0 0 0 0 0 0 127 0" result="hardAlpha"/>
<feOffset/>
<feGaussianBlur stdDeviation="5"/>
<feComposite in2="hardAlpha" operator="out"/>
<feColorMatrix type="matrix" values="0 0 0 0 0 0 0 0 0 0 0 0 0 0 0 0 0 0 0.25 0"/>
<feBlend mode="normal" in2="BackgroundImageFix" result="effect1_dropShadow_1124_11"/>
<feBlend mode="normal" in="SourceGraphic" in2="effect1_dropShadow_1124_11" result="shape"/>
</filter>
</defs>
</svg>
