<svg width="155" height="45" viewBox="0 0 155 45" fill="none" xmlns="http://www.w3.org/2000/svg">
<path d="M34.3125 7H53.6875C56.625 7 59 9.4359 59 12.4487V31.5513C59 34.5641 56.625 37 53.6875 37H34.3125C31.375 37 29 34.5641 29 31.5513V12.4487C29 9.4359 31.375 7 34.3125 7Z" fill="#001E36"/>
<path d="M34.9968 28.4103V15.218C34.9968 15.1282 35.0323 15.0769 35.115 15.0769C35.3161 15.0769 35.5054 15.0769 35.7774 15.0641C36.0613 15.0513 36.357 15.0513 36.6764 15.0385C36.9958 15.0257 37.3388 15.0257 37.7055 15.0128C38.0722 15 38.427 15 38.7819 15C39.7518 15 40.5561 15.1282 41.2185 15.3974C41.81 15.6154 42.3541 15.9743 42.8035 16.4487C43.1821 16.859 43.4778 17.359 43.667 17.9103C43.8444 18.4487 43.9391 19 43.9391 19.5769C43.9391 20.6795 43.7025 21.5897 43.2294 22.3077C42.7562 23.0257 42.0938 23.5641 41.325 23.8718C40.5207 24.1923 39.6335 24.3077 38.6636 24.3077C38.3797 24.3077 38.1904 24.3077 38.0722 24.2949C37.9539 24.282 37.7883 24.282 37.5635 24.282V28.3974C37.5754 28.4872 37.5162 28.5641 37.4334 28.5769H35.1387C35.0441 28.5769 34.9968 28.5257 34.9968 28.4103ZM37.5754 17.5513V21.859C37.741 21.8718 37.8947 21.8846 38.0367 21.8846H38.6636C39.1249 21.8846 39.5862 21.8077 40.0239 21.6538C40.4024 21.5385 40.7336 21.2949 40.9938 20.9743C41.2422 20.6538 41.3605 20.218 41.3605 19.6538C41.3723 19.2564 41.2777 18.859 41.0884 18.5128C40.8873 18.1795 40.6035 17.9231 40.2604 17.782C39.8228 17.5897 39.3496 17.5128 38.8647 17.5257C38.5571 17.5257 38.2851 17.5257 38.0603 17.5385C37.8238 17.5257 37.6582 17.5385 37.5754 17.5513ZM51.32 21.0769C50.9652 20.8718 50.5867 20.7308 50.1845 20.641C49.7469 20.5385 49.3092 20.4743 48.8597 20.4743C48.6231 20.4615 48.3747 20.5 48.15 20.5641C47.9962 20.6026 47.8661 20.6923 47.7833 20.8205C47.7242 20.9231 47.6887 21.0513 47.6887 21.1667C47.6887 21.282 47.736 21.3974 47.807 21.5C47.9134 21.641 48.0554 21.7564 48.2091 21.8462C48.4812 22 48.7651 22.141 49.049 22.2692C49.6877 22.5 50.3028 22.8205 50.8705 23.2051C51.2609 23.4743 51.5802 23.8333 51.805 24.2692C51.9942 24.6795 52.0889 25.1282 52.077 25.5897C52.0889 26.1923 51.9233 26.7949 51.6157 27.2949C51.2845 27.8077 50.8232 28.2051 50.291 28.4359C49.7114 28.7051 49.0017 28.8462 48.15 28.8462C47.6059 28.8462 47.0736 28.7949 46.5413 28.6795C46.1273 28.6026 45.7133 28.4615 45.3348 28.2692C45.252 28.218 45.1929 28.1282 45.2047 28.0257V25.7949C45.2047 25.7564 45.2165 25.7051 45.252 25.6795C45.2875 25.6538 45.323 25.6667 45.3585 25.6923C45.8198 25.9872 46.3048 26.1923 46.8252 26.3205C47.2747 26.4487 47.7478 26.5128 48.221 26.5128C48.6704 26.5128 48.9898 26.4487 49.2027 26.3333C49.392 26.2436 49.5221 26.0257 49.5221 25.7949C49.5221 25.6154 49.4275 25.4487 49.2382 25.282C49.049 25.1154 48.6586 24.9231 48.079 24.6795C47.4758 24.4487 46.9198 24.141 46.3994 23.7564C46.0327 23.4743 45.7252 23.1026 45.5004 22.6667C45.3112 22.2564 45.2165 21.8077 45.2284 21.359C45.2284 20.8077 45.3703 20.282 45.6306 19.8077C45.9263 19.2949 46.3639 18.8846 46.8725 18.6282C47.4285 18.3205 48.1263 18.1795 48.9662 18.1795C49.4511 18.1795 49.9479 18.218 50.4329 18.2949C50.7877 18.3462 51.1308 18.4487 51.4502 18.5897C51.4975 18.6026 51.5448 18.6538 51.5684 18.7051C51.5802 18.7564 51.5921 18.8077 51.5921 18.859V20.9487C51.5921 21 51.5684 21.0513 51.5329 21.0769C51.4265 21.1026 51.3673 21.1026 51.32 21.0769Z" fill="#31A8FF"/>
<path d="M69.9249 16.108L70.8056 18.544C70.8297 18.58 70.8538 18.604 70.9021 18.604H71.8189C71.8792 18.604 71.8913 18.568 71.8671 18.52L69.0322 10.732C69.0202 10.684 69.0081 10.672 68.9598 10.672H67.7776C67.7414 10.672 67.7173 10.696 67.7173 10.732C67.7052 11.044 67.669 11.128 67.6329 11.224L65.003 18.508C64.991 18.568 65.0151 18.604 65.0754 18.604H65.8957C65.956 18.604 65.9802 18.58 65.9922 18.532L66.8608 16.108H69.9249ZM67.1383 15.184C67.5967 13.864 68.1757 12.256 68.3808 11.488H68.3929C68.6221 12.304 69.3821 14.404 69.6475 15.184H67.1383Z" fill="#231F20"/>
<path d="M75.4122 18.724C76.0878 18.724 76.7633 18.604 77.4509 18.28C77.4992 18.256 77.5112 18.244 77.5112 18.196C77.4871 17.992 77.4871 17.788 77.4871 17.62V10.06C77.4871 10.024 77.4751 10 77.4147 10H76.5462C76.4979 10 76.4738 10.012 76.4738 10.072V12.724C76.2446 12.688 76.0516 12.652 75.7138 12.652C73.7474 12.652 72.4325 13.972 72.4325 15.736C72.4325 17.716 73.7354 18.724 75.4122 18.724ZM76.4738 17.692C76.1963 17.812 75.8224 17.848 75.5087 17.848C74.4471 17.848 73.4579 17.248 73.4579 15.688C73.4579 14.44 74.3144 13.516 75.6897 13.516C75.9912 13.516 76.2808 13.552 76.4738 13.636V17.692Z" fill="#231F20"/>
<path d="M81.5334 12.652C79.8445 12.652 78.7588 13.996 78.7588 15.688C78.7588 17.164 79.5912 18.724 81.5334 18.724C83.1499 18.724 84.2839 17.5 84.2839 15.676C84.2839 13.948 83.2343 12.652 81.5334 12.652ZM81.4851 13.516C82.7397 13.516 83.2585 14.584 83.2585 15.7C83.2585 17.188 82.414 17.86 81.5575 17.86C80.4115 17.86 79.7721 16.888 79.7721 15.664C79.7721 14.38 80.4718 13.516 81.4851 13.516Z" fill="#231F20"/>
<path d="M85.627 10C85.5667 10 85.5426 10.012 85.5426 10.072V18.376C85.5426 18.424 85.5667 18.472 85.615 18.484C86.1337 18.652 86.6645 18.724 87.2677 18.724C88.9686 18.724 90.6093 17.62 90.6093 15.46C90.6093 13.84 89.5235 12.652 87.8588 12.652C87.3762 12.652 86.942 12.736 86.5559 12.892V10.072C86.5559 10 86.5318 10 86.4715 10H85.627ZM89.5839 15.544C89.5839 17.092 88.5102 17.86 87.3521 17.86C87.0264 17.86 86.7851 17.836 86.5559 17.764V13.732C86.8575 13.612 87.1832 13.528 87.702 13.528C88.8601 13.528 89.5839 14.32 89.5839 15.544Z" fill="#231F20"/>
<path d="M95.1958 15.808C95.7266 15.808 96.2574 15.796 96.4384 15.76C96.4866 15.76 96.5228 15.724 96.5228 15.688C96.5469 15.58 96.5711 15.364 96.5711 15.064C96.5711 14.044 95.9438 12.652 94.2187 12.652C92.5419 12.652 91.5527 14.056 91.5527 15.736C91.5527 17.2 92.3006 18.724 94.3876 18.724C95.1476 18.724 95.6784 18.58 96.0885 18.376C96.1247 18.352 96.1488 18.328 96.1488 18.256V17.572C96.1488 17.524 96.1247 17.5 96.0885 17.524C95.6181 17.752 95.1114 17.848 94.5806 17.848C93.2174 17.848 92.5539 16.948 92.566 15.808H95.1958ZM92.5781 15.064C92.6866 14.26 93.1812 13.48 94.1825 13.48C95.3165 13.48 95.606 14.476 95.606 14.908C95.606 14.944 95.606 15.004 95.5939 15.04C95.5577 15.052 95.413 15.064 94.8219 15.064H92.5781Z" fill="#231F20"/>
<path d="M65.948 32.506C65.948 32.576 65.9902 32.604 66.0606 32.604H67.5384C67.6228 32.604 67.6509 32.562 67.6509 32.492V29.622C67.9747 29.622 68.0872 29.622 68.5376 29.622C70.6628 29.622 72.3939 28.656 72.3939 26.43C72.3939 24.89 71.3806 23.378 68.6502 23.378C67.6228 23.378 66.5813 23.406 66.0465 23.42C65.9761 23.42 65.948 23.462 65.948 23.532V32.506ZM67.6509 24.876C67.8058 24.862 68.1998 24.848 68.6924 24.848C69.9872 24.848 70.7191 25.45 70.7191 26.472C70.7191 27.746 69.7198 28.138 68.5376 28.138C68.0732 28.138 67.8902 28.138 67.6509 28.124V24.876Z" fill="#231F20"/>
<path d="M75.4815 27.522C75.8474 27.2 76.3119 27.032 76.8326 27.032C77.6489 27.032 78.0571 27.564 78.0571 28.502V32.478C78.0571 32.562 78.0993 32.604 78.1837 32.604H79.6474C79.7178 32.604 79.76 32.576 79.76 32.478V28.334C79.76 26.094 78.4793 25.562 77.4097 25.562C76.6074 25.562 76.0163 25.814 75.4815 26.206V22.734C75.4815 22.664 75.4674 22.636 75.383 22.636H73.8911C73.8067 22.636 73.7786 22.678 73.7786 22.734V32.492C73.7786 32.562 73.8067 32.604 73.8911 32.604H75.383C75.4674 32.604 75.4815 32.576 75.4815 32.506V27.522Z" fill="#231F20"/>
<path d="M84.5277 25.562C82.4166 25.562 81.1077 27.172 81.1077 29.16C81.1077 30.938 82.1492 32.744 84.4996 32.744C86.484 32.744 87.8774 31.288 87.8774 29.118C87.8774 27.2 86.6951 25.562 84.5277 25.562ZM84.4433 26.976C85.6396 26.976 86.1462 27.998 86.1462 29.16C86.1462 30.602 85.4003 31.316 84.5277 31.316C83.4581 31.316 82.8248 30.42 82.8248 29.132C82.8248 27.802 83.5003 26.976 84.4433 26.976Z" fill="#231F20"/>
<path d="M92.575 31.372C92.575 31.288 92.5328 31.274 92.4906 31.288C92.2935 31.33 92.1387 31.344 91.9558 31.344C91.3506 31.344 91.1535 31.05 91.1535 30.434V27.116H92.5328C92.6032 27.116 92.6313 27.088 92.6313 27.018V25.8C92.6313 25.73 92.6032 25.702 92.5328 25.702H91.1676C91.1676 25.016 91.1958 24.19 91.238 23.728C91.238 23.658 91.2098 23.644 91.1395 23.658L89.718 23.854C89.6476 23.868 89.6195 23.91 89.6054 23.98C89.535 24.33 89.4787 25.212 89.4646 25.702H88.578C88.4935 25.702 88.4654 25.73 88.4654 25.814V26.99C88.4654 27.074 88.4935 27.102 88.5639 27.116H89.4506V30.798C89.4506 32.184 90.1402 32.744 91.2943 32.744C91.7587 32.744 92.1106 32.688 92.4906 32.548C92.5609 32.52 92.575 32.464 92.575 32.38V31.372Z" fill="#231F20"/>
<path d="M96.7188 25.562C94.6077 25.562 93.2988 27.172 93.2988 29.16C93.2988 30.938 94.3403 32.744 96.6907 32.744C98.6751 32.744 100.068 31.288 100.068 29.118C100.068 27.2 98.8862 25.562 96.7188 25.562ZM96.6344 26.976C97.8307 26.976 98.3374 27.998 98.3374 29.16C98.3374 30.602 97.5914 31.316 96.7188 31.316C95.6492 31.316 95.0159 30.42 95.0159 29.132C95.0159 27.802 95.6914 26.976 96.6344 26.976Z" fill="#231F20"/>
<path d="M105.536 27.326C105.62 27.354 105.663 27.312 105.663 27.242V26.01C105.663 25.94 105.648 25.884 105.578 25.842C105.24 25.674 104.621 25.562 103.805 25.562C102.046 25.562 101.173 26.556 101.173 27.62C101.173 28.628 101.722 29.258 103.256 29.818C104.128 30.168 104.396 30.392 104.396 30.742C104.396 31.106 104.044 31.358 103.312 31.358C102.679 31.358 101.905 31.19 101.3 30.798C101.243 30.77 101.187 30.798 101.187 30.868V32.198C101.187 32.282 101.215 32.31 101.286 32.352C101.708 32.59 102.44 32.744 103.27 32.744C105.001 32.744 106.043 31.918 106.043 30.602C106.043 29.608 105.494 28.978 103.889 28.39C102.988 28.04 102.777 27.83 102.777 27.522C102.777 27.228 103.031 26.92 103.777 26.92C104.396 26.92 105.1 27.088 105.536 27.326Z" fill="#231F20"/>
<path d="M108.949 27.522C109.315 27.2 109.779 27.032 110.3 27.032C111.116 27.032 111.524 27.564 111.524 28.502V32.478C111.524 32.562 111.566 32.604 111.651 32.604H113.115C113.185 32.604 113.227 32.576 113.227 32.478V28.334C113.227 26.094 111.946 25.562 110.877 25.562C110.075 25.562 109.483 25.814 108.949 26.206V22.734C108.949 22.664 108.935 22.636 108.85 22.636H107.358C107.274 22.636 107.246 22.678 107.246 22.734V32.492C107.246 32.562 107.274 32.604 107.358 32.604H108.85C108.935 32.604 108.949 32.576 108.949 32.506V27.522Z" fill="#231F20"/>
<path d="M117.995 25.562C115.884 25.562 114.575 27.172 114.575 29.16C114.575 30.938 115.616 32.744 117.967 32.744C119.951 32.744 121.344 31.288 121.344 29.118C121.344 27.2 120.162 25.562 117.995 25.562ZM117.91 26.976C119.107 26.976 119.613 27.998 119.613 29.16C119.613 30.602 118.867 31.316 117.995 31.316C116.925 31.316 116.292 30.42 116.292 29.132C116.292 27.802 116.967 26.976 117.91 26.976Z" fill="#231F20"/>
<path d="M125.524 25.562C124.299 25.562 123.314 25.912 122.681 26.122C122.624 26.136 122.624 26.178 122.624 26.192C122.653 26.388 122.667 26.85 122.667 27.018V35.404C122.667 35.474 122.681 35.488 122.765 35.488C122.836 35.488 123.779 35.404 124.271 35.348C124.356 35.334 124.37 35.292 124.37 35.236V32.716C124.496 32.73 124.637 32.744 124.792 32.744C126.917 32.744 129 31.484 129 28.922C129 27.13 127.846 25.562 125.524 25.562ZM125.369 27.004C126.565 27.004 127.255 27.76 127.255 29.034C127.255 30.672 126.03 31.316 124.933 31.316C124.75 31.316 124.524 31.316 124.37 31.274V27.144C124.679 27.046 124.989 27.004 125.369 27.004Z" fill="#231F20"/>
</svg>
