<svg width="155" height="45" viewBox="0 0 155 45" fill="none" xmlns="http://www.w3.org/2000/svg">
<path d="M48.2324 34.7315C48.6 35.5052 48.5435 36.6933 49.0524 37.3011C49.109 37.3287 49.1373 37.3564 49.1938 37.384C52.276 37.2183 52.4456 33.7921 50.947 32.1895C50.2683 31.5817 49.3069 31.3054 48.1193 31.8027C42.0116 34.3723 36.1584 32.7422 32.6239 29.1779C30.7011 27.3266 29.4003 24.8952 29.0893 22.2703C28.1279 13.9536 35.1405 8.67626 39.9474 8.09602C44.2737 7.59868 48.289 9.06308 51.0318 11.7985C54.0008 14.672 55.5843 19.01 54.6229 23.9834C54.1987 26.2491 52.8132 29.095 49.7028 29.095C48.4304 29.095 47.2145 28.57 46.3379 27.6582C45.5462 26.9122 44.9806 25.8899 44.9241 24.7018C44.6131 20.198 50.5794 18.9547 50.1835 14.4233C50.1269 13.622 49.7593 12.9037 49.1938 12.3235C47.3841 10.638 43.7648 10.0025 40.4847 10.6656C36.4129 11.4669 32.5107 15.0865 31.8321 19.4244C31.2666 22.9334 32.539 26.9398 35.2253 29.6476C37.6005 31.9409 41.022 33.2119 45.2634 32.2448C46.6207 31.9409 47.6669 30.6975 49.9007 31.0291C50.6925 31.1396 51.3428 31.4988 51.7952 31.9961C53.5766 33.6263 53.2939 37.0524 50.9753 37.8261C49.7593 38.2406 47.5821 37.909 46.6207 36.8867L46.5924 36.859C46.4793 36.8038 46.3662 36.6933 46.2531 36.5827C45.8855 36.2788 45.631 35.6986 45.6875 35.0354C45.7441 34.096 46.3662 33.3776 47.0448 33.4329C47.3276 33.4605 47.5821 33.5987 47.7517 33.8197C47.9779 34.0407 48.1476 34.3447 48.2324 34.7315Z" fill="#524F54"/>
<path d="M88.7421 22.1553C88.9958 21.8226 89.1367 21.4621 89.2212 21.0739C89.3058 20.7135 89.3341 20.3807 89.3341 20.0757C89.3341 19.6598 89.2779 19.2439 89.1933 18.828C89.1087 18.412 88.9396 18.0238 88.6855 17.7188C88.4317 17.3861 88.0934 17.1365 87.6705 16.9424C87.2472 16.7483 86.7398 16.6651 86.1194 16.6651H84.5962V23.4308H85.7244C86.5139 23.4308 87.1626 23.3199 87.6422 23.0704C88.1217 22.8208 88.5163 22.5158 88.7421 22.1553ZM92.0698 19.5489C92.0698 20.353 91.9006 21.0462 91.5902 21.6562C91.2802 22.2663 90.829 22.7654 90.2649 23.1813C89.7008 23.5695 89.1087 23.8745 88.4317 24.0686C87.7551 24.2627 87.0497 24.3459 86.3165 24.3459H84.5962V28.9765C84.5962 29.2261 84.6528 29.4479 84.7374 29.642C84.822 29.8361 84.9911 29.9747 85.2732 30.0856C85.414 30.1411 85.6398 30.1688 85.9781 30.2243C86.3165 30.2797 86.6268 30.3075 86.9089 30.3075V31.0838H80.2252V30.3075C80.3944 30.2797 80.6481 30.252 80.9864 30.2243C81.3251 30.1965 81.5506 30.1411 81.6914 30.0856C81.9172 30.0025 82.0864 29.8638 82.1709 29.6697C82.2555 29.4756 82.3122 29.2538 82.3122 28.9765V17.9684C82.3122 17.7188 82.2838 17.497 82.1993 17.2752C82.1147 17.0533 81.9455 16.9147 81.6914 16.8315C81.4097 16.7483 81.1277 16.6651 80.8735 16.6374C80.5919 16.6097 80.3661 16.582 80.1686 16.5542V15.7778H87.2755C88.7138 15.7778 89.8983 16.1105 90.8007 16.8038C91.6186 17.497 92.0698 18.412 92.0698 19.5489ZM79.4353 16.5542C79.2382 16.5542 79.0407 16.6097 78.8149 16.6929C78.5612 16.7761 78.3637 16.8592 78.1383 16.9979C77.8842 17.1642 77.6871 17.3306 77.5179 17.5524C77.3484 17.7743 77.2359 18.0516 77.0946 18.412C76.5872 20.0757 75.9668 22.0167 75.2898 24.235C74.6131 26.4532 73.8515 28.8101 73.062 31.3334H72.0467L68.1266 19.5489L64.0374 31.3334H63.0785C62.3453 28.8101 61.612 26.2037 60.8506 23.4863C60.0609 20.7689 59.5533 18.9666 59.2995 18.0516C59.2431 17.8297 59.1303 17.6356 59.0175 17.4415C58.8765 17.2752 58.7073 17.1088 58.4816 16.9701C58.2842 16.8592 58.0868 16.7483 57.833 16.6929C57.5792 16.6374 57.3536 16.582 57.1562 16.582V15.7778H63.5015V16.5542C62.9375 16.582 62.4863 16.6374 62.0915 16.7206C61.6966 16.8038 61.4992 16.9424 61.4992 17.1088C61.4992 17.1642 61.4992 17.2752 61.5274 17.3861C61.5556 17.497 61.5556 17.6079 61.5838 17.6633C61.753 18.3011 62.0633 19.3271 62.4863 20.7967C62.9093 22.2663 63.5297 24.4291 64.3758 27.3405L68.2676 15.9997H69.3394L73.2591 27.5901C73.7953 25.8155 74.2465 24.235 74.6131 22.904C74.9798 21.5731 75.3181 20.4362 75.5435 19.4934C75.7127 18.828 75.8256 18.3565 75.8822 18.107C75.9385 17.8574 75.9385 17.6633 75.9385 17.4692C75.9385 17.2197 75.7693 17.0256 75.431 16.8592C75.0923 16.6929 74.5286 16.582 73.767 16.5265V15.7778H79.4074L79.4353 16.5542Z" fill="#33879E"/>
<path d="M125.857 26.6921L125.516 31.3053H113.265V30.5177C113.435 30.4895 113.691 30.4614 114.032 30.4333C114.373 30.4051 114.601 30.3489 114.743 30.2926C114.97 30.2082 115.141 30.0676 115.226 29.8707C115.311 29.6738 115.368 29.4487 115.368 29.1674V18.0844C115.368 17.8313 115.311 17.6343 115.226 17.4375C115.141 17.2406 114.97 17.0999 114.714 16.9874C114.544 16.903 114.316 16.8186 114.004 16.7342C113.691 16.6498 113.435 16.5936 113.236 16.5936V15.7778H119.86V16.5655C119.66 16.5655 119.376 16.6217 119.063 16.678C118.722 16.7342 118.495 16.8186 118.353 16.8468C118.097 16.9311 117.927 17.0718 117.841 17.2968C117.756 17.4937 117.699 17.7469 117.699 17.9719V28.4079C117.699 28.8861 117.727 29.2518 117.756 29.5331C117.813 29.7863 117.927 30.0113 118.097 30.152C118.268 30.2926 118.523 30.377 118.865 30.4051C119.206 30.4614 119.66 30.4614 120.257 30.4614C120.542 30.4614 120.826 30.4614 121.11 30.4333C121.394 30.4333 121.679 30.377 121.963 30.3489C122.219 30.2926 122.446 30.2364 122.674 30.1801C122.901 30.0957 123.043 30.0113 123.157 29.8988C123.469 29.5612 123.81 29.0549 124.208 28.3798C124.607 27.7047 124.891 27.1421 125.033 26.7202H125.857V26.6921ZM112.611 31.3053H105.675V30.5177C105.931 30.5177 106.244 30.4895 106.641 30.4333C107.039 30.377 107.295 30.3207 107.438 30.2364C107.665 30.0957 107.835 29.9551 107.949 29.7582C108.063 29.5894 108.12 29.3643 108.12 29.083V17.8313H107.949L102.605 31.0521H102.065L96.9768 17.55H96.8348V26.8046C96.8348 27.7047 96.8915 28.3798 97.0053 28.858C97.1191 29.3081 97.2896 29.6456 97.5454 29.8707C97.7159 30.0394 98.0569 30.1801 98.5402 30.3207C99.0517 30.4614 99.3931 30.5458 99.5351 30.5458V31.3334H93.196L93.4522 30.5458C93.7646 30.5177 93.8784 30.4614 94.248 30.377C94.6175 30.2926 94.9018 30.1801 95.1009 30.0113C95.3566 29.8144 95.5271 29.505 95.6409 29.083C95.7262 28.6611 95.7829 27.9579 95.7829 26.9734V19.0127C95.7829 18.5626 95.7262 18.1688 95.6124 17.8875C95.4986 17.6063 95.3566 17.3531 95.129 17.1843C94.9018 16.9874 94.6175 16.8468 94.3047 16.7342C93.9637 16.6498 93.6508 16.5936 93.3098 16.5655V15.7778H98.654L103.145 27.3953L106.954 17.6906C107.096 17.325 107.21 16.9593 107.324 16.5655C107.409 16.1716 107.466 15.9185 107.494 15.7778H112.611V16.5655C112.412 16.5655 112.156 16.5936 111.815 16.6498C111.502 16.7061 111.275 16.7624 111.104 16.8186C110.848 16.903 110.678 17.0437 110.593 17.2687C110.507 17.4656 110.451 17.6906 110.451 17.9438V29.1393C110.451 29.3925 110.507 29.6175 110.593 29.7863C110.678 29.9551 110.848 30.1238 111.104 30.2364C111.246 30.3207 111.474 30.377 111.815 30.4333C112.156 30.4895 112.412 30.5458 112.611 30.5458V31.3053Z" fill="#C9471F"/>
</svg>
