<svg width="155" height="45" viewBox="0 0 155 45" fill="none" xmlns="http://www.w3.org/2000/svg">
<path fill-rule="evenodd" clip-rule="evenodd" d="M118.529 33C124.033 33 128.495 28.5232 128.495 23C128.495 17.4768 124.033 13 118.529 13C113.025 13 108.562 17.4768 108.562 23C108.562 28.5232 113.025 33 118.529 33ZM116.942 16.66C116.879 16.5593 116.784 16.4826 116.673 16.4424C116.561 16.4022 116.44 16.4008 116.327 16.4384C116.066 16.531 115.81 16.6398 115.562 16.764C115.456 16.8204 115.372 16.9098 115.321 17.0187C115.271 17.1276 115.258 17.25 115.283 17.3672L115.454 18.2344C115.474 18.344 115.464 18.457 115.426 18.5615C115.387 18.666 115.321 18.7583 115.235 18.8288C114.959 19.0587 114.708 19.3166 114.486 19.5984C114.419 19.686 114.33 19.7535 114.228 19.7935C114.125 19.8334 114.014 19.8443 113.906 19.8248L113.058 19.6528C112.942 19.6279 112.821 19.6428 112.715 19.695C112.608 19.7473 112.522 19.8338 112.47 19.9408C112.349 20.1954 112.244 20.4572 112.155 20.7248C112.118 20.8391 112.119 20.9624 112.159 21.0759C112.198 21.1894 112.274 21.2869 112.374 21.3536L113.094 21.8432C113.278 21.9696 113.371 22.1952 113.349 22.4216C113.313 22.7864 113.314 23.1504 113.351 23.5096C113.364 23.62 113.348 23.7319 113.303 23.8338C113.259 23.9357 113.188 24.0237 113.098 24.0888L112.379 24.5808C112.279 24.6478 112.204 24.7456 112.165 24.8592C112.126 24.9729 112.125 25.0962 112.162 25.2104C112.253 25.4776 112.359 25.7384 112.481 25.9928C112.533 26.0996 112.619 26.186 112.726 26.2379C112.832 26.2898 112.954 26.3044 113.07 26.2792L113.918 26.104C114.026 26.0842 114.137 26.0946 114.239 26.1341C114.342 26.1737 114.431 26.2408 114.498 26.328C114.72 26.608 114.971 26.8656 115.249 27.096C115.335 27.1661 115.402 27.2582 115.441 27.3626C115.479 27.467 115.49 27.5799 115.47 27.6896L115.302 28.5576C115.277 28.6749 115.291 28.7971 115.342 28.9058C115.393 29.0144 115.478 29.1034 115.584 29.1592C115.832 29.2829 116.088 29.3908 116.35 29.4824C116.729 29.6152 117.26 29.1384 117.653 28.7856C117.75 28.6999 117.828 28.5947 117.882 28.4769C117.937 28.3591 117.965 28.2313 117.967 28.1016V26.6464C117.967 26.6304 117.968 26.6152 117.97 26.6C116.809 26.3168 115.946 25.248 115.946 23.9728V22.432C115.946 22.3144 116.039 22.22 116.154 22.22H116.872V20.7032C116.871 20.6039 116.91 20.5083 116.979 20.4372C117.048 20.3662 117.143 20.3255 117.242 20.324C117.447 20.324 117.613 20.4944 117.613 20.7032V22.22H119.557V20.7032C119.557 20.4944 119.722 20.324 119.927 20.324C120.132 20.324 120.298 20.4944 120.298 20.7032V22.22H121.016C121.13 22.22 121.223 22.3144 121.223 22.432V23.9728C121.223 25.288 120.306 26.384 119.09 26.6248L119.09 26.6464V28.0912C119.09 28.36 119.213 28.6112 119.413 28.7856C119.812 29.1352 120.353 29.608 120.73 29.4736C120.991 29.3816 121.246 29.2728 121.495 29.148C121.601 29.0918 121.686 29.0025 121.736 28.8937C121.786 28.785 121.8 28.6627 121.774 28.5456L121.603 27.6776C121.583 27.5681 121.593 27.4553 121.632 27.351C121.67 27.2466 121.736 27.1544 121.822 27.084C122.095 26.856 122.346 26.5992 122.572 26.3144C122.638 26.2267 122.728 26.159 122.83 26.1189C122.932 26.0788 123.044 26.0678 123.152 26.0872L123.999 26.2592C124.238 26.3072 124.481 26.1952 124.587 25.9712C124.708 25.7166 124.814 25.4548 124.902 25.1872C124.939 25.073 124.938 24.9499 124.899 24.8366C124.859 24.7232 124.784 24.6258 124.684 24.5592L123.964 24.0696C123.873 24.0048 123.802 23.9169 123.757 23.815C123.712 23.7131 123.695 23.601 123.709 23.4904C123.744 23.1288 123.744 22.7646 123.706 22.4032C123.693 22.2928 123.71 22.1809 123.754 22.079C123.799 21.9771 123.87 21.8891 123.96 21.824L124.678 21.3312C124.778 21.2642 124.853 21.1665 124.892 21.053C124.931 20.9395 124.932 20.8164 124.894 20.7024C124.804 20.4351 124.698 20.1735 124.576 19.9192C124.524 19.8125 124.438 19.7263 124.331 19.6745C124.225 19.6227 124.104 19.6083 123.988 19.6336L123.14 19.808C123.032 19.8278 122.921 19.8174 122.818 19.7779C122.716 19.7383 122.627 19.6712 122.56 19.584C122.336 19.3031 122.085 19.0457 121.809 18.816C121.722 18.7461 121.656 18.6542 121.617 18.5499C121.578 18.4456 121.568 18.3328 121.587 18.2232L121.755 17.3552C121.78 17.2379 121.766 17.1157 121.716 17.007C121.665 16.8984 121.58 16.8094 121.474 16.7536C121.225 16.6305 120.969 16.5226 120.708 16.4304C120.595 16.3932 120.474 16.3951 120.362 16.4357C120.251 16.4764 120.156 16.5534 120.094 16.6544L119.616 17.3904C119.555 17.4821 119.47 17.5551 119.37 17.6015C119.27 17.6478 119.16 17.6655 119.05 17.6528C118.697 17.6161 118.342 17.6166 117.989 17.6544C117.88 17.6677 117.769 17.6505 117.669 17.6047C117.57 17.559 117.484 17.4864 117.423 17.3952L116.942 16.66Z" fill="#005AE0"/>
<path d="M108.129 13.8126H94.8896V32.3694H108.207C107.591 31.076 107.104 29.7246 106.754 28.335H99.6584V24.9966H106.188C106.066 23.6451 106.068 22.2852 106.196 20.9342H99.6592V17.8462H106.714C107.051 16.4582 107.525 15.1071 108.129 13.8126V13.8126ZM84.9512 32.703C81.208 32.703 78.6016 31.535 76.744 29.7534L79.2672 26.1646C80.0423 26.9409 80.9629 27.5567 81.9762 27.9767C82.9896 28.3968 84.0758 28.6129 85.1728 28.6126C86.8088 28.6126 87.8072 27.9174 87.8072 27.027C87.8072 25.9702 86.6152 25.5526 84.6464 25.135L84.4896 25.1038C81.452 24.4958 77.3264 23.6694 77.3264 19.3486C77.3264 16.2326 79.96 13.5342 84.7024 13.5342C87.6688 13.5342 90.2472 14.4246 92.216 16.1214L89.6088 19.543C88.056 18.263 86.032 17.623 84.396 17.623C82.8152 17.623 82.2056 18.263 82.2056 19.071C82.2056 20.0438 83.3416 20.3782 85.3944 20.767C88.444 21.407 92.6584 22.2974 92.6584 26.499C92.6584 30.227 89.9136 32.703 84.9504 32.703H84.9512Z" fill="#005AE0"/>
<path d="M41.3512 32.3785H46.396L39.5968 14.3249H33.7712L27 32.3785H32.0448L32.9616 29.6449H40.4336L41.3512 32.3785ZM36.6848 18.3849L39.2208 25.7201H34.1752L36.6848 18.3849ZM48.5288 32.3785H53.1688V14.3249H48.5288V32.3785ZM55.488 23.3649C55.488 28.8593 59.6152 32.7025 65.1184 32.7025C70.6216 32.7025 74.7216 28.8593 74.7216 23.3649C74.7216 17.8705 70.6216 14.0273 65.1184 14.0273C59.6152 14.0273 55.488 17.8705 55.488 23.3649ZM70.0008 23.3649C70.0008 26.2881 68.0856 28.5889 65.1184 28.5889C62.124 28.5889 60.2088 26.2881 60.2088 23.3649C60.2088 20.4145 62.124 18.1409 65.1184 18.1409C68.0856 18.1409 70.0008 20.4145 70.0008 23.3649Z" fill="#141B38"/>
</svg>
