<svg width="100" height="70" viewBox="0 0 100 70" fill="none" xmlns="http://www.w3.org/2000/svg">
<g clip-path="url(#clip0_396_523)">
<path d="M25.7617 45.1795V34.8885H27.093L33.3904 43.1785V34.8887H34.6492V45.1795H33.3182L27.0213 36.8166V45.1795H25.7617V45.1795ZM44.868 44.7764C44.0383 45.0936 43.143 45.2516 42.1836 45.2516C38.4564 45.2516 36.592 43.4645 36.592 39.8902C36.592 36.5078 38.3912 34.8164 41.9889 34.8164C43.0211 34.8164 43.9809 34.9607 44.8678 35.249V36.4002C43.9807 36.0643 43.0686 35.8963 42.1328 35.8963C39.3266 35.8963 37.9238 37.2279 37.9238 39.8902C37.9238 42.7445 39.3047 44.1725 42.0689 44.1725C42.5098 44.1725 42.999 44.1146 43.5367 43.999V40.502H44.868V44.7764V44.7764ZM46.9912 41.207V34.8891H48.3213V41.2068C48.3213 43.1834 49.3053 44.1729 51.2725 44.1729C53.2393 44.1729 54.2232 43.1834 54.2232 41.2068V34.8891H55.5543V41.2068C55.5543 43.9041 54.1271 45.252 51.2727 45.252C48.4182 45.252 46.991 43.9043 46.991 41.207H46.9912ZM59.2602 34.8885V44.1004H64.6441V45.1795H57.9297V34.8885H59.2602ZM66.5648 45.1797H65.1834L70.2998 33.5312L75.4162 45.1797H73.9414L72.6094 41.9408H69.2066L69.5732 40.8627H72.1641L70.2426 36.1986L66.5648 45.1797V45.1797ZM76.8197 45.1795V34.8885H81.2096C83.1674 34.8885 84.1459 35.7117 84.1459 37.3568C84.1459 38.6957 83.1893 39.6865 81.2746 40.3287L84.8078 45.1795H83.052L79.7781 40.5525V39.6824C81.7447 39.3697 82.7279 38.6141 82.7279 37.4152C82.7279 36.4656 82.1811 35.9898 81.0879 35.9898H78.151V45.1799H76.8197V45.1795ZM89.7953 34.8885V42.2146C89.7953 44.1912 88.6316 45.1795 86.3045 45.1795V44.1C87.7439 44.1 88.4639 43.4709 88.4639 42.2146V34.8885H89.7953ZM92.1701 44.8195V43.5961C93.2498 43.9797 94.4152 44.1723 95.6676 44.1723C97.4379 44.1723 98.3234 43.5246 98.3234 42.2281C98.3234 41.1266 97.6703 40.5734 96.3656 40.5734H95.041C92.8873 40.5734 91.8096 39.6385 91.8096 37.7672C91.8096 35.8004 93.1896 34.816 95.9488 34.816C97.1479 34.816 98.2633 34.9611 99.2949 35.2486V36.4721C98.2629 36.0879 97.1479 35.8959 95.9488 35.8959C94.0775 35.8959 93.1422 36.5199 93.1422 37.7672C93.1422 38.8701 93.775 39.4221 95.041 39.4221H96.3656C98.5574 39.4221 99.6547 40.3582 99.6547 42.2281C99.6547 44.2437 98.3258 45.2516 95.6674 45.2516C94.4154 45.2516 93.2498 45.107 92.1701 44.8195V44.8195Z" fill="#CCCCCC"/>
<path d="M26.0996 44.8437V34.5527H27.4307L33.7275 42.843V34.5527H34.9871V44.8437H33.6559L27.3586 36.4807V44.8436H26.0996V44.8437ZM45.2057 44.4406C44.376 44.7578 43.4813 44.9156 42.5215 44.9156C38.7939 44.9156 36.9299 43.1289 36.9299 39.5543C36.9299 36.1721 38.7291 34.4805 42.3275 34.4805C43.3588 34.4805 44.3187 34.625 45.2057 34.9129V36.0641C44.3186 35.7281 43.4064 35.5602 42.4713 35.5602C39.665 35.5602 38.2619 36.892 38.2619 39.5543C38.2619 42.4086 39.6434 43.8365 42.4068 43.8365C42.8479 43.8365 43.3377 43.7789 43.8752 43.6631V40.1658H45.2059L45.2057 44.4406ZM47.3287 40.8709V34.5521H48.659V40.8709C48.659 42.8475 49.643 43.8361 51.6102 43.8361C53.5769 43.8361 54.5607 42.8471 54.5607 40.8709V34.5521H55.8918V40.8709C55.8918 43.568 54.4646 44.9152 51.6103 44.9152C48.7559 44.9152 47.3287 43.5682 47.3287 40.8709ZM59.598 34.5521V43.7641H64.9813V44.8432H58.2674V34.5521H59.598ZM66.9025 44.8436H65.5211L70.6377 33.1943L75.7541 44.8436H74.2783L72.9473 41.6049H69.5436L69.9111 40.5258H72.5012L70.5803 35.8617L66.9025 44.8436V44.8436ZM77.1574 44.8437V34.5527H81.5473C83.5051 34.5527 84.4828 35.3754 84.4828 37.0211C84.4828 38.3594 83.5268 39.3508 81.6123 39.9928L85.1455 44.8437H83.3889L80.1154 40.2164V39.3455C82.0822 39.033 83.066 38.2781 83.066 37.0783C83.066 36.1289 82.5186 35.6539 81.4248 35.6539H78.4887V44.8437H77.1574V44.8437Z" fill="black"/>
<path d="M90.133 34.552V41.8783C90.133 43.8555 88.9697 44.843 86.6426 44.843V43.7637C88.082 43.7637 88.8018 43.1342 88.8018 41.8779V34.5518H90.1332L90.133 34.552ZM92.5074 44.483V43.2598C93.5875 43.6434 94.7527 43.8359 96.0051 43.8359C97.7754 43.8359 98.6607 43.1879 98.6607 41.8924C98.6607 40.79 98.0078 40.2375 96.7029 40.2375H95.3783C93.2248 40.2375 92.1471 39.302 92.1471 37.4307C92.1471 35.4639 93.5266 34.4795 96.2863 34.4795C97.4852 34.4795 98.6008 34.6248 99.6324 34.9123V36.1357C98.6002 35.7514 97.4852 35.5596 96.2863 35.5596C94.4148 35.5596 93.4795 36.1834 93.4795 37.4307C93.4795 38.5338 94.1119 39.0855 95.3783 39.0855H96.7029C98.8947 39.0855 99.992 40.0213 99.992 41.8922C99.992 43.9076 98.6633 44.915 96.0049 44.915C94.7529 44.915 93.5873 44.7705 92.5074 44.483V44.483Z" fill="#A6120D"/>
<path d="M12.0988 26.6271L0.0800781 30.8568L1.97949 46.6033L12.1117 52.1723L22.2961 46.5277L24.1945 30.782L12.099 26.627L12.0988 26.6271Z" fill="#B3B3B3"/>
<path d="M22.9949 31.6924L12.0703 27.9668V50.8422L21.226 45.775L22.9953 31.6924H22.9949Z" fill="#A6120D"/>
<path d="M1.42969 31.759L3.05703 45.8416L12.0715 50.8416V27.9658L1.42969 31.7588V31.759Z" fill="#DD1B16"/>
<path d="M15.0789 40.1437L12.0717 41.55H8.90195L7.41211 45.2768L4.64062 45.3281L12.0717 28.7969L15.0789 40.1437ZM14.7881 39.4359L12.0916 34.0973L9.87969 39.3439H12.0715L14.7883 39.4357L14.7881 39.4359Z" fill="#F2F2F2"/>
<path d="M12.0705 28.7969L12.0904 34.0973L14.6002 39.348H12.0762L12.0703 41.5467L15.5607 41.55L17.192 45.3287L19.8437 45.3779L12.0703 28.7969H12.0705Z" fill="#B3B3B3"/>
</g>
<defs>
<clipPath id="clip0_396_523">
<rect width="100" height="25.8" fill="white" transform="translate(0 26.5)"/>
</clipPath>
</defs>
</svg>
