<svg width="155" height="45" viewBox="0 0 155 45" fill="none" xmlns="http://www.w3.org/2000/svg">
<path d="M58.6784 17.199C58.7441 17.1872 58.798 17.1688 58.8516 17.1689C61.0653 17.1774 63.2791 17.1741 65.4925 17.2045C66.2468 17.2148 66.94 17.4766 67.5597 17.9105C68.9743 18.9007 69.1049 21.7294 67.163 22.744C67.0642 22.7956 66.9659 22.8478 66.8317 22.9183C67.2007 23.0849 67.5638 23.1966 67.8681 23.3954C69.0361 24.1587 69.5118 25.8665 68.989 27.3664C68.5327 28.6751 67.4493 29.2155 66.1895 29.503C65.7757 29.5974 65.3424 29.6464 64.9174 29.6494C62.8481 29.6641 60.7787 29.656 58.6782 29.656C58.6784 25.5084 58.6784 21.3603 58.6784 17.199V17.199ZM60.8916 27.8303C62.4307 27.8303 63.9253 27.8648 65.4172 27.8179C66.355 27.7884 67.0327 26.7995 66.9763 25.8377C66.9207 24.8897 66.3272 24.0834 65.4098 24.0413C63.9308 23.9733 62.4478 23.9925 60.9663 23.9773C60.9442 23.9772 60.9217 24.0092 60.8915 24.0323L60.8916 27.8303V27.8303ZM60.8968 22.3544C62.2724 22.3544 63.599 22.4037 64.9197 22.338C65.8923 22.2896 66.4413 21.5247 66.4049 20.4789C66.3727 19.5531 65.8169 18.9962 64.8163 18.9702C63.5618 18.9378 62.3058 18.9528 61.0504 18.9499C60.9993 18.9498 60.9482 18.9769 60.8968 18.9913V22.3544V22.3544ZM129.494 20.6431H131.339V21.6159C131.545 21.46 131.795 21.287 132.026 21.092C133.44 19.8983 136.793 20.0448 137.941 22.4486C138.929 24.5173 138.886 26.5977 137.553 28.5237C136.814 29.5904 135.671 29.9716 134.375 29.903C133.25 29.8433 132.259 29.4953 131.48 28.4705V33.0066H129.494C129.494 28.8817 129.494 24.7741 129.494 20.6431V20.6431ZM131.369 25.1983C131.452 25.6513 131.497 26.1152 131.626 26.5555C131.913 27.538 132.786 28.2646 133.691 28.3274C134.901 28.4113 135.771 27.9715 136.208 26.916C136.764 25.5746 136.744 24.2217 135.932 22.9681C134.973 21.4893 132.676 21.6129 131.864 23.1621C131.53 23.7998 131.366 24.471 131.369 25.1983V25.1983ZM128.187 28.3656C128.187 28.7363 128.2 29.1128 128.177 29.4874C128.172 29.5799 128.054 29.736 127.977 29.7425C127.402 29.7896 126.817 29.8722 126.249 29.8139C125.748 29.7624 125.472 29.3448 125.317 28.8618C124.128 29.8141 122.765 30.02 121.314 29.8432C120.101 29.6955 119.096 28.7157 119.01 27.6279C118.891 26.1286 119.476 25.1524 120.845 24.7969C121.805 24.5478 122.804 24.4477 123.786 24.2794C124.024 24.2386 124.265 24.2053 124.498 24.1428C124.944 24.0229 125.266 23.7796 125.299 23.2794C125.333 22.7624 125.129 22.3596 124.635 22.1639C123.792 21.8302 122.934 21.8385 122.104 22.2206C121.725 22.3948 121.5 22.7455 121.302 23.3412H119.357C119.358 22.6118 119.616 21.9988 120.109 21.4826C120.76 20.8008 121.607 20.5331 122.521 20.4392C123.477 20.3408 124.427 20.3452 125.356 20.6533C126.605 21.0675 127.203 21.8781 127.201 23.1757C127.2 24.5532 127.201 25.9307 127.201 27.3083C127.2 28.286 127.2 28.286 128.187 28.3656V28.3656ZM125.181 25.2572C124.568 25.3616 124.007 25.4417 123.453 25.5556C122.871 25.6754 122.278 25.7791 121.723 25.9791C121.179 26.1753 120.994 26.6756 121.012 27.2129C121.029 27.7265 121.385 28.0143 121.845 28.1723C122.634 28.4433 123.424 28.4099 124.176 28.0639C124.715 27.8161 125.125 27.4109 125.173 26.7919C125.213 26.2762 125.181 25.7552 125.181 25.2572V25.2572ZM75.1333 20.3828C78.1836 20.3475 79.9724 22.547 79.7837 25.5418C79.7182 26.5827 79.4338 27.5555 78.7373 28.3782C77.9867 29.2646 77.0209 29.7314 75.8631 29.858C74.8962 29.964 73.9567 29.9017 73.0608 29.5018C71.7267 28.906 70.9656 27.8663 70.6455 26.4809C70.426 25.5314 70.4356 24.5859 70.6817 23.6467C71.2246 21.5748 72.8465 20.3908 75.1333 20.3828V20.3828ZM72.478 25.1619C72.5581 25.6015 72.5999 26.0521 72.7256 26.4787C73.0456 27.5648 73.917 28.2819 74.9134 28.3294C76.145 28.3881 77.0067 27.8785 77.4644 26.7501C77.9113 25.6484 77.912 24.521 77.422 23.4326C76.6961 21.8202 74.7184 21.4079 73.445 22.6064C72.7188 23.2897 72.5313 24.1977 72.478 25.1619ZM85.7163 20.3829C88.4675 20.3787 90.3395 22.2024 90.3743 24.9149C90.3891 26.0603 90.1994 27.1525 89.5159 28.112C88.5375 29.4856 87.1242 29.9662 85.4971 29.8933C84.8977 29.8664 84.2762 29.7354 83.7175 29.5197C82.4057 29.0132 81.6235 28.0158 81.2759 26.6809C80.9708 25.5087 81.0047 24.3439 81.3929 23.1982C81.9881 21.4407 83.6209 20.386 85.7163 20.3829V20.3829ZM88.3534 24.9183C88.309 24.6778 88.2652 24.2129 88.1334 23.7735C87.7982 22.656 86.9124 21.9775 85.7964 21.9298C84.7454 21.8848 83.8 22.4944 83.3924 23.562C82.9122 24.8195 82.9476 26.0721 83.671 27.2437C84.4247 28.4643 86.1332 28.7318 87.2536 27.8211C88.1085 27.1262 88.3177 26.1668 88.3534 24.9183V24.9183ZM105.364 23.1487C104.736 23.1487 104.124 23.1538 103.513 23.1423C103.438 23.1409 103.321 23.0667 103.297 23.0003C102.953 22.0615 102.145 21.9499 101.309 21.9452C100.962 21.9431 100.593 22.0261 100.272 22.1586C99.5864 22.4416 99.5102 23.2051 100.153 23.5708C100.599 23.8245 101.123 23.9608 101.626 24.1001C102.338 24.2973 103.072 24.4161 103.779 24.6262C105.588 25.1638 106.294 26.9472 105.282 28.4173C104.796 29.1223 104.07 29.504 103.237 29.7017C102.007 29.9939 100.781 30.0153 99.5783 29.588C98.2914 29.1306 97.6115 28.2127 97.5112 26.8232H99.4749C100.033 28.2569 101.611 28.8152 103.089 28.0826C103.431 27.913 103.659 27.6719 103.682 27.2755C103.707 26.8518 103.54 26.4875 103.154 26.3457C102.465 26.0929 101.745 25.9195 101.037 25.7155C100.451 25.5464 99.8468 25.4243 99.2814 25.2042C98.1906 24.7793 97.7166 24.0482 97.7233 22.9336C97.7291 21.9615 98.3068 21.1285 99.3311 20.7632C100.741 20.2603 102.18 20.1978 103.596 20.7435C104.553 21.1124 105.124 21.8399 105.361 22.8194C105.382 22.9099 105.364 23.0101 105.364 23.1487ZM94.702 20.6179H96.5196V22.0799H94.7385C94.7259 22.255 94.7097 22.3775 94.7095 22.5C94.7078 23.9756 94.7071 25.4512 94.7102 26.9266C94.7106 27.123 94.726 27.3199 94.7457 27.5155C94.7848 27.9057 95.005 28.1374 95.4044 28.1588C95.7704 28.1786 96.1384 28.163 96.5259 28.163V29.6249C95.6958 29.827 94.8521 29.8163 94.0353 29.6373C93.0843 29.429 92.6979 28.7853 92.6896 27.5669C92.6781 25.9087 92.6862 24.2502 92.6858 22.5919V22.1044H91.1763V20.6257H92.6654V17.918H94.7022C94.702 18.8037 94.702 19.6829 94.702 20.6179ZM111.7 29.6812C110.918 29.6812 110.178 29.7052 109.44 29.6744C108.725 29.6445 108.174 29.178 108.018 28.4816C107.929 28.0845 107.882 27.6794 107.877 27.2728C107.861 25.7127 107.871 24.1521 107.871 22.5918V22.0984H106.366V20.6393H107.848V17.9206H109.889V20.5952H111.698V22.0649H109.962C109.941 22.1974 109.914 22.2889 109.914 22.3807C109.913 23.9692 109.908 25.5577 109.918 27.146C109.924 27.986 110.147 28.1882 110.994 28.1823C111.22 28.1808 111.446 28.1821 111.7 28.1821L111.7 29.6812V29.6812ZM115.095 20.6481V22.1864C115.879 20.8775 116.963 20.1955 118.565 20.428V22.3257C117.804 22.2132 117.07 22.1931 116.42 22.6526C115.567 23.2555 115.27 24.1365 115.249 25.1076C115.216 26.6089 115.24 28.1115 115.24 29.6464H113.241V20.648C113.847 20.6481 114.439 20.6481 115.095 20.6481V20.6481Z" fill="#573E7D"/>
<path fill-rule="evenodd" clip-rule="evenodd" d="M24.6349 8C22.5375 8 20.9855 9.88077 21.055 11.9204C21.1217 13.88 21.0351 16.4179 20.4115 18.4875C19.7856 20.563 18.7279 21.8782 17 22.047V23.953C18.7279 24.1221 19.7856 25.4367 20.4114 27.5125C21.0351 29.5821 21.1216 32.12 21.055 34.0796C20.9855 36.1189 22.5374 38 24.6352 38H46.1267C48.2241 38 49.7757 36.1192 49.7063 34.0796C49.6396 32.12 49.7262 29.5821 50.3498 27.5125C50.9756 25.4367 52.0307 24.1216 53.7588 23.953V22.047C52.0308 21.8779 50.9757 20.5633 50.3498 18.4875C49.7261 16.4182 49.6396 13.88 49.7063 11.9204C49.7757 9.88107 48.2241 8 46.1267 8H24.6349ZM41.9212 26.467C41.9212 29.2755 39.8764 30.9788 36.4831 30.9788H30.7066C30.5414 30.9788 30.3829 30.9115 30.2661 30.7918C30.1492 30.6721 30.0836 30.5097 30.0836 30.3405V15.6596C30.0836 15.4903 30.1492 15.328 30.2661 15.2083C30.3829 15.0886 30.5414 15.0213 30.7066 15.0213H36.4502C39.2797 15.0213 41.1367 16.5915 41.1367 19.0023C41.1367 20.6945 39.8874 22.2093 38.296 22.4747V22.5629C40.4624 22.8064 41.9212 24.3437 41.9212 26.467ZM35.8532 17.0447H32.5596V21.811H35.3336C37.4781 21.811 38.6606 20.9263 38.6606 19.345C38.6604 17.863 37.6438 17.0447 35.8532 17.0447ZM32.5596 23.7021V28.9547H35.9744C38.2072 28.9547 39.3899 28.0368 39.3899 26.3118C39.3899 24.5869 38.1741 23.7019 35.8308 23.7019L32.5596 23.7021Z" fill="#7952B3"/>
</svg>
