<svg width="155" height="45" viewBox="0 0 155 45" fill="none" xmlns="http://www.w3.org/2000/svg">
<path d="M29.6585 19.8334H39.2163V22.5194L35.6221 22.7955C29.8162 23.2304 28 24.7667 28 29.0757V29.9445C28 33.0983 30.2117 35 33.6075 35C36.2936 35 37.8338 34.3678 39.7301 32.4321H40.0455V34.4861H43.8762V15.6465H29.6585V19.8334ZM39.2163 28.9181C38.0335 30.1007 36.2542 30.8893 34.7929 30.8893C33.2159 30.8893 32.5417 30.2966 32.5811 28.9929C32.6206 27.1768 33.2921 26.7418 36.333 26.4658L39.2163 26.1899V28.9181Z" fill="#FF8800"/>
<path fill-rule="evenodd" clip-rule="evenodd" d="M51.9319 15.6482H59.3174V19.4791H63.3453V34.4866H58.646V19.8746H51.9319V34.4866H47.2312V10H51.9319V15.6482ZM120.656 23.2309L117.812 22.9537C116.235 22.7959 115.841 22.4017 115.841 21.1376C115.841 19.7155 116.394 19.3595 118.6 19.3595C120.572 19.3595 121.127 19.6761 121.405 21.0193H125.828C125.71 16.517 124.328 15.3684 118.837 15.3684C112.834 15.3684 111.333 16.5144 111.333 21.1348C111.333 25.3612 112.438 26.5058 116.902 26.9408L119.232 27.1772C121.326 27.3744 121.838 27.7699 121.838 29.0342C121.838 30.5744 121.206 30.9686 118.64 30.9686C116.388 30.9686 115.796 30.6139 115.678 29.1526H111.21C111.328 33.8124 112.75 34.9978 118.437 34.9978C124.756 34.9978 126.335 33.7337 126.335 28.5993C126.342 24.7711 125.197 23.6645 120.656 23.2309ZM96.4602 23.5858C96.4602 17.5039 94.3681 15.371 88.3638 15.371C82.4395 15.371 80.1095 18.1307 80.1095 25.0077C80.1095 32.5127 82.1636 34.9952 88.7987 34.9952C93.5782 34.9952 95.5915 33.5339 96.263 29.4258H91.7213C91.2075 30.6953 90.6555 30.9712 88.7264 30.9712C85.8037 30.9712 85.0533 30.1421 84.8957 26.6267H96.1512C96.3398 25.6235 96.4431 24.6063 96.4602 23.5858ZM84.9286 22.9142C84.9679 20.2688 86.0337 19.2819 88.5621 19.2819C90.9709 19.2819 91.958 20.2688 92.038 22.9142H84.9286ZM99.1961 16.4763V34.4866H103.897V19.6761H109.548V15.6469H103.897V15.1344C103.935 14.0279 104.212 13.7125 105.12 13.7125H110.255V10H104.724C100.973 10 99.1961 11.1447 99.1961 16.4763ZM71.4914 34.4866H66.7918V15.6482H78.4825V20.0718H71.4914V34.4866Z" fill="black"/>
</svg>
