<svg width="155" height="45" viewBox="0 0 155 45" fill="none" xmlns="http://www.w3.org/2000/svg">
<path d="M94.1957 25.098C92.5631 25.1071 91.1494 25.4993 89.9637 26.0831C89.5259 25.2166 89.0881 24.4595 89.0153 23.8942C88.9332 23.2375 88.8329 22.8361 88.9332 22.0518C89.0334 21.2674 89.4895 20.1546 89.4895 20.0634C89.4802 19.9813 89.3891 19.5801 88.4497 19.5709C87.5104 19.5619 86.6986 19.7533 86.6074 19.9996C86.5162 20.2459 86.3338 20.8113 86.2152 21.3951C86.051 22.2524 84.3364 25.2895 83.3605 26.8856C83.0412 26.2654 82.7676 25.7182 82.7128 25.2803C82.6308 24.6238 82.5304 24.2223 82.6308 23.4381C82.7312 22.6536 83.1872 21.5409 83.1872 21.4498C83.178 21.3676 83.0869 20.9664 82.1475 20.9572C81.208 20.9482 80.3964 21.1397 80.3052 21.3859C80.214 21.6322 80.1137 22.2159 79.913 22.7814C79.7214 23.3469 77.4412 28.4179 76.8484 29.7404C76.5474 30.4152 76.283 30.9534 76.0914 31.3182C75.8998 31.683 76.0823 31.3456 76.064 31.382C75.8998 31.6921 75.8086 31.8654 75.8086 31.8654V31.8746C75.681 32.1026 75.5441 32.3215 75.4802 32.3215C75.4346 32.3215 75.3434 31.7104 75.4984 30.8714C75.8359 29.111 76.6568 26.3658 76.6477 26.2655C76.6477 26.2199 76.8027 25.7364 76.1187 25.4903C75.4529 25.244 75.2158 25.6544 75.161 25.6544C75.1063 25.6544 75.0606 25.8003 75.0606 25.8003C75.0606 25.8003 75.7994 22.7086 73.647 22.7086C72.2971 22.7086 70.4365 24.1769 69.5154 25.5177C68.9317 25.837 67.6913 26.5118 66.3779 27.2323C65.8762 27.506 65.3564 27.7978 64.8639 28.0623L64.7636 27.9527C62.1552 25.171 57.3304 23.201 57.5311 19.4615C57.604 18.1026 58.0783 14.5182 66.7976 10.1768C73.939 6.61973 79.6576 7.5957 80.6517 9.76632C82.0653 12.8673 77.5963 18.6315 70.1722 19.4615C67.3449 19.7807 65.8581 18.6863 65.4843 18.2758C65.0921 17.8471 65.0374 17.8289 64.8914 17.911C64.6543 18.0387 64.8003 18.4218 64.8914 18.6498C65.1104 19.2244 66.0225 20.2459 67.5729 20.7566C68.9318 21.2035 72.2517 21.4498 76.2647 19.8993C80.7612 18.1572 84.2726 13.3234 83.242 9.28294C82.1932 5.16958 75.371 3.81976 68.9227 6.109C65.0828 7.47709 60.9239 9.61129 57.9324 12.4113C54.3754 15.7312 53.8099 18.6315 54.047 19.8354C54.8771 24.1312 60.7962 26.9312 63.1676 29.0016C63.049 29.0653 62.9395 29.1292 62.8392 29.184C61.6535 29.7676 57.1389 32.1299 56.008 34.6288C54.7311 37.4562 56.2086 39.4902 57.1936 39.7639C60.2399 40.612 63.3591 39.0889 65.0464 36.5807C66.7245 34.0726 66.5239 30.8165 65.7487 29.33L65.7213 29.2752L66.6515 28.728C67.2536 28.3722 67.8464 28.0439 68.3662 27.7611C68.0744 28.5546 67.8646 29.494 67.7552 30.8621C67.6275 32.4674 68.2842 34.5468 69.1507 35.3676C69.5337 35.7233 69.9898 35.7325 70.2725 35.7325C71.2758 35.7325 71.7318 34.9023 72.2334 33.9084C72.8536 32.6953 73.4008 31.2908 73.4008 31.2908C73.4008 31.2908 72.7168 35.094 74.5865 35.094C75.2706 35.094 75.9545 34.2094 76.2647 33.7533V33.7624C76.2647 33.7624 76.2829 33.735 76.3194 33.6712C76.3577 33.6146 76.3942 33.5569 76.4289 33.498V33.4797C76.7025 33.0055 77.3136 31.9202 78.2256 30.1234C79.4021 27.8068 80.5331 24.9064 80.5331 24.9064C80.5331 24.9064 80.6425 25.6179 80.98 26.7853C81.1806 27.4785 81.6183 28.2355 81.9558 28.9742C81.6822 29.3573 81.518 29.5763 81.518 29.5763L81.5271 29.5854C81.3083 29.8773 81.062 30.1874 80.8067 30.4974C79.8764 31.6102 78.7637 32.878 78.6178 33.2428C78.4444 33.6714 78.481 33.9906 78.8184 34.246C79.0647 34.4284 79.5025 34.4649 79.9676 34.4284C80.8067 34.3737 81.3904 34.164 81.6823 34.0362C82.1383 33.8721 82.6582 33.6258 83.1599 33.2609C84.0718 32.5862 84.6282 31.6285 84.5735 30.3516C84.5462 29.6493 84.3181 28.9561 84.0354 28.2994C84.1175 28.1809 84.1997 28.0622 84.2817 27.9347C85.7227 25.8277 86.8354 23.5112 86.8354 23.5112C86.8354 23.5112 86.9449 24.2226 87.2823 25.3901C87.4555 25.9828 87.8022 26.6305 88.1123 27.269C86.7625 28.3725 85.9142 29.6494 85.6223 30.4885C85.0842 32.039 85.5038 32.7413 86.2973 32.9054C86.6529 32.9784 87.1637 32.8142 87.5467 32.6501C88.021 32.495 88.5955 32.2304 89.1246 31.8383C90.0367 31.1634 90.9123 30.224 90.8667 28.9563C90.8393 28.3725 90.6842 27.7979 90.4744 27.2507C91.6237 26.7764 93.1102 26.5029 94.9983 26.7308C99.057 27.2051 99.8596 29.7406 99.7046 30.7986C99.5496 31.8567 98.7013 32.4403 98.4185 32.6227C98.1357 32.796 98.0446 32.8599 98.0719 32.9875C98.1084 33.1791 98.236 33.1699 98.4823 33.1335C98.8198 33.0787 100.617 32.2671 100.689 30.3153C100.799 27.8068 98.4185 25.0707 94.1957 25.098ZM62.8939 35.6504C61.5532 37.1189 59.6653 37.6752 58.8627 37.2009C57.9962 36.6993 58.3336 34.5377 59.9845 32.9782C60.9878 32.0296 62.292 31.154 63.1493 30.6159C63.3408 30.4974 63.6327 30.3242 63.9793 30.1143C64.034 30.0779 64.0704 30.0596 64.0704 30.0596C64.1344 30.0231 64.2073 29.9775 64.2803 29.9319C64.8914 32.1573 64.3077 34.1091 62.8939 35.6504ZM72.6985 28.9833C72.2334 30.1234 71.2483 33.0511 70.6555 32.8869C70.1447 32.7501 69.8347 30.5338 70.5551 28.3449C70.92 27.2412 71.6952 25.9279 72.1512 25.4171C72.8901 24.5963 73.6926 24.3226 73.8933 24.6601C74.1305 25.098 72.9904 28.2719 72.6985 28.9833ZM80.7885 32.8505C80.5878 32.9509 80.4054 33.0237 80.3233 32.9691C80.2594 32.9327 80.4053 32.7958 80.4053 32.7958C80.4053 32.7958 81.4176 31.7105 81.819 31.2089C82.047 30.9171 82.3206 30.5796 82.6125 30.1965V30.3059C82.6126 31.6191 81.3539 32.4947 80.7885 32.8505ZM87.0268 31.4276C86.8809 31.3182 86.8992 30.9807 87.3916 29.9228C87.5833 29.5032 88.021 28.8009 88.778 28.1351C88.8692 28.4087 88.924 28.6731 88.9148 28.9195C88.9057 30.5612 87.7383 31.1722 87.0268 31.4276Z" fill="#CF649A"/>
</svg>
