<svg width="550" height="556" viewBox="0 0 550 556" fill="none" xmlns="http://www.w3.org/2000/svg">
<path opacity="0.3" d="M449.242 243.085L439.706 243.248L434.921 237.933L434.003 229.385L429.113 232.094L426.48 242.542L419.412 234.919L419.126 227.714L412.298 221.762L409.777 219.223H401.854L404.365 226.371L413.89 231.753L415.545 233.532L413.486 234.575L413.564 240.239L408.931 242.201L404.96 241.32L402.493 237.763L408.931 238.114L410.669 235.741L396.388 225.976L395.304 221.819L389.504 227.136L383.613 225.911L374.66 237.703L372.905 242.32L367.183 242.847L358.713 242.902L353.65 240.504L352.16 230.31L353.975 225.449L362.595 223.538L372.003 225.449L373.143 220.18L369.151 219.223L370.518 211.016L379.976 209.516L386.591 200.046L393.427 198.884L399.593 199.811H401.86L400.615 190.917L393.117 193.985L390.484 187.341L386.132 186.724L385.32 182.169L388.877 178.255L397.309 174.903L399.483 170.972C367.335 142.274 325.221 124.778 279.139 124.673C279.003 124.673 278.864 124.667 278.728 124.667C238.596 124.667 201.468 137.868 171.266 160.159L180.492 160.086L184.602 162.392L192.343 164.084L192.947 167.166L205.265 167.628L203.596 163.627L192.653 163.317L195.232 160.857L194.332 157.923H184.439L195.235 149.759H205.572L210.432 156.542L218.499 157.004L223.354 152.222L227.012 154.071L220.312 160.697C220.312 160.697 211.041 160.854 211.497 160.854C211.954 160.854 212.266 167.317 212.266 167.317L223.495 167.004L224.723 163.93L232.465 163.465L233.381 158.848L228.822 158.069L230.344 153.914L233.837 152.841L245.998 153.449L239.287 159.613L240.377 164.382L247.365 165.463L246.906 156.839L253.592 153.295L265.457 151.911L279.134 158.048L282.622 159.613V166.233L288.106 167.617L285.364 172.854H279.137H277.615L275.324 178.858L257.603 174.622L271.529 167.107L266.218 162.535L254.204 164.073L253.154 165.174L253.117 165.155L252.922 165.417L249.467 169.056L243.758 169.545L244.217 172.432L246.204 173.267L246.126 174.219L241.482 174.892L241.143 177.625L236.692 177.863L235.893 172.435L227.912 174.892L211.612 184.562L213.444 191.369L218.002 194.377L227.119 195.651V206.153L231.327 205.464L235.212 197.262L244.903 194.15V181.566L250.292 177.444L263.331 180.558L262.415 188.879H265.919L275.494 184.108L275.951 195.037L279.145 197.01L282.926 199.346L282.632 205.829L279.145 207.032L275.951 208.132L276.402 210.273L279.145 211.538L284.453 213.99L284.301 218.453L281.962 218.653C281.954 218.577 281.946 218.531 281.946 218.531L279.142 217.658L271.777 215.358L271.353 212.057H271.337L274.301 209.986V206.977L271.11 206.166L270.317 208.945L264.717 209.821L264.156 209.632V209.916L262.218 210.213L260.631 206.975L258.799 206.164H254.807L252.992 207.667V211.016L256.41 212.171L259.777 212.649L259.024 212.984L255.948 216.439L254.588 214.712L251.622 213.917L243.523 221.64L244.58 222.521L232.62 229.228L221.367 241.088L220.606 246.364L209.324 253.872L203.74 259.57L204.351 270.964L196.594 267.304L196.656 260.641L175.082 260.649L163.915 266.38L159.052 275.441L157.132 282.629L160.278 289.598L169.076 290.685L183.061 281.207L184.287 285.906L180.017 294.078L190.671 295.919L191.726 312.582L206.325 315.09L215.591 304.234L226.844 306.553L230.796 312.125L241.581 311.479L241.886 308.246L247.811 311.173L254.506 321.795L266.047 321.957L270.309 329.507L270.915 338.739L279.131 341.91L283.687 343.67L299.794 343.826L304.516 351.669L311.653 353.985L310.278 360.463L302.449 370.543L300.168 392.843L293.108 398.503L282.616 398.184L279.129 404.321L279.118 404.337L279.129 404.378L281.714 415.902L279.129 419.254L270.306 430.689L266.664 437.469L255.793 442.764L248.642 443.862L248.345 446.936L253.363 448.393L252.757 451.701L248.26 456.086L250.994 459.565L256.399 459.719L256.094 463.95L254.658 468.108L254.193 471.492L262.191 478.315L261.128 481.862L250.249 481.651L239.416 472.071L230.975 457.046L232.155 442.537L225.77 433.911L228.358 419.286L224.558 418.205V386.484C224.558 386.484 213.919 378.31 213.313 378.31C212.707 378.31 207.692 376.931 207.692 376.931L206.619 370.927L192.797 353.369L194.164 347.054L194.613 336.733L204.181 329.959L202.816 318.405L188.837 317.34L177.894 304.702L170.145 302.555L165.138 301.623L165.736 297.005L159.354 296.084V298.7L143.393 294.699L136.971 284.74L139.588 279.915L129.475 264.971L127.737 254.039H123.635L125 264.66L131.991 275.595L131.23 279.915L125.304 278.991L118.014 266.393V251.733L110.417 248.03V237.481C101.031 259.757 95.8213 284.273 95.8213 310C95.8213 412.193 177.875 495.335 278.725 495.335C278.862 495.335 279.001 495.327 279.137 495.327C336.148 495.2 387.098 468.492 420.579 426.828H414.544V414.507L407.572 404.98V390.164L402.236 384.784L401.78 378.621L408.544 365.526L395.707 342.578L397.232 327.012L385.675 325.793L381.426 321.478H373.666L369.722 325.176H356.04L355.583 326.406H347.981L330.509 306.24L330.65 290.526L333.537 289.452L334.61 283.44H330.509L328.832 277.128L349.054 262.346V251.874L358.945 246.305L362.945 246.711H371.092L377.461 243.245L397.985 241.623V252.252L414.178 256.413L417.369 258.721H420.333V252.939L429.677 252.017L438.574 258.721H453.159L454.182 257.772C452.738 252.788 451.082 247.892 449.242 243.085ZM362.87 190.336L364.55 187.725L370.555 186.492L372.07 193.888L375.269 199.122L377.389 201.592L381.264 203.123L377.624 207.521L370.555 208.21H365.234L365.832 201.82L370.251 200.89L369.877 197.886L365.76 195.264L362.87 193.266V190.336ZM352.995 201.893L356.654 195.964L361.575 194.81L365.087 196.351L364.769 200.352L357.252 205.742H352.993V201.893H352.995ZM253.624 224.684L249.819 225.008L250.022 222.329L251.728 220.178L254.012 221.994L253.624 224.684ZM266.984 219.948L264.383 220.178L263.854 222.727L261.852 223.989L258.645 224.26C258.538 223.497 258.458 222.916 258.458 222.916H257.216V220.178H262.45L263.539 217.347L265.617 217.304L268.001 217.801L266.984 219.948Z" fill="#94D5D6"/>
<path d="M404.685 432.805C401.408 429.588 399.566 425.274 399.496 420.657C399.352 411.122 406.896 403.245 416.314 403.099C420.878 403.028 425.193 404.761 428.469 407.975C431.746 411.192 433.588 415.507 433.658 420.124C433.727 424.744 432.018 429.113 428.84 432.43C425.663 435.746 421.401 437.612 416.84 437.682C412.276 437.752 407.961 436.019 404.685 432.805ZM423.727 412.928C421.759 410.995 419.163 409.954 416.421 409.995C410.76 410.084 406.225 414.818 406.311 420.549C406.354 423.325 407.459 425.917 409.43 427.853C411.398 429.786 413.993 430.826 416.736 430.786C419.478 430.743 422.039 429.621 423.948 427.628C425.858 425.636 426.886 423.008 426.846 420.232C426.803 417.453 425.695 414.861 423.727 412.928Z" fill="#469BD5"/>
<path d="M386.009 453.469C384.583 452.12 384.511 449.855 385.843 448.414L404.033 428.734C405.366 427.29 407.604 427.217 409.027 428.566C410.453 429.915 410.525 432.181 409.193 433.622L391.002 453.302C389.67 454.742 387.432 454.818 386.009 453.469Z" fill="#469BD5"/>
<path d="M157.079 309.254C154.852 308.024 152.061 308.854 150.846 311.105L139.1 332.886L130.867 328.336C128.64 327.106 125.849 327.936 124.634 330.188C123.419 332.443 124.239 335.268 126.464 336.498L142.648 345.443L142.654 345.432L142.766 345.494L158.911 315.563C160.126 313.309 159.306 310.484 157.079 309.254Z" fill="#469BD5"/>
<path d="M432.782 251.62C443.277 251.62 451.784 243.007 451.784 232.383C451.784 221.759 443.277 213.146 432.782 213.146C422.288 213.146 413.78 221.759 413.78 232.383C413.78 243.007 422.288 251.62 432.782 251.62Z" fill="#F05146"/>
<path d="M426.435 231.358L422.654 232.912L427.257 244.391L431.038 242.838L426.435 231.358Z" fill="#E83530"/>
<path d="M429.127 231.023C429.127 231.023 429.691 227.363 430.382 225.708C430.983 224.265 430.238 221.816 430.038 221.207C430.011 221.129 430.051 221.043 430.126 221.013C431.229 220.559 432.484 221.097 432.93 222.213L434.756 226.768L438.706 225.146C440.003 224.614 441.485 225.246 442.011 226.56L445.098 234.259C445.624 235.573 445 237.073 443.702 237.606L433.453 241.817C432.919 242.036 432.308 241.777 432.091 241.233L428.55 232.402C428.334 231.858 428.59 231.242 429.127 231.023Z" fill="#E83530"/>
<path d="M425.425 230.371L421.645 231.925L426.247 243.404L430.028 241.851L425.425 230.371Z" fill="white"/>
<path d="M428.115 230.036C428.115 230.036 428.678 226.376 429.37 224.722C429.971 223.278 429.226 220.829 429.025 220.221C428.999 220.142 429.039 220.056 429.114 220.026C430.216 219.572 431.472 220.11 431.92 221.226L433.747 225.781L437.696 224.159C438.994 223.627 440.476 224.259 441.002 225.573L444.089 233.272C444.615 234.586 443.99 236.086 442.692 236.619L432.444 240.831C431.909 241.05 431.298 240.79 431.082 240.247L427.541 231.415C427.322 230.874 427.581 230.255 428.115 230.036Z" fill="white"/>
<path d="M218.723 190.676C225.54 190.676 231.065 185.082 231.065 178.182C231.065 171.281 225.54 165.687 218.723 165.687C211.907 165.687 206.381 171.281 206.381 178.182C206.381 185.082 211.907 190.676 218.723 190.676Z" fill="#3660A3"/>
<path d="M217.916 174.012L216.129 172.033L210.261 177.462L212.048 179.441L217.916 174.012Z" fill="#234E8D"/>
<path d="M218.715 175.619C218.715 175.619 221.044 175.14 222.197 175.194C223.201 175.24 224.507 174.227 224.828 173.967C224.87 173.932 224.929 173.937 224.967 173.978C225.487 174.556 225.447 175.451 224.878 175.978L222.55 178.133L224.416 180.201C225.031 180.882 224.983 181.936 224.312 182.558L220.376 186.2C219.703 186.821 218.662 186.773 218.048 186.094L213.201 180.725C212.947 180.444 212.966 180.009 213.244 179.755L217.757 175.578C218.032 175.319 218.462 175.338 218.715 175.619Z" fill="#234E8D"/>
<path d="M218.282 173.167L216.495 171.187L210.628 176.616L212.415 178.596L218.282 173.167Z" fill="white"/>
<path d="M219.081 174.773C219.081 174.773 221.41 174.294 222.563 174.348C223.567 174.394 224.873 173.38 225.194 173.121C225.236 173.086 225.295 173.091 225.332 173.132C225.853 173.71 225.813 174.605 225.244 175.132L222.916 177.287L224.782 179.355C225.397 180.036 225.348 181.09 224.678 181.712L220.739 185.351C220.067 185.972 219.025 185.924 218.411 185.245L213.564 179.877C213.311 179.595 213.329 179.16 213.607 178.906L218.12 174.729C218.398 174.473 218.828 174.494 219.081 174.773Z" fill="white"/>
<path d="M96.7983 450.179C103.615 450.179 109.141 444.585 109.141 437.685C109.141 430.784 103.615 425.19 96.7983 425.19C89.9819 425.19 84.4561 430.784 84.4561 437.685C84.4561 444.585 89.9819 450.179 96.7983 450.179Z" fill="#3660A3"/>
<path d="M92.7876 438.816L90.9805 440.777L96.7932 446.267L98.6003 444.306L92.7876 438.816Z" fill="#234E8D"/>
<path d="M94.2777 437.896C94.2777 437.896 93.6208 435.582 93.5807 434.416C93.546 433.4 92.4459 432.162 92.1628 431.862C92.1254 431.821 92.1254 431.762 92.1628 431.721C92.6889 431.148 93.5754 431.118 94.1388 431.651L96.4433 433.83L98.3313 431.781C98.9535 431.108 99.9949 431.07 100.662 431.7L104.561 435.381C105.226 436.011 105.263 437.066 104.641 437.741L99.7412 443.059C99.4848 443.337 99.0549 443.351 98.7799 443.091L94.3097 438.869C94.0374 438.607 94.0214 438.171 94.2777 437.896Z" fill="#234E8D"/>
<path d="M91.9253 438.515L90.1182 440.475L95.9309 445.965L97.738 444.005L91.9253 438.515Z" fill="white"/>
<path d="M93.4183 437.593C93.4183 437.593 92.7614 435.279 92.7214 434.114C92.6867 433.097 91.5865 431.859 91.3034 431.559C91.266 431.521 91.266 431.459 91.3034 431.418C91.8295 430.848 92.716 430.816 93.2795 431.348L95.584 433.527L97.4719 431.478C98.0941 430.805 99.1355 430.767 99.8031 431.397L103.702 435.079C104.367 435.709 104.404 436.763 103.782 437.439L98.8818 442.756C98.6255 443.035 98.1956 443.048 97.9205 442.789L93.4504 438.566C93.1753 438.306 93.162 437.871 93.4183 437.593Z" fill="white"/>
<path d="M490.514 375.89C496.331 375.89 501.046 371.117 501.046 365.228C501.046 359.34 496.331 354.566 490.514 354.566C484.698 354.566 479.982 359.34 479.982 365.228C479.982 371.117 484.698 375.89 490.514 375.89Z" fill="#3660A3"/>
<path d="M488.449 362.29L486.364 361.403L483.734 367.735L485.818 368.622L488.449 362.29Z" fill="#234E8D"/>
<path d="M489.607 363.244C489.607 363.244 491.244 362.03 492.154 361.654C492.947 361.327 493.604 360.07 493.759 359.751C493.78 359.711 493.828 359.692 493.868 359.711C494.477 359.97 494.76 360.679 494.507 361.292L493.463 363.804L495.639 364.731C496.355 365.036 496.691 365.872 496.389 366.596L494.624 370.843C494.322 371.567 493.497 371.908 492.782 371.603L487.131 369.197C486.835 369.07 486.699 368.726 486.821 368.429L488.846 363.56C488.971 363.26 489.31 363.12 489.607 363.244Z" fill="#234E8D"/>
<path d="M488.432 361.504L486.347 360.616L483.716 366.948L485.801 367.836L488.432 361.504Z" fill="white"/>
<path d="M489.59 362.457C489.59 362.457 491.227 361.244 492.138 360.868C492.931 360.541 493.588 359.284 493.742 358.965C493.764 358.924 493.812 358.905 493.852 358.924C494.461 359.184 494.744 359.892 494.49 360.506L493.446 363.017L495.622 363.944C496.338 364.25 496.674 365.085 496.373 365.809L494.608 370.056C494.306 370.781 493.481 371.121 492.765 370.816L487.115 368.41C486.818 368.283 486.682 367.94 486.805 367.642L488.829 362.774C488.955 362.471 489.294 362.33 489.59 362.457Z" fill="white"/>
<path d="M76.9558 143.504C84.1763 143.504 90.0297 137.578 90.0297 130.269C90.0297 122.959 84.1763 117.033 76.9558 117.033C69.7352 117.033 63.8818 122.959 63.8818 130.269C63.8818 137.578 69.7352 143.504 76.9558 143.504Z" fill="#F05146"/>
<path d="M74.0165 126.909L71.334 126.074L68.8587 134.224L71.5412 135.059L74.0165 126.909Z" fill="#E83530"/>
<path d="M75.591 127.933C75.591 127.933 77.4629 126.23 78.5444 125.651C79.4843 125.146 80.1412 123.513 80.2934 123.099C80.3121 123.045 80.3709 123.018 80.4243 123.034C81.2067 123.278 81.6446 124.118 81.4043 124.908L80.4216 128.141L83.2228 129.014C84.1441 129.301 84.6621 130.29 84.379 131.223L82.7181 136.689C82.435 137.621 81.4577 138.146 80.5364 137.859L73.2625 135.594C72.8833 135.475 72.6696 135.067 72.7871 134.683L74.6911 128.414C74.8086 128.03 75.2118 127.814 75.591 127.933Z" fill="#E83530"/>
<path d="M73.9012 125.939L71.2188 125.104L68.7435 133.253L71.4259 134.088L73.9012 125.939Z" fill="white"/>
<path d="M75.4758 126.962C75.4758 126.962 77.3477 125.259 78.4291 124.681C79.3691 124.175 80.026 122.542 80.1782 122.129C80.1969 122.075 80.2556 122.048 80.3091 122.064C81.0915 122.307 81.5294 123.148 81.2891 123.937L80.3064 127.171L83.1076 128.044C84.0288 128.33 84.5469 129.32 84.2638 130.252L82.6029 135.718C82.3198 136.651 81.3425 137.175 80.4212 136.889L73.1472 134.624C72.768 134.505 72.5544 134.096 72.6719 133.713L74.5759 127.444C74.6933 127.06 75.0966 126.843 75.4758 126.962Z" fill="white"/>
<path d="M457.453 503.78C464.673 503.78 470.527 497.855 470.527 490.545C470.527 483.235 464.673 477.31 457.453 477.31C450.232 477.31 444.379 483.235 444.379 490.545C444.379 497.855 450.232 503.78 457.453 503.78Z" fill="#F05146"/>
<path d="M453.047 490.457L450.622 491.887L454.862 499.255L457.287 497.825L453.047 490.457Z" fill="#E83530"/>
<path d="M454.833 489.98C454.833 489.98 454.865 487.431 455.178 486.236C455.45 485.195 454.705 483.597 454.51 483.205C454.483 483.154 454.505 483.092 454.553 483.065C455.26 482.649 456.166 482.889 456.58 483.606L458.262 486.528L460.796 485.033C461.629 484.541 462.7 484.827 463.183 485.671L466.027 490.612C466.513 491.456 466.23 492.54 465.397 493.029L458.82 496.908C458.476 497.111 458.035 496.992 457.835 496.646L454.574 490.98C454.371 490.629 454.489 490.183 454.833 489.98Z" fill="#E83530"/>
<path d="M452.261 489.894L449.836 491.325L454.076 498.692L456.501 497.262L452.261 489.894Z" fill="white"/>
<path d="M454.048 489.407C454.048 489.407 454.08 486.857 454.393 485.663C454.665 484.622 453.92 483.024 453.725 482.632C453.698 482.581 453.717 482.519 453.768 482.492C454.476 482.075 455.381 482.316 455.795 483.032L457.477 485.955L460.011 484.46C460.844 483.968 461.915 484.254 462.398 485.098L465.242 490.039C465.728 490.883 465.445 491.967 464.612 492.456L458.035 496.335C457.691 496.538 457.25 496.419 457.05 496.073L453.789 490.407C453.589 490.055 453.706 489.609 454.048 489.407Z" fill="white"/>
<path d="M164.644 238.166C181.473 233.763 192.798 221.116 189.94 209.918C187.081 198.719 171.121 193.21 154.292 197.613C137.463 202.015 126.138 214.663 128.996 225.861C131.855 237.059 147.815 242.568 164.644 238.166Z" fill="#FEC449"/>
<path d="M144.415 234.581L139.673 260.292L158.456 235.07L144.415 234.581Z" fill="#FEC449"/>
<path d="M146.493 227.217C149.43 227.217 151.81 224.807 151.81 221.834C151.81 218.862 149.43 216.452 146.493 216.452C143.557 216.452 141.177 218.862 141.177 221.834C141.177 224.807 143.557 227.217 146.493 227.217Z" fill="#EAAA39"/>
<path d="M160.849 223.462C163.785 223.462 166.165 221.052 166.165 218.08C166.165 215.107 163.785 212.697 160.849 212.697C157.913 212.697 155.532 215.107 155.532 218.08C155.532 221.052 157.913 223.462 160.849 223.462Z" fill="#EAAA39"/>
<path d="M175.202 219.704C178.139 219.704 180.519 217.294 180.519 214.322C180.519 211.349 178.139 208.94 175.202 208.94C172.266 208.94 169.886 211.349 169.886 214.322C169.886 217.294 172.266 219.704 175.202 219.704Z" fill="#EAAA39"/>
<path d="M145.847 226.83C148.783 226.83 151.164 224.42 151.164 221.448C151.164 218.475 148.783 216.066 145.847 216.066C142.911 216.066 140.53 218.475 140.53 221.448C140.53 224.42 142.911 226.83 145.847 226.83Z" fill="#FFECC7"/>
<path d="M160.199 223.075C163.136 223.075 165.516 220.666 165.516 217.693C165.516 214.721 163.136 212.311 160.199 212.311C157.263 212.311 154.883 214.721 154.883 217.693C154.883 220.666 157.263 223.075 160.199 223.075Z" fill="#FFECC7"/>
<path d="M174.553 219.318C177.489 219.318 179.87 216.908 179.87 213.935C179.87 210.963 177.489 208.553 174.553 208.553C171.617 208.553 169.236 210.963 169.236 213.935C169.236 216.908 171.617 219.318 174.553 219.318Z" fill="#FFECC7"/>
<path d="M476.981 437.963C486.424 447.976 499.349 451.001 505.851 444.717C512.352 438.434 509.968 425.222 500.525 415.209C491.082 405.195 478.156 402.171 471.655 408.454C465.153 414.738 467.537 427.949 476.981 437.963Z" fill="#FEC449"/>
<path d="M471.628 422.535L452.361 429.099L476.683 432.486L471.628 422.535Z" fill="#FEC449"/>
<path d="M481.073 423.327C483.384 423.327 485.257 421.431 485.257 419.091C485.257 416.752 483.384 414.855 481.073 414.855C478.762 414.855 476.889 416.752 476.889 419.091C476.889 421.431 478.762 423.327 481.073 423.327Z" fill="#EAAA39"/>
<path d="M489.127 431.867C491.438 431.867 493.311 429.971 493.311 427.631C493.311 425.292 491.438 423.395 489.127 423.395C486.816 423.395 484.942 425.292 484.942 427.631C484.942 429.971 486.816 431.867 489.127 431.867Z" fill="#EAAA39"/>
<path d="M497.183 440.409C499.494 440.409 501.368 438.513 501.368 436.173C501.368 433.834 499.494 431.937 497.183 431.937C494.872 431.937 492.999 433.834 492.999 436.173C492.999 438.513 494.872 440.409 497.183 440.409Z" fill="#EAAA39"/>
<path d="M481.086 422.727C483.397 422.727 485.27 420.831 485.27 418.491C485.27 416.152 483.397 414.255 481.086 414.255C478.775 414.255 476.901 416.152 476.901 418.491C476.901 420.831 478.775 422.727 481.086 422.727Z" fill="#FFECC7"/>
<path d="M489.142 431.27C491.453 431.27 493.327 429.373 493.327 427.034C493.327 424.694 491.453 422.798 489.142 422.798C486.831 422.798 484.958 424.694 484.958 427.034C484.958 429.373 486.831 431.27 489.142 431.27Z" fill="#FFECC7"/>
<path d="M497.196 439.809C499.507 439.809 501.381 437.913 501.381 435.573C501.381 433.234 499.507 431.337 497.196 431.337C494.885 431.337 493.012 433.234 493.012 435.573C493.012 437.913 494.885 439.809 497.196 439.809Z" fill="#FFECC7"/>
<path d="M309.814 100.384C317.291 100.384 323.353 94.2473 323.353 86.6779C323.353 79.1084 317.291 72.9722 309.814 72.9722C302.337 72.9722 296.275 79.1084 296.275 86.6779C296.275 94.2473 302.337 100.384 309.814 100.384Z" fill="#F05146"/>
<path d="M316.38 81.4633C314.604 78.6221 311.183 78.441 309.501 80.4387C308.377 81.7769 308.345 83.042 308.348 83.2853C308.145 83.1583 307.05 82.5446 305.341 82.8501C302.785 83.3042 301.21 86.3833 302.732 89.3731C304.15 92.1602 308.7 93.1334 313.28 93.6281C313.862 93.6903 314.42 93.3686 314.66 92.828C316.562 88.5784 318.036 84.1152 316.38 81.4633Z" fill="#E5332F"/>
<path d="M315.782 81.1928C314.007 78.3516 310.586 78.1705 308.904 80.1682C307.779 81.5064 307.745 82.7715 307.75 83.0148C307.547 82.8878 306.452 82.2741 304.743 82.5796C302.188 83.0337 300.612 86.1128 302.134 89.1026C303.552 91.8897 308.102 92.8629 312.682 93.3576C313.264 93.4198 313.822 93.0981 314.063 92.5574C315.964 88.3079 317.438 83.8447 315.782 81.1928Z" fill="white"/>
<path d="M139.673 294.713C145.251 294.713 149.773 290.136 149.773 284.489C149.773 278.843 145.251 274.265 139.673 274.265C134.096 274.265 129.574 278.843 129.574 284.489C129.574 290.136 134.096 294.713 139.673 294.713Z" fill="#F05146"/>
<path d="M145.743 285.881C146.533 283.502 145.027 281.415 143.091 281.369C141.796 281.34 141.059 281.915 140.923 282.034C140.899 281.856 140.736 280.926 139.756 280.066C138.292 278.785 135.793 279.307 134.8 281.607C133.873 283.751 135.459 286.873 137.331 289.79C137.569 290.16 138.017 290.336 138.439 290.223C141.761 289.336 145.008 288.101 145.743 285.881Z" fill="#E5332F"/>
<path d="M145.618 285.405C146.408 283.026 144.902 280.939 142.966 280.894C141.671 280.864 140.934 281.44 140.798 281.559C140.774 281.38 140.611 280.45 139.631 279.591C138.167 278.309 135.668 278.831 134.675 281.131C133.748 283.275 135.334 286.397 137.206 289.314C137.444 289.685 137.892 289.86 138.314 289.747C141.636 288.86 144.881 287.622 145.618 285.405Z" fill="white"/>
<path d="M364.037 474.455C368.939 474.455 372.913 470.432 372.913 465.469C372.913 460.506 368.939 456.483 364.037 456.483C359.135 456.483 355.161 460.506 355.161 465.469C355.161 470.432 359.135 474.455 364.037 474.455Z" fill="#F05146"/>
<path d="M369.071 463.296C368.422 461.19 366.286 460.49 364.886 461.466C363.949 462.12 363.717 462.917 363.679 463.071C363.573 462.955 362.98 462.379 361.848 462.279C360.155 462.128 358.638 463.807 359.102 465.961C359.535 467.97 362.253 469.367 365.071 470.468C365.428 470.608 365.837 470.497 366.08 470.197C367.995 467.832 369.674 465.258 369.071 463.296Z" fill="#E5332F"/>
<path d="M368.737 463.02C368.088 460.914 365.952 460.214 364.552 461.19C363.615 461.844 363.383 462.642 363.345 462.796C363.239 462.679 362.646 462.104 361.514 462.004C359.821 461.852 358.304 463.531 358.768 465.686C359.201 467.694 361.919 469.092 364.737 470.192C365.094 470.332 365.503 470.222 365.746 469.922C367.661 467.559 369.343 464.985 368.737 463.02Z" fill="white"/>
<path d="M356.141 194.774C361.043 194.774 365.017 190.751 365.017 185.789C365.017 180.826 361.043 176.803 356.141 176.803C351.239 176.803 347.265 180.826 347.265 185.789C347.265 190.751 351.239 194.774 356.141 194.774Z" fill="#F05146"/>
<path d="M361.583 186.381C362.031 184.224 360.506 182.556 358.813 182.715C357.681 182.823 357.094 183.402 356.987 183.518C356.95 183.364 356.712 182.569 355.769 181.92C354.365 180.953 352.231 181.666 351.596 183.778C351.003 185.743 352.701 188.308 354.629 190.66C354.875 190.96 355.283 191.066 355.641 190.922C358.453 189.806 361.163 188.392 361.583 186.381Z" fill="#E5332F"/>
<path d="M361.425 185.978C361.874 183.821 360.349 182.153 358.656 182.312C357.524 182.42 356.937 182.999 356.83 183.115C356.792 182.961 356.555 182.166 355.612 181.518C354.207 180.55 352.074 181.263 351.438 183.375C350.845 185.34 352.544 187.905 354.472 190.257C354.717 190.557 355.126 190.663 355.484 190.52C358.296 189.403 361.006 187.989 361.425 185.978Z" fill="white"/>
<path d="M194.004 150.53L144.125 164.706C139.051 166.147 133.734 163.124 132.308 157.988L118.305 107.491C116.882 102.354 119.867 96.972 124.941 95.5284L174.82 81.355C179.894 79.9142 185.21 82.9365 186.636 88.0727L200.64 138.568C202.063 143.704 199.077 149.086 194.004 150.53Z" fill="#32ADE3"/>
<path d="M135.662 129.536C135.662 129.536 143.678 134.094 149.703 127.254C155.727 120.415 152.915 112.1 159.052 105.669C166.798 97.5506 180.051 106.563 174.537 122.694C167.519 143.223 148.995 145.729 135.662 129.536Z" fill="white"/>
<path d="M171.891 110.564L179.912 108.285C180.847 108.02 181.539 108.85 180.959 109.545L174.788 116.939L171.891 110.564Z" fill="white"/>
<path d="M159.816 115.441C159.816 115.441 148.507 118.142 140.53 116.303C139.243 116.006 138.178 117.336 138.736 118.547C140.33 122.002 143.85 127.165 150.963 128.474C161.912 130.49 159.816 115.441 159.816 115.441Z" fill="white"/>
<path d="M454.491 345.227L410.717 362.357C406.263 364.101 401.213 361.838 399.491 357.329L382.569 313.017C380.846 308.508 383.082 303.396 387.536 301.652L431.31 284.521C435.764 282.778 440.814 285.04 442.536 289.549L459.458 333.862C461.178 338.371 458.943 343.483 454.491 345.227Z" fill="#1654A0"/>
<path d="M442.208 350.033L435.164 352.791L420.266 313.785C418.119 308.162 420.891 301.82 426.445 299.646L433.156 297.019L435.879 304.15L429.169 306.778C427.5 307.432 426.667 309.338 427.313 311.027L442.208 350.033Z" fill="white"/>
<path d="M439.412 314.461L414.287 324.294L417.01 331.425L442.136 321.591L439.412 314.461Z" fill="white"/>
<path d="M425.267 159.356L376.35 151.227C371.372 150.4 367.97 145.602 368.787 140.566L376.817 91.0438C377.634 86.0049 382.374 82.5609 387.349 83.3881L436.266 91.5169C441.244 92.3441 444.646 97.1425 443.829 102.179L435.799 151.7C434.985 156.737 430.245 160.183 425.267 159.356Z" fill="url(#paint0_linear_472_2554)"/>
<path d="M414.53 146.316L390.607 142.339C385.122 141.428 381.391 136.167 382.291 130.615L386.219 106.396C387.119 100.843 392.316 97.0669 397.8 97.9779L421.724 101.954C427.209 102.865 430.939 108.126 430.039 113.679L426.111 137.897C425.211 143.453 420.015 147.227 414.53 146.316ZM396.922 103.403C394.39 102.982 391.992 104.725 391.579 107.288L387.651 131.507C387.234 134.07 388.956 136.497 391.488 136.916L415.411 140.893C417.943 141.314 420.341 139.571 420.755 137.008L424.683 112.789C425.099 110.227 423.377 107.799 420.845 107.38L396.922 103.403Z" fill="white"/>
<path d="M404.402 133.029C398.474 132.045 394.444 126.36 395.416 120.361C396.388 114.36 402.004 110.281 407.929 111.265C413.857 112.249 417.887 117.934 416.915 123.932C415.943 129.934 410.327 134.016 404.402 133.029ZM407.051 116.687C404.079 116.193 401.262 118.239 400.773 121.251C400.284 124.262 402.306 127.111 405.28 127.606C408.255 128.101 411.07 126.054 411.558 123.043C412.047 120.034 410.026 117.182 407.051 116.687Z" fill="white"/>
<path d="M418.525 115.12C419.899 115.12 421.014 113.992 421.014 112.6C421.014 111.209 419.899 110.081 418.525 110.081C417.15 110.081 416.036 111.209 416.036 112.6C416.036 113.992 417.15 115.12 418.525 115.12Z" fill="white"/>
<path d="M125.518 377.247L86.0372 408.927C82.021 412.149 76.1302 411.46 72.9472 407.394L41.6536 367.423C38.4706 363.358 39.1515 357.394 43.1677 354.172L82.6485 322.492C86.6647 319.27 92.5554 319.959 95.7385 324.025L127.032 363.993C130.215 368.061 129.534 374.022 125.518 377.247Z" fill="#F05146"/>
<path d="M63.697 355.823L94.9879 352.133C97.7383 351.809 100.772 355.68 99.8319 358.319L89.1372 388.317C88.3762 390.455 85.4441 390.158 83.5615 387.755L62.9653 361.446C61.0827 359.04 61.4672 356.086 63.697 355.823Z" fill="white"/>
<path d="M283.465 171.407C295.125 171.407 304.577 161.839 304.577 150.035C304.577 138.232 295.125 128.663 283.465 128.663C271.806 128.663 262.354 138.232 262.354 150.035C262.354 161.839 271.806 171.407 283.465 171.407Z" fill="#FEC449"/>
<path d="M280.811 144.428C280.119 141.736 277.468 140.722 275.644 141.868C274.424 142.636 274.084 143.626 274.028 143.818C273.9 143.666 273.19 142.904 271.767 142.709C269.641 142.417 267.63 144.442 268.087 147.186C268.511 149.743 271.855 151.671 275.345 153.228C275.788 153.425 276.309 153.314 276.632 152.949C279.185 150.081 281.457 146.94 280.811 144.428Z" fill="#F05146"/>
<path d="M296.371 141.152C295.679 138.46 293.027 137.446 291.203 138.592C289.983 139.36 289.644 140.349 289.588 140.541C289.46 140.39 288.749 139.627 287.326 139.433C285.201 139.141 283.19 141.166 283.646 143.909C284.071 146.467 287.414 148.394 290.904 149.951C291.348 150.149 291.868 150.038 292.192 149.673C294.744 146.805 297.017 143.663 296.371 141.152Z" fill="#F05146"/>
<path d="M274.509 157.831C275.742 163.398 281.163 166.952 286.702 165.787C292.24 164.622 295.81 159.172 294.75 153.571L274.509 157.831Z" fill="#765A26"/>
<path d="M63.8787 225.552C73.1536 225.552 80.6724 217.94 80.6724 208.551C80.6724 199.161 73.1536 191.55 63.8787 191.55C54.6038 191.55 47.085 199.161 47.085 208.551C47.085 217.94 54.6038 225.552 63.8787 225.552Z" fill="#FEC449"/>
<path d="M62.7062 206.172C62.5139 206.042 62.4632 205.78 62.5913 205.585C63.9559 203.525 63.4111 200.727 61.3763 199.346C59.3416 197.964 56.5778 198.516 55.2132 200.576C55.085 200.77 54.826 200.822 54.6338 200.692C54.4415 200.562 54.3908 200.3 54.5189 200.105C56.1398 197.659 59.4243 197.002 61.8436 198.643C64.2603 200.284 64.9092 203.609 63.2883 206.055C63.1575 206.25 62.8984 206.301 62.7062 206.172Z" fill="#4F3A17"/>
<path d="M74.2159 213.981C74.0237 213.852 73.9729 213.589 74.1011 213.395C75.4656 211.335 74.9182 208.537 72.8861 207.156C70.8513 205.774 68.0875 206.326 66.723 208.386C66.5948 208.58 66.3358 208.632 66.1435 208.502C65.9513 208.372 65.9005 208.11 66.0287 207.915C67.6496 205.469 70.9341 204.812 73.3507 206.453C75.7674 208.094 76.4163 211.419 74.7954 213.865C74.6672 214.06 74.4082 214.111 74.2159 213.981Z" fill="#4F3A17"/>
<path d="M57.6972 209.051C57.8895 209.181 57.9402 209.443 57.8121 209.637C56.4475 211.697 56.9949 214.495 59.0271 215.877C61.0619 217.258 63.8256 216.707 65.1902 214.647C65.3184 214.452 65.5774 214.401 65.7696 214.53C65.9619 214.66 66.0126 214.922 65.8845 215.117C64.2636 217.563 60.9791 218.22 58.5598 216.579C56.1431 214.939 55.4942 211.614 57.1151 209.167C57.246 208.972 57.505 208.921 57.6972 209.051Z" fill="#4F3A17"/>
<path d="M478.925 289.85C489.89 289.85 498.779 280.851 498.779 269.751C498.779 258.65 489.89 249.652 478.925 249.652C467.96 249.652 459.071 258.65 459.071 269.751C459.071 280.851 467.96 289.85 478.925 289.85Z" fill="#FEC449"/>
<path d="M471.675 278.269C473.592 283.27 479.125 285.808 484.113 283.94C489.101 282.072 491.67 276.501 489.908 271.44L471.675 278.269Z" fill="#765A26"/>
<path d="M475.863 269.237C475.606 269.334 475.323 269.199 475.227 268.942C474.223 266.193 471.195 264.785 468.479 265.801C465.763 266.817 464.372 269.883 465.376 272.632C465.47 272.892 465.341 273.178 465.085 273.276C464.829 273.373 464.546 273.238 464.45 272.981C463.256 269.715 464.909 266.074 468.137 264.866C471.363 263.657 474.96 265.331 476.154 268.599C476.247 268.853 476.119 269.142 475.863 269.237Z" fill="#4F3A17"/>
<path d="M491.222 263.484C490.966 263.579 490.682 263.446 490.586 263.19C489.582 260.44 486.554 259.032 483.838 260.048C481.123 261.065 479.731 264.13 480.736 266.88C480.829 267.139 480.701 267.426 480.444 267.523C480.188 267.618 479.905 267.485 479.809 267.228C478.615 263.963 480.268 260.321 483.497 259.113C486.722 257.905 490.319 259.578 491.513 262.846C491.609 263.1 491.478 263.387 491.222 263.484Z" fill="#4F3A17"/>
<path d="M465.563 275.311C465.563 275.311 456.284 284.919 460.925 286.833C465.929 288.895 465.563 275.311 465.563 275.311Z" fill="#32ADE3"/>
<path d="M462.083 272.34C462.083 272.34 446.401 266.804 446.724 273.146C447.073 279.98 462.083 272.34 462.083 272.34Z" fill="#32ADE3"/>
<path d="M461.357 266.431C461.357 266.431 454.051 255.212 451.218 259.4C448.166 263.914 461.357 266.431 461.357 266.431Z" fill="#32ADE3"/>
<path d="M493.062 265.009C493.062 265.009 506.285 266.188 503.991 270.699C501.521 275.565 493.062 265.009 493.062 265.009Z" fill="#32ADE3"/>
<path d="M493.794 260.459C493.794 260.459 502.141 245.921 505.973 250.952C510.102 256.372 493.794 260.459 493.794 260.459Z" fill="#32ADE3"/>
<path d="M490.546 255.499C490.546 255.499 488.88 242.169 493.724 243.48C498.942 244.894 490.546 255.499 490.546 255.499Z" fill="#32ADE3"/>
<path d="M316.5 494.313C325.778 494.313 333.299 486.699 333.299 477.307C333.299 467.915 325.778 460.301 316.5 460.301C307.222 460.301 299.701 467.915 299.701 477.307C299.701 486.699 307.222 494.313 316.5 494.313Z" fill="#FEC449"/>
<path d="M310.404 478.464C310.61 478.572 310.687 478.829 310.58 479.037C309.437 481.232 310.273 483.957 312.441 485.114C314.61 486.271 317.301 485.425 318.444 483.23C318.551 483.022 318.805 482.943 319.01 483.052C319.216 483.16 319.293 483.416 319.187 483.625C317.83 486.233 314.631 487.236 312.054 485.863C309.477 484.49 308.487 481.251 309.843 478.642C309.947 478.434 310.198 478.356 310.404 478.464Z" fill="#4F3A17"/>
<path d="M311.856 471.711C313.313 471.711 314.494 470.515 314.494 469.04C314.494 467.565 313.313 466.369 311.856 466.369C310.399 466.369 309.218 467.565 309.218 469.04C309.218 470.515 310.399 471.711 311.856 471.711Z" fill="#4F3A17"/>
<path d="M325.555 479.016C327.012 479.016 328.194 477.82 328.194 476.345C328.194 474.87 327.012 473.674 325.555 473.674C324.098 473.674 322.917 474.87 322.917 476.345C322.917 477.82 324.098 479.016 325.555 479.016Z" fill="#4F3A17"/>
<path d="M195.6 542.153C195.61 542.108 195.743 542.242 195.796 542.299C195.772 542.269 195.714 542.205 195.621 542.1C195.616 542.118 195.605 542.135 195.6 542.153Z" fill="#E3F0FB"/>
<path d="M388.836 284.359C386.032 269.607 364.811 272.348 352.995 274.695C352.415 274.808 351.876 274.919 351.374 275.025V309.373C352.383 309.059 353.39 308.738 354.392 308.392C359.195 306.783 363.89 304.877 368.376 302.747C376.446 298.919 390.97 295.589 388.836 284.359Z" fill="#E3F0FB"/>
<path d="M351.339 407.9C351.368 407.878 351.4 407.848 351.422 407.827C354.899 405.321 359.542 406.243 362.896 408.603C372.253 415.188 371.324 436.184 357.935 436.93C355.633 437.055 353.312 436.393 351.347 434.684C351.347 434.684 351.347 434.673 351.336 434.673V441.807C351.336 448.795 345.753 454.448 338.85 454.448H293.347C291.241 456.57 288.981 458.827 286.578 461.179C269.242 478.231 245.525 500.12 233.591 504.716C213.462 512.482 199.728 536.409 199.728 536.409L188.785 550.118H51.0898C56.4492 544.392 153.558 440.658 158.101 431.175C162.162 422.684 162.897 412.228 164.349 403.045C167.244 384.822 172.603 367.978 178.523 350.552C184.833 331.978 192.473 313.601 196.206 294.175C197.146 289.298 199.05 285.146 200.041 280.269C200.644 277.328 201.656 274.927 201.718 272.132C201.739 271.583 201.707 271.005 201.635 270.413C201.552 269.729 201.472 269.067 201.4 268.426C201.371 268.166 201.339 267.91 201.309 267.661C201.248 267.134 201.186 266.615 201.136 266.106C201.125 266.077 201.125 266.044 201.114 266.004C200.991 264.855 200.869 263.768 200.756 262.711C200.735 262.535 200.716 262.349 200.695 262.173C200.684 262.089 200.674 262.008 200.674 261.924C200.612 261.408 200.562 260.889 200.511 260.381C200.481 260.048 200.449 259.729 200.42 259.408C200.399 259.17 200.369 258.932 200.348 258.694C200.319 258.332 200.286 257.98 200.257 257.629C200.246 257.537 200.236 257.432 200.228 257.34C199.899 253.685 199.656 250.257 199.389 246.24C199.368 245.856 199.379 245.505 199.411 245.164C199.421 245.05 199.432 244.948 199.451 244.842C199.461 244.74 199.461 244.634 199.48 244.542C199.501 244.429 199.541 244.315 199.571 244.202C199.6 244.077 199.632 243.942 199.672 243.818C199.755 243.591 199.846 243.383 199.939 243.177C199.979 243.104 200.001 243.023 200.041 242.95C200.193 242.68 200.359 242.423 200.543 242.193C200.594 242.131 200.644 242.08 200.695 242.017C200.847 241.842 201.002 241.685 201.176 241.531C201.248 241.458 201.328 241.396 201.4 241.333C201.563 241.209 201.728 241.085 201.891 240.971C201.982 240.92 202.076 240.858 202.166 240.806C202.34 240.704 202.524 240.609 202.719 240.517C202.81 240.487 202.893 240.433 202.976 240.404C203.251 240.29 203.539 240.187 203.835 240.103C204.399 239.957 204.992 239.876 205.574 239.855C206.567 239.833 207.547 239.99 208.418 240.341C212.559 242.009 214.666 244.815 217.326 248.211C217.417 248.303 217.55 248.438 217.734 248.686C217.644 248.584 217.561 248.489 217.467 248.397C217.641 248.613 217.804 248.832 217.988 249.059C220.106 251.73 221.681 255.001 222.856 258.513V209.202C222.856 202.225 228.45 196.57 235.343 196.57H338.845C345.747 196.57 351.331 202.222 351.331 209.202V314.085C376.643 310.938 371.561 335.838 368.974 348.149C367.153 356.783 357.959 358.843 351.331 355.418V360.346C376.643 357.199 376.093 382.378 370.2 393.467C366.803 399.844 358.552 402.05 351.331 401.355V407.9H351.339Z" fill="#E3F0FB"/>
<path d="M301.583 437.966C301.583 437.966 292.685 447.398 280.781 459.108C263.445 476.161 239.727 498.049 227.783 502.645C207.665 510.411 193.921 534.338 193.921 534.338L181.33 550.117H43.4609C63.3122 528.851 148.181 437.706 152.301 429.102C156.352 420.611 157.097 410.154 158.549 400.971C161.433 382.748 166.793 365.904 172.724 348.479C179.034 329.904 186.673 311.527 190.406 292.101C191.346 287.225 193.25 283.072 194.241 278.196C194.834 275.254 195.857 272.854 195.918 270.059C195.939 269.51 195.907 268.931 195.835 268.339C194.588 258.099 194.118 252.374 193.584 244.164C193.349 240.758 195.485 238.717 198.033 238.025C199.558 237.63 201.224 237.703 202.615 238.262C203.729 238.708 204.701 239.246 205.571 239.847C208.199 241.658 209.937 244.134 212.178 246.981C216.279 252.157 218.386 259.529 219.398 266.623C220.36 273.343 220.349 279.812 220.114 283.935C219.633 292.426 216.76 308.443 217.241 318.383C217.721 328.334 224.902 346.762 225.217 357.767C225.545 368.761 222.557 440.007 225.431 447.762C228.304 455.518 230.186 449.368 230.186 449.368L301.583 437.966Z" fill="#FBBDA6"/>
<path d="M301.58 437.969C301.58 437.969 292.686 447.4 280.781 459.114C261.841 458.56 242.398 464.018 224.242 458.527C220.843 457.505 217.31 455.889 215.585 452.756C214.354 450.512 214.242 447.836 214.164 445.278C213.235 416.367 212.306 387.463 211.377 358.551C211.155 351.42 210.923 344.28 211.139 337.149C211.561 323.241 213.767 309.532 216.127 295.848C217.724 286.562 211.734 275.403 218.645 267.426C218.891 267.145 219.145 266.88 219.406 266.623C220.368 273.343 220.352 279.818 220.122 283.94C219.639 292.431 216.763 308.445 217.246 318.383C217.721 328.328 224.91 346.765 225.228 357.762C225.553 368.761 222.568 440.001 225.441 447.76C228.317 455.518 230.192 449.368 230.192 449.368L301.58 437.969Z" fill="#FAB5A0"/>
<path d="M235.223 281.507C235.223 281.507 220.325 284.743 204.872 297.351C204.872 297.351 222.99 286.516 235.223 281.507Z" fill="#EFA790"/>
<path d="M155.092 430.905C155.092 430.905 163.234 457.083 187.867 482.697C187.867 482.695 165.893 452.007 155.092 430.905Z" fill="#EFA790"/>
<path d="M202.586 297.062C202.693 297.04 202.471 297.08 202.586 297.062V297.062Z" fill="#E9BA9C"/>
<path d="M268.187 474.471C268.214 474.455 268.158 474.486 268.187 474.471C268.185 474.471 268.237 474.444 268.187 474.471Z" fill="#E9BA9C"/>
<path d="M211.417 246.04C211.593 246.216 211.764 246.41 211.935 246.608C211.615 246.178 211.417 246.04 211.417 246.04Z" fill="#E9BA9C"/>
<path d="M189.995 540.229C190.024 540.26 190.019 540.255 189.995 540.229V540.229Z" fill="#E9BA9C"/>
<path d="M189.995 540.228C189.971 540.198 189.912 540.134 189.819 540.029C189.814 540.048 189.801 540.064 189.798 540.083C189.811 540.037 189.941 540.172 189.995 540.228Z" fill="#E9BA9C"/>
<path d="M201.371 263.43C200.784 264.79 199.894 265.988 198.997 267.161C198.18 268.223 197.312 269.299 196.145 269.951C196.073 269.991 196.001 270.032 195.924 270.064C195.94 269.51 195.916 268.94 195.843 268.345C195.462 265.25 195.16 262.565 194.898 260.105C194.303 254.42 193.961 249.895 193.587 244.169C193.547 243.558 193.579 242.996 193.683 242.472C194.137 240.068 195.948 238.595 198.036 238.033C198.156 238.379 198.289 238.709 198.45 239.022C199.601 241.369 200.428 243.869 201.016 246.41C201.699 249.368 202.065 252.401 202.255 255.431C202.418 258.14 202.434 260.946 201.371 263.43Z" fill="#FDD9C9"/>
<path d="M345.539 207.134V439.737C345.539 446.725 339.948 452.383 333.048 452.383H229.548C222.653 452.383 217.064 446.722 217.064 439.737V207.134C217.064 200.154 222.656 194.496 229.548 194.496H333.048C339.948 194.496 345.539 200.154 345.539 207.134Z" fill="#481544"/>
<path d="M328.598 444.913H233.997C227.585 444.913 222.389 439.653 222.389 433.162V213.711C222.389 207.221 227.585 201.96 233.997 201.96H328.601C335.012 201.96 340.209 207.221 340.209 213.711V433.159C340.209 439.653 335.012 444.913 328.598 444.913Z" fill="white"/>
<path d="M383.034 282.288C385.167 293.518 370.643 296.848 362.576 300.676C358.09 302.806 353.396 304.712 348.592 306.321C347.59 306.667 346.584 306.988 345.574 307.302V272.954C346.074 272.849 346.616 272.738 347.195 272.624C359.009 270.278 380.23 267.537 383.034 282.288Z" fill="#FBBDA6"/>
<path d="M348.589 306.321C347.587 306.667 346.581 306.988 345.571 307.302V272.954C346.071 272.848 346.613 272.738 347.192 272.624C347.256 275.317 346.93 278.212 346.979 280.566C347.027 282.818 347.075 285.067 347.352 287.295C347.836 291.115 349.005 294.837 349.267 298.687C349.438 301.247 349.208 303.836 348.589 306.321Z" fill="#F8B19B"/>
<path opacity="0.6" d="M196.85 257.713C196.802 258.124 196.738 258.54 196.532 258.894C196.318 259.272 195.945 259.537 195.563 259.762C195.349 259.892 195.125 260.002 194.895 260.1C194.3 254.415 193.958 249.889 193.584 244.164C193.544 243.553 193.576 242.991 193.68 242.466C194.658 242.796 195.515 244.596 195.849 245.707C196.986 249.584 197.328 253.701 196.85 257.713Z" fill="#FEEFEA"/>
<path opacity="0.1" d="M345.539 327.09V355.888C344.69 355.734 343.854 355.518 343.037 355.229C340.249 354.239 337.683 352.174 336.762 349.327C336.332 348 336.279 346.586 336.255 345.186C336.206 343.072 336.222 340.958 336.287 338.841C336.415 334.419 337.534 330.326 341.686 328.123C342.807 327.531 344.143 327.209 345.539 327.09Z" fill="#010101"/>
<path opacity="0.1" d="M345.54 372.651V400.96C343.523 401.152 341.513 401.458 339.497 401.396C336.89 401.314 334.135 400.503 332.492 398.452C330.794 396.346 330.61 393.402 330.714 390.693C330.778 389.02 330.919 387.349 331.152 385.692C331.619 382.308 332.636 378.65 335.448 376.752C338.063 374.984 341.43 374.79 344.215 373.4C344.69 373.168 345.118 372.9 345.54 372.651Z" fill="#010101"/>
<path opacity="0.1" d="M345.54 405.832V436.079C343.769 435.252 342.132 434.005 340.728 432.613C340.028 431.921 339.352 431.175 338.917 430.275C338.402 429.212 338.258 428.007 338.116 426.825C337.774 423.971 337.432 421.116 337.099 418.256C336.837 416.093 336.583 413.906 336.885 411.744C337.187 409.589 338.124 407.435 339.838 406.115C342.044 404.426 343.943 404.618 345.54 405.832Z" fill="#010101"/>
<path d="M352.133 434.86C349.831 434.99 347.516 434.322 345.553 432.613C342.607 430.051 341.192 426.05 340.928 422.127C340.575 416.915 340.997 409.092 345.625 405.756C349.099 403.253 353.743 404.172 357.097 406.532C366.456 413.114 365.527 434.111 352.133 434.86Z" fill="#FBBDA6"/>
<path d="M352.141 413.393C353.444 415.153 353.954 417.394 354.117 419.589C354.28 421.781 354.133 423.99 354.282 426.185C354.341 427.028 354.504 427.977 355.195 428.453C355.868 428.915 356.768 428.742 357.561 428.553C358.512 428.323 359.553 428.037 360.104 427.218C360.432 426.731 360.531 426.128 360.614 425.544C361.193 421.462 361.332 417.126 359.612 413.387C357.893 409.649 353.844 406.743 349.852 407.556C348.378 407.857 345.617 409.089 347.649 410.579C349.182 411.706 350.867 411.674 352.141 413.393Z" fill="#FDD9C9"/>
<path opacity="0.6" d="M357.668 424.263C357.532 424.747 357.409 425.336 357.761 425.693C358.101 426.034 358.707 425.912 359.038 425.566C359.369 425.22 359.489 424.722 359.585 424.252C359.85 422.938 360.912 413.785 358.752 414.423C357.233 414.872 358.285 417.342 358.37 418.267C358.56 420.281 358.213 422.327 357.668 424.263Z" fill="#FEEFEA"/>
<path d="M345.537 358.278V373.9C345.537 373.9 329.338 381.205 333.162 392.442C336.009 400.806 358.242 402.993 364.408 391.393C370.301 380.313 370.849 355.123 345.537 358.278Z" fill="#FBBDA6"/>
<path d="M342.869 382.489C340.837 384.089 341.894 388.912 341.237 391.431C340.631 393.751 342.575 396.132 344.853 396.795C347.131 397.457 349.566 396.843 351.814 396.084C354.744 395.094 357.662 393.81 359.884 391.637C362.103 389.463 363.524 386.244 362.899 383.183C362.162 379.585 357.019 374.336 353.005 375.801C349.042 377.25 346.209 379.856 342.869 382.489Z" fill="#FDD9C9"/>
<path opacity="0.6" d="M354.589 383.121C356.606 384.865 356.811 388.344 355.019 390.32C354.742 390.626 354.421 390.904 354.234 391.272C354.047 391.639 354.031 392.145 354.333 392.426C354.453 392.54 354.608 392.602 354.766 392.65C356.194 393.094 357.778 392.307 358.702 391.118C359.626 389.928 360.018 388.412 360.323 386.93C360.52 385.968 360.691 384.992 360.654 384.011C360.534 380.978 357.674 377.477 354.504 377.323C353.145 377.255 351.655 378.22 351.636 379.772C351.607 381.47 353.513 382.191 354.589 383.121Z" fill="#FEEFEA"/>
<path d="M345.536 312.017V327.639C345.536 327.639 335.493 334.819 339.242 346.081C342.992 357.343 360.586 358.392 363.174 346.081C365.762 333.77 370.849 308.859 345.536 312.017Z" fill="#FBBDA6"/>
<path d="M343.601 334.981C342.76 336.398 342.712 338.187 343.118 339.788C343.526 341.388 344.346 342.845 345.177 344.272C346.234 346.092 347.348 347.933 348.955 349.276C350.563 350.62 352.776 351.401 354.768 350.785C356.763 350.165 358.128 348.327 359.166 346.497C361.036 343.207 362.331 339.582 362.972 335.843C363.204 334.486 363.316 332.964 362.51 331.856C362.05 331.226 361.356 330.823 360.667 330.472C358.205 329.215 355.532 328.385 352.798 328.025C349.882 327.644 349.754 328.585 348.239 330.394C346.87 332.026 344.707 333.118 343.601 334.981Z" fill="#FDD9C9"/>
<path opacity="0.6" d="M352.053 334.175C353.219 334.654 354.515 334.667 355.751 334.911C356.149 334.989 356.552 335.097 356.878 335.341C357.751 336 357.708 337.317 357.577 338.412C357.46 339.387 357.345 340.363 357.228 341.339C357.19 341.655 357.156 341.993 357.294 342.277C357.604 342.918 358.611 342.858 359.092 342.337C359.572 341.815 359.671 341.053 359.746 340.342C359.829 339.544 359.914 338.749 359.999 337.952C360.098 337.027 360.194 336.079 359.959 335.181C359.596 333.781 358.467 332.686 357.19 332.034C355.764 331.307 353.289 330.383 351.633 330.499C348.88 330.699 350.186 333.413 352.053 334.175Z" fill="#FEEFEA"/>
<path d="M305.596 336.762V336.757C305.575 336.746 305.532 336.73 305.481 336.711C305.107 336.549 304.723 336.397 304.333 336.254C309.532 304.317 305.65 282.396 299.975 268.074C299.775 267.566 299.567 267.088 299.361 266.598C299.35 266.571 299.34 266.547 299.329 266.52C293.868 253.56 287.069 247.237 285.027 245.548C285.027 245.551 285.029 245.556 285.029 245.559C284.629 245.229 284.407 245.069 284.407 245.069C284.407 245.069 275.427 251.471 268.847 268.072C263.175 282.383 259.298 304.285 264.481 336.189C264.035 336.352 263.597 336.525 263.173 336.708C263.122 336.727 263.082 336.746 263.058 336.754V336.76C238.112 347.73 248.408 396.24 248.408 396.24C253.69 378.739 267.36 374.703 272.452 373.798C272.74 373.749 273.16 373.684 273.616 373.638C273.627 373.673 273.638 373.706 273.648 373.741C274.628 376.823 275.68 379.972 276.805 383.192C270.839 401.76 273.005 413.758 276.522 421.035C279.854 427.934 284.404 430.591 284.404 430.591C284.404 430.591 288.955 427.931 292.287 421.035C295.804 413.758 297.967 401.766 292.01 383.205C293.136 379.98 294.191 376.825 295.171 373.741C295.179 373.711 295.19 373.684 295.198 373.654C295.588 373.698 295.943 373.752 296.199 373.795C301.289 374.701 314.961 378.737 320.243 396.238C320.246 396.243 330.542 347.735 305.596 336.762Z" fill="#E3F0FB"/>
<path d="M275.51 374.714C276.007 373.43 276.543 372.119 277.115 370.778H284.805C285.377 372.119 285.911 373.433 286.41 374.714C294.963 396.773 292.728 410.576 288.843 418.616C285.51 425.514 280.96 428.172 280.96 428.172C280.96 428.172 276.413 425.512 273.077 418.616C269.189 410.573 266.954 396.773 275.51 374.714Z" fill="#F99F36"/>
<path d="M276.992 381.445C277.355 380.51 277.742 379.556 278.159 378.58H283.758C284.175 379.556 284.565 380.513 284.925 381.445C291.153 397.506 289.526 407.556 286.696 413.409C284.268 418.432 280.955 420.367 280.955 420.367C280.955 420.367 277.643 418.432 275.216 413.409C272.391 407.556 270.762 397.508 276.992 381.445Z" fill="#FEBE46"/>
<path d="M278.073 385.903C278.337 385.225 278.621 384.527 278.922 383.819H282.997C283.299 384.53 283.582 385.225 283.846 385.903C288.375 397.587 287.192 404.896 285.136 409.157C283.371 412.812 280.96 414.22 280.96 414.22C280.96 414.22 278.551 412.812 276.786 409.157C274.725 404.896 273.542 397.587 278.073 385.903Z" fill="#FFD085"/>
<path d="M290.801 332.145V371.119C290.801 371.119 310.249 372.124 316.796 393.821C316.796 393.821 329.894 332.145 290.801 332.145Z" fill="#F05146"/>
<path opacity="0.1" d="M302.149 334.332C302.149 334.332 302.371 355.907 293.148 371.448C293.148 371.448 290.883 370.981 289.729 371.243L299.602 333.348C299.602 333.351 301.896 334.224 302.149 334.332Z" fill="#010101"/>
<path d="M270.96 332.145V371.119C270.96 371.119 251.512 372.124 244.964 393.821C244.964 393.821 231.866 332.145 270.96 332.145Z" fill="#F05146"/>
<path opacity="0.1" d="M259.614 334.332C259.614 334.332 259.392 355.907 268.615 371.448C268.615 371.448 270.88 370.981 272.033 371.243L262.161 333.348C262.159 333.351 259.865 334.224 259.614 334.332Z" fill="#010101"/>
<path d="M291.713 371.321C290.731 374.411 289.676 377.569 288.546 380.797H273.366C272.236 377.569 271.181 374.409 270.199 371.321C253.319 318.226 257.728 285.005 265.397 265.65C271.977 249.046 280.957 242.647 280.957 242.647C280.957 242.647 289.935 249.049 296.512 265.65C304.187 285.005 308.598 318.223 291.713 371.321Z" fill="#F3F3F3"/>
<path d="M296.515 265.65H265.4C271.98 249.046 280.96 242.647 280.96 242.647C280.96 242.647 289.938 249.049 296.515 265.65Z" fill="#F05146"/>
<path d="M280.957 319.881C288.52 319.881 294.651 313.674 294.651 306.018C294.651 298.362 288.52 292.156 280.957 292.156C273.394 292.156 267.264 298.362 267.264 306.018C267.264 313.674 273.394 319.881 280.957 319.881Z" fill="#F05146"/>
<path d="M289.43 306.021C289.43 310.757 285.633 314.596 280.957 314.596C280.743 314.596 280.522 314.587 280.313 314.568C279.221 314.49 278.185 314.193 277.248 313.73C277.106 313.66 276.965 313.587 276.829 313.503C275.17 312.568 273.859 311.084 273.125 309.294C272.719 308.286 272.489 307.18 272.489 306.021C272.489 301.279 276.281 297.443 280.96 297.443C281.032 297.443 281.106 297.443 281.179 297.449C283.16 297.5 284.976 298.235 286.391 299.441C286.511 299.538 286.629 299.644 286.743 299.76C287.521 300.487 288.159 301.368 288.621 302.355C289.139 303.463 289.43 304.707 289.43 306.021Z" fill="#D7ECF8"/>
<path d="M286.388 299.438L276.826 313.501C275.168 312.565 273.856 311.081 273.122 309.292L281.176 297.443C283.16 297.497 284.973 298.232 286.388 299.438Z" fill="white"/>
<path d="M288.618 302.352L280.314 314.566C279.221 314.487 278.185 314.19 277.248 313.728L286.741 299.757C287.518 300.484 288.156 301.368 288.618 302.352Z" fill="white"/>
<path d="M291.713 371.322C290.73 374.411 289.676 377.569 288.546 380.797H273.365C272.236 377.569 271.181 374.409 270.198 371.322H291.713Z" fill="#388ACA"/>
<path opacity="0.1" d="M296.528 265.65C290.971 251.625 283.702 244.88 281.579 243.123C287.176 270.818 298.808 344.405 273.379 380.797H288.56C289.689 377.569 290.744 374.409 291.727 371.321C308.611 318.223 304.197 285.005 296.528 265.65Z" fill="#010101"/>
<path d="M332.577 210.224H231.994V218.607H332.577V210.224Z" fill="#E3F0FB"/>
<path d="M332.577 224H231.994V232.383H332.577V224Z" fill="#E3F0FB"/>
<defs>
<linearGradient id="paint0_linear_472_2554" x1="400.809" y1="155.291" x2="412.076" y2="87.4956" gradientUnits="userSpaceOnUse">
<stop stop-color="#FFD38C"/>
<stop offset="0.4818" stop-color="#D94E9C"/>
<stop offset="1" stop-color="#7163AC"/>
</linearGradient>
</defs>
</svg>
