<svg width="155" height="45" viewBox="0 0 155 45" fill="none" xmlns="http://www.w3.org/2000/svg">
<path d="M90.7799 30.8669C90.5268 30.8672 90.2743 30.8434 90.0257 30.7961L89.8799 30.7711L89.8549 30.6211C89.8316 30.4094 89.8233 30.1964 89.8299 29.9836V28.6627C89.8299 28.4544 89.8299 28.2461 89.8299 28.0086C89.8299 27.7711 89.8299 27.5377 89.8299 27.2961V24.5877C89.8299 24.1002 89.8299 23.6377 89.8299 23.1752C89.8299 22.7127 89.8299 22.3419 89.8299 21.9252C89.3734 21.9246 88.9271 21.7899 88.5466 21.5377L88.4507 21.4627V21.3419C88.5632 20.4294 88.7132 20.1961 89.2841 20.0211C89.3674 19.9961 89.4466 19.9794 89.5549 19.9544L89.8049 19.9002C89.8021 19.4071 89.8327 18.9143 89.8966 18.4252V18.4252C90.2132 14.7877 93.2299 14.5044 94.1591 14.5044C95.0882 14.5044 95.7174 14.6752 96.0591 14.9752L96.1466 15.0669C96.2645 15.2325 96.3179 15.4355 96.2966 15.6377C96.2727 15.8335 96.2237 16.0254 96.1507 16.2086C96.0825 16.3902 95.9823 16.5581 95.8549 16.7044L95.8299 16.7294H95.8007C95.6528 16.8019 95.4905 16.8403 95.3257 16.8419C95.2495 16.8423 95.1736 16.831 95.1007 16.8086H95.0716H95.0466C95.0239 16.7902 94.9964 16.7786 94.9674 16.7752H94.9341H94.9049C94.6607 16.7169 94.4101 16.6902 94.1591 16.6961C93.4841 16.6961 92.6924 16.9252 92.6049 18.7294C92.6049 19.1044 92.6049 19.4377 92.6049 19.8252H93.3507C93.8299 19.8252 94.5382 19.8044 94.8132 19.7836H95.0549V20.0294C94.9924 21.1919 94.8716 21.6127 94.2882 21.8294L94.1924 21.8711L94.0424 21.9336H94.0174H93.9966C93.531 21.9726 93.0637 21.9879 92.5966 21.9794C92.5966 24.5252 92.6216 27.9294 92.6424 30.0669C92.6614 30.2161 92.6309 30.3674 92.5556 30.4976C92.4803 30.6278 92.3645 30.7297 92.2257 30.7877C91.7468 30.8541 91.2632 30.8806 90.7799 30.8669V30.8669Z" fill="#5E5D5D"/>
<path d="M99.1257 31.1124C95.9716 31.1124 94.4382 29.2291 94.4382 25.3499C94.4382 21.6458 96.1716 19.5166 99.1966 19.5166C102.222 19.5166 103.834 21.4874 103.834 25.2166C103.834 28.8541 102.022 31.1124 99.1257 31.1124ZM99.1257 21.6458C98.0132 21.6458 97.3507 22.9999 97.3507 25.2624C97.3507 27.7624 97.9632 29.0124 99.1716 29.0124C100.305 29.0124 100.93 27.6833 100.93 25.2624C100.93 22.8416 100.338 21.6458 99.1257 21.6458Z" fill="#5E5D5D"/>
<path d="M104.772 30.8666V30.6499C104.792 29.6333 104.817 28.0666 104.817 26.2249V22.4749C104.821 21.9278 104.726 21.3845 104.538 20.8708L104.497 20.7416L104.588 20.6458C104.89 20.3793 105.241 20.1741 105.622 20.0416C105.755 19.9935 105.897 19.9723 106.038 19.9791C106.203 19.959 106.371 19.9813 106.524 20.044C106.678 20.1068 106.814 20.2077 106.917 20.3374C107.289 20.118 107.681 19.9352 108.088 19.7916C108.428 19.6533 108.792 19.5812 109.159 19.5791C109.272 19.5788 109.385 19.5872 109.497 19.6041C110.505 19.7083 110.747 20.1458 110.792 20.3999C110.802 20.9549 110.65 21.5007 110.355 21.9708L110.309 22.0333H110.238C110.105 22.0797 109.963 22.0981 109.822 22.0874C109.594 22.0867 109.368 22.0714 109.142 22.0416C109.058 22.0138 108.969 21.9997 108.88 21.9999C108.642 21.9865 108.405 22.0201 108.18 22.0988C107.956 22.1774 107.749 22.2996 107.572 22.4583V29.4166C107.601 29.7819 107.508 30.1465 107.309 30.4541V30.4833H107.284C106.867 30.8041 106.43 30.8166 105.005 30.8166L104.772 30.8666Z" fill="#5E5D5D"/>
<path d="M122.226 30.8663L122.167 30.7496C122.022 30.4631 121.946 30.1461 121.947 29.8246V23.783C121.947 22.0788 121.609 21.783 120.905 21.783C120.356 21.8216 119.842 22.0639 119.463 22.4621V30.1621C119.463 30.3996 119.359 30.7121 118.855 30.8371C118.563 30.867 118.269 30.8767 117.976 30.8663H116.626V30.6455C116.667 29.533 116.667 28.0913 116.667 26.4246V23.7621C116.667 22.058 116.326 21.758 115.605 21.758C115.048 21.7856 114.523 22.0292 114.142 22.4371V29.5205C114.172 29.8752 114.066 30.228 113.847 30.508V30.508C113.43 30.8413 113.059 30.8413 111.588 30.8413H111.334V30.6246C111.334 29.508 111.334 28.058 111.334 26.3746V22.4163C111.343 21.8695 111.257 21.3252 111.08 20.808L111.038 20.6913L111.122 20.5955C111.419 20.3161 111.775 20.1056 112.163 19.9788C112.283 19.9392 112.408 19.9195 112.534 19.9205C112.701 19.9161 112.866 19.9486 113.019 20.0155C113.172 20.0825 113.308 20.1824 113.417 20.308C113.807 20.0669 114.227 19.8804 114.667 19.7538C115.157 19.5889 115.672 19.5099 116.188 19.5205C116.35 19.5171 116.511 19.5254 116.672 19.5455C117.413 19.5775 118.116 19.885 118.642 20.408C119.062 20.1353 119.518 19.9221 119.997 19.7746C120.47 19.6124 120.967 19.5334 121.467 19.5413C121.639 19.5354 121.81 19.5438 121.98 19.5663V19.5663C124.417 19.7746 124.751 21.758 124.751 23.6705V27.3871C124.751 28.4788 124.751 29.508 124.792 30.283V30.3996L124.701 30.4663C124.284 30.7913 123.809 30.883 122.355 30.883L122.226 30.8663Z" fill="#5E5D5D"/>
<path d="M128.834 31.0919C127.272 31.0919 125.967 30.596 125.663 29.8877V29.8502V29.8044C125.694 29.321 125.864 28.8568 126.151 28.4669L126.217 28.3835H126.547C126.753 28.3875 126.956 28.4343 127.142 28.521L127.301 28.5794C127.777 28.7896 128.289 28.9056 128.809 28.921C128.932 28.9149 129.055 28.901 129.176 28.8794C129.301 28.8746 129.424 28.8448 129.537 28.7915C129.651 28.7383 129.752 28.6628 129.836 28.5694C129.919 28.4761 129.983 28.3669 130.024 28.2484C130.064 28.1298 130.081 28.0043 130.072 27.8794C130.072 27.421 129.847 27.0752 129.313 26.7127C129.234 26.6513 129.152 26.5943 129.067 26.5419L129.13 26.4294L129.042 26.5335C128.505 26.1585 127.909 25.6752 127.505 25.3335L126.951 24.8919C126.614 24.6003 126.342 24.242 126.151 23.8396C125.96 23.4372 125.855 22.9995 125.842 22.5544C125.842 20.7085 127.33 19.521 129.634 19.521C129.861 19.5203 130.088 19.5356 130.313 19.5669C131.826 19.6835 132.547 20.3252 132.659 20.7252V20.7544V20.7835C132.617 21.2459 132.447 21.6874 132.167 22.0585L132.084 22.1669L131.947 22.1335C131.888 22.1335 131.751 22.0919 131.638 22.071L131.509 22.046C131.247 22.0053 130.989 21.9426 130.738 21.8585C130.442 21.7368 130.125 21.6732 129.805 21.671C129.159 21.671 128.742 21.9919 128.742 22.4835C128.742 22.7627 128.834 23.0169 129.267 23.371L129.342 23.421C129.576 23.596 129.876 23.8127 130.197 24.0335C130.447 24.2335 130.713 24.421 130.963 24.6044C131.213 24.7877 131.338 24.8752 131.501 25.0002C132.509 25.8335 132.976 26.6877 132.976 27.6794C132.955 29.7502 131.334 31.0919 128.834 31.0919Z" fill="#5E5D5D"/>
<path d="M73.7299 30.9789C73.36 30.6566 73.0812 30.2428 72.9216 29.7789L72.7716 29.2497L72.6257 28.7247C72.5882 28.5955 72.5549 28.4705 72.5257 28.358L72.4716 28.1455C72.2507 27.2289 72.0174 26.1955 71.8382 25.383C71.6591 26.108 71.4591 26.883 71.2716 27.5955L70.6591 29.933V29.9539C70.6579 29.9747 70.6579 29.9956 70.6591 30.0164C70.6591 30.0164 70.6591 30.0497 70.6591 30.0705C70.5424 30.4664 70.4507 30.7789 70.0049 30.9289C69.8007 30.9622 69.3924 30.983 68.5632 31.0289H68.4841L68.4216 30.9789C68.0322 30.6631 67.7415 30.2423 67.5841 29.7664L67.1674 28.1955C66.8049 26.8622 66.3716 25.2789 65.9841 23.8622C65.7924 23.1414 65.2091 20.9455 65.0341 20.5622L64.9882 20.4622L65.0424 20.3664C65.3007 19.9039 66.0424 19.6997 67.4424 19.6997H67.5174L67.5757 19.7455C67.8287 19.9786 68.0034 20.2843 68.0757 20.6205C68.2757 21.4955 68.4924 22.4372 68.7257 23.3539C68.8007 23.6914 68.8674 24.0289 68.9341 24.3497C68.9841 24.6039 69.0341 24.8497 69.0841 25.0789L69.2924 26.1039C69.2924 26.1747 69.3174 26.2372 69.3299 26.2955C69.4382 25.833 69.5674 25.2955 69.6966 24.7414C69.8257 24.1872 70.5299 21.3705 70.6341 20.8289C70.6598 20.7566 70.6739 20.6806 70.6757 20.6039V20.333L70.7174 20.2747C70.8716 20.0747 72.0632 19.858 72.4966 19.858C72.5919 19.8552 72.6872 19.865 72.7799 19.8872H72.8299L72.8674 19.9247C73.1429 20.2006 73.3164 20.5621 73.3591 20.9497C73.6049 22.0247 73.9174 23.3455 74.2549 24.733C74.3007 24.9372 74.3424 25.1497 74.3841 25.3455C74.4424 25.6247 74.5007 25.9039 74.5674 26.1789C74.5674 26.2414 74.5924 26.2955 74.6049 26.3455C74.7966 25.5455 74.9924 24.6247 75.1924 23.6664L75.2924 23.2122C75.5216 22.2664 75.7091 21.3455 75.9174 20.3914V20.3289V20.2455V20.2122C75.9489 20.1107 75.9967 20.015 76.0591 19.9289V19.9039H76.0841C76.2625 19.7712 76.4835 19.7089 76.7049 19.7289C77.2334 19.7493 77.759 19.8162 78.2757 19.9289C78.3411 19.9651 78.3983 20.0146 78.4435 20.0741C78.4887 20.1337 78.5209 20.202 78.5382 20.2747C78.5667 20.5571 78.5296 20.8423 78.4299 21.108L78.3507 21.308C78.1966 21.8247 78.0341 22.4205 77.8591 23.058C77.7341 23.5289 77.5966 24.0247 77.4424 24.5289C76.9257 26.458 76.3799 28.4539 75.9216 29.9455C75.9112 29.9641 75.9028 29.9836 75.8966 30.0039V30.0872C75.8091 30.4539 75.7257 30.8039 75.2632 30.958C75.0716 30.9872 74.7049 31.008 73.9799 31.0497H73.7424L73.7299 30.9789Z" fill="#B85A1B"/>
<path d="M80.5007 35.3461C80.1838 35.3384 79.8684 35.2993 79.5591 35.2295L79.4174 35.1961L79.3924 35.0545C79.318 34.2916 79.2943 33.5246 79.3216 32.7586V22.442C79.3363 21.9033 79.2573 21.3661 79.0882 20.8545L79.0549 20.7628L79.1091 20.6753C79.3812 20.3552 79.7423 20.1232 80.1466 20.0086C80.2685 19.9723 80.3945 19.9513 80.5216 19.9461C80.6889 19.9439 80.8548 19.9778 81.008 20.0454C81.1611 20.1129 81.2979 20.2127 81.4091 20.3378C81.7913 20.1008 82.1978 19.9052 82.6216 19.7545C83.0881 19.5812 83.5822 19.4937 84.0799 19.4961C86.7632 19.4961 88.3007 21.3545 88.3007 24.5878C88.3007 27.1836 87.5757 29.1336 86.2174 30.217C85.4961 30.815 84.5834 31.1331 83.6466 31.1128C83.1241 31.1289 82.6035 31.044 82.1132 30.8628V33.8795C82.1228 34.2107 82.1074 34.5422 82.0674 34.8711V34.9586L81.9091 35.0795C81.4673 35.2785 80.9847 35.3699 80.5007 35.3461V35.3461ZM82.1007 28.5086C82.4297 28.8055 82.8537 28.9754 83.2966 28.9878C84.2966 28.9878 85.3799 27.8711 85.3799 24.7461C85.3799 22.067 84.3757 21.7586 83.6216 21.7586C83.0619 21.8072 82.5329 22.0352 82.1132 22.4086L82.1007 28.5086Z" fill="#B85A1B"/>
<path d="M27.3591 26.5376C29.4966 26.8251 31.3674 26.3418 32.8883 24.9751L35.4341 25.1084L34.0466 29.1959C32.5049 31.6418 30.2674 32.1626 27.9758 32.0084L27.3591 26.5376Z" fill="#7EAABA"/>
<path d="M28.3049 27.4625L28.7216 31.2125C30.6299 31.2125 32.1508 30.575 33.3049 28.8417L34.3091 25.925L33.1924 25.8667C31.8263 26.9958 30.0877 27.5739 28.3174 27.4875L28.3049 27.4625Z" fill="#D3E8EF"/>
<path d="M28.3049 27.4621L28.5549 29.6746C31.1758 29.3663 33.2174 28.2871 34.2758 25.8996L33.1591 25.8413C31.8012 26.9705 30.0689 27.5489 28.3049 27.4621Z" fill="white"/>
<path d="M27.9758 23.3379C28.834 23.3371 29.6732 23.5909 30.3871 24.0672C31.1011 24.5434 31.6576 25.2208 31.9865 26.0136C32.3153 26.8063 32.4015 27.6788 32.2343 28.5206C32.0671 29.3624 31.6539 30.1356 31.047 30.7425C30.4401 31.3493 29.6669 31.7625 28.8251 31.9297C27.9833 32.097 27.1109 32.0107 26.3181 31.6819C25.5254 31.3531 24.848 30.7965 24.3717 30.0826C23.8954 29.3686 23.6416 28.5295 23.6424 27.6712C23.6446 26.5226 24.1019 25.4217 24.9141 24.6095C25.7262 23.7973 26.8272 23.3401 27.9758 23.3379" fill="#7EAABA"/>
<path d="M27.9758 24.1831C27.2891 24.1823 26.6177 24.3851 26.0463 24.766C25.475 25.1469 25.0295 25.6887 24.7662 26.3228C24.5028 26.957 24.4335 27.655 24.5669 28.3285C24.7004 29.0021 25.0306 29.6209 25.5159 30.1067C26.0011 30.5925 26.6195 30.9235 27.2929 31.0578C27.9663 31.192 28.6644 31.1235 29.2989 30.861C29.9333 30.5984 30.4756 30.1535 30.8572 29.5827C31.2388 29.0118 31.4424 28.3406 31.4424 27.6539C31.443 27.1983 31.3537 26.7471 31.1797 26.326C31.0058 25.9049 30.7505 25.5223 30.4285 25.1999C30.1066 24.8776 29.7242 24.6219 29.3034 24.4474C28.8825 24.2729 28.4314 24.1831 27.9758 24.1831" fill="#D3E8EF"/>
<path d="M27.9758 24.1832C27.4159 24.1803 26.8639 24.3139 26.3673 24.5723C25.8707 24.8308 25.4446 25.2063 25.1258 25.6665C25.1847 26.5472 25.5751 27.3729 26.2183 27.9774C26.8615 28.582 27.7097 28.9205 28.5924 28.9248C29.1522 28.9277 29.7043 28.7941 30.2009 28.5356C30.6975 28.2772 31.1236 27.9016 31.4424 27.4415C31.3873 26.5594 30.9981 25.7314 30.3541 25.126C29.7101 24.5207 28.8596 24.1836 27.9758 24.1832" fill="white"/>
<path d="M27.5341 23.9746C28.1753 23.9746 28.802 24.165 29.3349 24.5217C29.8677 24.8784 30.2827 25.3853 30.5271 25.978C30.7715 26.5708 30.8344 27.2229 30.7078 27.8514C30.5812 28.48 30.2707 29.0568 29.8159 29.5088C29.361 29.9607 28.7822 30.2674 28.1528 30.3899C27.5234 30.5125 26.8719 30.4454 26.2806 30.1972C25.6894 29.9489 25.1853 29.5307 24.8321 28.9956C24.4788 28.4604 24.2925 27.8325 24.2966 27.1913C24.2999 26.3356 24.6427 25.5162 25.2498 24.9131C25.8568 24.3099 26.6784 23.9724 27.5341 23.9746Z" fill="#7EAABA"/>
<path d="M27.3008 23.1045C27.9443 23.1054 28.573 23.2972 29.1074 23.6558C29.6417 24.0143 30.0576 24.5234 30.3023 25.1186C30.5471 25.7137 30.6096 26.3681 30.482 26.9988C30.3544 27.6295 30.0425 28.2082 29.5857 28.6615C29.129 29.1147 28.5479 29.4222 27.9162 29.5449C27.2845 29.6676 26.6306 29.6 26.0374 29.3507C25.4442 29.1014 24.9383 28.6816 24.5839 28.1445C24.2295 27.6074 24.0425 26.9772 24.0466 26.3337C24.0532 25.4742 24.3987 24.652 25.008 24.0458C25.6173 23.4396 26.4412 23.0984 27.3008 23.0962" fill="#7F3E13"/>
<path d="M27.6091 24.3374C27.0982 24.3374 26.5987 24.4889 26.1739 24.7728C25.749 25.0566 25.4179 25.4601 25.2224 25.9321C25.0269 26.4042 24.9757 26.9236 25.0754 27.4247C25.1751 27.9258 25.4211 28.3861 25.7824 28.7474C26.1437 29.1087 26.604 29.3548 27.1051 29.4544C27.6062 29.5541 28.1256 29.503 28.5977 29.3074C29.0697 29.1119 29.4732 28.7808 29.7571 28.356C30.0409 27.9311 30.1924 27.4317 30.1924 26.9207C30.1913 26.2359 29.9188 25.5795 29.4346 25.0953C28.9503 24.611 28.2939 24.3385 27.6091 24.3374" fill="#B85A1B"/>
<path d="M25.6633 20.4997C25.6633 20.124 25.8125 19.7636 26.0782 19.4979C26.3439 19.2323 26.7042 19.083 27.0799 19.083C27.4556 19.083 27.816 19.2323 28.0817 19.4979C28.3473 19.7636 28.4966 20.124 28.4966 20.4997C29.2841 19.1663 31.7716 19.8997 30.9966 21.983C31.0389 22.1475 31.0709 22.3145 31.0924 22.483C32.4424 22.558 32.8841 24.658 31.0341 25.3163C30.8964 25.8559 30.6481 26.3611 30.3049 26.7997C28.7216 28.1663 28.2216 27.0497 27.3549 26.1247C26.5216 26.1247 24.2716 25.5663 24.9091 27.683C23.4674 26.7497 22.5424 24.8788 23.2341 22.1413C22.2716 19.9247 24.8341 19.0997 25.6633 20.4747V20.4997Z" fill="#7F3E13"/>
<path d="M24.1049 22.4498C23.7758 23.779 23.7549 25.2831 24.7008 26.3623C26.0299 27.8831 28.7258 27.8081 29.7674 25.8998C30.3258 24.8581 30.2883 23.5665 30.0549 22.4331C28.0913 22.0373 26.0685 22.0373 24.1049 22.4331V22.4498Z" fill="#B85A1B"/>
<path d="M24.1049 22.4499C23.7758 23.7791 23.7549 25.2833 24.7008 26.3624C25.0034 26.695 25.372 26.9608 25.7831 27.143C26.1941 27.3252 26.6386 27.4198 27.0883 27.4208V22.1416C26.0863 22.1493 25.0873 22.2526 24.1049 22.4499" fill="#E1762F"/>
<path d="M25.4133 23.471C25.2863 23.8345 25.2514 24.2238 25.3118 24.6041C25.3721 24.9844 25.5258 25.3438 25.7591 25.6501C25.9412 25.8574 26.1699 26.0185 26.4264 26.1201C26.683 26.2217 26.96 26.2609 27.2346 26.2345C27.5093 26.208 27.7737 26.1167 28.0062 25.968C28.2386 25.8193 28.4324 25.6175 28.5716 25.3793C28.8451 24.775 28.8996 24.0944 28.7258 23.4543C27.6328 23.2314 26.5062 23.2314 25.4133 23.4543" fill="#7F3E13"/>
<path d="M27.0716 21.4295C27.2614 21.4153 27.4388 21.33 27.5683 21.1905C27.6978 21.051 27.7697 20.8677 27.7697 20.6774C27.7697 20.4871 27.6978 20.3038 27.5683 20.1643C27.4388 20.0248 27.2614 19.9394 27.0716 19.9253V21.4295ZM29.7883 20.5003C29.9364 20.5011 30.081 20.5458 30.2038 20.6287C30.3266 20.7116 30.4221 20.829 30.4782 20.9662C30.5343 21.1033 30.5486 21.2539 30.5192 21.3991C30.4898 21.5444 30.418 21.6776 30.313 21.7821C30.2079 21.8866 30.0743 21.9576 29.9289 21.9862C29.7835 22.0148 29.6329 21.9997 29.4961 21.9428C29.3593 21.8859 29.2424 21.7898 29.1602 21.6665C29.078 21.5433 29.0341 21.3985 29.0341 21.2503C29.0352 21.051 29.1151 20.8602 29.2565 20.7197C29.3978 20.5792 29.589 20.5003 29.7883 20.5003" fill="#B85A1B"/>
<path d="M24.5091 20.563C24.6989 20.5771 24.8763 20.6625 25.0058 20.802C25.1353 20.9414 25.2072 21.1247 25.2072 21.315C25.2072 21.5054 25.1353 21.6886 25.0058 21.8281C24.8763 21.9676 24.6989 22.053 24.5091 22.0671C24.3139 22.0631 24.1275 21.9852 23.9875 21.8491C23.8475 21.713 23.7644 21.5288 23.7549 21.3338C23.756 21.1345 23.836 20.9437 23.9773 20.8032C24.1186 20.6627 24.3098 20.5838 24.5091 20.5838M27.0716 21.4505V19.9463C26.8762 19.9537 26.691 20.0355 26.5539 20.1749C26.4168 20.3143 26.3382 20.5008 26.3341 20.6963C26.3346 20.7942 26.3546 20.891 26.393 20.9811C26.4313 21.0712 26.4872 21.1528 26.5574 21.2211C26.6276 21.2893 26.7107 21.3429 26.8019 21.3787C26.893 21.4145 26.9904 21.4318 27.0883 21.4296L27.0716 21.4505Z" fill="#E1762F"/>
<path d="M30.6341 23.2042C30.7824 23.2042 30.9274 23.2482 31.0508 23.3306C31.1741 23.413 31.2702 23.5302 31.327 23.6672C31.3838 23.8042 31.3986 23.955 31.3697 24.1005C31.3407 24.246 31.2693 24.3796 31.1644 24.4845C31.0595 24.5894 30.9259 24.6609 30.7804 24.6898C30.6349 24.7187 30.4841 24.7039 30.3471 24.6471C30.21 24.5904 30.0929 24.4942 30.0105 24.3709C29.9281 24.2475 29.8841 24.1025 29.8841 23.9542C29.8824 23.8553 29.9006 23.757 29.9377 23.6652C29.9748 23.5734 30.03 23.4901 30.1 23.4201C30.17 23.3501 30.2533 23.2949 30.3451 23.2579C30.4368 23.2208 30.5351 23.2025 30.6341 23.2042Z" fill="#B85A1B"/>
<path d="M56.4133 32.0668C56.2424 29.8127 55.2216 28.1918 53.2174 27.3252L53.6341 25.7668L56.8716 24.896C59.6841 25.7293 60.7632 27.5585 61.3007 29.8127L56.4257 32.0668H56.4133Z" fill="#7EAABA"/>
<path d="M57.0883 30.8336L60.3091 29.3294C59.7466 27.4419 58.8049 26.2294 56.8216 25.7461L54.2966 26.4211L54.1799 26.8378C54.9211 27.2575 55.5645 27.8301 56.0674 28.5176C56.5703 29.2051 56.9211 29.9918 57.0966 30.8253L57.0883 30.8336Z" fill="white"/>
<path d="M53.2924 32.4498C53.0323 31.6595 53.0123 30.8098 53.2349 30.0082C53.4575 29.2065 53.9127 28.4889 54.543 27.9458C55.1733 27.4028 55.9505 27.0588 56.7762 26.9572C57.602 26.8557 58.4393 27.0012 59.1824 27.3754C59.9255 27.7495 60.541 28.3356 60.9512 29.0594C61.3614 29.7833 61.5478 30.6125 61.4868 31.4422C61.4259 32.272 61.1205 33.065 60.609 33.7212C60.0975 34.3774 59.403 34.8673 58.6133 35.1289C58.088 35.3041 57.5334 35.3737 56.9812 35.3337C56.429 35.2937 55.8901 35.1449 55.3956 34.896C54.9011 34.647 54.4607 34.3027 54.0998 33.8829C53.7388 33.463 53.4645 32.976 53.2924 32.4498" fill="#7EAABA"/>
<path d="M53.9883 32.2209C54.204 32.8742 54.6085 33.4488 55.1507 33.8722C55.6929 34.2956 56.3485 34.5488 57.0345 34.5997C57.7206 34.6506 58.4063 34.497 59.0051 34.1582C59.6039 33.8195 60.0888 33.3108 60.3985 32.6966C60.7083 32.0823 60.829 31.39 60.7454 30.7072C60.6617 30.0243 60.3776 29.3816 59.9287 28.8602C59.4799 28.3388 58.8866 27.9622 58.2238 27.778C57.561 27.5937 56.8584 27.6101 56.2049 27.8251C55.7703 27.9675 55.368 28.1942 55.0212 28.4924C54.6744 28.7906 54.3898 29.1543 54.1839 29.5627C53.978 29.9711 53.8547 30.4162 53.8211 30.8723C53.7875 31.3285 53.8443 31.7868 53.9883 32.2209" fill="#D3E8EF"/>
<path d="M60.7299 30.658C60.7055 30.4487 60.6608 30.2421 60.5966 30.0414C60.4542 29.6072 60.2275 29.2054 59.9296 28.8589C59.6317 28.5124 59.2684 28.2281 58.8605 28.0222C58.4526 27.8163 58.0081 27.6929 57.5524 27.659C57.0967 27.6251 56.6388 27.6814 56.2049 27.8247C55.6681 28.0099 55.1798 28.3132 54.7758 28.7122C54.8036 28.9214 54.8496 29.1277 54.9133 29.3289C55.2028 30.2044 55.8276 30.9294 56.6509 31.345C57.4741 31.7605 58.4286 31.8326 59.3049 31.5455C59.8492 31.3791 60.3405 31.0731 60.7299 30.658" fill="white"/>
<path d="M52.5049 33.529C52.2585 32.7836 52.2389 31.9819 52.4484 31.2253C52.6579 30.4688 53.0872 29.7914 53.682 29.279C54.2767 28.7666 55.0101 28.4421 55.7893 28.3468C56.5685 28.2514 57.3585 28.3894 58.0593 28.7433C58.76 29.0971 59.34 29.651 59.7258 30.3347C60.1116 31.0184 60.2858 31.8012 60.2265 32.584C60.1671 33.3668 59.8768 34.1143 59.3924 34.732C58.9079 35.3497 58.251 35.8098 57.5049 36.054C57.0109 36.2174 56.4894 36.2817 55.9705 36.2431C55.4515 36.2046 54.9453 36.064 54.4807 35.8295C54.0162 35.5949 53.6026 35.2709 53.2635 34.8762C52.9245 34.4814 52.6667 34.0236 52.5049 33.529" fill="#7F3E13"/>
<path d="M53.3133 33.2792C53.1189 32.6926 53.1028 32.0614 53.2671 31.4656C53.4314 30.8698 53.7687 30.3361 54.2363 29.932C54.7039 29.5279 55.2808 29.2715 55.8942 29.1953C56.5075 29.119 57.1296 29.2263 57.6819 29.5037C58.2343 29.781 58.6919 30.2159 58.9971 30.7533C59.3023 31.2907 59.4413 31.9066 59.3965 32.523C59.3516 33.1394 59.1251 33.7287 58.7454 34.2163C58.3657 34.7039 57.8499 35.068 57.2633 35.2626C56.4764 35.5223 55.6187 35.4594 54.8782 35.0876C54.1377 34.7158 53.5749 34.0654 53.3133 33.2792" fill="#B85A1B"/>
<path d="M53.1799 31.796C53.2722 31.2263 53.518 30.6924 53.891 30.252C54.2639 29.8115 54.7499 29.481 55.2966 29.296C55.6875 29.1671 56.1 29.1166 56.5105 29.1474C56.921 29.1783 57.3214 29.2897 57.6887 29.4755C58.056 29.6613 58.383 29.9177 58.6511 30.2301C58.9191 30.5425 59.1229 30.9047 59.2508 31.296C59.332 31.5461 59.3838 31.8048 59.4049 32.0668C58.4645 32.6624 57.3642 32.9557 56.252 32.9073C55.1399 32.8589 54.0692 32.4711 53.1841 31.796H53.1799Z" fill="#E1762F"/>
<path d="M38.7674 8C39.5481 8.02398 40.2877 8.35527 40.8253 8.92177C41.3629 9.48828 41.6551 10.2442 41.6383 11.025C41.6493 11.4124 41.5838 11.7981 41.4453 12.1601C41.3069 12.522 41.0983 12.8531 40.8315 13.1341C40.5648 13.4152 40.2451 13.6409 39.8909 13.798C39.5366 13.9552 39.1548 14.0408 38.7674 14.05C37.9901 14.0217 37.2552 13.6884 36.7217 13.1223C36.1883 12.5561 35.8994 11.8026 35.9174 11.025C35.8994 10.2474 36.1883 9.49389 36.7217 8.92773C37.2552 8.36157 37.9901 8.02828 38.7674 8" fill="#7F3E13"/>
<path d="M38.7674 8.83301C38.2103 8.85898 37.686 9.10376 37.3084 9.51415C36.9308 9.92453 36.7304 10.4674 36.7508 11.0247C36.7315 11.5835 36.9333 12.1274 37.3124 12.5384C37.6914 12.9495 38.2172 13.1945 38.7758 13.2205C39.3347 13.1967 39.8614 12.9521 40.2402 12.5405C40.6191 12.1288 40.8192 11.5837 40.7966 11.0247C40.8125 10.4665 40.6089 9.92427 40.2295 9.51449C39.8501 9.10472 39.3252 8.86005 38.7674 8.83301" fill="#B85A1B"/>
<path d="M38.7674 9.6665C38.5991 9.67915 38.4349 9.72488 38.2843 9.80108C38.1336 9.87728 37.9995 9.98245 37.8896 10.1106C37.7797 10.2387 37.6961 10.3872 37.6437 10.5477C37.5913 10.7081 37.571 10.8774 37.5841 11.0457C37.5678 11.384 37.6833 11.7154 37.9063 11.9703C38.1293 12.2251 38.4425 12.3836 38.7799 12.4123C39.1172 12.3868 39.4307 12.2286 39.6517 11.9725C39.8727 11.7163 39.9832 11.3831 39.9591 11.0457C39.9799 10.7057 39.8669 10.3711 39.6442 10.1134C39.4215 9.85563 39.1068 9.69525 38.7674 9.6665" fill="#63300F"/>
<path d="M50.9424 8C51.7267 8.01858 52.4716 8.34749 53.0137 8.91459C53.5558 9.48169 53.8509 10.2407 53.8341 11.025C53.8551 11.415 53.7964 11.8052 53.6617 12.1718C53.5269 12.5384 53.3188 12.8737 53.0502 13.1572C52.7815 13.4407 52.4579 13.6665 52.0991 13.8208C51.7403 13.9751 51.3538 14.0547 50.9632 14.0547C50.5727 14.0547 50.1862 13.9751 49.8274 13.8208C49.4686 13.6665 49.145 13.4407 48.8763 13.1572C48.6077 12.8737 48.3996 12.5384 48.2648 12.1718C48.1301 11.8052 48.0714 11.415 48.0924 11.025C48.0755 10.2477 48.3648 9.49481 48.898 8.92889C49.4311 8.36296 50.1654 8.02934 50.9424 8" fill="#7F3E13"/>
<path d="M50.9424 8.83301C50.3835 8.85683 49.8568 9.1014 49.478 9.51305C49.0991 9.92471 48.899 10.4698 48.9216 11.0288C48.8996 11.3079 48.9357 11.5884 49.0274 11.8528C49.1191 12.1173 49.2645 12.3599 49.4545 12.5654C49.6445 12.7709 49.8749 12.9349 50.1313 13.0471C50.3878 13.1592 50.6646 13.2171 50.9445 13.2171C51.2244 13.2171 51.5013 13.1592 51.7577 13.0471C52.0141 12.9349 52.2446 12.7709 52.4346 12.5654C52.6245 12.3599 52.77 12.1173 52.8617 11.8528C52.9534 11.5884 52.9894 11.3079 52.9674 11.0288C52.9834 10.4709 52.7805 9.92884 52.4021 9.51851C52.0237 9.10819 51.4998 8.86216 50.9424 8.83301" fill="#B85A1B"/>
<path d="M50.9424 9.6665C50.7738 9.67761 50.6089 9.72193 50.4575 9.79691C50.306 9.87189 50.1708 9.97606 50.0597 10.1034C49.9485 10.2308 49.8637 10.3789 49.81 10.5392C49.7562 10.6994 49.7347 10.8687 49.7466 11.0373C49.7303 11.3756 49.8458 11.7071 50.0688 11.9619C50.2918 12.2168 50.605 12.3753 50.9424 12.404C51.1109 12.3934 51.2756 12.3496 51.4271 12.2751C51.5786 12.2005 51.7138 12.0967 51.8249 11.9697C51.9361 11.8426 52.021 11.6949 52.0748 11.5348C52.1286 11.3748 52.1501 11.2057 52.1383 11.0373C52.1557 10.6984 52.0407 10.3659 51.8176 10.1101C51.5944 9.8543 51.2806 9.69524 50.9424 9.6665" fill="#4F2800"/>
<path d="M55.5008 18.8669H55.4466V13.2044C55.4466 11.5003 51.4466 10.5419 46.9258 10.3169C46.929 10.1988 46.909 10.0811 46.8668 9.97063C46.8246 9.86018 46.7611 9.75912 46.6798 9.67323C46.5986 9.58734 46.5012 9.51829 46.3933 9.47002C46.2853 9.42176 46.1689 9.39523 46.0508 9.39195C45.9326 9.38867 45.8149 9.40869 45.7044 9.45089C45.594 9.49309 45.4929 9.55662 45.407 9.63788C45.2336 9.80197 45.1324 10.0283 45.1257 10.2669H44.5966C44.576 10.0378 44.4688 9.82507 44.2968 9.67219C44.1248 9.51931 43.901 9.43775 43.671 9.44413C43.441 9.4505 43.2221 9.54433 43.0588 9.7065C42.8956 9.86867 42.8003 10.087 42.7924 10.3169C38.2758 10.5336 34.2758 11.4919 34.2758 13.1836V18.8336H34.2174C33.8189 18.9844 33.4762 19.2539 33.2355 19.6055C32.9949 19.9572 32.8679 20.3742 32.8716 20.8003V24.9419L44.8549 28.8336L56.8382 24.8836V20.8336C56.8426 20.4085 56.7168 19.9922 56.4777 19.6407C56.2386 19.2891 55.8977 19.0191 55.5008 18.8669V18.8669Z" fill="#7F3E13"/>
<path d="M35.2383 13.4166V19.5041L34.7383 19.6958C34.4706 19.7933 34.2398 19.9716 34.0778 20.206C33.9159 20.4403 33.8307 20.7192 33.8341 21.0041V25.2833L44.8716 28.8333L55.9174 25.2041V21.0041C55.9203 20.7216 55.8368 20.445 55.6782 20.2112C55.5196 19.9774 55.2935 19.7976 55.0299 19.6958L54.5299 19.5041V13.4166C54.5091 10.5291 35.2799 10.5291 35.2591 13.4166H35.2383Z" fill="#B85A1B"/>
<path d="M35.2383 13.4166V19.5041L34.7383 19.6958C34.4706 19.7933 34.2398 19.9716 34.0778 20.206C33.9159 20.4404 33.8307 20.7193 33.8341 21.0041V25.2833L44.8716 28.8333V26.5166C41.0591 26.5375 37.2424 24.0166 38.2466 19.0791H44.8716V11.2583C40.0549 11.2583 35.2383 11.9875 35.2383 13.4166Z" fill="#E1762F"/>
<path d="M37.7258 17.7876H52.0424C54.0633 28.5376 35.5299 28.4626 37.7258 17.7876Z" fill="#E5895B"/>
<path d="M38.4174 18.6378C38.2258 20.3044 38.5716 21.8919 39.8049 23.1461C41.1174 24.4544 43.0799 25.0128 44.8924 24.9961C46.7049 24.9794 48.4966 24.4378 49.7883 23.2044C50.3847 22.6142 50.8333 21.8914 51.0976 21.0949C51.3619 20.2985 51.4343 19.4508 51.3091 18.6211L38.4174 18.6378Z" fill="#E5895B"/>
<path d="M47.2633 23.6461C48.2258 24.8961 51.0383 24.3795 50.1799 21.7378L47.2633 23.6461V23.6461Z" fill="#FAD395"/>
<path d="M46.3758 23.375C47.4549 24.7625 50.9591 23.9334 50.1549 20.9292L46.3758 23.375Z" fill="#4F2800"/>
<path d="M49.6133 21.0622C49.7204 21.0372 49.8332 21.0555 49.9268 21.1133C50.0205 21.1711 50.0875 21.2635 50.1133 21.3705C50.1473 21.4256 50.1681 21.4878 50.174 21.5523C50.1798 21.6168 50.1706 21.6818 50.147 21.742C50.1233 21.8023 50.086 21.8563 50.0378 21.8996C49.9897 21.9429 49.9322 21.9744 49.8698 21.9916C49.8073 22.0088 49.7418 22.0113 49.6783 21.9987C49.6147 21.9862 49.555 21.959 49.5038 21.9193C49.4527 21.8797 49.4114 21.8286 49.3834 21.7703C49.3554 21.7119 49.3414 21.6478 49.3424 21.583C49.3097 21.4781 49.3198 21.3644 49.3705 21.2668C49.4213 21.1693 49.5085 21.0957 49.6133 21.0622M47.3216 22.6622C47.4288 22.6372 47.5415 22.6555 47.6352 22.7133C47.7288 22.7711 47.7959 22.8635 47.8216 22.9705C47.8543 23.0755 47.8442 23.1892 47.7935 23.2868C47.7427 23.3843 47.6555 23.4579 47.5508 23.4914C47.4436 23.5164 47.3309 23.4981 47.2372 23.4403C47.1435 23.3825 47.0765 23.2901 47.0508 23.183C47.018 23.0781 47.0281 22.9644 47.0789 22.8668C47.1296 22.7693 47.2169 22.6957 47.3216 22.6622" fill="white"/>
<path d="M48.7258 23.9169C49.1372 23.7961 49.5034 23.5557 49.7779 23.2263C50.0524 22.8969 50.2228 22.4933 50.2674 22.0669C49.6508 21.971 48.5716 22.9002 48.7258 23.9169" fill="#AD6151"/>
<path d="M39.1883 17.7876H50.5383C52.1549 25.4751 37.4549 25.4001 39.1883 17.7876" fill="#FAD395"/>
<path d="M44.8549 22.1671C44.927 21.7058 45.1116 21.2693 45.3924 20.8963C46.7632 20.6838 47.9382 19.6463 47.5716 17.7921C46.7039 17.4875 45.7912 17.3311 44.8716 17.3296L44.3132 19.0838L44.8549 22.1671V22.1671Z" fill="#4F2800"/>
<path d="M44.8549 22.1671C44.7813 21.7055 44.5953 21.269 44.3133 20.8963C42.9466 20.6838 41.7716 19.6463 42.1383 17.7921C43.0046 17.4879 43.9159 17.3315 44.8341 17.3296L44.8549 22.1671Z" fill="#63300F"/>
<path d="M42.8508 18.0584C44.17 17.7116 45.5565 17.7116 46.8758 18.0584C47.4383 19.4626 42.2341 19.4459 42.8508 18.0584Z" fill="#AD6151"/>
<path d="M42.6966 14.1455C42.9986 14.1447 43.294 14.2335 43.5454 14.4008C43.7968 14.568 43.9929 14.8062 44.1089 15.085C44.2248 15.3638 44.2554 15.6708 44.1967 15.967C44.1379 16.2632 43.9926 16.5353 43.7791 16.7488C43.5656 16.9624 43.2935 17.1077 42.9972 17.1664C42.701 17.2251 42.3941 17.1946 42.1152 17.0786C41.8364 16.9627 41.5983 16.7666 41.431 16.5152C41.2638 16.2637 41.1749 15.9683 41.1758 15.6663C41.1769 15.2633 41.3374 14.8771 41.6224 14.5922C41.9074 14.3072 42.2936 14.1466 42.6966 14.1455" fill="white"/>
<path d="M42.8133 14.6871C43.0384 14.6871 43.2585 14.7539 43.4456 14.8791C43.6328 15.0043 43.7786 15.1822 43.8646 15.3902C43.9505 15.5983 43.9728 15.8273 43.9286 16.048C43.8844 16.2688 43.7756 16.4715 43.6161 16.6304C43.4566 16.7893 43.2535 16.8973 43.0326 16.9407C42.8117 16.9841 42.5828 16.961 42.3751 16.8743C42.1673 16.7876 41.9899 16.6411 41.8654 16.4535C41.7409 16.2659 41.6749 16.0456 41.6758 15.8204C41.6746 15.6709 41.7033 15.5227 41.7601 15.3844C41.817 15.2461 41.9008 15.1206 42.0067 15.0151C42.1126 14.9095 42.2385 14.8262 42.377 14.7699C42.5154 14.7136 42.6638 14.6854 42.8133 14.6871" fill="#1B1D23"/>
<path d="M47.0508 14.1455C46.7488 14.1447 46.4534 14.2335 46.202 14.4008C45.9505 14.568 45.7544 14.8062 45.6385 15.085C45.5225 15.3638 45.492 15.6708 45.5507 15.967C45.6094 16.2632 45.7547 16.5353 45.9683 16.7488C46.1818 16.9624 46.4539 17.1077 46.7501 17.1664C47.0463 17.2251 47.3533 17.1946 47.6321 17.0786C47.9109 16.9627 48.1491 16.7666 48.3163 16.5152C48.4836 16.2637 48.5724 15.9683 48.5716 15.6663C48.5705 15.2633 48.4099 14.8771 48.1249 14.5922C47.84 14.3072 47.4538 14.1466 47.0508 14.1455" fill="white"/>
<path d="M46.9549 14.687C46.7298 14.687 46.5097 14.7538 46.3225 14.879C46.1354 15.0042 45.9896 15.1821 45.9036 15.3902C45.8176 15.5983 45.7954 15.8272 45.8396 16.048C45.8838 16.2687 45.9926 16.4714 46.1521 16.6303C46.3116 16.7892 46.5146 16.8972 46.7356 16.9407C46.9565 16.9841 47.1853 16.961 47.3931 16.8742C47.6009 16.7875 47.7783 16.641 47.9027 16.4534C48.0272 16.2658 48.0932 16.0455 48.0924 15.8203C48.0881 15.5204 47.9667 15.234 47.7542 15.0223C47.5417 14.8106 47.2549 14.6902 46.9549 14.687Z" fill="#1B1D23"/>
<path d="M43.7966 13.667C43.2621 13.5467 42.709 13.5342 42.1696 13.63C41.6302 13.7259 41.1153 13.9283 40.6549 14.2253C40.3258 12.3545 43.4674 11.7961 43.7966 13.667Z" fill="#63300F"/>
<path d="M45.6424 12.7212C46.1769 12.601 46.73 12.5884 47.2694 12.6843C47.8088 12.7801 48.3237 12.9825 48.7841 13.2795C49.1133 11.4087 45.9924 10.8712 45.6424 12.7212Z" fill="#4F2800"/>
<path d="M56.8216 24.896V36.5627C56.8216 36.9425 56.6713 37.3068 56.4035 37.5762C56.1357 37.8455 55.7722 37.998 55.3924 38.0002H34.2758C33.8985 37.998 33.5373 37.8471 33.2705 37.5804C33.0038 37.3136 32.8529 36.9524 32.8508 36.5752V25.0127L44.8341 27.8835L56.8216 24.896Z" fill="#7EAABA"/>
<path d="M55.8758 26.1128L44.8549 28.8336L33.8341 26.2086V36.3336C33.8324 36.4277 33.8497 36.5211 33.8849 36.6083C33.9201 36.6955 33.9725 36.7747 34.039 36.8412C34.1055 36.9077 34.1847 36.9601 34.2719 36.9953C34.3591 37.0305 34.4526 37.0478 34.5466 37.0461H55.1799C55.276 37.0513 55.3721 37.0366 55.4623 37.003C55.5525 36.9693 55.6347 36.9174 55.7039 36.8506C55.7731 36.7837 55.8278 36.7033 55.8645 36.6143C55.9013 36.5254 55.9193 36.4298 55.9174 36.3336V26.1128H55.8758Z" fill="#D3E8EF"/>
<path d="M44.8549 28.8335L33.8341 26.2085V36.3335C33.8324 36.4279 33.8498 36.5216 33.8852 36.6091C33.9207 36.6966 33.9735 36.776 34.0404 36.8426C34.1074 36.9092 34.1871 36.9615 34.2748 36.9965C34.3625 37.0314 34.4564 37.0483 34.5508 37.046H44.8716V28.8335H44.8549Z" fill="white"/>
<path d="M44.8716 34.2505H54.1049V35.5005H44.8758V34.2505H44.8716ZM44.8716 31.688H54.1049V32.938H44.8758V31.688H44.8716Z" fill="#036AAB"/>
<path d="M44.8716 35.5002V34.2502H35.6049V35.5002H44.8716ZM35.6049 31.7002H44.8716V32.9502H35.6049V31.7002Z" fill="#0399ED"/>
<path d="M39.3633 30.8921H40.5174V36.5546H39.3633V30.8921Z" fill="white"/>
<path d="M36.1049 25.7671C39.0216 26.4588 41.9383 27.1713 44.8549 27.8504L41.7508 30.8129C39.7258 29.6171 37.7216 28.3129 36.1216 25.7671" fill="#7EAABA"/>
<path d="M38.5716 27.3457C39.486 28.2203 40.5015 28.9826 41.5966 29.6165L42.9091 28.3665C41.4841 28.0374 40.0174 27.6707 38.5716 27.3457" fill="white"/>
<path d="M53.6008 25.7667C50.6841 26.4583 47.7674 27.1708 44.8508 27.85L47.9716 30.7958C49.9966 29.6 51.9966 28.2958 53.5966 25.75" fill="#7EAABA"/>
<path d="M51.1341 27.3457C50.2213 28.2222 49.2055 28.9847 48.1091 29.6165L46.8008 28.3665C48.2466 28.0374 49.6924 27.6707 51.1341 27.3457Z" fill="white"/>
</svg>
