<svg width="58" height="70" viewBox="0 0 58 70" fill="none" xmlns="http://www.w3.org/2000/svg">
<g clip-path="url(#clip0_563_534)">
<path d="M9.28821 22.1216L3.6416 29.0882H6.3415V55.646H11.6665V29.0882H14.3702L9.28821 22.1216Z" fill="#F56132"/>
<path d="M11.6666 56.0198H6.34164C6.24246 56.0198 6.14735 55.9804 6.07722 55.9103C6.00709 55.8401 5.96769 55.745 5.96769 55.6458V29.4695H3.64174C3.57062 29.47 3.50083 29.4502 3.44056 29.4125C3.38028 29.3747 3.33202 29.3206 3.30144 29.2564C3.27126 29.1925 3.2598 29.1213 3.26841 29.0511C3.27701 28.981 3.30532 28.9147 3.35006 28.86L9.0004 21.8933C9.03638 21.849 9.08206 21.8134 9.13392 21.7894C9.18578 21.7654 9.24244 21.7537 9.29956 21.755C9.35666 21.7566 9.41264 21.7712 9.4632 21.7978C9.51376 21.8244 9.55756 21.8622 9.59124 21.9083L14.6732 28.8749C14.714 28.9308 14.7385 28.9968 14.744 29.0657C14.7495 29.1346 14.7358 29.2037 14.7045 29.2653C14.6731 29.3269 14.6252 29.3786 14.5662 29.4147C14.5073 29.4507 14.4394 29.4697 14.3703 29.4695H12.0406V55.6458C12.0406 55.6949 12.0309 55.7436 12.0121 55.7889C11.9933 55.8343 11.9658 55.8755 11.9311 55.9103C11.8963 55.945 11.8551 55.9725 11.8098 55.9913C11.7644 56.0101 11.7158 56.0198 11.6666 56.0198ZM6.71558 55.2719H11.2927V29.0956C11.2927 28.9964 11.3321 28.9013 11.4022 28.8312C11.4724 28.761 11.5675 28.7216 11.6666 28.7216H13.6336L9.29208 22.7347L4.43077 28.7179H6.34912C6.4483 28.7179 6.54341 28.7573 6.61354 28.8274C6.68367 28.8975 6.72307 28.9927 6.72307 29.0918L6.71558 55.2719Z" fill="#093F68"/>
<path d="M48.7548 30.5767L43.1045 37.5433H45.8081V60.5298H51.1331V37.5433H53.833L48.7548 30.5767Z" fill="#FFBC0E"/>
<path d="M51.1325 60.9037H45.8075C45.7083 60.9037 45.6132 60.8643 45.543 60.7942C45.4729 60.7241 45.4335 60.629 45.4335 60.5298V37.9172H43.1038C43.0333 37.917 42.9643 37.8969 42.9048 37.8592C42.8452 37.8214 42.7976 37.7677 42.7673 37.704C42.7371 37.6401 42.7256 37.569 42.7342 37.4988C42.7428 37.4287 42.7711 37.3624 42.8159 37.3077L48.4625 30.341C48.4997 30.2972 48.5462 30.262 48.5985 30.2381C48.6509 30.2142 48.7078 30.2021 48.7654 30.2027C48.8225 30.2042 48.8785 30.2189 48.929 30.2455C48.9796 30.272 49.0234 30.3098 49.0571 30.356L54.1353 37.3226C54.1733 37.3764 54.1965 37.4394 54.2024 37.5051C54.2083 37.5707 54.1968 37.6368 54.1689 37.6966C54.1376 37.7588 54.0894 37.811 54.03 37.8474C53.9705 37.8837 53.9021 37.9027 53.8324 37.9022H51.5064V60.5148C51.5084 60.5652 51.5002 60.6154 51.4824 60.6625C51.4645 60.7096 51.4372 60.7526 51.4023 60.789C51.3674 60.8253 51.3255 60.8542 51.2791 60.8739C51.2327 60.8936 51.1829 60.9038 51.1325 60.9037ZM46.1814 60.1558H50.7585V37.5432C50.7585 37.4441 50.7979 37.3489 50.868 37.2788C50.9382 37.2087 51.0333 37.1693 51.1325 37.1693H53.0994L48.7392 31.1861L43.8779 37.1693H45.7962C45.8954 37.1693 45.9905 37.2087 46.0607 37.2788C46.1308 37.3489 46.1702 37.4441 46.1702 37.5432L46.1814 60.1558Z" fill="#093F68"/>
<path d="M40.0226 55.6309H17.4512V69.4445H40.0226V55.6309Z" fill="#68E1FD"/>
<path d="M40.0226 69.8146H17.4511C17.3519 69.8146 17.2568 69.7752 17.1867 69.7051C17.1165 69.635 17.0771 69.5398 17.0771 69.4407V55.6308C17.0771 55.5316 17.1165 55.4365 17.1867 55.3664C17.2568 55.2962 17.3519 55.2568 17.4511 55.2568H40.0226C40.1217 55.2568 40.2168 55.2962 40.287 55.3664C40.3571 55.4365 40.3965 55.5316 40.3965 55.6308V69.4407C40.3965 69.5398 40.3571 69.635 40.287 69.7051C40.2168 69.7752 40.1217 69.8146 40.0226 69.8146ZM17.825 69.0667H39.6486V56.0047H17.825V69.0667Z" fill="#093F68"/>
<path d="M42.9701 6.47186L43.344 5.72397C43.344 5.72397 42.9514 4.9125 43.2692 4.37776C43.5871 3.84301 43.9049 3.15495 44.2751 3.34566C44.6453 3.53637 44.8061 3.6149 44.8061 3.6149C44.839 3.49072 44.9075 3.37887 45.0032 3.29315C45.0989 3.20743 45.2176 3.15159 45.3446 3.13251C45.7597 3.11007 47.6257 5.12939 47.5509 5.49586C47.3303 6.56535 46.3505 7.84051 45.3558 8.54727L43.4674 12.1334L41.0068 9.67659L42.9701 6.47186Z" fill="#FFC9B0"/>
<path d="M43.4672 12.5108C43.3691 12.5104 43.2751 12.4715 43.2054 12.4024L40.7411 9.94556C40.682 9.8859 40.6447 9.80809 40.6352 9.72466C40.6257 9.64122 40.6446 9.55701 40.6888 9.4856L42.6408 6.28835L42.9325 5.71247C42.8236 5.47354 42.7673 5.21404 42.7673 4.95149C42.7673 4.68894 42.8236 4.42944 42.9325 4.19051L43.0559 3.97362C43.3662 3.43139 43.8037 2.69098 44.432 3.02005L44.6339 3.12102C44.7128 3.01411 44.8137 2.9254 44.9298 2.86088C45.046 2.79637 45.1746 2.75755 45.307 2.74707C45.8231 2.74707 46.7654 3.74551 47.1506 4.19051C47.9845 5.15529 47.9321 5.41705 47.8985 5.55915C47.6479 6.77074 46.5784 8.0833 45.6249 8.79006L43.7813 12.2977C43.7541 12.3491 43.7152 12.3934 43.6678 12.4272C43.6204 12.461 43.5658 12.4832 43.5083 12.4921L43.4672 12.5108ZM41.4778 9.62396L43.3737 11.5161L45.0228 8.37872C45.0506 8.32654 45.0903 8.28169 45.1387 8.24784C46.096 7.56351 46.9599 6.3781 47.173 5.48062C46.6853 4.71893 46.0617 4.05344 45.3332 3.5174C45.2173 3.55106 45.1687 3.71559 45.1687 3.71933C45.1534 3.77112 45.1271 3.81899 45.0916 3.85966C45.0561 3.90033 45.0122 3.93283 44.963 3.95492C44.9138 3.9777 44.8602 3.9895 44.8059 3.9895C44.7517 3.9895 44.6981 3.9777 44.6489 3.95492C44.6489 3.95492 44.4956 3.88387 44.1515 3.70811C43.9842 3.90006 43.8399 4.1109 43.7215 4.33635L43.5906 4.56071C43.4111 4.86361 43.6168 5.42079 43.6803 5.55542C43.706 5.60712 43.7194 5.66408 43.7194 5.72182C43.7194 5.77956 43.706 5.83652 43.6803 5.88823L43.3064 6.63612V6.6623L41.4778 9.62396Z" fill="#093F68"/>
<path d="M44.8165 3.61865C44.8165 3.61865 46.5928 5.11444 46.073 5.45847C45.5532 5.8025 44.7118 4.87512 44.7118 4.87512C44.7118 4.87512 45.4597 5.9446 44.6445 6.49057" fill="#FFC9B0"/>
<path d="M44.6334 6.86459C44.5721 6.86468 44.5118 6.84973 44.4577 6.82104C44.4036 6.79235 44.3573 6.7508 44.323 6.70005C44.2954 6.65931 44.2762 6.61354 44.2664 6.56535C44.2565 6.51716 44.2563 6.4675 44.2657 6.41921C44.275 6.37093 44.2938 6.32497 44.321 6.28397C44.3482 6.24296 44.3832 6.20773 44.424 6.18027C44.4775 6.14923 44.5239 6.10718 44.56 6.0569C44.5961 6.00662 44.6211 5.94925 44.6334 5.88859C44.6457 5.60369 44.5614 5.32298 44.3941 5.09208C44.3357 5.0144 44.3099 4.91706 44.322 4.82067C44.3342 4.72428 44.3834 4.6364 44.4592 4.57565C44.535 4.5149 44.6315 4.48604 44.7282 4.49519C44.825 4.50433 44.9143 4.55076 44.9774 4.62464C45.1785 4.86034 45.4357 5.04166 45.7253 5.15191C45.3954 4.68414 45.0028 4.26389 44.5586 3.90293C44.4827 3.83896 44.4354 3.74747 44.427 3.64859C44.4185 3.54971 44.4498 3.45153 44.5137 3.37566C44.5777 3.29979 44.6692 3.25244 44.7681 3.24402C44.8669 3.23561 44.9651 3.26682 45.041 3.33079C45.6094 3.81318 46.5592 4.71065 46.5368 5.31645C46.5324 5.40822 46.506 5.49759 46.4598 5.577C46.4136 5.65641 46.3489 5.72352 46.2713 5.77266C46.1408 5.85225 45.9928 5.89863 45.8403 5.90776C45.6877 5.91688 45.5353 5.88848 45.3962 5.82502C45.3943 5.89283 45.3868 5.96037 45.3738 6.02695C45.3433 6.18464 45.2812 6.33453 45.1913 6.46757C45.1013 6.6006 44.9853 6.71403 44.8503 6.80102C44.7863 6.84407 44.7105 6.86628 44.6334 6.86459Z" fill="#093F68"/>
<path d="M14.5049 6.47186L14.131 5.72397C14.131 5.72397 14.5236 4.9125 14.2058 4.37776C13.8879 3.84301 13.57 3.15495 13.1998 3.34566C12.8296 3.53637 12.6688 3.6149 12.6688 3.6149C12.636 3.49072 12.5674 3.37887 12.4718 3.29315C12.3761 3.20743 12.2574 3.15159 12.1303 3.13251C11.7153 3.11007 9.84927 5.12939 9.92406 5.49586C10.1447 6.56535 11.1244 7.84051 12.1191 8.54727L13.9889 12.1334L16.4532 9.67659L14.5049 6.47186Z" fill="#FFC9B0"/>
<path d="M14.0036 12.5111H13.9475C13.89 12.5022 13.8354 12.48 13.788 12.4462C13.7406 12.4124 13.7018 12.3681 13.6745 12.3167L11.831 8.82401C10.8774 8.11725 9.80793 6.80469 9.55738 5.5931C9.52747 5.451 9.47511 5.18924 10.3053 4.22445C10.6792 3.77945 11.6365 2.76232 12.1488 2.78102C12.2813 2.7915 12.4099 2.83031 12.526 2.89483C12.6422 2.95935 12.7431 3.04806 12.8219 3.15496L13.0239 3.054C13.6633 2.72118 14.0896 3.46534 14.4 4.00756L14.5234 4.22445C14.6322 4.46339 14.6885 4.72289 14.6885 4.98544C14.6885 5.24799 14.6322 5.50748 14.5234 5.74642L14.8151 6.3223L16.7708 9.48589C16.8169 9.55569 16.8383 9.63894 16.8315 9.72233C16.8248 9.80571 16.7902 9.88441 16.7334 9.94585L14.2691 12.4027C14.2342 12.4373 14.1927 12.4648 14.1472 12.4834C14.1016 12.502 14.0528 12.5114 14.0036 12.5111ZM10.3015 5.48091C10.5147 6.38587 11.3785 7.5638 12.3358 8.24813C12.3842 8.28198 12.424 8.32683 12.4517 8.37901L14.1008 11.5164L15.9967 9.62425L14.1868 6.66633V6.64015L13.8129 5.89226C13.7872 5.84055 13.7738 5.78359 13.7738 5.72585C13.7738 5.66811 13.7872 5.61115 13.8129 5.55944C13.8914 5.39491 14.0747 4.85642 13.9026 4.56475C13.8578 4.4937 13.8166 4.41517 13.7718 4.34038C13.6541 4.11101 13.5098 3.89637 13.3417 3.70093C12.9977 3.87668 12.8444 3.94773 12.8444 3.94773C12.7946 3.97108 12.7404 3.98319 12.6854 3.98319C12.6305 3.98319 12.5762 3.97108 12.5265 3.94773C12.4776 3.92481 12.4342 3.89154 12.3993 3.85022C12.3644 3.80891 12.3389 3.76052 12.3246 3.70841C12.3246 3.70841 12.2722 3.54387 12.1601 3.51021C11.4242 4.04672 10.794 4.71489 10.3015 5.48091Z" fill="#093F68"/>
<path d="M12.6574 3.61865C12.6574 3.61865 10.8812 5.11444 11.4009 5.45847C11.9207 5.8025 12.7621 4.87512 12.7621 4.87512C12.7621 4.87512 12.0142 5.9446 12.8294 6.49057" fill="#FFC9B0"/>
<path d="M12.8403 6.86459C12.7658 6.86476 12.6928 6.84262 12.6309 6.80102C12.4953 6.7147 12.3789 6.60146 12.2888 6.46831C12.1988 6.33516 12.137 6.18494 12.1074 6.02695C12.0944 5.96037 12.0869 5.89283 12.085 5.82502C11.9457 5.88753 11.7934 5.91542 11.641 5.9063C11.4887 5.89718 11.3407 5.85133 11.2099 5.77266C11.1323 5.72352 11.0676 5.65641 11.0214 5.577C10.9752 5.49759 10.9488 5.40822 10.9444 5.31645C10.907 4.71065 11.8569 3.82066 12.4402 3.33079C12.5161 3.26682 12.6143 3.23561 12.7131 3.24402C12.812 3.25244 12.9035 3.29979 12.9675 3.37566C13.0315 3.45153 13.0627 3.54971 13.0543 3.64859C13.0458 3.74747 12.9985 3.83896 12.9226 3.90293C12.4784 4.26389 12.0858 4.68414 11.7559 5.15191C12.0455 5.04166 12.3027 4.86034 12.5038 4.62464C12.5701 4.56866 12.6538 4.53747 12.7405 4.53642C12.8273 4.53537 12.9117 4.56453 12.9794 4.6189C13.047 4.67326 13.0936 4.74946 13.1112 4.83442C13.1288 4.91938 13.1164 5.00783 13.0759 5.0846C12.9115 5.31675 12.8286 5.59686 12.8403 5.88111C12.8526 5.94177 12.8777 5.99914 12.9137 6.04942C12.9498 6.0997 12.9962 6.14175 13.0498 6.17279C13.0906 6.20025 13.1256 6.23549 13.1527 6.27649C13.1799 6.31749 13.1987 6.36345 13.2081 6.41173C13.2175 6.46002 13.2172 6.50968 13.2074 6.55787C13.1975 6.60606 13.1783 6.65184 13.1507 6.69258C13.1173 6.74471 13.0714 6.78772 13.0172 6.81774C12.9631 6.84777 12.9023 6.86387 12.8403 6.86459Z" fill="#093F68"/>
<path d="M45.602 9.512C45.602 9.512 39.7759 19.8142 34.0806 24.1782V32.8239H23.1277V23.9725C17.5185 19.4852 11.8682 9.512 11.8682 9.512L14.9457 7.19727C18.3337 12.5447 22.6827 17.2938 24.4178 19.1337H33.0485C34.7837 17.3088 39.1289 12.5447 42.5206 7.19727L45.602 9.512Z" fill="#68E1FD"/>
<path d="M34.0812 33.1979H23.1283C23.0291 33.1979 22.934 33.1585 22.8639 33.0884C22.7938 33.0183 22.7544 32.9232 22.7544 32.824V24.1559C17.2012 19.6461 11.7753 10.1067 11.5359 9.69908C11.4871 9.61702 11.4716 9.51941 11.4924 9.42624C11.5133 9.33307 11.569 9.25141 11.6481 9.198L14.7257 6.88326C14.7671 6.85256 14.8143 6.83073 14.8645 6.81915C14.9147 6.80757 14.9668 6.80647 15.0174 6.81595C15.0686 6.82505 15.1173 6.84472 15.1604 6.87369C15.2035 6.90266 15.2402 6.94031 15.2679 6.98423C18.5699 12.1933 22.7992 16.8639 24.583 18.7449H32.8921C34.6721 16.8751 38.8977 12.2008 42.2071 6.98423C42.2349 6.94031 42.2715 6.90266 42.3146 6.87369C42.3578 6.84472 42.4065 6.82505 42.4577 6.81595C42.5083 6.80647 42.5603 6.80757 42.6105 6.81915C42.6607 6.83073 42.708 6.85256 42.7493 6.88326L45.8269 9.198C45.8994 9.2525 45.9495 9.33147 45.9681 9.42021C45.9867 9.50894 45.9724 9.6014 45.9279 9.68039C45.6886 10.1029 40.0943 19.9303 34.4552 24.3466V32.809C34.4572 32.8594 34.449 32.9096 34.4311 32.9567C34.4132 33.0038 34.386 33.0469 34.3511 33.0832C34.3162 33.1195 34.2743 33.1484 34.2279 33.1681C34.1815 33.1878 34.1316 33.198 34.0812 33.1979ZM23.506 32.45H33.7073V24.1783C33.7079 24.1209 33.7217 24.0644 33.7476 24.0132C33.7735 23.9619 33.8109 23.9174 33.8569 23.8829C38.8977 20.0163 44.1292 11.2958 45.1127 9.61308L42.6222 7.74334C39.8699 11.8916 36.7592 15.7906 33.3259 19.3955C33.2907 19.4325 33.2483 19.4618 33.2013 19.4817C33.1544 19.5017 33.1039 19.5118 33.0529 19.5115H24.4222C24.3712 19.5118 24.3206 19.5017 24.2737 19.4817C24.2268 19.4618 24.1844 19.4325 24.1492 19.3955C20.7164 15.7888 17.6057 11.8886 14.8529 7.7396L12.3624 9.60934C13.3309 11.2659 18.4054 19.7246 23.3639 23.6772C23.408 23.7121 23.4436 23.7564 23.4682 23.8069C23.4928 23.8574 23.5057 23.9127 23.506 23.9689V32.45Z" fill="#093F68"/>
<path d="M28.0343 0.62303C28.3062 0.577726 28.5814 0.556454 28.857 0.559459C30.1322 0.559459 31.4335 0.525804 32.5965 1.0942C33.7728 1.6757 34.7642 2.57305 35.4596 3.68585C36.155 4.79865 36.5271 6.08301 36.5342 7.39522L36.2649 12.6305H20.9892C20.9586 12.304 20.9788 11.9748 21.049 11.6545C21.0401 11.3131 20.9899 10.9741 20.8994 10.6448C20.717 9.79365 20.6144 8.92733 20.5928 8.0571C20.5981 6.68643 20.8832 5.33127 21.4304 4.07456C21.7408 3.32667 22.1073 2.53764 22.7729 2.06647C23.4385 1.59529 24.4968 1.58034 24.9717 2.24222C25.7837 1.37645 26.8616 0.806589 28.0343 0.62303Z" fill="#725858"/>
<path d="M36.2648 12.9934H20.9891C20.9051 12.9965 20.8226 12.9713 20.7548 12.9218C20.6869 12.8722 20.6377 12.8013 20.6151 12.7204C20.555 12.4546 20.555 12.1786 20.6151 11.9127C20.6344 11.819 20.6469 11.724 20.6525 11.6285C20.6517 11.3948 20.6203 11.1622 20.559 10.9367C20.5403 10.8619 20.5254 10.7834 20.5104 10.7086C20.3223 9.83421 20.2171 8.94401 20.1963 8.04984C20.2024 6.63432 20.4963 5.23482 21.0601 3.93642C21.378 3.16609 21.7818 2.29479 22.5335 1.76378C22.8841 1.51086 23.3034 1.37072 23.7356 1.36204C24.1678 1.35335 24.5924 1.47653 24.9529 1.71517C25.7846 0.946855 26.8259 0.443125 27.9445 0.267994C28.238 0.225136 28.5341 0.202646 28.8307 0.200684H29.0588C30.2891 0.200684 31.5605 0.200685 32.731 0.772824C33.9711 1.38413 35.0162 2.32914 35.7487 3.50168C36.4813 4.67422 36.8724 6.02782 36.8781 7.41039C36.8781 7.41039 36.8781 7.41039 36.6088 12.6457C36.6028 12.7353 36.5647 12.8197 36.5016 12.8836C36.4384 12.9475 36.3544 12.9864 36.2648 12.9934ZM21.3443 12.2455H35.9283C35.9881 11.0788 36.1751 7.42535 36.1788 7.38421C36.1701 6.14344 35.8155 4.92968 35.1549 3.87934C34.4943 2.829 33.5539 1.98371 32.4393 1.43845C31.4222 0.9411 30.2891 0.941099 29.0925 0.941099H28.8606C28.6105 0.94639 28.3609 0.965115 28.1128 0.997192C27.0243 1.16254 26.0233 1.68943 25.2708 2.49298C25.232 2.53276 25.1854 2.56397 25.1339 2.58458C25.0823 2.60519 25.0271 2.61475 24.9716 2.61264C24.9161 2.60896 24.8621 2.59296 24.8136 2.56579C24.7651 2.53862 24.7233 2.50097 24.6911 2.45559C24.3434 1.9732 23.5169 2.01059 23.0121 2.36584C22.4213 2.78466 22.0885 3.50638 21.7968 4.21314C21.2684 5.42215 20.9935 6.72667 20.9891 8.0461C21.0105 8.89369 21.1106 9.73745 21.2882 10.5665C21.2882 10.6376 21.3181 10.7123 21.3331 10.7797C21.4113 11.0685 21.449 11.3667 21.4453 11.6659C21.4375 11.7915 21.4212 11.9164 21.3967 12.0399C21.363 12.1109 21.3518 12.1894 21.3443 12.2455Z" fill="#093F68"/>
<path d="M27.5369 17.75H29.7545V19.0252C29.7545 19.2751 29.6552 19.5148 29.4784 19.6915C29.3017 19.8682 29.062 19.9675 28.8121 19.9675H28.4756C28.3518 19.9675 28.2293 19.9431 28.1149 19.8958C28.0006 19.8484 27.8967 19.779 27.8092 19.6915C27.7217 19.604 27.6523 19.5001 27.6049 19.3858C27.5576 19.2714 27.5332 19.1489 27.5332 19.0252V17.75H27.5369Z" fill="#FFC9B0"/>
<path d="M28.8122 20.3414H28.4794C28.1309 20.3414 27.7967 20.2032 27.5499 19.9572C27.3032 19.7111 27.1641 19.3773 27.1631 19.0288V17.7499C27.1631 17.6507 27.2025 17.5556 27.2726 17.4855C27.3427 17.4154 27.4379 17.376 27.537 17.376H29.7545C29.8537 17.376 29.9488 17.4154 30.019 17.4855C30.0891 17.5556 30.1285 17.6507 30.1285 17.7499V19.0288C30.1275 19.3773 29.9884 19.7111 29.7416 19.9572C29.4949 20.2032 29.1607 20.3414 28.8122 20.3414ZM27.911 18.1239V19.0288C27.912 19.1789 27.9723 19.3225 28.0788 19.4283C28.1853 19.5341 28.3293 19.5935 28.4794 19.5935H28.8122C28.9623 19.5935 29.1063 19.5341 29.2128 19.4283C29.3193 19.3225 29.3796 19.1789 29.3806 19.0288V18.1239H27.911Z" fill="#093F68"/>
<path d="M22.6721 13.8459C23.7936 13.8459 24.7027 13.0139 24.7027 11.9874C24.7027 10.961 23.7936 10.1289 22.6721 10.1289C21.5507 10.1289 20.6416 10.961 20.6416 11.9874C20.6416 13.0139 21.5507 13.8459 22.6721 13.8459Z" fill="#FFC9B0"/>
<path d="M22.6717 14.2199C22.2362 14.1886 21.8193 14.0309 21.472 13.7661C21.1248 13.5013 20.8624 13.141 20.717 12.7292C20.5715 12.3175 20.5494 11.8723 20.6533 11.4482C20.7572 11.024 20.9826 10.6394 21.3018 10.3415C21.6211 10.0436 22.0203 9.84536 22.4506 9.77103C22.8809 9.6967 23.3235 9.74954 23.7242 9.92308C24.1249 10.0966 24.4663 10.3833 24.7064 10.748C24.9466 11.1127 25.0751 11.5395 25.0762 11.9762C25.0548 12.5925 24.7894 13.1751 24.3385 13.5959C23.8876 14.0166 23.2881 14.2411 22.6717 14.2199ZM22.6717 10.5028C22.3848 10.5339 22.113 10.6473 21.889 10.8293C21.6651 11.0114 21.4986 11.2543 21.4096 11.5289C21.3206 11.8034 21.313 12.0979 21.3876 12.3767C21.4622 12.6555 21.6159 12.9067 21.8301 13.1002C22.0444 13.2936 22.3099 13.4209 22.5949 13.4667C22.8798 13.5126 23.172 13.4751 23.436 13.3586C23.7001 13.2422 23.9249 13.0518 24.0832 12.8105C24.2415 12.5692 24.3267 12.2872 24.3283 11.9986C24.3178 11.7916 24.2666 11.5887 24.1776 11.4015C24.0887 11.2143 23.9637 11.0465 23.8099 10.9076C23.656 10.7687 23.4764 10.6615 23.2811 10.592C23.0858 10.5226 22.8787 10.4923 22.6717 10.5028Z" fill="#093F68"/>
<path d="M34.5032 13.8459C35.6246 13.8459 36.5337 13.0139 36.5337 11.9874C36.5337 10.961 35.6246 10.1289 34.5032 10.1289C33.3818 10.1289 32.4727 10.961 32.4727 11.9874C32.4727 13.0139 33.3818 13.8459 34.5032 13.8459Z" fill="#FFC9B0"/>
<path d="M34.5038 14.2199C34.0682 14.1886 33.6513 14.0309 33.3041 13.7661C32.9568 13.5013 32.6944 13.141 32.549 12.7292C32.4036 12.3175 32.3814 11.8723 32.4853 11.4482C32.5892 11.024 32.8146 10.6394 33.1339 10.3415C33.4531 10.0436 33.8524 9.84536 34.2827 9.77103C34.7129 9.6967 35.1556 9.74954 35.5563 9.92308C35.957 10.0966 36.2983 10.3833 36.5385 10.748C36.7786 11.1127 36.9071 11.5395 36.9083 11.9762C36.8868 12.5925 36.6215 13.1751 36.1706 13.5959C35.7197 14.0166 35.1201 14.2411 34.5038 14.2199ZM34.5038 10.5028C34.2168 10.5339 33.945 10.6473 33.7211 10.8293C33.4971 11.0114 33.3306 11.2543 33.2416 11.5289C33.1527 11.8034 33.145 12.0979 33.2197 12.3767C33.2943 12.6555 33.448 12.9067 33.6622 13.1002C33.8764 13.2936 34.142 13.4209 34.4269 13.4667C34.7119 13.5126 35.004 13.4751 35.2681 13.3586C35.5322 13.2422 35.7569 13.0518 35.9152 12.8105C36.0736 12.5692 36.1587 12.2872 36.1604 11.9986C36.1498 11.7916 36.0986 11.5887 36.0097 11.4015C35.9207 11.2143 35.7957 11.0465 35.6419 10.9076C35.4881 10.7687 35.3084 10.6615 35.1131 10.592C34.9178 10.5226 34.7108 10.4923 34.5038 10.5028Z" fill="#093F68"/>
<path d="M28.6475 18.0415C26.9234 18.0415 25.27 17.3569 24.0505 16.1382C22.8311 14.9195 22.1455 13.2664 22.1445 11.5423V8.04218C22.1445 8.04218 23.7824 7.10731 24.2686 5.6377C24.2686 5.6377 26.7665 8.47595 29.1747 8.28524C31.1826 8.11469 33.1799 7.83632 35.1579 7.45134V11.5423C35.1579 12.3968 34.9894 13.2428 34.6621 14.0321C34.3348 14.8213 33.8551 15.5383 33.2504 16.1419C32.6457 16.7456 31.9279 17.2241 31.1381 17.55C30.3482 17.876 29.5019 18.043 28.6475 18.0415Z" fill="#FFC9B0"/>
<path d="M28.6474 18.4156C26.8248 18.4136 25.0773 17.689 23.7882 16.4005C22.4991 15.1121 21.7735 13.365 21.7705 11.5424V8.04229C21.7706 7.97603 21.7883 7.91099 21.8219 7.85382C21.8554 7.79666 21.9035 7.74942 21.9612 7.71696C21.9612 7.71696 23.4795 6.8307 23.9132 5.51815C23.9338 5.45556 23.9705 5.3995 24.0196 5.35565C24.0688 5.31179 24.1286 5.28171 24.1931 5.26842C24.2577 5.25514 24.3245 5.25914 24.387 5.28C24.4495 5.30087 24.5054 5.33787 24.5489 5.38726C24.5714 5.41718 26.9459 8.08342 29.1447 7.91141C31.1339 7.74318 33.1125 7.4673 35.0718 7.08498C35.1261 7.07428 35.1822 7.07577 35.2358 7.08935C35.2895 7.10293 35.3395 7.12826 35.3822 7.16351C35.4251 7.19831 35.4597 7.24218 35.4837 7.29197C35.5076 7.34175 35.5202 7.39622 35.5206 7.45145V11.5424C35.5176 13.3644 34.7925 15.1109 33.5042 16.3992C32.2159 17.6875 30.4694 18.4126 28.6474 18.4156ZM22.5184 8.24796V11.5424C22.5204 13.167 23.1669 14.7244 24.316 15.8728C25.465 17.0212 27.0228 17.6667 28.6474 17.6677C30.2713 17.6657 31.8281 17.0197 32.9764 15.8715C34.1247 14.7232 34.7707 13.1663 34.7727 11.5424V7.90393C33.8415 8.07595 31.5904 8.46859 29.2046 8.65182C27.2002 8.80514 25.2183 7.10742 24.3881 6.29222C23.928 7.08259 23.2873 7.75279 22.5184 8.24796Z" fill="#093F68"/>
<path d="M27.4171 31.9038H23.1279V52.9047H27.4171V31.9038Z" fill="#093F68"/>
<path d="M27.4133 53.2786H23.1279C23.0287 53.2786 22.9336 53.2392 22.8634 53.169C22.7933 53.0989 22.7539 53.0038 22.7539 52.9046V31.9037C22.7539 31.8046 22.7933 31.7094 22.8634 31.6393C22.9336 31.5692 23.0287 31.5298 23.1279 31.5298H27.4133C27.5125 31.5298 27.6076 31.5692 27.6777 31.6393C27.7478 31.7094 27.7872 31.8046 27.7872 31.9037V52.9046C27.7872 53.0038 27.7478 53.0989 27.6777 53.169C27.6076 53.2392 27.5125 53.2786 27.4133 53.2786ZM23.5018 52.5307H27.0393V32.2777H23.5018V52.5307Z" fill="#093F68"/>
<path d="M34.051 31.9038H30.334V52.9047H34.051V31.9038Z" fill="#093F68"/>
<path d="M34.0509 53.2786H30.3339C30.2347 53.2786 30.1396 53.2392 30.0695 53.169C29.9994 53.0989 29.96 53.0038 29.96 52.9046V31.9037C29.96 31.8046 29.9994 31.7094 30.0695 31.6393C30.1396 31.5692 30.2347 31.5298 30.3339 31.5298H34.0509C34.1501 31.5298 34.2452 31.5692 34.3154 31.6393C34.3855 31.7094 34.4249 31.8046 34.4249 31.9037V52.9046C34.4249 53.0038 34.3855 53.0989 34.3154 53.169C34.2452 53.2392 34.1501 53.2786 34.0509 53.2786ZM30.7079 52.5307H33.677V32.2777H30.7079V52.5307Z" fill="#093F68"/>
<path d="M34.0513 31.8667H23.334V36.2307H34.0513V31.8667Z" fill="#093F68"/>
<path d="M34.0512 36.6045H23.3339C23.2347 36.6045 23.1396 36.5651 23.0695 36.495C22.9994 36.4249 22.96 36.3298 22.96 36.2306V31.8666C22.96 31.7674 22.9994 31.6723 23.0695 31.6022C23.1396 31.5321 23.2347 31.4927 23.3339 31.4927H34.0512C34.1504 31.4927 34.2455 31.5321 34.3157 31.6022C34.3858 31.6723 34.4252 31.7674 34.4252 31.8666V36.2306C34.4252 36.3298 34.3858 36.4249 34.3157 36.495C34.2455 36.5651 34.1504 36.6045 34.0512 36.6045ZM23.7079 35.8566H33.6773V32.2406H23.7079V35.8566Z" fill="#093F68"/>
<path d="M26.8785 52.9048V55.6458H21.0674L23.9729 52.9048H26.8785Z" fill="#F56132"/>
<path d="M26.8677 56.0197H21.0678C20.9926 56.0202 20.919 55.998 20.8566 55.956C20.7942 55.914 20.7459 55.8542 20.718 55.7843C20.6901 55.7144 20.684 55.6378 20.7004 55.5644C20.7167 55.4909 20.7549 55.4242 20.8098 55.3728L23.7154 52.6317C23.7853 52.5663 23.8776 52.5301 23.9734 52.5308H26.8677C26.9669 52.5308 27.062 52.5702 27.1322 52.6403C27.2023 52.7104 27.2417 52.8055 27.2417 52.9047V55.6458C27.2417 55.7449 27.2023 55.84 27.1322 55.9102C27.062 55.9803 26.9669 56.0197 26.8677 56.0197ZM22.0064 55.2718H26.4938V53.2787H24.108L22.0064 55.2718Z" fill="#093F68"/>
<path d="M30.5654 52.9048V55.6458H36.3766L33.471 52.9048H30.5654Z" fill="#F56132"/>
<path d="M36.3765 56.0197H30.5654C30.4662 56.0197 30.3711 55.9803 30.3009 55.9102C30.2308 55.84 30.1914 55.7449 30.1914 55.6457V52.9047C30.1914 52.8055 30.2308 52.7104 30.3009 52.6403C30.3711 52.5702 30.4662 52.5308 30.5654 52.5308H33.4709C33.5654 52.5311 33.6562 52.5672 33.7252 52.6317L36.6308 55.3728C36.6855 55.4239 36.7235 55.4904 36.74 55.5634C36.7565 55.6365 36.7506 55.7128 36.7232 55.7825C36.6958 55.8522 36.6481 55.9121 36.5863 55.9544C36.5245 55.9967 36.4514 56.0194 36.3765 56.0197ZM30.9393 55.2718H35.4267L33.3139 53.2787H30.9318L30.9393 55.2718Z" fill="#093F68"/>
<path d="M29.063 20.2329H28.2665C27.9629 20.2329 27.7168 20.479 27.7168 20.7826V21.1753C27.7168 21.4788 27.9629 21.725 28.2665 21.725H29.063C29.3666 21.725 29.6127 21.4788 29.6127 21.1753V20.7826C29.6127 20.479 29.3666 20.2329 29.063 20.2329Z" fill="white"/>
<path d="M29.0629 22.099H28.2664C28.0218 22.098 27.7874 22.0004 27.6144 21.8274C27.4414 21.6544 27.3438 21.42 27.3428 21.1754V20.8014C27.3428 20.5561 27.44 20.3208 27.6131 20.147C27.7862 19.9732 28.0211 19.875 28.2664 19.874H29.0629C29.3082 19.875 29.5432 19.9732 29.7163 20.147C29.8894 20.3208 29.9866 20.5561 29.9866 20.8014V21.1754C29.9856 21.42 29.888 21.6544 29.715 21.8274C29.542 22.0004 29.3076 22.098 29.0629 22.099ZM28.2664 20.6032C28.2195 20.6042 28.1748 20.6235 28.1419 20.6571C28.1091 20.6907 28.0907 20.7358 28.0907 20.7827V21.1567C28.0907 21.2033 28.1092 21.248 28.1421 21.2809C28.1751 21.3139 28.2198 21.3324 28.2664 21.3324H29.0629C29.1095 21.3324 29.1542 21.3139 29.1872 21.2809C29.2202 21.248 29.2387 21.2033 29.2387 21.1567V20.7827C29.2387 20.7358 29.2203 20.6907 29.1874 20.6571C29.1546 20.6235 29.1099 20.6042 29.0629 20.6032H28.2664Z" fill="#093F68"/>
<path d="M28.1199 21.7251L27.0205 27.7157L28.7294 30.4493L30.1579 27.97L29.2081 21.7251H28.1199Z" fill="white"/>
<path d="M28.7372 30.8231C28.6737 30.8232 28.6112 30.8071 28.5555 30.7764C28.4999 30.7456 28.4531 30.7012 28.4194 30.6473L26.7104 27.9137C26.6605 27.8349 26.6418 27.7402 26.6581 27.6482L27.7799 21.6651C27.7959 21.578 27.8422 21.4993 27.9107 21.4432C27.9791 21.387 28.0653 21.357 28.1539 21.3584H29.2421C29.3323 21.3574 29.4198 21.389 29.4885 21.4474C29.5572 21.5059 29.6025 21.5871 29.616 21.6763L30.5658 27.9212C30.5789 28.005 30.563 28.0907 30.521 28.1643L29.0925 30.6436C29.0602 30.6995 29.0139 30.7462 28.9582 30.779C28.9025 30.8117 28.8393 30.8295 28.7746 30.8305L28.7372 30.8231ZM27.4209 27.6408L28.726 29.7237L29.7768 27.8988L28.8868 22.0989H28.4306L27.4209 27.6408Z" fill="#093F68"/>
<path d="M28.8386 14.1416C28.6205 14.1425 28.4027 14.1237 28.1879 14.0855C28.091 14.0681 28.0048 14.0132 27.9481 13.9327C27.8914 13.8522 27.8687 13.7526 27.8851 13.6554C27.8932 13.6067 27.9109 13.5601 27.9372 13.5183C27.9634 13.4764 27.9977 13.4402 28.038 13.4117C28.0784 13.3832 28.1239 13.363 28.1721 13.3522C28.2203 13.3414 28.2702 13.3402 28.3188 13.3488C28.5657 13.3916 28.817 13.4029 29.0667 13.3824C28.9483 12.9376 28.7775 12.5083 28.5582 12.1035C28.5148 12.0161 28.5073 11.9151 28.5374 11.8222C28.5675 11.7293 28.6328 11.6518 28.7192 11.6064C28.8057 11.561 28.9065 11.5512 29.0001 11.5791C29.0937 11.607 29.1726 11.6704 29.22 11.7558C29.594 12.4401 29.9679 13.3488 29.766 13.7863C29.7351 13.8592 29.6875 13.9239 29.6271 13.9752C29.5667 14.0265 29.4952 14.063 29.4182 14.0817C29.2282 14.1252 29.0335 14.1453 28.8386 14.1416Z" fill="#093F68"/>
<path d="M26.7066 11.5314C26.6074 11.5314 26.5123 11.492 26.4422 11.4219C26.3721 11.3518 26.3327 11.2566 26.3327 11.1575C26.3327 11.0147 26.2759 10.8777 26.175 10.7767C26.074 10.6757 25.937 10.619 25.7942 10.619C25.6514 10.619 25.5144 10.6757 25.4134 10.7767C25.3124 10.8777 25.2557 11.0147 25.2557 11.1575C25.2557 11.2566 25.2163 11.3518 25.1462 11.4219C25.0761 11.492 24.9809 11.5314 24.8818 11.5314C24.7826 11.5314 24.6875 11.492 24.6173 11.4219C24.5472 11.3518 24.5078 11.2566 24.5078 11.1575C24.5078 10.8163 24.6433 10.4891 24.8846 10.2479C25.1258 10.0066 25.453 9.87109 25.7942 9.87109C26.1354 9.87109 26.4626 10.0066 26.7038 10.2479C26.945 10.4891 27.0806 10.8163 27.0806 11.1575C27.0806 11.2566 27.0412 11.3518 26.971 11.4219C26.9009 11.492 26.8058 11.5314 26.7066 11.5314Z" fill="#093F68"/>
<path d="M32.4428 11.5312C32.3436 11.5312 32.2485 11.4918 32.1784 11.4216C32.1082 11.3515 32.0688 11.2564 32.0688 11.1572C32.0576 11.0217 31.9957 10.8953 31.8956 10.8032C31.7956 10.7111 31.6645 10.66 31.5285 10.66C31.3925 10.66 31.2614 10.7111 31.1613 10.8032C31.0612 10.8953 30.9994 11.0217 30.9881 11.1572C30.9881 11.2564 30.9487 11.3515 30.8786 11.4216C30.8085 11.4918 30.7134 11.5312 30.6142 11.5312C30.515 11.5312 30.4199 11.4918 30.3498 11.4216C30.2796 11.3515 30.2402 11.2564 30.2402 11.1572C30.258 10.8275 30.4015 10.5172 30.6411 10.2902C30.8808 10.0631 31.1983 9.93652 31.5285 9.93652C31.8586 9.93652 32.1762 10.0631 32.4158 10.2902C32.6555 10.5172 32.799 10.8275 32.8167 11.1572C32.8167 11.2564 32.7773 11.3515 32.7072 11.4216C32.6371 11.4918 32.542 11.5312 32.4428 11.5312Z" fill="#093F68"/>
<path d="M28.9691 15.5548C28.0969 15.528 27.2666 15.1743 26.6431 14.5638C26.5693 14.4978 26.5248 14.4052 26.5192 14.3064C26.5135 14.2075 26.5474 14.1105 26.6132 14.0366C26.6459 13.9995 26.6857 13.9693 26.7302 13.9477C26.7747 13.9261 26.8231 13.9135 26.8724 13.9107C26.9218 13.908 26.9713 13.915 27.0179 13.9315C27.0646 13.9479 27.1075 13.9735 27.1442 14.0067C28.6736 15.3753 29.8628 14.5825 29.9114 14.5451C29.9928 14.4887 30.0932 14.4669 30.1906 14.4844C30.2881 14.502 30.3746 14.5574 30.4312 14.6386C30.4872 14.7188 30.5095 14.8177 30.4935 14.9142C30.4774 15.0107 30.4242 15.097 30.3452 15.1547C29.938 15.4253 29.4578 15.5649 28.9691 15.5548Z" fill="#093F68"/>
<path d="M17.4516 59.8604H0.556641V69.4446H17.4516V59.8604Z" fill="#68E1FD"/>
<path d="M17.4515 69.8148H0.556565C0.457388 69.8148 0.362272 69.7754 0.292144 69.7052C0.222015 69.6351 0.182617 69.54 0.182617 69.4408V59.8603C0.182617 59.7611 0.222015 59.666 0.292144 59.5959C0.362272 59.5257 0.457388 59.4863 0.556565 59.4863H17.4515C17.5507 59.4863 17.6458 59.5257 17.7159 59.5959C17.7861 59.666 17.8255 59.7611 17.8255 59.8603V69.4408C17.8255 69.54 17.7861 69.6351 17.7159 69.7052C17.6458 69.7754 17.5507 69.8148 17.4515 69.8148ZM0.930512 69.0669H17.0776V60.2342H0.930512V69.0669Z" fill="#093F68"/>
<path d="M56.9184 63.7192H40.0234V69.4444H56.9184V63.7192Z" fill="#68E1FD"/>
<path d="M56.9183 69.8145H40.0234C39.9242 69.8145 39.8291 69.7751 39.7589 69.705C39.6888 69.6349 39.6494 69.5397 39.6494 69.4406V63.7192C39.6494 63.62 39.6888 63.5249 39.7589 63.4547C39.8291 63.3846 39.9242 63.3452 40.0234 63.3452H56.9183C57.0175 63.3452 57.1126 63.3846 57.1827 63.4547C57.2529 63.5249 57.2922 63.62 57.2922 63.7192V69.4406C57.2922 69.5397 57.2529 69.6349 57.1827 69.705C57.1126 69.7751 57.0175 69.8145 56.9183 69.8145ZM40.3973 69.0666H56.5444V64.0931H40.3973V69.0666Z" fill="#093F68"/>
</g>
<defs>
<clipPath id="clip0_563_534">
<rect width="57.4737" height="70" fill="white"/>
</clipPath>
</defs>
</svg>
