<svg width="70" height="70" viewBox="0 0 70 70" fill="none" xmlns="http://www.w3.org/2000/svg">
<path d="M34.4963 11C40.1645 10.9992 45.6577 12.9637 50.0399 16.559C54.422 20.1543 57.4219 25.1577 58.5285 30.7169C59.6351 36.2761 58.7799 42.047 56.1086 47.0463C53.4373 52.0456 49.1151 55.964 43.8786 58.1338C38.6422 60.3037 32.8153 60.5906 27.3909 58.9459C21.9666 57.3012 17.2803 53.8265 14.1306 49.1139C10.981 44.4013 9.56279 38.7423 10.1177 33.1013C10.6727 27.4603 13.1664 22.1862 17.1741 18.1777C19.4468 15.8999 22.1469 14.0933 25.1195 12.8616C28.0921 11.6299 31.2786 10.9972 34.4963 11ZM29.4559 33.5102C30.2055 34.9094 31.1316 36.2067 32.2114 37.3702C33.4669 38.69 34.9432 39.7804 36.5739 40.5922C36.6315 40.6215 36.6946 40.6385 36.7592 40.6419C36.8237 40.6453 36.8883 40.6352 36.9487 40.6121C37.1504 40.518 37.3298 40.3821 37.4751 40.2134C37.647 40.0285 37.8068 39.8327 37.9536 39.6272C38.6514 38.7061 39.5247 37.5616 40.7449 38.1318L40.8167 38.1717L44.908 40.5244L44.9479 40.5483C45.199 40.7289 45.401 40.9695 45.5354 41.248C45.6698 41.5266 45.7324 41.8344 45.7175 42.1434C45.6893 42.8591 45.4838 43.5565 45.1193 44.1731C44.6686 44.9485 43.9789 45.5571 43.1534 45.9077C42.3805 46.2415 41.5643 46.4643 40.729 46.5697C39.4866 46.751 38.2192 46.6446 37.0245 46.2586C35.711 45.8214 34.4592 45.2169 33.3 44.4602L33.2043 44.4004C32.5982 44.0256 31.9442 43.6029 31.3022 43.1403C28.7459 41.2101 26.6057 38.7837 25.0097 36.0064C23.7018 33.6418 22.988 31.0897 23.3788 28.6532C23.5333 27.357 24.1644 26.1645 25.1493 25.3076C25.6541 24.9183 26.2317 24.6339 26.848 24.4709C27.4643 24.3079 28.1069 24.2697 28.7382 24.3586C28.8211 24.3666 28.9007 24.3947 28.9702 24.4406C29.0398 24.4865 29.097 24.5487 29.1369 24.6217L31.7568 29.052C31.9319 29.2529 32.0457 29.4999 32.0846 29.7635C32.1235 30.0272 32.0858 30.2965 31.9761 30.5394C31.7449 30.9933 31.3984 31.3784 30.9712 31.6559C30.8317 31.7795 30.6642 31.8992 30.4887 32.0268C29.9026 32.4535 29.2366 32.9439 29.4639 33.5221L29.4559 33.5102ZM49.4499 20.5464C45.9913 17.0909 41.4416 14.9413 36.5759 14.4639C31.7103 13.9865 26.8296 15.2108 22.7653 17.9282C18.701 20.6457 15.7046 24.6881 14.2865 29.367C12.8683 34.0458 13.1162 39.0716 14.9879 43.5882C16.8596 48.1048 20.2392 51.8328 24.5512 54.1371C28.8631 56.4414 33.8406 57.1795 38.6357 56.2256C43.4308 55.2717 47.7468 52.6849 50.8486 48.9058C53.9504 45.1267 55.646 40.389 55.6467 35.5C55.6501 32.7221 55.1043 29.9709 54.0409 27.4047C52.9774 24.8384 51.4172 22.5076 49.4499 20.5464Z" fill="black"/>
</svg>
