<svg width="70" height="70" viewBox="0 0 70 70" fill="none" xmlns="http://www.w3.org/2000/svg">
<circle cx="35" cy="35" r="35" fill="#0693E3" fill-opacity="0.05"/>
<path d="M27.1856 43.4258C27.1856 43.4258 28.3186 50.345 23.5689 52.4106H50.1016L49.9 56.0236L45.0476 57.0564L43.1849 58.9191L41.1205 56.7508L15.9286 57.0564L14.2773 55.7119L14.5866 51.478C14.5866 51.478 25.021 53.7477 27.1856 43.4258Z" fill="#FEE13E"/>
<path d="M53.302 27.6332C57.6357 27.6332 61.1488 24.12 61.1488 19.7863C61.1488 15.4526 57.6357 11.9395 53.302 11.9395C48.9682 11.9395 45.4551 15.4526 45.4551 19.7863C45.4551 24.12 48.9682 27.6332 53.302 27.6332Z" fill="#FEE13E"/>
<path d="M53.2303 10C51.0501 10.0028 48.9357 10.7468 47.2342 12.1099C45.5327 13.4729 44.3451 15.374 43.8666 17.501H24.0661C23.3733 17.501 22.709 17.7762 22.2191 18.266C21.7293 18.7558 21.4541 19.4202 21.4541 20.1129V31.0032C21.4573 31.6939 21.7337 32.3551 22.2229 32.8427C22.712 33.3302 23.3742 33.6044 24.0648 33.6054H27.3454L28.4967 35.3801C28.6603 35.6318 28.917 35.8082 29.2106 35.8708C29.5041 35.9334 29.8105 35.8769 30.0624 35.7138C30.1805 35.6373 30.2833 35.5395 30.3656 35.4253L31.6758 33.6054H56.9887C57.6798 33.6041 58.3423 33.3295 58.8316 32.8416C59.321 32.3536 59.5974 31.6918 59.6007 31.0008V26.762C61.0558 25.4704 62.0837 23.7668 62.5478 21.8772C63.0119 19.9877 62.8903 18.0017 62.1991 16.183C61.5078 14.3642 60.2797 12.7987 58.6778 11.6944C57.0759 10.59 55.176 9.99908 53.2303 10ZM57.7881 30.9959C57.7861 31.2064 57.701 31.4076 57.5512 31.5555C57.4014 31.7035 57.1992 31.7861 56.9887 31.7855H31.1991C31.0558 31.7861 30.9146 31.8206 30.7871 31.8862C30.6596 31.9519 30.5495 32.0468 30.4658 32.1631L29.4684 33.5492L28.5933 32.1986C28.5106 32.0717 28.3976 31.9674 28.2644 31.8952C28.1312 31.8231 27.9821 31.7854 27.8306 31.7855H24.0636C23.8535 31.7858 23.6519 31.7029 23.5028 31.5549C23.3537 31.407 23.2692 31.206 23.2679 30.9959V20.1117C23.2679 20.0073 23.2885 19.9039 23.3285 19.8074C23.3685 19.7109 23.4271 19.6233 23.5011 19.5495C23.575 19.4757 23.6627 19.4172 23.7592 19.3774C23.8557 19.3375 23.9592 19.3171 24.0636 19.3172H43.6405C43.6405 19.4101 43.6331 19.503 43.6331 19.5959C43.6325 21.2574 44.0634 22.8906 44.8836 24.3355C45.7038 25.7804 46.8852 26.9875 48.3121 27.8386C49.739 28.6898 51.3625 29.1558 53.0236 29.1909C54.6847 29.2261 56.3264 28.8292 57.7881 28.0393V30.9959ZM53.2303 27.378C51.6911 27.3783 50.1864 26.9221 48.9064 26.0671C47.6265 25.2121 46.6289 23.9968 46.0397 22.5748C45.4505 21.1529 45.2962 19.5881 45.5963 18.0785C45.8965 16.5688 46.6376 15.1821 47.7258 14.0936C48.8141 13.0051 50.2008 12.2638 51.7104 11.9634C53.22 11.6631 54.7848 11.8171 56.2069 12.4061C57.6289 12.9951 58.8444 13.9925 59.6995 15.2723C60.5547 16.5521 61.0112 18.0567 61.0112 19.5959C61.0089 21.659 60.1884 23.6369 58.7298 25.0958C57.2711 26.5547 55.2933 27.3754 53.2303 27.378Z" fill="#0693E3"/>
<path d="M48.6777 41.6098H27.0829C26.8339 39.9897 26.1741 38.4605 25.1664 37.1677C24.1588 35.875 22.8368 34.8619 21.3266 34.225C19.8163 33.588 18.1681 33.3485 16.5391 33.5292C14.91 33.7099 13.3543 34.3048 12.0204 35.2573C10.6865 36.2097 9.61869 37.4879 8.91884 38.97C8.21899 40.4522 7.91039 42.0888 8.02246 43.7241C8.13454 45.3593 8.66354 46.9386 9.55906 48.3114C10.4546 49.6842 11.6868 50.8047 13.1382 51.5662V55.1022C13.1391 55.7947 13.4146 56.4585 13.9043 56.9481C14.3939 57.4377 15.0577 57.7132 15.7501 57.7142H41.0752L42.3867 59.5305C42.491 59.6758 42.6285 59.7942 42.7877 59.8758C42.9469 59.9575 43.1233 59.9999 43.3022 59.9998C43.4916 60.0006 43.6781 59.9537 43.8447 59.8636C44.0113 59.7735 44.1526 59.643 44.2556 59.484L45.4057 57.7105H48.6777C49.3701 57.7095 50.0339 57.434 50.5235 56.9444C51.0132 56.4548 51.2887 55.791 51.2896 55.0986V44.2205C51.2893 43.528 51.014 42.8639 50.5242 42.3744C50.0344 41.8848 49.3702 41.6098 48.6777 41.6098ZM9.80998 43.0765C9.80877 41.5373 10.264 40.0323 11.1182 38.7518C11.9723 37.4714 13.187 36.473 14.6086 35.8829C16.0302 35.2928 17.5949 35.1375 19.1047 35.4367C20.6146 35.7359 22.0018 36.4761 23.091 37.5637C24.1801 38.6513 24.9223 40.0375 25.2236 41.5469C25.5249 43.0563 25.3719 44.6212 24.7838 46.0436C24.1957 47.4661 23.199 48.6822 21.9198 49.5381C20.6405 50.3941 19.1362 50.8515 17.597 50.8524C15.5343 50.8502 13.5567 50.0299 12.098 48.5714C10.6393 47.113 9.81868 45.1355 9.81609 43.0728L9.80998 43.0765ZM49.4685 55.1059C49.4681 55.317 49.384 55.5194 49.2346 55.6686C49.0852 55.8178 48.8827 55.9016 48.6716 55.9016H44.9131C44.7618 55.9015 44.6129 55.9392 44.4799 56.0113C44.3469 56.0835 44.2341 56.1878 44.1517 56.3147L43.2753 57.6592L42.278 56.2731C42.1942 56.1568 42.0841 56.0619 41.9566 55.9962C41.8292 55.9306 41.688 55.8961 41.5446 55.8955H15.7501C15.5392 55.8951 15.337 55.8112 15.1879 55.6621C15.0387 55.5129 14.9548 55.3107 14.9544 55.0998V52.2886C16.354 52.6914 17.827 52.7699 19.2615 52.5184C20.696 52.2668 22.0543 51.6917 23.2333 50.8367C24.4122 49.9817 25.3809 48.8693 26.0658 47.5839C26.7506 46.2986 27.1335 44.8741 27.1855 43.4187H48.6777C48.7822 43.4185 48.8857 43.439 48.9824 43.4789C49.079 43.5189 49.1668 43.5775 49.2407 43.6514C49.3146 43.7253 49.3732 43.8131 49.4131 43.9097C49.4531 44.0063 49.4735 44.1098 49.4734 44.2144L49.4685 55.1059Z" fill="#0693E3"/>
<path d="M40.5003 22.3883H26.459C26.337 22.3838 26.2154 22.404 26.1014 22.4476C25.9874 22.4912 25.8833 22.5573 25.7955 22.642C25.7076 22.7267 25.6377 22.8283 25.5899 22.9406C25.5422 23.053 25.5176 23.1738 25.5176 23.2958C25.5176 23.4179 25.5422 23.5387 25.5899 23.651C25.6377 23.7634 25.7076 23.8649 25.7955 23.9497C25.8833 24.0344 25.9874 24.1005 26.1014 24.1441C26.2154 24.1877 26.337 24.2078 26.459 24.2034H40.5003C40.6223 24.2078 40.7439 24.1877 40.8579 24.1441C40.9719 24.1005 41.076 24.0344 41.1639 23.9497C41.2517 23.8649 41.3216 23.7634 41.3694 23.651C41.4171 23.5387 41.4417 23.4179 41.4417 23.2958C41.4417 23.1738 41.4171 23.053 41.3694 22.9406C41.3216 22.8283 41.2517 22.7267 41.1639 22.642C41.076 22.5573 40.9719 22.4912 40.8579 22.4476C40.7439 22.404 40.6223 22.3838 40.5003 22.3883Z" fill="#0693E3"/>
<path d="M34.6212 26.1061H26.459C26.337 26.1016 26.2154 26.1218 26.1014 26.1654C25.9874 26.2089 25.8833 26.2751 25.7955 26.3598C25.7076 26.4445 25.6377 26.5461 25.5899 26.6584C25.5422 26.7707 25.5176 26.8915 25.5176 27.0136C25.5176 27.1357 25.5422 27.2565 25.5899 27.3688C25.6377 27.4812 25.7076 27.5827 25.7955 27.6674C25.8833 27.7521 25.9874 27.8183 26.1014 27.8619C26.2154 27.9054 26.337 27.9256 26.459 27.9211H34.6212C34.7432 27.9256 34.8649 27.9054 34.9789 27.8619C35.0929 27.8183 35.1969 27.7521 35.2848 27.6674C35.3727 27.5827 35.4426 27.4812 35.4903 27.3688C35.5381 27.2565 35.5627 27.1357 35.5627 27.0136C35.5627 26.8915 35.5381 26.7707 35.4903 26.6584C35.4426 26.5461 35.3727 26.4445 35.2848 26.3598C35.1969 26.2751 35.0929 26.2089 34.9789 26.1654C34.8649 26.1218 34.7432 26.1016 34.6212 26.1061Z" fill="#0693E3"/>
<path d="M43.5978 46.7529H29.5566C29.3157 46.7529 29.0847 46.8486 28.9144 47.0189C28.7441 47.1892 28.6484 47.4202 28.6484 47.6611C28.6484 47.9019 28.7441 48.1329 28.9144 48.3032C29.0847 48.4735 29.3157 48.5692 29.5566 48.5692H43.5978C43.8387 48.5692 44.0697 48.4735 44.24 48.3032C44.4103 48.1329 44.506 47.9019 44.506 47.6611C44.506 47.4202 44.4103 47.1892 44.24 47.0189C44.0697 46.8486 43.8387 46.7529 43.5978 46.7529Z" fill="#0693E3"/>
<path d="M37.7127 50.4697H29.5566C29.3157 50.4697 29.0847 50.5654 28.9144 50.7357C28.7441 50.906 28.6484 51.137 28.6484 51.3779C28.6484 51.6187 28.7441 51.8497 28.9144 52.02C29.0847 52.1903 29.3157 52.286 29.5566 52.286H37.7127C37.9535 52.286 38.1845 52.1903 38.3548 52.02C38.5251 51.8497 38.6208 51.6187 38.6208 51.3779C38.6208 51.137 38.5251 50.906 38.3548 50.7357C38.1845 50.5654 37.9535 50.4697 37.7127 50.4697Z" fill="#0693E3"/>
<path d="M21.4707 46.1635C21.5624 46.0847 21.6375 45.9883 21.6916 45.8801C21.7456 45.7718 21.7775 45.6539 21.7853 45.5332C21.7931 45.4124 21.7767 45.2914 21.7371 45.1771C21.6974 45.0628 21.6354 44.9575 21.5545 44.8675C21.4736 44.7776 21.3756 44.7046 21.2662 44.6531C21.1567 44.6015 21.0381 44.5723 20.9172 44.5672C20.7963 44.5621 20.6757 44.5812 20.5623 44.6234C20.4489 44.6656 20.3451 44.7301 20.257 44.8129C20.1592 44.8985 17.8283 46.8908 14.7776 44.7481C14.5805 44.6155 14.3392 44.5653 14.1056 44.6084C13.8719 44.6516 13.6645 44.7846 13.5278 44.9789C13.391 45.1732 13.3359 45.4133 13.3742 45.6478C13.4125 45.8823 13.5411 46.0925 13.7326 46.2332C15.1137 47.2049 16.4509 47.5532 17.6328 47.5532C19.3672 47.5532 20.7654 46.8015 21.4707 46.1635Z" fill="#0693E3"/>
<path d="M57.2753 23.4819C57.3671 23.4031 57.4422 23.3067 57.4963 23.1985C57.5503 23.0902 57.5821 22.9723 57.59 22.8515C57.5978 22.7308 57.5814 22.6097 57.5417 22.4954C57.5021 22.3811 57.44 22.2759 57.3592 22.1859C57.2783 22.0959 57.1803 22.023 57.0709 21.9714C56.9614 21.9198 56.8428 21.8907 56.7219 21.8856C56.601 21.8805 56.4804 21.8996 56.367 21.9418C56.2536 21.984 56.1498 22.0484 56.0616 22.1313C55.9639 22.2168 53.633 24.2091 50.5823 22.0665C50.3852 21.9338 50.1439 21.8837 49.9103 21.9268C49.6766 21.9699 49.4692 22.1029 49.3325 22.2972C49.1957 22.4915 49.1406 22.7317 49.1789 22.9662C49.2171 23.2007 49.3458 23.4108 49.5372 23.5515C50.9184 24.5232 52.2555 24.8716 53.4375 24.8716C55.1718 24.8716 56.5701 24.1199 57.2753 23.4819Z" fill="#0693E3"/>
<path d="M50.8026 18.868C51.0159 18.868 51.2244 18.8047 51.4017 18.6862C51.579 18.5677 51.7172 18.3993 51.7987 18.2022C51.8803 18.0051 51.9016 17.7883 51.8599 17.5792C51.8182 17.37 51.7154 17.1779 51.5645 17.0272C51.4136 16.8765 51.2214 16.7739 51.0122 16.7325C50.803 16.691 50.5862 16.7125 50.3892 16.7943C50.1923 16.8761 50.024 17.0145 49.9057 17.1919C49.7874 17.3694 49.7244 17.5779 49.7246 17.7912C49.7246 17.9327 49.7525 18.0728 49.8067 18.2035C49.8609 18.3342 49.9403 18.453 50.0404 18.553C50.1406 18.653 50.2594 18.7323 50.3902 18.7864C50.521 18.8404 50.6611 18.8681 50.8026 18.868Z" fill="#0693E3"/>
<path d="M55.5048 18.868C55.7178 18.867 55.9258 18.8029 56.1025 18.6838C56.2792 18.5647 56.4166 18.396 56.4974 18.1988C56.5782 18.0017 56.5988 17.785 56.5565 17.5762C56.5143 17.3674 56.4111 17.1757 56.26 17.0255C56.1089 16.8753 55.9167 16.7732 55.7077 16.7321C55.4986 16.6911 55.2821 16.7129 55.0854 16.7948C54.8887 16.8767 54.7207 17.0151 54.6026 17.1924C54.4845 17.3697 54.4216 17.5781 54.4219 17.7912C54.4219 17.9331 54.4499 18.0736 54.5044 18.2046C54.5589 18.3357 54.6388 18.4547 54.7394 18.5547C54.8401 18.6548 54.9595 18.734 55.0908 18.7878C55.2222 18.8415 55.3629 18.8688 55.5048 18.868Z" fill="#0693E3"/>
<path d="M15.1483 41.5799C15.3616 41.5799 15.5701 41.5166 15.7474 41.3981C15.9247 41.2796 16.0629 41.1112 16.1444 40.9141C16.226 40.7171 16.2473 40.5002 16.2056 40.2911C16.1639 40.0819 16.0611 39.8899 15.9102 39.7391C15.7593 39.5884 15.5671 39.4859 15.3579 39.4444C15.1487 39.4029 14.9319 39.4245 14.735 39.5062C14.538 39.588 14.3697 39.7264 14.2514 39.9038C14.1331 40.0813 14.0701 40.2898 14.0703 40.5031C14.0703 40.6446 14.0982 40.7847 14.1524 40.9154C14.2066 41.0462 14.286 41.1649 14.3861 41.2649C14.4863 41.3649 14.6051 41.4442 14.7359 41.4983C14.8667 41.5523 15.0068 41.58 15.1483 41.5799Z" fill="#0693E3"/>
<path d="M19.8524 41.5818C20.4478 41.5818 20.9305 41.0992 20.9305 40.5038C20.9305 39.9084 20.4478 39.4258 19.8524 39.4258C19.2571 39.4258 18.7744 39.9084 18.7744 40.5038C18.7744 41.0992 19.2571 41.5818 19.8524 41.5818Z" fill="#0693E3"/>
</svg>
