<svg width="70" height="70" viewBox="0 0 70 70" fill="none" xmlns="http://www.w3.org/2000/svg">
<path d="M10.8941 17H58.1059C59.7017 17.0087 61 18.3202 61 19.9217V51.0783C61 52.6841 59.6888 54 58.0886 54H10.8941C9.30257 53.9913 8 52.6798 8 51.0783V19.9217C8 18.3202 9.29826 17.0087 10.8941 17Z" fill="#FF9933"/>
<path d="M8 29.332H61V41.6683H8V29.332Z" fill="white"/>
<path d="M8 41.668H61V51.0781C61 52.684 59.6888 53.9999 58.0886 53.9999H10.8941C9.30257 53.9912 8 52.6797 8 51.0781V41.668Z" fill="#128807"/>
<path d="M39.416 35.4999C39.416 32.773 37.2163 30.5654 34.499 30.5654C31.7817 30.5654 29.582 32.773 29.582 35.4999C29.582 38.2225 31.7817 40.4344 34.499 40.4344C37.2163 40.4344 39.416 38.2269 39.416 35.4999Z" fill="#000088"/>
<path d="M38.7996 35.5001C38.7996 33.1151 36.876 31.1846 34.4994 31.1846C32.1229 31.1846 30.1992 33.1151 30.1992 35.5001C30.1992 37.8851 32.1229 39.8156 34.4994 39.8156C36.876 39.8156 38.7996 37.8851 38.7996 35.5001Z" fill="white"/>
<path d="M35.3592 35.5C35.3592 35.0238 34.9753 34.6343 34.5009 34.6343C34.0264 34.6343 33.6426 35.0195 33.6426 35.5C33.6426 35.9761 34.0264 36.3613 34.5009 36.3613C34.9753 36.3613 35.3592 35.9761 35.3592 35.5Z" fill="#000088"/>
<path d="M38.9761 36.0932C38.9933 35.9764 38.9071 35.8682 38.7906 35.8508C38.6742 35.8335 38.5663 35.9201 38.5491 36.037C38.5318 36.1538 38.6181 36.262 38.7345 36.2794C38.8553 36.2923 38.9631 36.2101 38.9761 36.0932Z" fill="#000088"/>
<path d="M34.5002 39.8157L34.6468 37.2273L34.5002 35.9937L34.3535 37.2273L34.5002 39.8157Z" fill="#000088"/>
<path d="M38.6716 37.2359C38.7191 37.1277 38.663 36.9978 38.5552 36.9546C38.4473 36.9069 38.3179 36.9632 38.2748 37.0714C38.2274 37.1796 38.2834 37.3095 38.3913 37.3528C38.5034 37.3961 38.6285 37.3441 38.6716 37.2359Z" fill="black"/>
<path d="M33.3867 39.6683L34.1976 37.2054L34.3744 35.9761L33.9129 37.1318L33.3867 39.6683Z" fill="black"/>
<path d="M38.0834 38.2617C38.1567 38.1664 38.1395 38.0322 38.0446 37.9587C37.9497 37.8851 37.816 37.9024 37.7427 37.9976C37.6694 38.0928 37.6866 38.227 37.7815 38.3006C37.8764 38.3742 38.0101 38.3526 38.0834 38.2617Z" fill="black"/>
<path d="M32.3477 39.24L33.7667 37.0714L34.2541 35.9287L33.5122 36.9199L32.3477 39.24Z" fill="black"/>
<path d="M37.2477 39.097C37.3426 39.0234 37.3599 38.8892 37.2865 38.794C37.2132 38.6988 37.0795 38.6815 36.9846 38.755C36.8897 38.8286 36.8725 38.9628 36.9458 39.058C37.0191 39.1489 37.1571 39.1706 37.2477 39.097Z" fill="black"/>
<path d="M31.459 38.5516L33.387 36.8245L34.1504 35.8506L33.1799 36.6167L31.459 38.5516Z" fill="black"/>
<path d="M36.229 39.6902C36.3368 39.6426 36.3929 39.517 36.3454 39.4088C36.298 39.3006 36.1729 39.2443 36.0651 39.292C35.9573 39.3352 35.9012 39.4651 35.9486 39.5733C35.9918 39.6815 36.1168 39.7335 36.229 39.6902Z" fill="black"/>
<path d="M30.7734 37.6598L33.0853 36.4911L34.073 35.7466L32.9343 36.2357L30.7734 37.6598Z" fill="black"/>
<path d="M35.0905 39.9929C35.207 39.9755 35.2889 39.8673 35.276 39.7505C35.2587 39.6336 35.1509 39.5514 35.0345 39.5643C34.918 39.5817 34.8361 39.6899 34.849 39.8067C34.8619 39.9279 34.9698 40.0102 35.0905 39.9929Z" fill="black"/>
<path d="M30.3457 36.6168L32.8775 36.0887L34.0248 35.6299L32.7999 35.803L30.3457 36.6168Z" fill="black"/>
<path d="M33.9095 39.9927C34.0259 40.0101 34.1337 39.9235 34.151 39.8066C34.1683 39.6897 34.082 39.5815 33.9655 39.5642C33.8491 39.5469 33.7413 39.6335 33.724 39.7503C33.7111 39.8715 33.793 39.9798 33.9095 39.9927Z" fill="black"/>
<path d="M30.1992 35.5002L32.7785 35.6474L34.0077 35.5002L32.7785 35.353L30.1992 35.5002Z" fill="black"/>
<path d="M32.7703 39.6902C32.8782 39.7378 33.0075 39.6815 33.0507 39.5733C33.0938 39.4651 33.0421 39.3352 32.9342 39.292C32.8264 39.2443 32.697 39.3006 32.6539 39.4088C32.6107 39.517 32.6625 39.6426 32.7703 39.6902Z" fill="black"/>
<path d="M30.3457 34.3833L32.7999 35.1971L34.0248 35.3745L32.8775 34.9114L30.3457 34.3833Z" fill="black"/>
<path d="M31.7491 39.097C31.844 39.1706 31.9777 39.1533 32.051 39.058C32.1243 38.9628 32.1071 38.8286 32.0122 38.755C31.9173 38.6815 31.7836 38.6988 31.7102 38.794C31.6412 38.8892 31.6585 39.0234 31.7491 39.097Z" fill="black"/>
<path d="M30.7734 33.3398L32.9343 34.7639L34.073 35.253L33.0853 34.5085L30.7734 33.3398Z" fill="black"/>
<path d="M30.9152 38.2617C30.9885 38.3569 31.1222 38.3742 31.2171 38.3006C31.312 38.227 31.3293 38.0928 31.256 37.9976C31.1826 37.9024 31.0489 37.8851 30.954 37.9587C30.8635 38.0279 30.8419 38.1664 30.9152 38.2617Z" fill="black"/>
<path d="M31.459 32.4482L33.1799 34.3831L34.1504 35.1536L33.387 34.1753L31.459 32.4482Z" fill="black"/>
<path d="M30.3257 37.2359C30.3732 37.3441 30.4983 37.4004 30.6061 37.3528C30.7139 37.3052 30.77 37.1796 30.7226 37.0714C30.6751 36.9632 30.55 36.9069 30.4422 36.9546C30.3344 36.9978 30.2826 37.1234 30.3257 37.2359Z" fill="black"/>
<path d="M32.3477 31.7603L33.5122 34.0803L34.2541 35.0716L33.7667 33.9332L32.3477 31.7603Z" fill="black"/>
<path d="M30.0238 36.0929C30.041 36.2097 30.1489 36.292 30.2653 36.279C30.3818 36.2617 30.4637 36.1535 30.4508 36.0366C30.4335 35.9197 30.3257 35.8375 30.2092 35.8505C30.0885 35.8635 30.0065 35.9717 30.0238 36.0929Z" fill="black"/>
<path d="M33.3867 31.3315L33.9129 33.8724L34.3744 35.0238L34.1976 33.7945L33.3867 31.3315Z" fill="black"/>
<path d="M30.0237 34.9072C30.0064 35.0241 30.0927 35.1323 30.2092 35.1496C30.3256 35.1669 30.4334 35.0803 30.4507 34.9635C30.4679 34.8466 30.3817 34.7384 30.2652 34.7211C30.1445 34.7081 30.0366 34.7903 30.0237 34.9072Z" fill="black"/>
<path d="M34.5002 31.1846L34.3535 33.773L34.5002 35.0066L34.6468 33.773L34.5002 31.1846Z" fill="black"/>
<path d="M30.3295 33.7644C30.282 33.8727 30.3381 34.0025 30.4459 34.0458C30.5538 34.0891 30.6832 34.0371 30.7263 33.9289C30.7737 33.8207 30.7177 33.6909 30.6098 33.6476C30.4977 33.6043 30.3726 33.6562 30.3295 33.7644Z" fill="black"/>
<path d="M35.6127 31.3315L34.8018 33.7945L34.625 35.0238L35.0865 33.8724L35.6127 31.3315Z" fill="black"/>
<path d="M30.9165 32.7427C30.8432 32.838 30.8604 32.9721 30.9553 33.0457C31.0502 33.1193 31.1839 33.102 31.2572 33.0068C31.3306 32.9115 31.3133 32.7774 31.2184 32.7038C31.1235 32.6302 30.9898 32.6475 30.9165 32.7427Z" fill="black"/>
<path d="M36.6525 31.7603L35.2335 33.9332L34.7461 35.0716L35.488 34.0803L36.6525 31.7603Z" fill="black"/>
<path d="M31.7522 31.9031C31.6573 31.9767 31.6401 32.1109 31.7134 32.2061C31.7867 32.3013 31.9204 32.3187 32.0153 32.2451C32.1102 32.1715 32.1274 32.0373 32.0541 31.9421C31.9808 31.8468 31.8428 31.8339 31.7522 31.9031Z" fill="black"/>
<path d="M37.541 32.4482L35.613 34.1753L34.8496 35.1536L35.8201 34.3831L37.541 32.4482Z" fill="black"/>
<path d="M32.7703 31.3145C32.6625 31.3621 32.6107 31.4877 32.6539 31.5959C32.7013 31.7041 32.8264 31.7604 32.9342 31.7128C33.0421 31.6651 33.0981 31.5396 33.0507 31.4314C33.0075 31.3189 32.8825 31.2669 32.7703 31.3145Z" fill="black"/>
<path d="M38.2273 33.3398L35.9154 34.5085L34.9277 35.253L36.0664 34.7639L38.2273 33.3398Z" fill="black"/>
<path d="M33.9095 31.0071C33.793 31.0244 33.7111 31.1326 33.724 31.2495C33.7413 31.3664 33.8491 31.4486 33.9655 31.4356C34.082 31.4183 34.1683 31.3101 34.151 31.1932C34.1381 31.0763 34.0302 30.9898 33.9095 31.0071Z" fill="black"/>
<path d="M38.6537 34.3833L36.1219 34.9114L34.9746 35.3745L36.1995 35.1971L38.6537 34.3833Z" fill="black"/>
<path d="M35.0914 31.0071C34.9749 30.9898 34.8671 31.0763 34.8499 31.1932C34.8326 31.3101 34.9189 31.4183 35.0353 31.4356C35.1518 31.4529 35.2596 31.3664 35.2769 31.2495C35.2898 31.1326 35.2078 31.0201 35.0914 31.0071Z" fill="black"/>
<path d="M38.8007 35.5002L36.2214 35.353L34.9922 35.5002L36.2214 35.6474L38.8007 35.5002Z" fill="black"/>
<path d="M36.229 31.3144C36.1212 31.2668 35.9918 31.3231 35.9486 31.4313C35.9012 31.5395 35.9573 31.6694 36.0651 31.7126C36.1729 31.7559 36.3023 31.704 36.3454 31.5958C36.3886 31.4832 36.3368 31.3577 36.229 31.3144Z" fill="black"/>
<path d="M38.6537 36.6168L36.1995 35.803L34.9746 35.6299L36.1219 36.0887L38.6537 36.6168Z" fill="black"/>
<path d="M37.2477 31.903C37.1528 31.8294 37.0191 31.8467 36.9458 31.942C36.8725 32.0372 36.8897 32.1714 36.9846 32.245C37.0795 32.3185 37.2132 32.3012 37.2865 32.206C37.3599 32.1108 37.3426 31.9766 37.2477 31.903Z" fill="black"/>
<path d="M38.2273 37.6598L36.0664 36.2357L34.9277 35.7466L35.9154 36.4911L38.2273 37.6598Z" fill="black"/>
<path d="M38.0834 32.7427C38.0101 32.6475 37.8764 32.6302 37.7815 32.7038C37.6866 32.7774 37.6694 32.9115 37.7427 33.0068C37.816 33.102 37.9497 33.1193 38.0446 33.0457C38.1352 32.9721 38.1567 32.8336 38.0834 32.7427Z" fill="black"/>
<path d="M37.541 38.5516L35.8201 36.6167L34.8496 35.8506L35.613 36.8245L37.541 38.5516Z" fill="black"/>
<path d="M38.6755 33.7643C38.6281 33.6561 38.503 33.5998 38.3952 33.6474C38.2873 33.695 38.2313 33.8206 38.2787 33.9288C38.3262 34.037 38.4512 34.0889 38.5591 34.0456C38.6669 34.0024 38.7187 33.8768 38.6755 33.7643Z" fill="black"/>
<path d="M36.6525 39.24L35.488 36.9199L34.7461 35.9287L35.2335 37.0714L36.6525 39.24Z" fill="black"/>
<path d="M38.9772 34.9072C38.9599 34.7903 38.8521 34.7081 38.7356 34.7211C38.6192 34.7384 38.5372 34.8466 38.5502 34.9635C38.5674 35.0803 38.6753 35.1626 38.7917 35.1496C38.9125 35.1366 38.9944 35.0284 38.9772 34.9072Z" fill="black"/>
<path d="M35.6127 39.6683L35.0865 37.1318L34.625 35.9761L34.8018 37.2054L35.6127 39.6683Z" fill="black"/>
</svg>
