<svg width="92" height="70" viewBox="0 0 92 70" fill="none" xmlns="http://www.w3.org/2000/svg">
<g clip-path="url(#clip0_563_244)">
<path d="M63.9572 45.8019C63.9572 45.8019 62.8047 45.2236 61.8918 47.9458C60.9789 50.668 62.2594 65.415 62.2594 65.415L67.9021 65.2043L69.8684 49.2718L63.9572 45.8019Z" fill="#FFC9B0"/>
<path d="M62.2633 65.8283C62.1598 65.8287 62.06 65.7903 61.9836 65.7207C61.9071 65.6511 61.8595 65.5553 61.8502 65.4523C61.7965 64.8451 60.582 50.5814 61.5032 47.8179C61.9163 46.5208 62.4946 45.7236 63.1555 45.4427C63.3084 45.3752 63.4737 45.3403 63.6409 45.3403C63.808 45.3403 63.9733 45.3752 64.1263 45.4427H64.151L70.0705 48.9126C70.1406 48.9542 70.1969 49.0156 70.2322 49.0891C70.2675 49.1626 70.2802 49.2449 70.2688 49.3256L68.3025 65.2582C68.2908 65.3555 68.245 65.4455 68.1731 65.5121C68.1012 65.5786 68.008 65.6175 67.9101 65.6217L62.2633 65.8324V65.8283ZM63.6884 46.1532C63.6092 46.1545 63.5314 46.1743 63.4612 46.211C63.2175 46.3267 62.7383 46.7191 62.2922 48.0699C61.6147 50.1105 62.2096 59.7973 62.6433 64.9814L67.5424 64.7955L69.4344 49.4826L63.7751 46.178C63.7477 46.1653 63.7184 46.157 63.6884 46.1532Z" fill="#093F68"/>
<path d="M48.8425 43.4229H45.7939V66.638H48.8425V43.4229Z" fill="#68E1FD"/>
<path d="M48.8425 67.0511H45.7939C45.6844 67.0511 45.5793 67.0076 45.5018 66.9301C45.4244 66.8526 45.3809 66.7476 45.3809 66.638V43.4228C45.3809 43.3133 45.4244 43.2082 45.5018 43.1308C45.5793 43.0533 45.6844 43.0098 45.7939 43.0098H48.8425C48.952 43.0098 49.0571 43.0533 49.1346 43.1308C49.212 43.2082 49.2556 43.3133 49.2556 43.4228V66.638C49.2556 66.7476 49.212 66.8526 49.1346 66.9301C49.0571 67.0076 48.952 67.0511 48.8425 67.0511ZM46.207 66.2249H48.4294V43.8359H46.207V66.2249Z" fill="#093F68"/>
<path d="M44.0299 66.6377H50.6061C50.9293 66.6377 51.2393 66.7661 51.4678 66.9946C51.6963 67.2231 51.8247 67.5331 51.8247 67.8563V69.3971H42.8154V67.8563C42.8154 67.5338 42.9432 67.2245 43.1709 66.9961C43.3985 66.7677 43.7074 66.6388 44.0299 66.6377Z" fill="#68E1FD"/>
<path d="M51.8247 69.8106H42.8154C42.7059 69.8106 42.6008 69.7671 42.5233 69.6897C42.4459 69.6122 42.4023 69.5071 42.4023 69.3976V67.8568C42.4077 67.4264 42.5807 67.0151 42.8847 66.7103C43.1887 66.4056 43.5995 66.2315 44.0299 66.2251H50.6061C51.0372 66.2305 51.4491 66.4041 51.754 66.7089C52.0588 67.0138 52.2325 67.4257 52.2378 67.8568V69.3976C52.2378 69.5071 52.1943 69.6122 52.1168 69.6897C52.0394 69.7671 51.9343 69.8106 51.8247 69.8106ZM43.2285 68.9845H51.4116V67.8568C51.4064 67.6448 51.3199 67.4429 51.1699 67.293C51.02 67.143 50.8181 67.0565 50.6061 67.0513H44.0299C43.9243 67.0513 43.8197 67.0721 43.7222 67.1127C43.6248 67.1532 43.5362 67.2126 43.4618 67.2874C43.3873 67.3623 43.3283 67.4511 43.2883 67.5488C43.2483 67.6465 43.228 67.7512 43.2285 67.8568V68.9845Z" fill="#093F68"/>
<path d="M32.641 24.0451C32.9258 23.7765 33.2696 23.5783 33.6447 23.4664C34.0199 23.3545 34.416 23.332 34.8015 23.4007C35.1852 23.48 35.5407 23.6605 35.8312 23.9234C36.1217 24.1863 36.3367 24.5222 36.4538 24.8961C36.5885 25.5968 36.5358 26.3207 36.3009 26.9945C36.2352 27.376 36.081 27.7368 35.8507 28.0479C35.6318 28.2769 35.3691 28.4595 35.0782 28.5849C33.9988 29.1337 32.8821 29.6057 31.7364 29.9976C31.6404 30.0399 31.5345 30.0542 31.4307 30.0389C31.3256 30.0034 31.2345 29.9354 31.1705 29.8448C30.5178 29.0599 30.2204 27.6679 30.7574 26.7343C30.9929 26.3212 31.3811 25.9701 31.6331 25.5364C31.8955 24.9933 32.235 24.4911 32.641 24.0451Z" fill="#FFC9B0"/>
<path d="M31.5053 30.4561C31.4491 30.464 31.3921 30.464 31.3359 30.4561C31.142 30.4041 30.9715 30.2875 30.8526 30.1257C30.1256 29.2499 29.7497 27.6761 30.39 26.5484C30.5293 26.3163 30.6882 26.0966 30.865 25.8916C31.017 25.7196 31.1551 25.5359 31.2781 25.3422L31.4351 25.0695C31.6758 24.5879 31.9893 24.1462 32.3645 23.7601C32.6977 23.446 33.1002 23.2146 33.5394 23.0848C33.9785 22.9549 34.442 22.9301 34.8925 23.0124C35.3496 23.1076 35.7729 23.3232 36.1186 23.637C36.4643 23.9507 36.7199 24.3512 36.8588 24.7969C37.0145 25.569 36.9632 26.3685 36.7101 27.1143C36.6285 27.5631 36.4448 27.9871 36.1731 28.3535C35.9203 28.6229 35.6153 28.8379 35.2767 28.9856C34.1787 29.543 33.0427 30.022 31.8771 30.419C31.7561 30.4521 31.6304 30.4647 31.5053 30.4561ZM32.9221 24.3301C32.6097 24.6616 32.348 25.0374 32.1456 25.4455L31.9845 25.7264C31.8416 25.9571 31.6814 26.1766 31.5053 26.3831C31.3511 26.5503 31.2128 26.7315 31.0922 26.9243C30.6502 27.7009 30.9311 28.9153 31.4722 29.5639L31.5135 29.6134L31.5838 29.5887C32.7167 29.2046 33.821 28.7408 34.8884 28.2007C35.1295 28.0978 35.3483 27.9491 35.5328 27.7628C35.7173 27.4983 35.8414 27.1966 35.8963 26.8788C36.1073 26.273 36.1613 25.6235 36.0533 24.9911C35.9578 24.6895 35.7833 24.419 35.548 24.2076C35.3126 23.9962 35.025 23.8517 34.7149 23.789C34.394 23.7309 34.0638 23.7496 33.7515 23.8437C33.4391 23.9378 33.1535 24.1045 32.918 24.3301H32.9221Z" fill="#093F68"/>
<path d="M13.4001 26.0156C13.4001 26.0156 22.0046 30.3406 24.0907 29.7334C26.1767 29.1261 30.9272 26.2759 30.9272 26.2759L32.0301 29.9192C32.0301 29.9192 27.6969 34.0501 24.5244 34.5003C21.5419 34.9134 13.1357 31.113 13.1357 31.113L13.4001 26.0156Z" fill="#F56132"/>
<path d="M24.0159 34.9298C20.6121 34.9298 13.2758 31.6251 12.966 31.4764C12.8874 31.4415 12.8217 31.3829 12.778 31.3089C12.7343 31.2348 12.7148 31.149 12.7222 31.0633L12.9866 25.9783C12.9901 25.9102 13.0104 25.8439 13.0457 25.7856C13.081 25.7272 13.1303 25.6784 13.189 25.6437C13.2518 25.6075 13.3231 25.5884 13.3956 25.5884C13.4681 25.5884 13.5393 25.6075 13.6021 25.6437C17.0018 27.3497 22.5742 29.7415 23.987 29.3201C25.9987 28.7253 30.6872 25.9329 30.7326 25.904C30.7865 25.8718 30.847 25.8523 30.9096 25.847C30.9722 25.8418 31.0351 25.8508 31.0937 25.8735C31.1522 25.8962 31.2048 25.932 31.2475 25.978C31.2901 26.0241 31.3217 26.0793 31.3398 26.1394L32.4428 29.7828C32.4636 29.8553 32.4643 29.9321 32.4446 30.0049C32.425 30.0777 32.3857 30.1438 32.3312 30.1959C32.1495 30.3652 27.8658 34.4093 24.5983 34.8802C24.4059 34.913 24.2111 34.9296 24.0159 34.9298ZM13.5608 30.8403C14.9859 31.4682 21.9174 34.4424 24.462 34.0788C27.1099 33.6947 30.7078 30.5511 31.5588 29.7787L30.6872 26.8871C29.4479 27.6141 25.9574 29.601 24.2059 30.1174C22.2768 30.6916 15.8493 27.6761 13.7797 26.664L13.5608 30.8403Z" fill="#093F68"/>
<path d="M9.45921 23.5198L12.7102 23.7474L12.5673 25.788C12.5408 26.1671 12.3647 26.5201 12.0779 26.7693C11.7911 27.0186 11.4171 27.1438 11.038 27.1172L10.6414 27.0895C10.2624 27.0629 9.90939 26.8869 9.66011 26.6001C9.41084 26.3133 9.2857 25.9392 9.31223 25.5602L9.45508 23.5195L9.45921 23.5198Z" fill="#FFC9B0"/>
<path d="M11.2519 27.2175H11.1279L10.7396 27.1927C10.2525 27.1598 9.79829 26.9353 9.47626 26.5684C9.15422 26.2015 8.99061 25.7219 9.02121 25.2347L9.15753 23.1941C9.16495 23.0852 9.21518 22.9836 9.29722 22.9117C9.37927 22.8397 9.48646 22.8031 9.59539 22.8099L12.8381 23.0247C12.8925 23.0281 12.9457 23.0423 12.9946 23.0664C13.0436 23.0905 13.0872 23.1241 13.1231 23.1651C13.194 23.2474 13.2296 23.3542 13.2222 23.4626L13.0901 25.5032C13.0567 25.9682 12.8486 26.4034 12.5077 26.7214C12.1667 27.0394 11.7181 27.2166 11.2519 27.2175ZM9.95477 23.6567L9.84737 25.2842C9.83035 25.553 9.92022 25.8175 10.0974 26.0202C10.2746 26.223 10.5248 26.3474 10.7933 26.3665L11.1816 26.3913C11.451 26.4083 11.7161 26.3179 11.919 26.1398C12.1218 25.9617 12.2459 25.7105 12.2639 25.4412L12.3713 23.8178L9.95477 23.6567Z" fill="#093F68"/>
<path d="M17.5473 6.91073C17.5473 6.91073 18.2495 4.01916 14.8333 2.00745C11.4172 -0.00425506 9.3435 0.565799 9.28566 1.20608C9.22783 1.84635 10.6034 2.49489 10.6034 2.49489C8.21468 2.58251 5.91404 3.41924 4.02714 4.88663C0.722485 7.456 -0.368048 10.0915 1.27188 15.3872C2.14115 17.9567 3.71577 20.2299 5.81578 21.9469C5.81578 21.9469 11.1858 21.823 13.4619 18.2292C15.738 14.6354 17.5473 6.91073 17.5473 6.91073Z" fill="#725858"/>
<path d="M5.79944 22.3556C5.71007 22.3556 5.6231 22.3266 5.5516 22.273C3.38177 20.5067 1.76101 18.158 0.879647 15.5026C-0.710717 10.3804 0.053484 7.41447 3.77122 4.55594C5.40282 3.29726 7.32996 2.47805 9.36847 2.17659C9.2136 2.05709 9.08807 1.9038 9.00145 1.72841C8.91483 1.55301 8.8694 1.36016 8.86864 1.16454C8.89164 1.00463 8.95594 0.853467 9.05518 0.725976C9.15442 0.598484 9.28518 0.499066 9.43456 0.437523C10.3144 -0.0127361 12.3261 0.0244413 15.0401 1.64785C18.6587 3.78348 17.9812 6.84028 17.9316 7.01791C17.8532 7.35251 16.0852 14.821 13.7802 18.4479C11.3884 22.1987 6.02251 22.368 5.79118 22.3721L5.79944 22.3556ZM10.5829 2.90362C8.29013 3.00156 6.08385 3.80673 4.26691 5.20861C1.37534 7.46817 -0.0126107 9.83925 1.66863 15.2589C2.48956 17.6941 3.95917 19.8592 5.91924 21.5212C6.77432 21.4675 11.1365 21.042 13.0821 17.9852C15.3168 14.4782 17.1096 6.88985 17.1261 6.83202C17.1551 6.71636 17.6962 4.20482 14.6063 2.379C12.4872 1.09432 10.8762 0.875389 10.0501 1.08606C9.80633 1.15215 9.7072 1.2389 9.6948 1.26781C9.6948 1.39587 10.1822 1.83374 10.7853 2.11876C10.8701 2.15954 10.9384 2.22803 10.979 2.31291C11.0196 2.39779 11.0299 2.49397 11.0084 2.58554C10.9866 2.67796 10.9336 2.76005 10.8584 2.81798C10.7831 2.87591 10.6902 2.90616 10.5953 2.90362H10.5829Z" fill="#093F68"/>
<path d="M13.1975 24.6274C11.1776 25.0405 9.11629 24.2928 7.45158 23.1734C6.5841 22.5868 5.22507 21.9342 5.38617 20.6949C5.48229 20.1706 5.7065 19.6782 6.03884 19.2615C6.73281 18.2949 7.52593 17.1589 7.8564 15.9982C8.26948 14.5317 7.71182 12.9909 8.36036 11.5204C9.48807 8.97579 12.5283 9.2856 14.8003 8.42639C15.0481 8.33138 17.6258 7.34825 17.5473 6.90625L19.1666 15.0026C20.063 19.4763 17.7456 23.7145 13.1975 24.6274Z" fill="#FFC9B0"/>
<path d="M12.0616 25.148C10.32 25.0878 8.6353 24.5129 7.22033 23.4957C7.10467 23.413 6.97661 23.3346 6.84856 23.2519C5.98522 22.7067 4.78315 21.959 4.97317 20.6371C5.07953 20.0453 5.33071 19.489 5.70432 19.0178C6.42721 18.0141 7.15837 16.9524 7.45992 15.8784C7.6034 15.2615 7.6549 14.6268 7.61276 13.9948C7.53729 13.0972 7.66289 12.194 7.9804 11.3511C8.86852 9.33109 10.7728 8.93453 12.6152 8.55037C13.3073 8.42825 13.9884 8.25004 14.6517 8.01749C15.5288 7.73188 16.3628 7.32743 17.1302 6.81543C17.1302 6.70587 17.1737 6.6008 17.2511 6.52334C17.3286 6.44587 17.4337 6.40234 17.5432 6.40234C17.6528 6.40234 17.7579 6.44587 17.8353 6.52334C17.9128 6.6008 17.9563 6.70587 17.9563 6.81543L19.5756 14.9077C20.0551 17.1048 19.7003 19.4018 18.5801 21.3518C18.0054 22.3025 17.2361 23.1208 16.3227 23.753C15.4093 24.3852 14.3724 24.817 13.2802 25.0199C12.8793 25.1028 12.4711 25.1457 12.0616 25.148ZM17.2913 7.7366C16.5428 8.16274 15.7575 8.5208 14.945 8.80648C14.2414 9.05764 13.519 9.2524 12.7845 9.38892C11.0702 9.74417 9.4551 10.0829 8.73634 11.7104C8.47073 12.4466 8.36922 13.2318 8.43892 14.0113C8.48442 14.7242 8.42316 15.4398 8.25717 16.1345C7.91431 17.3242 7.13771 18.4643 6.37351 19.5301C6.0826 19.8898 5.88407 20.3153 5.7952 20.7693C5.70019 21.5087 6.35286 21.9879 7.29055 22.5786L7.70363 22.8347C9.53359 24.074 11.4627 24.5614 13.1357 24.2227C14.11 24.0413 15.0353 23.6566 15.8509 23.0936C16.6666 22.5306 17.3545 21.8019 17.8696 20.9552C18.8822 19.1821 19.2002 17.0961 18.7618 15.1018L17.2913 7.7366Z" fill="#093F68"/>
<path d="M16.0357 13.9244C16.4577 13.9244 16.7999 13.5823 16.7999 13.1602C16.7999 12.7381 16.4577 12.396 16.0357 12.396C15.6136 12.396 15.2715 12.7381 15.2715 13.1602C15.2715 13.5823 15.6136 13.9244 16.0357 13.9244Z" fill="#093F68"/>
<path d="M18.085 13.1069C18.085 13.1069 20.6791 16.0852 20.1917 16.3166C19.6128 16.5157 19.0147 16.6542 18.4072 16.7297" fill="#FFC9B0"/>
<path d="M18.4066 17.1093C18.297 17.1159 18.1894 17.0787 18.1073 17.0059C18.0251 16.9331 17.9753 16.8306 17.9687 16.7211C17.9622 16.6115 17.9994 16.5038 18.0722 16.4217C18.145 16.3396 18.2475 16.2898 18.357 16.2832C18.8335 16.2276 19.3055 16.1393 19.7698 16.0188C19.1844 15.0763 18.5167 14.1875 17.7746 13.3627C17.7371 13.3221 17.7081 13.2743 17.6894 13.2222C17.6707 13.1702 17.6626 13.1149 17.6657 13.0596C17.6687 13.0044 17.6829 12.9504 17.7072 12.9007C17.7316 12.851 17.7656 12.8067 17.8074 12.7705C17.8492 12.7342 17.8979 12.7067 17.9505 12.6897C18.0031 12.6726 18.0586 12.6662 18.1137 12.671C18.1688 12.6757 18.2224 12.6915 18.2713 12.7174C18.3202 12.7433 18.3634 12.7787 18.3983 12.8216C20.8025 15.5892 20.6868 16.1262 20.6496 16.3121C20.6348 16.3916 20.6012 16.4665 20.5517 16.5305C20.5021 16.5944 20.438 16.6456 20.3646 16.6797C19.7462 16.8894 19.1059 17.028 18.4562 17.0928L18.4066 17.1093Z" fill="#093F68"/>
<path d="M8.63325 14.1889C8.63325 14.1889 6.37782 13.214 5.66732 15.1927C4.95682 17.1713 6.58023 19.972 9.68247 18.4395" fill="#FFC9B0"/>
<path d="M7.98451 19.3028C7.29609 19.3126 6.62878 19.0652 6.11325 18.6088C5.64265 18.1644 5.31158 17.5927 5.16048 16.9633C5.00937 16.3339 5.04475 15.6742 5.26231 15.0646C5.3545 14.7727 5.50744 14.5036 5.71106 14.2751C5.91468 14.0466 6.16437 13.8637 6.44372 13.7386C7.50121 13.2801 8.73219 13.8005 8.78176 13.8212C8.83167 13.8426 8.87686 13.8737 8.91477 13.9126C8.95268 13.9515 8.98255 13.9974 9.00269 14.0479C9.02283 14.0983 9.03284 14.1522 9.03214 14.2065C9.03144 14.2609 9.02005 14.3145 8.99863 14.3644C8.9772 14.4143 8.94615 14.4595 8.90726 14.4974C8.86836 14.5353 8.82238 14.5652 8.77194 14.5853C8.7215 14.6055 8.66758 14.6155 8.61328 14.6148C8.55897 14.6141 8.50533 14.6027 8.45542 14.5813C7.91937 14.3565 7.32135 14.3272 6.76592 14.4987C6.59402 14.5777 6.44075 14.6921 6.31617 14.8345C6.19159 14.9768 6.09851 15.1439 6.04303 15.3248C5.88259 15.7786 5.85569 16.2689 5.96552 16.7375C6.07535 17.2061 6.31729 17.6333 6.66265 17.9685C7.35663 18.5882 8.35628 18.6212 9.484 18.0635C9.58206 18.0148 9.69544 18.0071 9.79923 18.0419C9.90303 18.0768 9.98874 18.1514 10.0375 18.2494C10.0862 18.3475 10.094 18.4609 10.0591 18.5647C10.0243 18.6685 9.94965 18.7542 9.85164 18.803C9.27558 19.1099 8.63688 19.2809 7.98451 19.3028Z" fill="#093F68"/>
<path d="M13.1362 12.5782C12.9171 12.5919 12.7016 12.518 12.5369 12.3727C12.3723 12.2275 12.2721 12.0228 12.2584 11.8037C12.2448 11.5845 12.3187 11.369 12.4639 11.2043C12.6092 11.0397 12.8139 10.9396 13.033 10.9259L16.4202 10.5128C16.5287 10.4992 16.6388 10.5072 16.7443 10.5361C16.8497 10.5651 16.9484 10.6146 17.0347 10.6817C17.121 10.7489 17.1932 10.8323 17.2473 10.9274C17.3013 11.0224 17.3361 11.1272 17.3497 11.2357C17.3632 11.3442 17.3553 11.4543 17.3263 11.5597C17.2973 11.6651 17.2478 11.7638 17.1807 11.8501C17.1136 11.9364 17.0301 12.0086 16.9351 12.0627C16.84 12.1167 16.7353 12.1515 16.6268 12.1651L13.2395 12.5782H13.1362Z" fill="#093F68"/>
<path d="M15.8992 21.1576C15.6969 21.1577 15.4956 21.1313 15.3002 21.0791C14.9144 20.9527 14.5638 20.7373 14.2768 20.4502C13.9897 20.1632 13.7743 19.8126 13.6479 19.4268C13.6052 19.326 13.6043 19.2124 13.6454 19.1109C13.6864 19.0095 13.7661 18.9285 13.8668 18.8857C13.9676 18.843 14.0812 18.8421 14.1827 18.8832C14.2841 18.9242 14.3652 19.0039 14.4079 19.1046C14.4914 19.3694 14.6346 19.6115 14.8266 19.812C15.0185 20.0126 15.2541 20.1663 15.515 20.2612C16.3742 20.4967 17.3491 19.8068 17.3573 19.7986C17.4007 19.7625 17.451 19.7356 17.5051 19.7197C17.5592 19.7037 17.616 19.699 17.672 19.7059C17.728 19.7127 17.782 19.731 17.8306 19.7595C17.8793 19.788 17.9216 19.8262 17.955 19.8717C17.9883 19.9172 18.012 19.9691 18.0245 20.0241C18.0371 20.0791 18.0382 20.1361 18.0279 20.1915C18.0176 20.247 17.996 20.2997 17.9645 20.3465C17.933 20.3933 17.8923 20.4332 17.8448 20.4636C17.2763 20.877 16.6009 21.1179 15.8992 21.1576Z" fill="#093F68"/>
<path d="M17.6842 44.8064L4.05251 45.8019L3.09003 31.2821C3.01257 29.6706 3.57827 28.0943 4.66276 26.8999C5.74724 25.7054 7.26172 24.9905 8.87317 24.9124L10.3231 24.8422C11.1211 24.8033 11.919 24.922 12.6712 25.1917C13.4233 25.4613 14.1149 25.8765 14.7065 26.4136C15.2981 26.9507 15.778 27.5991 16.1188 28.3218C16.4596 29.0445 16.6547 29.8272 16.6928 30.6253L17.6842 44.8064Z" fill="#F56132"/>
<path d="M4.05247 46.2151C3.94775 46.2153 3.84683 46.1758 3.77014 46.1045C3.69346 46.0332 3.64672 45.9354 3.63939 45.8309L2.67691 31.2822C2.63465 30.4299 2.76081 29.5776 3.04817 28.774C3.33553 27.9705 3.77845 27.2315 4.35161 26.5992C4.92477 25.967 5.61693 25.4539 6.38851 25.0894C7.1601 24.7248 7.99597 24.5159 8.84835 24.4746L10.3024 24.4003C12.0218 24.3194 13.7031 24.9236 14.9777 26.0805C16.2523 27.2374 17.0161 28.8525 17.1017 30.5717L18.0972 44.7693C18.1012 44.8236 18.0943 44.8781 18.0771 44.9297C18.0599 44.9813 18.0327 45.0291 17.997 45.0701C17.9613 45.1112 17.9179 45.1448 17.8691 45.169C17.8204 45.1933 17.7674 45.2076 17.7131 45.2113L4.08139 46.2068L4.05247 46.2151ZM10.6205 25.2305H10.3396L8.88966 25.3008C7.39033 25.3777 5.98279 26.0464 4.97599 27.1601C3.96919 28.2738 3.4454 29.7414 3.5196 31.2409L4.45316 45.3559L17.2587 44.4182L16.2962 30.6254C16.2241 29.1693 15.5944 27.7968 14.5377 26.7924C13.481 25.788 12.0783 25.2288 10.6205 25.2305Z" fill="#093F68"/>
<path d="M4.74609 46.5417C4.74609 46.5417 5.24179 51.3046 9.16193 51.7176C12.3303 52.0522 21.2817 52.044 24.6029 52.0275C24.9403 52.0257 25.2657 52.1531 25.5122 52.3835C25.7587 52.614 25.9078 52.9299 25.9289 53.2667L26.5733 65.2048L32.2201 65.4154C32.2201 65.4154 33.3313 47.1407 32.0921 45.6949C30.8528 44.2491 18.1588 43.8608 18.1588 43.8608L4.74609 46.5417Z" fill="#093F68"/>
<path d="M32.2078 65.8281L26.5651 65.6175C26.4555 65.6175 26.3505 65.5739 26.273 65.4965C26.1955 65.419 26.152 65.3139 26.152 65.2044L25.52 53.2829C25.5073 53.0501 25.4062 52.8311 25.2372 52.6706C25.0682 52.51 24.8443 52.4202 24.6112 52.4195C21.005 52.4195 12.2766 52.4402 9.12065 52.1097C7.37332 51.9238 5.98537 50.8952 5.11789 49.1355C4.71901 48.3272 4.45395 47.4594 4.33304 46.5661C4.33177 46.4671 4.3661 46.371 4.42979 46.2951C4.49348 46.2193 4.58228 46.1689 4.68003 46.1531L18.0845 43.4722H18.1754C20.3276 43.5383 31.1172 43.939 32.4102 45.4508C33.7031 46.9627 32.8233 62.3872 32.6374 65.4646C32.625 65.5683 32.5738 65.6634 32.4941 65.7309C32.4144 65.7983 32.3121 65.8331 32.2078 65.8281ZM26.9534 64.8037L31.8195 64.9896C32.34 56.1992 32.4639 46.7768 31.7658 45.963C30.9933 45.0625 23.3761 44.4347 18.1837 44.2777L5.2129 46.8677C5.41118 47.9458 6.23734 50.9985 9.20327 51.3083C12.322 51.6347 21.0091 51.6305 24.6029 51.614C25.0484 51.6146 25.4766 51.7864 25.7988 52.094C26.121 52.4016 26.3125 52.8214 26.3338 53.2663L26.9534 64.8037Z" fill="#093F68"/>
<path d="M26.5605 65.2046V69.3974H36.239L32.2074 65.4153L26.5605 65.2046Z" fill="#F56132"/>
<path d="M36.2393 69.8102H26.5732C26.4637 69.8102 26.3586 69.7667 26.2811 69.6892C26.2037 69.6118 26.1602 69.5067 26.1602 69.3971V65.2044C26.1604 65.1487 26.1718 65.0937 26.1938 65.0426C26.2158 64.9915 26.2479 64.9453 26.2882 64.9069C26.3281 64.8684 26.3754 64.8383 26.4272 64.8184C26.479 64.7985 26.5343 64.7893 26.5898 64.7913L32.2366 65.0019C32.3392 65.0066 32.4364 65.0493 32.5092 65.1217L36.5409 69.1038C36.5996 69.161 36.64 69.2343 36.6569 69.3145C36.6738 69.3947 36.6665 69.4781 36.6359 69.5541C36.6039 69.6322 36.5487 69.6986 36.4778 69.7444C36.4069 69.7902 36.3237 69.8132 36.2393 69.8102ZM26.9739 68.9841H35.2356L32.0342 65.824L26.9863 65.6298L26.9739 68.9841Z" fill="#093F68"/>
<path d="M10.3354 55.877H7.39844V69.3971H10.3354V55.877Z" fill="#68E1FD"/>
<path d="M10.3313 69.8102H7.39843C7.28888 69.8102 7.18381 69.7667 7.10634 69.6892C7.02887 69.6117 6.98535 69.5067 6.98535 69.3971V55.8769C6.98535 55.7674 7.02887 55.6623 7.10634 55.5849C7.18381 55.5074 7.28888 55.4639 7.39843 55.4639H10.3313C10.4409 55.4639 10.5459 55.5074 10.6234 55.5849C10.7009 55.6623 10.7444 55.7674 10.7444 55.8769V69.3971C10.7444 69.5067 10.7009 69.6117 10.6234 69.6892C10.5459 69.7667 10.4409 69.8102 10.3313 69.8102ZM7.81151 68.984H9.91823V56.29H7.81151V68.984Z" fill="#093F68"/>
<path d="M22.1538 55.877H19.2168V69.3971H22.1538V55.877Z" fill="#68E1FD"/>
<path d="M22.1538 69.8102H19.2168C19.1072 69.8102 19.0022 69.7667 18.9247 69.6892C18.8472 69.6117 18.8037 69.5067 18.8037 69.3971V55.8769C18.8037 55.7674 18.8472 55.6623 18.9247 55.5849C19.0022 55.5074 19.1072 55.4639 19.2168 55.4639H22.1538C22.2634 55.4639 22.3684 55.5074 22.4459 55.5849C22.5234 55.6623 22.5669 55.7674 22.5669 55.8769V69.3971C22.5669 69.5067 22.5234 69.6117 22.4459 69.6892C22.3684 69.7667 22.2634 69.8102 22.1538 69.8102ZM19.6299 68.984H21.7407V56.29H19.6299V68.984Z" fill="#093F68"/>
<path d="M91.3903 69.8105H1.84668C1.73712 69.8105 1.63205 69.767 1.55458 69.6895C1.47711 69.6121 1.43359 69.507 1.43359 69.3975C1.43359 69.2879 1.47711 69.1828 1.55458 69.1054C1.63205 69.0279 1.73712 68.9844 1.84668 68.9844H91.3903C91.4999 68.9844 91.6049 69.0279 91.6824 69.1054C91.7599 69.1828 91.8034 69.2879 91.8034 69.3975C91.8034 69.507 91.7599 69.6121 91.6824 69.6895C91.6049 69.767 91.4999 69.8105 91.3903 69.8105Z" fill="#093F68"/>
<path d="M10.9336 31.4146C11.5767 34.6115 12.3847 37.773 13.3543 40.8865L22.3181 41.4813L22.9006 45.4139C22.7973 45.48 21.4754 46.0252 17.7908 46.5416C8.0627 47.9048 7.76114 45.9798 5.16699 32.5299" fill="#F56132"/>
<path d="M13.6644 47.3055C7.59624 47.3055 6.93531 43.8687 4.8162 32.8931L4.75837 32.6081C4.73755 32.4985 4.76111 32.3852 4.82386 32.293C4.88661 32.2008 4.98341 32.1373 5.09296 32.1165C5.20252 32.0957 5.31586 32.1193 5.40804 32.182C5.50023 32.2447 5.56372 32.3415 5.58453 32.4511L5.63823 32.7403C8.2076 46.0373 8.4761 47.4294 17.7456 46.1324C19.3378 45.9497 20.9099 45.622 22.4424 45.1534L21.955 41.8487L13.3257 41.2787C13.2429 41.2736 13.1635 41.2436 13.0979 41.1928C13.0323 41.142 12.9836 41.0726 12.958 40.9936C11.983 37.864 11.1709 34.6859 10.525 31.4721C10.5042 31.3625 10.5277 31.2492 10.5905 31.157C10.6532 31.0648 10.75 31.0014 10.8596 30.9805C10.9691 30.9597 11.0825 30.9833 11.1747 31.046C11.2668 31.1088 11.3303 31.2056 11.3511 31.3151C12.136 35.3799 13.3505 39.4157 13.6768 40.4731L22.3515 41.0473C22.4454 41.0538 22.5342 41.0922 22.6033 41.156C22.6724 41.2199 22.7176 41.3054 22.7315 41.3984L23.314 45.331C23.3262 45.4109 23.3147 45.4926 23.2809 45.566C23.2471 45.6394 23.1926 45.7013 23.124 45.7441C22.8844 45.8928 21.4014 46.4339 17.853 46.9296C16.4669 47.1491 15.0675 47.2747 13.6644 47.3055Z" fill="#093F68"/>
<path d="M22.3066 41.6095C22.3066 41.6095 25.1239 40.9362 26.8505 41.6549C28.5772 42.3737 30.0726 44.753 29.1762 44.8522C28.2798 44.9513 26.2185 44.1788 25.7807 44.3358C25.3428 44.4928 22.9221 44.8604 22.9221 44.8604L22.3066 41.6095Z" fill="#FFC9B0"/>
<path d="M22.9012 45.2653C22.8034 45.2669 22.7082 45.2337 22.6326 45.1717C22.5569 45.1096 22.5057 45.0228 22.4881 44.9265L21.8933 41.6756C21.8746 41.5718 21.8962 41.4648 21.9538 41.3765C22.0114 41.2882 22.1006 41.2252 22.2031 41.2005C22.3229 41.1716 25.1732 40.5024 26.9825 41.2666C28.4159 41.8697 29.9567 43.708 29.8162 44.6622C29.7965 44.8176 29.7237 44.9613 29.6099 45.069C29.4962 45.1767 29.3487 45.2417 29.1924 45.2529C28.4829 45.2539 27.7771 45.1494 27.0981 44.9431C26.6934 44.8282 26.2783 44.7535 25.8589 44.72C25.4128 44.8811 23.1945 45.224 22.9425 45.2611L22.9012 45.2653ZM25.9208 43.8938C26.3866 43.9297 26.8474 44.0128 27.2964 44.1417C27.8517 44.3004 28.4221 44.4001 28.9983 44.4391C28.5395 43.3793 27.7117 42.5221 26.6685 42.0267C25.4623 41.5186 23.5869 41.7789 22.7856 41.9276L23.2358 44.3813C24.1529 44.2367 25.3632 44.0302 25.6193 43.9393C25.7161 43.9055 25.8184 43.8901 25.9208 43.8938Z" fill="#093F68"/>
<path d="M22.7646 51.7837H6.63373C6.02916 51.7837 5.53906 52.2738 5.53906 52.8784V54.7827C5.53906 55.3872 6.02916 55.8773 6.63373 55.8773H22.7646C23.3691 55.8773 23.8592 55.3872 23.8592 54.7827V52.8784C23.8592 52.2738 23.3691 51.7837 22.7646 51.7837Z" fill="#68E1FD"/>
<path d="M22.7605 56.2904H6.65033C6.25045 56.2904 5.86695 56.1316 5.58419 55.8488C5.30144 55.566 5.14258 55.1825 5.14258 54.7827V52.8825C5.14204 52.6841 5.18064 52.4876 5.25617 52.3042C5.33169 52.1208 5.44267 51.9541 5.58273 51.8137C5.72279 51.6732 5.88919 51.5618 6.07239 51.4858C6.25558 51.4097 6.45198 51.3706 6.65033 51.3706H22.7605C23.1608 51.3717 23.5443 51.5315 23.8269 51.8149C24.1095 52.0983 24.2683 52.4822 24.2683 52.8825V54.7827C24.2672 55.1822 24.108 55.5651 23.8254 55.8476C23.5429 56.1301 23.1601 56.2893 22.7605 56.2904ZM6.65033 52.1968C6.56047 52.1968 6.4715 52.2145 6.38854 52.249C6.30558 52.2836 6.23026 52.3341 6.16691 52.3979C6.10357 52.4616 6.05345 52.5372 6.01944 52.6204C5.98543 52.7036 5.9682 52.7926 5.96875 52.8825V54.7827C5.96875 54.8722 5.98637 54.9608 6.02063 55.0435C6.05488 55.1262 6.10508 55.2013 6.16838 55.2646C6.23167 55.3279 6.30681 55.3781 6.3895 55.4124C6.47219 55.4466 6.56082 55.4642 6.65033 55.4642H22.7605C22.85 55.4642 22.9386 55.4466 23.0213 55.4124C23.104 55.3781 23.1792 55.3279 23.2425 55.2646C23.3057 55.2013 23.356 55.1262 23.3902 55.0435C23.4245 54.9608 23.4421 54.8722 23.4421 54.7827V52.8825C23.4426 52.7926 23.4254 52.7036 23.3914 52.6204C23.3574 52.5372 23.3073 52.4616 23.2439 52.3979C23.1806 52.3341 23.1053 52.2836 23.0223 52.249C22.9393 52.2145 22.8504 52.1968 22.7605 52.1968H6.65033Z" fill="#093F68"/>
<path d="M82.7858 24.479C82.7858 24.479 76.0484 31.8153 75.4288 31.1379C74.8092 30.4604 74.0409 25.0573 74.0409 25.0573L70.7775 26.0818C70.7775 26.0818 69.2326 36.6443 73.9913 37.6976C78.75 38.751 84.8016 31.0883 84.8016 31.0883L82.7858 24.479Z" fill="#70CC40"/>
<path d="M74.9038 38.2098C74.5606 38.2097 74.2185 38.1723 73.8834 38.0983C68.8108 36.9747 70.2855 26.4701 70.3516 26.0239C70.3628 25.947 70.3955 25.8748 70.4459 25.8156C70.4963 25.7564 70.5624 25.7126 70.6366 25.6893L73.9 24.6649C73.9571 24.6469 74.0173 24.6416 74.0767 24.6492C74.1361 24.6568 74.193 24.6772 74.2437 24.7091C74.2944 24.7409 74.3376 24.7833 74.3702 24.8335C74.4029 24.8836 74.4242 24.9403 74.4328 24.9995C74.7674 27.3375 75.3003 30.0391 75.639 30.7289C76.5272 30.3159 79.7203 27.1847 82.4631 24.1981C82.5139 24.1414 82.5793 24.0998 82.6522 24.078C82.7251 24.0561 82.8026 24.0548 82.8762 24.0742C82.9474 24.0899 83.0132 24.1241 83.0669 24.1735C83.1206 24.2228 83.1603 24.2855 83.1819 24.3551L85.1978 30.9644C85.2179 31.0287 85.2221 31.0969 85.2098 31.1631C85.1976 31.2294 85.1693 31.2916 85.1275 31.3444C84.8879 31.6418 79.6418 38.2098 74.9038 38.2098ZM71.1365 26.3998C70.9464 27.9819 70.1244 36.4212 74.0611 37.2928C78.1382 38.1974 83.4174 32.0921 84.3261 30.9974L82.5829 25.2845C80.4969 27.5317 76.5809 31.5923 75.5275 31.5923C75.4502 31.5925 75.3736 31.5768 75.3026 31.5462C75.2315 31.5157 75.1675 31.4709 75.1144 31.4147C74.5279 30.7702 73.9413 27.2467 73.6934 25.5985L71.1365 26.3998Z" fill="#093F68"/>
<path d="M83.7048 26.7833L83.3297 26.8081C82.9515 26.8331 82.5788 26.7068 82.2937 26.457C82.0086 26.2072 81.8343 25.8544 81.8094 25.4762L81.6748 23.44L84.9187 23.2257L85.0532 25.2618C85.0782 25.6401 84.9519 26.0128 84.7021 26.2979C84.4524 26.583 84.0996 26.7572 83.7213 26.7822L83.7048 26.7833Z" fill="#FFC9B0"/>
<path d="M83.2233 27.2175C82.7561 27.2175 82.3063 27.04 81.9651 26.721C81.6238 26.4019 81.4165 25.9652 81.385 25.4991L81.2487 23.4584C81.2425 23.3495 81.2796 23.2426 81.352 23.161C81.4235 23.079 81.5244 23.0286 81.6329 23.0206L84.8756 22.8058C84.9299 22.8018 84.9844 22.8087 85.036 22.8259C85.0876 22.8431 85.1353 22.8703 85.1764 22.906C85.2175 22.9417 85.2511 22.9852 85.2753 23.0339C85.2995 23.0826 85.3139 23.1356 85.3176 23.1899L85.4498 25.2306C85.466 25.4721 85.4344 25.7144 85.3568 25.9437C85.2791 26.1729 85.1569 26.3846 84.9973 26.5665C84.8376 26.7484 84.6436 26.897 84.4263 27.0038C84.2091 27.1105 83.9729 27.1733 83.7313 27.1886L83.3472 27.2133L83.2233 27.2175ZM82.0997 23.8178L82.2071 25.4412C82.2155 25.5748 82.2502 25.7053 82.3092 25.8254C82.3682 25.9455 82.4503 26.0528 82.5508 26.1411C82.6514 26.2294 82.7684 26.2969 82.8951 26.3398C83.0219 26.3828 83.1558 26.4003 83.2893 26.3913L83.6776 26.3665C83.9465 26.3474 84.1971 26.2231 84.3749 26.0205C84.5528 25.8179 84.6436 25.5534 84.6277 25.2843L84.5203 23.6567L82.0997 23.8178Z" fill="#093F68"/>
<path d="M81.2774 24.6274C83.2973 25.0405 85.3586 24.2928 87.0233 23.1734C87.8908 22.5868 89.2457 21.9342 89.0887 20.6949C88.9926 20.1706 88.7684 19.6782 88.4361 19.2615C87.738 18.2949 86.949 17.1589 86.6144 15.9982C86.2013 14.5317 86.759 12.9909 86.1146 11.5204C85.0158 9.04188 81.4674 8.80229 79.1293 8.60401C78.5561 8.52092 77.9726 8.54191 77.4068 8.66598C75.9817 9.07906 76.1469 10.7768 75.9073 11.9706L75.3166 15.0026C74.412 19.4763 76.7252 23.7145 81.2774 24.6274Z" fill="#FFC9B0"/>
<path d="M82.4095 25.148C82.0019 25.1492 81.5951 25.1105 81.1951 25.0324C80.1032 24.8299 79.0666 24.3988 78.1532 23.7673C77.2398 23.1358 76.4703 22.3183 75.8952 21.3683C74.7764 19.4178 74.4231 17.1209 74.9038 14.9243L75.5028 11.9212C75.5524 11.6816 75.5813 11.4213 75.6143 11.1404C75.7424 10.0458 75.9035 8.68673 77.2914 8.29017C77.9052 8.14988 78.5394 8.12328 79.1627 8.21169H79.3858C81.7527 8.40997 85.33 8.71152 86.4908 11.3552C86.8083 12.1982 86.9339 13.1013 86.8584 13.999C86.8183 14.6309 86.8698 15.2654 87.0112 15.8826C87.3169 16.9484 88.0481 18.0182 88.771 19.022C89.1433 19.4935 89.393 20.0498 89.498 20.6413C89.6674 21.9632 88.4859 22.7067 87.6267 23.2561C87.4946 23.3387 87.3706 23.4172 87.255 23.4998C85.838 24.5157 84.152 25.0892 82.4095 25.148ZM78.2952 8.97589C78.0334 8.9702 77.7721 9.00079 77.5186 9.06677C76.7173 9.29809 76.5768 10.0334 76.4364 11.2231C76.4033 11.5039 76.3661 11.7972 76.3124 12.0492L75.73 15.0854C75.2804 17.0828 75.5927 19.1761 76.6057 20.9552C77.1199 21.8074 77.8094 22.5404 78.6283 23.1059C79.4473 23.6713 80.3771 24.0563 81.3562 24.2351C83.0333 24.5697 84.9624 24.0781 86.7923 22.8472L87.2054 22.5911C88.139 22.0003 88.7958 21.5212 88.7008 20.7818C88.6086 20.328 88.4089 19.903 88.1183 19.5425C87.3541 18.4768 86.5775 17.3367 86.2388 16.147C86.0715 15.4524 86.0088 14.7368 86.0529 14.0237C86.1242 13.2442 86.0227 12.4586 85.7555 11.7229C84.793 9.52942 81.6247 9.26505 79.3362 9.0709H79.1131C78.8281 9.00894 78.5596 8.97589 78.2952 8.97589Z" fill="#093F68"/>
<path d="M76.3863 14.4204C76.3863 14.4204 73.7963 17.3987 74.2837 17.6301C74.8619 17.8317 75.4603 17.9702 76.0683 18.0431" fill="#FFC9B0"/>
<path d="M76.069 18.4354H76.0194C75.3683 18.3706 74.7267 18.2321 74.1069 18.0223C74.0335 17.9882 73.9694 17.937 73.9198 17.873C73.8702 17.8091 73.8367 17.7342 73.8218 17.6547C73.7847 17.4771 73.669 16.9318 76.0773 14.1641C76.1501 14.0853 76.2507 14.0378 76.3579 14.0319C76.4651 14.0259 76.5704 14.062 76.6515 14.1323C76.7326 14.2027 76.7831 14.3018 76.7923 14.4088C76.8016 14.5157 76.7688 14.6221 76.701 14.7053C75.9566 15.5292 75.2875 16.4181 74.7017 17.3614C75.1675 17.4815 75.6409 17.5698 76.1186 17.6258C76.2281 17.6323 76.3306 17.6822 76.4034 17.7643C76.4762 17.8464 76.5135 17.9541 76.5069 18.0636C76.5003 18.1732 76.4505 18.2756 76.3684 18.3485C76.2862 18.4213 76.1786 18.4585 76.069 18.4519V18.4354Z" fill="#093F68"/>
<path d="M85.8422 14.1889C85.8422 14.1889 88.0935 13.214 88.8081 15.1927C89.5228 17.1713 87.8911 19.972 84.793 18.4395" fill="#FFC9B0"/>
<path d="M86.4705 19.3031C85.8197 19.2882 85.181 19.1243 84.6034 18.8239C84.5545 18.8002 84.5108 18.7669 84.4748 18.7262C84.4388 18.6855 84.4111 18.6381 84.3935 18.5866C84.3758 18.5352 84.3685 18.4808 84.3719 18.4265C84.3753 18.3723 84.3894 18.3192 84.4134 18.2704C84.4622 18.1724 84.5479 18.0978 84.6517 18.0629C84.7555 18.0281 84.8689 18.0358 84.9669 18.0845C86.0946 18.6381 87.0984 18.6091 87.7883 17.9895C88.1343 17.6548 88.3771 17.2277 88.4876 16.7591C88.5982 16.2905 88.572 15.7999 88.412 15.3458C88.3556 15.1648 88.2617 14.9977 88.1365 14.8553C88.0112 14.713 87.8574 14.5986 87.685 14.5196C87.1296 14.3482 86.5315 14.3774 85.9955 14.6023C85.8947 14.6455 85.7808 14.647 85.679 14.6063C85.5771 14.5656 85.4956 14.4862 85.4523 14.3854C85.409 14.2846 85.4075 14.1707 85.4482 14.0689C85.4889 13.967 85.5684 13.8855 85.6692 13.8422C85.7229 13.8422 86.9497 13.301 88.0113 13.7596C88.2905 13.8843 88.5399 14.067 88.7429 14.2957C88.9459 14.5243 89.0978 14.7936 89.1886 15.0856C89.4072 15.695 89.4432 16.3551 89.292 16.9847C89.1408 17.6143 88.8092 18.186 88.3377 18.6298C87.8207 19.0788 87.155 19.3188 86.4705 19.3031Z" fill="#093F68"/>
<path d="M81.3391 13.0198H81.2359L77.8445 12.6067C77.7368 12.5929 77.6328 12.558 77.5386 12.5041C77.4444 12.4501 77.3617 12.3781 77.2953 12.2922C77.229 12.2062 77.1802 12.108 77.1518 12.0032C77.1234 11.8984 77.1159 11.7891 77.1299 11.6814C77.1577 11.4647 77.2702 11.2678 77.4429 11.1339C77.6155 10.9999 77.8342 10.9398 78.051 10.9667L81.4424 11.3798C81.6615 11.3935 81.8662 11.4937 82.0115 11.6583C82.1567 11.8229 82.2306 12.0385 82.2169 12.2576C82.2032 12.4767 82.1031 12.6814 81.9385 12.8267C81.7738 12.9719 81.5583 13.0458 81.3391 13.0321V13.0198Z" fill="#093F68"/>
<path d="M80.4968 15.1967C80.4124 15.1969 80.3299 15.1714 80.2605 15.1234C80.1911 15.0754 80.138 15.0072 80.1085 14.9282C79.9144 14.4036 79.6541 14.102 79.336 14.0029C79.1359 13.9744 78.932 13.9868 78.7367 14.0393C78.5415 14.0919 78.3589 14.1834 78.2001 14.3086C78.1129 14.3747 78.0031 14.4036 77.8947 14.3889C77.7863 14.3742 77.6881 14.3171 77.6217 14.2301C77.5564 14.1437 77.5276 14.0352 77.5415 13.9278C77.5554 13.8204 77.6109 13.7227 77.6961 13.6559C77.9567 13.4525 78.2577 13.3072 78.579 13.2295C78.9003 13.1519 79.2344 13.1437 79.5591 13.2056C79.8792 13.3201 80.1669 13.5102 80.3978 13.7598C80.6287 14.0093 80.7958 14.311 80.8851 14.639C80.9043 14.69 80.9131 14.7443 80.9112 14.7987C80.9094 14.8531 80.8967 14.9066 80.8741 14.9561C80.8514 15.0057 80.8192 15.0502 80.7793 15.0873C80.7393 15.1243 80.6925 15.153 80.6414 15.1719C80.5948 15.1878 80.546 15.1962 80.4968 15.1967Z" fill="#093F68"/>
<path d="M76.792 44.8064L90.4237 45.8019L91.382 31.2614C91.4209 30.4634 91.3022 29.6655 91.0325 28.9133C90.7629 28.1612 90.3477 27.4696 89.8106 26.878C89.2735 26.2864 88.6251 25.8065 87.9024 25.4657C87.1797 25.1249 86.397 24.9298 85.5989 24.8917L84.1448 24.8215C82.5333 24.744 80.9571 25.3097 79.7626 26.3942C78.5681 27.4787 77.8532 28.9932 77.7751 30.6046L76.792 44.8064Z" fill="#70CC40"/>
<path d="M90.4236 46.215H90.3947L76.763 45.2195C76.6541 45.2111 76.5529 45.1598 76.4817 45.077C76.4105 44.9942 76.375 44.8865 76.3829 44.7775L77.3743 30.5716C77.461 28.8528 78.2259 27.2385 79.5014 26.083C80.7769 24.9276 82.4588 24.3253 84.1778 24.4085L85.6318 24.4828C87.3499 24.5695 88.9636 25.3339 90.1189 26.6085C91.2743 27.8831 91.877 29.5638 91.795 31.2821L90.8367 45.8309C90.8327 45.8856 90.8179 45.939 90.7931 45.9879C90.7682 46.0369 90.7339 46.0804 90.6921 46.1159C90.6173 46.1799 90.522 46.215 90.4236 46.215ZM77.2298 44.4223L90.0353 45.36L90.9689 31.2367C91.0386 29.7392 90.513 28.2749 89.5069 27.1635C88.5008 26.0522 87.0958 25.384 85.5988 25.3049L84.1447 25.2346C82.646 25.1616 81.1794 25.6859 80.0666 26.6925C78.9539 27.6992 78.2857 29.1061 78.2088 30.6047L77.2298 44.4223Z" fill="#093F68"/>
<path d="M89.7291 46.5417C89.7291 46.5417 89.2334 51.3046 85.3133 51.7176C82.1449 52.0522 73.1935 52.044 69.8681 52.0275C69.1618 52.0275 62.3955 45.6949 62.3955 45.6949C63.6348 44.245 76.3246 43.8608 76.3246 43.8608L89.7291 46.5417Z" fill="#093F68"/>
<path d="M72.5039 52.4488H69.8684C69.1496 52.4488 65.2543 48.9418 62.1107 46.0048C62.0335 45.9317 61.9874 45.8317 61.982 45.7255C61.9766 45.6194 62.0123 45.5152 62.0818 45.4347C63.3748 43.9228 74.1644 43.5221 76.3125 43.4561H76.4075L89.812 46.1535C89.9119 46.1744 90.0005 46.2315 90.0607 46.3139C90.121 46.3963 90.1486 46.4981 90.1383 46.5996C90.0217 47.4941 89.7593 48.3634 89.3617 49.1731C88.4901 50.9328 87.1063 51.9614 85.3548 52.1473C82.8185 52.3993 76.6842 52.4488 72.5039 52.4488ZM69.9304 51.6227C73.5448 51.6227 82.1865 51.6433 85.2887 51.317C88.2547 51.0031 89.0808 47.9545 89.2832 46.8764L76.3125 44.2863C71.562 44.4309 64.7792 44.9679 63.0691 45.7487C66.0474 48.5287 69.319 51.3913 69.9097 51.6144L69.9304 51.6227Z" fill="#093F68"/>
<path d="M67.9107 65.2046V69.3974H58.2363L62.268 65.4153L67.9107 65.2046Z" fill="#70CC40"/>
<path d="M67.9102 69.8102H58.2358C58.1537 69.8107 58.0734 69.7867 58.005 69.7414C57.9367 69.696 57.8834 69.6313 57.8519 69.5555C57.8204 69.4798 57.8122 69.3963 57.8284 69.3159C57.8445 69.2354 57.8843 69.1616 57.9425 69.1038L61.9742 65.1217C62.0491 65.05 62.1473 65.0075 62.2509 65.0019L67.8936 64.7913C67.9491 64.7893 68.0044 64.7985 68.0562 64.8184C68.108 64.8383 68.1553 64.8684 68.1952 64.9069C68.2355 64.9453 68.2676 64.9915 68.2896 65.0426C68.3116 65.0937 68.323 65.1487 68.3232 65.2044V69.3971C68.3232 69.5067 68.2797 69.6118 68.2023 69.6892C68.1248 69.7667 68.0197 69.8102 67.9102 69.8102ZM59.2355 68.9841H67.4971V65.6298L62.441 65.824L59.2355 68.9841Z" fill="#093F68"/>
<path d="M84.1401 69.3975H87.0771V55.8773H84.1401V69.3975Z" fill="#68E1FD"/>
<path d="M87.0776 69.8102H84.1406C84.0311 69.8102 83.926 69.7667 83.8485 69.6892C83.7711 69.6117 83.7275 69.5067 83.7275 69.3971V55.8769C83.7275 55.7674 83.7711 55.6623 83.8485 55.5849C83.926 55.5074 84.0311 55.4639 84.1406 55.4639H87.0776C87.1872 55.4639 87.2923 55.5074 87.3697 55.5849C87.4472 55.6623 87.4907 55.7674 87.4907 55.8769V69.3971C87.4907 69.5067 87.4472 69.6117 87.3697 69.6892C87.2923 69.7667 87.1872 69.8102 87.0776 69.8102ZM84.5537 68.984H86.6646V56.29H84.5537V68.984Z" fill="#093F68"/>
<path d="M72.3218 69.3975H75.2588V55.8773H72.3218V69.3975Z" fill="#68E1FD"/>
<path d="M75.2554 69.8102H72.3184C72.2088 69.8102 72.1037 69.7667 72.0263 69.6892C71.9488 69.6117 71.9053 69.5067 71.9053 69.3971V55.8769C71.9053 55.7674 71.9488 55.6623 72.0263 55.5849C72.1037 55.5074 72.2088 55.4639 72.3184 55.4639H75.2554C75.3649 55.4639 75.47 55.5074 75.5475 55.5849C75.6249 55.6623 75.6685 55.7674 75.6685 55.8769V69.3971C75.6685 69.5067 75.6249 69.6117 75.5475 69.6892C75.47 69.7667 75.3649 69.8102 75.2554 69.8102ZM72.7314 68.984H74.8423V56.29H72.7314V68.984Z" fill="#093F68"/>
<path d="M71.711 55.877H87.8419C88.4464 55.877 88.9365 55.3869 88.9365 54.7823V52.878C88.9365 52.2734 88.4464 51.7833 87.8419 51.7833H71.711C71.1065 51.7833 70.6164 52.2734 70.6164 52.878V54.7823C70.6164 55.3869 71.1065 55.877 71.711 55.877Z" fill="#68E1FD"/>
<path d="M87.8417 56.2904H71.7109C71.3113 56.2893 70.9285 56.1301 70.6459 55.8476C70.3634 55.5651 70.2042 55.1822 70.2031 54.7827V52.8825C70.2031 52.4822 70.3618 52.0983 70.6445 51.8149C70.9271 51.5315 71.3106 51.3717 71.7109 51.3706H87.8417C88.242 51.3717 88.6255 51.5315 88.9081 51.8149C89.1907 52.0983 89.3495 52.4822 89.3494 52.8825V54.7827C89.3484 55.1822 89.1892 55.5651 88.9066 55.8476C88.6241 56.1301 88.2412 56.2893 87.8417 56.2904ZM71.7109 52.1968C71.621 52.1968 71.5321 52.2145 71.4491 52.249C71.3661 52.2836 71.2908 52.3341 71.2275 52.3979C71.1641 52.4616 71.114 52.5372 71.08 52.6204C71.046 52.7036 71.0287 52.7926 71.0293 52.8825V54.7827C71.0293 54.8722 71.0469 54.9608 71.0812 55.0435C71.1154 55.1262 71.1656 55.2013 71.2289 55.2646C71.2922 55.3279 71.3674 55.3781 71.45 55.4124C71.5327 55.4466 71.6214 55.4642 71.7109 55.4642H87.8417C87.9312 55.4642 88.0198 55.4466 88.1025 55.4124C88.1852 55.3781 88.2604 55.3279 88.3237 55.2646C88.3869 55.2013 88.4371 55.1262 88.4714 55.0435C88.5057 54.9608 88.5233 54.8722 88.5233 54.7827V52.8825C88.5238 52.7926 88.5066 52.7036 88.4726 52.6204C88.4386 52.5372 88.3885 52.4616 88.3251 52.3979C88.2618 52.3341 88.1865 52.2836 88.1035 52.249C88.0205 52.2145 87.9316 52.1968 87.8417 52.1968H71.7109Z" fill="#093F68"/>
<path d="M84.7559 26.8664L75.5855 33.835C74.718 32.633 73.9332 25.8667 73.9332 25.8667L70.2154 26.4244C70.2154 26.4244 68.5259 38.317 72.4378 39.1638C78.539 40.4815 84.7311 33.5004 84.7311 33.5004" fill="#70CC40"/>
<path d="M74.0197 39.7383C73.4645 39.7392 72.9108 39.6824 72.3673 39.5689C70.5333 39.1558 69.5584 36.7889 69.4758 32.4846C69.4513 30.4394 69.5714 28.3951 69.8352 26.3668C69.8475 26.2787 69.8879 26.197 69.9504 26.1337C70.013 26.0705 70.0942 26.0291 70.1821 26.0157L73.8999 25.458C73.9548 25.4499 74.0108 25.453 74.0646 25.467C74.1183 25.481 74.1686 25.5058 74.2126 25.5397C74.2566 25.5736 74.2932 25.6161 74.3204 25.6645C74.3476 25.7129 74.3647 25.7663 74.3708 25.8216C74.6434 28.205 75.1969 31.8649 75.7381 33.2116L84.5202 26.5403C84.6076 26.4797 84.7151 26.4551 84.8202 26.4718C84.9253 26.4884 85.0199 26.5449 85.0843 26.6296C85.1488 26.7143 85.178 26.8205 85.1661 26.9263C85.1541 27.032 85.1018 27.129 85.02 27.1971L75.8331 34.1741C75.7893 34.2071 75.7393 34.231 75.6861 34.2445C75.6329 34.258 75.5776 34.2607 75.5233 34.2525C75.4684 34.245 75.4157 34.2264 75.3681 34.198C75.3206 34.1696 75.2792 34.132 75.2465 34.0873C74.4493 32.972 73.7801 27.9448 73.5942 26.3462L70.6159 26.7923C70.1739 30.1961 69.7484 38.1603 72.5615 38.7717C78.3446 40.0109 84.3963 33.3066 84.4541 33.2364C84.527 33.1542 84.6295 33.1043 84.7391 33.0977C84.8487 33.0912 84.9565 33.1284 85.0386 33.2013C85.1208 33.2741 85.1706 33.3766 85.1772 33.4862C85.1838 33.5959 85.1466 33.7036 85.0737 33.7858C83.8905 35.0591 82.5703 36.1979 81.1371 37.1813C78.6462 38.8667 76.2214 39.7383 74.0197 39.7383Z" fill="#093F68"/>
<path d="M60.0038 41.1714H34.6365C34.0137 41.1714 33.5088 41.6763 33.5088 42.2991V43.2657C33.5088 43.8885 34.0137 44.3934 34.6365 44.3934H60.0038C60.6266 44.3934 61.1315 43.8885 61.1315 43.2657V42.2991C61.1315 41.6763 60.6266 41.1714 60.0038 41.1714Z" fill="#68E1FD"/>
<path d="M60.0038 44.8065H34.6365C34.2279 44.8065 33.8359 44.6442 33.547 44.3552C33.258 44.0663 33.0957 43.6743 33.0957 43.2657V42.2991C33.0957 41.8904 33.258 41.4985 33.547 41.2096C33.8359 40.9206 34.2279 40.7583 34.6365 40.7583H60.0038C60.4121 40.7594 60.8034 40.9221 61.0921 41.2108C61.3808 41.4995 61.5435 41.8908 61.5446 42.2991V43.2616C61.5446 43.6706 61.3824 44.0629 61.0936 44.3525C60.8047 44.6422 60.4128 44.8054 60.0038 44.8065ZM34.6365 41.5845C34.447 41.5845 34.2652 41.6598 34.1312 41.7938C33.9972 41.9278 33.9219 42.1096 33.9219 42.2991V43.2616C33.923 43.4508 33.9986 43.6319 34.1324 43.7657C34.2662 43.8995 34.4473 43.9751 34.6365 43.9762H60.0038C60.193 43.9751 60.3742 43.8995 60.5079 43.7657C60.6417 43.6319 60.7174 43.4508 60.7185 43.2616V42.295C60.7185 42.1054 60.6432 41.9237 60.5091 41.7896C60.3751 41.6556 60.1934 41.5803 60.0038 41.5803L34.6365 41.5845Z" fill="#093F68"/>
<path d="M36.2314 27.9776C36.1617 27.9778 36.0932 27.9593 36.0331 27.9239C34.6039 27.1349 33.3564 25.5322 33.1416 24.2062C33.0797 23.9175 33.0848 23.6185 33.1564 23.3321C33.228 23.0457 33.3642 22.7795 33.5547 22.5539C33.7072 22.3731 33.8968 22.2272 34.1106 22.126C34.3244 22.0248 34.5574 21.9707 34.7939 21.9673C35.7316 21.9673 36.4751 22.8389 36.5578 22.938C36.6188 23.0227 36.6456 23.1274 36.6326 23.231C36.6196 23.3346 36.5678 23.4294 36.4878 23.4964C36.4077 23.5634 36.3052 23.5976 36.2009 23.5921C36.0967 23.5866 35.9983 23.5418 35.9258 23.4668C35.6362 23.1118 35.2286 22.8728 34.7774 22.7934C34.6589 22.7988 34.543 22.8297 34.4375 22.8838C34.332 22.938 34.2394 23.0143 34.166 23.1074C34.0574 23.2422 33.9817 23.4006 33.9452 23.5699C33.9086 23.7391 33.9121 23.9146 33.9554 24.0823C34.1412 25.1769 35.2318 26.5608 36.4338 27.2299C36.5286 27.283 36.5987 27.3713 36.6289 27.4757C36.659 27.5801 36.6468 27.6921 36.5949 27.7876C36.5561 27.8482 36.5022 27.8976 36.4384 27.9309C36.3747 27.9642 36.3033 27.9803 36.2314 27.9776Z" fill="#093F68"/>
<path d="M32.0547 24.7844C32.1373 24.5159 32.2241 24.2433 32.3067 23.9583C32.4019 23.5359 32.617 23.1501 32.9263 22.8471C33.1956 22.6595 33.5032 22.534 33.8268 22.4794C34.9504 22.1985 35.4791 23.4584 35.7518 24.3507C35.8122 24.4777 35.8353 24.6193 35.8185 24.759C35.8017 24.8986 35.7456 25.0306 35.6568 25.1397C35.578 25.1965 35.4855 25.231 35.3888 25.2397C35.2922 25.2485 35.195 25.231 35.1074 25.1893C34.9331 25.1049 34.7761 24.9886 34.6447 24.8464L34.2564 24.4746C34.2917 24.8118 34.2435 25.1524 34.1159 25.4665C33.9884 25.7806 33.7856 26.0585 33.5253 26.2757" fill="#FFC9B0"/>
<path d="M33.5258 26.7012C33.4648 26.7008 33.4046 26.6869 33.3496 26.6604C33.2946 26.634 33.2461 26.5957 33.2077 26.5483C33.1729 26.5066 33.1467 26.4584 33.1306 26.4065C33.1145 26.3546 33.1087 26.3001 33.1137 26.246C33.1187 26.1919 33.1343 26.1393 33.1597 26.0912C33.185 26.0432 33.2196 26.0006 33.2614 25.9659C33.4681 25.7927 33.6292 25.5714 33.7308 25.3216C33.8323 25.0717 33.8711 24.8008 33.8438 24.5325C33.8351 24.4487 33.8521 24.3642 33.8927 24.2904C33.9333 24.2165 33.9956 24.1569 34.071 24.1194C34.1467 24.082 34.232 24.0687 34.3154 24.0813C34.3989 24.0939 34.4765 24.1317 34.5378 24.1897L34.9302 24.5614C35.0284 24.6659 35.1428 24.7537 35.269 24.8217C35.3089 24.8369 35.353 24.8369 35.3929 24.8217C35.4161 24.7035 35.4031 24.5812 35.3557 24.4705C34.8105 22.6612 34.1454 22.8182 33.9265 22.8802C33.6612 22.9238 33.408 23.0223 33.1829 23.1693C32.9411 23.4246 32.7752 23.7421 32.7037 24.0864C32.617 24.3549 32.5344 24.6234 32.4518 24.9125C32.4388 24.9674 32.4147 25.0191 32.3809 25.0643C32.3472 25.1095 32.3046 25.1474 32.2557 25.1755C32.2068 25.2036 32.1526 25.2214 32.0966 25.2278C32.0405 25.2342 31.9838 25.229 31.9298 25.2126C31.8758 25.1962 31.8257 25.1689 31.7827 25.1325C31.7397 25.096 31.7046 25.0511 31.6796 25.0005C31.6545 24.95 31.6401 24.8948 31.6373 24.8385C31.6344 24.7821 31.6431 24.7258 31.6628 24.673C31.7454 24.4003 31.828 24.1277 31.9148 23.8468C31.9804 23.3949 32.194 22.9774 32.5221 22.6598C32.8502 22.3421 33.2744 22.1422 33.7282 22.0912C34.8187 21.8186 35.6325 22.5415 36.1488 24.2433C36.3636 24.958 36.0993 25.3174 35.9258 25.4826C35.7896 25.5895 35.6268 25.6571 35.455 25.6782C35.2832 25.6994 35.1089 25.6731 34.9509 25.6024C34.8202 25.5472 34.6989 25.472 34.5915 25.3793C34.4553 25.8647 34.1743 26.297 33.786 26.6186C33.7111 26.6748 33.6194 26.7039 33.5258 26.7012Z" fill="#093F68"/>
<path d="M35.7441 21.1494H42.8657V28.1222C42.8657 28.5013 42.7151 28.8648 42.447 29.1329C42.179 29.4009 41.8155 29.5515 41.4364 29.5515H37.1734C36.7943 29.5515 36.4308 29.4009 36.1628 29.1329C35.8947 28.8648 35.7441 28.5013 35.7441 28.1222V21.1494Z" fill="white"/>
<path d="M41.4447 29.9646H37.1734C36.9315 29.9646 36.6919 29.9169 36.4684 29.8243C36.2448 29.7317 36.0417 29.596 35.8707 29.425C35.6996 29.2539 35.5639 29.0508 35.4713 28.8273C35.3787 28.6037 35.3311 28.3642 35.3311 28.1222V21.1494C35.3311 21.0399 35.3746 20.9348 35.452 20.8573C35.5295 20.7798 35.6346 20.7363 35.7441 20.7363H42.8698C42.9793 20.7363 43.0844 20.7798 43.1619 20.8573C43.2394 20.9348 43.2829 21.0399 43.2829 21.1494V28.1222C43.2818 28.6098 43.0879 29.0771 42.7435 29.4223C42.3991 29.7675 41.9322 29.9624 41.4447 29.9646ZM36.1572 21.5625V28.1222C36.1572 28.3917 36.2643 28.6502 36.4549 28.8408C36.6454 29.0313 36.9039 29.1384 37.1734 29.1384H41.4447C41.7146 29.1384 41.9734 29.0315 42.1647 28.841C42.3559 28.6506 42.4639 28.3921 42.465 28.1222V21.5625H36.1572Z" fill="#093F68"/>
<path d="M57.0382 39.5852C56.965 39.5851 56.8931 39.5655 56.83 39.5285C56.7669 39.4915 56.7147 39.4383 56.6788 39.3745C56.6525 39.3271 56.6358 39.2749 56.6296 39.2209C56.6235 39.167 56.628 39.1124 56.6429 39.0602C56.6579 39.0081 56.683 38.9593 56.7168 38.9169C56.7506 38.8744 56.7924 38.839 56.8399 38.8127C58.0461 38.1435 59.1366 36.7473 59.3184 35.6692C59.3617 35.5008 59.3652 35.3247 59.3286 35.1548C59.2921 34.9849 59.2164 34.8258 59.1077 34.6902C59.0339 34.5978 58.9412 34.5223 58.8357 34.4689C58.7302 34.4154 58.6145 34.3852 58.4964 34.3804C58.0452 34.4567 57.6379 34.6963 57.3521 35.0537C57.2815 35.138 57.1802 35.1909 57.0706 35.2006C56.961 35.2102 56.852 35.176 56.7676 35.1053C56.6833 35.0347 56.6304 34.9334 56.6208 34.8238C56.6111 34.7141 56.6453 34.6052 56.716 34.5208C56.7986 34.4217 57.5422 33.5707 58.4799 33.5542C58.7169 33.5545 58.9509 33.6073 59.1652 33.7087C59.3794 33.8101 59.5686 33.9577 59.7191 34.1408C59.9101 34.366 60.0467 34.6322 60.1183 34.9188C60.1899 35.2053 60.1947 35.5045 60.1322 35.7931C59.9091 37.1274 58.6616 38.7301 57.2406 39.5108C57.1803 39.5519 57.1108 39.5775 57.0382 39.5852Z" fill="#093F68"/>
<path d="M56.0961 41.1714H51.8331C51.4541 41.1714 51.0905 41.0208 50.8225 40.7528C50.5544 40.4847 50.4039 40.1212 50.4039 39.7421V32.7693H57.5254V39.7421C57.5254 40.1212 57.3748 40.4847 57.1068 40.7528C56.8387 41.0208 56.4752 41.1714 56.0961 41.1714Z" fill="white"/>
<path d="M56.0966 41.5847H51.8336C51.5916 41.5847 51.352 41.537 51.1285 41.4444C50.905 41.3519 50.7019 41.2161 50.5308 41.0451C50.3597 40.874 50.224 40.6709 50.1314 40.4474C50.0389 40.2238 49.9912 39.9843 49.9912 39.7423V32.7695C49.9912 32.66 50.0347 32.5549 50.1122 32.4774C50.1897 32.4 50.2947 32.3564 50.4043 32.3564H57.5258C57.6354 32.3564 57.7404 32.4 57.8179 32.4774C57.8954 32.5549 57.9389 32.66 57.9389 32.7695V39.7423C57.9389 40.231 57.7448 40.6996 57.3993 41.0451C57.0538 41.3906 56.5852 41.5847 56.0966 41.5847ZM50.8174 33.1826V39.7423C50.8174 40.0118 50.9244 40.2703 51.115 40.4609C51.3056 40.6515 51.564 40.7585 51.8336 40.7585H56.0966C56.3661 40.7585 56.6245 40.6515 56.8151 40.4609C57.0057 40.2703 57.1127 40.0118 57.1127 39.7423V33.1826H50.8174Z" fill="#093F68"/>
<path d="M45.3352 33.2072C45.1728 32.9496 45.0764 32.6559 45.0543 32.3521C45.0468 32.1982 45.0954 32.0467 45.1912 31.9259C45.2869 31.8051 45.4232 31.7232 45.5748 31.6953C45.7103 31.6999 45.8407 31.7483 45.9464 31.8332C46.0522 31.9181 46.1276 32.0349 46.1614 32.1662C46.2245 32.438 46.2245 32.7206 46.1614 32.9924C46.4577 32.8351 46.7948 32.7717 47.128 32.8106C47.4502 32.8809 47.7311 33.2526 47.5783 33.5501C47.5153 33.6448 47.43 33.7226 47.3299 33.7766C47.2297 33.8307 47.1179 33.8592 47.0041 33.8599C46.777 33.8585 46.5511 33.8934 46.3349 33.9631C46.1457 34.0607 45.9827 34.2024 45.8599 34.3762C45.5176 34.8132 45.1991 35.2682 44.9056 35.7394C44.7074 36.0533 44.4471 36.421 44.0795 36.4044C43.9417 36.3845 43.812 36.3269 43.7049 36.238C43.5977 36.1491 43.5172 36.0323 43.4722 35.9005C43.3235 35.5246 43.4722 35.3965 43.7284 35.0991C44.2571 34.463 44.7941 33.8351 45.3352 33.2072Z" fill="#AD7972"/>
<path d="M44.1085 36.8259H44.063C43.846 36.8019 43.64 36.7176 43.4685 36.5826C43.2969 36.4475 43.1666 36.2671 43.0923 36.0618C43.0097 35.8723 42.9892 35.6615 43.0337 35.4597C43.0782 35.2579 43.1855 35.0753 43.3401 34.9382L43.4145 34.8473C43.9019 34.2442 44.4017 33.6617 44.8437 33.1495C44.7153 32.9016 44.6461 32.6273 44.6413 32.3481C44.6211 32.1039 44.694 31.8611 44.8454 31.6684C44.9968 31.4757 45.2155 31.3474 45.4576 31.3092C45.6997 31.271 45.9472 31.3258 46.1506 31.4626C46.3539 31.5994 46.498 31.808 46.5539 32.0466C46.5901 32.1604 46.611 32.2784 46.6159 32.3977C46.8175 32.3563 47.0255 32.3563 47.2272 32.3977C47.3845 32.435 47.5315 32.507 47.6573 32.6085C47.7831 32.71 47.8846 32.8384 47.9542 32.9843C48.0124 33.0996 48.0426 33.2269 48.0426 33.3561C48.0426 33.4852 48.0124 33.6125 47.9542 33.7278C47.8614 33.8855 47.7302 34.0171 47.5727 34.1103C47.4152 34.2035 47.2366 34.2553 47.0537 34.2607H46.8596C46.7405 34.2605 46.6221 34.2786 46.5085 34.3144C46.3803 34.3954 46.2706 34.5024 46.1863 34.6284C45.855 35.0526 45.5462 35.4938 45.261 35.9502C45.0875 36.2394 44.7487 36.8259 44.1085 36.8259ZM43.8317 35.6569C43.8357 35.6914 43.8455 35.7249 43.8606 35.7561C43.9143 35.8924 44.03 35.9957 44.1002 35.9998C44.253 35.9998 44.4885 35.6445 44.5629 35.5289C44.8636 35.046 45.1904 34.5799 45.5419 34.1327C45.7008 33.8953 45.9185 33.7031 46.1739 33.575C46.3763 33.4937 46.5919 33.4503 46.81 33.4469H46.9711C47.1363 33.4469 47.2107 33.3808 47.219 33.3643C47.203 33.3277 47.1792 33.295 47.1492 33.2686C47.1192 33.2422 47.0838 33.2227 47.0455 33.2115C46.7957 33.1995 46.5474 33.2551 46.3267 33.3726C46.2596 33.4001 46.1864 33.4094 46.1146 33.3997C46.0427 33.3899 45.9747 33.3614 45.9173 33.3171C45.86 33.2727 45.8153 33.214 45.7878 33.1469C45.7603 33.0797 45.751 33.0066 45.7608 32.9347C45.8041 32.7291 45.8041 32.5166 45.7608 32.311C45.7277 32.2036 45.641 32.1292 45.5956 32.1292C45.5501 32.1292 45.4634 32.2407 45.4634 32.3688C45.4907 32.6041 45.5712 32.8301 45.6988 33.0297C45.7374 33.1033 45.753 33.1868 45.7434 33.2694C45.7338 33.3519 45.6996 33.4296 45.6451 33.4924C45.1659 34.0459 44.6 34.7027 44.0506 35.3802L43.968 35.4793C43.9153 35.538 43.8682 35.6017 43.8276 35.6693L43.8317 35.6569Z" fill="#093F68"/>
<path d="M42.4773 35.1407C42.795 35.1467 43.1047 35.0415 43.353 34.8433C43.4414 34.7315 43.5366 34.6253 43.6381 34.5252C43.6921 34.4787 43.761 34.4531 43.8322 34.4531C43.9035 34.4531 43.9724 34.4787 44.0264 34.5252C44.1544 34.6698 44.0264 34.9383 44.1462 35.0746C44.2254 35.0322 44.3143 35.0112 44.4042 35.0137C44.494 35.0161 44.5816 35.042 44.6584 35.0888C44.7352 35.1355 44.7984 35.2014 44.8419 35.2801C44.8853 35.3588 44.9075 35.4474 44.9062 35.5373C45.7902 35.1573 45.6002 35.9917 45.4845 36.5163C45.4478 36.79 45.4354 37.0665 45.4474 37.3425C45.4321 37.9563 45.2509 38.5545 44.923 39.0736C44.5952 39.5927 44.1328 40.0134 43.5851 40.2908C43.0373 40.5683 42.4247 40.6923 41.8121 40.6495C41.1996 40.6068 40.6101 40.399 40.1062 40.0481C38.962 39.2468 39.4412 37.549 40.069 36.5783C40.2955 36.2135 40.5967 35.9009 40.9526 35.661C41.3086 35.4211 41.7114 35.2592 42.1345 35.1862L42.4773 35.1407Z" fill="#F56132"/>
<path d="M42.0681 41.0557C41.2843 41.0587 40.5181 40.8239 39.8705 40.3824C38.4743 39.4075 39.0154 37.4371 39.7218 36.3507C39.9814 35.938 40.3248 35.5842 40.7296 35.3124C41.1345 35.0406 41.5919 34.8568 42.0722 34.7728C42.1672 34.7728 42.2664 34.748 42.3655 34.7397H42.4357C42.6586 34.744 42.8775 34.6806 43.0636 34.558L43.1462 34.4588C43.2143 34.3657 43.2933 34.281 43.3817 34.2068C43.5171 34.0926 43.6908 34.0339 43.8677 34.0423C44.0447 34.0507 44.2119 34.1257 44.3359 34.2523C44.4206 34.3488 44.4752 34.468 44.4929 34.5951C44.6289 34.6137 44.7597 34.6601 44.877 34.7315C45 34.8064 45.1045 34.908 45.1827 35.0289C45.2796 35.0157 45.3781 35.022 45.4725 35.0476C45.5669 35.0731 45.6551 35.1173 45.7321 35.1776C46.1452 35.5039 45.9924 36.1277 45.8932 36.5821C45.8632 36.7552 45.8521 36.9311 45.8602 37.1067V37.3586C45.8271 38.1017 45.5836 38.82 45.1579 39.43C44.7323 40.0399 44.1421 40.5164 43.456 40.8037C43.0133 40.9741 42.5425 41.0596 42.0681 41.0557ZM42.5184 35.5535H42.444L42.192 35.5824C41.8277 35.6485 41.4813 35.7904 41.1753 35.9989C40.8693 36.2074 40.6106 36.4778 40.4158 36.7927C39.9035 37.5776 39.4326 39.0605 40.3455 39.6843C40.7881 39.9914 41.3054 40.1732 41.8428 40.2103C42.3802 40.2474 42.9176 40.1384 43.3982 39.895C43.8787 39.6515 44.2844 39.2827 44.5724 38.8274C44.8604 38.3722 45.0199 37.8476 45.034 37.3091V37.0819C45.0245 36.8522 45.0411 36.6221 45.0836 36.3962C45.1256 36.2152 45.1559 36.0317 45.1745 35.8468L45.0712 35.8839C45.0041 35.913 44.9305 35.9237 44.858 35.915C44.7854 35.9063 44.7164 35.8784 44.6581 35.8344C44.5996 35.7904 44.5539 35.7316 44.5256 35.6641C44.4973 35.5966 44.4874 35.5228 44.497 35.4502C44.4672 35.4134 44.4242 35.3897 44.3772 35.3841C44.2931 35.4409 44.191 35.4647 44.0904 35.451C43.9898 35.4372 43.8978 35.387 43.8319 35.3098C43.7703 35.2347 43.7253 35.1474 43.6998 35.0537L43.6419 35.1156C43.3263 35.3789 42.9293 35.5248 42.5184 35.5287V35.5535Z" fill="#093F68"/>
<path d="M37.3387 37.7884C37.6212 37.2819 38.0277 36.8555 38.5201 36.5491C38.7698 36.4015 39.0607 36.3389 39.349 36.371C39.6374 36.403 39.9075 36.5279 40.1187 36.7267C40.602 36.2062 41.5314 36.355 42.0106 36.8796C42.4554 37.4458 42.6627 38.1627 42.5889 38.8789C42.6013 39.1695 42.5265 39.4573 42.3741 39.705C42.2206 39.8635 42.0352 39.9875 41.83 40.0687C41.6249 40.1499 41.4048 40.1865 41.1844 40.176C40.233 40.2331 39.2784 40.2138 38.3301 40.1181C37.5617 40.052 36.2646 40.1181 35.6368 39.6431C34.5504 38.8169 36.2192 36.9581 37.3387 37.7884Z" fill="white"/>
<path d="M40.2047 40.6264C39.4942 40.6264 38.8291 40.581 38.2797 40.5356C38.1186 40.5356 37.9327 40.5108 37.7345 40.5066C36.9496 40.4736 35.9789 40.4364 35.3716 39.9738C34.7644 39.5111 34.6859 38.6726 35.2188 37.9662C35.4316 37.6564 35.736 37.4209 36.0893 37.2927C36.4427 37.1646 36.8273 37.1502 37.1892 37.2516C37.4766 36.8131 37.8629 36.448 38.3169 36.1858C38.5913 36.0317 38.9007 35.9507 39.2154 35.9507C39.53 35.9507 39.8395 36.0317 40.1138 36.1858C40.3556 36.0453 40.6314 35.9739 40.9111 35.9793C41.172 35.9817 41.4298 36.0368 41.6689 36.1411C41.9081 36.2455 42.1238 36.3969 42.3031 36.5865C42.8262 37.2298 43.0728 38.0543 42.9889 38.8791C43.0004 39.255 42.8966 39.6255 42.6914 39.9407C42.5041 40.1488 42.2736 40.3136 42.0161 40.4234C41.7585 40.5333 41.4801 40.5857 41.2002 40.5769C40.878 40.6182 40.5434 40.6264 40.2047 40.6264ZM36.6976 37.991C36.5341 38.0054 36.3757 38.0549 36.2331 38.1362C36.0905 38.2175 35.9672 38.3286 35.8715 38.4619C35.7723 38.59 35.4873 39.0319 35.8715 39.317C36.2556 39.602 37.1107 39.6557 37.7634 39.6805L38.3499 39.7094C39.2778 39.8011 40.2114 39.8219 41.1424 39.7714C41.4657 39.7889 41.783 39.6791 42.0264 39.4657C42.1254 39.2836 42.1726 39.0779 42.1627 38.8708C42.2358 38.2624 42.0666 37.6496 41.6918 37.1648C41.5904 37.0582 41.4688 36.973 41.334 36.9141C41.1992 36.8552 41.054 36.8239 40.9069 36.822C40.7222 36.8195 40.5435 36.8874 40.4071 37.012C40.3693 37.0566 40.3216 37.0918 40.2678 37.1147C40.214 37.1377 40.1556 37.1477 40.0973 37.1442C40.0393 37.1435 39.9822 37.1307 39.9295 37.1065C39.8768 37.0823 39.8299 37.0473 39.7916 37.0037C39.6424 36.8758 39.4564 36.7985 39.2605 36.7829C39.0645 36.7673 38.8687 36.8143 38.7011 36.917C38.2739 37.194 37.9208 37.5712 37.6725 38.0158C37.6418 38.0631 37.6019 38.1036 37.555 38.1348C37.5081 38.1661 37.4553 38.1874 37.3999 38.1975C37.3436 38.2074 37.286 38.2055 37.2305 38.192C37.1751 38.1785 37.123 38.1537 37.0777 38.119C36.972 38.038 36.8431 37.9931 36.71 37.991H36.6976Z" fill="#093F68"/>
<path d="M44.1293 41.1716H35.5703L33.5049 39.1641H46.1947L44.1293 41.1716Z" fill="#DFEAEF"/>
<path d="M44.1294 41.5847H35.5703C35.5171 41.5853 35.4644 41.575 35.4154 41.5544C35.3663 41.5338 35.3221 41.5033 35.2853 41.4649L33.2199 39.4573C33.1621 39.4001 33.1226 39.327 33.1061 39.2473C33.0897 39.1676 33.0972 39.0849 33.1277 39.0094C33.1581 38.934 33.2101 38.8692 33.2773 38.8232C33.3444 38.7773 33.4236 38.7521 33.5049 38.751H46.1948C46.2763 38.7514 46.3559 38.7759 46.4236 38.8215C46.4912 38.8671 46.5438 38.9316 46.5748 39.0071C46.6054 39.0831 46.6127 39.1665 46.5958 39.2467C46.5789 39.3268 46.5385 39.4002 46.4798 39.4573L44.4144 41.4649C44.3776 41.5033 44.3333 41.5338 44.2843 41.5544C44.2353 41.575 44.1825 41.5853 44.1294 41.5847ZM35.7397 40.7586H43.96L45.1745 39.5771H34.5252L35.7397 40.7586Z" fill="#093F68"/>
<path d="M83.4668 4.68007C84.455 4.76363 85.4137 5.05839 86.2782 5.54442C87.1426 6.03044 87.8926 6.69641 88.4775 7.49728C89.6878 9.20331 90.01 11.3679 90.1794 13.4498C90.6627 19.4188 90.1794 25.487 91.4186 31.3527C91.4807 31.5377 91.4807 31.7378 91.4186 31.9228C91.3404 32.0353 91.2377 32.1287 91.1182 32.196C90.9987 32.2632 90.8656 32.3026 90.7288 32.3111C87.6757 32.9284 84.5589 33.1725 81.4468 33.0381C82.4796 26.689 82.967 20.2615 83.4544 13.8463C83.5164 12.9995 83.5618 12.0742 83.0413 11.3926C82.3061 10.3889 81.5542 10.4178 80.4926 10.3475C80.0795 10.3228 77.915 8.88937 78.1959 8.43498C77.8448 9.0009 77.1467 9.21157 76.5064 9.37681C76.4444 9.37681 76.3577 9.37681 76.337 9.3355C76.333 9.31783 76.333 9.29946 76.337 9.2818C76.8162 6.21673 80.6868 4.43222 83.4668 4.68007Z" fill="#725858"/>
<path d="M83.087 33.4884C82.5363 33.4884 81.9855 33.476 81.4347 33.4512C81.3765 33.4484 81.3196 33.4334 81.2676 33.407C81.2156 33.3807 81.1698 33.3437 81.1332 33.2983C81.0958 33.2535 81.0684 33.2012 81.0527 33.1449C81.0371 33.0887 81.0335 33.0297 81.0423 32.972C82.0709 26.6395 82.5666 20.1211 83.0457 13.8174C83.1118 12.9913 83.1325 12.1651 82.7318 11.6364C82.1617 10.8598 81.6454 10.8102 80.7118 10.773H80.4846C80.0013 10.74 78.6547 9.86424 78.0805 9.19092C77.6381 9.47795 77.1466 9.681 76.6306 9.78989C76.5664 9.81403 76.498 9.82504 76.4294 9.82225C76.3609 9.81946 76.2936 9.80294 76.2316 9.77366C76.1696 9.74438 76.1141 9.70294 76.0684 9.6518C76.0227 9.60066 75.9877 9.54085 75.9655 9.47594C75.9464 9.39583 75.9464 9.31234 75.9655 9.23223C76.4653 5.79539 80.687 4.01914 83.5043 4.26699C84.5523 4.3558 85.569 4.6688 86.4855 5.18479C87.402 5.70078 88.197 6.40771 88.8165 7.25769C90.0805 9.03808 90.4151 11.2728 90.5927 13.4167C90.7704 15.5606 90.8199 17.7954 90.8695 19.931C90.9604 23.6818 91.0513 27.5606 91.8196 31.2701C91.9018 31.5414 91.8902 31.8325 91.7865 32.0963C91.6821 32.2676 91.5393 32.4124 91.3694 32.5192C91.1995 32.626 91.0072 32.6919 90.8075 32.7118C88.2662 33.226 85.6799 33.4862 83.087 33.4884ZM81.9263 32.6415C84.8502 32.7319 87.7748 32.4852 90.6423 31.9063C90.9521 31.8402 91.0223 31.7782 91.0554 31.7493C91.0664 31.644 91.058 31.5376 91.0306 31.4353C90.2416 27.6515 90.1507 23.7396 90.0599 19.9517C90.0103 17.8243 89.9566 15.6267 89.7831 13.4828C89.6179 11.4546 89.308 9.35202 88.1597 7.73687C87.6106 6.98356 86.9059 6.3572 86.0934 5.90033C85.2808 5.44345 84.3795 5.16675 83.4506 5.08902C81.1662 4.89487 77.6674 6.26217 76.8867 8.84806C77.2787 8.75971 77.6277 8.53773 77.874 8.22018C77.9026 8.17399 77.9402 8.13393 77.9844 8.10228C78.0286 8.07063 78.0786 8.04802 78.1315 8.03574C78.1845 8.02346 78.2394 8.02175 78.293 8.03072C78.3466 8.03969 78.3979 8.05915 78.444 8.08799C78.5172 8.13399 78.574 8.20179 78.6067 8.28182C78.6393 8.36185 78.6459 8.45009 78.6258 8.53412C78.8323 8.92655 80.2327 9.8725 80.5631 9.9386H80.7697C81.7528 9.99643 82.6037 10.046 83.4051 11.1324C84.0206 11.9586 83.9339 13.1111 83.8802 13.867C83.3927 20.0467 82.9094 26.4205 81.9263 32.6415Z" fill="#093F68"/>
<path d="M72.5456 18.8899C72.2812 18.9312 72.0168 18.9891 71.7525 19.0469C70.6743 19.3339 69.6617 19.8262 68.77 20.4968C67.6712 21.323 66.9029 22.7274 67.2623 24.0493C67.3067 24.2414 67.3943 24.4208 67.5184 24.5739C67.6582 24.723 67.8307 24.8376 68.0223 24.9085C68.5108 25.0916 69.0292 25.1813 69.5508 25.1729C71.1293 25.1994 72.69 24.8362 74.0947 24.1154C74.9208 23.7023 75.747 23.0744 76.0196 22.1781C76.507 20.5959 74.9126 19.0304 73.3842 18.8734C73.105 18.8442 72.8234 18.8497 72.5456 18.8899Z" fill="#FFBC0E"/>
<path d="M69.7283 25.6026H69.5342C68.96 25.6106 68.3895 25.5096 67.8529 25.3052C67.6035 25.2115 67.3798 25.06 67.2003 24.8632C67.0338 24.6625 66.9151 24.4266 66.8533 24.1733C66.4402 22.5871 67.3779 21.0256 68.5056 20.1788C69.4447 19.4761 70.5107 18.9613 71.645 18.6628C71.897 18.605 72.1779 18.5389 72.4712 18.4976C72.784 18.4477 73.1019 18.438 73.4171 18.4687C73.9432 18.5399 74.4482 18.7218 74.8989 19.0023C75.3496 19.2829 75.7357 19.6557 76.0319 20.0962C76.2552 20.4157 76.4042 20.7811 76.4678 21.1657C76.5314 21.5503 76.5081 21.9442 76.3996 22.3186C76.1352 23.1737 75.4206 23.909 74.2722 24.4997C72.8657 25.2205 71.3087 25.5984 69.7283 25.6026ZM73.0949 19.2783C72.9304 19.2794 72.7662 19.2918 72.6034 19.3155C72.3473 19.3527 72.0829 19.4146 71.8474 19.4683C70.824 19.7391 69.8629 20.2063 69.0178 20.8439C68.1338 21.5007 67.3325 22.7523 67.6588 23.9585C67.6823 24.0951 67.7434 24.2224 67.8354 24.326C67.9274 24.4297 68.0465 24.5055 68.1793 24.5451C68.6206 24.7081 69.0886 24.7866 69.559 24.7764C71.0705 24.8061 72.5655 24.4583 73.9087 23.7644C74.8547 23.2811 75.433 22.711 75.6271 22.0749C75.6991 21.8169 75.7123 21.546 75.6658 21.2823C75.6194 21.0185 75.5144 20.7685 75.3586 20.5506C75.1266 20.2159 74.8276 19.9329 74.4806 19.7196C74.1337 19.5063 73.7462 19.3673 73.3428 19.3114C73.2608 19.296 73.1781 19.285 73.0949 19.2783Z" fill="#093F68"/>
<path d="M73.9458 25.8668C73.9458 25.8668 73.5327 23.281 72.9379 22.2937C72.343 21.3064 71.4549 20.7694 71.2855 21.389C71.1845 21.7385 71.1845 22.1095 71.2855 22.4589C71.2855 22.4589 69.0632 21.9219 68.6914 23.0372C68.3196 24.1526 70.2363 26.4245 70.2363 26.4245L73.9458 25.8668Z" fill="#FFC9B0"/>
<path d="M70.2404 26.8376C70.1797 26.8377 70.1198 26.8244 70.0648 26.7987C70.0098 26.773 69.9612 26.7355 69.9224 26.6889C69.5795 26.2758 67.8817 24.1732 68.3031 22.9051C68.6542 21.8559 70.0008 21.8559 70.7816 21.955C70.7808 21.7274 70.8114 21.5009 70.8724 21.2817C70.9032 21.1375 70.9776 21.0062 71.0855 20.9057C71.1934 20.8052 71.3295 20.7404 71.4755 20.7199C72.1158 20.6331 72.8552 21.3684 73.2724 22.0872C73.8838 23.1281 74.3175 25.6893 74.3341 25.8049C74.3428 25.8589 74.3407 25.9141 74.328 25.9673C74.3152 26.0205 74.292 26.0706 74.2597 26.1147C74.2275 26.159 74.1868 26.1963 74.14 26.2247C74.0932 26.2531 74.0412 26.2719 73.9871 26.28L70.2693 26.8376H70.2404ZM70.1702 22.744C69.6704 22.744 69.1953 22.8431 69.0879 23.1571C68.8979 23.7312 69.7075 25.0862 70.4098 25.9701L73.4666 25.5116C73.2972 24.64 72.9544 23.1323 72.5826 22.492C72.3766 22.0971 72.0611 21.7701 71.6738 21.5502C71.6076 21.8006 71.6076 22.0639 71.6738 22.3144C71.6978 22.3847 71.7025 22.4601 71.6872 22.5328C71.6719 22.6055 71.6373 22.6728 71.5871 22.7275C71.5363 22.7842 71.4709 22.8257 71.398 22.8476C71.3251 22.8695 71.2476 22.8708 71.174 22.8514C70.8442 22.7799 70.5077 22.7439 70.1702 22.744Z" fill="#093F68"/>
<path d="M76.5558 18.6298C76.4949 18.6115 76.4309 18.6057 76.3677 18.6128C76.3045 18.6199 76.2434 18.6397 76.1881 18.6711C76.1179 18.7344 76.0638 18.8135 76.03 18.9018C75.9963 18.9901 75.9839 19.0852 75.994 19.1792C75.9515 19.6716 76.0265 20.1671 76.2129 20.625C76.5558 21.3644 77.9933 22.0666 78.0594 20.8398C78.1048 20.0549 77.3365 18.7909 76.5558 18.6298Z" fill="#093F68"/>
</g>
<defs>
<clipPath id="clip0_563_244">
<rect width="91.9767" height="70" fill="white"/>
</clipPath>
</defs>
</svg>
