<svg width="70" height="70" viewBox="0 0 70 70" fill="none" xmlns="http://www.w3.org/2000/svg">
<circle cx="35" cy="35" r="35" fill="#0693E3" fill-opacity="0.05"/>
<path d="M30.113 26.6103C30.113 26.6103 23.981 26.2603 21.7923 27.399C19.6036 28.5376 9.26541 29.4212 9.26541 29.4212L5.93652 31.5243L6.98808 34.6774L15.5716 37.8305L30.113 26.6103Z" fill="#FEE13E"/>
<path d="M37.6687 29.2521C39.327 29.8292 41.0054 30.4094 42.7554 30.5494C44.5054 30.6894 46.3596 30.3332 47.7114 29.2257C49.0632 28.1181 49.7865 26.1394 49.1114 24.5186C48.1034 25.7101 46.9865 26.9701 45.4652 27.3186C44.367 27.5706 43.2205 27.3046 42.1472 26.9592C38.9054 25.9186 33.5916 22.7203 31.2334 26.9748C33.2634 27.9252 35.5516 28.5163 37.6687 29.2521Z" fill="#FEE13E"/>
<path d="M15.939 41.5037C16.3869 42.0368 16.9628 42.4477 17.6128 42.6977C18.2627 42.9477 18.9655 43.0287 19.6552 42.9332C19.6829 43.9673 20.0997 44.953 20.8223 45.6932C21.545 46.4335 22.5203 46.8738 23.5535 46.9263C23.4653 47.6286 23.5598 48.3417 23.8277 48.9968C24.0957 49.6519 24.528 50.2269 25.083 50.6662C25.638 51.1054 26.2968 51.3942 26.996 51.5045C27.6951 51.6148 28.4109 51.5429 29.0741 51.2959C29.1856 52.0458 29.5027 52.7501 29.9904 53.3305C29.9948 53.3339 29.9985 53.3382 30.0012 53.343C30.6993 54.1615 31.6901 54.6742 32.7614 54.7713C33.8328 54.8684 34.8996 54.5422 35.7335 53.8625L35.903 53.7459C36.6566 54.4316 37.6391 54.811 38.6579 54.8099H38.8135C39.7582 54.7765 40.6624 54.4175 41.3728 53.7939C42.0832 53.1702 42.5562 52.3201 42.7117 51.3877C43.346 51.6184 44.0274 51.6892 44.6957 51.5938C45.3639 51.4985 45.9983 51.2399 46.5428 50.8409C47.0872 50.4419 47.525 49.9149 47.8172 49.3065C48.1095 48.698 48.2472 48.0269 48.2183 47.3525C48.7861 47.3765 49.3527 47.2824 49.8821 47.076C50.4116 46.8697 50.8925 46.5557 51.2943 46.1538C51.6961 45.752 52.0102 45.2711 52.2165 44.7417C52.4228 44.2122 52.517 43.6456 52.493 43.0779C53.0578 43.1021 53.6215 43.0092 54.1487 42.8049C54.6758 42.6007 55.1549 42.2895 55.5559 41.891L55.5683 41.8801C56.211 41.2368 56.621 40.3977 56.7335 39.4954L65.1848 33.715C65.4091 33.5571 65.5655 33.3205 65.6229 33.0523C65.6803 32.7841 65.6343 32.5041 65.4942 32.2683C65.3541 32.0325 65.1302 31.8583 64.8672 31.7804C64.6042 31.7025 64.3216 31.7268 64.0757 31.8483C64.0342 31.869 63.9942 31.8924 63.9559 31.9183L34.4672 52.0923C34.4377 52.1141 34.4081 52.1359 34.3817 52.1576C34.1875 52.321 33.9631 52.4445 33.7212 52.521C33.4793 52.5976 33.2247 52.6258 32.9719 52.604C32.7191 52.5822 32.4731 52.5108 32.2479 52.3939C32.0227 52.277 31.8228 52.1169 31.6595 51.9228C31.3587 51.5605 31.2002 51.101 31.2136 50.6303C31.2271 50.1596 31.4116 49.7099 31.7326 49.3654C31.9202 49.1623 32.0235 48.8955 32.0216 48.6191C32.0197 48.3426 31.9127 48.0772 31.7223 47.8768C31.5319 47.6763 31.2724 47.5557 30.9964 47.5396C30.7204 47.5234 30.4486 47.6128 30.2361 47.7896L28.8859 48.9252C28.4982 49.2499 27.9986 49.4096 27.4944 49.37C26.9902 49.3304 26.5216 49.0947 26.1893 48.7135C25.857 48.3323 25.6873 47.836 25.7169 47.3311C25.7464 46.8262 25.9727 46.3531 26.3472 46.0132C26.4568 45.9213 26.5473 45.8087 26.6133 45.6818C26.6794 45.5549 26.7198 45.4163 26.7323 45.2738C26.7448 45.1313 26.7291 44.9877 26.6861 44.8513C26.6432 44.7149 26.5737 44.5882 26.4818 44.4787C26.3899 44.3691 26.2773 44.2786 26.1504 44.2126C26.0235 44.1465 25.8849 44.1061 25.7424 44.0936C25.5999 44.0811 25.4563 44.0968 25.3199 44.1397C25.1835 44.1827 25.0568 44.2522 24.9472 44.3441C24.5563 44.6523 24.0614 44.7974 23.5659 44.7491C23.0705 44.7008 22.6129 44.4628 22.2889 44.0849C21.9648 43.707 21.7994 43.2185 21.8272 42.7215C21.855 42.2245 22.0739 41.7575 22.4381 41.4181C22.6446 41.2235 22.7669 40.956 22.7791 40.6726C22.7913 40.3892 22.6924 40.1122 22.5035 39.9006C22.3146 39.689 22.0506 39.5594 21.7676 39.5395C21.4846 39.5197 21.205 39.611 20.9884 39.7941L20.3335 40.337C19.9389 40.6428 19.4413 40.7841 18.9449 40.7314C18.4484 40.6786 17.9917 40.4359 17.6701 40.0541C17.3485 39.6722 17.1871 39.1808 17.2196 38.6827C17.2522 38.1845 17.4761 37.7182 17.8446 37.3814L23.4944 32.6385L30.2781 27.4725L34.3972 25.8579C36.8682 27.2156 39.5501 28.1474 42.3306 28.6143C42.68 28.6737 43.0339 28.7039 43.3883 28.7045C45.2939 28.7045 46.9459 27.7977 48.1172 26.0865C48.7368 25.152 49.1841 24.1142 49.4379 23.0221C49.4909 22.7655 49.4496 22.4985 49.3216 22.2699C49.1936 22.0413 48.9874 21.8666 48.741 21.7777L40.1357 18.6665C40.0664 18.5308 39.9695 18.411 39.851 18.3151C39.7326 18.2192 39.5953 18.1492 39.4481 18.1097L39.0935 18.0148C40.467 17.7037 41.9355 17.7752 43.5283 18.2217L50.8223 20.2765C50.9688 20.3178 51.1222 20.3279 51.2728 20.3062C51.4234 20.2845 51.5677 20.2314 51.6966 20.1505L55.8561 17.5325C56 17.5893 56.1543 17.6148 56.3088 17.6073C56.4633 17.5998 56.6144 17.5595 56.7521 17.489L56.7801 17.4765C56.9057 17.408 57.0165 17.3154 57.1062 17.2041C57.196 17.0927 57.2629 16.9648 57.3032 16.8276C57.3436 16.6903 57.3564 16.5465 57.3411 16.4043C57.3258 16.2621 57.2827 16.1243 57.2141 15.9988C57.2032 15.9785 57.1908 15.9568 57.1737 15.9288C57.0694 15.7593 56.9325 15.6122 56.771 15.4958C56.6096 15.3795 56.4267 15.2963 56.2329 15.2511C56.0391 15.2058 55.8383 15.1994 55.642 15.2321C55.4457 15.2649 55.2578 15.3362 55.0892 15.4419L50.9468 18.0443L44.1163 16.1279C41.0301 15.2614 38.1928 15.5834 35.6759 17.0783L32.0095 16.0937L31.7839 16.0345C29.8719 15.5454 27.8648 15.5685 25.9646 16.1014L19.1279 18.021L14.9855 15.4123L14.9621 15.3983L14.8564 15.3392C14.4971 15.163 14.0826 15.1362 13.7036 15.2648C13.3247 15.3934 13.0121 15.6668 12.8341 16.0252C12.7076 16.282 12.6873 16.5782 12.7776 16.8498C12.8678 17.1214 13.0614 17.3466 13.3164 17.4765H13.3288C13.4682 17.5461 13.6211 17.5847 13.7768 17.5895C13.9326 17.5944 14.0876 17.5654 14.231 17.5045L18.3766 20.1148C18.5053 20.1959 18.6496 20.2492 18.8002 20.2712C18.9507 20.2932 19.1043 20.2833 19.2508 20.2423L26.5557 18.1999C28.084 17.7712 29.698 17.7514 31.2364 18.1423L35.0303 19.1612L35.1003 19.0834C35.2037 19.1763 35.3242 19.2482 35.455 19.295L47.0268 23.4732C46.8366 23.9751 46.587 24.4524 46.2832 24.895C45.3717 26.1985 44.1957 26.7103 42.6837 26.4583C40.0044 26.0121 37.4276 25.0863 35.077 23.7252C34.9322 23.6325 34.7674 23.5755 34.5963 23.5587C34.4251 23.5419 34.2524 23.5659 34.0924 23.6288L29.3961 25.4705L29.603 25.2403L29.197 25.5514L27.391 26.2592C27.1603 26.35 26.9675 26.5168 26.8445 26.7321C26.7214 26.9473 26.6755 27.1981 26.7144 27.443L22.1519 30.9181L22.1115 30.9492L16.4446 35.7123C16.1987 35.9193 15.9783 36.1548 15.7881 36.4139L6.76592 32.2139C6.73214 32.0552 6.66336 31.9062 6.56459 31.7775C6.46581 31.6489 6.33955 31.5439 6.19503 31.4703L6.14369 31.4439C5.88413 31.3283 5.58967 31.3187 5.32316 31.4173C5.05665 31.5158 4.83921 31.7146 4.71725 31.9712C4.54588 32.3278 4.52143 32.7374 4.64916 33.1119C4.77688 33.4864 5.04657 33.7957 5.40014 33.9732L5.42347 33.9841L15.0026 38.4517C14.9468 38.9971 15.0009 39.5483 15.1617 40.0725C15.3226 40.5967 15.5869 41.0833 15.939 41.5037ZM45.9379 46.8843C46.0793 47.2853 46.0843 47.7218 45.9522 48.1259C45.8201 48.53 45.5582 48.8793 45.2073 49.1194C44.8564 49.3594 44.4361 49.477 44.0115 49.4537C43.587 49.4304 43.182 49.2676 42.8595 48.9905L45.9379 46.8843ZM50.1768 43.9848C50.0347 44.3324 49.7938 44.6308 49.4838 44.8428C49.1739 45.0549 48.8085 45.1714 48.433 45.1779L50.1768 43.9848ZM40.089 52.0145C39.9171 52.2021 39.7096 52.3537 39.4786 52.4605C39.2476 52.5674 38.9978 52.6273 38.7435 52.6368C38.4266 52.6493 38.1117 52.5824 37.8272 52.4423L40.5697 50.5554C40.5958 50.8187 40.5665 51.0845 40.4837 51.3358C40.4009 51.5871 40.2665 51.8183 40.089 52.0145Z" fill="#0693E3"/>
</svg>
