<svg width="155" height="45" viewBox="0 0 155 45" fill="none" xmlns="http://www.w3.org/2000/svg">
<path d="M33.311 13.1479C33.5755 12.4537 33.9391 11.8146 34.4791 11.2966C36.6389 9.19196 40.2091 9.72089 41.6747 12.3655C42.7766 14.371 43.9446 16.3325 45.0796 18.3159L50.7656 28.2112C52.3413 30.9771 50.6333 34.4702 47.5039 34.944C45.5865 35.2305 43.7904 34.349 42.7986 32.6299L37.7959 23.9468C37.7628 23.8807 37.7187 23.8256 37.6747 23.7705C37.4984 23.6272 37.4212 23.4178 37.311 23.2305L33.6306 16.8504C33.2008 16.101 33.0025 15.2856 33.0245 14.4261C33.0576 13.9853 33.1127 13.5446 33.311 13.1479Z" fill="#3C8BD9"/>
<path d="M33.311 13.1479C33.2119 13.5446 33.1237 13.9413 33.1017 14.3601C33.0686 15.2857 33.3 16.1452 33.7628 16.9496L37.3882 23.2196C37.4984 23.4069 37.5865 23.5942 37.6967 23.7705L35.7022 27.1975L32.9143 32.0019C32.8703 32.0019 32.8592 31.9799 32.8482 31.9468C32.8372 31.8587 32.8703 31.7815 32.8923 31.6934C33.3441 30.0405 32.9694 28.5749 31.8345 27.3187C31.1402 26.5584 30.2587 26.1287 29.2449 25.9854C27.9226 25.7981 26.7546 26.1397 25.7077 26.9661C25.5204 27.1094 25.3992 27.3187 25.1788 27.4289C25.1347 27.4289 25.1127 27.4069 25.1017 27.3738L26.6774 24.63L33.2339 13.2692C33.2559 13.2251 33.289 13.192 33.311 13.1479Z" fill="#FABC04"/>
<path d="M25.1458 27.4068L25.7739 26.8448C28.4515 24.7291 32.4736 26.2608 33.0576 29.6106C33.2008 30.415 33.1237 31.1864 32.8813 31.9577C32.8703 32.0239 32.8592 32.079 32.8372 32.1451C32.738 32.3214 32.6499 32.5087 32.5397 32.685C31.559 34.3048 30.1155 35.1093 28.2201 34.988C26.0493 34.8338 24.3414 33.2029 24.0438 31.0431C23.9006 29.9963 24.1099 29.0156 24.6499 28.112C24.7601 27.9137 24.8923 27.7374 25.0135 27.539C25.0686 27.4949 25.0466 27.4068 25.1458 27.4068Z" fill="#34A852"/>
<path d="M25.1458 27.4069C25.1017 27.4509 25.1017 27.5281 25.0246 27.5391C25.0136 27.462 25.0576 27.4179 25.1017 27.3628L25.1458 27.4069Z" fill="#FABC04"/>
<path d="M32.8372 32.1448C32.7931 32.0677 32.8372 32.0126 32.8813 31.9575L32.9254 32.0016L32.8372 32.1448Z" fill="#E1C025"/>
<path d="M64.6249 17.9546C61.3405 17.9546 58.6082 20.5996 58.6082 23.855C58.6082 27.1104 61.3405 29.7264 64.6249 29.7264C66.398 29.7264 67.7059 29.145 68.7523 28.0696C69.8278 26.9941 70.1475 25.5118 70.1475 24.3201C70.1475 23.9422 70.1184 23.5934 70.0603 23.3027H64.6249V24.9014H68.4907C68.3745 25.8024 68.0838 26.471 67.6187 26.936C67.0665 27.4883 66.1654 28.1277 64.6249 28.1277C62.2415 28.1277 60.3813 26.2094 60.3813 23.855C60.3813 21.5007 62.2415 19.5823 64.6249 19.5823C65.9038 19.5823 66.863 20.0764 67.5315 20.7449L68.6651 19.6114C67.7059 18.6812 66.427 17.9546 64.6249 17.9546ZM74.4783 22.1692C72.4146 22.1692 70.6997 23.7678 70.6997 26.0059C70.6997 28.2149 72.3856 29.8426 74.4783 29.8426C76.5711 29.8426 78.2569 28.2149 78.2569 26.0059C78.2569 23.7969 76.542 22.1692 74.4783 22.1692ZM74.4783 28.3312C73.3448 28.3312 72.3565 27.372 72.3565 26.0059C72.3565 24.6398 73.3448 23.6806 74.4783 23.6806C75.6119 23.6806 76.6002 24.6107 76.6002 26.0059C76.6002 27.372 75.6119 28.3312 74.4783 28.3312ZM82.675 22.1692C80.5822 22.1692 78.8964 23.7678 78.8964 26.0059C78.8964 28.2149 80.5822 29.8426 82.675 29.8426C84.7387 29.8426 86.4536 28.2149 86.4536 26.0059C86.4536 23.7969 84.7677 22.1692 82.675 22.1692ZM82.675 28.3312C81.5414 28.3312 80.5531 27.372 80.5531 26.0059C80.5531 24.6398 81.5414 23.6806 82.675 23.6806C83.8085 23.6806 84.7968 24.6107 84.7968 26.0059C84.7968 27.372 83.8376 28.3312 82.675 28.3312ZM90.8425 22.1692C88.9532 22.1692 87.2383 23.8259 87.2383 25.9768C87.2383 28.0987 88.9532 29.7554 90.8425 29.7554C91.7436 29.7554 92.4412 29.3485 92.819 28.8834H92.8772V29.4357C92.8772 30.889 92.1214 31.6738 90.8716 31.6738C89.8543 31.6738 89.2439 30.9471 88.9823 30.3367L87.529 30.9471C87.9359 31.9644 89.0404 33.1852 90.8716 33.1852C92.819 33.1852 94.4467 32.0226 94.4467 29.2322V22.4308H92.8772V23.0412H92.819C92.4412 22.5761 91.7436 22.1692 90.8425 22.1692ZM90.9879 28.2731C89.8543 28.2731 88.8951 27.3139 88.8951 25.9768C88.8951 24.6398 89.8543 23.6515 90.9879 23.6515C92.1214 23.6515 92.9934 24.6398 92.9934 25.9768C92.9934 27.3139 92.1214 28.2731 90.9879 28.2731ZM95.6675 18.4196H97.3243V29.6392H95.6675V18.4196ZM101.771 22.1692C99.7949 22.1692 98.1381 23.7097 98.1381 26.0059C98.1381 28.1568 99.7658 29.8426 101.946 29.8426C103.719 29.8426 104.736 28.7672 105.143 28.1568L103.835 27.2848C103.399 27.9243 102.789 28.3312 101.946 28.3312C101.074 28.3312 100.463 27.9533 100.086 27.1685L105.23 25.0467L105.056 24.6107C104.736 23.7678 103.748 22.1692 101.771 22.1692ZM99.7949 25.8896C99.7368 24.4073 100.958 23.6515 101.8 23.6515C102.469 23.6515 103.05 23.9713 103.225 24.4654L99.7949 25.8896ZM108.137 29.4648L111.974 19.2626H113.456L117.293 29.4648H115.839L114.851 26.7035H110.578L109.59 29.4648H108.137ZM111.014 25.4827H114.415L112.758 20.8903H112.7L111.014 25.4827ZM118.63 28.6218C117.99 27.8952 117.671 27.0232 117.671 25.9768C117.671 24.9595 117.99 24.0875 118.63 23.3318C119.298 22.6052 120.054 22.2564 120.984 22.2564C121.507 22.2564 121.972 22.3726 122.379 22.5761C122.815 22.8086 123.135 23.0702 123.367 23.4481H123.426L123.367 22.4889V19.2626H124.675V29.4648H123.426V28.5056H123.367C123.135 28.8544 122.815 29.145 122.379 29.3776C121.943 29.6101 121.478 29.6973 120.984 29.6973C120.054 29.6973 119.269 29.3485 118.63 28.6218ZM122.757 27.808C123.193 27.3429 123.397 26.7325 123.397 25.9768C123.397 25.2502 123.193 24.6398 122.757 24.1747C122.35 23.7097 121.827 23.4771 121.188 23.4771C120.548 23.4771 120.025 23.7097 119.618 24.1747C119.182 24.6398 118.979 25.2502 118.979 25.9768C118.979 26.7035 119.182 27.3139 119.618 27.7789C120.054 28.244 120.577 28.4765 121.188 28.4765C121.827 28.5056 122.35 28.273 122.757 27.808ZM130.721 29.0578C130.198 29.4648 129.53 29.6973 128.716 29.6973C128.018 29.6973 127.408 29.5229 126.855 29.145C126.332 28.7672 125.954 28.3021 125.722 27.6917L126.884 27.1976C127.059 27.6045 127.291 27.9533 127.64 28.1859C127.96 28.4184 128.338 28.5346 128.716 28.5346C129.123 28.5346 129.471 28.4474 129.762 28.2731C130.053 28.0987 130.169 27.8661 130.169 27.6336C130.169 27.1976 129.82 26.8488 129.152 26.6453L127.96 26.3547C126.594 26.0059 125.925 25.3664 125.925 24.3782C125.925 23.7387 126.187 23.2446 126.71 22.8377C127.233 22.4598 127.902 22.2564 128.687 22.2564C129.277 22.2524 129.858 22.4027 130.372 22.6924C130.867 22.983 131.215 23.3899 131.419 23.8841L130.256 24.3782C130.111 24.0875 129.907 23.855 129.617 23.6806C129.326 23.5062 128.977 23.419 128.599 23.419C128.251 23.419 127.96 23.5062 127.669 23.6806C127.408 23.855 127.262 24.0585 127.262 24.3201C127.262 24.727 127.64 25.0177 128.396 25.163L129.442 25.4246C130.837 25.7734 131.506 26.471 131.506 27.5173C131.535 28.1277 131.244 28.6509 130.721 29.0578Z" fill="#757575"/>
</svg>
