<svg width="650" height="650" viewBox="0 0 650 650" fill="none" xmlns="http://www.w3.org/2000/svg">
<rect width="650" height="650" fill="white"/>
<g clip-path="url(#clip0_511_7)">
<path d="M590.82 206.342C591.747 199.61 582.246 194.073 575.106 193.497C571.703 193.222 568.165 193.744 564.94 192.618C557.952 190.184 555.16 181.156 548.342 178.28C543.244 176.129 537.376 178.044 532.435 180.53C527.491 183.018 522.607 186.148 517.087 186.501C512.284 186.809 507.068 185.028 502.867 187.374C499.736 189.122 498.096 192.73 495.21 194.858C492.386 196.941 488.704 197.382 485.2 197.573C481.698 197.764 478.07 197.798 474.88 199.258C471.691 200.72 469.051 204.093 469.714 207.537L590.82 206.342Z" fill="#E7E8E5"/>
<path d="M297.816 144.544C298.743 137.812 289.241 132.274 282.103 131.698C278.697 131.424 275.161 131.944 271.936 130.821C264.948 128.385 262.157 119.357 255.339 116.481C250.24 114.332 244.372 116.244 239.429 118.732C234.488 121.22 229.604 124.349 224.083 124.702C219.28 125.01 214.064 123.229 209.863 125.574C206.732 127.324 205.092 130.932 202.205 133.06C199.381 135.142 195.699 135.584 192.196 135.774C188.693 135.965 185.067 136 181.876 137.46C178.687 138.921 176.048 142.293 176.709 145.738L297.816 144.544Z" fill="#E7E8E5"/>
<path d="M167.298 355.381C168.224 348.648 158.723 343.111 151.584 342.535C148.179 342.261 144.643 342.781 141.418 341.657C134.43 339.222 131.638 330.193 124.82 327.317C119.722 325.168 113.853 327.081 108.911 329.569C103.969 332.056 99.0852 335.186 93.5638 335.54C88.7612 335.848 83.5461 334.066 79.3445 336.412C76.2127 338.16 74.5732 341.768 71.6866 343.897C68.8633 345.979 65.1805 346.42 61.6778 346.61C58.1747 346.801 54.5475 346.837 51.3581 348.299C48.1679 349.757 45.5294 353.132 46.1914 356.577L167.298 355.381Z" fill="#E7E8E5"/>
<path d="M409.919 264.381C410.484 260.268 404.679 256.882 400.316 256.532C398.236 256.364 396.075 256.682 394.103 255.994C389.833 254.506 388.128 248.99 383.961 247.233C380.847 245.918 377.261 247.088 374.24 248.608C371.22 250.128 368.236 252.041 364.863 252.257C361.928 252.444 358.741 251.356 356.173 252.79C354.26 253.857 353.259 256.062 351.493 257.364C349.768 258.636 347.519 258.905 345.379 259.021C343.237 259.138 341.021 259.16 339.072 260.052C337.123 260.945 335.511 263.005 335.915 265.11L409.919 264.381Z" fill="#E7E8E5"/>
<path d="M648.083 634.372C648.083 634.564 504.39 634.72 327.176 634.72C149.902 634.72 6.23877 634.564 6.23877 634.372C6.23877 634.181 149.902 634.024 327.176 634.024C504.39 634.024 648.083 634.181 648.083 634.372Z" fill="#17282F"/>
<path d="M419.108 534.048L519.911 634.055L539.595 634.001L546.595 534.048H419.108Z" fill="#DADBD8"/>
<path d="M501.076 543.52L399.504 634.055L470.453 633.948L530.247 583.653L501.076 543.52Z" fill="#DADBD8"/>
<path d="M491.522 284.805L616.728 400.86L618.936 280.48L491.522 284.805Z" fill="#DADBD8"/>
<path d="M575.88 289.813L237.243 634.001H303.973L606.395 328.936L575.88 289.813Z" fill="#DADBD8"/>
<path d="M136.463 417.268L257.658 537.503L263.948 417.268H136.463Z" fill="#DADBD8"/>
<path d="M220.601 425.134L3 634.001H73.1151L249.771 465.27L220.601 425.134Z" fill="#DADBD8"/>
<path d="M242.124 375.989L415.147 547.643V375.989H242.124Z" fill="#FEE13E"/>
<path d="M356.288 379.86C352.372 382.993 103.301 634.001 103.301 634.001H210.604L406.416 437.036L356.288 379.86Z" fill="#FEE13E"/>
<path d="M136.13 84.2492C136.13 93.6999 128.469 101.36 119.019 101.36C109.568 101.36 101.907 93.6999 101.907 84.2492C101.907 74.7986 109.568 67.1372 119.019 67.1372C128.469 67.1372 136.13 74.7986 136.13 84.2492Z" fill="#FEE13E"/>
<path d="M116.581 122.51C116.482 122.51 116.401 119.35 116.401 115.453C116.401 111.554 116.482 108.394 116.581 108.394C116.68 108.394 116.761 111.554 116.761 115.453C116.761 119.35 116.68 122.51 116.581 122.51Z" fill="black"/>
<path d="M106.721 104.416C106.807 104.465 105.198 107.413 103.126 111.001C101.055 114.588 99.3056 117.454 99.2196 117.405C99.1337 117.356 100.743 114.408 102.815 110.82C104.886 107.234 106.634 104.366 106.721 104.416Z" fill="black"/>
<path d="M96.6006 98.1146C96.6626 98.1919 94.8735 99.7173 92.6047 101.521C90.3349 103.325 88.4459 104.724 88.3839 104.645C88.3219 104.568 90.1109 103.043 92.3807 101.239C94.6489 99.4359 96.5391 98.0373 96.6006 98.1146Z" fill="black"/>
<path d="M133.652 115.557C133.601 115.566 133.447 114.898 133.201 113.821C132.955 112.744 132.606 111.258 132.17 109.632C131.731 108.005 131.288 106.546 130.961 105.49C130.634 104.436 130.431 103.781 130.48 103.762C130.524 103.746 130.811 104.369 131.202 105.408C131.592 106.446 132.076 107.902 132.517 109.538C132.956 111.174 133.267 112.677 133.451 113.772C133.634 114.865 133.699 115.55 133.652 115.557Z" fill="black"/>
<path d="M151.008 103.241C150.943 103.317 148.677 101.444 145.951 99.0596C143.221 96.6756 141.064 94.6809 141.129 94.6076C141.195 94.5316 143.459 96.4036 146.187 98.7889C148.915 101.173 151.073 103.168 151.008 103.241Z" fill="black"/>
<path d="M157.656 86.3171C157.644 86.3691 156.859 86.2317 155.592 86.0211C154.324 85.8091 152.572 85.5384 150.625 85.3144C148.679 85.0918 146.909 84.9598 145.628 84.8784C144.345 84.7958 143.549 84.7531 143.551 84.6998C143.551 84.6531 144.348 84.6064 145.637 84.6237C146.927 84.6397 148.709 84.7331 150.667 84.9571C152.623 85.1811 154.38 85.4944 155.64 85.7704C156.9 86.0464 157.665 86.2718 157.656 86.3171Z" fill="black"/>
<path d="M157.677 69.6744C157.7 69.7717 153.996 70.757 149.404 71.8757C144.809 72.9943 141.068 73.8223 141.044 73.7263C141.02 73.629 144.724 72.6437 149.319 71.525C153.911 70.4063 157.653 69.577 157.677 69.6744Z" fill="black"/>
<path d="M138.341 50.2839C138.424 50.3385 136.652 53.1665 134.383 56.5985C132.113 60.0318 130.207 62.7692 130.124 62.7145C130.042 62.6599 131.813 59.8332 134.082 56.3999C136.352 52.9679 138.259 50.2292 138.341 50.2839Z" fill="black"/>
<path d="M119.152 46.2332C119.204 46.2358 119.198 47.1345 119.177 48.5825C119.157 50.0318 119.127 52.0318 119.131 54.2412C119.133 56.4518 119.166 58.4532 119.19 59.9025C119.214 61.3505 119.221 62.2478 119.17 62.2505C119.123 62.2531 119.025 61.3598 118.936 59.9118C118.846 58.4625 118.773 56.4585 118.77 54.2425C118.767 52.0265 118.837 50.0225 118.923 48.5731C119.009 47.1238 119.104 46.2305 119.152 46.2332Z" fill="black"/>
<path d="M104.62 64.3318C104.536 64.3838 102.733 61.5878 100.595 58.0892C98.4564 54.5892 96.7918 51.7105 96.8766 51.6598C96.9616 51.6078 98.7637 54.4012 100.902 57.9025C103.04 61.4012 104.706 64.2798 104.62 64.3318Z" fill="black"/>
<path d="M95.9401 71.7091C95.9297 71.7558 95.2327 71.6544 94.1202 71.4211C93.0078 71.1864 91.4806 70.8131 89.8166 70.3238C88.1521 69.8318 86.6671 69.3171 85.6057 68.9091C84.5437 68.5025 83.9041 68.2091 83.9207 68.1651C83.9385 68.1158 84.6098 68.3251 85.6901 68.6691C86.7697 69.0145 88.2609 69.4891 89.9182 69.9785C91.5759 70.4665 93.0859 70.8771 94.1802 71.1731C95.2739 71.4691 95.951 71.6598 95.9401 71.7091Z" fill="black"/>
<path d="M92.1475 84.8559C92.157 84.9546 89.7122 85.2719 86.6866 85.5612C83.6617 85.8532 81.2013 86.0079 81.1919 85.9092C81.1825 85.8106 83.6267 85.4932 86.6523 85.2039C89.6778 84.9132 92.1377 84.7572 92.1475 84.8559Z" fill="black"/>
<path d="M601.893 460.916C602.592 455.848 595.437 451.679 590.063 451.245C587.5 451.037 584.837 451.429 582.409 450.583C577.148 448.749 575.045 441.952 569.912 439.787C566.073 438.168 561.656 439.609 557.935 441.481C554.212 443.355 550.536 445.711 546.379 445.977C542.764 446.209 538.836 444.868 535.672 446.635C533.316 447.951 532.081 450.667 529.908 452.269C527.781 453.837 525.008 454.169 522.372 454.312C519.733 454.457 517.003 454.483 514.601 455.583C512.2 456.683 510.212 459.223 510.712 461.816L601.893 460.916Z" fill="white"/>
<path d="M601.893 460.916C601.901 460.924 601.753 460.934 601.453 460.946C601.12 460.956 600.678 460.968 600.117 460.984C598.893 461.008 597.152 461.042 594.922 461.085C590.341 461.156 583.764 461.256 575.608 461.38C559.146 461.578 536.325 461.853 510.714 462.161L510.428 462.165L510.372 461.881C510.073 460.369 510.614 458.766 511.565 457.554C512.51 456.326 513.878 455.405 515.357 454.908C518.773 453.745 522.297 454.237 525.532 453.634C527.149 453.352 528.714 452.801 529.948 451.801C531.196 450.804 532.125 449.442 533.246 448.222C533.809 447.614 534.417 447.024 535.134 446.568C535.85 446.113 536.645 445.788 537.458 445.608C539.096 445.257 540.725 445.374 542.285 445.492C543.848 445.613 545.38 445.769 546.864 445.604C548.35 445.45 549.788 445.025 551.156 444.477C553.904 443.378 556.385 441.826 558.99 440.637C561.585 439.466 564.35 438.629 567.101 438.832C568.462 438.945 569.793 439.324 570.942 439.985C572.094 440.64 573.066 441.504 573.932 442.402C575.66 444.209 577.02 446.165 578.605 447.742C580.156 449.342 582.033 450.473 584.021 450.752C586.001 451.068 587.934 450.897 589.745 451.028C593.397 451.321 596.305 452.773 598.36 454.252C600.422 455.778 601.52 457.569 601.822 458.884C602.12 460.204 601.856 460.954 601.893 460.916C601.832 460.888 602.012 460.205 601.686 458.92C601.348 457.65 600.248 455.936 598.201 454.469C596.162 453.052 593.273 451.662 589.72 451.416C587.945 451.302 586.012 451.496 583.95 451.189C581.87 450.92 579.852 449.718 578.26 448.09C576.622 446.482 575.246 444.526 573.546 442.774C572.698 441.904 571.758 441.082 570.67 440.47C569.586 439.854 568.344 439.508 567.056 439.406C564.461 439.224 561.782 440.032 559.245 441.193C556.696 442.364 554.208 443.934 551.394 445.072C549.992 445.637 548.496 446.086 546.933 446.252C545.362 446.43 543.788 446.269 542.233 446.153C540.682 446.037 539.108 445.937 537.605 446.264C536.092 446.578 534.801 447.478 533.748 448.682C532.668 449.853 531.728 451.246 530.378 452.336C529.028 453.434 527.333 454.02 525.654 454.313C522.278 454.928 518.782 454.46 515.586 455.562C514.202 456.028 512.978 456.864 512.113 457.978C511.253 459.08 510.8 460.472 511.05 461.749L510.709 461.469C536.229 461.273 558.97 461.098 575.374 460.972C583.56 460.936 590.164 460.906 594.762 460.885C597.024 460.884 598.789 460.884 600.032 460.884C600.609 460.889 601.065 460.892 601.409 460.896C601.722 460.901 601.885 460.908 601.893 460.916Z" fill="#17282F"/>
<path d="M315.431 572.515C316.357 565.782 306.856 560.245 299.717 559.669C296.313 559.394 292.776 559.915 289.551 558.792C282.564 556.356 279.772 547.328 272.953 544.452C267.855 542.301 261.987 544.216 257.045 546.703C252.103 549.189 247.219 552.32 241.697 552.673C236.895 552.98 231.68 551.2 227.477 553.545C224.347 555.294 222.707 558.903 219.821 561.03C216.997 563.113 213.315 563.555 209.811 563.745C206.308 563.934 202.681 563.969 199.491 565.431C196.301 566.892 193.663 570.264 194.324 573.709L315.431 572.515Z" fill="white"/>
<path d="M315.43 572.514C315.43 572.514 315.238 572.533 314.84 572.545C314.41 572.556 313.82 572.57 313.057 572.588C311.45 572.615 309.128 572.656 306.145 572.706C300.08 572.791 291.333 572.913 280.481 573.065C258.645 573.314 228.34 573.663 194.328 574.056L194.041 574.058L193.985 573.774C193.597 571.803 194.301 569.71 195.548 568.12C196.792 566.508 198.582 565.297 200.533 564.641C205.034 563.109 209.71 563.757 214.029 562.955C216.186 562.578 218.289 561.841 219.945 560.494C221.618 559.157 222.856 557.343 224.337 555.731C225.08 554.925 225.881 554.149 226.822 553.55C227.762 552.955 228.804 552.526 229.874 552.29C232.025 551.827 234.181 551.982 236.252 552.137C238.325 552.297 240.369 552.506 242.353 552.284C244.34 552.078 246.26 551.51 248.082 550.778C251.742 549.313 255.04 547.248 258.49 545.673C261.926 544.117 265.585 543.01 269.212 543.277C271.008 543.425 272.762 543.922 274.277 544.796C275.797 545.658 277.082 546.798 278.229 547.985C280.521 550.377 282.328 552.974 284.442 555.074C286.51 557.203 289.024 558.719 291.681 559.086C294.324 559.503 296.893 559.274 299.292 559.446C301.705 559.596 303.884 560.232 305.792 560.989C307.702 561.76 309.346 562.7 310.712 563.7C312.072 564.71 313.122 565.809 313.892 566.861C314.677 567.912 315.074 568.967 315.313 569.822C315.5 570.69 315.562 571.374 315.494 571.843C315.458 572.301 315.43 572.514 315.43 572.514C315.43 572.514 315.424 572.262 315.428 571.817C315.464 571.379 315.384 570.705 315.178 569.857C314.734 568.163 313.273 565.874 310.552 563.917C309.193 562.949 307.561 562.038 305.67 561.298C303.781 560.567 301.63 559.962 299.268 559.833C296.904 559.679 294.336 559.932 291.61 559.522C288.861 559.165 286.206 557.579 284.097 555.422C281.932 553.291 280.106 550.694 277.845 548.358C276.713 547.196 275.461 546.1 274.005 545.279C272.554 544.453 270.889 543.988 269.168 543.852C265.694 543.605 262.125 544.685 258.744 546.229C255.349 547.786 252.046 549.869 248.321 551.372C246.464 552.122 244.486 552.714 242.421 552.932C240.35 553.167 238.266 552.953 236.2 552.8C234.138 552.645 232.038 552.509 230.02 552.948C229.017 553.17 228.058 553.567 227.189 554.118C226.32 554.673 225.56 555.409 224.84 556.189C223.398 557.753 222.152 559.601 220.376 561.029C218.601 562.473 216.372 563.245 214.152 563.634C209.69 564.449 205.044 563.822 200.761 565.297C198.908 565.921 197.26 567.045 196.097 568.544C194.938 570.025 194.322 571.908 194.664 573.644L194.321 573.363C228.244 573.084 258.469 572.836 280.246 572.657C291.13 572.593 299.902 572.541 305.985 572.506C309 572.498 311.346 572.491 312.972 572.488C313.75 572.49 314.356 572.493 314.796 572.494C315.209 572.5 315.43 572.514 315.43 572.514Z" fill="#17282F"/>
<path d="M192.127 254.534C192.904 248.884 184.93 244.236 178.938 243.753C176.08 243.522 173.112 243.96 170.406 243.016C164.539 240.972 162.196 233.393 156.474 230.98C152.195 229.176 147.268 230.781 143.12 232.869C138.972 234.957 134.873 237.584 130.239 237.881C126.208 238.138 121.83 236.644 118.303 238.613C115.676 240.08 114.299 243.109 111.876 244.896C109.506 246.644 106.415 247.013 103.475 247.173C100.535 247.333 97.4908 247.362 94.8132 248.589C92.1362 249.814 89.921 252.646 90.4767 255.537L192.127 254.534Z" fill="white"/>
<path d="M192.127 254.534C192.133 254.544 191.967 254.553 191.633 254.565C191.267 254.574 190.773 254.588 190.141 254.605C188.784 254.63 186.839 254.666 184.345 254.713C179.245 254.788 171.909 254.896 162.811 255.029C144.468 255.245 119.03 255.546 90.4802 255.884L90.1931 255.886L90.1363 255.602C89.8073 253.93 90.4051 252.156 91.4593 250.812C92.5093 249.45 94.0245 248.426 95.6693 247.873C99.4645 246.582 103.392 247.129 107.006 246.456C108.811 246.14 110.566 245.525 111.947 244.402C113.342 243.288 114.381 241.768 115.627 240.41C116.253 239.733 116.928 239.077 117.724 238.572C118.519 238.068 119.399 237.706 120.303 237.508C122.12 237.117 123.933 237.248 125.672 237.378C127.413 237.513 129.125 237.688 130.784 237.501C132.444 237.33 134.051 236.856 135.579 236.242C138.645 235.016 141.412 233.284 144.315 231.961C147.201 230.654 150.28 229.722 153.336 229.948C154.851 230.073 156.329 230.493 157.607 231.229C158.887 231.957 159.968 232.917 160.932 233.917C162.859 235.928 164.373 238.108 166.144 239.868C167.877 241.653 169.976 242.92 172.199 243.229C174.409 243.58 176.567 243.389 178.581 243.534C182.648 243.858 185.888 245.473 188.179 247.118C190.476 248.817 191.7 250.808 192.039 252.272C192.195 253.004 192.244 253.577 192.185 253.972C192.152 254.358 192.127 254.534 192.127 254.534C192.127 254.534 192.119 254.32 192.119 253.948C192.147 253.582 192.077 253.018 191.904 252.308C191.528 250.889 190.301 248.974 188.019 247.337C185.745 245.752 182.524 244.198 178.557 243.922C176.577 243.794 174.421 244.008 172.128 243.665C169.813 243.365 167.572 242.03 165.799 240.216C163.977 238.425 162.444 236.246 160.548 234.29C159.6 233.316 158.551 232.398 157.335 231.714C156.121 231.024 154.732 230.636 153.292 230.522C150.389 230.317 147.4 231.221 144.567 232.517C141.721 233.822 138.949 235.572 135.817 236.836C134.256 237.468 132.592 237.966 130.852 238.15C129.107 238.348 127.355 238.168 125.62 238.04C123.891 237.91 122.132 237.797 120.449 238.164C118.754 238.514 117.305 239.526 116.129 240.869C114.923 242.178 113.875 243.732 112.376 244.938C110.877 246.158 108.996 246.808 107.127 247.136C103.373 247.821 99.4739 247.297 95.8973 248.529C94.3494 249.05 92.977 249.988 92.0078 251.237C91.0431 252.47 90.5327 254.033 90.8161 255.472L90.4729 255.192C118.933 254.966 144.292 254.766 162.576 254.621C171.707 254.576 179.069 254.537 184.185 254.512C186.711 254.509 188.68 254.506 190.055 254.504C190.704 254.509 191.213 254.512 191.589 254.514C191.937 254.52 192.119 254.526 192.127 254.534Z" fill="#17282F"/>
<path d="M555.616 107.345C556.228 102.903 549.96 99.2493 545.249 98.8693C543.003 98.6893 540.669 99.032 538.541 98.2906C533.932 96.684 532.089 90.7266 527.59 88.8293C524.226 87.4106 520.354 88.6733 517.094 90.3146C513.833 91.9559 510.611 94.02 506.968 94.2533C503.799 94.4573 500.358 93.2813 497.586 94.8293C495.52 95.9826 494.437 98.364 492.533 99.768C490.671 101.141 488.241 101.433 485.931 101.559C483.617 101.684 481.225 101.708 479.12 102.671C477.016 103.635 475.275 105.86 475.712 108.133L555.616 107.345Z" fill="white"/>
<path d="M555.616 107.345C555.624 107.353 555.493 107.362 555.233 107.374C554.936 107.384 554.551 107.396 554.065 107.41C552.984 107.433 551.461 107.465 549.517 107.506C545.493 107.57 539.733 107.662 532.597 107.777C518.157 107.956 498.159 108.202 475.715 108.478L475.429 108.482L475.372 108.198C475.107 106.858 475.588 105.441 476.427 104.373C477.26 103.29 478.467 102.476 479.768 102.038C482.776 101.017 485.867 101.449 488.692 100.921C490.104 100.674 491.469 100.194 492.544 99.3238C493.629 98.4571 494.444 97.2651 495.429 96.1931C496.379 95.0984 497.687 94.1798 499.143 93.8891C500.584 93.5798 502.016 93.6851 503.384 93.7878C504.753 93.8944 506.095 94.0304 507.388 93.8864C508.687 93.7531 509.943 93.3824 511.14 92.9024C513.544 91.9424 515.717 90.5824 518.005 89.5411C520.28 88.5117 522.711 87.7771 525.129 87.9571C526.327 88.0557 527.499 88.3904 528.511 88.9731C529.524 89.5504 530.377 90.3091 531.137 91.0984C532.655 92.6838 533.843 94.3984 535.229 95.7784C536.587 97.1784 538.221 98.1677 539.959 98.4104C541.689 98.6877 543.384 98.5398 544.972 98.6571C548.179 98.9158 550.727 100.192 552.531 101.492C554.337 102.834 555.3 104.406 555.561 105.562C555.823 106.721 555.585 107.381 555.616 107.345C555.561 107.316 555.713 106.722 555.428 105.598C555.128 104.488 554.163 102.99 552.371 101.71C550.587 100.47 548.055 99.2557 544.948 99.0437C543.395 98.9464 541.7 99.1158 539.888 98.8478C538.059 98.6131 536.281 97.5558 534.884 96.1264C533.447 94.7158 532.239 93.0024 530.752 91.4704C530.008 90.7077 529.188 89.9918 528.239 89.4584C527.292 88.9198 526.209 88.6198 525.085 88.5304C522.82 88.3718 520.48 89.0798 518.259 90.0958C516.028 91.1211 513.847 92.4984 511.379 93.4958C510.148 93.9944 508.832 94.3891 507.457 94.5344C506.076 94.6918 504.695 94.5504 503.332 94.4491C501.973 94.3478 500.599 94.2611 499.288 94.5464C497.971 94.8198 496.852 95.6011 495.931 96.6518C494.987 97.6758 494.161 98.8998 492.973 99.8584C491.781 100.826 490.289 101.342 488.815 101.601C485.847 102.141 482.785 101.732 479.997 102.694C478.791 103.101 477.727 103.828 476.975 104.798C476.225 105.756 475.833 106.962 476.051 108.068L475.709 107.788C498.063 107.622 517.983 107.476 532.363 107.369C539.531 107.342 545.317 107.321 549.357 107.305C551.332 107.308 552.88 107.309 553.98 107.31C554.483 107.316 554.88 107.32 555.189 107.324C555.465 107.329 555.608 107.336 555.616 107.345Z" fill="#17282F"/>
<path d="M323.155 341.704L322.196 363.632C322.196 363.632 344.161 371.969 344.379 376.039L301.797 375.708L301.889 341.48L323.155 341.704Z" fill="#33535F"/>
<path d="M309.044 361.684C308.217 361.902 307.641 362.825 307.825 363.658C308.011 364.493 308.943 365.086 309.772 364.882C310.601 364.68 311.328 363.593 311.051 362.785C310.775 361.976 309.641 361.338 308.884 361.736" fill="#DADBD8"/>
<path d="M344.387 375.989H344.376C344.32 375.413 343.84 374.753 343.053 374.045C343.577 374.353 344.511 375.044 344.387 375.989Z" fill="white"/>
<path d="M344.379 376.039L337.996 375.989L344.379 376.039C344.379 376.023 344.377 376.005 344.376 375.989H344.387C344.384 376.005 344.383 376.023 344.379 376.039Z" fill="#F9ACB4"/>
<path d="M344.379 376.039L337.996 375.989L301.797 375.708L301.941 372.257L342.715 373.865C342.715 373.865 342.855 373.928 343.053 374.045C343.84 374.753 344.32 375.413 344.376 375.989C344.377 376.005 344.379 376.023 344.379 376.039Z" fill="#A6B7B9"/>
<path d="M322.888 363.42C322.88 363.628 321.839 363.714 320.811 364.374C319.766 365.009 319.231 365.905 319.04 365.821C318.85 365.78 319.168 364.538 320.428 363.76C321.68 362.97 322.935 363.229 322.888 363.42Z" fill="#17282F"/>
<path d="M327.34 365.301C327.385 365.504 326.483 365.85 325.769 366.725C325.031 367.577 324.845 368.526 324.639 368.517C324.443 368.548 324.308 367.328 325.215 366.258C326.113 365.181 327.337 365.104 327.34 365.301Z" fill="#17282F"/>
<path d="M329.835 370.668C329.647 370.71 329.365 369.669 329.907 368.534C330.441 367.396 331.427 366.954 331.513 367.129C331.629 367.3 330.992 367.906 330.561 368.845C330.108 369.772 330.043 370.648 329.835 370.668Z" fill="#17282F"/>
<path d="M322.552 358.399C322.463 358.587 321.512 358.293 320.336 358.364C319.159 358.411 318.24 358.799 318.134 358.619C318.015 358.467 318.914 357.704 320.3 357.64C321.686 357.567 322.656 358.236 322.552 358.399Z" fill="#17282F"/>
<path d="M389.319 341.704L388.36 363.632C388.36 363.632 410.325 371.969 410.544 376.039L367.96 375.708L368.052 341.48L389.319 341.704Z" fill="#33535F"/>
<path d="M375.207 361.684C374.38 361.902 373.804 362.825 373.989 363.658C374.173 364.493 375.105 365.086 375.935 364.882C376.765 364.68 377.491 363.593 377.213 362.785C376.937 361.976 375.804 361.338 375.047 361.736" fill="#DADBD8"/>
<path d="M410.55 375.989H410.54C410.484 375.413 410.005 374.755 409.22 374.047C409.744 374.357 410.673 375.047 410.55 375.989Z" fill="white"/>
<path d="M410.544 376.039L404.16 375.989L410.544 376.039C410.543 376.023 410.542 376.005 410.54 375.989H410.551C410.548 376.005 410.547 376.023 410.544 376.039Z" fill="#F9ACB4"/>
<path d="M410.544 376.039L404.16 375.989L367.96 375.708L368.104 372.257L408.879 373.865C408.879 373.865 409.02 373.928 409.22 374.047C410.005 374.755 410.484 375.413 410.54 375.989C410.541 376.005 410.543 376.023 410.544 376.039Z" fill="#A6B7B9"/>
<path d="M389.051 363.42C389.044 363.628 388.001 363.714 386.975 364.374C385.929 365.009 385.393 365.905 385.204 365.821C385.012 365.78 385.331 364.538 386.591 363.76C387.843 362.97 389.099 363.229 389.051 363.42Z" fill="#17282F"/>
<path d="M393.503 365.301C393.549 365.504 392.647 365.85 391.933 366.725C391.195 367.577 391.008 368.526 390.801 368.517C390.605 368.548 390.472 367.328 391.379 366.258C392.276 365.181 393.5 365.104 393.503 365.301Z" fill="#17282F"/>
<path d="M395.997 370.668C395.809 370.71 395.528 369.669 396.071 368.534C396.605 367.396 397.589 366.954 397.676 367.129C397.792 367.3 397.156 367.906 396.724 368.845C396.271 369.772 396.205 370.648 395.997 370.668Z" fill="#17282F"/>
<path d="M388.715 358.399C388.627 358.587 387.675 358.293 386.499 358.364C385.323 358.411 384.404 358.799 384.297 358.619C384.177 358.467 385.077 357.704 386.463 357.64C387.848 357.567 388.819 358.236 388.715 358.399Z" fill="#17282F"/>
<path d="M302 53.7744C300.501 49.6731 299.019 45.5424 298.248 41.2464C297.477 36.9491 297.445 32.4424 298.818 28.2984C299.025 27.6704 300.84 23.4411 301.5 23.4824C301.972 23.5118 300.902 27.4344 301.156 27.8344C303.565 31.6504 304.352 36.3157 304.152 40.8251C303.952 45.3344 303.162 49.4131 302 53.7744Z" fill="#17282F"/>
<path d="M303.403 77.0195L301.808 37.4049C301.059 26.4836 305.949 16.6835 316.887 16.2355L318.075 16.2568C328.175 16.4328 336.445 24.3329 337.084 34.4129C337.685 43.9276 338.232 54.4955 338.08 59.5982C337.768 70.0982 327.235 71.5489 327.235 71.5489C327.211 71.5502 327.684 79.1595 327.763 82.2422C327.763 82.2422 326.651 83.0502 316.869 83.3982C307.083 83.7448 303.403 77.0195 303.403 77.0195Z" fill="#F9A78D"/>
<path d="M327.235 71.5491C327.235 71.5491 320.607 71.8224 313.629 67.2677C313.629 67.2677 316.831 74.9651 327.327 74.2011L327.235 71.5491Z" fill="#F57F62"/>
<path d="M333.477 43.9504C333.492 44.7424 332.832 45.4078 332.004 45.4384C331.179 45.4678 330.496 44.8518 330.483 44.0584C330.468 43.2664 331.127 42.5998 331.953 42.5691C332.78 42.5398 333.464 43.1584 333.477 43.9504Z" fill="#17282F"/>
<path d="M334.434 40.2025C334.244 40.3945 333.122 39.5345 331.508 39.5105C329.896 39.4625 328.697 40.2732 328.525 40.0719C328.441 39.9839 328.637 39.6345 329.158 39.2678C329.673 38.9025 330.546 38.5532 331.55 38.5745C332.556 38.5985 333.394 38.9838 333.876 39.3705C334.365 39.7598 334.526 40.1172 334.434 40.2025Z" fill="#17282F"/>
<path d="M319.681 44.1972C319.492 44.3892 318.369 43.5292 316.756 43.5052C315.144 43.4585 313.945 44.2678 313.773 44.0678C313.689 43.9785 313.883 43.6291 314.407 43.2625C314.921 42.8971 315.793 42.5478 316.799 42.5692C317.804 42.5932 318.643 42.9785 319.123 43.3651C319.611 43.7545 319.773 44.1105 319.681 44.1972Z" fill="#17282F"/>
<path d="M324.596 52.9195C324.589 52.8275 325.596 52.6715 327.225 52.4928C327.637 52.4568 328.029 52.3808 328.103 52.1008C328.205 51.8048 328.041 51.3582 327.851 50.8755C327.48 49.8715 327.092 48.8182 326.685 47.7155C325.071 43.2169 323.909 39.5222 324.092 39.4582C324.273 39.3955 325.73 42.9901 327.344 47.4875C327.732 48.5955 328.103 49.6528 328.457 50.6648C328.604 51.1355 328.864 51.6715 328.643 52.2862C328.526 52.5915 328.219 52.8102 327.955 52.8769C327.688 52.9529 327.456 52.9528 327.252 52.9622C325.615 53.0208 324.6 53.0115 324.596 52.9195Z" fill="#17282F"/>
<path d="M319.756 39.8985C319.559 40.3225 317.972 39.9691 316.065 40.0265C314.157 40.0465 312.587 40.4599 312.372 40.0465C312.276 39.8479 312.579 39.4611 313.232 39.0931C313.88 38.7265 314.888 38.4118 316.032 38.3892C317.176 38.3665 318.196 38.6398 318.857 38.9812C319.525 39.3225 319.843 39.6972 319.756 39.8985Z" fill="#17282F"/>
<path d="M335.068 34.1623C334.824 34.5916 333.478 34.4943 331.956 34.8063C330.424 35.073 329.202 35.657 328.825 35.3463C328.656 35.1917 328.78 34.7903 329.268 34.3289C329.749 33.8703 330.616 33.3929 331.665 33.1929C332.714 32.9956 333.69 33.1236 334.298 33.3756C334.916 33.6263 335.172 33.9583 335.068 34.1623Z" fill="#17282F"/>
<path d="M302.527 45.1211C302.349 45.0398 295.348 42.8598 295.452 50.0452C295.556 57.2292 302.748 55.6425 302.757 55.4359C302.767 55.2305 302.527 45.1211 302.527 45.1211Z" fill="#F9A78D"/>
<path d="M300.404 52.7746C300.372 52.7532 300.279 52.8652 300.069 52.9652C299.864 53.0625 299.511 53.1319 299.133 52.9985C298.371 52.7305 297.715 51.5345 297.66 50.2399C297.632 49.5865 297.761 48.9626 297.985 48.4439C298.197 47.9146 298.531 47.5425 298.912 47.4679C299.292 47.3759 299.565 47.5999 299.656 47.8012C299.756 48.0012 299.712 48.1452 299.751 48.1572C299.771 48.1745 299.903 48.0332 299.84 47.7386C299.808 47.5959 299.721 47.4279 299.551 47.2919C299.377 47.1546 299.123 47.0866 298.856 47.1186C298.303 47.1653 297.812 47.6813 297.565 48.2519C297.288 48.8253 297.129 49.5266 297.16 50.2612C297.227 51.7079 297.988 53.0506 299.031 53.3359C299.539 53.4612 299.957 53.3025 300.173 53.1292C300.393 52.9492 300.428 52.7879 300.404 52.7746Z" fill="#F57F62"/>
<path d="M332.169 22.7933C333.317 22.1253 329.74 18.4427 326.853 17.2133C322.489 15.3547 315.868 14.3013 311.913 15.5239C307.152 16.9946 303.225 19.472 300.921 23.892C298.616 28.3093 297.829 33.4133 298.087 38.3906C298.164 39.9093 298.359 41.4893 299.2 42.756C300.24 44.32 302.189 45.2759 302.156 47.4679C302.144 48.2693 302.391 49.072 302.953 49.644C304.3 51.012 305.877 49.6599 306.585 48.3266C308.099 45.4759 308.196 42.1133 308.26 38.8853C308.305 36.5933 308.344 34.2506 307.647 32.0653C307.268 30.8759 306.676 29.7573 306.363 28.5493C306.051 27.3413 306.055 25.9613 306.789 24.952C306.908 24.788 307.107 24.58 307.359 24.348C309.351 22.5173 312.187 21.9173 314.757 22.7599C318.836 24.0959 325.793 26.0719 327.565 24.6573C330.115 22.6226 330.707 21.32 330.707 21.32L332.169 22.7933Z" fill="#17282F"/>
<path d="M325.64 57.2853C325.668 57.4013 325.273 57.6346 324.552 57.7252C323.839 57.8186 322.804 57.7106 321.796 57.2333C320.788 56.7519 320.052 56.0172 319.675 55.4039C319.289 54.7879 319.221 54.3346 319.328 54.2839C319.569 54.1586 320.44 55.5732 322.201 56.3812C323.937 57.2372 325.585 57.0199 325.64 57.2853Z" fill="#17282F"/>
<path d="M425.649 39.8036C425.649 39.8036 425.373 38.1249 424.543 38.1249C423.712 38.1249 422.468 38.5782 421.915 39.8036C421.361 41.0289 425.649 39.8036 425.649 39.8036Z" fill="#F9A78D"/>
<path d="M404.501 66.5307L405.331 53.288L407.959 39.6533C407.959 39.6533 410.035 37.4347 411.14 37.9507C412.247 38.4653 411.832 40.288 411.832 40.288C411.832 40.288 414.736 37.1506 415.843 37.8733C416.948 38.5946 416.535 40.288 416.535 40.288C416.535 40.288 419.161 36.8053 420.407 37.7653C421.652 38.724 420.407 40.288 420.407 40.288C420.407 40.288 422.055 55.5653 421.224 61.0227C420.395 66.48 415.747 68.5066 415.747 68.5066L413.539 77.0986L402.704 71.2013L404.501 66.5307Z" fill="#F9A78D"/>
<path d="M411.135 49.2051L352.28 48.5518V43.8424L411.135 42.1917V49.2051Z" fill="#FEE13E"/>
<path d="M473.282 53.8716L390.12 50.3582C389.082 47.5329 389.042 44.4742 390.058 41.1675L472.696 37.5249C476.502 41.4769 476.544 49.8036 473.282 53.8716Z" fill="#FEE13E"/>
<path d="M472.469 38.2852C472.469 38.2852 469.963 40.6319 470.06 45.7385C470.157 50.8465 472.673 52.9932 472.673 52.9932C472.673 52.9932 475.401 50.1105 475.005 44.9919C474.617 39.9879 472.469 38.2852 472.469 38.2852Z" fill="#DADBD8"/>
<path d="M469.145 53.8718C469.085 53.9238 468.353 53.2384 467.529 51.8531C466.712 50.4864 465.844 48.3264 465.889 45.8171C465.928 43.3597 466.552 41.1491 467.348 39.7411C468.129 38.3171 468.916 37.6651 468.967 37.7184C469.056 37.7931 468.421 38.5464 467.788 39.9584C467.14 41.3597 466.623 43.4624 466.584 45.8317C466.54 48.1744 467.28 50.2384 467.961 51.621C468.647 53.017 469.233 53.8038 469.145 53.8718Z" fill="#17282F"/>
<path d="M472.85 37.7118C472.94 37.7825 472.331 38.5612 471.668 39.9772C471.004 41.3799 470.345 43.4772 470.401 45.8439C470.44 48.2145 471.177 50.2851 471.889 51.6625C472.549 53.1078 473.396 53.5958 473.367 53.6692C473.352 53.7078 473.087 53.6625 472.707 53.3892C472.323 53.1185 471.878 52.5958 471.462 51.9038C470.608 50.5372 469.748 48.3678 469.708 45.8585C469.648 43.3492 470.428 41.1479 471.232 39.7519C472.037 38.3372 472.794 37.6598 472.85 37.7118Z" fill="#17282F"/>
<path d="M473.934 41.9797C473.826 41.7143 473.698 41.449 473.492 41.249C473.286 41.0503 472.99 40.9236 472.712 40.9836C472.433 41.0423 472.212 41.2809 472.133 41.5543C472.053 41.8276 472.101 42.1263 472.222 42.3836C472.524 42.9863 473.017 43.545 473.001 44.145C472.985 44.745 472.832 45.3423 472.881 45.941C472.9 46.1597 472.949 46.3836 473.076 46.5636C473.202 46.7436 473.421 46.8703 473.638 46.841C473.993 46.7917 474.17 46.389 474.253 46.0396C474.568 44.6956 474.456 43.257 473.934 41.9797Z" fill="white"/>
<path d="M390.105 50.6556C389.953 50.7422 388.911 48.6703 388.971 45.8796C389.005 43.0876 390.119 41.0516 390.268 41.1449C390.463 41.2196 389.692 43.2623 389.664 45.8916C389.603 48.5196 390.304 50.5862 390.105 50.6556Z" fill="#17282F"/>
<path d="M352.159 49.668C351.663 49.668 351.261 49.2667 351.261 48.7693V43.7893C351.261 43.2933 351.663 42.8906 352.159 42.8906C352.656 42.8906 353.057 43.2933 353.057 43.7893V48.7693C353.057 49.2667 352.656 49.668 352.159 49.668Z" fill="#FEE13E"/>
<path d="M352.159 49.6679C352.153 49.6106 352.396 49.6066 352.641 49.3613C352.756 49.2413 352.861 49.0546 352.86 48.8319C352.844 48.5226 352.828 48.2106 352.812 47.8959C352.788 47.0892 352.764 46.2666 352.737 45.4146C352.731 44.9346 352.724 44.4479 352.717 43.9506C352.764 43.5106 352.505 43.2573 352.159 43.2386C351.813 43.2573 351.553 43.5093 351.601 43.9506C351.595 44.4479 351.587 44.9346 351.58 45.4146C351.555 46.2666 351.531 47.0892 351.505 47.8959C351.491 48.2119 351.473 48.5226 351.457 48.8319C351.457 49.0546 351.561 49.2412 351.677 49.3626C351.923 49.6066 352.165 49.6106 352.159 49.6679C352.171 49.6986 351.907 49.8186 351.507 49.5719C351.321 49.4466 351.119 49.2079 351.071 48.8652C351.052 48.5439 351.035 48.2226 351.015 47.8959C350.991 47.0892 350.967 46.2666 350.94 45.4146C350.935 44.9346 350.928 44.4479 350.92 43.9506C350.895 43.7266 350.955 43.2599 351.195 43.0039C351.421 42.7212 351.785 42.5413 352.159 42.544C352.533 42.5426 352.897 42.7226 353.124 43.0039C353.363 43.2599 353.424 43.7266 353.397 43.9506C353.391 44.4479 353.384 44.9346 353.379 45.4146C353.352 46.2666 353.327 47.0892 353.303 47.8959C353.284 48.2226 353.267 48.5439 353.247 48.8652C353.199 49.2079 352.997 49.4466 352.812 49.5719C352.412 49.8186 352.147 49.6986 352.159 49.6679Z" fill="#17282F"/>
<path d="M362.379 59.529C362.379 59.529 361.127 44.0744 361.497 42.7197C361.924 41.1677 366.136 36.5917 367.625 36.4263C369.116 36.261 369.281 37.917 369.281 37.917C369.281 37.917 371.379 36.477 373.423 36.4144C375.597 36.3477 375.879 38.2623 375.879 38.2623C375.879 38.2623 377.093 37.3691 379.175 37.7437C380.052 37.9011 381.059 39.4597 381.059 39.4597C381.059 39.4597 383.243 38.517 384.281 39.4917C385.591 40.717 385.572 42.9077 385.572 42.9077C383.545 42.7584 381.708 44.1384 381.708 44.1384C381.708 44.1384 381.207 50.8344 380.379 54.1464C379.549 57.4597 376.275 60.1944 375.173 61.9104L374.304 73.3384L360.237 65.889L362.379 59.529Z" fill="#F9A78D"/>
<path d="M365.545 43.8825C365.365 43.9092 365.308 41.8531 366.709 39.8758C368.088 37.8811 370.04 37.2332 370.076 37.4105C370.172 37.5932 368.525 38.4558 367.277 40.2745C365.996 42.0678 365.751 43.9105 365.545 43.8825Z" fill="#F57F62"/>
<path d="M372.425 43.6156C372.264 43.6783 371.86 41.8383 373.007 39.949C373.568 39.0263 374.405 38.4182 375.071 38.1929C375.739 37.9569 376.18 38.0116 376.189 38.0916C376.241 38.2849 374.572 38.6263 373.597 40.3156C372.589 41.9436 372.639 43.6196 372.425 43.6156Z" fill="#F57F62"/>
<path d="M377.46 43.1011C377.28 43.0691 377.583 41.5998 378.897 40.4132C380.203 39.2158 381.693 39.0545 381.708 39.2358C381.761 39.4332 380.513 39.8625 379.365 40.9278C378.196 41.9705 377.651 43.1705 377.46 43.1011Z" fill="#F57F62"/>
<path d="M413.433 63.3346C415.784 60.5693 413.991 53.1533 413.991 53.1533C413.991 53.1533 417.312 52.048 418.141 48.728C418.971 45.408 417.312 44.856 417.312 44.856C416.759 45.132 411.641 48.4506 409.013 49.8346C406.385 51.2173 405.555 65.3013 405.555 65.3013" fill="#F9A78D"/>
<path d="M405.555 65.3013C405.508 65.2986 405.5 64.6412 405.557 63.4546C405.619 62.2679 405.74 60.5533 406 58.444C406.304 56.3413 406.569 53.8079 407.648 51.1173C407.805 50.7866 407.963 50.4493 408.212 50.1319C408.424 49.8133 408.868 49.5106 409.159 49.3786C409.796 49.0279 410.44 48.6533 411.093 48.2626C412.391 47.4653 413.732 46.6413 415.107 45.7959C415.799 45.3719 416.433 44.9573 417.156 44.5466L417.291 44.4706L417.421 44.528C418.056 44.808 418.347 45.316 418.529 45.8253C418.703 46.34 418.725 46.8586 418.699 47.3506C418.627 48.3293 418.408 49.2666 417.968 50.1066C417.08 51.7813 415.597 52.8613 414.084 53.428L414.272 53.0853C414.929 56.2173 414.999 58.896 414.652 60.7306C414.495 61.6506 414.167 62.3253 413.927 62.7573C413.635 63.1653 413.452 63.3533 413.433 63.3346C413.407 63.3133 413.543 63.0879 413.772 62.6733C413.956 62.2293 414.219 61.5746 414.323 60.6759C414.564 58.8973 414.411 56.2599 413.712 53.2226L413.655 52.9759L413.9 52.88C415.243 52.3493 416.628 51.3039 417.385 49.8093C417.768 49.0746 417.964 48.1933 418.023 47.316C418.1 46.4746 417.828 45.4719 417.203 45.1839L417.465 45.1653C416.841 45.5226 416.147 45.9706 415.475 46.3853C414.101 47.2413 412.757 48.0719 411.439 48.8479C410.78 49.2359 410.128 49.6106 409.476 49.9613C409.104 50.144 408.939 50.2639 408.728 50.5319C408.528 50.7773 408.376 51.0853 408.229 51.3839C407.181 53.8946 406.841 56.4466 406.488 58.5119C406.165 60.5999 405.971 62.3013 405.827 63.4773C405.687 64.6533 405.603 65.3039 405.555 65.3013Z" fill="#F57F62"/>
<path d="M303.442 186.91C303.442 186.91 305.078 254.018 303.442 262.201C301.805 270.385 299.077 304.212 299.077 329.309C299.077 354.406 300.13 360.126 300.13 360.126H324.494C324.494 360.126 326.177 312.408 333.698 284.808C340.684 259.17 348.726 220.19 348.726 203.277C348.726 186.364 348.726 180.362 348.726 180.362H305.625L303.442 186.91Z" fill="#17282F"/>
<path d="M362.367 180.362C362.367 180.362 387.927 251.289 389.563 272.022C391.2 292.754 391.283 360.126 391.283 360.126H366.055L362.686 278.752L343.27 226.029V180.362H362.367Z" fill="#17282F"/>
<path d="M348.726 218.553C348.772 218.565 348.658 219.253 348.414 220.485C348.15 221.848 347.81 223.604 347.401 225.712C346.532 230.253 345.374 236.292 344.097 242.967C342.792 249.704 341.566 255.797 340.59 260.191C340.102 262.387 339.677 264.157 339.36 265.376C339.033 266.593 338.83 267.259 338.784 267.248C338.737 267.236 338.85 266.549 339.097 265.316C339.36 263.955 339.701 262.199 340.109 260.091C340.98 255.548 342.136 249.511 343.414 242.833C344.718 236.097 345.942 230.005 346.92 225.612C347.408 223.416 347.832 221.644 348.15 220.425C348.477 219.209 348.68 218.543 348.726 218.553Z" fill="#33535F"/>
<path d="M372.045 211.683H377.449C377.449 211.683 378.688 192.972 375.564 180.363C372.439 167.755 356.501 112.84 356.501 112.84L338.845 83.6613L329.383 79.412L360.481 183.663L372.045 211.683Z" fill="#0693E3"/>
<path d="M375.548 211.683H372.045L360.26 180.636L362.367 180.363L364.437 177.764C365.915 175.913 364.935 168.515 364.111 166.296L348.927 123.127C350.561 122.227 352.381 121.105 352.381 121.105C352.381 121.105 368.731 169.543 371.437 182.243C374.144 194.941 375.548 211.683 375.548 211.683Z" fill="#20353D"/>
<path d="M299.708 78.2826L301.176 69.0012L327.248 80.7052V75.0186L338.767 94.2372L364.111 166.296C364.935 168.515 365.915 175.913 364.437 177.764L362.367 180.363L334.9 183.915L308.848 89.8679L299.708 78.2826Z" fill="#DADBD8"/>
<path d="M304.02 218.553L303.962 214.181C303.962 214.181 303.96 214.181 303.962 214.181C303.982 215.619 304.002 217.081 304.02 218.553Z" fill="#A7A9A8"/>
<path d="M335.613 220.661C322.793 220.661 304.029 218.554 304.02 218.553C304.001 217.081 303.981 215.618 303.961 214.181C312.737 215.085 326.604 216.324 336.641 216.324C339.132 216.324 341.387 216.248 343.269 216.072V220.268C341.244 220.548 338.588 220.661 335.613 220.661Z" fill="#0F191D"/>
<path d="M343.27 220.268V216.072C346.032 215.812 347.995 215.337 348.727 214.57C351.954 211.193 354.638 194.832 355.279 181.28L356.776 181.086C356.456 188.826 353.539 209.486 353.539 209.486C353.539 209.486 353.199 216.78 346.05 219.625C345.362 219.898 344.418 220.109 343.27 220.268Z" fill="#0F191D"/>
<path d="M355.279 181.28C355.448 177.725 355.476 174.365 355.336 171.481L355.655 169.977C356.156 172.862 356.661 176.352 356.792 179.26C356.813 179.733 356.807 180.352 356.776 181.086L355.279 181.28Z" fill="#8F9192"/>
<path d="M330.293 89.0398C330.293 89.0398 342.215 129.621 342.113 129.924C342.013 130.226 355.335 171.488 355.335 171.488L357.955 159.082L339.427 97.2225L331.973 88.0918L330.293 89.0398Z" fill="#FEE13E"/>
<path d="M291.961 82.0692C279.731 89.5172 279.096 101.087 284.539 114.332C285.44 116.529 287.173 120.312 288.379 122.872C293.641 134.056 304.561 152.309 304.56 156.58C304.557 166.624 295.561 213.255 295.561 213.255C295.561 213.255 344.327 219.176 348.727 214.571C353.125 209.965 356.515 181.237 355.1 168.381C353.539 154.197 346.231 130.205 343.269 121.325C341.491 115.983 335.604 102.675 328.587 93.9532C323.339 87.4319 317.089 81.7839 310.087 77.1959L299.708 70.3946L297.567 77.5959C297.567 77.5959 294.711 80.3959 291.961 82.0692Z" fill="#0693E3"/>
<path d="M339.427 85.305C340.432 85.2503 385.004 99.8717 382.429 98.7943L383.619 97.553L399.681 73.3383L414.313 82.0143C414.313 82.0143 399.796 109.754 397.397 114.1C395.251 117.993 391.101 121.114 385.572 121.105C382.304 121.1 354.388 116.433 354.388 116.433L339.427 85.305Z" fill="#0693E3"/>
<path d="M357.357 68.6438L360.808 62.5371L376.332 71.3678L373.912 78.0918L357.357 68.6438Z" fill="#DADBD8"/>
<path d="M348.727 138.961C348.727 138.961 348.693 138.952 348.628 138.933C348.337 137.894 348.045 136.872 347.757 135.872L348.727 138.961Z" fill="#CC4341"/>
<path d="M348.628 138.933C347.535 138.622 337.543 135.789 328.571 133.713C319.065 131.512 289.071 114.804 289.071 114.804L318.413 109.506L344.449 125.337L347.757 135.872C348.045 136.872 348.337 137.894 348.628 138.933Z" fill="#20353D"/>
<path d="M289.072 114.804C288.702 114.522 334.027 130.642 343.262 127.736C352.494 124.83 355.494 115.672 358.796 110.04C364.839 99.7276 375.548 79.233 375.548 79.233L356.323 68.2596L337.222 100.217C337.222 100.217 303.48 86.305 300.371 85.397C297.26 84.489 287.652 83.2436 282.952 94.4743C277.743 106.918 289.072 114.804 289.072 114.804Z" fill="#0693E3"/>
<path d="M289.071 114.804C289.089 114.812 288.94 114.744 288.732 114.581C288.515 114.424 288.196 114.18 287.8 113.832C287.009 113.138 285.867 112.053 284.669 110.404C283.489 108.762 282.236 106.51 281.689 103.605C281.501 102.889 281.511 102.118 281.439 101.332C281.393 100.542 281.509 99.7278 281.545 98.8865C281.729 98.0665 281.832 97.1958 282.103 96.3465C282.423 95.5158 282.619 94.6051 283.064 93.7731C283.793 92.0398 284.891 90.3505 286.293 88.8171C287.709 87.2945 289.572 86.0318 291.729 85.3132C293.879 84.5772 296.297 84.4132 298.704 84.7745C299.911 84.9318 301.119 85.3385 302.263 85.7918C303.421 86.2358 304.597 86.6892 305.792 87.1492C315.311 90.8985 325.911 95.2291 337.345 99.9158L336.943 100.05C342.848 90.1558 349.3 79.3478 356.024 68.0825L356.199 67.7904L356.493 67.9598C358.688 69.2118 361.039 70.5518 363.407 71.9025C367.624 74.3118 371.788 76.6891 375.719 78.9331L376.008 79.0984L375.855 79.3931C372.077 86.5891 368.357 93.5558 364.701 100.22C362.869 103.55 361.055 106.805 359.215 109.954C357.399 113.077 355.96 116.365 354.031 119.286C352.156 122.228 349.743 124.798 346.848 126.465C345.377 127.249 343.912 127.965 342.265 128.244C340.645 128.46 339.067 128.356 337.532 128.216C331.401 127.536 325.875 126.094 320.857 124.801C310.839 122.113 302.921 119.502 297.471 117.701C292.027 115.884 289.071 114.804 289.071 114.804C289.067 114.777 289.267 114.829 289.633 114.938C290.028 115.061 290.571 115.229 291.268 115.446C292.729 115.916 294.839 116.592 297.549 117.46C303.021 119.186 310.959 121.728 320.975 124.35C325.987 125.613 331.521 127.024 337.585 127.669C339.096 127.802 340.656 127.893 342.183 127.682C343.669 127.433 345.16 126.714 346.555 125.96C349.344 124.338 351.677 121.848 353.513 118.95C355.404 116.074 356.824 112.808 358.66 109.63C360.488 106.486 362.293 103.23 364.117 99.9011C367.761 93.2358 371.472 86.2665 375.243 79.0731L375.377 79.5318C371.444 77.2891 367.28 74.9131 363.061 72.5065C360.695 71.1558 358.344 69.8131 356.151 68.5611L356.619 68.4385C349.881 79.6945 343.419 90.4958 337.501 100.384L337.357 100.624L337.099 100.517C325.676 95.8078 315.087 91.4451 305.591 87.6598C304.401 87.1958 303.229 86.7398 302.076 86.2904C300.919 85.8291 299.8 85.4451 298.624 85.2838C296.296 84.9225 293.953 85.0691 291.88 85.7691C289.796 86.4505 287.996 87.6531 286.612 89.1211C285.243 90.5998 284.156 92.2398 283.428 93.9384C282.983 94.7531 282.787 95.6411 282.465 96.4545C282.192 97.2838 282.088 98.1318 281.897 98.9345C281.857 99.7545 281.735 100.552 281.772 101.322C281.836 102.092 281.817 102.846 281.995 103.55C282.499 106.401 283.703 108.636 284.844 110.28C286 111.932 287.109 113.034 287.873 113.749C288.255 114.11 288.56 114.366 288.765 114.538C288.905 114.66 288.991 114.734 289.071 114.804Z" fill="#17282F"/>
<path d="M310.867 183.107L315.067 174.604L344.449 175.12L341.184 183.915L310.867 183.107Z" fill="#0693E3"/>
<path d="M310.866 183.106C310.884 183.096 311.102 183.09 311.506 183.09C311.974 183.093 312.55 183.096 313.253 183.101C314.841 183.12 316.996 183.146 319.652 183.18C325.074 183.252 332.582 183.362 341.192 183.577L340.866 183.797C341.857 181.12 342.902 178.297 343.977 175.394C344.026 175.26 344.076 175.128 344.124 174.998L344.442 175.466C332.614 175.257 322.049 175.024 315.062 174.828L315.268 174.702C313.942 177.258 312.873 179.318 312.092 180.825C311.733 181.504 311.441 182.056 311.206 182.5C311 182.886 310.884 183.096 310.866 183.106C310.848 183.117 310.926 182.932 311.096 182.558C311.297 182.118 311.549 181.569 311.858 180.896C312.598 179.324 313.609 177.172 314.865 174.504L314.924 174.377L315.07 174.378C322.06 174.428 332.628 174.565 344.454 174.772L344.945 174.781L344.774 175.241C344.726 175.369 344.677 175.502 344.628 175.636C343.546 178.536 342.496 181.357 341.5 184.033L341.416 184.26L341.174 184.253C332.392 184.004 324.741 183.709 319.353 183.494C316.741 183.386 314.622 183.298 313.061 183.234C312.394 183.202 311.848 183.176 311.404 183.154C311.033 183.132 310.849 183.117 310.866 183.106Z" fill="#17282F"/>
<path d="M330.483 96.4677C330.387 96.6344 322.94 92.545 313.852 87.3344C304.762 82.121 297.471 77.761 297.567 77.5957C297.662 77.429 305.107 81.5184 314.198 86.7304C323.286 91.9411 330.578 96.3011 330.483 96.4677Z" fill="#17282F"/>
<path d="M340.643 160.629C340.631 160.82 333.551 160.523 324.833 159.965C316.113 159.407 309.055 158.799 309.068 158.607C309.08 158.415 316.157 158.713 324.879 159.272C333.596 159.829 340.656 160.437 340.643 160.629Z" fill="#17282F"/>
<path d="M400.6 73.9849L403.551 69.0009L415.291 75.8556L413.007 81.2622L400.6 73.9849Z" fill="#DADBD8"/>
<path d="M385.488 109.045C385.368 109.172 383.61 107.342 382.623 104.44C381.612 101.545 381.874 99.0224 382.046 99.0478C382.256 99.0438 382.314 101.457 383.28 104.214C384.215 106.981 385.656 108.918 385.488 109.045Z" fill="#17282F"/>
<path d="M356.78 113.799C356.964 113.747 358.203 117.475 359.544 122.125C360.887 126.777 361.824 130.591 361.641 130.644C361.456 130.696 360.219 126.969 358.877 122.317C357.535 117.667 356.596 113.853 356.78 113.799Z" fill="#17282F"/>
<path d="M338.784 110.324C338.664 110.452 337.003 108.485 336.508 105.449C335.983 102.417 336.91 100.016 337.063 100.097C337.271 100.142 336.692 102.485 337.194 105.334C337.652 108.189 338.966 110.213 338.784 110.324Z" fill="#17282F"/>
<path d="M343.129 186.589L312.703 185.73L313.205 183.24C314.751 183.304 316.821 183.389 319.353 183.494C324.741 183.709 332.392 184.004 341.175 184.253L341.416 184.26L341.5 184.033C342.391 181.642 343.324 179.134 344.284 176.558L343.129 186.589Z" fill="#20353D"/>
<path d="M341.416 184.26L341.174 184.253C332.392 184.004 324.741 183.709 319.353 183.494C316.821 183.389 314.75 183.304 313.205 183.24L313.221 183.156L341.184 183.914L344.449 175.12L344.284 176.558C343.324 179.134 342.39 181.642 341.5 184.033L341.416 184.26Z" fill="#0F191D"/>
<path d="M326.604 86.3209L326.924 86.6662L330.293 89.0396L331.973 88.0916L330.876 84.3716L327.327 81.7129L326.604 86.3209Z" fill="#FEE13E"/>
<path d="M331.147 81.7133C331.236 81.6973 331.513 82.9079 331.897 84.9253L332.005 85.4932L331.52 85.152C330.344 84.3266 328.827 83.2319 327.128 81.9799L327.657 81.7639C327.496 82.8106 327.327 83.9199 327.152 85.0719C327.043 85.7613 326.935 86.4346 326.831 87.0853L326.757 87.5439L326.344 87.3399C323.788 86.0866 321.552 84.9559 319.964 84.1199C318.379 83.2839 317.439 82.7412 317.476 82.6652C317.514 82.5866 318.521 82.9879 320.161 83.7146C321.801 84.4413 324.074 85.4959 326.642 86.7239L326.155 86.9786C326.255 86.3292 326.359 85.6532 326.465 84.9652C326.651 83.8146 326.829 82.7052 326.997 81.6599L327.087 81.1106L327.527 81.4466C329.207 82.7266 330.683 83.8759 331.805 84.7719L331.429 84.9986C331.167 82.9626 331.055 81.7266 331.147 81.7133Z" fill="#17282F"/>
</g>
<defs>
<clipPath id="clip0_511_7">
<rect width="645.08" height="619.72" fill="white" transform="translate(3 15)"/>
</clipPath>
</defs>
</svg>
