<svg width="667" height="650" viewBox="0 0 667 650" fill="none" xmlns="http://www.w3.org/2000/svg">
<g clip-path="url(#clip0_495_2060)">
<path d="M0 513.924H666.667V513.591H0V513.924Z" fill="#EEEEEE"/>
<path d="M60.4029 77.3295C56.39 77.3295 53.1253 80.5935 53.1253 84.6068V446.515C53.1253 450.528 56.39 453.792 60.4029 453.792H317.868C321.88 453.792 325.144 450.528 325.144 446.515V84.6068C325.144 80.5935 321.88 77.3295 317.868 77.3295H60.4029ZM317.868 454.125H60.4029C56.2061 454.125 52.792 450.712 52.792 446.515V84.6068C52.792 80.4108 56.2061 76.9962 60.4029 76.9962H317.868C322.062 76.9962 325.477 80.4108 325.477 84.6068V446.515C325.477 450.712 322.062 454.125 317.868 454.125Z" fill="#ECECEC"/>
<path d="M348.799 77.3295C344.787 77.3295 341.523 80.5935 341.523 84.6068V446.515C341.523 450.528 344.787 453.792 348.799 453.792H606.264C610.277 453.792 613.541 450.528 613.541 446.515V84.6068C613.541 80.5935 610.277 77.3295 606.264 77.3295H348.799ZM606.264 454.125H348.799C344.604 454.125 341.189 450.712 341.189 446.515V84.6068C341.189 80.4108 344.604 76.9962 348.799 76.9962H606.264C610.46 76.9962 613.875 80.4108 613.875 84.6068V446.515C613.875 450.712 610.46 454.125 606.264 454.125Z" fill="#EEEEEE"/>
<path d="M0 513.924H666.667V513.591H0V513.924Z" fill="#EEEEEE"/>
<path d="M555.705 535.052H599.868V535.385H555.705V535.052Z" fill="#EEEEEE"/>
<path d="M430.036 538.67H441.627V539.003H430.036V538.67Z" fill="#EEEEEE"/>
<path d="M528.781 522.67H554.371V523.003H528.781V522.67Z" fill="#EEEEEE"/>
<path d="M69.9453 525.244H127.537V524.911H69.9453V525.244Z" fill="#EEEEEE"/>
<path d="M175.294 530.873H300.196V530.54H175.294V530.873Z" fill="#EEEEEE"/>
<path d="M205.823 215.296C222.216 215.339 268.181 222.011 268.181 197.319C268.181 176.34 245.717 177.884 245.717 177.884C245.717 177.884 246.365 159.707 226.351 157.29C205.823 154.811 202.724 174.451 202.724 174.451C202.724 174.451 167.089 161.944 172.512 193.328C172.512 193.328 152.759 189.84 152.759 203.968C152.759 219.758 189.943 215.254 205.823 215.296Z" fill="#F4F4F4"/>
<path d="M185.168 402.003C218.443 402.103 311.74 417.383 311.74 360.83C311.74 312.775 266.141 316.312 266.141 316.312C266.141 316.312 267.46 274.678 226.835 269.142C185.168 263.464 178.879 308.45 178.879 308.45C178.879 308.45 106.552 279.804 117.558 351.688C117.558 351.688 77.4639 343.698 77.4639 376.059C77.4639 405.604 127.838 404.127 163.853 402.648C171.921 402.316 179.268 401.986 185.168 402.003Z" fill="#F8F8F9"/>
<path d="M309.46 407.008C291.052 407.063 239.438 415.516 239.438 384.23C239.438 357.647 264.664 359.603 264.664 359.603C264.664 359.603 263.934 336.571 286.409 333.508C309.46 330.367 312.94 355.254 312.94 355.254C312.94 355.254 352.95 339.407 346.862 379.174C346.862 379.174 369.042 374.754 369.042 392.656C369.042 409 341.176 408.183 321.252 407.366C316.788 407.182 312.722 406.999 309.46 407.008Z" fill="#F4F4F4"/>
<path d="M412.195 275.939C430.555 275.984 482.033 283.024 482.033 256.968C482.033 234.828 456.873 236.457 456.873 236.457C456.873 236.457 457.601 217.276 435.185 214.725C412.195 212.109 408.724 232.836 408.724 232.836C408.724 232.836 368.816 219.637 374.889 252.757C374.889 252.757 352.767 249.076 352.767 263.985C352.767 277.597 380.559 276.916 400.431 276.236C404.884 276.083 408.939 275.931 412.195 275.939Z" fill="#F4F4F4"/>
<path d="M357.453 513.435L384.282 339.495L464.07 238.761L491.272 124.04C491.272 124.04 557.21 187.757 559.038 189.429C560.868 191.103 575.384 363.085 577.4 365.711C579.417 368.336 598.361 398.327 598.361 398.327L607.174 512.909L357.453 513.435Z" fill="#FCFDFD"/>
<path d="M357.453 513.435L395.69 363.135L449.872 311.489L460.014 376.86L473.66 302.501L489.156 327.853L485.792 240.44L488.482 212.473L497.574 231.039L491.272 124.04L537.242 125.104L546.81 175.608L559.038 189.429L577.4 365.711L598.361 398.327L607.174 512.909L357.453 513.435Z" fill="#EEEEEE"/>
<path d="M492.473 124.62L519.778 212.977L536.05 225.907C536.05 225.907 544.632 261.819 544.533 259.523C544.436 257.226 543.548 216.992 543.548 216.992L547.761 184.163L537.129 125.684L492.473 124.62Z" fill="#F8F8F9"/>
<path d="M577.4 365.711L583.773 395.416L598.361 398.327L577.4 365.711Z" fill="#F8F8F9"/>
<path d="M474.75 453.645C503.916 453.732 585.685 467.124 585.685 417.557C585.685 375.443 545.721 378.541 545.721 378.541C545.721 378.541 546.876 342.052 511.27 337.2C474.751 332.223 469.24 371.651 469.24 371.651C469.24 371.651 405.849 346.545 415.496 409.548C415.496 409.548 380.354 402.544 380.354 430.907C380.354 462.603 446.501 453.56 474.75 453.645Z" fill="#F8F8F9"/>
<path d="M139.408 524.911H147.852V525.244H139.408V524.911Z" fill="#EEEEEE"/>
<path d="M594.704 557.983C594.704 566.321 478.961 573.08 336.185 573.08C193.409 573.08 77.666 566.321 77.666 557.983C77.666 549.645 193.409 542.885 336.185 542.885C478.961 542.885 594.704 549.645 594.704 557.983Z" fill="#F8F8F9"/>
<path d="M537.8 130.499C537.8 143.38 527.36 153.819 514.48 153.819C513.96 153.819 513.44 153.807 512.92 153.765C500.787 152.965 491.173 142.859 491.173 130.499C491.173 118.14 500.787 108.032 512.92 107.232C513.44 107.192 513.96 107.179 514.48 107.179C527.36 107.179 537.8 117.619 537.8 130.499Z" fill="#FFC700"/>
<path d="M512.92 153.766C500.787 152.966 491.173 142.859 491.173 130.499C491.173 118.14 500.787 108.032 512.92 107.232C525.067 108.032 534.68 118.14 534.68 130.499C534.68 142.859 525.067 152.966 512.92 153.766ZM512.873 113.052C503.237 113.052 495.427 120.863 495.427 130.499C495.427 140.135 503.237 147.946 512.873 147.946C522.508 147.946 530.32 140.135 530.32 130.499C530.32 120.863 522.508 113.052 512.873 113.052Z" fill="#FEE13E"/>
<path d="M512.873 147.945C503.237 147.945 495.427 140.135 495.427 130.499C495.427 120.863 503.237 113.052 512.873 113.052C522.508 113.052 530.32 120.863 530.32 130.499C530.32 140.135 522.508 147.945 512.873 147.945ZM505.499 135.225L504.185 138.82C505.857 139.924 508.444 140.793 511.247 141.053L511.167 144.244H514.067L514.145 141.053C518.919 140.648 521.569 138.068 520.895 134.211C520.311 130.876 517.257 129.832 514.453 129.048L514.575 123.944C516.171 124.117 517.765 124.612 519.16 125.452L520.299 121.856C518.755 120.988 516.768 120.405 514.673 120.204L514.748 116.983H511.848L511.768 120.173C506.9 120.523 504.195 123.132 504.869 126.989C505.484 130.499 508.631 131.572 511.469 132.384L511.34 137.284C509.304 137.08 507.235 136.356 505.499 135.225ZM514.255 137.196L514.343 133.224C515.423 133.601 516.181 134.124 516.329 134.964C516.521 136.067 515.764 136.877 514.255 137.196ZM511.555 128.236C510.435 127.801 509.619 127.28 509.461 126.38C509.297 125.277 510.068 124.38 511.665 124.061L511.555 128.236Z" fill="#FFC700"/>
<path d="M514.067 144.244H511.167L511.247 141.053C508.444 140.793 505.858 139.924 504.186 138.82L505.499 135.225C507.235 136.356 509.304 137.08 511.34 137.284L511.47 132.384C508.631 131.572 505.484 130.499 504.87 126.989C504.195 123.132 506.9 120.523 511.768 120.173L511.848 116.983H514.748L514.674 120.204C516.768 120.405 518.755 120.988 520.299 121.856L519.16 125.452C517.766 124.612 516.171 124.117 514.575 123.944L514.454 129.048C517.258 129.832 520.311 130.876 520.895 134.211C521.57 138.068 518.919 140.648 514.146 141.053L514.067 144.244ZM514.343 133.224L514.255 137.196C515.764 136.877 516.522 136.067 516.33 134.964C516.182 134.124 515.423 133.601 514.343 133.224ZM511.666 124.061C510.068 124.38 509.298 125.277 509.462 126.38C509.619 127.28 510.435 127.801 511.555 128.236L511.666 124.061Z" fill="#E5EFFA"/>
<path d="M319.593 558.047H398.486V344.672H319.593V558.047Z" fill="#0693E3"/>
<path d="M319.573 542.916V513.924H319.593V542.915L319.573 542.916ZM319.593 513.591H319.573V453.933C319.58 453.931 319.587 453.929 319.593 453.928V513.591ZM319.573 453.591V407.296C319.58 407.296 319.587 407.296 319.593 407.296V453.585C319.587 453.587 319.58 453.588 319.573 453.591ZM319.573 353.288V344.465H325.144V344.672H319.593V353.284C319.587 353.285 319.58 353.287 319.573 353.288ZM341.867 344.672H341.523V344.465H341.867V344.672ZM341.189 344.672H325.477V344.465H341.189V344.672Z" fill="#CECDCC"/>
<path d="M319.573 453.933V453.591C319.58 453.588 319.587 453.587 319.593 453.585V453.928C319.587 453.93 319.58 453.931 319.573 453.933ZM325.477 344.672H325.144V344.465H325.477V344.672Z" fill="#BDBCBA"/>
<path d="M341.189 344.672H341.523V344.465H341.189V344.672Z" fill="#BDBCBA"/>
<path d="M319.573 513.924H319.593V513.591H319.573V513.924Z" fill="#BDBCBA"/>
<path d="M319.593 407.296C319.587 407.296 319.58 407.296 319.573 407.296V353.288C319.58 353.287 319.587 353.285 319.593 353.284V407.296Z" fill="#C1C0BE"/>
<path d="M341.867 558.089H319.573V542.916L319.593 542.915V558.047H341.867V558.089Z" fill="#C5C4C2"/>
<path d="M341.867 558.047H319.593V344.672H341.867V558.047Z" fill="#395EB4"/>
<path d="M240.595 558.047H319.488V430.006H240.595V558.047Z" fill="#0693E3"/>
<path d="M240.595 557.912H264.302V430.005H240.595V557.912Z" fill="#395EB4"/>
<path d="M161.64 558.047H240.533V457.192H161.64V558.047Z" fill="#0693E3"/>
<path d="M161.64 557.912H185.107V457.192H161.64V557.912Z" fill="#395EB4"/>
<path d="M82.7246 558.049H161.616V484.385H82.7246V558.049Z" fill="#0693E3"/>
<path d="M82.7285 484.385H105.022V484.312H82.7285V484.385Z" fill="#CECDCC"/>
<path d="M82.7285 557.912H105.022V484.385H82.7285V557.912Z" fill="#395EB4"/>
<path d="M297.223 179.835C293.476 184.363 289.619 188.801 285.756 193.232L282.838 196.536L280.22 199.456C279.143 200.728 278.434 202.321 278.182 204.06L277.303 212.668C277.007 215.587 276.724 218.507 276.382 221.424C275.736 227.26 275.067 233.095 274.283 238.924C274.008 240.967 272.13 242.4 270.086 242.125C268.283 241.884 266.956 240.391 266.858 238.64C266.519 232.773 266.295 226.913 266.096 221.053C265.976 218.123 265.918 215.195 265.844 212.267L265.646 203.331C265.7 199.22 267.058 195.087 269.408 191.616L272.311 187.713L274.943 184.216C278.479 179.577 282.02 174.948 285.672 170.408C288.254 167.201 292.945 166.692 296.153 169.273C299.361 171.855 299.869 176.548 297.288 179.755L297.223 179.835Z" fill="#0693E3"/>
<path d="M265.932 239.315L261.059 247.588L272.277 248.727L274.251 240.327C274.485 239.331 273.845 238.327 272.839 238.155C270.979 237.836 268.069 237.704 265.932 239.315Z" fill="#F9A78D"/>
<path d="M261.059 247.588L261.571 250.515C261.823 251.962 263.08 253.015 264.549 253.012L268.203 253.002C269.316 252.999 270.336 252.383 270.859 251.4L272.277 248.727L261.059 247.588Z" fill="#F9A78D"/>
<path d="M265.139 233.112L275.937 233.482L275.241 239.934L266.12 239.228L265.139 233.112Z" fill="#0693E3"/>
<path d="M275.241 239.934L274.299 239.86L266.12 239.228L266.113 239.183L265.139 233.112L275.937 233.482L275.241 239.934Z" fill="#799BD7"/>
<path d="M276.029 300.842L274.255 303.508L272.897 300.754L276.131 258.89C276.644 252.235 274.399 246.766 266.12 246.564C258.376 246.378 253.676 251.667 253.136 258.311L249.745 300.1L247.891 302.759L246.625 300.012L250.037 258.234C250.668 250.51 254.096 244.312 266.275 244.606C278.475 244.9 279.835 251.227 279.242 258.968L276.029 300.842Z" fill="#1D2A30"/>
<path d="M241.714 272.604L239.572 272.594C235.114 272.574 231.335 275.874 230.756 280.295L226.81 310.464L240.7 310.959L241.714 272.604Z" fill="#1D2A30"/>
<path d="M233.915 310.717L226.81 310.464L230.756 280.295C231.334 275.887 235.09 272.593 239.531 272.593C239.544 272.593 239.559 272.593 239.572 272.593L241.407 272.603C237.627 272.667 234.568 275.751 234.511 279.635L234.016 303.817C234.012 304.033 234.019 304.247 234.035 304.459L233.915 310.717Z" fill="#45555C"/>
<path d="M280.933 301.196L277.796 301.107L278.101 259.244C278.149 252.588 275.523 247.12 267.229 246.919C259.472 246.731 255.141 252.022 255.067 258.666L254.599 300.454L251.472 300.366L251.963 258.587C252.053 250.864 255.048 244.666 267.247 244.96C279.468 245.255 281.269 251.582 281.217 259.323L280.933 301.196Z" fill="#1D2A30"/>
<path d="M295.655 312.589L233.915 310.757L234.511 279.635C234.569 275.647 237.792 272.501 241.713 272.604L286.664 273.78C291.741 273.913 295.841 278.192 295.82 283.345L295.655 312.589Z" fill="#1D2A30"/>
<path d="M234.034 304.459C234.018 304.247 234.012 304.034 234.016 303.818L234.51 279.635L234.034 304.459Z" fill="#929C9E"/>
<path d="M285.248 312.28L240.7 310.959C237.163 310.854 234.3 307.999 234.035 304.459L234.511 279.635C234.568 275.71 237.691 272.602 241.527 272.602C241.589 272.602 241.651 272.602 241.713 272.604L251.795 272.868L251.472 300.366L252.929 303.114L254.599 300.454L254.907 272.95L277.996 273.554L277.796 301.107L279.345 303.863L280.933 301.196L281.12 273.635L282.927 273.683C283.017 286.575 284.675 300.322 285.248 312.28Z" fill="#758288"/>
<path d="M281.12 273.635L277.996 273.553L278.101 259.244C278.101 259.179 278.101 259.115 278.101 259.049C278.097 253.459 276.172 248.739 270.532 247.336C269.546 247.092 268.449 246.948 267.229 246.919C267.096 246.916 266.962 246.913 266.83 246.913C265.097 246.913 263.541 247.192 262.172 247.701C261.82 247.832 261.481 247.977 261.154 248.137C257.241 250.055 255.118 254.031 255.066 258.665L254.906 272.949L251.794 272.868L251.962 258.587C252.05 251.04 254.912 244.949 266.425 244.949C266.694 244.949 266.968 244.953 267.246 244.96C279.301 245.251 281.218 251.409 281.217 259.005C281.217 259.111 281.217 259.216 281.217 259.323L281.12 273.635Z" fill="#5D6C72"/>
<path d="M279.346 303.863L277.796 301.107L277.996 273.553L281.12 273.635L280.933 301.196L279.346 303.863ZM252.929 303.113L251.472 300.365L251.795 272.868L254.907 272.949L254.599 300.453L252.929 303.113Z" fill="#A1A8AA"/>
<path d="M255.659 284.304L250.513 284.166L250.536 282.228L255.68 282.366L255.659 284.304Z" fill="#1D2A30"/>
<path d="M255.52 296.867L250.363 296.723L250.387 294.776L255.541 294.92L255.52 296.867Z" fill="#1D2A30"/>
<path d="M282.101 285.018L276.935 284.879L276.949 282.938L282.113 283.076L282.101 285.018Z" fill="#1D2A30"/>
<path d="M282.019 297.607L276.841 297.462L276.856 295.512L282.031 295.656L282.019 297.607Z" fill="#1D2A30"/>
<path d="M272.256 285.857L261.209 285.557L261.251 281.413L272.291 281.708L272.256 285.857Z" fill="white"/>
<path d="M319.921 133.049C320.345 132.968 320.799 133.411 320.936 134.053C321.075 134.696 320.852 135.299 320.427 135.38C320.001 135.461 319.549 135.019 319.412 134.376C319.24 133.712 319.496 133.129 319.921 133.049Z" fill="#1D2A30"/>
<path d="M319.997 133.587C320.431 133.384 320.831 132.931 321.004 132.484C320.633 132.832 320.121 133.026 319.613 133.014C319.808 133.124 319.987 133.363 319.997 133.587Z" fill="#1D2A30"/>
<path d="M320.848 140.112C321.968 140.159 323.051 139.707 323.805 138.88C322.172 137.461 320.741 135.827 319.549 134.023L320.848 140.112Z" fill="#F9A78D"/>
<path d="M316.351 131.997C316.968 131.223 317.922 130.792 318.912 130.844L319.039 130.863C319.256 130.859 319.43 130.68 319.426 130.463C319.42 130.247 319.242 130.073 319.026 130.077C317.788 129.976 316.579 130.481 315.78 131.432L315.686 131.687C315.687 131.904 315.862 132.08 316.08 132.08L316.351 131.997Z" fill="#1D2A30"/>
<path d="M312.291 170.531C301.199 170.65 299.5 164.611 299.5 164.611C302.795 161.376 302.959 155.458 302.257 150.18C303.108 151.372 304.167 152.416 305.552 153.34C308.207 155.086 313.961 152.282 313.961 152.282C313.976 152.282 313.961 153.266 314.035 154.683C314.215 158.142 314.975 164.21 318.121 165.148C318.121 165.148 324.517 170.396 312.291 170.531Z" fill="#F9A78D"/>
<path d="M314.124 153.18C314.007 153.691 313.89 154.2 313.818 154.741L313.68 154.788C311.082 155.433 308.211 155.079 305.556 153.335C304.16 152.411 303.1 151.373 302.255 150.18C302.086 148.84 301.842 147.533 301.596 146.333L313.675 152.939L314.124 153.18Z" fill="#E46554"/>
<path d="M322.072 144.124C321.993 148.225 319.751 151.687 316.611 153.569L316.595 153.571L316.549 153.585C315.707 154.119 314.785 154.499 313.817 154.741L313.68 154.788C311.081 155.433 308.211 155.079 305.556 153.335C304.16 152.411 303.1 151.373 302.255 150.18C300.08 147.197 299.173 143.216 297.617 137.621C297.139 135.977 297.043 134.237 297.348 132.553C298.439 126.531 304.207 122.537 310.213 123.629C318.645 125.125 322.239 136.632 322.072 144.124Z" fill="#F9A78D"/>
<path d="M314.16 154.649C314.361 154.591 314.561 154.527 314.759 154.456C314.577 154.525 314.385 154.587 314.16 154.649Z" fill="#CECDCC"/>
<path d="M314.035 154.683C313.961 153.265 313.976 152.281 313.961 152.281C314.035 151.044 314.125 149.807 314.125 149.807C314.125 149.852 315.423 153.788 316.003 153.788C315.497 154.108 315.157 154.303 314.759 154.456C314.561 154.527 314.361 154.591 314.16 154.649C314.12 154.66 314.077 154.671 314.035 154.683Z" fill="#F57F62"/>
<path d="M319.158 128.999C318.256 130.434 315.413 131.647 315.509 131.314C315.998 130.123 315.908 127.838 314.432 128.372C314.84 129.283 316.064 136.13 315.509 136.96C315.206 137.414 314.918 142.891 312.586 147.72C310.726 151.574 310.726 152.768 310.726 152.768L303.154 154.231C300.32 153.876 297.68 150.254 297.447 149.854C296.457 148.151 293.433 145.916 291.86 144.732C291.178 144.22 290.646 143.466 290.358 142.659C289.84 141.206 290.9 135.968 291.132 133.506C291.464 129.963 293.324 126.686 298.461 124.582C301.638 123.28 304.312 120.426 307.553 119.296C310.796 118.166 314.653 118.218 317.39 120.288C318.737 121.307 321.421 125.402 319.158 128.999Z" fill="#1D2A30"/>
<path d="M315.203 133.984C317.536 134.67 318.752 138.107 318.852 140.29C318.967 142.702 317.356 144.226 315.252 142.611C313.669 141.367 312.537 139.638 312.032 137.687C311.461 135.324 312.869 133.3 315.203 133.984Z" fill="#F9A78D"/>
<path d="M318.007 142.017C318.007 142.58 317.552 143.035 316.989 143.035C316.427 143.035 315.971 142.58 315.971 142.017C315.971 141.455 316.427 140.999 316.989 140.999C317.552 140.999 318.007 141.455 318.007 142.017Z" fill="#0693E3"/>
<path d="M316.989 143.035C316.427 143.035 315.971 142.58 315.971 142.017C315.971 141.455 316.427 140.999 316.989 140.999C317.552 140.999 318.007 141.455 318.007 142.017C318.007 142.58 317.552 143.035 316.989 143.035Z" fill="#799BD7"/>
<path d="M296.314 168.609C296.314 168.609 298.037 163.291 300.637 161.611C303.237 159.931 314.649 161.673 316.438 162.373C318.226 163.073 320.03 167.195 320.03 167.195L296.314 168.609Z" fill="#0693E3"/>
<path d="M297.336 166.083C298.096 164.468 299.24 162.515 300.637 161.611C301.435 161.096 303.063 160.903 304.987 160.903C309.335 160.903 315.199 161.888 316.439 162.374C317.524 162.799 318.616 164.486 319.307 165.746C318.959 165.695 318.561 165.65 318.076 165.611C315.628 165.498 313.181 165.442 310.735 165.442C310.393 165.442 310.053 165.443 309.713 165.444C306.373 165.463 303.035 165.587 299.701 165.816C298.904 165.874 298.116 165.966 297.336 166.083Z" fill="#799BD7"/>
<path d="M322.375 166.338C320.599 166.047 320.109 165.778 318.076 165.618C311.952 165.33 305.817 165.396 299.701 165.816C297.469 165.976 295.321 166.407 293.188 166.92C288.808 167.971 285.856 172.052 286.18 176.514C287.089 188.995 290.779 196.32 291.323 204.538C292.408 220.908 289.796 232.387 289.351 236.208L297.745 237.483C312.736 237.128 322.691 233.906 330.941 230.395C330.941 230.395 328.779 210.602 330.869 203.471C336.581 183.986 332.873 180.903 331.747 175.323C330.807 170.687 327.077 167.11 322.375 166.338Z" fill="#0693E3"/>
<path d="M289.351 236.206L289.347 236.204C289.669 233.448 291.119 226.699 291.496 216.999C291.123 226.695 289.673 233.444 289.351 236.206ZM330.941 230.391C330.916 230.158 329.955 221.256 329.959 213.303C329.959 213.312 329.959 213.323 329.959 213.334C329.959 221.384 330.943 230.39 330.943 230.39C330.941 230.391 330.941 230.391 330.941 230.391ZM321.075 166.09C320.483 165.963 319.991 165.847 319.309 165.75C319.308 165.748 319.308 165.747 319.307 165.746C319.988 165.844 320.481 165.962 321.075 166.09Z" fill="white"/>
<path d="M319.309 165.75C318.96 165.7 318.563 165.656 318.076 165.618C315.588 165.5 313.097 165.442 310.608 165.442C310.309 165.442 310.012 165.443 309.713 165.444C310.053 165.443 310.393 165.442 310.735 165.442C313.181 165.442 315.628 165.498 318.076 165.611C318.561 165.65 318.959 165.695 319.307 165.746C319.308 165.747 319.308 165.748 319.309 165.75Z" fill="#89A8DD"/>
<path d="M289.527 236.232L289.351 236.205C289.673 233.444 291.123 226.695 291.496 216.999C291.641 213.263 291.628 209.089 291.329 204.537C290.779 196.323 287.095 189.003 286.185 176.509C285.859 172.052 288.809 167.965 293.192 166.923C295.325 166.4 297.472 165.983 299.708 165.819C303.039 165.592 306.376 165.465 309.713 165.444C310.012 165.443 310.309 165.441 310.608 165.441C313.097 165.441 315.588 165.5 318.076 165.617C318.563 165.656 318.96 165.7 319.309 165.749C319.991 165.847 320.483 165.963 321.075 166.089C321.115 166.099 321.155 166.107 321.196 166.116C318.784 166.999 316.889 169.101 316.408 171.809C316.328 172.253 316.291 172.695 316.291 173.129C316.292 176.673 318.829 179.813 322.44 180.457C323.881 180.713 325.328 180.929 326.776 181.135L333.283 193.416C332.807 196.189 332.031 199.484 330.868 203.464C330.184 205.783 329.96 209.437 329.959 213.303C329.955 221.256 330.916 230.157 330.941 230.391C330.937 230.392 330.933 230.393 330.931 230.395C330.931 230.393 330.929 230.393 330.929 230.392L297.077 234.989L289.644 235.948C289.644 235.948 289.603 236.045 289.527 236.232Z" fill="#0693E3"/>
<path d="M324.787 165.733C327.852 166.165 330.887 166.777 333.939 167.292C336.979 167.879 340.016 168.481 343.045 169.132L341.947 169.047C343.3 169.105 344.489 169.211 345.24 169.259C345.601 169.285 345.857 169.277 345.761 169.333C345.743 169.364 345.565 169.42 345.359 169.553C345.099 169.692 344.788 169.917 344.448 170.263C343.751 170.963 343.471 171.9 343.489 172.179C343.484 172.481 343.58 172.411 343.596 172.175C343.648 171.695 343.545 170.773 343.347 169.828L343.485 170.22C341.948 165.783 340.488 161.315 339.151 156.799C337.853 152.267 336.607 147.715 335.721 143.021C335.381 141.22 336.567 139.483 338.369 139.143C339.747 138.884 341.091 139.523 341.796 140.64C344.336 144.685 346.515 148.872 348.64 153.08C350.728 157.301 352.693 161.572 354.58 165.873L354.719 166.267C355.233 167.627 355.739 169.057 356.041 170.981C356.18 171.947 356.279 173.096 356.056 174.588C355.852 176.048 355.053 178.14 353.476 179.677C352.705 180.449 351.872 180.992 351.079 181.408C350.321 181.788 349.576 182.057 348.968 182.223C347.699 182.573 346.745 182.675 345.903 182.763C344.237 182.92 343.011 182.927 341.947 182.991L341.777 183L340.849 182.903C337.768 182.58 334.693 182.209 331.623 181.82C328.561 181.361 325.487 180.999 322.44 180.457C318.385 179.735 315.685 175.863 316.408 171.809C317.112 167.849 320.837 165.183 324.787 165.733Z" fill="#0693E3"/>
<path d="M341.777 183L341.523 182.973L341.189 182.939L340.849 182.903C338.42 182.649 335.996 182.365 333.575 182.065C333.521 181.785 333.463 181.513 333.403 181.249L325.471 178.671L326.776 181.135C325.328 180.929 323.881 180.713 322.44 180.457C318.829 179.813 316.292 176.673 316.291 173.129C316.291 172.695 316.328 172.253 316.408 171.809C317.051 168.197 320.207 165.661 323.753 165.661C324.095 165.661 324.44 165.685 324.787 165.733C327.852 166.165 330.887 166.777 333.939 167.292C336.917 167.867 339.895 168.457 342.864 169.095C342.944 169.099 343.023 169.104 343.101 169.108C342.565 167.543 342.037 165.973 341.523 164.399C341.411 164.057 341.3 163.716 341.189 163.375C340.484 161.192 339.803 159.001 339.151 156.799C338.46 154.388 337.784 151.972 337.171 149.532L345.304 146.672C346.457 148.792 347.556 150.932 348.64 153.08C350.728 157.301 352.693 161.572 354.58 165.873L354.719 166.267C355.233 167.627 355.739 169.057 356.041 170.981C356.121 171.54 356.188 172.159 356.187 172.871C356.187 173.389 356.151 173.959 356.056 174.588C355.852 176.048 355.053 178.14 353.476 179.677C352.705 180.449 351.872 180.992 351.079 181.408C350.321 181.788 349.576 182.057 348.968 182.223C347.699 182.573 346.745 182.675 345.903 182.763C344.237 182.92 343.011 182.927 341.947 182.991L341.777 183ZM343.489 172.204C343.489 172.327 343.508 172.38 343.529 172.38C343.556 172.38 343.588 172.301 343.596 172.175C343.605 172.092 343.609 171.996 343.609 171.889C343.609 171.809 343.607 171.721 343.603 171.629C343.524 171.853 343.488 172.04 343.488 172.151C343.488 172.16 343.489 172.169 343.489 172.179C343.489 172.187 343.489 172.196 343.489 172.204ZM335.76 143.221C335.747 143.155 335.733 143.088 335.721 143.021C335.699 142.9 335.683 142.78 335.673 142.66L335.768 143.021C335.787 143.083 335.809 143.141 335.835 143.199L335.76 143.221Z" fill="#0693E3"/>
<path d="M379.923 137.029L419.899 135.804L419.285 123.281L379.391 125.908L379.923 137.029Z" fill="#0693E3"/>
<path d="M349.709 137.511L382.034 136.469L381.542 126.201L349.274 128.283L349.709 137.511Z" fill="#0693E3"/>
<path d="M377.767 136.732L379.885 136.958L379.36 125.986L377.272 126.414L377.767 136.732Z" fill="#1D2A30"/>
<path d="M379.885 136.958L377.767 136.732L377.761 136.607L377.276 126.478L377.272 126.414L379.359 125.986L379.552 130.023L379.885 136.958Z" fill="#182124"/>
<path d="M379.889 137.031L382.059 136.964L381.521 125.768L379.356 125.911L379.889 137.031Z" fill="#1D2A30"/>
<path d="M344.691 135.993L347.899 137.481L347.475 128.485L344.421 130.276L344.691 135.993Z" fill="#1D2A30"/>
<path d="M328.264 135.881L337.769 135.387L337.572 131.176L328.071 131.744L328.264 135.881Z" fill="#1D2A30"/>
<path d="M328.264 135.881L328.071 131.744L334.797 131.341L333.967 135.137C333.933 135.285 333.916 135.436 333.912 135.587L328.264 135.881Z" fill="#182124"/>
<path d="M336.471 136.236L347.045 135.83L346.768 129.936L336.204 130.562L336.471 136.236Z" fill="#1D2A30"/>
<path d="M347.899 137.481L344.691 135.993L344.687 135.92L347.045 135.829L346.768 129.936L344.804 130.052L347.475 128.485L347.899 137.481Z" fill="#182124"/>
<path d="M344.687 135.92L344.421 130.276L344.804 130.052L346.768 129.936L347.045 135.829L344.687 135.92Z" fill="#182124"/>
<path d="M347.956 137.567L349.709 137.511L349.275 128.283L347.524 128.396L347.956 137.567Z" fill="#1D2A30"/>
<path d="M418.537 135.847L424.808 135.623L424.192 123.051L417.927 123.371L418.537 135.847Z" fill="#1D2A30"/>
<path d="M421.319 136.736L429.319 136.512L429.519 135.959C431.227 131.216 430.888 125.976 428.58 121.495L420.599 122.046L420.775 122.464C422.668 127.002 422.863 132.068 421.319 136.736Z" fill="#0693E3"/>
<path d="M412.812 126.04C412.732 125.591 412.76 125.128 412.798 124.671L416.034 124.471L416.099 125.851L412.812 126.04Z" fill="#8DAEE0"/>
<path d="M382.793 127.775L382.727 126.528L410.84 124.824C410.804 125.28 410.784 125.738 410.855 126.187L382.793 127.775Z" fill="#8DAEE0"/>
<path d="M350.017 130.131L349.958 129.011L376.324 127.34L376.381 128.564L350.017 130.131Z" fill="#8DAEE0"/>
<path d="M421.383 123.876L421.305 122.477L427.568 122.037L427.636 123.463L421.383 123.876Z" fill="#8DAEE0"/>
<path d="M422.048 136.315L421.969 134.916L428.512 134.664C428.471 135.142 428.448 135.622 428.524 136.092L422.048 136.315Z" fill="#2E53AC"/>
<path d="M382.605 136.495L382.537 135.249L416.914 133.885C416.877 134.347 416.856 134.812 416.928 135.268L382.605 136.495Z" fill="#2E53AC"/>
<path d="M350.579 137.211L350.52 136.09L376.065 135.091C376.039 135.499 376.024 135.91 376.083 136.314L350.579 137.211Z" fill="#2E53AC"/>
<path d="M326.127 131.903L326.209 135.931C326.224 136.615 326.844 137.159 327.597 137.147L330.865 137.091L330.729 130.493L327.463 130.613C326.709 130.641 326.112 131.219 326.127 131.903Z" fill="#0693E3"/>
<path d="M343.02 143.074L344.261 135.57C344.312 135.258 344.324 134.942 344.296 134.626L343.94 130.65C343.881 130.135 343.52 129.63 342.96 129.458L336.965 129.387C336.175 129.138 335.305 129.518 335.043 130.222L333.967 135.138C333.885 135.507 333.893 135.887 333.989 136.252L335.768 143.022C335.94 143.586 336.461 144.027 337.108 144.151L341.024 144.187C341.947 144.363 342.832 143.872 343.02 143.074Z" fill="#F9A78D"/>
<path d="M346.545 146.235L336.352 149.82L334.655 143.559L343.407 140.895L346.545 146.235Z" fill="#0693E3"/>
<path d="M336.352 149.82L334.655 143.559L343.407 140.895L346.545 146.235L345.304 146.672L337.171 149.532L336.352 149.82Z" fill="#799BD7"/>
<path d="M333.283 193.416L326.776 181.135C328.392 181.364 330.009 181.579 331.623 181.82C332.273 181.904 332.924 181.985 333.575 182.065C333.812 183.301 333.971 184.716 333.971 186.432C333.972 188.335 333.779 190.607 333.283 193.416Z" fill="#0693E3"/>
<path d="M333.575 182.065C332.924 181.985 332.273 181.904 331.623 181.82C330.009 181.579 328.392 181.364 326.776 181.135L325.471 178.671L333.403 181.249C333.463 181.513 333.521 181.785 333.575 182.065Z" fill="#0693E3"/>
<path d="M373.556 315.827L371.941 335.854L381.056 336.027L383.557 315.395L373.556 315.827Z" fill="#F9A78D"/>
<path d="M382.5 333.291L372.101 333.501C371.709 333.509 371.372 333.808 371.291 334.22L369.5 343.34C369.336 344.148 369.812 344.941 370.563 345.109L370.856 345.141C374.604 344.996 377.935 344.708 382.601 344.62C388.109 344.511 386.719 345.247 393.195 345.215C397.096 345.191 397.763 340.416 396.107 340.216C388.525 339.345 387.716 336.907 384.767 334.056C384.125 333.511 383.319 333.239 382.5 333.291Z" fill="#1D2A30"/>
<path d="M274.012 401.655L270.325 420.05L280.127 423.043L284.848 404.255L274.012 401.655Z" fill="#F9A78D"/>
<path d="M326.453 231.197C326.453 231.197 312.503 312.616 304.924 336.578C299.529 353.639 285.057 409.458 285.057 409.458L271.931 406.547C271.931 406.547 270.463 368.552 277.764 348.94C280.255 342.25 283.504 336.214 284.385 332.064C288.144 314.343 280.396 282.194 283.821 258.215C285.679 245.218 289.644 235.948 289.644 235.948L326.453 231.197Z" fill="#1D2A30"/>
<path d="M304.924 336.578C299.529 353.639 285.057 409.458 285.057 409.458L271.931 406.547C271.931 406.547 270.463 368.552 277.764 348.94C280.255 342.25 283.504 336.214 284.385 332.064C288.144 314.343 280.396 282.194 283.821 258.215C285.679 245.218 289.644 235.948 289.644 235.948" fill="#1D2A30"/>
<path d="M316.371 283.941L310.484 260.827C315.301 263.043 318.609 263.435 320.352 263.499L316.371 283.941Z" fill="#182124"/>
<path d="M384.196 325.433L371.369 325.845C371.369 325.845 372.316 309.059 372.316 284.58C372.316 280.805 372.903 277.085 373.729 273.752C375.557 266.273 378.517 260.699 378.517 260.699C378.517 260.699 377.143 260.779 374.797 260.887C367.543 261.259 322.58 263.581 321.7 263.515C321.615 263.507 321.472 263.508 321.272 263.509C319.925 263.519 316.003 263.529 309.623 260.419C296.012 253.784 295.876 235.152 295.876 235.152L330.929 230.392C330.929 230.419 331.503 230.5 339.944 230.645C365.529 231.085 396.973 232.076 402.492 240.861C410.255 253.217 384.196 325.433 384.196 325.433Z" fill="#1D2A30"/>
<path d="M280.617 418.28L269.861 418.425C269.456 418.432 269.124 418.729 269.063 419.145L267.724 428.339C267.6 429.155 268.137 429.956 268.924 430.133L269.229 430.167C273.103 430.044 276.536 429.776 281.364 429.717C287.06 429.641 285.663 430.376 292.367 430.385C296.405 430.387 296.827 425.569 295.1 425.357C287.2 424.431 286.223 421.964 283.008 419.067C282.315 418.512 281.464 418.232 280.617 418.28Z" fill="#1D2A30"/>
<path d="M373.729 273.752C375.557 266.273 378.517 260.699 378.517 260.699C378.517 260.699 377.143 260.779 374.797 260.887C374.691 260.845 374.584 260.819 374.45 260.819L383.8 260.032L373.729 273.752Z" fill="#182124"/>
<path d="M145.076 157.715C145.076 166.747 137.755 174.069 128.722 174.069C119.69 174.069 112.368 166.747 112.368 157.715C112.368 148.683 119.69 141.361 128.722 141.361C137.755 141.361 145.076 148.683 145.076 157.715Z" fill="#0693E3"/>
<path d="M128.722 174.069C119.69 174.069 112.368 166.747 112.368 157.715C112.368 148.683 119.69 141.361 128.722 141.361C137.755 141.361 145.076 148.683 145.076 157.715C145.076 166.747 137.755 174.069 128.722 174.069Z" fill="#FFC700"/>
<path d="M128.752 135.124C127.408 135.124 126.32 134.036 126.32 132.692V121.952C126.32 120.608 127.408 119.52 128.752 119.52C130.096 119.52 131.184 120.608 131.184 121.952V132.692C131.184 134.036 130.096 135.124 128.752 135.124Z" fill="#0693E3"/>
<path d="M128.752 195.659C127.408 195.659 126.32 194.571 126.32 193.228V182.488C126.32 181.144 127.408 180.056 128.752 180.056C130.096 180.056 131.184 181.144 131.184 182.488V193.228C131.184 194.571 130.096 195.659 128.752 195.659Z" fill="#0693E3"/>
<path d="M111.146 142.417C110.525 142.417 109.901 142.18 109.427 141.704L104.785 137.061C103.835 136.111 103.835 134.572 104.785 133.623C105.735 132.673 107.275 132.673 108.224 133.623L112.866 138.265C113.816 139.216 113.816 140.755 112.866 141.704C112.391 142.18 111.769 142.417 111.146 142.417Z" fill="#0693E3"/>
<path d="M150.685 181.955C150.063 181.955 149.441 181.717 148.965 181.243L144.637 176.913C143.688 175.965 143.688 174.425 144.637 173.475C145.588 172.525 147.127 172.525 148.077 173.475L152.405 177.804C153.355 178.752 153.355 180.293 152.405 181.243C151.929 181.717 151.307 181.955 150.685 181.955Z" fill="#0693E3"/>
<path d="M103.854 160.023H93.1149C91.7712 160.023 90.6826 158.934 90.6826 157.591C90.6826 156.247 91.7712 155.159 93.1149 155.159H103.854C105.198 155.159 106.287 156.247 106.287 157.591C106.287 158.934 105.198 160.023 103.854 160.023Z" fill="#0693E3"/>
<path d="M164.389 160.023H153.649C152.305 160.023 151.217 158.934 151.217 157.591C151.217 156.247 152.305 155.159 153.649 155.159H164.389C165.733 155.159 166.821 156.247 166.821 157.591C166.821 158.934 165.733 160.023 164.389 160.023Z" fill="#0693E3"/>
<path d="M107.054 181.72C106.432 181.72 105.809 181.483 105.335 181.008C104.384 180.059 104.384 178.519 105.335 177.57L109.427 173.475C110.376 172.526 111.917 172.526 112.867 173.475C113.816 174.426 113.816 175.964 112.867 176.914L108.774 181.008C108.3 181.483 107.677 181.72 107.054 181.72Z" fill="#0693E3"/>
<path d="M146.357 142.417C145.735 142.417 145.112 142.18 144.637 141.704C143.688 140.755 143.688 139.215 144.637 138.265L149.027 133.876C149.976 132.927 151.516 132.927 152.465 133.876C153.416 134.825 153.416 136.367 152.465 137.316L148.077 141.704C147.601 142.18 146.979 142.417 146.357 142.417Z" fill="#0693E3"/>
<path d="M128.752 135.124C127.408 135.124 126.32 134.036 126.32 132.692V121.952C126.32 120.608 127.408 119.52 128.752 119.52C130.096 119.52 131.184 120.608 131.184 121.952V132.692C131.184 134.036 130.096 135.124 128.752 135.124Z" fill="#FEE13E"/>
<path d="M128.752 195.659C127.408 195.659 126.32 194.571 126.32 193.228V182.488C126.32 181.144 127.408 180.056 128.752 180.056C130.096 180.056 131.184 181.144 131.184 182.488V193.228C131.184 194.571 130.096 195.659 128.752 195.659Z" fill="#FEE13E"/>
<path d="M111.146 142.417C110.525 142.417 109.901 142.18 109.427 141.704L104.785 137.061C104.31 136.587 104.072 135.964 104.072 135.341C104.072 134.719 104.31 134.097 104.785 133.623C105.26 133.148 105.883 132.911 106.505 132.911C107.127 132.911 107.749 133.148 108.224 133.623L112.867 138.265C113.342 138.74 113.579 139.363 113.579 139.985C113.579 140.608 113.342 141.229 112.867 141.704C112.391 142.18 111.769 142.417 111.146 142.417Z" fill="#FEE13E"/>
<path d="M150.685 181.955C150.063 181.955 149.441 181.717 148.965 181.243L144.637 176.913C144.163 176.44 143.925 175.817 143.925 175.195C143.925 174.572 144.163 173.949 144.637 173.475C145.112 173 145.735 172.763 146.357 172.763C146.98 172.763 147.601 173 148.077 173.475L152.405 177.804C152.88 178.277 153.117 178.9 153.117 179.523C153.117 180.145 152.88 180.768 152.405 181.243C151.929 181.717 151.307 181.955 150.685 181.955Z" fill="#FEE13E"/>
<path d="M103.854 160.023H93.1149C91.7712 160.023 90.6826 158.934 90.6826 157.591C90.6826 156.247 91.7712 155.159 93.1149 155.159H103.854C105.198 155.159 106.287 156.247 106.287 157.591C106.287 158.934 105.198 160.023 103.854 160.023Z" fill="#FEE13E"/>
<path d="M164.389 160.023H153.649C152.305 160.023 151.217 158.934 151.217 157.591C151.217 156.247 152.305 155.159 153.649 155.159H164.389C165.733 155.159 166.821 156.247 166.821 157.591C166.821 158.934 165.733 160.023 164.389 160.023Z" fill="#FEE13E"/>
<path d="M107.054 181.72C106.432 181.72 105.81 181.483 105.335 181.008C104.86 180.534 104.622 179.911 104.622 179.29C104.622 178.667 104.86 178.044 105.335 177.57L109.427 173.475C109.902 173 110.524 172.763 111.147 172.763C111.769 172.763 112.392 173 112.867 173.475C113.342 173.95 113.579 174.572 113.579 175.195C113.579 175.818 113.342 176.439 112.867 176.914L108.774 181.008C108.3 181.483 107.677 181.72 107.054 181.72Z" fill="#FEE13E"/>
<path d="M146.357 142.417C145.735 142.417 145.112 142.18 144.637 141.704C144.163 141.229 143.925 140.607 143.925 139.985C143.925 139.363 144.163 138.74 144.637 138.265L149.027 133.876C149.501 133.401 150.124 133.164 150.747 133.164C151.368 133.164 151.991 133.401 152.465 133.876C152.94 134.351 153.177 134.973 153.177 135.596C153.177 136.219 152.94 136.841 152.465 137.316L148.077 141.704C147.601 142.18 146.979 142.417 146.357 142.417Z" fill="#FEE13E"/>
</g>
<circle cx="629" cy="25" r="16.5" stroke="#0693E3" stroke-width="3"/>
<path d="M35.5316 554.977C35.9362 555.35 36.1488 555.757 36.2682 556.358C36.4763 557.397 36.2005 559.019 35.5925 560.85C34.6981 563.609 33.1643 566.8 32.2376 569.785C31.7783 571.283 31.4577 572.741 31.5051 574.159C31.5307 574.867 31.6531 575.568 31.9239 576.235C32.1919 576.9 32.6144 577.522 33.1795 578.032C34.0406 578.819 35.1207 579.224 36.1897 579.309C38.0735 579.455 39.961 578.817 41.8934 577.979C44.7813 576.705 47.8018 574.87 50.4163 573.775C51.7154 573.225 52.9053 572.872 53.8305 572.818C54.2935 572.79 54.6863 572.829 55.0149 572.927C55.3464 573.025 55.6209 573.175 55.8916 573.419C56.2971 573.793 56.5098 574.2 56.6282 574.8C56.8372 575.84 56.5616 577.462 55.9545 579.294C55.0591 582.052 53.5252 585.243 52.5996 588.229C52.1403 589.727 51.8207 591.186 51.8681 592.603C51.8927 593.311 52.0161 594.013 52.2869 594.679C52.5548 595.345 52.9773 595.967 53.5425 596.477C54.4036 597.264 55.4836 597.668 56.5536 597.754C58.4375 597.901 60.3251 597.265 62.2593 596.426C65.1463 595.154 68.1678 593.317 70.7832 592.223C72.0833 591.674 73.2732 591.322 74.1984 591.267C74.6614 591.239 75.0533 591.279 75.3828 591.376C75.7143 591.475 75.9888 591.624 76.2605 591.869C76.666 592.243 76.8787 592.65 76.9981 593.251C77.2072 594.291 76.9314 595.912 76.3234 597.744C75.429 600.503 73.8951 603.694 72.9685 606.679C72.5102 608.178 72.1896 609.636 72.237 611.053C72.2626 611.762 72.386 612.464 72.6558 613.129C72.9237 613.795 73.3462 614.417 73.9124 614.928C74.7735 615.715 75.8535 616.119 76.9235 616.205C78.8083 616.353 80.695 615.716 82.6302 614.878C85.5172 613.605 88.5387 611.771 91.1542 610.677C92.4551 610.127 93.645 609.774 94.5703 609.72C95.0333 609.692 95.4251 609.732 95.7556 609.83C96.0871 609.928 96.3627 610.079 96.6343 610.323C97.0399 610.698 97.2535 611.105 97.3719 611.706C97.582 612.747 97.3062 614.368 96.6992 616.2C95.8058 618.96 94.2719 622.151 93.3463 625.137C92.8871 626.637 92.5683 628.095 92.6148 629.513C92.6413 630.221 92.7647 630.923 93.0355 631.589C93.3045 632.256 93.727 632.877 94.2921 633.388L96.0824 631.411C95.6777 631.036 95.464 630.628 95.3456 630.028C95.1356 628.987 95.4114 627.366 96.0184 625.533C96.9118 622.774 98.4457 619.583 99.3713 616.596C99.8296 615.097 100.149 613.638 100.102 612.221C100.076 611.512 99.9529 610.811 99.682 610.144C99.4141 609.479 98.9906 608.856 98.4246 608.347C97.5644 607.559 96.4843 607.154 95.4143 607.068C93.5295 606.921 91.6419 607.557 89.7076 608.395C86.8188 609.668 83.7982 611.503 81.1827 612.597C79.8827 613.147 78.6928 613.499 77.7676 613.553C77.3045 613.582 76.9108 613.542 76.5822 613.444C76.2507 613.345 75.9751 613.195 75.7026 612.951C75.2979 612.576 75.0853 612.169 74.9669 611.569C74.7578 610.529 75.0335 608.907 75.6406 607.075C76.535 604.316 78.0689 601.125 78.9946 598.141C79.4548 596.642 79.7744 595.183 79.727 593.766C79.7024 593.058 79.579 592.356 79.3082 591.69C79.0403 591.024 78.6178 590.402 78.0507 589.892C77.1915 589.105 76.1114 588.701 75.0415 588.615C73.1566 588.467 71.2691 589.105 69.3358 589.943C66.4479 591.216 63.4273 593.051 60.8119 594.145C59.5109 594.696 58.3219 595.047 57.3967 595.102C56.9328 595.131 56.5409 595.091 56.2114 594.994C55.8808 594.894 55.6053 594.744 55.3327 594.5C54.9291 594.126 54.7164 593.719 54.597 593.118C54.3879 592.078 54.6637 590.456 55.2717 588.625C56.1661 585.866 57.6991 582.676 58.6257 579.691C59.0859 578.192 59.4055 576.733 59.3581 575.315C59.3325 574.607 59.2091 573.905 58.9393 573.24C58.6714 572.574 58.2489 571.952 57.6818 571.442C56.8226 570.655 55.7425 570.25 54.6726 570.165C52.7897 570.019 50.9022 570.657 48.9679 571.495C46.081 572.768 43.0614 574.604 40.4469 575.699C39.146 576.249 37.9561 576.602 37.0327 576.656C36.5688 576.686 36.1769 576.645 35.8474 576.548C35.5168 576.449 35.2423 576.299 34.9697 576.056C34.5661 575.681 34.3534 575.274 34.235 574.674C34.026 573.634 34.3017 572.013 34.9088 570.182C35.8032 567.423 37.3381 564.233 38.2647 561.248C38.7249 559.749 39.0445 558.29 38.9971 556.873C38.9725 556.165 38.8491 555.463 38.5783 554.797C38.3104 554.131 37.8879 553.509 37.3218 553L35.5316 554.977Z" fill="#0693E3"/>
<circle cx="420" cy="21" r="5" fill="#0693E3"/>
<circle cx="400" cy="40" r="3" fill="#0693E3"/>
<path d="M36.2668 50.5495L27.3802 11.9322L64.2154 22.4578L36.2668 50.5495Z" fill="#FEE13E"/>
<circle cx="315" cy="618" r="3" fill="#FEE13E"/>
<circle cx="291" cy="613" r="5" fill="#FEE13E"/>
<path d="M647.353 610.086L614.47 599.989L618.146 633.627L647.353 610.086Z" stroke="#FEE13E" stroke-width="3"/>
<defs>
<clipPath id="clip0_495_2060">
<rect width="666.667" height="496.08" fill="white" transform="translate(0 77)"/>
</clipPath>
</defs>
</svg>
