<svg width="285" height="285" viewBox="0 0 285 285" fill="none" xmlns="http://www.w3.org/2000/svg">
<rect width="285" height="285" fill="#DAEAFE"/>
<rect width="264" height="1" transform="matrix(1 0 0 -1 12 271)" fill="#3E3E3E"/>
<path d="M145.403 198.136H127.12C126.402 198.136 125.82 197.555 125.82 196.837V190.97C125.82 190.252 126.402 189.671 127.12 189.671H145.403C146.12 189.671 146.702 190.252 146.702 190.97V196.837C146.702 197.555 146.12 198.136 145.403 198.136Z" fill="#4870C0"/>
<path d="M169.503 198.136H151.221C150.503 198.136 149.922 197.555 149.922 196.837V190.97C149.922 190.252 150.503 189.671 151.221 189.671H169.503C170.221 189.671 170.804 190.252 170.804 190.97V196.837C170.804 197.555 170.221 198.136 169.503 198.136Z" fill="#4870C0"/>
<path d="M180.421 209.092H162.139C161.421 209.092 160.84 208.509 160.84 207.791V201.926C160.84 201.208 161.421 200.627 162.139 200.627H180.421C181.139 200.627 181.72 201.208 181.72 201.926V207.791C181.72 208.509 181.139 209.092 180.421 209.092Z" fill="#4870C0"/>
<path d="M156.285 208.943H138.002C137.285 208.943 136.703 208.362 136.703 207.644V201.779C136.703 201.061 137.285 200.478 138.002 200.478H156.285C157.003 200.478 157.584 201.061 157.584 201.779V207.644C157.584 208.362 157.003 208.943 156.285 208.943Z" fill="#4870C0"/>
<path d="M145.48 219.754H127.198C126.48 219.754 125.898 219.171 125.898 218.453V212.588C125.898 211.87 126.48 211.289 127.198 211.289H145.48C146.198 211.289 146.78 211.87 146.78 212.588V218.453C146.78 219.171 146.198 219.754 145.48 219.754Z" fill="#4870C0"/>
<path d="M56.707 144.921H209.927V33.5887H56.707V144.921Z" fill="white"/>
<path d="M56.9286 144.699H209.704V33.8122H56.9286V144.699ZM210.149 145.144H56.4844V33.368H210.149V145.144Z" fill="#393A8F"/>
<path d="M56.9297 38.584H209.706V33.8105H56.9297V38.584Z" fill="#ECECFF"/>
<path d="M209.725 38.584H209.707V33.8113H56.9313V38.584H56.9141V33.5892H209.725V38.584Z" fill="#A7A8EC"/>
<path d="M216.609 34.2344H50.0273V28.2215H216.609V34.2344Z" fill="white"/>
<path d="M50.2489 34.0128H216.386V28.4441H50.2489V34.0128ZM216.83 34.457H49.8047V27.9999H216.83V34.457Z" fill="#393A8F"/>
<path d="M125.561 93.4708H141.965V87.8026L142.04 87.7351C144.755 85.3505 146.311 81.9141 146.311 78.3071C146.311 71.3879 140.683 65.7588 133.763 65.7588C126.843 65.7588 121.214 71.3879 121.214 78.3071C121.214 81.9141 122.771 85.3505 125.485 87.7351L125.561 87.8026V93.4708ZM142.409 93.915H125.117V88.0034C122.352 85.5354 120.77 82.0083 120.77 78.3071C120.77 71.1427 126.598 65.3146 133.763 65.3146C140.927 65.3146 146.756 71.1427 146.756 78.3071C146.756 82.0083 145.172 85.5354 142.409 88.0034V93.915Z" fill="#393A8F"/>
<path d="M125.557 98.7863H141.961V96.853H125.557V98.7863ZM142.406 99.2305H125.113V96.4088H142.406V99.2305Z" fill="#393A8F"/>
<path d="M125.557 102.895H141.961V100.961H125.557V102.895ZM142.406 103.339H125.113V100.517H142.406V103.339Z" fill="#393A8F"/>
<path d="M132.861 93.4708H134.659L135.525 76.2956H131.994L132.861 93.4708ZM135.082 93.915H132.438L131.527 75.8514H135.992L135.082 93.915Z" fill="#393A8F"/>
<path d="M134.933 60.759C134.933 61.2512 134.535 61.6475 134.045 61.6475C133.554 61.6475 133.156 61.2512 133.156 60.759C133.156 60.2686 133.554 59.8706 134.045 59.8706C134.535 59.8706 134.933 60.2686 134.933 60.759Z" fill="#4870C0"/>
<path d="M114.269 81.9719C114.269 82.4623 113.871 82.8604 113.381 82.8604C112.89 82.8604 112.492 82.4623 112.492 81.9719C112.492 81.4815 112.89 81.0835 113.381 81.0835C113.871 81.0835 114.269 81.4815 114.269 81.9719Z" fill="#4870C0"/>
<path d="M154.921 81.9719C154.921 82.4623 154.523 82.8604 154.033 82.8604C153.543 82.8604 153.145 82.4623 153.145 81.9719C153.145 81.4815 153.543 81.0835 154.033 81.0835C154.523 81.0835 154.921 81.4815 154.921 81.9719Z" fill="#4870C0"/>
<path d="M134.82 111.734C134.82 112.224 134.422 112.622 133.931 112.622C133.441 112.622 133.043 112.224 133.043 111.734C133.043 111.243 133.441 110.845 133.931 110.845C134.422 110.845 134.82 111.243 134.82 111.734Z" fill="#4870C0"/>
<path d="M117.269 67.0911C117.269 67.5815 116.871 67.9795 116.381 67.9795C115.89 67.9795 115.492 67.5815 115.492 67.0911C115.492 66.6006 115.89 66.2026 116.381 66.2026C116.871 66.2026 117.269 66.6006 117.269 67.0911Z" fill="#4870C0"/>
<path d="M116.181 67.1875L112.134 58.9819H95.7617V58.5377H112.41L116.58 66.992L116.181 67.1875Z" fill="#4870C0"/>
<path d="M70.6921 65.5352H67.2969V58.8772H70.6921V65.5352Z" fill="#4870C0"/>
<path d="M76.2548 65.5352H72.8594V55.6256H76.2548V65.5352Z" fill="#4870C0"/>
<path d="M81.8212 65.5352H78.4258V57.573H81.8212V65.5352Z" fill="#4870C0"/>
<path d="M87.3837 65.5352H83.9883V53.3139H87.3837V65.5352Z" fill="#4870C0"/>
<path d="M92.9538 65.5352H89.5586V47.7505H92.9538V65.5352Z" fill="#4870C0"/>
<path d="M151.921 66.0901C151.921 66.5823 151.523 66.9785 151.033 66.9785C150.541 66.9785 150.145 66.5823 150.145 66.0901C150.145 65.5997 150.541 65.2016 151.033 65.2016C151.523 65.2016 151.921 65.5997 151.921 66.0901Z" fill="#4870C0"/>
<path d="M151.232 66.1865L150.832 65.9964L155.557 56.0957H170.578V56.5399H155.836L151.232 66.1865Z" fill="#4870C0"/>
<path d="M174.872 46.5141C173.839 46.5141 172.999 47.3545 172.999 48.3869V60.4252C172.999 61.4575 173.839 62.298 174.872 62.298H195.599C196.633 62.298 197.472 61.4575 197.472 60.4252V48.3869C197.472 47.3545 196.633 46.5141 195.599 46.5141H174.872ZM195.599 62.7422H174.872C173.594 62.7422 172.555 61.7027 172.555 60.4252V48.3869C172.555 47.1093 173.594 46.0699 174.872 46.0699H195.599C196.878 46.0699 197.916 47.1093 197.916 48.3869V60.4252C197.916 61.7027 196.878 62.7422 195.599 62.7422Z" fill="#4870C0"/>
<path d="M194.116 50.0752H176.348V49.631H194.116V50.0752Z" fill="#4870C0"/>
<path d="M189.155 53.1094H176.348V52.6652H189.155V53.1094Z" fill="#4870C0"/>
<path d="M191.97 56.1465H176.348V55.7023H191.97V56.1465Z" fill="#4870C0"/>
<path d="M194.116 59.1816H176.348V58.7374H194.116V59.1816Z" fill="#4870C0"/>
<path d="M151.625 104.886C151.625 104.396 151.227 103.998 150.736 103.998C150.246 103.998 149.848 104.396 149.848 104.886C149.848 105.376 150.246 105.774 150.736 105.774C151.227 105.774 151.625 105.376 151.625 104.886Z" fill="#4870C0"/>
<path d="M170.281 114.881H155.26L150.535 104.982L150.937 104.79L155.541 114.437H170.281V114.881Z" fill="#4870C0"/>
<path d="M188.179 97.8187C183.336 97.8187 178.721 100.663 176.71 105.393C174.032 111.705 176.989 119.022 183.3 121.705C187.945 123.672 193.272 122.665 196.874 119.138C198.045 117.988 198.965 116.634 199.608 115.115V115.113C200.79 112.336 200.92 109.226 199.971 106.358C198.85 102.956 196.316 100.203 193.021 98.8066C191.442 98.1367 189.796 97.8187 188.179 97.8187ZM188.172 123.143C186.474 123.143 184.761 122.807 183.128 122.116C176.589 119.335 173.526 111.756 176.301 105.219C179.078 98.684 186.657 95.6225 193.196 98.3979C196.607 99.8443 199.23 102.694 200.394 106.22C201.374 109.191 201.241 112.41 200.017 115.287C199.351 116.861 198.398 118.263 197.185 119.456C194.72 121.869 191.476 123.143 188.172 123.143Z" fill="#4870C0"/>
<path d="M199.812 115.199C199.14 116.784 198.186 118.158 197.027 119.295L188.266 110.379L200.181 106.288C201.112 109.105 201.064 112.259 199.812 115.199Z" fill="#4870C0"/>
<path d="M115.309 104.774C115.309 104.283 115.706 103.885 116.197 103.885C116.688 103.885 117.085 104.283 117.085 104.774C117.085 105.264 116.688 105.662 116.197 105.662C115.706 105.662 115.309 105.264 115.309 104.774Z" fill="#4870C0"/>
<path d="M111.674 114.77H96.6523V114.325H111.393L115.997 104.679L116.398 104.871L111.674 114.77Z" fill="#4870C0"/>
<path d="M69.9989 103.663H91.6173V90.7809H69.9989V103.663ZM92.0615 104.107H69.5547V90.3367H92.0615V104.107Z" fill="#4870C0"/>
<path d="M89.5991 94.2979H72.0156V93.8536H89.5991V94.2979Z" fill="#F5F5FF"/>
<path d="M89.5991 97.4443H72.0156V97.0001H89.5991V97.4443Z" fill="#F5F5FF"/>
<path d="M89.5991 100.592H72.0156V100.148H89.5991V100.592Z" fill="#F5F5FF"/>
<path d="M73.9604 101.552L72.395 98.5293L71.4522 101.312L71.0312 101.17L72.3095 97.3992L73.9647 100.596L77.4354 94.0463L79.6341 99.6523L81.3872 95.5086L84.7476 99.0926L88.3182 92.9108L88.7031 93.133L84.8331 99.8335L81.5302 96.31L79.6185 100.829L77.375 95.1088L73.9604 101.552Z" fill="#4870C0"/>
<path d="M69.9989 123.21H91.6173V110.328H69.9989V123.21ZM92.0615 123.654H69.5547V109.884H92.0615V123.654Z" fill="#4870C0"/>
<path d="M89.5991 113.844H72.0156V113.4H89.5991V113.844Z" fill="#F5F5FF"/>
<path d="M89.5991 116.99H72.0156V116.546H89.5991V116.99Z" fill="#F5F5FF"/>
<path d="M89.5991 120.138H72.0156V119.693H89.5991V120.138Z" fill="#F5F5FF"/>
<path d="M84.9544 120.165L81.9579 117.686L79.0563 120.133L77.2464 116.673L75.6458 120.041L71.7695 113.344L72.154 113.122L75.6074 119.086L77.2273 115.678L79.1933 119.437L81.9554 117.109L84.7337 119.406L86.8411 112.908L89.1084 119.771L88.6867 119.911L86.845 114.335L84.9544 120.165Z" fill="#4870C0"/>
<path d="M10.1232 147.112C10.1232 147.112 6.33191 140.164 36.3165 141.719L52.9746 195.691L24.7669 195.247L10.1232 147.112Z" fill="#4870C0"/>
<path d="M20.1731 269.892H15.8789L26.0959 196.448H31.7227L20.1731 269.892Z" fill="#4870C0"/>
<path d="M70.2215 269.892H74.5157L64.2987 196.448H58.6719L70.2215 269.892Z" fill="#4870C0"/>
<path d="M27.043 197.766H69.9227V193.323H27.043V197.766Z" fill="#4870C0"/>
<path d="M27.049 193.323L14.2853 146.03C13.9521 144.795 12.6216 144.124 11.4299 144.586C10.4204 144.978 9.86035 146.061 10.1232 147.112L21.7293 193.537C22.3419 195.987 24.5236 197.721 27.049 197.766V193.323Z" fill="#4870C0"/>
<path d="M267.113 269.875H271.127L261.576 196.432H256.316L267.113 269.875Z" fill="#4870C0"/>
<path d="M220.328 269.875H216.312L225.865 196.432H231.126L220.328 269.875Z" fill="#4870C0"/>
<path d="M213.879 197.747H273.56V193.305H213.879V197.747Z" fill="#4870C0"/>
<path d="M273.565 193.305H213.855C219.993 181.668 223.003 166 224.41 148.535C224.732 144.531 228.083 141.45 232.099 141.45H255.306C259.336 141.45 262.694 144.551 262.998 148.57C264.352 166.556 267.43 182.183 273.565 193.305Z" fill="#4870C0"/>
<path d="M48.9172 104.904C48.9172 104.904 32.0183 114.844 42.2353 121.507L51.2678 124.913L54.2292 110.846C53.2954 107.21 51.8163 104.653 48.9172 104.904Z" fill="#1B1B43"/>
<path d="M48.5034 106.043C47.6414 106.35 46.7954 106.72 45.9729 107.127C45.1481 107.528 44.3407 107.965 43.5658 108.452C42.0215 109.424 40.5576 110.565 39.4644 112.009C38.9198 112.727 38.4605 113.513 38.1664 114.36C37.859 115.204 37.7633 116.112 37.8095 117.006C37.8578 117.902 38.0577 118.797 38.4088 119.636C38.5524 120.069 38.7738 120.469 38.9706 120.881C39.1785 121.288 39.4342 121.67 39.6645 122.068L39.5218 122.166C38.4479 120.67 37.5579 118.936 37.4223 117.031C37.3453 116.089 37.4532 115.123 37.7658 114.225C38.0719 113.326 38.539 112.487 39.1149 111.743C40.2738 110.25 41.7719 109.078 43.3705 108.132C44.9727 107.182 46.6778 106.428 48.4516 105.876L48.5034 106.043Z" fill="#1B1B43"/>
<path d="M109.087 258.996C108.044 258.105 107.02 257.212 106.044 256.245C105.208 255.417 104.396 254.564 103.604 253.695C103.353 253.42 102.773 252.983 102.646 252.622L93.3711 255.739L96.6094 269.875L98.3932 269.888L98.5558 263.269C101.399 264.671 104.37 265.975 107.504 266.556C109.434 266.915 111.954 267.066 113.793 266.275C118.396 264.292 110.318 260.047 109.087 258.996Z" fill="#1B1B43"/>
<path d="M100.616 246.862L92.0664 250.083L93.3623 255.739L102.637 252.623L100.616 246.862Z" fill="#FFBC96"/>
<path d="M63.4136 166.151L84.7941 173.219C88.3281 174.387 91.296 176.837 93.1118 180.087C94.0347 181.738 94.634 183.55 94.878 185.426L103.171 249.219L90.2887 251.44L72.7421 186.585L48.9766 175.702L53.1966 163.93L63.4136 166.151Z" fill="#3E3E3E"/>
<path d="M57.5584 266.297C54.3099 264.982 51.8216 256.274 51.8216 256.274L42.3742 253.653L36.9609 266.919L38.4125 267.955L42.3523 262.633L51.9598 269.89H59.5629C59.5629 269.89 60.807 267.61 57.5584 266.297Z" fill="#1B1B43"/>
<path d="M53.4813 250.399L44.6341 248.118L42.375 253.653L51.8224 256.273L53.4813 250.399Z" fill="#FFBC96"/>
<path d="M76.1998 193.99L55.5615 252.404L53.1183 251.678L44.2606 249.037L43.1234 248.7L54.2288 193.768C41.6442 196.877 34.6744 193.483 32.169 187.844C31.4627 186.252 31.1429 184.409 31.0807 182.481C30.8408 174.704 34.8343 165.485 34.8343 165.485L46.7527 166.374L68.6748 176.324C70.847 177.31 72.6949 178.803 74.0986 180.642C75.5022 182.481 76.453 184.661 76.8306 187.016C77.2081 189.358 76.9905 191.756 76.1998 193.99Z" fill="#3E3E3E"/>
<path d="M45.4906 194.949C38.3059 194.949 34.0208 192.01 32.1704 187.844C31.4641 186.251 31.1442 184.409 31.082 182.481C37.3771 193.554 52.9645 193.769 54.1577 193.769C54.2056 193.769 54.2302 193.768 54.2302 193.768C50.9405 194.581 48.0337 194.949 45.4906 194.949Z" fill="#3E3E3E"/>
<path d="M46.1827 117.93L32.7585 148.938L36.3122 154.601C36.3122 154.601 32.7009 162.781 30.6484 168.483C30.6484 168.483 54.3771 175.182 74.811 170.074L71.4053 152.602L69.9616 125.837L61.446 118.125L46.1827 117.93Z" fill="#FFB147"/>
<path d="M66.6694 157.637L64.7076 157.896L60.7695 142.676L62.3195 142.239L66.6694 157.637Z" fill="#1B1B43"/>
<path d="M88.1576 150.468C84.7237 149.953 81.6216 148.827 81.6216 148.827L76.5131 128.508C75.5447 124.656 72.6707 121.573 68.8948 120.343L62.356 118.481C62.0361 118.392 61.7341 118.273 61.4453 118.126L67.4623 158.654C67.4623 158.654 77.7722 159.689 85.1754 159.877C84.9991 156.339 86.3415 152.27 88.1576 150.468Z" fill="#FFB147"/>
<path d="M99.2428 149.789C95.6335 149.345 92.9497 150.603 92.9497 150.603C91.4724 150.816 89.7785 150.709 88.1582 150.468C86.7863 152.491 84.2779 156.616 84.4541 160.153C86.0025 160.192 89.9805 160.054 90.9507 159.986C96.559 159.599 101.723 153.824 101.723 153.824C101.723 153.824 105.832 157.877 106.165 155.988C106.498 154.101 102.852 150.233 99.2428 149.789Z" fill="#FFBC96"/>
<path d="M81.1487 159.496H56.8984V157.458H81.1487V159.496Z" fill="white"/>
<path d="M48.971 159.377C48.971 159.377 59.3547 160.82 61.4647 158.876C61.4647 158.876 63.9634 158.933 64.5742 157.489C64.5742 157.489 65.5181 156.877 65.9623 155.657C65.9623 155.657 66.8508 154.212 66.5732 153.269L63.0749 151.492C63.0749 151.492 63.0607 151.371 63.0293 151.191C62.8892 150.401 62.2082 149.816 61.4041 149.806L55.3564 149.726C54.8061 149.718 54.2592 149.814 53.7435 150.006L47.5273 152.325L48.971 159.377Z" fill="#FFBC96"/>
<path d="M41.2022 134.277L34.9832 148.16L54.5287 149.714C48.7539 152.492 48.976 159.377 48.976 159.377L31.2473 159.837C28.9596 159.896 26.7563 158.981 25.1838 157.319C23.749 155.8 22.9805 153.81 22.9805 151.784C22.9805 150.937 23.1137 150.084 23.3891 149.256L30.661 127.29C31.8337 123.754 34.7167 121.054 38.3237 120.121L45.4223 118.285C45.6888 118.175 45.9465 118.054 46.1863 117.93L41.2022 134.277Z" fill="#FFB147"/>
<path d="M65.9243 155.733C65.075 155.376 64.2617 154.955 63.4577 154.518C62.6568 154.074 61.8679 153.608 61.1211 153.068L61.2055 152.915C62.0598 153.262 62.872 153.686 63.6721 154.131C64.4692 154.58 65.2569 155.048 66.0085 155.581L65.9243 155.733Z" fill="#D28572"/>
<path d="M64.5415 157.568C63.7449 157.357 62.9763 157.076 62.2149 156.778C61.4556 156.472 60.7056 156.145 59.9883 155.736L60.0531 155.575C60.8534 155.777 61.6212 156.062 62.3798 156.367C63.136 156.68 63.8851 157.009 64.6064 157.408L64.5415 157.568Z" fill="#D28572"/>
<path d="M61.432 158.954C61.0178 158.865 60.636 158.707 60.2628 158.533C59.8922 158.354 59.5326 158.153 59.2109 157.872L59.2872 157.716C59.706 157.796 60.0866 157.956 60.4563 158.137C60.8234 158.323 61.1822 158.528 61.5082 158.798L61.432 158.954Z" fill="#D28572"/>
<path d="M34.2378 159.857C34.1166 159.857 34.0178 159.761 34.0157 159.639C34.0134 159.516 34.1113 159.415 34.2339 159.413L48.7459 159.159C48.7231 153.598 52.2054 150.838 53.7193 149.903L53.7307 149.635L53.7087 149.855L36.5465 148.134L40.9085 131.888C40.9406 131.771 41.0624 131.699 41.1807 131.731C41.2992 131.763 41.3696 131.886 41.3376 132.003L37.1113 147.743L53.7529 149.415C53.9571 149.434 54.1184 149.576 54.1643 149.775C54.2101 149.975 54.1271 150.174 53.9526 150.282C52.4839 151.188 49.0794 153.891 49.1929 159.372L49.1974 159.594L34.2415 159.857H34.2378Z" fill="#1B1B43"/>
<path d="M72.6305 157.489C72.5162 157.489 72.4192 157.402 72.4094 157.287L70.1883 131.188C70.1778 131.065 70.2686 130.959 70.3907 130.948C70.5154 130.936 70.6205 131.028 70.6308 131.151L72.8519 157.248C72.8623 157.37 72.7715 157.479 72.6495 157.489H72.6305Z" fill="#1B1B43"/>
<path d="M85.1803 160.71C85.0751 160.71 84.9816 160.634 84.9621 160.527C84.0973 155.8 87.8235 150.559 87.9827 150.338C88.0542 150.237 88.1929 150.214 88.2926 150.287C88.3921 150.36 88.4147 150.498 88.3431 150.598C88.3054 150.649 84.5687 155.909 85.3988 160.447C85.421 160.568 85.3411 160.683 85.2204 160.706L85.1803 160.71Z" fill="#1B1B43"/>
<path d="M58.7479 129.391C58.7479 130.066 58.201 130.613 57.5263 130.613C56.8516 130.613 56.3047 130.066 56.3047 129.391C56.3047 128.717 56.8516 128.17 57.5263 128.17C58.201 128.17 58.7479 128.717 58.7479 129.391Z" fill="#1B1B43"/>
<path d="M61.4469 118.126C60.9138 121.356 58.7327 125.621 55.3389 123.95C52.8424 122.724 48.7023 119.512 46.1836 117.93C53.0734 114.329 49.6773 104.915 49.5842 104.627L58.0042 107.736C58.0042 107.736 58.0042 107.79 58.0086 107.882C58.0264 108.548 58.133 111.338 58.6217 113.861C58.6838 114.178 58.7505 114.483 58.8216 114.785C59.1769 116.248 60.1409 117.459 61.4469 118.126Z" fill="#FFBC96"/>
<path d="M58.6206 113.861C53.672 112.721 52.4727 107.603 52.4727 107.461L58.0076 107.882C58.0254 108.548 58.132 111.338 58.6206 113.861Z" fill="#D28572"/>
<path d="M62.2443 99.4064C62.2443 99.4064 63.1329 109.458 58.5241 110.29C53.9957 111.109 48.918 104.904 48.918 104.904L49.6953 95.6306L54.8593 92.2439C58.5253 93.7293 60.9138 95.8047 62.2443 99.4064Z" fill="#FFBC96"/>
<path d="M49.1431 102.904C51.5863 102.071 52.4747 99.9618 53.0855 97.0744C54.0249 92.634 60.415 96.186 62.2475 99.4057C62.2475 99.4057 63.247 90.4112 54.0295 90.5782C54.0295 90.5782 43.3127 90.9655 46.5333 102.293L49.1431 102.904Z" fill="#1B1B43"/>
<path d="M50.5568 102.218C51.5369 103.666 51.4359 105.444 50.3314 106.193C49.2269 106.941 47.537 106.374 46.5567 104.926C45.5766 103.479 45.6775 101.699 46.782 100.951C47.8867 100.203 49.5766 100.77 50.5568 102.218Z" fill="#FFBC96"/>
<path d="M60.4883 101.555C60.4883 101.882 60.7534 102.146 61.0805 102.146C61.4076 102.146 61.6727 101.882 61.6727 101.555C61.6727 101.228 61.4076 100.961 61.0805 100.961C60.7534 100.961 60.4883 101.228 60.4883 101.555Z" fill="#1B1B43"/>
<path d="M55.832 101.677C55.832 102.004 56.0971 102.269 56.4243 102.269C56.7514 102.269 57.0165 102.004 57.0165 101.677C57.0165 101.35 56.7514 101.085 56.4243 101.085C56.0971 101.085 55.832 101.35 55.832 101.677Z" fill="#1B1B43"/>
<path d="M59.0342 105.338C58.9193 105.338 58.8221 105.251 58.8132 105.134C58.8036 105.011 58.8951 104.904 59.0173 104.895C59.1934 104.881 59.7107 104.801 59.9863 104.6C60.0852 104.528 60.1284 104.442 60.1259 104.325C60.1178 103.959 59.6593 103.383 59.0593 102.984C58.9573 102.916 58.9294 102.777 58.9973 102.676C59.0651 102.573 59.2029 102.545 59.3054 102.614C59.9251 103.026 60.5566 103.712 60.5702 104.316C60.576 104.577 60.4644 104.801 60.2482 104.958C59.8136 105.276 59.0822 105.334 59.0513 105.338H59.0342Z" fill="#D28572"/>
<path d="M62.1472 100.256C61.9601 100.208 61.7721 100.16 61.5983 100.139C61.4222 100.121 61.2556 100.11 61.088 100.13C60.9215 100.151 60.7527 100.178 60.5761 100.229C60.3975 100.276 60.2168 100.341 60.0016 100.391L59.991 100.395C59.9163 100.412 59.8415 100.366 59.8239 100.292C59.8154 100.254 59.8223 100.217 59.8405 100.187C59.9616 99.9877 60.1299 99.8172 60.3366 99.6946C60.5398 99.5666 60.7838 99.492 61.0334 99.4689C61.2843 99.4511 61.5413 99.4938 61.7662 99.595C61.9928 99.6981 62.1852 99.8456 62.3222 100.064C62.3615 100.126 62.3426 100.208 62.2803 100.247C62.2478 100.268 62.2103 100.272 62.176 100.263L62.1472 100.256Z" fill="#1B1B43"/>
<path d="M54.9058 100.237C55.0728 100.015 55.2852 99.8586 55.5284 99.736C55.7704 99.6152 56.048 99.5495 56.334 99.5459C56.6198 99.5406 56.9142 99.6206 57.155 99.7698C57.4041 99.9102 57.5862 100.131 57.7077 100.367C57.742 100.433 57.7161 100.514 57.6496 100.548C57.613 100.568 57.572 100.568 57.5368 100.553L57.5201 100.546C57.2918 100.454 57.1047 100.351 56.9073 100.301C56.7154 100.241 56.5268 100.209 56.3303 100.209C55.939 100.198 55.516 100.312 55.0659 100.441L55.0504 100.447C54.979 100.466 54.9046 100.425 54.8841 100.354C54.872 100.314 54.8816 100.269 54.9058 100.237Z" fill="#1B1B43"/>
<path d="M54.6486 105.609C53.8611 105.609 53.2227 104.975 53.2227 104.193C53.2227 103.413 53.8611 102.779 54.6486 102.779C55.4361 102.779 56.0745 103.413 56.0745 104.193C56.0745 104.975 55.4361 105.609 54.6486 105.609Z" fill="#FF957B"/>
<path d="M58.2933 107.086C57.4154 107.086 56.926 106.647 56.8997 106.622C56.8095 106.539 56.8038 106.398 56.8869 106.308C56.9697 106.219 57.1096 106.212 57.1998 106.295C57.2293 106.322 57.8713 106.88 59.0403 106.524C59.1583 106.489 59.2818 106.555 59.3173 106.672C59.3529 106.789 59.2864 106.914 59.1692 106.949C58.8449 107.047 58.552 107.086 58.2933 107.086Z" fill="#1B1B43"/>
<path d="M49.9763 104.404C49.8907 104.404 49.8091 104.355 49.7727 104.271C49.7352 104.186 48.8402 102.185 47.378 102.794C47.2659 102.842 47.1348 102.789 47.0875 102.675C47.0403 102.563 47.0937 102.432 47.2067 102.386C48.6984 101.764 49.804 103.23 50.1798 104.093C50.2287 104.205 50.1775 104.337 50.065 104.385C50.036 104.399 50.0058 104.404 49.9763 104.404Z" fill="#1B1B43"/>
<path d="M56.8262 124.55C56.3109 124.55 55.7808 124.417 55.2403 124.15C53.6577 123.374 51.4798 121.847 49.3735 120.371C48.1515 119.514 46.9976 118.706 46.0649 118.119C45.9612 118.055 45.9297 117.919 45.9949 117.814C46.06 117.711 46.1973 117.679 46.3009 117.744C47.2435 118.336 48.4019 119.146 49.6284 120.006C51.7209 121.474 53.8846 122.99 55.4363 123.752C56.3503 124.202 57.2221 124.219 58.0282 123.805C59.7312 122.929 60.8618 120.305 61.2273 118.091C61.247 117.97 61.3584 117.885 61.4826 117.908C61.6036 117.927 61.6854 118.043 61.6655 118.164C61.282 120.486 60.0714 123.253 58.2311 124.2C57.7777 124.433 57.3084 124.55 56.8262 124.55Z" fill="#1B1B43"/>
<path d="M220.776 173.259C220.517 175.894 220.22 178.575 219.891 181.299C217.199 203.835 212.286 229.221 206.561 255.661C198.231 259.401 193.789 257.772 193.789 257.772C199.786 227.787 202.229 175.37 202.229 175.37L220.776 173.259Z" fill="#FFBC96"/>
<path d="M193.789 257.771C193.789 257.771 181.351 264.989 181.573 269.765H198.121L201.785 266.988L202.674 269.875H207.56C207.56 269.875 208.67 265.433 206.561 255.66C198.231 259.399 193.789 257.771 193.789 257.771Z" fill="#1B1B43"/>
<path d="M220.773 173.259C220.514 175.894 220.217 178.575 219.889 181.299C210.276 180.638 202.227 175.369 202.227 175.369L220.773 173.259Z" fill="#D28572"/>
<path d="M250.795 255.661L243.763 260.991L238.903 257.772C238.903 257.772 231.627 198.312 226.319 177.958C225.9 176.354 225.496 174.996 225.105 173.925L242.208 176.59C242.631 178.518 243.034 180.446 243.413 182.379C248.222 206.633 249.987 231.113 250.795 255.661Z" fill="#FFBC96"/>
<path d="M238.902 257.771C238.902 257.771 227.324 264.989 227.53 269.765H242.934L246.345 266.988L247.173 269.875H251.722C251.722 269.875 252.754 265.433 250.791 255.66C243.037 259.399 238.902 257.771 238.902 257.771Z" fill="#1B1B43"/>
<path d="M243.413 182.379C234.981 182.262 226.438 178.034 226.438 178.034L226.319 177.958C225.9 176.354 225.496 174.996 225.105 173.925L242.208 176.59C242.631 178.518 243.034 180.446 243.413 182.379Z" fill="#D28572"/>
<path d="M199.951 210.014C201.838 210.31 203.725 210.605 205.614 210.902C205.893 210.946 206.013 210.518 205.731 210.474C203.844 210.177 201.955 209.882 200.068 209.585C199.787 209.541 199.668 209.969 199.951 210.014Z" fill="#D28572"/>
<path d="M233.324 213.035C235.063 213.073 236.803 213.11 238.543 213.147C238.829 213.153 238.829 212.709 238.543 212.703C236.803 212.666 235.063 212.629 233.324 212.591C233.038 212.586 233.038 213.03 233.324 213.035Z" fill="#D28572"/>
<path d="M176.133 92.5201C176.133 92.5201 177.538 85.5246 188.384 82.8593L183.018 92.7422L176.133 92.5201Z" fill="#1B1B43"/>
<path d="M183.967 76.4366C183.798 77.7622 183.338 79.2139 182.599 79.2139C181.862 79.2139 181.627 78.0198 181.689 76.3816C181.789 73.6789 182.226 73.2169 182.965 73.2169C183.702 73.2169 184.301 73.7998 183.967 76.4366Z" fill="#FFBC96"/>
<path d="M176.168 69.9404L177.669 71.6621L192.966 77.8261C193.507 78.0429 194.121 77.7817 194.338 77.2415C194.557 76.7013 194.296 76.0866 193.754 75.868L178.458 69.7058L176.168 69.9404Z" fill="#1B1B43"/>
<path d="M188.384 82.8596L186.163 87.9681L179.871 91.4863C179.225 89.8338 178.761 88.2027 178.434 86.7066C177.531 82.6322 177.611 79.528 177.611 79.528L183.869 77.0084L184.017 73.7532C184.351 69.2577 186.167 71.0613 186.629 74.2507C187.482 80.189 188.384 82.8596 188.384 82.8596Z" fill="#FFBC96"/>
<path d="M188.384 82.8596L186.163 87.9681L179.871 91.4863C179.224 89.8338 178.761 88.2027 178.434 86.7066L188.384 82.8596Z" fill="#D28572"/>
<path d="M182.013 77.0312C181.823 78.355 181.297 79.8066 180.456 79.8066C179.614 79.8066 179.347 78.6126 179.417 76.9743C179.53 74.2717 180.03 73.8097 180.87 73.8097C181.712 73.8097 182.395 74.3925 182.013 77.0312Z" fill="#FFBC96"/>
<path d="M180.014 78.3058C179.804 79.6313 179.227 81.083 178.303 81.083C177.381 81.083 177.088 79.8889 177.164 78.2507C177.29 75.5481 177.836 75.0861 178.76 75.0861C179.684 75.0861 180.432 75.6689 180.014 78.3058Z" fill="#FFBC96"/>
<path d="M182.011 79.9413C181.711 79.9111 181.373 79.5575 181.221 78.2621C181.206 78.1413 181.272 78.0258 181.37 78.0027C181.468 77.9796 181.557 78.0578 181.571 78.1768C181.674 79.0546 181.88 79.5415 182.113 79.4953C182.662 79.3744 183.511 77.1285 183.349 75.3374C183.339 75.2166 183.408 75.1029 183.504 75.0833C183.603 75.0638 183.689 75.1473 183.699 75.2681C183.868 77.1303 183.003 79.7458 182.157 79.9306C182.111 79.9413 182.061 79.9466 182.011 79.9413Z" fill="#D28572"/>
<path d="M179.94 80.57C179.837 80.5612 179.59 80.5061 179.379 80.2307C178.993 79.7314 178.94 78.7932 179.217 77.4428C179.242 77.3219 179.354 77.242 179.464 77.2704C179.576 77.2935 179.647 77.4108 179.622 77.5316C179.301 79.1006 179.526 79.71 179.69 79.9322C179.828 80.1223 179.987 80.1276 179.992 80.1294C180.251 80.1294 180.465 80.0281 180.648 79.822C181.433 78.9336 181.316 76.5419 181.314 76.517C181.307 76.3944 181.394 76.2896 181.509 76.2807C181.621 76.2718 181.721 76.3642 181.728 76.4868C181.733 76.5916 181.856 79.097 180.946 80.1241C180.683 80.4226 180.362 80.5736 179.988 80.5718C179.981 80.5718 179.965 80.5736 179.94 80.57Z" fill="#D28572"/>
<path d="M177.628 80.8464C177.596 80.8446 177.564 80.8393 177.532 80.8357C177.34 80.8037 177.177 80.6918 177.058 80.5105C176.59 79.7998 176.887 78.1011 176.921 77.9092C176.944 77.7884 177.061 77.712 177.166 77.7315C177.278 77.7546 177.351 77.8701 177.329 77.9909C177.242 78.4583 177.086 79.7785 177.399 80.2529C177.454 80.3382 177.518 80.3826 177.599 80.395C178.232 80.4945 178.68 80.0805 179.062 79.0464C179.104 78.9309 179.225 78.874 179.332 78.9185C179.439 78.9611 179.49 79.0908 179.447 79.2045C179.286 79.6452 178.797 80.9619 177.628 80.8464Z" fill="#D28572"/>
<path d="M245.318 102.85L230.327 87.7467L219.332 87.9688L207.613 130.049L245.784 131.916C246.26 121.013 246.212 111.196 245.318 102.85Z" fill="white"/>
<path d="M207.61 130.049L204.67 140.609C204.67 153.936 202.227 175.258 202.227 175.258C217.552 180.811 242.206 176.591 242.206 176.591C243.802 160.512 245.193 145.385 245.781 131.917L207.61 130.049Z" fill="#FFB147"/>
<path d="M225.273 96.1191C223.384 96.1191 221.522 95.5665 219.695 94.4613C219.569 94.3849 219.437 94.3067 219.4 94.2925C219.277 94.2925 219.199 94.1966 219.199 94.074C219.199 93.9514 219.318 93.8536 219.443 93.8536C219.549 93.8536 219.643 93.9123 219.924 94.0828C223.529 96.2631 227.289 96.1973 231.099 93.8874C231.202 93.8234 231.339 93.8572 231.403 93.962C231.467 94.0669 231.433 94.2019 231.328 94.2659C229.292 95.5026 227.268 96.1191 225.273 96.1191Z" fill="#1B1B43"/>
<path d="M224.52 178.286C210.712 178.286 202.27 175.505 202.155 175.466C202.039 175.427 201.975 175.301 202.016 175.186C202.055 175.07 202.182 175.008 202.297 175.047C202.455 175.1 218.299 180.312 242.17 176.371C242.287 176.348 242.404 176.433 242.424 176.554C242.445 176.675 242.362 176.788 242.241 176.808C235.679 177.892 229.719 178.286 224.52 178.286Z" fill="#1B1B43"/>
<path d="M219.332 87.9687L213.268 88.0202C211.606 88.0344 209.97 88.4253 208.482 89.1645L193.123 96.7784L188.384 82.8602L176.133 92.521L183.489 107.761C184.708 110.286 187.188 111.96 189.985 112.146C191.385 112.241 192.784 111.955 194.033 111.318L205.673 105.403C205.673 105.403 206.45 131.058 200.787 146.051C200.787 146.051 212.559 149.605 220.777 145.939C220.777 145.939 226.329 103.738 219.332 87.9687Z" fill="#393A8F"/>
<path d="M261.68 136.167C260.125 121.061 255.071 105.875 252.642 99.2256C251.823 96.9814 250.418 94.9984 248.579 93.4757C246.971 92.143 245.075 91.2012 243.04 90.725L230.327 87.747C228.58 105.199 230.609 125.557 233.102 146.273C233.102 146.273 252.204 145.385 258.312 141.607L261.68 136.167Z" fill="#393A8F"/>
<path d="M248.06 116.843C247.952 116.843 247.858 116.765 247.84 116.654L245.472 101.551C245.452 101.43 245.536 101.317 245.656 101.297C245.775 101.279 245.891 101.361 245.91 101.484L248.279 116.587C248.299 116.708 248.215 116.821 248.094 116.839L248.06 116.843Z" fill="#1B1B43"/>
<path d="M255.621 141.224L237.707 135.111L245.509 112.63L263.424 118.745L255.621 141.224Z" fill="white"/>
<path d="M237.987 134.972L255.482 140.943L263.138 118.883L245.645 112.913L237.987 134.972ZM255.756 141.506L237.422 135.248L237.495 135.036L245.37 112.349L263.705 118.606L263.632 118.817L255.756 141.506Z" fill="#1B1B43"/>
<path d="M248.574 120.321L257.83 123.357L248.574 120.321Z" fill="white"/>
<path d="M257.829 123.58C257.806 123.58 257.783 123.577 257.76 123.568L248.504 120.533C248.389 120.495 248.325 120.369 248.362 120.252C248.401 120.137 248.527 120.073 248.643 120.112L257.899 123.147C258.014 123.184 258.078 123.31 258.041 123.427C258.009 123.52 257.922 123.58 257.829 123.58Z" fill="#1B1B43"/>
<path d="M248.984 123.581L255.054 125.505L248.984 123.581Z" fill="white"/>
<path d="M255.051 125.728C255.03 125.728 255.007 125.724 254.984 125.717L248.914 123.793C248.797 123.755 248.731 123.631 248.768 123.514C248.806 123.396 248.928 123.331 249.047 123.368L255.119 125.294C255.236 125.331 255.3 125.456 255.263 125.573C255.234 125.667 255.145 125.728 255.051 125.728Z" fill="#1B1B43"/>
<path d="M257.416 118.271L252.023 116.424L253.045 113.442L258.438 115.29L257.416 118.271Z" fill="#1B1B43"/>
<path d="M200.453 108.181C200.374 108.181 200.3 108.14 200.259 108.067C200.199 107.959 200.238 107.824 200.344 107.765L210.561 102.1C210.67 102.04 210.805 102.079 210.863 102.187C210.924 102.294 210.885 102.429 210.778 102.489L200.561 108.152C200.527 108.172 200.49 108.181 200.453 108.181Z" fill="#1B1B43"/>
<path d="M262.344 141.128C262.344 141.128 265.009 134.242 255.533 129.059C255.533 129.059 253.237 128.171 254.941 131.65C254.941 131.65 251.313 127.504 252.201 132.316C252.201 132.316 249.314 129.429 250.794 134.909C250.794 134.909 247.907 133.354 249.683 139.868C251.46 146.384 258.568 148.974 262.344 141.128Z" fill="#FFBC96"/>
<path d="M258.273 135.944C258.2 135.944 258.131 135.911 258.089 135.845C256.926 134.104 254.8 131.826 254.778 131.802C254.695 131.712 254.7 131.571 254.789 131.488C254.879 131.404 255.02 131.41 255.103 131.499C255.125 131.522 257.276 133.828 258.458 135.6C258.526 135.701 258.497 135.84 258.396 135.907C258.359 135.932 258.316 135.944 258.273 135.944Z" fill="#D28572"/>
<path d="M254.943 136.833C254.854 136.833 254.769 136.78 254.735 136.691C253.873 134.464 252.132 132.561 252.114 132.542C252.03 132.451 252.036 132.311 252.126 132.227C252.217 132.144 252.357 132.151 252.441 132.24C252.514 132.32 254.255 134.223 255.149 136.531C255.193 136.645 255.136 136.774 255.023 136.819C254.996 136.828 254.969 136.833 254.943 136.833Z" fill="#D28572"/>
<path d="M252.128 138.239C252.013 138.239 251.915 138.149 251.906 138.03C251.837 136.917 250.623 135.048 250.611 135.028C250.543 134.925 250.572 134.789 250.675 134.721C250.776 134.654 250.915 134.682 250.982 134.785C251.036 134.867 252.274 136.773 252.35 138.003C252.357 138.126 252.265 138.23 252.142 138.237L252.128 138.239Z" fill="#D28572"/>
<path d="M234.953 118.028C234.841 118.028 234.745 117.943 234.731 117.829C234.592 116.562 234.427 115.216 234.257 113.837C233.672 109.076 233.066 104.155 233.249 100.544L233.262 100.485L235.079 94.9557L231.653 89.268C231.59 89.1631 231.623 89.0263 231.728 88.9641C231.833 88.9002 231.97 88.9339 232.034 89.0387L235.566 94.9006L233.692 100.595C233.516 104.165 234.116 109.053 234.697 113.782C234.868 115.164 235.033 116.513 235.173 117.781C235.188 117.904 235.099 118.012 234.976 118.027L234.953 118.028Z" fill="#1B1B43"/>
<path d="M218.071 118.25C218.055 118.25 218.039 118.248 218.023 118.245C217.902 118.218 217.828 118.099 217.854 117.98C219.096 112.31 219.31 106.548 218.451 101.746L214.93 96.1262L218.389 89.1289C218.444 89.0188 218.579 88.9743 218.688 89.0277C218.796 89.0827 218.842 89.216 218.787 89.3262L215.438 96.0996L218.881 101.626C219.757 106.491 219.548 112.331 218.288 118.074C218.265 118.179 218.172 118.25 218.071 118.25Z" fill="#1B1B43"/>
<path d="M230.323 87.7465C228.324 91.7444 223.216 93.5213 219.328 87.9686C219.609 86.8936 219.941 85.7866 220.266 84.6547C220.878 82.4905 221.446 80.225 221.496 77.8529C221.505 77.4406 221.499 77.0231 221.475 76.6055L229.767 77.382L230.323 87.7465Z" fill="#FFBC96"/>
<path d="M227.915 78.7498C227.915 78.7498 225.996 83.032 220.266 84.6543C220.877 82.4901 221.445 80.2246 221.495 77.8525L227.915 78.7498Z" fill="#D28572"/>
<path d="M232.214 68.7909L229.402 78.1194C229.402 78.1194 224.663 82.5047 219.998 80.2694C218.737 79.6617 218.239 77.8529 218.138 75.7349C218.106 75.1485 218.106 74.5355 218.133 73.9171C218.271 70.2532 219.185 66.4241 219.185 66.4241L226.143 62.945L232.214 68.7909Z" fill="#FFBC96"/>
<path d="M231.55 74.3458C231.55 74.3458 224.518 70.1257 223.851 65.9803C223.851 65.9803 222.352 66.3321 218.945 67.5901C218.945 67.5901 219.446 61.3995 226.275 60.7048C232.645 60.058 240.287 65.202 241.989 78.9727L230.143 85.3037L229.551 74.9393L231.55 74.3458Z" fill="#1B1B43"/>
<path d="M231.75 75.3855C231.02 77.0753 229.41 78.0046 228.152 77.4609C226.894 76.9172 226.466 75.1083 227.196 73.4185C227.925 71.7305 229.536 70.8012 230.794 71.3431C232.051 71.8869 232.479 73.6957 231.75 75.3855Z" fill="#FFBC96"/>
<path d="M228.487 74.8701C228.448 74.8701 228.409 74.8612 228.371 74.8381C228.267 74.7742 228.235 74.6373 228.299 74.5325C228.309 74.5147 229.406 72.7521 231.129 73.2407C231.248 73.2727 231.316 73.3971 231.282 73.5144C231.248 73.6316 231.127 73.7009 231.008 73.6672C229.606 73.2692 228.686 74.7493 228.677 74.7635C228.636 74.8328 228.562 74.8701 228.487 74.8701Z" fill="#1B1B43"/>
<path d="M219.961 72.1808C219.961 72.5077 219.696 72.7725 219.369 72.7725C219.042 72.7725 218.777 72.5077 218.777 72.1808C218.777 71.8538 219.042 71.5873 219.369 71.5873C219.696 71.5873 219.961 71.8538 219.961 72.1808Z" fill="#1B1B43"/>
<path d="M224.216 72.2726C224.216 72.5995 223.952 72.8643 223.625 72.8643C223.298 72.8643 223.031 72.5995 223.031 72.2726C223.031 71.9456 223.298 71.6791 223.625 71.6791C223.952 71.6791 224.216 71.9456 224.216 72.2726Z" fill="#1B1B43"/>
<path d="M221.311 76.0117L221.291 76.0099C221.259 76.0082 220.522 75.9407 220.085 75.5782C219.875 75.404 219.768 75.1624 219.774 74.8781C219.79 74.2135 220.435 73.4299 221.028 72.9839C221.126 72.9111 221.264 72.9289 221.339 73.0266C221.414 73.1243 221.394 73.2647 221.295 73.3375C220.69 73.7942 220.229 74.4605 220.218 74.8888C220.214 75.038 220.262 75.1482 220.369 75.237C220.698 75.5089 221.323 75.5675 221.328 75.5675C221.451 75.5782 221.542 75.6866 221.531 75.8092C221.52 75.9247 221.424 76.0117 221.311 76.0117Z" fill="#D28572"/>
<path d="M221.144 77.8447C221.032 77.8447 220.936 77.7612 220.923 77.6475C220.909 77.5267 220.996 77.4165 221.119 77.4023C221.131 77.4005 222.375 77.2477 223.155 76.2971C223.235 76.2029 223.374 76.1887 223.468 76.2669C223.564 76.3451 223.576 76.4836 223.5 76.5796C222.601 77.6724 221.225 77.8376 221.169 77.8429L221.144 77.8447Z" fill="#1B1B43"/>
<path d="M218.357 70.548C218.494 70.3294 218.686 70.1819 218.913 70.0806C219.137 69.9776 219.395 69.9349 219.645 69.9527C219.896 69.9758 220.139 70.0504 220.342 70.1784C220.55 70.301 220.717 70.4716 220.837 70.6706C220.878 70.7363 220.857 70.8216 220.791 70.8625C220.759 70.882 220.722 70.8856 220.688 70.8785L220.677 70.8767C220.462 70.8251 220.281 70.7594 220.102 70.7132C219.926 70.6617 219.757 70.635 219.59 70.6137C219.423 70.5942 219.256 70.6048 219.08 70.6226C218.906 70.6439 218.718 70.6919 218.531 70.7399L218.503 70.747C218.432 70.7665 218.359 70.7239 218.341 70.6528C218.33 70.6155 218.337 70.5782 218.357 70.548Z" fill="#1B1B43"/>
<path d="M225.168 70.9982C224.733 70.8311 224.321 70.6801 223.93 70.657C223.734 70.6392 223.544 70.6552 223.347 70.6979C223.146 70.7316 222.951 70.8169 222.714 70.8915L222.698 70.8951C222.627 70.9182 222.551 70.8773 222.53 70.8062C222.517 70.7672 222.524 70.7263 222.544 70.6943C222.686 70.4704 222.885 70.2661 223.146 70.1488C223.399 70.0191 223.699 69.9658 223.983 69.996C224.267 70.0244 224.539 70.115 224.77 70.2554C225.001 70.3976 225.198 70.5717 225.346 70.808C225.385 70.872 225.367 70.9537 225.303 70.9928C225.266 71.0159 225.223 71.0195 225.184 71.0053L225.168 70.9982Z" fill="#1B1B43"/>
<path d="M225.384 75.3633C224.877 75.3633 224.469 74.9564 224.469 74.4553C224.469 73.9542 224.877 73.5473 225.384 73.5473C225.888 73.5473 226.299 73.9542 226.299 74.4553C226.299 74.9564 225.888 75.3633 225.384 75.3633Z" fill="#FF957B"/>
<path d="M218.138 75.7354C218.12 75.4333 218.113 75.1241 218.113 74.8096C218.113 74.5164 218.12 74.2179 218.133 73.9176C218.639 73.923 219.044 74.3227 219.044 74.8238C219.044 75.3213 218.639 75.73 218.138 75.7354Z" fill="#FF957B"/>
<path d="M223.83 64.6248C223.851 65.4421 223.915 66.263 224.038 67.068C224.171 67.8711 224.331 68.6725 224.642 69.4116C224.935 70.149 225.356 70.8527 225.99 71.3022C226.612 71.7731 227.43 71.9135 228.238 71.8548H228.24C228.288 71.8513 228.329 71.8868 228.332 71.9348C228.336 71.9792 228.306 72.0183 228.263 72.0254C227.849 72.1072 227.421 72.1409 226.989 72.0841C226.561 72.0165 226.14 71.8602 225.77 71.6221C225.026 71.1352 224.549 70.3569 224.233 69.5751C223.926 68.7791 223.752 67.9493 223.666 67.1159C223.583 66.2826 223.57 65.4475 223.657 64.6141C223.661 64.5679 223.704 64.5324 223.752 64.5377C223.796 64.543 223.83 64.5786 223.83 64.6212V64.6248Z" fill="#1B1B43"/>
<path d="M229.396 60.8958C231.371 61.2903 233.192 62.1876 234.851 63.2981C236.515 64.4122 237.97 65.8088 239.267 67.3245L240.187 68.5061C240.497 68.8988 240.744 69.3359 241.024 69.7481C241.596 70.5673 242.041 71.4628 242.513 72.3406C242.764 72.7724 242.934 73.2414 243.139 73.6963L243.73 75.0663C244.061 76.0045 244.363 76.9516 244.679 77.8915C244.695 77.9359 244.67 77.9857 244.626 78.0017C244.582 78.0159 244.534 77.9928 244.518 77.9501L244.514 77.943C244.155 77.0226 243.81 76.0969 243.443 75.1818L242.821 73.842C242.607 73.3978 242.426 72.9376 242.169 72.5183C241.678 71.6654 241.245 70.7787 240.669 69.9791C240.39 69.5758 240.145 69.1475 239.837 68.7655L238.929 67.607C237.671 66.1002 236.239 64.7409 234.638 63.6055C234.237 63.3248 233.835 63.0422 233.407 62.8041C233.194 62.6815 232.988 62.5483 232.771 62.4328L232.115 62.0987C231.237 61.6687 230.317 61.2885 229.368 61.0681L229.361 61.0664C229.313 61.0539 229.285 61.0077 229.295 60.9615C229.306 60.9153 229.352 60.8869 229.396 60.8958Z" fill="#1B1B43"/>
<path d="M89.2188 159.488H106.099V155.712H89.2188V159.488Z" fill="#1B1B43"/>
<path d="M131.243 137.271L128.684 143.57L122.758 158.169C122.425 158.99 121.701 159.518 120.901 159.518H97.1445L105.976 137.756C106.908 135.459 108.938 133.984 111.173 133.984H129.381C130.874 133.984 131.864 135.734 131.243 137.271Z" fill="#4870C0"/>
<path d="M120.904 159.518H105.379C117.053 155.632 124.307 149.19 128.687 143.57L128.229 144.699L128.049 145.143L122.761 158.169C122.428 158.99 121.704 159.518 120.904 159.518Z" fill="#B9B9EC"/>
<path d="M194.509 159.488H177.629V155.712H194.509V159.488Z" fill="#1B1B43"/>
<path d="M186.584 159.518H162.827C162.028 159.518 161.303 158.99 160.97 158.169L155.551 144.819L152.486 137.271C151.864 135.734 152.854 133.984 154.348 133.984H172.561C174.791 133.984 176.82 135.459 177.753 137.756L186.584 159.518Z" fill="#4870C0"/>
<path d="M174.959 159.518H162.827C162.027 159.518 161.302 158.99 160.97 158.169L155.551 144.819C159.744 149.741 166.647 156.49 174.959 159.518Z" fill="#B9B9EC"/>
<path d="M78.1367 269.875H73.0508V162.529H78.1367V269.875Z" fill="white"/>
<path d="M73.2723 269.653H77.9142V162.752H73.2723V269.653ZM78.3584 270.098H72.8281V162.308H78.3584V270.098Z" fill="#1B1B43"/>
<path d="M193.925 269.875H188.84V162.529H193.925V269.875Z" fill="white"/>
<path d="M189.061 269.653H193.703V162.752H189.061V269.653ZM194.147 270.098H188.617V162.308H194.147V270.098Z" fill="#1B1B43"/>
<path d="M224.438 163.663H42.5312V159.443H224.438V163.663Z" fill="white"/>
<path d="M42.7567 163.442H224.219V159.666H42.7567V163.442ZM224.663 163.886H42.3125V159.221H224.663V163.886Z" fill="#1B1B43"/>
</svg>
