<svg width="285" height="285" viewBox="0 0 285 285" fill="none" xmlns="http://www.w3.org/2000/svg">
<rect width="285" height="285" fill="#F3E9FF"/>
<path d="M225.712 117.315L223.156 116.63L222.5 112.634C222.925 110.706 223.272 108.763 223.544 106.804C224.167 106.948 224.803 107.021 225.44 107.021C227.575 107.021 229.71 106.207 231.337 104.58C234.591 101.325 234.585 96.0471 231.33 92.7925C229.703 91.1655 227.572 90.3517 225.44 90.3517C224.968 90.3517 224.496 90.3919 224.029 90.4717C223.872 88.4588 223.634 86.4583 223.317 84.4726C223.817 84.1564 224.193 83.6653 224.353 83.0732L225.162 80.058L234.99 82.6932L234.18 85.7107C233.944 86.5931 234.25 87.5156 234.928 88.1279C235.114 88.2951 235.296 88.4683 235.476 88.6479C235.653 88.8252 235.825 89.0061 235.991 89.191C236.467 89.7176 237.129 90.0208 237.815 90.0208C238.014 90.0208 238.217 89.9954 238.417 89.9416L241.43 89.1331L244.066 98.96L241.057 99.7655C240.172 100.003 239.513 100.724 239.325 101.62C239.22 102.115 239.089 102.606 238.931 103.09C238.648 103.959 238.859 104.911 239.505 105.557L241.707 107.759L234.511 114.956L232.308 112.754C231.851 112.296 231.239 112.057 230.613 112.057C230.355 112.057 230.095 112.098 229.842 112.18C229.358 112.338 228.867 112.469 228.372 112.573C227.476 112.762 226.754 113.421 226.518 114.306L225.712 117.315ZM207.433 100.738L206.809 98.4122L207.564 98.2095C207.538 99.0552 207.494 99.8985 207.433 100.738Z" fill="#F3F2F1"/>
<path d="M69.0633 62.1897C65.8087 65.4442 60.5252 65.4442 57.2706 62.1897C54.0156 58.9351 54.0214 53.6576 57.276 50.4025C60.5303 47.1479 65.8025 47.1479 69.0571 50.4025C72.3116 53.657 72.3179 58.9345 69.0633 62.1897ZM76.1436 47.551C75.2578 47.7885 74.3326 47.4812 73.7182 46.8004C73.5513 46.616 73.3791 46.4346 73.2018 46.2573C73.0227 46.0782 72.8403 45.9051 72.6547 45.7372C71.9765 45.125 71.6699 44.203 71.9067 43.3201L72.7159 40.3031L62.8884 37.6673L62.0788 40.6831C61.8413 41.5678 61.119 42.2262 60.2223 42.4141C59.7286 42.5175 59.2398 42.6476 58.7576 42.8042C57.8893 43.0861 56.9386 42.8745 56.2932 42.2292L54.0901 40.0266L46.8935 47.2236L49.0963 49.4267C49.7418 50.0721 49.9532 51.023 49.6714 51.8906C49.5149 52.3728 49.3849 52.8621 49.2815 53.3556C49.0935 54.2521 48.4357 54.9749 47.5505 55.2125L44.5352 56.0221L47.1715 65.8496L50.2023 65.0382C51.0837 64.8024 52.0041 65.1085 52.6155 65.7858C52.7821 65.9708 52.9544 66.1516 53.1314 66.3289C53.309 66.5068 53.4899 66.6788 53.6746 66.8454C54.3554 67.4595 54.6625 68.385 54.4242 69.2703L53.6116 72.289L63.4391 74.9248L64.2443 71.9155C64.4811 71.0308 65.2021 70.3719 66.0985 70.1827C66.5937 70.0787 67.0847 69.9469 67.5686 69.7897C68.4373 69.5066 69.389 69.7176 70.035 70.3636L72.2373 72.5662L79.4342 65.3686L77.2318 63.1666C76.5859 62.52 76.3747 61.5685 76.6577 60.6998C76.8154 60.2158 76.9467 59.7253 77.0511 59.2294C77.2399 58.3335 77.8986 57.6125 78.7834 57.3755L81.7926 56.57L79.156 46.7425L76.1436 47.551Z" fill="#584FAB"/>
<path d="M62.3915 101.308H57.7735V99.8946C57.7735 99.4803 57.5359 99.1068 57.1663 98.9194C56.9604 98.8142 56.761 98.699 56.5684 98.5737C56.3826 98.4526 56.1697 98.3905 55.9569 98.3905C55.7713 98.3905 55.5855 98.4378 55.4176 98.5347L54.1939 99.2415L51.8867 95.2429L53.116 94.5355C53.4766 94.3281 53.6747 93.9321 53.6534 93.5167C53.6479 93.4044 53.6449 93.2909 53.6449 93.1768C53.6449 93.0634 53.6479 92.9499 53.6534 92.8376C53.6747 92.4239 53.4778 92.0303 53.1195 91.8229L51.8867 91.1108L54.1939 87.1121L55.4211 87.8202C55.5887 87.9165 55.7741 87.9638 55.9594 87.9638C56.1727 87.9638 56.3861 87.9011 56.5723 87.7794C56.7637 87.6547 56.9625 87.5394 57.1673 87.4348C57.5364 87.2469 57.7735 86.874 57.7735 86.4597V85.0461H62.3915V86.4597C62.3915 86.874 62.6288 87.2469 62.9977 87.4348C63.2027 87.5394 63.4012 87.6547 63.5926 87.7794C63.7789 87.9011 63.9922 87.9638 64.2055 87.9638C64.3909 87.9638 64.5763 87.9165 64.7439 87.8202L65.9711 87.1121L68.2783 91.1108L67.0505 91.8194C66.6913 92.0262 66.494 92.4204 66.515 92.8347C66.5207 92.9475 66.5237 93.0622 66.5237 93.1768C66.5237 93.2909 66.5207 93.4044 66.515 93.5167C66.4937 93.9321 66.6921 94.3281 67.0524 94.5361L68.2783 95.2429L65.9711 99.2415L64.7474 98.5347C64.5795 98.4378 64.3937 98.3905 64.2081 98.3905C63.9952 98.3905 63.7823 98.4526 63.5965 98.5737C63.404 98.699 63.2045 98.8142 62.9986 98.9194C62.6293 99.1068 62.3915 99.4803 62.3915 99.8946V101.308ZM60.0843 89.3975C57.996 89.3975 56.3009 91.0889 56.3009 93.1768C56.3009 95.2654 57.996 96.9603 60.0843 96.9603C62.1726 96.9603 63.8641 95.2654 63.8641 93.1768C63.8641 91.0889 62.1726 89.3975 60.0843 89.3975Z" fill="#B5AFEC"/>
<path d="M28.5047 32.3027H23.8868V30.8897C23.8868 30.4754 23.6492 30.1019 23.2796 29.9146C23.0737 29.8094 22.8742 29.6941 22.6817 29.5688C22.4959 29.4477 22.283 29.3856 22.0702 29.3856C21.8846 29.3856 21.6987 29.4329 21.5309 29.5298L20.3071 30.2366L18 26.238L19.2293 25.5306C19.5899 25.3232 19.788 24.9272 19.7667 24.5118C19.7612 24.3995 19.7582 24.286 19.7582 24.172C19.7582 24.0585 19.7612 23.945 19.7667 23.8327C19.788 23.419 19.591 23.0255 19.2328 22.818L18 22.1059L20.3071 18.1073L21.5344 18.8153C21.702 18.9116 21.8873 18.9589 22.0727 18.9589C22.286 18.9589 22.4993 18.8962 22.6856 18.7745C22.877 18.6498 23.0758 18.5346 23.2806 18.43C23.6497 18.242 23.8868 17.8691 23.8868 17.4548V16.0412H28.5047V17.4548C28.5047 17.8691 28.7421 18.242 29.111 18.43C29.316 18.5346 29.5145 18.6498 29.7059 18.7745C29.8922 18.8962 30.1055 18.9589 30.3188 18.9589C30.5042 18.9589 30.6896 18.9116 30.8572 18.8153L32.0844 18.1073L34.3915 22.1059L33.1638 22.8145C32.8046 23.0213 32.6072 23.4155 32.6283 23.8298C32.634 23.9427 32.637 24.0573 32.637 24.172C32.637 24.286 32.634 24.3995 32.6283 24.5118C32.607 24.9272 32.8053 25.3232 33.1657 25.5312L34.3915 26.238L32.0844 30.2366L30.8606 29.5298C30.6928 29.4329 30.5069 29.3856 30.3214 29.3856C30.1085 29.3856 29.8956 29.4477 29.7098 29.5688C29.5173 29.6941 29.3178 29.8094 29.1119 29.9146C28.7426 30.1019 28.5047 30.4754 28.5047 30.8897V32.3027ZM26.1976 20.3926C24.1093 20.3926 22.4142 22.084 22.4142 24.172C22.4142 26.2605 24.1093 27.9554 26.1976 27.9554C28.2859 27.9554 29.9774 26.2605 29.9774 24.172C29.9774 22.084 28.2859 20.3926 26.1976 20.3926Z" fill="#B5AFEC"/>
<path d="M258.342 29.9398C256.254 29.9398 254.559 28.2449 254.559 26.1563C254.559 24.0684 256.254 22.377 258.342 22.377C260.431 22.377 262.122 24.0684 262.122 26.1563C262.122 28.2449 260.431 29.9398 258.342 29.9398ZM265.31 27.5156C264.95 27.3076 264.751 26.9116 264.773 26.4962C264.779 26.3839 264.781 26.2704 264.781 26.1563C264.781 26.0417 264.779 25.9276 264.773 25.8142C264.752 25.4005 264.949 25.0057 265.308 24.7988L266.536 24.0903L264.229 20.0917L263.001 20.7997C262.641 21.0071 262.199 20.9864 261.851 20.7589C261.659 20.6342 261.46 20.5189 261.256 20.4143C260.886 20.2264 260.649 19.8535 260.649 19.4392V18.0256H256.031V19.4392C256.031 19.8535 255.794 20.2264 255.425 20.4143C255.22 20.5189 255.021 20.6342 254.83 20.7589C254.482 20.9864 254.039 21.0071 253.679 20.7997L252.452 20.0917L250.145 24.0903L251.377 24.8024C251.735 25.0098 251.932 25.4034 251.912 25.8165C251.906 25.9294 251.903 26.0429 251.903 26.1563C251.903 26.2704 251.906 26.3839 251.912 26.4962C251.933 26.9116 251.734 27.307 251.374 27.515L250.145 28.2224L252.452 32.221L253.676 31.5142C254.036 31.3062 254.478 31.3263 254.826 31.5532C255.019 31.6791 255.218 31.7943 255.424 31.8989C255.794 32.0863 256.031 32.4598 256.031 32.8741V34.2871H260.649V32.8741C260.649 32.4598 260.887 32.0863 261.256 31.8989C261.462 31.7943 261.662 31.6791 261.854 31.5532C262.202 31.3263 262.645 31.3062 263.005 31.5142L264.229 32.221L266.536 28.2224L265.31 27.5156Z" fill="#B5AFEC"/>
<path d="M233.461 205.258H183.549V178.994H233.461V205.258ZM233.461 237.774H183.549V211.511H233.461V237.774ZM178.012 174.12V271.46H238.998V174.12H178.012Z" fill="#F46B6F"/>
<path d="M239 271.457H266.576V174.12H239V271.457Z" fill="#B5AFEC"/>
<path d="M195.407 205.254H183.547V178.992H195.407V205.254Z" fill="#E7E8E5"/>
<path d="M233.455 265.126V264.978H184.003V243.78H233.307V265.126H233.455V264.978V265.126H233.603V243.485H183.707V265.273H233.603V265.126H233.455Z" fill="#E7E8E5"/>
<path d="M213.59 251.914H203.738V248.313H213.59V251.914Z" fill="#E7E8E5"/>
<path d="M195.407 237.774H183.547V211.513H195.407V237.774Z" fill="#E7E8E5"/>
<path d="M218.289 237.772V213.561H226.634V237.772H218.289Z" fill="#999B9B"/>
<path d="M218.289 233.888V228.663H226.634V233.888H218.289Z" fill="#D4D6D3"/>
<path d="M218.289 224.455V221.357H226.634V224.455H218.289Z" fill="#D4D6D3"/>
<path d="M219.189 205.257H198.102V184.993H219.189V205.257Z" fill="#E7E8E5"/>
<path d="M227.205 205.257H219.191V184.993H227.205V205.257Z" fill="#BEBFBD"/>
<path d="M198.102 195.124H219.189L202.72 195.646L198.102 195.124Z" fill="#BEBFBD"/>
<path d="M219.189 202.81H198.102L214.571 203.331L219.189 202.81Z" fill="#BEBFBD"/>
<path d="M198.102 189.46H211.458L199.585 189.886L198.102 189.46Z" fill="#BEBFBD"/>
<path d="M219.189 199.825H205.832L217.706 200.251L219.189 199.825Z" fill="#BEBFBD"/>
<path d="M203.16 187.206H218.226L215.715 187.462L203.16 187.206Z" fill="#BEBFBD"/>
<path d="M200.148 197.297H215.214L212.703 197.553L200.148 197.297Z" fill="#BEBFBD"/>
<path d="M209.41 191.391H219.183L220.929 192.072L209.41 191.391Z" fill="#E7E8E5"/>
<path d="M195.402 191.391H205.175L206.922 192.072L195.402 191.391Z" fill="#E7E8E5"/>
<path d="M207.937 200.499H198.164L196.418 201.18L207.937 200.499Z" fill="#E7E8E5"/>
<path d="M219.191 198.184H227.039L228.785 198.865L219.191 198.184Z" fill="#BEBFBD"/>
<path d="M221.926 195.126H228.012L227.201 194.569L221.926 195.126Z" fill="#BEBFBD"/>
<path d="M233.46 237.772H226.633V211.943H233.46V237.772Z" fill="#E7E8E5"/>
<path d="M230.039 217.038C229.254 217.038 228.617 216.402 228.617 215.617C228.617 214.832 229.254 214.195 230.039 214.195C230.823 214.195 231.46 214.832 231.46 215.617C231.46 216.402 230.823 217.038 230.039 217.038Z" fill="white"/>
<path d="M230.043 216.432C229.594 216.432 229.23 216.068 229.23 215.618C229.23 215.17 229.594 214.806 230.043 214.806C230.492 214.806 230.856 215.17 230.856 215.618C230.856 216.068 230.492 216.432 230.043 216.432Z" fill="#999B9B"/>
<path d="M226.633 233.705V227.42H233.46V233.705H226.633Z" fill="white"/>
<path d="M192.453 237.811V232.441H218.283V237.811H192.453Z" fill="#BEBFBD"/>
<path d="M213.191 235.126C213.191 234.341 213.828 233.704 214.613 233.704C215.398 233.704 216.035 234.341 216.035 235.126C216.035 235.91 215.398 236.547 214.613 236.547C213.828 236.547 213.191 235.91 213.191 235.126Z" fill="white"/>
<path d="M213.797 235.125C213.797 234.676 214.161 234.312 214.609 234.312C215.059 234.312 215.423 234.676 215.423 235.125C215.423 235.574 215.059 235.938 214.609 235.938C214.161 235.938 213.797 235.574 213.797 235.125Z" fill="#999B9B"/>
<path d="M196.527 232.441H202.812V237.811H196.527V232.441Z" fill="white"/>
<path d="M29.7617 271.459C105.937 271.097 191.388 271.094 267.563 271.459C191.388 271.824 105.937 271.821 29.7617 271.459Z" fill="#17282F"/>
<path d="M59.2631 203.278C59.7659 206.72 59.5785 210.268 58.7393 213.637C58.3452 215.213 57.8046 216.734 57.1522 218.216C56.3283 220.111 55.467 221.961 55.6745 224.034C55.8746 224.169 55.1878 224.147 55.1655 223.945C49.6243 220.791 42.5181 220.212 38.2536 215.053C36.2336 212.611 35.2149 209.515 34.7319 206.418C34.2072 203.047 34.0618 199.313 34.9316 195.99C35.6646 193.18 37.3073 190.468 39.9485 189.091C42.6747 187.673 46.2451 187.791 49.1155 188.682C55.3079 190.606 58.3875 197.288 59.2631 203.278Z" fill="#584FAB"/>
<path d="M62.1024 244.297C61.3459 241.777 60.5908 239.256 59.8144 236.741C58.2937 231.817 56.7131 226.91 54.9635 222.061C53.9156 219.157 52.8101 216.28 51.6468 213.431C51.8451 211.642 51.9233 209.859 52.3082 208.075C52.7718 205.927 53.4447 203.851 54.0712 201.749C54.1098 201.62 53.9004 201.552 53.8475 201.675C52.6032 204.571 50.9799 208.277 50.9395 211.708C49.5865 208.485 48.1406 205.305 46.5842 202.175C46.4962 199.506 46.3988 196.921 46.8282 194.235C46.8474 194.114 46.6636 194.078 46.6412 194.199C46.225 196.453 45.9318 198.871 46.0992 201.207C44.9078 198.856 43.6533 196.533 42.3178 194.245C42.1975 194.039 41.9127 194.25 42.0181 194.453C44.1007 198.463 46.0325 202.557 47.8442 206.705C45.3339 204.478 42.2945 202.794 39.1565 201.673C39.0187 201.624 38.9145 201.824 39.0551 201.882C42.6262 203.375 45.6245 205.485 48.452 208.104C49.7547 211.141 50.9953 214.205 52.1769 217.289C48.7097 213.89 43.9649 211.654 39.3753 210.455C39.2188 210.414 39.1777 210.654 39.328 210.699C44.639 212.298 48.7653 215.309 52.8046 218.927C53.2736 220.174 53.7347 221.424 54.186 222.677C55.8973 227.425 57.5193 232.206 59.0747 237.008C59.8202 239.31 60.5541 241.616 61.2746 243.926C62.0495 246.41 62.6553 249.035 63.6641 251.434C63.7604 251.663 64.1722 251.611 64.1198 251.336C63.665 248.956 62.7989 246.617 62.1024 244.297Z" fill="#17282F"/>
<path d="M52.9139 198.426C51.9215 199.947 51.2583 201.619 50.918 203.4L50.9974 203.427C51.6149 201.751 52.3412 200.131 53.1609 198.546C53.2445 198.384 53.0074 198.282 52.9139 198.426Z" fill="#17282F"/>
<path d="M43.0309 209.97C41.5965 209.155 39.6927 208.511 38.0578 208.296L38.0312 208.376C38.8307 208.707 39.6708 208.939 40.4799 209.25C41.2928 209.563 42.0848 209.941 42.9062 210.227C43.077 210.287 43.1936 210.063 43.0309 209.97Z" fill="#17282F"/>
<path d="M40.2483 196.083C39.7443 195.749 39.208 195.322 38.6482 195.095C38.5602 195.06 38.4836 195.169 38.5563 195.236C38.9998 195.644 39.6181 195.947 40.1331 196.258C40.2349 196.32 40.3482 196.15 40.2483 196.083Z" fill="#17282F"/>
<path d="M77.9393 222.098C73.9483 223.282 69.9368 224.377 65.9467 225.548C65.6002 225.652 58.8532 212.725 61.2918 206.064C63.5454 199.9 68.705 195.286 74.8565 193.192C77.7061 192.224 81.2094 191.412 84.2199 192.076C86.8964 192.668 88.7866 194.858 89.6569 197.375C90.8418 200.797 90.4465 204.878 89.8023 208.371C89.203 211.61 88.0179 214.8 85.8754 217.345C83.755 219.864 81.05 221.175 77.9393 222.098Z" fill="#584FAB"/>
<path d="M83.7314 209.811C81.1904 211.092 78.6154 212.021 75.9064 212.891C74.2098 213.437 72.3094 213.929 70.6828 214.782C72.3681 211.025 74.2174 207.346 76.1806 203.701C78.7588 202.954 81.4701 201.791 83.4146 199.966C83.5206 199.866 83.3844 199.717 83.2694 199.798C81.1426 201.301 78.7973 202.203 76.4449 203.219C76.9761 202.238 77.5105 201.258 78.0574 200.281C78.2095 200.009 77.8351 199.739 77.6521 200.003C75.5603 203.022 73.6786 206.221 71.9814 209.527C71.5603 206.61 71.4088 203.768 71.5711 200.801C71.5753 200.725 71.4666 200.719 71.455 200.792C70.9617 203.931 70.985 207.251 71.5533 210.381C70.1539 213.174 68.8785 216.036 67.7335 218.933C67.278 217.193 66.6863 215.479 66.2915 213.724C65.7236 211.198 65.4565 208.624 65.7183 206.041C65.7259 205.966 65.6144 205.961 65.6022 206.033C64.8281 210.613 65.5343 215.785 67.2768 220.136C66.6094 221.88 65.9731 223.631 65.391 225.385C62.4109 234.364 60.5742 243.623 60.094 253.076C60.083 253.294 60.4059 253.316 60.4311 253.1C61.5156 243.827 63.4301 234.598 66.3786 225.736C67.5361 222.256 68.8683 218.877 70.3298 215.562C72.6866 214.866 75.0351 213.921 77.3503 213.119C79.6095 212.336 81.9245 211.431 83.8211 209.946C83.8948 209.888 83.8137 209.769 83.7314 209.811Z" fill="#17282F"/>
<path d="M87.4511 206.056C85.0103 206.924 82.6966 208.14 80.2584 209.02C80.1443 209.06 80.2108 209.242 80.3258 209.218C82.9058 208.685 85.4648 207.888 87.5436 206.196C87.6237 206.131 87.5355 206.026 87.4511 206.056Z" fill="#17282F"/>
<path d="M67.5203 200.79C67.5499 200.661 67.3608 200.586 67.3211 200.719C66.6519 202.969 66.1899 205.356 66.8411 207.656C66.8666 207.746 67.0083 207.749 67.0136 207.645C67.1308 205.328 67.0011 203.074 67.5203 200.79Z" fill="#17282F"/>
<path d="M77.6043 195.594C76.7864 196.638 76.4918 198.121 76.5451 199.42C76.5486 199.506 76.6857 199.556 76.709 199.454C77.0066 198.167 77.5038 196.994 77.8986 195.744C77.9566 195.56 77.7202 195.446 77.6043 195.594Z" fill="#17282F"/>
<path d="M30.4667 227.802C31.6367 231.515 34.4164 236.648 38.8195 236.689C41.6738 236.716 44.5481 236.377 47.4091 236.337C50.473 236.29 53.5435 236.296 56.6008 236.479C56.851 236.493 56.2337 227.305 48.8699 222.83C46.807 221.577 44.2845 221.18 41.9443 220.673C39.2659 220.091 36.5063 219.699 33.7603 219.821C32.0696 219.888 30.6627 220.247 30.0609 221.978C29.4318 223.791 29.9053 226.036 30.4667 227.802Z" fill="#584FAB"/>
<path d="M33.6432 223.152C35.4325 223.611 37.238 224.14 39.0336 224.711C38.5539 224.213 38.0852 223.708 37.5497 223.263C36.7786 222.621 35.93 222.11 35.1026 221.548C35.0334 221.501 35.0747 221.369 35.1638 221.403C36.7967 222.045 38.4946 223.385 39.5064 224.857C41.7443 225.58 43.9609 226.378 46.0947 227.254C47.6089 227.875 49.0055 228.616 50.3133 229.475C49.8433 228.566 49.4148 227.633 48.7869 226.819C47.81 225.552 46.4872 224.847 45.2083 223.948C45.087 223.862 45.1898 223.692 45.3227 223.751C48.2121 225.036 49.9696 227.12 51.0655 229.979C52.5761 231.056 53.9587 232.313 55.2425 233.771C60.1142 239.305 63.951 246.668 63.9651 254.181C63.9655 254.36 63.6779 254.411 63.6433 254.224C62.2607 246.762 59.3136 240.06 54.3523 234.268C54.004 233.861 53.6462 233.473 53.2812 233.098C51.9415 232.958 50.6144 232.779 49.2563 232.799C47.6885 232.823 46.1333 233.03 44.5727 233.157C42.0022 233.366 39.1596 233.396 36.841 232.103C36.7387 232.046 36.8077 231.868 36.9224 231.909C42.0915 233.789 47.5131 231.405 52.6943 232.526C50.4837 230.406 47.9729 228.808 45.0531 227.598C44.8952 227.532 44.7361 227.471 44.5778 227.407C41.2604 227.806 37.7579 228.67 34.5271 227.592C34.4311 227.56 34.4696 227.414 34.5694 227.439C37.6914 228.219 40.6851 227.239 43.7656 227.082C40.4114 225.777 36.9926 224.737 33.627 223.441C33.3438 223.331 33.3371 223.072 33.6432 223.152Z" fill="#17282F"/>
<path d="M32.1806 226.418C33.8001 226.685 35.3812 226.694 37.0092 226.784L37.0184 226.852C35.4306 227.208 33.6934 226.989 32.1469 226.541C32.0671 226.517 32.1017 226.405 32.1806 226.418Z" fill="#17282F"/>
<path d="M43.0846 223.235C43.965 223.539 44.785 224.286 45.4744 224.896C45.5584 224.971 45.4458 225.122 45.3527 225.054C44.9478 224.759 44.5304 224.481 44.1095 224.209C43.7259 223.962 43.2972 223.764 42.9456 223.473C42.8362 223.382 42.9535 223.189 43.0846 223.235Z" fill="#17282F"/>
<path d="M69.0844 235.189C69.0304 235.31 69.2061 235.425 69.2739 235.297L69.2806 235.29C69.3074 235.324 69.3413 235.358 69.3954 235.364C72.3715 236.007 75.3608 236.663 78.3908 236.933C80.8256 237.15 83.6325 237.285 85.7631 235.871C88.6511 233.958 90.5517 228.837 88.9891 225.584C87.1426 221.723 81.5766 223.819 78.783 225.192C74.4884 227.289 71.039 230.832 69.0844 235.189Z" fill="#584FAB"/>
<path d="M66.9183 236.975C68.5564 235.372 70.3682 234.038 72.2893 232.886C73.6061 230.65 75.627 228.794 77.7363 227.335C77.8418 227.262 77.9318 227.429 77.8349 227.504C76.0164 228.904 74.5971 230.546 73.2452 232.332C75.3943 231.133 77.6666 230.145 79.9841 229.267C80.7909 227.787 82.1057 226.402 83.6039 225.64L83.642 225.69C82.3354 226.712 81.2866 227.774 80.3726 229.12C81.7418 228.61 83.1246 228.133 84.5065 227.675C84.6312 227.634 84.6779 227.823 84.5601 227.869C82.0999 228.83 79.5845 229.844 77.1467 231.014C80.2237 231.426 82.9947 231.522 86.1243 230.987C86.2068 230.974 86.2428 231.091 86.1595 231.115C83.1399 231.977 79.6778 232.136 76.6337 231.257C75.079 232.021 73.5606 232.855 72.1152 233.787C73.3251 233.63 74.5415 233.843 75.7673 234.086C77.9053 234.511 79.9959 234.888 82.1846 234.813C82.2663 234.81 82.2878 234.944 82.2045 234.958C78.4815 235.598 74.9615 233.907 71.2717 234.347C69.9053 235.286 68.613 236.323 67.4287 237.485C65.1097 239.761 63.2542 242.482 61.824 245.393C60.2708 248.554 59.4283 251.905 58.1728 255.171C58.1179 255.315 57.9185 255.26 57.9436 255.108C59.0194 248.669 62.2259 241.566 66.9183 236.975Z" fill="#17282F"/>
<path d="M78.143 228.144C78.3598 227.7 78.74 227.321 79.0967 226.987C79.4085 226.695 79.7892 226.317 80.1958 226.165L80.2318 226.226C79.9266 226.573 79.5016 226.826 79.1724 227.158C78.8402 227.492 78.5659 227.883 78.23 228.211C78.1834 228.257 78.1157 228.199 78.143 228.144Z" fill="#17282F"/>
<path d="M84.2869 230.142C84.8384 230.004 85.4229 230.013 85.9844 229.899C86.5523 229.783 87.0802 229.58 87.6301 229.406C87.7024 229.383 87.7444 229.489 87.6809 229.527C86.7748 230.065 85.3449 230.523 84.2869 230.315C84.1985 230.298 84.204 230.163 84.2869 230.142Z" fill="#17282F"/>
<path d="M51.582 247.173L52.0702 252.723L53.7287 271.46H68.4029L70.4746 252.723L71.0864 247.173H51.582Z" fill="#273E47"/>
<path d="M51.582 247.173L52.0702 252.723H70.4746L71.0864 247.173H51.582Z" fill="#17282F"/>
<path d="M50.125 250.163H72.5358V245.661H50.125V250.163Z" fill="#273E47"/>
<path d="M238.785 180.231V171.943H148.664V155.278H238.785V146.996L267.565 163.611L238.785 180.231Z" fill="#584FAB"/>
<path d="M238.784 180.231V171.943H149.051C164.575 171.865 179.461 167.12 192.125 158.207C193.459 157.269 194.757 156.292 196.02 155.278H238.784V146.996L267.564 163.611L249.364 174.121L238.992 180.111L238.784 180.231ZM222.201 164.398H223.731V165.816C223.731 165.999 223.872 166.141 224.055 166.141C224.238 166.141 224.386 165.999 224.386 165.816V162.331C224.386 162.148 224.238 162.006 224.055 162.006C223.872 162.006 223.731 162.148 223.731 162.331V163.748H222.201V162.331C222.201 162.148 222.053 162.006 221.87 162.006C221.687 162.006 221.545 162.148 221.545 162.331V165.816C221.545 165.999 221.687 166.141 221.87 166.141C222.053 166.141 222.201 165.999 222.201 165.816V164.398ZM218.961 161.888C217.78 161.894 216.8 162.845 216.794 164.014C216.8 165.19 217.78 166.141 218.961 166.141C219.481 166.141 219.954 165.969 220.326 165.68C220.468 165.567 220.491 165.355 220.385 165.207C220.315 165.124 220.21 165.081 220.108 165.081C220.038 165.081 219.968 165.101 219.913 165.142C219.646 165.355 219.328 165.467 218.961 165.467C218.554 165.467 218.176 165.302 217.898 165.042C217.632 164.782 217.467 164.416 217.467 164.014C217.467 163.613 217.632 163.258 217.898 162.987C218.176 162.727 218.554 162.561 218.961 162.561C219.328 162.561 219.653 162.673 219.913 162.886C219.968 162.93 220.039 162.952 220.11 162.952C220.212 162.952 220.316 162.908 220.385 162.821C220.491 162.673 220.468 162.466 220.326 162.349C219.954 162.059 219.481 161.888 218.961 161.888ZM213.078 163.365L214.967 165.987L214.997 166.022C215.057 166.093 215.145 166.141 215.239 166.141C215.417 166.141 215.564 165.993 215.564 165.816V162.384C215.564 162.213 215.417 162.065 215.239 162.065C215.063 162.065 214.92 162.213 214.92 162.384V164.817L213.013 162.177C212.952 162.092 212.855 162.047 212.755 162.047C212.69 162.047 212.622 162.066 212.564 162.107C212.475 162.172 212.428 162.278 212.434 162.378V162.384V165.816C212.434 165.993 212.576 166.141 212.759 166.141C212.93 166.141 213.078 165.993 213.078 165.816V163.365ZM208.023 162.006C207.84 162.006 207.698 162.148 207.698 162.331V164.433C207.698 165.373 208.454 166.141 209.405 166.141C210.35 166.141 211.112 165.373 211.112 164.433V162.331C211.112 162.148 210.97 162.006 210.787 162.006C210.604 162.006 210.456 162.148 210.456 162.331V164.433C210.456 165.012 209.99 165.485 209.405 165.485C208.826 165.485 208.354 165.012 208.354 164.433V162.331C208.354 162.148 208.2 162.006 208.023 162.006ZM204.699 165.166H206.135L206.424 165.934C206.471 166.064 206.596 166.141 206.725 166.141L206.838 166.123C207.009 166.058 207.091 165.869 207.033 165.697L205.727 162.218C205.676 162.093 205.558 162.011 205.427 162.011C205.423 162.011 205.418 162.011 205.414 162.012C205.409 162.011 205.405 162.011 205.401 162.011C205.275 162.011 205.152 162.093 205.101 162.218L203.795 165.697C203.737 165.869 203.819 166.058 203.991 166.123L204.103 166.141C204.233 166.141 204.357 166.064 204.41 165.934L204.699 165.166ZM201.018 162.006C200.835 162.006 200.693 162.154 200.693 162.331V165.816C200.693 165.993 200.835 166.141 201.018 166.141H201.025H201.036H202.95C203.121 166.141 203.275 165.993 203.275 165.816C203.275 165.633 203.121 165.485 202.95 165.485H201.349V162.331C201.349 162.154 201.202 162.006 201.018 162.006ZM205.892 164.517H204.936L205.414 163.246L205.892 164.517Z" fill="#584FAB"/>
<path d="M148.666 37.4244C129.529 37.4244 111.511 46.7767 100.467 62.4408C93.4487 72.3953 89.7396 84.121 89.7396 96.3503C89.7396 107.558 92.8961 118.458 98.868 127.87C109.756 145.031 128.372 155.276 148.666 155.276C160.878 155.276 172.59 151.577 182.536 144.576C192.272 137.725 199.63 128.245 203.814 117.161C206.32 110.522 207.592 103.52 207.592 96.3503C207.592 82.5703 202.737 69.1674 193.921 58.6094C182.68 45.1462 166.185 37.4244 148.666 37.4244ZM148.666 171.941C122.634 171.941 98.7587 158.804 84.7965 136.799C77.1278 124.712 73.0742 110.725 73.0742 96.3503C73.0742 80.6638 77.8367 65.6179 86.8467 52.8384C101.008 32.7514 124.118 20.7592 148.666 20.7592C171.139 20.7592 192.297 30.6617 206.714 47.9279C218.027 61.4775 224.257 78.6734 224.257 96.3503C224.257 105.538 222.624 114.52 219.405 123.047C214.036 137.267 204.604 149.424 192.127 158.205C179.358 167.192 164.33 171.941 148.666 171.941Z" fill="#584FAB"/>
<path d="M224.261 96.3532C224.261 105.536 222.627 114.519 219.405 123.046C214.039 137.267 204.607 149.427 192.13 158.203C179.359 167.192 164.333 171.941 148.667 171.941V155.276C160.877 155.276 172.593 151.577 182.537 144.577C192.275 137.728 199.63 128.245 203.818 117.163C206.323 110.524 207.596 103.52 207.596 96.3532C207.596 82.5715 202.74 69.1667 193.924 58.6123C182.681 45.1467 166.188 37.4255 148.667 37.4255C129.53 37.4255 111.515 46.7749 100.466 62.4402C98.433 65.323 96.6665 68.3784 95.189 71.5667L102.777 74.3497L77.2682 95.6482L71.5742 62.9064L79.5013 65.8117C81.5122 61.2623 83.9731 56.918 86.8507 52.8408C101.01 32.7538 124.12 20.7603 148.667 20.7603C171.143 20.7603 192.297 30.6653 206.718 47.9303C218.028 61.4786 224.261 78.6715 224.261 96.3532Z" fill="#584FAB"/>
<path d="M77.2682 95.6494L73.1032 71.6997L71.5742 62.9077L79.5013 65.813C81.5122 61.2635 83.9731 56.9192 86.8507 52.842C95.8456 40.0814 108.454 30.5867 122.747 25.3582L111.688 35.0604L128.826 40.8781C117.532 44.9252 107.562 52.3804 100.466 62.4414C98.433 65.3242 96.6665 68.3796 95.189 71.568L102.777 74.3509L77.2682 95.6494ZM93.5071 56.1291C92.8665 56.1291 92.2341 56.4257 91.8305 56.986L91.4233 57.5522C91.3157 57.7011 91.3482 57.8991 91.4972 58.006L94.3274 60.0437C94.3847 60.0851 94.4515 60.1052 94.5177 60.1052C94.6175 60.1052 94.7168 60.0591 94.7812 59.9699L95.1884 59.4037C95.8551 58.4776 95.6405 57.1869 94.7103 56.5173C94.3463 56.2555 93.9249 56.1291 93.5071 56.1291ZM95.286 52.6103C95.1873 52.6103 95.0903 52.6541 95.0283 52.7333L93.8451 54.2379L93.8375 54.2474L93.8339 54.2521C93.7204 54.3963 93.7447 54.5955 93.8889 54.7083L96.6287 56.8631C96.6878 56.9098 96.7593 56.9328 96.8302 56.9328C96.9253 56.9328 97.0199 56.8914 97.0849 56.8087L97.0837 56.8004L97.0956 56.7945L98.2793 55.2899C98.3851 55.1557 98.3638 54.9436 98.2249 54.8336C98.164 54.7864 98.092 54.7639 98.0204 54.7639C97.9223 54.7639 97.8254 54.8064 97.764 54.885L96.774 56.1432L95.9195 55.4707L96.7705 54.3892C96.8798 54.2497 96.855 54.0423 96.7108 53.9294C96.6541 53.8845 96.5832 53.8626 96.5122 53.8626C96.4153 53.8626 96.3184 53.9034 96.2552 53.9838L95.4042 55.0659L94.5543 54.3975L95.5436 53.1387C95.65 53.0039 95.6287 52.7924 95.4845 52.6789C95.4254 52.6322 95.3551 52.6103 95.286 52.6103ZM97.7959 50.1678C97.4419 50.1678 97.0896 50.3155 96.8379 50.6039L96.1464 51.397L96.1423 51.4012C96.0259 51.5347 96.0353 51.7398 96.1736 51.8598L98.8023 54.1534C98.8626 54.206 98.9388 54.232 99.0151 54.232C99.1061 54.232 99.1971 54.1948 99.2609 54.1221C99.3815 53.9838 99.3673 53.7752 99.2337 53.6587L98.2669 52.8154L98.745 52.2676C99.2071 51.7374 99.1528 50.9367 98.6315 50.4816C98.3898 50.2712 98.0925 50.1678 97.7959 50.1678ZM98.7864 48.6236C98.7001 48.6236 98.6126 48.6578 98.547 48.7258C98.4194 48.8576 98.427 49.0621 98.5553 49.1856L101.066 51.6063C101.129 51.6671 101.211 51.6979 101.293 51.6979C101.377 51.6979 101.462 51.6648 101.526 51.598L101.53 51.5938L101.539 51.585L102.868 50.2062C102.987 50.0827 102.987 49.8694 102.859 49.7464C102.795 49.6844 102.711 49.6542 102.629 49.6542C102.542 49.6542 102.456 49.6873 102.395 49.7506L101.283 50.9042L99.0103 48.7134C98.9489 48.6537 98.8679 48.6236 98.7864 48.6236ZM103.173 44.7626C102.706 44.7626 102.235 44.9376 101.881 45.2662C101.464 45.6515 101.247 46.1822 101.247 46.7135C101.243 47.2483 101.436 47.7784 101.833 48.2081C102.23 48.6377 102.748 48.8753 103.277 48.9084C103.325 48.912 103.371 48.9131 103.418 48.9131C103.9 48.9131 104.391 48.74 104.769 48.3889C105.169 48.0202 105.382 47.4847 105.377 46.9658C105.385 46.4351 105.197 45.8926 104.8 45.4636C104.402 45.0339 103.88 44.8088 103.346 44.7709C103.288 44.7656 103.231 44.7626 103.173 44.7626ZM104.48 43.2633C104.34 43.2633 104.214 43.3608 104.176 43.5068C104.129 43.6829 104.234 43.8573 104.411 43.8951L106.394 44.414L107.409 45.6462C107.474 45.7248 107.567 45.7632 107.661 45.7632C107.734 45.7632 107.808 45.739 107.867 45.6899C108.009 45.5735 108.028 45.3737 107.911 45.2319L106.896 44.0003L106.775 41.9472C106.762 41.7788 106.62 41.6452 106.449 41.6452C106.444 41.6452 106.439 41.6452 106.434 41.6458C106.257 41.6535 106.12 41.8042 106.128 41.9897L106.227 43.7006L104.567 43.2757C104.538 43.2675 104.509 43.2633 104.48 43.2633ZM94.442 59.3174L92.149 57.6668L92.3629 57.3695C92.6389 56.9866 93.0692 56.7845 93.5053 56.7845C93.7908 56.7845 94.0786 56.8708 94.3268 57.0498C94.965 57.509 95.1075 58.3837 94.6566 59.0202L94.442 59.3174ZM97.7722 52.384L96.8544 51.5832L97.3325 51.0354C97.4549 50.8953 97.6227 50.825 97.7923 50.825C97.9353 50.825 98.0801 50.8752 98.2001 50.9763C98.4459 51.1985 98.4755 51.5773 98.2503 51.8362L97.7722 52.384ZM103.427 48.2365C103.392 48.2365 103.356 48.2353 103.32 48.2323C102.966 48.2146 102.6 48.0456 102.328 47.7507C102.055 47.4558 101.914 47.0781 101.92 46.7188C101.922 46.3548 102.06 46.0173 102.338 45.7608C102.573 45.5433 102.88 45.4305 103.204 45.4305C103.238 45.4305 103.273 45.4316 103.308 45.4346C103.663 45.4606 104.033 45.6261 104.306 45.921C104.578 46.2159 104.714 46.5977 104.709 46.9481C104.707 47.3122 104.573 47.6537 104.312 47.8949C104.062 48.1265 103.752 48.2365 103.427 48.2365ZM199.185 40.1157C185.393 27.7115 167.494 20.7616 148.667 20.7616C148.655 20.7616 148.643 20.7616 148.631 20.7616C148.642 20.7616 148.655 20.7616 148.667 20.7616C167.494 20.7616 185.393 27.7115 199.185 40.1157ZM141.586 37.8552L141.579 37.8209C143.896 37.5597 146.262 37.4268 148.667 37.4268C146.286 37.4268 143.922 37.5715 141.586 37.8552Z" fill="#F46B6F"/>
<path d="M224.257 96.3532C224.257 105.536 222.623 114.519 219.401 123.046C214.035 137.267 204.603 149.427 192.126 158.203C179.355 167.192 164.329 171.941 148.663 171.941V155.276C160.873 155.276 172.589 151.577 182.533 144.577C192.271 137.728 199.626 128.245 203.814 117.163C206.319 110.524 207.592 103.52 207.592 96.3532C207.592 82.5715 202.736 69.1668 193.92 58.6124C182.677 45.1468 166.184 37.4256 148.663 37.4256C146.258 37.4256 143.892 37.5585 141.575 37.8197L143.153 45.7413L111.684 35.0592L136.665 13.1443L138.314 21.427C141.692 20.9825 145.158 20.7603 148.663 20.7603C171.139 20.7603 192.293 30.6653 206.714 47.9303C218.024 61.4786 224.257 78.6716 224.257 96.3532Z" fill="#584FAB"/>
<path d="M207.589 95.7883C207.589 95.7623 207.588 95.7375 207.588 95.7115C207.588 95.7369 207.589 95.7635 207.589 95.7883ZM224.254 95.7393C224.254 95.7322 224.254 95.7227 224.254 95.7162C224.254 95.7239 224.254 95.7316 224.254 95.7393ZM207.58 95.2245C207.58 95.1708 207.579 95.1188 207.577 95.065C207.579 95.1176 207.58 95.1719 207.58 95.2245ZM224.248 95.221C224.248 95.2145 224.248 95.2056 224.248 95.1991C224.248 95.2068 224.248 95.2139 224.248 95.221ZM224.247 95.1235C224.246 95.1146 224.246 95.1069 224.246 95.0981C224.246 95.1057 224.246 95.1158 224.247 95.1235ZM224.245 95.0236C224.245 95.0159 224.244 95.0076 224.244 95C224.244 95.0082 224.244 95.0147 224.245 95.0236ZM224.24 94.7547C224.24 94.7453 224.239 94.7358 224.239 94.7263C224.239 94.7346 224.24 94.7464 224.24 94.7547ZM224.233 94.4616C224.233 94.4521 224.233 94.4421 224.232 94.432C224.233 94.4427 224.233 94.4509 224.233 94.4616ZM224.224 94.1424C224.224 94.1312 224.224 94.1212 224.223 94.1093C224.224 94.12 224.224 94.1318 224.224 94.1424ZM224.202 93.4894C223.629 78.4447 218.557 63.8846 209.708 51.77L209.71 51.7676C218.558 63.8852 223.629 78.4476 224.202 93.4894ZM207.358 91.1278C207.358 91.116 207.356 91.1024 207.355 91.0912C207.356 91.1036 207.358 91.1154 207.358 91.1278ZM207.355 91.0876C207.354 91.0764 207.353 91.0628 207.352 91.051C207.353 91.064 207.353 91.0752 207.355 91.0876ZM188.047 52.517C177.294 42.8438 163.339 37.4268 148.663 37.4268C146.258 37.4268 143.892 37.5598 141.575 37.821L143.153 45.7425L128.822 40.8781L111.684 35.0605L136.665 13.1456L138.314 21.4282C141.692 20.9838 145.158 20.7616 148.663 20.7616C167.49 20.7616 185.389 27.7116 199.181 40.1158L184.988 34.9104L188.047 52.517ZM170.74 30.4372C170.605 30.4372 170.484 30.5205 170.436 30.6565C170.378 30.8243 170.462 31.0158 170.635 31.0761L171.517 31.3822L170.481 34.3625C170.421 34.5357 170.515 34.7183 170.682 34.7768C170.719 34.7892 170.756 34.7957 170.792 34.7957C170.926 34.7957 171.048 34.7124 171.095 34.5759L172.131 31.5955L173.018 31.9035C173.051 31.9153 173.086 31.9206 173.119 31.9206C173.256 31.9206 173.387 31.8319 173.434 31.6978C173.494 31.5246 173.401 31.342 173.233 31.2841L170.85 30.4561C170.813 30.4437 170.776 30.4372 170.74 30.4372ZM166.178 32.212C166.118 32.212 166.058 32.2291 166.006 32.2651C165.873 32.3626 165.837 32.5553 165.932 32.693C166.184 33.0411 166.612 33.4956 167.224 33.677C167.411 33.7302 167.597 33.7556 167.776 33.7556C167.986 33.7556 168.186 33.7207 168.368 33.6534C168.711 33.5298 169.004 33.2757 169.108 32.9123C169.159 32.7361 169.156 32.5512 169.11 32.3904C169.039 32.1428 168.877 31.9371 168.676 31.7563C168.48 31.5837 168.234 31.4336 167.96 31.2942L167.949 31.2906C167.659 31.1464 167.429 30.9821 167.311 30.8373C167.251 30.7658 167.215 30.6996 167.199 30.6464C167.184 30.5927 167.185 30.5442 167.205 30.4756C167.239 30.3568 167.337 30.2493 167.523 30.1795C167.624 30.1417 167.744 30.1199 167.874 30.1199C167.983 30.1199 168.098 30.1352 168.214 30.1683C168.561 30.267 168.791 30.5176 169.025 30.793C169.085 30.8639 169.169 30.9 169.254 30.9C169.325 30.9 169.396 30.8745 169.453 30.8231C169.581 30.7185 169.594 30.5253 169.488 30.397C169.253 30.127 168.925 29.7446 168.38 29.5886C168.207 29.5395 168.033 29.5153 167.864 29.5153C167.671 29.5153 167.483 29.5466 167.311 29.6093C166.995 29.7274 166.717 29.968 166.62 30.309C166.571 30.4792 166.571 30.6512 166.617 30.8119C166.685 31.0465 166.833 31.2421 167.019 31.4058C167.205 31.5701 167.437 31.7096 167.688 31.8367L167.7 31.8402C168.017 31.9986 168.268 32.1747 168.402 32.3296C168.471 32.4105 168.506 32.482 168.524 32.5482C168.542 32.615 168.544 32.6711 168.523 32.745C168.482 32.8869 168.368 33.008 168.162 33.0842C168.052 33.1244 167.922 33.1475 167.782 33.1475C167.658 33.1475 167.525 33.1297 167.392 33.0919C166.987 32.982 166.623 32.6203 166.431 32.3437C166.372 32.258 166.275 32.212 166.178 32.212ZM162.807 32.5671L162.817 32.5754L164.684 32.9991C164.706 33.0045 164.729 33.0068 164.752 33.0068C164.898 33.0068 165.039 32.904 165.073 32.7545C165.113 32.5754 164.996 32.3975 164.83 32.3597L163.268 32.0057L163.508 30.9449L164.851 31.2498C164.874 31.2551 164.898 31.2575 164.921 31.2575C165.069 31.2575 165.206 31.1535 165.241 30.9992C165.279 30.832 165.169 30.6494 164.996 30.6104L163.653 30.3054L163.893 29.2511L165.454 29.6057C165.477 29.6104 165.499 29.6128 165.521 29.6128C165.667 29.6128 165.81 29.51 165.844 29.3545C165.885 29.1761 165.767 29.0035 165.599 28.9657L163.732 28.5419L163.721 28.5396L163.715 28.5378C163.69 28.5325 163.664 28.5295 163.639 28.5295C163.491 28.5295 163.361 28.63 163.327 28.7831L162.555 32.183C162.516 32.3562 162.621 32.5311 162.8 32.5713L162.807 32.5671ZM159.406 27.747C159.25 27.747 159.117 27.857 159.089 28.0177C159.06 28.1926 159.173 28.3682 159.354 28.3989L160.275 28.5555L159.745 31.6659C159.714 31.8467 159.836 32.011 160.011 32.0412C160.03 32.0447 160.05 32.0459 160.069 32.0459C160.225 32.0459 160.358 31.936 160.386 31.7752L160.915 28.6649L161.842 28.8221C161.859 28.825 161.876 28.8262 161.893 28.8262C162.049 28.8262 162.191 28.708 162.218 28.5508C162.248 28.3699 162.127 28.2057 161.952 28.1755L159.465 27.7518C159.445 27.7488 159.426 27.747 159.406 27.747Z" fill="#584FAB"/>
<path d="M224.258 96.3532C224.258 105.536 222.624 114.519 219.402 123.046C214.036 137.267 204.604 149.427 192.127 158.203C179.356 167.192 164.329 171.941 148.664 171.941V155.276C160.874 155.276 172.59 151.577 182.533 144.577C192.272 137.728 199.626 128.245 203.815 117.163C206.32 110.524 207.592 103.52 207.592 96.3532C207.592 84.205 203.82 72.3504 196.877 62.4786L190.677 67.6562L184.988 34.9091L216.191 46.3524L209.709 51.7688C219.119 64.651 224.258 80.2991 224.258 96.3532Z" fill="#584FAB"/>
<path d="M192.127 158.205C203.265 150.367 211.98 139.835 217.536 127.541L217.54 127.543C211.981 139.834 203.268 150.368 192.127 158.205ZM182.533 144.579C188.256 140.554 193.156 135.619 197.073 129.985C193.157 135.621 188.257 140.555 182.533 144.579ZM222.498 112.634L220.052 97.7331L206.221 109.059C207.133 104.912 207.592 100.663 207.592 96.3549C207.592 84.2067 203.82 72.3521 196.877 62.4803L190.677 67.6579L184.988 34.9108L216.191 46.3541L209.709 51.7704C219.119 64.6527 224.258 80.3008 224.258 96.3549C224.258 101.872 223.668 107.317 222.498 112.634ZM214.84 89.4652L214.902 90.1892C214.96 90.8529 215.514 91.3505 216.158 91.3505C216.194 91.3505 216.231 91.3493 216.267 91.3458C216.968 91.2849 217.484 90.6703 217.423 89.9694L217.331 88.921L217.331 88.9156C217.316 88.7484 217.178 88.6184 217.008 88.6184C216.998 88.6184 216.988 88.619 216.979 88.6196L213.505 88.9227C213.328 88.9387 213.194 89.0983 213.209 89.275C213.224 89.4481 213.369 89.5775 213.534 89.5775C213.543 89.5775 213.552 89.5775 213.562 89.5763L214.84 89.4652ZM214.918 83.5052C214.807 83.5052 214.694 83.5134 214.58 83.5306C214.002 83.6174 213.514 83.9112 213.188 84.3308C212.862 84.7439 212.694 85.2947 212.777 85.8555C212.857 86.3933 213.18 86.8708 213.612 87.1586C213.964 87.4062 214.395 87.5522 214.854 87.5522C214.961 87.5522 215.069 87.544 215.178 87.5274C215.757 87.4411 216.237 87.1362 216.568 86.716C216.903 86.3135 217.065 85.7639 216.985 85.2261C216.901 84.6653 216.584 84.1866 216.145 83.8881C215.792 83.6434 215.37 83.5052 214.918 83.5052ZM215.68 80.279C215.658 80.279 215.636 80.2813 215.613 80.2861L212.203 80.9988C212.029 81.0354 211.914 81.2039 211.951 81.3835L211.953 81.3888L211.955 81.4007L212.347 83.2735C212.377 83.4206 212.517 83.5312 212.668 83.5312C212.689 83.5312 212.71 83.5294 212.731 83.5253C212.91 83.4874 213.023 83.3066 212.988 83.1394L212.661 81.5726L215.747 80.9279C215.921 80.8912 216.035 80.7169 215.998 80.5372C215.965 80.3812 215.829 80.279 215.68 80.279ZM214.809 76.7195C214.78 76.7195 214.752 76.723 214.722 76.7307L211.349 77.6189C211.177 77.6645 211.071 77.8394 211.118 78.0167L211.125 78.0208L211.122 78.0338L211.61 79.886C211.647 80.0266 211.784 80.1277 211.929 80.1277C211.955 80.1277 211.982 80.1247 212.008 80.1176C212.185 80.0709 212.288 79.8848 212.245 79.7193L211.837 78.1692L212.888 77.8926L213.239 79.2247C213.277 79.3683 213.411 79.4658 213.557 79.4658C213.585 79.4658 213.614 79.4622 213.642 79.4545C213.808 79.4114 213.919 79.2288 213.874 79.0574L213.523 77.7253L214.57 77.4499L214.977 78.9989C215.015 79.139 215.149 79.24 215.298 79.24C215.325 79.24 215.353 79.2365 215.38 79.2288C215.558 79.1827 215.656 78.9977 215.612 78.8322L215.124 76.9795L215.121 76.9683L215.119 76.9624C215.08 76.814 214.953 76.7195 214.809 76.7195ZM213.397 72.3007C213.322 72.3007 213.247 72.3273 213.189 72.3793L210.349 74.8218L210.313 74.8644L210.31 74.872L210.285 74.9111L210.27 74.9223L210.254 74.9707L210.257 74.9761L210.239 75.0381L210.241 75.0434L210.237 75.0511L210.24 75.0996L210.244 75.1108L210.257 75.1687L210.28 75.2237L210.284 75.2349L210.31 75.2763L210.319 75.2857L210.362 75.3212L210.371 75.3306L210.41 75.3555L210.431 75.3608L210.473 75.3785L210.481 75.3821L210.533 75.3904L214.269 75.7166C214.277 75.7172 214.285 75.7172 214.292 75.7172C214.455 75.7172 214.604 75.5877 214.614 75.4181C214.632 75.2444 214.499 75.0824 214.32 75.0659L211.359 74.8118L213.61 72.8716C213.745 72.7528 213.76 72.5489 213.643 72.4189C213.58 72.3403 213.489 72.3007 213.397 72.3007ZM212.219 69.0633C212.179 69.0633 212.138 69.0709 212.097 69.0869L208.847 70.3528C208.682 70.4172 208.595 70.6034 208.662 70.7742L208.67 70.7777L208.668 70.7907L209.364 72.5761C209.412 72.7002 209.54 72.7817 209.672 72.7817C209.71 72.7817 209.748 72.7752 209.785 72.761C209.956 72.6943 210.038 72.4975 209.975 72.3373L209.394 70.8445L210.408 70.4497L210.907 71.7333C210.957 71.8598 211.081 71.939 211.213 71.939C211.254 71.939 211.294 71.9313 211.334 71.9159C211.494 71.8539 211.584 71.66 211.519 71.4946L211.019 70.2115L212.028 69.8185L212.609 71.312C212.657 71.4355 212.784 71.5164 212.918 71.5164C212.957 71.5164 212.997 71.5094 213.036 71.4946C213.207 71.4278 213.283 71.2334 213.22 71.0732L212.525 69.2884L212.521 69.2772L212.519 69.2719C212.468 69.1413 212.349 69.0633 212.219 69.0633ZM210.579 65.307C210.533 65.307 210.486 65.317 210.441 65.3371L207.265 66.7738C207.104 66.8465 207.027 67.0368 207.103 67.2034L207.39 67.8387C207.735 68.5999 208.484 69.0491 209.271 69.0491C209.558 69.0491 209.85 68.9894 210.129 68.8629C211.163 68.396 211.628 67.1739 211.158 66.1349L210.871 65.499C210.816 65.3779 210.702 65.307 210.579 65.307ZM216.167 90.6939C215.855 90.6939 215.584 90.4587 215.556 90.1325L215.493 89.4079L216.706 89.3021L216.769 90.0261C216.799 90.3683 216.551 90.6567 216.21 90.6921C216.195 90.6933 216.181 90.6939 216.167 90.6939ZM214.853 86.8785C214.536 86.8785 214.235 86.7798 214.003 86.6161C213.703 86.4105 213.496 86.1067 213.443 85.7562C213.388 85.3821 213.496 85.0311 213.723 84.7462C213.937 84.4631 214.282 84.2563 214.679 84.1972C214.757 84.1854 214.835 84.1795 214.912 84.1795C215.227 84.1795 215.526 84.2746 215.762 84.4413C216.062 84.6469 216.263 84.9519 216.319 85.3254C216.371 85.6764 216.268 86.0263 216.042 86.3112C215.821 86.5895 215.476 86.8017 215.079 86.862C215.003 86.8732 214.928 86.8785 214.853 86.8785ZM209.271 68.3937C208.735 68.3937 208.226 68.087 207.988 67.5687L207.836 67.2353L210.41 66.0711L210.561 66.405C210.882 67.1154 210.564 67.9463 209.859 68.2654C209.667 68.3523 209.468 68.3937 209.271 68.3937Z" fill="#F46B6F"/>
<path d="M225.434 130.523L217.534 127.54C211.979 139.833 203.263 150.366 192.125 158.203C179.354 167.192 164.328 171.941 148.663 171.941H29.7617V155.276H148.663C160.872 155.276 172.589 151.577 182.532 144.577C190.931 138.672 197.558 130.806 201.903 121.64L194.342 118.785L220.051 97.7314L225.434 130.523Z" fill="#584FAB"/>
<path d="M87.0785 127.274C86.9575 127.274 86.844 127.205 86.7876 127.086L86.7853 127.081L86.3391 126.129C86.0409 125.493 86.316 124.744 86.9523 124.445C87.1231 124.365 87.3016 124.327 87.4781 124.327C87.6663 124.327 87.8524 124.37 88.0248 124.451C88.0458 124.357 88.08 124.262 88.1351 124.171C88.2398 123.992 88.4052 123.83 88.6296 123.724C88.7926 123.654 88.8867 123.591 88.9352 123.555C88.9222 123.457 88.9535 123.357 89.0291 123.282C89.0918 123.222 89.1721 123.192 89.2525 123.192C89.3388 123.192 89.4257 123.227 89.4913 123.294C89.5066 123.313 89.5374 123.351 89.5628 123.404L89.5652 123.409C89.5906 123.463 89.6172 123.548 89.6042 123.646C89.5941 123.735 89.5522 123.827 89.4972 123.905C89.3772 124.052 89.2023 124.18 88.908 124.318C88.8088 124.371 88.7495 124.425 88.7081 124.49C88.6643 124.549 88.641 124.639 88.6283 124.723C88.6061 124.87 88.6285 125.029 88.6405 125.082L88.9363 125.714L90.097 125.169C90.1402 125.149 90.1863 125.139 90.2318 125.139C90.3547 125.139 90.4747 125.21 90.5308 125.331C90.6088 125.497 90.5355 125.688 90.3748 125.763L87.2198 127.242C87.1737 127.264 87.1254 127.274 87.0785 127.274ZM87.4837 124.983C87.3985 124.983 87.3124 125.001 87.2306 125.039C86.9204 125.184 86.7898 125.546 86.9326 125.851L87.241 126.508L88.3427 125.992L88.0343 125.334C87.9304 125.112 87.7108 124.983 87.4837 124.983Z" fill="white"/>
<path d="M85.4718 123.706C85.3442 123.706 85.2262 123.63 85.1743 123.502L85.172 123.497L85.1673 123.486L84.4489 121.712C84.3845 121.554 84.4582 121.358 84.6276 121.289C84.6677 121.273 84.7091 121.265 84.7497 121.265C84.882 121.265 85.0071 121.344 85.0563 121.466L85.6576 122.95L86.6593 122.544L86.1425 121.268C86.0757 121.104 86.1625 120.91 86.3214 120.845C86.3624 120.829 86.4049 120.82 86.4465 120.82C86.5769 120.82 86.6995 120.898 86.7498 121.022L87.2667 122.297L88.2742 121.889L87.6728 120.405C87.6083 120.247 87.6878 120.049 87.8574 119.98C87.8953 119.965 87.935 119.958 87.9743 119.958C88.1047 119.958 88.2309 120.037 88.2804 120.16L88.9994 121.933L88.9982 121.946L89.0059 121.95C89.0745 122.119 88.9911 122.305 88.8265 122.372L85.5974 123.681C85.5559 123.698 85.5134 123.706 85.4718 123.706Z" fill="white"/>
<path d="M84.2502 120.493C84.1602 120.493 84.0697 120.455 84.0064 120.379C83.888 120.25 83.9005 120.046 84.0344 119.926L86.2582 117.957L83.2961 117.742C83.1165 117.727 82.9813 117.567 82.9974 117.393C83.0055 117.223 83.1541 117.091 83.319 117.091C83.3255 117.091 83.3317 117.091 83.3382 117.091L87.0761 117.369L87.1285 117.376L87.1359 117.379L87.1791 117.396L87.1996 117.402L87.2389 117.426L87.2486 117.435L87.2915 117.47L87.301 117.48L87.3273 117.521L87.331 117.532L87.3554 117.586L87.3689 117.644L87.3728 117.655L87.3767 117.704L87.3728 117.711L87.3748 117.717L87.3585 117.778L87.3601 117.784L87.3455 117.833L87.3305 117.844L87.3065 117.883L87.3028 117.891L87.2675 117.934L84.461 120.412C84.4022 120.466 84.3264 120.493 84.2502 120.493Z" fill="white"/>
<path d="M82.8175 116.195C82.6769 116.195 82.5516 116.105 82.5093 115.961C82.4599 115.79 82.5527 115.603 82.7284 115.552L86.0751 114.573C86.1051 114.564 86.1353 114.56 86.1648 114.56C86.3084 114.56 86.4386 114.658 86.4797 114.799C86.5314 114.975 86.435 115.151 86.2593 115.202L82.9126 116.182C82.8807 116.191 82.8486 116.195 82.8175 116.195Z" fill="white"/>
<path d="M82.3057 114.381C82.1599 114.381 82.0315 114.284 81.9939 114.134L81.9923 114.128L81.9897 114.117L81.525 112.259C81.4834 112.092 81.5837 111.908 81.7616 111.864C81.7881 111.857 81.8145 111.854 81.8403 111.854C81.99 111.854 82.1261 111.958 82.1617 112.099L82.55 113.653L83.5997 113.391L83.2656 112.055C83.2227 111.883 83.3358 111.702 83.5022 111.661C83.5295 111.653 83.5567 111.651 83.5835 111.651C83.7317 111.651 83.8659 111.75 83.9023 111.896L84.2363 113.232L85.2918 112.968L84.903 111.414C84.8615 111.247 84.9677 111.062 85.1455 111.018C85.1704 111.012 85.1953 111.009 85.2203 111.009C85.3666 111.009 85.504 111.112 85.5398 111.255L86.0042 113.113L86.0013 113.126L86.0087 113.13C86.053 113.308 85.944 113.481 85.772 113.525L82.3882 114.37C82.3604 114.377 82.3327 114.381 82.3057 114.381Z" fill="white"/>
<path d="M81.5018 110.978C81.3956 110.978 81.2906 110.926 81.231 110.825C81.1339 110.68 81.1763 110.475 81.328 110.382L83.8275 108.773L81.9086 108.332C81.7715 108.302 81.6803 108.191 81.6581 108.063C81.6369 107.94 81.6856 107.806 81.8036 107.726L83.4618 106.664L80.5676 105.996C80.3926 105.954 80.2843 105.781 80.3249 105.6C80.3565 105.456 80.4912 105.355 80.6352 105.355C80.6601 105.355 80.6853 105.358 80.7103 105.365L84.354 106.204L84.4113 106.224L84.4185 106.228L84.4583 106.251L84.4768 106.254L84.5128 106.29L84.5142 106.296L84.5579 106.342L84.559 106.348L84.5657 106.352L84.5858 106.397L84.5876 106.409L84.6035 106.466L84.6068 106.52L84.61 106.537L84.6054 106.58L84.6015 106.592L84.5757 106.651L84.5768 106.657L84.5544 106.703L84.5392 106.718L84.508 106.747L84.5043 106.759L84.456 106.792L82.7824 107.868L84.7209 108.318L84.7769 108.332L84.7839 108.337L84.8248 108.366L84.8434 108.368L84.8785 108.398L84.8806 108.41L84.9236 108.451L84.9247 108.456L84.9314 108.462L84.9512 108.506L84.9542 108.524L84.9693 108.575L84.9734 108.634L84.9764 108.652L84.9718 108.695L84.9681 108.707L84.9425 108.765L84.9432 108.771L84.9212 108.817L84.9058 108.832L84.8758 108.867L84.8697 108.868L84.8227 108.907L81.675 110.928C81.6221 110.961 81.5619 110.978 81.5018 110.978Z" fill="white"/>
<path d="M94.5171 60.1055C94.4509 60.1055 94.3842 60.0854 94.3268 60.044L91.4966 58.0063C91.3477 57.8993 91.3152 57.7013 91.4227 57.5524L91.8299 56.9862C92.2336 56.426 92.8659 56.1293 93.5065 56.1293C93.9244 56.1293 94.3457 56.2558 94.7098 56.5176C95.64 57.1872 95.8545 58.4779 95.1879 59.404L94.7807 59.9701C94.7163 60.0594 94.617 60.1055 94.5171 60.1055ZM93.5048 56.7847C93.0686 56.7847 92.6384 56.9868 92.3624 57.3698L92.1485 57.6671L94.4415 59.3177L94.656 59.0204C95.1069 58.3839 94.9645 57.5093 94.3262 57.0501C94.078 56.871 93.7902 56.7847 93.5048 56.7847Z" fill="white"/>
<path d="M96.8372 56.9336C96.7663 56.9336 96.6948 56.9105 96.6357 56.8638L93.8959 54.7091C93.7517 54.5962 93.7275 54.3971 93.8409 54.2529L93.8445 54.2481L93.8522 54.2387L95.0353 52.7341C95.0974 52.6549 95.1943 52.6111 95.293 52.6111C95.3621 52.6111 95.4325 52.633 95.4916 52.6797C95.6358 52.7931 95.657 53.0047 95.5507 53.1395L94.5614 54.3983L95.4112 55.0667L96.2622 53.9846C96.3255 53.9042 96.4224 53.8634 96.5193 53.8634C96.5902 53.8634 96.6611 53.8853 96.7179 53.9302C96.8621 54.0431 96.8869 54.2505 96.7776 54.39L95.9265 55.4715L96.7811 56.144L97.771 54.8858C97.8325 54.8072 97.9294 54.7647 98.0275 54.7647C98.099 54.7647 98.1711 54.7871 98.232 54.8344C98.3709 54.9443 98.3921 55.1565 98.2863 55.2907L97.1026 56.7953L97.0908 56.8012L97.092 56.8095C97.0269 56.8922 96.9324 56.9336 96.8372 56.9336Z" fill="white"/>
<path d="M99.0236 54.2334C98.9473 54.2334 98.8711 54.2074 98.8108 54.1548L96.1821 51.8612C96.0438 51.7412 96.0344 51.5361 96.1508 51.4026L96.1549 51.3984L96.8464 50.6053C97.0981 50.3169 97.4504 50.1692 97.8044 50.1692C98.101 50.1692 98.3983 50.2726 98.64 50.483C99.1613 50.9381 99.2156 51.7389 98.7535 52.269L98.2754 52.8168L99.2422 53.6601C99.3758 53.7766 99.39 53.9852 99.2694 54.1235C99.2056 54.1962 99.1146 54.2334 99.0236 54.2334ZM97.8008 50.8264C97.6312 50.8264 97.4634 50.8967 97.341 51.0368L96.8629 51.5846L97.7807 52.3854L98.2588 51.8376C98.484 51.5787 98.4544 51.1999 98.2086 50.9777C98.0886 50.8766 97.9438 50.8264 97.8008 50.8264Z" fill="white"/>
<path d="M101.295 51.6992C101.213 51.6992 101.131 51.6685 101.068 51.6076L98.5572 49.1869C98.429 49.0634 98.4213 48.8589 98.5489 48.7272C98.6145 48.6592 98.702 48.6249 98.7883 48.6249C98.8699 48.6249 98.9508 48.6551 99.0123 48.7147L101.285 50.9055L102.397 49.7519C102.458 49.6887 102.544 49.6556 102.631 49.6556C102.713 49.6556 102.797 49.6857 102.861 49.7478C102.989 49.8707 102.989 50.0841 102.87 50.2076L101.541 51.5863L101.532 51.5952L101.528 51.5993C101.464 51.6661 101.379 51.6992 101.295 51.6992Z" fill="white"/>
<path d="M103.421 48.9141C103.374 48.9141 103.327 48.9129 103.28 48.9093C102.751 48.8762 102.233 48.6387 101.836 48.209C101.439 47.7794 101.246 47.2493 101.25 46.7144C101.249 46.1831 101.467 45.6524 101.884 45.2671C102.238 44.9385 102.709 44.7636 103.175 44.7636C103.233 44.7636 103.291 44.7665 103.349 44.7719C103.883 44.8097 104.405 45.0348 104.802 45.4645C105.2 45.8935 105.388 46.4361 105.38 46.9668C105.385 47.4857 105.172 48.0211 104.772 48.3899C104.394 48.7409 103.903 48.9141 103.421 48.9141ZM103.207 45.4314C102.882 45.4314 102.576 45.5443 102.34 45.7618C102.063 46.0182 101.924 46.3557 101.923 46.7197C101.917 47.0791 102.057 47.4567 102.33 47.7516C102.603 48.0465 102.969 48.2155 103.323 48.2332C103.359 48.2362 103.395 48.2374 103.43 48.2374C103.755 48.2374 104.065 48.1275 104.315 47.8958C104.576 47.6547 104.71 47.3131 104.711 46.949C104.717 46.5986 104.581 46.2168 104.308 45.9219C104.035 45.627 103.665 45.4615 103.311 45.4355C103.276 45.4326 103.241 45.4314 103.207 45.4314Z" fill="white"/>
<path d="M107.66 45.7637C107.567 45.7637 107.474 45.7252 107.409 45.6466L106.394 44.4144L104.41 43.8956C104.234 43.8577 104.128 43.6834 104.175 43.5073C104.214 43.3613 104.34 43.2638 104.48 43.2638C104.508 43.2638 104.538 43.2679 104.567 43.2762L106.227 43.7011L106.128 41.9902C106.12 41.8047 106.257 41.654 106.434 41.6463C106.439 41.6457 106.444 41.6457 106.449 41.6457C106.619 41.6457 106.762 41.7792 106.774 41.9477L106.895 44.0008L107.911 45.2324C108.028 45.3742 108.008 45.574 107.867 45.6904C107.808 45.7394 107.734 45.7637 107.66 45.7637Z" fill="white"/>
<path d="M160.066 32.043C160.047 32.043 160.028 32.0418 160.008 32.0382C159.833 32.0081 159.711 31.8438 159.742 31.663L160.272 28.5526L159.351 28.396C159.171 28.3653 159.057 28.1897 159.087 28.0148C159.114 27.8541 159.247 27.7441 159.403 27.7441C159.423 27.7441 159.442 27.7459 159.462 27.7489L161.949 28.1726C162.124 28.2027 162.246 28.367 162.215 28.5479C162.188 28.7051 162.046 28.8233 161.89 28.8233C161.873 28.8233 161.856 28.8221 161.839 28.8192L160.912 28.6619L160.383 31.7723C160.356 31.933 160.223 32.043 160.066 32.043Z" fill="white"/>
<path d="M164.756 33.0049C164.733 33.0049 164.71 33.0025 164.688 32.9972L162.821 32.5735L162.811 32.5652L162.804 32.5693C162.625 32.5291 162.52 32.3542 162.559 32.1811L163.331 28.7811C163.365 28.628 163.495 28.5276 163.643 28.5276C163.668 28.5276 163.694 28.5305 163.719 28.5359L163.725 28.5376L163.736 28.54L165.603 28.9637C165.771 29.0015 165.889 29.1741 165.848 29.3526C165.813 29.508 165.671 29.6109 165.525 29.6109C165.503 29.6109 165.481 29.6085 165.458 29.6038L163.897 29.2492L163.657 30.3035L165 30.6084C165.173 30.6474 165.283 30.8301 165.245 30.9973C165.21 31.1516 165.073 31.2556 164.925 31.2556C164.902 31.2556 164.878 31.2532 164.855 31.2479L163.512 30.9429L163.272 32.0038L164.834 32.3578C165 32.3956 165.117 32.5735 165.077 32.7525C165.043 32.9021 164.902 33.0049 164.756 33.0049Z" fill="white"/>
<path d="M167.776 33.7539C167.597 33.7539 167.411 33.7285 167.225 33.6753C166.612 33.4939 166.184 33.0394 165.933 32.6913C165.837 32.5536 165.873 32.361 166.006 32.2634C166.058 32.2274 166.118 32.2103 166.178 32.2103C166.276 32.2103 166.373 32.2564 166.432 32.342C166.624 32.6186 166.987 32.9803 167.392 33.0902C167.525 33.1281 167.658 33.1458 167.782 33.1458C167.923 33.1458 168.053 33.1227 168.162 33.0826C168.368 33.0063 168.482 32.8852 168.524 32.7433C168.544 32.6695 168.542 32.6133 168.524 32.5465C168.506 32.4803 168.472 32.4088 168.402 32.3279C168.268 32.173 168.018 31.9969 167.701 31.8385L167.689 31.835C167.437 31.7079 167.206 31.5684 167.02 31.4041C166.833 31.2404 166.686 31.0448 166.618 30.8102C166.572 30.6495 166.572 30.4775 166.62 30.3073C166.718 29.9663 166.995 29.7258 167.312 29.6076C167.484 29.5449 167.671 29.5136 167.864 29.5136C168.034 29.5136 168.208 29.5378 168.38 29.5869C168.926 29.7429 169.253 30.1253 169.489 30.3953C169.594 30.5236 169.582 30.7168 169.453 30.8214C169.397 30.8729 169.326 30.8983 169.254 30.8983C169.17 30.8983 169.086 30.8622 169.025 30.7913C168.791 30.5159 168.562 30.2653 168.215 30.1666C168.098 30.1335 167.984 30.1182 167.875 30.1182C167.745 30.1182 167.625 30.14 167.523 30.1779C167.338 30.2476 167.24 30.3552 167.205 30.4739C167.186 30.5425 167.184 30.591 167.199 30.6447C167.215 30.6979 167.251 30.7641 167.311 30.8356C167.429 30.9804 167.659 31.1447 167.95 31.2889L167.961 31.2925C168.234 31.4319 168.48 31.582 168.677 31.7546C168.877 31.9355 169.04 32.1411 169.11 32.3887C169.157 32.5495 169.159 32.7345 169.109 32.9106C169.005 33.274 168.711 33.5282 168.368 33.6517C168.187 33.719 167.986 33.7539 167.776 33.7539Z" fill="white"/>
<path d="M170.796 34.793C170.76 34.793 170.723 34.7865 170.686 34.7741C170.519 34.7155 170.425 34.5329 170.485 34.3598L171.52 31.3794L170.639 31.0733C170.466 31.013 170.382 30.8215 170.44 30.6537C170.488 30.5178 170.609 30.4345 170.743 30.4345C170.78 30.4345 170.817 30.441 170.854 30.4534L173.237 31.2813C173.405 31.3393 173.498 31.5219 173.438 31.695C173.391 31.8292 173.26 31.9178 173.123 31.9178C173.09 31.9178 173.055 31.9125 173.022 31.9007L172.135 31.5928L171.099 34.5731C171.052 34.7096 170.93 34.793 170.796 34.793Z" fill="white"/>
<path d="M209.271 69.0449C208.485 69.0449 207.735 68.5958 207.391 67.8346L207.104 67.1993C207.028 67.0326 207.104 66.8423 207.266 66.7696L210.441 65.3329C210.487 65.3128 210.534 65.3028 210.579 65.3028C210.702 65.3028 210.817 65.3737 210.872 65.4949L211.159 66.1308C211.629 67.1697 211.164 68.3919 210.13 68.8588C209.85 68.9852 209.559 69.0449 209.271 69.0449ZM210.411 66.0669L207.837 67.2312L207.988 67.5645C208.227 68.0828 208.735 68.3895 209.271 68.3895C209.468 68.3895 209.668 68.3482 209.86 68.2613C210.565 67.9421 210.883 67.1112 210.561 66.4008L210.411 66.0669Z" fill="white"/>
<path d="M209.673 72.7783C209.542 72.7783 209.413 72.6968 209.365 72.5727L208.669 70.7873L208.671 70.7743L208.663 70.7707C208.597 70.6 208.683 70.4138 208.848 70.3494L212.099 69.0835C212.139 69.0675 212.18 69.0598 212.22 69.0598C212.35 69.0598 212.469 69.1378 212.52 69.2685L212.522 69.2738L212.527 69.285L213.222 71.0698C213.284 71.2299 213.208 71.4244 213.037 71.4912C212.998 71.5059 212.959 71.513 212.919 71.513C212.785 71.513 212.658 71.432 212.61 71.3085L212.029 69.8151L211.021 70.2081L211.52 71.4912C211.585 71.6566 211.495 71.8505 211.335 71.9125C211.296 71.9279 211.255 71.9356 211.215 71.9356C211.082 71.9356 210.958 71.8564 210.908 71.7299L210.409 70.4463L209.395 70.8411L209.976 72.3339C210.039 72.4941 209.957 72.6908 209.786 72.7576C209.75 72.7718 209.711 72.7783 209.673 72.7783Z" fill="white"/>
<path d="M214.289 75.7148C214.282 75.7148 214.274 75.7148 214.267 75.7143L210.53 75.388L210.478 75.3798L210.471 75.3762L210.428 75.3585L210.408 75.3532L210.368 75.3283L210.359 75.3189L210.316 75.2834L210.307 75.274L210.281 75.2326L210.278 75.2214L210.254 75.1664L210.241 75.1085L210.237 75.0973L210.234 75.0488L210.238 75.0411L210.236 75.0358L210.254 74.9737L210.252 74.9684L210.267 74.92L210.282 74.9087L210.307 74.8697L210.311 74.8621L210.347 74.8195L213.186 72.377C213.245 72.325 213.319 72.2984 213.394 72.2984C213.486 72.2984 213.578 72.338 213.64 72.4166C213.758 72.5466 213.742 72.7505 213.607 72.8693L211.357 74.8095L214.317 75.0636C214.496 75.0801 214.63 75.2421 214.612 75.4158C214.601 75.5854 214.453 75.7148 214.289 75.7148Z" fill="white"/>
<path d="M211.924 80.126C211.779 80.126 211.642 80.0249 211.605 79.8843L211.117 78.0321L211.12 78.0191L211.113 78.015C211.066 77.8377 211.172 77.6627 211.344 77.6172L214.717 76.729C214.747 76.7213 214.775 76.7178 214.804 76.7178C214.948 76.7178 215.075 76.8123 215.114 76.9607L215.116 76.9666L215.119 76.9778L215.607 78.8305C215.651 78.996 215.553 79.181 215.375 79.2271C215.348 79.2348 215.32 79.2383 215.293 79.2383C215.144 79.2383 215.01 79.1373 214.972 78.9972L214.565 77.4482L213.518 77.7236L213.869 79.0557C213.914 79.2271 213.803 79.4097 213.637 79.4528C213.609 79.4605 213.58 79.4641 213.552 79.4641C213.406 79.4641 213.272 79.3666 213.234 79.2229L212.883 77.8909L211.832 78.1674L212.24 79.7176C212.283 79.8831 212.18 80.0692 212.003 80.1159C211.977 80.123 211.95 80.126 211.924 80.126Z" fill="white"/>
<path d="M212.673 83.5303C212.522 83.5303 212.382 83.4198 212.352 83.2726L211.96 81.3998L211.958 81.388L211.956 81.3826C211.919 81.203 212.034 81.0346 212.208 80.9979L215.618 80.2852C215.641 80.2805 215.663 80.2781 215.685 80.2781C215.834 80.2781 215.97 80.3803 216.003 80.5363C216.04 80.716 215.926 80.8904 215.752 80.927L212.666 81.5718L212.993 83.1385C213.028 83.3057 212.915 83.4865 212.736 83.5244C212.715 83.5285 212.694 83.5303 212.673 83.5303Z" fill="white"/>
<path d="M214.86 87.5498C214.4 87.5498 213.97 87.4038 213.618 87.1562C213.186 86.8684 212.863 86.3909 212.783 85.8531C212.7 85.2922 212.867 84.7414 213.194 84.3283C213.52 83.9087 214.007 83.615 214.586 83.5281C214.7 83.511 214.813 83.5027 214.923 83.5027C215.376 83.5027 215.798 83.641 216.151 83.8857C216.59 84.1841 216.907 84.6629 216.991 85.2237C217.07 85.7615 216.909 86.3111 216.574 86.7136C216.243 87.1338 215.763 87.4387 215.184 87.525C215.075 87.5415 214.967 87.5498 214.86 87.5498ZM214.918 84.177C214.841 84.177 214.763 84.183 214.685 84.1948C214.288 84.2539 213.942 84.4607 213.728 84.7438C213.502 85.0287 213.393 85.3797 213.449 85.7538C213.502 86.1043 213.708 86.408 214.009 86.6137C214.241 86.7774 214.542 86.8761 214.859 86.8761C214.933 86.8761 215.009 86.8708 215.085 86.8595C215.482 86.7993 215.826 86.5871 216.047 86.3087C216.274 86.0239 216.377 85.674 216.325 85.323C216.269 84.9495 216.068 84.6445 215.767 84.4389C215.532 84.2722 215.233 84.177 214.918 84.177Z" fill="white"/>
<path d="M216.161 91.3477C215.518 91.3477 214.963 90.8501 214.905 90.1864L214.843 89.4624L213.565 89.5735C213.555 89.5747 213.546 89.5747 213.537 89.5747C213.372 89.5747 213.227 89.4453 213.212 89.2721C213.197 89.0954 213.331 88.9358 213.508 88.9199L216.982 88.6167C216.991 88.6161 217.002 88.6155 217.011 88.6155C217.181 88.6155 217.319 88.7456 217.334 88.9128L217.334 88.9181L217.426 89.9665C217.487 90.6674 216.971 91.2821 216.27 91.3429C216.234 91.3465 216.197 91.3477 216.161 91.3477ZM216.709 89.2993L215.496 89.4051L215.56 90.1296C215.587 90.4559 215.858 90.6911 216.17 90.6911C216.184 90.6911 216.198 90.6905 216.213 90.6893C216.554 90.6538 216.802 90.3654 216.772 90.0233L216.709 89.2993Z" fill="white"/>
<path d="M181.278 157.681C181.165 157.681 181.057 157.622 180.997 157.519L179.241 154.508C179.149 154.349 179.2 154.155 179.359 154.063L179.96 153.712C180.286 153.522 180.643 153.431 180.996 153.431C181.707 153.431 182.398 153.799 182.78 154.454C183.358 155.445 183.029 156.711 182.044 157.285L181.441 157.636C181.389 157.666 181.332 157.681 181.278 157.681ZM180.998 154.087C180.758 154.087 180.515 154.148 180.291 154.279L179.974 154.463L181.397 156.903L181.713 156.719C182.384 156.321 182.61 155.464 182.214 154.785C181.953 154.338 181.483 154.087 180.998 154.087Z" fill="#F5F5F5"/>
<path d="M184.759 155.585C184.652 155.585 184.55 155.532 184.488 155.438L182.567 152.528C182.466 152.375 182.507 152.179 182.66 152.077L182.664 152.075L182.674 152.067L184.272 151.013C184.326 150.978 184.388 150.96 184.45 150.96C184.554 150.96 184.66 151.01 184.723 151.105C184.824 151.258 184.777 151.466 184.634 151.561L183.297 152.443L183.892 153.346L185.042 152.587C185.095 152.552 185.156 152.535 185.217 152.535C185.324 152.535 185.432 152.587 185.492 152.68C185.593 152.832 185.551 153.037 185.403 153.135L184.254 153.893L184.853 154.801L186.19 153.918C186.242 153.884 186.303 153.867 186.365 153.867C186.472 153.867 186.579 153.918 186.643 154.015C186.741 154.164 186.694 154.372 186.551 154.466L184.953 155.521L184.94 155.522L184.938 155.531C184.882 155.567 184.82 155.585 184.759 155.585Z" fill="#F5F5F5"/>
<path d="M187.36 153.254C187.326 153.254 187.293 153.253 187.262 153.252C187.094 153.245 186.964 153.099 186.967 152.934C186.974 152.771 187.112 152.643 187.274 152.643C187.279 152.643 187.283 152.643 187.287 152.643C187.318 152.645 187.35 152.646 187.382 152.646C187.714 152.646 188.162 152.568 188.465 152.336C188.702 152.159 188.863 151.93 188.928 151.72C188.992 151.509 188.966 151.345 188.878 151.226C188.832 151.164 188.786 151.132 188.722 151.106C188.667 151.084 188.601 151.068 188.516 151.068C188.503 151.068 188.489 151.069 188.474 151.07C188.27 151.082 187.978 151.174 187.659 151.33L187.649 151.337C187.394 151.46 187.143 151.558 186.9 151.606C186.798 151.627 186.696 151.638 186.595 151.638C186.455 151.638 186.316 151.616 186.184 151.564C186.028 151.503 185.891 151.399 185.785 151.256C185.574 150.972 185.552 150.606 185.65 150.282C185.753 149.955 185.975 149.65 186.283 149.421C186.74 149.082 187.241 149.055 187.6 149.032C187.603 149.032 187.607 149.032 187.61 149.032C187.771 149.032 187.912 149.157 187.917 149.319C187.93 149.485 187.803 149.631 187.633 149.641C187.271 149.659 186.933 149.69 186.644 149.904C186.43 150.063 186.29 150.271 186.232 150.461C186.175 150.651 186.2 150.794 186.274 150.894C186.316 150.95 186.354 150.982 186.406 151.002C186.452 151.019 186.517 151.03 186.597 151.03C186.607 151.03 186.616 151.03 186.626 151.03C186.812 151.024 187.082 150.941 187.374 150.798L187.383 150.791C187.66 150.658 187.929 150.554 188.186 150.503C188.301 150.482 188.416 150.469 188.528 150.469C188.674 150.469 188.818 150.491 188.953 150.544C189.109 150.606 189.257 150.716 189.367 150.863C189.592 151.167 189.615 151.554 189.505 151.901C189.4 152.245 189.165 152.574 188.829 152.824C188.351 153.172 187.782 153.254 187.36 153.254Z" fill="#F5F5F5"/>
<path d="M190.974 151.066C190.881 151.066 190.789 151.025 190.723 150.945L188.521 148.242C188.404 148.1 188.425 147.9 188.567 147.785C188.628 147.735 188.704 147.71 188.779 147.71C188.872 147.71 188.965 147.749 189.029 147.828L191.231 150.53C191.348 150.672 191.318 150.88 191.181 150.991C191.119 151.042 191.046 151.066 190.974 151.066Z" fill="#F5F5F5"/>
<path d="M192.4 149.24C191.825 149.24 191.257 149.011 190.843 148.552C190.048 147.672 190.142 146.313 191.032 145.509C191.403 145.173 191.874 144.979 192.339 144.949C192.351 144.948 192.362 144.947 192.373 144.947C192.548 144.947 192.693 145.086 192.708 145.26C192.72 145.441 192.578 145.609 192.389 145.62C192.069 145.646 191.745 145.772 191.482 146.009C191.167 146.294 190.998 146.662 190.983 147.042C190.955 147.425 191.073 147.804 191.343 148.101C191.604 148.39 191.968 148.546 192.352 148.558C192.381 148.56 192.409 148.561 192.437 148.561C192.789 148.561 193.138 148.429 193.43 148.165C193.649 147.968 193.796 147.715 193.88 147.457L193.338 146.856L192.711 147.422C192.648 147.479 192.567 147.507 192.486 147.507C192.393 147.507 192.301 147.471 192.236 147.398C192.109 147.258 192.128 147.05 192.264 146.927L193.127 146.148L193.131 146.143L193.136 146.139C193.204 146.078 193.288 146.047 193.371 146.047C193.459 146.047 193.546 146.083 193.612 146.155L194.486 147.123L194.541 147.21L194.552 147.239L194.556 147.244C194.579 147.295 194.583 147.354 194.567 147.425C194.485 147.889 194.254 148.328 193.881 148.665C193.457 149.049 192.926 149.24 192.4 149.24Z" fill="#F5F5F5"/>
<path d="M196.059 146.478C195.978 146.478 195.896 146.447 195.834 146.387L193.356 144.014L193.351 144.01C193.275 143.945 193.23 143.837 193.245 143.728C193.272 143.568 193.408 143.45 193.562 143.45C193.577 143.45 193.591 143.451 193.607 143.453L196.833 143.901L195.075 142.218C194.951 142.1 194.943 141.896 195.066 141.767C195.129 141.701 195.216 141.668 195.302 141.668C195.382 141.668 195.461 141.696 195.52 141.753L197.999 144.127C198.127 144.249 198.131 144.458 198.008 144.586C197.949 144.648 197.865 144.68 197.781 144.68C197.773 144.68 197.764 144.68 197.756 144.679L197.71 144.676L194.509 144.227L196.279 145.922C196.407 146.045 196.412 146.254 196.293 146.378C196.228 146.444 196.144 146.478 196.059 146.478Z" fill="#F5F5F5"/>
<path d="M57.4579 166.139C57.2803 166.139 57.1328 165.991 57.1328 165.814V162.329C57.1328 162.146 57.2803 162.004 57.4579 162.004H57.4636H58.5149C59.2176 162.004 59.7849 162.571 59.7849 163.274C59.7849 163.965 59.2176 164.532 58.5149 164.532H57.7885V165.814C57.7885 165.991 57.6407 166.139 57.4579 166.139ZM57.7885 162.66V163.876H58.5149C58.8575 163.876 59.1235 163.605 59.1292 163.274C59.1235 162.931 58.8575 162.66 58.5149 162.66H57.7885Z" fill="#F5F5F5"/>
<path d="M62.8342 166.139H60.9029C60.7196 166.139 60.5781 165.991 60.5781 165.814V162.329C60.5781 162.152 60.7196 162.004 60.9029 162.004C61.0857 162.004 61.2335 162.152 61.2335 162.329V165.483H62.8342C63.0055 165.483 63.1593 165.631 63.1593 165.814C63.1593 165.991 63.0055 166.139 62.8342 166.139Z" fill="#F5F5F5"/>
<path d="M66.6049 166.139C66.4749 166.139 66.351 166.062 66.3036 165.932L66.0141 165.164H64.5789L64.2894 165.932C64.2363 166.062 64.1124 166.139 63.9824 166.139L63.8702 166.121C63.6989 166.056 63.6163 165.867 63.6751 165.695L64.9806 162.216C65.0318 162.091 65.1554 162.009 65.2807 162.009C65.2851 162.009 65.2893 162.009 65.2936 162.01C65.298 162.009 65.3026 162.009 65.3071 162.009C65.4377 162.009 65.5555 162.091 65.6067 162.216L66.9119 165.695C66.971 165.867 66.8882 166.056 66.7171 166.121L66.6049 166.139ZM65.2936 163.244L64.8151 164.515H65.7722L65.2936 163.244Z" fill="#F5F5F5"/>
<path d="M70.5443 166.139C70.4499 166.139 70.3613 166.091 70.3024 166.02L70.2726 165.985L68.3826 163.363V165.814C68.3826 165.991 68.2351 166.139 68.0638 166.139C67.8805 166.139 67.7388 165.991 67.7388 165.814V162.382V162.376C67.733 162.276 67.7801 162.17 67.869 162.105C67.9273 162.064 67.9945 162.045 68.0601 162.045C68.1601 162.045 68.257 162.09 68.3177 162.176L70.2257 164.815V162.382C70.2257 162.211 70.3672 162.063 70.5443 162.063C70.7216 162.063 70.8693 162.211 70.8693 162.382V165.814C70.8693 165.991 70.7216 166.139 70.5443 166.139Z" fill="#F5F5F5"/>
<path d="M202.96 166.139H201.028C200.845 166.139 200.703 165.991 200.703 165.814V162.329C200.703 162.152 200.845 162.004 201.028 162.004C201.211 162.004 201.359 162.152 201.359 162.329V165.483H202.96C203.131 165.483 203.285 165.631 203.285 165.814C203.285 165.991 203.131 166.139 202.96 166.139Z" fill="#F5F5F5"/>
<path d="M206.722 166.139C206.592 166.139 206.468 166.062 206.421 165.932L206.131 165.164H204.696L204.407 165.932C204.354 166.062 204.23 166.139 204.099 166.139L203.987 166.121C203.816 166.056 203.734 165.867 203.792 165.695L205.098 162.216C205.149 162.091 205.272 162.009 205.398 162.009C205.402 162.009 205.406 162.009 205.41 162.01C205.415 162.009 205.42 162.009 205.424 162.009C205.555 162.009 205.673 162.091 205.724 162.216L207.03 165.695C207.088 165.867 207.006 166.056 206.835 166.121L206.722 166.139ZM205.41 163.244L204.932 164.515H205.889L205.41 163.244Z" fill="#F5F5F5"/>
<path d="M209.409 166.139C208.459 166.139 207.703 165.371 207.703 164.431V162.329C207.703 162.146 207.844 162.004 208.028 162.004C208.205 162.004 208.359 162.146 208.359 162.329V164.431C208.359 165.01 208.831 165.483 209.409 165.483C209.995 165.483 210.461 165.01 210.461 164.431V162.329C210.461 162.146 210.609 162.004 210.792 162.004C210.975 162.004 211.117 162.146 211.117 162.329V164.431C211.117 165.371 210.355 166.139 209.409 166.139Z" fill="#F5F5F5"/>
<path d="M215.236 166.139C215.141 166.139 215.053 166.091 214.993 166.02L214.964 165.985L213.074 163.363V165.814C213.074 165.991 212.926 166.139 212.755 166.139C212.572 166.139 212.43 165.991 212.43 165.814V162.382V162.376C212.424 162.276 212.472 162.17 212.56 162.105C212.619 162.064 212.686 162.045 212.752 162.045C212.852 162.045 212.948 162.09 213.009 162.176L214.916 164.815V162.382C214.916 162.211 215.059 162.063 215.236 162.063C215.413 162.063 215.561 162.211 215.561 162.382V165.814C215.561 165.991 215.413 166.139 215.236 166.139Z" fill="#F5F5F5"/>
<path d="M218.969 166.139C217.787 166.139 216.807 165.188 216.801 164.012C216.807 162.843 217.787 161.892 218.969 161.886C219.489 161.886 219.961 162.057 220.333 162.347C220.475 162.465 220.499 162.671 220.392 162.819C220.323 162.906 220.219 162.95 220.117 162.95C220.046 162.95 219.976 162.928 219.92 162.884C219.66 162.671 219.335 162.559 218.969 162.559C218.561 162.559 218.183 162.725 217.905 162.985C217.639 163.256 217.474 163.611 217.474 164.012C217.474 164.414 217.639 164.78 217.905 165.04C218.183 165.3 218.561 165.465 218.969 165.465C219.335 165.465 219.653 165.353 219.92 165.14C219.975 165.099 220.045 165.079 220.115 165.079C220.217 165.079 220.322 165.122 220.392 165.206C220.499 165.353 220.475 165.565 220.333 165.678C219.961 165.967 219.489 166.139 218.969 166.139Z" fill="#F5F5F5"/>
<path d="M224.061 166.139C223.879 166.139 223.737 165.997 223.737 165.814V164.396H222.207V165.814C222.207 165.997 222.06 166.139 221.876 166.139C221.693 166.139 221.551 165.997 221.551 165.814V162.329C221.551 162.146 221.693 162.004 221.876 162.004C222.06 162.004 222.207 162.146 222.207 162.329V163.746H223.737V162.329C223.737 162.146 223.879 162.004 224.061 162.004C224.245 162.004 224.392 162.146 224.392 162.329V165.814C224.392 165.997 224.245 166.139 224.061 166.139Z" fill="#F5F5F5"/>
<path d="M110.193 71.6117C99.9773 77.3892 81.3904 94.9716 82.7547 99.8596C85.5056 109.715 101.201 122.3 104.486 124.971C106.397 126.524 114.228 109.088 112.429 107.166C110.329 104.921 101.389 98.8136 101.356 97.6151C101.33 96.702 108.774 86.9277 114.262 78.6108C120.627 68.9635 115.062 68.8577 110.193 71.6117Z" fill="#F57A76"/>
<path d="M101.934 122.103C103.345 123.808 110.505 131.051 112.948 132.621C115.392 134.191 122.75 138.199 124.142 136.449C125.535 134.7 123.474 133.355 123.474 133.355C123.474 133.355 126.85 134.555 128.09 132.667C129.331 130.779 126.057 128.791 126.057 128.791C126.057 128.791 129.613 129.771 130.716 127.799C131.819 125.826 128.192 124.379 128.192 124.379C128.192 124.379 131.402 125.427 131.627 123.419C131.898 121.005 125.762 119.742 123.195 117.807C122.612 117.368 112.013 108.057 112.013 108.057L101.934 122.103Z" fill="#F57A76"/>
<path d="M128.501 124.51C123.991 123.571 122.181 122.379 118.92 119.228C118.857 119.166 118.75 119.247 118.811 119.318C121.723 122.694 123.778 124.516 128.467 124.731C128.696 124.742 128.715 124.555 128.501 124.51Z" fill="#17282F"/>
<path d="M126.419 128.859C121.82 127.474 119.845 126.199 116.187 123.149L116.105 123.237C119.443 126.53 121.536 128.3 126.312 129.08C126.529 129.115 126.629 128.922 126.419 128.859Z" fill="#17282F"/>
<path d="M123.299 133.194C118.943 131.533 116.717 130.228 113.546 126.812C113.471 126.731 113.346 126.832 113.414 126.92C116.308 130.719 119.074 132.367 123.234 133.321C123.517 133.386 123.572 133.299 123.299 133.194Z" fill="#17282F"/>
<path d="M109.962 106.005C109.962 106.005 115.733 106.118 118.258 106.726C120.782 107.335 129.355 113.065 128.222 114.987C126.76 117.468 121.159 115.135 118.566 113.634C118.566 113.634 115.189 119.377 110.807 118.572C106.425 117.767 109.962 106.005 109.962 106.005Z" fill="#F57A76"/>
<path d="M127.608 115.538C124.642 116.838 121.364 114.648 118.74 113.38C118.54 113.284 118.392 113.411 118.349 113.577C116.773 115.89 113.875 118.693 110.922 118.723C110.835 118.724 110.825 118.847 110.912 118.858C114.084 119.256 117.155 116.734 118.719 114.091C121.39 115.433 124.774 117.485 127.622 115.565L127.608 115.538Z" fill="#17282F"/>
<path d="M111.958 104.895L99.9876 122.768C99.9876 122.768 80.9674 105.155 82.0228 98.6341C83.0783 92.1132 99.8777 76.7417 109.05 71.6551C118.223 66.5685 119.01 71.7762 114.925 78.6488C110.839 85.5213 101.897 97.6424 102.072 97.9805C102.247 98.3185 111.958 104.895 111.958 104.895Z" fill="#33535F"/>
<path d="M103.067 114.563C104.158 113.54 105.225 112.492 106.292 111.445C106.804 110.942 107.321 110.443 107.817 109.923C108.351 109.364 108.943 108.833 109.435 108.238L109.378 108.176C108.755 108.631 108.191 109.191 107.6 109.689C107.051 110.15 106.523 110.638 105.99 111.119C104.88 112.121 103.771 113.122 102.684 114.149C100.508 116.207 98.3973 118.32 96.3064 120.464C96.2556 120.516 96.3271 120.594 96.3821 120.547C98.6479 118.59 100.882 116.611 103.067 114.563Z" fill="#17282F"/>
<path d="M114.928 78.6466C110.838 85.5198 101.897 97.6409 102.074 97.9777C102.251 98.3205 111.961 104.892 111.961 104.892L99.988 122.77C99.988 122.77 85.0422 108.923 82.3828 101.24L115.478 69.6636C118.22 70.1482 117.676 74.0192 114.928 78.6466Z" fill="#273E47"/>
<path d="M85.5551 228.467L84.9219 256.792C85.078 262.021 85.3078 266.601 85.6481 268.96L85.6542 268.998C85.7816 269.888 85.924 270.454 86.0882 270.601L86.1198 270.634C87.7071 271.641 129.524 271.613 130.982 271.121C132.446 270.635 131.153 266.435 129.529 265.141C127.893 263.847 111.884 256.698 111.884 256.698L111.588 228.413L85.5551 228.467Z" fill="#F57A76"/>
<path d="M85.0472 251.181L84.9219 256.792C85.078 262.021 85.3078 266.601 85.6481 268.96L85.6542 268.998C85.8323 269.875 85.9875 270.455 86.0882 270.601L86.1198 270.634C87.7071 271.641 129.524 271.613 130.982 271.121C132.446 270.635 131.153 266.435 129.529 265.141C127.893 263.847 111.884 256.698 111.884 256.698L111.762 251L85.0472 251.181Z" fill="white"/>
<path d="M114.446 256.646C111.651 256.262 108.283 256.85 106.26 258.925C106.182 259.006 106.297 259.116 106.386 259.083C109.077 258.09 111.604 257.415 114.452 256.997C114.652 256.967 114.646 256.674 114.446 256.646Z" fill="#17282F"/>
<path d="M116.505 257.757C113.709 257.372 110.341 257.96 108.319 260.036C108.24 260.116 108.356 260.226 108.444 260.193C111.136 259.201 113.662 258.525 116.51 258.107C116.711 258.078 116.705 257.784 116.505 257.757Z" fill="#17282F"/>
<path d="M118.567 258.864C115.772 258.48 112.404 259.068 110.381 261.144C110.303 261.224 110.419 261.334 110.507 261.302C113.199 260.309 115.725 259.633 118.573 259.216C118.773 259.186 118.767 258.892 118.567 258.864Z" fill="#17282F"/>
<path d="M130.985 271.122C129.525 271.615 87.7115 271.644 86.1202 270.633C85.5087 270.259 85.1493 264.167 84.9265 256.793C84.9251 256.715 84.9233 256.639 84.9219 256.562L111.897 256.242L111.887 256.7C111.887 256.7 127.898 263.848 129.531 265.143C131.152 266.434 132.446 270.635 130.985 271.122Z" fill="#273E47"/>
<path d="M84.9141 256.559L84.9205 256.797C85.1486 264.168 85.5018 270.261 86.1165 270.635C86.8371 271.093 95.9064 271.337 105.704 271.426C117.427 271.527 130.187 271.395 130.983 271.127C132.442 270.634 131.145 266.436 129.527 265.142C127.893 263.848 111.884 256.7 111.884 256.7L111.896 256.246L102.9 256.351L84.9141 256.559Z" fill="#584FAB"/>
<path d="M130.505 269.502C123.457 269.334 95.0115 269.321 88.0309 269.69C87.9741 269.693 87.9741 269.732 88.0309 269.734C95.0138 270.054 123.458 269.836 130.505 269.617C130.654 269.613 130.654 269.506 130.505 269.502Z" fill="#17282F"/>
<path d="M105.39 269.89C105.358 269.731 105.325 269.57 105.293 269.407C108.07 269.394 110.927 269.387 113.696 269.387C120.946 269.387 127.58 269.43 130.511 269.501C130.66 269.504 130.66 269.611 130.512 269.616C126.474 269.741 115.415 269.866 105.39 269.89Z" fill="#142228"/>
<path d="M82.9102 256.455L113.16 256.742C113.16 256.742 113.922 203.986 114.053 187.562C114.203 168.802 113.139 112.526 113.139 112.526H90.5236C90.5236 112.526 84.4536 124.928 87.9225 138.884L88.8819 189.09L82.9102 256.455Z" fill="#17282F"/>
<path d="M85.1556 251.157C85.9361 251.014 86.7725 251.021 87.5646 250.965C88.4584 250.902 89.3491 250.835 90.245 250.797C91.966 250.724 93.6869 250.694 95.4091 250.688C98.8823 250.674 102.356 250.701 105.828 250.81C107.803 250.871 109.778 250.95 111.751 251.062C111.828 251.067 111.825 251.184 111.748 251.187C108.304 251.312 104.86 251.366 101.415 251.432C97.9769 251.499 94.5261 251.566 91.0884 251.5C90.1008 251.481 89.1139 251.472 88.1274 251.416C87.1534 251.36 86.1317 251.415 85.1681 251.273C85.1101 251.264 85.0866 251.169 85.1556 251.157Z" fill="#273E47"/>
<path d="M110.386 223.381C110.738 215.238 110.637 204.174 110.861 196.026C111.307 179.728 111.418 163.424 111.213 147.121C111.098 137.975 110.853 128.83 110.58 119.688C110.578 119.583 110.736 119.589 110.742 119.692C111.608 136.059 111.937 152.458 111.956 168.848C111.975 185.152 111.996 204.372 111.191 220.657C110.739 229.798 110.774 239.533 109.913 248.645C109.906 248.724 109.786 248.722 109.789 248.642C110.157 240.417 110.031 231.606 110.386 223.381Z" fill="#273E47"/>
<path d="M117.461 228.974L117.691 256.343C117.708 261.573 117.816 266.158 118.093 268.525L118.099 268.563C118.202 269.456 118.329 270.026 118.49 270.178L118.521 270.211C120.08 271.26 161.883 272.346 163.354 271.892C164.83 271.446 163.649 267.213 162.06 265.876C160.459 264.539 144.646 256.966 144.646 256.966L144.156 229.63L117.461 228.974Z" fill="#F57A76"/>
<path d="M117.645 250.728L117.691 256.343C117.708 261.573 117.816 266.158 118.093 268.525L118.098 268.563C118.253 269.446 118.393 270.028 118.49 270.178L118.52 270.211C120.08 271.26 161.883 272.346 163.354 271.892C164.83 271.446 163.649 267.213 162.06 265.876C160.459 264.539 144.646 256.966 144.646 256.966L144.676 251.267L117.645 250.728Z" fill="white"/>
<path d="M147.217 256.982C144.432 256.523 141.05 257.021 138.973 259.042C138.892 259.12 139.005 259.233 139.094 259.203C141.812 258.282 144.355 257.675 147.213 257.332C147.415 257.308 147.416 257.015 147.217 256.982Z" fill="#17282F"/>
<path d="M149.236 258.146C146.452 257.687 143.069 258.185 140.993 260.206C140.912 260.284 141.025 260.397 141.114 260.367C143.831 259.446 146.374 258.839 149.232 258.496C149.434 258.472 149.435 258.179 149.236 258.146Z" fill="#17282F"/>
<path d="M151.252 259.307C148.468 258.848 145.085 259.346 143.008 261.367C142.928 261.445 143.04 261.558 143.129 261.528C145.847 260.607 148.39 259.999 151.248 259.657C151.449 259.633 151.451 259.34 151.252 259.307Z" fill="#17282F"/>
<path d="M163.36 271.894C161.887 272.348 120.088 271.263 118.524 270.21C117.923 269.821 117.725 263.72 117.699 256.343C117.7 256.266 117.7 256.189 117.7 256.112L144.675 256.511L144.653 256.968C144.653 256.968 160.467 264.539 162.066 265.878C163.652 267.212 164.833 271.446 163.36 271.894Z" fill="#584FAB"/>
<path d="M162.921 270.261C155.88 269.906 127.444 269.134 120.457 269.318C120.401 269.319 120.399 269.358 120.456 269.362C127.427 269.867 155.868 270.407 162.918 270.377C163.067 270.376 163.07 270.269 162.921 270.261Z" fill="#17282F"/>
<path d="M103.633 141.476C103.64 141.495 116.042 180.589 116.267 187.778C116.458 193.906 115.673 256.795 115.673 256.795L147.088 256.981C147.088 256.981 144.435 192.848 143.944 186.461C143.026 174.518 132.565 141.733 125.082 112.525H91.2148C91.2148 112.525 91.5092 127.822 98.4656 138.884C98.4656 138.884 101.616 140.342 103.633 141.476Z" fill="#17282F"/>
<path d="M117.356 251.003C120.985 250.898 124.748 250.791 128.378 250.881C131.978 250.971 135.587 251.026 139.182 251.24C141.221 251.361 143.256 251.43 145.291 251.631C145.359 251.638 145.356 251.736 145.289 251.74C141.662 251.952 138.021 251.909 134.389 251.876C130.786 251.843 127.184 251.804 123.583 251.639C121.544 251.545 119.509 251.443 117.472 251.301C117.253 251.287 117.136 251.009 117.356 251.003Z" fill="#273E47"/>
<path d="M124.225 130.954C125.345 134.692 126.289 138.484 127.291 142.255C128.302 146.056 129.309 149.857 130.31 153.66C132.246 161.018 134.16 168.388 135.611 175.86C137.072 183.378 137.958 190.95 138.122 198.611C138.29 206.397 138.128 214.195 138.075 221.983C138.021 229.814 137.956 237.643 137.82 245.473C137.803 246.447 137.783 247.42 137.747 248.393C137.743 248.487 137.604 248.483 137.601 248.39C137.393 240.603 137.504 232.799 137.529 225.009C137.554 217.218 137.657 209.424 137.591 201.634C137.526 193.882 136.932 186.199 135.594 178.56C134.28 171.064 132.434 163.675 130.519 156.313C129.427 152.114 128.323 147.917 127.234 143.717C126.137 139.489 124.964 135.271 124 131.011C123.966 130.864 124.182 130.811 124.225 130.954Z" fill="#273E47"/>
<path d="M111.418 142.23C109.854 142.203 108.294 142.096 106.753 141.807C105.198 141.517 103.745 140.999 102.233 140.554C100.799 140.132 99.2731 140.066 97.8016 139.83C96.3093 139.59 94.8201 139.199 93.4578 138.536C93.3934 138.504 93.3396 138.601 93.4041 138.634C94.755 139.326 96.1161 139.981 97.567 140.439C99.0562 140.908 100.613 140.973 102.125 141.343C103.68 141.723 105.177 142.229 106.776 142.413C108.326 142.592 109.893 142.587 111.435 142.334C111.496 142.324 111.475 142.232 111.418 142.23Z" fill="#273E47"/>
<path d="M113.398 173.345C113.1 172.186 112.82 171.024 112.506 169.87C111.87 167.535 111.225 165.199 110.519 162.884C109.117 158.283 107.793 153.654 106.309 149.079C105.468 146.484 104.714 143.856 103.726 141.312C103.702 141.25 103.613 141.277 103.626 141.342C104.122 143.715 104.825 146.035 105.454 148.376C106.083 150.713 106.755 153.039 107.429 155.365C108.769 159.984 110.081 164.615 111.544 169.198C111.954 170.483 112.375 171.764 112.819 173.038C113.272 174.339 113.628 175.683 114.172 176.951C114.201 177.02 114.296 176.991 114.284 176.918C114.074 175.709 113.702 174.532 113.398 173.345Z" fill="#273E47"/>
<path d="M144.565 109.328C137.18 107.064 133.027 99.2385 135.291 91.8535C137.555 84.4686 145.38 80.3151 152.765 82.5792C160.156 84.8445 164.309 92.6703 162.045 100.055C159.781 107.44 151.956 111.593 144.565 109.328ZM179.149 110.639L182.143 101.722L175.497 98.8998C175.866 95.3167 175.522 91.7619 174.544 88.4211L180.607 84.7907L176.417 76.3603L169.747 79.0634C167.573 76.2953 164.863 73.9248 161.685 72.1347L163.361 65.4779L154.443 62.4851L151.759 68.8016C148.03 68.3016 144.314 68.59 140.817 69.5515L137.506 64.0181L129.083 68.2047L131.494 74.173C128.495 76.4371 125.946 79.3276 124.066 82.7382L118.19 81.2584L115.195 90.1805L120.845 92.5804C120.333 96.5093 120.697 100.422 121.821 104.074L116.728 107.117L120.917 115.535L126.637 113.227C128.992 116.193 131.974 118.684 135.476 120.486L133.981 126.432L142.898 129.425L145.443 123.443C149.222 123.816 152.975 123.391 156.474 122.281L159.829 127.89L168.258 123.705L165.658 117.265C168.395 115.013 170.719 112.208 172.433 108.957L179.149 110.639Z" fill="#B5AFEC"/>
<path d="M151.813 85.6808C146.148 83.9445 140.126 87.1405 138.389 92.8057C136.653 98.4703 139.849 104.492 145.514 106.229C151.179 107.966 157.201 104.77 158.937 99.1044C160.674 93.4392 157.478 87.4177 151.813 85.6808ZM145.168 107.359C138.88 105.431 135.332 98.7474 137.259 92.4594C139.187 86.1707 145.871 82.6236 152.159 84.5508C158.448 86.4786 161.995 93.1626 160.067 99.4507C158.14 105.739 151.456 109.286 145.168 107.359Z" fill="#D4D6D3"/>
<path d="M123.16 78.1354C120.88 78.3541 117.105 74.112 115.983 71.1707C115.908 70.9686 116.467 69.0319 117.035 66.6455C117.374 65.1964 117.717 63.5748 117.924 62.0725L127.033 65.6562C127.033 65.6562 125.673 68.6779 125.329 71.3001C125.303 71.5194 125.297 71.7262 125.31 71.9254L125.309 72.0294C125.339 73.2267 125.364 77.9227 123.16 78.1354Z" fill="#F57A76"/>
<path d="M125.31 71.9247L125.31 72.0322C125.007 72.031 124.685 72.008 124.332 71.9495C118.815 70.9655 118.218 64.5545 118.191 62.1805L127.035 65.6584C127.035 65.6584 125.675 68.6819 125.328 71.2994C125.306 71.5198 125.297 71.7285 125.31 71.9247Z" fill="#17282F"/>
<path d="M114.716 52.6277C114.25 56.1234 117.595 65.4456 120.316 67.1979C124.26 69.7385 129.927 69.1073 131.885 64.5473C133.784 60.1267 129.21 48.0547 126.244 46.5435C121.877 44.3179 115.404 47.4649 114.716 52.6277Z" fill="#F57A76"/>
<path d="M125.415 56.8225L125.386 56.8946C125.619 57.5199 125.782 58.2758 125.281 58.6788L125.298 58.7119C125.963 58.378 125.737 57.3775 125.415 56.8225Z" fill="#17282F"/>
<path d="M124.63 56.3535C123.588 56.6201 124.198 58.6855 125.164 58.4385C126.114 58.195 125.504 56.1295 124.63 56.3535Z" fill="#17282F"/>
<path d="M129.004 55.7521L129.07 55.7941C129.239 56.4401 129.541 57.151 130.182 57.1924L130.187 57.2296C129.452 57.3389 129.06 56.391 129.004 55.7521Z" fill="#17282F"/>
<path d="M129.373 54.9161C130.379 54.5343 131.07 56.5738 130.138 56.9278C129.22 57.2765 128.53 55.2364 129.373 54.9161Z" fill="#17282F"/>
<path d="M123.534 55.6495C123.794 55.4959 124.009 55.3103 124.25 55.1318C124.523 54.9297 124.762 54.7973 124.881 54.464C124.945 54.2855 124.822 54.0344 124.654 53.9563C124.263 53.7731 123.868 53.9374 123.53 54.1667C123.162 54.4161 122.943 54.7016 122.816 55.1259C122.693 55.5372 123.19 55.8528 123.534 55.6495Z" fill="#17282F"/>
<path d="M129.868 53.6383C129.569 53.6761 129.285 53.6613 128.985 53.6678C128.646 53.6755 128.376 53.7163 128.078 53.526C127.917 53.4243 127.861 53.1513 127.945 52.9858C128.143 52.6023 128.556 52.49 128.964 52.464C129.406 52.4356 129.754 52.5272 130.115 52.7849C130.464 53.0343 130.264 53.5886 129.868 53.6383Z" fill="#17282F"/>
<path d="M126.456 62.8358C126.653 62.9404 126.867 63.1018 127.105 63.0521C127.333 63.0054 127.564 62.8276 127.745 62.6881L127.782 62.7129C127.689 63.0078 127.385 63.2643 127.073 63.2998C126.768 63.3352 126.551 63.1272 126.402 62.8831L126.456 62.8358Z" fill="#17282F"/>
<path d="M126.553 60.7229C127.075 61.1721 127.691 61.3204 128.293 61.2625C128.563 61.2382 128.833 61.1679 129.088 61.0669L129.232 61.0054L129.366 60.9422C129.437 60.9097 129.46 60.8358 129.452 60.7613L129.45 60.7566L129.425 60.6928L129.424 60.688L129.406 60.6325C129.274 60.1361 129.005 59.4009 129.005 59.4009C129.212 59.4375 130.251 59.5794 130.16 59.3264C129.404 57.2337 128.562 54.9058 127.368 52.9834C127.331 52.9178 127.229 52.9656 127.255 53.0342C127.903 55.0743 128.905 56.9867 129.588 59.0256C129.262 59.0014 128.724 58.9363 128.468 59.0173C128.404 59.0581 129.014 60.4286 129.055 60.6561L129.057 60.6815C128.261 61.0314 127.563 60.9658 126.596 60.6473C126.537 60.6254 126.5 60.6833 126.553 60.7229Z" fill="#17282F"/>
<path d="M128.741 60.9028C128.741 60.9028 128.479 61.6214 127.944 62.0109C127.747 62.1551 127.518 62.2561 127.251 62.2632C126.7 62.2804 126.549 61.8152 126.524 61.3862C126.502 61.0334 126.571 60.7042 126.571 60.7042C126.571 60.7042 127.524 61.1823 128.741 60.9028Z" fill="#17282F"/>
<path d="M127.94 62.0109C127.742 62.1551 127.514 62.2561 127.246 62.2632C126.696 62.2804 126.544 61.8152 126.52 61.3862C127.084 61.2804 127.736 61.492 127.94 62.0109Z" fill="#F574B6"/>
<path d="M116.401 61.7976C118.923 61.099 119.169 57.7103 117.757 55.5527C117.757 55.5527 124.608 54.1053 123.063 48.7404C123.063 48.7404 125.626 50.6546 128.622 49.6824L129.568 51.271C130.171 50.8396 130.21 48.6789 128.038 47.7635C128.038 47.7635 126.998 45.185 124.512 44.2968C122.026 43.4079 120.472 45.12 120.472 45.12C120.472 45.12 118.484 44.3819 116.182 45.5437C113.881 46.7056 113.667 49.2551 113.667 49.2551C113.667 49.2551 110.644 51.0216 110.907 53.5197C111.17 56.0178 112.906 57.14 112.906 57.14C112.906 57.14 112.413 58.3327 113.521 60.1517C114.234 61.3213 115.644 62.0068 116.401 61.7976Z" fill="#17282F"/>
<path d="M122.749 48.3236C122.945 48.7367 123.114 49.1611 123.218 49.6013C123.344 50.0351 123.403 50.4825 123.42 50.9263C123.437 51.8146 123.159 52.694 122.572 53.3482C122.026 54.0509 121.179 54.4309 120.374 54.8073C119.945 54.9444 119.523 55.1135 119.084 55.2275C118.643 55.3351 118.198 55.4326 117.754 55.5508C118.208 55.5047 118.662 55.4379 119.119 55.3812C119.571 55.2972 120.01 55.1525 120.459 55.0396C121.311 54.6986 122.198 54.3026 122.816 53.5568C123.435 52.8311 123.741 51.8524 123.666 50.9151C123.588 49.9796 123.255 49.086 122.749 48.3236Z" fill="#17282F"/>
<path d="M113.667 49.2547C112.847 49.5526 112.084 50.02 111.44 50.6317C110.795 51.2381 110.313 52.0654 110.213 52.9797C110.181 53.4377 110.229 53.8886 110.338 54.32C110.434 54.7568 110.608 55.1799 110.846 55.5582C111.317 56.32 112.062 56.9092 112.906 57.1396C112.113 56.7845 111.459 56.1722 111.06 55.4329C110.667 54.7012 110.456 53.8272 110.533 53.0104C110.567 52.5991 110.692 52.199 110.878 51.8255C111.079 51.4591 111.324 51.1145 111.615 50.8037C112.196 50.1832 112.905 49.6714 113.667 49.2547Z" fill="#17282F"/>
<path d="M120.473 45.1203C121.02 44.677 121.623 44.3112 122.264 44.0683C122.905 43.8272 123.592 43.7226 124.256 43.8242C124.92 43.9247 125.54 44.2356 126.083 44.6534C126.624 45.0777 127.097 45.5984 127.501 46.1758C127.211 45.5292 126.774 44.9489 126.242 44.4631C125.709 43.9785 125.036 43.6239 124.304 43.5069C123.574 43.4017 122.82 43.5311 122.169 43.8408C121.515 44.1446 120.929 44.5795 120.473 45.1203Z" fill="#17282F"/>
<path d="M127.209 50.1666C126.386 50.159 125.588 50.0644 124.845 49.8002C124.47 49.6791 124.126 49.4888 123.796 49.2725C123.458 49.0609 123.188 48.7654 122.895 48.4729C123.077 48.8399 123.316 49.1986 123.644 49.4675C123.961 49.7482 124.337 49.9657 124.738 50.1028C125.139 50.2393 125.558 50.3203 125.977 50.3262C126.394 50.3339 126.814 50.2955 127.209 50.1666Z" fill="#17282F"/>
<path d="M118.385 60.1242C118.385 60.1242 115.644 57.4294 114.381 58.463C113.119 59.4966 115.583 63.6837 117.347 63.9917C119.111 64.299 119.428 62.6714 119.428 62.6714L118.385 60.1242Z" fill="#F57A76"/>
<path d="M115.106 59.6454L115.105 59.6915C116.349 59.945 117.158 60.9048 117.791 61.9378C117.368 61.5738 116.856 61.4261 116.358 61.942L116.401 61.9981C116.856 61.8084 117.214 61.8273 117.604 62.1471C117.881 62.374 118.099 62.6854 118.319 62.965C118.393 63.0583 118.569 62.9685 118.507 62.8562L118.493 62.8314C118.248 61.351 116.718 59.4994 115.106 59.6454Z" fill="#17282F"/>
<path d="M115.133 70.131L115.619 66.4456L125.798 72.3052L126.096 75.9238L115.133 70.131Z" fill="#E7E8E5"/>
<path d="M85.7785 119.519C85.8549 119.65 129.395 127.618 129.874 127.258C130.543 126.748 132.063 84.0177 125.342 74.3196C123.688 71.9314 117.277 68.5634 114.915 69.6727C108.788 72.549 104.361 80.1343 101.571 84.517C99.5052 87.7645 96.6809 93.435 93.9996 99.2887C89.569 108.93 85.5071 119.045 85.7785 119.519Z" fill="#33535F"/>
<path d="M119.705 81.9279C122.934 92.9214 128.972 109.894 135.933 113.127C139.344 114.711 157.62 110.693 163.141 109.371C165.484 108.811 158.277 92.7736 155.701 92.7559C153.169 92.7382 142.188 95.9555 140.91 95.1334C139.29 94.0921 133.712 85.0967 127.441 77.2822C120.072 68.0982 117.082 72.9969 119.705 81.9279Z" fill="#F57A76"/>
<path d="M177.081 87.2925C177.729 88.4922 175.955 89.7545 175.955 89.7545C175.955 89.7545 177.418 90.1966 178.129 91.482C178.944 92.9541 176.992 94.8766 176.992 94.8766C176.992 94.8766 178.381 95.6313 178.996 97.0644C179.633 98.5519 177.941 100.773 177.941 100.773C177.941 100.773 178.849 102.186 178.491 103.806C177.879 106.576 173.798 108.025 171.213 108.973C168.628 109.922 160.407 110.19 158.845 110.399L152.617 93.8595C152.617 93.8595 163 86.3097 166.198 85.6265C168.892 85.0509 175.698 84.7312 177.081 87.2925Z" fill="#F57A76"/>
<path d="M175.897 89.7066C172.886 89.631 169.863 90.2763 166.953 90.9311C166.888 90.9459 166.911 91.047 166.976 91.0316C169.863 90.3467 173.003 90.4176 175.911 89.8491C175.992 89.8331 175.979 89.7084 175.897 89.7066Z" fill="#17282F"/>
<path d="M176.866 94.6828C176.185 94.6858 175.506 94.9145 174.855 95.0953C174.154 95.2903 173.456 95.4978 172.762 95.7158C171.372 96.152 169.992 96.62 168.626 97.1283C168.566 97.1507 168.585 97.2488 168.65 97.2287C170.036 96.7961 171.429 96.3848 172.832 96.0113C173.534 95.824 174.238 95.6431 174.943 95.4664C175.598 95.3027 176.304 95.1839 176.911 94.8766C177.001 94.8311 176.969 94.6822 176.866 94.6828Z" fill="#17282F"/>
<path d="M177.885 100.791C177.293 100.77 176.648 101.072 176.094 101.259C175.465 101.471 174.835 101.68 174.203 101.884C172.941 102.294 171.677 102.703 170.401 103.069C170.337 103.088 170.36 103.188 170.425 103.17C171.723 102.805 173.027 102.458 174.322 102.081C174.958 101.897 175.594 101.708 176.228 101.517C176.767 101.354 177.459 101.211 177.908 100.854L177.885 100.791Z" fill="#17282F"/>
<path d="M151.605 92.7267L157.675 113.314C157.675 113.314 136.63 116.103 132.764 112.571C126.196 106.572 120.498 89.3096 118.801 80.2415C117.104 71.1735 121.508 69.2084 127.328 76.5887C133.149 83.9689 140.562 94.3277 141.018 94.6817C141.474 95.0357 151.605 92.7267 151.605 92.7267Z" fill="#33535F"/>
<path d="M150.365 103.594C149.949 102.158 149.5 100.732 149.05 99.3049C148.835 98.62 148.625 97.9327 148.387 97.2548C148.131 96.5255 147.927 95.7567 147.62 95.0481C147.599 94.9984 147.531 95.0167 147.54 95.0711C147.662 95.8323 147.905 96.5893 148.08 97.3417C148.242 98.0408 148.437 98.7328 148.623 99.4255C149.012 100.869 149.4 102.312 149.822 103.747C150.667 106.621 151.592 109.46 152.553 112.297C152.576 112.365 152.678 112.337 152.661 112.266C151.946 109.359 151.197 106.47 150.365 103.594Z" fill="#17282F"/>
<path d="M130.553 109.826C129.127 108.058 124.557 99.2402 121.685 89.7656C120.913 87.2178 120.157 84.6648 119.381 82.1182L119.338 82.1271C119.606 83.7074 119.947 85.2694 120.338 86.8195C120.293 86.7179 120.251 86.6144 120.204 86.5134C119.913 85.8946 119.601 85.2847 119.292 84.6748L119.227 84.7068C119.484 85.3545 119.735 86.0075 120.02 86.6446C120.2 87.0488 120.401 87.4412 120.597 87.8366C120.778 88.5097 120.953 89.1864 121.17 89.8501C127.07 107.846 130.29 109.543 130.447 109.861C130.48 109.926 130.598 109.882 130.553 109.826Z" fill="#17282F"/>
<path d="M163.367 43.1926C162.6 50.5338 156.023 55.8651 148.681 55.0974C145.715 54.7871 143.077 53.5277 141.035 51.6472L134.348 52.6288L137.693 46.8472C136.882 44.8721 136.54 42.6743 136.777 40.4114C137.544 33.0702 144.121 27.7383 151.463 28.5066C158.804 29.2743 164.136 35.8514 163.367 43.1926Z" fill="white"/>
<path d="M163.365 43.1932C163.771 39.1651 162.258 34.9821 159.306 32.2145C157.841 30.8304 156.066 29.7814 154.152 29.1733C152.233 28.5729 150.182 28.4298 148.206 28.7277C146.233 29.0309 144.321 29.7655 142.686 30.9084C141.055 32.0532 139.68 33.5507 138.687 35.2705C137.674 36.9867 137.149 38.9529 136.99 40.9268C136.865 42.9066 137.188 44.9106 137.931 46.7492L137.979 46.8692L137.916 46.9785L134.55 52.7477L134.311 52.3949L141.004 51.4576L141.096 51.4446L141.162 51.5066C142.932 53.1673 145.171 54.3268 147.563 54.8031C148.16 54.9237 148.767 54.9993 149.377 55.0236C149.985 55.088 150.595 55.0431 151.206 55.0212C152.416 54.8965 153.636 54.692 154.775 54.2352C155.919 53.8067 157.025 53.2447 158 52.4971C158.512 52.1567 158.946 51.7182 159.411 51.3187C159.822 50.8636 160.274 50.4428 160.627 49.9381C162.161 48.0121 163.069 45.6322 163.365 43.1932ZM163.365 43.1932C163.086 45.6334 162.193 48.0257 160.667 49.9689C160.316 50.4783 159.865 50.9038 159.455 51.3636C158.991 51.7684 158.558 52.2123 158.045 52.558C157.067 53.3115 155.968 53.9019 154.82 54.3534C153.678 54.8344 152.448 55.0637 151.222 55.2115C150.603 55.2446 149.984 55.3013 149.365 55.247C148.744 55.2328 148.126 55.1666 147.515 55.0543C145.069 54.6116 142.752 53.4663 140.902 51.7891L141.06 51.8381L134.379 52.8635L133.895 52.938L134.14 52.5107L137.466 46.7185L137.45 46.9472C135.831 43.1318 136.195 38.5883 138.274 35.0335C139.31 33.2535 140.755 31.7193 142.46 30.5757C144.165 29.428 146.142 28.7094 148.165 28.4351C150.19 28.1662 152.275 28.3506 154.209 28.9936C156.141 29.6443 157.913 30.7382 159.364 32.1542C162.316 34.9596 163.799 39.1686 163.365 43.1932Z" fill="#17282F"/>
<path d="M148.374 49.4248L142.664 43.6456L144.582 41.7509L147.917 45.1266L154.846 34.2643L157.12 35.714L148.374 49.4248Z" fill="#584FAB"/>
</svg>
