<svg width="70" height="70" viewBox="0 0 70 70" fill="none" xmlns="http://www.w3.org/2000/svg">
<g clip-path="url(#clip0_396_295)">
<path d="M38.666 65.2204C38.3264 65.2204 37.9989 65.0347 37.8335 64.7117L32.7338 54.7549C32.4986 54.2956 32.6801 53.7326 33.1395 53.4973C33.5988 53.2625 34.1618 53.4435 34.397 53.903L39.4968 63.8598C39.732 64.3191 39.5505 64.8822 39.0911 65.1174C38.9548 65.1872 38.8093 65.2204 38.666 65.2204Z" fill="#1B3D66"/>
<path d="M16.9944 65.2205C16.851 65.2205 16.7055 65.1874 16.5692 65.1176C16.1099 64.8822 15.9282 64.3193 16.1635 63.8599L21.2633 53.9032C21.4986 53.4437 22.0619 53.2623 22.5209 53.4974C22.9802 53.7327 23.1619 54.2958 22.9266 54.7551L17.8268 64.7118C17.6613 65.0349 17.334 65.2205 16.9944 65.2205Z" fill="#1B3D66"/>
<path d="M10.0195 53.1391V50.1484H45.6371V53.1391C45.6371 53.7964 45.1042 54.3293 44.4469 54.3293H11.2097C10.5524 54.3293 10.0195 53.7964 10.0195 53.1391Z" fill="#F2DF33"/>
<path d="M42.616 50.1484V53.1391C42.616 53.7964 42.0831 54.3293 41.4258 54.3293H44.447C45.1044 54.3293 45.6372 53.7964 45.6372 53.1391V50.1484H42.616Z" fill="#FCAB29"/>
<path d="M23.5781 8.18106V5.40996C23.5781 4.63129 24.2094 4 24.9881 4H30.6716C31.4503 4 32.0816 4.63129 32.0816 5.40996V8.18093H23.5781V8.18106Z" fill="#F2DF33"/>
<path d="M30.6696 4.00049H27.627C28.4056 4.00049 29.0369 4.63177 29.0369 5.41045V8.18142H32.0796V5.41045C32.0796 4.63165 31.4484 4.00049 30.6696 4.00049Z" fill="#FCAB29"/>
<path d="M53.015 7.24707H2.64314C1.18571 7.24707 0 8.43278 0 9.89021V48.4402C0 49.8976 1.18571 51.0833 2.64314 51.0833H53.015C54.4725 51.0833 55.6581 49.8976 55.6581 48.4402V9.89021C55.6583 8.43278 54.4726 7.24707 53.015 7.24707Z" fill="#E5E5E5"/>
<path d="M53.0144 7.24707H49.8867C51.3442 7.24707 52.5299 8.43278 52.5299 9.89021V48.4402C52.5299 49.8976 51.3442 51.0833 49.8867 51.0833H53.0144C54.4718 51.0833 55.6576 49.8976 55.6576 48.4402V9.89021C55.6576 8.43278 54.472 7.24707 53.0144 7.24707Z" fill="#D1D6DE"/>
<path d="M16.8592 27.5513C16.5338 27.5513 16.2178 27.3811 16.0457 27.0778C15.791 26.629 15.9484 26.0587 16.3973 25.804L21.1824 23.0887C21.6311 22.834 22.2016 22.9915 22.4562 23.4403C22.7109 23.8891 22.5535 24.4594 22.1047 24.7141L17.3195 27.4294C17.174 27.512 17.0156 27.5513 16.8592 27.5513Z" fill="#1B3D66"/>
<path d="M30.2208 27.5509C30.0646 27.5509 29.9062 27.5117 29.7606 27.429L24.9754 24.7137C24.5265 24.4589 24.3692 23.8887 24.6238 23.4398C24.8785 22.9908 25.4487 22.8335 25.8976 23.0882L30.6828 25.8035C31.1317 26.0583 31.289 26.6285 31.0344 27.0774C30.8623 27.3807 30.5462 27.5509 30.2208 27.5509Z" fill="#1B3D66"/>
<path d="M33.3828 26.8563C33.1946 26.8563 33.0046 26.7996 32.8399 26.6818C32.4203 26.3814 32.3235 25.7977 32.6239 25.3781L38.662 16.9401C38.9624 16.5203 39.546 16.4236 39.9657 16.724C40.3853 17.0243 40.4822 17.608 40.1818 18.0276L34.1436 26.4656C33.9611 26.7205 33.6741 26.8563 33.3828 26.8563Z" fill="#1B3D66"/>
<path d="M13.0684 36.8938V44.4031C13.0684 44.6096 13.2357 44.7769 13.4421 44.7769H16.4855C16.6919 44.7769 16.8592 44.6096 16.8592 44.4031V36.8938C16.8592 36.6873 16.6919 36.52 16.4855 36.52H13.4421C13.2357 36.52 13.0684 36.6873 13.0684 36.8938Z" fill="#48CFB7"/>
<path d="M21.6445 32.1189V44.4033C21.6445 44.6098 21.8118 44.7771 22.0183 44.7771H25.0616C25.268 44.7771 25.4354 44.6098 25.4354 44.4033V32.1189C25.4354 31.9124 25.268 31.7451 25.0616 31.7451H22.0183C21.8118 31.7451 21.6445 31.9126 21.6445 32.1189Z" fill="#48CFB7"/>
<path d="M30.2207 36.8938V44.4031C30.2207 44.6096 30.388 44.7769 30.5945 44.7769H33.6377C33.8442 44.7769 34.0115 44.6096 34.0115 44.4031V36.8938C34.0115 36.6873 33.8442 36.52 33.6377 36.52H30.5945C30.388 36.52 30.2207 36.6873 30.2207 36.8938Z" fill="#48CFB7"/>
<path d="M38.7969 28.3953V44.4033C38.7969 44.6098 38.9642 44.7771 39.1706 44.7771H42.2139C42.4204 44.7771 42.5877 44.6098 42.5877 44.4033V28.3953C42.5877 28.1888 42.4204 28.0215 42.2139 28.0215H39.1706C38.9642 28.0215 38.7969 28.1888 38.7969 28.3953Z" fill="#48CFB7"/>
<path d="M51.2363 41.3271L58.6097 54.0982C59.3759 55.4255 61.073 55.8802 62.4001 55.1139C63.7274 54.3477 64.182 52.6505 63.4158 51.3234L56.0426 38.5522L51.2363 41.3271Z" fill="#ED5575"/>
<path d="M56.0426 38.5522L51.2363 41.3271L54.1106 46.3055C54.9735 46.0014 55.821 45.6146 56.642 45.1406C57.4632 44.6665 58.2218 44.1259 58.9167 43.5306L56.0426 38.5522Z" fill="#CC3A60"/>
<path d="M49.1333 44.0916C55.7361 44.0916 61.0887 38.7389 61.0887 32.1361C61.0887 25.5333 55.7361 20.1807 49.1333 20.1807C42.5304 20.1807 37.1777 25.5333 37.1777 32.1361C37.1777 38.7389 42.5304 44.0916 49.1333 44.0916Z" fill="#F2DF33"/>
<path d="M49.1341 40.5495C53.7807 40.5495 57.5476 36.7827 57.5476 32.1361C57.5476 27.4894 53.7807 23.7227 49.1341 23.7227C44.4876 23.7227 40.7207 27.4894 40.7207 32.1361C40.7207 36.7827 44.4876 40.5495 49.1341 40.5495Z" fill="#5C9CEE"/>
<path d="M23.5424 19.709C21.8249 19.709 20.4277 21.1063 20.4277 22.8237C20.4277 24.5411 21.8249 25.9385 23.5424 25.9385C25.2599 25.9385 26.6571 24.5411 26.6571 22.8237C26.6571 21.1063 25.2599 19.709 23.5424 19.709Z" fill="#F2DF33"/>
<path d="M14.9682 24.5786C13.2508 24.5786 11.8535 25.976 11.8535 27.6934C11.8535 29.4109 13.2508 30.8083 14.9682 30.8083C16.6856 30.8083 18.0829 29.4109 18.0829 27.6934C18.0829 25.976 16.6856 24.5786 14.9682 24.5786Z" fill="#5C9CEE"/>
<path d="M32.1186 24.5786C30.4012 24.5786 29.0039 25.976 29.0039 27.6934C29.0039 29.4109 30.4012 30.8083 32.1186 30.8083C33.8362 30.8083 35.2335 29.4109 35.2335 27.6934C35.2335 25.976 33.836 24.5786 32.1186 24.5786Z" fill="#ED5575"/>
<path d="M40.6948 12.5977C38.9774 12.5977 37.5801 13.9951 37.5801 15.7125C37.5801 17.4299 38.9774 18.8272 40.6948 18.8272C42.4122 18.8272 43.8095 17.4299 43.8095 15.7125C43.8095 13.9951 42.4122 12.5977 40.6948 12.5977Z" fill="#9FD479"/>
</g>
<defs>
<clipPath id="clip0_396_295">
<rect width="70" height="70" fill="white"/>
</clipPath>
</defs>
</svg>
