<svg width="70" height="70" viewBox="0 0 70 70" fill="none" xmlns="http://www.w3.org/2000/svg">
<path d="M27.9414 50.4233C27.4559 50.4233 27.0625 50.8167 27.0625 51.3022V58.0329C27.0625 58.5184 27.4559 58.9118 27.9414 58.9118C28.4269 58.9118 28.8203 58.5184 28.8203 58.0329V51.3022C28.8203 50.8167 28.4269 50.4233 27.9414 50.4233Z" fill="#45D987"/>
<path d="M20.8281 50.4233C20.3426 50.4233 19.9492 50.8167 19.9492 51.3022V58.0329C19.9492 58.5184 20.3426 58.9118 20.8281 58.9118C21.3136 58.9118 21.707 58.5184 21.707 58.0329V51.3022C21.707 50.8167 21.3136 50.4233 20.8281 50.4233Z" fill="#45D987"/>
<path d="M24.3847 50.8457C23.8992 50.8457 23.5059 51.2391 23.5059 51.7246V62.2901C23.5059 62.7756 23.8992 63.169 24.3847 63.169C24.8703 63.169 25.2636 62.7756 25.2636 62.2901V51.7246C25.2636 51.2392 24.8701 50.8457 24.3847 50.8457Z" fill="#45D987"/>
<path d="M47.5156 26.5825H54.2463C54.7318 26.5825 55.1252 26.1891 55.1252 25.7036C55.1252 25.2181 54.7318 24.8247 54.2463 24.8247H47.5156C47.0301 24.8247 46.6367 25.2181 46.6367 25.7036C46.6367 26.1891 47.0301 26.5825 47.5156 26.5825Z" fill="#45D987"/>
<path d="M54.2463 31.9385H47.5156C47.0301 31.9385 46.6367 32.3319 46.6367 32.8173C46.6367 33.3028 47.0301 33.6963 47.5156 33.6963H54.2463C54.7318 33.6963 55.1252 33.3028 55.1252 32.8173C55.1252 32.3319 54.7318 31.9385 54.2463 31.9385Z" fill="#45D987"/>
<path d="M58.5637 28.3813H47.7871C47.3016 28.3813 46.9082 28.7747 46.9082 29.2603C46.9082 29.7458 47.3016 30.1391 47.7871 30.1391H58.5637C59.0492 30.1391 59.4426 29.7458 59.4426 29.2603C59.4426 28.7747 59.0492 28.3813 58.5637 28.3813Z" fill="#45D987"/>
<path d="M55.664 64.7868L43.5422 52.665C43.2594 52.3822 43.2594 51.9235 43.5422 51.6407L47.6398 47.5432C47.9227 47.2603 48.3813 47.2603 48.6641 47.5432L60.7858 59.6649C61.0687 59.9478 61.0687 60.4065 60.7858 60.6892L56.6883 64.7868C56.4054 65.0696 55.9469 65.0696 55.664 64.7868Z" fill="#F78E36"/>
<path d="M47.6428 47.5432L45.082 50.1041C45.3649 49.8212 45.8235 49.8212 46.1064 50.1041L58.228 62.2258C58.5109 62.5087 58.5109 62.9674 58.228 63.2501L60.7889 60.6892C61.0718 60.4063 61.0718 59.9478 60.7889 59.6649L48.6672 47.5432C48.3843 47.2603 47.9256 47.2603 47.6428 47.5432Z" fill="#F86F1B"/>
<path d="M38.7227 45.291L41.2832 42.7305L46.8642 48.3115L44.3037 50.872L38.7227 45.291Z" fill="#4380A0"/>
<path d="M45.7949 54.9267L50.916 49.8057L53.4765 52.3662L48.3554 57.4872L45.7949 54.9267Z" fill="#7BE492"/>
<path d="M48.3574 52.3666L50.9179 49.8062L53.4784 52.3666L50.9179 54.9271L48.3574 52.3666Z" fill="#45D987"/>
<path d="M24.5409 52.0818C37.5422 52.0818 48.0818 41.5422 48.0818 28.5409C48.0818 15.5396 37.5422 5 24.5409 5C11.5396 5 1 15.5396 1 28.5409C1 41.5422 11.5396 52.0818 24.5409 52.0818Z" fill="#43809F"/>
<path d="M24.5414 5C23.9321 5 23.3282 5.0232 22.7305 5.06867C34.8857 5.99338 44.4606 16.1489 44.4606 28.541C44.4606 40.9331 34.8857 51.0886 22.7305 52.0133C23.3282 52.0588 23.932 52.082 24.5414 52.082C37.5427 52.082 48.0822 41.5424 48.0822 28.5411C48.0822 15.5398 37.5427 5 24.5414 5Z" fill="#3A7190"/>
<path d="M24.5404 48.4601C35.5415 48.4601 44.4596 39.5419 44.4596 28.5408C44.4596 17.5397 35.5415 8.62158 24.5404 8.62158C13.5392 8.62158 4.62109 17.5397 4.62109 28.5408C4.62109 39.5419 13.5392 48.4601 24.5404 48.4601Z" fill="#F3F3F3"/>
<path d="M24.5414 8.62158C23.9308 8.62158 23.3272 8.65076 22.7305 8.70478C32.8685 9.62282 40.8389 18.1678 40.8389 28.5409C40.8389 38.9139 32.8685 47.4588 22.7305 48.3769C23.3272 48.4309 23.9308 48.4601 24.5414 48.4601C35.5248 48.4601 44.4606 39.5243 44.4606 28.5409C44.4606 17.5574 35.525 8.62158 24.5414 8.62158Z" fill="#E4E4E4"/>
<path d="M21.2219 28.963H13.9785V18.3394C13.9785 18.0727 14.1948 17.8564 14.4614 17.8564H20.739C21.0057 17.8564 21.2219 18.0727 21.2219 18.3394V28.963Z" fill="#29CEF6"/>
<path d="M17.5977 17.8564V28.963H21.2193V18.3394C21.2193 18.0726 21.0031 17.8564 20.7364 17.8564H17.5977Z" fill="#22B5ED"/>
<path d="M35.7082 28.9634H28.4648V22.9273C28.4648 22.6606 28.6811 22.4443 28.9478 22.4443H35.2253C35.492 22.4443 35.7082 22.6606 35.7082 22.9273V28.9634Z" fill="#7BE492"/>
<path d="M32.0859 22.4443V28.9634H35.7076V22.9273C35.7076 22.6606 35.4914 22.4443 35.2247 22.4443H32.0859Z" fill="#45D987"/>
<path d="M28.4641 28.9635H21.2207V13.7525C21.2207 13.4857 21.4369 13.2695 21.7036 13.2695H27.9811C28.2479 13.2695 28.4641 13.4857 28.4641 13.7525V28.9635Z" fill="#F78E36"/>
<path d="M24.8418 13.2695V28.9635H28.4634V13.7525C28.4634 13.4857 28.2472 13.2695 27.9805 13.2695H24.8418Z" fill="#F86F1B"/>
<path d="M37.824 28.0845H11.8593C11.3738 28.0845 10.9805 28.4778 10.9805 28.9634C10.9805 29.4489 11.3738 29.8423 11.8593 29.8423H37.824C38.3095 29.8423 38.7029 29.4489 38.7029 28.9634C38.7029 28.4778 38.3095 28.0845 37.824 28.0845Z" fill="#43809F"/>
<path d="M34.9845 37.5677H30.7038L28.7608 32.6007C28.6281 32.2613 28.297 32.0391 27.9346 32.042C27.5699 32.0453 27.245 32.2735 27.1183 32.6154L24.4465 39.8199L22.5727 34.5088C22.4579 34.183 22.1628 33.9547 21.8185 33.9254C21.4738 33.895 21.1449 34.0709 20.9764 34.3726L19.1926 37.5676H14.9257C14.4403 37.5676 14.0469 37.9609 14.0469 38.4464C14.0469 38.932 14.4403 39.3253 14.9257 39.3253H19.7084C20.027 39.3253 20.3206 39.1529 20.4759 38.8749L21.5623 36.9288L23.597 42.6955C23.72 43.0446 24.0485 43.279 24.4188 43.282H24.4259C24.793 43.282 25.122 43.0535 25.2498 42.7086L27.9641 35.3894L29.2851 38.7666C29.4169 39.1035 29.7417 39.3253 30.1035 39.3253H34.9841C35.4696 39.3253 35.863 38.932 35.863 38.4464C35.863 37.9609 35.47 37.5677 34.9845 37.5677Z" fill="#29CEF6"/>
</svg>
