<svg width="70" height="70" viewBox="0 0 70 70" fill="none" xmlns="http://www.w3.org/2000/svg">
<path d="M48.6484 66.3042H18.2878C17.3228 66.3042 16.5332 65.5785 16.5332 64.6912C16.5332 63.8042 17.3228 63.0785 18.2878 63.0785H48.6484C49.6134 63.0785 50.4029 63.8042 50.4029 64.6912C50.4029 65.5785 49.6134 66.3042 48.6484 66.3042Z" fill="#7C30B7"/>
<path d="M43.9494 63.0781H22.9824L27.0047 50.9818H39.9275L43.9494 63.0781Z" fill="#EDE7F1"/>
<path d="M41.5299 55.0142L25.8047 53.8945L26.8177 50.9821H40.127L41.5299 55.0142Z" fill="#EDE7F1"/>
<path d="M43.9494 63.0781H22.9824L22.988 63.0598L23.2694 62.0876L43.366 61.0621L43.9441 63.0598L43.9494 63.0781Z" fill="#EDE7F1"/>
<path d="M56.1423 47.2173C56.1423 43.1549 59.4645 39.8614 63.5623 39.8614C64.7772 39.8614 65.9207 40.1566 66.933 40.6697V11.0467C66.933 8.83839 65.1108 7.03196 62.8833 7.03196H4.04972C1.82219 7.03196 0 8.83839 0 11.0467V46.9672C0 49.1755 1.82219 50.9819 4.04972 50.9819H57.1965C56.5312 49.8797 56.1423 48.5951 56.1423 47.2173Z" fill="#EDE7F1"/>
<path d="M15.0988 36.2674C14.9813 37.5051 13.8785 38.4137 12.635 38.2969C11.3916 38.18 10.4788 37.0822 10.5958 35.8445C10.7132 34.6067 11.8165 33.6981 13.0599 33.815C14.3034 33.9315 15.2162 35.0297 15.0988 36.2674ZM55.1679 27.5957C53.4338 29.2519 51.0811 30.2717 48.4881 30.2717C45.8952 30.2717 43.5428 29.2519 41.8087 27.5957H38.0259C38.6146 28.5823 38.9593 29.7307 38.9593 30.9613C38.9593 34.609 35.9886 37.5656 32.3244 37.5656C28.6601 37.5656 25.6898 34.609 25.6898 30.9613C25.6898 29.7307 26.0341 28.5823 26.6232 27.5957H2.41797V43.3525C2.41797 44.6655 3.49725 45.7402 4.81671 45.7402H56.2297C56.9738 42.4621 59.9118 40.012 63.4301 40.012C63.7987 40.012 64.1582 40.0475 64.5124 40.0997V27.5957H55.1679Z" fill="#7C30B7"/>
<path d="M8.06445 14.6104L32.0442 31.2246L32.2571 30.904L8.27736 14.2898" fill="#7C30B7"/>
<path d="M32.3835 30.927L48.5018 20.6659L63.1464 46.8169L32.3038 30.5636L12.7979 35.6621L8.43979 14.6931L8.06445 14.77L12.5045 36.1326L32.2567 30.97L64.1108 47.7563L48.6382 20.1269L32.177 30.6062L32.3835 30.9274" fill="#7C30B7"/>
<path d="M8.46875 15.0706L48.3336 20.7412L48.3866 20.3637L8.52177 14.693" fill="#7C30B7"/>
<path d="M12.9043 36.0424L63.6254 47.7563L63.7089 47.374L12.9878 35.66" fill="#7C30B7"/>
<path d="M37.4756 31.3143C37.2036 34.196 34.6469 36.3116 31.7649 36.04C28.8828 35.7679 26.7671 33.2113 27.0392 30.3292C27.3112 27.4472 29.8679 25.3315 32.7495 25.6036C35.632 25.8752 37.7473 28.4323 37.4756 31.3143Z" fill="#7C30B7"/>
<path d="M11.679 15.1787C11.5115 16.8413 9.9385 18.0621 8.16508 17.9054C6.39126 17.7484 5.08951 16.2736 5.25664 14.6107C5.42416 12.9481 6.99758 11.7273 8.771 11.8844C10.5444 12.0414 11.8466 13.5162 11.679 15.1787Z" fill="#FEE455"/>
<path d="M14.5075 36.2147C14.424 37.1018 13.637 37.7529 12.7502 37.669C11.8634 37.5854 11.2127 36.7989 11.2963 35.9117C11.3799 35.0253 12.1664 34.3742 13.0536 34.4578C13.9404 34.5414 14.5911 35.3283 14.5075 36.2147Z" fill="#FEE455"/>
<path d="M68.9247 48.0662C68.6426 51.0589 65.9874 53.2561 62.9946 52.9736C60.0017 52.6911 57.8045 50.0364 58.087 47.0436C58.3691 44.0508 61.0246 41.8533 64.0171 42.1358C67.01 42.4183 69.2072 45.0734 68.9247 48.0662Z" fill="#FEE455"/>
<path d="M61.285 19.9725C61.2537 20.1942 60.9587 20.357 60.6262 20.3361C60.2937 20.3152 60.0495 20.1188 60.0808 19.8969C60.1122 19.6752 60.4075 19.5124 60.74 19.5333C61.0721 19.5542 61.3164 19.7506 61.285 19.9725Z" fill="#7C30B7"/>
<path d="M52.8162 4.87063C52.7849 5.20302 52.4898 5.44758 52.1572 5.41624C51.8247 5.3849 51.5807 5.08965 51.6121 4.75764C51.6435 4.42485 51.9385 4.18068 52.2711 4.21202C52.6037 4.24337 52.848 4.53823 52.8162 4.87063Z" fill="#7C30B7"/>
<path d="M22.1737 12.9351C22.1424 13.2675 21.8474 13.512 21.5149 13.4807C21.1824 13.4493 20.9382 13.1545 20.9695 12.8217C21.0009 12.4893 21.2962 12.2451 21.6287 12.2765C21.9612 12.3078 22.2051 12.6027 22.1737 12.9351Z" fill="#7C30B7"/>
<path d="M36.283 13.5975C36.2098 14.2625 35.5214 14.7507 34.7452 14.6879C33.969 14.6251 33.3996 14.0351 33.4732 13.37C33.5464 12.7049 34.2348 12.2168 35.0101 12.2795C35.7863 12.3419 36.3558 12.9324 36.283 13.5975Z" fill="#7C30B7"/>
<path d="M34.6718 4.10249C34.6192 4.65683 34.1276 5.06383 33.5733 5.0116C33.019 4.959 32.6125 4.46733 32.6647 3.91336C32.7169 3.35902 33.2085 2.95204 33.7628 3.00463C34.3167 3.05686 34.7236 3.54853 34.6718 4.10249Z" fill="#7C30B7"/>
</svg>
