<svg width="70" height="70" viewBox="0 0 70 70" fill="none" xmlns="http://www.w3.org/2000/svg">
<path d="M32.2212 8.88539L32.2034 8.20469C32.6583 8.19312 33.1173 8.19107 33.5728 8.20129L33.5569 8.88198C33.1122 8.87109 32.6639 8.87382 32.2212 8.88539ZM36.2206 9.0719C35.7811 9.01813 35.3381 8.97524 34.8919 8.94393L34.9398 8.2646C35.3977 8.29727 35.852 8.34083 36.303 8.39597L36.2206 9.0719ZM29.5591 9.09095L29.4732 8.41571C29.9238 8.35853 30.3783 8.31156 30.8354 8.27684L30.8872 8.95618C30.4416 8.98953 29.9983 9.03514 29.5591 9.09095ZM38.8522 9.52389C38.4198 9.42587 37.983 9.33941 37.5426 9.26454L37.6575 8.59269C38.1092 8.67097 38.5573 8.76014 39.0011 8.85884L38.8522 9.52389ZM26.9307 9.55792L26.7778 8.89491C27.221 8.79213 27.6686 8.70092 28.1198 8.6206L28.2389 9.29108C27.7988 9.36937 27.3627 9.45854 26.9307 9.55792ZM41.4247 10.2373C41.0036 10.0977 40.5779 9.96769 40.1474 9.84789L40.3295 9.19238C40.7706 9.3149 41.2078 9.44765 41.6393 9.59127L41.4247 10.2373ZM24.3623 10.2883L24.1435 9.64301C24.5748 9.49734 25.0109 9.36119 25.4512 9.23663L25.6374 9.89146C25.2076 10.0126 24.7827 10.146 24.3623 10.2883ZM43.9178 11.2066C43.5118 11.0248 43.1002 10.8526 42.684 10.6906L42.9308 10.0562C43.3581 10.2223 43.7803 10.3986 44.197 10.5858L43.9178 11.2066ZM21.8826 11.2692L21.6007 10.6498C22.0145 10.4619 22.4338 10.2829 22.8585 10.1147L23.1089 10.7478C22.6952 10.9118 22.2862 11.0854 21.8826 11.2692ZM46.3013 12.4216C45.9152 12.1997 45.5231 11.9873 45.1253 11.7845L45.4345 11.178C45.8424 11.3863 46.2447 11.6041 46.6404 11.8314L46.3013 12.4216ZM19.5145 12.4938L19.172 11.905C19.5656 11.6763 19.9652 11.4571 20.3707 11.2467L20.6836 11.8519C20.2883 12.0561 19.8979 12.2705 19.5145 12.4938ZM48.5482 13.8674C48.1868 13.6074 47.8183 13.3576 47.4433 13.1166L47.8108 12.5435C48.1958 12.7906 48.5745 13.0472 48.9457 13.314L48.5482 13.8674ZM17.2778 13.9484L16.8789 13.3964C17.248 13.1295 17.6242 12.8709 18.0074 12.6217L18.3783 13.1922C18.005 13.4359 17.6381 13.6877 17.2778 13.9484ZM50.6414 15.5276C50.3072 15.2336 49.9648 14.9484 49.616 14.6713L50.0393 14.1383C50.397 14.4222 50.7476 14.7156 51.0906 15.0164L50.6414 15.5276ZM15.196 15.6175L14.7441 15.1083C15.0854 14.8047 15.4346 14.5114 15.7908 14.2255L16.2168 14.7557C15.8693 15.0348 15.529 15.3221 15.196 15.6175ZM52.5589 17.3873C52.2553 17.0613 51.9436 16.744 51.6236 16.4343L52.0974 15.9449C52.4255 16.2628 52.7447 16.5895 53.0565 16.9238L52.5589 17.3873ZM13.288 17.4867L12.7881 17.0238C13.0984 16.6889 13.4164 16.3615 13.7424 16.0416L14.2192 16.5283C13.9009 16.84 13.59 17.1593 13.288 17.4867ZM54.2824 19.4267C54.0122 19.0727 53.7331 18.7256 53.4459 18.3852L53.9659 17.9468C54.26 18.2947 54.5466 18.6514 54.8236 19.0135L54.2824 19.4267ZM11.574 19.5363L11.0311 19.1251C11.3065 18.761 11.591 18.4036 11.8838 18.053L12.4057 18.4907C12.1202 18.8311 11.8428 19.1796 11.574 19.5363ZM55.7943 21.6247C55.5601 21.2455 55.3171 20.8732 55.0652 20.5063L55.6261 20.121C55.8841 20.4967 56.1333 20.8786 56.3729 21.2673L55.7943 21.6247ZM10.0706 21.7458L9.48961 21.3905C9.72786 21.0005 9.9757 20.6165 10.2317 20.2388L10.7949 20.6213C10.5447 20.9896 10.303 21.3646 10.0706 21.7458ZM57.0788 23.9607C56.8841 23.5592 56.6799 23.1651 56.4661 22.7764L57.0624 22.4483C57.2816 22.8471 57.4913 23.2521 57.6907 23.6627L57.0788 23.9607ZM8.79509 24.095L8.18138 23.7996C8.37953 23.3877 8.58796 22.9806 8.80496 22.5783L9.40398 22.9029C9.19153 23.2943 8.98841 23.6919 8.79509 24.095ZM58.1243 26.4112C57.9705 25.9935 57.8064 25.5808 57.6322 25.1732L58.2584 24.9057C58.4374 25.3243 58.6056 25.7475 58.7628 26.1764L58.1243 26.4112ZM7.7605 26.5617L7.12023 26.3304C7.27605 25.8988 7.4422 25.4726 7.61905 25.0512L8.24652 25.3147C8.07451 25.7252 7.9123 26.1411 7.7605 26.5617ZM58.92 28.9599C58.8084 28.5269 58.6859 28.0989 58.5545 27.6761L59.2039 27.4724C59.3394 27.9074 59.4646 28.3459 59.579 28.7897L58.92 28.9599ZM6.97851 29.1186L6.31851 28.9524C6.43021 28.5078 6.5528 28.0688 6.68547 27.6325L7.3369 27.8306C7.20689 28.256 7.08776 28.6849 6.97851 29.1186ZM59.4564 31.5758C59.3884 31.1341 59.3101 30.6956 59.2209 30.2614L59.8873 30.1239C59.9792 30.5696 60.0595 31.0198 60.129 31.4723L59.4564 31.5758ZM6.45812 31.7364L5.78457 31.6385C5.85135 31.1844 5.92901 30.7344 6.01805 30.2885L6.68547 30.4213C6.59902 30.857 6.52326 31.2947 6.45812 31.7364ZM59.7294 34.2313C59.7063 33.7832 59.6715 33.3402 59.6259 32.8991L60.3032 32.8302C60.3495 33.2815 60.3856 33.737 60.4094 34.1951L59.7294 34.2313ZM6.20102 34.3946L5.5208 34.3626C5.54238 33.9037 5.57505 33.4485 5.61895 32.9965L6.29618 33.0619C6.25364 33.5027 6.22171 33.9481 6.20102 34.3946ZM60.4155 37.0432L59.7355 37.0104C59.7573 36.5675 59.7682 36.1229 59.7682 35.6748V35.5653H60.4489V35.6748C60.4489 36.133 60.438 36.5898 60.4155 37.0432ZM5.52638 37.0995C5.5033 36.6465 5.49132 36.1902 5.49023 35.7307L6.17093 35.7293C6.17202 36.1774 6.184 36.6225 6.2066 37.0655L5.52638 37.0995ZM60.146 39.7672L59.4728 39.6678C59.5381 39.2288 59.5933 38.7872 59.6368 38.3426L60.3141 38.4085C60.2692 38.8653 60.2134 39.3179 60.146 39.7672ZM5.80138 39.8239C5.73331 39.3737 5.67613 38.9212 5.62985 38.4644L6.30707 38.3971C6.352 38.8417 6.40788 39.2833 6.47405 39.7218L5.80138 39.8239ZM59.6069 42.4521L58.9466 42.2845C59.0555 41.8543 59.1542 41.4201 59.2427 40.9824L59.9098 41.1165C59.8199 41.565 59.7185 42.0096 59.6069 42.4521ZM6.34642 42.5071C6.23369 42.066 6.13159 41.6209 6.04065 41.1723L6.70726 41.037C6.79663 41.4746 6.89581 41.908 7.00588 42.3382L6.34642 42.5071ZM58.8002 45.0719L58.1604 44.8398C58.3129 44.4213 58.4544 43.9977 58.5858 43.5704L59.2366 43.7698C59.1018 44.2096 58.9561 44.643 58.8002 45.0719ZM7.1572 45.123C7.00084 44.6957 6.85456 44.2625 6.71896 43.8249L7.3691 43.6228C7.50149 44.0496 7.64376 44.4716 7.79665 44.889L7.1572 45.123ZM57.7343 47.6001L57.121 47.3055C57.3143 46.9037 57.4981 46.4966 57.6716 46.0856L58.2986 46.3496C58.1209 46.7718 57.9324 47.1882 57.7343 47.6001ZM8.22365 47.6376C8.02557 47.2284 7.83708 46.8133 7.65894 46.3932L8.28593 46.127C8.45924 46.5368 8.6433 46.9412 8.83655 47.3408L8.22365 47.6376ZM56.4205 50.0065L55.8399 49.6517C56.0727 49.2712 56.2959 48.8852 56.5097 48.4938L57.1073 48.8192C56.8882 49.2215 56.6588 49.617 56.4205 50.0065ZM9.53671 50.0363C9.2982 49.6483 9.06948 49.2535 8.85043 48.8533L9.44761 48.5265C9.66115 48.9173 9.88448 49.301 10.1169 49.6802L9.53671 50.0363ZM54.8746 52.2698L54.3321 51.8584C54.6017 51.5032 54.8624 51.141 55.1136 50.7728L55.6758 51.1575C55.4178 51.5346 55.151 51.9055 54.8746 52.2698ZM11.0826 52.2935C10.8069 51.93 10.5397 51.5604 10.2817 51.1833L10.8436 50.7986C11.0946 51.1663 11.3551 51.5277 11.6245 51.881L11.0826 52.2935ZM53.113 54.3669L52.6147 53.904C52.9176 53.5772 53.2124 53.243 53.499 52.9021L54.0197 53.3398C53.7263 53.6897 53.4241 54.0319 53.113 54.3669ZM12.845 54.3874C12.5347 54.0531 12.2318 53.7115 11.9377 53.3608L12.4586 52.9231C12.7455 53.2643 13.0404 53.5985 13.3435 53.9231L12.845 54.3874ZM51.1533 56.279L50.7027 55.7685C51.0369 55.4744 51.3629 55.1707 51.6815 54.8596L52.1573 55.3465C51.8306 55.6658 51.4957 55.9767 51.1533 56.279ZM14.807 56.2973C14.4643 55.9945 14.1295 55.6847 13.8025 55.3662L14.2771 54.8788C14.5962 55.1891 14.9229 55.4922 15.257 55.7868L14.807 56.2973ZM49.0151 57.9869L48.6175 57.4336C48.9789 57.174 49.3331 56.9052 49.6809 56.6276L50.1055 57.1591C49.7492 57.4436 49.3858 57.7202 49.0151 57.9869ZM16.9491 58.0039C16.5779 57.7377 16.2136 57.4615 15.8565 57.1769L16.2807 56.6446C16.629 56.9222 16.984 57.191 17.3458 57.451L16.9491 58.0039ZM46.7199 59.4735L46.3779 58.884C46.7632 58.6606 47.1426 58.4288 47.5154 58.1871L47.8856 58.7587C47.5034 59.0058 47.1142 59.2448 46.7199 59.4735ZM19.2515 59.4913C18.8548 59.2627 18.4648 59.0236 18.0813 58.7758L18.4514 58.2041C18.8251 58.4471 19.2053 58.6792 19.5919 58.9024L19.2515 59.4913ZM44.2888 60.7232L44.0077 60.1039C44.4135 59.9202 44.8137 59.7266 45.2083 59.524L45.5193 60.1284C45.1147 60.3366 44.7046 60.5355 44.2888 60.7232ZM21.6914 60.7415C21.2737 60.5525 20.8616 60.3544 20.4553 60.1467L20.7658 59.5402C21.162 59.7431 21.564 59.937 21.9711 60.121L21.6914 60.7415ZM41.7425 61.7238L41.5264 61.0792C41.9491 60.937 42.3674 60.7838 42.7803 60.6219L43.0297 61.255C42.6059 61.4222 42.1764 61.5789 41.7425 61.7238ZM24.2467 61.7429C23.8116 61.5973 23.3812 61.4406 22.956 61.2739L23.2047 60.6394C23.6191 60.803 24.0383 60.9548 24.4623 61.0963L24.2467 61.7429ZM39.1077 62.4681L38.9554 61.8044C39.3911 61.7049 39.823 61.5946 40.25 61.4741L40.4343 62.1296C39.9963 62.2529 39.5542 62.366 39.1077 62.4681ZM26.8836 62.4795C26.4366 62.3781 25.9939 62.2665 25.5557 62.1431L25.7397 61.4885C26.1667 61.6081 26.5983 61.7171 27.0338 61.8158L26.8836 62.4795ZM36.4112 62.9424L36.3262 62.267C36.7702 62.2112 37.2102 62.1447 37.6468 62.0684L37.7647 62.7382C37.3172 62.8177 36.866 62.8852 36.4112 62.9424ZM29.5811 62.9485C29.1262 62.8927 28.6747 62.8252 28.2269 62.747L28.3439 62.0771C28.7803 62.1527 29.2205 62.2189 29.6644 62.2731L29.5811 62.9485ZM33.681 63.1466L33.6632 62.4659C34.1107 62.4537 34.5555 62.4319 34.9978 62.3984L35.0483 63.0778C34.5954 63.1113 34.1394 63.1344 33.681 63.1466ZM32.3114 63.1479C31.8527 63.1371 31.3967 63.1147 30.9441 63.082L30.993 62.4027C31.4353 62.4353 31.8801 62.4564 32.3273 62.4673L32.3114 63.1479Z" fill="white"/>
<path d="M23.3477 51.6201H25.6115V41.1129H23.3477V51.6201Z" fill="#002254"/>
<path d="M27.2754 51.6201H29.5395V36.3167H27.2754V51.6201Z" fill="#002254"/>
<path d="M32.209 51.6201H34.4726V44.1516H32.209V51.6201Z" fill="#002254"/>
<path d="M36.6387 51.6201H38.9025V41.1129H36.6387V51.6201Z" fill="#002254"/>
<path d="M33.1925 43.3213L28.4893 32.6901L24.0603 40.3291L23.5625 39.9954L28.5585 31.378L33.2789 42.0484L36.7683 36.4457L37.2554 36.7969L33.1925 43.3213Z" fill="#FF3840"/>
<path d="M37.7882 37.6221L37.9419 35.113L35.8418 36.2232L37.7882 37.6221Z" fill="#FF3840"/>
<path d="M19.9941 54.0361H20.8003V31.3771H19.9941V54.0361Z" fill="white"/>
<path d="M42.4318 51.6196V52.4248H17.9785V51.6196H42.4318Z" fill="white"/>
<path d="M15.4423 50.0396L13.2832 47.4646L19.9315 41.8946L22.0892 44.4708L15.4423 50.0396Z" fill="#FFF385"/>
<path d="M27.2757 48.1255C26.7165 48.0778 26.1608 47.988 25.6139 47.8566V41.1129H23.35V47.0398C22.4935 46.6197 21.6826 46.0834 20.9428 45.4324L22.0915 44.4707L20.7993 42.9277V31.3776H19.9931V41.9652L19.9338 41.8944L18.7848 42.8567C16.0144 38.2899 16.9147 32.2604 21.1348 28.7256C23.1961 26.9986 25.7027 26.1559 28.196 26.1559C31.3391 26.1559 34.4608 27.496 36.6374 30.0936C39.2967 33.2679 39.8583 37.5023 38.4729 41.1129H36.6383V44.2285C36.2296 44.7151 35.7733 45.1727 35.2694 45.5952C35.0107 45.8116 34.7451 46.0145 34.473 46.2038V44.1516H32.2095V47.4112C31.3437 47.7503 30.4463 47.9736 29.5399 48.084V36.3167H27.2757V48.1255ZM28.4895 32.6898L33.1928 43.321L37.0658 37.1016L37.7901 37.6222L37.9438 35.1132L35.8437 36.2233L36.5781 36.7509L33.2791 42.0481L28.5587 31.3776L23.5627 39.9951L24.0605 40.3288L28.4895 32.6898Z" fill="#BEF4FB"/>
<path d="M25.6115 47.8569C24.834 47.669 24.0741 47.3967 23.3477 47.0401V41.1133H25.6115V47.8569Z" fill="#8091AA"/>
<path d="M28.2069 48.1641C27.8957 48.1641 27.5852 48.1511 27.2754 48.1253V36.3164H29.5395V48.0837C29.0965 48.1374 28.6517 48.1641 28.2069 48.1641Z" fill="#8091AA"/>
<path d="M32.209 47.4111V44.1515H34.4725V46.2037C33.7551 46.702 32.9949 47.1043 32.209 47.4111Z" fill="#8091AA"/>
<path d="M36.6387 44.228V41.1125H38.4734C38.0458 42.2266 37.4326 43.2817 36.6387 44.228Z" fill="#8091AA"/>
<path d="M33.1925 43.3213L28.4893 32.6901L24.0603 40.3291L23.5625 39.9954L28.5585 31.378L33.2789 42.0484L36.5779 36.7512L37.0656 37.1019L33.1925 43.3213Z" fill="#FF9CA0"/>
<path d="M37.7882 37.6221L37.0639 37.1014L36.5762 36.7507L35.8418 36.2232L37.9419 35.113L37.7882 37.6221Z" fill="#FF9CA0"/>
<path d="M20.8004 42.9277L19.9941 41.9652V31.3777H20.8004V42.9277Z" fill="white"/>
<path d="M20.9412 45.4326C20.5251 45.0673 20.1315 44.665 19.7646 44.2273C19.3977 43.7896 19.0706 43.3307 18.7832 42.8569L19.9322 41.8946L19.9914 41.9653L20.7977 42.9279L22.0899 44.4709L20.9412 45.4326Z" fill="#FFF9C2"/>
<path d="M22.0097 42.3471C19.1465 38.9279 19.5959 33.8336 23.0145 30.9685C26.4342 28.1048 31.5275 28.5547 34.3931 31.9734C37.2576 35.3931 36.8079 40.4866 33.388 43.3519C29.9686 46.217 24.8752 45.7655 22.0097 42.3471ZM36.6372 30.0937C32.7339 25.4352 25.7939 24.8217 21.1346 28.7257C16.4768 32.6275 15.8635 39.5685 19.766 44.2272C23.6699 48.8858 30.6088 49.4979 35.2692 45.5953C39.9251 41.6922 40.5393 34.7517 36.6372 30.0937Z" fill="#FFF385"/>
<path d="M5.09591 61.0433C4.45373 61.5804 3.49572 61.4953 2.95756 60.8534L0.451498 57.8618C-0.0856413 57.2191 -0.00218692 56.2622 0.640256 55.7237L13.1606 45.2335C13.8046 44.6959 14.7613 44.7802 15.2997 45.4233L17.8053 48.4137C18.3451 49.0569 18.26 50.0133 17.617 50.5517L5.09591 61.0433Z" fill="#002254"/>
<path d="M16.4865 49.168L22.0929 44.4711L21.0059 43.1725L16.5104 46.8632C16.5104 46.8632 16.4843 48.266 16.4865 49.168Z" fill="#FCD751"/>
<path d="M17.8054 48.4137L16.5084 46.8624L1.75586 59.4199L2.9577 60.8534C3.49586 61.4953 4.45388 61.5804 5.09605 61.0433L17.6172 50.5517C18.2601 50.0133 18.3452 49.0569 17.8054 48.4137Z" fill="#001133"/>
<path d="M35.2708 45.5953C39.9266 41.6922 40.5409 34.7517 36.6388 30.0937L34.3946 31.9734C37.2591 35.3931 36.8095 40.4866 33.3895 43.3519C29.9701 46.217 24.8768 45.7655 22.0112 42.3471L19.7676 44.2272C23.6715 48.8858 30.6104 49.4979 35.2708 45.5953Z" fill="#FCD751"/>
<path d="M56.722 44.3007C56.722 44.5451 56.5239 44.7432 56.2796 44.7432H53.9366C53.6922 44.7432 53.4941 44.5451 53.4941 44.3007V42.9074C53.4941 42.6623 53.6922 42.4642 53.9366 42.4642H56.2796C56.5239 42.4642 56.722 42.6623 56.722 42.9074V44.3007Z" fill="#FF3840"/>
<path d="M56.722 55.3186C56.722 55.0737 56.5239 54.8756 56.2796 54.8756H53.9366C53.6922 54.8756 53.4941 55.0737 53.4941 55.3186V56.7114C53.4941 56.9557 53.6922 57.1538 53.9366 57.1538H56.2796C56.5239 57.1538 56.722 56.9557 56.722 56.7114V55.3186Z" fill="#FF3840"/>
<path d="M52.3529 44.772C52.5258 44.9451 52.5258 45.2254 52.3529 45.399L50.6968 47.0545C50.5246 47.2273 50.2431 47.2273 50.0708 47.0545L49.0859 46.0696C48.9115 45.8965 48.9115 45.6162 49.0859 45.4431L50.7424 43.7871C50.9139 43.6143 51.1951 43.6143 51.3687 43.7871L52.3529 44.772Z" fill="#FF3840"/>
<path d="M60.1459 52.5627C59.973 52.3898 59.6926 52.3898 59.519 52.5627L57.8635 54.2198C57.6913 54.3926 57.6913 54.6728 57.8635 54.8459L58.8478 55.8308C59.0207 56.0037 59.3025 56.0037 59.4754 55.8308L61.1309 54.174C61.3051 54.0012 61.3051 53.7207 61.1309 53.547L60.1459 52.5627Z" fill="#FF3840"/>
<path d="M49.5997 48.1938C49.8444 48.1938 50.0416 48.3933 50.0416 48.6384V50.9799C50.0416 51.2243 49.8444 51.4224 49.5997 51.4224H48.2064C47.9618 51.4224 47.7637 51.2243 47.7637 50.9799V48.6384C47.7637 48.3933 47.9618 48.1938 48.2064 48.1938H49.5997Z" fill="#FF3840"/>
<path d="M60.6182 48.1938C60.3732 48.1938 60.1758 48.3933 60.1758 48.6384V50.9799C60.1758 51.2243 60.3732 51.4224 60.6182 51.4224H62.0116C62.256 51.4224 62.4541 51.2243 62.4541 50.9799V48.6384C62.4541 48.3933 62.256 48.1938 62.0116 48.1938H60.6182Z" fill="#FF3840"/>
<path d="M50.0703 52.5627C50.2431 52.3898 50.5246 52.3898 50.6968 52.5627L52.3529 54.2198C52.5252 54.3926 52.5252 54.6728 52.3529 54.8459L51.3687 55.8308C51.1951 56.0037 50.9139 56.0037 50.7424 55.8308L49.0859 54.174C48.9115 54.0012 48.9115 53.7207 49.0859 53.547L50.0703 52.5627Z" fill="#FF3840"/>
<path d="M57.864 44.772C57.6912 44.9451 57.6912 45.2254 57.864 45.399L59.5195 47.0545C59.6924 47.2273 59.9735 47.2273 60.1464 47.0545L61.1314 46.0696C61.3043 45.8965 61.3043 45.6162 61.1314 45.4431L59.4759 43.7871C59.3017 43.6143 59.0212 43.6143 58.8483 43.7871L57.864 44.772Z" fill="#FF3840"/>
<path d="M55.1087 53.8947C52.8522 53.8947 51.0224 52.0659 51.0224 49.8087C51.0224 47.552 52.8522 45.7224 55.1087 45.7224C57.3652 45.7224 59.1949 47.552 59.1949 49.8087C59.1949 52.0659 57.3652 53.8947 55.1087 53.8947ZM55.1087 44.6394C52.2538 44.6394 49.9395 46.9538 49.9395 49.8087C49.9395 52.6641 52.2538 54.9785 55.1087 54.9785C57.9628 54.9785 60.2772 52.6641 60.2772 49.8087C60.2772 46.9538 57.9628 44.6394 55.1087 44.6394Z" fill="#DB3737"/>
<path d="M47.0109 62.1263C45.7244 62.5484 44.3378 61.8472 43.9144 60.56C43.493 59.2735 44.1923 57.8877 45.4798 57.4649C46.767 57.0421 48.1521 57.7433 48.5757 59.0297C48.9976 60.3169 48.2978 61.7035 47.0109 62.1263ZM45.0836 56.2567C43.1287 56.8986 42.0646 59.0026 42.7065 60.9582C43.3481 62.9118 45.4527 63.9756 47.4079 63.3333C49.3614 62.6914 50.4256 60.5879 49.7842 58.633C49.142 56.6786 47.0388 55.6148 45.0836 56.2567Z" fill="#002254"/>
<path d="M45.9835 56.3372C46.0212 56.4569 45.9569 56.5856 45.8381 56.6258L44.6926 57.0014C44.5729 57.0402 44.4439 56.9756 44.4046 56.8557L44.1807 56.175C44.143 56.0546 44.2073 55.9267 44.3264 55.8865L45.4716 55.5108C45.5913 55.4712 45.7208 55.5366 45.7601 55.6565L45.9835 56.3372Z" fill="#002254"/>
<path d="M48.0844 62.7335C48.0445 62.6136 47.916 62.5484 47.7972 62.5886L46.652 62.9643C46.532 63.0037 46.4659 63.1323 46.5058 63.2523L46.7301 63.933C46.7682 64.0526 46.8976 64.1189 47.0173 64.0784L48.1622 63.7027C48.2825 63.6634 48.3468 63.5333 48.3085 63.4142L48.0844 62.7335Z" fill="#002254"/>
<path d="M43.6166 57.5358C43.7288 57.5916 43.774 57.7291 43.7168 57.8416L43.1731 58.9169C43.1167 59.0293 42.979 59.0756 42.8673 59.0184L42.2271 58.6951C42.114 58.6379 42.0696 58.501 42.126 58.388L42.6713 57.3132C42.7269 57.2002 42.8641 57.1553 42.9763 57.2111L43.6166 57.5358Z" fill="#002254"/>
<path d="M49.624 60.5721C49.5123 60.5165 49.3753 60.5612 49.3182 60.6729L48.7744 61.7485C48.7178 61.8615 48.763 61.9997 48.8755 62.0548L49.5158 62.3789C49.6271 62.4352 49.7641 62.3911 49.8221 62.2781L50.3643 61.2025C50.4229 61.0895 50.3766 60.9526 50.2649 60.8954L49.624 60.5721Z" fill="#002254"/>
<path d="M42.7876 60.0563C42.9072 60.0175 43.0362 60.0821 43.0747 60.202L43.451 61.3475C43.4904 61.4666 43.4252 61.5954 43.3056 61.6342L42.6249 61.858C42.5049 61.8977 42.3762 61.8322 42.3369 61.7139L41.9606 60.5682C41.9216 60.4482 41.9859 60.3198 42.1056 60.281L42.7876 60.0563Z" fill="#002254"/>
<path d="M49.1847 57.955C49.065 57.9952 48.9999 58.1231 49.0385 58.2422L49.4147 59.3892C49.4546 59.5075 49.5836 59.573 49.7019 59.5333L50.3835 59.3095C50.504 59.2707 50.5687 59.1414 50.5292 59.0223L50.1525 57.8765C50.114 57.7569 49.985 57.6928 49.8659 57.7317L49.1847 57.955Z" fill="#002254"/>
<path d="M43.9865 62.4254C44.0436 62.3124 44.1797 62.2674 44.2935 62.3246L45.3683 62.8678C45.4808 62.9255 45.5273 63.0624 45.4696 63.1741L45.1466 63.8139C45.0894 63.9269 44.9516 63.9718 44.84 63.916L43.7644 63.3709C43.6514 63.3135 43.6067 63.1781 43.6629 63.0651L43.9865 62.4254Z" fill="#002254"/>
<path d="M47.0242 56.4166C46.9681 56.528 47.0128 56.6663 47.125 56.7235L48.2014 57.2659C48.313 57.3234 48.4508 57.2789 48.5071 57.1659L48.8315 56.5254C48.8874 56.4132 48.8427 56.2763 48.7296 56.2191L47.6543 55.6753C47.5419 55.6182 47.4049 55.6636 47.3483 55.7766L47.0242 56.4166Z" fill="#002254"/>
<path d="M32.9859 8.10373C33.0946 7.33046 32.6221 7.62656 32.3709 8.13777C32.1183 8.64897 30.1825 11.9231 28.2047 8.45702C26.1654 5.02698 29.9712 4.95959 30.5383 4.99226C31.107 5.02494 31.5971 4.76015 30.8699 4.47425C29.9565 4.11416 28.0846 3.46341 26.0912 4.82821C23.9818 6.27061 24.9776 8.86544 25.6184 9.96341C26.2587 11.0627 28.024 13.2103 30.3195 12.0865C32.4905 11.0246 32.8463 9.07781 32.9859 8.10373Z" fill="#FFF385"/>
<path d="M7.36786 23.0262C6.64197 22.7404 7.13207 22.4756 7.70025 22.5088C8.26877 22.5423 12.0743 22.4729 10.0348 19.0428C8.05707 15.5767 6.12082 18.8529 5.86821 19.3634C5.61697 19.8746 5.14497 20.1687 5.2545 19.3968C5.39356 18.424 5.74991 16.4759 7.92045 15.414C10.2151 14.2915 11.9799 16.4371 12.6202 17.535C13.261 18.6344 14.2573 21.2292 12.1482 22.6724C10.1545 24.0378 8.28388 23.3863 7.36786 23.0262Z" fill="#FFF385"/>
<path d="M11.416 16.3361L12.243 17.7554L25.9992 9.74355L25.171 8.32294L11.416 16.3361Z" fill="#FFF385"/>
<path d="M13.0696 19.1768L12.2422 17.7555L25.9984 9.74364L26.8253 11.1643L13.0696 19.1768Z" fill="#FCD751"/>
<path d="M7.70057 22.5088C7.1324 22.4756 6.64229 22.7404 7.36819 23.0262C8.28421 23.3863 10.1548 24.0378 12.1485 22.6724C14.2576 21.2292 13.2613 18.6344 12.6205 17.5351L10.0352 19.0428C12.0746 22.4729 8.26909 22.5423 7.70057 22.5088Z" fill="#FCD751"/>
<path d="M30.3203 12.0865C32.4913 11.0246 32.8471 9.07781 32.9867 8.10373C33.0954 7.33046 32.6229 7.62656 32.3717 8.13777C32.1191 8.64897 30.1833 11.9231 28.2055 8.45702L25.6191 9.96341C26.2595 11.0627 28.0247 13.2103 30.3203 12.0865Z" fill="#FCD751"/>
<path d="M63.8305 27.7224C63.8305 28.6448 63.0831 29.3936 62.1601 29.3936H44.0208C43.0989 29.3936 42.3496 28.6448 42.3496 27.7224V12.1282C42.3496 11.2052 43.0989 10.4578 44.0208 10.4578H62.1601C63.0831 10.4578 63.8305 11.2052 63.8305 12.1282V27.7224Z" fill="#FFF385"/>
<path d="M43.1367 15.1228V27.5484C43.1367 28.1867 43.6558 28.7056 44.2939 28.7056H61.8899C62.5284 28.7056 63.0471 28.1867 63.0471 27.5484V15.1228H43.1367Z" fill="white"/>
<path d="M45.207 12.1919C45.207 12.5377 44.9251 12.8188 44.5781 12.8188C44.2324 12.8188 43.9512 12.5377 43.9512 12.1919C43.9512 11.8455 44.2324 11.5643 44.5781 11.5643C44.9251 11.5643 45.207 11.8455 45.207 12.1919Z" fill="#60C6E6"/>
<path d="M46.9953 12.1919C46.9953 12.5377 46.7132 12.8188 46.3675 12.8188C46.0213 12.8188 45.7402 12.5377 45.7402 12.1919C45.7402 11.8455 46.0213 11.5643 46.3675 11.5643C46.7132 11.5643 46.9953 11.8455 46.9953 12.1919Z" fill="#60C6E6"/>
<path d="M48.7825 12.1919C48.7825 12.5377 48.5017 12.8188 48.1555 12.8188C47.8098 12.8188 47.5293 12.5377 47.5293 12.1919C47.5293 11.8455 47.8098 11.5643 48.1555 11.5643C48.5017 11.5643 48.7825 11.8455 48.7825 12.1919Z" fill="#60C6E6"/>
<path d="M45.1431 12.1293C45.1431 12.4431 44.8897 12.6963 44.5767 12.6963C44.2643 12.6963 44.0117 12.4431 44.0117 12.1293C44.0117 11.8182 44.2643 11.5643 44.5767 11.5643C44.8897 11.5643 45.1431 11.8182 45.1431 12.1293Z" fill="#7CE9F7"/>
<path d="M46.9316 12.1293C46.9316 12.4431 46.6782 12.6963 46.3649 12.6963C46.0525 12.6963 45.7988 12.4431 45.7988 12.1293C45.7988 11.8182 46.0525 11.5643 46.3649 11.5643C46.6782 11.5643 46.9316 11.8182 46.9316 12.1293Z" fill="#7CE9F7"/>
<path d="M43.1367 27.5486C43.1367 27.9012 43.2981 28.2136 43.5475 28.4258L63.0471 15.123H43.1367V27.5486Z" fill="#E3FDFF"/>
<path d="M48.7218 12.1293C48.7218 12.4431 48.4684 12.6963 48.1554 12.6963C47.8435 12.6963 47.5898 12.4431 47.5898 12.1293C47.5898 11.8182 47.8435 11.5643 48.1554 11.5643C48.4684 11.5643 48.7218 11.8182 48.7218 12.1293Z" fill="#7CE9F7"/>
<path d="M63.8305 14.1685H42.3496V13.5313H63.8305V14.1685Z" fill="#FCD751"/>
<path d="M46.9941 21.8488V21.2314L50.4003 19.1927L50.904 19.9871L48.9273 21.2137L48.1229 21.5234L48.9179 21.7957L50.9489 23.0052L50.4439 23.8003L46.9941 21.8488Z" fill="#002254"/>
<path d="M54.2278 18.0802L55.0923 18.4689L51.942 25.6006L51.0762 25.1949L54.2278 18.0802Z" fill="#002254"/>
<path d="M59.1898 21.1429V21.7603L55.7829 23.8003L55.2806 22.9965L57.2573 21.7787L58.0605 21.4608L57.2655 21.196L55.2363 19.9782L55.7394 19.1927L59.1898 21.1429Z" fill="#002254"/>
<path d="M8.0303 36.6875C7.90981 38.1252 6.6561 39.196 5.22507 39.0803C3.79588 38.9612 2.73092 37.7003 2.84875 36.262C2.96842 34.8238 4.22315 33.7557 5.65452 33.8713C7.08426 33.9899 8.1486 35.2492 8.0303 36.6875Z" fill="#FFFCFA"/>
<path d="M6.36703 32.2962C6.02805 32.2225 5.75202 32.0436 5.75896 31.8345C5.76877 31.6338 6.11232 31.4793 6.52393 31.5671C8.25441 31.9278 9.72403 33.2776 10.239 34.9745C10.785 36.6606 10.3542 38.6157 9.14306 39.9096C7.96164 41.2242 6.05459 41.823 4.33773 41.4119C2.61257 41.0362 1.15676 39.6727 0.655564 37.9709C0.529771 37.5699 0.656926 37.2094 0.858957 37.1847C1.06371 37.1589 1.25914 37.4211 1.36499 37.7526C1.79172 39.1962 3.03535 40.3637 4.50314 40.6863C5.96821 41.0335 7.58569 40.5243 8.59659 39.4039C9.62826 38.3033 9.99604 36.6327 9.5299 35.1984C9.092 33.7554 7.83612 32.6017 6.36703 32.2962Z" fill="#FF3840"/>
<path d="M1.0973 36.427C0.952375 36.1377 0.688332 36.0941 0.516319 36.4161C0.264529 36.9061 0.0850282 37.4725 0.00661173 38.0852C-0.0375656 38.497 0.145884 38.6193 0.370582 38.3622L0.535447 38.1926C0.778184 37.9503 1.25631 37.8224 1.57671 37.8338L1.80726 37.8347C2.12767 37.8243 2.19145 37.6876 1.97261 37.5148C1.63838 37.2348 1.33608 36.8673 1.0973 36.427Z" fill="#FF3840"/>
<path d="M5.4043 36.5013C5.38436 36.7225 5.23018 36.8897 5.05783 36.8756C4.88445 36.8605 4.75955 36.6706 4.77942 36.4494L5.01957 33.5246C5.0387 33.3046 5.1924 33.1371 5.36523 33.1515C5.53541 33.1658 5.66304 33.3562 5.64547 33.5769L5.4043 36.5013Z" fill="#FCD751"/>
<path d="M4.95435 36.8832C4.77274 36.6873 4.98975 36.4237 5.10274 36.3203L4.83203 36.3386C4.94455 36.2344 5.18034 36.3068 5.36175 36.5027L7.75829 39.0886C7.93853 39.284 7.99143 39.5263 7.88108 39.634C7.76891 39.7387 7.53093 39.6672 7.35007 39.472L4.95435 36.8832Z" fill="#FCD751"/>
<path d="M2.98543 32.9461C2.70355 33.1437 2.38103 33.2245 2.23666 33.0762C2.09568 32.9326 2.22066 32.5726 2.56367 32.3322C4.01015 31.312 5.99772 31.1593 7.57932 31.9382C9.17999 32.6909 10.3021 34.3459 10.4111 36.1143C10.5574 37.8799 9.68575 39.688 8.21271 40.6655C6.75772 41.6722 4.77008 41.8069 3.19202 41.0119C2.81525 40.8301 2.64106 40.4897 2.76127 40.3264C2.88353 40.1589 3.20795 40.1916 3.5212 40.3427C4.86266 41.0185 6.56011 40.9016 7.79735 40.0459C9.05372 39.2115 9.79241 37.6765 9.67057 36.1707C9.57752 34.6623 8.61977 33.2512 7.25974 32.6119C5.91216 31.9469 4.21436 32.0791 2.98543 32.9461Z" fill="#FF3840"/>
<path d="M29.9473 61.8932C29.9473 64.4193 27.8991 66.4678 25.3736 66.4678C22.8463 66.4678 20.7988 64.4193 20.7988 61.8932C20.7988 59.3659 22.8463 57.319 25.3736 57.319C27.8991 57.319 29.9473 59.3659 29.9473 61.8932Z" fill="white"/>
<path d="M22.4316 59.7196L25.723 64.0542L28.4401 61.0482L25.723 62.3062L22.4316 59.7196Z" fill="#FF3840"/>
</svg>
