<svg width="70" height="70" viewBox="0 0 70 70" fill="none" xmlns="http://www.w3.org/2000/svg">
<path d="M41.9408 30.1851H46.5845L47.5564 32.129C47.7127 32.4387 48.031 32.6377 48.3777 32.6377H60.9474V40.6092H41.9408V30.1851ZM41.9408 54.5288H46.5845L47.5564 56.4726C47.7127 56.7824 48.031 56.9813 48.3777 56.9813H60.9474V64.9528H41.9408V54.5288ZM41.9408 5.8415H46.5845L47.5564 7.78537C47.7127 8.09798 48.031 8.29405 48.3777 8.29405H60.9474V16.2655H41.9408V5.8415ZM41.02 18.1043H61.8681C62.3768 18.1043 62.7889 17.6922 62.7889 17.1835V7.3733C62.7889 6.8646 62.3768 6.45251 61.8681 6.45251H48.9461L47.9742 4.50865C47.8178 4.19889 47.4995 3.99997 47.1528 3.99997H41.02C40.5113 3.99997 40.0993 4.41203 40.0993 4.92072V10.1328H33.8471C31.9857 10.1328 30.4738 11.6446 30.4738 13.5061V34.4764H29.1239C28.6152 34.4764 28.2031 34.8885 28.2031 35.3972C28.2031 35.903 28.6152 36.3151 29.1239 36.3151H30.4738V57.2882C30.4738 59.1468 31.9857 60.6587 33.8471 60.6587H40.0993V65.8707C40.0993 66.3794 40.5113 66.7915 41.02 66.7915H61.8681C62.3768 66.7915 62.7889 66.3794 62.7889 65.8707V56.0605C62.7889 55.5518 62.3768 55.1398 61.8681 55.1398H48.9461L47.9742 53.1959C47.8178 52.8861 47.4995 52.6872 47.1528 52.6872H41.02C40.5113 52.6872 40.0993 53.0993 40.0993 53.608V58.82H33.8471C33.0002 58.82 32.3125 58.1323 32.3125 57.2882V36.3151H40.0993V41.5271C40.0993 42.0358 40.5113 42.4479 41.02 42.4479H61.8681C62.3768 42.4479 62.7889 42.0358 62.7889 41.5271V31.7169C62.7889 31.2082 62.3768 30.7961 61.8681 30.7961H48.9461L47.9742 28.8523C47.8178 28.5425 47.4995 28.3436 47.1528 28.3436H41.02C40.5113 28.3436 40.0993 28.7557 40.0993 29.2644V34.4764H32.3125V13.5061C32.3125 12.6592 33.0002 11.9715 33.8471 11.9715H40.0993V17.1835C40.0993 17.6922 40.5113 18.1043 41.02 18.1043Z" fill="#011839"/>
<path d="M45.9288 12.5856H44.704C44.1953 12.5856 43.7832 12.9977 43.7832 13.5064C43.7832 14.0151 44.1953 14.4243 44.704 14.4243H45.9288C46.4375 14.4243 46.8496 14.0151 46.8496 13.5064C46.8496 12.9977 46.4375 12.5856 45.9288 12.5856Z" fill="#011839"/>
<path d="M50.8331 12.5856H49.6083C49.0996 12.5856 48.6875 12.9977 48.6875 13.5064C48.6875 14.0151 49.0996 14.4243 49.6083 14.4243H50.8331C51.3418 14.4243 51.7539 14.0151 51.7539 13.5064C51.7539 12.9977 51.3418 12.5856 50.8331 12.5856Z" fill="#011839"/>
<path d="M45.9288 36.9294H44.704C44.1953 36.9294 43.7832 37.3414 43.7832 37.8501C43.7832 38.3588 44.1953 38.7681 44.704 38.7681H45.9288C46.4375 38.7681 46.8496 38.3588 46.8496 37.8501C46.8496 37.3414 46.4375 36.9294 45.9288 36.9294Z" fill="#011839"/>
<path d="M50.8331 36.9294H49.6083C49.0996 36.9294 48.6875 37.3414 48.6875 37.8501C48.6875 38.3588 49.0996 38.7681 49.6083 38.7681H50.8331C51.3418 38.7681 51.7539 38.3588 51.7539 37.8501C51.7539 37.3414 51.3418 36.9294 50.8331 36.9294Z" fill="#011839"/>
<path d="M45.9288 61.2731H44.704C44.1953 61.2731 43.7832 61.6852 43.7832 62.1939C43.7832 62.7026 44.1953 63.1118 44.704 63.1118H45.9288C46.4375 63.1118 46.8496 62.7026 46.8496 62.1939C46.8496 61.6852 46.4375 61.2731 45.9288 61.2731Z" fill="#011839"/>
<path d="M50.8331 61.2731H49.6083C49.0996 61.2731 48.6875 61.6852 48.6875 62.1939C48.6875 62.7026 49.0996 63.1118 49.6083 63.1118H50.8331C51.3418 63.1118 51.7539 62.7026 51.7539 62.1939C51.7539 61.6852 51.3418 61.2731 50.8331 61.2731Z" fill="#011839"/>
<path d="M8.27649 21.6H9.50305C10.0109 21.6 10.4227 22.012 10.4227 22.5207C10.4227 23.0266 10.0109 23.4387 9.50305 23.4387H8.27649C7.76864 23.4387 7.35684 23.0266 7.35684 22.5207C7.35684 22.012 7.76864 21.6 8.27649 21.6ZM11.9556 21.6H18.0867C18.5954 21.6 19.0074 22.012 19.0074 22.5207C19.0074 23.0266 18.5954 23.4387 18.0867 23.4387H11.9556C11.4477 23.4387 11.036 23.0266 11.036 22.5207C11.036 22.012 11.4477 21.6 11.9556 21.6ZM7.87293 26.3999L8.84486 28.3438H22.6877V18.2266C22.6877 17.7179 22.2756 17.3059 21.7669 17.3059H4.59738C4.08953 17.3059 3.67773 17.7179 3.67773 18.2266V25.8912H7.0502C7.39862 25.8912 7.7172 26.0901 7.87293 26.3999Z" fill="#7C30B7"/>
<path d="M12.5703 38.7675H10.7307C10.2226 38.7675 9.81079 38.3583 9.81079 37.8496C9.81079 37.3409 10.2226 36.9288 10.7307 36.9288H12.5703C13.0781 36.9288 13.4899 37.3409 13.4899 37.8496C13.4899 38.3583 13.0781 38.7675 12.5703 38.7675ZM6.43829 38.7675H4.59875C4.09091 38.7675 3.67911 38.3583 3.67911 37.8496C3.67911 37.3409 4.09091 36.9288 4.59875 36.9288H6.43829C6.94642 36.9288 7.35822 37.3409 7.35822 37.8496C7.35822 38.3583 6.94642 38.7675 6.43829 38.7675ZM8.27786 30.185C7.92945 30.185 7.61115 29.9861 7.45513 29.6763L6.4832 27.7325H0V41.527C0 42.0357 0.4118 42.4478 0.919645 42.4478H25.4486C25.9544 42.4478 26.3665 42.0357 26.3665 41.527V30.185H8.27786Z" fill="#7C30B7"/>
</svg>
