<svg width="70" height="70" viewBox="0 0 70 70" fill="none" xmlns="http://www.w3.org/2000/svg">
<path d="M32.1465 68.8119C49.9005 68.8119 64.293 53.8556 64.293 35.406C64.293 16.9564 49.9005 2 32.1465 2C14.3925 2 0 16.9564 0 35.406C0 53.8556 14.3925 68.8119 32.1465 68.8119Z" fill="#EDE7F1"/>
<path d="M57.8484 46.4961C59.1499 47.7133 58.7595 48.7277 57.0025 48.7277H16.3313C14.5743 48.7277 14.1838 47.7133 15.4853 46.4961L17.828 44.3322C19.1295 43.1149 21.6673 42.1006 23.4243 42.1006H49.9745C51.7315 42.1006 54.2694 43.1149 55.5709 44.3322L57.8484 46.4961Z" fill="#7C30B7"/>
<path d="M54.5289 41.8304C54.5289 42.7772 53.8131 43.521 52.9021 43.521H20.3651C19.4541 43.521 18.7383 42.7772 18.7383 41.8304V22.2873C18.7383 21.3405 19.4541 20.5967 20.3651 20.5967H52.9021C53.8131 20.5967 54.5289 21.3405 54.5289 22.2873V41.8304Z" fill="#343049"/>
<path d="M54.5289 41.8304C54.5289 42.7772 53.8131 43.521 52.9021 43.521H20.3651C19.4541 43.521 18.7383 42.7772 18.7383 41.8304V22.2873C18.7383 21.3405 19.4541 20.5967 20.3651 20.5967H52.9021C53.8131 20.5967 54.5289 21.3405 54.5289 22.2873V41.8304Z" fill="#7C30B7"/>
<path d="M53.2287 41.019C53.2287 41.56 52.7732 42.0334 52.2526 42.0334H21.0171C20.4965 42.0334 20.041 41.56 20.041 41.019V23.0988C20.041 22.5578 20.4965 22.0845 21.0171 22.0845H52.2526C52.7732 22.0845 53.2287 22.5578 53.2287 23.0988V41.019Z" fill="#55D6D2"/>
<path d="M22.5807 25.2622C22.5807 24.6535 22.9711 24.3154 23.4917 24.3154H24.3377C24.9884 24.3154 25.1837 24.7212 25.1837 25.2622V27.2232C25.1837 27.8318 24.8583 28.17 24.2726 28.17H23.4267C22.841 28.17 22.5156 27.8995 22.5156 27.2232V25.2622H22.5807ZM23.687 27.4261H24.1425C24.4028 27.4261 24.5329 27.3585 24.5329 27.088V25.3974C24.5329 25.1269 24.4028 25.0593 24.2075 25.0593H23.687C23.3616 25.0593 23.3616 25.2622 23.3616 25.3974V27.088C23.2965 27.3585 23.4917 27.4261 23.687 27.4261Z" fill="white"/>
<path d="M35.3366 25.2622C35.3366 24.6535 35.727 24.3154 36.2476 24.3154H37.0936C37.7443 24.3154 37.9395 24.7212 37.9395 25.2622V27.2232C37.9395 27.8318 37.6141 28.17 37.0285 28.17H36.1825C35.5969 28.17 35.2715 27.8995 35.2715 27.2232V25.2622H35.3366ZM36.3777 27.4261H36.8333C37.0936 27.4261 37.2237 27.3585 37.2237 27.088V25.3974C37.2237 25.1269 37.0936 25.0593 36.8983 25.0593H36.3777C36.0524 25.0593 36.0524 25.2622 36.0524 25.3974V27.088C36.0524 27.3585 36.2476 27.4261 36.3777 27.4261Z" fill="white"/>
<path d="M26.8756 31.2812C26.8756 30.6726 27.2661 30.3345 27.7867 30.3345H28.6326C29.2834 30.3345 29.4786 30.7402 29.4786 31.2812V33.2423C29.4786 33.8509 29.1532 34.189 28.5675 34.189H27.7216C27.1359 34.189 26.8105 33.9185 26.8105 33.2423V31.2812H26.8756ZM27.9168 33.4451H28.3723C28.6326 33.4451 28.7628 33.3775 28.7628 33.107V31.4164C28.7628 31.146 28.6326 31.0783 28.4374 31.0783H27.9168C27.5914 31.0783 27.5914 31.2812 27.5914 31.4164V33.107C27.5264 33.3775 27.7216 33.4451 27.9168 33.4451Z" fill="white"/>
<path d="M26.8756 37.2993C26.8756 36.6907 27.2661 36.3525 27.7867 36.3525H28.6326C29.2834 36.3525 29.4786 36.7583 29.4786 37.2993V39.1927C29.4786 39.8013 29.1532 40.1395 28.5675 40.1395H27.7216C27.1359 40.1395 26.8105 39.869 26.8105 39.1927V37.2993H26.8756ZM27.9168 39.4632H28.3723C28.6326 39.4632 28.7628 39.3956 28.7628 39.1251V37.4345C28.7628 37.164 28.6326 37.0964 28.4374 37.0964H27.9168C27.5914 37.0964 27.5914 37.2993 27.5914 37.4345V39.1251C27.5264 39.3956 27.7216 39.4632 27.9168 39.4632Z" fill="white"/>
<path d="M22.5807 37.2993C22.5807 36.6907 22.9711 36.3525 23.4917 36.3525H24.3377C24.9884 36.3525 25.1837 36.7583 25.1837 37.2993V39.1927C25.1837 39.8013 24.8583 40.1395 24.2726 40.1395H23.4267C22.841 40.1395 22.5156 39.869 22.5156 39.1927V37.2993H22.5807ZM23.687 39.4632H24.1425C24.4028 39.4632 24.5329 39.3956 24.5329 39.1251V37.4345C24.5329 37.164 24.4028 37.0964 24.2075 37.0964H23.687C23.3616 37.0964 23.3616 37.2993 23.3616 37.4345V39.1251C23.2965 39.3956 23.4917 39.4632 23.687 39.4632Z" fill="white"/>
<path d="M39.567 25.2622C39.567 24.6535 39.9575 24.3154 40.4781 24.3154H41.324C41.9748 24.3154 42.17 24.7212 42.17 25.2622V27.2232C42.17 27.8318 41.8446 28.17 41.2589 28.17H40.413C39.8273 28.17 39.502 27.8995 39.502 27.2232V25.2622H39.567ZM40.6733 27.4261H41.1288C41.3891 27.4261 41.5192 27.3585 41.5192 27.088V25.3974C41.5192 25.1269 41.3891 25.0593 41.1939 25.0593H40.6733C40.3479 25.0593 40.3479 25.2622 40.3479 25.3974V27.088C40.2828 27.3585 40.4781 27.4261 40.6733 27.4261Z" fill="white"/>
<path d="M43.7955 25.2622C43.7955 24.6535 44.186 24.3154 44.7066 24.3154H45.5525C46.2033 24.3154 46.3985 24.7212 46.3985 25.2622V27.2232C46.3985 27.8318 46.0731 28.17 45.4875 28.17H44.6415C44.0558 28.17 43.7305 27.8995 43.7305 27.2232V25.2622H43.7955ZM44.9018 27.4261H45.3573C45.6176 27.4261 45.7478 27.3585 45.7478 27.088V25.3974C45.7478 25.1269 45.6176 25.0593 45.4224 25.0593H44.9018C44.5764 25.0593 44.5764 25.2622 44.5764 25.3974V27.088C44.5114 27.3585 44.7066 27.4261 44.9018 27.4261Z" fill="white"/>
<path d="M27.4609 24.7212L28.1767 24.3154H28.8926V28.1023H28.1767V25.0593L27.4609 25.2622V24.7212Z" fill="white"/>
<path d="M31.6895 24.7212L32.4053 24.3154H33.1211V28.1023H32.4053V25.0593L31.6895 25.2622V24.7212Z" fill="white"/>
<path d="M48.6758 24.7212L49.3916 24.3154H50.1074V28.1023H49.3916V25.0593L48.6758 25.2622V24.7212Z" fill="white"/>
<path d="M23.2324 30.7402L23.9482 30.3345H24.664V34.1214H23.9482V31.0783L23.2324 31.2812V30.7402Z" fill="white"/>
<path d="M31.6895 36.7583L32.4053 36.3525H33.1211V40.1395H32.4053V37.0964L31.6895 37.2993V36.7583Z" fill="white"/>
<path d="M35.3366 31.2812C35.3366 30.6726 35.727 30.3345 36.2476 30.3345H37.0936C37.7443 30.3345 37.9395 30.7402 37.9395 31.2812V33.2423C37.9395 33.8509 37.6141 34.189 37.0285 34.189H36.1825C35.5969 34.189 35.2715 33.9185 35.2715 33.2423V31.2812H35.3366ZM36.3777 33.4451H36.8333C37.0936 33.4451 37.2237 33.3775 37.2237 33.107V31.4164C37.2237 31.146 37.0936 31.0783 36.8983 31.0783H36.3777C36.0524 31.0783 36.0524 31.2812 36.0524 31.4164V33.107C36.0524 33.3775 36.2476 33.4451 36.3777 33.4451Z" fill="white"/>
<path d="M39.567 37.2993C39.567 36.6907 39.9575 36.3525 40.4781 36.3525H41.324C41.9748 36.3525 42.17 36.7583 42.17 37.2993V39.1927C42.17 39.8013 41.8446 40.1395 41.2589 40.1395H40.413C39.8273 40.1395 39.502 39.869 39.502 39.1927V37.2993H39.567ZM40.6733 39.4632H41.1288C41.3891 39.4632 41.5192 39.3956 41.5192 39.1251V37.4345C41.5192 37.164 41.3891 37.0964 41.1939 37.0964H40.6733C40.3479 37.0964 40.3479 37.2993 40.3479 37.4345V39.1251C40.2828 39.3956 40.4781 39.4632 40.6733 39.4632Z" fill="white"/>
<path d="M43.7955 37.2993C43.7955 36.6907 44.186 36.3525 44.7066 36.3525H45.5525C46.2033 36.3525 46.3985 36.7583 46.3985 37.2993V39.1927C46.3985 39.8013 46.0731 40.1395 45.4875 40.1395H44.6415C44.0558 40.1395 43.7305 39.869 43.7305 39.1927V37.2993H43.7955ZM44.9018 39.4632H45.3573C45.6176 39.4632 45.7478 39.3956 45.7478 39.1251V37.4345C45.7478 37.164 45.6176 37.0964 45.4224 37.0964H44.9018C44.5764 37.0964 44.5764 37.2993 44.5764 37.4345V39.1251C44.5114 39.3956 44.7066 39.4632 44.9018 39.4632Z" fill="white"/>
<path d="M31.6895 30.7402L32.4053 30.3345H33.1211V34.1214H32.4053V31.0783L31.6895 31.2812V30.7402Z" fill="white"/>
<path d="M40.1523 30.7402L40.8682 30.3345H41.584V34.1214H40.8682V31.0783L40.1523 31.2812V30.7402Z" fill="white"/>
<path d="M35.9199 36.7583L36.6357 36.3525H37.3515V40.1395H36.6357V37.0964L35.9199 37.2993V36.7583Z" fill="white"/>
<path d="M48.0241 31.2812C48.0241 30.6726 48.4145 30.3345 48.9351 30.3345H49.7811C50.4318 30.3345 50.627 30.7402 50.627 31.2812V33.2423C50.627 33.8509 50.3016 34.189 49.716 34.189H48.87C48.2844 34.189 47.959 33.9185 47.959 33.2423V31.2812H48.0241ZM49.1303 33.4451H49.5858C49.8461 33.4451 49.9763 33.3775 49.9763 33.107V31.4164C49.9763 31.146 49.8461 31.0783 49.6509 31.0783H49.1303C48.8049 31.0783 48.8049 31.2812 48.8049 31.4164V33.107C48.7399 33.3775 48.9351 33.4451 49.1303 33.4451Z" fill="white"/>
<path d="M48.6758 36.7583L49.3916 36.3525H50.1074V40.1395H49.3916V37.0964L48.6758 37.2993V36.7583Z" fill="white"/>
<path d="M44.4473 30.7402L45.1631 30.3345H45.8789V34.1214H45.1631V31.0783L44.4473 31.2812V30.7402Z" fill="white"/>
<path d="M13.0152 40.3428C12.4947 40.8837 11.7138 40.8837 11.1932 40.3428C10.6726 39.8018 10.6726 38.9903 11.1932 38.4493L13.7311 35.812C14.2517 35.271 15.0325 35.271 15.5531 35.812C16.0737 36.353 16.0737 37.1645 15.5531 37.7054L13.0152 40.3428Z" fill="#7C30B7"/>
<path d="M8.00335 47.714C6.96217 48.7959 5.20517 48.7283 4.09892 47.5111C2.99266 46.3615 2.86251 44.5357 3.9037 43.4537L8.3938 38.7877C9.43498 37.7057 11.192 37.7733 12.2982 38.9905C13.4045 40.1401 13.5346 41.966 12.4935 43.0479L8.00335 47.714Z" fill="#7C30B7"/>
<path d="M20.4337 39.8017C25.7527 39.8017 30.0646 35.3208 30.0646 29.7934C30.0646 24.266 25.7527 19.7852 20.4337 19.7852C15.1147 19.7852 10.8027 24.266 10.8027 29.7934C10.8027 35.3208 15.1147 39.8017 20.4337 39.8017Z" fill="#FEE13E"/>
<path d="M20.4334 37.4347C24.4946 37.4347 27.7868 34.0136 27.7868 29.7933C27.7868 25.573 24.4946 22.1519 20.4334 22.1519C16.3723 22.1519 13.0801 25.573 13.0801 29.7933C13.0801 34.0136 16.3723 37.4347 20.4334 37.4347Z" fill="#55D6D2"/>
<path d="M22.3223 30.2671L23.2333 29.7261H24.1443V34.7302H23.2333V30.6728L22.3223 30.9433V30.2671Z" fill="white"/>
<path d="M21.4746 25.5328C21.4746 26.3443 21.9301 26.75 22.711 26.75H23.8173C24.5331 26.75 24.9886 26.3443 24.9886 25.5328V23.7746C24.7283 23.5717 24.4029 23.3012 24.0776 23.166V25.3975C24.0776 25.7357 23.8823 25.8709 23.622 25.8709H22.9713C22.7761 25.8709 22.4507 25.8033 22.4507 25.3975V23.166C22.4507 22.9631 22.5158 22.6926 22.9062 22.6926H22.9713C22.5809 22.5574 22.1253 22.4221 21.6698 22.3545C21.5397 22.5574 21.4746 22.8279 21.4746 23.0983V25.5328Z" fill="white"/>
</svg>
