<svg width="70" height="70" viewBox="0 0 70 70" fill="none" xmlns="http://www.w3.org/2000/svg">
<path d="M13.8137 63.8936H5.11523V45.5699H13.8137V63.8936Z" fill="white"/>
<path d="M6.14913 62.8622H12.7782V46.6025H6.14913V62.8622ZM13.815 64.9253H5.11656C4.54658 64.9253 4.08398 64.4644 4.08398 63.8935V45.5699C4.08398 44.9995 4.54658 44.5365 5.11656 44.5365H13.815C14.3808 44.5365 14.8434 44.9995 14.8434 45.5699V63.8935C14.8434 64.4644 14.3808 64.9253 13.815 64.9253Z" fill="#201D18"/>
<path d="M32.5048 63.8936H23.8105V36.9479H32.5048V63.8936Z" fill="#FEE13E"/>
<path d="M49.1689 63.8936H40.4746V26.8126H49.1689V63.8936Z" fill="white"/>
<path d="M41.5005 62.8622H48.1379V27.844H41.5005V62.8622ZM49.1663 64.9253H40.472C39.902 64.9253 39.4395 64.4644 39.4395 63.8935V26.8126C39.4395 26.243 39.902 25.7813 40.472 25.7813H49.1663C49.7404 25.7813 50.1989 26.243 50.1989 26.8126V63.8935C50.1989 64.4644 49.7404 64.9253 49.1663 64.9253Z" fill="#201D18"/>
<path d="M66.8447 63.8936H58.1504V20.236H66.8447V63.8936Z" fill="#FEE13E"/>
<path d="M1.0332 36.3901H13.4406L26.5832 25.741L36.6735 25.2954L40.8244 18.5064H49.75L57.7379 10.5167H64.3671" fill="white"/>
<path d="M13.4399 37.4233H1.03257C0.462593 37.4233 0 36.9624 0 36.3899C0 35.8229 0.462593 35.3603 1.03257 35.3603H13.0765L25.9341 24.9412C26.1034 24.7999 26.3141 24.7202 26.5371 24.7107L36.0781 24.2886L39.944 17.9664C40.134 17.6603 40.4686 17.4736 40.8238 17.4736H49.3198L57.0062 9.78757C57.2045 9.59221 57.4647 9.48397 57.7373 9.48397H64.3665C64.9365 9.48397 65.3949 9.94657 65.3949 10.5165C65.3949 11.0861 64.9365 11.5491 64.3665 11.5491H58.1627L50.4804 19.2348C50.2863 19.4281 50.022 19.5379 49.7494 19.5379H41.4062L37.5526 25.8342C37.375 26.1295 37.0611 26.3104 36.7183 26.3257L26.9666 26.7569L14.0925 37.1925C13.9067 37.3416 13.6795 37.4233 13.4399 37.4233Z" fill="#201D18"/>
<path d="M47.2874 18.5064C47.2874 20.9838 45.276 22.9932 42.8019 22.9932C40.3238 22.9932 38.3164 20.9838 38.3164 18.5064C38.3164 16.0311 40.3238 14.0222 42.8019 14.0222C45.276 14.0222 47.2874 16.0311 47.2874 18.5064Z" fill="white"/>
<path d="M42.8013 15.0546C40.8931 15.0546 39.3483 16.6039 39.3483 18.5071C39.3483 20.4128 40.8931 21.9613 42.8013 21.9613C44.7054 21.9613 46.2542 20.4128 46.2542 18.5071C46.2542 16.6039 44.7054 15.0546 42.8013 15.0546ZM42.8013 24.0239C39.7573 24.0239 37.2832 21.5482 37.2832 18.5071C37.2832 15.466 39.7573 12.9932 42.8013 12.9932C45.8412 12.9932 48.3193 15.466 48.3193 18.5071C48.3193 21.5482 45.8412 24.0239 42.8013 24.0239Z" fill="#201D18"/>
<path d="M65.094 10.5168C65.094 12.9937 63.0867 15.0015 60.6127 15.0015C58.1345 15.0015 56.123 12.9937 56.123 10.5168C56.123 8.03986 58.1345 6.03256 60.6127 6.03256C63.0867 6.03256 65.094 8.03986 65.094 10.5168Z" fill="white"/>
<path d="M60.6118 7.06443C58.7036 7.06443 57.1589 8.61246 57.1589 10.5169C57.1589 12.4202 58.7036 13.9686 60.6118 13.9686C62.5118 13.9686 64.0606 12.4202 64.0606 10.5169C64.0606 8.61246 62.5118 7.06443 60.6118 7.06443ZM60.6118 16.0342C57.5678 16.0342 55.0938 13.5581 55.0938 10.5169C55.0938 7.47415 57.5678 5.00013 60.6118 5.00013C63.6517 5.00013 66.1258 7.47415 66.1258 10.5169C66.1258 13.5581 63.6517 16.0342 60.6118 16.0342Z" fill="#201D18"/>
<path d="M45.1057 18.5069C45.1057 19.7794 44.069 20.812 42.801 20.812C41.5248 20.812 40.4922 19.7794 40.4922 18.5069C40.4922 17.2348 41.5248 16.2034 42.801 16.2034C44.069 16.2034 45.1057 17.2348 45.1057 18.5069Z" fill="#FEE13E"/>
<path d="M31.0686 25.2949C31.0686 27.773 29.0572 29.7808 26.5831 29.7808C24.1091 29.7808 22.0977 27.773 22.0977 25.2949C22.0977 22.8183 24.1091 20.811 26.5831 20.811C29.0572 20.811 31.0686 22.8183 31.0686 25.2949Z" fill="white"/>
<path d="M26.5823 21.8444C24.6782 21.8444 23.1294 23.3924 23.1294 25.2953C23.1294 27.1985 24.6782 28.7498 26.5823 28.7498C28.4864 28.7498 30.0352 27.1985 30.0352 25.2953C30.0352 23.3924 28.4864 21.8444 26.5823 21.8444ZM26.5823 30.8125C23.5424 30.8125 21.0684 28.3385 21.0684 25.2953C21.0684 22.2541 23.5424 19.7788 26.5823 19.7788C29.6263 19.7788 32.1004 22.2541 32.1004 25.2953C32.1004 28.3385 29.6263 30.8125 26.5823 30.8125Z" fill="#201D18"/>
<path d="M28.8867 25.2955C28.8867 26.5692 27.8542 27.6006 26.582 27.6006C25.3099 27.6006 24.2773 26.5692 24.2773 25.2955C24.2773 24.0233 25.3099 22.9932 26.582 22.9932C27.8542 22.9932 28.8867 24.0233 28.8867 25.2955Z" fill="#7C30B7"/>
<path d="M17.9261 35.9277C17.9261 38.4042 15.9187 40.4111 13.4406 40.4111C10.9665 40.4111 8.95508 38.4042 8.95508 35.9277C8.95508 33.4503 10.9665 31.443 13.4406 31.443C15.9187 31.443 17.9261 33.4503 17.9261 35.9277Z" fill="white"/>
<path d="M13.4397 32.4745C11.5357 32.4745 9.99093 34.0213 9.99093 35.9278C9.99093 37.8307 11.5357 39.3804 13.4397 39.3804C15.3438 39.3804 16.8968 37.8307 16.8968 35.9278C16.8968 34.0213 15.3438 32.4745 13.4397 32.4745ZM13.4397 41.4438C10.3998 41.4438 7.92578 38.969 7.92578 35.9278C7.92578 32.8859 10.3998 30.4106 13.4397 30.4106C16.4837 30.4106 18.9578 32.8859 18.9578 35.9278C18.9578 38.969 16.4837 41.4438 13.4397 41.4438Z" fill="#201D18"/>
<path d="M15.7439 35.9279C15.7439 37.2009 14.7155 38.231 13.4393 38.231C12.1671 38.231 11.1387 37.2009 11.1387 35.9279C11.1387 34.6554 12.1671 33.6224 13.4393 33.6224C14.7155 33.6224 15.7439 34.6554 15.7439 35.9279Z" fill="#FEE13E"/>
<path d="M63.4879 10.517C63.4879 12.1063 62.1992 13.3945 60.6132 13.3945C59.023 13.3945 57.7344 12.1063 57.7344 10.517C57.7344 8.92928 59.023 7.63939 60.6132 7.63939C62.1992 7.63939 63.4879 8.92928 63.4879 10.517Z" fill="#7C30B7"/>
</svg>
