<svg width="70" height="70" viewBox="0 0 70 70" fill="none" xmlns="http://www.w3.org/2000/svg">
<path d="M47.5223 56.4648H6.02734V23.9531H47.5223V56.4648ZM6.75533 55.6247H46.7943V24.7932H6.75533V55.6247Z" fill="#14B0BF"/>
<path d="M6.43185 57.8932C7.41465 57.8932 8.21137 57.0657 8.21137 56.045C8.21137 55.0242 7.41465 54.1968 6.43185 54.1968C5.44906 54.1968 4.65234 55.0242 4.65234 56.045C4.65234 57.0657 5.44906 57.8932 6.43185 57.8932Z" fill="#14B0BF"/>
<path d="M46.633 26.4738C47.6158 26.4738 48.4125 25.6463 48.4125 24.6256C48.4125 23.6048 47.6158 22.7773 46.633 22.7773C45.6502 22.7773 44.8535 23.6048 44.8535 24.6256C44.8535 25.6463 45.6502 26.4738 46.633 26.4738Z" fill="#14B0BF"/>
<path d="M23.3339 20.5088H2.62689C2.06068 20.5088 1.65625 21.0128 1.65625 21.6009V34.9584C1.65625 35.5465 2.14157 36.0505 2.62689 36.0505H23.3339C23.9001 36.0505 24.3046 35.5465 24.3046 34.9584V21.6009C24.3046 21.0128 23.9001 20.5088 23.3339 20.5088Z" fill="#CFD8DC"/>
<path d="M22.6885 21.4331H3.27567C2.87123 21.4331 2.4668 21.8532 2.4668 22.2732V34.5386C2.4668 34.7906 2.62857 35.0426 2.79034 35.2107L23.0929 21.6011C23.0121 21.5171 22.8503 21.4331 22.6885 21.4331Z" fill="#355168"/>
<path d="M23.0917 21.6016L2.78906 35.2951C2.95084 35.3791 3.11261 35.4631 3.27438 35.4631H22.6872C23.0917 35.4631 23.4961 35.0431 23.4961 34.623V22.2736C23.4961 22.0216 23.3343 21.6856 23.0917 21.6016Z" fill="#2A445D"/>
<path d="M26.0866 38.8243V38.4883L0.0410156 38.7403V38.9083C0.0410156 39.2444 0.44545 39.5804 0.849884 39.5804H25.1968C25.6821 39.4964 26.0866 39.1604 26.0866 38.8243Z" fill="#90A4AE"/>
<path d="M23.6606 35.9683H2.46825C1.98293 35.9683 1.49761 36.1363 1.33583 36.3883L0.0416436 38.4885C-0.12013 38.7406 0.203417 38.9926 0.769625 38.9926H25.2783C25.8445 38.9926 26.1681 38.7406 26.0063 38.4885L24.7121 36.3883C24.6312 36.1363 24.1459 35.9683 23.6606 35.9683Z" fill="#CFD8DC"/>
<path d="M22.771 36.8086H3.35814C2.87282 36.8086 2.46839 36.8926 2.46839 36.9766L1.98307 37.9007C1.90218 37.9847 2.30661 38.0687 2.71105 38.0687H23.3372C23.8225 38.0687 24.1461 37.9847 24.0652 37.9007L23.5799 36.9766C23.5799 36.8926 23.1754 36.8086 22.771 36.8086Z" fill="#B0BEC5"/>
<path d="M22.4473 36.2207H3.68158C3.27715 36.2207 2.87271 36.2207 2.87271 36.3047L2.71094 36.5567C2.71094 36.5567 3.03449 36.6408 3.51981 36.6408H22.6091C23.0135 36.6408 23.418 36.6407 23.418 36.5567L23.2562 36.3047C23.2562 36.2207 22.9326 36.2207 22.4473 36.2207Z" fill="#B0BEC5"/>
<path d="M17.8366 38.1528H8.29196C8.0493 38.1528 7.88753 38.1528 7.88753 38.2368L7.80664 38.6569C7.80664 38.7409 7.96841 38.7409 8.21107 38.7409H17.9984C18.241 38.7409 18.4028 38.7409 18.4028 38.6569L18.3219 38.2368C18.241 38.2368 18.0793 38.1528 17.8366 38.1528Z" fill="#B0BEC5"/>
<path d="M56.2549 38.2354H31.5844C30.9373 38.2354 30.3711 38.8234 30.3711 39.4955V55.3733C30.3711 56.0454 30.9373 56.6334 31.5844 56.6334H56.174C56.8211 56.6334 57.3873 56.0454 57.3873 55.3733V39.4955C57.3873 38.8234 56.902 38.2354 56.2549 38.2354Z" fill="#CFD8DC"/>
<path d="M55.4472 39.3276H32.3945C31.9091 39.3276 31.4238 39.7477 31.4238 40.3358V54.9534C31.4238 55.2894 31.5856 55.5415 31.8283 55.7935L56.0134 39.4957C55.7708 39.3276 55.609 39.3276 55.4472 39.3276Z" fill="#355168"/>
<path d="M55.9332 39.4116L31.748 55.7094C31.9098 55.8775 32.0716 55.8775 32.3143 55.8775H55.4479C55.9332 55.8775 56.4185 55.4574 56.4185 54.8694V40.3357C56.4185 39.9157 56.2568 39.6636 55.9332 39.4116Z" fill="#2A445D"/>
<path d="M59.4886 59.9093V59.4893L28.5898 59.7413V59.9093C28.5898 60.3294 28.9943 60.6654 29.5605 60.6654H58.518C59.0033 60.7494 59.4886 60.4134 59.4886 59.9093Z" fill="#90A4AE"/>
<path d="M56.5784 56.5488H31.4225C30.8563 56.5488 30.2092 56.7168 30.1284 56.9689L28.6724 59.4892C28.5106 59.8252 28.9151 60.0772 29.5621 60.0772H58.6814C59.3285 60.0772 59.7329 59.8252 59.5712 59.4892L58.1152 56.9689C57.7917 56.8009 57.2254 56.5488 56.5784 56.5488Z" fill="#CFD8DC"/>
<path d="M55.5265 57.5571H32.4737C31.9075 57.5571 31.4222 57.6411 31.4222 57.7251L30.856 58.8173C30.7751 58.9013 31.1796 59.0693 31.7458 59.0693H56.2545C56.8207 59.0693 57.2251 58.9853 57.1442 58.8173L56.578 57.7251C56.4971 57.6411 56.0118 57.5571 55.5265 57.5571Z" fill="#B0BEC5"/>
<path d="M55.2041 56.8008H32.7984C32.3131 56.8008 31.8278 56.8008 31.8278 56.8848L31.666 57.1368C31.666 57.1368 32.0705 57.2208 32.5558 57.2208H55.285C55.7703 57.2208 56.2556 57.2208 56.1747 57.1368V56.8848C56.0938 56.8008 55.6894 56.8008 55.2041 56.8008Z" fill="#B0BEC5"/>
<path d="M49.7029 59.1523H38.3787C38.136 59.1523 37.8934 59.1523 37.8934 59.2364L37.8125 59.6564C37.8125 59.7404 37.9743 59.7404 38.2978 59.7404H49.9455C50.1882 59.7404 50.4308 59.6564 50.4308 59.6564L50.1882 59.2364C50.1882 59.2364 49.9455 59.1523 49.7029 59.1523Z" fill="#B0BEC5"/>
<path d="M25.0333 46.4681L24.7906 43.2758L22.5258 43.1077C22.364 42.6037 22.1213 42.0996 21.8787 41.5956L23.1729 39.6634L20.9889 37.3951L19.1285 38.7393C18.6432 38.4872 18.1579 38.2352 17.6726 38.0672L17.5108 35.7149L14.4371 35.4629L13.8709 37.7311C13.3047 37.8152 12.8194 37.9832 12.334 38.1512L10.7972 36.471L10.7163 36.555L8.28969 38.3192L9.26033 40.4194C8.93678 40.8395 8.61324 41.3436 8.37057 41.8476L6.10574 41.5956L5.29688 44.6199L7.31905 45.712C7.31905 46.3001 7.39993 46.8042 7.48082 47.3922L5.62042 48.7364L6.91461 51.5927L9.09856 50.9206C9.4221 51.3407 9.82654 51.7607 10.231 52.0968L9.66476 54.365L12.4149 55.7092L13.7091 53.7769C14.1944 53.861 14.7606 53.945 15.246 53.945L16.2166 56.1292L19.1285 55.2891L19.0476 54.029L18.9668 52.8528C19.2094 52.6848 19.3712 52.6008 19.6138 52.4328C19.8565 52.2648 20.0183 52.0968 20.2609 51.9287L22.364 52.9369L24.1435 50.3326L22.5258 48.6524C22.6875 48.1483 22.8493 47.6443 22.9302 47.0562L25.0333 46.4681ZM17.9152 49.9125C17.6726 50.0805 17.5108 50.1645 17.2681 50.3326C15.1651 51.4247 12.4958 50.7526 11.1207 48.7364C9.58388 46.4681 10.0692 43.2758 12.334 41.6796C12.4958 41.5116 12.7385 41.4276 12.9002 41.3436C15.0033 40.2514 17.6726 40.8395 19.0476 42.9397C20.6654 45.208 20.0992 48.3163 17.9152 49.9125Z" fill="#F4CD25"/>
<path d="M48.652 24.9618L48.2476 20.3413L44.9312 20.0892C44.6885 19.3332 44.365 18.5771 43.9606 17.905L45.9018 15.0487L42.7473 11.7723L40.078 13.7885C39.4309 13.3685 38.7029 13.0325 37.9749 12.7804L37.7323 9.33604L33.2026 9L32.3937 12.2764C31.5849 12.4444 30.8569 12.6124 30.1289 12.9484L27.8641 10.5122L27.7832 10.5962L24.1433 13.2005L25.5184 16.3088C25.033 16.9809 24.5477 17.653 24.1433 18.325L20.9078 17.989L19.7754 22.4415L22.7682 23.8697C22.7682 24.7098 22.8491 25.4658 23.0109 26.3059L20.3416 28.2382L22.202 32.4386L25.4375 31.5145C25.9228 32.1026 26.489 32.6907 27.0552 33.1947L26.1655 36.5551L30.2098 38.4873L32.1511 35.631C32.8791 35.799 33.6879 35.799 34.4159 35.799L35.791 38.9914L40.078 37.8152L39.9162 36.051L39.7544 34.3708C40.078 34.2028 40.4015 33.9508 40.7251 33.7828C41.0486 33.5308 41.3722 33.2787 41.6148 33.0267L44.6885 34.5389L47.196 30.7584L44.7694 28.3222C45.0121 27.5661 45.2547 26.81 45.3356 26.0539L48.652 24.9618ZM38.2985 30.0024C37.9749 30.2544 37.6514 30.4224 37.4087 30.5904C34.335 32.1866 30.5333 31.2625 28.4303 28.2382C26.1655 24.8778 26.9743 20.3413 30.1289 17.989C30.3716 17.821 30.6951 17.653 31.0187 17.485C34.0924 15.8048 37.9749 16.7289 39.9971 19.8372C42.2619 23.0296 41.4531 27.6501 38.2985 30.0024Z" fill="#F62F48"/>
<path d="M43.0727 44.5361L44.4478 41.8478C44.5287 41.7638 44.6905 41.6798 44.8523 41.7638L52.7792 45.9643C53.0218 46.0483 53.1027 46.3003 53.0218 46.4683L51.4041 49.5767C51.3232 49.7447 51.0805 49.7447 50.9188 49.5767L43.2345 44.9562C43.0727 44.8722 42.9919 44.7041 43.0727 44.5361Z" fill="#B1BAC3"/>
<path d="M50.1109 49.2409L52.0522 45.4605C52.1331 45.2925 52.3757 45.2925 52.6184 45.4605L54.8832 46.7206C55.1259 46.8886 55.2068 47.0567 55.2068 47.2247L53.2655 51.0051C53.1846 51.1731 52.9419 51.1731 52.6993 51.0051L50.4344 49.745C50.1918 49.5769 50.03 49.4089 50.1109 49.2409Z" fill="#788F9B"/>
<path d="M50.5144 49.745L52.7792 45.4605C52.8601 45.2925 53.2645 45.2925 53.669 45.4605L65.802 51.9292C66.2873 52.1812 66.6108 52.6013 66.53 52.8533L63.9416 57.8939C63.8607 58.1459 63.2945 58.0619 62.8092 57.7259L50.9997 50.5011C50.5952 50.333 50.4335 49.997 50.5144 49.745Z" fill="#0EC0C0"/>
<path d="M47.3588 43.1079L45.6602 46.3843L45.9837 46.6363L48.8147 48.3165L49.2192 48.5685L50.9987 45.0401L47.3588 43.1079Z" fill="#788F9B"/>
<path d="M45.7393 47.2245L48.085 42.772C48.1659 42.604 48.4086 42.604 48.5704 42.688L50.6734 43.8641C50.9161 43.9481 50.997 44.2002 50.9161 44.3682L48.5704 48.8207C48.4895 48.9887 48.2468 48.9887 48.085 48.9047L45.982 47.6446C45.7393 47.5605 45.6584 47.3085 45.7393 47.2245Z" fill="#0EC0C0"/>
<path opacity="0.54" d="M44.3679 42.0996L65.8029 54.281L64.7514 56.2132L43.3164 44.0318L44.3679 42.0996Z" fill="#B1BAC3"/>
<path d="M36.5239 50.8372C45.4214 46.8888 49.6275 36.2196 45.8259 26.9785C42.1051 17.6535 31.8324 13.369 22.854 17.2335C13.9564 21.1819 9.75033 31.8511 13.552 41.0921C17.2728 50.4172 27.6263 54.7857 36.5239 50.8372ZM35.5532 48.401C27.9499 51.7613 19.1332 48.0649 15.8977 40.084C12.6623 32.1871 16.2213 23.0301 23.9055 19.6697C31.5089 16.3093 40.3256 20.0058 43.561 27.9867C46.7156 35.8835 43.1566 45.0406 35.5532 48.401Z" fill="#B1BAC3"/>
<path d="M35.31 47.897C42.7516 44.7046 46.1488 35.8837 43.0751 28.1548C39.9206 20.5099 31.4274 16.8975 24.0667 20.1739C16.706 23.4503 13.2279 32.2713 16.3825 39.9161C19.4562 47.561 27.9493 51.1734 35.31 47.897ZM35.5527 49.4092C27.7066 52.8536 18.5664 48.9891 15.2501 40.8402C11.9337 32.6073 15.5736 23.1982 23.5005 19.7538C31.3466 16.3095 40.4868 20.1739 43.8031 28.3228C47.1195 36.4717 43.4796 45.9648 35.5527 49.4092Z" fill="#788F9B"/>
<path opacity="0.34" d="M19.1284 43.4443C17.1871 41.0921 15.8929 38.0677 15.812 34.8754C15.6502 31.515 16.1355 28.2386 18.1577 25.5503C19.0475 24.2902 20.1799 23.2821 21.3932 22.3579C21.9594 21.9379 22.6065 21.6019 23.3345 21.2658C23.8198 21.0138 24.8713 20.9298 25.2758 20.5938C23.2536 22.3579 21.4741 24.5422 20.5843 27.1465C19.4519 30.4229 19.9372 34.2033 21.7167 37.0596C22.6065 38.4878 23.7389 39.7479 25.1949 40.672C26.7317 41.6801 28.5921 41.6801 30.129 42.5202C31.0996 43.1083 32.0702 43.9484 32.4747 45.0405C33.7689 48.4009 29.4819 48.8209 27.2979 48.3169C24.0624 47.7288 21.2314 45.8806 19.1284 43.4443Z" fill="#F0F1F1"/>
</svg>
