<svg width="70" height="70" viewBox="0 0 70 70" fill="none" xmlns="http://www.w3.org/2000/svg">
<path opacity="0.97" d="M61.325 3H5.575C2.49601 3 0 5.37715 0 8.30953V61.4048C0 64.3372 2.49601 66.7143 5.575 66.7143H61.325C64.404 66.7143 66.9 64.3372 66.9 61.4048V8.30953C66.9 5.37715 64.404 3 61.325 3Z" fill="#7C30B7"/>
<path opacity="0.15" d="M8.36471 13.5952C8.11828 13.5952 7.88195 13.6884 7.70769 13.8544C7.53344 14.0203 7.43555 14.2455 7.43555 14.4802V58.7263C7.43555 58.961 7.53344 59.186 7.70769 59.352C7.88195 59.5179 8.11828 59.6112 8.36471 59.6112H54.8082C55.0546 59.6112 55.291 59.5179 55.4652 59.352C55.6395 59.186 55.7374 58.961 55.7374 58.7263V14.4802C55.7374 14.2455 55.6395 14.0203 55.4652 13.8544C55.291 13.6884 55.0546 13.5952 54.8082 13.5952H8.36471Z" fill="#827878"/>
<path d="M11.1523 17.1353H55.7375V56.0718H11.1523V17.1353Z" fill="#E9EDED"/>
<path d="M13.0098 18.9048H53.8783V54.3016H13.0098V18.9048Z" fill="#FEE556"/>
<path d="M10.2221 11.8257C9.97571 11.8257 9.73937 11.9189 9.56512 12.0848C9.39086 12.2508 9.29297 12.4759 9.29297 12.7106V56.9568C9.29297 57.1915 9.39086 57.4165 9.56512 57.5824C9.73937 57.7484 9.97571 57.8417 10.2221 57.8417H56.6656C56.9121 57.8417 57.1484 57.7484 57.3227 57.5824C57.4969 57.4165 57.5948 57.1915 57.5948 56.9568V12.7106C57.5948 12.4759 57.4969 12.2508 57.3227 12.0848C57.1484 11.9189 56.9121 11.8257 56.6656 11.8257H10.2221ZM11.1513 17.1353H55.7365V56.0719H11.1513V17.1353Z" fill="#FAFDFF"/>
<path d="M13.9389 15.3652C14.4521 15.3652 14.8681 14.969 14.8681 14.4802C14.8681 13.9915 14.4521 13.5952 13.9389 13.5952C13.4258 13.5952 13.0098 13.9915 13.0098 14.4802C13.0098 14.969 13.4258 15.3652 13.9389 15.3652Z" fill="#F8B74E" fill-opacity="0.976"/>
<path d="M17.6577 15.3652C18.1708 15.3652 18.5869 14.969 18.5869 14.4802C18.5869 13.9915 18.1708 13.5952 17.6577 13.5952C17.1445 13.5952 16.7285 13.9915 16.7285 14.4802C16.7285 14.969 17.1445 15.3652 17.6577 15.3652Z" fill="#7C30B7"/>
<path d="M21.3725 15.3652C21.8857 15.3652 22.3017 14.969 22.3017 14.4802C22.3017 13.9915 21.8857 13.5952 21.3725 13.5952C20.8594 13.5952 20.4434 13.9915 20.4434 14.4802C20.4434 14.969 20.8594 15.3652 21.3725 15.3652Z" fill="#FEE556"/>
<path d="M47.3967 48.1225C51.4223 44.2886 51.4747 38.1225 47.5137 34.3501C43.5527 30.5777 37.0782 30.6275 33.0527 34.4614C29.0271 38.2953 28.9747 44.4615 32.9357 48.2338C36.8967 52.0062 43.3712 51.9564 47.3967 48.1225Z" fill="#E9EDED"/>
<path opacity="0.15" d="M42.7715 27.7534V52.5312H48.3465V27.7534H42.7715ZM24.1882 29.5233V52.5312H29.7632V29.5233H24.1882ZM33.4798 36.6026V52.5312H39.0548V36.6026H33.4798ZM14.8965 41.9122V52.5312H20.4715V41.9122H14.8965Z" fill="#827878"/>
<path d="M40.8856 36.603H35.3105V52.5316H40.8856V36.603Z" fill="#75808B"/>
<path d="M22.2996 41.9126H16.7246V52.5317H22.2996V41.9126Z" fill="#75808B"/>
<path d="M22.2996 45.4521H16.7246V52.5315H22.2996V45.4521Z" fill="#7C30B7"/>
<path d="M31.5945 29.5234H26.0195V52.5314H31.5945V29.5234Z" fill="#75808B"/>
<path d="M31.5945 40.1426H26.0195V52.5315H31.5945V40.1426Z" fill="#7C30B7"/>
<path d="M40.8856 40.1426H35.3105V52.5315H40.8856V40.1426Z" fill="#7C30B7"/>
<path d="M50.1766 27.7534H44.6016V52.5312H50.1766V27.7534Z" fill="#75808B"/>
<path d="M50.1766 31.293H44.6016V52.5311H50.1766V31.293Z" fill="#7C30B7"/>
<path opacity="0.15" fill-rule="evenodd" clip-rule="evenodd" d="M38.4491 30.6647C35.4787 30.6876 32.6372 31.8238 30.54 33.8274C26.1655 37.9936 26.1023 44.7333 30.4248 48.8499C34.5261 52.7577 41.1084 52.8941 45.5089 49.3349L48.1682 51.8676C48.0166 52.2547 47.9864 52.6752 48.0811 53.0783C48.1757 53.4814 48.3913 53.8496 48.7015 54.1383L57.4859 62.5042C57.9073 62.8963 58.474 63.1146 59.0631 63.1115C59.6523 63.1084 60.2164 62.8843 60.6333 62.4878C61.0501 62.0912 61.2861 61.5543 61.29 60.9932C61.294 60.4321 61.0656 59.8919 60.6543 59.4901L51.8719 51.1242C51.5683 50.8277 51.1807 50.6218 50.7563 50.5316C50.3319 50.4414 49.8891 50.4708 49.482 50.6163L46.8228 48.0819C50.5617 43.8926 50.4168 37.6237 46.3136 33.7159C45.282 32.7343 44.055 31.9589 42.7045 31.4349C41.354 30.911 39.9073 30.649 38.4491 30.6647ZM38.4565 32.424C39.6701 32.411 40.8742 32.6293 41.9979 33.0661C43.1216 33.5028 44.1422 34.1493 44.9997 34.9673C48.6012 38.3972 48.5603 43.9863 44.8845 47.4888C41.2069 50.9896 35.3382 51.0285 31.7386 47.5986C28.1372 44.1686 28.1781 38.5795 31.8539 35.077C33.6023 33.3993 35.9746 32.4454 38.4565 32.4223V32.424Z" fill="#827878"/>
<path fill-rule="evenodd" clip-rule="evenodd" d="M40.3046 30.6647C37.3341 30.6876 34.4927 31.8238 32.3955 33.8274C28.021 37.9936 27.9578 44.7332 32.2803 48.8499C36.3816 52.7577 42.9638 52.8941 47.3644 49.3349L50.0237 51.8676C49.8721 52.2546 49.8418 52.6752 49.9365 53.0783C50.0312 53.4814 50.2468 53.8496 50.557 54.1383L59.3413 62.5042C59.5463 62.7141 59.7935 62.8825 60.0683 62.9994C60.343 63.1162 60.6397 63.1793 60.9406 63.1845C61.2415 63.1897 61.5403 63.1371 61.8194 63.0298C62.0985 62.9226 62.3519 62.7628 62.5647 62.5601C62.7775 62.3575 62.9452 62.116 63.0578 61.8502C63.1705 61.5844 63.2257 61.2998 63.2202 61.0133C63.2148 60.7267 63.1487 60.4442 63.026 60.1826C62.9033 59.9209 62.7265 59.6853 62.5061 59.4901L53.7236 51.1242C53.4204 50.8284 53.0334 50.6229 52.6098 50.5327C52.1861 50.4425 51.7441 50.4716 51.3375 50.6163L48.6782 48.0819C52.4153 43.8926 52.2722 37.6237 48.169 33.7159C47.1375 32.7343 45.9105 31.9589 44.56 31.4349C43.2095 30.911 41.7627 30.649 40.3046 30.6647ZM40.312 32.424C41.5256 32.411 42.7297 32.6293 43.8534 33.0661C44.977 33.5028 45.9977 34.1493 46.8552 34.9673C50.4566 38.3972 50.4158 43.9863 46.74 47.4888C43.0623 50.9896 37.1937 51.0285 33.5941 47.5986C29.9927 44.1686 30.0335 38.5795 33.7093 35.077C35.4578 33.3993 37.8301 32.4454 40.312 32.4223V32.424Z" fill="#F8B74E" fill-opacity="0.98"/>
</svg>
