<svg width="70" height="70" viewBox="0 0 70 70" fill="none" xmlns="http://www.w3.org/2000/svg">
<g clip-path="url(#clip0_386_6450)">
<path d="M32.0684 57.6792V45.3424H49.0682V57.6792H32.0684Z" fill="white"/>
<path d="M32.3895 57.359H48.7414V45.6632H32.3895V57.359ZM49.0657 58H32.0659C31.8873 58 31.7422 57.8564 31.7422 57.6795V45.3427C31.7422 45.1658 31.8873 45.0222 32.0659 45.0222H49.0657C49.2443 45.0222 49.3894 45.1658 49.3894 45.3427V57.6795C49.3894 57.8564 49.2443 58 49.0657 58Z" fill="#7C30B7" stroke="#7C30B7"/>
<path d="M16.1973 26.8374H33.1971V14.5007H16.1973V26.8374Z" fill="white"/>
<path d="M16.5191 26.5166H32.871V14.8214H16.5191V26.5166ZM33.1953 27.1582H16.1954C16.0162 27.1582 15.8711 27.0146 15.8711 26.8371V14.5009C15.8711 14.3234 16.0162 14.1798 16.1954 14.1798H33.1953C33.3739 14.1798 33.5189 14.3234 33.5189 14.5009V26.8371C33.5189 27.0146 33.3739 27.1582 33.1953 27.1582Z" fill="#7C30B7" stroke="#7C30B7"/>
<path d="M0.324219 57.6792V45.3424H17.3241V57.6792H0.324219Z" fill="white"/>
<path d="M0.647976 57.359H16.9999V45.6632H0.647976V57.359ZM17.3242 58H0.323673C0.145073 58 0 57.8564 0 57.6795V45.3427C0 45.1658 0.145073 45.0222 0.323673 45.0222H17.3242C17.5028 45.0222 17.6478 45.1658 17.6478 45.3427V57.6795C17.6478 57.8564 17.5028 58 17.3242 58Z" fill="#7C30B7" stroke="#7C30B7"/>
<path d="M24.494 38.2437C24.3167 38.2437 24.1717 38.1026 24.1704 37.9264C24.1555 36.4688 24.1575 34.6794 24.1594 32.7852C24.162 30.7792 24.1646 28.705 24.1465 26.9143C24.1446 26.7374 24.2884 26.5925 24.467 26.5906C24.6462 26.588 24.7926 26.731 24.7938 26.9079C24.8119 28.7025 24.81 30.7786 24.8074 32.7858C24.8055 34.6781 24.8029 36.4656 24.8177 37.92C24.8196 38.0968 24.6765 38.2417 24.4973 38.2437H24.494Z" fill="#7C30B7"/>
<path d="M24.494 38.2437C24.3167 38.2437 24.1717 38.1026 24.1704 37.9264C24.1555 36.4688 24.1575 34.6794 24.1594 32.7852C24.162 30.7792 24.1646 28.705 24.1465 26.9143C24.1446 26.7374 24.2884 26.5925 24.467 26.5906C24.6462 26.588 24.7926 26.731 24.7938 26.9079C24.8119 28.7025 24.81 30.7786 24.8074 32.7858C24.8055 34.6781 24.8029 36.4656 24.8177 37.92C24.8196 38.0968 24.6765 38.2417 24.4973 38.2437H24.494" stroke="#7C30B7"/>
<path d="M41.2102 45.4995L41.2031 45.4989C41.0238 45.495 40.882 45.3489 40.8859 45.172C40.9291 43.1393 40.9413 41.0797 40.9213 39.0515C40.9194 38.8555 40.9168 38.6537 40.8491 38.498C40.7769 38.3313 40.7621 38.3103 40.6131 38.3064C33.7232 38.1353 25.9873 38.2228 19.1618 38.2994C15.6176 38.339 12.2699 38.3767 9.30852 38.3767L9.28532 38.376C9.20666 38.3709 9.07512 38.4341 9.02612 38.5158C8.95971 38.6282 8.9507 38.791 8.94748 38.9927C8.90686 40.9648 8.92168 42.9669 8.98938 44.9428C8.99583 45.1203 8.85591 45.2684 8.67666 45.2748C8.50902 45.2793 8.34848 45.142 8.34203 44.9652C8.27369 42.9771 8.25949 40.9635 8.29947 38.98C8.30398 38.7597 8.30979 38.4565 8.46841 38.1896C8.63669 37.9074 8.99453 37.7191 9.31885 37.7357C12.2738 37.7357 15.6162 37.698 19.1547 37.6578C25.9853 37.5812 33.727 37.4944 40.6292 37.6655C41.1986 37.6789 41.3643 38.0606 41.4442 38.2439C41.5635 38.5184 41.5667 38.8102 41.5687 39.0451C41.5893 41.0804 41.5771 43.1463 41.5339 45.1854C41.53 45.3603 41.3856 45.4995 41.2102 45.4995Z" fill="#7C30B7"/>
<path d="M41.2102 45.4995L41.2031 45.4989C41.0238 45.495 40.882 45.3489 40.8859 45.172C40.9291 43.1393 40.9413 41.0797 40.9213 39.0515C40.9194 38.8555 40.9168 38.6537 40.8491 38.498C40.7769 38.3313 40.7621 38.3103 40.6131 38.3064C33.7232 38.1353 25.9873 38.2228 19.1618 38.2994C15.6176 38.339 12.2699 38.3767 9.30852 38.3767L9.28532 38.376C9.20666 38.3709 9.07512 38.4341 9.02612 38.5158C8.95971 38.6282 8.9507 38.791 8.94748 38.9927C8.90686 40.9648 8.92168 42.9669 8.98938 44.9428C8.99583 45.1203 8.85591 45.2684 8.67666 45.2748C8.50902 45.2793 8.34848 45.142 8.34203 44.9652C8.27369 42.9771 8.25949 40.9635 8.29947 38.98C8.30398 38.7597 8.30979 38.4565 8.46841 38.1896C8.63669 37.9074 8.99453 37.7191 9.31885 37.7357C12.2738 37.7357 15.6162 37.698 19.1547 37.6578C25.9853 37.5812 33.727 37.4944 40.6292 37.6655C41.1986 37.6789 41.3643 38.0607 41.4442 38.2439C41.5635 38.5184 41.5667 38.8102 41.5687 39.0451C41.5893 41.0804 41.5771 43.1463 41.5339 45.1854C41.53 45.3603 41.3856 45.4995 41.2102 45.4995" stroke="#7C30B7"/>
<path d="M1.26088 48.6538L1.19448 48.6315L1.17578 48.4808L3.02173 46.1429L3.1726 46.1244L3.1913 46.2751L1.34598 48.6129L1.26088 48.6538Z" fill="#FEE13E"/>
<path d="M1.54276 50.8916L1.48023 50.8718L1.45508 50.7224C2.53377 49.2215 3.6737 47.7302 4.8433 46.2899L4.99483 46.2739L5.01161 46.4239C3.84458 47.8604 2.70721 49.3485 1.6311 50.8463L1.54276 50.8916Z" fill="#FEE13E"/>
<path d="M1.59228 53.3159L1.52459 53.2923L1.50781 53.1423L7.01284 46.3003L7.16433 46.2831L7.18111 46.4338L1.67612 53.2757L1.59228 53.3159Z" fill="#FEE13E"/>
<path d="M1.42954 56.4429L1.35864 56.4167L1.34766 56.266C4.12917 53.0841 6.85008 49.7739 9.43365 46.428L9.58518 46.4082L9.6058 46.5576C7.01901 49.9074 4.29554 53.2208 1.5108 56.4058L1.42954 56.4429Z" fill="#FEE13E"/>
<path d="M3.65349 56.8882L3.58451 56.8633L3.57031 56.7126C6.41308 53.3092 9.31518 49.8745 12.1947 46.5043L12.3469 46.4915L12.3598 46.6422C9.48024 50.0118 6.57943 53.4458 3.73667 56.8492L3.65349 56.8882Z" fill="#FEE13E"/>
<path d="M6.02915 56.8784L5.9608 56.8542L5.94531 56.7035L14.4652 46.3713L14.6168 46.356L14.6322 46.5066L6.11296 56.8388L6.02915 56.8784Z" fill="#FEE13E"/>
<path d="M8.74591 56.8911L8.68144 56.8694L8.66016 56.72C11.078 53.5401 13.641 50.4054 16.2774 47.4016L16.4296 47.3908L16.4399 47.5421C13.8073 50.5414 11.2476 53.6728 8.8323 56.8483L8.74591 56.8911Z" fill="#FEE13E"/>
<path d="M11.2772 56.8892L11.2121 56.8674L11.1914 56.7181C12.8375 54.5762 14.5642 52.454 16.3224 50.4105L16.4753 50.3983L16.4869 50.549C14.7312 52.59 13.0071 54.7089 11.3629 56.847L11.2772 56.8892Z" fill="#FEE13E"/>
<path d="M13.6763 56.9019L13.6099 56.8789L13.5918 56.7288C14.3907 55.7227 15.2456 54.7434 16.1335 53.8189L16.2863 53.8151L16.2901 53.9664C15.4068 54.8857 14.5557 55.8599 13.7614 56.861L13.6763 56.9019Z" fill="#FEE13E"/>
<path d="M15.7642 56.9448L15.6945 56.9193L15.6816 56.7686L16.2323 56.1213L16.3851 56.1085L16.398 56.2592L15.8467 56.9065L15.7642 56.9448Z" fill="#FEE13E"/>
<path d="M50.8311 36.4199L57.4135 42.8315C58.5824 43.9705 59.7914 45.1477 61.079 46.1469C61.7424 46.6608 62.4607 47.1371 63.2164 47.1377H63.217C63.5871 47.1377 63.9765 46.9698 64.2583 46.6889C64.5117 46.4367 64.6497 46.1181 64.6471 45.7925C64.6432 45.1688 64.1887 44.6427 63.7238 44.1575C60.2285 40.5071 56.5379 37.0028 52.7493 33.736C52.1535 34.5991 51.5345 35.4884 50.8311 36.4199ZM63.217 47.7793H63.2164C62.264 47.7787 61.4342 47.2366 60.6799 46.6519C59.3626 45.6304 58.1408 44.4397 56.9589 43.2887L50.1747 36.6797C50.0587 36.5674 50.0458 36.3867 50.1438 36.2584C50.9916 35.1488 51.7176 34.0954 52.4191 33.0771C52.4714 33.0012 52.5539 32.9514 52.6455 32.9399C52.7351 32.9277 52.8292 32.9552 52.8988 33.0152C56.7997 36.3624 60.5999 39.9631 64.1945 43.7164C64.7238 44.2693 65.2893 44.9307 65.2951 45.7874C65.2983 46.286 65.0939 46.7668 64.718 47.1409C64.317 47.5405 63.756 47.7793 63.217 47.7793Z" fill="#7C30B7" stroke="#7C30B7"/>
<path d="M41.5736 36.6614C35.6579 36.6614 30.8622 31.9129 30.8622 26.0554C30.8622 20.1979 35.6579 15.4493 41.5736 15.4493C47.4893 15.4493 52.2851 20.1979 52.2851 26.0554C52.2851 31.9129 47.4893 36.6614 41.5736 36.6614ZM41.5736 36.6614C35.6579 36.6614 30.8622 31.9129 30.8622 26.0554C30.8622 20.1979 35.6579 15.4493 41.5736 15.4493C47.4893 15.4493 52.2851 20.1979 52.2851 26.0554C52.2851 31.9129 47.4893 36.6614 41.5736 36.6614ZM41.5736 12.0912C33.7849 12.0912 27.4707 18.3432 27.4707 26.0554C27.4707 33.7675 33.7849 40.0195 41.5736 40.0195C49.363 40.0195 55.6766 33.7675 55.6766 26.0554C55.6766 18.3432 49.363 12.0912 41.5736 12.0912Z" fill="white"/>
<path d="M31.1879 26.0552C31.1879 31.7263 35.8476 36.3401 41.575 36.3401C47.3031 36.3401 51.9622 31.7263 51.9622 26.0552C51.9622 20.3835 47.3031 15.7703 41.575 15.7703C35.8476 15.7703 31.1879 20.3835 31.1879 26.0552ZM41.575 36.9818C35.4904 36.9818 30.5399 32.08 30.5399 26.0552C30.5399 20.0304 35.4904 15.1286 41.575 15.1286C47.6603 15.1286 52.6102 20.0304 52.6102 26.0552C52.6102 32.08 47.6603 36.9818 41.575 36.9818ZM41.575 12.4115C33.9778 12.4115 27.7958 18.5321 27.7958 26.0552C27.7958 33.5783 33.9778 39.6989 41.575 39.6989C49.1729 39.6989 55.3543 33.5783 55.3543 26.0552C55.3543 18.5321 49.1729 12.4115 41.575 12.4115ZM41.575 40.3398C33.6206 40.3398 27.1484 33.932 27.1484 26.0552C27.1484 18.1784 33.6206 11.7706 41.575 11.7706C49.5301 11.7706 56.0023 18.1784 56.0023 26.0552C56.0023 33.932 49.5301 40.3398 41.575 40.3398Z" fill="#7C30B7" stroke="#7C30B7"/>
<path d="M53.4068 38.3564L53.3926 38.3558C53.3333 38.3481 53.292 38.2945 53.2998 38.2358C53.4326 37.2283 53.5925 36.2133 53.775 35.2186C53.7859 35.1605 53.8426 35.1216 53.9007 35.1331C53.9593 35.1433 53.998 35.1988 53.9877 35.2569C53.8059 36.2477 53.646 37.2596 53.5138 38.2632L53.4068 38.3564Z" fill="#FEE13E"/>
<path d="M54.9443 39.8184C54.8843 39.8184 54.8359 39.7705 54.8359 39.7117C54.8359 39.2087 54.9139 38.3647 54.9829 37.6203C55.0248 37.167 55.061 36.775 55.0739 36.5292C55.0764 36.4698 55.1177 36.4252 55.1867 36.4277C55.246 36.4303 55.2918 36.4807 55.2892 36.5394C55.2763 36.7903 55.2402 37.1842 55.1983 37.6401C55.1293 38.38 55.0519 39.2182 55.0519 39.7117C55.0519 39.7705 55.0036 39.8184 54.9443 39.8184Z" fill="#FEE13E"/>
<path d="M56.5229 41.2583C56.4649 41.2583 56.4165 41.2123 56.4152 41.1542L56.334 37.5874C56.3327 37.5287 56.3798 37.4795 56.4397 37.4782C56.5055 37.4833 56.5487 37.5235 56.55 37.5829L56.6312 41.1491C56.6325 41.2079 56.5855 41.257 56.5255 41.2583H56.5229Z" fill="#FEE13E"/>
<path d="M57.646 42.6279C57.5879 42.6279 57.5396 42.582 57.5383 42.5239L57.4571 38.957C57.4558 38.8983 57.5028 38.8491 57.5628 38.8478C57.6285 38.853 57.6717 38.8932 57.673 38.9525L57.7543 42.5188C57.7556 42.5775 57.7085 42.6267 57.6485 42.6279H57.646Z" fill="#FEE13E"/>
<path d="M59.5506 44.1655L59.443 44.0647L59.2521 40.5757C59.2489 40.517 59.2947 40.4665 59.354 40.4633C59.4191 40.4589 59.4642 40.5055 59.4675 40.5642L59.6583 44.0532C59.6615 44.1119 59.6158 44.1623 59.5565 44.1655H59.5506Z" fill="#FEE13E"/>
<path d="M61.0658 45.3945L60.9581 45.2962L60.6938 41.8992C60.6886 41.8404 60.7331 41.7894 60.7931 41.7849C60.8459 41.7804 60.904 41.8238 60.9085 41.8826L61.1735 45.2796C61.178 45.3383 61.1335 45.3894 61.0742 45.3945H61.0658Z" fill="#FEE13E"/>
<path d="M62.4972 46.4985L62.3902 46.4028L62.0807 43.4239C62.0743 43.3645 62.1175 43.3122 62.1768 43.3064C62.2335 43.3007 62.289 43.3428 62.2954 43.4016L62.6049 46.3811C62.6107 46.4398 62.5682 46.4922 62.5082 46.4979L62.4972 46.4985Z" fill="#FEE13E"/>
<path d="M63.8993 46.3408L63.793 46.2508L63.5757 44.9197C63.566 44.8616 63.606 44.8067 63.6646 44.7971C63.724 44.7882 63.7794 44.8271 63.7884 44.8859L64.0057 46.217C64.0154 46.2751 63.9754 46.33 63.9167 46.3396L63.8993 46.3408Z" fill="#FEE13E"/>
<path d="M52.219 36.8516L52.1887 36.8471L52.1152 36.7149L52.3635 35.855C52.377 35.8084 52.4196 35.7777 52.4666 35.7777C52.4763 35.7777 52.4866 35.779 52.4969 35.7822L52.5711 35.9144L52.3229 36.7737L52.219 36.8516Z" fill="#FEE13E"/>
<path d="M37.7553 31.6182C37.5767 31.6182 37.4316 31.4745 37.4316 31.297V24.2572C37.4316 24.0803 37.5767 23.9367 37.7553 23.9367C37.9339 23.9367 38.079 24.0803 38.079 24.2572V31.297C38.079 31.4745 37.9339 31.6182 37.7553 31.6182Z" fill="#FEE13E" stroke="#FEE556"/>
<path d="M44.8842 31.6182C44.7056 31.6182 44.5605 31.4745 44.5605 31.297V24.2572C44.5605 24.0803 44.7056 23.9367 44.8842 23.9367C45.0635 23.9367 45.2085 24.0803 45.2085 24.2572V31.297C45.2085 31.4745 45.0635 31.6182 44.8842 31.6182Z" fill="#FEE13E" stroke="#FEE556"/>
<path d="M41.3185 31.6182C41.1392 31.6182 40.9941 31.4745 40.9941 31.297V19.9657C40.9941 19.7889 41.1392 19.6452 41.3185 19.6452C41.4971 19.6452 41.6421 19.7889 41.6421 19.9657V31.297C41.6421 31.4745 41.4971 31.6182 41.3185 31.6182Z" fill="#FEE13E" stroke="#FEE556"/>
</g>
<defs>
<clipPath id="clip0_386_6450">
<rect width="70" height="70" fill="white"/>
</clipPath>
</defs>
</svg>
