<svg width="70" height="70" viewBox="0 0 70 70" fill="none" xmlns="http://www.w3.org/2000/svg">
<path d="M34.3666 34.9672C35.3828 36.6115 35.0529 38.6535 33.6332 39.5298C32.2142 40.4068 30.2407 39.7838 29.226 38.1395C28.2113 36.4959 28.5397 34.4532 29.9594 33.5769C31.3784 32.7007 33.3526 33.3229 34.3666 34.9672Z" fill="#7CE9F7"/>
<path d="M29.2252 38.1395C30.2399 39.7838 32.2134 40.4068 33.6324 39.5298C35.0521 38.6535 35.382 36.6115 34.3658 34.9672C34.2516 34.7809 34.1213 34.6086 33.9843 34.4495L28.9395 37.5776C29.0182 37.7691 29.1125 37.9569 29.2252 38.1395Z" fill="#60C6E6"/>
<path d="M26.8173 58.3599C27.5169 59.4969 27.4013 60.843 26.5567 61.3628L24.8763 62.4011C24.0316 62.9225 22.7769 62.424 22.0758 61.2877L16.5125 52.2753C15.8093 51.1376 15.9256 49.7915 16.7732 49.2709L18.4507 48.234C19.2953 47.7127 20.5515 48.2112 21.2518 49.346L26.8173 58.3599Z" fill="#7CE9F7"/>
<path d="M42.1671 30.0839L36.1841 33.7769C35.905 33.9492 35.5361 33.8637 35.3623 33.5824C35.19 33.3019 35.2754 32.9337 35.5567 32.7614L41.5405 29.067C41.8218 28.8947 42.1877 28.9823 42.3601 29.2622C42.5346 29.5442 42.4484 29.9094 42.1671 30.0839Z" fill="#002254"/>
<path d="M42.1671 30.0839L36.1841 33.7769C35.905 33.9492 35.5361 33.8637 35.3623 33.5824C35.19 33.3019 35.2754 32.9337 35.5567 32.7614L41.5405 29.067C41.8218 28.8947 42.1877 28.9823 42.3601 29.2622C42.5346 29.5442 42.4484 29.9094 42.1671 30.0839Z" fill="#002254"/>
<path d="M37.8769 25.5884L35.0934 32.0464C34.9653 32.3498 34.6126 32.4883 34.3099 32.3587C34.0073 32.2276 33.8681 31.8771 33.9977 31.5737L36.7804 25.1164C36.91 24.8145 37.262 24.6731 37.5654 24.8035C37.8673 24.9338 38.0065 25.2851 37.8769 25.5884Z" fill="#002254"/>
<path d="M43.6361 34.9164L36.6162 34.5128C36.2885 34.4922 36.0043 34.7441 35.9874 35.0732C35.9682 35.4024 36.2171 35.6851 36.5485 35.7028L43.5683 36.11C43.8953 36.127 44.1795 35.8759 44.1987 35.5474C44.2185 35.2198 43.966 34.9377 43.6361 34.9164Z" fill="#001133"/>
<path d="M25.845 56.7858L25.0453 55.4883L20.2832 58.386L20.348 58.4927L21.0719 59.6636L25.845 56.7858Z" fill="#FFF385"/>
<path d="M26.8195 58.3602L26.5102 57.8587L21.7422 60.746L22.078 61.288L22.1877 61.439L26.9425 58.598C26.902 58.517 26.8688 58.4375 26.8195 58.3602Z" fill="white"/>
<path d="M23.5305 25.0339C23.7521 29.5972 16.1211 38.6281 16.1211 38.6281L19.2006 43.6155L22.2816 48.6074C22.2816 48.6074 33.7734 45.832 37.755 48.0743L30.7779 36.4712L23.5305 25.0339Z" fill="#002254"/>
<path d="M37.7556 48.0743L30.7784 36.4712L30.7637 36.4477L19.2012 43.6155L22.2822 48.6074C22.2822 48.6074 33.774 45.832 37.7556 48.0743Z" fill="#001133"/>
<path d="M38.9747 47.2711C39.1838 47.6106 38.957 48.1305 38.471 48.4331C37.9821 48.7343 37.4158 48.7019 37.2067 48.3632L23.0374 25.4089C22.8275 25.0695 23.0536 24.5496 23.5418 24.2499C24.0271 23.948 24.5955 23.9782 24.8032 24.3184L38.9747 47.2711Z" fill="#FFF385"/>
<path d="M30.1035 36.8566L37.2066 48.3632C37.4157 48.7019 37.982 48.7343 38.4709 48.4331C38.9569 48.1305 39.1837 47.6106 38.9746 47.2711L31.8686 35.7623L30.1035 36.8566Z" fill="#FCD751"/>
<path d="M16.2553 38.4111L10.7362 41.8183C9.26344 42.727 8.72588 44.5245 9.53442 45.8345L12.921 51.3219C13.7303 52.6305 15.5771 52.9559 17.0498 52.048L21.2987 49.4221L22.5697 48.6386L16.2553 38.4111Z" fill="white"/>
<path d="M11.2207 48.5649L12.9217 51.3219C13.731 52.6305 15.5778 52.9559 17.0506 52.048L21.2994 49.4221L22.5704 48.6386L19.3945 43.495L11.2207 48.5649Z" fill="#E3FDFF"/>
<path d="M36.1831 33.7769L42.1661 30.084C42.4474 29.9095 42.5336 29.5443 42.3591 29.2622L42.3539 29.2571L35.3672 33.5884C35.5417 33.8638 35.9055 33.9485 36.1831 33.7769Z" fill="#001133"/>
<path d="M44.6621 12.9489C44.6201 10.3473 42.6591 8.25888 40.235 8.1602C39.6945 5.14034 37.1407 2.90178 34.1533 3.0034C31.844 3.08366 29.8875 4.53871 28.9574 6.60203C28.6835 6.47611 28.3831 6.40544 28.0657 6.4106C26.8794 6.42974 25.9346 7.46358 25.9545 8.72057C25.9574 8.91203 25.9854 9.09686 26.0303 9.27433C24.0635 9.67418 22.5929 11.5195 22.6276 13.7154C22.6666 16.1778 24.5826 18.144 26.9074 18.1064L40.4795 17.8892V17.8715C42.8565 17.6499 44.7033 15.5188 44.6621 12.9489Z" fill="#60C6E6"/>
<path d="M43.8098 12.1932C43.7708 9.78894 41.9585 7.85963 39.7178 7.76906C39.2178 4.97747 36.8592 2.90973 34.0985 3.00546C31.9652 3.07836 30.1582 4.42224 29.2973 6.32871C29.0455 6.21163 28.7679 6.14759 28.4748 6.15274C27.3783 6.16968 26.5043 7.12547 26.5234 8.286C26.5256 8.46346 26.5521 8.63431 26.5941 8.79779C24.776 9.16745 23.4174 10.8729 23.4498 12.9008C23.4859 15.177 25.2568 16.9929 27.4041 16.959L39.9431 16.7572L39.9423 16.741C42.1412 16.5371 43.8481 14.568 43.8098 12.1932Z" fill="#7CE9F7"/>
<path d="M36.1721 9.62912L33.9181 6.90231L31.7539 9.69981L32.8577 9.68212L32.9903 18.0083L35.2016 17.9737L35.0668 9.64606L36.1721 9.62912Z" fill="#FFF385"/>
<path d="M40.7947 11.619L39.1003 9.56893L37.4707 11.6728L38.3028 11.6595L38.4022 17.9224L40.0642 17.8958L39.9626 11.6322L40.7947 11.619Z" fill="#FFF385"/>
<path d="M27.1953 11.8366L28.8242 9.73274L30.5193 11.7828L29.6879 11.7968L29.7881 18.0604L28.1276 18.0869L28.0267 11.8233L27.1953 11.8366Z" fill="#FFF385"/>
<path d="M52.6821 56.2491C52.5201 55.8286 52.7299 55.3566 53.1511 55.1939C53.5716 55.0319 54.0444 55.241 54.2064 55.6607C54.3684 56.0812 54.1585 56.554 53.738 56.7167C53.3183 56.8787 52.8455 56.6696 52.6821 56.2491ZM57.143 58.4479L54.5097 51.6225C54.0974 50.5533 52.9567 49.9973 51.9626 50.3802L37.5695 55.9361C36.5754 56.3198 36.1041 57.498 36.5165 58.5672L39.1512 65.3919C39.5636 66.4619 40.7049 67.0186 41.6991 66.6342L56.0922 61.079C57.0863 60.6953 57.5569 59.5179 57.143 58.4479Z" fill="#FFF385"/>
<path d="M51.9626 50.3801L37.5695 55.9361C36.5754 56.3197 36.1041 57.4979 36.5165 58.5671L37.8346 61.9795L52.6821 56.249C52.5201 55.8286 52.7299 55.3565 53.1511 55.1938C53.5716 55.0318 54.0444 55.2409 54.2064 55.6607L55.8264 55.0355L54.5097 51.6224C54.0974 50.5532 52.9567 49.9972 51.9626 50.3801Z" fill="#FCD751"/>
<path d="M52.6831 56.2494C52.5211 55.8289 52.731 55.3569 53.1522 55.1942C53.5727 55.0322 54.0454 55.2413 54.2074 55.661C54.3694 56.0815 54.1595 56.5543 53.7391 56.717C53.3193 56.879 52.8466 56.6699 52.6831 56.2494ZM56.1559 58.6669L53.6316 52.1264C53.3488 51.3945 52.5977 51.0027 51.9556 51.2502L38.1603 56.5734C37.5197 56.8223 37.2259 57.6176 37.5072 58.3488L40.0322 64.8893C40.3142 65.6197 41.0653 66.0137 41.7097 65.7655L55.5027 60.4416C56.1448 60.1941 56.4371 59.3974 56.1559 58.6669Z" fill="white"/>
<path d="M43.4021 60.9482C43.3535 60.8201 43.2652 60.7347 43.14 60.6905C43.0156 60.6456 42.869 60.6198 42.7019 60.608C42.5347 60.5962 42.3528 60.5889 42.1614 60.5822C41.9677 60.5764 41.7799 60.5506 41.5988 60.502C41.4183 60.4548 41.2497 60.3738 41.098 60.2582C40.9449 60.1419 40.8226 59.9659 40.7313 59.7303C40.6525 59.5248 40.6179 59.3356 40.629 59.1596C40.6393 58.9828 40.6871 58.8208 40.7748 58.6713C40.8631 58.5226 40.9839 58.3915 41.1356 58.2767C41.2895 58.1625 41.4729 58.0638 41.6849 57.9821C41.9279 57.8879 42.168 57.8201 42.3999 57.7789C42.6319 57.7369 42.8337 57.7295 43.0038 57.756L43.0126 58.5462C42.9036 58.5233 42.7512 58.5233 42.5575 58.5454C42.3631 58.569 42.1658 58.6176 41.9611 58.6964C41.7696 58.77 41.6363 58.8665 41.5627 58.9806C41.4898 59.0962 41.478 59.2185 41.5281 59.3466C41.5752 59.4666 41.6599 59.5484 41.7858 59.5918C41.9095 59.636 42.0575 59.6647 42.2261 59.678C42.3948 59.6905 42.5745 59.7015 42.7689 59.7096C42.9625 59.717 43.1503 59.7457 43.3322 59.7914C43.5141 59.8392 43.6812 59.9202 43.8322 60.0344C43.9846 60.1478 44.1039 60.3164 44.1908 60.5403C44.277 60.7649 44.3145 60.9725 44.3027 61.1625C44.2895 61.354 44.2401 61.5292 44.1466 61.6883C44.0546 61.8488 43.9228 61.9909 43.7541 62.1168C43.5833 62.2413 43.3837 62.3488 43.1562 62.4372C42.855 62.5528 42.5804 62.6272 42.33 62.6588C42.0811 62.6912 41.8911 62.6993 41.7622 62.6853L41.7549 61.8805C41.8079 61.8871 41.8749 61.8922 41.9552 61.893C42.0369 61.8937 42.1268 61.8893 42.2232 61.879C42.3204 61.8702 42.4213 61.8532 42.5266 61.8319C42.629 61.8098 42.7343 61.7788 42.8388 61.7391C43.0826 61.6448 43.2534 61.5314 43.3506 61.3989C43.45 61.2663 43.4669 61.1161 43.4021 60.9482Z" fill="#002254"/>
<path d="M43.584 57.3461L46.0766 56.3844L46.3594 57.1171L44.69 57.7607L45.0678 58.7386L46.5869 58.1532L46.8689 58.8859L45.3498 59.472L45.7467 60.4992L47.4455 59.8431L47.7283 60.5758L45.2062 61.5493L43.584 57.3461Z" fill="#002254"/>
<path d="M48.2631 57.9546C48.3441 58.1682 48.4384 58.356 48.5429 58.5202C48.6475 58.6829 48.7624 58.8162 48.8853 58.9148C49.0098 59.015 49.1416 59.0783 49.2859 59.1063C49.4303 59.1328 49.5827 59.1159 49.7432 59.0533C50.0348 58.9414 50.2174 58.7389 50.2889 58.4495C50.361 58.1593 50.2984 57.758 50.1011 57.2462C50.0216 57.0408 49.931 56.8582 49.8294 56.6947C49.727 56.532 49.6151 56.3994 49.4921 56.2948C49.3691 56.1903 49.2344 56.1233 49.0901 56.0953C48.9457 56.0643 48.7889 56.082 48.621 56.1468C48.3279 56.2602 48.1475 56.4649 48.0775 56.761C48.0083 57.0562 48.0702 57.4554 48.2631 57.9546ZM47.3986 58.2889C47.1283 57.5894 47.0738 56.99 47.2344 56.4929C47.3979 55.9951 47.7646 55.6358 48.3382 55.4141C48.6386 55.2993 48.9199 55.2499 49.185 55.2676C49.4494 55.2845 49.6924 55.3611 49.9141 55.4966C50.1364 55.6306 50.3367 55.8191 50.512 56.0592C50.688 56.3 50.8382 56.5842 50.9641 56.9119C51.2351 57.6129 51.2881 58.2131 51.1239 58.7101C50.9597 59.2087 50.5937 59.5673 50.0252 59.7867C49.7204 59.9038 49.4369 59.9531 49.1718 59.9355C48.9082 59.9185 48.6659 59.8419 48.4443 59.7065C48.2256 59.5702 48.0275 59.3825 47.8515 59.1417C47.6755 58.9016 47.5252 58.6181 47.3986 58.2889Z" fill="#002254"/>
<path d="M5.64025 36.071C6.93259 37.3604 6.9348 39.4524 5.64615 40.7455C4.35676 42.0378 2.26399 42.04 0.971651 40.7514C-0.321421 39.462 -0.324373 37.3692 0.965754 36.0769C2.25514 34.7845 4.34718 34.7816 5.64025 36.071Z" fill="white"/>
<path d="M0.693359 38.8062L4.59025 39.335L4.43929 36.4116L3.69629 38.4432L0.693359 38.8062Z" fill="#7CE9F7"/>
<path d="M60.9965 13.378L55.2837 20.4097L48.9082 15.23L54.621 8.19838L60.9965 13.378Z" fill="white"/>
<path d="M54.7251 13.3827C54.6529 13.396 54.5866 13.4196 54.527 13.4505C54.4681 13.4814 54.4092 13.533 54.3495 13.6059C54.2671 13.7082 54.2177 13.8268 54.2045 13.9608C54.1927 14.0963 54.2067 14.2325 54.2472 14.3717C54.2884 14.5094 54.3525 14.6434 54.4394 14.7701C54.527 14.8982 54.6257 15.0057 54.7347 15.0948C54.8473 15.1869 54.9585 15.2384 55.0682 15.2509C55.178 15.2627 55.2788 15.2126 55.3709 15.0992C55.4099 15.0521 55.4364 14.9881 55.4534 14.91C55.4673 14.8319 55.4725 14.7465 55.4666 14.6567C55.46 14.5669 55.4453 14.4726 55.4232 14.3739C55.4003 14.276 55.3701 14.1802 55.3318 14.0867L54.7251 13.3827ZM54.3687 12.5521L54.6588 12.1935L55.8532 13.572C55.9916 13.7296 56.1065 13.8261 56.2 13.8577C56.2921 13.8909 56.376 13.8621 56.4482 13.773C56.5211 13.6839 56.5704 13.5809 56.5984 13.4616C56.6279 13.3423 56.6264 13.2141 56.5962 13.0757C56.566 12.9372 56.5042 12.7936 56.4092 12.6464C56.3134 12.4969 56.1765 12.3504 55.999 12.2053C55.742 11.9969 55.4872 11.8621 55.2361 11.7995C54.9858 11.7377 54.7391 11.7333 54.5012 11.7863C54.2612 11.8386 54.0322 11.9446 53.8127 12.1022C53.5933 12.2598 53.3893 12.4557 53.2008 12.6884C52.9828 12.9557 52.8289 13.2429 52.7376 13.5507C52.6485 13.8585 52.6176 14.1655 52.6485 14.4711C52.678 14.7767 52.77 15.0713 52.9224 15.3562C53.0763 15.6398 53.2884 15.8916 53.5587 16.111C53.8267 16.3282 54.0992 16.4829 54.3775 16.5757C54.6551 16.667 54.9313 16.6964 55.2052 16.6633C55.4799 16.6302 55.7494 16.5322 56.0159 16.3702C56.2803 16.2075 56.5336 15.9792 56.7737 15.6847C56.8539 15.5853 56.9327 15.4623 57.0123 15.3165C57.0918 15.1699 57.1478 15.0264 57.1853 14.8835L57.8075 15.125C57.7611 15.3216 57.6941 15.5042 57.6021 15.6714C57.5115 15.84 57.3885 16.0182 57.2361 16.206C56.9659 16.5388 56.6684 16.8069 56.3444 17.0116C56.0174 17.217 55.6757 17.3459 55.3193 17.4004C54.9615 17.4549 54.597 17.4262 54.2229 17.3165C53.8488 17.206 53.4784 17.002 53.1124 16.7038C52.7376 16.4004 52.4548 16.0595 52.2626 15.6802C52.0697 15.3017 51.9578 14.9129 51.9298 14.5146C51.9011 14.1154 51.9504 13.7207 52.0778 13.329C52.2045 12.938 52.404 12.575 52.6735 12.2436C52.9298 11.9284 53.2148 11.6722 53.5241 11.4755C53.8355 11.2789 54.1566 11.1501 54.4865 11.0889C54.8179 11.0271 55.1522 11.0396 55.4887 11.1265C55.8252 11.2112 56.1507 11.3813 56.4622 11.6346C56.6816 11.8128 56.8554 12.0182 56.9858 12.2524C57.1146 12.4844 57.1934 12.7252 57.2243 12.9755C57.2553 13.2252 57.2391 13.4733 57.1735 13.72C57.1102 13.9667 56.9938 14.1935 56.8282 14.3982C56.7589 14.4829 56.6838 14.5565 56.6058 14.6147C56.5277 14.6729 56.4453 14.7082 56.3598 14.7215C56.2752 14.7362 56.1883 14.7259 56.0962 14.6906C56.0042 14.6567 55.9099 14.5904 55.812 14.494L55.7958 14.5146C55.8245 14.6243 55.8503 14.7377 55.8694 14.8525C55.8893 14.9682 55.8974 15.0838 55.8915 15.1994C55.8863 15.3142 55.8643 15.4277 55.8245 15.5374C55.7862 15.6478 55.7258 15.7553 55.6426 15.8577C55.5756 15.9402 55.4931 16.0043 55.3959 16.0506C55.2995 16.097 55.1949 16.1206 55.0859 16.1228C54.9769 16.1243 54.862 16.1044 54.7435 16.0617C54.6235 16.0197 54.5078 15.9527 54.3944 15.8599C54.1824 15.6869 54.0042 15.4858 53.8584 15.2539C53.7133 15.0227 53.6132 14.7848 53.5542 14.5425C53.4968 14.2988 53.4836 14.0602 53.516 13.8275C53.5484 13.5948 53.6352 13.3916 53.7781 13.2178C53.8753 13.097 53.9747 13.0102 54.0771 12.9586C54.1802 12.9041 54.2884 12.8673 54.4033 12.8459L54.3687 12.5521Z" fill="#7CE9F7"/>
<path d="M68.9616 37.8212C67.8254 43.1628 62.575 46.5701 57.2326 45.4331C51.8939 44.2961 48.4845 39.0458 49.6208 33.7049C50.7592 28.3625 56.0095 24.9553 61.349 26.0915C66.6928 27.2285 70.0993 32.4788 68.9616 37.8212Z" fill="#002254"/>
<path d="M62.6864 34.299L59.7674 36.2533L56.9287 32.0126C56.8506 31.897 56.6798 31.8741 56.5465 31.9625L56.0089 32.3233C55.8757 32.4124 55.8322 32.5796 55.9088 32.6945L59.3344 37.8115C59.411 37.9279 59.5825 37.9507 59.7166 37.8616L59.9809 37.6849L60.2534 37.5L63.4146 35.3859C63.528 35.3086 63.5494 35.1392 63.4596 35.0074L63.0538 34.4014C62.9655 34.2696 62.8005 34.2239 62.6864 34.299Z" fill="white"/>
<path d="M61.3781 28.5526C61.3155 28.8427 61.0298 29.029 60.7367 28.9671C60.4474 28.9053 60.261 28.6181 60.3222 28.3287L60.5232 27.3839C60.585 27.0923 60.8722 26.9083 61.1624 26.9694C61.4547 27.0312 61.6403 27.3177 61.5792 27.6085L61.3781 28.5526Z" fill="white"/>
<path d="M58.2615 43.1984C58.3226 42.9082 58.137 42.6211 57.8454 42.5592C57.5546 42.4974 57.2667 42.6829 57.2055 42.9738L57.0038 43.9186C56.9426 44.2072 57.1297 44.4951 57.4191 44.557C57.7114 44.6188 57.9986 44.4325 58.0605 44.1432L58.2615 43.1984Z" fill="white"/>
<path d="M66.5019 37.8501C66.2103 37.7882 66.0247 37.5003 66.0859 37.2094C66.1492 36.9171 66.4356 36.733 66.7265 36.7949L67.6705 36.9959C67.9607 37.0578 68.1492 37.3435 68.0866 37.6358C68.0255 37.9267 67.7368 38.113 67.4467 38.0511L66.5019 37.8501Z" fill="white"/>
<path d="M51.858 34.7328C52.1481 34.7947 52.4368 34.6076 52.4987 34.3167C52.5612 34.0244 52.3727 33.7394 52.0826 33.6776L51.1386 33.4765C50.8492 33.4154 50.5627 33.5995 50.5001 33.8919C50.4383 34.182 50.6246 34.4699 50.914 34.5318L51.858 34.7328Z" fill="white"/>
<path d="M65.8678 32.1396C65.6174 32.3016 65.2846 32.2309 65.1196 31.9798C64.9584 31.7302 65.0291 31.3966 65.2794 31.2346L66.0872 30.7096C66.3368 30.5476 66.6719 30.619 66.8332 30.8686C66.9974 31.119 66.9267 31.4533 66.6748 31.6138L65.8678 32.1396Z" fill="white"/>
<path d="M53.3055 40.2912C53.5551 40.1299 53.6258 39.7963 53.4638 39.5474C53.301 39.297 52.9682 39.2256 52.7178 39.3876L51.9086 39.9105C51.6604 40.0725 51.5897 40.4075 51.7495 40.6571C51.9137 40.9068 52.2451 40.9774 52.4969 40.8169L53.3055 40.2912Z" fill="white"/>
<path d="M55.6685 29.1891C55.8312 29.4395 55.7605 29.7723 55.5101 29.935C55.259 30.0956 54.9269 30.0249 54.7627 29.776L54.2377 28.9667C54.075 28.7178 54.1464 28.3828 54.3967 28.223C54.6464 28.061 54.98 28.1317 55.1442 28.382L55.6685 29.1891Z" fill="white"/>
<path d="M63.8209 41.7509C63.6575 41.5006 63.3246 41.4299 63.075 41.5919C62.8232 41.7509 62.7525 42.0875 62.9167 42.3371L63.441 43.1456C63.603 43.3945 63.9373 43.4652 64.1869 43.3047C64.4365 43.1412 64.5072 42.8069 64.3452 42.5573L63.8209 41.7509Z" fill="white"/>
<path d="M9.26479 21.1418C9.18673 21.3855 9.2044 21.6418 9.31412 21.9105C9.42015 22.1712 9.61014 22.3465 9.88481 22.4385C10.1565 22.5276 10.4732 22.5873 10.8362 22.6108L9.97833 20.5026C9.57921 20.686 9.34063 20.8973 9.26479 21.1418Z" fill="#FFFCFA"/>
<path d="M12.904 24.7423C12.6124 24.6561 12.2818 24.6053 11.9121 24.584L12.8399 26.8623C13.2015 26.665 13.4349 26.4323 13.541 26.1598C13.647 25.8881 13.6352 25.5943 13.5071 25.2784C13.3959 25.0052 13.1949 24.827 12.904 24.7423Z" fill="#FFFCFA"/>
<path d="M15.2703 26.5138C15.0508 27.1227 14.6179 27.6331 13.9713 28.0469L14.461 29.2501L13.1157 29.7973L12.6576 28.6728C12.1591 28.8547 11.7062 28.9777 11.2998 29.041C10.8925 29.1058 10.5626 29.1213 10.3086 29.0918L10.2114 27.407C10.4051 27.4372 10.6591 27.4394 10.975 27.4114C11.2902 27.3842 11.6488 27.3069 12.0516 27.1846L10.9824 24.558C10.6643 24.5462 10.3461 24.5212 10.0243 24.4814C9.69961 24.4424 9.39254 24.3599 9.10168 24.2376C8.81007 24.1154 8.54276 23.935 8.30197 23.6971C8.05676 23.4593 7.8572 23.1419 7.69593 22.7443C7.39328 22.002 7.35352 21.3474 7.58033 20.7789C7.80639 20.2089 8.22834 19.7259 8.85352 19.3312L8.37414 18.1545L9.71949 17.6066L10.1775 18.7318C10.5685 18.6029 10.922 18.5182 11.2372 18.4799C11.5523 18.4409 11.852 18.424 12.1341 18.4284L12.2511 20.0447C12.0766 20.0359 11.8623 20.0418 11.6105 20.0654C11.3572 20.0867 11.0825 20.1397 10.7836 20.2192L11.774 22.6508C12.0906 22.664 12.4146 22.6898 12.7482 22.7303C13.0825 22.7701 13.3947 22.8518 13.693 22.9726C13.986 23.0933 14.2585 23.2656 14.5067 23.4917C14.7541 23.7185 14.9588 24.0241 15.1171 24.4122C15.4404 25.2074 15.4904 25.9077 15.2703 26.5138ZM8.83879 17.276C5.10169 18.7988 3.30715 23.0624 4.8285 26.798C6.35058 30.5358 10.6127 32.3304 14.3498 30.8083C18.0862 29.287 19.8829 25.0248 18.3608 21.2863C16.8395 17.5506 12.5759 15.7546 8.83879 17.276Z" fill="#FFF385"/>
<path d="M13.541 26.1598C13.647 25.8881 13.6352 25.5943 13.5071 25.2784C13.3959 25.0052 13.1949 24.827 12.904 24.7423C12.6124 24.6561 12.2818 24.6053 11.9121 24.584L12.8399 26.8623C13.2015 26.665 13.4349 26.4323 13.541 26.1598Z" fill="#FCD751"/>
<path d="M18.358 21.2861C16.8366 17.5504 12.573 15.7544 8.83594 17.2758L9.07673 17.8671L9.71664 17.6064L10.1747 18.7316C10.5657 18.6027 10.9191 18.518 11.2343 18.4797C11.5495 18.4407 11.8492 18.4238 12.1312 18.4282L12.2483 20.0445C12.0738 20.0357 11.8595 20.0416 11.6076 20.0652C11.3543 20.0865 11.0797 20.1395 10.7807 20.219L11.7711 22.6506C12.0878 22.6638 12.4118 22.6896 12.7453 22.7301C13.0797 22.7699 13.3919 22.8516 13.6901 22.9724C13.9832 23.0931 14.2556 23.2654 14.5038 23.4915C14.7512 23.7183 14.9559 24.0239 15.1143 24.412C15.4375 25.2072 15.4876 25.9075 15.2674 26.5136C15.048 27.1226 14.615 27.6329 13.9685 28.0467L14.4581 29.2499L13.8182 29.5099L14.347 30.8081C18.0833 29.2868 19.8801 25.0246 18.358 21.2861Z" fill="#FCD751"/>
</svg>
