<svg width="70" height="70" viewBox="0 0 70 70" fill="none" xmlns="http://www.w3.org/2000/svg">
<path d="M37.4125 51.2441H22.8359V59.9901H37.4125V51.2441Z" fill="white"/>
<path d="M37.4124 51.2441H24.7793V59.9901H37.4124V51.2441Z" fill="#8037BA"/>
<path d="M34.497 51.2441H24.7793V59.9901H34.497V51.2441Z" fill="#8037BA"/>
<path d="M42.2729 59.9897H17.9785V61.9333H42.2729V59.9897Z" fill="white"/>
<path d="M42.2727 59.9897H19.9219V61.9333H42.2727V59.9897Z" fill="#8037BA"/>
<path d="M59.7646 40.5542H0.486328V51.2437H59.7646V40.5542Z" fill="white"/>
<path d="M59.7644 40.5542H2.42969V51.2437H59.7644V40.5542Z" fill="#8037BA"/>
<path d="M56.849 40.5542H2.42969V51.2437H56.849V40.5542Z" fill="#8037BA"/>
<path d="M59.7646 8.48584H0.486328V40.5544H59.7646V8.48584Z" fill="#E0E4FF"/>
<path d="M56.8492 8.48584H0.486328V40.5544H56.8492V8.48584Z" fill="white"/>
<path d="M32.5542 45.8992C32.5542 47.2402 31.4658 48.3286 30.1247 48.3286C29.7846 48.3286 29.4542 48.2606 29.153 48.1245C28.2978 47.7553 27.6953 46.9001 27.6953 45.8992C27.6953 44.8982 28.2978 44.0431 29.153 43.6738C29.4542 43.5377 29.7846 43.4697 30.1247 43.4697C31.4658 43.4697 32.5542 44.5581 32.5542 45.8992Z" fill="#FEE556"/>
<path d="M30.6106 45.8992C30.6106 46.9001 30.0081 47.7553 29.153 48.1246C28.2978 47.7553 27.6953 46.9001 27.6953 45.8992C27.6953 44.8983 28.2978 44.0431 29.153 43.6738C30.0081 44.0431 30.6106 44.8983 30.6106 45.8992Z" fill="#FEE556"/>
<path d="M26.7237 25.9777V23.0624H24.6392C24.4244 21.869 23.9638 20.7622 23.2972 19.805L24.7665 18.3357L22.7054 16.2745L21.2361 17.7439C20.2789 17.0762 19.171 16.6156 17.9787 16.4018V14.3164H15.0633V16.396C13.87 16.6088 12.7738 17.0889 11.8166 17.7545L10.3366 16.2745L8.2755 18.3357L9.75357 19.8137C9.08596 20.7709 8.60396 21.8681 8.39114 23.0624H6.31641V25.9777H8.40086C8.61562 27.171 9.07625 28.2779 9.74288 29.2351L8.27356 30.7044L10.3347 32.7655L11.804 31.2962C12.7612 31.9638 13.869 32.4244 15.0614 32.6382V34.7237H17.9767V32.6441C19.1701 32.4312 20.2662 31.9512 21.2234 31.2855L22.7034 32.7655L24.7646 30.7044L23.2865 29.2263C23.9541 28.2691 24.4361 27.172 24.6489 25.9777H26.7237Z" fill="#FDCC32"/>
<path d="M22.8362 24.5201C22.8362 28.0088 20.0083 30.8367 16.5197 30.8367C16.0143 30.8367 15.5284 30.7784 15.062 30.6618C12.273 30.0107 10.2031 27.5035 10.2031 24.5201C10.2031 21.5368 12.273 19.0296 15.062 18.3785C15.5284 18.2619 16.0143 18.2036 16.5197 18.2036C20.0083 18.2036 22.8362 21.0315 22.8362 24.5201Z" fill="#8037BA"/>
<path d="M35.4691 25.978H31.582V34.724H35.4691V25.978Z" fill="#FEE556"/>
<path d="M42.2719 23.0625H38.3848V34.7238H42.2719V23.0625Z" fill="#FEE556"/>
<path d="M49.0746 20.147H45.1875V34.7236H49.0746V20.147Z" fill="#FEE556"/>
<path d="M47.131 20.147H45.1875V34.7236H47.131V20.147Z" fill="#FEE556"/>
<path d="M40.3283 23.0625H38.3848V34.7238H40.3283V23.0625Z" fill="#FEE556"/>
<path d="M33.5256 25.978H31.582V34.724H33.5256V25.978Z" fill="#FEE556"/>
<path d="M37.4141 60.476H22.8374C22.5692 60.476 22.3516 60.2584 22.3516 59.9902V51.2442C22.3516 50.976 22.5692 50.7583 22.8374 50.7583H37.4141C37.6823 50.7583 37.9 50.976 37.9 51.2442V59.9902C37.9 60.2584 37.6823 60.476 37.4141 60.476ZM23.3233 59.5043H36.9282V51.7301H23.3233V59.5043Z" fill="#1C225C"/>
<path d="M42.2722 62.4192H17.9778C17.7096 62.4192 17.4919 62.2015 17.4919 61.9333V59.9897C17.4919 59.7215 17.7096 59.5038 17.9778 59.5038H42.2722C42.5404 59.5038 42.7581 59.7215 42.7581 59.9897V61.9333C42.7581 62.2015 42.5404 62.4192 42.2722 62.4192ZM18.4637 61.4474H41.7863V60.4756H18.4637V61.4474ZM59.7641 51.7297H0.485887C0.217677 51.7297 0 51.512 0 51.2438C0 50.9756 0.217677 50.7579 0.485887 50.7579H59.2782V41.0401H0.971774V42.4978C0.971774 42.766 0.754097 42.9837 0.485887 42.9837C0.217677 42.9837 0 42.766 0 42.4978V40.5542C0 40.286 0.217677 40.0684 0.485887 40.0684H59.7641C60.0323 40.0684 60.25 40.286 60.25 40.5542V51.2438C60.25 51.512 60.0323 51.7297 59.7641 51.7297Z" fill="#1C225C"/>
<path d="M59.7641 41.0403H0.485887C0.217677 41.0403 0 40.8226 0 40.5544V8.48589C0 8.21768 0.217677 8 0.485887 8H59.7641C60.0323 8 60.25 8.21768 60.25 8.48589C60.25 8.7541 60.0323 8.97177 59.7641 8.97177H0.971774V40.0685H59.2782V17.2319C59.2782 16.9636 59.4959 16.746 59.7641 16.746C60.0323 16.746 60.25 16.9636 60.25 17.2319V40.5544C60.25 40.8226 60.0323 41.0403 59.7641 41.0403Z" fill="#1C225C"/>
<path d="M59.7641 14.8025C59.4959 14.8025 59.2782 14.5849 59.2782 14.3166V12.3731C59.2782 12.1049 59.4959 11.8872 59.7641 11.8872C60.0323 11.8872 60.25 12.1049 60.25 12.3731V14.3166C60.25 14.5849 60.0323 14.8025 59.7641 14.8025ZM0.485887 47.8428C0.217677 47.8428 0 47.6252 0 47.357V45.4134C0 45.1452 0.217677 44.9275 0.485887 44.9275C0.754097 44.9275 0.971774 45.1452 0.971774 45.4134V47.357C0.971774 47.6252 0.754097 47.8428 0.485887 47.8428ZM30.125 48.8146C28.5177 48.8146 27.2097 47.5066 27.2097 45.8993C27.2097 44.292 28.5177 42.984 30.125 42.984C31.7323 42.984 33.0403 44.292 33.0403 45.8993C33.0403 47.5066 31.7323 48.8146 30.125 48.8146ZM30.125 43.9558C29.0531 43.9558 28.1815 44.8274 28.1815 45.8993C28.1815 46.9712 29.0531 47.8428 30.125 47.8428C31.1969 47.8428 32.0686 46.9712 32.0686 45.8993C32.0686 44.8274 31.1969 43.9558 30.125 43.9558ZM17.9778 35.2098H15.0625C14.7943 35.2098 14.5766 34.9921 14.5766 34.7239V33.0369C13.6058 32.8173 12.6972 32.4441 11.8673 31.9223L10.6788 33.1108C10.4893 33.3003 10.1813 33.3003 9.99178 33.1108L7.93065 31.0496C7.74115 30.8601 7.74115 30.5521 7.93065 30.3626L9.11913 29.1741C8.59729 28.3432 8.22315 27.4346 8.00353 26.4638H6.31653C6.04832 26.4638 5.83065 26.2461 5.83065 25.9779V23.0626C5.83065 22.7944 6.04832 22.5767 6.31653 22.5767H7.99381C8.21052 21.6283 8.59048 20.7235 9.12788 19.8762L7.93162 18.6799C7.74213 18.4904 7.74213 18.1824 7.93162 17.9929L9.99275 15.9317C10.1823 15.7422 10.4903 15.7422 10.6798 15.9317L11.879 17.1309C12.7244 16.5955 13.6291 16.2174 14.5766 16.0007V14.3166C14.5766 14.0484 14.7943 13.8308 15.0625 13.8308H17.9778C18.246 13.8308 18.4637 14.0484 18.4637 14.3166V16.0036C19.4345 16.2233 20.3431 16.5964 21.173 17.1183L22.3615 15.9298C22.551 15.7403 22.859 15.7403 23.0485 15.9298L25.1097 17.9909C25.2992 18.1804 25.2992 18.4885 25.1097 18.678L23.9212 19.8664C24.443 20.6963 24.8172 21.6049 25.0358 22.5758H26.7238C26.992 22.5758 27.2097 22.7934 27.2097 23.0616V25.977C27.2097 26.2452 26.992 26.4628 26.7238 26.4628H25.0465C24.8298 27.4113 24.4498 28.316 23.9124 29.1634L25.1087 30.3597C25.2982 30.5492 25.2982 30.8572 25.1087 31.0467L23.0476 33.1078C22.8581 33.2973 22.55 33.2973 22.3605 33.1078L21.1614 31.9087C20.3159 32.4441 19.4112 32.8221 18.4637 33.0388V34.7239C18.4637 34.9921 18.246 35.2098 17.9778 35.2098ZM15.5484 34.238H17.4919V32.6433C17.4919 32.4082 17.661 32.206 17.8923 32.1652C18.9768 31.9718 20.0049 31.5413 20.9476 30.8873C21.138 30.7523 21.4014 30.7756 21.5685 30.9427L22.7055 32.0797L24.0796 30.7056L22.9455 29.5706C22.7794 29.4034 22.756 29.143 22.8901 28.9486C23.548 28.0051 23.9795 26.9779 24.1719 25.8924C24.2127 25.6611 24.4149 25.492 24.65 25.492H26.2379V23.5485H24.6393C24.4042 23.5485 24.203 23.3804 24.1612 23.1491C23.9601 22.0286 23.5344 20.9966 22.8979 20.0831C22.7628 19.8898 22.7871 19.6274 22.9533 19.4612L24.0786 18.3359L22.7045 16.9618L21.5792 18.0871C21.413 18.2533 21.1516 18.2757 20.9573 18.1425C20.0438 17.506 19.0118 17.0804 17.8913 16.8792C17.6601 16.8374 17.4919 16.6363 17.4919 16.4011V14.8025H15.5484V16.3972C15.5484 16.6324 15.3793 16.8345 15.148 16.8753C14.0635 17.0687 13.0354 17.4992 12.0928 18.1532C11.9013 18.2883 11.638 18.264 11.4718 18.0978L10.3348 16.9608L8.96073 18.3349L10.0948 19.47C10.261 19.6371 10.2843 19.8975 10.1502 20.0919C9.49229 21.0355 9.06082 22.0627 8.86841 23.1481C8.8276 23.3794 8.62547 23.5485 8.3903 23.5485H6.80242V25.492H8.40099C8.63616 25.492 8.83731 25.6602 8.8791 25.8914C9.08026 27.0119 9.5059 28.0439 10.1424 28.9574C10.2775 29.1508 10.2532 29.4132 10.087 29.5793L8.9617 30.7046L10.3358 32.0787L11.4611 30.9534C11.6273 30.7863 11.8877 30.7629 12.083 30.898C12.9965 31.5345 14.0285 31.9602 15.149 32.1613C15.3803 32.2031 15.5484 32.4043 15.5484 32.6394V34.238Z" fill="#1C225C"/>
<path d="M16.5192 31.3226C12.7691 31.3226 9.7168 28.2703 9.7168 24.5202C9.7168 20.7701 12.7691 17.7178 16.5192 17.7178C20.2693 17.7178 23.3216 20.7701 23.3216 24.5202C23.3216 28.2703 20.2693 31.3226 16.5192 31.3226ZM16.5192 18.6895C13.3036 18.6895 10.6886 21.3046 10.6886 24.5202C10.6886 27.7358 13.3036 30.3508 16.5192 30.3508C19.7348 30.3508 22.3499 27.7358 22.3499 24.5202C22.3499 21.3046 19.7348 18.6895 16.5192 18.6895Z" fill="#1C225C"/>
<path d="M16.5208 31.3226C14.6278 31.3226 13.6055 27.8184 13.6055 24.5202C13.6055 21.222 14.6278 17.7178 16.5208 17.7178C18.4138 17.7178 19.4361 21.222 19.4361 24.5202C19.4361 27.8184 18.4138 31.3226 16.5208 31.3226ZM16.5208 18.6895C15.7094 18.6895 14.5772 20.9071 14.5772 24.5202C14.5772 28.1332 15.7094 30.3508 16.5208 30.3508C17.3322 30.3508 18.4643 28.1332 18.4643 24.5202C18.4643 20.9071 17.3322 18.6895 16.5208 18.6895Z" fill="#1C225C"/>
<path d="M16.5192 27.4352C13.221 27.4352 9.7168 26.4129 9.7168 24.5198C9.7168 22.6268 13.221 21.6045 16.5192 21.6045C19.8174 21.6045 23.3216 22.6268 23.3216 24.5198C23.3216 26.4129 19.8174 27.4352 16.5192 27.4352ZM16.5192 22.5763C12.9062 22.5763 10.6886 23.7084 10.6886 24.5198C10.6886 25.3313 12.9062 26.4634 16.5192 26.4634C20.1323 26.4634 22.3499 25.3313 22.3499 24.5198C22.3499 23.7084 20.1323 22.5763 16.5192 22.5763ZM35.4688 35.2094H31.5817C31.3135 35.2094 31.0958 34.9917 31.0958 34.7235V25.9775C31.0958 25.7093 31.3135 25.4916 31.5817 25.4916H35.4688C35.737 25.4916 35.9547 25.7093 35.9547 25.9775V34.7235C35.9547 34.9917 35.737 35.2094 35.4688 35.2094ZM32.0676 34.2376H34.9829V26.4634H32.0676V34.2376ZM42.2712 35.2094H38.3841C38.1159 35.2094 37.8982 34.9917 37.8982 34.7235V23.0622C37.8982 22.794 38.1159 22.5763 38.3841 22.5763H42.2712C42.5394 22.5763 42.7571 22.794 42.7571 23.0622V34.7235C42.7571 34.9917 42.5394 35.2094 42.2712 35.2094ZM38.87 34.2376H41.7853V23.5481H38.87V34.2376ZM49.0737 35.2094H45.1866C44.9183 35.2094 44.7007 34.9917 44.7007 34.7235V20.1469C44.7007 19.8786 44.9183 19.661 45.1866 19.661H49.0737C49.3419 19.661 49.5595 19.8786 49.5595 20.1469V34.7235C49.5595 34.9917 49.3419 35.2094 49.0737 35.2094ZM45.6724 34.2376H48.5878V20.6327H45.6724V34.2376ZM53.9325 16.7456H50.0454C49.8491 16.7456 49.6713 16.6271 49.5965 16.4454C49.5216 16.2636 49.5634 16.0547 49.7014 15.9157L51.645 13.9722C51.8345 13.7827 52.1425 13.7827 52.332 13.9722L54.2756 15.9157C54.4145 16.0547 54.4563 16.2636 54.3805 16.4454C54.3047 16.6271 54.1288 16.7456 53.9325 16.7456ZM51.2184 15.7739H52.7596L51.989 15.0033L51.2184 15.7739Z" fill="#1C225C"/>
<path d="M51.9898 35.2099C51.7216 35.2099 51.5039 34.9922 51.5039 34.724V16.2603C51.5039 15.9921 51.7216 15.7744 51.9898 15.7744C52.258 15.7744 52.4757 15.9921 52.4757 16.2603V34.724C52.4757 34.9922 52.258 35.2099 51.9898 35.2099Z" fill="#1C225C"/>
</svg>
