<svg width="70" height="70" viewBox="0 0 70 70" fill="none" xmlns="http://www.w3.org/2000/svg">
<path d="M10.1949 23.791H11.9961V33.9867H10.1949V23.791ZM19.1926 10.5961H20.991V33.9867H19.1926V10.5961ZM28.1875 16.5945H29.9887V33.9867H28.1875V16.5945ZM34.4862 33.9867H31.7872V15.6939C31.7872 15.1964 31.3841 14.7933 30.8866 14.7933H27.2897C26.7921 14.7933 26.3891 15.1964 26.3891 15.6939V33.9867H22.7895V9.69546C22.7895 9.20068 22.3892 8.79764 21.8917 8.79764H18.292C17.7945 8.79764 17.3942 9.20068 17.3942 9.69546V33.9867H13.7945V22.8904C13.7945 22.3929 13.3915 21.9926 12.894 21.9926H9.2971C8.79954 21.9926 8.39651 22.3929 8.39651 22.8904V33.9867H5.69746C5.19991 33.9867 4.79688 34.3898 4.79688 34.8873C4.79688 35.3821 5.19991 35.7852 5.69746 35.7852H34.4862C34.9838 35.7852 35.3868 35.3821 35.3868 34.8873C35.3868 34.3898 34.9838 33.9867 34.4862 33.9867Z" fill="#011839"/>
<path d="M16.9346 55.5821C17.082 55.81 17.3238 55.9629 17.5962 55.9935C17.6295 55.9962 17.6629 55.999 17.6935 55.999C17.9325 55.999 18.1605 55.9045 18.33 55.735L32.2088 41.8562V44.483C32.2088 44.9805 32.6118 45.3836 33.1094 45.3836C33.6042 45.3836 34.0072 44.9805 34.0072 44.483V39.6853C34.0072 39.1878 33.6042 38.7847 33.1094 38.7847H28.3089C27.8142 38.7847 27.4111 39.1878 27.4111 39.6853C27.4111 40.1801 27.8142 40.5831 28.3089 40.5831H30.9357L17.8519 53.6697L13.6547 47.068C13.5046 46.8318 13.2544 46.6789 12.9764 46.6567C12.6957 46.6316 12.4233 46.7373 12.2343 46.943L6.41648 53.2917C6.08014 53.6586 6.10516 54.2256 6.47207 54.562C6.8362 54.8983 7.40603 54.8733 7.74237 54.5064L12.768 49.0249L16.9346 55.5821Z" fill="#011839"/>
<path d="M35.3876 7.07172L41.9114 13.5955H35.3876V7.07172ZM44.7188 13.8596L35.1236 4.2615C34.954 4.09472 34.7261 4.00021 34.487 4.00021H0.900614C0.403059 4.00021 0 4.40047 0 4.89803V64.5157C0 65.0105 0.403059 65.4136 0.900614 65.4136H34.487C34.9846 65.4136 35.3876 65.0105 35.3876 64.5157C35.3876 64.0182 34.9846 63.6151 34.487 63.6151H1.8012V5.79863H33.5864V14.4934C33.5864 14.9909 33.9894 15.394 34.487 15.394H43.1845V18.1208C43.1845 18.6183 43.5848 19.0214 44.0823 19.0214C44.5799 19.0214 44.9829 18.6183 44.9829 18.1208V14.4934C44.9829 14.2571 44.8884 14.0264 44.7188 13.8596Z" fill="#011839"/>
<path d="M11.6955 60.6162H34.4858C34.9833 60.6162 35.3864 60.2132 35.3864 59.7156C35.3864 59.2208 34.9833 58.8178 34.4858 58.8178H11.6955C11.198 58.8178 10.7949 59.2208 10.7949 59.7156C10.7949 60.2132 11.198 60.6162 11.6955 60.6162Z" fill="#011839"/>
<path d="M5.69746 58.8178C5.19991 58.8178 4.79688 59.2208 4.79688 59.7156C4.79688 60.2132 5.19991 60.6162 5.69746 60.6162H8.09629C8.59384 60.6162 8.9969 60.2132 8.9969 59.7156C8.9969 59.2208 8.59384 58.8178 8.09629 58.8178H5.69746Z" fill="#011839"/>
<path d="M34.4877 55.2182H23.6916C23.194 55.2182 22.791 55.6212 22.791 56.1188C22.791 56.6163 23.194 57.0166 23.6916 57.0166H34.4877C34.9853 57.0166 35.3883 56.6163 35.3883 56.1188C35.3883 55.6212 34.9853 55.2182 34.4877 55.2182Z" fill="#011839"/>
<path d="M34.4881 51.6177H28.4896C27.9921 51.6177 27.5918 52.0208 27.5918 52.5183C27.5918 53.0159 27.9921 53.4189 28.4896 53.4189H34.4881C34.9856 53.4189 35.3887 53.0159 35.3887 52.5183C35.3887 52.0208 34.9856 51.6177 34.4881 51.6177Z" fill="#011839"/>
<path d="M49.7197 37.2251C53.1943 37.2251 56.0184 34.401 56.0184 30.9292C56.0184 27.4547 53.1943 24.6305 49.7197 24.6305C46.2479 24.6305 43.4238 27.4547 43.4238 30.9292C43.4238 34.401 46.2479 37.2251 49.7197 37.2251Z" fill="#7C30B7"/>
<path d="M49.7193 22.832C54.1862 22.832 57.8164 26.4622 57.8164 30.9291C57.8164 35.3932 54.1862 39.0234 49.7193 39.0234C45.2552 39.0234 41.625 35.3932 41.625 30.9291C41.625 26.4622 45.2552 22.832 49.7193 22.832ZM38.0254 30.9291C38.0254 37.3779 43.2706 42.623 49.7193 42.623C56.1681 42.623 61.4161 37.3779 61.4161 30.9291C61.4161 24.4776 56.1681 19.2324 49.7193 19.2324C43.2706 19.2324 38.0254 24.4776 38.0254 30.9291Z" fill="#7C30B7"/>
<path d="M38.0254 48.6216H61.4161V44.4215H38.0254V48.6216Z" fill="#7C30B7"/>
<path d="M38.0254 54.0195H61.4161V50.4199H38.0254V54.0195Z" fill="#7C30B7"/>
<path d="M38.0254 65.4136H61.4161V61.2163H38.0254V65.4136Z" fill="#7C30B7"/>
<path d="M38.0254 59.415H61.4161V55.8182H38.0254V59.415Z" fill="#7C30B7"/>
</svg>
