<svg width="56" height="70" viewBox="0 0 56 70" fill="none" xmlns="http://www.w3.org/2000/svg">
<g clip-path="url(#clip0_386_6711)">
<path d="M44.683 32.3199C44.683 22.8696 37.0228 15.2097 27.5745 15.2097C18.1266 15.2097 10.4668 22.8696 10.4668 32.3199C10.4668 39.3089 14.6638 45.3164 20.6719 47.9694C20.6355 48.2761 20.6144 48.5866 20.6144 48.9048C20.6144 53.1028 23.9591 56.5034 28.0871 56.5034C32.2132 56.5034 35.5583 53.1028 35.5583 48.9048C35.5583 48.4295 35.5123 47.9656 35.4298 47.5132C40.9242 44.6685 44.683 38.9332 44.683 32.3199Z" fill="white"/>
<path d="M27.5779 16.1682C18.6729 16.1682 11.4271 23.4141 11.4271 32.3199C11.4271 38.7109 15.2101 44.5114 21.0622 47.0915C21.4482 47.264 21.6771 47.6666 21.6269 48.0845C21.5928 48.372 21.5752 48.6404 21.5752 48.9049C21.5752 52.5662 24.4974 55.545 28.0905 55.545C31.6806 55.545 34.6028 52.5662 34.6028 48.9049C34.6028 48.5023 34.5664 48.0922 34.492 47.6819C34.4165 47.2717 34.6208 46.8577 34.9931 46.6621C40.3809 43.8711 43.7275 38.3773 43.7275 32.3199C43.7275 23.4141 36.4826 16.1682 27.5779 16.1682ZM28.0905 57.4619C23.4407 57.4619 19.659 53.6243 19.659 48.9049C19.659 48.7899 19.6628 48.6749 19.667 48.556C13.4764 45.5388 9.51172 39.2399 9.51172 32.3199C9.51172 22.3559 17.6162 14.2551 27.5779 14.2551C37.54 14.2551 45.6426 22.3559 45.6426 32.3199C45.6426 38.8681 42.1476 44.8258 36.4741 48.0385C36.5044 48.3298 36.519 48.6174 36.519 48.9049C36.519 53.6243 32.738 57.4619 28.0905 57.4619Z" fill="#201D18"/>
<path d="M40.6293 32.1898C40.6293 24.8673 34.6925 18.9287 27.3678 18.9287C20.0438 18.9287 14.1055 24.8673 14.1055 32.1898C14.1055 37.6108 17.3582 42.2688 22.016 44.3237C21.9876 44.5614 21.9719 44.803 21.9719 45.0483C21.9719 48.3032 24.5648 50.937 27.763 50.937C30.9628 50.937 33.5569 48.3032 33.5569 45.0483C33.5569 44.6803 33.5216 44.3199 33.4572 43.971C37.7163 41.7628 40.6293 37.3194 40.6293 32.1898Z" fill="#7C30B7"/>
<path d="M34.8915 60.8511H21.707V52.1522H34.8915V60.8511Z" fill="white"/>
<path d="M22.6642 59.8965H33.9321V53.1107H22.6642V59.8965ZM34.8902 61.8096H21.7058C21.1763 61.8096 20.748 61.3802 20.748 60.8511V52.1522C20.748 51.6232 21.1763 51.1976 21.7058 51.1976H34.8902C35.4182 51.1976 35.8472 51.6232 35.8472 52.1522V60.8511C35.8472 61.3802 35.4182 61.8096 34.8902 61.8096Z" fill="#201D18"/>
<path d="M27.5757 52.8188C27.0466 52.8188 26.6172 52.3933 26.6172 51.8642V35.3444C26.6172 34.8154 27.0466 34.386 27.5757 34.386C28.1047 34.386 28.533 34.8154 28.533 35.3444V51.8642C28.533 52.3933 28.1047 52.8188 27.5757 52.8188Z" fill="#201D18"/>
<path d="M32.1195 58.2285H24.9819C24.4532 58.2285 24.0234 57.7991 24.0234 57.2701C24.0234 56.741 24.4532 56.3116 24.9819 56.3116H32.1195C32.6482 56.3116 33.078 56.741 33.078 57.2701C33.078 57.7991 32.6482 58.2285 32.1195 58.2285Z" fill="#201D18"/>
<path d="M41.0064 15.8228C40.7622 15.8228 40.5176 15.7269 40.3298 15.5429C39.9552 15.1671 39.9552 14.5614 40.3298 14.1857L44.7096 9.80753C45.0831 9.43182 45.6896 9.43182 46.0641 9.80753C46.4376 10.1794 46.4376 10.789 46.0641 11.1608L41.6843 15.5429C41.4972 15.7269 41.2522 15.8228 41.0064 15.8228Z" fill="#201D18"/>
<path d="M27.5757 12.1084C27.0466 12.1084 26.6172 11.679 26.6172 11.1538L26.6183 4.95839C26.6183 4.42932 27.0466 3.99994 27.5757 3.99994C28.1047 3.99994 28.5345 4.42932 28.5345 4.95839L28.533 11.1538C28.533 11.679 28.1047 12.1084 27.5757 12.1084Z" fill="#201D18"/>
<path d="M54.0713 28.1372H47.878C47.3482 28.1372 46.9199 27.7078 46.9199 27.1788C46.9199 26.6535 47.3482 26.2242 47.878 26.2242H54.0713C54.6004 26.2242 55.0298 26.6535 55.0298 27.1788C55.0298 27.7078 54.6004 28.1372 54.0713 28.1372Z" fill="#201D18"/>
<path d="M41.0064 16.0146C40.7622 16.0146 40.5176 15.9226 40.3298 15.7348C39.9552 15.3629 39.9552 14.7533 40.3298 14.3814L44.7096 9.99942C45.0831 9.62754 45.6907 9.62754 46.0641 9.99942C46.4376 10.3751 46.4376 10.9809 46.0641 11.3566L41.6843 15.7348C41.4972 15.9226 41.2522 16.0146 41.0064 16.0146Z" fill="#201D18"/>
<path d="M7.1514 27.9448H0.958479C0.429782 27.9448 0 27.5116 0 26.9864C0 26.4573 0.429782 26.0279 0.958479 26.0279H7.1514C7.68163 26.0279 8.10988 26.4573 8.10988 26.9864C8.10988 27.5116 7.68163 27.9448 7.1514 27.9448Z" fill="#201D18"/>
<path d="M14.0235 15.8228C13.7785 15.8228 13.5328 15.7269 13.3464 15.5429L8.96619 11.1608C8.592 10.789 8.592 10.1794 8.96619 9.80753C9.34 9.43182 9.94652 9.43182 10.3203 9.80753L14.7006 14.1857C15.0751 14.5614 15.0751 15.1671 14.7006 15.5429C14.5135 15.7269 14.2685 15.8228 14.0235 15.8228Z" fill="#201D18"/>
<path d="M14.0235 15.8228C13.7785 15.8228 13.5328 15.7269 13.3464 15.5429L8.96619 11.1608C8.592 10.789 8.592 10.1794 8.96619 9.80753C9.34 9.43182 9.94652 9.43182 10.3203 9.80753L14.7006 14.1857C15.0751 14.5614 15.0751 15.1671 14.7006 15.5429C14.5135 15.7269 14.2685 15.8228 14.0235 15.8228Z" fill="#201D18"/>
<path d="M23.5613 60.8506C23.5483 60.9963 23.541 61.142 23.541 61.2877C23.541 63.9138 25.6715 66.0454 28.2985 66.0454C30.9267 66.0454 33.0564 63.9138 33.0564 61.2877C33.0564 61.142 33.0495 60.9963 33.0357 60.8506H23.5613Z" fill="white"/>
<path d="M24.5331 61.8091C24.7888 63.657 26.3784 65.087 28.2969 65.087C30.2157 65.087 31.8057 63.657 32.061 61.8091H24.5331ZM28.2969 67C25.1458 67 22.582 64.439 22.582 61.2877C22.582 61.1151 22.5901 60.9464 22.6062 60.7624C22.6507 60.2717 23.064 59.896 23.5597 59.896H33.0341C33.5298 59.896 33.9431 60.2717 33.9895 60.7624C34.0056 60.9464 34.0125 61.1151 34.0125 61.2877C34.0125 64.439 31.4495 67 28.2969 67Z" fill="#201D18"/>
<path d="M27.56 35.9771C24.5186 35.9771 22.0449 33.5043 22.0449 30.4603C22.0449 29.935 22.4736 29.5056 23.0038 29.5056C23.5317 29.5056 23.9607 29.935 23.9607 30.4603C23.9607 32.4462 25.5748 34.0602 27.56 34.0602C29.5452 34.0602 31.1597 32.4462 31.1597 30.4603C31.1597 29.935 31.5887 29.5056 32.117 29.5056C32.6457 29.5056 33.0755 29.935 33.0755 30.4603C33.0755 33.5043 30.6015 35.9771 27.56 35.9771Z" fill="#201D18"/>
</g>
<defs>
<clipPath id="clip0_386_6711">
<rect width="55.03" height="70" fill="white"/>
</clipPath>
</defs>
</svg>
