<svg width="65" height="70" viewBox="0 0 65 70" fill="none" xmlns="http://www.w3.org/2000/svg">
<g clip-path="url(#clip0_396_268)">
<path d="M60.2009 57.6745H3.8691C1.73227 57.6745 0 55.9422 0 53.8054V19.959H64.07V53.8054C64.07 55.9422 62.3377 57.6745 60.2009 57.6745Z" fill="#A9DBF5"/>
<path d="M60.2031 19.959V57.6745C62.3391 57.6745 64.0705 55.9414 64.0705 53.8038V19.959H60.2031Z" fill="#32408A"/>
<path d="M12.9963 32.08C12.6298 31.7136 12.0355 31.7136 11.6691 32.08L5.85888 37.8901C5.49235 38.2568 5.49235 38.8509 5.85888 39.2175L11.5921 44.9506C11.7753 45.1339 12.0156 45.2254 12.2557 45.2254C12.4959 45.2254 12.7361 45.1339 12.9194 44.9506C13.2859 44.584 13.2859 43.9899 12.9194 43.6234L7.8497 38.5538L12.9962 33.4073C13.3628 33.0408 13.3628 32.4465 12.9963 32.08Z" fill="#43809F"/>
<path d="M33.0998 37.8901L27.2896 32.08C26.9231 31.7136 26.3288 31.7136 25.9624 32.08C25.5959 32.4466 25.5959 33.0407 25.9624 33.4073L31.1089 38.5537L26.0392 43.6233C25.6727 43.9899 25.6727 44.5841 26.0392 44.9506C26.2224 45.1338 26.4627 45.2254 26.7028 45.2254C26.9429 45.2254 27.1832 45.1338 27.3664 44.9506L33.0998 39.2174C33.4662 38.8509 33.4662 38.2568 33.0998 37.8901Z" fill="#43809F"/>
<path d="M23.2514 28.5883C22.7666 28.4042 22.2249 28.6479 22.041 29.1327L15.1707 47.2321C14.9867 47.7166 15.2305 48.2585 15.7151 48.4425C15.8247 48.4841 15.9372 48.5038 16.0479 48.5038C16.4264 48.5038 16.7832 48.273 16.9255 47.898L23.7957 29.7987C23.9797 29.3142 23.7361 28.7722 23.2514 28.5883Z" fill="#43809F"/>
<path d="M48.3404 32.113H42.2814C41.2135 32.113 40.3477 31.2474 40.3477 30.1793C40.3477 29.1114 41.2134 28.2456 42.2814 28.2456H48.3404C49.4083 28.2456 50.2742 29.1113 50.2742 30.1793C50.2742 31.2473 49.4083 32.113 48.3404 32.113Z" fill="#29CEF6"/>
<path d="M58.2668 39.8484H42.2814C41.2135 39.8484 40.3477 38.9827 40.3477 37.9147C40.3477 36.8468 41.2134 35.981 42.2814 35.981H58.2667C59.3346 35.981 60.2004 36.8466 60.2004 37.9147C60.2005 38.9826 59.3347 39.8484 58.2668 39.8484Z" fill="#FFC328"/>
<path d="M53.5182 47.5827H42.2814C41.2135 47.5827 40.3477 46.717 40.3477 45.649C40.3477 44.5811 41.2134 43.7153 42.2814 43.7153H53.5182C54.5861 43.7153 55.4519 44.581 55.4519 45.649C55.4519 46.7169 54.5861 47.5827 53.5182 47.5827Z" fill="#F78E36"/>
<path d="M64.07 21.2896H0V15.8691C0 13.7322 1.73227 12 3.8691 12H60.2009C62.3377 12 64.07 13.7322 64.07 15.8691V21.2896Z" fill="#32408A"/>
<path d="M60.2031 12V21.2896H64.0705V15.8707C64.0705 13.733 62.339 12 60.2031 12Z" fill="#32408A"/>
<path d="M6.1896 18.6418C7.25759 18.6418 8.12336 17.7761 8.12336 16.7081C8.12336 15.6402 7.25759 14.7744 6.1896 14.7744C5.12162 14.7744 4.25586 15.6402 4.25586 16.7081C4.25586 17.7761 5.12162 18.6418 6.1896 18.6418Z" fill="#29CEF6"/>
<path d="M13.6876 18.6418C14.7556 18.6418 15.6214 17.7761 15.6214 16.7081C15.6214 15.6402 14.7556 14.7744 13.6876 14.7744C12.6197 14.7744 11.7539 15.6402 11.7539 16.7081C11.7539 17.7761 12.6197 18.6418 13.6876 18.6418Z" fill="#F3F3F3"/>
<path d="M21.1818 18.6418C22.2498 18.6418 23.1155 17.7761 23.1155 16.7081C23.1155 15.6402 22.2498 14.7744 21.1818 14.7744C20.1138 14.7744 19.248 15.6402 19.248 16.7081C19.248 17.7761 20.1138 18.6418 21.1818 18.6418Z" fill="#F78E36"/>
</g>
<defs>
<clipPath id="clip0_396_268">
<rect width="64.07" height="70" fill="white"/>
</clipPath>
</defs>
</svg>
