<svg width="70" height="70" viewBox="0 0 70 70" fill="none" xmlns="http://www.w3.org/2000/svg">
<path d="M16.8686 52.0183C17.1382 51.8435 17.3755 51.6913 17.5908 51.5549C16.3857 53.7884 15.5193 56.2869 15.0985 58.9925C14.9093 60.211 14.8252 61.4213 14.8232 62.6173C13.8164 61.9206 12.8527 61.1578 11.9264 60.3443C12.6215 57.0707 13.882 53.9601 16.8686 52.0183ZM20.7752 54.8716C20.9054 57.3542 21.3776 59.9178 22.2372 62.4917C22.7688 64.0818 23.4204 65.6002 24.1739 67.0366C23.4214 66.8197 22.6766 66.5819 21.9456 66.3122C20.6661 62.7926 20.2052 58.8726 20.7752 54.8716ZM68 39.6862C68 38.3856 66.9465 37.3312 65.646 37.3312C64.345 37.3312 63.2921 38.3856 63.2921 39.6862C63.2921 40.7135 63.9534 41.5783 64.8715 41.8997C62.9097 52.5812 55.7765 61.2086 46.4022 65.4526C46.0583 64.577 45.2109 63.9552 44.2144 63.9552C42.9143 63.9552 41.8594 65.0092 41.8594 66.3097C41.8594 66.5783 41.9142 66.831 41.9973 67.0714C39.1256 67.8942 36.1062 68.3253 33.0084 68.3094C29.7784 65.1035 26.7119 60.1567 25.1479 55.4698C24.9926 55.0012 24.8511 54.5343 24.7209 54.0673C23.8089 53.5808 23.0154 52.96 22.2875 52.2567C21.4411 51.5426 20.6486 50.7644 19.8992 49.9304C19.1323 49.0784 18.3039 48.2198 17.6652 47.2535C17.3745 46.9434 17.1274 46.6163 16.9316 46.2318C14.0322 47.4898 11.3512 49.3727 9.11054 51.8871C8.28265 52.8159 7.55627 53.7981 6.9114 54.8152C5.96048 53.488 5.11979 52.1034 4.38981 50.6722C5.14798 50.2815 5.67342 49.4993 5.67342 48.5868C5.67342 47.2863 4.61895 46.2318 3.31791 46.2318C3.05596 46.2318 2.80735 46.2852 2.57103 46.3646C1.0711 41.9243 0.555913 37.1718 1.10596 32.3782C2.08814 23.8175 6.34495 16.1517 13.0926 10.7933C19.0231 6.08383 26.2547 3.65247 33.7302 3.8001C33.9383 4.88686 34.8913 5.7091 36.0396 5.7091C37.3401 5.7091 38.394 4.65516 38.394 3.35464C38.394 2.05412 37.3401 1.00016 36.0396 1.00016C34.8918 1.00016 33.9389 1.82189 33.7302 2.90865C26.0522 2.76255 18.6294 5.25901 12.539 10.0951C5.60421 15.6017 1.2295 23.4796 0.220657 32.2767C-0.352454 37.2625 0.198613 42.2052 1.78313 46.8142C1.28537 47.2458 0.963959 47.8758 0.963959 48.5868C0.963959 49.8868 2.01739 50.9408 3.31791 50.9408C3.38712 50.9408 3.45172 50.9264 3.51887 50.9203C4.53488 52.9354 5.75851 54.8634 7.19488 56.6709C12.702 63.6051 20.5789 67.9793 29.3755 68.9892C30.6545 69.1353 31.9227 69.207 33.1791 69.207C36.3815 69.207 39.4977 68.738 42.4612 67.867C42.8923 68.352 43.5141 68.6636 44.2144 68.6636C45.4969 68.6636 46.536 67.6369 46.5642 66.3604C56.3091 62.0293 63.7324 53.0999 65.7537 42.0299C67.0024 41.9725 68 40.9498 68 39.6862Z" fill="#7C30B7"/>
<path d="M31.2832 53.8365L28.7227 56.9066C29.7125 57.7314 38.3825 56.738 41.5848 52.8995C44.6924 49.1758 45.306 44.6268 42.4963 41.9411C41.0538 47.4764 34.2974 52.9133 31.2832 53.8365Z" fill="#7C30B7"/>
<path d="M16.8512 30.2037C13.1537 33.9017 12.9348 43.029 13.8882 43.9819L16.845 41.0246C16.7738 38.3303 22.3116 30.3482 28.2099 28.2511C25.1475 25.5773 20.438 26.6169 16.8512 30.2037Z" fill="#7C30B7"/>
<path d="M29.43 37.9158C31.5604 37.9158 33.288 39.6433 33.288 41.7737C33.288 43.9042 31.5604 45.6312 29.43 45.6312C27.2985 45.6312 25.5735 43.9042 25.5735 41.7737C25.5735 39.6433 27.2985 37.9158 29.43 37.9158ZM36.9394 29.6164C39.0703 29.6164 40.7979 31.3429 40.7979 33.4734C40.7979 35.6043 39.0703 37.3309 36.9394 37.3309C34.8094 37.3309 33.0819 35.6043 33.0819 33.4734C33.0819 31.3429 34.8094 29.6164 36.9394 29.6164ZM18.2148 40.5393L19.9931 42.3176L19.0509 43.2588C17.9396 44.3702 17.9396 46.1726 19.0509 47.2839L23.8896 52.1215C25.0004 53.2334 26.8028 53.2334 27.9131 52.1226L28.8558 51.1809L30.2666 52.5911C32.3811 51.4223 34.6151 49.7245 37.1049 47.2352C41.8411 42.4986 46.1286 36.28 48.3616 31.021C46.6941 30.3392 45.0393 29.2519 43.5727 27.7864C41.9087 26.1214 40.7722 24.1734 40.1238 22.2798C34.8053 24.4712 28.397 28.8741 23.5707 33.701C21.0819 36.1903 19.3821 38.4253 18.2148 40.5393Z" fill="#7C30B7"/>
<path d="M47.6467 29.0874L49.7377 27.2943C52.0158 25.8194 54.6097 25.4991 56.5223 26.4648C56.31 25.2161 55.9809 22.9216 56.736 20.3867C58.3928 14.8309 61.9494 10.9555 61.9494 10.9555L61.4101 10.4141L53.7592 18.0727C54.1719 18.5976 54.418 19.2569 54.418 19.9756C54.418 21.6821 53.0354 23.0646 51.3284 23.0646C49.6234 23.0646 48.2393 21.6821 48.2393 19.9756C48.2393 18.2695 49.6234 16.8865 51.3284 16.8865C51.9579 16.8865 52.5423 17.0751 53.0293 17.3981L61.0256 10.0297L60.5674 9.57241C60.5674 9.57241 56.4633 12.8993 50.9085 14.5561C48.3736 15.3127 46.1796 14.8827 44.9283 14.6715C45.8777 16.5492 45.9505 19.1764 44.1373 21.373C43.6488 21.9656 41.9238 23.5044 41.9238 23.5044C41.9238 23.5044 43.3858 25.8343 44.5003 26.9487C46.3114 28.7604 47.6467 29.0874 47.6467 29.0874Z" fill="#7C30B7"/>
</svg>
