<svg width="70" height="70" viewBox="0 0 70 70" fill="none" xmlns="http://www.w3.org/2000/svg">
<circle cx="34" cy="35" r="34" fill="#EDE7F1"/>
<path d="M27.3496 54.6445H40.6852V58.3468V68.3201C38.7963 68.8112 33.4847 69.4988 27.3496 68.3201V58.3468V54.6445Z" fill="#7C30B7"/>
<path d="M25.4629 43.1975C27.0647 45.857 27.8681 51.8864 28.0696 54.5686H34.0384L33.7362 26.4619H32.4518C30.1549 37.1001 26.8355 42.0515 25.4629 43.1975Z" fill="#FBD66E"/>
<path d="M42.5396 43.3492C38.4898 38.4835 36.1678 30.0389 35.513 26.4248H34.2285V54.607H39.8574C40.4618 47.5048 41.8974 44.1426 42.5396 43.3492Z" fill="#E6AD42"/>
<circle cx="34.0009" cy="40.7421" r="2.04" fill="#7C30B7"/>
<path fill-rule="evenodd" clip-rule="evenodd" d="M34.026 22.3823L34.0411 22.3825C39.7407 22.4465 51.8076 26.0386 54.3927 39.9177L53.6499 40.0561C51.1598 26.6869 39.5614 23.2062 34.0476 23.1382C19.7256 24.126 14.9546 34.8293 14.3521 40.0304L13.6016 39.9434C14.2329 34.493 19.2105 23.3967 34.011 22.3834L34.026 22.3823Z" fill="#7C30B7"/>
<rect x="13.375" y="22.4575" width="40.12" height="0.755556" fill="#7C30B7"/>
<rect x="12.0137" y="39.231" width="4.00444" height="3.85333" fill="#FEE13E"/>
<rect x="51.9824" y="39.231" width="4.00444" height="3.85333" fill="#FEE13E"/>
<rect x="31.9609" y="20.8711" width="4.00444" height="3.85333" fill="#FEE13E"/>
<circle cx="12.695" cy="22.8356" r="2.19111" fill="#FEE13E"/>
<circle cx="55.3063" cy="22.8356" r="2.19111" fill="#FEE13E"/>
</svg>
