<svg width="62" height="70" viewBox="0 0 62 70" fill="none" xmlns="http://www.w3.org/2000/svg">
<path d="M46.3683 6H18.6761C16.4563 6 14.6504 7.80592 14.6504 10.0256V59.7985C14.6504 62.0183 16.4563 63.8242 18.6761 63.8242H46.3683C48.588 63.8242 50.394 62.0183 50.394 59.7985V10.0256C50.394 7.80592 48.588 6 46.3683 6Z" fill="#7A8C98"/>
<path d="M46.3664 6H43.1406C45.3603 6 47.1663 7.80592 47.1663 10.0256V59.7985C47.1663 62.0183 45.3603 63.8242 43.1406 63.8242H46.3664C48.5861 63.8242 50.3921 62.0183 50.3921 59.7985V10.0256C50.3921 7.80592 48.5861 6 46.3664 6Z" fill="#596C76"/>
<path d="M48.551 54.3483V10.0255C48.551 8.82214 47.5721 7.84326 46.3687 7.84326H18.6765C17.473 7.84326 16.4941 8.82214 16.4941 10.0255V54.3483H48.551Z" fill="#E8EDF2"/>
<path d="M47.6474 8.26168C47.0924 7.85919 46.5484 7.85895 46.5273 7.85156C46.9318 8.47916 47.1677 9.2252 47.1677 10.0257V54.3485H48.5502V10.0257C48.5502 9.34446 48.2287 8.68489 47.6474 8.26168Z" fill="#C5D3DD"/>
<path d="M32.5208 60.2983C33.4448 60.2983 34.1939 59.5492 34.1939 58.6252C34.1939 57.7012 33.4448 56.9521 32.5208 56.9521C31.5968 56.9521 30.8477 57.7012 30.8477 58.6252C30.8477 59.5492 31.5968 60.2983 32.5208 60.2983Z" fill="#C5D3DD"/>
<path d="M32.5223 31.8661C36.3608 31.8661 39.4724 28.7545 39.4724 24.9162C39.4724 21.0779 36.3608 17.9663 32.5223 17.9663C28.6839 17.9663 25.5723 21.0779 25.5723 24.9162C25.5723 28.7545 28.6839 31.8661 32.5223 31.8661Z" fill="#01C0FA"/>
<path d="M32.5208 30.0227C35.3411 30.0227 37.6275 27.7363 37.6275 24.9161C37.6275 22.0958 35.3411 19.8096 32.5208 19.8096C29.7004 19.8096 27.4141 22.0958 27.4141 24.9161C27.4141 27.7363 29.7004 30.0227 32.5208 30.0227Z" fill="#B3DAFE"/>
<path d="M29.9297 23.9231C29.9297 25.3532 31.0933 26.5167 32.5232 26.5167C33.9534 26.5167 35.1169 25.3532 35.1169 23.9231C35.1169 22.4931 33.9533 21.3296 32.5232 21.3296C31.0931 21.3296 29.9297 22.4931 29.9297 23.9231Z" fill="#596C76"/>
<path d="M32.5228 30.0228C33.7453 30.0228 34.8684 29.5905 35.7485 28.8715C34.9175 27.995 33.7669 27.4907 32.5228 27.4907C31.2784 27.4907 30.1279 27.995 29.2969 28.8715C30.1769 29.5907 31.3002 30.0228 32.5228 30.0228Z" fill="#596C76"/>
<path d="M34.0223 11.9018H31.0232C30.5142 11.9018 30.1016 11.4893 30.1016 10.9802C30.1016 10.4711 30.5142 10.0586 31.0232 10.0586H34.0223C34.5314 10.0586 34.9439 10.4711 34.9439 10.9802C34.9439 11.4893 34.5315 11.9018 34.0223 11.9018Z" fill="#7A8C98"/>
<path d="M37.3486 35.144H27.6955C27.2237 35.144 26.8398 35.528 26.8398 35.9997V38.9436C26.8398 39.4154 27.2237 39.7992 27.6955 39.7992H37.3486C37.8203 39.7992 38.2042 39.4154 38.2042 38.9436V35.9997C38.2043 35.528 37.8203 35.144 37.3486 35.144Z" fill="#FE9738"/>
<path d="M37.3478 48.9614H21.0115C20.5024 48.9614 20.0898 48.5489 20.0898 48.0398C20.0898 47.5308 20.5024 47.1181 21.0115 47.1181H36.9746V44.9206H27.9894C27.8462 45.2436 27.5227 45.469 27.1464 45.469C26.6374 45.469 26.2248 45.0564 26.2248 44.5473C26.2248 43.7366 26.8843 43.0771 27.695 43.0771H37.348C38.1587 43.0771 38.8182 43.7366 38.8182 44.5473V47.4912C38.818 48.302 38.1585 48.9614 37.3478 48.9614Z" fill="#01C0FA"/>
<path d="M61.0791 26.8237H41.9061C41.3971 26.8237 40.9844 26.4111 40.9844 25.9021C40.9844 25.3931 41.397 24.9805 41.9061 24.9805H61.0792C61.5882 24.9805 62.0009 25.3931 62.0009 25.9021C62.0009 26.4111 61.5882 26.8237 61.0791 26.8237Z" fill="#FE9738"/>
<path d="M61.0766 23.5957H55.0936C54.5846 23.5957 54.1719 23.1831 54.1719 22.6741C54.1719 22.165 54.5844 21.7524 55.0936 21.7524H61.0766C61.5857 21.7524 61.9984 22.165 61.9984 22.6741C61.9984 23.1831 61.5858 23.5957 61.0766 23.5957Z" fill="#B3DAFE"/>
<path d="M61.0766 20.3678H55.0936C54.5846 20.3678 54.1719 19.9552 54.1719 19.446C54.1719 18.937 54.5844 18.5244 55.0936 18.5244H61.0766C61.5857 18.5244 61.9984 18.937 61.9984 19.446C61.9984 19.9552 61.5858 20.3678 61.0766 20.3678Z" fill="#B3DAFE"/>
<path d="M61.0791 46.8287H41.9061C41.3971 46.8287 40.9844 46.4162 40.9844 45.9071C40.9844 45.398 41.397 44.9854 41.9061 44.9854H61.0792C61.5882 44.9854 62.0009 45.3979 62.0009 45.9071C62.0009 46.4163 61.5882 46.8287 61.0791 46.8287Z" fill="#FE9738"/>
<path d="M61.0766 43.6007H55.0936C54.5846 43.6007 54.1719 43.1881 54.1719 42.6791C54.1719 42.17 54.5844 41.7573 55.0936 41.7573H61.0766C61.5857 41.7573 61.9984 42.1699 61.9984 42.6791C61.9984 43.1883 61.5858 43.6007 61.0766 43.6007Z" fill="#B3DAFE"/>
<path d="M61.0766 40.3726H55.0936C54.5846 40.3726 54.1719 39.9601 54.1719 39.451C54.1719 38.942 54.5844 38.5293 55.0936 38.5293H61.0766C61.5857 38.5293 61.9984 38.9419 61.9984 39.451C61.9984 39.9602 61.5858 40.3726 61.0766 40.3726Z" fill="#B3DAFE"/>
<path d="M2.43457 12.779C0.334362 13.9914 -0.385285 16.6769 0.827328 18.7771L1.74944 20.3741L9.35506 15.9831L8.43298 14.3861C7.22036 12.286 4.53479 11.5664 2.43457 12.779Z" fill="#FE7AB6"/>
<path d="M10.7892 18.4644L20.874 35.9313L21.5088 43.8009C21.5842 44.7367 20.539 45.3401 19.7664 44.8069L13.2683 40.3224L3.18359 22.8554L10.7892 18.4644Z" fill="#FFCEBF"/>
<path d="M20.874 35.9313C18.5561 34.8443 17.2886 35.5761 17.0713 38.1268C14.7534 37.0397 13.4858 37.7715 13.2683 40.3222L3.18359 22.8554L10.7892 18.4644L20.874 35.9313Z" fill="#FE7701"/>
<path d="M21.2871 41.062L21.508 43.8012C21.5835 44.737 20.5384 45.3404 19.7656 44.8072L17.5039 43.2463L21.2871 41.062Z" fill="#596C76"/>
<path d="M10.7892 18.4644L20.8739 35.9312C18.5562 34.8443 17.2885 35.576 17.0712 38.1267L6.98633 20.6599L10.7892 18.4644Z" fill="#FE9738"/>
<path d="M1.05102 19.2338L8.71805 14.8072C9.72312 14.227 11.0081 14.5714 11.5884 15.5764C12.1687 16.5814 11.8243 17.8666 10.8193 18.4467L3.1522 22.8733C2.14714 23.4535 0.862117 23.1091 0.281845 22.1041C-0.298426 21.099 0.0460796 19.8141 1.05102 19.2338Z" fill="#B3DAFE"/>
</svg>
