<svg width="58" height="70" viewBox="0 0 58 70" fill="none" xmlns="http://www.w3.org/2000/svg">
<g clip-path="url(#clip0_366_21)">
<path d="M56.828 15.085H47.1776C46.91 15.085 46.694 15.2834 46.694 15.5295V16.8578C46.694 17.1011 46.91 17.2997 47.1776 17.2997H53.081L30.2827 37.897C30.0911 38.0676 29.784 38.0676 29.5954 37.897L22.4907 31.3621C22.3021 31.1888 21.9949 31.1888 21.8094 31.3621L12.8739 39.5748C12.6853 39.7482 12.6853 40.0306 12.8739 40.2011L13.8957 41.1407C14.0813 41.3141 14.3885 41.3141 14.577 41.1407L21.8094 34.4912C21.9949 34.3205 22.3021 34.3205 22.4907 34.4912L29.5802 41.0121C29.7688 41.1855 30.0789 41.1854 30.2675 41.0149L54.9027 18.7565V24.4021C54.9027 24.6454 55.1187 24.8468 55.3833 24.8468H56.828C57.0926 24.8468 57.3085 24.6454 57.3085 24.4021V15.5295C57.3085 15.2834 57.0926 15.085 56.828 15.085Z" fill="#FEE13E"/>
<path d="M39.5928 53.1004V63.4634C39.5898 65.2837 37.9595 66.7825 35.9796 66.7853H6.02195C4.04201 66.7825 2.41487 65.2837 2.40878 63.4634V53.1004H39.5928ZM40.0734 24.1784H41.518C41.7826 24.1784 42.0016 23.9798 42.0016 23.7366V6.53385C41.9955 3.4831 39.3009 1.0028 35.9796 1H6.02195C2.70075 1.0028 0.00608317 3.4831 0 6.53385V63.4634C0.00608317 66.5169 2.70075 68.9972 6.02195 69H35.9796C39.3009 68.9972 41.9955 66.5169 42.0016 63.4634V35.7634C42.0016 35.5201 41.7826 35.3215 41.518 35.3215H40.0734C39.8087 35.3215 39.5928 35.5201 39.5928 35.7634V50.8885H2.40878V6.53385C2.41487 4.71626 4.04201 3.21745 6.02195 3.21465H35.9796C37.9595 3.21745 39.5898 4.71626 39.5928 6.53385V23.7366C39.5928 23.9798 39.8087 24.1784 40.0734 24.1784Z" fill="#7C30B7"/>
<path d="M15.6408 62.1997H26.3647C26.6293 62.1997 26.8452 62.0011 26.8452 61.7578V60.4297C26.8452 60.1864 26.6293 59.9878 26.3647 59.9878H15.6408C15.3761 59.9878 15.1602 60.1864 15.1602 60.4297V61.7578C15.1602 62.0011 15.3761 62.1997 15.6408 62.1997Z" fill="#FEE556"/>
</g>
<defs>
<clipPath id="clip0_366_21">
<rect width="57.31" height="70" fill="white"/>
</clipPath>
</defs>
</svg>
