<svg width="68" height="70" viewBox="0 0 68 70" fill="none" xmlns="http://www.w3.org/2000/svg">
<path d="M4.05469 34.9989C4.05469 17.9749 17.461 4.17432 33.9986 4.17432C50.5363 4.17432 63.9422 17.9749 63.9422 34.9989C63.9422 52.0227 50.5363 65.8234 33.9986 65.8234" fill="#EDE7F1"/>
<path d="M10.8926 38.4644L16.6962 54.3099L24.9625 58.0786L30.0456 52.8147L26.3283 44.3349L10.8926 38.4644Z" fill="#FEE13E"/>
<path d="M10.8926 38.4644L16.6962 54.3099L24.9625 58.0786L30.0456 52.8147L26.3283 44.3349L10.8926 38.4644Z" stroke="#314E55" stroke-miterlimit="10" stroke-linecap="round" stroke-linejoin="round"/>
<path d="M34.537 54.2061L26.256 62.7306L23.3496 59.7389L31.6306 51.2144L34.537 54.2061Z" fill="#ADADAD"/>
<path d="M34.537 54.2061L26.256 62.7306L23.3496 59.7389L31.6306 51.2144L34.537 54.2061Z" stroke="#314E55" stroke-miterlimit="10" stroke-linecap="round" stroke-linejoin="round"/>
<path d="M19.1736 46.9889L10.8926 38.4644" stroke="#314E55" stroke-miterlimit="10" stroke-linecap="round" stroke-linejoin="round"/>
<path d="M21.7998 46.3774C22.6896 47.2935 22.6896 48.7787 21.7998 49.6945C20.91 50.6102 19.4672 50.6102 18.5775 49.6945C17.6877 48.7787 17.6877 47.2935 18.5775 46.3774C19.4672 45.4614 20.91 45.4614 21.7998 46.3774Z" fill="#314E55"/>
<path d="M4.05469 34.9989C4.05469 17.9749 17.461 4.17432 33.9985 4.17432C50.5363 4.17432 63.9422 17.9749 63.9422 34.9989C63.9422 52.0227 50.5363 65.8234 33.9985 65.8234" stroke="#314E55" stroke-miterlimit="10" stroke-linecap="round" stroke-linejoin="round"/>
<path d="M7.11097 37.9982H1V31.7075H7.11097V37.9982Z" fill="#D6EDF8" stroke="#314E55" stroke-miterlimit="10" stroke-linecap="round" stroke-linejoin="round"/>
<path d="M66.9976 37.9982H60.8867V31.7075H66.9976V37.9982Z" fill="#7C30B7" stroke="#314E55" stroke-miterlimit="10" stroke-linecap="round" stroke-linejoin="round"/>
<path d="M37.0543 7.32002H30.9434V1.0293H37.0543V7.32002Z" fill="#7C30B7" stroke="#314E55" stroke-miterlimit="10" stroke-linecap="round" stroke-linejoin="round"/>
<path d="M37.0543 68.9693H30.9434V62.6787H37.0543V68.9693Z" fill="#7C30B7" stroke="#314E55" stroke-miterlimit="10" stroke-linecap="round" stroke-linejoin="round"/>
<path d="M6.09177 16.8833C6.09177 18.0414 5.18003 18.98 4.05498 18.98C2.92995 18.98 2.01758 18.0414 2.01758 16.8833C2.01758 15.7252 2.92995 14.7866 4.05498 14.7866C5.18003 14.7866 6.09177 15.7252 6.09177 16.8833Z" fill="#D6EDF8"/>
<path d="M6.09177 16.8833C6.09177 18.0414 5.18003 18.98 4.05498 18.98C2.92995 18.98 2.01758 18.0414 2.01758 16.8833C2.01758 15.7252 2.92995 14.7866 4.05498 14.7866C5.18003 14.7866 6.09177 15.7252 6.09177 16.8833Z" stroke="#314E55" stroke-miterlimit="10" stroke-linecap="round" stroke-linejoin="round"/>
<path d="M6.09177 52.8233C6.09177 53.9811 5.18003 54.92 4.05498 54.92C2.92995 54.92 2.01758 53.9811 2.01758 52.8233C2.01758 51.665 2.92995 50.7266 4.05498 50.7266C5.18003 50.7266 6.09177 51.665 6.09177 52.8233Z" fill="#D6EDF8"/>
<path d="M6.09177 52.8233C6.09177 53.9811 5.18003 54.92 4.05498 54.92C2.92995 54.92 2.01758 53.9811 2.01758 52.8233C2.01758 51.665 2.92995 50.7266 4.05498 50.7266C5.18003 50.7266 6.09177 51.665 6.09177 52.8233Z" stroke="#314E55" stroke-miterlimit="10" stroke-linecap="round" stroke-linejoin="round"/>
</svg>
