<svg width="57" height="70" viewBox="0 0 57 70" fill="none" xmlns="http://www.w3.org/2000/svg">
<g clip-path="url(#clip0_385_5859)">
<path d="M7.05664 20.5057V24.0337H19.8991C19.8991 20.0548 23.1239 16.8313 27.1023 16.8313C31.0818 16.8313 34.3055 20.0548 34.3055 24.0337H47.1491V20.6283H39.8284C39.5393 19.5406 39.1121 18.5122 38.5722 17.5551L43.7724 12.358L38.8677 7.44956L33.6896 12.6309C32.7388 12.0811 31.7119 11.646 30.6305 11.3454V3.98877H23.6947V11.3098C22.6089 11.5986 21.5801 12.0257 20.6237 12.5676L15.4227 7.36651L10.5176 12.2709L15.6957 17.4483C15.1455 18.4015 14.7112 19.4259 14.4109 20.5057H7.05664Z" fill="white"/>
<path d="M35.2375 23.0449H46.164V21.617H39.831C39.3836 21.617 38.9928 21.3164 38.8761 20.8814C38.6123 19.8965 38.2219 18.9394 37.714 18.0416C37.4949 17.6579 37.5606 17.1714 37.875 16.8589L42.3767 12.3579L38.8702 8.84968L34.3915 13.327C34.0747 13.6434 33.5842 13.7106 33.1969 13.4852C32.3078 12.967 31.3569 12.5715 30.3688 12.2986C29.9416 12.176 29.6458 11.7884 29.6458 11.3454V4.97754H24.6845V11.3098C24.6845 11.7568 24.3839 12.1483 23.952 12.263C22.9627 12.528 22.0079 12.9196 21.1124 13.4258C20.7275 13.6434 20.2422 13.5801 19.9273 13.2676L15.4253 8.76266L11.9184 12.2709L16.3967 16.7482C16.7132 17.0686 16.778 17.5551 16.5534 17.9427C16.0399 18.8326 15.6397 19.7858 15.3659 20.7706C15.2473 21.1978 14.8581 21.4944 14.4135 21.4944H8.04684V23.0449H18.9733C19.461 18.9948 22.9212 15.8424 27.1048 15.8424C31.2889 15.8424 34.7483 18.9948 35.2375 23.0449ZM47.1517 25.0225H34.308C33.7634 25.0225 33.3215 24.5795 33.3215 24.0337C33.3215 20.6085 30.533 17.82 27.1048 17.82C23.6774 17.82 20.8893 20.6085 20.8893 24.0337C20.8893 24.5795 20.4475 25.0225 19.9016 25.0225H7.05917C6.51292 25.0225 6.07031 24.5795 6.07031 24.0337V20.5056C6.07031 19.9598 6.51292 19.5208 7.05917 19.5208H13.6829C13.9008 18.8682 14.1667 18.2354 14.4776 17.6263L9.82164 12.967C9.63653 12.7851 9.53171 12.532 9.53171 12.2709C9.53171 12.0099 9.63653 11.7568 9.82164 11.5748L14.7252 6.66641C15.1112 6.28275 15.7385 6.28275 16.1246 6.66641L20.8078 11.3533C21.4221 11.0448 22.0569 10.7877 22.708 10.5702V3.98874C22.708 3.44688 23.151 2.99994 23.6972 2.99994H30.6331C31.1785 2.99994 31.6219 3.44688 31.6219 3.98874V10.6137C32.271 10.8312 32.9031 11.0962 33.515 11.4087L38.1705 6.75343C38.5557 6.36582 39.1803 6.36582 39.5675 6.75343L44.4738 11.6539C44.6593 11.8398 44.763 12.0929 44.763 12.3579C44.763 12.615 44.6593 12.8681 44.4738 13.054L39.7894 17.737C40.096 18.3501 40.3554 18.9868 40.5675 19.6394H47.1517C47.6971 19.6394 48.1401 20.0824 48.1401 20.6282V24.0337C48.1401 24.5795 47.6971 25.0225 47.1517 25.0225Z" fill="#201D18"/>
<path d="M53.1551 29.7607H3.125V25.6908H53.1551V29.7607Z" fill="#7C30B7"/>
<path d="M1.97572 30.4291H54.3039V25.0224H1.97572V30.4291ZM55.2903 32.4067H0.988448C0.442996 32.4067 0 31.9598 0 31.414V24.0336C0 23.4878 0.442996 23.0448 0.988448 23.0448H55.2903C55.8366 23.0448 56.28 23.4878 56.28 24.0336V31.414C56.28 31.9598 55.8366 32.4067 55.2903 32.4067Z" fill="#201D18"/>
<path d="M55.2902 67.0107H0.988281V32.094H55.2902V67.0107Z" fill="white"/>
<path d="M1.97572 66.0232H54.3039V33.0832H1.97572V66.0232ZM55.2903 68H0.988448C0.442996 68 0 67.5566 0 67.0112V32.0944C0 31.5486 0.442996 31.1056 0.988448 31.1056H55.2903C55.8366 31.1056 56.28 31.5486 56.28 32.0944V67.0112C56.28 67.5566 55.8366 68 55.2903 68Z" fill="#201D18"/>
<path d="M5.95117 36.0098H50.9116V62.3398H5.95117V36.0098Z" fill="#7C30B7"/>
<path d="M40.3869 27.7242C40.3869 28.3135 39.9127 28.7881 39.3249 28.7881C38.7395 28.7881 38.2637 28.3135 38.2637 27.7242C38.2637 27.1388 38.7395 26.6642 39.3249 26.6642C39.9127 26.6642 40.3869 27.1388 40.3869 27.7242Z" fill="white"/>
<path d="M45.7659 27.7242C45.7659 28.3135 45.2916 28.7881 44.7038 28.7881C44.1184 28.7881 43.6426 28.3135 43.6426 27.7242C43.6426 27.1388 44.1184 26.6642 44.7038 26.6642C45.2916 26.6642 45.7659 27.1388 45.7659 27.7242Z" fill="white"/>
<path d="M50.4947 27.7242C50.4947 28.3135 50.0189 28.7881 49.4323 28.7881C48.8469 28.7881 48.3711 28.3135 48.3711 27.7242C48.3711 27.1388 48.8469 26.6642 49.4323 26.6642C50.0189 26.6642 50.4947 27.1388 50.4947 27.7242Z" fill="white"/>
<path d="M20.3654 57.4785C20.1126 57.4785 19.8595 57.382 19.6669 57.1878L12.0313 49.5567C11.8466 49.3708 11.7422 49.1176 11.7422 48.8566C11.7422 48.5916 11.8466 48.3424 12.0313 48.1565L19.9683 40.2184C20.3555 39.8348 20.9797 39.8348 21.3657 40.2184C21.7529 40.6061 21.7529 41.2349 21.3657 41.6186L14.1273 48.8566L21.0647 55.7908C21.4515 56.1773 21.4515 56.8045 21.0647 57.1878C20.8721 57.382 20.6189 57.4785 20.3654 57.4785Z" fill="white"/>
<path d="M35.9135 57.4785C35.66 57.4785 35.408 57.382 35.215 57.1878C34.8285 56.8045 34.8285 56.1773 35.215 55.7908L42.1504 48.8566L34.912 41.6186C34.5267 41.2349 34.5267 40.6061 34.912 40.2184C35.2976 39.8348 35.9242 39.8348 36.3102 40.2184L44.2472 48.1565C44.4323 48.3424 44.5359 48.5916 44.5359 48.8566C44.5359 49.1176 44.4323 49.3708 44.2472 49.5567L36.6116 57.1878C36.4178 57.382 36.1675 57.4785 35.9135 57.4785Z" fill="white"/>
<path d="M22.2595 60.3813C22.1187 60.3813 21.9728 60.3501 21.8363 60.2841C21.3427 60.0495 21.1326 59.461 21.368 58.967L31.0532 38.6401C31.2878 38.1497 31.8771 37.94 32.3704 38.1734C32.8636 38.4107 33.072 39 32.8379 39.4905L23.1519 59.8189C22.983 60.1725 22.6282 60.3813 22.2595 60.3813Z" fill="white"/>
</g>
<defs>
<clipPath id="clip0_385_5859">
<rect width="56.28" height="70" fill="white"/>
</clipPath>
</defs>
</svg>
