<svg width="62" height="70" viewBox="0 0 62 70" fill="none" xmlns="http://www.w3.org/2000/svg">
<path d="M34.6208 53.9219L38.1176 64.7843L24.0684 64.5859L26.66 54.3187L34.6208 53.9219Z" fill="#FFDA44"/>
<path d="M57.1018 5.42578H5.09618C3.06908 5.42578 1.42578 7.06908 1.42578 9.09618V42.5762C1.42578 44.6033 3.06908 46.2466 5.09618 46.2466H57.1018C59.1289 46.2466 60.7722 44.6033 60.7722 42.5762V9.09618C60.7722 7.06908 59.1289 5.42578 57.1018 5.42578Z" fill="#D7DEE2"/>
<path d="M60.7722 12.6802H1.42578V46.247H60.7722V12.6802Z" fill="white"/>
<path d="M57.1018 46.2466H5.09618C3.06908 46.2466 1.42578 47.8899 1.42578 49.917V50.1526C1.42578 52.1797 3.06908 53.823 5.09618 53.823H57.1018C59.1289 53.823 60.7722 52.1797 60.7722 50.1526V49.917C60.7722 47.8899 59.1289 46.2466 57.1018 46.2466Z" fill="#FFDA44"/>
<path d="M57.1144 55.1748H4.8856C3.58986 55.1748 2.34719 54.6601 1.43096 53.7438C0.514731 52.8276 0 51.5849 0 50.2892V46.718C0 46.3891 0.130643 46.0737 0.363188 45.8412C0.595733 45.6086 0.911132 45.478 1.24 45.478H60.76C61.0889 45.478 61.4043 45.6086 61.6368 45.8412C61.8694 46.0737 62 46.3891 62 46.718V50.2892C62 51.5849 61.4853 52.8276 60.569 53.7438C59.6528 54.6601 58.4101 55.1748 57.1144 55.1748ZM2.48 47.958V50.2892C2.48 50.9272 2.73345 51.5391 3.18458 51.9902C3.63572 52.4414 4.24759 52.6948 4.8856 52.6948H57.1144C57.4303 52.6948 57.7431 52.6326 58.035 52.5117C58.3268 52.3908 58.592 52.2136 58.8154 51.9902C59.0388 51.7668 59.216 51.5016 59.3369 51.2098C59.4578 50.9179 59.52 50.6051 59.52 50.2892V47.958H2.48ZM60.76 34.07C60.4311 34.07 60.1157 33.9394 59.8832 33.7068C59.6506 33.4743 59.52 33.1589 59.52 32.83V8.8856C59.52 8.24759 59.2666 7.63572 58.8154 7.18458C58.3643 6.73345 57.7524 6.48 57.1144 6.48H4.8856C4.24759 6.48 3.63572 6.73345 3.18458 7.18458C2.73345 7.63572 2.48 8.24759 2.48 8.8856V12.68C2.48 13.0089 2.34936 13.3243 2.11681 13.5568C1.88427 13.7894 1.56887 13.92 1.24 13.92C0.911132 13.92 0.595733 13.7894 0.363188 13.5568C0.130643 13.3243 0 13.0089 0 12.68V8.8856C0.0192055 7.59584 0.540103 6.3643 1.4522 5.4522C2.3643 4.5401 3.59584 4.01921 4.8856 4H57.1144C58.4042 4.01921 59.6357 4.5401 60.5478 5.4522C61.4599 6.3643 61.9808 7.59584 62 8.8856V32.83C62 33.1589 61.8694 33.4743 61.6368 33.7068C61.4043 33.9394 61.0889 34.07 60.76 34.07Z" fill="#7C30B7"/>
<path d="M60.76 47.958H1.24C0.911132 47.958 0.595733 47.8274 0.363188 47.5948C0.130643 47.3623 0 47.0469 0 46.718V22.3396C0 22.0107 0.130643 21.6953 0.363188 21.4628C0.595733 21.2303 0.911132 21.0996 1.24 21.0996C1.56887 21.0996 1.88427 21.2303 2.11681 21.4628C2.34936 21.6953 2.48 22.0107 2.48 22.3396V45.478H59.52V41.6464C59.52 41.3175 59.6506 41.0021 59.8832 40.7696C60.1157 40.5371 60.4311 40.4064 60.76 40.4064C61.0889 40.4064 61.4043 40.5371 61.6368 40.7696C61.8694 41.0021 62 41.3175 62 41.6464V46.718C62 47.0469 61.8694 47.3623 61.6368 47.5948C61.4043 47.8274 61.0889 47.958 60.76 47.958ZM38.2168 66H23.7832C23.5907 66 23.4008 65.9552 23.2287 65.8691C23.0565 65.783 22.9067 65.658 22.7912 65.504C22.6776 65.3514 22.6006 65.1748 22.5662 64.9877C22.5318 64.8007 22.5409 64.6082 22.5928 64.4252L25.6804 53.6C25.7554 53.3318 25.9185 53.0966 26.1435 52.9324C26.3684 52.7682 26.6421 52.6845 26.9204 52.6948H35.1788C35.4571 52.6845 35.7308 52.7682 35.9557 52.9324C36.1807 53.0966 36.3438 53.3318 36.4188 53.6L37.4604 57.2208C37.5508 57.5382 37.5115 57.8785 37.351 58.1668C37.1906 58.4552 36.9222 58.668 36.6048 58.7584C36.2874 58.8488 35.9472 58.8095 35.6588 58.6491C35.3704 58.4886 35.1576 58.2202 35.0672 57.9028L34.2984 55.1748H27.8008L25.4324 63.52H36.5924L36.146 61.9204C36.1004 61.7641 36.086 61.6003 36.1037 61.4384C36.1214 61.2766 36.1709 61.1198 36.2492 60.977C36.4073 60.6886 36.6735 60.4749 36.9892 60.3828C37.1463 60.3374 37.3109 60.3236 37.4734 60.3421C37.6359 60.3606 37.7931 60.4111 37.9361 60.4906C38.079 60.5701 38.2048 60.6772 38.3061 60.8055C38.4075 60.9338 38.4825 61.081 38.5268 61.2384L39.432 64.4252C39.4839 64.6082 39.493 64.8007 39.4586 64.9877C39.4242 65.1748 39.3472 65.3514 39.2336 65.504C39.1156 65.6614 38.9619 65.7885 38.7851 65.8747C38.6083 65.961 38.4135 66.0039 38.2168 66Z" fill="#7C30B7"/>
<path d="M6.81984 51.7398H5.57984C5.25098 51.7398 4.93558 51.6091 4.70303 51.3766C4.47049 51.144 4.33984 50.8286 4.33984 50.4998C4.33984 50.1709 4.47049 49.8555 4.70303 49.623C4.93558 49.3904 5.25098 49.2598 5.57984 49.2598H6.81984C7.14871 49.2598 7.46411 49.3904 7.69666 49.623C7.9292 49.8555 8.05984 50.1709 8.05984 50.4998C8.05984 50.8286 7.9292 51.144 7.69666 51.3766C7.46411 51.6091 7.14871 51.7398 6.81984 51.7398ZM26.6598 51.7398H10.5398C10.211 51.7398 9.89558 51.6091 9.66303 51.3766C9.43049 51.144 9.29984 50.8286 9.29984 50.4998C9.29984 50.1709 9.43049 49.8555 9.66303 49.623C9.89558 49.3904 10.211 49.2598 10.5398 49.2598H26.6598C26.9887 49.2598 27.3041 49.3904 27.5367 49.623C27.7692 49.8555 27.8998 50.1709 27.8998 50.4998C27.8998 50.8286 27.7692 51.144 27.5367 51.3766C27.3041 51.6091 26.9887 51.7398 26.6598 51.7398ZM56.4198 51.7398H56.1718C56.0942 51.7262 56.0189 51.7011 55.9486 51.6654L55.7254 51.5538L55.5394 51.405C55.4266 51.287 55.3381 51.148 55.279 50.9958C55.2155 50.8467 55.1818 50.6866 55.1798 50.5246C55.1743 50.442 55.1743 50.3591 55.1798 50.2766C55.1934 50.1989 55.2185 50.1237 55.2542 50.0534C55.2814 49.9743 55.3189 49.8993 55.3658 49.8302L55.5146 49.6442L55.7006 49.4954L55.9238 49.3838C55.9941 49.348 56.0694 49.3229 56.147 49.3094C56.3888 49.2622 56.6392 49.2881 56.8662 49.3838C57.0185 49.4428 57.1575 49.5313 57.2754 49.6442C57.3288 49.7031 57.3785 49.7652 57.4242 49.8302C57.4712 49.8993 57.5087 49.9743 57.5358 50.0534C57.5716 50.1237 57.5967 50.1989 57.6102 50.2766C57.6158 50.3591 57.6158 50.442 57.6102 50.5246C57.6102 50.8534 57.4796 51.1688 57.2471 51.4014C57.0145 51.6339 56.6991 51.7646 56.3702 51.7646L56.4198 51.7398Z" fill="#5AA1ED"/>
<path d="M52.7003 51.74C52.454 51.7414 52.2129 51.6694 52.0077 51.5333C51.8024 51.3971 51.6424 51.2029 51.5479 50.9755C51.4535 50.748 51.4289 50.4976 51.4774 50.2561C51.5258 50.0146 51.6451 49.793 51.8199 49.6196C51.9379 49.5067 52.0769 49.4182 52.2291 49.3592C52.455 49.2642 52.7038 49.2383 52.9444 49.2846C53.1849 49.3309 53.4064 49.4475 53.5807 49.6196C53.8073 49.8572 53.9358 50.1716 53.9403 50.5C53.9384 50.662 53.9047 50.8221 53.8411 50.9712C53.7821 51.1234 53.6936 51.2624 53.5807 51.3804C53.3431 51.6069 53.0286 51.7354 52.7003 51.74Z" fill="#EF597D"/>
<path d="M31.0017 10.8947C30.8397 10.8927 30.6796 10.859 30.5305 10.7955C30.3766 10.7398 30.2369 10.6509 30.1212 10.5352C30.0055 10.4195 29.9166 10.2797 29.8609 10.1259C29.7974 9.97679 29.7637 9.81671 29.7617 9.65467C29.7663 9.32636 29.8947 9.0119 30.1213 8.77427C30.2418 8.66474 30.3802 8.57667 30.5305 8.51387C30.7575 8.41818 31.0079 8.39227 31.2497 8.43947L31.4729 8.51387L31.6961 8.62547L31.8821 8.77427L32.0309 8.96027C32.0778 9.02939 32.1154 9.10445 32.1425 9.18347C32.1783 9.25376 32.2033 9.32899 32.2169 9.40667C32.223 9.48923 32.223 9.57212 32.2169 9.65467C32.2211 9.81733 32.1871 9.97871 32.1177 10.1259C32.0549 10.2761 31.9668 10.4145 31.8573 10.5351L31.6713 10.6839L31.4481 10.7955L31.2249 10.8699L31.0017 10.8947ZM17.0021 41.4111H7.21852C6.88965 41.4111 6.57425 41.2804 6.3417 41.0479C6.10916 40.8153 5.97852 40.4999 5.97852 40.1711C5.97852 39.8422 6.10916 39.5268 6.3417 39.2943C6.57425 39.0617 6.88965 38.9311 7.21852 38.9311H17.0021C17.331 38.9311 17.6464 39.0617 17.8789 39.2943C18.1115 39.5268 18.2421 39.8422 18.2421 40.1711C18.2421 40.4999 18.1115 40.8153 17.8789 41.0479C17.6464 41.2804 17.331 41.4111 17.0021 41.4111ZM13.2821 34.9011H7.21852C6.88965 34.9011 6.57425 34.7704 6.3417 34.5379C6.10916 34.3053 5.97852 33.9899 5.97852 33.6611C5.97852 33.3322 6.10916 33.0168 6.3417 32.7843C6.57425 32.5517 6.88965 32.4211 7.21852 32.4211H13.2821C13.611 32.4211 13.9264 32.5517 14.1589 32.7843C14.3915 33.0168 14.5221 33.3322 14.5221 33.6611C14.5221 33.9899 14.3915 34.3053 14.1589 34.5379C13.9264 34.7704 13.611 34.9011 13.2821 34.9011Z" fill="#7C30B7"/>
<path d="M35.7601 40.9894C40.8484 40.9894 44.9733 36.8645 44.9733 31.7762C44.9733 26.6879 40.8484 22.563 35.7601 22.563C30.6718 22.563 26.5469 26.6879 26.5469 31.7762C26.5469 36.8645 30.6718 40.9894 35.7601 40.9894Z" fill="#7C30B7"/>
<path d="M17.5208 8.57568H6.06317C5.46737 8.57568 4.98438 9.05868 4.98438 9.65448V9.66688C4.98438 10.2627 5.46737 10.7457 6.06317 10.7457H17.5208C18.1166 10.7457 18.5996 10.2627 18.5996 9.66688V9.65448C18.5996 9.05868 18.1166 8.57568 17.5208 8.57568Z" fill="white"/>
<path d="M55.3411 16.2012H43.8835C43.2877 16.2012 42.8047 16.6842 42.8047 17.28V17.2924C42.8047 17.8882 43.2877 18.3712 43.8835 18.3712H55.3411C55.9369 18.3712 56.4199 17.8882 56.4199 17.2924V17.28C56.4199 16.6842 55.9369 16.2012 55.3411 16.2012Z" fill="#D7DEE2"/>
<path d="M55.3417 20.0088H50.3073C49.7115 20.0088 49.2285 20.4918 49.2285 21.0876V21.1C49.2285 21.6958 49.7115 22.1788 50.3073 22.1788H55.3417C55.9375 22.1788 56.4205 21.6958 56.4205 21.1V21.0876C56.4205 20.4918 55.9375 20.0088 55.3417 20.0088Z" fill="#D7DEE2"/>
<path d="M24.5773 32.6566C24.252 32.6552 23.9403 32.5261 23.7093 32.297L18.8609 27.4486C18.7447 27.3333 18.6525 27.1962 18.5895 27.0451C18.5266 26.8939 18.4941 26.7319 18.4941 26.5682C18.4941 26.4045 18.5266 26.2424 18.5895 26.0913C18.6525 25.9402 18.7447 25.8031 18.8609 25.6878L24.0317 20.517C24.2641 20.286 24.5783 20.1564 24.9059 20.1564C25.2335 20.1564 25.5478 20.286 25.7801 20.517C26.0111 20.7493 26.1407 21.0636 26.1407 21.3912C26.1407 21.7188 26.0111 22.0331 25.7801 22.2654L21.4897 26.5682L25.4577 30.5486C25.6887 30.7809 25.8183 31.0952 25.8183 31.4228C25.8183 31.7504 25.6887 32.0646 25.4577 32.297C25.3419 32.4119 25.2045 32.5028 25.0534 32.5645C24.9023 32.6262 24.7405 32.6575 24.5773 32.6566ZM37.4237 32.6566C37.2605 32.6575 37.0988 32.6262 36.9477 32.5645C36.7966 32.5028 36.6592 32.4119 36.5433 32.297C36.3124 32.0646 36.1827 31.7504 36.1827 31.4228C36.1827 31.0952 36.3124 30.7809 36.5433 30.5486L40.5113 26.5682L36.2209 22.2654C35.99 22.0331 35.8603 21.7188 35.8603 21.3912C35.8603 21.0636 35.99 20.7493 36.2209 20.517C36.4533 20.286 36.7675 20.1564 37.0951 20.1564C37.4227 20.1564 37.737 20.286 37.9693 20.517L43.1401 25.6878C43.2564 25.8031 43.3486 25.9402 43.4116 26.0913C43.4745 26.2424 43.5069 26.4045 43.5069 26.5682C43.5069 26.7319 43.4745 26.8939 43.4116 27.0451C43.3486 27.1962 43.2564 27.3333 43.1401 27.4486L38.2917 32.297C38.0608 32.5261 37.749 32.6552 37.4237 32.6566ZM27.9377 35.831C27.7752 35.8338 27.6141 35.7999 27.4665 35.7318C27.165 35.6056 26.9254 35.3654 26.8 35.0636C26.6746 34.7617 26.6735 34.4225 26.7969 34.1198C34.0137 16.7598 34.2369 16.611 34.6337 16.3382C34.9071 16.1587 35.2403 16.0945 35.5608 16.1595C35.8813 16.2246 36.1631 16.4136 36.3449 16.6854C36.4917 16.8942 36.5704 17.1432 36.5704 17.3984C36.5704 17.6536 36.4917 17.9026 36.3449 18.1114C35.7621 19.1778 31.6329 29.011 29.1157 35.0622C29.0204 35.2946 28.8567 35.4925 28.6463 35.6298C28.4359 35.7671 28.1888 35.8372 27.9377 35.831Z" fill="#FFDA44"/>
</svg>
