<svg width="64" height="70" viewBox="0 0 64 70" fill="none" xmlns="http://www.w3.org/2000/svg">
<g clip-path="url(#clip0_385_6045)">
<path d="M46.3443 30.6893V54.9646H0V30.6893C0.00174644 30.1045 0.234816 29.5442 0.648307 29.1307C1.0618 28.7172 1.62211 28.4842 2.20687 28.4824H44.1374C44.7222 28.4842 45.2825 28.7172 45.696 29.1307C46.1095 29.5442 46.3426 30.1045 46.3443 30.6893Z" fill="#EADBF5"/>
<path d="M26.4839 59.3779H19.8633V62.6882H26.4839V59.3779Z" fill="#787680"/>
<path d="M30.8954 62.6885H15.4473V65.9988H30.8954V62.6885Z" fill="#E0E0E2"/>
<path d="M46.3443 54.9644V57.1712C46.3426 57.756 46.1095 58.3163 45.696 58.7298C45.2825 59.1432 44.7222 59.3763 44.1374 59.3781H2.20687C1.62211 59.3763 1.0618 59.1432 0.648307 58.7298C0.234816 58.3163 0.00174644 57.756 0 57.1712V54.9644H46.3443Z" fill="#7C30B7"/>
<path d="M33.1021 64.895H13.2402V67.1019H33.1021V64.895Z" fill="#7C30B7"/>
<path d="M22.0703 54.9643H46.3459V30.689C46.3459 33.8768 45.718 37.0335 44.498 39.9787C43.2781 42.924 41.4899 45.6001 39.2358 47.8542C36.9816 50.1084 34.3054 51.8965 31.3602 53.1165C28.4149 54.3364 25.2582 54.9643 22.0703 54.9643Z" fill="#7C30B7"/>
<path d="M20.9653 8.62055C22.4285 8.62055 23.8319 9.20182 24.8665 10.2365C25.9012 11.2711 26.4825 12.6744 26.4825 14.1377C26.4825 15.6009 25.9012 17.0042 24.8665 18.0389C23.8319 19.0735 22.4285 19.6548 20.9653 19.6548H5.51718C4.05393 19.6548 2.65062 19.0735 1.61594 18.0389C0.581273 17.0042 0 15.6009 0 14.1377C0 12.6744 0.581273 11.2711 1.61594 10.2365C2.65062 9.20182 4.05393 8.62055 5.51718 8.62055C5.51718 6.86467 6.21471 5.18071 7.45631 3.93911C8.69792 2.69752 10.3819 2 12.1378 2C13.8937 2 15.5777 2.69752 16.8193 3.93911C18.0609 5.18071 18.7584 6.86467 18.7584 8.62055C18.7584 8.78606 18.7474 8.94054 18.7363 9.09502C19.4386 8.7848 20.1975 8.62325 20.9653 8.62055Z" fill="#7C30B7"/>
<path d="M16.7945 49.0336L12.3807 43.5165C12.224 43.3208 12.1387 43.0776 12.1387 42.8269C12.1387 42.5762 12.224 42.3329 12.3807 42.1372L16.7945 36.6201L18.518 37.9994L14.6549 42.8269L18.5169 47.6544L16.7945 49.0336ZM29.5524 49.0336L27.8288 47.6544L31.692 42.8269L27.8299 37.9994L29.5535 36.6201L33.9673 42.1372C34.124 42.3329 34.2093 42.5762 34.2093 42.8269C34.2093 43.0776 34.124 43.3208 33.9673 43.5165L29.5524 49.0336Z" fill="#1A6FB0"/>
<path d="M24.3511 36.8996L19.9414 47.9351L21.9907 48.7539L26.4004 37.7184L24.3511 36.8996Z" fill="#1A6FB0"/>
<path d="M11.033 19.6548H8.82617V32.8959H11.033V19.6548Z" fill="#1A6FB0"/>
<path d="M51.8606 43.9299H41.9297V41.7231H50.7572V22.9648H52.964V42.8265C52.964 43.1191 52.8478 43.3998 52.6409 43.6067C52.4339 43.8137 52.1533 43.9299 51.8606 43.9299Z" fill="#FEE13E"/>
<path d="M60.6901 11.9311V14.1379H43.0352V11.9311V10.8276H60.6901V11.9311Z" fill="#3E3D42"/>
<path d="M61.7914 2H41.9295C40.7107 2 39.7227 2.98804 39.7227 4.20685V8.62055C39.7227 9.83936 40.7107 10.8274 41.9295 10.8274H61.7914C63.0102 10.8274 63.9983 9.83936 63.9983 8.62055V4.20685C63.9983 2.98804 63.0102 2 61.7914 2Z" fill="#7C30B7"/>
<path d="M62.6965 2.19971C62.8271 2.48316 62.8952 2.79135 62.8963 3.10341V7.51711C62.8945 8.10187 62.6614 8.66218 62.248 9.07566C61.8345 9.48915 61.2742 9.72222 60.6894 9.72396H40.8275C40.5155 9.7229 40.2073 9.65478 39.9238 9.52424C40.0976 9.91147 40.3794 10.2404 40.7354 10.4715C41.0914 10.7026 41.5065 10.8262 41.931 10.8274H61.7928C62.3776 10.8256 62.9379 10.5926 63.3514 10.1791C63.7649 9.7656 63.998 9.20529 63.9997 8.62054V4.20684C63.9985 3.78239 63.8749 3.3673 63.6438 3.0113C63.4127 2.65531 63.0838 2.37352 62.6965 2.19971Z" fill="#FEE13E"/>
<path d="M45.242 8.62073C46.4609 8.62073 47.4489 7.63269 47.4489 6.41388C47.4489 5.19507 46.4609 4.20703 45.242 4.20703C44.0232 4.20703 43.0352 5.19507 43.0352 6.41388C43.0352 7.63269 44.0232 8.62073 45.242 8.62073Z" fill="#D80027"/>
<path d="M51.8612 8.62073C53.08 8.62073 54.068 7.63269 54.068 6.41388C54.068 5.19507 53.08 4.20703 51.8612 4.20703C50.6423 4.20703 49.6543 5.19507 49.6543 6.41388C49.6543 7.63269 50.6423 8.62073 51.8612 8.62073Z" fill="#FFDA44"/>
<path d="M58.4823 8.62073C59.7011 8.62073 60.6891 7.63269 60.6891 6.41388C60.6891 5.19507 59.7011 4.20703 58.4823 4.20703C57.2634 4.20703 56.2754 5.19507 56.2754 6.41388C56.2754 7.63269 57.2634 8.62073 58.4823 8.62073Z" fill="#C2FB3B"/>
<path d="M60.6901 10.8276H43.0352V11.9311H60.6901V10.8276Z" fill="#FEE13E"/>
<path d="M61.7914 14.1377H41.9295C40.7107 14.1377 39.7227 15.1257 39.7227 16.3445V20.7582C39.7227 21.9771 40.7107 22.9651 41.9295 22.9651H61.7914C63.0102 22.9651 63.9983 21.9771 63.9983 20.7582V16.3445C63.9983 15.1257 63.0102 14.1377 61.7914 14.1377Z" fill="#7C30B7"/>
<path d="M62.6965 14.3374C62.8271 14.6209 62.8952 14.929 62.8963 15.2411V19.6548C62.8945 20.2396 62.6614 20.7999 62.248 21.2134C61.8345 21.6268 61.2742 21.8599 60.6894 21.8617H40.8275C40.5155 21.8606 40.2073 21.7925 39.9238 21.6619C40.0976 22.0492 40.3794 22.3781 40.7354 22.6092C41.0914 22.8403 41.5065 22.9639 41.931 22.9651H61.7928C62.3776 22.9633 62.9379 22.7303 63.3514 22.3168C63.7649 21.9033 63.998 21.343 63.9997 20.7582V16.3445C63.9985 15.9201 63.8749 15.505 63.6438 15.149C63.4127 14.793 63.0838 14.5112 62.6965 14.3374Z" fill="#FEE13E"/>
<path d="M45.242 20.7584C46.4609 20.7584 47.4489 19.7704 47.4489 18.5516C47.4489 17.3328 46.4609 16.3447 45.242 16.3447C44.0232 16.3447 43.0352 17.3328 43.0352 18.5516C43.0352 19.7704 44.0232 20.7584 45.242 20.7584Z" fill="#D80027"/>
<path d="M51.8612 20.7584C53.08 20.7584 54.068 19.7704 54.068 18.5516C54.068 17.3328 53.08 16.3447 51.8612 16.3447C50.6423 16.3447 49.6543 17.3328 49.6543 18.5516C49.6543 19.7704 50.6423 20.7584 51.8612 20.7584Z" fill="#FFDA44"/>
<path d="M58.4823 20.7584C59.7011 20.7584 60.6891 19.7704 60.6891 18.5516C60.6891 17.3328 59.7011 16.3447 58.4823 16.3447C57.2634 16.3447 56.2754 17.3328 56.2754 18.5516C56.2754 19.7704 57.2634 20.7584 58.4823 20.7584Z" fill="#C2FB3B"/>
<path d="M9.9314 38.413C11.7596 38.413 13.2417 36.931 13.2417 35.1028C13.2417 33.2745 11.7596 31.7925 9.9314 31.7925C8.10317 31.7925 6.62109 33.2745 6.62109 35.1028C6.62109 36.931 8.10317 38.413 9.9314 38.413Z" fill="#FEE13E"/>
<path d="M39.7224 46.1372C41.5507 46.1372 43.0327 44.6551 43.0327 42.8269C43.0327 40.9987 41.5507 39.5166 39.7224 39.5166C37.8942 39.5166 36.4121 40.9987 36.4121 42.8269C36.4121 44.6551 37.8942 46.1372 39.7224 46.1372Z" fill="#FEE13E"/>
<path d="M26.4839 59.3779H19.8633V60.4814H26.4839V59.3779Z" fill="#FEE13E"/>
</g>
<defs>
<clipPath id="clip0_385_6045">
<rect width="64" height="70" fill="white"/>
</clipPath>
</defs>
</svg>
