<svg width="64" height="70" viewBox="0 0 64 70" fill="none" xmlns="http://www.w3.org/2000/svg">
<g clip-path="url(#clip0_386_6594)">
<path d="M52.9167 38.9586H41.9445C41.1509 38.9586 40.3897 38.6433 39.8286 38.0822C39.2674 37.521 38.9521 36.7599 38.9521 35.9663V27.9867C38.9521 27.1931 39.2674 26.432 39.8286 25.8708C40.3897 25.3097 41.1509 24.9944 41.9445 24.9944H52.5676C52.7275 24.9953 52.8853 24.9577 53.0277 24.8848C53.17 24.8118 53.2928 24.7058 53.3855 24.5755C53.4765 24.4447 53.5348 24.2941 53.5557 24.1362C53.5765 23.9783 53.5592 23.8177 53.5052 23.6678C53.4267 23.4392 53.3334 23.216 53.2259 22.9995C52.6607 21.808 51.7696 20.8009 50.6557 20.0948C49.5418 19.3887 48.2507 19.0125 46.9319 19.0098H26.9824C26.7179 19.0098 26.4642 19.1149 26.2771 19.3019C26.09 19.489 25.985 19.7427 25.985 20.0072V22.3013C25.9953 22.3774 25.9953 22.4546 25.985 22.5307C25.9656 22.6496 25.9356 22.7664 25.8952 22.8798C25.8952 22.9696 25.8353 23.0594 25.7954 23.1491C25.7555 23.2389 25.7456 23.2688 25.7256 23.3187L25.6159 23.5182C25.4375 23.8184 25.2079 24.0851 24.9376 24.3062L24.7381 24.4558C24.6108 24.5418 24.4775 24.6185 24.3391 24.6852L24.1995 24.7451L23.9302 24.8448C23.8563 24.8738 23.7793 24.8939 23.7007 24.9046C23.5832 24.9359 23.463 24.9559 23.3416 24.9645L22.9925 24.9944H11.0229C10.7583 24.9944 10.5046 25.0995 10.3175 25.2866C10.1305 25.4736 10.0254 25.7273 10.0254 25.9919V45.9407C10.0254 47.7925 10.761 49.5684 12.0705 50.8778C13.3799 52.1872 15.1559 52.9228 17.0077 52.9228H46.9319C48.7837 52.9228 50.5597 52.1872 51.8691 50.8778C53.1786 49.5684 53.9142 47.7925 53.9142 45.9407V39.956C53.9142 39.6915 53.8091 39.4378 53.622 39.2507C53.435 39.0637 53.1813 38.9586 52.9167 38.9586ZM51.9192 45.9407C51.9192 46.5956 51.7902 47.2441 51.5396 47.8492C51.289 48.4543 50.9216 49.0041 50.4585 49.4672C49.9954 49.9303 49.4455 50.2976 48.8405 50.5483C48.2354 50.7989 47.5868 50.9279 46.9319 50.9279H17.0077C16.3527 50.9279 15.7042 50.7989 15.0991 50.5483C14.494 50.2976 13.9442 49.9303 13.4811 49.4672C13.018 49.0041 12.6506 48.4543 12.4 47.8492C12.1493 47.2441 12.0203 46.5956 12.0203 45.9407V26.9893H22.9925C23.1719 26.9992 23.3518 26.9992 23.5312 26.9893H23.7805C23.9053 26.9766 24.0288 26.9533 24.1496 26.9195H24.2793C24.4554 26.8735 24.6287 26.8169 24.798 26.7499C24.983 26.6792 25.163 26.5959 25.3366 26.5006C25.5033 26.4126 25.6633 26.3126 25.8154 26.2013C25.97 26.0995 26.1167 25.9861 26.2543 25.8622L26.3241 25.7924C26.4211 25.7137 26.5112 25.627 26.5934 25.533C26.6718 25.4547 26.7451 25.3714 26.8129 25.2837C26.9026 25.1839 26.9824 25.0642 27.0722 24.9545L27.152 24.8348L27.3315 24.5256C27.3806 24.4457 27.4239 24.3623 27.4612 24.2763C27.4612 24.1765 27.551 24.0768 27.5909 23.977C27.7153 23.6721 27.8056 23.3543 27.8602 23.0295C27.8865 22.9248 27.9032 22.818 27.9101 22.7103C27.9554 22.4769 27.9788 22.2398 27.9799 22.0021V21.0046H46.9319C47.7061 21.0046 48.4698 21.1849 49.1623 21.5312C49.8548 21.8774 50.4572 22.3801 50.9218 22.9995H41.9445C40.6218 22.9995 39.3532 23.525 38.4179 24.4603C37.4826 25.3955 36.9571 26.6641 36.9571 27.9867V35.9663C36.9571 37.289 37.4826 38.5575 38.4179 39.4928C39.3532 40.4281 40.6218 40.9535 41.9445 40.9535H51.9192V45.9407Z" fill="#1A4D7E"/>
<path d="M38.8326 58.9078L38.1044 53.0927V52.9231L37.9548 51.806C37.9254 51.5627 37.8075 51.3388 37.6235 51.1769C37.4395 51.015 37.2024 50.9265 36.9573 50.9282H26.9826C26.7375 50.9265 26.5004 51.015 26.3164 51.1769C26.1325 51.3388 26.0145 51.5627 25.9851 51.806L25.8555 52.9231L25.1073 58.9078L24.9976 59.7855C24.9806 59.9248 24.9931 60.066 25.0343 60.2001C25.0756 60.3341 25.1447 60.458 25.237 60.5635C25.3305 60.6699 25.4456 60.7552 25.5745 60.8137C25.7035 60.8722 25.8435 60.9025 25.9851 60.9027H37.9548C38.0964 60.9025 38.2364 60.8722 38.3654 60.8137C38.4944 60.7552 38.6094 60.6699 38.7029 60.5635C38.7953 60.458 38.8643 60.3341 38.9056 60.2001C38.9468 60.066 38.9593 59.9248 38.9423 59.7855L38.8326 58.9078ZM27.1123 58.9078L27.8604 52.9231H36.0795L36.3189 54.918L36.8276 58.9078H27.1123Z" fill="#1A4D7E"/>
<path d="M41.9445 59.9048C41.9445 60.1693 41.8394 60.423 41.6524 60.6101C41.4653 60.7971 41.2116 60.9022 40.947 60.9022H22.9925C22.728 60.9022 22.4743 60.7971 22.2872 60.6101C22.1002 60.423 21.9951 60.1693 21.9951 59.9048C21.9951 59.6402 22.1002 59.3865 22.2872 59.1995C22.4743 59.0124 22.728 58.9073 22.9925 58.9073H40.947C41.2116 58.9073 41.4653 59.0124 41.6524 59.1995C41.8394 59.3865 41.9445 59.6402 41.9445 59.9048ZM52.9167 44.9431H11.0229C10.7583 44.9431 10.5046 44.838 10.3175 44.651C10.1305 44.4639 10.0254 44.2102 10.0254 43.9457C10.0254 43.6811 10.1305 43.4274 10.3175 43.2404C10.5046 43.0533 10.7583 42.9482 11.0229 42.9482H52.9167C53.1813 42.9482 53.435 43.0533 53.622 43.2404C53.8091 43.4274 53.9142 43.6811 53.9142 43.9457C53.9142 44.2102 53.8091 44.4639 53.622 44.651C53.435 44.838 53.1813 44.9431 52.9167 44.9431Z" fill="#1A4D7E"/>
<path d="M31.9701 48.9329C32.521 48.9329 32.9676 48.4863 32.9676 47.9354C32.9676 47.3846 32.521 46.938 31.9701 46.938C31.4192 46.938 30.9727 47.3846 30.9727 47.9354C30.9727 48.4863 31.4192 48.9329 31.9701 48.9329Z" fill="#7C30B7"/>
<path d="M56.4077 23.6678C55.6496 23.23 54.7895 22.9996 53.9141 22.9995H41.9444C40.6217 22.9995 39.3531 23.5249 38.4178 24.4602C37.4825 25.3955 36.957 26.664 36.957 27.9867V35.9663C36.957 37.2889 37.4825 38.5575 38.4178 39.4927C39.3531 40.428 40.6217 40.9535 41.9444 40.9535H53.9141C55.2368 40.9535 56.5054 40.428 57.4407 39.4927C58.376 38.5575 58.9014 37.2889 58.9014 35.9663V27.9867C58.9014 27.1113 58.6709 26.2513 58.2332 25.4932C57.7955 24.7351 57.1659 24.1055 56.4077 23.6678ZM56.9065 35.9663C56.9065 36.7599 56.5912 37.521 56.03 38.0821C55.4688 38.6433 54.7077 38.9586 53.9141 38.9586H41.9444C41.1508 38.9586 40.3896 38.6433 39.8284 38.0821C39.2672 37.521 38.952 36.7599 38.952 35.9663V27.9867C38.952 27.1931 39.2672 26.432 39.8284 25.8708C40.3896 25.3097 41.1508 24.9944 41.9444 24.9944H53.9141C54.7077 24.9944 55.4688 25.3097 56.03 25.8708C56.5912 26.432 56.9065 27.1931 56.9065 27.9867V35.9663Z" fill="#1A4D7E"/>
<path d="M44.9357 36.9635C44.7489 36.9641 44.5658 36.9123 44.407 36.8139C44.2633 36.7241 44.1448 36.5991 44.0628 36.4507C43.9808 36.3024 43.9379 36.1356 43.9382 35.9661V27.9865C43.9389 27.8161 43.9833 27.6487 44.0671 27.5002C44.151 27.3518 44.2714 27.2273 44.417 27.1387C44.5686 27.0512 44.7407 27.0051 44.9157 27.0051C45.0908 27.0051 45.2628 27.0512 45.4145 27.1387L53.3943 31.2083C53.5584 31.2933 53.6957 31.4223 53.7908 31.5808C53.8859 31.7393 53.9351 31.9211 53.9329 32.106C53.9314 32.2912 53.8784 32.4724 53.7797 32.6292C53.6811 32.786 53.5407 32.9122 53.3743 32.9937L45.3945 36.9037C45.2484 36.9593 45.0912 36.9798 44.9357 36.9635ZM45.9332 29.6124V34.3702L50.6811 32.0361L45.9332 29.6124ZM26.263 25.2735C26.1317 25.2743 26.0016 25.2491 25.8801 25.1995C25.7585 25.1498 25.648 25.0767 25.5548 24.9842L21.9938 21.4134L20.4078 22.9993C20.0341 23.3709 19.5284 23.5794 19.0014 23.5794C18.4744 23.5794 17.9688 23.3709 17.595 22.9993L14.0141 19.4185L8.45813 24.9942C8.26898 25.1834 8.01243 25.2896 7.74494 25.2896C7.47744 25.2896 7.22089 25.1834 7.03174 24.9942C6.84259 24.8051 6.73633 24.5485 6.73633 24.281C6.73633 24.0135 6.84259 23.757 7.03174 23.5679L12.6076 18.0121C12.9814 17.6406 13.487 17.432 14.0141 17.432C14.5411 17.432 15.0467 17.6406 15.4205 18.0121L19.0014 21.5929L20.5874 20.007C20.9612 19.6354 21.4668 19.4269 21.9938 19.4269C22.5209 19.4269 23.0265 19.6354 23.4003 20.007L26.9812 23.5679C27.0762 23.6608 27.1517 23.7717 27.2032 23.8942C27.2548 24.0166 27.2813 24.1482 27.2813 24.281C27.2813 24.4139 27.2548 24.5454 27.2032 24.6679C27.1517 24.7904 27.0762 24.9013 26.9812 24.9942C26.886 25.0861 26.7735 25.158 26.6502 25.206C26.5269 25.2539 26.3953 25.2769 26.263 25.2735ZM20.4976 18.0121C20.0044 18.0121 19.5223 17.8659 19.1122 17.5919C18.7021 17.3179 18.3825 16.9284 18.1938 16.4728C18.005 16.0171 17.9556 15.5157 18.0519 15.032C18.1481 14.5483 18.3856 14.104 18.7343 13.7553C19.0831 13.4065 19.5274 13.169 20.0111 13.0728C20.4949 12.9766 20.9963 13.026 21.4519 13.2147C21.9076 13.4035 22.297 13.7231 22.571 14.1331C22.8451 14.5432 22.9913 15.0253 22.9913 15.5185C22.9913 16.1799 22.7286 16.8141 22.2609 17.2818C21.7933 17.7494 21.159 18.0121 20.4976 18.0121ZM20.4976 15.0198C20.399 15.0198 20.3026 15.049 20.2205 15.1038C20.1385 15.1586 20.0746 15.2365 20.0368 15.3277C19.9991 15.4188 19.9892 15.5191 20.0085 15.6158C20.0277 15.7125 20.0752 15.8014 20.145 15.8712C20.2147 15.9409 20.3036 15.9884 20.4003 16.0076C20.4971 16.0269 20.5973 16.017 20.6885 15.9793C20.7796 15.9415 20.8575 15.8776 20.9123 15.7956C20.9671 15.7136 20.9964 15.6171 20.9964 15.5185C20.9964 15.3862 20.9438 15.2594 20.8503 15.1659C20.7568 15.0723 20.6299 15.0198 20.4976 15.0198ZM31.9686 31.9763H17.0065C16.7419 31.9763 16.4882 31.8712 16.3011 31.6842C16.1141 31.4971 16.009 31.2434 16.009 30.9789C16.009 30.7143 16.1141 30.4606 16.3011 30.2736C16.4882 30.0865 16.7419 29.9814 17.0065 29.9814H31.9686C32.2331 29.9814 32.4868 30.0865 32.6739 30.2736C32.8609 30.4606 32.966 30.7143 32.966 30.9789C32.966 31.2434 32.8609 31.4971 32.6739 31.6842C32.4868 31.8712 32.2331 31.9763 31.9686 31.9763ZM31.9686 35.9661H17.0065C16.7419 35.9661 16.4882 35.861 16.3011 35.6739C16.1141 35.4869 16.009 35.2332 16.009 34.9686C16.009 34.7041 16.1141 34.4504 16.3011 34.2633C16.4882 34.0763 16.7419 33.9712 17.0065 33.9712H31.9686C32.2331 33.9712 32.4868 34.0763 32.6739 34.2633C32.8609 34.4504 32.966 34.7041 32.966 34.9686C32.966 35.2332 32.8609 35.4869 32.6739 35.6739C32.4868 35.861 32.2331 35.9661 31.9686 35.9661ZM27.9787 39.9558H17.0065C16.7419 39.9558 16.4882 39.8507 16.3011 39.6637C16.1141 39.4766 16.009 39.2229 16.009 38.9584C16.009 38.6939 16.1141 38.4402 16.3011 38.2531C16.4882 38.066 16.7419 37.961 17.0065 37.961H27.9787C28.2432 37.961 28.4969 38.066 28.684 38.2531C28.871 38.4402 28.9761 38.6939 28.9761 38.9584C28.9761 39.2229 28.871 39.4766 28.684 39.6637C28.4969 39.8507 28.2432 39.9558 27.9787 39.9558Z" fill="#7C30B7"/>
<path d="M22.9902 9.03516H11.0206C9.69783 9.03516 8.42928 9.56059 7.49397 10.4959C6.55866 11.4312 6.0332 12.6997 6.0332 14.0224V22.0019C6.03489 23.0128 6.34075 23.9999 6.91098 24.8346C7.65451 25.8737 8.76848 26.5877 10.0231 26.8295C10.3511 26.8982 10.6855 26.9317 11.0206 26.9293H22.9902C23.1696 26.9392 23.3495 26.9392 23.5289 26.9293H23.7782C23.903 26.9166 24.0265 26.8932 24.1473 26.8594H24.277C24.4531 26.8135 24.6264 26.7568 24.7957 26.6899C24.9807 26.6192 25.1607 26.5359 25.3343 26.4405C25.501 26.3526 25.661 26.2526 25.8131 26.1413C25.9677 26.0395 26.1144 25.9261 26.252 25.8022L26.3218 25.7323L26.5911 25.473C26.6695 25.3946 26.7428 25.3113 26.8106 25.2236C26.9003 25.1239 26.9801 25.0042 27.0699 24.8945L27.1497 24.7748L27.3292 24.4656C27.3783 24.3856 27.4216 24.3023 27.4589 24.2162C27.4589 24.1165 27.5487 24.0167 27.5886 23.917C27.713 23.612 27.8033 23.2942 27.8579 22.9694C27.8842 22.8648 27.9009 22.7579 27.9078 22.6502C27.9496 22.4365 27.9729 22.2196 27.9776 22.0019V14.0224C27.9776 12.6997 27.4521 11.4312 26.5168 10.4959C25.5815 9.56059 24.313 9.03516 22.9902 9.03516ZM25.9827 22.0019V22.3011C25.993 22.3772 25.993 22.4544 25.9827 22.5305C25.9633 22.6494 25.9333 22.7662 25.8929 22.8796C25.8657 22.9715 25.8324 23.0615 25.7931 23.149C25.7931 23.2088 25.7433 23.2687 25.7233 23.3185C25.7034 23.3684 25.6535 23.4582 25.6136 23.518C25.4352 23.8182 25.2057 24.0849 24.9353 24.306L24.7358 24.4556C24.6085 24.5416 24.4752 24.6183 24.3368 24.685L24.1972 24.7449C24.1097 24.7841 24.0198 24.8174 23.9279 24.8446C23.854 24.8736 23.777 24.8937 23.6984 24.9045C23.5809 24.9357 23.4607 24.9557 23.3394 24.9643L22.9902 24.9942H11.0206C10.3295 24.9938 9.65982 24.7541 9.12537 24.316C8.5935 23.8564 8.24037 23.2244 8.1279 22.5305C8.0792 22.3576 8.04582 22.1807 8.02815 22.0019V14.0224C8.02815 13.2288 8.34342 12.4676 8.90461 11.9065C9.46579 11.3453 10.2269 11.03 11.0206 11.03H22.9902C23.7839 11.03 24.545 11.3453 25.1062 11.9065C25.6674 12.4676 25.9827 13.2288 25.9827 14.0224V22.0019Z" fill="#1A4D7E"/>
<path opacity="0.3" d="M30.2942 60.9025L29.2968 61.8999C26.0746 65.1167 21.7065 66.9218 17.1534 66.918C12.6003 66.9143 8.23515 65.1021 5.01827 61.88C1.80139 58.6579 -0.00373544 54.2899 5.80391e-06 49.737C0.00374705 45.184 1.81605 40.819 5.03822 37.6022L10.0256 32.615V45.9409C10.0256 47.7926 10.7612 49.5685 12.0707 50.8779C13.3801 52.1873 15.1561 52.923 17.0079 52.923H25.8555L25.1074 58.9076H22.9927C22.7282 58.9076 22.4745 59.0127 22.2874 59.1997C22.1003 59.3868 21.9953 59.6405 21.9953 59.905C21.9953 60.1696 22.1003 60.4233 22.2874 60.6103C22.4745 60.7974 22.7282 60.9025 22.9927 60.9025H30.2942ZM58.9017 32.2959V27.9869C58.9017 26.6642 58.3763 25.3957 57.441 24.4604C56.5057 23.5251 55.2371 22.9997 53.9144 22.9997H53.2261C52.6609 21.8081 51.7698 20.801 50.6559 20.0949C49.542 19.3889 48.2509 19.0127 46.9321 19.0099H27.9801V14.701L34.6033 8.03806C37.8202 4.81599 42.1853 3.00375 46.7384 3.00001C51.2915 2.99626 55.6596 4.80133 58.8818 8.01812C62.104 11.2349 63.9163 15.5999 63.92 20.1529C63.9237 24.7058 62.1186 29.0738 58.9017 32.2959Z" fill="#7C30B7"/>
</g>
<defs>
<clipPath id="clip0_386_6594">
<rect width="63.92" height="70" fill="white"/>
</clipPath>
</defs>
</svg>
