<svg width="67" height="70" viewBox="0 0 67 70" fill="none" xmlns="http://www.w3.org/2000/svg">
<g clip-path="url(#clip0_382_5726)">
<path d="M55.3933 7H3.13547C1.4038 7 0 8.40377 0 10.1354V50.8958C0 52.6275 1.4038 54.0312 3.13547 54.0312H55.3933C57.125 54.0312 58.5288 52.6275 58.5288 50.8958V10.1354C58.5288 8.40377 57.125 7 55.3933 7Z" fill="#7C30B7"/>
<path d="M56.44 10.1355V47.7605H2.0918V10.1355C2.0918 9.85828 2.20191 9.59245 2.39792 9.39645C2.59392 9.20044 2.85976 9.09033 3.13695 9.09033H55.3948C55.672 9.09033 55.9378 9.20044 56.1338 9.39645C56.3298 9.59245 56.44 9.85828 56.44 10.1355Z" fill="white"/>
<path d="M36.5795 62.3924H21.9473L22.9924 54.0312H35.5343L36.5795 62.3924Z" fill="#7C30B7"/>
<path d="M40.7626 63.4376H17.7692C17.492 63.4376 17.2261 63.3274 17.0301 63.1314C16.8341 62.9354 16.724 62.6696 16.724 62.3924C16.724 62.1152 16.8341 61.8494 17.0301 61.6534C17.2261 61.4574 17.492 61.3473 17.7692 61.3473H40.7626C41.0398 61.3473 41.3056 61.4574 41.5016 61.6534C41.6976 61.8494 41.8078 62.1152 41.8078 62.3924C41.8078 62.6696 41.6976 62.9354 41.5016 63.1314C41.3056 63.3274 41.0398 63.4376 40.7626 63.4376ZM56.44 10.1355V13.2709H2.0918V10.1355C2.0918 9.85828 2.20191 9.59245 2.39792 9.39645C2.59392 9.20044 2.85976 9.09033 3.13695 9.09033H55.3948C55.672 9.09033 55.9378 9.20044 56.1338 9.39645C56.3298 9.59245 56.44 9.85828 56.44 10.1355Z" fill="#7C30B7"/>
<path d="M15.6777 9.09033H29.2648C30.0964 9.09033 30.8939 9.42067 31.4819 10.0087C32.0699 10.5967 32.4002 11.3942 32.4002 12.2257V13.2709H15.6777V9.09033Z" fill="#7C30B7"/>
<path d="M3.13695 9.09033H15.6788C16.5104 9.09033 17.3079 9.42067 17.8959 10.0087C18.484 10.5967 18.8143 11.3942 18.8143 12.2257V14.316H2.0918V10.1355C2.0918 9.85828 2.20191 9.59245 2.39792 9.39645C2.59392 9.20044 2.85976 9.09033 3.13695 9.09033Z" fill="white"/>
<path d="M58.5272 25.8125V50.8958C58.5272 51.7274 58.1969 52.5249 57.6088 53.1129C57.0208 53.7009 56.2233 54.0312 55.3917 54.0312H41.8047V47.7604H56.4369V25.8125H58.5272Z" fill="#7C30B7"/>
<path d="M56.4369 25.8125V47.7604H41.8047V32.0833C41.8047 30.4202 42.4654 28.8252 43.6414 27.6492C44.8174 26.4732 46.4125 25.8125 48.0756 25.8125H56.4369Z" fill="#F3F3F3"/>
<path d="M62.7093 27.9028H48.0771C45.7682 27.9028 43.8965 29.7745 43.8965 32.0834V59.257C43.8965 61.5659 45.7682 63.4376 48.0771 63.4376H62.7093C65.0182 63.4376 66.8899 61.5659 66.8899 59.257V32.0834C66.8899 29.7745 65.0182 27.9028 62.7093 27.9028Z" fill="#FEE13E"/>
<path d="M64.7992 32.0833V59.2569C64.7992 59.8113 64.5789 60.343 64.1869 60.735C63.7949 61.127 63.2632 61.3472 62.7088 61.3472H48.0766C47.5223 61.3472 46.9906 61.127 46.5986 60.735C46.2066 60.343 45.9863 59.8113 45.9863 59.2569V32.0833C45.9863 31.5289 46.2066 30.9973 46.5986 30.6053C46.9906 30.2133 47.5223 29.993 48.0766 29.993C49.5712 29.993 50.167 29.8781 50.4596 30.5679L50.9195 31.5085C51.0071 31.6824 51.1416 31.8284 51.3078 31.93C51.474 32.0316 51.6653 32.0847 51.8601 32.0833H58.9254C59.1202 32.0847 59.3114 32.0316 59.4776 31.93C59.6438 31.8284 59.7784 31.6824 59.866 31.5085L60.3259 30.5679C60.4135 30.3939 60.548 30.2479 60.7143 30.1463C60.8805 30.0448 61.0717 29.9917 61.2665 29.993H62.7088C63.2632 29.993 63.7949 30.2133 64.1869 30.6053C64.5789 30.9973 64.7992 31.5289 64.7992 32.0833Z" fill="white"/>
<path d="M61.6632 59.2568H49.1213C48.8441 59.2568 48.5783 59.1467 48.3823 58.9507C48.1863 58.7547 48.0762 58.4888 48.0762 58.2116C48.0762 57.9345 48.1863 57.6686 48.3823 57.4726C48.5783 57.2766 48.8441 57.1665 49.1213 57.1665H61.6632C61.9404 57.1665 62.2062 57.2766 62.4023 57.4726C62.5983 57.6686 62.7084 57.9345 62.7084 58.2116C62.7084 58.4888 62.5983 58.7547 62.4023 58.9507C62.2062 59.1467 61.9404 59.2568 61.6632 59.2568Z" fill="#F3F3F3"/>
<path d="M14.6318 24.7675H11.4963C11.2191 24.7675 10.9533 24.6574 10.7573 24.4614C10.5613 24.2654 10.4512 23.9996 10.4512 23.7224C10.4512 23.4452 10.5613 23.1794 10.7573 22.9834C10.9533 22.7874 11.2191 22.6772 11.4963 22.6772H14.6318C14.909 22.6772 15.1748 22.7874 15.3708 22.9834C15.5668 23.1794 15.677 23.4452 15.677 23.7224C15.677 23.9996 15.5668 24.2654 15.3708 24.4614C15.1748 24.6574 14.909 24.7675 14.6318 24.7675Z" fill="#FEE13E"/>
<path d="M20.9032 17.4512C19.9316 19.3988 19.4258 21.5455 19.4258 23.722C19.4258 25.8985 19.9316 28.0453 20.9032 29.9928" stroke="#FEE13E" stroke-width="2" stroke-linecap="round" stroke-linejoin="round"/>
<path d="M5.22656 34.1736H36.5813V36.2639H5.22656V34.1736ZM5.22656 38.3542H29.2652V40.4444H5.22656V38.3542ZM5.22656 42.5347H21.9491V44.625H5.22656V42.5347ZM43.8974 16.4062H52.2586V18.4965H43.8974V16.4062Z" fill="#D9D9D9"/>
<path d="M51.2138 42.9633C52.4994 44.2488 52.7189 44.6251 53.3041 44.6251C53.5117 44.6263 53.715 44.5657 53.888 44.4509C54.061 44.3361 54.1959 44.1725 54.2755 43.9807C54.3551 43.789 54.3758 43.5779 54.335 43.3744C54.2941 43.1709 54.1936 42.9841 54.0462 42.8379L52.6875 41.4897L54.0462 40.1415C54.1437 40.044 54.221 39.9283 54.2737 39.801C54.3264 39.6737 54.3536 39.5372 54.3536 39.3994C54.3536 39.2616 54.3264 39.1251 54.2737 38.9978C54.221 38.8705 54.1437 38.7548 54.0462 38.6574C53.9488 38.5599 53.8331 38.4826 53.7057 38.4299C53.5784 38.3771 53.442 38.35 53.3041 38.35C53.1663 38.35 53.0299 38.3771 52.9025 38.4299C52.7752 38.4826 52.6595 38.5599 52.5621 38.6574L51.2138 40.016L49.8656 38.6574C49.6688 38.4606 49.4018 38.35 49.1235 38.35C48.8452 38.35 48.5783 38.4606 48.3815 38.6574C48.1847 38.8542 48.0741 39.1211 48.0741 39.3994C48.0741 39.6777 48.1847 39.9446 48.3815 40.1415L49.7402 41.4897L48.3815 42.8379C48.2341 42.9841 48.1335 43.1709 48.0927 43.3744C48.0519 43.5779 48.0726 43.789 48.1522 43.9807C48.2318 44.1725 48.3667 44.3361 48.5397 44.4509C48.7127 44.5657 48.9159 44.6263 49.1235 44.6251C49.6984 44.6251 49.8447 44.3429 51.2138 42.9633ZM61.0488 41.4897L62.4075 40.1415C62.5049 40.044 62.5822 39.9283 62.635 39.801C62.6877 39.6737 62.7148 39.5372 62.7148 39.3994C62.7148 39.2616 62.6877 39.1251 62.635 38.9978C62.5822 38.8705 62.5049 38.7548 62.4075 38.6574C62.31 38.5599 62.1943 38.4826 62.067 38.4299C61.9397 38.3771 61.8032 38.35 61.6654 38.35C61.5276 38.35 61.3911 38.3771 61.2638 38.4299C61.1365 38.4826 61.0208 38.5599 60.9233 38.6574L59.5751 40.016L58.2268 38.6574C58.03 38.4606 57.7631 38.35 57.4848 38.35C57.2064 38.35 56.9395 38.4606 56.7427 38.6574C56.5459 38.8542 56.4353 39.1211 56.4353 39.3994C56.4353 39.6777 56.5459 39.9446 56.7427 40.1415L58.1014 41.4897L56.7427 42.8379C56.5459 43.0347 56.4353 43.3016 56.4353 43.58C56.4353 43.8583 56.5459 44.1252 56.7427 44.322C56.9395 44.5188 57.2064 44.6294 57.4848 44.6294C57.7631 44.6294 58.03 44.5188 58.2268 44.322L59.5751 42.9633L60.9233 44.322C61.1202 44.5188 61.3871 44.6294 61.6654 44.6294C61.9437 44.6294 62.2107 44.5188 62.4075 44.322C62.6043 44.1252 62.7148 43.8583 62.7148 43.58C62.7148 43.3016 62.6043 43.0347 62.4075 42.8379L61.0488 41.4897ZM61.1533 49.9971C59.4169 48.9553 57.4299 48.4049 55.4049 48.4049C53.3799 48.4049 51.393 48.9553 49.6566 49.9971C49.4473 50.1493 49.3019 50.3737 49.2486 50.6269C49.1952 50.88 49.2377 51.144 49.3677 51.3677C49.4978 51.5913 49.7062 51.7588 49.9526 51.8377C50.199 51.9166 50.4659 51.9013 50.7017 51.7947C52.1214 50.9394 53.7475 50.4874 55.4049 50.4874C57.0624 50.4874 58.6884 50.9394 60.1081 51.7947C60.3439 51.9013 60.6108 51.9166 60.8572 51.8377C61.1037 51.7588 61.312 51.5913 61.4421 51.3677C61.5721 51.144 61.6146 50.88 61.5612 50.6269C61.5079 50.3737 61.3625 50.1493 61.1533 49.9971ZM9.3135 17.9741L10.1496 17.1484C10.3464 16.9516 10.457 16.6847 10.457 16.4063C10.457 16.128 10.3464 15.8611 10.1496 15.6643C9.95281 15.4675 9.68589 15.3569 9.40756 15.3569C9.12923 15.3569 8.86231 15.4675 8.6655 15.6643L7.83982 16.5004L7.01415 15.6643C6.81734 15.4675 6.55042 15.3569 6.27209 15.3569C5.99376 15.3569 5.72684 15.4675 5.53003 15.6643C5.33322 15.8611 5.22266 16.128 5.22266 16.4063C5.22266 16.6847 5.33322 16.9516 5.53003 17.1484L6.36615 17.9741L5.53003 18.7997C5.33322 18.9965 5.22266 19.2634 5.22266 19.5418C5.22266 19.8201 5.33322 20.087 5.53003 20.2838C5.72684 20.4806 5.99376 20.5912 6.27209 20.5912C6.55042 20.5912 6.81734 20.4806 7.01415 20.2838L7.83982 19.4477L8.6655 20.2838C8.86231 20.4806 9.12923 20.5912 9.40756 20.5912C9.68589 20.5912 9.95281 20.4806 10.1496 20.2838C10.3464 20.087 10.457 19.8201 10.457 19.5418C10.457 19.2634 10.3464 18.9965 10.1496 18.7997L9.3135 17.9741ZM8.6655 27.1608L7.83982 27.9969L7.01415 27.1608C6.81734 26.964 6.55042 26.8535 6.27209 26.8535C5.99376 26.8535 5.72684 26.964 5.53003 27.1608C5.33322 27.3576 5.22266 27.6246 5.22266 27.9029C5.22266 28.1812 5.33322 28.4481 5.53003 28.6449L6.36615 29.4706L5.53003 30.2962C5.33322 30.493 5.22266 30.76 5.22266 31.0383C5.22266 31.3166 5.33322 31.5835 5.53003 31.7803C5.72684 31.9771 5.99376 32.0877 6.27209 32.0877C6.55042 32.0877 6.81734 31.9771 7.01415 31.7803L7.83982 30.9442L8.6655 31.7803C8.86231 31.9771 9.12923 32.0877 9.40756 32.0877C9.68589 32.0877 9.95281 31.9771 10.1496 31.7803C10.3464 31.5835 10.457 31.3166 10.457 31.0383C10.457 30.76 10.3464 30.493 10.1496 30.2962L9.3135 29.4706L10.1496 28.6449C10.3464 28.4481 10.457 28.1812 10.457 27.9029C10.457 27.6246 10.3464 27.3576 10.1496 27.1608C9.95281 26.964 9.68589 26.8535 9.40756 26.8535C9.12923 26.8535 8.86231 26.964 8.6655 27.1608Z" fill="#FEE13E"/>
</g>
<defs>
<clipPath id="clip0_382_5726">
<rect width="66.89" height="70" fill="white"/>
</clipPath>
</defs>
</svg>
