<svg width="58" height="70" viewBox="0 0 58 70" fill="none" xmlns="http://www.w3.org/2000/svg">
<g clip-path="url(#clip0_386_6398)">
<path d="M0.498047 54.2954V58.1584C0.498047 59.1189 1.2723 59.8933 2.23286 59.8933H55.1343C56.0947 59.8933 56.8789 59.1189 56.8789 58.1584V54.2954H0.498047Z" fill="#7C30B7"/>
<path d="M56.8809 18.2628V54.2954H0.5V18.2628C0.5 17.308 1.27288 16.5259 2.22785 16.5259H55.1349C56.0897 16.5259 56.8809 17.308 56.8809 18.2628Z" fill="#D7E9FF"/>
<path d="M37.0849 66.1336H20.2891L23.1175 59.8887H34.2561L37.0849 66.1336Z" fill="white"/>
<path d="M26.7434 57.0939C26.7434 57.5381 26.3879 57.8934 25.9438 57.8934C25.5078 57.8934 25.1445 57.5382 25.1445 57.0939C25.1445 56.6579 25.5078 56.2944 25.9438 56.2944C26.3879 56.2944 26.7434 56.6579 26.7434 57.0939ZM29.4875 57.0939C29.4875 57.5381 29.1321 57.8934 28.6879 57.8934C28.252 57.8934 27.8887 57.5382 27.8887 57.0939C27.8887 56.6579 28.252 56.2944 28.6879 56.2944C29.1321 56.2944 29.4875 56.6579 29.4875 57.0939ZM32.2316 57.0939C32.2316 57.5381 31.8761 57.8934 31.4319 57.8934C30.996 57.8934 30.6327 57.5382 30.6327 57.0939C30.6327 56.6579 30.996 56.2944 31.4319 56.2944C31.8761 56.2944 32.2316 56.6579 32.2316 57.0939Z" fill="#D7E9FF"/>
<path d="M51.6263 10.1289H5.75195V54.2975H51.6263V10.1289Z" fill="white"/>
<path d="M51.6264 4.73486V10.1286H5.75195V4.73C5.75195 4.04892 6.30369 3.49707 6.98478 3.49707H50.3935C51.0746 3.49707 51.6264 4.04892 51.6264 4.73486ZM18.9167 33.9272C18.5759 33.9272 18.232 33.8179 17.9418 33.5922L9.56263 27.0777C9.17532 26.7764 8.94858 26.3131 8.94858 25.8223C8.94858 25.3316 9.17532 24.8684 9.56263 24.567L17.9418 18.0506C18.6362 17.5106 19.6351 17.6367 20.1733 18.3297C20.7124 19.0227 20.5877 20.0221 19.8942 20.5611L13.1296 25.8222L19.8942 31.0816C20.5877 31.6207 20.7124 32.6195 20.1733 33.313C19.8601 33.7158 19.391 33.9272 18.9167 33.9272ZM38.4617 33.9272C37.9873 33.9272 37.5183 33.7163 37.2051 33.3131C36.6659 32.6196 36.7907 31.6207 37.4842 31.0817L44.2487 25.8223L37.4842 20.5613C36.7907 20.0221 36.6661 19.0229 37.2051 18.3298C37.7433 17.6368 38.7425 17.5107 39.4366 18.0507L47.8158 24.5671C48.2031 24.8684 48.4298 25.3317 48.4298 25.8225C48.4298 26.3133 48.2031 26.7764 47.8158 27.0778L39.4366 33.5923C39.1464 33.818 38.8025 33.9272 38.4617 33.9272ZM25.0635 33.9275C24.8017 33.9275 24.5368 33.8627 24.2919 33.7265C23.5242 33.2997 23.2482 32.3315 23.6751 31.5639L30.9237 18.5329C31.3501 17.7653 32.3187 17.4893 33.0864 17.9162C33.854 18.343 34.13 19.3112 33.7032 20.0788L26.4546 33.1098C26.164 33.6325 25.6217 33.9275 25.0635 33.9275Z" fill="#7C30B7"/>
<path d="M18.9154 33.9276C18.5746 33.9276 18.2307 33.8184 17.9405 33.5927L9.56132 27.0781C9.17401 26.7769 8.94727 26.3136 8.94727 25.8228C8.94727 25.332 9.17401 24.8689 9.56132 24.5675L17.9405 18.0511C18.6349 17.5111 19.6338 17.6372 20.1719 18.3302C20.7111 19.0232 20.5864 20.0226 19.8928 20.5616L13.1283 25.8227L19.8928 31.082C20.5864 31.6212 20.7111 32.6199 20.1719 33.3135C19.8588 33.7163 19.3897 33.9276 18.9154 33.9276ZM38.4604 33.9276C37.986 33.9276 37.517 33.7168 37.2038 33.3136C36.6646 32.6201 36.7894 31.6212 37.4829 31.0822L44.2474 25.8228L37.4829 20.5617C36.7894 20.0226 36.6648 19.0233 37.2038 18.3303C37.742 17.6373 38.7412 17.5112 39.4353 18.0512L47.8144 24.5676C48.2018 24.8689 48.4285 25.3322 48.4285 25.823C48.4285 26.3137 48.2018 26.7769 47.8144 27.0783L39.4353 33.5928C39.1451 33.8184 38.8012 33.9276 38.4604 33.9276Z" fill="#D7E9FF"/>
<path d="M25.0658 33.928C24.804 33.928 24.539 33.8632 24.2941 33.727C23.5265 33.3001 23.2505 32.332 23.6774 31.5643L30.9259 18.5334C31.3523 17.7657 32.321 17.4898 33.0886 17.9166C33.8563 18.3435 34.1323 19.3116 33.7054 20.0793L26.4568 33.1102C26.1663 33.6329 25.624 33.928 25.0658 33.928Z" fill="#7C30B7"/>
<path d="M25.0658 33.928C24.804 33.928 24.539 33.8632 24.2941 33.727C23.5265 33.3001 23.2505 32.332 23.6774 31.5643L30.9259 18.5334C31.3523 17.7657 32.321 17.4898 33.0886 17.9166C33.8563 18.3435 34.1323 19.3116 33.7054 20.0793L26.4568 33.1102C26.1663 33.6329 25.624 33.928 25.0658 33.928Z" fill="#D7E9FF"/>
<path d="M57.38 18.2645C57.38 17.0317 56.3708 16.0275 55.138 16.0275H52.1239V10.129V4.73504C52.1239 3.77822 51.3482 3 50.3942 3H6.98541C6.03143 3 5.25519 3.77623 5.25519 4.73019V10.1291V16.0275H2.22934C1.00136 16.0275 0.00223899 17.0317 0.00223899 18.2645C0.00186585 24.8806 0.000497509 49.7217 0 58.1583C0 59.389 1.00099 60.39 2.2317 60.39H22.345L19.9688 65.6364H18.5315C18.2567 65.6364 18.0343 65.8588 18.0343 66.1335C18.0343 66.4082 18.2567 66.6306 18.5315 66.6306C22.418 66.6306 34.9534 66.6306 38.8431 66.6306C39.1178 66.6306 39.3402 66.4082 39.3402 66.1335C39.3402 65.8588 39.1178 65.6364 38.8431 65.6364H37.406L35.0293 60.39H55.1335C56.3696 60.39 57.3749 59.389 57.3749 58.1583C57.3759 49.8051 57.3791 24.8734 57.38 18.2645ZM51.1297 53.7982H6.24946V10.6261H51.1298V53.7982H51.1297ZM55.138 17.0216C55.814 17.0216 56.3857 17.5884 56.3857 18.2644V53.7982H52.1239V17.0216H55.138ZM6.24946 4.73019C6.24946 4.32435 6.57956 3.99426 6.98541 3.99426H50.3942C50.7996 3.99426 51.1297 4.32684 51.1297 4.73504V9.63195H6.24946V4.73019ZM0.996511 18.2645C0.996511 17.5784 1.54825 17.0217 2.22934 17.0217H5.25519V53.7983H0.996511V18.2645ZM36.3141 65.6364H21.0602L23.4363 60.39H33.9376L36.3141 65.6364ZM56.3805 58.1583C56.3805 58.8409 55.8213 59.3957 55.1334 59.3957C-0.445273 59.389 58.1024 59.395 2.2317 59.3957C1.54912 59.3957 0.994273 58.8409 0.994273 58.1583V54.7926C12.6702 54.7927 -9.67929 54.7951 56.3806 54.7926V58.1583H56.3805Z" fill="#7C30B7"/>
<path d="M10.2513 6.31592H9.4202C9.14545 6.31592 8.92306 6.5383 8.92306 6.81305C8.92306 7.08779 9.14545 7.31018 9.4202 7.31018H10.2513C10.526 7.31018 10.7484 7.08779 10.7484 6.81305C10.7484 6.5383 10.526 6.31592 10.2513 6.31592ZM14.2826 6.31592H13.4515C13.1768 6.31592 12.9544 6.5383 12.9544 6.81305C12.9544 7.08779 13.1768 7.31018 13.4515 7.31018H14.2826C14.5574 7.31018 14.7797 7.08779 14.7797 6.81305C14.7797 6.5383 14.5574 6.31592 14.2826 6.31592ZM18.3134 6.31592H17.4828C17.2081 6.31592 16.9857 6.5383 16.9857 6.81305C16.9857 7.08779 17.2081 7.31018 17.4828 7.31018H18.3134C18.5882 7.31018 18.8106 7.08779 18.8106 6.81305C18.8106 6.5383 18.5882 6.31592 18.3134 6.31592ZM47.9573 6.31592H25.2028C24.9281 6.31592 24.7057 6.5383 24.7057 6.81305C24.7057 7.08779 24.9281 7.31018 25.2028 7.31018H47.9573C48.232 7.31018 48.4544 7.08779 48.4544 6.81305C48.4544 6.5383 48.232 6.31592 47.9573 6.31592ZM9.25701 27.4696L17.6362 33.9845C18.531 34.6812 19.846 34.5436 20.565 33.6185C21.2674 32.7151 21.1176 31.4032 20.199 30.6892L13.9388 25.8224L20.199 20.9537C21.1092 20.2461 21.2742 18.9356 20.5655 18.0249C19.8617 17.1182 18.552 16.9453 17.6362 17.6583L9.25701 24.1747C8.74483 24.5734 8.45117 25.1739 8.45117 25.8224C8.45117 26.4715 8.74483 27.072 9.25701 27.4696ZM9.86771 24.9592L18.2469 18.4428C18.725 18.0714 19.4106 18.1578 19.7805 18.6351C20.1551 19.1174 20.0607 19.8018 19.5882 20.1691L12.8237 25.4301C12.7028 25.5242 12.6319 25.6689 12.6319 25.8224C12.6319 25.9758 12.7028 26.1205 12.8237 26.2146L19.5882 31.4736C20.0644 31.8435 20.1504 32.5319 19.78 33.0081C19.4221 33.4683 18.7091 33.5596 18.2469 33.1999L9.86721 26.6845C9.59917 26.4763 9.44532 26.1621 9.44532 25.8224C9.44532 25.4826 9.5993 25.168 9.86771 24.9592ZM37.1784 20.9537L43.4385 25.8224L37.1784 30.6892C36.2705 31.3955 36.106 32.7091 36.8123 33.618C37.5269 34.5381 38.84 34.6861 39.7416 33.9845L48.1203 27.4701C49.1947 26.6359 49.1966 25.0119 48.1208 24.1747L39.7416 17.6583C38.8236 16.9437 37.5147 17.1199 36.8123 18.0249C36.106 18.9332 36.27 20.2473 37.1784 20.9537ZM37.5973 18.6346C37.9621 18.1637 38.6476 18.0674 39.1308 18.4428L47.51 24.9592C48.0727 25.3967 48.0739 26.2466 47.51 26.685L39.1308 33.1999C38.6672 33.5606 37.955 33.4683 37.5973 33.0081C37.2274 32.5319 37.3133 31.8435 37.789 31.4736L44.5536 26.2146C44.6745 26.1205 44.7453 25.9758 44.7453 25.8224C44.7453 25.6689 44.6745 25.5242 44.5536 25.4301L37.789 20.1691C37.3133 19.7987 37.2274 19.1108 37.5973 18.6346ZM24.0502 34.1616C25.0776 34.7299 26.3379 34.3413 26.8887 33.3514L34.1373 20.3206C34.6978 19.3122 34.3361 18.042 33.3275 17.4816C32.3135 16.9186 31.0463 17.2878 30.489 18.2914L23.2404 31.3222C22.6799 32.3307 23.0406 33.5991 24.0502 34.1616ZM24.1095 31.8057L31.3581 18.7744C31.6515 18.2458 32.3163 18.0568 32.8447 18.3505C33.3714 18.6435 33.5631 19.3074 33.2686 19.837L26.02 32.8678C25.7374 33.3775 25.0514 33.5805 24.5334 33.2921C24.0065 32.9989 23.8162 32.3324 24.1095 31.8057ZM44.4546 48.7076H12.9228C12.648 48.7076 12.4256 48.93 12.4256 49.2047C12.4256 49.4794 12.648 49.7018 12.9228 49.7018H44.4546C44.7293 49.7018 44.9517 49.4794 44.9517 49.2047C44.9517 48.93 44.7293 48.7076 44.4546 48.7076ZM40.9145 39.5172C41.1893 39.5172 41.4117 39.2948 41.4117 39.0201C41.4117 38.7453 41.1893 38.523 40.9145 38.523H16.4628C16.1881 38.523 15.9657 38.7453 15.9657 39.0201C15.9657 39.2948 16.1881 39.5172 16.4628 39.5172H40.9145ZM46.8844 43.615H10.4931C10.2183 43.615 9.99594 43.8374 9.99594 44.1121C9.99594 44.3869 10.2183 44.6093 10.4931 44.6093H46.8844C47.1591 44.6093 47.3815 44.3869 47.3815 44.1121C47.3815 43.8374 47.1591 43.615 46.8844 43.615Z" fill="#7C30B7"/>
</g>
<defs>
<clipPath id="clip0_386_6398">
<rect width="57.38" height="70" fill="white"/>
</clipPath>
</defs>
</svg>
