<svg width="68" height="70" viewBox="0 0 68 70" fill="none" xmlns="http://www.w3.org/2000/svg">
<g clip-path="url(#clip0_380_5690)">
<path d="M39.2787 61.3008H28.3984V45.288H39.2787V61.3008Z" fill="white"/>
<path d="M29.431 60.2715H38.2553V46.3179H29.431V60.2715ZM39.2837 62.3315H28.4035C27.8339 62.3315 27.373 61.8699 27.373 61.3011V45.2883C27.373 44.7212 27.8339 44.2612 28.4035 44.2612H39.2837C39.8504 44.2612 40.3129 44.7212 40.3129 45.2883V61.3011C40.3129 61.8699 39.8504 62.3315 39.2837 62.3315Z" fill="#201D18"/>
<path d="M66.651 41.4624H1.02734V7.03049H66.651V41.4624Z" fill="white"/>
<path d="M2.0576 40.4325H65.6224V8.0569H2.0576V40.4325ZM66.652 42.4917H1.02838C0.460024 42.4917 0 42.0308 0 41.4621V7.03019C0 6.46021 0.460024 6.00015 1.02838 6.00015H66.652C67.22 6.00015 67.68 6.46021 67.68 7.03019V41.4621C67.68 42.0308 67.22 42.4917 66.652 42.4917Z" fill="#201D18"/>
<path d="M64.3175 10.2231V38.6108H3.36133V10.2231H64.3175Z" fill="#7C30B7"/>
<path d="M66.651 49.1763H1.02734V41.4617H66.651V49.1763Z" fill="white"/>
<path d="M2.0576 48.1469H65.6224V42.4915H2.0576V48.1469ZM66.652 50.2061H1.02838C0.460024 50.2061 0 49.7444 0 49.1765V41.4619C0 40.8939 0.460024 40.4323 1.02838 40.4323H66.652C67.22 40.4323 67.68 40.8939 67.68 41.4619V49.1765C67.68 49.7444 67.22 50.2061 66.652 50.2061Z" fill="#201D18"/>
<path d="M52.5748 63.2778H15.1113V57.4791H52.5748V63.2778Z" fill="white"/>
<path d="M16.1361 62.2479H51.5412V58.5092H16.1361V62.2479ZM52.57 64.3071H15.1065C14.5377 64.3071 14.0781 63.8455 14.0781 63.2784V57.4796C14.0781 56.9109 14.5377 56.45 15.1065 56.45H52.57C53.1371 56.45 53.5988 56.9109 53.5988 57.4796V63.2784C53.5988 63.8455 53.1371 64.3071 52.57 64.3071Z" fill="#201D18"/>
<path d="M33.1729 16.2412H5.47852V13.2097H33.1729V16.2412Z" fill="white"/>
<path d="M24.6418 21.7817H5.47852V18.8568H24.6418V21.7817Z" fill="white"/>
<path d="M32.5513 21.7817H26.3789V18.8568H32.5513V21.7817Z" fill="white"/>
<path d="M29.464 26.9263H5.52734V23.9993H29.464V26.9263Z" fill="white"/>
<path d="M24.6907 32.4561H5.52734V29.5312H24.6907V32.4561Z" fill="white"/>
<path d="M64.3196 20.1377V38.6108H34.1039C33.1051 36.3853 32.5508 33.92 32.5508 31.3233C32.5508 28.174 33.3671 25.2174 34.7945 22.6504C37.395 17.9846 42.0225 14.6051 47.4914 13.7118C48.4375 13.5516 49.4131 13.47 50.4061 13.47C51.5329 13.47 52.6334 13.573 53.7017 13.7752C57.9713 14.5705 61.7035 16.8846 64.3196 20.1377Z" fill="#7C30B7"/>
<path d="M34.7821 37.5813H63.2895V20.5052C60.7842 17.5226 57.3259 15.4955 53.5126 14.7868C51.623 14.4264 49.5769 14.4025 47.6618 14.7258C42.5735 15.559 38.2128 18.628 35.6935 23.1492C34.3101 25.6346 33.5795 28.4615 33.5795 31.3226C33.5795 33.495 33.9852 35.5979 34.7821 37.5813ZM64.3187 39.6372H34.103C33.6969 39.6372 33.3287 39.4008 33.1627 39.031C32.0742 36.6015 31.5215 34.0107 31.5215 31.3226C31.5215 28.1131 32.3431 24.9399 33.895 22.1488C36.7231 17.0758 41.6171 13.6287 47.3237 12.6963C49.4686 12.333 51.7729 12.3602 53.8923 12.765C58.3007 13.5854 62.2891 15.9741 65.1193 19.4916C65.2672 19.6753 65.3467 19.9018 65.3467 20.137V38.6101C65.3467 39.178 64.8874 39.6372 64.3187 39.6372Z" fill="white"/>
<path d="M62.4263 31.3233C62.4263 33.7968 61.9243 36.1497 61.0157 38.2884C60.9708 38.3979 60.9243 38.5054 60.8745 38.6108H34.1039C33.1051 36.3853 32.5508 33.92 32.5508 31.3233C32.5508 28.174 33.3671 25.2174 34.7945 22.6504C37.395 17.9846 42.0225 14.6051 47.4914 13.7118C48.6277 13.8942 49.7269 14.1895 50.7805 14.58C55.3981 16.2936 59.1159 19.8622 61.0248 24.3818C61.9271 26.5143 62.4263 28.8609 62.4263 31.3233Z" fill="#7C30B7"/>
<path d="M34.7821 37.5813H60.1944C60.9918 35.5954 61.3962 33.4897 61.3962 31.3226C61.3962 29.0521 60.9514 26.8508 60.0762 24.7821C58.276 20.5196 54.7584 17.1528 50.4233 15.5437C49.4625 15.1875 48.4757 14.9231 47.493 14.7542C42.4783 15.6236 38.1848 18.6778 35.6935 23.1492C34.3101 25.6346 33.5795 28.4615 33.5795 31.3226C33.5795 33.495 33.9852 35.5979 34.7821 37.5813ZM60.8736 39.6372H34.103C33.6969 39.6372 33.3287 39.4008 33.1627 39.031C32.0742 36.6015 31.5215 34.0107 31.5215 31.3226C31.5215 28.1131 32.3431 24.9399 33.895 22.1488C36.7231 17.0758 41.6171 13.6287 47.3237 12.6963C47.4337 12.6769 47.5445 12.6769 47.6532 12.6946C48.8253 12.8837 49.997 13.1917 51.1387 13.6143C56.0039 15.4202 59.9514 19.1988 61.9728 23.9803C62.9559 26.3043 63.4538 28.7741 63.4538 31.3226C63.4538 33.8785 62.9526 36.3585 61.9617 38.69C61.9135 38.8098 61.8608 38.9272 61.8064 39.0421C61.64 39.4049 61.2747 39.6372 60.8736 39.6372Z" fill="white"/>
<path d="M41.3693 37.5813H63.2903V20.5052C60.8258 17.5696 57.4404 15.5639 53.7004 14.8218C52.8286 14.9931 51.9694 15.2361 51.1408 15.5437C46.7595 17.1688 43.2209 20.581 41.4335 24.909C40.5917 26.9414 40.1654 29.0982 40.1654 31.3226C40.1654 33.4856 40.569 35.5896 41.3693 37.5813ZM64.3195 39.6372H40.6881C40.2841 39.6372 39.9175 39.4041 39.7515 39.0339C39.6708 38.8613 39.5971 38.6859 39.5225 38.5088C38.5839 36.2243 38.1074 33.8068 38.1074 31.3226C38.1074 28.8281 38.5868 26.404 39.5312 24.1211C41.5381 19.2672 45.5088 15.4375 50.4242 13.6155C51.4213 13.2428 52.4628 12.9569 53.5147 12.7621C53.6387 12.7407 53.7659 12.7407 53.8899 12.7621C58.3016 13.5854 62.29 15.9741 65.1202 19.4916C65.2681 19.6753 65.3475 19.9018 65.3475 20.137V38.6101C65.3475 39.178 64.8883 39.6372 64.3195 39.6372Z" fill="white"/>
<path d="M36.2759 22.1824C37.5485 22.7009 39.0324 23.1457 40.7008 23.5077C43.6328 24.1461 47.0058 24.4821 50.4509 24.4821C54.1432 24.4821 57.7176 24.1016 60.7892 23.3784C61.6833 23.1663 62.521 22.9303 63.2903 22.6738V20.505C60.7851 17.5225 57.3268 15.4954 53.5134 14.7866C51.6239 14.4262 49.5778 14.4024 47.6627 14.7257C42.9462 15.4954 38.8541 18.1901 36.2759 22.1824ZM50.4509 26.5405C46.86 26.5405 43.3371 26.188 40.2651 25.5187C37.9645 25.0192 35.9728 24.366 34.3452 23.5724C34.0911 23.4513 33.8983 23.2273 33.8143 22.9571C33.7274 22.6886 33.7583 22.3958 33.8958 22.1487C36.724 17.0756 41.618 13.6285 47.3246 12.6961C49.4695 12.3329 51.7738 12.3601 53.8932 12.7649C58.3016 13.5853 62.29 15.974 65.1202 19.4915C65.268 19.6752 65.3475 19.9017 65.3475 20.1368V23.4023C65.3475 23.8327 65.0794 24.2178 64.6762 24.3677C63.6548 24.7466 62.5058 25.0867 61.2612 25.3812C58.0372 26.1398 54.3001 26.5405 50.4509 26.5405Z" fill="white"/>
</g>
<defs>
<clipPath id="clip0_380_5690">
<rect width="67.68" height="70" fill="white"/>
</clipPath>
</defs>
</svg>
