<svg width="70" height="70" viewBox="0 0 70 70" fill="none" xmlns="http://www.w3.org/2000/svg">
<path d="M35.0582 29.4523C32.1421 29.4523 29.7782 27.0931 29.7782 24.1745C29.7782 21.2601 32.1421 18.8966 35.0582 18.8966C37.9726 18.8966 40.3344 21.2601 40.3344 24.1745C40.3344 27.0931 37.9726 29.4523 35.0582 29.4523ZM50.1785 26.8365V21.6007H46.7616C46.4617 20.2339 45.9272 18.9471 45.2014 17.7948L47.6342 15.364L43.9338 11.6632L41.5157 14.0813C40.3697 13.3454 39.0874 12.7987 37.7181 12.4917V9.05158H32.4861V12.4706C31.1134 12.7692 29.8278 13.3033 28.6772 14.0309L26.2452 11.6001L22.5448 15.2967L24.9612 17.7149C24.2261 18.863 23.6823 20.1456 23.3711 21.5124H19.9336V26.744H23.3514C23.6529 28.1192 24.1879 29.4019 24.9116 30.5542L22.483 32.9849L26.1804 36.6858L28.599 34.2718C29.7441 35.0036 31.0251 35.5503 32.394 35.8615V39.2974H37.6265V35.8783C39.0004 35.5797 40.2864 35.0456 41.437 34.3181L43.8674 36.753L47.5682 33.0522L45.1509 30.6341C45.8885 29.486 46.4327 28.2075 46.7418 26.8365H50.1785Z" fill="white"/>
<path d="M35.0567 19.9437C32.7243 19.9437 30.8268 21.8403 30.8268 24.1744C30.8268 26.5042 32.7243 28.4009 35.0567 28.4009C37.3865 28.4009 39.2836 26.5042 39.2836 24.1744C39.2836 21.8403 37.3865 19.9437 35.0567 19.9437ZM35.0567 30.5036C31.5661 30.5036 28.7253 27.6649 28.7253 24.1744C28.7253 20.6838 31.5661 17.8451 35.0567 17.8451C38.5472 17.8451 41.3846 20.6838 41.3846 24.1744C41.3846 27.6649 38.5472 30.5036 35.0567 30.5036ZM33.4443 38.2459H36.5753V35.8782C36.5753 35.3862 36.918 34.9614 37.4 34.8521C38.6351 34.5829 39.8038 34.1035 40.8766 33.4306C41.29 33.1699 41.8313 33.2288 42.177 33.5778L43.8659 35.2642L46.0813 33.0521L44.408 31.3741C44.0572 31.0293 43.9988 30.4826 44.2658 30.0662C44.9484 29.0023 45.437 27.8416 45.7163 26.6051C45.8244 26.1257 46.2508 25.7851 46.7403 25.7851H49.1257V22.652H46.7601C46.2664 22.652 45.8403 22.3113 45.7348 21.8277C45.4631 20.5913 44.9845 19.4264 44.3104 18.3582C44.0492 17.9419 44.1098 17.3993 44.4563 17.0545L46.1465 15.3639L43.9323 13.1476L42.2569 14.8256C41.9065 15.1747 41.3619 15.2335 40.9456 14.9644C39.8824 14.2831 38.718 13.7953 37.4845 13.5135C37.0072 13.4041 36.6669 12.9794 36.6669 12.4916V10.1028H33.536V12.4705C33.536 12.9626 33.192 13.3915 32.7096 13.4967C31.4732 13.7658 30.3041 14.2452 29.2355 14.9181C28.82 15.1789 28.2808 15.12 27.9326 14.7751L26.2437 13.0845L24.0299 15.2966L25.7041 16.9746C26.0527 17.3237 26.1124 17.8704 25.8437 18.2867C25.1624 19.3465 24.675 20.5072 24.3937 21.7478C24.2856 22.223 23.86 22.5637 23.3696 22.5637H20.9839V25.6925H23.3499C23.8436 25.6925 24.2709 26.0374 24.3769 26.521C24.6489 27.7574 25.1267 28.9266 25.7996 29.9948C26.062 30.4111 26.001 30.9494 25.6532 31.2984L23.9656 32.9848L26.1789 35.2011L27.8539 33.5274C28.2026 33.1783 28.748 33.1194 29.1631 33.3844C30.2317 34.0699 31.3958 34.5577 32.6251 34.8353C33.1049 34.9446 33.4443 35.3693 33.4443 35.8614V38.2459ZM37.6249 40.3486H32.3925C31.8134 40.3486 31.3437 39.8776 31.3437 39.2973V36.6688C30.4462 36.4081 29.5824 36.0422 28.7611 35.5922L26.922 37.43C26.7252 37.6277 26.4573 37.737 26.1789 37.737C25.9013 37.737 25.6326 37.6277 25.4354 37.43L21.7375 33.7292C21.3279 33.3213 21.3279 32.6568 21.7362 32.2447L23.5938 30.3859C23.1476 29.5616 22.7935 28.6953 22.5336 27.7953H19.9321C19.3534 27.7953 18.8828 27.3243 18.8828 26.7439V21.5123C18.8828 20.9319 19.3534 20.4651 19.9321 20.4651H22.5588C22.8242 19.5652 23.1863 18.703 23.6396 17.883L21.8014 16.041C21.6042 15.8475 21.4932 15.5784 21.4932 15.2966C21.4932 15.019 21.6042 14.7541 21.8014 14.5522L25.5006 10.8556C25.911 10.4477 26.5755 10.4477 26.9872 10.8556L28.8452 12.7144C29.6678 12.2687 30.5337 11.9112 31.4345 11.6547V9.05147C31.4345 8.47532 31.9042 8.0001 32.4846 8.0001H37.7166C38.2974 8.0001 38.768 8.47532 38.768 9.05147V11.6799C39.6659 11.9448 40.5301 12.3065 41.3493 12.7565L43.1888 10.9229C43.598 10.5108 44.265 10.5108 44.6742 10.9229L48.3758 14.6237C48.785 15.0317 48.785 15.6961 48.3758 16.1083L46.517 17.9671C46.9619 18.7872 47.3177 19.6535 47.5768 20.5493H50.177C50.7578 20.5493 51.2276 21.0203 51.2276 21.6006V26.8364C51.2276 27.4168 50.7578 27.8878 50.177 27.8878H47.5524C47.2866 28.7878 46.9245 29.6499 46.4712 30.47L48.3098 32.3078C48.507 32.5054 48.6181 32.7746 48.6181 33.0521C48.6181 33.3297 48.507 33.5989 48.3098 33.7965L44.6081 37.4931C44.1985 37.901 43.5337 37.901 43.124 37.4931L41.2648 35.6343C40.4422 36.0801 39.5755 36.4375 38.6767 36.6983V39.2973C38.6767 39.8776 38.2061 40.3486 37.6249 40.3486Z" fill="#201D18"/>
<path d="M62.7412 53.5498H6.76758V24.1787H62.7412V53.5498Z" fill="white"/>
<path d="M7.81785 52.4982H61.6925V25.2256H7.81785V52.4982ZM62.7414 54.5967H6.76773C6.1878 54.5967 5.7168 54.1257 5.7168 53.5495V24.1785C5.7168 23.5939 6.1878 23.1271 6.76773 23.1271H62.7414C63.323 23.1271 63.7936 23.5939 63.7936 24.1785V53.5495C63.7936 54.1257 63.323 54.5967 62.7414 54.5967Z" fill="#201D18"/>
<path d="M11.8848 28.2119H58.2304V50.7827H11.8848V28.2119Z" fill="#7C30B7"/>
<path d="M68.0604 60.4883H1.05078V52.3423H68.0604V60.4883Z" fill="white"/>
<path d="M2.10105 59.4373H67.0084V53.394H2.10105V59.4373ZM68.0598 61.54H1.0501C0.46974 61.54 0 61.069 0 60.4887V52.3427C0 51.7623 0.46974 51.2913 1.0501 51.2913H68.0598C68.6397 51.2913 69.1094 51.7623 69.1094 52.3427V60.4887C69.1094 61.069 68.6397 61.54 68.0598 61.54Z" fill="#201D18"/>
<path d="M63.999 56.418C63.999 57.646 63.4716 58.6343 62.8227 58.6343H6.03954C5.3898 58.6343 4.86328 57.646 4.86328 56.418C4.86328 55.19 5.3898 54.1933 6.03954 54.1933H62.8227C63.4716 54.1933 63.999 55.19 63.999 56.418Z" fill="#7C30B7"/>
<path d="M46.845 57.3472H22.0176V52.6412H46.845V57.3472Z" fill="white"/>
<path d="M23.0667 56.3004H45.7932V53.6972H23.0667V56.3004ZM46.8437 58.3989H22.0162C21.4367 58.3989 20.9648 57.9321 20.9648 57.3476V52.6416C20.9648 52.0655 21.4367 51.5945 22.0162 51.5945H46.8437C47.424 51.5945 47.8942 52.0655 47.8942 52.6416V57.3476C47.8942 57.9321 47.424 58.3989 46.8437 58.3989Z" fill="#201D18"/>
<path d="M53.8363 49.7017C53.5486 47.1405 52.7605 44.7308 51.5674 42.5734C48.8398 37.653 44.0148 34.0573 38.2987 32.9891C37.1523 32.7746 35.9668 32.6653 34.7552 32.6653C33.6874 32.6653 32.6403 32.7536 31.62 32.9218C25.7382 33.8849 20.7615 37.5184 17.9657 42.5397C16.7612 44.7013 15.9647 47.1237 15.6758 49.7017H53.8363Z" fill="white"/>
<path d="M16.8891 48.6502H52.6226C52.277 46.6946 51.6129 44.8274 50.649 43.0821C48.0075 38.3173 43.4362 35.016 38.1079 34.0235C36.056 33.6366 33.8448 33.6114 31.7946 33.9562C26.3056 34.8562 21.6005 38.1701 18.8834 43.0485C17.9085 44.8064 17.239 46.682 16.8891 48.6502ZM55.0122 50.7529H14.5L14.6312 49.5838C14.9319 46.9133 15.7444 44.369 17.0468 42.0266C20.0802 36.5847 25.3295 32.8881 31.4493 31.8872C33.7367 31.5045 36.2049 31.5297 38.4943 31.9586C44.4405 33.0689 49.5409 36.7529 52.4864 42.0644C53.7775 44.3984 54.5816 46.9259 54.8797 49.5838L55.0122 50.7529Z" fill="#201D18"/>
<path d="M16.8891 48.6502H46.3472C46.1113 47.3255 45.7303 46.0386 45.2109 44.8064C43.2663 40.2098 39.4696 36.5763 34.796 34.8436C33.7602 34.4567 32.6925 34.1707 31.6222 33.9899C26.2089 34.9277 21.5736 38.2206 18.8834 43.0485C17.9085 44.8064 17.239 46.682 16.8891 48.6502ZM48.7347 50.7529H14.5L14.6312 49.5838C14.9319 46.9133 15.7444 44.369 17.0468 42.0266C20.0803 36.5847 25.3295 32.8881 31.4493 31.8872L31.6192 31.8577L31.7874 31.8872C33.0525 32.089 34.3099 32.4213 35.5261 32.8712C40.743 34.8058 44.9779 38.8598 47.1471 43.9905C47.8969 45.7652 48.3869 47.6493 48.6043 49.5838L48.7347 50.7529Z" fill="#201D18"/>
<path d="M23.9747 48.6502H52.6219C52.2763 46.6946 51.6122 44.8274 50.6483 43.0821C48.0392 38.3762 43.5453 35.0959 38.2985 34.0614C37.351 34.2464 36.4191 34.5114 35.5279 34.8436C30.7985 36.5973 26.9816 40.2771 25.0534 44.941C24.5634 46.1311 24.2018 47.3717 23.9747 48.6502ZM55.0115 50.7529H21.5859L21.7167 49.5838C21.9283 47.6998 22.3976 45.8704 23.1129 44.1419C25.2628 38.9355 29.5213 34.831 34.7937 32.8712C35.8589 32.4801 36.9713 32.1689 38.1072 31.9586L38.2985 31.9208L38.4907 31.9586C44.4398 33.0689 49.5402 36.7529 52.4857 42.0644C53.7768 44.3985 54.5809 46.9259 54.879 49.5838L55.0115 50.7529Z" fill="#201D18"/>
<path d="M19.4765 42.0605C20.8634 42.6325 22.4834 43.1203 24.3077 43.5156C27.4639 44.2053 31.0949 44.567 34.8088 44.567C38.7745 44.567 42.6251 44.1548 45.939 43.3768C47.4744 43.0152 48.8559 42.5862 50.0604 42.0942C47.3584 37.8635 43.0608 34.9449 38.1092 34.0239C36.0574 33.637 33.8461 33.6117 31.796 33.9566C26.6855 34.7935 22.2567 37.7205 19.4765 42.0605ZM34.8088 46.6655C30.9486 46.6655 27.1628 46.287 23.8619 45.5679C21.3937 45.0338 19.2561 44.3315 17.5087 43.482L16.5078 42.9983L17.0482 42.0269C20.0816 36.585 25.3309 32.8884 31.4507 31.8875C33.7381 31.5048 36.2063 31.53 38.4957 31.959C44.4418 33.0692 49.5422 36.7532 52.4878 42.0647L53.0278 43.0404L52.0252 43.524C50.4586 44.2768 48.572 44.9118 46.4222 45.4207C42.9493 46.2366 38.9331 46.6655 34.8088 46.6655Z" fill="#201D18"/>
</svg>
