<svg width="65" height="70" viewBox="0 0 65 70" fill="none" xmlns="http://www.w3.org/2000/svg">
<g clip-path="url(#clip0_370_172)">
<path d="M32.065 68C49.774 68 64.13 53.2254 64.13 35C64.13 16.7746 49.774 2 32.065 2C14.356 2 0 16.7746 0 35C0 53.2254 14.356 68 32.065 68Z" fill="#EDE7F1"/>
<path d="M40.5667 55.3073H23.5605L24.9885 40.6777H39.1387L40.5667 55.3073Z" fill="#7C30B7"/>
<path d="M42.6442 55.3071H21.5488V56.5764H42.6442V55.3071Z" fill="#7C30B7"/>
<path d="M52.9659 19.3682H11.2294C10.126 19.3682 9.15234 20.3034 9.15234 21.5058V23.8439V46.356V48.6941C9.15234 49.8297 10.0611 50.8317 11.2294 50.8317H52.9659C54.1342 50.8317 55.0429 49.8965 55.0429 48.6941V46.356V23.7771V21.439C54.978 20.3034 54.0693 19.3682 52.9659 19.3682Z" fill="#7C30B7"/>
<path d="M22.9783 39.2079L32.7146 31.4589L41.3475 33.5298C41.3475 33.5298 51.0189 25.9144 53.3556 24.0439V22.8415C53.3556 22.1067 52.7715 21.5723 52.1224 21.5723H12.0087C11.3596 21.5723 10.7754 22.1735 10.7754 22.8415V40.8111L15.8383 36.469L22.9783 39.2079Z" fill="#FEE13E"/>
<path d="M41.347 33.5298L32.7141 31.4589L22.9778 39.2079L15.9027 36.469L10.8398 40.8112V45.6209C10.8398 46.2889 11.424 46.8901 12.0731 46.8901H52.1219C52.771 46.8901 53.3552 46.2889 53.3552 45.6209V24.0439C51.0834 25.9144 41.5418 33.5966 41.347 33.5298Z" fill="#FEE13E"/>
<path d="M41.2806 34.7321C41.9976 34.7321 42.5788 34.134 42.5788 33.3961C42.5788 32.6582 41.9976 32.0601 41.2806 32.0601C40.5636 32.0601 39.9824 32.6582 39.9824 33.3961C39.9824 34.134 40.5636 34.7321 41.2806 34.7321Z" fill="white"/>
<path d="M32.8451 32.9284C33.562 32.9284 34.1432 32.3303 34.1432 31.5924C34.1432 30.8545 33.562 30.2563 32.8451 30.2563C32.1281 30.2563 31.5469 30.8545 31.5469 31.5924C31.5469 32.3303 32.1281 32.9284 32.8451 32.9284Z" fill="white"/>
<path d="M22.847 40.4103C23.564 40.4103 24.1452 39.8122 24.1452 39.0743C24.1452 38.3364 23.564 37.7383 22.847 37.7383C22.13 37.7383 21.5488 38.3364 21.5488 39.0743C21.5488 39.8122 22.13 40.4103 22.847 40.4103Z" fill="white"/>
<path d="M15.8392 38.1389C16.5562 38.1389 17.1374 37.5407 17.1374 36.8028C17.1374 36.065 16.5562 35.4668 15.8392 35.4668C15.1222 35.4668 14.541 36.065 14.541 36.8028C14.541 37.5407 15.1222 38.1389 15.8392 38.1389Z" fill="white"/>
<path d="M41.2826 32.9952L32.8444 30.9244C32.7146 30.8575 32.5199 30.9244 32.455 30.9912L22.8484 38.6065L16.033 35.9345C15.8383 35.8677 15.7085 35.8677 15.5786 36.0013L10.7754 40.0094V40.7442V41.2118C10.8403 41.2118 10.9701 41.145 11.035 41.0782L15.9681 36.9365L22.7835 39.6086C22.9134 39.6754 23.1081 39.6754 23.2379 39.5418L32.7795 31.9264L41.1528 33.9304C41.4773 34.064 41.6071 34.064 53.2907 24.8454V23.5762C48.5524 27.4507 42.3211 32.3272 41.2826 32.9952Z" fill="white"/>
<path d="M11.0354 31.7269L11.8793 30.0568C11.8793 29.99 11.9442 29.9232 11.9442 29.9232C12.3985 29.9232 12.788 29.9232 13.2423 29.8564C13.3722 29.8564 13.502 29.99 13.5669 30.1236L14.6703 31.5932C14.8002 31.7937 14.9949 31.8605 15.1896 31.7269L16.8123 30.8584C17.0071 30.7248 17.072 30.5244 16.9422 30.324L16.4229 28.5204C16.4229 28.4536 16.358 28.3868 16.358 28.32C16.6825 28.0528 17.0071 27.7188 17.2667 27.3179C17.3965 27.2511 17.5263 27.1843 17.6562 27.2511L19.4736 27.4515C19.6683 27.5183 19.8631 27.3847 19.928 27.1843L20.4472 25.3807C20.5121 25.1803 20.3823 24.9799 20.1876 24.9131L18.5649 24.0447C18.5 24.0447 18.4351 23.9779 18.4351 23.9779C18.4351 23.5103 18.4351 23.1094 18.3702 22.6418C18.3702 22.5082 18.5 22.3746 18.6298 22.3078L20.0578 21.1722C20.2525 21.0386 20.3174 20.8382 20.1876 20.6378L19.3438 18.9677C19.214 18.7673 19.0192 18.7005 18.8245 18.8341L17.072 19.3686C17.0071 19.3686 16.9422 19.4354 16.8772 19.4354C16.6176 19.1013 16.2931 18.7673 15.9036 18.5001C15.8387 18.3665 15.7738 18.2329 15.8387 18.0993L16.0334 16.2289C16.0983 16.0285 15.9685 15.8281 15.7738 15.7613L14.0213 15.2268C13.8265 15.16 13.6318 15.2937 13.5669 15.4941L12.7231 17.1641C12.7231 17.2309 12.6582 17.2977 12.6582 17.2977C12.2038 17.2977 11.8144 17.2977 11.36 17.3645C11.2302 17.3645 11.1004 17.2309 11.0354 17.0973L9.93199 15.6277C9.80218 15.4273 9.60745 15.3605 9.41272 15.4941L7.79 16.3625C7.59527 16.4961 7.53036 16.6965 7.66018 16.8969L8.17945 18.7005C8.17945 18.7673 8.24436 18.8341 8.24436 18.9009C7.91982 19.1681 7.59527 19.5022 7.33564 19.903C7.20582 19.9698 7.076 20.0366 6.94618 19.9698L5.19364 19.7694C4.99892 19.7026 4.80419 19.8362 4.73928 20.0366L4.22001 21.8402C4.1551 22.0406 4.28492 22.241 4.47965 22.3078L6.10237 23.1762C6.16728 23.1762 6.23219 23.243 6.23219 23.243C6.23219 23.7107 6.23219 24.1115 6.29709 24.5791C6.29709 24.7127 6.16728 24.8463 6.03746 24.9131L4.60946 26.0487C4.41474 26.1823 4.34983 26.3827 4.47965 26.5831L5.32346 28.2532C5.45328 28.4536 5.64801 28.5204 5.84273 28.3868L7.59527 27.8524C7.66018 27.8524 7.72509 27.7856 7.79 27.7856C8.04964 28.1196 8.37418 28.4536 8.76363 28.7208C8.82854 28.8544 8.89345 28.988 8.82854 29.1216L8.63382 30.992C8.56891 31.1924 8.69872 31.3928 8.89345 31.4596L10.646 31.9941C10.7758 32.0609 10.9705 31.9273 11.0354 31.7269ZM9.80218 22.8422C10.2565 21.4394 11.6845 20.6378 13.0476 21.0386C14.4107 21.5062 15.1896 22.9758 14.8002 24.3787C14.3458 25.7815 12.9178 26.5831 11.5547 26.1823C10.1916 25.7815 9.41272 24.2451 9.80218 22.8422Z" fill="white"/>
<path d="M50.4359 42.6156L51.7341 42.5488C51.799 42.5488 51.799 42.5488 51.8639 42.5488C51.9937 42.816 52.1884 43.0832 52.3832 43.3504C52.4481 43.4172 52.4481 43.5508 52.3832 43.6844L51.9288 44.9537C51.8639 45.0873 51.8639 45.2877 51.9937 45.3545L53.0972 46.0225C53.227 46.0893 53.4217 46.0893 53.4866 45.9557L54.3304 44.9537C54.3304 44.8869 54.3953 44.8869 54.3953 44.8869C54.7199 44.9537 54.9795 45.0205 55.3041 45.0873C55.369 45.1541 55.4988 45.2209 55.4988 45.2877L56.0181 46.4901C56.083 46.6237 56.2128 46.7573 56.3426 46.6905L57.5759 46.3565C57.7057 46.2897 57.8355 46.1561 57.7706 46.0225L57.7057 44.6865C57.7057 44.6197 57.7057 44.6197 57.7057 44.5529C57.9653 44.4193 58.225 44.2189 58.4846 44.0185C58.5495 43.9517 58.6793 43.9517 58.8091 44.0185L60.0424 44.4861C60.1722 44.5529 60.3669 44.5529 60.4319 44.4193L61.0809 43.2836C61.1459 43.15 61.1459 42.9496 61.016 42.8828L60.0424 42.0144C59.9775 42.0144 59.9775 41.9476 59.9775 41.9476C60.0424 41.6136 60.1073 41.3464 60.1722 41.0124C60.2371 40.9456 60.302 40.812 60.3669 40.812L61.5353 40.2776C61.6651 40.2108 61.7949 40.0772 61.73 39.9436L61.4055 38.6743C61.3406 38.5407 61.2108 38.4071 61.0809 38.4739L59.7828 38.5407C59.7179 38.5407 59.7179 38.5407 59.653 38.5407C59.5231 38.2735 59.3284 38.0063 59.1337 37.7391C59.0688 37.6723 59.0688 37.5387 59.1337 37.4051L59.588 36.1359C59.653 36.0023 59.6529 35.8019 59.5231 35.7351L58.4197 35.067C58.2899 35.0002 58.0951 35.0002 58.0302 35.1338L57.1864 36.0691C57.1864 36.1359 57.1215 36.1359 57.1215 36.1359C56.797 36.0691 56.5373 36.0023 56.2128 35.9355C56.1479 35.8687 56.0181 35.8019 56.0181 35.7351L55.4988 34.5326C55.4339 34.399 55.3041 34.2654 55.1742 34.3322L53.8761 34.6662C53.7462 34.733 53.6164 34.8666 53.6813 35.0002L53.7462 36.3363C53.7462 36.4031 53.7462 36.4031 53.7462 36.4699C53.4866 36.6035 53.227 36.8039 52.9673 37.0043C52.9024 37.0711 52.7726 37.0711 52.6428 37.0043L51.4095 36.5367C51.2797 36.4699 51.085 36.4699 51.0201 36.6035L50.371 37.7391C50.3061 37.8727 50.3061 38.0731 50.4359 38.1399L51.4095 39.0083C51.4744 39.0083 51.4744 39.0751 51.4744 39.0751C51.4095 39.4091 51.3446 39.6764 51.2797 40.0104C51.2148 40.0772 51.1499 40.2108 51.085 40.2108L49.9815 40.7452C49.8517 40.812 49.7219 40.9456 49.7868 41.0792L50.1113 42.3484C50.1762 42.5488 50.3061 42.6156 50.4359 42.6156ZM55.3041 38.6075C56.2777 38.3403 57.3162 39.0083 57.5759 40.0104C57.8355 41.0124 57.1864 42.0812 56.2128 42.3484C55.2391 42.6156 54.2006 41.9476 53.941 40.9456C53.6813 39.8768 54.3304 38.8747 55.3041 38.6075Z" fill="white"/>
</g>
<defs>
<clipPath id="clip0_370_172">
<rect width="64.13" height="70" fill="white"/>
</clipPath>
</defs>
</svg>
