<svg width="67" height="70" viewBox="0 0 67 70" fill="none" xmlns="http://www.w3.org/2000/svg">
<g clip-path="url(#clip0_385_6002)">
<path d="M35.3145 52.0982C46.0851 52.0982 54.8165 43.5463 54.8165 32.9971C54.8165 22.4479 46.0851 13.896 35.3145 13.896C24.5439 13.896 15.8125 22.4479 15.8125 32.9971C15.8125 43.5463 24.5439 52.0982 35.3145 52.0982Z" stroke="#7C30B7" stroke-width="3" stroke-linecap="round" stroke-linejoin="round"/>
<path d="M35.3152 46.8658C43.1749 46.8658 49.5464 40.6569 49.5464 32.9978C49.5464 25.3387 43.1749 19.1299 35.3152 19.1299C27.4555 19.1299 21.084 25.3387 21.084 32.9978C21.084 40.6569 27.4555 46.8658 35.3152 46.8658Z" stroke="#7C30B7" stroke-width="3" stroke-linecap="round" stroke-linejoin="round"/>
<path d="M50.9961 65.705L46.3848 58.3352L54.9504 52.6221L59.5618 59.9919" stroke="#7C30B7" stroke-width="2" stroke-linecap="round" stroke-linejoin="round"/>
<path d="M49.0176 63.089L57.978 57.3325" stroke="#7C30B7" stroke-width="2" stroke-linecap="round" stroke-linejoin="round"/>
<path d="M43.748 51.5752L47.4376 57.855" stroke="#7C30B7" stroke-width="2" stroke-linecap="round" stroke-linejoin="round"/>
<path d="M49.5469 47.9116L53.7635 53.6681" stroke="#7C30B7" stroke-width="2" stroke-linecap="round" stroke-linejoin="round"/>
<path d="M50.0742 20.1758L60.0888 11.8027" stroke="#7C30B7" stroke-width="2" stroke-linecap="round" stroke-linejoin="round"/>
<path d="M39.0039 28.0258L44.8018 23.3159" stroke="#7C30B7" stroke-width="2" stroke-linecap="round" stroke-linejoin="round"/>
<path d="M27.4082 22.27L31.6248 28.0265" stroke="#7C30B7" stroke-width="2" stroke-linecap="round" stroke-linejoin="round"/>
<path d="M21.084 13.896L23.7194 17.5592" stroke="#7C30B7" stroke-width="2" stroke-linecap="round" stroke-linejoin="round"/>
<path d="M6.85156 28.0257L14.2307 14.4194" stroke="#7C30B7" stroke-width="2" stroke-linecap="round" stroke-linejoin="round"/>
<path d="M21.0845 6.57031H14.2324V13.8968H21.0845V6.57031Z" fill="#FEE13E" stroke="#FEE13E" stroke-width="2" stroke-linecap="round" stroke-linejoin="round"/>
<path d="M39.0041 28.0254H31.625V34.8285H39.0041V28.0254Z" fill="#FEE13E" stroke="#FEE13E" stroke-width="2" stroke-linecap="round" stroke-linejoin="round"/>
<path d="M66.9399 5H60.0879V11.8031H66.9399V5Z" fill="#FEE13E" stroke="#FEE13E" stroke-width="2" stroke-linecap="round" stroke-linejoin="round"/>
<path d="M6.85205 28.0254H0V34.8285H6.85205V28.0254Z" stroke="#FEE13E" stroke-width="2" stroke-linecap="round" stroke-linejoin="round"/>
</g>
<defs>
<clipPath id="clip0_385_6002">
<rect width="66.94" height="70" fill="white"/>
</clipPath>
</defs>
</svg>
