<svg width="64" height="70" viewBox="0 0 64 70" fill="none" xmlns="http://www.w3.org/2000/svg">
<path d="M46.2018 40.4131C46.0506 41.8141 44.4036 43.3895 43.2242 44.1354L7.53906 64.4411L46.1111 7.48096L46.2018 40.4131Z" fill="#F4F4F4"/>
<path d="M4.72478 35.8022C4.61494 35.8022 4.52486 35.714 4.52294 35.6037L4.44731 31.1956C4.44105 30.3748 5.06823 29.2924 5.78935 28.8767L7.22002 28.051C7.3154 27.9956 7.4392 28.0279 7.49556 28.1252C7.55094 28.2216 7.5182 28.3449 7.42137 28.4008L5.9907 29.2264C5.39965 29.567 4.84569 30.5212 4.85098 31.1908L4.92661 35.597C4.92854 35.7083 4.83942 35.8003 4.72815 35.8022C4.72719 35.8022 4.72574 35.8022 4.72478 35.8022ZM8.35012 27.8338C8.28075 27.8338 8.21283 27.7976 8.17525 27.7326C8.11986 27.6363 8.15261 27.5129 8.24944 27.4571L9.68926 26.6256C9.78513 26.5703 9.90893 26.6025 9.9648 26.6998C10.0202 26.7962 9.98744 26.9195 9.89062 26.9754L8.45079 27.8068C8.419 27.8251 8.38432 27.8338 8.35012 27.8338Z" fill="#D9DADF"/>
<path d="M4.31239 66.4103C3.98386 66.4103 3.67991 66.3178 3.42026 66.1314C3.19916 65.9725 3.14858 65.6642 3.30754 65.4426C3.46554 65.2215 3.77431 65.1699 3.99638 65.3299C4.21604 65.4883 4.57635 65.4445 4.98195 65.2094L43.9541 42.7132C44.9074 42.1573 45.7142 40.7594 45.7142 39.662L45.7041 36.9679C45.7032 36.6952 45.9233 36.4736 46.1955 36.4727C46.497 36.477 46.6897 36.6918 46.6907 36.964L46.7008 39.6601C46.7008 41.1149 45.7118 42.8298 44.4493 43.5663L5.47523 66.064C5.07589 66.2947 4.67896 66.4103 4.31239 66.4103Z" fill="#383838"/>
<path d="M25.5671 51.1524C25.5671 51.7698 25.1168 52.5417 24.5765 52.8504C24.0362 53.172 23.5859 52.9148 23.5859 52.2844C23.5859 51.667 24.0234 50.895 24.5765 50.5734C25.1168 50.2646 25.5542 50.522 25.5671 51.1524Z" fill="#908FA1"/>
<path d="M29.7796 28.8589L29.7993 40.6164L20.2102 46.1529L20.1914 34.3953L29.7796 28.8589Z" fill="#7C30B7"/>
<path d="M40.8159 34.2576L31.2198 39.7901L31.209 28.0385L40.7942 22.4951L40.8159 34.2576Z" fill="#FEE13E"/>
<path d="M18.7816 35.2227L18.8033 46.9743L9.20725 52.5177L9.18555 40.7552L18.7816 35.2227Z" fill="#FEE13E"/>
<path d="M40.6861 20.1495L9.16621 38.3511L9.14648 31.0507L40.6664 12.8491L40.6861 20.1495Z" fill="#D9DADF"/>
<path d="M59.9756 21.4137C59.9756 22.3015 59.3442 23.3868 58.5846 23.8307L41.7444 33.5482C41.33 33.7948 40.9453 33.7948 40.6888 33.5974C40.7085 33.6172 40.7282 33.6369 40.7479 33.6467L38.3092 32.3237C38.0626 32.1756 37.9047 31.8698 37.9047 31.4258L37.8652 16.9534C37.8652 16.0655 38.4868 14.9803 39.2562 14.5364L56.0964 4.81891C56.4812 4.59203 56.8363 4.57228 57.0929 4.72028L59.4724 6.01387C59.7487 6.14212 59.9263 6.46763 59.9361 6.94127L59.9756 21.4137Z" fill="white"/>
<path d="M56.7101 17.0816V14.9014L55.0823 15.5821C54.9837 15.1382 54.8258 14.7631 54.6088 14.4574L55.5657 12.4351L54.2241 11.6655L52.9909 13.4413C52.5962 13.392 52.1819 13.4216 51.7281 13.5399L51.5012 11.9418L49.5972 13.0367L49.39 14.8915C48.9362 15.2959 48.512 15.7596 48.1174 16.2528L46.8842 15.9077L45.5524 18.216L46.5093 19.1336C46.3021 19.6958 46.1443 20.2484 46.0457 20.8009L44.4277 21.9945L44.4376 24.1748L46.1246 23.4744C46.2331 23.8492 46.4008 24.1748 46.6079 24.4411L45.5721 26.651L46.9138 27.4205L48.3443 25.3488C48.6698 25.3783 49.0151 25.329 49.3801 25.2304L49.6366 27.1442L51.5406 26.0492L51.7873 23.8394C52.1523 23.5138 52.4976 23.1685 52.8133 22.7739L54.2635 23.1783L55.5954 20.8699L54.5398 19.8637C54.7469 19.3605 54.9048 18.8475 55.0231 18.3345L56.7101 17.0816ZM50.5837 22.6653C49.0053 23.573 47.7227 22.843 47.7227 21.0376C47.7129 19.2223 48.9855 17.0125 50.564 16.1049C52.1425 15.1973 53.4151 15.9273 53.425 17.7425C53.425 19.548 52.1622 21.7578 50.5837 22.6653Z" fill="#7C30B7"/>
<path d="M38.3714 56.3688C38.5872 56.1285 38.7009 55.8553 38.7009 55.5793C38.7009 55.443 38.5905 55.3327 38.4542 55.3327C38.3179 55.3327 38.2076 55.443 38.2076 55.5793C38.2076 55.732 38.1373 55.891 37.9985 56.0461C37.9176 56.1429 37.7977 56.2383 37.6411 56.3308L25.3368 63.6966C25.2776 63.7337 25.2039 63.7679 25.1234 63.7948L25.1239 63.7953C25.1032 63.8025 25.0835 63.8122 25.0652 63.8242C24.1379 64.2067 22.8883 64.0689 22.2949 63.6985C22.1764 63.619 17.5828 60.3492 16.0673 59.2605C15.9561 59.181 15.8019 59.2061 15.7229 59.3169C15.6434 59.4277 15.669 59.5818 15.7793 59.6613C17.0259 60.5563 21.9601 64.0728 22.0294 64.1142C22.4818 64.397 23.1374 64.5429 23.8007 64.5429C24.3243 64.5429 24.8532 64.4519 25.2892 64.2655C25.3007 64.2602 25.3123 64.2539 25.3234 64.2472C25.425 64.2106 25.517 64.1658 25.5951 64.1166L37.8931 56.7547C38.0968 56.6347 38.2596 56.5027 38.3714 56.3688ZM3.449 64.4919L3.44171 61.9258L46.3186 37.1704C46.4366 37.1024 46.4771 36.9517 46.4087 36.8336C46.3403 36.7156 46.189 36.6747 46.072 36.7436L3.44008 61.3574L3.3541 31.1977C3.34495 30.004 4.19035 28.541 5.23902 27.937L44.2174 5.44024C44.6731 5.16951 45.0917 5.11846 45.3966 5.29813C45.5137 5.36701 45.6649 5.32848 45.7343 5.21094C45.8037 5.09341 45.7646 4.94215 45.6471 4.87326C45.1803 4.59821 44.584 4.64879 43.9684 5.01488L4.99239 27.5097C4.35118 27.8792 3.79203 28.5131 3.4051 29.2301L0.910872 28.1046C0.787071 28.0482 0.640629 28.1036 0.584278 28.2279C0.528401 28.3522 0.583795 28.4982 0.707596 28.5545L3.18996 29.6747C2.97976 30.1788 2.85716 30.7051 2.86083 31.2001L2.95573 64.4928C2.95573 65.1855 3.21441 65.7327 3.66577 65.9943C3.70479 66.017 3.74718 66.0275 3.78957 66.0275C3.87435 66.0275 3.9572 65.9837 4.00297 65.9047C4.07138 65.7867 4.03091 65.6359 3.91337 65.5675C3.61807 65.3965 3.449 65.0049 3.449 64.4919Z" fill="#979AAB"/>
<path d="M28.9871 51.6282L23.3737 54.874L20.8383 56.3439C20.7594 56.3834 20.7101 56.4623 20.7101 56.551L20.6903 58.9187C20.6903 59.0075 20.7397 59.0964 20.8186 59.1357L23.4033 60.6452C23.4428 60.6649 23.4823 60.6747 23.5217 60.6747C23.5611 60.6747 23.6105 60.6649 23.65 60.6452L23.7091 60.6058L29.2535 57.3995C29.3324 57.36 29.3817 57.2712 29.3817 57.1824L29.362 51.8452C29.362 51.7565 29.3127 51.6776 29.2337 51.6282C29.1548 51.5887 29.066 51.5887 28.9871 51.6282ZM21.2034 56.699L23.2553 55.5052L23.2751 59.994L21.1836 58.7806L21.2034 56.699ZM23.7683 60.0039L23.7486 55.2291L28.8687 52.2695L28.8885 57.0443L23.7683 60.0039ZM42.8973 10.7954C42.8973 9.90885 42.1841 9.52439 41.4274 9.95684L8.11197 29.2042C7.43126 29.5987 6.88867 30.5164 6.88867 31.2957L6.95774 50.9574C6.95774 51.0664 6.95866 51.525 6.96756 54.9726C6.96756 55.8479 7.68233 56.2565 8.4178 55.8013L41.7529 36.5539C42.4336 36.1594 42.9565 35.2418 42.9565 34.4625V33.1306L58.7016 24.0446C59.56 23.5514 60.2209 22.3971 60.2209 21.4105L60.1814 6.93797C60.1716 6.42495 59.9743 6.03044 59.6487 5.84305C59.6487 5.83318 59.6388 5.83318 59.629 5.8233C59.629 5.8233 59.629 5.81343 59.6192 5.81343L59.5698 5.79368L57.212 4.51113C56.8667 4.31387 56.4129 4.34349 55.9689 4.60988L42.8973 12.1568V10.7954ZM58.455 23.6106C33.4523 38.063 65.8234 19.3551 41.6148 33.3377C41.2202 33.5646 40.8749 33.5252 40.7072 33.249C40.6677 33.1997 40.648 33.1306 40.6283 33.0615C40.5987 32.9729 40.5888 32.8642 40.5888 32.7458L40.5494 18.2733C40.5494 17.4739 41.1013 16.4797 41.8121 16.0733C43.7227 14.972 51.8692 10.27 58.6523 6.35595C58.8299 6.24744 59.0075 6.19808 59.1555 6.19808C59.2443 6.19808 59.3133 6.21783 59.3823 6.24745C59.5797 6.35596 59.6882 6.59284 59.6882 6.93798L59.7277 21.4105C59.7277 22.2096 59.1456 23.2159 58.455 23.6106ZM38.3395 15.9945L40.352 17.05C40.1646 17.4448 40.0561 17.8788 40.0561 18.2733L40.0955 32.7459C40.0955 32.8445 40.1054 32.9334 40.1153 33.0221L38.4283 32.1145C38.2507 32.0059 38.1521 31.7593 38.1521 31.4239L38.1126 16.9515C38.1126 16.6456 38.1915 16.32 38.3395 15.9945ZM56.2156 5.03402C56.3932 4.92551 56.5707 4.87615 56.7187 4.87615C56.8075 4.87615 56.8963 4.8959 56.9752 4.93528L58.603 5.82331C58.5438 5.85294 58.4747 5.88244 58.4057 5.92182C58.2954 5.98554 41.4644 15.7071 41.5655 15.6492C41.2146 15.8497 40.8628 16.1839 40.5987 16.616L38.5763 15.5603C38.7933 15.2152 39.0695 14.929 39.3754 14.7514C49.6741 8.80866 52.3539 7.26233 56.2156 5.03402ZM39.1287 14.3271C38.2803 14.8105 37.6193 15.965 37.6193 16.9515L37.6588 31.4239C37.6588 31.937 37.8364 32.3315 38.1915 32.5387L40.6283 33.8607C40.6283 33.8607 40.6283 33.8607 40.6381 33.8607C40.9989 34.0928 41.4813 33.9814 41.8615 33.762L42.4632 33.4167V34.4625C42.4632 35.0642 42.0292 35.8238 41.5063 36.1297L8.17116 55.3771C7.762 55.6287 7.46082 55.4736 7.46082 54.9627C7.4264 43.269 7.49757 64.4621 7.38194 31.2957C7.38194 30.6939 7.82589 29.9342 8.3586 29.6382L41.674 10.3909C42.0626 10.1519 42.404 10.2678 42.404 10.7954V12.433L39.1287 14.3271ZM60.4577 52.299C60.4379 52.2891 60.4182 52.2794 60.3985 52.2891C60.3393 52.2596 60.2604 52.2695 60.2012 52.3089L43.6767 61.8487C43.6076 61.8882 43.5583 61.977 43.5583 62.056C43.5484 62.0757 43.5484 62.0954 43.5583 62.125C43.5879 62.2335 43.6865 62.3125 43.795 62.3125H48.4219C48.4318 62.3125 48.4417 62.3125 48.4515 62.3026L60.2801 62.3125C60.4182 62.3125 60.5267 62.2039 60.5267 62.0659L60.5662 55.2882C60.5761 55.2586 60.5859 55.2291 60.5859 55.1896L60.5761 52.5161C60.5761 52.4274 60.5268 52.3484 60.4577 52.299ZM60.0828 52.9503L60.0729 55.0515L48.3726 61.8093H44.7421L52.4076 57.3798L60.0828 52.9503ZM60.0335 61.8192L49.3591 61.8093L60.0631 55.6237L60.0335 61.8192Z" fill="#979AAB"/>
<path d="M63.8832 47.9385C63.8832 47.8496 63.8339 47.7709 63.755 47.7314C63.686 47.682 63.5873 47.682 63.5084 47.7314L35.7965 63.733L35.7571 63.7527C35.7571 63.7527 35.7472 63.7527 35.7472 63.7626C35.7373 63.7725 35.7176 63.7824 35.7077 63.7922C35.6979 63.8021 35.688 63.812 35.688 63.8217C35.6781 63.8316 35.6682 63.8415 35.6584 63.8612C35.6485 63.8908 35.6387 63.9303 35.6387 63.9599V66.6334C35.6387 66.7716 35.7571 66.88 35.8853 66.88H63.5478C63.6169 66.88 63.6761 66.8504 63.7254 66.811C63.7747 66.7617 63.7945 66.7025 63.7945 66.6334L63.7846 64.0093C63.7945 63.9895 63.7945 63.9796 63.7945 63.9599L63.8832 47.9385ZM63.3899 48.3725L63.3012 63.7132H36.8028L63.3899 48.3725ZM63.3012 66.3867H36.132V64.2065H63.3012V66.3867Z" fill="#979AAB"/>
<path d="M38.9461 57.9246V55.5791C38.9461 54.9072 38.4096 54.3497 37.7876 54.0709L31.1761 51.2247L44.4453 43.5629C45.7088 42.8322 46.6987 41.1197 46.6987 39.6625C46.6929 38.153 46.6647 30.8135 46.6665 31.2756L58.8305 24.2515C59.7479 23.7187 60.4682 22.4757 60.4682 21.4102L60.4286 6.9278C60.409 6.27677 60.1426 5.7835 59.7085 5.57637L57.3408 4.29382C56.9166 4.04718 56.3641 4.08668 55.8512 4.39245L46.6073 9.72965L46.5974 6.3754C46.5974 5.54389 46.1951 4.89722 45.7608 4.65486L43.1673 3.20685C42.6278 2.88892 41.9399 2.93902 41.2308 3.34654L2.26451 25.8423C0.994727 26.5735 0 28.2923 0 29.7547V63.0461C0.0115622 63.8428 0.307326 64.4493 0.847328 64.7614L3.55501 66.2152C3.57909 66.2282 3.60547 66.2257 3.63058 66.2343C4.25192 66.5392 4.88138 66.406 5.47702 66.0635L14.4963 60.8558C14.5644 61.2565 14.8075 61.627 15.2162 61.9107C17.2008 63.3255 21.8243 66.6204 21.9153 66.6791C22.973 67.2799 24.6414 67.2819 25.7203 66.6637L38.013 59.3042C38.606 58.9612 38.9461 58.4588 38.9461 57.9246ZM56.3444 5.24085C56.6404 5.07322 56.7489 5.09297 56.8574 5.1521L59.2645 6.46415C59.3435 6.49378 59.4323 6.65165 59.4421 6.93767L59.4816 21.4102C59.4816 22.1206 58.9488 23.0479 58.3372 23.4031C56.4118 24.5134 43.6927 31.8485 41.4872 33.1204C41.0543 33.3853 41.0168 33.1555 40.8065 33.1204L38.5571 31.8971C38.4585 31.8379 38.3993 31.6604 38.3993 31.4236L38.3598 16.9512C38.3598 16.2408 38.8926 15.3134 39.5042 14.9682C52.1545 7.65891 50.4434 8.64946 56.3444 5.24085ZM4.98423 65.2085C4.57767 65.4426 4.21542 65.484 3.98805 65.325C3.97697 65.3172 3.9639 65.3161 3.95247 65.3093L1.32757 63.9001C1.11707 63.7783 0.992783 63.4618 0.986528 63.0388V29.7547C0.986528 28.6502 1.79725 27.2499 2.75729 26.6969L41.7236 4.20109C42.1061 3.98191 42.4496 3.92941 42.6764 4.06236L45.2801 5.51615C45.2867 5.51976 45.2942 5.5194 45.3009 5.52277C45.3026 5.52385 45.3033 5.52578 45.3051 5.52698C45.5024 5.66511 45.6109 5.97087 45.6109 6.37539L45.6208 10.292L39.011 14.1098C38.0935 14.6426 37.3733 15.8856 37.3733 16.9512L37.4128 31.4236C37.4128 32.0254 37.6397 32.4989 38.0737 32.7554L40.5105 34.0774C40.8217 34.2848 41.4019 34.3237 41.9903 33.9787L45.68 31.8478C45.6804 31.9471 45.7143 40.1739 45.7122 39.6644C45.7122 40.7627 44.9058 42.1573 43.9515 42.7088L29.8377 50.8581C29.835 50.8597 29.8316 50.8592 29.8288 50.8608C27.0593 52.4602 39.4131 45.3259 4.98423 65.2085ZM37.9596 57.9246C37.9596 58.0941 37.7953 58.2906 37.513 58.4535L25.2218 65.812C24.4693 66.2427 23.1519 66.2475 22.438 65.8434C22.2862 65.7383 15.7885 61.1072 15.7836 61.1038C15.2738 60.7493 15.5783 60.6751 15.3555 60.3596L30.1101 51.8401L37.4417 55.0025C37.7705 55.2588 37.9595 55.3109 37.9595 55.5791V57.9246H37.9596ZM64 47.9383C64 47.81 63.9309 47.6818 63.8224 47.6225C63.704 47.5535 63.5659 47.5535 63.4475 47.6225L35.6962 63.6439C35.5778 63.7031 35.5088 63.8314 35.5088 63.9596L35.5186 66.6331C35.5186 66.8403 35.6863 67.0081 35.8935 67.0081H63.556C63.556 67.0081 63.5659 67.0081 63.5757 67.0081C63.773 67.0081 63.9407 66.8403 63.9407 66.6331C63.9407 66.5936 63.9309 66.5542 63.921 66.5149C64.0292 41.0574 63.9919 49.8377 64 47.9383ZM63.1811 66.2682H36.2585L36.2486 64.1766L63.2601 48.5795L63.2502 50.6488H62.4274V51.3887H63.2404L63.2403 51.3911L63.2304 53.4105H62.4274V54.1504H63.2304V54.1535L63.2206 56.1726H62.4274V56.9125H63.2108L63.2107 56.9157L63.2008 58.9347H62.4274V59.6746H63.2008V59.6781L63.1812 61.6963H62.4274V62.4362H63.1811V62.4403L63.1713 63.9596L63.1811 66.2682Z" fill="black"/>
</svg>
