<svg width="62" height="70" viewBox="0 0 62 70" fill="none" xmlns="http://www.w3.org/2000/svg">
<g clip-path="url(#clip0_385_5842)">
<path d="M30.795 67C47.8026 67 61.59 52.6731 61.59 35C61.59 17.3269 47.8026 3 30.795 3C13.7874 3 0 17.3269 0 35C0 52.6731 13.7874 67 30.795 67Z" fill="#EDE7F1"/>
<path d="M34.5975 45.105H24L24.8727 35.8418H33.7247L34.5975 45.105Z" fill="#7C30B7"/>
<path d="M35.8447 45.105H22.6914V45.8823H35.8447V45.105Z" fill="#7C30B7"/>
<path d="M43.6364 39.4695C43.6364 40.1821 43.0754 40.8299 42.3273 40.8299H16.27C15.5843 40.8299 14.9609 40.2469 14.9609 39.4695V23.7934C14.9609 23.0809 15.522 22.4331 16.27 22.4331H42.3273C43.0131 22.4331 43.6364 23.0161 43.6364 23.7934V39.4695Z" fill="#343049"/>
<path d="M43.6364 40.8943C43.6364 41.6069 43.0754 42.2547 42.3273 42.2547H16.27C15.5843 42.2547 14.9609 41.6717 14.9609 40.8943V25.2182C14.9609 24.5057 15.522 23.8579 16.27 23.8579H42.3273C43.0131 23.8579 43.6364 24.4409 43.6364 25.2182V40.8943Z" fill="#7C30B7"/>
<path d="M43.6364 39.4695C43.6364 40.1821 43.0754 40.8299 42.3273 40.8299H16.27C15.5843 40.8299 14.9609 40.2469 14.9609 39.4695V23.7934C14.9609 23.0809 15.522 22.4331 16.27 22.4331H42.3273C43.0131 22.4331 43.6364 23.0161 43.6364 23.7934V39.4695Z" fill="#7C30B7"/>
<path d="M43.5741 39.4692H14.9609V40.9591H43.5741V39.4692Z" fill="#7C30B7"/>
<path d="M42.5775 39.7283C42.5775 40.1818 42.2035 40.5057 41.8294 40.5057H16.7695C16.3332 40.5057 16.0215 40.117 16.0215 39.7283V24.4409C16.0215 23.9875 16.3955 23.6636 16.7695 23.6636H41.7671C42.2035 23.6636 42.5152 24.0522 42.5152 24.4409V39.7283H42.5775Z" fill="#EDE7F1"/>
<path d="M31.9763 24.7651H24.3711V39.34H34.9062V27.8097L31.9763 24.7651Z" fill="white"/>
<path d="M31.9766 27.8097H34.9065L31.9766 24.7651V27.8097Z" fill="#FEE13E"/>
<path d="M34.2203 35.7129H25.0566V36.555H34.2203V35.7129Z" fill="#FEE13E"/>
<path d="M34.2203 34.0283H25.0566V34.8704H34.2203V34.0283Z" fill="#FEE13E"/>
<path d="M34.2203 32.2793H25.0566V33.1214H34.2203V32.2793Z" fill="#FEE13E"/>
<path d="M34.2203 30.4658H25.0566V31.3079H34.2203V30.4658Z" fill="#FEE13E"/>
<path d="M31.2904 28.7168H25.0566V29.5589H31.2904V28.7168Z" fill="#FEE13E"/>
<path d="M47.3112 35.583C47.8722 35.583 48.3709 36.1012 48.3709 36.6842V48.5385C48.3709 49.1215 47.8722 49.251 47.3112 49.251H38.0851C37.5241 49.251 37.0254 48.7328 37.0254 48.1498V36.6842C37.0254 36.1012 37.5241 35.583 38.0851 35.583H47.3112Z" fill="white"/>
<path d="M43.5091 48.5384C43.5091 48.7975 43.3221 48.9918 43.0728 48.9918H42.2C41.9507 48.9918 41.7637 48.7975 41.7637 48.5384C41.7637 48.2793 41.9507 48.085 42.2 48.085H43.0728C43.3221 48.085 43.5091 48.2793 43.5091 48.5384Z" fill="#7C30B7"/>
<path d="M47.8113 47.5027C47.8113 47.6323 47.6867 47.7618 47.562 47.7618H37.8372C37.7126 47.7618 37.5879 47.6323 37.5879 47.5027V36.4906C37.5879 36.361 37.7126 36.2314 37.8372 36.2314H47.562C47.6867 36.2314 47.8113 36.361 47.8113 36.4906V47.5027Z" fill="#EDE7F1"/>
<path d="M44.2582 37.0728H39.1465V46.9189H46.1907V39.1456L44.2582 37.0728Z" fill="white"/>
<path d="M44.2559 39.1456H46.1883L44.2559 37.0728V39.1456Z" fill="#FEE13E"/>
<path d="M45.7555 44.4575H39.584V45.0405H45.7555V44.4575Z" fill="#FEE13E"/>
<path d="M45.7555 43.2915H39.584V43.8745H45.7555V43.2915Z" fill="#FEE13E"/>
<path d="M45.7555 42.1255H39.584V42.7085H45.7555V42.1255Z" fill="#FEE13E"/>
<path d="M45.7555 40.8945H39.584V41.4775H45.7555V40.8945Z" fill="#FEE13E"/>
<path d="M43.7606 39.729H39.584V40.312H43.7606V39.729Z" fill="#FEE13E"/>
<path d="M36.1597 48.5387C36.1597 48.9274 35.848 49.1865 35.5364 49.1865H31.3597C30.9857 49.1865 30.7363 48.8626 30.7363 48.5387V39.5994C30.7363 39.2108 31.048 38.9517 31.3597 38.9517H35.5364C35.9104 38.9517 36.1597 39.2755 36.1597 39.5994V48.5387Z" fill="#7C30B7"/>
<path d="M35.8492 47.5669C35.8492 47.6965 35.7245 47.826 35.5998 47.826H31.4232C31.2985 47.826 31.1738 47.6965 31.1738 47.5669V40.1175C31.1738 39.988 31.2985 39.8584 31.4232 39.8584H35.5375C35.6622 39.8584 35.7868 39.988 35.7868 40.1175V47.5669H35.8492Z" fill="#EDE7F1"/>
<path d="M34.104 39.3398H32.7949V39.4694H34.104V39.3398Z" fill="#7C30B7"/>
<path d="M33.8535 48.7977C33.8535 48.8625 33.7912 48.9272 33.7288 48.9272H33.2301C33.1678 48.9272 33.1055 48.8625 33.1055 48.7977V48.2795C33.1055 48.2147 33.1678 48.1499 33.2301 48.1499H33.7288C33.7912 48.1499 33.8535 48.2147 33.8535 48.2795V48.7977Z" fill="#7C30B7"/>
<path d="M34.288 41.5425H31.6074V46.5951H35.2854V42.5789L34.288 41.5425Z" fill="white"/>
<path d="M34.2871 42.5789H35.2845L34.2871 41.5425V42.5789Z" fill="#FEE13E"/>
<path d="M35.0347 45.3647H31.8555V45.6886H35.0347V45.3647Z" fill="#FEE13E"/>
<path d="M35.0347 44.7173H31.8555V45.0412H35.0347V44.7173Z" fill="#FEE13E"/>
<path d="M35.0347 44.1343H31.8555V44.4582H35.0347V44.1343Z" fill="#FEE13E"/>
<path d="M35.0347 43.4863H31.8555V43.8102H35.0347V43.4863Z" fill="#FEE13E"/>
<path d="M34.0373 42.9033H31.8555V43.2272H34.0373V42.9033Z" fill="#FEE13E"/>
<path d="M53.5526 47.1137L52.9916 46.7898C53.2409 46.2068 53.4903 45.6238 53.7396 45.0408L54.3007 45.2999C54.1137 45.8829 53.802 46.5307 53.5526 47.1137ZM54.9241 43.4214L54.3007 43.227C54.4877 42.6441 54.6124 41.9963 54.7371 41.3485L55.3604 41.4781C55.2981 42.1258 55.1111 42.7736 54.9241 43.4214ZM55.7345 39.5995L55.1111 39.5347C55.1734 38.887 55.2358 38.2392 55.2981 37.6562L55.9215 37.721C55.8591 38.2392 55.7968 38.9517 55.7345 39.5995ZM55.2981 35.6481C55.2981 35.0003 55.2358 34.3526 55.1734 33.7048L55.7968 33.64C55.8591 34.2878 55.9215 34.9356 55.9215 35.5833L55.2981 35.6481ZM54.9864 31.8262C54.8617 31.1785 54.737 30.5955 54.6124 29.9477L55.2358 29.7534C55.4228 30.4011 55.5474 31.0489 55.6098 31.6967L54.9864 31.8262ZM54.0513 28.1339C53.8643 27.5509 53.615 26.9679 53.3656 26.3202L53.9267 26.0611C54.176 26.6441 54.4254 27.2918 54.6124 27.8748L54.0513 28.1339ZM52.5552 24.636C52.4305 24.3769 52.2435 24.053 52.1189 23.7939C51.9318 23.5347 51.8072 23.2109 51.6201 22.9517L52.1189 22.6279C52.3059 22.887 52.4305 23.2109 52.6176 23.47C52.7422 23.7291 52.9292 24.053 53.0539 24.3121L52.5552 24.636ZM50.6227 21.3971C50.2487 20.8789 49.8747 20.3607 49.4383 19.9072L49.937 19.4538C50.3734 19.972 50.7474 20.4254 51.1214 21.0084L50.6227 21.3971ZM48.1916 18.4821C47.7552 18.0287 47.3188 17.5752 46.8201 17.1866L47.1941 16.6683C47.6928 17.1218 48.1292 17.5105 48.6279 17.9639L48.1916 18.4821ZM45.324 16.0206C44.8253 15.6319 44.3266 15.308 43.7656 14.9841L44.0772 14.4011C44.6383 14.725 45.137 15.1137 45.6357 15.5024L45.324 16.0206ZM42.2071 14.0773C41.6461 13.8181 41.085 13.4943 40.524 13.2999L40.7733 12.7169C41.3344 12.976 41.9577 13.2352 42.5188 13.559L42.2071 14.0773ZM38.7785 12.5874C38.2175 12.393 37.5941 12.1987 36.9707 12.0692L37.0954 11.4214C37.7188 11.5509 38.3421 11.7453 38.9032 11.9396L38.7785 12.5874Z" fill="#7C30B7"/>
<path d="M37.2177 8.50635L31.5449 11.0974L36.532 14.9193L37.2177 8.50635Z" fill="#7C30B7"/>
<path d="M31.5458 61.4946C31.2965 61.4946 31.0471 61.4946 30.8601 61.4946V60.8468C31.4835 60.8468 32.1069 60.8468 32.7303 60.8468V61.4946C32.3562 61.4946 31.9199 61.4946 31.5458 61.4946ZM28.9276 61.365C28.3043 61.3002 27.6809 61.1707 27.0575 61.1059L27.1822 60.4581C27.8055 60.5877 28.4289 60.6525 28.99 60.7172L28.9276 61.365ZM34.6004 61.3002L34.5381 60.6525C35.1614 60.5877 35.7848 60.4581 36.3459 60.3286L36.4705 60.9763C35.8472 61.1059 35.2238 61.2355 34.6004 61.3002ZM25.2497 60.6525C24.6263 60.4581 24.0029 60.2638 23.4419 60.0695L23.6289 59.4865C24.1899 59.6808 24.8133 59.8751 25.3744 60.0695L25.2497 60.6525ZM38.3407 60.5229L38.1537 59.8751C38.7147 59.6808 39.3381 59.4865 39.8991 59.2921L40.1485 59.8751C39.5251 60.1342 38.9017 60.3286 38.3407 60.5229ZM21.6341 59.3569C21.073 59.0978 20.512 58.7739 19.951 58.5148L20.2626 57.9318C20.8237 58.2557 21.3847 58.5148 21.9458 58.7739L21.6341 59.3569ZM41.8939 59.1626L41.6446 58.5796C42.2056 58.3205 42.7667 57.9966 43.2654 57.6727L43.5771 58.2557C43.016 58.5796 42.455 58.8387 41.8939 59.1626ZM18.3302 57.4784C17.8315 57.1545 17.2704 56.7658 16.7717 56.3772L17.1457 55.8589C17.6444 56.2476 18.1432 56.6363 18.6419 56.9602L18.3302 57.4784ZM45.1355 57.2193L44.7615 56.701C45.2602 56.3772 45.7589 55.9885 46.2576 55.5998L46.6316 56.118C46.1953 56.4419 45.6966 56.8306 45.1355 57.2193ZM15.3379 55.0816C14.8392 54.6282 14.4029 54.1747 13.9665 53.7213L14.4029 53.2678C14.8392 53.7213 15.2756 54.1747 15.712 54.6282L15.3379 55.0816ZM48.1278 54.7577L47.6914 54.3043C48.1278 53.8508 48.5641 53.3974 49.0005 52.944L49.4369 53.3974C49.0628 53.8508 48.5641 54.3043 48.1278 54.7577ZM12.7197 52.2314C12.3457 51.7132 11.9093 51.195 11.5977 50.6767L12.0964 50.2881C12.4704 50.8063 12.8444 51.3245 13.2184 51.8427L12.7197 52.2314Z" fill="#7C30B7"/>
<path d="M51.7447 55.0814L52.4304 48.6685L46.6953 51.2595L51.7447 55.0814Z" fill="#7C30B7"/>
<path d="M8.10695 43.3568C7.91993 42.709 7.79526 42.0612 7.67058 41.4782L8.29396 41.3487C8.41864 41.9964 8.54331 42.5794 8.73033 43.2272L8.10695 43.3568ZM7.35889 39.4701C7.29655 38.8223 7.23421 38.1746 7.17188 37.5268L7.79526 37.462C7.85759 38.1098 7.85759 38.7576 7.98227 39.3406L7.35889 39.4701ZM7.79526 35.5835H7.17188C7.17188 34.9357 7.23421 34.2879 7.29655 33.6402L7.91993 33.7049C7.79526 34.2879 7.79526 34.9357 7.79526 35.5835ZM8.16928 31.7616L7.5459 31.6321C7.67058 30.9843 7.79526 30.3365 7.98227 29.6887L8.60565 29.8831C8.3563 30.5308 8.23162 31.1138 8.16928 31.7616ZM9.10436 28.0693L8.54331 27.875C8.73033 27.2272 8.97968 26.6442 9.22903 26.0612L9.79007 26.3203C9.47838 26.8385 9.29137 27.4863 9.10436 28.0693ZM10.5381 24.5713L9.97709 24.2474C10.1018 23.9883 10.2264 23.7292 10.4135 23.4701C10.6005 23.1462 10.7875 22.8223 10.9745 22.5632L11.4732 22.8871C11.2862 23.211 11.0992 23.4701 10.9122 23.794C10.7875 24.0531 10.6628 24.3122 10.5381 24.5713ZM12.5329 21.3325L12.0342 20.9438C12.4083 20.4256 12.7823 19.9074 13.2187 19.3891L13.7174 19.8426C13.281 20.296 12.907 20.8142 12.5329 21.3325ZM14.9641 18.4175L14.5278 17.964C14.9641 17.5106 15.4628 17.0572 15.9615 16.6685L16.3356 17.1867C15.8992 17.5754 15.4005 17.964 14.9641 18.4175ZM17.8317 15.956L17.4577 15.4377C17.9564 15.0491 18.5174 14.7252 19.0161 14.3365L19.3278 14.9195C18.8291 15.2434 18.3304 15.6321 17.8317 15.956ZM20.9486 14.0126L20.6992 13.4296C21.2603 13.1057 21.8213 12.8466 22.4447 12.6523L22.6941 13.2353C22.0707 13.4944 21.5096 13.7535 20.9486 14.0126ZM24.3772 12.5875L24.1902 11.9398C24.8135 11.7454 25.3746 11.5511 25.998 11.4215L26.1227 12.0693C25.5616 12.1989 25.0006 12.3932 24.3772 12.5875ZM27.9928 11.7454L27.9305 11.0977C28.5538 11.0329 29.1772 10.9033 29.8006 10.9033L29.8629 11.5511C29.1772 11.5511 28.6162 11.6159 27.9928 11.7454Z" fill="#7C30B7"/>
<path d="M5.67578 44.8465L10.6628 48.6683L11.3485 42.2554L5.67578 44.8465Z" fill="#7C30B7"/>
</g>
<defs>
<clipPath id="clip0_385_5842">
<rect width="61.59" height="70" fill="white"/>
</clipPath>
</defs>
</svg>
