<?xml version="1.0" standalone="no"?>
<!DOCTYPE svg PUBLIC "-//W3C//DTD SVG 20010904//EN"
 "http://www.w3.org/TR/2001/REC-SVG-20010904/DTD/svg10.dtd">
<svg version="1.0" xmlns="http://www.w3.org/2000/svg"
 width="700.000000pt" height="700.000000pt" viewBox="0 0 700.000000 700.000000"
 preserveAspectRatio="xMidYMid meet">
<metadata>
Created by potrace 1.14, written by Peter Selinger 2001-2017
</metadata>
<g transform="translate(0.000000,700.000000) scale(0.100000,-0.100000)"
fill="#000000" stroke="none">
<path d="M3299 6996 c-2 -2 -40 -6 -84 -9 -76 -6 -182 -18 -270 -32 -42 -7
-259 -52 -285 -60 -8 -2 -49 -13 -90 -24 -342 -93 -674 -244 -995 -456 -614
-404 -1085 -999 -1347 -1700 -26 -70 -93 -282 -103 -325 -2 -8 -13 -53 -24
-100 -11 -47 -23 -101 -26 -120 -3 -19 -10 -60 -15 -90 -13 -77 -19 -118 -25
-175 -4 -27 -9 -63 -11 -80 -7 -40 -12 -663 -18 -2383 l-5 -1443 1897 4 c1043
1 1908 6 1922 9 14 4 56 9 93 13 37 3 76 8 85 10 9 1 37 6 62 10 85 14 132 23
215 42 830 185 1571 679 2075 1383 335 468 563 1058 625 1616 l7 61 -674 -3
c-370 -2 -1184 -5 -1808 -8 l-1135 -5 -1 359 0 360 55 1 c68 0 1447 7 2659 13
491 2 896 6 898 9 5 4 -9 124 -20 183 -2 10 -11 60 -21 109 -213 1138 -1009
2116 -2090 2567 -246 102 -603 203 -800 224 -27 3 -53 8 -56 9 -3 2 -35 7 -71
10 -35 4 -78 9 -94 11 -33 5 -520 14 -525 10z"/>
</g>
</svg>
