<svg width="673" height="698" viewBox="0 0 673 698" fill="none" xmlns="http://www.w3.org/2000/svg">
<circle cx="336.5" cy="361.5" r="336" stroke="#dddddd" stroke-opacity="0.4"/>
<circle cx="336.5" cy="361.5" r="275" stroke="#dddddd" stroke-opacity="0.5"/>
<circle cx="336.5" cy="361.5" r="214" stroke="#dddddd" stroke-opacity="0.6"/>
<circle cx="336.5" cy="361.5" r="153" stroke="#dddddd" stroke-opacity="0.7"/>
<g filter="url(#filter0_d_731_66)">
<circle cx="545" cy="311" r="20" fill="white"/>
</g>
<g clip-path="url(#clip0_731_66)">
<path d="M537.435 318.905L536 301.033L553.143 301.069L551.625 318.905L544.636 320.966L537.435 318.905Z" fill="#E34F26"/>
<path d="M544.633 319.241V302.735L551.692 302.759L550.433 317.526L544.633 319.241Z" fill="#EF652A"/>
<path d="M549.754 306.859L549.954 304.677H539.094L539.694 311.366H547.189L546.895 314.218L544.494 314.877L542.059 314.158L541.93 312.456H539.776L540.07 315.932L544.494 317.191L548.954 315.932L549.554 309.148H541.682L541.459 306.859H549.754Z" fill="white"/>
</g>
<g filter="url(#filter1_d_731_66)">
<circle cx="122" cy="197" r="20" fill="white"/>
</g>
<g clip-path="url(#clip1_731_66)">
<path d="M130.552 197.002C130.552 195.839 129.096 194.737 126.863 194.054C127.379 191.778 127.15 189.968 126.141 189.388C125.908 189.253 125.636 189.188 125.339 189.188V189.986C125.504 189.986 125.636 190.018 125.747 190.079C126.234 190.358 126.445 191.421 126.28 192.787C126.241 193.124 126.177 193.478 126.098 193.839C125.397 193.667 124.631 193.535 123.826 193.449C123.343 192.787 122.842 192.186 122.338 191.66C123.504 190.576 124.599 189.982 125.343 189.982V189.185C124.359 189.185 123.071 189.886 121.769 191.102C120.467 189.893 119.179 189.199 118.195 189.199V189.997C118.935 189.997 120.034 190.587 121.2 191.664C120.699 192.19 120.198 192.787 119.722 193.449C118.914 193.535 118.148 193.667 117.447 193.843C117.365 193.485 117.304 193.138 117.261 192.805C117.093 191.438 117.3 190.376 117.783 190.093C117.891 190.029 118.03 190 118.195 190V189.202C117.894 189.202 117.622 189.267 117.386 189.403C116.381 189.982 116.155 191.789 116.674 194.057C114.449 194.744 113 195.843 113 197.002C113 198.164 114.456 199.266 116.689 199.95C116.173 202.225 116.402 204.035 117.411 204.615C117.644 204.751 117.916 204.815 118.216 204.815C119.2 204.815 120.488 204.114 121.79 202.898C123.093 204.107 124.381 204.801 125.364 204.801C125.665 204.801 125.937 204.737 126.173 204.601C127.178 204.021 127.404 202.214 126.885 199.946C129.103 199.263 130.552 198.161 130.552 197.002V197.002ZM125.894 194.615C125.762 195.077 125.597 195.553 125.411 196.029C125.264 195.742 125.11 195.456 124.942 195.17C124.778 194.884 124.602 194.605 124.427 194.333C124.935 194.408 125.425 194.501 125.894 194.615ZM124.255 198.426C123.976 198.909 123.69 199.367 123.393 199.792C122.86 199.839 122.32 199.864 121.776 199.864C121.236 199.864 120.696 199.839 120.166 199.796C119.869 199.37 119.579 198.916 119.3 198.436C119.028 197.968 118.781 197.492 118.556 197.012C118.778 196.533 119.028 196.054 119.297 195.585C119.576 195.102 119.862 194.644 120.159 194.218C120.692 194.172 121.232 194.147 121.776 194.147C122.316 194.147 122.856 194.172 123.386 194.215C123.683 194.641 123.973 195.095 124.252 195.574C124.524 196.043 124.771 196.519 124.996 196.998C124.771 197.478 124.524 197.957 124.255 198.426ZM125.411 197.961C125.604 198.44 125.769 198.919 125.905 199.384C125.436 199.499 124.942 199.596 124.431 199.671C124.606 199.395 124.781 199.113 124.946 198.823C125.11 198.537 125.264 198.247 125.411 197.961ZM121.783 201.778C121.45 201.434 121.118 201.052 120.789 200.633C121.111 200.647 121.44 200.658 121.772 200.658C122.109 200.658 122.441 200.651 122.767 200.633C122.445 201.052 122.112 201.434 121.783 201.778ZM119.121 199.671C118.613 199.596 118.123 199.503 117.655 199.388C117.787 198.927 117.951 198.451 118.138 197.975C118.284 198.261 118.438 198.547 118.606 198.834C118.774 199.12 118.946 199.399 119.121 199.671ZM121.765 192.226C122.098 192.569 122.431 192.952 122.76 193.37C122.438 193.356 122.109 193.345 121.776 193.345C121.44 193.345 121.107 193.353 120.781 193.37C121.103 192.952 121.436 192.569 121.765 192.226ZM119.118 194.333C118.942 194.608 118.767 194.891 118.603 195.181C118.438 195.467 118.284 195.753 118.138 196.039C117.944 195.56 117.78 195.081 117.644 194.615C118.112 194.505 118.606 194.408 119.118 194.333V194.333ZM115.88 198.812C114.614 198.272 113.794 197.563 113.794 197.002C113.794 196.44 114.614 195.728 115.88 195.191C116.188 195.059 116.524 194.941 116.871 194.83C117.075 195.531 117.343 196.261 117.676 197.009C117.347 197.753 117.082 198.479 116.882 199.177C116.528 199.066 116.191 198.944 115.88 198.812ZM117.805 203.925C117.318 203.645 117.107 202.583 117.272 201.216C117.311 200.88 117.375 200.526 117.454 200.164C118.155 200.336 118.921 200.469 119.726 200.554C120.209 201.216 120.71 201.817 121.214 202.343C120.048 203.427 118.953 204.021 118.209 204.021C118.048 204.018 117.912 203.985 117.805 203.925V203.925ZM126.291 201.198C126.459 202.565 126.252 203.628 125.769 203.91C125.661 203.975 125.522 204.003 125.357 204.003C124.617 204.003 123.518 203.413 122.352 202.336C122.853 201.81 123.354 201.213 123.83 200.551C124.638 200.465 125.404 200.333 126.105 200.157C126.187 200.519 126.252 200.866 126.291 201.198V201.198ZM127.668 198.812C127.361 198.944 127.024 199.062 126.677 199.173C126.473 198.472 126.205 197.742 125.872 196.995C126.202 196.25 126.466 195.524 126.667 194.827C127.021 194.937 127.357 195.059 127.672 195.191C128.938 195.732 129.758 196.44 129.758 197.002C129.754 197.563 128.935 198.275 127.668 198.812V198.812Z" fill="#61DAFB"/>
<path d="M121.776 198.637C122.679 198.637 123.411 197.905 123.411 197.002C123.411 196.099 122.679 195.367 121.776 195.367C120.873 195.367 120.141 196.099 120.141 197.002C120.141 197.905 120.873 198.637 121.776 198.637Z" fill="#61DAFB"/>
</g>
<g filter="url(#filter2_d_731_66)">
<circle cx="217" cy="455" r="20" fill="white"/>
</g>
<g clip-path="url(#clip2_731_66)">
<path d="M209.462 462.905L208 445.034L225.464 445.07L223.918 462.905L216.798 464.967L209.462 462.905Z" fill="#1B73BA"/>
<path d="M216.797 463.24V446.735L223.989 446.759L222.706 461.526L216.797 463.24Z" fill="#1C88C7"/>
<path d="M222.204 448.845H211.141L211.44 451.003H216.69L211.524 453.22L211.824 455.306H219.435L219.159 458.218L216.582 458.722L214.245 458.122L214.065 456.468H211.92L212.207 459.908L216.81 461.191L221.221 459.789L221.785 453.064H217.122L222.204 450.955L222.204 448.845Z" fill="white"/>
</g>
<g filter="url(#filter3_d_731_66)">
<circle cx="357" cy="25" r="20" fill="white"/>
</g>
<g clip-path="url(#clip3_731_66)">
<path d="M349.462 32.9048L348 15.0332L365.464 15.0691L363.918 32.9048L356.798 34.9664L349.462 32.9048Z" fill="#E9CA32"/>
<path d="M356.797 33.2405V16.7354L363.989 16.7593L362.706 31.5264L356.797 33.2405Z" fill="#FFDE25"/>
<path d="M356.031 18.6953H354.13V29.6807L352.651 29.3991V27.9202L350.891 27.6386V30.9483L356.031 32.2862V18.6953ZM357.458 18.6953H362.721L362.369 20.8009H359.467V24.256H362.369L362.017 31.23L357.458 32.2862V30.1032L360.538 29.047L360.716 26.1598L357.458 26.6316V18.6953Z" fill="white"/>
</g>
<g filter="url(#filter4_d_731_66)">
<circle cx="414" cy="625" r="20" fill="white"/>
</g>
<g clip-path="url(#clip4_731_66)">
<path d="M405.422 625C405.422 628.395 407.395 631.33 410.257 632.721L406.165 621.508C405.674 622.607 405.421 623.797 405.422 625V625ZM419.792 624.567C419.792 623.507 419.411 622.772 419.084 622.201C418.649 621.494 418.242 620.896 418.242 620.189C418.242 619.401 418.84 618.667 419.682 618.667C419.72 618.667 419.756 618.671 419.794 618.673C418.267 617.275 416.234 616.421 414.001 616.421C411.004 616.421 408.367 617.959 406.833 620.288C407.034 620.294 407.224 620.298 407.385 620.298C408.282 620.298 409.671 620.189 409.671 620.189C410.134 620.162 410.188 620.841 409.726 620.896C409.726 620.896 409.261 620.951 408.744 620.978L411.868 630.27L413.746 624.639L412.409 620.978C411.947 620.95 411.51 620.896 411.51 620.896C411.047 620.869 411.101 620.162 411.564 620.189C411.564 620.189 412.98 620.298 413.823 620.298C414.721 620.298 416.11 620.189 416.11 620.189C416.572 620.162 416.627 620.841 416.165 620.896C416.165 620.896 415.699 620.95 415.183 620.978L418.283 630.199L419.138 627.34C419.51 626.153 419.792 625.301 419.792 624.567V624.567Z" fill="#00749A"/>
<path d="M414.152 625.75L411.578 633.229C412.365 633.461 413.181 633.579 414.002 633.579C415.001 633.579 415.959 633.406 416.85 633.092C416.826 633.055 416.806 633.015 416.789 632.974L414.152 625.75ZM421.529 620.884C421.566 621.157 421.587 621.451 421.587 621.766C421.587 622.636 421.424 623.615 420.934 624.839L418.314 632.415C420.864 630.928 422.58 628.165 422.58 625C422.582 623.561 422.221 622.145 421.529 620.884V620.884Z" fill="#00749A"/>
<path d="M414 615C408.486 615 404 619.486 404 625C404 630.514 408.486 635 414 635C419.514 635 424.001 630.514 424.001 625C424 619.486 419.514 615 414 615ZM414 634.542C408.739 634.542 404.459 630.261 404.459 625C404.459 619.739 408.739 615.459 414 615.459C419.261 615.459 423.541 619.739 423.541 625C423.541 630.261 419.261 634.542 414 634.542Z" fill="#00749A"/>
</g>
<defs>
<filter id="filter0_d_731_66" x="520" y="286" width="50" height="50" filterUnits="userSpaceOnUse" color-interpolation-filters="sRGB">
<feFlood flood-opacity="0" result="BackgroundImageFix"/>
<feColorMatrix in="SourceAlpha" type="matrix" values="0 0 0 0 0 0 0 0 0 0 0 0 0 0 0 0 0 0 127 0" result="hardAlpha"/>
<feOffset/>
<feGaussianBlur stdDeviation="2.5"/>
<feComposite in2="hardAlpha" operator="out"/>
<feColorMatrix type="matrix" values="0 0 0 0 0 0 0 0 0 0 0 0 0 0 0 0 0 0 0.15 0"/>
<feBlend mode="normal" in2="BackgroundImageFix" result="effect1_dropShadow_731_66"/>
<feBlend mode="normal" in="SourceGraphic" in2="effect1_dropShadow_731_66" result="shape"/>
</filter>
<filter id="filter1_d_731_66" x="97" y="172" width="50" height="50" filterUnits="userSpaceOnUse" color-interpolation-filters="sRGB">
<feFlood flood-opacity="0" result="BackgroundImageFix"/>
<feColorMatrix in="SourceAlpha" type="matrix" values="0 0 0 0 0 0 0 0 0 0 0 0 0 0 0 0 0 0 127 0" result="hardAlpha"/>
<feOffset/>
<feGaussianBlur stdDeviation="2.5"/>
<feComposite in2="hardAlpha" operator="out"/>
<feColorMatrix type="matrix" values="0 0 0 0 0 0 0 0 0 0 0 0 0 0 0 0 0 0 0.15 0"/>
<feBlend mode="normal" in2="BackgroundImageFix" result="effect1_dropShadow_731_66"/>
<feBlend mode="normal" in="SourceGraphic" in2="effect1_dropShadow_731_66" result="shape"/>
</filter>
<filter id="filter2_d_731_66" x="192" y="430" width="50" height="50" filterUnits="userSpaceOnUse" color-interpolation-filters="sRGB">
<feFlood flood-opacity="0" result="BackgroundImageFix"/>
<feColorMatrix in="SourceAlpha" type="matrix" values="0 0 0 0 0 0 0 0 0 0 0 0 0 0 0 0 0 0 127 0" result="hardAlpha"/>
<feOffset/>
<feGaussianBlur stdDeviation="2.5"/>
<feComposite in2="hardAlpha" operator="out"/>
<feColorMatrix type="matrix" values="0 0 0 0 0 0 0 0 0 0 0 0 0 0 0 0 0 0 0.15 0"/>
<feBlend mode="normal" in2="BackgroundImageFix" result="effect1_dropShadow_731_66"/>
<feBlend mode="normal" in="SourceGraphic" in2="effect1_dropShadow_731_66" result="shape"/>
</filter>
<filter id="filter3_d_731_66" x="332" y="0" width="50" height="50" filterUnits="userSpaceOnUse" color-interpolation-filters="sRGB">
<feFlood flood-opacity="0" result="BackgroundImageFix"/>
<feColorMatrix in="SourceAlpha" type="matrix" values="0 0 0 0 0 0 0 0 0 0 0 0 0 0 0 0 0 0 127 0" result="hardAlpha"/>
<feOffset/>
<feGaussianBlur stdDeviation="2.5"/>
<feComposite in2="hardAlpha" operator="out"/>
<feColorMatrix type="matrix" values="0 0 0 0 0 0 0 0 0 0 0 0 0 0 0 0 0 0 0.15 0"/>
<feBlend mode="normal" in2="BackgroundImageFix" result="effect1_dropShadow_731_66"/>
<feBlend mode="normal" in="SourceGraphic" in2="effect1_dropShadow_731_66" result="shape"/>
</filter>
<filter id="filter4_d_731_66" x="389" y="600" width="50" height="50" filterUnits="userSpaceOnUse" color-interpolation-filters="sRGB">
<feFlood flood-opacity="0" result="BackgroundImageFix"/>
<feColorMatrix in="SourceAlpha" type="matrix" values="0 0 0 0 0 0 0 0 0 0 0 0 0 0 0 0 0 0 127 0" result="hardAlpha"/>
<feOffset/>
<feGaussianBlur stdDeviation="2.5"/>
<feComposite in2="hardAlpha" operator="out"/>
<feColorMatrix type="matrix" values="0 0 0 0 0 0 0 0 0 0 0 0 0 0 0 0 0 0 0.15 0"/>
<feBlend mode="normal" in2="BackgroundImageFix" result="effect1_dropShadow_731_66"/>
<feBlend mode="normal" in="SourceGraphic" in2="effect1_dropShadow_731_66" result="shape"/>
</filter>
<clipPath id="clip0_731_66">
<rect width="17.1429" height="20" fill="white" transform="translate(536 301)"/>
</clipPath>
<clipPath id="clip1_731_66">
<rect width="17.552" height="20" fill="white" transform="translate(113 187)"/>
</clipPath>
<clipPath id="clip2_731_66">
<rect width="17.464" height="20" fill="white" transform="translate(208 445)"/>
</clipPath>
<clipPath id="clip3_731_66">
<rect width="17.464" height="20" fill="white" transform="translate(348 15)"/>
</clipPath>
<clipPath id="clip4_731_66">
<rect width="20" height="20" fill="white" transform="translate(404 615)"/>
</clipPath>
</defs>
</svg>
