<svg width="185" height="50" viewBox="0 0 185 36" fill="none" xmlns="http://www.w3.org/2000/svg">
<path fill-rule="evenodd" clip-rule="evenodd" d="M0.0146484 36C0.0146484 36 0.0893955 19.1292 0.0893955 18H0.0888118C0.0888118 14.4399 1.14449 10.9598 3.12236 7.99974C5.10022 5.03966 7.91143 2.73255 11.2005 1.37018C14.4896 0.00779855 18.1088 -0.348661 21.6004 0.345873C25.0921 1.04041 28.2994 2.75474 30.8167 5.27208C33.3341 7.78943 35.0484 10.9967 35.7429 14.4884C35.8501 15.0272 35.9323 15.569 35.9895 16.1122L17.3636 16.1867L17.3784 19.8958L35.9964 19.8214C35.8202 21.5542 35.3924 23.2616 34.7186 24.8883C33.3563 28.1774 31.0492 30.9886 28.0891 32.9664C25.129 34.9443 21.6489 36 18.0888 36H0.0146484ZM36.0838 18.4249C36.0916 18.0938 36.0903 17.7624 36.0798 17.4309L36.0838 18.4249Z" fill="#FFDF00"/>
<path d="M47 24.89C47 24.1167 47 23.3667 47 22.64C47 21.9133 47 21.1067 47 20.22V15.4C47 14.4867 47 13.66 47 12.92C47 12.18 47 11.4167 47 10.63H49.86C49.86 11.4167 49.86 12.18 49.86 12.92C49.86 13.66 49.86 14.4867 49.86 15.4V20.22C49.86 21.1067 49.86 21.9133 49.86 22.64C49.86 23.3667 49.86 24.1167 49.86 24.89H47Z" fill="#ffffff"/>
<path d="M52.8447 24.89C52.8447 24.17 52.8447 23.4733 52.8447 22.8C52.8447 22.1267 52.8447 21.3767 52.8447 20.55V19.55C52.8447 18.7967 52.8447 18.0333 52.8447 17.26C52.8447 16.4867 52.8447 15.71 52.8447 14.93L55.0047 14.8L55.1047 16.57H55.3347C55.5547 16.25 55.8247 15.9467 56.1447 15.66C56.4714 15.3667 56.848 15.13 57.2747 14.95C57.708 14.7633 58.2014 14.67 58.7547 14.67C59.7747 14.67 60.5347 14.97 61.0347 15.57C61.5414 16.1633 61.7947 17.0433 61.7947 18.21C61.7947 18.6433 61.7947 19.0433 61.7947 19.41C61.7947 19.77 61.7947 20.15 61.7947 20.55C61.7947 21.3567 61.7947 22.1033 61.7947 22.79C61.7947 23.47 61.7947 24.17 61.7947 24.89H59.2547C59.2547 24.17 59.2547 23.4733 59.2547 22.8C59.2547 22.1267 59.2547 21.42 59.2547 20.68V18.99C59.2547 18.3367 59.1414 17.8433 58.9147 17.51C58.6947 17.1767 58.2947 17.01 57.7147 17.01C57.3747 17.01 57.0614 17.08 56.7747 17.22C56.4947 17.3533 56.238 17.5367 56.0047 17.77C55.778 17.9967 55.5714 18.2533 55.3847 18.54V20.68C55.3847 21.44 55.3847 22.1533 55.3847 22.82C55.3847 23.48 55.3847 24.17 55.3847 24.89H52.8447Z" fill="#ffffff"/>
<path d="M71.2681 25.14C70.1215 25.14 69.0881 24.9633 68.1681 24.61C67.2481 24.25 66.4648 23.7433 65.8181 23.09C65.1715 22.43 64.6748 21.65 64.3281 20.75C63.9881 19.8433 63.8181 18.8467 63.8181 17.76C63.8181 16.3267 64.1081 15.0533 64.6881 13.94C65.2748 12.82 66.1048 11.9433 67.1781 11.31C68.2515 10.67 69.5281 10.35 71.0081 10.35C71.4681 10.35 71.9215 10.38 72.3681 10.44C72.8215 10.5 73.2515 10.5833 73.6581 10.69C74.0715 10.7967 74.4515 10.9167 74.7981 11.05C75.1515 11.1767 75.4615 11.3133 75.7281 11.46L75.5081 14.08C74.9948 13.76 74.4948 13.5033 74.0081 13.31C73.5215 13.11 73.0515 12.9667 72.5981 12.88C72.1515 12.7933 71.7181 12.75 71.2981 12.75C70.4181 12.75 69.6315 12.9467 68.9381 13.34C68.2515 13.7333 67.7115 14.3033 67.3181 15.05C66.9248 15.7967 66.7281 16.7 66.7281 17.76C66.7281 18.4467 66.8281 19.0967 67.0281 19.71C67.2348 20.3167 67.5415 20.8533 67.9481 21.32C68.3548 21.7867 68.8615 22.1533 69.4681 22.42C70.0815 22.68 70.7948 22.81 71.6081 22.81C71.9281 22.81 72.2515 22.79 72.5781 22.75C72.9048 22.7033 73.2315 22.6333 73.5581 22.54C73.8848 22.4467 74.2081 22.32 74.5281 22.16C74.8481 22 75.1648 21.8067 75.4781 21.58L75.6481 24.17C75.3681 24.3367 75.0548 24.4833 74.7081 24.61C74.3615 24.73 73.9981 24.83 73.6181 24.91C73.2448 24.99 72.8581 25.0467 72.4581 25.08C72.0581 25.12 71.6615 25.14 71.2681 25.14Z" fill="#ffffff"/>
<path d="M78.04 24.89C78.04 24.17 78.04 23.4733 78.04 22.8C78.04 22.1267 78.04 21.3767 78.04 20.55V19.55C78.04 18.7967 78.04 18.0333 78.04 17.26C78.04 16.4867 78.04 15.71 78.04 14.93L80.2 14.8L80.3 16.7H80.52C80.7867 16.1333 81.0833 15.7067 81.41 15.42C81.7367 15.1267 82.07 14.93 82.41 14.83C82.7567 14.7233 83.08 14.67 83.38 14.67C83.54 14.67 83.7133 14.6833 83.9 14.71C84.0933 14.7367 84.2733 14.7833 84.44 14.85L84.21 17.34C83.97 17.3067 83.75 17.2833 83.55 17.27C83.3567 17.25 83.14 17.24 82.9 17.24C82.7133 17.24 82.5133 17.2633 82.3 17.31C82.0867 17.3567 81.8767 17.45 81.67 17.59C81.4633 17.7233 81.2667 17.92 81.08 18.18C80.8933 18.44 80.7267 18.78 80.58 19.2V20.68C80.58 21.44 80.58 22.1533 80.58 22.82C80.58 23.48 80.58 24.17 80.58 24.89H78.04Z" fill="#ffffff"/>
<path d="M90.7411 25.14C89.4878 25.14 88.4611 24.9133 87.6611 24.46C86.8611 24.0067 86.2711 23.3833 85.8911 22.59C85.5111 21.7967 85.3211 20.89 85.3211 19.87C85.3211 18.8567 85.5011 17.96 85.8611 17.18C86.2278 16.3933 86.7644 15.78 87.4711 15.34C88.1778 14.9 89.0444 14.68 90.0711 14.68C90.9578 14.68 91.7144 14.8433 92.3411 15.17C92.9744 15.49 93.4611 15.9733 93.8011 16.62C94.1411 17.26 94.3111 18.0667 94.3111 19.04C94.3111 19.3 94.3044 19.5333 94.2911 19.74C94.2844 19.9467 94.2644 20.15 94.2311 20.35L92.0211 19.46C92.0344 19.3667 92.0444 19.2733 92.0511 19.18C92.0578 19.08 92.0611 18.9867 92.0611 18.9C92.0611 18.1667 91.8778 17.5933 91.5111 17.18C91.1444 16.76 90.6711 16.55 90.0911 16.55C89.6511 16.55 89.2644 16.6767 88.9311 16.93C88.5978 17.1767 88.3344 17.5233 88.1411 17.97C87.9478 18.4167 87.8511 18.9333 87.8511 19.52V19.91C87.8511 20.5567 87.9644 21.1133 88.1911 21.58C88.4178 22.04 88.7678 22.3967 89.2411 22.65C89.7144 22.8967 90.3111 23.02 91.0311 23.02C91.3111 23.02 91.6244 22.9967 91.9711 22.95C92.3244 22.8967 92.6811 22.8167 93.0411 22.71C93.4011 22.6033 93.7378 22.4667 94.0511 22.3L94.1311 24.48C93.8778 24.6067 93.5811 24.72 93.2411 24.82C92.9011 24.92 92.5211 24.9967 92.1011 25.05C91.6811 25.11 91.2278 25.14 90.7411 25.14ZM86.3211 20.35V18.76L92.7311 18.65L94.2311 19.22V20.35H86.3211Z" fill="#ffffff"/>
<path d="M98.828 25.12C98.268 25.12 97.768 25.0033 97.328 24.77C96.888 24.5367 96.538 24.2 96.278 23.76C96.0246 23.3133 95.898 22.7767 95.898 22.15C95.898 21.5967 95.9946 21.13 96.188 20.75C96.3813 20.3633 96.6346 20.05 96.948 19.81C97.268 19.5633 97.618 19.3733 97.998 19.24C98.3846 19.1067 98.7746 19.01 99.168 18.95L102.018 18.53C102.038 18.0633 101.958 17.7033 101.778 17.45C101.605 17.1967 101.355 17.0233 101.028 16.93C100.701 16.83 100.325 16.78 99.898 16.78C99.6713 16.78 99.4246 16.8 99.158 16.84C98.898 16.8733 98.6213 16.9267 98.328 17C98.0413 17.0733 97.7413 17.1667 97.428 17.28C97.1146 17.3867 96.7946 17.5167 96.468 17.67L96.348 15.46C96.5946 15.3667 96.8713 15.2733 97.178 15.18C97.4913 15.0867 97.8313 15.0033 98.198 14.93C98.5646 14.85 98.9446 14.79 99.338 14.75C99.738 14.7033 100.148 14.68 100.568 14.68C101.381 14.68 102.075 14.8 102.648 15.04C103.228 15.2733 103.671 15.65 103.978 16.17C104.285 16.6833 104.438 17.3533 104.438 18.18C104.438 18.5 104.438 18.8967 104.438 19.37C104.438 19.8433 104.438 20.2767 104.438 20.67V21.77C104.438 22.2567 104.438 22.7533 104.438 23.26C104.438 23.76 104.438 24.3033 104.438 24.89H102.188L102.038 23.59H101.828C101.641 23.8367 101.408 24.0767 101.128 24.31C100.848 24.5367 100.515 24.73 100.128 24.89C99.748 25.0433 99.3146 25.12 98.828 25.12ZM99.748 23.13C100.028 23.13 100.305 23.0633 100.578 22.93C100.851 22.7967 101.105 22.61 101.338 22.37C101.578 22.13 101.781 21.8433 101.948 21.51V19.94C101.861 20 101.745 20.0567 101.598 20.11C101.458 20.1567 101.248 20.21 100.968 20.27C100.688 20.33 100.295 20.4067 99.788 20.5C99.5013 20.5533 99.258 20.6433 99.058 20.77C98.8646 20.8967 98.7146 21.06 98.608 21.26C98.5013 21.46 98.448 21.69 98.448 21.95C98.448 22.3833 98.578 22.69 98.838 22.87C99.1046 23.0433 99.408 23.13 99.748 23.13Z" fill="#ffffff"/>
<path d="M111.105 25.14C110.392 25.14 109.785 25.03 109.285 24.81C108.785 24.5833 108.402 24.2267 108.135 23.74C107.868 23.2533 107.735 22.62 107.735 21.84C107.735 21.3533 107.735 20.8633 107.735 20.37C107.735 19.8767 107.735 19.3733 107.735 18.86C107.735 18.34 107.735 17.81 107.735 17.27C107.735 16.73 107.735 16.17 107.735 15.59C107.735 14.8633 107.735 14.1933 107.735 13.58C107.735 12.9667 107.735 12.34 107.735 11.7L110.245 11.23C110.245 11.7367 110.245 12.2167 110.245 12.67C110.245 13.1167 110.245 13.5733 110.245 14.04C110.245 14.5067 110.245 15.0233 110.245 15.59V21.08C110.245 21.7267 110.368 22.2167 110.615 22.55C110.868 22.8767 111.268 23.04 111.815 23.04C112.042 23.04 112.285 23 112.545 22.92C112.812 22.84 113.062 22.7167 113.295 22.55L113.465 24.64C113.298 24.7467 113.088 24.8367 112.835 24.91C112.588 24.9833 112.315 25.04 112.015 25.08C111.715 25.12 111.412 25.14 111.105 25.14ZM106.025 16.86V14.93H113.395V16.86C112.755 16.86 112.112 16.86 111.465 16.86C110.818 16.86 110.192 16.86 109.585 16.86H108.475H106.025Z" fill="#ffffff"/>
<path d="M115.414 24.89C115.414 24.17 115.414 23.4733 115.414 22.8C115.414 22.1267 115.414 21.3767 115.414 20.55V19.55C115.414 18.91 115.414 18.3333 115.414 17.82C115.414 17.3 115.414 16.81 115.414 16.35C115.414 15.8833 115.414 15.41 115.414 14.93L117.954 14.85C117.954 15.3367 117.954 15.8167 117.954 16.29C117.954 16.7633 117.954 17.2633 117.954 17.79C117.954 18.31 117.954 18.8967 117.954 19.55V20.55C117.954 21.3767 117.954 22.1267 117.954 22.8C117.954 23.4733 117.954 24.17 117.954 24.89H115.414ZM116.654 13.14C116.168 13.14 115.778 13.02 115.484 12.78C115.191 12.5333 115.044 12.1433 115.044 11.61C115.044 11.1233 115.191 10.7533 115.484 10.5C115.778 10.24 116.174 10.11 116.674 10.11C117.174 10.11 117.568 10.2433 117.854 10.51C118.148 10.7767 118.294 11.1433 118.294 11.61C118.294 12.1433 118.148 12.5333 117.854 12.78C117.568 13.02 117.168 13.14 116.654 13.14Z" fill="#ffffff"/>
<path d="M123.354 24.89C123.134 24.2633 122.907 23.6333 122.674 23C122.447 22.36 122.224 21.7333 122.004 21.12L121.364 19.36C121.097 18.6267 120.831 17.89 120.564 17.15C120.297 16.4033 120.031 15.6633 119.764 14.93L122.504 14.85C122.724 15.5967 122.941 16.34 123.154 17.08C123.374 17.8133 123.594 18.5567 123.814 19.31L124.644 22.14H124.874L125.704 19.3C125.931 18.5333 126.151 17.79 126.364 17.07C126.584 16.3433 126.797 15.63 127.004 14.93H129.704C129.444 15.6633 129.177 16.4033 128.904 17.15C128.637 17.8967 128.371 18.64 128.104 19.38L127.464 21.16C127.244 21.7867 127.021 22.4067 126.794 23.02C126.574 23.6333 126.351 24.2567 126.124 24.89H123.354Z" fill="#ffffff"/>
<path d="M135.897 25.14C134.644 25.14 133.617 24.9133 132.817 24.46C132.017 24.0067 131.427 23.3833 131.047 22.59C130.667 21.7967 130.477 20.89 130.477 19.87C130.477 18.8567 130.657 17.96 131.017 17.18C131.384 16.3933 131.921 15.78 132.627 15.34C133.334 14.9 134.201 14.68 135.227 14.68C136.114 14.68 136.871 14.8433 137.497 15.17C138.131 15.49 138.617 15.9733 138.957 16.62C139.297 17.26 139.467 18.0667 139.467 19.04C139.467 19.3 139.461 19.5333 139.447 19.74C139.441 19.9467 139.421 20.15 139.387 20.35L137.177 19.46C137.191 19.3667 137.201 19.2733 137.207 19.18C137.214 19.08 137.217 18.9867 137.217 18.9C137.217 18.1667 137.034 17.5933 136.667 17.18C136.301 16.76 135.827 16.55 135.247 16.55C134.807 16.55 134.421 16.6767 134.087 16.93C133.754 17.1767 133.491 17.5233 133.297 17.97C133.104 18.4167 133.007 18.9333 133.007 19.52V19.91C133.007 20.5567 133.121 21.1133 133.347 21.58C133.574 22.04 133.924 22.3967 134.397 22.65C134.871 22.8967 135.467 23.02 136.187 23.02C136.467 23.02 136.781 22.9967 137.127 22.95C137.481 22.8967 137.837 22.8167 138.197 22.71C138.557 22.6033 138.894 22.4667 139.207 22.3L139.287 24.48C139.034 24.6067 138.737 24.72 138.397 24.82C138.057 24.92 137.677 24.9967 137.257 25.05C136.837 25.11 136.384 25.14 135.897 25.14ZM131.477 20.35V18.76L137.887 18.65L139.387 19.22V20.35H131.477Z" fill="#ffffff"/>
<path d="M148.402 24.89C148.216 24.1833 148.012 23.43 147.792 22.63C147.572 21.8233 147.366 21.0767 147.172 20.39L145.962 15.91C145.749 15.1167 145.512 14.25 145.252 13.31C144.992 12.3633 144.749 11.47 144.522 10.63H147.662C147.876 11.55 148.099 12.52 148.332 13.54C148.566 14.5533 148.789 15.5233 149.002 16.45L150.172 21.57H150.392L151.572 16.38C151.706 15.7867 151.849 15.16 152.002 14.5C152.156 13.84 152.306 13.18 152.452 12.52C152.606 11.86 152.749 11.23 152.882 10.63H155.922C156.142 11.55 156.369 12.51 156.602 13.51C156.836 14.5033 157.062 15.4667 157.282 16.4L158.492 21.57H158.712L159.902 16.37C160.109 15.4767 160.326 14.52 160.552 13.5C160.786 12.48 161.002 11.5233 161.202 10.63H164.352C164.119 11.4767 163.872 12.3667 163.612 13.3C163.359 14.2333 163.122 15.0933 162.902 15.88L161.652 20.39C161.452 21.0967 161.242 21.85 161.022 22.65C160.802 23.45 160.596 24.1967 160.402 24.89H156.962C156.749 24.03 156.522 23.1267 156.282 22.18C156.049 21.2333 155.829 20.3367 155.622 19.49L154.402 14.62H154.182L153.002 19.49C152.802 20.33 152.586 21.23 152.352 22.19C152.126 23.1433 151.909 24.0433 151.702 24.89H148.402Z" fill="#ffffff"/>
<path d="M169.628 25.14C168.374 25.14 167.348 24.9133 166.548 24.46C165.748 24.0067 165.158 23.3833 164.778 22.59C164.398 21.7967 164.208 20.89 164.208 19.87C164.208 18.8567 164.388 17.96 164.748 17.18C165.114 16.3933 165.651 15.78 166.358 15.34C167.064 14.9 167.931 14.68 168.958 14.68C169.844 14.68 170.601 14.8433 171.228 15.17C171.861 15.49 172.348 15.9733 172.688 16.62C173.028 17.26 173.198 18.0667 173.198 19.04C173.198 19.3 173.191 19.5333 173.178 19.74C173.171 19.9467 173.151 20.15 173.118 20.35L170.908 19.46C170.921 19.3667 170.931 19.2733 170.938 19.18C170.944 19.08 170.948 18.9867 170.948 18.9C170.948 18.1667 170.764 17.5933 170.398 17.18C170.031 16.76 169.558 16.55 168.978 16.55C168.538 16.55 168.151 16.6767 167.818 16.93C167.484 17.1767 167.221 17.5233 167.028 17.97C166.834 18.4167 166.738 18.9333 166.738 19.52V19.91C166.738 20.5567 166.851 21.1133 167.078 21.58C167.304 22.04 167.654 22.3967 168.128 22.65C168.601 22.8967 169.198 23.02 169.918 23.02C170.198 23.02 170.511 22.9967 170.858 22.95C171.211 22.8967 171.568 22.8167 171.928 22.71C172.288 22.6033 172.624 22.4667 172.938 22.3L173.018 24.48C172.764 24.6067 172.468 24.72 172.128 24.82C171.788 24.92 171.408 24.9967 170.988 25.05C170.568 25.11 170.114 25.14 169.628 25.14ZM165.208 20.35V18.76L171.618 18.65L173.118 19.22V20.35H165.208Z" fill="#ffffff"/>
<path d="M180.895 25.14C180.441 25.14 180.028 25.08 179.655 24.96C179.288 24.84 178.951 24.6667 178.645 24.44C178.345 24.2133 178.071 23.94 177.825 23.62H177.635L177.375 24.89H175.345C175.345 24.17 175.345 23.4733 175.345 22.8C175.345 22.1267 175.345 21.3767 175.345 20.55V15.02C175.345 14.2 175.345 13.3933 175.345 12.6C175.345 11.8 175.345 11.0133 175.345 10.24L177.885 10C177.885 10.7933 177.885 11.6033 177.885 12.43C177.885 13.25 177.885 14.1133 177.885 15.02V15.98H178.105C178.285 15.72 178.511 15.4933 178.785 15.3C179.058 15.1 179.368 14.9467 179.715 14.84C180.061 14.7267 180.445 14.67 180.865 14.67C181.751 14.67 182.501 14.9 183.115 15.36C183.728 15.8133 184.191 16.4367 184.505 17.23C184.818 18.0167 184.975 18.9033 184.975 19.89C184.975 20.8167 184.828 21.68 184.535 22.48C184.241 23.28 183.791 23.9233 183.185 24.41C182.578 24.8967 181.815 25.14 180.895 25.14ZM179.975 22.95C180.528 22.95 180.981 22.8067 181.335 22.52C181.695 22.2267 181.958 21.85 182.125 21.39C182.291 20.93 182.375 20.4367 182.375 19.91C182.375 19.3567 182.285 18.8533 182.105 18.4C181.931 17.94 181.665 17.5733 181.305 17.3C180.951 17.02 180.501 16.88 179.955 16.88C179.681 16.88 179.418 16.9233 179.165 17.01C178.911 17.09 178.675 17.21 178.455 17.37C178.235 17.5233 178.045 17.7133 177.885 17.94V21.67C178.038 21.93 178.215 22.1567 178.415 22.35C178.615 22.5433 178.845 22.6933 179.105 22.8C179.365 22.9 179.655 22.95 179.975 22.95Z" fill="#ffffff"/>
</svg>
