<svg width="70" height="70" viewBox="0 0 70 70" fill="none" xmlns="http://www.w3.org/2000/svg">
<path fill-rule="evenodd" clip-rule="evenodd" d="M0 70C0 70 0.142059 37.2005 0.142059 35H0.104181C0.104182 28.0773 2.15407 21.31 5.99462 15.5541C9.83516 9.79813 15.2938 5.31212 21.6803 2.66333C28.0667 0.0145441 35.0941 -0.678029 41.8736 0.673222C48.653 2.02447 54.8801 5.35886 59.7673 10.2546C64.6545 15.1504 67.9822 21.3877 69.3296 28.1777C69.5367 29.2213 69.6956 30.2708 69.8066 31.3229L33.632 31.481L33.6634 38.6896L69.8216 38.5316C69.4798 41.9067 68.6481 45.2324 67.337 48.4005C64.6904 54.7957 60.2096 60.2613 54.4612 64.106C48.7128 67.9507 41.9551 70.0019 35.0426 70H0ZM69.9746 36.333C70.0123 35.3438 70.0081 34.3524 69.9617 33.3615L69.9746 36.333Z" fill="#0693E3"/>
</svg>
