<svg width="1920" height="1080" viewBox="0 0 1920 1080" fill="none" xmlns="http://www.w3.org/2000/svg">
<style>
._swing{animation:swing1 30s infinite alternate-reverse both;-webkit-transform-origin:center;-ms-transform-origin:center;transform-origin:center}@-webkit-keyframes swing1{20%{-webkit-transform:rotate(15deg);transform:rotate(15deg)}40%{-webkit-transform:rotate(-10deg);transform:rotate(-10deg)}60%{-webkit-transform:rotate(5deg);transform:rotate(5deg)}80%{-webkit-transform:rotate(-5deg);transform:rotate(-5deg)}to{-webkit-transform:rotate(0deg);transform:rotate(0deg)}}.bounce-top{-webkit-animation:bounce-top 15s infinite alternate-reverse both;animation:bounce-top 15s infinite alternate-reverse both}@-webkit-keyframes bounce-top{0%{-webkit-transform:translateY(-45px);transform:translateY(-45px);-webkit-animation-timing-function:ease-in;animation-timing-function:ease-in;opacity:1}24%{opacity:1}40%{-webkit-transform:translateY(-24px);transform:translateY(-24px);-webkit-animation-timing-function:ease-in;animation-timing-function:ease-in}65%{-webkit-transform:translateY(-12px);transform:translateY(-12px);-webkit-animation-timing-function:ease-in;animation-timing-function:ease-in}82%{-webkit-transform:translateY(-6px);transform:translateY(-6px);-webkit-animation-timing-function:ease-in;animation-timing-function:ease-in}93%{-webkit-transform:translateY(-4px);transform:translateY(-4px);-webkit-animation-timing-function:ease-in;animation-timing-function:ease-in}25%,55%,75%,87%{-webkit-transform:translateY(0px);transform:translateY(0px);-webkit-animation-timing-function:ease-out;animation-timing-function:ease-out}100%{-webkit-transform:translateY(0px);transform:translateY(0px);-webkit-animation-timing-function:ease-out;animation-timing-function:ease-out;opacity:1}}@keyframes bounce-top{0%{-webkit-transform:translateY(-45px);transform:translateY(-45px);-webkit-animation-timing-function:ease-in;animation-timing-function:ease-in;opacity:1}24%{opacity:1}40%{-webkit-transform:translateY(-24px);transform:translateY(-24px);-webkit-animation-timing-function:ease-in;animation-timing-function:ease-in}65%{-webkit-transform:translateY(-12px);transform:translateY(-12px);-webkit-animation-timing-function:ease-in;animation-timing-function:ease-in}82%{-webkit-transform:translateY(-6px);transform:translateY(-6px);-webkit-animation-timing-function:ease-in;animation-timing-function:ease-in}93%{-webkit-transform:translateY(-4px);transform:translateY(-4px);-webkit-animation-timing-function:ease-in;animation-timing-function:ease-in}25%,55%,75%,87%{-webkit-transform:translateY(0px);transform:translateY(0px);-webkit-animation-timing-function:ease-out;animation-timing-function:ease-out}100%{-webkit-transform:translateY(0px);transform:translateY(0px);-webkit-animation-timing-function:ease-out;animation-timing-function:ease-out;opacity:1}}.moved-1{-webkit-animation:movedelement-1 5s linear infinite;animation:movedelement-1 5s linear infinite;-webkit-transition-delay:1s;-o-transition-delay:1s;transition-delay:1s}@-webkit-keyframes movedelement-1{0%{-webkit-transform:translate(0);transform:translate(0)}25%{-webkit-transform:translate(-10px,-10px);transform:translate(-10px,-10px)}50%{-webkit-transform:translate(-5px,-5px);transform:translate(-5px,-5px)}75%{-webkit-transform:translate(-10px,5px);transform:translate(-10px,5px)}100%{-webkit-transform:translate(0);transform:translate(0)}}@keyframes movedelement-1{0%{-webkit-transform:translate(0);transform:translate(0)}25%{-webkit-transform:translate(-10px,-10px);transform:translate(-10px,-10px)}50%{-webkit-transform:translate(-5px,-5px);transform:translate(-5px,-5px)}75%{-webkit-transform:translate(-10px,5px);transform:translate(-10px,5px)}100%{-webkit-transform:translate(0);transform:translate(0)}}.moved-2{-webkit-animation:movedelement-2 5s linear infinite;animation:movedelement-2 5s linear infinite;-webkit-transition-delay:2s;-o-transition-delay:2s;transition-delay:2s}@-webkit-keyframes movedelement-2{0%{-webkit-transform:translate(0);transform:translate(0)}25%{-webkit-transform:translate(15px,15px);transform:translate(15px,15px)}50%{-webkit-transform:translate(8px,8px);transform:translate(8px,8px)}75%{-webkit-transform:translate(15px,-8px);transform:translate(15px,-8px)}100%{-webkit-transform:translate(0);transform:translate(0)}}@keyframes movedelement-2{0%{-webkit-transform:translate(0);transform:translate(0)}25%{-webkit-transform:translate(15px,15px);transform:translate(15px,15px)}50%{-webkit-transform:translate(8px,8px);transform:translate(8px,8px)}75%{-webkit-transform:translate(15px,-8px);transform:translate(15px,-8px)}100%{-webkit-transform:translate(0);transform:translate(0)}}
.zoom{animation:zoom 5s infinite;-webkit-animation:zoom 5s infinite;-moz-animation:zoom 5s infinite;-o-animation:zoom 5s infinite;-webkit-transform-origin:center;-ms-transform-origin:center;transform-origin:center;transform-box:fill-box}-webkit-keyframes zoom{0%{-webkit-transform:scale(1)}50%{-webkit-transform:scale(1.2)}100%{-webkit-transform:scale(1)}}@-webkit-keyframes zoom{0%{-webkit-transform:scale(1);transform:scale(1)}50%{-webkit-transform:scale(1.2);transform:scale(1.2)}100%{-webkit-transform:scale(1);transform:scale(1)}}@keyframes zoom{0%{-webkit-transform:scale(1);transform:scale(1)}50%{-webkit-transform:scale(1.2);transform:scale(1.2)}100%{-webkit-transform:scale(1);transform:scale(1)}}
.top-bottom{-webkit-animation:top-bottom 5s infinite linear;animation:top-bottom 5s infinite linear;-webkit-transform-origin:center;-ms-transform-origin:center;transform-origin:center;transform-box:fill-box}@-webkit-keyframes top-bottom{25%{-webkit-transform:translateY(-15px);transform:translateY(-15px);50%{-webkit-transform:translateY(-30px);transform:translateY(-30px)}75%{-webkit-transform:translateY(-15px);transform:translateY(-15px)}100%{-webkit-transform:translateY(0);transform:translateY(0)}}}@keyframes top-bottom{25%{-webkit-transform:translateY(-15px);transform:translateY(-15px);50%{-webkit-transform:translateY(-30px);transform:translateY(-30px)}75%{-webkit-transform:translateY(-15px);transform:translateY(-15px)}100%{-webkit-transform:translateY(0);transform:translateY(0)}}}
.bottom-top{-webkit-animation:bottom-top 5s infinite linear;animation:bottom-top 5s infinite linear;-webkit-transform-origin:center;-ms-transform-origin:center;transform-origin:center;transform-box:fill-box}@-webkit-keyframes bottom-top{25%{-webkit-transform:translateY(15px);transform:translateY(15px);50%{-webkit-transform:translateY(30px);transform:translateY(30px)}75%{-webkit-transform:translateY(15px);transform:translateY(15px)}100%{-webkit-transform:translateY(0);transform:translateY(0)}}}@keyframes bottom-top{25%{-webkit-transform:translateY(15px);transform:translateY(15px);50%{-webkit-transform:translateY(30px);transform:translateY(30px)}75%{-webkit-transform:translateY(15px);transform:translateY(15px)}100%{-webkit-transform:translateY(0);transform:translateY(0)}}}
</style>
<g class="_swing">
    <path d="M58.5 902C76.4493 902 91 887.449 91 869.5C91 851.551 76.4493 837 58.5 837C40.5507 837 26 851.551 26 869.5C26 887.449 40.5507 902 58.5 902Z" stroke="#FEE13E" stroke-width="10"/>
</g>
<g class="bounce-top">
    <path d="M1790.4 384C1815.98 384 1836.8 363.451 1836.8 338C1836.8 312.549 1815.98 292 1790.4 292C1764.82 292 1744 312.549 1744 338C1744 363.451 1764.82 384 1790.4 384Z" stroke="#0693E3" stroke-width="10"/>
</g>
<g class="_swing">
    <path d="M1457.5 902C1550.01 902 1625 827.008 1625 734.5C1625 641.992 1550.01 567 1457.5 567C1364.99 567 1290 641.992 1290 734.5C1290 827.008 1364.99 902 1457.5 902Z" stroke="#FEE13E" stroke-width="40"/>
</g>
<g class="moved-1">
    <g filter="url(#filter0_d_1742_764)">
    <circle cx="156" cy="449" r="65" fill="white"/>
    </g>
    <path d="M199.966 477.379C200.053 477.244 200.13 477.104 200.199 476.959L200.385 476.471L200.525 476.005V474.794C200.525 474.794 200.525 474.608 200.525 474.514C200.536 474.328 200.536 474.142 200.525 473.955C200.497 473.79 200.458 473.627 200.409 473.467L200.269 473.001C200.269 472.814 200.106 472.651 200.036 472.465C199.993 472.382 199.954 472.296 199.92 472.209L160.495 403.886C160.495 403.886 160.495 403.746 160.332 403.653C160.236 403.484 160.118 403.327 159.983 403.187C159.894 403.061 159.792 402.944 159.68 402.838L159.284 402.465L158.842 402.162L158.609 401.976H158.446C158.286 401.883 158.113 401.812 157.934 401.767L157.491 401.557H155L154.534 401.673L154.068 401.86C153.897 401.911 153.733 401.981 153.579 402.069H153.416L153.16 402.256L152.717 402.558L152.345 402.931C152.219 403.03 152.109 403.148 152.019 403.28L151.669 403.746C151.669 403.746 151.669 403.886 151.507 403.979L112.105 472.209C112.071 472.296 112.032 472.382 111.989 472.465C111.902 472.639 111.824 472.818 111.756 473.001C111.685 473.148 111.638 473.305 111.616 473.467C111.606 473.629 111.606 473.793 111.616 473.955C111.605 474.142 111.605 474.328 111.616 474.514C111.616 474.514 111.616 474.701 111.616 474.794C111.616 474.887 111.616 474.794 111.616 474.98C111.605 475.158 111.605 475.337 111.616 475.516C111.555 475.698 111.508 475.885 111.477 476.075C111.512 476.233 111.559 476.388 111.616 476.54C111.668 476.707 111.73 476.87 111.803 477.029L112.012 477.425L112.292 477.891L112.594 478.24C112.706 478.383 112.831 478.516 112.967 478.636C113.064 478.749 113.173 478.85 113.293 478.939L113.782 479.265H114.155L114.69 479.521L115.156 479.661H196.776L197.218 479.521L197.754 479.265H198.15L198.615 478.939L198.965 478.636C199.093 478.515 199.21 478.383 199.314 478.24L199.617 477.891C199.744 477.728 199.861 477.557 199.966 477.379ZM136.3 451.041L147.035 469.671H125.588L136.3 451.041ZM156.001 416.903L169.693 440.679L156.001 464.431L142.285 440.679L156.001 416.903ZM175.701 451.041L186.437 469.671H165.036L175.701 451.041Z" fill="white"/>
    <path d="M131.118 440.679C131.104 439.649 131.397 438.638 131.959 437.775C132.521 436.912 133.327 436.235 134.274 435.832C135.222 435.428 136.268 435.315 137.28 435.507C138.292 435.7 139.224 436.189 139.957 436.912C140.69 437.635 141.192 438.561 141.398 439.57C141.604 440.579 141.506 441.627 141.115 442.58C140.724 443.533 140.058 444.348 139.203 444.922C138.347 445.495 137.341 445.802 136.311 445.802" fill="white"/>
    <path d="M150.832 406.54C150.784 405.831 150.883 405.119 151.122 404.449C151.361 403.779 151.735 403.165 152.22 402.646C152.706 402.127 153.293 401.712 153.946 401.429C154.598 401.146 155.302 401 156.013 401C156.724 401 157.428 401.146 158.081 401.429C158.733 401.712 159.32 402.127 159.806 402.646C160.292 403.165 160.666 403.779 160.905 404.449C161.143 405.119 161.242 405.831 161.195 406.54" fill="white"/>
    <path d="M116.603 479.987C115.893 480.034 115.182 479.936 114.512 479.697C113.842 479.458 113.228 479.084 112.708 478.598C112.189 478.113 111.775 477.525 111.492 476.873C111.209 476.22 111.062 475.517 111.062 474.805C111.062 474.094 111.209 473.391 111.492 472.738C111.775 472.086 112.189 471.498 112.708 471.013C113.228 470.527 113.842 470.153 114.512 469.914C115.182 469.675 115.893 469.577 116.603 469.624" fill="white"/>
    <path d="M160.508 403.974C159.074 401.49 155.903 400.636 153.425 402.067C150.946 403.498 150.1 406.671 151.534 409.155L190.935 477.4C192.369 479.884 195.54 480.737 198.019 479.306C200.497 477.876 201.343 474.702 199.909 472.219L160.508 403.974Z" fill="#F8993A"/>
    <path d="M116.599 469.624C113.731 469.624 111.406 471.944 111.406 474.806C111.406 477.667 113.731 479.987 116.599 479.987H195.402C198.269 479.987 200.594 477.667 200.594 474.806C200.594 471.944 198.269 469.624 195.402 469.624H116.599Z" fill="#EE3E96"/>
    <path d="M112.128 472.203C110.694 474.687 111.54 477.86 114.018 479.291C116.496 480.722 119.668 479.868 121.102 477.384L160.503 409.139C161.937 406.656 161.091 403.482 158.612 402.052C156.134 400.621 152.963 401.474 151.529 403.958L112.128 472.203Z" fill="#2A396D"/>
    <path d="M140.789 438.099C139.355 435.616 136.184 434.762 133.706 436.193C131.228 437.624 130.381 440.797 131.815 443.281L151.504 477.383C152.938 479.867 156.109 480.72 158.588 479.289C161.066 477.859 161.912 474.685 160.478 472.202L140.789 438.099Z" fill="#35C6F4"/>
    <path d="M151.542 472.192C150.108 474.676 150.954 477.849 153.432 479.28C155.911 480.711 159.082 479.857 160.516 477.373L180.205 443.271C181.639 440.787 180.792 437.614 178.314 436.183C175.836 434.753 172.665 435.606 171.231 438.09L151.542 472.192Z" fill="#4EBD94"/>
    <path d="M175.709 445.872C178.577 445.872 180.902 443.547 180.902 440.679C180.902 437.811 178.577 435.486 175.709 435.486C172.841 435.486 170.516 437.811 170.516 440.679C170.516 443.547 172.841 445.872 175.709 445.872Z" fill="#EE3E96"/>
    <path d="M136.31 445.872C139.178 445.872 141.503 443.547 141.503 440.679C141.503 437.811 139.178 435.486 136.31 435.486C133.442 435.486 131.117 437.811 131.117 440.679C131.117 443.547 133.442 445.872 136.31 445.872Z" fill="#4EBD94"/>
    <path d="M156.013 411.733C158.881 411.733 161.206 409.408 161.206 406.54C161.206 403.672 158.881 401.347 156.013 401.347C153.145 401.347 150.82 403.672 150.82 406.54C150.82 409.408 153.145 411.733 156.013 411.733Z" fill="#2A396D"/>
    <path d="M156.013 479.987C158.881 479.987 161.206 477.662 161.206 474.794C161.206 471.926 158.881 469.601 156.013 469.601C153.145 469.601 150.82 471.926 150.82 474.794C150.82 477.662 153.145 479.987 156.013 479.987Z" fill="#F8993A"/>
    <path d="M195.435 479.987C198.303 479.987 200.628 477.662 200.628 474.794C200.628 471.926 198.303 469.601 195.435 469.601C192.567 469.601 190.242 471.926 190.242 474.794C190.242 477.662 192.567 479.987 195.435 479.987Z" fill="#2A396D"/>
    <path d="M116.599 479.987C119.467 479.987 121.792 477.662 121.792 474.794C121.792 471.926 119.467 469.601 116.599 469.601C113.731 469.601 111.406 471.926 111.406 474.794C111.406 477.662 113.731 479.987 116.599 479.987Z" fill="#2A396D"/>
</g>
<g class="moved-1">
    <g filter="url(#filter1_d_1742_764)">
        <circle cx="261.5" cy="899.5" r="47.5" fill="url(#paint0_linear_1742_764)"/>
    </g>
    <path d="M252.507 892.726C252.368 891.323 251.771 890.234 250.717 889.458C249.662 888.681 248.231 888.293 246.423 888.293C245.195 888.293 244.157 888.467 243.311 888.814C242.465 889.15 241.816 889.62 241.364 890.222C240.924 890.825 240.704 891.509 240.704 892.274C240.681 892.911 240.814 893.467 241.104 893.942C241.405 894.418 241.816 894.829 242.338 895.177C242.859 895.513 243.462 895.808 244.146 896.063C244.83 896.307 245.56 896.515 246.336 896.689L249.535 897.454C251.088 897.802 252.513 898.265 253.811 898.845C255.109 899.424 256.233 900.137 257.183 900.983C258.134 901.829 258.87 902.825 259.391 903.973C259.924 905.12 260.197 906.435 260.208 907.919C260.197 910.098 259.64 911.987 258.539 913.586C257.45 915.174 255.874 916.408 253.811 917.289C251.76 918.158 249.286 918.592 246.388 918.592C243.514 918.592 241.011 918.152 238.879 917.271C236.758 916.39 235.101 915.087 233.907 913.36C232.725 911.622 232.105 909.472 232.047 906.911H239.331C239.412 908.104 239.754 909.101 240.356 909.901C240.97 910.689 241.787 911.285 242.807 911.691C243.839 912.085 245.003 912.282 246.301 912.282C247.576 912.282 248.683 912.097 249.622 911.726C250.572 911.355 251.308 910.839 251.829 910.179C252.351 909.518 252.612 908.759 252.612 907.901C252.612 907.102 252.374 906.43 251.899 905.885C251.435 905.34 250.752 904.877 249.848 904.494C248.955 904.112 247.86 903.764 246.562 903.451L242.686 902.478C239.684 901.748 237.314 900.606 235.576 899.053C233.837 897.5 232.974 895.408 232.986 892.778C232.974 890.622 233.548 888.739 234.707 887.128C235.877 885.517 237.482 884.26 239.522 883.356C241.561 882.452 243.879 882 246.475 882C249.117 882 251.424 882.452 253.394 883.356C255.376 884.26 256.917 885.517 258.018 887.128C259.119 888.739 259.687 890.605 259.721 892.726H252.507Z" fill="white"/>
    <path d="M265.271 918.088V882.487H279.317C282.006 882.487 284.3 882.968 286.201 883.93C288.113 884.88 289.567 886.23 290.564 887.98C291.572 889.718 292.076 891.764 292.076 894.116C292.076 896.48 291.567 898.514 290.547 900.218C289.527 901.91 288.049 903.208 286.114 904.112C284.19 905.016 281.861 905.468 279.126 905.468H269.721V899.418H277.909C279.346 899.418 280.54 899.221 281.49 898.827C282.44 898.433 283.147 897.842 283.611 897.054C284.086 896.266 284.323 895.287 284.323 894.116C284.323 892.934 284.086 891.938 283.611 891.126C283.147 890.315 282.434 889.701 281.473 889.284C280.522 888.855 279.323 888.641 277.874 888.641H272.798V918.088H265.271ZM284.497 901.887L293.345 918.088H285.036L276.379 901.887H284.497Z" fill="white"/>
</g>
<g class="moved-2">
    <g filter="url(#filter2_d_1742_764)">
        <circle cx="426" cy="202" r="50" fill="white"/>
    </g>
    <path d="M456.827 187.546C455.141 188.634 453.454 189.683 451.729 190.658C444.644 194.744 433.848 201.079 428.563 204.078C428.396 204.172 428.257 204.308 428.159 204.472C428.06 204.636 428.005 204.823 428 205.014V240.668C428.003 240.86 428.056 241.047 428.154 241.212C428.251 241.377 428.39 241.513 428.557 241.608C428.723 241.702 428.912 241.752 429.103 241.751C429.295 241.751 429.483 241.7 429.649 241.605L460.5 223.798C460.668 223.705 460.808 223.569 460.908 223.405C461.008 223.241 461.063 223.054 461.069 222.862V187.171C460.875 185.222 458.401 186.535 456.827 187.546ZM454.991 220.615L437.11 230.924C436.901 231.045 436.657 231.094 436.418 231.063C436.178 231.031 435.955 230.922 435.784 230.751C435.613 230.58 435.503 230.357 435.472 230.117C435.441 229.877 435.489 229.634 435.611 229.425L453.49 198.378C453.61 198.169 453.796 198.007 454.019 197.915C454.242 197.824 454.489 197.81 454.721 197.874C454.953 197.939 455.156 198.078 455.3 198.272C455.444 198.465 455.519 198.7 455.514 198.941V219.635C455.522 219.829 455.477 220.022 455.385 220.194C455.293 220.365 455.156 220.508 454.989 220.609L454.991 220.615Z" fill="url(#paint1_linear_1742_764)"/>
    <path d="M398.61 184.36C398.61 184.36 419.303 196.243 425.676 199.917C425.843 200.009 426.03 200.058 426.22 200.058C426.41 200.058 426.597 200.009 426.764 199.917L457.615 182.111C457.778 182.014 457.913 181.877 458.006 181.713C458.1 181.548 458.149 181.363 458.149 181.173C458.149 180.984 458.1 180.798 458.006 180.634C457.913 180.47 457.778 180.332 457.615 180.236L426.762 162.393C426.596 162.301 426.409 162.252 426.218 162.252C426.028 162.252 425.841 162.301 425.675 162.393L394.749 180.236C392.424 181.928 397.823 183.573 398.61 184.36ZM426.762 168.803L444.643 179.15C444.852 179.27 445.015 179.456 445.106 179.679C445.197 179.902 445.212 180.149 445.147 180.381C445.083 180.612 444.943 180.816 444.75 180.96C444.557 181.104 444.321 181.179 444.081 181.174L408.282 181.212C408.043 181.213 407.811 181.136 407.62 180.992C407.43 180.848 407.292 180.645 407.228 180.415C407.164 180.185 407.178 179.94 407.266 179.719C407.355 179.497 407.514 179.311 407.719 179.188L425.637 168.842C425.796 168.717 425.991 168.645 426.193 168.639C426.395 168.632 426.595 168.689 426.762 168.803Z" fill="url(#paint2_linear_1742_764)"/>
    <path d="M395.235 187.546C396.507 188.371 397.822 189.195 399.134 189.945C406.143 193.993 417.951 200.892 423.5 204.078C423.666 204.172 423.806 204.308 423.904 204.472C424.003 204.636 424.057 204.823 424.063 205.014V240.668C424.06 240.86 424.007 241.047 423.909 241.212C423.812 241.377 423.673 241.513 423.506 241.608C423.34 241.702 423.151 241.752 422.96 241.751C422.768 241.751 422.58 241.7 422.414 241.605L391.563 223.798C391.396 223.704 391.257 223.568 391.159 223.404C391.06 223.24 391.005 223.053 391 222.862V187.171C391.188 185.222 393.661 186.535 395.235 187.546ZM397.072 220.615L414.953 230.924C415.162 231.045 415.405 231.094 415.645 231.063C415.885 231.031 416.108 230.922 416.279 230.751C416.45 230.58 416.559 230.357 416.591 230.117C416.622 229.877 416.573 229.634 416.452 229.425L398.573 198.378C398.452 198.169 398.266 198.007 398.044 197.915C397.821 197.824 397.574 197.81 397.342 197.874C397.11 197.939 396.906 198.078 396.763 198.272C396.619 198.465 396.544 198.7 396.549 198.941V219.635C396.541 219.829 396.585 220.022 396.678 220.194C396.77 220.365 396.907 220.508 397.073 220.609L397.072 220.615Z" fill="url(#paint3_linear_1742_764)"/>
</g>
<g class="moved-1">
    <g filter="url(#filter3_d_1742_764)">
        <circle cx="1813" cy="574" r="60" fill="white"/>
    </g>
    <path d="M1857 610.38C1857 610.38 1849.77 605.939 1846.65 594.251C1845.71 589.545 1845.93 584.683 1847.28 580.078C1848.07 576.853 1848.45 573.54 1848.4 570.22C1848.11 560.091 1843.95 550.458 1836.77 543.31C1829.59 536.161 1819.94 532.042 1809.81 531.802C1803.63 531.749 1797.52 533.168 1792 535.942C1786.47 538.716 1781.69 542.765 1778.04 547.754C1774.39 552.743 1771.98 558.528 1771.01 564.633C1770.04 570.737 1770.54 576.984 1772.46 582.858C1774.39 588.733 1777.68 594.065 1782.07 598.414C1786.46 602.763 1791.83 606.005 1797.72 607.87C1803.61 609.736 1809.86 610.172 1815.96 609.143C1822.05 608.114 1827.82 605.649 1832.77 601.952L1829.88 599.455C1828.2 597.996 1826.18 596.987 1824 596.521C1821.82 596.056 1819.56 596.15 1817.43 596.795C1811.95 598.472 1806.07 598.375 1800.65 596.517C1795.22 594.66 1790.52 591.137 1787.21 586.45C1783.91 581.763 1782.16 576.152 1782.23 570.417C1782.3 564.682 1784.18 559.115 1787.6 554.51C1791.02 549.905 1795.81 546.497 1801.28 544.772C1806.75 543.047 1812.62 543.092 1818.06 544.903C1823.51 546.713 1828.24 550.195 1831.59 554.853C1834.93 559.51 1836.72 565.106 1836.7 570.841C1836.62 573.002 1836.35 575.151 1835.92 577.269C1834.6 585.284 1834.83 590.549 1837.95 596.128C1843.25 605.609 1857 610.38 1857 610.38Z" fill="url(#paint4_linear_1742_764)"/>
    <path d="M1797.21 573.677C1798.81 572.074 1798.81 569.474 1797.21 567.87C1795.61 566.267 1793.01 566.267 1791.4 567.87C1789.8 569.474 1789.8 572.074 1791.4 573.677C1793.01 575.281 1795.61 575.281 1797.21 573.677Z" fill="url(#paint5_linear_1742_764)"/>
    <path d="M1813.41 570.078C1813.56 570.938 1813.43 571.822 1813.04 572.603C1812.65 573.384 1812.02 574.021 1811.25 574.422C1810.47 574.823 1809.59 574.967 1808.73 574.833C1807.87 574.7 1807.07 574.295 1806.45 573.678C1805.84 573.062 1805.43 572.265 1805.3 571.403C1805.16 570.541 1805.31 569.659 1805.71 568.884C1806.11 568.11 1806.75 567.483 1807.53 567.095C1808.31 566.706 1809.19 566.576 1810.05 566.724C1810.89 566.868 1811.66 567.268 1812.26 567.868C1812.86 568.469 1813.26 569.241 1813.41 570.078Z" fill="url(#paint6_linear_1742_764)"/>
    <path d="M1828.44 570.078C1828.59 570.938 1828.46 571.822 1828.07 572.603C1827.68 573.384 1827.05 574.021 1826.28 574.422C1825.5 574.823 1824.62 574.967 1823.76 574.833C1822.9 574.7 1822.1 574.295 1821.48 573.678C1820.87 573.062 1820.46 572.265 1820.33 571.403C1820.2 570.541 1820.34 569.659 1820.74 568.884C1821.14 568.11 1821.78 567.483 1822.56 567.095C1823.34 566.706 1824.23 566.576 1825.08 566.724C1825.92 566.868 1826.69 567.268 1827.29 567.868C1827.9 568.469 1828.29 569.241 1828.44 570.078Z" fill="url(#paint7_linear_1742_764)"/>
</g>
<g class="moved-2">
    <g filter="url(#filter4_d_1742_764)">
        <circle cx="1236" cy="952" r="54" fill="white"/>
    </g>
    <g clip-path="url(#clip0_1742_764)">
        <path d="M1236.96 922.98C1239.85 922.512 1241.81 919.79 1241.34 916.901C1240.88 914.011 1238.15 912.049 1235.26 912.517C1232.38 912.986 1230.41 915.707 1230.88 918.597C1231.35 921.486 1234.07 923.448 1236.96 922.98Z" fill="url(#paint8_linear_1742_764)"/>
        <path d="M1236.11 956.606C1239.04 956.606 1241.41 954.234 1241.41 951.307C1241.41 948.38 1239.04 946.007 1236.11 946.007C1233.19 946.007 1230.81 948.38 1230.81 951.307C1230.81 954.234 1233.19 956.606 1236.11 956.606Z" fill="url(#paint9_linear_1742_764)"/>
        <path d="M1265.51 912.18L1265.41 912.146C1262.79 911.238 1260.01 910.885 1257.24 911.11C1254.48 911.335 1251.79 912.132 1249.35 913.452L1246.2 915.168C1246.54 916.514 1246.61 917.914 1246.41 919.287C1246.2 920.66 1245.72 921.978 1245 923.164C1244.28 924.35 1243.33 925.38 1242.2 926.193C1241.08 927.006 1239.8 927.586 1238.45 927.9C1237.93 929.233 1237.67 930.65 1237.67 932.078V935.485C1237.67 937.491 1238.11 939.473 1238.97 941.288C1241.14 941.911 1243.06 943.225 1244.42 945.033C1245.79 946.841 1246.52 949.043 1246.52 951.307C1246.52 951.356 1246.52 951.403 1246.52 951.451C1247.89 952.837 1249.45 954.014 1251.15 954.941L1255.63 957.381C1256.7 957.962 1257.87 958.316 1259.08 958.422C1260.14 956.935 1261.54 955.722 1263.16 954.885C1264.79 954.047 1266.59 953.609 1268.41 953.606C1270.24 953.604 1272.04 954.037 1273.66 954.87C1275.29 955.703 1276.69 956.912 1277.75 958.396C1278.86 958.261 1279.93 957.917 1280.91 957.383L1285.39 954.943C1285.65 954.8 1285.91 954.65 1286.17 954.495C1286.23 953.442 1286.27 952.382 1286.27 951.311C1286.29 938.199 1281.16 925.604 1271.98 916.241C1270.18 914.388 1267.96 912.995 1265.51 912.18Z" fill="url(#paint10_linear_1742_764)"/>
        <path d="M1281.53 960.602L1279.42 961.75C1279.9 963.323 1280.03 964.981 1279.81 966.61C1279.59 968.239 1279.02 969.803 1278.15 971.195C1277.27 972.586 1276.11 973.774 1274.74 974.677C1273.36 975.581 1271.81 976.179 1270.19 976.431C1269.96 977.346 1269.84 978.286 1269.84 979.229V982.635C1269.85 984.326 1270.16 986.001 1270.78 987.575C1278.79 979.933 1284.04 969.849 1285.71 958.901C1284.26 959.312 1282.85 959.882 1281.53 960.602Z" fill="url(#paint11_linear_1742_764)"/>
        <path d="M1269.65 970.24C1272.5 969.567 1274.26 966.712 1273.59 963.864C1272.92 961.016 1270.06 959.254 1267.21 959.927C1264.37 960.6 1262.6 963.454 1263.28 966.302C1263.95 969.15 1266.8 970.913 1269.65 970.24Z" fill="url(#paint12_linear_1742_764)"/>
        <path d="M1262.52 992.34C1263.84 991.093 1264.88 989.594 1265.6 987.932C1266.32 986.271 1266.69 984.481 1266.7 982.672V979.237C1266.7 978.275 1266.58 977.316 1266.34 976.383C1264.76 976.093 1263.26 975.475 1261.94 974.569C1260.61 973.663 1259.49 972.49 1258.65 971.124C1257.81 969.758 1257.26 968.23 1257.04 966.639C1256.83 965.049 1256.95 963.43 1257.39 961.889L1255.02 960.596C1251.63 958.734 1247.76 957.901 1243.91 958.199C1242.93 959.306 1241.73 960.192 1240.38 960.8C1239.03 961.407 1237.57 961.721 1236.1 961.721C1234.62 961.721 1233.16 961.407 1231.82 960.8C1230.47 960.192 1229.27 959.306 1228.29 958.199C1224.44 957.904 1220.58 958.737 1217.19 960.596L1214.65 961.978C1215.08 963.499 1215.19 965.091 1214.97 966.655C1214.75 968.219 1214.22 969.722 1213.39 971.069C1212.57 972.417 1211.48 973.579 1210.18 974.485C1208.89 975.391 1207.42 976.02 1205.87 976.333C1205.63 977.277 1205.5 978.247 1205.5 979.222V982.629C1205.51 984.45 1205.89 986.249 1206.61 987.921C1207.34 989.592 1208.39 991.102 1209.7 992.359C1209.91 992.563 1210.11 992.778 1210.3 993.002C1211.91 994.903 1213.93 996.399 1216.22 997.371C1222.45 1000.05 1229.15 1001.44 1235.92 1001.46C1242.7 1001.49 1249.41 1000.14 1255.65 997.509C1258.06 996.524 1260.2 994.979 1261.9 993.001C1262.09 992.769 1262.3 992.549 1262.52 992.34Z" fill="url(#paint13_linear_1742_764)"/>
        <path d="M1204.65 970.24C1207.5 969.567 1209.26 966.712 1208.59 963.864C1207.92 961.016 1205.06 959.254 1202.21 959.927C1199.37 960.6 1197.6 963.454 1198.28 966.302C1198.95 969.15 1201.8 970.913 1204.65 970.24Z" fill="url(#paint14_linear_1742_764)"/>
        <path d="M1218.99 907.789L1223.46 910.229C1224.83 910.974 1226.36 911.343 1227.92 911.3C1228.89 910.062 1230.13 909.062 1231.55 908.374C1232.97 907.686 1234.52 907.328 1236.1 907.328C1237.68 907.328 1239.23 907.686 1240.65 908.374C1242.06 909.062 1243.31 910.062 1244.28 911.3C1245.84 911.345 1247.38 910.976 1248.74 910.231L1253.22 907.791C1254.41 907.143 1255.53 906.375 1256.57 905.498C1250.12 902.628 1243.15 901.145 1236.1 901.145C1229.05 901.145 1222.07 902.628 1215.63 905.498C1216.67 906.375 1217.79 907.143 1218.99 907.789Z" fill="url(#paint15_linear_1742_764)"/>
        <path d="M1202.38 979.231C1202.38 978.297 1202.27 977.366 1202.04 976.459C1200.39 976.231 1198.81 975.646 1197.4 974.745C1196 973.843 1194.81 972.647 1193.91 971.239C1193.02 969.831 1192.44 968.246 1192.22 966.592C1192 964.938 1192.14 963.257 1192.64 961.664L1190.7 960.606C1189.37 959.886 1187.97 959.316 1186.52 958.905C1188.18 969.848 1193.43 979.929 1201.44 987.571C1202.06 986.013 1202.37 984.352 1202.37 982.676L1202.38 979.231Z" fill="url(#paint16_linear_1742_764)"/>
        <path d="M1186.82 954.942L1191.3 957.382C1192.23 957.887 1193.24 958.222 1194.29 958.37C1195.35 956.89 1196.76 955.686 1198.38 954.857C1200.01 954.029 1201.81 953.6 1203.64 953.607C1205.46 953.614 1207.26 954.056 1208.88 954.896C1210.5 955.736 1211.89 956.951 1212.95 958.439C1214.22 958.352 1215.46 957.992 1216.58 957.382L1221.05 954.942C1222.76 954.016 1224.31 952.844 1225.67 951.463C1225.67 951.41 1225.67 951.36 1225.67 951.308C1225.67 949.046 1226.41 946.846 1227.77 945.039C1229.13 943.232 1231.04 941.917 1233.22 941.292C1234.08 939.491 1234.53 937.519 1234.52 935.522V932.088C1234.52 930.66 1234.26 929.244 1233.75 927.911C1232.39 927.599 1231.12 927.019 1229.99 926.206C1228.86 925.392 1227.91 924.362 1227.19 923.176C1226.47 921.99 1225.99 920.671 1225.78 919.297C1225.57 917.923 1225.65 916.522 1225.99 915.176L1222.84 913.461C1220.4 912.143 1217.71 911.346 1214.94 911.121C1212.18 910.896 1209.4 911.249 1206.77 912.156L1206.68 912.185C1204.24 913.001 1202.02 914.393 1200.23 916.243C1191.05 925.605 1185.91 938.2 1185.93 951.313C1185.93 952.384 1185.97 953.445 1186.03 954.498C1186.3 954.647 1186.56 954.798 1186.82 954.942Z" fill="url(#paint17_linear_1742_764)"/>
    </g>
</g>
<g class="moved-1">
    <g filter="url(#filter5_d_1742_764)">
    <circle cx="1568.5" cy="130.5" r="50.5" fill="white"/>
    </g>
    <path d="M1541.11 102.586C1537.59 103.049 1534.63 105.519 1533.46 108.978L1533.04 110.213V126.347V142.482L1533.38 143.562C1534.32 146.511 1536.62 148.843 1539.6 149.862C1540.59 150.201 1540.73 150.201 1551.38 150.248L1562.16 150.294L1562.05 150.865C1561.9 151.792 1561.37 153.243 1561.03 153.706C1560.37 154.648 1560.24 154.679 1554.55 154.756C1549.37 154.833 1549.34 154.833 1548.97 155.188C1548.6 155.543 1548.25 156.532 1548.25 157.211V157.535H1568.4C1587.77 157.535 1588.54 157.52 1588.54 157.257C1588.54 157.103 1588.44 156.609 1588.31 156.176C1587.91 154.818 1588.02 154.849 1582.21 154.756C1577.46 154.679 1577.17 154.663 1576.58 154.339C1576.15 154.123 1575.82 153.768 1575.53 153.258C1575.16 152.564 1574.65 150.958 1574.65 150.479C1574.65 150.325 1576.9 150.279 1585.35 150.248L1596.03 150.201L1597.27 149.785C1600.34 148.735 1602.64 146.233 1603.44 143.099C1603.8 141.725 1603.8 110.969 1603.44 109.595C1602.81 107.079 1600.91 104.67 1598.7 103.589C1596.33 102.401 1598.97 102.509 1569.01 102.478C1554.24 102.462 1541.69 102.509 1541.11 102.586ZM1595.68 109.642C1595.99 109.842 1596.39 110.228 1596.56 110.506C1596.88 111.016 1596.88 111.17 1596.88 126.378V141.74L1596.53 142.265C1596.34 142.543 1595.91 142.945 1595.57 143.13L1594.95 143.485H1568.44C1550.08 143.485 1541.81 143.439 1541.5 143.315C1540.91 143.099 1540.22 142.435 1539.97 141.833C1539.79 141.416 1539.76 138.73 1539.76 126.347C1539.76 111.942 1539.77 111.34 1540.05 110.784C1540.2 110.475 1540.48 110.089 1540.65 109.935C1541.47 109.194 1540.45 109.225 1568.63 109.256L1595.11 109.287L1595.68 109.642Z" fill="black"/>
    <mask id="mask0_1742_764" style="mask-type:alpha" maskUnits="userSpaceOnUse" x="1533" y="102" width="71" height="49">
    <path d="M1533.07 102.454H1603.71V150.163H1533.07V102.454Z" fill="#D9D9D9"/>
    </mask>
    <g mask="url(#mask0_1742_764)">
    <path d="M1541.11 102.586C1537.59 103.049 1534.62 105.519 1533.45 108.978L1533.03 110.213V126.347V142.482L1533.37 143.562C1534.31 146.511 1536.61 148.843 1539.59 149.862C1540.58 150.201 1540.72 150.201 1551.37 150.248L1562.15 150.294L1562.04 150.865C1561.89 151.792 1561.36 153.243 1561.02 153.706C1560.36 154.648 1560.24 154.679 1554.54 154.756C1549.37 154.833 1549.34 154.833 1548.96 155.188C1548.59 155.543 1548.24 156.532 1548.24 157.211V157.535H1568.39C1587.76 157.535 1588.54 157.52 1588.54 157.257C1588.54 157.103 1588.43 156.609 1588.3 156.176C1587.9 154.818 1588.01 154.849 1582.21 154.756C1577.45 154.679 1577.16 154.663 1576.57 154.339C1576.14 154.123 1575.81 153.768 1575.52 153.258C1575.15 152.564 1574.64 150.958 1574.64 150.479C1574.64 150.325 1576.9 150.279 1585.34 150.248L1596.02 150.201L1597.26 149.785C1600.33 148.735 1602.63 146.233 1603.44 143.099C1603.79 141.725 1603.79 110.969 1603.44 109.595C1602.8 107.079 1600.9 104.67 1598.7 103.589C1596.32 102.401 1598.96 102.509 1569.01 102.478C1554.23 102.462 1541.68 102.509 1541.11 102.586ZM1595.67 109.642C1595.98 109.842 1596.38 110.228 1596.55 110.506C1596.87 111.016 1596.87 111.17 1596.87 126.378V141.74L1596.52 142.265C1596.33 142.543 1595.9 142.945 1595.56 143.13L1594.94 143.485H1568.43C1550.08 143.485 1541.8 143.439 1541.49 143.315C1540.91 143.099 1540.21 142.435 1539.96 141.833C1539.78 141.416 1539.75 138.73 1539.75 126.347C1539.75 111.942 1539.76 111.34 1540.04 110.784C1540.2 110.475 1540.47 110.089 1540.64 109.935C1541.46 109.194 1540.44 109.225 1568.62 109.256L1595.1 109.287L1595.67 109.642Z" fill="#D81B5C"/>
    </g>
    <path d="M1562.45 127.196C1562.45 132.338 1562.48 136.537 1562.53 136.537C1562.64 136.537 1578.4 127.443 1578.54 127.305C1578.6 127.243 1576.75 126.116 1574.45 124.788C1572.13 123.46 1568.49 121.36 1566.36 120.125L1562.45 117.871V127.196Z" fill="#D81B5C"/>
    <path d="M145 152.2C145 178.5 123.286 199.818 96.5 199.818C69.7148 199.818 48 178.5 48 152.2C48 125.903 69.7148 104.582 96.5 104.582C123.286 104.582 145 125.903 145 152.2Z" fill="#0693E3"/>
    <path d="M128 135.509C128 161.805 106.285 183.127 79.4996 183.127C52.7145 183.127 31 161.805 31 135.509C31 109.209 52.7145 87.8906 79.4996 87.8906C106.285 87.8906 128 109.209 128 135.509V135.509Z" stroke="#101413" stroke-width="2.66667" stroke-miterlimit="10" stroke-linecap="round" stroke-linejoin="round"/>
</g>
<g class="bottom-top">
    <path d="M527.144 901.912L493.141 921.347L493.074 902.814L492.999 882.718L510.763 892.704L527.144 901.912Z" fill="#0693E3"/>
</g>
<g class="top-bottom">
    <path d="M1864.62 106.415L1858.55 100.452L1864.62 94.4905L1861.38 91.3094L1855.31 97.2723L1849.24 91.3094L1846 94.4905L1852.07 100.452L1846 106.415L1849.24 109.595L1855.31 103.632L1861.38 109.595L1864.62 106.415Z" fill="#FABC23"/>
</g>
<g class="_swing">
    <path d="M422.835 679.39H417.821V674.656H413V669.734H417.821V665H422.835V669.734H427.657V674.656H422.835V679.39Z" fill="#32A5E6"/>
</g>
<g class="bottom-top">
    <path d="M1872.62 997.106L1866.55 991.143L1872.62 985.18L1869.39 982L1863.31 987.963L1857.24 982L1854 985.18L1860.07 991.143L1854 997.106L1857.24 1000.29L1863.31 994.322L1869.39 1000.29L1872.62 997.106Z" fill="#0693E3"/>
</g>
<g class="zoom">
    <path d="M970.259 120.658H931.511C930.427 120.658 929.75 119.505 930.293 118.583L949.666 85.6371L969.039 52.6912C969.582 51.7696 970.937 51.7696 971.479 52.6912L990.853 85.6371L1010.23 118.583C1010.77 119.505 1010.09 120.658 1009.01 120.658H970.259" fill="#0693E3"/>
    <path d="M949.158 131.359H910.411C909.327 131.359 908.648 130.207 909.191 129.285L928.564 96.3391L947.939 63.3921C948.48 62.4705 949.836 62.4705 950.378 63.3921L969.752 96.3391L989.126 129.285C989.668 130.207 988.99 131.359 987.906 131.359H949.158Z" stroke="#100F0D" stroke-width="1.90235" stroke-miterlimit="10"/>
</g>
<defs>
<filter id="filter0_d_1742_764" x="76" y="373" width="160" height="160" filterUnits="userSpaceOnUse" color-interpolation-filters="sRGB">
<feFlood flood-opacity="0" result="BackgroundImageFix"/>
<feColorMatrix in="SourceAlpha" type="matrix" values="0 0 0 0 0 0 0 0 0 0 0 0 0 0 0 0 0 0 127 0" result="hardAlpha"/>
<feOffset dy="4"/>
<feGaussianBlur stdDeviation="7.5"/>
<feComposite in2="hardAlpha" operator="out"/>
<feColorMatrix type="matrix" values="0 0 0 0 0 0 0 0 0 0 0 0 0 0 0 0 0 0 0.1 0"/>
<feBlend mode="normal" in2="BackgroundImageFix" result="effect1_dropShadow_1742_764"/>
<feBlend mode="normal" in="SourceGraphic" in2="effect1_dropShadow_1742_764" result="shape"/>
</filter>
<filter id="filter1_d_1742_764" x="210" y="852" width="103" height="103" filterUnits="userSpaceOnUse" color-interpolation-filters="sRGB">
<feFlood flood-opacity="0" result="BackgroundImageFix"/>
<feColorMatrix in="SourceAlpha" type="matrix" values="0 0 0 0 0 0 0 0 0 0 0 0 0 0 0 0 0 0 127 0" result="hardAlpha"/>
<feOffset dy="4"/>
<feGaussianBlur stdDeviation="2"/>
<feComposite in2="hardAlpha" operator="out"/>
<feColorMatrix type="matrix" values="0 0 0 0 0 0 0 0 0 0 0 0 0 0 0 0 0 0 0.25 0"/>
<feBlend mode="normal" in2="BackgroundImageFix" result="effect1_dropShadow_1742_764"/>
<feBlend mode="normal" in="SourceGraphic" in2="effect1_dropShadow_1742_764" result="shape"/>
</filter>
<filter id="filter2_d_1742_764" x="366" y="146" width="120" height="120" filterUnits="userSpaceOnUse" color-interpolation-filters="sRGB">
<feFlood flood-opacity="0" result="BackgroundImageFix"/>
<feColorMatrix in="SourceAlpha" type="matrix" values="0 0 0 0 0 0 0 0 0 0 0 0 0 0 0 0 0 0 127 0" result="hardAlpha"/>
<feOffset dy="4"/>
<feGaussianBlur stdDeviation="5"/>
<feComposite in2="hardAlpha" operator="out"/>
<feColorMatrix type="matrix" values="0 0 0 0 0 0 0 0 0 0 0 0 0 0 0 0 0 0 0.1 0"/>
<feBlend mode="normal" in2="BackgroundImageFix" result="effect1_dropShadow_1742_764"/>
<feBlend mode="normal" in="SourceGraphic" in2="effect1_dropShadow_1742_764" result="shape"/>
</filter>
<filter id="filter3_d_1742_764" x="1733" y="494" width="160" height="160" filterUnits="userSpaceOnUse" color-interpolation-filters="sRGB">
<feFlood flood-opacity="0" result="BackgroundImageFix"/>
<feColorMatrix in="SourceAlpha" type="matrix" values="0 0 0 0 0 0 0 0 0 0 0 0 0 0 0 0 0 0 127 0" result="hardAlpha"/>
<feOffset/>
<feGaussianBlur stdDeviation="10"/>
<feComposite in2="hardAlpha" operator="out"/>
<feColorMatrix type="matrix" values="0 0 0 0 0 0 0 0 0 0 0 0 0 0 0 0 0 0 0.15 0"/>
<feBlend mode="normal" in2="BackgroundImageFix" result="effect1_dropShadow_1742_764"/>
<feBlend mode="normal" in="SourceGraphic" in2="effect1_dropShadow_1742_764" result="shape"/>
</filter>
<filter id="filter4_d_1742_764" x="1162" y="878" width="148" height="148" filterUnits="userSpaceOnUse" color-interpolation-filters="sRGB">
<feFlood flood-opacity="0" result="BackgroundImageFix"/>
<feColorMatrix in="SourceAlpha" type="matrix" values="0 0 0 0 0 0 0 0 0 0 0 0 0 0 0 0 0 0 127 0" result="hardAlpha"/>
<feOffset/>
<feGaussianBlur stdDeviation="10"/>
<feComposite in2="hardAlpha" operator="out"/>
<feColorMatrix type="matrix" values="0 0 0 0 0 0 0 0 0 0 0 0 0 0 0 0 0 0 0.15 0"/>
<feBlend mode="normal" in2="BackgroundImageFix" result="effect1_dropShadow_1742_764"/>
<feBlend mode="normal" in="SourceGraphic" in2="effect1_dropShadow_1742_764" result="shape"/>
</filter>
<filter id="filter5_d_1742_764" x="1498" y="60" width="141" height="141" filterUnits="userSpaceOnUse" color-interpolation-filters="sRGB">
<feFlood flood-opacity="0" result="BackgroundImageFix"/>
<feColorMatrix in="SourceAlpha" type="matrix" values="0 0 0 0 0 0 0 0 0 0 0 0 0 0 0 0 0 0 127 0" result="hardAlpha"/>
<feOffset/>
<feGaussianBlur stdDeviation="10"/>
<feComposite in2="hardAlpha" operator="out"/>
<feColorMatrix type="matrix" values="0 0 0 0 0 0 0 0 0 0 0 0 0 0 0 0 0 0 0.15 0"/>
<feBlend mode="normal" in2="BackgroundImageFix" result="effect1_dropShadow_1742_764"/>
<feBlend mode="normal" in="SourceGraphic" in2="effect1_dropShadow_1742_764" result="shape"/>
</filter>
<linearGradient id="paint0_linear_1742_764" x1="232.892" y1="857.938" x2="285.79" y2="942.682" gradientUnits="userSpaceOnUse">
<stop stop-color="#6EC51F"/>
<stop offset="1" stop-color="#08909B"/>
</linearGradient>
<linearGradient id="paint1_linear_1742_764" x1="460.937" y1="223.408" x2="425.773" y2="216.231" gradientUnits="userSpaceOnUse">
<stop offset="0.001" stop-color="#5056CA"/>
<stop offset="0.353" stop-color="#5258CB"/>
<stop offset="0.502" stop-color="#595FCD"/>
<stop offset="0.613" stop-color="#666BD1"/>
<stop offset="0.705" stop-color="#777CD6"/>
<stop offset="0.786" stop-color="#8E92DD"/>
<stop offset="0.858" stop-color="#ABAEE6"/>
<stop offset="0.924" stop-color="#CDCFF0"/>
<stop offset="0.983" stop-color="#F3F3FB"/>
<stop offset="1" stop-color="white"/>
</linearGradient>
<linearGradient id="paint2_linear_1742_764" x1="426.161" y1="162.252" x2="426.161" y2="200.058" gradientUnits="userSpaceOnUse">
<stop offset="0.001" stop-color="#5056CA"/>
<stop offset="0.353" stop-color="#5258CB"/>
<stop offset="0.502" stop-color="#595FCD"/>
<stop offset="0.613" stop-color="#666BD1"/>
<stop offset="0.705" stop-color="#777CD6"/>
<stop offset="0.786" stop-color="#8E92DD"/>
<stop offset="0.858" stop-color="#ABAEE6"/>
<stop offset="0.924" stop-color="#CDCFF0"/>
<stop offset="0.983" stop-color="#F3F3FB"/>
<stop offset="1" stop-color="white"/>
</linearGradient>
<linearGradient id="paint3_linear_1742_764" x1="391" y1="225.298" x2="426.939" y2="217.26" gradientUnits="userSpaceOnUse">
<stop offset="0.001" stop-color="#5056CA"/>
<stop offset="0.353" stop-color="#5258CB"/>
<stop offset="0.502" stop-color="#595FCD"/>
<stop offset="0.613" stop-color="#666BD1"/>
<stop offset="0.705" stop-color="#777CD6"/>
<stop offset="0.786" stop-color="#8E92DD"/>
<stop offset="0.858" stop-color="#ABAEE6"/>
<stop offset="0.924" stop-color="#CDCFF0"/>
<stop offset="0.983" stop-color="#F3F3FB"/>
<stop offset="1" stop-color="white"/>
</linearGradient>
<linearGradient id="paint4_linear_1742_764" x1="1794.05" y1="542.016" x2="1825.59" y2="613.616" gradientUnits="userSpaceOnUse">
<stop stop-color="#F4A121"/>
<stop offset="0.552" stop-color="#F36F29"/>
<stop offset="0.988" stop-color="#F24D23"/>
</linearGradient>
<linearGradient id="paint5_linear_1742_764" x1="1759.5" y1="560.193" x2="1864.29" y2="592.051" gradientUnits="userSpaceOnUse">
<stop stop-color="#F4A121"/>
<stop offset="0.552" stop-color="#F36F29"/>
<stop offset="0.988" stop-color="#F24D23"/>
</linearGradient>
<linearGradient id="paint6_linear_1742_764" x1="1787.72" y1="530.23" x2="1839.32" y2="626.912" gradientUnits="userSpaceOnUse">
<stop stop-color="#F4A121"/>
<stop offset="0.552" stop-color="#F36F29"/>
<stop offset="0.988" stop-color="#F24D23"/>
</linearGradient>
<linearGradient id="paint7_linear_1742_764" x1="1798.25" y1="521.8" x2="1849.85" y2="618.481" gradientUnits="userSpaceOnUse">
<stop stop-color="#F4A121"/>
<stop offset="0.552" stop-color="#F36F29"/>
<stop offset="0.988" stop-color="#F24D23"/>
</linearGradient>
<linearGradient id="paint8_linear_1742_764" x1="1230.88" y1="918.597" x2="1241.34" y2="916.901" gradientUnits="userSpaceOnUse">
<stop offset="0.006" stop-color="#DEF0F5"/>
<stop offset="0.449" stop-color="#BEE2EB"/>
<stop offset="1" stop-color="#8DD0DD"/>
</linearGradient>
<linearGradient id="paint9_linear_1742_764" x1="1230.81" y1="951.307" x2="1241.41" y2="951.307" gradientUnits="userSpaceOnUse">
<stop offset="0.006" stop-color="#DEF0F5"/>
<stop offset="0.449" stop-color="#BEE2EB"/>
<stop offset="1" stop-color="#8DD0DD"/>
</linearGradient>
<linearGradient id="paint10_linear_1742_764" x1="1261.97" y1="958.422" x2="1261.97" y2="911.044" gradientUnits="userSpaceOnUse">
<stop stop-color="#87B9CE"/>
<stop offset="0.5" stop-color="#3A9CB9"/>
<stop offset="1" stop-color="#0087A8"/>
</linearGradient>
<linearGradient id="paint11_linear_1742_764" x1="1277.78" y1="958.901" x2="1277.78" y2="987.575" gradientUnits="userSpaceOnUse">
<stop stop-color="#5A86B6"/>
<stop offset="0.108" stop-color="#5082B3"/>
<stop offset="0.287" stop-color="#3778AB"/>
<stop offset="0.515" stop-color="#0E679F"/>
<stop offset="0.584" stop-color="#00629B"/>
<stop offset="1" stop-color="#004B88"/>
</linearGradient>
<linearGradient id="paint12_linear_1742_764" x1="1263.28" y1="966.302" x2="1273.59" y2="963.864" gradientUnits="userSpaceOnUse">
<stop offset="0.006" stop-color="#DEF0F5"/>
<stop offset="0.449" stop-color="#BEE2EB"/>
<stop offset="1" stop-color="#8DD0DD"/>
</linearGradient>
<linearGradient id="paint13_linear_1742_764" x1="1236.1" y1="958.14" x2="1236.1" y2="1001.46" gradientUnits="userSpaceOnUse">
<stop stop-color="#5A86B6"/>
<stop offset="0.108" stop-color="#5082B3"/>
<stop offset="0.287" stop-color="#3778AB"/>
<stop offset="0.515" stop-color="#0E679F"/>
<stop offset="0.584" stop-color="#00629B"/>
<stop offset="1" stop-color="#004B88"/>
</linearGradient>
<linearGradient id="paint14_linear_1742_764" x1="1198.28" y1="966.302" x2="1208.59" y2="963.864" gradientUnits="userSpaceOnUse">
<stop offset="0.006" stop-color="#DEF0F5"/>
<stop offset="0.449" stop-color="#BEE2EB"/>
<stop offset="1" stop-color="#8DD0DD"/>
</linearGradient>
<linearGradient id="paint15_linear_1742_764" x1="1236.1" y1="911.304" x2="1236.1" y2="901.145" gradientUnits="userSpaceOnUse">
<stop stop-color="#87B9CE"/>
<stop offset="0.5" stop-color="#3A9CB9"/>
<stop offset="1" stop-color="#0087A8"/>
</linearGradient>
<linearGradient id="paint16_linear_1742_764" x1="1194.45" y1="958.905" x2="1194.45" y2="987.571" gradientUnits="userSpaceOnUse">
<stop stop-color="#5A86B6"/>
<stop offset="0.108" stop-color="#5082B3"/>
<stop offset="0.287" stop-color="#3778AB"/>
<stop offset="0.515" stop-color="#0E679F"/>
<stop offset="0.584" stop-color="#00629B"/>
<stop offset="1" stop-color="#004B88"/>
</linearGradient>
<linearGradient id="paint17_linear_1742_764" x1="1210.23" y1="958.439" x2="1210.23" y2="911.055" gradientUnits="userSpaceOnUse">
<stop stop-color="#87B9CE"/>
<stop offset="0.5" stop-color="#3A9CB9"/>
<stop offset="1" stop-color="#0087A8"/>
</linearGradient>
<clipPath id="clip0_1742_764">
<rect width="102.6" height="102.6" fill="white" transform="translate(1185.09 900.314)"/>
</clipPath>
</defs>
</svg>