<svg width="1920" height="1080" viewBox="0 0 1920 1080" fill="none" xmlns="http://www.w3.org/2000/svg">
<style>
-webkit-keyframes bounce{0%{-webkit-transform:translateY(0)}50%{-webkit-transform:translateY(20px)}100%{-webkit-transform:translateY(0)}}@-webkit-keyframes bounce{0%{-webkit-transform:translateY(0);transform:translateY(0)}50%{-webkit-transform:translateY(20px);transform:translateY(20px)}100%{-webkit-transform:translateY(0);transform:translateY(0)}}@keyframes bounce{0%{-webkit-transform:translateY(0);transform:translateY(0)}50%{-webkit-transform:translateY(20px);transform:translateY(20px)}100%{-webkit-transform:translateY(0);transform:translateY(0)}}-webkit-keyframes zoom{0%{-webkit-transform:scale(1);-webkit-transform-origin:center;-ms-transform-origin:center;transform-origin:center}50%{-webkit-transform:scale(1.05);-webkit-transform-origin:center;-ms-transform-origin:center;transform-origin:center}100%{-webkit-transform:scale(1);-webkit-transform-origin:center;-ms-transform-origin:center;transform-origin:center}}@-webkit-keyframes zoom{0%{-webkit-transform:scale(1);transform:scale(1);-webkit-transform-origin:center;transform-origin:center}50%{-webkit-transform:scale(1.05);transform:scale(1.05);-webkit-transform-origin:center;transform-origin:center}100%{-webkit-transform:scale(1);transform:scale(1);-webkit-transform-origin:center;transform-origin:center}}@keyframes zoom{0%{-webkit-transform:scale(1);transform:scale(1);-webkit-transform-origin:center;transform-origin:center}50%{-webkit-transform:scale(1.05);transform:scale(1.05);-webkit-transform-origin:center;transform-origin:center}100%{-webkit-transform:scale(1);transform:scale(1);-webkit-transform-origin:center;transform-origin:center}}.bounce-top{-webkit-animation:bounce-top 15s infinite alternate-reverse both;animation:bounce-top 15s infinite alternate-reverse both}._swing{animation:swing1 30s infinite alternate-reverse both;-webkit-transform-origin:center;-ms-transform-origin:center;transform-origin:center}@-webkit-keyframes swing1{20%{-webkit-transform:rotate(15deg);transform:rotate(15deg)}40%{-webkit-transform:rotate(-10deg);transform:rotate(-10deg)}60%{-webkit-transform:rotate(5deg);transform:rotate(5deg)}80%{-webkit-transform:rotate(-5deg);transform:rotate(-5deg)}to{-webkit-transform:rotate(0deg);transform:rotate(0deg)}}.jello-horizontal{-webkit-animation:jello-horizontal .9s infinite both;animation:jello-horizontal .9s infinite both}._zoom{animation:zoom 15s infinite;-webkit-animation:zoom 15s infinite;-moz-animation:zoom 15s infinite;-o-animation:zoom 15s infinite}._bounce1{animation:bounce 10s infinite;-webkit-animation:bounce 10s infinite;-moz-animation:bounce 10s infinite;-o-animation:bounce 10s infinite}._bounce2{animation:bounce 10s infinite;-webkit-animation:bounce 10s infinite;-moz-animation:bounce 10s infinite;-o-animation:bounce 10s infinite;-webkit-animation-delay:200ms;animation-delay:200ms}@-webkit-keyframes bounce-top{0%{-webkit-transform:translateY(-45px);transform:translateY(-45px);-webkit-animation-timing-function:ease-in;animation-timing-function:ease-in;opacity:1}24%{opacity:1}40%{-webkit-transform:translateY(-24px);transform:translateY(-24px);-webkit-animation-timing-function:ease-in;animation-timing-function:ease-in}65%{-webkit-transform:translateY(-12px);transform:translateY(-12px);-webkit-animation-timing-function:ease-in;animation-timing-function:ease-in}82%{-webkit-transform:translateY(-6px);transform:translateY(-6px);-webkit-animation-timing-function:ease-in;animation-timing-function:ease-in}93%{-webkit-transform:translateY(-4px);transform:translateY(-4px);-webkit-animation-timing-function:ease-in;animation-timing-function:ease-in}25%,55%,75%,87%{-webkit-transform:translateY(0px);transform:translateY(0px);-webkit-animation-timing-function:ease-out;animation-timing-function:ease-out}100%{-webkit-transform:translateY(0px);transform:translateY(0px);-webkit-animation-timing-function:ease-out;animation-timing-function:ease-out;opacity:1}}@keyframes bounce-top{0%{-webkit-transform:translateY(-45px);transform:translateY(-45px);-webkit-animation-timing-function:ease-in;animation-timing-function:ease-in;opacity:1}24%{opacity:1}40%{-webkit-transform:translateY(-24px);transform:translateY(-24px);-webkit-animation-timing-function:ease-in;animation-timing-function:ease-in}65%{-webkit-transform:translateY(-12px);transform:translateY(-12px);-webkit-animation-timing-function:ease-in;animation-timing-function:ease-in}82%{-webkit-transform:translateY(-6px);transform:translateY(-6px);-webkit-animation-timing-function:ease-in;animation-timing-function:ease-in}93%{-webkit-transform:translateY(-4px);transform:translateY(-4px);-webkit-animation-timing-function:ease-in;animation-timing-function:ease-in}25%,55%,75%,87%{-webkit-transform:translateY(0px);transform:translateY(0px);-webkit-animation-timing-function:ease-out;animation-timing-function:ease-out}100%{-webkit-transform:translateY(0px);transform:translateY(0px);-webkit-animation-timing-function:ease-out;animation-timing-function:ease-out;opacity:1}}
</style>
<g><path fill-rule="evenodd" clip-rule="evenodd" d="M6.50572 210.147C6.50572 211.861 5.04936 213.25 3.25286 213.25C1.45635 213.25 0 211.861 0 210.147C0 208.433 1.45635 207.043 3.25286 207.043C5.04936 207.043 6.50572 208.433 6.50572 210.147ZM6.50572 239.632C6.50572 241.346 5.04936 242.736 3.25286 242.736C1.45635 242.736 0 241.346 0 239.632C0 237.918 1.45635 236.528 3.25286 236.528C5.04936 236.528 6.50572 237.918 6.50572 239.632ZM3.25286 273.772C5.04936 273.772 6.50572 272.382 6.50572 270.668C6.50572 268.954 5.04936 267.564 3.25286 267.564C1.45635 267.564 0 268.954 0 270.668C0 272.382 1.45635 273.772 3.25286 273.772ZM6.50572 300.153C6.50572 301.868 5.04936 303.257 3.25286 303.257C1.45635 303.257 0 301.868 0 300.153C0 298.439 1.45635 297.05 3.25286 297.05C5.04936 297.05 6.50572 298.439 6.50572 300.153ZM3.25286 334.294C5.04936 334.294 6.50572 332.905 6.50572 331.191C6.50572 329.476 5.04936 328.087 3.25286 328.087C1.45635 328.087 0 329.476 0 331.191C0 332.905 1.45635 334.294 3.25286 334.294ZM39.035 210.147C39.035 211.861 37.5787 213.25 35.7822 213.25C33.9857 213.25 32.5293 211.861 32.5293 210.147C32.5293 208.433 33.9857 207.043 35.7822 207.043C37.5787 207.043 39.035 208.433 39.035 210.147ZM35.7822 242.736C37.5787 242.736 39.035 241.346 39.035 239.632C39.035 237.918 37.5787 236.528 35.7822 236.528C33.9857 236.528 32.5293 237.918 32.5293 239.632C32.5293 241.346 33.9857 242.736 35.7822 242.736ZM39.035 270.668C39.035 272.382 37.5787 273.772 35.7822 273.772C33.9857 273.772 32.5293 272.382 32.5293 270.668C32.5293 268.954 33.9857 267.564 35.7822 267.564C37.5787 267.564 39.035 268.954 39.035 270.668ZM35.7822 303.257C37.5787 303.257 39.035 301.868 39.035 300.153C39.035 298.439 37.5787 297.05 35.7822 297.05C33.9857 297.05 32.5293 298.439 32.5293 300.153C32.5293 301.868 33.9857 303.257 35.7822 303.257ZM39.035 331.191C39.035 332.905 37.5787 334.294 35.7822 334.294C33.9857 334.294 32.5293 332.905 32.5293 331.191C32.5293 329.476 33.9857 328.087 35.7822 328.087C37.5787 328.087 39.035 329.476 39.035 331.191ZM66.6835 213.25C68.48 213.25 69.9364 211.861 69.9364 210.147C69.9364 208.433 68.48 207.043 66.6835 207.043C64.887 207.043 63.4307 208.433 63.4307 210.147C63.4307 211.861 64.887 213.25 66.6835 213.25ZM69.9364 239.632C69.9364 241.346 68.48 242.736 66.6835 242.736C64.887 242.736 63.4307 241.346 63.4307 239.632C63.4307 237.918 64.887 236.528 66.6835 236.528C68.48 236.528 69.9364 237.918 69.9364 239.632ZM66.6835 273.772C68.48 273.772 69.9364 272.382 69.9364 270.668C69.9364 268.954 68.48 267.564 66.6835 267.564C64.887 267.564 63.4307 268.954 63.4307 270.668C63.4307 272.382 64.887 273.772 66.6835 273.772ZM69.9364 300.153C69.9364 301.868 68.48 303.257 66.6835 303.257C64.887 303.257 63.4307 301.868 63.4307 300.153C63.4307 298.439 64.887 297.05 66.6835 297.05C68.48 297.05 69.9364 298.439 69.9364 300.153ZM66.6835 334.294C68.48 334.294 69.9364 332.905 69.9364 331.191C69.9364 329.476 68.48 328.087 66.6835 328.087C64.887 328.087 63.4307 329.476 63.4307 331.191C63.4307 332.905 64.887 334.294 66.6835 334.294ZM102.465 210.147C102.465 211.861 101.008 213.25 99.2118 213.25C97.4153 213.25 95.959 211.861 95.959 210.147C95.959 208.433 97.4153 207.043 99.2118 207.043C101.008 207.043 102.465 208.433 102.465 210.147ZM99.2118 242.736C101.008 242.736 102.465 241.346 102.465 239.632C102.465 237.918 101.008 236.528 99.2118 236.528C97.4153 236.528 95.959 237.918 95.959 239.632C95.959 241.346 97.4153 242.736 99.2118 242.736ZM102.465 270.668C102.465 272.382 101.008 273.772 99.2118 273.772C97.4153 273.772 95.959 272.382 95.959 270.668C95.959 268.954 97.4153 267.564 99.2118 267.564C101.008 267.564 102.465 268.954 102.465 270.668ZM99.2118 303.257C101.008 303.257 102.465 301.868 102.465 300.153C102.465 298.439 101.008 297.05 99.2118 297.05C97.4153 297.05 95.959 298.439 95.959 300.153C95.959 301.868 97.4153 303.257 99.2118 303.257ZM102.465 331.191C102.465 332.905 101.008 334.294 99.2118 334.294C97.4153 334.294 95.959 332.905 95.959 331.191C95.959 329.476 97.4153 328.087 99.2118 328.087C101.008 328.087 102.465 329.476 102.465 331.191ZM130.929 213.25C132.725 213.25 134.182 211.861 134.182 210.147C134.182 208.433 132.725 207.043 130.929 207.043C129.132 207.043 127.676 208.433 127.676 210.147C127.676 211.861 129.132 213.25 130.929 213.25ZM134.182 239.632C134.182 241.346 132.725 242.736 130.929 242.736C129.132 242.736 127.676 241.346 127.676 239.632C127.676 237.918 129.132 236.528 130.929 236.528C132.725 236.528 134.182 237.918 134.182 239.632ZM130.929 273.772C132.725 273.772 134.182 272.382 134.182 270.668C134.182 268.954 132.725 267.564 130.929 267.564C129.132 267.564 127.676 268.954 127.676 270.668C127.676 272.382 129.132 273.772 130.929 273.772ZM134.182 300.153C134.182 301.868 132.725 303.257 130.929 303.257C129.132 303.257 127.676 301.868 127.676 300.153C127.676 298.439 129.132 297.05 130.929 297.05C132.725 297.05 134.182 298.439 134.182 300.153ZM130.929 334.294C132.725 334.294 134.182 332.905 134.182 331.191C134.182 329.476 132.725 328.087 130.929 328.087C129.132 328.087 127.676 329.476 127.676 331.191C127.676 332.905 129.132 334.294 130.929 334.294Z" fill="#0693E3"/></g>
<g class="_bounce2"><path fill-rule="evenodd" clip-rule="evenodd" d="M1377.58 377.745C1379.38 377.745 1380.84 376.356 1380.84 374.642C1380.84 372.928 1379.38 371.538 1377.58 371.538C1375.79 371.538 1374.33 372.928 1374.33 374.642C1374.33 376.356 1375.79 377.745 1377.58 377.745ZM1377.58 407.231C1379.38 407.231 1380.84 405.841 1380.84 404.127C1380.84 402.413 1379.38 401.023 1377.58 401.023C1375.79 401.023 1374.33 402.413 1374.33 404.127C1374.33 405.841 1375.79 407.231 1377.58 407.231ZM1380.84 435.164C1380.84 436.878 1379.38 438.268 1377.58 438.268C1375.79 438.268 1374.33 436.878 1374.33 435.164C1374.33 433.45 1375.79 432.061 1377.58 432.061C1379.38 432.061 1380.84 433.45 1380.84 435.164ZM1377.58 467.752C1379.38 467.752 1380.84 466.363 1380.84 464.649C1380.84 462.934 1379.38 461.545 1377.58 461.545C1375.79 461.545 1374.33 462.934 1374.33 464.649C1374.33 466.363 1375.79 467.752 1377.58 467.752ZM1413.37 374.642C1413.37 376.356 1411.91 377.745 1410.11 377.745C1408.32 377.745 1406.86 376.356 1406.86 374.642C1406.86 372.928 1408.32 371.538 1410.11 371.538C1411.91 371.538 1413.37 372.928 1413.37 374.642ZM1410.11 407.231C1411.91 407.231 1413.37 405.841 1413.37 404.127C1413.37 402.413 1411.91 401.023 1410.11 401.023C1408.32 401.023 1406.86 402.413 1406.86 404.127C1406.86 405.841 1408.32 407.231 1410.11 407.231ZM1413.37 435.164C1413.37 436.878 1411.91 438.268 1410.11 438.268C1408.32 438.268 1406.86 436.878 1406.86 435.164C1406.86 433.45 1408.32 432.061 1410.11 432.061C1411.91 432.061 1413.37 433.45 1413.37 435.164ZM1410.11 467.752C1411.91 467.752 1413.37 466.363 1413.37 464.649C1413.37 462.934 1411.91 461.545 1410.11 461.545C1408.32 461.545 1406.86 462.934 1406.86 464.649C1406.86 466.363 1408.32 467.752 1410.11 467.752ZM1444.27 374.642C1444.27 376.356 1442.81 377.745 1441.02 377.745C1439.22 377.745 1437.76 376.356 1437.76 374.642C1437.76 372.928 1439.22 371.538 1441.02 371.538C1442.81 371.538 1444.27 372.928 1444.27 374.642ZM1441.02 407.231C1442.81 407.231 1444.27 405.841 1444.27 404.127C1444.27 402.413 1442.81 401.023 1441.02 401.023C1439.22 401.023 1437.76 402.413 1437.76 404.127C1437.76 405.841 1439.22 407.231 1441.02 407.231ZM1444.27 435.164C1444.27 436.878 1442.81 438.268 1441.02 438.268C1439.22 438.268 1437.76 436.878 1437.76 435.164C1437.76 433.45 1439.22 432.061 1441.02 432.061C1442.81 432.061 1444.27 433.45 1444.27 435.164ZM1441.02 467.752C1442.81 467.752 1444.27 466.363 1444.27 464.649C1444.27 462.934 1442.81 461.545 1441.02 461.545C1439.22 461.545 1437.76 462.934 1437.76 464.649C1437.76 466.363 1439.22 467.752 1441.02 467.752ZM1476.8 374.642C1476.8 376.356 1475.34 377.745 1473.54 377.745C1471.75 377.745 1470.29 376.356 1470.29 374.642C1470.29 372.928 1471.75 371.538 1473.54 371.538C1475.34 371.538 1476.8 372.928 1476.8 374.642ZM1473.54 407.231C1475.34 407.231 1476.8 405.841 1476.8 404.127C1476.8 402.413 1475.34 401.023 1473.54 401.023C1471.75 401.023 1470.29 402.413 1470.29 404.127C1470.29 405.841 1471.75 407.231 1473.54 407.231ZM1476.8 435.164C1476.8 436.878 1475.34 438.268 1473.54 438.268C1471.75 438.268 1470.29 436.878 1470.29 435.164C1470.29 433.45 1471.75 432.061 1473.54 432.061C1475.34 432.061 1476.8 433.45 1476.8 435.164ZM1473.54 467.752C1475.34 467.752 1476.8 466.363 1476.8 464.649C1476.8 462.934 1475.34 461.545 1473.54 461.545C1471.75 461.545 1470.29 462.934 1470.29 464.649C1470.29 466.363 1471.75 467.752 1473.54 467.752Z" fill="#0693E3"/></g>
<path fill-rule="evenodd" clip-rule="evenodd" d="M300.891 950.375C300.891 952.089 299.435 953.479 297.639 953.479C295.842 953.479 294.386 952.089 294.386 950.375C294.386 948.661 295.842 947.271 297.639 947.271C299.435 947.271 300.891 948.661 300.891 950.375ZM300.891 979.861C300.891 981.575 299.435 982.964 297.639 982.964C295.842 982.964 294.386 981.575 294.386 979.861C294.386 978.146 295.842 976.757 297.639 976.757C299.435 976.757 300.891 978.146 300.891 979.861ZM297.639 1014C299.435 1014 300.891 1012.61 300.891 1010.9C300.891 1009.18 299.435 1007.79 297.639 1007.79C295.842 1007.79 294.386 1009.18 294.386 1010.9C294.386 1012.61 295.842 1014 297.639 1014ZM333.421 950.375C333.421 952.089 331.964 953.479 330.168 953.479C328.371 953.479 326.915 952.089 326.915 950.375C326.915 948.661 328.371 947.271 330.168 947.271C331.964 947.271 333.421 948.661 333.421 950.375ZM330.168 982.964C331.964 982.964 333.421 981.575 333.421 979.861C333.421 978.146 331.964 976.757 330.168 976.757C328.371 976.757 326.915 978.146 326.915 979.861C326.915 981.575 328.371 982.964 330.168 982.964ZM333.421 1010.9C333.421 1012.61 331.964 1014 330.168 1014C328.371 1014 326.915 1012.61 326.915 1010.9C326.915 1009.18 328.371 1007.79 330.168 1007.79C331.964 1007.79 333.421 1009.18 333.421 1010.9ZM361.069 953.479C362.866 953.479 364.322 952.089 364.322 950.375C364.322 948.661 362.866 947.271 361.069 947.271C359.273 947.271 357.816 948.661 357.816 950.375C357.816 952.089 359.273 953.479 361.069 953.479ZM364.322 979.861C364.322 981.575 362.866 982.964 361.069 982.964C359.273 982.964 357.816 981.575 357.816 979.861C357.816 978.146 359.273 976.757 361.069 976.757C362.866 976.757 364.322 978.146 364.322 979.861ZM361.069 1014C362.866 1014 364.322 1012.61 364.322 1010.9C364.322 1009.18 362.866 1007.79 361.069 1007.79C359.273 1007.79 357.816 1009.18 357.816 1010.9C357.816 1012.61 359.273 1014 361.069 1014Z" fill="#0693E3"/>
<g class="_bounce1"><circle cx="172.5" cy="695.5" r="32.5" stroke="#FEE13E" stroke-width="10"/></g>
<g class="_zoom"><circle cx="1691.52" cy="84.5" r="33.5" stroke="#FEE13E" stroke-width="10"/></g>
<g class="bounce-top"><path d="M1825.4 525C1850.98 525 1871.8 504.451 1871.8 479C1871.8 453.549 1850.98 433 1825.4 433C1799.82 433 1779 453.549 1779 479C1779 504.451 1799.82 525 1825.4 525Z" stroke="#0693E3" stroke-width="10"/></g>
<g class="_swing"><circle cx="1682" cy="872" r="78" stroke="#FEE13E" stroke-width="26"/></g>
</svg>
