<svg width="1920" height="1080" viewBox="0 0 1920 1080" fill="none" xmlns="http://www.w3.org/2000/svg">
<style>
.move-1{left:44px;top:60px;-webkit-animation:move-1 45s infinite;animation:move-1 45s infinite;-ms-transform:translate(0,0)scale(1.04);-webkit-transform:translate(0,0)scale(1.04);transform:translate(0,0)scale(1.04)}.move-2{left:62px;top:72px;-webkit-animation:move-2 55s infinite;animation:move-2 55s infinite;-ms-transform:translate(0,0)scale(0.35);-webkit-transform:translate(0,0)scale(0.35);transform:translate(0,0)scale(0.35)}.move-3{left:82px;top:87px;-webkit-animation:move-3 55s infinite;animation:move-3 55s infinite;-ms-transform:translate(0,0)scale(1.09);-webkit-transform:translate(0,0)scale(1.09);transform:translate(0,0)scale(1.09)}.move-4{left:71px;top:5px;-webkit-animation:move-4 55s infinite;animation:move-4 55s infinite;-ms-transform:translate(0,0)scale(1.95);-webkit-transform:translate(0,0)scale(1.95);transform:translate(0,0)scale(1.95)}.move-5{left:74px;top:43px;-webkit-animation:move-54 5s infinite;animation:move-54 5s infinite;-ms-transform:translate(0,0)scale(1.76);-webkit-transform:translate(0,0)scale(1.76);transform:translate(0,0)scale(1.76)}.move-6{left:8px;top:26px;-webkit-animation:move-6 55s infinite;animation:move-6 55s infinite;-ms-transform:translate(0,0)scale(0.37);-webkit-transform:translate(0,0)scale(0.37);transform:translate(0,0)scale(0.37)}.move-7{left:66px;top:7px;-webkit-animation:move-7 55s infinite;animation:move-7 55s infinite;-ms-transform:translate(0,0)scale(0.12);-webkit-transform:translate(0,0)scale(0.12);transform:translate(0,0)scale(0.12)}.move-8{left:7px;top:61px;-webkit-animation:move-8 55s infinite;animation:move-8 55s infinite;-ms-transform:translate(0,0)scale(0.07);-webkit-transform:translate(0,0)scale(0.07);transform:translate(0,0)scale(0.07)}.move-9{left:89px;top:3px;-webkit-animation:move-9 55s infinite;animation:move-9 55s infinite;-ms-transform:translate(0,0)scale(0.4);-webkit-transform:translate(0,0)scale(0.4);transform:translate(0,0)scale(0.4)}.move-10{left:51px;top:8px;-webkit-animation:move-10 55s infinite;animation:move-10 55s infinite;-ms-transform:translate(0,0)scale(1.04);-webkit-transform:translate(0,0)scale(1.04);transform:translate(0,0)scale(1.04)}.move-11{left:3px;top:79px;-webkit-animation:move-11 55s infinite;animation:move-11 55s infinite;-ms-transform:translate(0,0)scale(0.37);-webkit-transform:translate(0,0)scale(0.37);transform:translate(0,0)scale(0.37)}.move-12{left:6px;top:21px;-webkit-animation:move-12 55s infinite;animation:move-12 55s infinite;-ms-transform:translate(0,0)scale(1.24);-webkit-transform:translate(0,0)scale(1.24);transform:translate(0,0)scale(1.24)}.move-13{left:78px;top:66px;-webkit-animation:move-13 55s infinite;animation:move-13 55s infinite;-ms-transform:translate(0,0)scale(1.39);-webkit-transform:translate(0,0)scale(1.39);transform:translate(0,0)scale(1.39)}.move-14{left:80px;top:62px;-webkit-animation:move-14 55s infinite;animation:move-14 55s infinite;-ms-transform:translate(0,0)scale(1.45);-webkit-transform:translate(0,0)scale(1.45);transform:translate(0,0)scale(1.45)}.floating{-webkit-animation:5s Infinite linear floating;animation:5s Infinite linear floating;-webkit-animation-delay:0s;animation-delay:0s}.wind{-webkit-animation:8s Infinite linear wind;animation:8s Infinite linear wind;-webkit-animation-delay:0s;animation-delay:0s}@-webkit-keyframes floating{0%{opacity:1;-webkit-transform:translateY(0px);transform:translateY(0px)}50%{-webkit-transform:translateY(-20px);transform:translateY(-20px)}100%{opacity:1;-webkit-transform:translateY(0px);transform:translateY(0px)}}@keyframes floating{0%{opacity:1;-webkit-transform:translateY(0px);transform:translateY(0px)}50%{-webkit-transform:translateY(-20px);transform:translateY(-20px)}100%{opacity:1;-webkit-transform:translateY(0px);transform:translateY(0px)}}@-webkit-keyframes move-1{43%{-webkit-transform:translate(-96px,-21px);transform:translate(-96px,-21px)}}@keyframes move-1{43%{-webkit-transform:translate(-96px,-21px);transform:translate(-96px,-21px)}}@-webkit-keyframes move-2{60%{-webkit-transform:translate(-59px,-40px);transform:translate(-59px,-40px)}}@keyframes move-2{60%{-webkit-transform:translate(-59px,-40px);transform:translate(-59px,-40px)}}@-webkit-keyframes move-3{37%{-webkit-transform:translate(-31px,-55px);transform:translate(-31px,-55px)}}@keyframes move-3{37%{-webkit-transform:translate(-31px,-55px);transform:translate(-31px,-55px)}}@-webkit-keyframes move-4{37%{-webkit-transform:translate(-62px,-35px);transform:translate(-62px,-35px)}}@keyframes move-4{37%{-webkit-transform:translate(-62px,-35px);transform:translate(-62px,-35px)}}@-webkit-keyframes move-5{47%{-webkit-transform:translate(-88px,-96px);transform:translate(-88px,-96px)}}@keyframes move-5{47%{-webkit-transform:translate(-88px,-96px);transform:translate(-88px,-96px)}}@-webkit-keyframes move-6{59%{-webkit-transform:translate(-96px,-62px);transform:translate(-96px,-62px)}}@keyframes move-6{59%{-webkit-transform:translate(-96px,-62px);transform:translate(-96px,-62px)}}@-webkit-keyframes move-7{44%{-webkit-transform:translate(180px,-32px);transform:translate(180px,-32px)}}@keyframes move-7{44%{-webkit-transform:translate(180px,-32px);transform:translate(180px,-32px)}}@-webkit-keyframes move-8{33%{-webkit-transform:translate(-75px,-80px);transform:translate(-75px,-80px)}}@keyframes move-8{33%{-webkit-transform:translate(-75px,-80px);transform:translate(-75px,-80px)}}@-webkit-keyframes move-9{44%{-webkit-transform:translate(-54px,-76px);transform:translate(-54px,-76px)}}@keyframes move-9{44%{-webkit-transform:translate(-54px,-76px);transform:translate(-54px,-76px)}}@-webkit-keyframes move-10{41%{-webkit-transform:translate(-78px,-24px);transform:translate(-78px,-24px)}}@keyframes move-10{41%{-webkit-transform:translate(-78px,-24px);transform:translate(-78px,-24px)}}@-webkit-keyframes move-11{60%{-webkit-transform:translate(-75px,-9px);transform:translate(-75px,-9px)}}@keyframes move-11{60%{-webkit-transform:translate(-75px,-9px);transform:translate(-75px,-9px)}}@-webkit-keyframes move-12{34%{-webkit-transform:translate(-34px,-62px);transform:translate(-34px,-62px)}}@keyframes move-12{34%{-webkit-transform:translate(-34px,-62px);transform:translate(-34px,-62px)}}@-webkit-keyframes move-13{48%{-webkit-transform:translate(-25px,-41px);transform:translate(-25px,-41px)}}@keyframes move-13{48%{-webkit-transform:translate(-25px,-41px);transform:translate(-25px,-41px)}}@-webkit-keyframes move-14{43%{-webkit-transform:translate(-71px,-38px);transform:translate(-71px,-38px)}}@keyframes move-14{43%{-webkit-transform:translate(-71px,-38px);transform:translate(-71px,-38px)}}
</style>
<g class="floating"><path d="M215 232.2C215 258.5 193.286 279.818 166.5 279.818C139.715 279.818 118 258.5 118 232.2C118 205.903 139.715 184.582 166.5 184.582C193.286 184.582 215 205.903 215 232.2Z" fill="#0693E3"/>
<path d="M198 215.509C198 241.805 176.285 263.127 149.5 263.127C122.715 263.127 101 241.805 101 215.509C101 189.209 122.715 167.891 149.5 167.891C176.285 167.891 198 189.209 198 215.509V215.509Z" stroke="#101413" stroke-width="2.66667" stroke-miterlimit="10" stroke-linecap="round" stroke-linejoin="round"/></g>
<g class="move-3"><path d="M1765.7 336.55C1773.41 344.12 1773.41 356.394 1765.7 363.963C1757.99 371.533 1745.49 371.533 1737.78 363.963C1730.07 356.394 1730.07 344.12 1737.78 336.55C1745.49 328.98 1757.99 328.98 1765.7 336.55Z" stroke="#0693E3" stroke-width="2.66667" stroke-miterlimit="10"/></g>
<g class="move-8"><path d="M1812.62 964.719L1780.58 996.172C1780.08 996.67 1779.25 996.67 1778.75 996.172L1746.71 964.719C1746.21 964.222 1746.21 963.414 1746.71 962.917L1778.75 931.464C1779.25 930.966 1780.08 930.966 1780.58 931.464L1812.62 962.917C1813.13 963.414 1813.13 964.222 1812.62 964.719Z" stroke="#FEE13E" stroke-width="3.16625" stroke-miterlimit="10"/>
<path d="M1798.51 964.334L1780.19 982.317C1779.9 982.601 1779.43 982.601 1779.14 982.317L1760.82 964.334C1760.53 964.049 1760.53 963.587 1760.82 963.302L1779.14 945.32C1779.43 945.035 1779.9 945.035 1780.19 945.32L1798.51 963.302C1798.8 963.587 1798.8 964.049 1798.51 964.334V964.334Z" stroke="#FEE13E" stroke-width="3.16625" stroke-miterlimit="10"/></g>
<g class="move-10"><path d="M107.245 952.229L73.2422 971.664L73.1752 953.131L73.1007 933.035L90.8642 943.021L107.245 952.229Z" fill="#0693E3"/></g>
<g class="move-7"><path d="M1845.62 799.578L1839.55 793.615L1845.62 787.652L1842.39 784.472L1836.31 790.435L1830.24 784.472L1827 787.652L1833.07 793.615L1827 799.578L1830.24 802.758L1836.31 796.795L1842.39 802.758L1845.62 799.578Z" fill="#0693E3"/></g>
<g class="move-8"><path d="M464.073 11.1844C464.073 21.9895 459.614 31.7663 452.402 38.8479C445.188 45.9288 435.231 50.3065 424.225 50.3072C413.219 50.3065 403.262 45.9288 396.049 38.8479C388.837 31.7663 384.378 21.9895 384.378 11.1844H383C383 33.5387 401.457 51.6595 424.225 51.6602C446.994 51.6595 465.45 33.5387 465.451 11.1844H464.073Z" fill="#FEE13E"/></g>
<g class="move-14"><path d="M439.019 14.5246C439.019 22.5466 432.395 29.0498 424.225 29.0498C416.054 29.0498 409.431 22.5466 409.431 14.5246C409.431 6.50268 416.054 -0.00053215 424.225 -0.00053215C432.395 -0.00053215 439.019 6.50268 439.019 14.5246Z" fill="#FEE13E"/></g>
<g class="move-11"><path d="M1864.62 106.415L1858.55 100.452L1864.62 94.4905L1861.38 91.3094L1855.31 97.2723L1849.24 91.3094L1846 94.4905L1852.07 100.452L1846 106.415L1849.24 109.595L1855.31 103.632L1861.38 109.595L1864.62 106.415Z" fill="#FABC23"/></g>
<g class="move-7"><path d="M36 641.782C36.5975 641.786 37.0641 641.938 37.5521 642.245C38.3995 642.775 39.2516 643.905 40.0251 645.379C41.2016 647.584 42.2073 650.448 43.5391 652.866C44.212 654.077 44.9708 655.193 45.9703 656.063C46.9593 656.932 48.2625 657.532 49.7396 657.522C50.8599 657.526 51.8959 657.186 52.7495 656.632C54.2495 655.657 55.2521 654.15 56.1276 652.518C57.4245 650.062 58.4308 647.205 59.6188 645.07C60.2063 644.003 60.8344 643.133 61.4703 642.587C62.1172 642.04 62.6979 641.791 63.4745 641.782C64.0713 641.786 64.538 641.938 65.026 642.245C65.8735 642.775 66.7251 643.905 67.4989 645.379C68.6756 647.584 69.6808 650.448 71.0131 652.866C71.6855 654.077 72.4443 655.193 73.4437 656.063C74.4323 656.932 75.736 657.532 77.2131 657.522C78.3333 657.526 79.3699 657.186 80.224 656.633C81.7245 655.657 82.7276 654.151 83.6036 652.518C84.9016 650.062 85.9084 647.205 87.0975 645.07C87.6855 644.003 88.3136 643.133 88.95 642.587C89.5975 642.04 90.1787 641.791 90.9563 641.782C91.5532 641.786 92.0199 641.938 92.5079 642.245C93.3547 642.775 94.2068 643.905 94.9808 645.379C96.1573 647.584 97.1631 650.448 98.4948 652.866C99.1679 654.077 99.9265 655.193 100.927 656.063C101.915 656.932 103.217 657.532 104.695 657.522C105.816 657.526 106.852 657.186 107.707 656.633C109.208 655.657 110.212 654.151 111.088 652.518C112.387 650.062 113.393 647.207 114.583 645.07C115.171 644.003 115.8 643.134 116.436 642.587C117.084 642.04 117.665 641.791 118.444 641.782C119.041 641.786 119.508 641.938 119.997 642.245C120.845 642.775 121.697 643.907 122.472 645.379C123.649 647.584 124.655 650.448 125.988 652.867C126.661 654.077 127.421 655.193 128.421 656.063C129.411 656.932 130.715 657.532 132.192 657.522V654.904C131.593 654.9 131.127 654.748 130.639 654.441C129.791 653.911 128.937 652.78 128.163 651.307C126.985 649.102 125.98 646.238 124.647 643.82C123.973 642.609 123.215 641.493 122.215 640.623C121.225 639.754 119.921 639.156 118.444 639.164C117.323 639.16 116.287 639.5 115.432 640.054C113.931 641.029 112.927 642.535 112.051 644.168C110.752 646.624 109.745 649.481 108.556 651.616C107.968 652.683 107.339 653.553 106.703 654.099C106.055 654.646 105.473 654.896 104.695 654.904C104.097 654.9 103.632 654.748 103.144 654.441C102.296 653.911 101.444 652.781 100.671 651.307C99.4932 649.102 98.488 646.238 97.1563 643.82C96.4839 642.609 95.7251 641.494 94.7251 640.623C93.7365 639.754 92.4333 639.156 90.9563 639.164C89.8355 639.16 88.7995 639.5 87.9453 640.054C86.4443 641.029 85.4412 642.536 84.5651 644.168C83.2672 646.624 82.2604 649.481 81.0713 651.616C80.4839 652.683 79.8552 653.553 79.2188 654.099C78.5713 654.646 77.9901 654.896 77.2131 654.904C76.6156 654.9 76.1495 654.748 75.6615 654.441C74.8141 653.911 73.962 652.781 73.1885 651.307C72.012 649.102 71.0068 646.238 69.6745 643.82C69.0021 642.609 68.2432 641.494 67.2432 640.623C66.2547 639.754 64.9516 639.156 63.4745 639.164C62.3541 639.16 61.3183 639.5 60.4645 640.054C58.9645 641.029 57.962 642.536 57.0865 644.17C55.7896 646.624 54.7833 649.481 53.5953 651.617C53.0079 652.684 52.3797 653.553 51.7437 654.099C51.0969 654.648 50.5161 654.896 49.7396 654.904C49.1423 654.9 48.676 654.748 48.188 654.441C47.3407 653.911 46.4885 652.781 45.7145 651.307C44.538 649.102 43.5328 646.238 42.2005 643.82C41.5281 642.609 40.7693 641.494 39.7693 640.623C38.7808 639.754 37.4776 639.156 36 639.164V641.782Z" fill="#FEE13E"/></g>
<g class="move-13"><path d="M1649.37 571.777H1633V555.708H1649.37V571.777Z" fill="#FEE13E"/></g>
<g class="move-9"><path d="M1584.59 170.219L1579.29 174.328L1574 178.438V161.999L1579.29 166.11L1584.59 170.219Z" fill="#8BC9EC"/></g>
<g class="move-2"><path d="M238.589 438.256L233.295 442.365L228 446.475V430.036L233.295 434.147L238.589 438.256Z" fill="#FEE13E"/></g>
<g class="move-10"><path d="M291.835 817.517H286.821V812.783H282V807.861H286.821V803.127H291.835V807.861H296.657V812.783H291.835V817.517Z" fill="#32A5E6"/></g>
</svg>
